<svg xmlns="http://www.w3.org/2000/svg" width="51" height="30.42" viewBox="0 0 51 30.42">
  <title>icon-shield</title>
  <g id="Layer_2" data-name="Layer 2">
    <g id="Home_-_1200" data-name="Home - 1200">
      <g id="First_Module" data-name="First Module">
        <g id="Advantages">
          <g id="Icon_Group" data-name="Icon Group">
            <g id="icon">
              <g id="camera">
                <rect x="24.84" y="12.94" width="18.78" height="8.86" transform="translate(2.83 -4.71) rotate(8.21)" style="fill: #fff;stroke: #3f4563;stroke-linecap: round;stroke-linejoin: round"/>
                <polygon points="45.27 22.08 43.08 21.81 43.83 16.63 46.02 16.9 45.27 22.08" style="fill: #fff;stroke: #3f4563;stroke-linecap: round;stroke-linejoin: round"/>
                <path d="M30.5,12.36l-6.83-1h-.05s0,3,.77,3.57l.66.1c.12,0,.22.13.29.31l.44,1.28" style="fill: #fff;stroke: #3f4563;stroke-linecap: round;stroke-linejoin: round"/>
                <line x1="34.17" y1="17.83" x2="27.75" y2="16.9" style="fill: #fff;stroke: #3f4563;stroke-linecap: round;stroke-linejoin: round;stroke-dasharray: 1.8857603073120117,2.8286404609680176"/>
                <path d="M31,12.43,50.5,15.24s-1.3,2.79-3,3l-1.33-.19a1,1,0,0,0-.69.17l-1.41,1-9.88-1.43" style="fill: #fff;stroke: #3f4563;stroke-linecap: round;stroke-linejoin: round"/>
                <rect x="23.61" y="15.04" width="0.48" height="3.98" transform="translate(2.68 -3.23) rotate(8.21)" style="fill: #fff;stroke: #3f4563;stroke-linecap: round;stroke-linejoin: round"/>
              </g>
              <g id="camera-2" data-name="camera">
                <rect x="7.38" y="12.94" width="18.78" height="8.86" transform="translate(35.84 32.17) rotate(171.79)" style="fill: #fff;stroke: #3f4563;stroke-linecap: round;stroke-linejoin: round"/>
                <polygon points="5.73 22.08 7.92 21.81 7.17 16.63 4.98 16.9 5.73 22.08" style="fill: #fff;stroke: #3f4563;stroke-linecap: round;stroke-linejoin: round"/>
                <path d="M20.5,12.36l6.83-1h.05s0,3-.77,3.57l-.66.1c-.12,0-.22.13-.29.31l-.44,1.28" style="fill: #fff;stroke: #3f4563;stroke-linecap: round;stroke-linejoin: round"/>
                <line x1="16.83" y1="17.83" x2="23.25" y2="16.9" style="fill: #fff;stroke: #3f4563;stroke-linecap: round;stroke-linejoin: round;stroke-dasharray: 1.8857603073120117,2.8286404609680176"/>
                <path d="M20,12.43.5,15.24s1.3,2.79,3,3l1.33-.19a1,1,0,0,1,.69.17l1.41,1,9.88-1.43" style="fill: #fff;stroke: #3f4563;stroke-linecap: round;stroke-linejoin: round"/>
                <rect x="26.91" y="15.04" width="0.48" height="3.98" transform="translate(56.45 30) rotate(171.79)" style="fill: #fff;stroke: #3f4563;stroke-linecap: round;stroke-linejoin: round"/>
              </g>
              <g id="shield">
                <path d="M25.51,29.92a.73.73,0,0,1-.27,0C17.19,26.71,13.6,21.71,13.6,13.63V4.78a.73.73,0,0,1,.68-.73A23.34,23.34,0,0,0,25.12.61a.73.73,0,0,1,.78,0A23.32,23.32,0,0,0,36.74,4.05h0a.73.73,0,0,1,.68.73v8.85c0,8.07-3.59,13.08-11.65,16.23A.73.73,0,0,1,25.51,29.92Z" style="fill: #fff;stroke: #3f4563;stroke-miterlimit: 10"/>
                <line x1="25.51" y1="0.9" x2="25.51" y2="6.51" style="fill: none;stroke: #3f4563;stroke-linecap: round;stroke-linejoin: round;stroke-dasharray: 1.8857603073120117,2.8286404609680176"/>
                <line x1="25.67" y1="29.59" x2="25.67" y2="24.65" style="fill: none;stroke: #3f4563;stroke-linecap: round;stroke-linejoin: round;stroke-dasharray: 1.8857603073120117,2.8286404609680176"/>
                <circle cx="25.63" cy="15.25" r="1.15" style="fill: none;stroke: #3f4563;stroke-linecap: round;stroke-linejoin: round"/>
                <g>
                  <path d="M21.38,19.11a5.08,5.08,0,0,1-.11-7.46" style="fill: none;stroke: #3f4563;stroke-linecap: round;stroke-linejoin: round"/>
                  <path d="M18.93,20.28a7.36,7.36,0,0,1-.12-9.82" style="fill: none;stroke: #3f4563;stroke-linecap: round;stroke-linejoin: round"/>
                  <path d="M23.84,17.93a2.94,2.94,0,0,1-.17-5.13" style="fill: #fff;stroke: #3f4563;stroke-linecap: round;stroke-linejoin: round"/>
                </g>
                <g>
                  <path d="M29.76,19.11a5.08,5.08,0,0,0,.11-7.46" style="fill: none;stroke: #3f4563;stroke-linecap: round;stroke-linejoin: round"/>
                  <path d="M32.21,20.28a7.36,7.36,0,0,0,.12-9.82" style="fill: none;stroke: #3f4563;stroke-linecap: round;stroke-linejoin: round"/>
                  <path d="M27.3,17.93a2.94,2.94,0,0,0,.17-5.13" style="fill: none;stroke: #3f4563;stroke-linecap: round;stroke-linejoin: round"/>
                </g>
              </g>
            </g>
          </g>
        </g>
      </g>
    </g>
  </g>
</svg>
