<svg xmlns="http://www.w3.org/2000/svg" width="26.04" height="31.92" viewBox="0 0 26.04 31.92">
  <title>icon-blue-shield</title>
  <g id="Layer_2" data-name="Layer 2">
    <g id="Benefits_-_1200" data-name="Benefits - 1200">
      <g id="More_Benefits" data-name="More Benefits">
        <path d="M13.52,15.44V20.1a.5.5,0,0,1-1,0V15.44a2.07,2.07,0,0,1-1.42-2A2,2,0,0,1,13,11.32a2,2,0,0,1,1.92,2.1A2.07,2.07,0,0,1,13.52,15.44ZM13,7.27a.5.5,0,0,0,.5-.5V5.88a.5.5,0,1,0-1,0v.89A.5.5,0,0,0,13,7.27ZM26,5v9.31C26,23,22.17,28.43,13.48,31.84a1.28,1.28,0,0,1-.92,0C3.87,28.44,0,23,0,14.31V5A1.27,1.27,0,0,1,1.18,3.73,24,24,0,0,0,12.34.2,1.27,1.27,0,0,1,13.7.2,24,24,0,0,0,24.86,3.73h0A1.27,1.27,0,0,1,26,5ZM24.74,5A24.89,24.89,0,0,1,13.52,1.61V2.88a.5.5,0,1,1-1,0V1.58A25.14,25.14,0,0,1,1.27,5l0,9.26c0,7.93,3.47,12.91,11.21,16.09V29.08a.5.5,0,0,1,1,0v1.33c7.73-3.19,11.21-8.17,11.21-16.11ZM13,25.39a.5.5,0,0,0-.5.5v.2a.5.5,0,0,0,1,0v-.2A.5.5,0,0,0,13,25.39Z" style="fill: #03a9f4"/>
      </g>
    </g>
  </g>
</svg>
