<svg xmlns="http://www.w3.org/2000/svg" viewBox="0 0 100 100"><g id="SVG_Icons" data-name="SVG Icons"><path class="svg-grey" d="M93.78,47.56,81.62,43.84c0-.46,0-.91,0-1.38V21.39A2.42,2.42,0,0,0,79.35,19a62.29,62.29,0,0,1-28-5.13,3.93,3.93,0,0,0-1.21-.29l-.09,0-.09,0a3.8,3.8,0,0,0-1.21.29A62.44,62.44,0,0,1,20.61,19a2.41,2.41,0,0,0-2.24,2.39V42.46c0,.49,0,1,0,1.45L6.46,47.56A9,9,0,0,0,.22,56.81a4.2,4.2,0,0,0,1.71,3,4.45,4.45,0,0,0,3.2.84,10,10,0,0,0,3.31,4.15,6.91,6.91,0,0,0,4,1.31,7.33,7.33,0,0,0,2.14-.33l4.18-1.28.78,2.53a1.33,1.33,0,0,0,1.32.88,1.73,1.73,0,0,0,.5-.07l2-.62L24,69.33a5.72,5.72,0,0,0,5.53,4h.11C34.47,78.12,40.88,82,49,85.23a2.38,2.38,0,0,0,.88.17l.09,0,.09,0a2.36,2.36,0,0,0,.87-.17c8.17-3.19,14.59-7.12,19.4-12l.31,0a5.74,5.74,0,0,0,5.54-4l.63-2.07,2,.62a1.68,1.68,0,0,0,.5.07,1.33,1.33,0,0,0,1.32-.88l.78-2.53,4.17,1.28a7.44,7.44,0,0,0,2.15.33,6.85,6.85,0,0,0,4-1.31,9.89,9.89,0,0,0,3.31-4.15,4.51,4.51,0,0,0,3.21-.84,4.24,4.24,0,0,0,1.71-3h0A9,9,0,0,0,93.78,47.56ZM96,57.05a.5.5,0,0,0-.44-.55.49.49,0,0,0-.55.44,15.18,15.18,0,0,1-.66,2.91l0,.1A9,9,0,0,1,91.22,64a5.9,5.9,0,0,1-5.29.84L78.3,62.52l-.43-.13c.4-.91.78-1.84,1.12-2.79.25-.71.48-1.44.7-2.17l.15,0a7.12,7.12,0,0,0,3.62-.14c-.24,2.64,1,5,3,5.61a3.74,3.74,0,0,0,1.09.16c2.16,0,4.33-1.84,5.17-4.55.88-2.89,0-5.79-2.08-6.87a4.13,4.13,0,0,1,3-.49.5.5,0,0,0,.62-.33.51.51,0,0,0-.33-.63,5,5,0,0,0-3.64.51A11.5,11.5,0,0,0,86.45,54a6.12,6.12,0,0,1-6.36,2.5l-.13,0a48.43,48.43,0,0,0,1.13-5.66,58,58,0,0,0,.5-5.92l11.9,3.64a7.77,7.77,0,0,1,3,1.7A8.11,8.11,0,0,1,99,56.5c0,.07,0,.15,0,.23a2.86,2.86,0,0,1-.09.51.9.9,0,0,0,0,.16c-.05.14-.11.26-.17.39s-.06.16-.1.23a2.55,2.55,0,0,1-.34.47l-.06.08a3.27,3.27,0,0,1-.51.47,3.46,3.46,0,0,1-2.27.66A14.2,14.2,0,0,0,96,57.05ZM79.16,66.92l-2-.62-1-.29L76,66c.12-.21.23-.42.35-.62.37-.66.72-1.33,1-2l.56.18,2.5.76-.76,2.5C79.69,66.91,79.44,67,79.16,66.92ZM50.1,84.4l-.09,0-.09,0h0a1.55,1.55,0,0,1-.52-.1c-7.7-3-13.81-6.69-18.46-11.17-.29-.28-.57-.57-.85-.85a35.8,35.8,0,0,1-4.53-5.69l-.27-.44L25,65.72c-.51-.86-1-1.73-1.42-2.63l0,0-.21-.43v0c-.07-.14-.13-.29-.19-.43l0,0a39.39,39.39,0,0,1-1.84-4.95c0-.16-.09-.32-.14-.48s-.09-.33-.13-.49a45.18,45.18,0,0,1-1.1-5.42,56.93,56.93,0,0,1-.53-6.17c0-.17,0-.34,0-.52s0-.34,0-.52c0-.38,0-.75,0-1.14V21.39A1.4,1.4,0,0,1,20.63,20a64.16,64.16,0,0,0,28.46-5.2,2.74,2.74,0,0,1,.85-.22h.14a2.76,2.76,0,0,1,.84.22A64,64,0,0,0,79.33,20a1.41,1.41,0,0,1,1.31,1.4V42.46c0,.37,0,.72,0,1.07v.53c0,.17,0,.34,0,.51a55.78,55.78,0,0,1-.53,6.24A46.19,46.19,0,0,1,79,56.17c0,.16-.08.32-.13.48s-.1.32-.14.48a37.5,37.5,0,0,1-1.84,5v0c-.06.14-.12.29-.19.43v0l-.21.43v0c-.44.9-.91,1.77-1.42,2.62-.08.14-.17.28-.26.42l-.27.44A35.83,35.83,0,0,1,70,72.24c-.28.28-.55.57-.84.85-4.66,4.5-10.79,8.19-18.51,11.21A1.49,1.49,0,0,1,50.1,84.4ZM20.5,66.77l-.76-2.5,2.5-.76.36-.12c.44.9.9,1.78,1.4,2.64l-.9.27-2,.62C20.8,67,20.54,66.91,20.5,66.77ZM5.91,60l0-.1a16.1,16.1,0,0,1-.65-2.91.5.5,0,0,0-1,.11,15,15,0,0,0,.57,2.65A3.46,3.46,0,0,1,2.52,59a3.14,3.14,0,0,1-1.3-2.3,8,8,0,0,1,5.53-8.22L18.42,45a56.84,56.84,0,0,0,.51,5.85,45.94,45.94,0,0,0,1.14,5.72A6.11,6.11,0,0,1,13.79,54a11.6,11.6,0,0,0-3.88-3.27,5,5,0,0,0-3.64-.51.5.5,0,0,0,.29,1,4.09,4.09,0,0,1,3,.5c-2,1.08-3,4-2.08,6.86.83,2.71,3,4.55,5.17,4.55a3.74,3.74,0,0,0,1.09-.16c2-.63,3.25-3,3-5.61a7.38,7.38,0,0,0,3.57.15c.26.88.54,1.75.85,2.6s.63,1.6,1,2.37l-.23.07L14.3,64.86A5.89,5.89,0,0,1,9,64,9,9,0,0,1,5.91,60Zm4.71-7.61a10.51,10.51,0,0,1,2.31,2.25,7.74,7.74,0,0,0,2.82,2.47c.35,2.32-.6,4.41-2.28,4.92-1.94.6-4.19-1.08-5-3.73s.11-5.29,2.06-5.89Zm73.87,4.72a7.74,7.74,0,0,0,2.82-2.47,10.46,10.46,0,0,1,2.3-2.25l.1,0c1.94.6,2.87,3.24,2.06,5.89s-3.06,4.33-5,3.73C85.09,61.47,84.14,59.38,84.49,57.06ZM25,69,24.35,67l.2-.07a35.86,35.86,0,0,0,4.05,5.29A4.63,4.63,0,0,1,25,69Zm50.28,0a4.66,4.66,0,0,1-3.89,3.21,36.71,36.71,0,0,0,4.13-5.39l.39.12ZM72.1,61.15c.07-.15.16-.3.23-.45a31.84,31.84,0,0,0,1.84-5c0-.16.07-.33.12-.49s.07-.32.11-.48a36.74,36.74,0,0,0,.76-3.92A48,48,0,0,0,75.63,44V27.39a2,2,0,0,0-1.94-2c-8.42.25-14.67-1.61-22.6-4.9a2.8,2.8,0,0,0-1-.24h-.15a2.8,2.8,0,0,0-1,.24c-7.93,3.29-14.17,5.15-22.65,4.9a2,2,0,0,0-1.89,2V44a48,48,0,0,0,.47,6.84,35.47,35.47,0,0,0,.78,4c0,.16.07.33.11.49l.12.48a30.53,30.53,0,0,0,1.85,5c.07.16.16.3.23.45l.24.45c3.85,7.45,10.71,12.93,21,17a2,2,0,0,0,.73.14h.17a2,2,0,0,0,.73-.14c10.33-4,17.2-9.54,21-17Zm-1.24.15c-3.76,7.18-10.42,12.48-20.4,16.39a.94.94,0,0,1-.37.07h0l-.07,0-.08,0h0a.94.94,0,0,1-.37-.07C39.6,73.79,33,68.51,29.18,61.36l-.24-.45c-.08-.16-.17-.3-.24-.45a31.43,31.43,0,0,1-1.87-5L26.71,55l-.12-.48c-.29-1.19-.54-2.42-.72-3.69A46.34,46.34,0,0,1,25.38,44V27.39a1,1,0,0,1,.91-1c8.61.24,15-1.63,23-5a2.64,2.64,0,0,1,.63-.16h.15a2.43,2.43,0,0,1,.63.16c8,3.35,14.4,5.22,23,5a1,1,0,0,1,1,1V44a46.58,46.58,0,0,1-.49,6.85,36.59,36.59,0,0,1-.71,3.61c0,.16-.07.33-.11.49l-.12.48a30.56,30.56,0,0,1-1.86,5c-.07.15-.16.3-.24.45S70.94,61.15,70.86,61.3ZM50.47,56.8v2a.49.49,0,0,1-.38.47h0l-.1,0h0a.49.49,0,0,1-.45-.49v-2a.49.49,0,0,1,.45-.49h0l.1,0h0A.51.51,0,0,1,50.47,56.8Zm0,5v2a.49.49,0,0,1-.38.47h0l-.1,0h0a.49.49,0,0,1-.45-.49v-2a.49.49,0,0,1,.45-.49h0l.1,0h0A.51.51,0,0,1,50.47,61.8Zm0,5v2a.48.48,0,0,1-.38.47h0l-.11,0h0a.5.5,0,0,1-.45-.49v-2a.49.49,0,0,1,.45-.49h0l.11,0h0A.51.51,0,0,1,50.47,66.8Zm-1-43v-2a.49.49,0,0,1,.46-.5h0l.09,0h0a.49.49,0,0,1,.39.48v2a.51.51,0,0,1-.39.48h0l-.09,0h0A.49.49,0,0,1,49.47,23.8Zm0,10v-2a.48.48,0,0,1,.46-.49h0l.1,0h0a.49.49,0,0,1,.39.48v2a.49.49,0,0,1-.39.47h0l-.1,0h0A.49.49,0,0,1,49.47,33.8Zm0-5v-2a.49.49,0,0,1,.46-.5h0l.09,0h0a.49.49,0,0,1,.39.48v2a.51.51,0,0,1-.39.48h0l-.09,0h0A.49.49,0,0,1,49.47,28.8Zm0,15v-2a.49.49,0,0,1,.46-.49h0l.1,0h0a.5.5,0,0,1,.39.48v2a.49.49,0,0,1-.39.47h0l-.1,0h0A.49.49,0,0,1,49.47,43.8Zm0-5v-2a.48.48,0,0,1,.46-.49h0l.1,0h0a.5.5,0,0,1,.39.48v2a.49.49,0,0,1-.39.47h0l-.1,0h0A.49.49,0,0,1,49.47,38.8Zm.61,6.07h-.15a3.65,3.65,0,0,0-.46,7.26V53.8a.49.49,0,0,0,.45.49h0l.1,0h0a.49.49,0,0,0,.38-.47V52.12a3.64,3.64,0,0,0-.39-7.25Zm0,6.29h-.16a2.65,2.65,0,0,1,0-5.3h.15a2.65,2.65,0,0,1,0,5.29ZM40,56.05a.5.5,0,0,1,0,.71.49.49,0,0,1-.37.16.5.5,0,0,1-.34-.13c-.09-.08-.17-.17-.26-.26h0c-.13-.12-.25-.24-.37-.37s-.24-.25-.35-.38h0a12,12,0,0,1-2-3.19c-.07-.15-.12-.31-.18-.47s-.13-.3-.18-.46-.14-.49-.2-.73a12,12,0,0,1-.4-3,11.79,11.79,0,0,1,1.47-5.66c.08-.15.17-.28.26-.43s.17-.28.26-.42a11.82,11.82,0,0,1,1.69-2,.5.5,0,0,1,.71,0,.5.5,0,0,1,0,.71A10.81,10.81,0,0,0,38.23,42c-.1.14-.18.29-.27.43s-.18.28-.26.43a10.79,10.79,0,0,0-1.3,5.12,10.65,10.65,0,0,0,.44,3c0,.15.07.29.12.43s.12.32.18.47.11.32.18.47a11,11,0,0,0,1.53,2.51h0l.34.42.38.38h0Zm-4.29,2.71a.49.49,0,0,1,0,.52h0a.45.45,0,0,1-.1.14.5.5,0,0,1-.34.13l-.15,0a.61.61,0,0,1-.22-.13l-.21-.26c-.12-.13-.23-.28-.35-.41A17,17,0,0,1,31.64,54c-.06-.16-.11-.32-.16-.48s-.11-.31-.16-.47a16.46,16.46,0,0,1-.55-2.2,16.56,16.56,0,0,1,1.16-9.71c.07-.17.13-.34.21-.5s.18-.34.27-.51a16.64,16.64,0,0,1,2.28-3.39.5.5,0,0,1,.7,0,.49.49,0,0,1,0,.7,15.76,15.76,0,0,0-1.92,2.77c-.09.16-.18.32-.26.48s-.17.32-.24.48a15.88,15.88,0,0,0-1.52,6.77,15.16,15.16,0,0,0,.78,4.86l.15.47c.06.16.11.32.17.47a15.93,15.93,0,0,0,2.79,4.61h0c.1.12.19.25.3.36ZM44.49,54a.51.51,0,0,1-.45.27.46.46,0,0,1-.23-.06,7,7,0,0,1-3-3,3.81,3.81,0,0,1-.23-.45,3.75,3.75,0,0,1-.17-.47h0a6.87,6.87,0,0,1-.06-4.56,4.84,4.84,0,0,1,.22-.6,5,5,0,0,1,.25-.52,7.23,7.23,0,0,1,2.59-2.74.5.5,0,1,1,.52.86,6.1,6.1,0,0,0-2.48,2.87,4.52,4.52,0,0,0-.21.62,5,5,0,0,0-.17.77,5.64,5.64,0,0,0-.08.93A6.32,6.32,0,0,0,41.36,50h0c.06.15.12.31.19.46a4.73,4.73,0,0,0,.23.45,6.11,6.11,0,0,0,2.49,2.42A.5.5,0,0,1,44.49,54Zm19.56-3.09a6.29,6.29,0,0,1-.17.62c-.05.16-.11.31-.17.47a4.52,4.52,0,0,1-.18.47,11.61,11.61,0,0,1-1.8,3h0c-.12.13-.22.28-.34.41h0c-.11.13-.25.25-.37.37h0c-.17.17-.33.35-.51.51a.5.5,0,1,1-.67-.74c.24-.22.46-.45.68-.68h0c.13-.14.25-.29.37-.43h0a5.32,5.32,0,0,0,.37-.46h0a11.08,11.08,0,0,0,1.32-2.29l.18-.46c.05-.16.12-.31.17-.47s0-.22.08-.32a10.59,10.59,0,0,0-.75-7.9L62,42.59l-.27-.42a10.92,10.92,0,0,0-1.67-2.06.5.5,0,0,1,0-.71.5.5,0,0,1,.71,0,11.92,11.92,0,0,1,1.8,2.21l.25.42c.09.14.17.29.25.44a11.78,11.78,0,0,1,1.38,5.48A12,12,0,0,1,64.05,50.93Zm3.87-9.76a16.59,16.59,0,0,1,1.16,9.72A16.33,16.33,0,0,1,68.57,53c0,.16-.11.32-.16.47s-.1.32-.16.48a17.07,17.07,0,0,1-2.71,4.69c-.12.14-.23.28-.35.41l-.29.36-.06,0a.52.52,0,0,1-.31.12A.48.48,0,0,1,64,59.1a.47.47,0,0,1,.12-.39l.07-.08.33-.39h0a15.77,15.77,0,0,0,2.73-4.59c.06-.16.11-.32.16-.48s.11-.31.16-.47a15.66,15.66,0,0,0,.46-1.79,15.86,15.86,0,0,0-1.22-9.7l-.24-.48c-.08-.16-.17-.32-.26-.47a15.64,15.64,0,0,0-1.94-2.81.49.49,0,0,1,0-.7.5.5,0,0,1,.7,0,17.11,17.11,0,0,1,2.29,3.39c.08.16.17.32.25.49S67.84,41,67.92,41.17Zm-8.06,6.77a7.1,7.1,0,0,1-.38,2.26h0a3.75,3.75,0,0,1-.17.47,3.88,3.88,0,0,1-.22.46A7,7,0,0,1,56,54.23a.46.46,0,0,1-.23.06.5.5,0,0,1-.23-.94,6.11,6.11,0,0,0,2.54-2.52c.08-.15.17-.29.24-.45s.11-.31.17-.47h0a6.17,6.17,0,0,0,.33-2c0-.08,0-.16,0-.24a5.88,5.88,0,0,0-.11-.94,5.71,5.71,0,0,0-.19-.71,6,6,0,0,0-2.63-3.3.5.5,0,0,1,.52-.86A7.14,7.14,0,0,1,59.2,45c.08.18.16.36.23.54s.15.42.2.63A7.14,7.14,0,0,1,59.86,47.94Zm-9,33.64a.66.66,0,0,1-.66.65H50.1l-.18,0a.68.68,0,0,1-.4-.6.66.66,0,0,1,.4-.6.34.34,0,0,1,.18,0l.08,0A.66.66,0,0,1,50.84,81.58ZM23.24,23.72a.76.76,0,1,1-.75-.75A.75.75,0,0,1,23.24,23.72Zm53.13,0a.76.76,0,1,1,.75.75A.75.75,0,0,1,76.37,23.72ZM49.32,17.64a.75.75,0,0,1,.62-.73.58.58,0,0,1,.14,0h0a.76.76,0,0,1,0,1.51h0a.8.8,0,0,1-.15,0A.75.75,0,0,1,49.32,17.64ZM22.26,48.55a.66.66,0,1,1-.66-.66A.67.67,0,0,1,22.26,48.55Zm55.34-.72a.66.66,0,1,1-.66.65A.66.66,0,0,1,77.6,47.83Z"/></g></svg>