<svg xmlns="http://www.w3.org/2000/svg" xmlns:xlink="http://www.w3.org/1999/xlink" width="494.5" height="361.05" viewBox="0 0 494.5 361.05">
  <defs>
    <linearGradient id="linear-gradient" x1="422.67" y1="183.44" x2="419.19" y2="189.46" gradientUnits="userSpaceOnUse">
      <stop offset="0" stop-color="#8c949a"/>
      <stop offset="1" stop-color="#686e73"/>
    </linearGradient>
    <linearGradient id="linear-gradient-2" x1="467.41" y1="180.63" x2="463.93" y2="186.65" xlink:href="#linear-gradient"/>
    <linearGradient id="linear-gradient-3" x1="402.59" y1="160.63" x2="399.11" y2="166.65" xlink:href="#linear-gradient"/>
    <linearGradient id="linear-gradient-4" x1="352.94" y1="111.65" x2="362.08" y2="111.65" gradientUnits="userSpaceOnUse">
      <stop offset="0" stop-color="#969696"/>
      <stop offset="0.06" stop-color="#e8e8e8"/>
      <stop offset="0.4" stop-color="#969696"/>
      <stop offset="0.75" stop-color="#fff"/>
      <stop offset="1" stop-color="#969696"/>
    </linearGradient>
    <linearGradient id="linear-gradient-5" x1="-4680.75" y1="103.25" x2="-4673.21" y2="103.25" gradientTransform="matrix(-1, 0, 0, 1, -4310.48, 0)" gradientUnits="userSpaceOnUse">
      <stop offset="0" stop-color="#2e3a36"/>
      <stop offset="1" stop-color="#1d2622"/>
    </linearGradient>
  </defs>
  <title>icon-with-cdn</title>
  <g id="Layer_2" data-name="Layer 2">
    <g id="cWatch_CDN" data-name="cWatch CDN">
      <g id="_575" data-name="575">
        <g id="The_Smarter_Way" data-name="The Smarter Way">
          <g id="With_CDN" data-name="With CDN">
            <g id="Illustration">
              <g>
                <path d="M468.75,197.74a66.07,66.07,0,0,0,6-3c24.82-14.33,24.82-37.56,0-51.89s-65.06-14.33-89.88,0a54.6,54.6,0,0,0-5.27,3.46l-40.87-23.6-71.56,39.94L422.94,252.2l71.56-39.94Z" style="fill: #edf0f3;opacity: 0.6000000000000001"/>
                <g>
                  <path d="M442.65,146.56c2.12,1.23,2.12,3.21,0,4.44a8.5,8.5,0,0,1-7.69,0c-2.12-1.23-2.12-3.21,0-4.44A8.5,8.5,0,0,1,442.65,146.56Z" style="fill: #b5bbc0"/>
                  <g>
                    <path d="M423.87,184l-2.34-1.31a1.78,1.78,0,0,0-1.78.18,5.59,5.59,0,0,0-2.53,4.38,1.77,1.77,0,0,0,.75,1.64l2.34,1.31a1.78,1.78,0,0,0,1.78-.18,5.59,5.59,0,0,0,2.53-4.38A1.77,1.77,0,0,0,423.87,184Z" style="fill: url(#linear-gradient)"/>
                    <g>
                      <path d="M468.61,181.21l-2.34-1.31a1.78,1.78,0,0,0-1.78.18,5.59,5.59,0,0,0-2.53,4.38,1.77,1.77,0,0,0,.75,1.64l2.33,1.31a1.78,1.78,0,0,0,1.78-.18,5.59,5.59,0,0,0,2.53-4.38A1.77,1.77,0,0,0,468.61,181.21Z" style="fill: #edf0f3"/>
                      <path d="M468.61,181.21l-2.34-1.31a1.78,1.78,0,0,0-1.78.18,5.59,5.59,0,0,0-2.53,4.38,1.77,1.77,0,0,0,.75,1.64l2.33,1.31a1.78,1.78,0,0,0,1.78-.18,5.59,5.59,0,0,0,2.53-4.38A1.77,1.77,0,0,0,468.61,181.21Z" style="fill: url(#linear-gradient-2)"/>
                      <path d="M468.61,181.21l-2.34-1.31a1.78,1.78,0,0,0-1.78.18,5.59,5.59,0,0,0-2.53,4.38,1.77,1.77,0,0,0,.75,1.64l2.33,1.31a1.78,1.78,0,0,0,1.78-.18,5.59,5.59,0,0,0,2.53-4.38A1.77,1.77,0,0,0,468.61,181.21Z" style="fill: none;stroke: #969c9c;stroke-linecap: round;stroke-linejoin: round"/>
                    </g>
                    <path d="M476,154.34,473.67,153a1.78,1.78,0,0,0-1.78.18,5.6,5.6,0,0,0-2.53,4.38,1.77,1.77,0,0,0,.75,1.64l2.34,1.31a1.78,1.78,0,0,0,1.78-.18,5.59,5.59,0,0,0,2.53-4.38A1.77,1.77,0,0,0,476,154.34Z" style="fill: #fff;stroke: #969c9c;stroke-linecap: round;stroke-linejoin: round"/>
                    <path d="M403.79,161.21l-2.34-1.31a1.79,1.79,0,0,0-1.78.18,5.6,5.6,0,0,0-2.53,4.38,1.77,1.77,0,0,0,.75,1.64l2.34,1.31a1.78,1.78,0,0,0,1.78-.18,5.59,5.59,0,0,0,2.53-4.38A1.77,1.77,0,0,0,403.79,161.21Z" style="fill: url(#linear-gradient-3)"/>
                    <path d="M476.89,150.09a3.74,3.74,0,0,0-1.38-3.12c-.59-.37-2.48,0-2.48,0l-28.79,8.42v-6.61a2.7,2.7,0,0,0-1.59-2.22,8.5,8.5,0,0,0-7.69,0,2.7,2.7,0,0,0-1.59,2.22v7.58l-34.12-3.1s-1.49.21-1.84,1.19a18,18,0,0,0-1,4.59,2.35,2.35,0,0,0,2.39,2.71c1.51.19,24.35,2.63,31.52,3.4h0c-3.8,4.35-11.59,13.59-11.59,13.59a6.25,6.25,0,0,0-.87,2.75c-.09,1.56-.23,3.86-.23,3.86a2,2,0,0,0,2.2,1.1c1.79-.09,2.8-1.1,4.84-3.14S438,169.09,438,169.09v0a8.62,8.62,0,0,0,4.18-.62v.08s19.73,11.87,22.88,13.56,4.36-.61,4.36-.61,0-2.34-.12-4a6.34,6.34,0,0,0-1.33-3.15s-14.81-9.08-18.44-11.06c-.27-.15-.53-.3-.78-.45h0c5.87-1.67,20.75-5.91,22.88-6.53,2.66-.78,5.33-1.88,5.33-1.88S477,151.88,476.89,150.09Z" style="fill: #fff;stroke: #969c9c;stroke-linecap: round;stroke-linejoin: round"/>
                    <path d="M437.59,161.16a8.52,8.52,0,0,0-1.88,1.62s-11.83,14.13-12.74,15.3a4.33,4.33,0,0,1-3.39,1.64.92.92,0,0,1-.81-1s11.11-13.18,13.27-15.48a11.48,11.48,0,0,0,1.33-1.68v-3.48a6.57,6.57,0,0,0,1.92,2A14.15,14.15,0,0,0,437.59,161.16Z" style="fill: #c3c9ce"/>
                    <path d="M475.51,147c-.59-.37-2.48,0-2.48,0l-28.79,8.42v1.4l29.7-8.09s1.63-.47,2.09-1.24A2.11,2.11,0,0,0,475.51,147Z" style="fill: #c3c9ce"/>
                    <path d="M397.5,154.28a3.42,3.42,0,0,0,2,.93l33.86,2.86v-1.71l-34.12-3.1A2.63,2.63,0,0,0,397.5,154.28Z" style="fill: #c3c9ce"/>
                  </g>
                  <path d="M476,117.92a10.32,10.32,0,0,1,0,7.07c-1.4,3.84-7.58,10.09-13.75,13.59s-15.75,9-21.67,10.64-14.25-1.31-18.81-3.57-21-13.18-23.5-17.09-1.65-7.34,2.54-11.74,15.95-11.46,22-13.8,14.88-3.57,21.34-2.33S471.94,113.81,476,117.92Z" style="fill: #edf0f3;stroke: #969c9c;stroke-miterlimit: 10"/>
                  <path d="M408.25,111c.38-2.92,1.27-7.29,2.67-9.77,1.89-3.34,7.8-8.28,12.13-9.69,6.32-2.06,13.09-1.15,14.89-.85-.42-1.75-.78-3.64-1.06-5.56h-.28c-3.43,0-17.36-.54-25.8,8.49-5.94,6.37-6.15,10.39-6.6,14.78l-.59,5.94C405,113.28,406.55,112.14,408.25,111Z" style="fill: #fff;stroke: #969c9c;stroke-miterlimit: 10"/>
                  <path d="M473.82,119a27.22,27.22,0,0,1-7.69,8c-5,3.36-19.15,11.6-22.72,13.18s-9.33,3.64-16.88,0-18.74-10.85-21.69-13.66-6.25-5.17-2.26-9.75,17.64-11.88,21.83-13.45,14.34-3.36,19.56-2.13S472.93,114.09,473.82,119Z" style="fill: #fff"/>
                  <path d="M469.92,116.84a11.36,11.36,0,0,0,3.26,2.13,6.36,6.36,0,0,0,3.15.51c3.33-.39,5.46-5.28,6.45-7.36a86.18,86.18,0,0,0,4.55-19.58c.43-6.41-.41-28.57-.48-33.37s-.51-12.26-4-16.63-13.28-11-18.14-12.83-11.69-4-14.48-1.64-6.89,15-8.16,20.1-5,19.51-5.63,25.56.7,15.28,2.66,20.9,3.68,6.55,8.31,8.94,7.7,3.56,10.79,5.49S468.67,115.83,469.92,116.84Z" style="fill: #fff;stroke: #969c9c;stroke-linecap: round;stroke-linejoin: round"/>
                  <path d="M459,108.27s-6-3.58-9.42-5.1-7.2-2.51-8.52-5.88a53.62,53.62,0,0,1-3.87-18.39c-.26-8.7,2.35-16.91,3.17-20.57S445,41,446.54,36.92s3.37-6.3,4.86-7S462.71,32.39,468,36.3s9.14,6.75,10.37,11.93,1.19,18.63,1.07,25.49-.21,22.86-1.48,27.92a70,70,0,0,1-4.73,12.92c-.78,1.19-1.61,2.72-4.53.37A106.4,106.4,0,0,0,459,108.27Z" style="fill: #fff;stroke: #969c9c;stroke-linecap: round;stroke-linejoin: round"/>
                </g>
                <g>
                  <path d="M388.08,87.49s1.49-1.92,2-1.37.66.82.22,1.41-3.19,4.9-2.71,5.46,3.87-2,5.32-3.69,2.55-4.77,3.84-6.56a23,23,0,0,1,3.8-3.74l-3.42-2.83a26.44,26.44,0,0,0-4.81.72c-1.37.51-5.85,2.23-7.63,2.6s-4.91,1.71-6.23,3.84-2.08,3.17-1.19,3.43a3,3,0,0,0,2-.31s-1.93,5.92-.38,6.3,2.25-1.3,2.25-1.3-.23,3.06.82,3.54a1.45,1.45,0,0,0,1.72-.31s1,1.34,1.93-.94Z" style="fill: #fff;stroke: #03a9f4;stroke-linecap: round;stroke-linejoin: round"/>
                  <path d="M378.88,92.75c1.55.38,2.25-1.3,2.25-1.3s-.23,3.06.82,3.54a1.43,1.43,0,0,0,1.58-.18s0-4.29.83-6.32,1.27-2.42,1.36-3.14.83-1-.91-2.12-2.56-1.55-2.53-2.09c0-.16,0-.48,0-.83a8.84,8.84,0,0,0-3.81,3c-1.33,2.13-2.08,3.17-1.19,3.43a3,3,0,0,0,2-.31S377.33,92.37,378.88,92.75Z" style="fill: #d88f69"/>
                </g>
                <g>
                  <g>
                    <path d="M409.08,174.36a51.83,51.83,0,0,0-1.33-7.58A19.65,19.65,0,0,1,401,168.7a15.56,15.56,0,0,1-5.94-.67s-3,4.66-5.94,6.32-6.5,2.68-9.09,4.9-5.5,6.12-4.61,8.17,7.58,3.43,13,.28c3.5-2,6.58-5.85,10-6.91C398.46,180.79,409,177.74,409.08,174.36Z" style="fill: #fff;stroke: #969c9c;stroke-linecap: round;stroke-linejoin: round"/>
                    <path d="M409,174.74c-.78,3.23-10.57,6-10.57,6-3.44,1.07-6.52,4.88-10,6.91-5.43,3.16-12.11,1.76-13-.28a1.89,1.89,0,0,1-.11-.36,2.45,2.45,0,0,0,.11,1.42c.9,2,7.58,3.43,13,.28,3.5-2,6.58-5.84,10-6.91,0,0,1.57-.45,3.5-1.2l.15,1.21a21.82,21.82,0,0,0,6.51-3.53l.47-2.64h0a2,2,0,0,0,0-.28S409.07,175.16,409,174.74Z" style="fill: #969c9c;fill-rule: evenodd"/>
                  </g>
                  <path d="M447.73,117.2l-2.83-12.7,1.43-7.09c-9.62-3.07-14.58-7.84-14.58-7.84a8.26,8.26,0,0,1-2.65,3.62S404.8,103.72,397,109.81c-11,8.57-9.27,13.95-7,26.63s.17,35-.85,37.92c0,0,12.62,4.65,20-1.8,0,0,2.57-29.17-.42-42.53C408.69,130,441.73,120.26,447.73,117.2Z" style="fill: #fff;stroke: #969c9c;stroke-linecap: round;stroke-linejoin: round"/>
                  <g>
                    <path d="M410.57,184.09s-1.86,6.87-4.64,9.09-9,11.41-4.83,13.55,14.2-1.11,15.4-4.82,2.14-7.33,3.25-8.81,4.09-6,1.54-11.08c0,0-2.64,4.46-6.41,3.73S410.57,184.09,410.57,184.09Z" style="fill: #fff;stroke: #969c9c;stroke-linecap: round;stroke-linejoin: round"/>
                    <path d="M422.29,186.05a12,12,0,0,1-2.54,7c-1.11,1.48-2,5.1-3.25,8.81s-11.23,7-15.4,4.82a2.48,2.48,0,0,1-1.36-2,2.82,2.82,0,0,0,1.36,3.13c4.18,2.14,14.2-1.11,15.4-4.82s2.14-7.33,3.25-8.81S423.14,190.26,422.29,186.05Z" style="fill: #969c9c;fill-rule: evenodd"/>
                  </g>
                  <path d="M468.79,98.29s-11.71,1.81-22.46-.88l-3,8.5c-5.87,5.18-26.06,15.92-28.86,18.91-3.29,3.51-5.23,16.09-5.35,30.2s-1.33,31.35-1.33,31.35-.23,5,4.53,5.32,12.09-6.79,12.09-6.79,5.18-16.61,5.52-24.56c.26-6.12-.08-17.66-.08-17.66S458.26,129.2,464.6,123,470.71,104.75,468.79,98.29Z" style="fill: #fff;stroke: #969c9c;stroke-linecap: round;stroke-linejoin: round"/>
                </g>
                <path d="M450.76,26.71l-13,3.5c-.65,4.33-2.59,16.28,6.41,17.15S456.82,34,456.82,34C453.75,32.38,450.76,26.71,450.76,26.71Z" style="fill: #fff;stroke: #969c9c;stroke-miterlimit: 10"/>
                <path d="M455.65,32.53s-6.56,14-14,11.88c-5.52-1.56-3.54-12.34-3.54-12.34s-10.7,6.76-12,14.53,4.28,18.4,7.66,27.27-3.65,18.33-3.65,18.33-2.32,6.5,14.21,10.71S470.74,100,470.74,100s5.48-31.62,4.62-42.44C474,41.1,469.29,35.83,455.65,32.53Z" style="fill: #fff;stroke: #969c9c;stroke-linecap: round;stroke-linejoin: round"/>
                <path d="M426.15,46.59c.5-3.12,2.54-6.08,4.78-8.5-5.86,1.33-14,24.72-14,24.72a94.92,94.92,0,0,0-12,7c-3.6,2.71-15,7.82-15,7.82s5.9,1.7,6.6,6.27c0,0,22.17-5.57,25.81-7.55,1.72-.93,5.43-6.32,8.36-10.14C427.89,59.33,425.24,52.22,426.15,46.59Z" style="fill: #fff;stroke: #969c9c;stroke-linecap: round;stroke-linejoin: round"/>
                <g>
                  <path d="M427.51,8.46a19.73,19.73,0,0,0-2.9,7.5,19.19,19.19,0,0,0,.06,6.92,11.3,11.3,0,0,1,.39,3.07,27.85,27.85,0,0,0,1.58,6.38c.77,2.07,1.61,8.24,4.36,9.27s9.31.83,15-6,6.28-15.59,6.43-18.46S450.42,3.8,442.09,2,427.51,8.46,427.51,8.46Z" style="fill: #fff;stroke: #969c9c;stroke-linecap: round;stroke-linejoin: round"/>
                  <path d="M452.11,12.09l-.07-.22c.56.56.92.91.92.9a18.32,18.32,0,0,0-.9-2.43,9.43,9.43,0,0,0-1.32-2.09,6.77,6.77,0,0,0,.83.16S451,7.83,450.23,7a10.27,10.27,0,0,0-1.53-1.43,5.7,5.7,0,0,0-.55-.36l-.27-.29c.72.18,1.18.35,1.18.34a7.77,7.77,0,0,0-1.6-1.56,6.53,6.53,0,0,0-2.15-1,5.73,5.73,0,0,0-.73-.14c.91-.31,1.54-.45,1.54-.46a8.18,8.18,0,0,0-2.24-.46,11.41,11.41,0,0,0-2.52.13l-.28,0c.44-.54.72-.93.71-.93a11.27,11.27,0,0,0-1.6.34,6.46,6.46,0,0,0-.73.27,5.1,5.1,0,0,0-.83-.81,6.85,6.85,0,0,0-.42.94,10.5,10.5,0,0,0-.59-.92,10.44,10.44,0,0,0-.37,1.31l-.12,0A8.41,8.41,0,0,0,436.05.5s-.08.56-.13,1.35a9.76,9.76,0,0,0-.64-.76,6.84,6.84,0,0,0-.29,1,2.81,2.81,0,0,0-.46-.19,4,4,0,0,0-1.09-.21s.11.37.26.84a6.17,6.17,0,0,0-1.81-.09,5.38,5.38,0,0,0,.46.94,13.59,13.59,0,0,1-2.3-.42,7.44,7.44,0,0,0,1.05.73c-.45-.09-.76-.19-.76-.19a3.12,3.12,0,0,0,.19.5,8.35,8.35,0,0,0-2.07-.19s.53.36,1.29.94l-1.27,0s.13.21.36.51l-.21,0a4.82,4.82,0,0,0-2.19.19,7.6,7.6,0,0,1,1.86.88h-.19c-.75,0-1.32.08-1.32.08s.16.21.45.5c-.53,0-1-.09-1.49-.15a15.67,15.67,0,0,1-2.55-.53,8.64,8.64,0,0,0,2.25,1.61l.21.1-.8-.18a11.51,11.51,0,0,0,1.29,1.42l.07.06a14,14,0,0,0-1.41-.59A14.92,14.92,0,0,0,422.22,8s.87.66,2.07,1.66l.79.67a10.18,10.18,0,0,0-2.66-.49,5.81,5.81,0,0,0-2.81.4,7.75,7.75,0,0,1,2.61.7c.32.13.66.29,1,.46a13.22,13.22,0,0,0-1.46.49c-1.47.61-2.4,1.07-2.41,1.06a19.25,19.25,0,0,0,2.67,0h1.25l-3,.51-.84.17-.13,0s-.05,0,0,0,0,0,0,0h.14l.86.09c.57.06,1.33.13,2.23.2-.35.21-.69.42-1,.62-1.46,1-2.33,1.8-2.35,1.79s1.19-.3,2.86-.8c.66-.19,1.4-.4,2.16-.55-1.36,1-2.2,1.66-2.21,1.66s.47-.13,1.25-.38l-.1.1.16,0L421,17.84s1.24-.28,3.08-.85L423,18.09a22,22,0,0,0,2.41-1.16l.13.16-.05.15c-.12.4-.19.73-.26,1a4.23,4.23,0,0,1-.31.82,3.51,3.51,0,0,0,.63-.68l.53-.77c.08.07.17.14.26.2-.29,1-.42,1.58-.42,1.58s.49-.48,1.19-1.25l.29.06c-.12,1-.22,1.66-.22,1.67a8.08,8.08,0,0,0,.84-.93c-.07.65-.1,1.1-.11,1.3l-.12.2a8.61,8.61,0,0,0,2.1-1.71c.3-.31.6-.67.91-1l.18,0a6.31,6.31,0,0,1-.29.89,7.11,7.11,0,0,1-1.55,2.19,6.61,6.61,0,0,0,.75-.3,5.48,5.48,0,0,0,1.72-1.28,3.85,3.85,0,0,1-.16.46,2.87,2.87,0,0,1-.31.55,2.26,2.26,0,0,0,.58-.33,5.45,5.45,0,0,0,1.19-1.34c.31-.45.62-1,.92-1.54l.08,0c0,.3-.07.57-.1.83-.16,1.85-.39,3.08-.39,3.08a15.09,15.09,0,0,0,1.32-2.48c.07,1.09.19,1.73.17,1.73s.15-1.24.58-3.11a3.94,3.94,0,0,0,0,.58,4,4,0,0,0,.18.7,5.3,5.3,0,0,1,.57-1.61h.16c-.1.61-.15,1-.15,1a4.78,4.78,0,0,0,.85-.44c-.18,1.14-.23,1.89-.23,1.89s.23-.29.59-.79a2.57,2.57,0,0,0,1.21-.31h0a11.67,11.67,0,0,1-.69,1.13,4.14,4.14,0,0,0,1.54-.46l0,0,.08.13,0,.12a6.25,6.25,0,0,1-1.15,1.76,4.3,4.3,0,0,0,1.49-.67,12.51,12.51,0,0,1,0,1.33,6.88,6.88,0,0,1-.55.72,3.59,3.59,0,0,0,1.64-.45l.06,0a6.64,6.64,0,0,1,2.77,2.9c.45,1.17,2.38,2.87,3.15,1.16a6.5,6.5,0,0,1,2.73-2.7,8.48,8.48,0,0,0,.57,1.73,5.75,5.75,0,0,0,1.41,1.94,4.66,4.66,0,0,0,2,1,7.1,7.1,0,0,1-1.1-1.74,5.67,5.67,0,0,1-.33-1,6.9,6.9,0,0,0,1.38.75,15.7,15.7,0,0,1-1.06-1.86l-.14-.32.18.14a5.29,5.29,0,0,0,1.68.82,13.4,13.4,0,0,1-.84-1.55,6.4,6.4,0,0,1-.58-2.41,10.91,10.91,0,0,0,1,1.18l-.32-2.06c-.11-.66-.25-1.46-.48-2.3a12.29,12.29,0,0,0-.11-1.47l.46.61A11.36,11.36,0,0,0,453,14,9.93,9.93,0,0,0,452.11,12.09Z" style="fill: #fff;stroke: #969c9c;stroke-linecap: round;stroke-linejoin: round"/>
                  <path d="M448.06,23c.65-1.48,4-3.3,4.06.38s-1.8,7-4.72,7.28C446.11,30.72,447.32,24.66,448.06,23Z" style="fill: #fff;stroke: #969c9c;stroke-linecap: round;stroke-linejoin: round"/>
                  <path d="M427.84,24.89c-.57-.91-2.87-2.55-3.63-2.45a.48.48,0,0,0-.28.14c-.53.55.05,3.94.44,4.83s2,2.23,3,2.08l.11,0a1,1,0,0,0,.64-.69A5.1,5.1,0,0,0,427.84,24.89Zm-.27,3.67c-.1.24-.19.31-.22.32h0c-.65.09-2.08-1-2.37-1.72a11.89,11.89,0,0,1-.58-4.11,7.62,7.62,0,0,1,3,2.16A4.52,4.52,0,0,1,427.57,28.56Z" style="fill: #969c9c"/>
                  <path d="M427.31,25.22a7.62,7.62,0,0,0-3-2.16,11.89,11.89,0,0,0,.58,4.11c.3.7,1.72,1.81,2.37,1.72h0s.12-.08.22-.32A4.52,4.52,0,0,0,427.31,25.22Z" style="fill: #fff;opacity: 0.5"/>
                  <path d="M435.61,31.34h0a8.7,8.7,0,0,1-4.6-.67,3.65,3.65,0,0,1-1.44-2.58,2.92,2.92,0,0,1,.43-2.27,1.44,1.44,0,0,1,.89-.35c1.72-.24,6.33.29,7.23,1.13a1.28,1.28,0,0,1,.37.94,5.31,5.31,0,0,1-1.21,3.09A2.81,2.81,0,0,1,435.61,31.34ZM431,26.07c-.43.06-.52.15-.52.15a2.41,2.41,0,0,0-.28,1.77,3.07,3.07,0,0,0,1.16,2.15,8.24,8.24,0,0,0,4.18.58h0a2.27,2.27,0,0,0,1.32-.53,4.72,4.72,0,0,0,1-2.65.74.74,0,0,0-.17-.51C437.06,26.43,432.79,25.82,431,26.07Z" style="fill: #969c9c"/>
                  <g style="opacity: 0.5">
                    <path d="M431,26.07c-.43.06-.52.15-.52.15a2.41,2.41,0,0,0-.28,1.77,3.07,3.07,0,0,0,1.16,2.15,8.24,8.24,0,0,0,4.18.58h0a2.27,2.27,0,0,0,1.32-.53,4.72,4.72,0,0,0,1-2.65.74.74,0,0,0-.17-.51C437.06,26.43,432.79,25.82,431,26.07Z" style="fill: #fff"/>
                  </g>
                  <path d="M429.87,26.46a1.27,1.27,0,0,0-1.83-.4l-.24-.34a1.67,1.67,0,0,1,2.4.5Z" style="fill: #969c9c"/>
                  <path d="M439.48,27.78a5.27,5.27,0,0,0-1.38.36l-.09-.88c.06,0,5.89-.51,9.63-2.82l-.19.66A22.22,22.22,0,0,1,439.48,27.78Z" style="fill: #969c9c"/>
                </g>
                <path d="M446.86,140.68s.4,3.16,2.51,2.5,2.06-3.47,2.11-5.49,1-8.8,2.89-12.14,7.74-8.5,12.13-9.69a89.66,89.66,0,0,1,10.77-1.9s2.16.11,1.76-1.25a24.65,24.65,0,0,0-1.32-3.23s-.56-.81-2.86-.79c-3.43,0-15.63,3.68-20.61,9.26-5.8,6.5-6.16,10.39-6.59,14.78S446.86,140.68,446.86,140.68Z" style="fill: #fff;stroke: #969c9c;stroke-miterlimit: 10"/>
                <g>
                  <g>
                    <g>
                      <path d="M427.77,242.24V166.41h-9.12v75.75c-.12.54.63-.12,1.27.45a5.05,5.05,0,0,0,6.57,0C427.12,242,427.87,242.73,427.77,242.24Z" style="fill: #fff"/>
                      <path d="M474.13,217.68V141.84H465v75.75c-.12.54.63-.11,1.27.45a5.05,5.05,0,0,0,6.57,0C473.48,217.47,474.23,218.16,474.13,217.68Z" style="fill: #fff"/>
                    </g>
                    <g>
                      <path d="M427.77,242.24V166.41h-9.12v75.75c-.12.54.63-.12,1.27.45a5.05,5.05,0,0,0,6.57,0C427.12,242,427.87,242.73,427.77,242.24Z" style="fill: #fff"/>
                      <path d="M474.13,217.68V141.84H465v75.75c-.12.54.63-.11,1.27.45a5.05,5.05,0,0,0,6.57,0C473.48,217.47,474.23,218.16,474.13,217.68Z" style="fill: #fff"/>
                    </g>
                    <g>
                      <path d="M427.77,242.24V166.41h-9.12v75.75c-.12.54.63-.12,1.27.45a5.05,5.05,0,0,0,6.57,0C427.12,242,427.87,242.73,427.77,242.24Z" style="fill: none;stroke: #969c9c;stroke-linecap: round;stroke-linejoin: round"/>
                      <path d="M474.13,217.68V141.84H465v75.75c-.12.54.63-.11,1.27.45a5.05,5.05,0,0,0,6.57,0C473.48,217.47,474.23,218.16,474.13,217.68Z" style="fill: none;stroke: #969c9c;stroke-linecap: round;stroke-linejoin: round"/>
                    </g>
                  </g>
                  <g>
                    <path d="M315.71,173.34V97.51h-9.12v75.75c-.12.54.63-.12,1.27.45a5.05,5.05,0,0,0,6.57,0C315.06,173.14,315.81,173.83,315.71,173.34Z" style="fill: #fff;stroke: #969c9c;stroke-linecap: round;stroke-linejoin: round"/>
                    <path d="M362.07,148.78V72.95h-9.12v75.75c-.12.54.63-.11,1.27.45a5.05,5.05,0,0,0,6.57,0C361.42,148.58,362.17,149.27,362.07,148.78Z" style="fill: url(#linear-gradient-4)"/>
                  </g>
                  <g>
                    <polygon points="492.6 138.32 412.27 184.82 277.92 107.1 358.25 62.99 492.6 138.32" style="fill: #fff;stroke: #969c9c;stroke-linecap: round;stroke-linejoin: round"/>
                    <polygon points="492.6 141.84 412.27 188.34 412.27 184.82 492.6 138.32 492.6 141.84" style="fill: #fff;stroke: #969c9c;stroke-linecap: round;stroke-linejoin: round"/>
                    <polygon points="412.27 184.82 412.27 188.34 277.92 110.61 277.92 107.1 412.27 184.82" style="fill: #edf0f3;stroke: #969c9c;stroke-linecap: round;stroke-linejoin: round"/>
                  </g>
                </g>
                <g>
                  <path d="M392,91.75a1.45,1.45,0,0,1,1.31,0l52.85,30.51a.4.4,0,0,1,0,.75l-16.75,9.67a1.45,1.45,0,0,1-1.31,0l-52.85-30.51a.4.4,0,0,1,0-.76Z" style="fill: #fff;stroke: #969c9c;stroke-linecap: round;stroke-linejoin: round"/>
                  <g>
                    <path d="M432.22,127.26a.36.36,0,0,1,.33,0l1.23.71a.1.1,0,0,1,0,.19l-1.23.71a.37.37,0,0,1-.33,0l-1.23-.71a.1.1,0,0,1,0-.19Z" style="fill: #edf0f3"/>
                    <path d="M430.1,126a.36.36,0,0,1,.33,0l1.23.71c.09.05.09.14,0,.19l-1.23.71a.37.37,0,0,1-.33,0l-1.23-.71a.1.1,0,0,1,0-.19Z" style="fill: #edf0f3"/>
                    <path d="M428,124.81a.37.37,0,0,1,.33,0l1.23.71a.1.1,0,0,1,0,.19l-1.23.71a.36.36,0,0,1-.33,0l-1.23-.71a.1.1,0,0,1,0-.19Z" style="fill: #edf0f3"/>
                    <path d="M425.87,123.59a.36.36,0,0,1,.33,0l1.23.71a.1.1,0,0,1,0,.19l-1.23.71a.37.37,0,0,1-.33,0l-1.23-.71a.1.1,0,0,1,0-.19Z" style="fill: #edf0f3"/>
                    <path d="M423.75,122.37a.36.36,0,0,1,.33,0l1.23.71c.09.05.09.14,0,.19l-1.23.71a.35.35,0,0,1-.33,0l-1.23-.71c-.09-.05-.09-.14,0-.19Z" style="fill: #edf0f3"/>
                    <path d="M421.63,121.14a.36.36,0,0,1,.32,0l1.23.71a.1.1,0,0,1,0,.19l-1.23.71a.37.37,0,0,1-.32,0L420.4,122a.1.1,0,0,1,0-.19Z" style="fill: #edf0f3"/>
                    <path d="M419.51,119.92a.37.37,0,0,1,.33,0l1.23.71a.1.1,0,0,1,0,.19l-1.23.71a.36.36,0,0,1-.33,0l-1.23-.71c-.09-.05-.09-.13,0-.19Z" style="fill: #edf0f3"/>
                    <path d="M417.39,118.7a.37.37,0,0,1,.32,0l1.23.71c.09,0,.09.14,0,.19l-1.23.71a.36.36,0,0,1-.32,0l-1.23-.71c-.09-.05-.09-.14,0-.19Z" style="fill: #edf0f3"/>
                    <path d="M415.27,117.47a.35.35,0,0,1,.33,0l1.23.71a.1.1,0,0,1,0,.19l-1.23.71a.37.37,0,0,1-.33,0l-1.23-.71a.1.1,0,0,1,0-.19Z" style="fill: #edf0f3"/>
                    <path d="M413.16,116.25a.36.36,0,0,1,.33,0l1.23.71c.09.05.09.14,0,.19l-1.23.71a.37.37,0,0,1-.33,0l-1.23-.71c-.09-.05-.09-.14,0-.19Z" style="fill: #edf0f3"/>
                    <path d="M411,115a.35.35,0,0,1,.33,0l1.23.71a.1.1,0,0,1,0,.19l-1.23.71a.36.36,0,0,1-.33,0l-1.23-.71a.1.1,0,0,1,0-.19Z" style="fill: #edf0f3"/>
                    <path d="M389.51,102.6a.38.38,0,0,1,.33,0l1.23.71a.1.1,0,0,1,0,.19l-1.23.71a.37.37,0,0,1-.33,0l-1.23-.71c-.09-.05-.09-.14,0-.19Z" style="fill: #edf0f3"/>
                    <path d="M387.39,101.38a.36.36,0,0,1,.33,0l1.23.71a.1.1,0,0,1,0,.19l-1.23.71a.37.37,0,0,1-.33,0l-1.23-.71c-.09-.05-.09-.14,0-.19Z" style="fill: #edf0f3"/>
                    <path d="M385.28,100.15a.35.35,0,0,1,.33,0l1.23.71a.1.1,0,0,1,0,.19l-1.23.71a.37.37,0,0,1-.33,0l-1.23-.71a.1.1,0,0,1,0-.19Z" style="fill: #edf0f3"/>
                    <path d="M383.16,98.93a.35.35,0,0,1,.33,0l1.23.71a.1.1,0,0,1,0,.19l-1.23.71a.36.36,0,0,1-.33,0l-1.23-.71a.1.1,0,0,1,0-.19Z" style="fill: #edf0f3"/>
                    <path d="M391.66,101.36a.36.36,0,0,1,.33,0l1.23.71c.09.05.09.14,0,.19L392,103a.35.35,0,0,1-.33,0l-1.23-.71a.1.1,0,0,1,0-.19Z" style="fill: #edf0f3"/>
                    <path d="M389.54,100.14a.36.36,0,0,1,.33,0l1.23.71c.09.05.09.14,0,.19l-1.23.71a.37.37,0,0,1-.33,0l-1.23-.71c-.09,0-.09-.14,0-.19Z" style="fill: #edf0f3"/>
                    <path d="M387.42,98.91a.36.36,0,0,1,.33,0l1.23.71c.09.05.09.14,0,.19l-1.23.71a.36.36,0,0,1-.33,0l-1.23-.71c-.09-.05-.09-.13,0-.19Z" style="fill: #edf0f3"/>
                    <path d="M393.81,100.12a.36.36,0,0,1,.33,0l1.23.71a.1.1,0,0,1,0,.19l-1.23.71a.38.38,0,0,1-.33,0l-1.23-.71a.1.1,0,0,1,0-.19Z" style="fill: #edf0f3"/>
                    <path d="M391.69,98.9a.36.36,0,0,1,.33,0l1.23.71c.09,0,.09.14,0,.19l-1.23.71a.36.36,0,0,1-.33,0l-1.23-.71c-.09-.05-.09-.14,0-.19Z" style="fill: #edf0f3"/>
                    <path d="M389.57,97.67a.36.36,0,0,1,.33,0l1.23.71c.09.05.09.13,0,.19l-1.23.71a.36.36,0,0,1-.33,0l-1.23-.71c-.09-.05-.09-.14,0-.19Z" style="fill: #edf0f3"/>
                    <path d="M387.46,96.45a.36.36,0,0,1,.33,0l1.23.71a.1.1,0,0,1,0,.19l-3.38,1.95a.36.36,0,0,1-.33,0l-1.23-.71a.1.1,0,0,1,0-.19Z" style="fill: #edf0f3"/>
                    <path d="M396,98.88a.37.37,0,0,1,.33,0l1.23.71a.1.1,0,0,1,0,.19l-1.23.71a.36.36,0,0,1-.33,0l-1.23-.71a.1.1,0,0,1,0-.19Z" style="fill: #edf0f3"/>
                    <path d="M393.84,97.65a.36.36,0,0,1,.33,0l1.23.71a.1.1,0,0,1,0,.19l-1.23.71a.36.36,0,0,1-.33,0l-1.23-.71a.1.1,0,0,1,0-.19Z" style="fill: #edf0f3"/>
                    <path d="M391.72,96.43a.37.37,0,0,1,.33,0l1.23.71a.1.1,0,0,1,0,.19l-1.23.71a.35.35,0,0,1-.33,0l-1.23-.71c-.09,0-.09-.13,0-.19Z" style="fill: #edf0f3"/>
                    <path d="M396,96.44a.36.36,0,0,1,.33,0l3.3,1.91c.09.05.09.14,0,.19l-1.23.71a.37.37,0,0,1-.33,0l-3.3-1.91a.1.1,0,0,1,0-.19Z" style="fill: #edf0f3"/>
                    <path d="M393.87,95.19a.36.36,0,0,1,.33,0l1.23.71a.1.1,0,0,1,0,.19l-1.23.71a.36.36,0,0,1-.33,0l-1.23-.71a.1.1,0,0,1,0-.19Z" style="fill: #edf0f3"/>
                    <path d="M391.75,94a.35.35,0,0,1,.33,0l1.23.71a.1.1,0,0,1,0,.19l-3.38,2a.37.37,0,0,1-.33,0l-1.23-.71a.1.1,0,0,1,0-.19Z" style="fill: #edf0f3"/>
                    <path d="M408.92,113.81a.34.34,0,0,1,.33,0l1.23.71a.1.1,0,0,1,0,.19l-1.23.71a.35.35,0,0,1-.33,0l-1.23-.71c-.09-.05-.09-.14,0-.19Z" style="fill: #edf0f3"/>
                    <path d="M397.92,107.45a.35.35,0,0,1,.33,0l1.23.71a.1.1,0,0,1,0,.19l-1.23.71a.37.37,0,0,1-.33,0l-1.23-.71a.1.1,0,0,1,0-.19Z" style="fill: #edf0f3"/>
                    <path d="M395.8,106.23a.36.36,0,0,1,.33,0l1.23.71a.1.1,0,0,1,0,.19l-1.23.71a.35.35,0,0,1-.33,0l-1.23-.71a.1.1,0,0,1,0-.19Z" style="fill: #edf0f3"/>
                    <path d="M393.68,105a.37.37,0,0,1,.33,0l1.23.71a.1.1,0,0,1,0,.19l-1.23.71a.37.37,0,0,1-.33,0l-1.23-.71a.1.1,0,0,1,0-.19Z" style="fill: #edf0f3"/>
                    <path d="M400.07,106.21a.37.37,0,0,1,.33,0l1.23.71a.1.1,0,0,1,0,.19l-1.23.71a.35.35,0,0,1-.33,0l-1.23-.71c-.09-.05-.09-.14,0-.19Z" style="fill: #edf0f3"/>
                    <path d="M397.95,105a.37.37,0,0,1,.33,0l1.23.71a.1.1,0,0,1,0,.19l-1.23.71a.37.37,0,0,1-.33,0l-1.23-.71c-.09-.05-.09-.14,0-.19Z" style="fill: #edf0f3"/>
                    <path d="M395.83,103.76a.37.37,0,0,1,.33,0l1.23.71a.1.1,0,0,1,0,.19l-1.23.71a.37.37,0,0,1-.33,0l-1.23-.71a.1.1,0,0,1,0-.19Z" style="fill: #edf0f3"/>
                    <path d="M402.23,102.51a.37.37,0,0,1,.33,0l1.23.71a.1.1,0,0,1,0,.19l-1.23.71a.36.36,0,0,1-.33,0l-1.23-.71a.1.1,0,0,1,0-.19Z" style="fill: #edf0f3"/>
                    <path d="M406.5,102.49a.37.37,0,0,1,.33,0l1.23.71c.09.05.09.14,0,.19l-1.23.71a.37.37,0,0,1-.33,0l-1.23-.71a.1.1,0,0,1,0-.19Z" style="fill: #edf0f3"/>
                    <path d="M404.38,101.27a.35.35,0,0,1,.33,0l1.23.71a.1.1,0,0,1,0,.19l-1.23.71a.36.36,0,0,1-.33,0l-1.23-.71a.1.1,0,0,1,0-.19Z" style="fill: #edf0f3"/>
                    <path d="M402.26,100a.37.37,0,0,1,.33,0l1.23.71a.1.1,0,0,1,0,.19l-1.23.71a.36.36,0,0,1-.33,0l-1.23-.71a.1.1,0,0,1,0-.19Z" style="fill: #edf0f3"/>
                    <path d="M431.19,124.18a.38.38,0,0,1,.33,0l1.23.71c.09.05.09.13,0,.19l-1.23.71a.36.36,0,0,1-.33,0l-1.23-.71c-.09-.05-.09-.14,0-.19Z" style="fill: #edf0f3"/>
                    <path d="M433.28,125.39a.36.36,0,0,1,.33,0l2.32,1.34a.1.1,0,0,1,0,.19l-1.23.71a.36.36,0,0,1-.33,0l-2.32-1.34a.1.1,0,0,1,0-.19Z" style="fill: #edf0f3"/>
                    <path d="M429.08,123a.36.36,0,0,1,.33,0l1.23.71c.09.05.09.13,0,.19l-1.23.71a.35.35,0,0,1-.33,0l-1.23-.71c-.09-.05-.09-.14,0-.19Z" style="fill: #edf0f3"/>
                    <path d="M427,121.74a.37.37,0,0,1,.33,0l1.23.71c.09,0,.09.13,0,.19l-1.23.71a.35.35,0,0,1-.33,0l-1.23-.71c-.09-.05-.09-.14,0-.19Z" style="fill: #edf0f3"/>
                    <path d="M424.84,120.51a.36.36,0,0,1,.33,0l1.23.71a.1.1,0,0,1,0,.19l-1.23.71a.35.35,0,0,1-.33,0l-1.23-.71a.1.1,0,0,1,0-.19Z" style="fill: #edf0f3"/>
                    <path d="M422.72,119.29a.37.37,0,0,1,.33,0l1.23.71a.1.1,0,0,1,0,.19l-1.23.71a.37.37,0,0,1-.33,0l-1.23-.71c-.09-.05-.09-.14,0-.19Z" style="fill: #edf0f3"/>
                    <path d="M420.6,118.07a.37.37,0,0,1,.33,0l1.23.71a.1.1,0,0,1,0,.19l-1.23.71a.37.37,0,0,1-.33,0l-1.23-.71a.1.1,0,0,1,0-.19Z" style="fill: #edf0f3"/>
                    <path d="M418.48,116.84a.37.37,0,0,1,.33,0l1.23.71c.09.05.09.14,0,.19l-1.23.71a.36.36,0,0,1-.33,0l-1.23-.71c-.09-.05-.09-.14,0-.19Z" style="fill: #edf0f3"/>
                    <path d="M416.36,115.62a.35.35,0,0,1,.33,0l1.23.71c.09.05.09.14,0,.19l-1.23.71a.37.37,0,0,1-.33,0l-1.23-.71a.1.1,0,0,1,0-.19Z" style="fill: #edf0f3"/>
                    <path d="M414.25,114.4a.36.36,0,0,1,.33,0l1.23.71a.1.1,0,0,1,0,.19l-1.23.71a.35.35,0,0,1-.33,0L413,115.3c-.09-.05-.09-.14,0-.19Z" style="fill: #edf0f3"/>
                    <path d="M412.13,113.17a.36.36,0,0,1,.33,0l1.23.71a.1.1,0,0,1,0,.19l-1.23.71a.35.35,0,0,1-.33,0l-1.23-.71c-.09-.05-.09-.14,0-.19Z" style="fill: #edf0f3"/>
                    <path d="M410,112a.35.35,0,0,1,.32,0l1.23.71c.09.05.09.14,0,.19l-1.23.71a.34.34,0,0,1-.32,0l-1.23-.71a.1.1,0,0,1,0-.19Z" style="fill: #edf0f3"/>
                    <path d="M407.89,110.73a.37.37,0,0,1,.33,0l1.23.71a.1.1,0,0,1,0,.19l-1.23.71a.34.34,0,0,1-.33,0l-1.23-.71c-.09-.05-.09-.14,0-.19Z" style="fill: #edf0f3"/>
                    <path d="M404.26,108.63a.36.36,0,0,1,.33,0l2.71,1.56c.09.05.09.14,0,.19l-1.23.71a.35.35,0,0,1-.32,0L403,109.53a.1.1,0,0,1,0-.19Z" style="fill: #edf0f3"/>
                    <path d="M432.28,122.33a.37.37,0,0,1,.33,0l1.23.71a.1.1,0,0,1,0,.19l-1.23.71a.36.36,0,0,1-.33,0l-1.23-.71a.1.1,0,0,1,0-.19Z" style="fill: #edf0f3"/>
                    <path d="M434.4,123.55a.38.38,0,0,1,.33,0l3.31,1.91a.1.1,0,0,1,0,.19l-1.23.71a.36.36,0,0,1-.33,0l-3.31-1.91a.1.1,0,0,1,0-.19Z" style="fill: #edf0f3"/>
                    <path d="M430.16,121.11a.36.36,0,0,1,.33,0l1.23.71a.1.1,0,0,1,0,.19l-1.23.71a.37.37,0,0,1-.33,0l-1.23-.71a.1.1,0,0,1,0-.19Z" style="fill: #edf0f3"/>
                    <path d="M428,119.88a.37.37,0,0,1,.33,0l1.23.71c.09,0,.09.13,0,.19l-1.23.71a.36.36,0,0,1-.33,0l-1.23-.71c-.09-.05-.09-.14,0-.19Z" style="fill: #edf0f3"/>
                    <path d="M425.93,118.66a.35.35,0,0,1,.33,0l1.23.71a.1.1,0,0,1,0,.19l-1.23.71a.36.36,0,0,1-.33,0l-1.23-.71a.1.1,0,0,1,0-.19Z" style="fill: #edf0f3"/>
                    <path d="M423.81,117.44a.35.35,0,0,1,.33,0l1.23.71a.1.1,0,0,1,0,.19l-1.23.71a.36.36,0,0,1-.33,0l-1.23-.71c-.09-.05-.09-.13,0-.19Z" style="fill: #edf0f3"/>
                    <path d="M421.69,116.21a.36.36,0,0,1,.33,0l1.23.71a.1.1,0,0,1,0,.19l-1.23.71a.37.37,0,0,1-.33,0l-1.23-.71a.1.1,0,0,1,0-.19Z" style="fill: #edf0f3"/>
                    <path d="M419.57,115a.35.35,0,0,1,.33,0l1.23.71c.09.05.09.14,0,.19l-1.23.71a.36.36,0,0,1-.33,0l-1.23-.71c-.09-.05-.09-.13,0-.19Z" style="fill: #edf0f3"/>
                    <path d="M417.45,113.77a.37.37,0,0,1,.33,0l1.23.71a.1.1,0,0,1,0,.19l-1.23.71a.37.37,0,0,1-.33,0l-1.23-.71a.1.1,0,0,1,0-.19Z" style="fill: #edf0f3"/>
                    <path d="M415.34,112.55a.35.35,0,0,1,.33,0l1.23.71c.09,0,.09.13,0,.19l-1.23.71a.36.36,0,0,1-.33,0l-1.23-.71c-.09-.05-.09-.14,0-.19Z" style="fill: #edf0f3"/>
                    <path d="M413.22,111.32a.36.36,0,0,1,.33,0l1.23.71c.09.05.09.14,0,.19l-1.23.71a.36.36,0,0,1-.33,0l-1.23-.71c-.09-.05-.09-.14,0-.19Z" style="fill: #edf0f3"/>
                    <path d="M411.1,110.1a.36.36,0,0,1,.33,0l1.23.71a.1.1,0,0,1,0,.19l-1.23.71a.36.36,0,0,1-.33,0l-1.23-.71a.1.1,0,0,1,0-.19Z" style="fill: #edf0f3"/>
                    <path d="M406.41,107.39a.35.35,0,0,1,.33,0l3.74,2.16a.1.1,0,0,1,0,.19l-1.23.71a.36.36,0,0,1-.33,0l-3.74-2.16c-.09-.05-.09-.14,0-.19Z" style="fill: #edf0f3"/>
                    <path d="M433.55,120.54a.35.35,0,0,1,.33,0l1.23.71c.09.05.09.14,0,.19l-1.23.71a.37.37,0,0,1-.33,0l-1.23-.71a.1.1,0,0,1,0-.19Z" style="fill: #edf0f3"/>
                    <path d="M435.69,121.78a.35.35,0,0,1,.33,0l4.15,2.4c.09.05.09.14,0,.19l-1.23.71a.37.37,0,0,1-.33,0l-4.16-2.4a.1.1,0,0,1,0-.19Z" style="fill: #edf0f3"/>
                    <path d="M431.43,119.32a.37.37,0,0,1,.33,0L433,120a.1.1,0,0,1,0,.19l-1.23.71a.36.36,0,0,1-.33,0l-1.23-.71a.1.1,0,0,1,0-.19Z" style="fill: #edf0f3"/>
                    <path d="M429.31,118.1a.36.36,0,0,1,.33,0l1.23.71a.1.1,0,0,1,0,.19l-1.23.71a.36.36,0,0,1-.33,0l-1.23-.71a.1.1,0,0,1,0-.19Z" style="fill: #edf0f3"/>
                    <path d="M440.42,122a.35.35,0,0,1,.33,0l1.61.93a.1.1,0,0,1,0,.19l-1.23.71a.35.35,0,0,1-.33,0l-1.61-.93c-.09-.05-.09-.14,0-.19Z" style="fill: #edf0f3"/>
                    <path d="M437.92,120.55a.38.38,0,0,1,.33,0l1.61.93c.09.05.09.14,0,.19l-1.23.71a.37.37,0,0,1-.33,0l-1.61-.93a.1.1,0,0,1,0-.19Z" style="fill: #edf0f3"/>
                    <path d="M435.43,119.11a.36.36,0,0,1,.33,0l1.61.93a.1.1,0,0,1,0,.19l-1.23.71a.36.36,0,0,1-.33,0L434.2,120c-.09-.05-.09-.13,0-.19Z" style="fill: #edf0f3"/>
                    <path d="M420.74,110.63a.37.37,0,0,1,.33,0l13.81,8a.1.1,0,0,1,0,.19l-1.23.71a.36.36,0,0,1-.33,0l-13.81-8a.1.1,0,0,1,0-.19Z" style="fill: #edf0f3"/>
                    <path d="M418.23,109.18a.36.36,0,0,1,.33,0l1.61.93c.09.05.09.14,0,.19l-1.23.71a.37.37,0,0,1-.33,0l-1.61-.93a.1.1,0,0,1,0-.19Z" style="fill: #edf0f3"/>
                    <path d="M415.74,107.74a.36.36,0,0,1,.33,0l1.61.93c.09.05.09.14,0,.19l-1.23.71a.35.35,0,0,1-.33,0l-1.61-.93a.1.1,0,0,1,0-.19Z" style="fill: #edf0f3"/>
                    <path d="M413.25,106.3a.36.36,0,0,1,.33,0l1.61.93a.1.1,0,0,1,0,.19l-1.23.71a.37.37,0,0,1-.33,0L412,107.2a.1.1,0,0,1,0-.19Z" style="fill: #edf0f3"/>
                    <path d="M410.75,104.86a.36.36,0,0,1,.33,0l1.61.93a.1.1,0,0,1,0,.19l-1.23.71a.36.36,0,0,1-.33,0l-1.61-.93a.1.1,0,0,1,0-.19Z" style="fill: #edf0f3"/>
                    <path d="M427.19,116.87a.36.36,0,0,1,.33,0l1.23.71a.1.1,0,0,1,0,.19l-1.23.71a.35.35,0,0,1-.33,0l-1.23-.71a.1.1,0,0,1,0-.19Z" style="fill: #edf0f3"/>
                    <path d="M425.08,115.65a.37.37,0,0,1,.33,0l1.23.71a.1.1,0,0,1,0,.19l-1.23.71a.36.36,0,0,1-.33,0l-1.23-.71a.1.1,0,0,1,0-.19Z" style="fill: #edf0f3"/>
                    <path d="M423,114.43a.36.36,0,0,1,.33,0l1.23.71c.09.05.09.14,0,.19l-1.23.71a.36.36,0,0,1-.33,0l-1.23-.71c-.09,0-.09-.13,0-.19Z" style="fill: #edf0f3"/>
                    <path d="M420.84,113.2a.37.37,0,0,1,.33,0l1.23.71c.09.05.09.14,0,.19l-1.23.71a.38.38,0,0,1-.33,0l-1.23-.71a.1.1,0,0,1,0-.19Z" style="fill: #edf0f3"/>
                    <path d="M418.72,112a.37.37,0,0,1,.33,0l1.23.71c.09.05.09.14,0,.19l-1.23.71a.36.36,0,0,1-.33,0l-1.23-.71c-.09-.05-.09-.14,0-.19Z" style="fill: #edf0f3"/>
                    <path d="M416.6,110.76a.35.35,0,0,1,.33,0l1.23.71a.1.1,0,0,1,0,.19l-1.23.71a.36.36,0,0,1-.33,0l-1.23-.71a.1.1,0,0,1,0-.19Z" style="fill: #edf0f3"/>
                    <path d="M414.48,109.53a.35.35,0,0,1,.33,0l1.23.71a.1.1,0,0,1,0,.19l-1.23.71a.36.36,0,0,1-.33,0l-1.23-.71c-.09-.05-.09-.14,0-.19Z" style="fill: #edf0f3"/>
                    <path d="M408.59,106.13a.37.37,0,0,1,.33,0l5,2.88a.1.1,0,0,1,0,.19l-1.23.71a.35.35,0,0,1-.33,0l-5-2.88a.1.1,0,0,1,0-.19Z" style="fill: #edf0f3"/>
                    <path d="M406.8,112.58a.37.37,0,0,1,.33,0l1.23.71c.09.05.09.14,0,.19l-1.23.71a.37.37,0,0,1-.33,0l-1.23-.71c-.09-.05-.09-.14,0-.19Z" style="fill: #edf0f3"/>
                    <path d="M428.84,129.21a.37.37,0,0,1,.33,0l1.23.71a.1.1,0,0,1,0,.19l-1.23.71a.36.36,0,0,1-.33,0l-1.23-.71a.1.1,0,0,1,0-.19Z" style="fill: #edf0f3"/>
                    <path d="M424.61,126.77a.35.35,0,0,1,.33,0l1.23.71a.1.1,0,0,1,0,.19l-1.23.71a.35.35,0,0,1-.33,0l-1.23-.71a.1.1,0,0,1,0-.19Z" style="fill: #edf0f3"/>
                    <path d="M422.49,125.54a.35.35,0,0,1,.33,0l1.23.71c.09.05.09.14,0,.19l-1.23.71a.38.38,0,0,1-.33,0l-1.23-.71c-.09,0-.09-.14,0-.19Z" style="fill: #edf0f3"/>
                    <path d="M420.37,124.32a.37.37,0,0,1,.33,0l1.23.71c.09.06.09.14,0,.19l-1.23.71a.38.38,0,0,1-.33,0l-1.23-.71c-.09-.05-.09-.14,0-.19Z" style="fill: #edf0f3"/>
                    <path d="M418.25,123.09a.38.38,0,0,1,.32,0l1.23.71c.09.05.09.14,0,.19l-1.23.71a.36.36,0,0,1-.32,0L417,124a.1.1,0,0,1,0-.19Z" style="fill: #edf0f3"/>
                    <path d="M414.79,121.1a.37.37,0,0,1,.33,0l1.23.71a.1.1,0,0,1,0,.19l-1.23.71a.36.36,0,0,1-.33,0l-1.23-.71a.1.1,0,0,1,0-.19Z" style="fill: #edf0f3"/>
                    <path d="M412.67,119.87a.35.35,0,0,1,.33,0l1.23.71a.1.1,0,0,1,0,.19l-1.23.71a.36.36,0,0,1-.33,0l-1.23-.71a.1.1,0,0,1,0-.19Z" style="fill: #edf0f3"/>
                    <path d="M410.56,118.65a.37.37,0,0,1,.33,0l1.23.71c.09.05.09.14,0,.19l-1.23.71a.37.37,0,0,1-.33,0l-1.23-.71c-.09-.05-.09-.14,0-.19Z" style="fill: #edf0f3"/>
                    <path d="M408.44,117.43a.36.36,0,0,1,.32,0l1.23.71c.09.05.09.14,0,.19l-1.23.71a.37.37,0,0,1-.32,0l-1.23-.71c-.09-.05-.09-.14,0-.19Z" style="fill: #edf0f3"/>
                    <path d="M405,115.47a.38.38,0,0,1,.33,0l1.23.71a.1.1,0,0,1,0,.19l-1.23.71a.35.35,0,0,1-.33,0l-1.23-.71a.1.1,0,0,1,0-.19Z" style="fill: #edf0f3"/>
                    <path d="M402.93,114.25a.35.35,0,0,1,.33,0l1.23.71a.1.1,0,0,1,0,.19l-1.23.71a.36.36,0,0,1-.33,0l-1.23-.71a.1.1,0,0,1,0-.19Z" style="fill: #edf0f3"/>
                    <path d="M400.81,113a.37.37,0,0,1,.33,0l1.23.71a.1.1,0,0,1,0,.19l-1.23.71a.37.37,0,0,1-.33,0l-1.23-.71a.1.1,0,0,1,0-.19Z" style="fill: #edf0f3"/>
                    <path d="M398.69,111.8a.36.36,0,0,1,.33,0l1.23.71a.1.1,0,0,1,0,.19l-1.23.71a.36.36,0,0,1-.33,0l-1.23-.71c-.09-.05-.09-.14,0-.19Z" style="fill: #edf0f3"/>
                    <path d="M384,103.33a.35.35,0,0,1,.33,0l1.23.71a.1.1,0,0,1,0,.19l-1.23.71a.36.36,0,0,1-.33,0l-1.23-.71a.1.1,0,0,1,0-.19Z" style="fill: #edf0f3"/>
                    <path d="M381.9,102.1a.37.37,0,0,1,.33,0l1.23.71a.1.1,0,0,1,0,.19l-1.23.71a.36.36,0,0,1-.33,0l-1.23-.71a.1.1,0,0,1,0-.19Z" style="fill: #edf0f3"/>
                    <path d="M379.78,100.88a.37.37,0,0,1,.33,0l1.23.71c.09.05.09.14,0,.19l-1.23.71a.38.38,0,0,1-.33,0l-1.23-.71a.1.1,0,0,1,0-.19Z" style="fill: #edf0f3"/>
                    <path d="M402.07,109.85a.35.35,0,0,1,.33,0l3.84,2.22a.1.1,0,0,1,0,.19L405,113a.36.36,0,0,1-.33,0l-3.84-2.22a.1.1,0,0,1,0-.19Z" style="fill: #edf0f3"/>
                    <polygon points="386.61 104.97 392.69 108.48 391.17 109.36 385.09 105.85 386.61 104.97" style="fill: #edf0f3"/>
                  </g>
                </g>
                <g>
                  <path d="M439.33,105.71s-5.63-.39-9.16.82-6.42,4.66-6.56,6.09a5.17,5.17,0,0,1-1.06,2.53s-2.53,3-1.94,3.59,1,.53,2.54.57,7.15-1.44,9.47-1.29a16.48,16.48,0,0,0,8.7-2.91c1.73-1.49,7.48-3.72,7.48-3.72l-2.45-7.46Z" style="fill: #fff;stroke: #969c9c;stroke-linecap: round;stroke-linejoin: round"/>
                  <path d="M440.13,105.51l3.27,8.42s16.5-6.8,21.15-8.41S478.29,95.82,479.84,92s-2.39-31.66-2.66-35.73c-.23-3.45-2.94-14.19-11.89-14.2s-7.56,12.25-6,20.93,7,22.15,7,22.15Z" style="fill: #fff;stroke: #969c9c;stroke-linecap: round;stroke-linejoin: round"/>
                </g>
                <g>
                  <polygon points="345.06 126.91 345.06 128.84 376.42 146.95 396.58 135.3 396.58 133.37 365.22 115.27 345.06 126.91" style="fill: #fff;stroke: #03a9f4;stroke-linecap: round;stroke-linejoin: round"/>
                  <path d="M365.61,127.13c-2.88,1.66-2.88,4.35,0,6a11.51,11.51,0,0,0,10.42,0c2.88-1.66,2.88-4.36,0-6A11.51,11.51,0,0,0,365.61,127.13Z" style="fill: #edf0f3"/>
                  <path d="M365.61,133A11.54,11.54,0,0,0,376,133a3.71,3.71,0,0,0,2.15-2.91,3.6,3.6,0,0,1-2.15,3.1,11.51,11.51,0,0,1-10.42,0,3.6,3.6,0,0,1-2.15-3.1A3.71,3.71,0,0,0,365.61,133Z" style="fill: #edf0f3"/>
                </g>
                <polygon points="342.97 103.85 406.45 140.5 410.19 138.35 410.19 90.92 346.71 54.26 342.98 56.42 342.97 103.85" style="fill: #fff;stroke: #03a9f4;stroke-linecap: round;stroke-linejoin: round"/>
                <polygon points="351.49 98.06 391.15 120.95 391.15 100.05 351.49 77.16 351.49 98.06" style="fill: #fff"/>
                <g>
                  <g>
                    <polygon points="364.97 93.05 367 91.91 372.51 95.1 372.51 113.45 370.49 114.59 364.97 111.4 364.97 93.05" style="fill: url(#linear-gradient-5)"/>
                    <polygon points="370.49 96.23 372.51 95.1 372.51 113.45 370.49 114.59 370.49 96.23" style="fill: #1c2723"/>
                    <polygon points="367 91.91 372.51 95.1 370.49 96.23 364.97 93.05 367 91.91" style="fill: #5b6662"/>
                  </g>
                  <path d="M361.76,89.94v30.28l3.73,7.67,8.66,5,1.84-1.06-3.89-8.09V94l-8.66-5Z" style="fill: #fff;stroke: #03a9f4;stroke-linecap: round;stroke-linejoin: round"/>
                  <polygon points="361.76 89.97 370.41 94.97 372.09 93.97 363.44 88.97 361.76 89.97" style="fill: #fff;stroke: #03a9f4;stroke-linecap: round;stroke-linejoin: round"/>
                  <polygon points="365.48 127.89 374.14 132.87 370.41 125.2 361.76 120.22 365.48 127.89" style="fill: #fff;stroke: #03a9f4;stroke-linecap: round;stroke-linejoin: round"/>
                </g>
              </g>
              <g>
                <line x1="90.98" y1="272.65" x2="379.47" y2="106.01" style="fill: none;stroke: #03a9f4;stroke-linecap: round;stroke-linejoin: round"/>
                <line x1="90.98" y1="279.06" x2="379.63" y2="112.35" style="fill: none;stroke: #03a9f4;stroke-linecap: round;stroke-linejoin: round"/>
                <line x1="88.41" y1="268.8" x2="379.87" y2="100.53" style="fill: none;stroke: #03a9f4;stroke-linecap: round;stroke-linejoin: round"/>
                <line x1="84.56" y1="264.95" x2="378" y2="95.31" style="fill: none;stroke: #03a9f4;stroke-linecap: round;stroke-linejoin: round"/>
                <line x1="79.75" y1="261.75" x2="375.1" y2="91.23" style="fill: none;stroke: #03a9f4;stroke-linecap: round;stroke-linejoin: round"/>
                <line x1="52.5" y1="271.37" x2="367.92" y2="89.1" style="fill: none;stroke: #03a9f4;stroke-linecap: round;stroke-linejoin: round"/>
                <g>
                  <path d="M178.41,156.72q1.39,1,1.39,4.23a21.58,21.58,0,0,1-1,6.59,18.86,18.86,0,0,1-2.92,5.7,15.14,15.14,0,0,1-4.53,4q-2.64,1.53-4,.57t-1.39-4.21a21.67,21.67,0,0,1,1-6.61,18.87,18.87,0,0,1,2.92-5.7,15.21,15.21,0,0,1,4.55-4.05Q177,155.75,178.41,156.72Zm-8.2,8a18.49,18.49,0,0,0-1.25,7.12q0,4.13,2.8,2.51a8.88,8.88,0,0,0,3.73-4.46,18.48,18.48,0,0,0,1.27-7.14q0-4.1-2.78-2.5A8.9,8.9,0,0,0,170.21,164.69Z" style="fill: #373e5a"/>
                  <path d="M184,166.8a1.06,1.06,0,0,1,.38,1,3.57,3.57,0,0,1-.48,1.74,3.22,3.22,0,0,1-1.19,1.28.92.92,0,0,1-1,.1,1.13,1.13,0,0,1-.38-1,3.43,3.43,0,0,1,.48-1.71,3.25,3.25,0,0,1,1.19-1.25A1,1,0,0,1,184,166.8Z" style="fill: #373e5a"/>
                  <path d="M198.88,150.4a50.13,50.13,0,0,1-2.76,4.81l-4.75,7.36,7.55-4.36-.47,3.27-11.51,6.64.38-2.71,7-11a31.41,31.41,0,0,0,1.72-2.94,7.45,7.45,0,0,0,.79-2.12,2.51,2.51,0,0,0,0-.37q0-.79-.57-.9a2.55,2.55,0,0,0-1.59.48,10.9,10.9,0,0,0-2.29,1.91,24.38,24.38,0,0,0-2.47,3.06l-.75-2.21a32.22,32.22,0,0,1,3.21-3.76,15.91,15.91,0,0,1,3.19-2.52,4.75,4.75,0,0,1,3.27-.89q1.22.3,1.22,2a5,5,0,0,1,0,.74A11.69,11.69,0,0,1,198.88,150.4Z" style="fill: #373e5a"/>
                  <path d="M220.88,140.27q.75.34.75,1.68a6,6,0,0,1-.09,1l-.91,5.78-1.89,1.09.85-5.43a4.12,4.12,0,0,0,0-.56q0-.75-.4-1a1.24,1.24,0,0,0-1.13.22,4.21,4.21,0,0,0-1.46,1.49,6.09,6.09,0,0,0-.82,2.19l-.82,5.19L213.11,153l.85-5.43a4.12,4.12,0,0,0,0-.56q0-.75-.4-1a1.23,1.23,0,0,0-1.12.22,4.25,4.25,0,0,0-1.45,1.49,5.88,5.88,0,0,0-.82,2.19l-.84,5.2-1.88,1.08,1.52-9.8,1.91-1.1-.22,1.39a6.27,6.27,0,0,1,2.51-2.83,2.75,2.75,0,0,1,1.75-.49,1.15,1.15,0,0,1,.93.92,7.24,7.24,0,0,1,2.93-3.68A2.32,2.32,0,0,1,220.88,140.27Z" style="fill: #373e5a"/>
                  <path d="M224,146.38a2.06,2.06,0,0,1-1.53-.33l.81-1.88a2,2,0,0,0,1.24.3,3.07,3.07,0,0,0,1.42-.42,2.66,2.66,0,0,0,.85-.75,1.5,1.5,0,0,0,.32-.87.4.4,0,0,0-.32-.45,3.24,3.24,0,0,0-1,0,7.56,7.56,0,0,1-1.09,0,1.06,1.06,0,0,1-.73-.33,1.43,1.43,0,0,1-.3-1A4.06,4.06,0,0,1,224,139a5.82,5.82,0,0,1,1-1.55,6.09,6.09,0,0,1,1.5-1.22,5.2,5.2,0,0,1,1.74-.65,2.58,2.58,0,0,1,1.47.11l-.89,2a3.08,3.08,0,0,0-1.2-.08,2.91,2.91,0,0,0-1.13.36,2.32,2.32,0,0,0-.74.68,1.39,1.39,0,0,0-.3.79q0,.37.3.42a4.49,4.49,0,0,0,1,0,7.61,7.61,0,0,1,1.13,0,1.15,1.15,0,0,1,.75.33,1.42,1.42,0,0,1,.32,1,4.09,4.09,0,0,1-.38,1.67,6,6,0,0,1-1.05,1.6,6.36,6.36,0,0,1-1.54,1.25A5,5,0,0,1,224,146.38Z" style="fill: #373e5a"/>
                </g>
                <polygon points="268.97 136.07 292.94 118.71 292.96 120.81 305.34 113.79 305.36 115.5 322.82 105.67 298.58 123.27 298.56 121.11 285.91 128.41 285.89 126.6 268.97 136.07" style="fill: #03a9f4"/>
                <polygon points="83 243.81 106.97 226.44 106.99 228.55 119.37 221.53 119.38 223.23 136.84 213.41 112.61 231 112.59 228.84 99.94 236.15 99.92 234.34 83 243.81" style="fill: #03a9f4"/>
                <polygon points="218.95 216.44 242.92 199.08 242.94 201.19 255.32 194.17 255.34 195.87 272.8 186.05 248.56 203.64 248.54 201.48 235.89 208.78 235.88 206.98 218.95 216.44" style="fill: #03a9f4"/>
              </g>
              <g id="server">
                <g id="fitting">
                  <line x1="37.12" y1="344.29" x2="37.08" y2="336.22" style="fill: none;stroke: #969c9c;stroke-linecap: round;stroke-linejoin: round"/>
                </g>
                <g>
                  <g>
                    <g>
                      <path d="M65.94,360.2c1.51.6,2.16.3,2.66,0" style="fill: #fff;stroke: #03a9f4;stroke-linecap: round;stroke-linejoin: round"/>
                      <path d="M65.94,360.2,2.06,323.32a3.21,3.21,0,0,1-1.34-2.56V306.5c0-1,.6-1.44,1.34-1L66,342.39a3.09,3.09,0,0,1,1.29,2.47v14.32" style="fill: #fff;stroke: #03a9f4;stroke-linecap: round;stroke-linejoin: round"/>
                      <path d="M65,355.58c0,.47-.33.66-.74.42a1.63,1.63,0,0,1-.74-1.27c0-.47.33-.66.74-.42A1.63,1.63,0,0,1,65,355.58Z" style="fill: #fff;stroke: #03a9f4;stroke-linecap: round;stroke-linejoin: round"/>
                      <path d="M65.16,352.71c0,.51-.35.71-.79.46a1.75,1.75,0,0,1-.79-1.37c0-.51.35-.71.79-.46A1.75,1.75,0,0,1,65.16,352.71Z" style="fill: #fff;stroke: #03a9f4;stroke-linecap: round;stroke-linejoin: round"/>
                      <polygon points="52.53 347.77 50.72 346.72 50.72 338.75 52.53 339.8 52.53 347.77" style="fill: #fff;stroke: #03a9f4;stroke-linecap: round;stroke-linejoin: round"/>
                      <polygon points="55.83 349.67 54.02 348.63 54.02 340.66 55.83 341.7 55.83 349.67" style="fill: #fff;stroke: #03a9f4;stroke-linecap: round;stroke-linejoin: round"/>
                      <polygon points="59.13 351.58 57.32 350.53 57.32 342.56 59.13 343.61 59.13 351.58" style="fill: #fff;stroke: #03a9f4;stroke-linecap: round;stroke-linejoin: round"/>
                      <polygon points="49.23 345.86 47.42 344.82 47.42 336.85 49.23 337.89 49.23 345.86" style="fill: #fff;stroke: #03a9f4;stroke-linecap: round;stroke-linejoin: round"/>
                      <polygon points="45.93 343.96 44.12 342.91 44.12 334.94 45.93 335.99 45.93 343.96" style="fill: #fff;stroke: #03a9f4;stroke-linecap: round;stroke-linejoin: round"/>
                      <path d="M36.55,334.51c0,1.11-1.57,1.1-3.52,0s-3.52-2.93-3.52-4,1.57-1.1,3.52,0S36.55,333.41,36.55,334.51Z" style="fill: #fff;stroke: #03a9f4;stroke-linecap: round;stroke-linejoin: round"/>
                      <path d="M36.55,334.82c0,1-1.36.95-3,0s-3-2.53-3-3.48,1.36-.95,3,0S36.55,333.86,36.55,334.82Z" style="fill: #fff;stroke: #03a9f4;stroke-linecap: round;stroke-linejoin: round"/>
                      <path d="M25.44,332.13" style="fill: none;stroke: #03a9f4;stroke-linecap: round;stroke-linejoin: round"/>
                      <polygon points="61.24 354.46 6.76 323.01 6.76 311.57 61.24 343.03 61.24 354.46" style="fill: none;stroke: #03a9f4;stroke-linecap: round;stroke-linejoin: round"/>
                    </g>
                    <g>
                      <path d="M129.88,306.89,68.81,342.15a3.11,3.11,0,0,0-1.58,2.24" style="fill: none;stroke: #03a9f4;stroke-linecap: round;stroke-linejoin: round"/>
                      <path d="M.72,306.5a2.78,2.78,0,0,1,1.54-2.78l63.42-36.62A3.25,3.25,0,0,1,68.6,267l63.94,36.92c.34.19,1.27.51,1.26,2.42" style="fill: #fff;stroke: #03a9f4;stroke-linecap: round;stroke-linejoin: round"/>
                      <path d="M42.45,309.49" style="fill: none;stroke: #03a9f4;stroke-linecap: round;stroke-linejoin: round"/>
                    </g>
                    <g>
                      <g>
                        <path d="M133.81,306.5v14.26a3.21,3.21,0,0,1-1.34,2.56L68.6,360.2c-.74.43-1.34,0-1.34-1V344.93a3.21,3.21,0,0,1,1.34-2.56l61.28-35.47" style="fill: #fff;stroke: #03a9f4;stroke-linecap: round;stroke-linejoin: round"/>
                        <path d="M92,342" style="fill: none;stroke: #03a9f4;stroke-linecap: round;stroke-linejoin: round"/>
                      </g>
                      <path d="M69.63,359l-.66.38c-.59.34-1.06,0-1.06-.8V344.83a2.54,2.54,0,0,1,1.06-2l.66-.38Z" style="fill: #fff;stroke: #03a9f4;stroke-linecap: round;stroke-linejoin: round"/>
                      <path d="M131.37,323.34l.81-.47a2.69,2.69,0,0,0,1.12-2.15V307.17c0-.83-.5-1.21-1.12-.85l-.81.47Z" style="fill: #fff;stroke: #03a9f4;stroke-linecap: round;stroke-linejoin: round"/>
                      <polygon points="71.22 358 70.42 358.45 70.42 341.97 71.22 341.51 71.22 358" style="fill: #fff;stroke: #03a9f4;stroke-linecap: round;stroke-linejoin: round"/>
                      <polygon points="72.83 357.07 72.03 357.53 72.03 341.04 72.83 340.59 72.83 357.07" style="fill: #fff;stroke: #03a9f4;stroke-linecap: round;stroke-linejoin: round"/>
                      <polygon points="74.43 356.14 73.64 356.6 73.64 340.12 74.43 339.66 74.43 356.14" style="fill: #fff;stroke: #03a9f4;stroke-linecap: round;stroke-linejoin: round"/>
                      <polygon points="76.04 355.21 75.25 355.67 75.25 339.19 76.04 338.73 76.04 355.21" style="fill: #fff;stroke: #03a9f4;stroke-linecap: round;stroke-linejoin: round"/>
                      <polygon points="77.65 354.29 76.85 354.74 76.85 338.26 77.65 337.8 77.65 354.29" style="fill: #fff;stroke: #03a9f4;stroke-linecap: round;stroke-linejoin: round"/>
                      <polygon points="79.25 353.36 78.46 353.82 78.46 337.33 79.25 336.88 79.25 353.36" style="fill: #fff;stroke: #03a9f4;stroke-linecap: round;stroke-linejoin: round"/>
                      <polygon points="80.86 352.43 80.07 352.89 80.07 336.41 80.86 335.95 80.86 352.43" style="fill: #fff;stroke: #03a9f4;stroke-linecap: round;stroke-linejoin: round"/>
                      <polygon points="82.47 351.5 81.67 351.96 81.67 335.48 82.47 335.02 82.47 351.5" style="fill: #fff;stroke: #03a9f4;stroke-linecap: round;stroke-linejoin: round"/>
                      <polygon points="84.07 350.58 83.28 351.03 83.28 334.55 84.07 334.09 84.07 350.58" style="fill: #fff;stroke: #03a9f4;stroke-linecap: round;stroke-linejoin: round"/>
                      <polygon points="85.68 349.65 84.89 350.11 84.89 333.62 85.68 333.17 85.68 349.65" style="fill: #fff;stroke: #03a9f4;stroke-linecap: round;stroke-linejoin: round"/>
                      <polygon points="87.29 348.72 86.49 349.18 86.49 332.69 87.29 332.24 87.29 348.72" style="fill: #fff;stroke: #03a9f4;stroke-linecap: round;stroke-linejoin: round"/>
                      <polygon points="88.89 347.79 88.1 348.25 88.1 331.77 88.89 331.31 88.89 347.79" style="fill: #fff;stroke: #03a9f4;stroke-linecap: round;stroke-linejoin: round"/>
                      <polygon points="90.5 346.87 89.71 347.32 89.71 330.84 90.5 330.38 90.5 346.87" style="fill: #fff;stroke: #03a9f4;stroke-linecap: round;stroke-linejoin: round"/>
                      <polygon points="92.11 345.94 91.31 346.39 91.31 329.91 92.11 329.45 92.11 345.94" style="fill: #fff;stroke: #03a9f4;stroke-linecap: round;stroke-linejoin: round"/>
                      <polygon points="93.71 345.01 92.92 345.47 92.92 328.98 93.71 328.53 93.71 345.01" style="fill: #fff;stroke: #03a9f4;stroke-linecap: round;stroke-linejoin: round"/>
                      <polygon points="95.32 344.08 94.53 344.54 94.53 328.06 95.32 327.6 95.32 344.08" style="fill: #fff;stroke: #03a9f4;stroke-linecap: round;stroke-linejoin: round"/>
                      <polygon points="96.93 343.15 96.14 343.61 96.14 327.13 96.93 326.67 96.93 343.15" style="fill: #fff;stroke: #03a9f4;stroke-linecap: round;stroke-linejoin: round"/>
                      <polygon points="98.53 342.23 97.74 342.68 97.74 326.2 98.53 325.74 98.53 342.23" style="fill: #fff;stroke: #03a9f4;stroke-linecap: round;stroke-linejoin: round"/>
                      <polygon points="100.14 341.3 99.35 341.76 99.35 325.27 100.14 324.81 100.14 341.3" style="fill: #fff;stroke: #03a9f4;stroke-linecap: round;stroke-linejoin: round"/>
                      <polygon points="101.75 340.37 100.96 340.83 100.96 324.35 101.75 323.89 101.75 340.37" style="fill: #fff;stroke: #03a9f4;stroke-linecap: round;stroke-linejoin: round"/>
                      <polygon points="103.36 339.44 102.56 339.9 102.56 323.42 103.36 322.96 103.36 339.44" style="fill: #fff;stroke: #03a9f4;stroke-linecap: round;stroke-linejoin: round"/>
                      <polygon points="104.96 338.51 104.17 338.97 104.17 322.49 104.96 322.03 104.96 338.51" style="fill: #fff;stroke: #03a9f4;stroke-linecap: round;stroke-linejoin: round"/>
                      <polygon points="106.57 337.59 105.78 338.05 105.78 321.56 106.57 321.1 106.57 337.59" style="fill: #fff;stroke: #03a9f4;stroke-linecap: round;stroke-linejoin: round"/>
                      <polygon points="108.18 336.66 107.38 337.12 107.38 320.63 108.18 320.18 108.18 336.66" style="fill: #fff;stroke: #03a9f4;stroke-linecap: round;stroke-linejoin: round"/>
                      <polygon points="109.78 335.73 108.99 336.19 108.99 319.71 109.78 319.25 109.78 335.73" style="fill: #fff;stroke: #03a9f4;stroke-linecap: round;stroke-linejoin: round"/>
                      <polygon points="111.39 334.8 110.6 335.26 110.6 318.78 111.39 318.32 111.39 334.8" style="fill: #fff;stroke: #03a9f4;stroke-linecap: round;stroke-linejoin: round"/>
                      <polygon points="113 333.88 112.2 334.33 112.2 317.85 113 317.39 113 333.88" style="fill: #fff;stroke: #03a9f4;stroke-linecap: round;stroke-linejoin: round"/>
                      <polygon points="114.6 332.95 113.81 333.41 113.81 316.92 114.6 316.47 114.6 332.95" style="fill: #fff;stroke: #03a9f4;stroke-linecap: round;stroke-linejoin: round"/>
                      <polygon points="116.21 332.02 115.42 332.48 115.42 316 116.21 315.54 116.21 332.02" style="fill: #fff;stroke: #03a9f4;stroke-linecap: round;stroke-linejoin: round"/>
                      <polygon points="117.82 331.09 117.03 331.55 117.03 315.07 117.82 314.61 117.82 331.09" style="fill: #fff;stroke: #03a9f4;stroke-linecap: round;stroke-linejoin: round"/>
                      <polygon points="119.42 330.17 118.63 330.62 118.63 314.14 119.42 313.68 119.42 330.17" style="fill: #fff;stroke: #03a9f4;stroke-linecap: round;stroke-linejoin: round"/>
                      <polygon points="121.03 329.24 120.24 329.7 120.24 313.21 121.03 312.75 121.03 329.24" style="fill: #fff;stroke: #03a9f4;stroke-linecap: round;stroke-linejoin: round"/>
                      <polygon points="122.64 328.31 121.84 328.77 121.84 312.29 122.64 311.83 122.64 328.31" style="fill: #fff;stroke: #03a9f4;stroke-linecap: round;stroke-linejoin: round"/>
                      <polygon points="124.25 327.38 123.45 327.84 123.45 311.36 124.25 310.9 124.25 327.38" style="fill: #fff;stroke: #03a9f4;stroke-linecap: round;stroke-linejoin: round"/>
                      <polygon points="125.85 326.45 125.06 326.91 125.06 310.43 125.85 309.97 125.85 326.45" style="fill: #fff;stroke: #03a9f4;stroke-linecap: round;stroke-linejoin: round"/>
                      <polygon points="127.46 325.53 126.67 325.99 126.67 309.5 127.46 309.04 127.46 325.53" style="fill: #fff;stroke: #03a9f4;stroke-linecap: round;stroke-linejoin: round"/>
                      <polygon points="129.06 324.6 128.27 325.06 128.27 308.57 129.06 308.12 129.06 324.6" style="fill: #fff;stroke: #03a9f4;stroke-linecap: round;stroke-linejoin: round"/>
                      <polygon points="130.67 323.67 129.88 324.13 129.88 307.65 130.67 307.19 130.67 323.67" style="fill: #fff;stroke: #03a9f4;stroke-linecap: round;stroke-linejoin: round"/>
                    </g>
                  </g>
                  <g>
                    <g>
                      <path d="M65.94,339.38c1.51.6,2.16.3,2.66,0" style="fill: #fff;stroke: #03a9f4;stroke-linecap: round;stroke-linejoin: round"/>
                      <path d="M65.94,339.38,2.06,302.5a3.21,3.21,0,0,1-1.34-2.56V285.68c0-1,.6-1.44,1.34-1L66,321.57A3.09,3.09,0,0,1,67.28,324v14.32" style="fill: #fff;stroke: #03a9f4;stroke-linecap: round;stroke-linejoin: round"/>
                      <path d="M65,334.76c0,.47-.33.66-.74.42a1.63,1.63,0,0,1-.74-1.27c0-.47.33-.66.74-.42A1.63,1.63,0,0,1,65,334.76Z" style="fill: #fff;stroke: #03a9f4;stroke-linecap: round;stroke-linejoin: round"/>
                      <path d="M65.16,331.89c0,.51-.35.71-.79.46a1.75,1.75,0,0,1-.79-1.37c0-.51.35-.71.79-.46A1.75,1.75,0,0,1,65.16,331.89Z" style="fill: #fff;stroke: #03a9f4;stroke-linecap: round;stroke-linejoin: round"/>
                      <polygon points="52.53 326.94 50.72 325.9 50.72 317.93 52.53 318.98 52.53 326.94" style="fill: #fff;stroke: #03a9f4;stroke-linecap: round;stroke-linejoin: round"/>
                      <polygon points="55.83 328.85 54.02 327.8 54.02 319.83 55.83 320.88 55.83 328.85" style="fill: #fff;stroke: #03a9f4;stroke-linecap: round;stroke-linejoin: round"/>
                      <polygon points="59.13 330.75 57.32 329.71 57.32 321.74 59.13 322.79 59.13 330.75" style="fill: #fff;stroke: #03a9f4;stroke-linecap: round;stroke-linejoin: round"/>
                      <polygon points="49.23 325.04 47.42 323.99 47.42 316.02 49.23 317.07 49.23 325.04" style="fill: #fff;stroke: #03a9f4;stroke-linecap: round;stroke-linejoin: round"/>
                      <polygon points="45.93 323.13 44.12 322.09 44.12 314.12 45.93 315.17 45.93 323.13" style="fill: #fff;stroke: #03a9f4;stroke-linecap: round;stroke-linejoin: round"/>
                      <path d="M36.55,313.69c0,1.11-1.57,1.1-3.52,0s-3.52-2.93-3.52-4,1.57-1.1,3.52,0S36.55,312.58,36.55,313.69Z" style="fill: #fff;stroke: #03a9f4;stroke-linecap: round;stroke-linejoin: round"/>
                      <path d="M36.55,314c0,1-1.36.95-3,0s-3-2.53-3-3.48,1.36-.95,3,0S36.55,313,36.55,314Z" style="fill: #fff;stroke: #03a9f4;stroke-linecap: round;stroke-linejoin: round"/>
                      <path d="M25.44,311.31" style="fill: none;stroke: #03a9f4;stroke-linecap: round;stroke-linejoin: round"/>
                      <polygon points="61.24 333.64 6.76 302.19 6.76 290.75 61.24 322.21 61.24 333.64" style="fill: none;stroke: #03a9f4;stroke-linecap: round;stroke-linejoin: round"/>
                    </g>
                    <g>
                      <path d="M129.88,286.07,68.81,321.33a3.11,3.11,0,0,0-1.58,2.24" style="fill: none;stroke: #03a9f4;stroke-linecap: round;stroke-linejoin: round"/>
                      <path d="M.72,285.68a2.78,2.78,0,0,1,1.54-2.78l63.42-36.62a3.25,3.25,0,0,1,2.93-.12l63.94,36.92c.34.19,1.27.51,1.26,2.42" style="fill: #fff;stroke: #03a9f4;stroke-linecap: round;stroke-linejoin: round"/>
                      <path d="M42.45,288.67" style="fill: none;stroke: #03a9f4;stroke-linecap: round;stroke-linejoin: round"/>
                    </g>
                    <g>
                      <g>
                        <path d="M133.81,285.68v14.26a3.21,3.21,0,0,1-1.34,2.56L68.6,339.38c-.74.43-1.34,0-1.34-1V324.1a3.21,3.21,0,0,1,1.34-2.56l61.28-35.47" style="fill: #fff;stroke: #03a9f4;stroke-linecap: round;stroke-linejoin: round"/>
                        <path d="M92,321.19" style="fill: none;stroke: #03a9f4;stroke-linecap: round;stroke-linejoin: round"/>
                      </g>
                      <path d="M69.63,338.16l-.66.38c-.59.34-1.06,0-1.06-.8V324A2.54,2.54,0,0,1,69,322l.66-.38Z" style="fill: #fff;stroke: #03a9f4;stroke-linecap: round;stroke-linejoin: round"/>
                      <path d="M131.37,302.52l.81-.47a2.69,2.69,0,0,0,1.12-2.15V286.35c0-.83-.5-1.21-1.12-.85l-.81.47Z" style="fill: #fff;stroke: #03a9f4;stroke-linecap: round;stroke-linejoin: round"/>
                      <polygon points="71.22 337.18 70.42 337.63 70.42 321.15 71.22 320.69 71.22 337.18" style="fill: #fff;stroke: #03a9f4;stroke-linecap: round;stroke-linejoin: round"/>
                      <polygon points="72.83 336.25 72.03 336.71 72.03 320.22 72.83 319.76 72.83 336.25" style="fill: #fff;stroke: #03a9f4;stroke-linecap: round;stroke-linejoin: round"/>
                      <polygon points="74.43 335.32 73.64 335.78 73.64 319.3 74.43 318.84 74.43 335.32" style="fill: #fff;stroke: #03a9f4;stroke-linecap: round;stroke-linejoin: round"/>
                      <polygon points="76.04 334.39 75.25 334.85 75.25 318.37 76.04 317.91 76.04 334.39" style="fill: #fff;stroke: #03a9f4;stroke-linecap: round;stroke-linejoin: round"/>
                      <polygon points="77.65 333.46 76.85 333.92 76.85 317.44 77.65 316.98 77.65 333.46" style="fill: #fff;stroke: #03a9f4;stroke-linecap: round;stroke-linejoin: round"/>
                      <polygon points="79.25 332.54 78.46 333 78.46 316.51 79.25 316.05 79.25 332.54" style="fill: #fff;stroke: #03a9f4;stroke-linecap: round;stroke-linejoin: round"/>
                      <polygon points="80.86 331.61 80.07 332.07 80.07 315.58 80.86 315.13 80.86 331.61" style="fill: #fff;stroke: #03a9f4;stroke-linecap: round;stroke-linejoin: round"/>
                      <polygon points="82.47 330.68 81.67 331.14 81.67 314.66 82.47 314.2 82.47 330.68" style="fill: #fff;stroke: #03a9f4;stroke-linecap: round;stroke-linejoin: round"/>
                      <polygon points="84.07 329.75 83.28 330.21 83.28 313.73 84.07 313.27 84.07 329.75" style="fill: #fff;stroke: #03a9f4;stroke-linecap: round;stroke-linejoin: round"/>
                      <polygon points="85.68 328.83 84.89 329.28 84.89 312.8 85.68 312.34 85.68 328.83" style="fill: #fff;stroke: #03a9f4;stroke-linecap: round;stroke-linejoin: round"/>
                      <polygon points="87.29 327.9 86.49 328.36 86.49 311.87 87.29 311.42 87.29 327.9" style="fill: #fff;stroke: #03a9f4;stroke-linecap: round;stroke-linejoin: round"/>
                      <polygon points="88.89 326.97 88.1 327.43 88.1 310.94 88.89 310.49 88.89 326.97" style="fill: #fff;stroke: #03a9f4;stroke-linecap: round;stroke-linejoin: round"/>
                      <polygon points="90.5 326.04 89.71 326.5 89.71 310.02 90.5 309.56 90.5 326.04" style="fill: #fff;stroke: #03a9f4;stroke-linecap: round;stroke-linejoin: round"/>
                      <polygon points="92.11 325.12 91.31 325.57 91.31 309.09 92.11 308.63 92.11 325.12" style="fill: #fff;stroke: #03a9f4;stroke-linecap: round;stroke-linejoin: round"/>
                      <polygon points="93.71 324.19 92.92 324.64 92.92 308.16 93.71 307.7 93.71 324.19" style="fill: #fff;stroke: #03a9f4;stroke-linecap: round;stroke-linejoin: round"/>
                      <polygon points="95.32 323.26 94.53 323.72 94.53 307.23 95.32 306.78 95.32 323.26" style="fill: #fff;stroke: #03a9f4;stroke-linecap: round;stroke-linejoin: round"/>
                      <polygon points="96.93 322.33 96.14 322.79 96.14 306.31 96.93 305.85 96.93 322.33" style="fill: #fff;stroke: #03a9f4;stroke-linecap: round;stroke-linejoin: round"/>
                      <polygon points="98.53 321.4 97.74 321.86 97.74 305.38 98.53 304.92 98.53 321.4" style="fill: #fff;stroke: #03a9f4;stroke-linecap: round;stroke-linejoin: round"/>
                      <polygon points="100.14 320.48 99.35 320.93 99.35 304.45 100.14 303.99 100.14 320.48" style="fill: #fff;stroke: #03a9f4;stroke-linecap: round;stroke-linejoin: round"/>
                      <polygon points="101.75 319.55 100.96 320.01 100.96 303.52 101.75 303.07 101.75 319.55" style="fill: #fff;stroke: #03a9f4;stroke-linecap: round;stroke-linejoin: round"/>
                      <polygon points="103.36 318.62 102.56 319.08 102.56 302.6 103.36 302.14 103.36 318.62" style="fill: #fff;stroke: #03a9f4;stroke-linecap: round;stroke-linejoin: round"/>
                      <polygon points="104.96 317.69 104.17 318.15 104.17 301.67 104.96 301.21 104.96 317.69" style="fill: #fff;stroke: #03a9f4;stroke-linecap: round;stroke-linejoin: round"/>
                      <polygon points="106.57 316.77 105.78 317.22 105.78 300.74 106.57 300.28 106.57 316.77" style="fill: #fff;stroke: #03a9f4;stroke-linecap: round;stroke-linejoin: round"/>
                      <polygon points="108.18 315.84 107.38 316.3 107.38 299.81 108.18 299.36 108.18 315.84" style="fill: #fff;stroke: #03a9f4;stroke-linecap: round;stroke-linejoin: round"/>
                      <polygon points="109.78 314.91 108.99 315.37 108.99 298.88 109.78 298.43 109.78 314.91" style="fill: #fff;stroke: #03a9f4;stroke-linecap: round;stroke-linejoin: round"/>
                      <polygon points="111.39 313.98 110.6 314.44 110.6 297.96 111.39 297.5 111.39 313.98" style="fill: #fff;stroke: #03a9f4;stroke-linecap: round;stroke-linejoin: round"/>
                      <polygon points="113 313.06 112.2 313.51 112.2 297.03 113 296.57 113 313.06" style="fill: #fff;stroke: #03a9f4;stroke-linecap: round;stroke-linejoin: round"/>
                      <polygon points="114.6 312.13 113.81 312.58 113.81 296.1 114.6 295.64 114.6 312.13" style="fill: #fff;stroke: #03a9f4;stroke-linecap: round;stroke-linejoin: round"/>
                      <polygon points="116.21 311.2 115.42 311.66 115.42 295.17 116.21 294.72 116.21 311.2" style="fill: #fff;stroke: #03a9f4;stroke-linecap: round;stroke-linejoin: round"/>
                      <polygon points="117.82 310.27 117.03 310.73 117.03 294.25 117.82 293.79 117.82 310.27" style="fill: #fff;stroke: #03a9f4;stroke-linecap: round;stroke-linejoin: round"/>
                      <polygon points="119.42 309.34 118.63 309.8 118.63 293.32 119.42 292.86 119.42 309.34" style="fill: #fff;stroke: #03a9f4;stroke-linecap: round;stroke-linejoin: round"/>
                      <polygon points="121.03 308.42 120.24 308.87 120.24 292.39 121.03 291.93 121.03 308.42" style="fill: #fff;stroke: #03a9f4;stroke-linecap: round;stroke-linejoin: round"/>
                      <polygon points="122.64 307.49 121.84 307.95 121.84 291.46 122.64 291.01 122.64 307.49" style="fill: #fff;stroke: #03a9f4;stroke-linecap: round;stroke-linejoin: round"/>
                      <polygon points="124.25 306.56 123.45 307.02 123.45 290.54 124.25 290.08 124.25 306.56" style="fill: #fff;stroke: #03a9f4;stroke-linecap: round;stroke-linejoin: round"/>
                      <polygon points="125.85 305.63 125.06 306.09 125.06 289.61 125.85 289.15 125.85 305.63" style="fill: #fff;stroke: #03a9f4;stroke-linecap: round;stroke-linejoin: round"/>
                      <polygon points="127.46 304.7 126.67 305.16 126.67 288.68 127.46 288.22 127.46 304.7" style="fill: #fff;stroke: #03a9f4;stroke-linecap: round;stroke-linejoin: round"/>
                      <polygon points="129.06 303.78 128.27 304.24 128.27 287.75 129.06 287.3 129.06 303.78" style="fill: #fff;stroke: #03a9f4;stroke-linecap: round;stroke-linejoin: round"/>
                      <polygon points="130.67 302.85 129.88 303.31 129.88 286.82 130.67 286.37 130.67 302.85" style="fill: #fff;stroke: #03a9f4;stroke-linecap: round;stroke-linejoin: round"/>
                    </g>
                  </g>
                  <g>
                    <g>
                      <path d="M65.94,318.1c1.51.6,2.16.3,2.66,0" style="fill: #fff;stroke: #03a9f4;stroke-linecap: round;stroke-linejoin: round"/>
                      <path d="M65.94,318.1,2.06,281.22a3.21,3.21,0,0,1-1.34-2.56V264.4c0-1,.6-1.44,1.34-1L66,300.3a3.09,3.09,0,0,1,1.29,2.47v14.32" style="fill: #fff;stroke: #03a9f4;stroke-linecap: round;stroke-linejoin: round"/>
                      <path d="M65,313.48c0,.47-.33.66-.74.42a1.63,1.63,0,0,1-.74-1.27c0-.47.33-.66.74-.42A1.63,1.63,0,0,1,65,313.48Z" style="fill: #fff;stroke: #03a9f4;stroke-linecap: round;stroke-linejoin: round"/>
                      <path d="M65.16,310.61c0,.51-.35.71-.79.46a1.75,1.75,0,0,1-.79-1.37c0-.51.35-.71.79-.46A1.75,1.75,0,0,1,65.16,310.61Z" style="fill: #fff;stroke: #03a9f4;stroke-linecap: round;stroke-linejoin: round"/>
                      <polygon points="52.53 305.67 50.72 304.62 50.72 296.65 52.53 297.7 52.53 305.67" style="fill: #fff;stroke: #03a9f4;stroke-linecap: round;stroke-linejoin: round"/>
                      <polygon points="55.83 307.57 54.02 306.53 54.02 298.56 55.83 299.6 55.83 307.57" style="fill: #fff;stroke: #03a9f4;stroke-linecap: round;stroke-linejoin: round"/>
                      <polygon points="59.13 309.48 57.32 308.43 57.32 300.46 59.13 301.51 59.13 309.48" style="fill: #fff;stroke: #03a9f4;stroke-linecap: round;stroke-linejoin: round"/>
                      <polygon points="49.23 303.76 47.42 302.72 47.42 294.75 49.23 295.79 49.23 303.76" style="fill: #fff;stroke: #03a9f4;stroke-linecap: round;stroke-linejoin: round"/>
                      <polygon points="45.93 301.86 44.12 300.81 44.12 292.84 45.93 293.89 45.93 301.86" style="fill: #fff;stroke: #03a9f4;stroke-linecap: round;stroke-linejoin: round"/>
                      <path d="M36.55,292.42c0,1.11-1.57,1.1-3.52,0s-3.52-2.93-3.52-4,1.57-1.1,3.52,0S36.55,291.31,36.55,292.42Z" style="fill: #fff;stroke: #03a9f4;stroke-linecap: round;stroke-linejoin: round"/>
                      <path d="M36.55,292.72c0,1-1.36.95-3,0s-3-2.53-3-3.48,1.36-.95,3,0S36.55,291.76,36.55,292.72Z" style="fill: #fff;stroke: #03a9f4;stroke-linecap: round;stroke-linejoin: round"/>
                      <path d="M25.44,290" style="fill: none;stroke: #03a9f4;stroke-linecap: round;stroke-linejoin: round"/>
                      <polygon points="61.24 312.36 6.76 280.91 6.76 269.48 61.24 300.93 61.24 312.36" style="fill: none;stroke: #03a9f4;stroke-linecap: round;stroke-linejoin: round"/>
                    </g>
                    <g>
                      <path d="M129.88,264.79,68.81,300a3.11,3.11,0,0,0-1.58,2.24" style="fill: none;stroke: #03a9f4;stroke-linecap: round;stroke-linejoin: round"/>
                      <path d="M.72,264.4a2.78,2.78,0,0,1,1.54-2.78L65.68,225a3.25,3.25,0,0,1,2.93-.12l63.94,36.92c.34.19,1.27.51,1.26,2.42" style="fill: #fff;stroke: #03a9f4;stroke-linecap: round;stroke-linejoin: round"/>
                      <path d="M42.45,267.39" style="fill: none;stroke: #03a9f4;stroke-linecap: round;stroke-linejoin: round"/>
                    </g>
                    <g>
                      <g>
                        <path d="M133.81,264.4v14.26a3.21,3.21,0,0,1-1.34,2.56L68.6,318.1c-.74.43-1.34,0-1.34-1V302.83a3.21,3.21,0,0,1,1.34-2.56l61.28-35.47" style="fill: #fff;stroke: #03a9f4;stroke-linecap: round;stroke-linejoin: round"/>
                        <path d="M92,299.91" style="fill: none;stroke: #03a9f4;stroke-linecap: round;stroke-linejoin: round"/>
                      </g>
                      <path d="M69.63,316.88l-.66.38c-.59.34-1.06,0-1.06-.8V302.74a2.54,2.54,0,0,1,1.06-2l.66-.38Z" style="fill: #fff;stroke: #03a9f4;stroke-linecap: round;stroke-linejoin: round"/>
                      <path d="M131.37,281.24l.81-.47a2.69,2.69,0,0,0,1.12-2.15V265.07c0-.83-.5-1.21-1.12-.85l-.81.47Z" style="fill: #fff;stroke: #03a9f4;stroke-linecap: round;stroke-linejoin: round"/>
                      <polygon points="71.22 315.9 70.42 316.36 70.42 299.87 71.22 299.42 71.22 315.9" style="fill: #fff;stroke: #03a9f4;stroke-linecap: round;stroke-linejoin: round"/>
                      <polygon points="72.83 314.97 72.03 315.43 72.03 298.95 72.83 298.49 72.83 314.97" style="fill: #fff;stroke: #03a9f4;stroke-linecap: round;stroke-linejoin: round"/>
                      <polygon points="74.43 314.04 73.64 314.5 73.64 298.02 74.43 297.56 74.43 314.04" style="fill: #fff;stroke: #03a9f4;stroke-linecap: round;stroke-linejoin: round"/>
                      <polygon points="76.04 313.12 75.25 313.57 75.25 297.09 76.04 296.63 76.04 313.12" style="fill: #fff;stroke: #03a9f4;stroke-linecap: round;stroke-linejoin: round"/>
                      <polygon points="77.65 312.19 76.85 312.65 76.85 296.16 77.65 295.7 77.65 312.19" style="fill: #fff;stroke: #03a9f4;stroke-linecap: round;stroke-linejoin: round"/>
                      <polygon points="79.25 311.26 78.46 311.72 78.46 295.24 79.25 294.78 79.25 311.26" style="fill: #fff;stroke: #03a9f4;stroke-linecap: round;stroke-linejoin: round"/>
                      <polygon points="80.86 310.33 80.07 310.79 80.07 294.31 80.86 293.85 80.86 310.33" style="fill: #fff;stroke: #03a9f4;stroke-linecap: round;stroke-linejoin: round"/>
                      <polygon points="82.47 309.4 81.67 309.86 81.67 293.38 82.47 292.92 82.47 309.4" style="fill: #fff;stroke: #03a9f4;stroke-linecap: round;stroke-linejoin: round"/>
                      <polygon points="84.07 308.48 83.28 308.94 83.28 292.45 84.07 291.99 84.07 308.48" style="fill: #fff;stroke: #03a9f4;stroke-linecap: round;stroke-linejoin: round"/>
                      <polygon points="85.68 307.55 84.89 308.01 84.89 291.52 85.68 291.07 85.68 307.55" style="fill: #fff;stroke: #03a9f4;stroke-linecap: round;stroke-linejoin: round"/>
                      <polygon points="87.29 306.62 86.49 307.08 86.49 290.6 87.29 290.14 87.29 306.62" style="fill: #fff;stroke: #03a9f4;stroke-linecap: round;stroke-linejoin: round"/>
                      <polygon points="88.89 305.69 88.1 306.15 88.1 289.67 88.89 289.21 88.89 305.69" style="fill: #fff;stroke: #03a9f4;stroke-linecap: round;stroke-linejoin: round"/>
                      <polygon points="90.5 304.77 89.71 305.22 89.71 288.74 90.5 288.28 90.5 304.77" style="fill: #fff;stroke: #03a9f4;stroke-linecap: round;stroke-linejoin: round"/>
                      <polygon points="92.11 303.84 91.31 304.3 91.31 287.81 92.11 287.36 92.11 303.84" style="fill: #fff;stroke: #03a9f4;stroke-linecap: round;stroke-linejoin: round"/>
                      <polygon points="93.71 302.91 92.92 303.37 92.92 286.89 93.71 286.43 93.71 302.91" style="fill: #fff;stroke: #03a9f4;stroke-linecap: round;stroke-linejoin: round"/>
                      <polygon points="95.32 301.98 94.53 302.44 94.53 285.96 95.32 285.5 95.32 301.98" style="fill: #fff;stroke: #03a9f4;stroke-linecap: round;stroke-linejoin: round"/>
                      <polygon points="96.93 301.06 96.14 301.51 96.14 285.03 96.93 284.57 96.93 301.06" style="fill: #fff;stroke: #03a9f4;stroke-linecap: round;stroke-linejoin: round"/>
                      <polygon points="98.53 300.13 97.74 300.58 97.74 284.1 98.53 283.64 98.53 300.13" style="fill: #fff;stroke: #03a9f4;stroke-linecap: round;stroke-linejoin: round"/>
                      <polygon points="100.14 299.2 99.35 299.66 99.35 283.18 100.14 282.72 100.14 299.2" style="fill: #fff;stroke: #03a9f4;stroke-linecap: round;stroke-linejoin: round"/>
                      <polygon points="101.75 298.27 100.96 298.73 100.96 282.25 101.75 281.79 101.75 298.27" style="fill: #fff;stroke: #03a9f4;stroke-linecap: round;stroke-linejoin: round"/>
                      <polygon points="103.36 297.35 102.56 297.8 102.56 281.32 103.36 280.86 103.36 297.35" style="fill: #fff;stroke: #03a9f4;stroke-linecap: round;stroke-linejoin: round"/>
                      <polygon points="104.96 296.42 104.17 296.88 104.17 280.39 104.96 279.93 104.96 296.42" style="fill: #fff;stroke: #03a9f4;stroke-linecap: round;stroke-linejoin: round"/>
                      <polygon points="106.57 295.49 105.78 295.95 105.78 279.46 106.57 279.01 106.57 295.49" style="fill: #fff;stroke: #03a9f4;stroke-linecap: round;stroke-linejoin: round"/>
                      <polygon points="108.18 294.56 107.38 295.02 107.38 278.54 108.18 278.08 108.18 294.56" style="fill: #fff;stroke: #03a9f4;stroke-linecap: round;stroke-linejoin: round"/>
                      <polygon points="109.78 293.63 108.99 294.09 108.99 277.61 109.78 277.15 109.78 293.63" style="fill: #fff;stroke: #03a9f4;stroke-linecap: round;stroke-linejoin: round"/>
                      <polygon points="111.39 292.71 110.6 293.16 110.6 276.68 111.39 276.22 111.39 292.71" style="fill: #fff;stroke: #03a9f4;stroke-linecap: round;stroke-linejoin: round"/>
                      <polygon points="113 291.78 112.2 292.24 112.2 275.75 113 275.3 113 291.78" style="fill: #fff;stroke: #03a9f4;stroke-linecap: round;stroke-linejoin: round"/>
                      <polygon points="114.6 290.85 113.81 291.31 113.81 274.82 114.6 274.37 114.6 290.85" style="fill: #fff;stroke: #03a9f4;stroke-linecap: round;stroke-linejoin: round"/>
                      <polygon points="116.21 289.92 115.42 290.38 115.42 273.9 116.21 273.44 116.21 289.92" style="fill: #fff;stroke: #03a9f4;stroke-linecap: round;stroke-linejoin: round"/>
                      <polygon points="117.82 289 117.03 289.45 117.03 272.97 117.82 272.51 117.82 289" style="fill: #fff;stroke: #03a9f4;stroke-linecap: round;stroke-linejoin: round"/>
                      <polygon points="119.42 288.07 118.63 288.52 118.63 272.04 119.42 271.58 119.42 288.07" style="fill: #fff;stroke: #03a9f4;stroke-linecap: round;stroke-linejoin: round"/>
                      <polygon points="121.03 287.14 120.24 287.6 120.24 271.11 121.03 270.66 121.03 287.14" style="fill: #fff;stroke: #03a9f4;stroke-linecap: round;stroke-linejoin: round"/>
                      <polygon points="122.64 286.21 121.84 286.67 121.84 270.19 122.64 269.73 122.64 286.21" style="fill: #fff;stroke: #03a9f4;stroke-linecap: round;stroke-linejoin: round"/>
                      <polygon points="124.25 285.28 123.45 285.74 123.45 269.26 124.25 268.8 124.25 285.28" style="fill: #fff;stroke: #03a9f4;stroke-linecap: round;stroke-linejoin: round"/>
                      <polygon points="125.85 284.36 125.06 284.81 125.06 268.33 125.85 267.87 125.85 284.36" style="fill: #fff;stroke: #03a9f4;stroke-linecap: round;stroke-linejoin: round"/>
                      <polygon points="127.46 283.43 126.67 283.89 126.67 267.4 127.46 266.95 127.46 283.43" style="fill: #fff;stroke: #03a9f4;stroke-linecap: round;stroke-linejoin: round"/>
                      <polygon points="129.06 282.5 128.27 282.96 128.27 266.48 129.06 266.02 129.06 282.5" style="fill: #fff;stroke: #03a9f4;stroke-linecap: round;stroke-linejoin: round"/>
                      <polygon points="130.67 281.57 129.88 282.03 129.88 265.55 130.67 265.09 130.67 281.57" style="fill: #fff;stroke: #03a9f4;stroke-linecap: round;stroke-linejoin: round"/>
                    </g>
                  </g>
                </g>
                <path d="M.5,263.91c0-1.91.92-2.22,1.26-2.42L65.7,224.57a3.25,3.25,0,0,1,2.93.12L132,261.31a2.78,2.78,0,0,1,1.54,2.78s-.35-1.51-1.34-1l-64.3,36.57a1.45,1.45,0,0,0-.91,1.52s-.74-1.54-2-1.57h0L2.94,264.38C.53,262.94.5,263.91.5,263.91" style="fill: #fff;stroke: #03a9f4;stroke-linecap: round;stroke-linejoin: round"/>
              </g>
              <g id="Logo_Mark" data-name="Logo Mark">
                <path d="M69.65,259.07l-.13-.07Z" style="fill: #1fc469"/>
                <path d="M69.25,258.82l-.09-.07Z" style="fill: #1fc469"/>
                <path d="M69.87,259.17l-.13-.06Z" style="fill: #1fc469"/>
                <path d="M69.44,259l-.11-.07Z" style="fill: #1fc469"/>
                <path d="M69.06,258.67l-.05-.05Z" style="fill: #1fc469"/>
                <path d="M71.79,259.48h0Z" style="fill: #1fc469"/>
                <path d="M70.59,259.38l-.11,0Z" style="fill: #1fc469"/>
                <path d="M71.16,259.46h0Z" style="fill: #1fc469"/>
                <path d="M71.47,259.48h0Z" style="fill: #1fc469"/>
                <path d="M70.1,259.25l-.13,0Z" style="fill: #1fc469"/>
                <path d="M70.34,259.32l-.12,0Z" style="fill: #1fc469"/>
                <path d="M70.87,259.43l-.11,0Z" style="fill: #1fc469"/>
                <path d="M86.45,271.59c5.56-2.46,7.71-6.89,4.74-10.74s-10.39-6-17.35-5.24a7.22,7.22,0,0,1,.67,2c.13.75-.61,1.44-1.75,1.72h0c4.8-1.23,10.89.12,13,2.9s0,6-4.75,7.29a3.6,3.6,0,0,0-1,.38,1.27,1.27,0,0,0,0,2.4c2.89,1.67,2.89,4.38,0,6a11.77,11.77,0,0,1-9.18.59l3.24-6.5c.29-.58,0-1.21-.7-1.65a4.52,4.52,0,0,0-2.82-.47l-8.66,1.22,2.11-4.21c.45-.9-.45-1.84-2-2.11s-3.19.26-3.65,1.16l-3.52,7c-.29.58,0,1.21.7,1.65l0,0a4.53,4.53,0,0,0,2.78.45l8.66-1.22-2.38,4.76c-.3.59,0,1.24.75,1.67,5.18,3,13.61,3,18.8,0C88.52,278.27,89.26,274.51,86.45,271.59Z" style="fill: #1fc469"/>
                <path d="M72.33,259.42l-.15,0Z" style="fill: #1fc469"/>
                <path d="M68.73,258.21l0-.08Z" style="fill: #1fc469"/>
                <path d="M68.68,258.07a1,1,0,0,1,0-.11A1,1,0,0,0,68.68,258.07Z" style="fill: #1fc469"/>
                <path d="M72.08,259.45l-.2,0Z" style="fill: #1fc469"/>
                <path d="M68.89,258.47l0,0,0,0Z" style="fill: #1fc469"/>
                <path d="M68.8,258.34l0,0Z" style="fill: #1fc469"/>
                <path d="M72.57,259.38l-.1,0Z" style="fill: #1fc469"/>
                <path d="M72.76,259.34l-.18,0Z" style="fill: #1fc469"/>
                <path d="M71,259.45l-.16,0Z" style="fill: #1fc469"/>
                <path d="M72.47,259.4l-.15,0Z" style="fill: #1fc469"/>
                <path d="M71.31,259.47h0Z" style="fill: #1fc469"/>
                <path d="M72.18,259.44h0Z" style="fill: #1fc469"/>
                <path d="M71.59,259.48h0Z" style="fill: #1fc469"/>
                <path d="M71.86,259.47h0Z" style="fill: #1fc469"/>
                <path d="M69.52,259l-.08,0Z" style="fill: #1fc469"/>
                <path d="M69.16,258.75l-.1-.09Z" style="fill: #1fc469"/>
                <path d="M68.77,258.3l0-.1Z" style="fill: #1fc469"/>
                <path d="M69,258.62l-.1-.12Z" style="fill: #1fc469"/>
                <path d="M68.88,258.47l-.08-.12Z" style="fill: #1fc469"/>
                <path d="M70.38,256.23a23.9,23.9,0,0,1,3.46-.62,12.2,12.2,0,0,0-5-4.88c-7.64-4.41-20.07-4.41-27.71,0s-7.64,11.59,0,16l7.21,4.16a4.6,4.6,0,0,0,4.16,0,1.27,1.27,0,0,0,0-2.4l-7.21-4.16c-5.34-3.08-5.34-8.1,0-11.19s14-3.08,19.38,0c2.24,1.29,3.64,3,3.95,4.81h0C68.52,257.25,69.18,256.54,70.38,256.23Z" style="fill: #1fc469"/>
                <path d="M68.69,258.13l0-.06Z" style="fill: #1fc469"/>
                <path d="M69.74,259.11l-.09,0Z" style="fill: #1fc469"/>
                <path d="M70.22,259.29l-.12,0Z" style="fill: #1fc469"/>
                <path d="M70.48,259.36l-.15,0Z" style="fill: #1fc469"/>
                <path d="M69.33,258.88l-.09-.06Z" style="fill: #1fc469"/>
                <path d="M70,259.21l-.1,0Z" style="fill: #1fc469"/>
                <path d="M70.75,259.41l-.16,0Z" style="fill: #1fc469"/>
                <path d="M74.5,257.61a7.22,7.22,0,0,0-.67-2,23.9,23.9,0,0,0-3.46.62c-1.19.31-1.86,1-1.73,1.73a1,1,0,0,0,0,.11l0,.06,0,.08,0,.1,0,0,.08.12,0,0,.1.12.05.05.1.09.09.07.09.06.11.07.08,0,.13.07.09,0,.13.06.1,0,.13,0,.12,0,.12,0,.15,0,.11,0,.16,0,.11,0,.16,0h.85l.2,0h.1l.15,0,.15,0,.1,0,.18,0C73.89,259.05,74.63,258.37,74.5,257.61Z" style="fill: #1fc469"/>
                <path d="M74.5,257.61a7.22,7.22,0,0,0-.67-2,23.9,23.9,0,0,0-3.46.62c-1.19.31-1.86,1-1.73,1.73a1,1,0,0,0,0,.11l0,.06,0,.08,0,.1,0,0,.08.12,0,0,.1.12.05.05.1.09.09.07.09.06.11.07.08,0,.13.07.09,0,.13.06.1,0,.13,0,.12,0,.12,0,.15,0,.11,0,.16,0,.11,0,.16,0h.85l.2,0h.1l.15,0,.15,0,.1,0,.18,0C73.89,259.05,74.63,258.37,74.5,257.61Z" style="fill: #1fc469"/>
              </g>
            </g>
          </g>
        </g>
      </g>
    </g>
  </g>
</svg>
