<svg xmlns="http://www.w3.org/2000/svg" width="306.01" height="41" viewBox="0 0 306.01 41">
  <title>icon-owasp-text</title>
  <g id="Layer_2" data-name="Layer 2">
    <g id="Artwork">
      <g id="Target">
        <g>
          <rect x="18.81" y="10.35" width="287.2" height="29.85" rx="4.53" ry="4.53" style="fill: red"/>
          <text transform="translate(52.18 31.04)" style="font-size: 17px;fill: #fff;font-family: Lato-Bold, Lato;letter-spacing: 0.06899126838235294em"><tspan style="font-weight: 700">A</tspan><tspan x="12.98" y="0" style="font-weight: 700;letter-spacing: 0.07002527573529412em">n </tspan><tspan x="29.08" y="0" style="font-weight: 700;letter-spacing: 0.054974724264705885em">O</tspan><tspan x="43.75" y="0" style="font-weight: 700;letter-spacing: 0.022518382352941176em">W</tspan><tspan x="62" y="0" style="font-weight: 700;letter-spacing: 0.06996783088235294em">AS</tspan><tspan x="85.51" y="0" style="font-weight: 700;letter-spacing: 0.0419921875em">P</tspan><tspan x="96.75" y="0" xml:space="preserve" style="font-weight: 700;letter-spacing: 0.07002527573529412em"> 10</tspan><tspan x="124.17" y="0" style="font-family: Lato-Regular, Lato;letter-spacing: 0.03400735294117647em"> </tspan><tspan x="129.1" y="0" style="font-family: Lato-Regular, Lato;letter-spacing: 0.01901424632352941em">V</tspan><tspan x="140.93" y="0" style="font-family: Lato-Regular, Lato;letter-spacing: 0.07002527573529412em">ulne</tspan><tspan x="177.64" y="0" style="font-family: Lato-Regular, Lato;letter-spacing: 0.06204044117647059em">r</tspan><tspan x="184.88" y="0" style="font-family: Lato-Regular, Lato;letter-spacing: 0.07002527573529412em">abilit</tspan><tspan x="228.26" y="0" style="font-family: Lato-Regular, Lato;letter-spacing: 0.04549632352941176em">y</tspan></text>
        </g>
        <g id="icon">
          <path d="M13.69,33.54a5,5,0,0,0,2.51.33,9.5,9.5,0,0,0,4-1.37h0a13.69,13.69,0,0,0,6.13-11l.68-.56L29,19.09c4.94,2.13,7.69-1.16,7.78-1.27a5.85,5.85,0,0,0,1-4.33c-.11-2.16-1.1-4.65-3.26-5.49a9,9,0,0,0-7.7.69,72.66,72.66,0,0,0-10.49,7.87c-5,3.42-8.16,10-6.59,16a6.51,6.51,0,0,0,.61,1.7,23.3,23.3,0,0,0,2.92-1.06" style="fill: #fff;stroke: red;stroke-linecap: round;stroke-linejoin: round"/>
          <path d="M36.79,9.16a1.3,1.3,0,0,1-1.15-.61,9,9,0,0,0-8.76.17,72.66,72.66,0,0,0-10.49,7.87c-5,3.42-8.16,10-6.59,16a6.51,6.51,0,0,0,.61,1.7,23.3,23.3,0,0,0,2.92-1.06" style="fill: #fff;stroke: red;stroke-linecap: round;stroke-linejoin: round"/>
          <path d="M13.17,34c-1.73,2.79-.14,6.5-.14,6.5a8.09,8.09,0,0,1-2.57-5.8" style="fill: #fff;stroke: red;stroke-linecap: round;stroke-linejoin: round"/>
          <path d="M6.45,7.43A5,5,0,0,1,2.8,9" style="fill: none;stroke: #4e7096;stroke-linecap: round;stroke-linejoin: round"/>
          <path d="M16.39,16.59c2.22-.43,4.94-.86,7.12-.12a3.84,3.84,0,0,1,2.79,3.44" style="fill: none;stroke: red;stroke-linecap: round;stroke-linejoin: round"/>
          <path d="M31.31,12.45a6.84,6.84,0,0,0-4.68.77c-1,.64-1.34,1.33-2.55,2a7,7,0,0,1-3.61.79l-1.21,0a8.31,8.31,0,0,0-2.25.38,4.87,4.87,0,0,1-2.39.18,7,7,0,0,1-2.79-1.53l-.27-.21c-.75-.58-1.52-1.15-2.23-1.78-.23,0-.46,0-.7,0A4.3,4.3,0,0,1,7.95,13a4.07,4.07,0,0,1-1.48-.62,3.39,3.39,0,0,1-.38-.3S6,12,6,12c-.84-.62-.69-1.22-.69-1.22-1,.48-2-.53-2-.53a1.07,1.07,0,0,1-.37-1.14C1.17,8.06.57,5.47.57,5.47a1,1,0,0,1,0-.75A.92.92,0,0,1,1,4.26a19.54,19.54,0,0,1,6.29-.9H7.4A20.55,20.55,0,0,1,14,4.66l.82.31a106.12,106.12,0,0,1,12.16,5.51Z" style="fill: #fff;stroke: red;stroke-linecap: round;stroke-linejoin: round"/>
          <path d="M31.31,12.45A122.45,122.45,0,0,0,18.42,4l-.88-.49A23.71,23.71,0,0,0,10.29.87h-.1A22.54,22.54,0,0,0,2.85.76a1.06,1.06,0,0,0-.6.45,1.19,1.19,0,0,0-.13.85s.22,3.06,2,4.54A1.24,1.24,0,0,0,4.37,8s.92,1.32,2.17,1h0s-.28.66.57,1.52c0,0,2.14,3.35,7.33,1,0,0,2.23-1.42,6.77-.54Z" style="fill: #fff;stroke: red;stroke-linecap: round;stroke-linejoin: round"/>
          <line x1="11.82" y1="7.87" x2="6.52" y2="8.93" style="fill: none;stroke: red;stroke-linecap: round;stroke-linejoin: round"/>
          <line x1="13.96" y1="4.66" x2="4.17" y2="6.6" style="fill: none;stroke: red;stroke-linecap: round;stroke-linejoin: round;stroke-dasharray: 2.2466320991516113,2.995509624481201"/>
          <path d="M42.42,12c.34-.13.76-.12,1.1-.28a1.79,1.79,0,0,0,.81-.77,9.68,9.68,0,0,1,5.78-4.59s1.82-.85,1.45.24-.77,1.09-1.78,1.23a1.73,1.73,0,0,0-.42.11,10.18,10.18,0,0,0-4.71,3.81,1.33,1.33,0,0,1-1.06.51,7,7,0,0,1-1.12,0S42.42,12.07,42.42,12Z" style="fill: red"/>
          <path d="M42.25,12.13c.43,0,.9.15,1.35.1a2.13,2.13,0,0,0,1.21-.57,11.53,11.53,0,0,1,8.26-3s2.37-.27,1.55.82-1.28.95-2.47.72a2.06,2.06,0,0,0-.51,0,12.13,12.13,0,0,0-6.75,2.54,1.59,1.59,0,0,1-1.39.18,8.37,8.37,0,0,1-1.27-.43S42.25,12.17,42.25,12.13Z" style="fill: red"/>
          <path d="M35.7,19.13l1.87,4.21,2.4.84a3.1,3.1,0,0,1,3.47,1.05" style="fill: none;stroke: #fff;stroke-linecap: round;stroke-linejoin: round"/>
          <path d="M41.55,25.95A2.17,2.17,0,0,1,40,24.18" style="fill: none;stroke: #fff;stroke-linecap: round;stroke-linejoin: round"/>
          <path d="M39,26.61a2.39,2.39,0,0,0-2.77-1.38L34.57,24,34,19.91" style="fill: none;stroke: #fff;stroke-linecap: round;stroke-linejoin: round"/>
          <path d="M36.79,26.61a1.52,1.52,0,0,1-.58-1.38" style="fill: none;stroke: #fff;stroke-linecap: round;stroke-linejoin: round"/>
          <path d="M31.23,19.91l-2.14,2.7.67,2.13a3.09,3.09,0,0,1,3.46,1.38" style="fill: none;stroke: #fff;stroke-linecap: round;stroke-linejoin: round"/>
          <path d="M31.23,26.11a2,2,0,0,1-1.47-1.38" style="fill: none;stroke: #fff;stroke-linecap: round;stroke-linejoin: round"/>
          <g>
            <path d="M21.5,25.42c1.19.79,2.77,2.17,2.07,4.16,0,0,.93,2.31,0,3.93-.32.56-.23,1.21-.73,1.77-.85.94-2.78,1.47-3.53.29a2.31,2.31,0,0,1,.93-3.27,5.54,5.54,0,0,0,0-3.26" style="fill: #fff;stroke: red;stroke-linecap: round;stroke-linejoin: round"/>
            <path d="M19.39,36.72,18.55,38a2.48,2.48,0,0,0-2.64,1.67" style="fill: none;stroke: red;stroke-linecap: round;stroke-linejoin: round"/>
            <path d="M17.65,39.65s1.34-.83.9-1.67" style="fill: none;stroke: red;stroke-linecap: round;stroke-linejoin: round"/>
          </g>
          <path d="M20.24,32.54a9.5,9.5,0,0,1-4,1.37,5,5,0,0,1-2.51-.33c-.93-.56,1.75-.56,2.61-1.42.14-.14.26-.23.44-.43a35.57,35.57,0,0,0,2.69-3.09,13.62,13.62,0,0,0,2.27-7.53,2.89,2.89,0,0,1,.42-2,2.73,2.73,0,0,1,3.07-.33,2.44,2.44,0,0,1,1.21,2.52v.28a13.69,13.69,0,0,1-6.13,11Z" style="fill: #fff;stroke: red;stroke-linecap: round;stroke-linejoin: round"/>
          <g>
            <path d="M25.09,25.42c1.19.79,2.77,2.17,2.07,4.16,0,0,.93,2.31,0,3.93-.32.56-.23,1.21-.73,1.77-.85.94-2.78,1.47-3.53.29a2.31,2.31,0,0,1,.93-3.27s.92-2.72-.76-4.5" style="fill: #fff;stroke: red;stroke-linecap: round;stroke-linejoin: round"/>
            <path d="M23,36.72,22.15,38a2.48,2.48,0,0,0-2.64,1.67" style="fill: none;stroke: red;stroke-linecap: round;stroke-linejoin: round"/>
            <path d="M21.24,39.65s1.34-.83.9-1.67" style="fill: none;stroke: red;stroke-linecap: round;stroke-linejoin: round"/>
          </g>
          <path d="M36.77,16.85a2.78,2.78,0,0,0,.34.37l.1.08a10.35,10.35,0,0,0,1,.62c.47.3.64.73,1,1.1a7,7,0,0,0,1.64,1.29,4.63,4.63,0,0,0,2.67.63c1.06-.31-.22-1.82-.4-2.48a10.18,10.18,0,0,1-.34-2,8.73,8.73,0,0,0-.2-4.66,4.12,4.12,0,0,1-.5-1.7c0-.68.27-1.35.24-2-.66.27-1.32.75-2,.27s-.61-1.13-.62-1.78A6.3,6.3,0,0,0,38,8c-.86.89-2.08,1.15-2.74,2.26a4.27,4.27,0,0,0,0,3.93" style="fill: #fff;stroke: red;stroke-linecap: round;stroke-linejoin: round"/>
          <ellipse cx="39.71" cy="12.75" rx="1.23" ry="2.67" transform="translate(-1.93 15.08) rotate(-21.01)" style="fill: #fff;stroke: red;stroke-linecap: round;stroke-linejoin: round"/>
        </g>
      </g>
    </g>
  </g>
</svg>
