<svg xmlns="http://www.w3.org/2000/svg" viewBox="0 0 150 150"><g id="SVG_Icons" data-name="SVG Icons"><path class="svg-grey" d="M140.75,71.78,119.58,65.3c0-.18,0-.37,0-.55V34.08a3.21,3.21,0,0,0-3-3.19c-14.89.44-25.87-2.82-39.8-8.61a4.92,4.92,0,0,0-1.64-.39l-.12,0-.12,0a4.81,4.81,0,0,0-1.64.39c-13.93,5.79-24.92,9-39.86,8.61a3.21,3.21,0,0,0-3,3.19V64.75c0,.21,0,.41,0,.62L9.5,71.78A13.23,13.23,0,0,0,.28,85.45a6.08,6.08,0,0,0,2.47,4.4A6.48,6.48,0,0,0,7.59,91a14.7,14.7,0,0,0,5,6.33,10.07,10.07,0,0,0,5.88,1.92,10.92,10.92,0,0,0,3.16-.48l4.51-1.38,1.2,3.94a1.62,1.62,0,0,0,1,1,2.29,2.29,0,0,0,.78.14,2.35,2.35,0,0,0,.69-.1l3.28-1,1,3.36a8.1,8.1,0,0,0,4.15,4.89,8.73,8.73,0,0,0,3.93.93,9,9,0,0,0,2.62-.39l2.77-.78c6.65,6.28,15.32,11.44,26.17,15.69a3.15,3.15,0,0,0,1.17.22l.13,0,.12,0a3.08,3.08,0,0,0,1.17-.22c10.9-4.26,19.59-9.45,26.24-15.76l2.92.84a8.9,8.9,0,0,0,2.64.4,8.63,8.63,0,0,0,3.92-.93,8.12,8.12,0,0,0,4.16-4.89l1-3.36,3.28,1a2.35,2.35,0,0,0,.69.1,2.19,2.19,0,0,0,.77-.14,1.63,1.63,0,0,0,1-1l1.2-3.94,4.5,1.38a11,11,0,0,0,3.17.48,10.07,10.07,0,0,0,5.88-1.92,14.76,14.76,0,0,0,5-6.33,6.44,6.44,0,0,0,4.83-1.19c.18-.14.36-.28.52-.43a6.4,6.4,0,0,0,.67-.71,6,6,0,0,0,1.2-2.62c0-.21.07-.43.09-.64A13.23,13.23,0,0,0,140.75,71.78ZM146.9,89a5.43,5.43,0,0,1-3.9,1,23.55,23.55,0,0,0,.94-4.27.51.51,0,0,0-.44-.56.52.52,0,0,0-.56.45,23.14,23.14,0,0,1-1,4.43l-.05.17a14,14,0,0,1-4.78,6.25,9.15,9.15,0,0,1-8.18,1.3l-4.75-1.45-5-1.52-1-.3-3.59-1.1-.58-.17c.48-1.06.93-2.13,1.34-3.22l1.13.34a.36.36,0,0,0,.14,0,.5.5,0,0,0,.48-.35.51.51,0,0,0-.33-.63l-1.07-.32c.45-1.24.86-2.51,1.22-3.8l2.87.87a10.55,10.55,0,0,0,5.68-.29c-.5,4,1.29,7.6,4.34,8.53a5.43,5.43,0,0,0,1.59.24,6.51,6.51,0,0,0,3.84-1.34,10.78,10.78,0,0,0,3.62-11.84,6.24,6.24,0,0,0-3.37-3.75,6.79,6.79,0,0,1,5.18-1,.51.51,0,0,0,.63-.33.5.5,0,0,0-.34-.62,6.87,6.87,0,0,0-4.81.51A17.05,17.05,0,0,0,130,81.4a9.4,9.4,0,0,1-9.85,3.86l-2.87-.88a67,67,0,0,0,1.57-7.93,83.22,83.22,0,0,0,.75-10.11l20.88,6.39a12.16,12.16,0,0,1,1.93.78l.26.15c.22.11.43.23.63.35A12.36,12.36,0,0,1,149,85.37,5,5,0,0,1,146.9,89Zm-25.31,12.41a1.24,1.24,0,0,1-.81,0l-3.28-1-1-.3-1.89-.58c-.53-.16-.89-.61-.77-1l1.2-3.94,2.88.88,1,.29,4.27,1.31L122,101.07A.67.67,0,0,1,121.59,101.45ZM75.14,124.33h0a.53.53,0,0,0-.12,0l-.13,0h0a2.15,2.15,0,0,1-.8-.15c-10.48-4.1-18.89-9.07-25.39-15.08-.29-.27-.58-.53-.85-.8A50.58,50.58,0,0,1,37.38,94l-.22-.45c-.08-.15-.14-.31-.21-.46-.48-1-.92-2.08-1.33-3.15l-.33-.85c-.47-1.28-.9-2.6-1.28-3.95,0-.16-.09-.32-.14-.49s-.08-.32-.12-.48a63.18,63.18,0,0,1-1.54-7.7,80.74,80.74,0,0,1-.77-10.34c0-.17,0-.35,0-.52v-.52c0-.11,0-.21,0-.32V34.08a2.2,2.2,0,0,1,2-2.19c15.06.44,26.16-2.85,40.22-8.68a3.7,3.7,0,0,1,1.28-.32h0l.08,0,.08,0h0a3.7,3.7,0,0,1,1.27.32c14.06,5.83,25.15,9.12,40.17,8.68a2.2,2.2,0,0,1,2,2.19V65c0,.17,0,.34,0,.52s0,.35,0,.52a81.9,81.9,0,0,1-.76,10.41,66,66,0,0,1-1.53,7.63l-.12.49c0,.16-.09.32-.14.48-.37,1.31-.78,2.58-1.23,3.83l-.33.87c-.42,1.11-.88,2.19-1.37,3.25-.07.16-.13.31-.2.46l-.23.46a50.31,50.31,0,0,1-10.41,14.31l-.85.79c-6.51,6-14.94,11-25.47,15.16A2.13,2.13,0,0,1,75.14,124.33ZM28.66,101.45a.64.64,0,0,1-.38-.38l-1.21-3.93,4.26-1.31,1-.29,2.88-.88,1.2,3.94c.11.37-.24.82-.77,1l-1.89.58-1,.3-3.28,1A1.24,1.24,0,0,1,28.66,101.45Zm-7.34-3.6a9.15,9.15,0,0,1-8.18-1.3A14,14,0,0,1,8.36,90.3l0-.17a22.57,22.57,0,0,1-1-4.43.52.52,0,0,0-.56-.45.51.51,0,0,0-.44.56,23.55,23.55,0,0,0,.94,4.27,5.47,5.47,0,0,1-3.9-1,5,5,0,0,1-2.07-3.66A12.23,12.23,0,0,1,9.8,72.73l20.64-6.31a83.9,83.9,0,0,0,.75,10,66,66,0,0,0,1.59,8l-2.61.8a9.43,9.43,0,0,1-9.9-3.85A17,17,0,0,0,14,76.32a6.93,6.93,0,0,0-4.83-.51.5.5,0,0,0-.33.62.51.51,0,0,0,.63.33,6.78,6.78,0,0,1,5.18,1,6.29,6.29,0,0,0-3.38,3.75A10.34,10.34,0,0,0,11.26,88a10.18,10.18,0,0,0,3.68,5.35,6.51,6.51,0,0,0,3.83,1.34,5.38,5.38,0,0,0,1.59-.24c3.06-.93,4.85-4.53,4.34-8.53a10.73,10.73,0,0,0,5.73.28l2.61-.8c.38,1.34.8,2.65,1.27,3.93l-1.1.33a.5.5,0,0,0-.33.63.49.49,0,0,0,.47.35.39.39,0,0,0,.15,0l1.16-.35c.41,1,.84,2.08,1.3,3.09l-.37.11L32,94.58l-1,.3-5,1.52ZM15.75,78.46l.1.07A16.78,16.78,0,0,1,19.39,82a11.17,11.17,0,0,0,4.27,3.71c.6,3.67-.91,7-3.59,7.83a5.18,5.18,0,0,1-4.55-1,9.83,9.83,0,0,1-3.27-10.68,5.16,5.16,0,0,1,3.24-3.34Zm119,.07A5.16,5.16,0,0,1,138,81.87a9.83,9.83,0,0,1-3.27,10.68,5.18,5.18,0,0,1-4.55,1c-2.68-.82-4.2-4.16-3.59-7.83A11.31,11.31,0,0,0,130.86,82a16.73,16.73,0,0,1,3.51-3.41l.13-.1ZM44.49,109.24a7.82,7.82,0,0,1-5.82-.48A7.07,7.07,0,0,1,35,104.48l-1-3.36,1.9-.58a1.91,1.91,0,0,0,1.43-2.24l-1.21-3.93.27-.09A51.21,51.21,0,0,0,46.7,108.62Zm70.73-4.76a7.09,7.09,0,0,1-3.65,4.28,7.77,7.77,0,0,1-5.82.47l-2.37-.68a51,51,0,0,0,10.27-14.33l.48.15-1.21,3.93a1.9,1.9,0,0,0,1.43,2.24l1.9.58ZM122,91.56a.49.49,0,0,1-.48.36l-.14,0-1.11-.33-.8-.25a.47.47,0,0,1-.14-.08.5.5,0,0,1-.2-.55.5.5,0,0,1,.5-.34h.13l.77.24,1.14.35A.5.5,0,0,1,122,91.56Zm-91-.68a.48.48,0,0,1,0,.29.46.46,0,0,1-.32.34l-.57.17-1.34.41a.39.39,0,0,1-.15,0,.49.49,0,0,1-.14-1l1.35-.42.56-.17a.48.48,0,0,1,.45.1A.44.44,0,0,1,31,90.88Zm76.08.8c.08-.16.15-.31.23-.46a45.85,45.85,0,0,0,3-8c0-.16.08-.32.13-.48l.12-.48a58,58,0,0,0,1.13-5.81,72.05,72.05,0,0,0,.67-10V41.28a2.77,2.77,0,0,0-2.61-2.74c-12.29.37-21.25-3.38-31.66-7.71l-1.49-.62a4.13,4.13,0,0,0-1.4-.34h0l-.1,0-.1,0h0a4,4,0,0,0-1.39.34l-1.5.62c-10.4,4.33-19.39,8.08-31.71,7.71a2.76,2.76,0,0,0-2.55,2.74V66.52a70.54,70.54,0,0,0,.67,10,53,53,0,0,0,1.14,5.87c0,.17.08.33.13.49l.12.48a45.79,45.79,0,0,0,3,7.94c.07.16.15.31.22.46l.23.45c5.6,10.88,15.63,18.86,30.67,24.75a2.7,2.7,0,0,0,1,.18h0l.11,0,.1,0h0a2.8,2.8,0,0,0,1-.18c15.07-5.9,25.1-13.9,30.69-24.81C106.89,92,107,91.83,107,91.68Zm-1.22.15C100.3,102.45,90.48,110.24,75.75,116a1.84,1.84,0,0,1-.62.11h0l-.1,0-.11,0h0a1.88,1.88,0,0,1-.62-.11c-14.69-5.76-24.51-13.53-30-24.12-.07-.15-.15-.3-.22-.46s-.16-.3-.23-.45a45.23,45.23,0,0,1-3-7.93c0-.16-.08-.33-.13-.49l-.12-.48a55.64,55.64,0,0,1-1.1-5.58,70.29,70.29,0,0,1-.68-10V41.28a1.74,1.74,0,0,1,1.57-1.74c12.49.37,21.56-3.41,32.07-7.79l1.5-.62a3,3,0,0,1,1-.25h.2a3,3,0,0,1,1,.25l1.5.62c10.51,4.38,19.58,8.15,32,7.79a1.76,1.76,0,0,1,1.63,1.74V66.52a69.05,69.05,0,0,1-.69,10A52,52,0,0,1,109.5,82l-.12.48c0,.17-.08.33-.13.49a45.28,45.28,0,0,1-3,7.94c-.08.15-.16.3-.23.45S105.9,91.68,105.82,91.83ZM75.39,67V33.82a.52.52,0,0,0-.28-.44h0l-.17,0h0a.5.5,0,0,0-.5.5V67a5.61,5.61,0,0,0,0,11.18v22a.5.5,0,0,0,.5.5h0a.65.65,0,0,0,.21-.06h0a.5.5,0,0,0,.26-.43v-22a5.61,5.61,0,0,0,0-11.18Zm0,10.16-.27,0h0l-.19,0h0c-.18,0-.34,0-.5,0a4.59,4.59,0,0,1,0-9.13,3.85,3.85,0,0,1,.5,0h0l.19,0h0a2.48,2.48,0,0,1,.27,0,4.59,4.59,0,0,1,0,9.13Zm-15.65,5c-.13-.16-.26-.32-.38-.49s-.23-.35-.35-.53h0A15.36,15.36,0,0,1,57.44,78c-.06-.16-.13-.31-.18-.47s-.09-.32-.14-.48-.07-.24-.1-.37a15.8,15.8,0,0,1-.56-4.07,15.39,15.39,0,0,1,1.72-7c.08-.16.15-.33.24-.48s.18-.29.27-.43a15.69,15.69,0,0,1,2.61-3.28.52.52,0,0,0,.14-.44.49.49,0,0,0-.27-.37l-3.71-1.78a.5.5,0,0,0-.59.11,21.13,21.13,0,0,0-2.26,3c-.09.14-.16.29-.25.44l-.24.43a20.37,20.37,0,0,0-2.57,9.84,20.89,20.89,0,0,0,.4,4,16.49,16.49,0,0,0,.46,1.84c0,.16.11.32.16.48s.11.31.16.47a20.37,20.37,0,0,0,3.67,6.4h0l.32.37.34.39.14.16a.5.5,0,0,0,.36.16.59.59,0,0,0,.22-.05L61.52,85a.48.48,0,0,0,.28-.38.52.52,0,0,0-.16-.44A14.93,14.93,0,0,1,59.74,82.12Zm-1.93,3.57-.14.07-.29-.36h0c-.11-.12-.21-.25-.32-.38h0a19.42,19.42,0,0,1-3.38-5.92l-.15-.48a4.34,4.34,0,0,1-.16-.47c-.15-.51-.28-1-.39-1.55a20,20,0,0,1-.43-4A19.29,19.29,0,0,1,55,63.14l.23-.42.28-.44a19.82,19.82,0,0,1,1.82-2.49L60.1,61.1a17,17,0,0,0-2.17,2.84l-.24.41c-.08.15-.18.3-.26.46a16.49,16.49,0,0,0-2,7.75A16.28,16.28,0,0,0,56,76.63c0,.22.1.45.17.67s.1.31.15.47.11.32.17.47a16.76,16.76,0,0,0,2.12,4h0l.35.46h0c.12.16.23.32.35.47a16.46,16.46,0,0,0,1.13,1.23ZM53.91,88c-.06-.06-.1-.13-.15-.18h0a22.75,22.75,0,0,1-4.42-7.34c-.06-.16-.11-.32-.16-.48s-.11-.31-.16-.47a22.87,22.87,0,0,1-1.1-6.92,22.84,22.84,0,0,1,2.74-10.79c.09-.15.16-.31.25-.46s.17-.33.27-.49a22.78,22.78,0,0,1,2.37-3.26.52.52,0,0,0,.11-.43.5.5,0,0,0-.27-.35L49.77,55a.51.51,0,0,0-.61.14,28.62,28.62,0,0,0-3.58,5.76c-.09.18-.17.36-.25.55s-.15.36-.22.55a27.41,27.41,0,0,0-.77,18.87c0,.16.09.32.15.48s.09.32.15.48a27.73,27.73,0,0,0,4.16,7.57c.11.14.22.29.33.42l.32.43.06.07a.48.48,0,0,0,.38.18.44.44,0,0,0,.22-.05l2.32-1.11,1.32-.64a.47.47,0,0,0,.28-.35.61.61,0,0,0,0-.19A.48.48,0,0,0,53.91,88ZM45.44,81.1l-.15-.48a26.88,26.88,0,0,1-1-4.08,26.21,26.21,0,0,1,1.93-14.71c.08-.19.18-.36.27-.54s.17-.35.26-.53a26.28,26.28,0,0,1,2.91-4.64l2.67,1.28a23.66,23.66,0,0,0-2.28,3.3l-.26.49-.24.47a23.76,23.76,0,0,0-2.67,10.9,24.18,24.18,0,0,0,.35,4,23.53,23.53,0,0,0,.8,3.21c0,.16.09.32.15.48l.15.47a23.94,23.94,0,0,0,4.35,7.41l-.65.31-2,1c-.08-.09-.14-.19-.22-.29a26.92,26.92,0,0,1-4.22-7.56Zm23.87-.7A8.81,8.81,0,0,1,68.82,65a.52.52,0,0,0,.24-.45.5.5,0,0,0-.29-.43l-4-1.91a.5.5,0,0,0-.55.07A13.79,13.79,0,0,0,60.81,67c-.08.18-.14.37-.22.55l-.22.57a13.35,13.35,0,0,0-.26,7.93h0c0,.16.09.32.14.48s.19.59.3.88a13.76,13.76,0,0,0,4.13,5.74.52.52,0,0,0,.32.11.41.41,0,0,0,.21,0l4.09-2a.51.51,0,0,0,0-.9Zm-4.24,1.81a12.74,12.74,0,0,1-3.72-5.46l-.15-.48c-.05-.15-.09-.32-.13-.48h0a12.4,12.4,0,0,1-.44-3.23,12.64,12.64,0,0,1,.46-3.3c.06-.22.11-.44.18-.65s.14-.38.22-.57a12.74,12.74,0,0,1,3.16-4.76l2.9,1.39a9.78,9.78,0,0,0-4,7.42c0,.16,0,.31,0,.47,0,.32,0,.64.06,1a9.27,9.27,0,0,0,.38,1.9l.15.48A9.79,9.79,0,0,0,68,80.8ZM96.65,78.6c0-.16.1-.32.14-.48.14-.5.27-1,.37-1.52a20.81,20.81,0,0,0,.4-4,20.28,20.28,0,0,0-2.34-9.42c-.07-.14-.16-.28-.24-.42l-.24-.45a21.78,21.78,0,0,0-2.5-3.43.5.5,0,0,0-.59-.11l-3.71,1.78a.49.49,0,0,0-.27.37.52.52,0,0,0,.14.44,15.76,15.76,0,0,1,3,4c.08.15.16.31.23.47s.17.32.24.48a15.42,15.42,0,0,1,1.34,6.28,15.87,15.87,0,0,1-.56,4.08v0c0,.16-.08.32-.13.48s-.1.32-.16.48a16.67,16.67,0,0,1-.87,2h0c-.13.24-.23.49-.37.72s-.25.39-.38.58a15.35,15.35,0,0,1-2.7,3.22.52.52,0,0,0-.16.44.48.48,0,0,0,.28.38l3.75,1.8a.48.48,0,0,0,.57-.11c.25-.26.47-.54.7-.81l.35-.39h0l.31-.39h0a20.39,20.39,0,0,0,3.22-6.05C96.54,78.92,96.6,78.76,96.65,78.6Zm-1.12.18a19.2,19.2,0,0,1-2.87,5.49h0l-.32.39-.34.41c-.19.23-.36.46-.56.68l-2.76-1.32a17.08,17.08,0,0,0,1.87-2.21l.36-.52h0l.34-.56h0a16.7,16.7,0,0,0,1.49-3.21c.06-.16.12-.31.17-.47S93,77.13,93,77s0-.22.08-.34a16.28,16.28,0,0,0,.53-4.07,16.55,16.55,0,0,0-1.61-7c-.08-.17-.15-.34-.23-.5l-.25-.44A17,17,0,0,0,89,61.1l2.74-1.31a20.75,20.75,0,0,1,2.14,3l.23.43c.08.15.17.3.24.45a19.21,19.21,0,0,1,2.2,8.89,20.17,20.17,0,0,1-.43,4c-.09.41-.18.82-.29,1.22l-.15.48C95.64,78.47,95.58,78.62,95.53,78.78Zm8.17-17.49c-.08-.18-.18-.36-.26-.53A28.12,28.12,0,0,0,100,55.18a.51.51,0,0,0-.61-.14l-3.62,1.74a.5.5,0,0,0-.27.35.52.52,0,0,0,.11.43A21.66,21.66,0,0,1,98.05,61c.09.14.16.29.24.44s.17.32.26.47a22.84,22.84,0,0,1,2.64,10.61,23.24,23.24,0,0,1-1,6.6c0,.16-.11.32-.16.48s-.11.31-.16.47a23,23,0,0,1-4.16,7.23h0c-.11.12-.21.26-.32.38l-.2.24a1,1,0,0,0-.1.17.58.58,0,0,0,0,.26.47.47,0,0,0,.28.35L99,90.49a.44.44,0,0,0,.22.05.49.49,0,0,0,.38-.18c.1-.11.18-.24.27-.35s.22-.29.33-.43l.32-.42a27.75,27.75,0,0,0,4-7.61c.06-.16.1-.32.15-.48l.15-.48a28.95,28.95,0,0,0,1.23-8,27.44,27.44,0,0,0-2.19-10.75C103.84,61.64,103.78,61.46,103.7,61.29Zm1.08,15.26a28.29,28.29,0,0,1-.86,3.75l-.15.48c0,.16-.09.32-.15.48a26.77,26.77,0,0,1-4.11,7.59c-.11.14-.21.29-.32.42l-.11.15-1-.5-1.66-.79.23-.3h0a23.73,23.73,0,0,0,4.22-7.42c.06-.16.1-.32.15-.48s.11-.32.16-.48a25.16,25.16,0,0,0,.69-2.88,24.3,24.3,0,0,0,.35-4,23.79,23.79,0,0,0-2.61-10.79l-.24-.46c-.09-.16-.16-.33-.25-.49a24.7,24.7,0,0,0-2.35-3.42l2.67-1.28a27.35,27.35,0,0,1,2.86,4.53c.09.18.18.36.26.54s.18.34.26.51a26.23,26.23,0,0,1,2,14.85ZM89,76.25c0-.16.1-.32.14-.49h0a13.61,13.61,0,0,0,.39-3.2,13.42,13.42,0,0,0-.39-3.17c0-.23-.12-.45-.18-.67s-.12-.41-.19-.61a13.75,13.75,0,0,0-3.84-5.8.5.5,0,0,0-.55-.07l-4,1.91a.5.5,0,0,0-.29.43.52.52,0,0,0,.24.45A8.81,8.81,0,0,1,79.8,80.4a.52.52,0,0,0-.27.46.5.5,0,0,0,.28.44l4.09,2a.41.41,0,0,0,.21,0,.52.52,0,0,0,.32-.11,13.84,13.84,0,0,0,4.39-6.46C88.87,76.57,88.91,76.41,89,76.25Zm-1.09.19A12.67,12.67,0,0,1,84,82.21l-3-1.41a9.81,9.81,0,0,0,.47-16.13l2.9-1.39a12.77,12.77,0,0,1,3.56,6c.06.23.13.46.18.69s.1.57.14.85a11.82,11.82,0,0,1-.21,4.67h0c0,.16-.09.32-.13.48S87.92,76.28,87.86,76.44ZM75.13,119.1l-.22,0h0a1.57,1.57,0,0,0,0,3.13h0l.22,0a1.56,1.56,0,0,0,0-3.09Zm-.22,2.11h0a.56.56,0,0,1-.54-.56.57.57,0,0,1,.54-.56h0a.54.54,0,0,1,.22,0,.57.57,0,0,1,.34.52.56.56,0,0,1-.34.52A.54.54,0,0,1,74.91,121.21ZM35.42,34.74A1.57,1.57,0,1,0,37,36.3,1.56,1.56,0,0,0,35.42,34.74Zm0,2.13A.57.57,0,1,1,36,36.3.56.56,0,0,1,35.42,36.87Zm79.05,1.18a1.57,1.57,0,1,0-1.56-1.56A1.56,1.56,0,0,0,114.47,38.05Zm0-2.13a.57.57,0,1,1-.56.57A.56.56,0,0,1,114.47,35.92Zm-39.56-8h0l.19,0a1.55,1.55,0,0,0,0-3.09l-.19,0h0a1.57,1.57,0,0,0,0,3.13Zm0-2.13h0a.58.58,0,0,1,.19,0,.57.57,0,0,1,.38.53.55.55,0,0,1-.38.53.58.58,0,0,1-.19,0h0a.57.57,0,0,1,0-1.13ZM34.35,71.67a1.57,1.57,0,1,0,1.57,1.57A1.57,1.57,0,0,0,34.35,71.67Zm0,2.13a.57.57,0,1,1,.57-.56A.57.57,0,0,1,34.35,73.8Zm79.33.47a1.57,1.57,0,1,0,1.56-1.57A1.57,1.57,0,0,0,113.68,74.27Zm1.56.57a.57.57,0,1,1,.57-.57A.57.57,0,0,1,115.24,74.84Z"/></g></svg>