<svg xmlns="http://www.w3.org/2000/svg" xmlns:xlink="http://www.w3.org/1999/xlink" width="364.49" height="355.44" viewBox="0 0 364.49 355.44" style="" class="">
  <defs>
    <clipPath id="clip-path">
      <path d="M97.21,1.08a20,20,0,0,1,2.34.26,20.43,20.43,0,0,1,2.33.54,20.71,20.71,0,0,1,4.48,1.92L91.53,18.54a20.42,20.42,0,0,0-4.42-1.89,20.16,20.16,0,0,0-2.29-.53,19.74,19.74,0,0,0-2.31-.26Z" style="fill: none" class="snQTJEsa_0"></path>
    </clipPath>
    <clipPath id="clip-path-2">
      <path d="M106.36,3.8a461.82,461.82,0,0,0,53.24,28.94,495.55,495.55,0,0,0,57.19,22.21A525.63,525.63,0,0,0,277,70.29a548.59,548.59,0,0,0,62.3,8.34L321.42,92.27a541.48,541.48,0,0,1-61.49-8.2A518.59,518.59,0,0,1,200.5,69a488.72,488.72,0,0,1-56.44-21.89A455.29,455.29,0,0,1,91.53,18.54Z" style="fill: none" class="snQTJEsa_1"></path>
    </clipPath>
    <clipPath id="clip-path-3">
      <path style="fill: none" d="M339.29,78.63L340.31,79.15L322.43,92.78L321.42,92.27L339.29,78.63Z" class="snQTJEsa_2"></path>
    </clipPath>
    <clipPath id="clip-path-4">
      <path d="M340.31,79.15a24.18,24.18,0,0,1,6.22,4.37,34.45,34.45,0,0,1,5.21,6.33,35.37,35.37,0,0,1,3.64,7.38,25.82,25.82,0,0,1,1.51,7.52L338.79,118a25.46,25.46,0,0,0-1.49-7.42,34.86,34.86,0,0,0-3.59-7.28,34,34,0,0,0-5.14-6.24,23.84,23.84,0,0,0-6.14-4.31Z" style="fill: none" class="snQTJEsa_3"></path>
    </clipPath>
    <clipPath id="clip-path-5">
      <path style="fill: none" d="M356.89,104.75L363.22,277.33L344.94,288.34L338.79,118.03L356.89,104.75Z" class="snQTJEsa_4"></path>
    </clipPath>
    <clipPath id="clip-path-6">
      <path style="fill: none" d="M363.22,277.33L363.52,285.59L345.24,296.49L344.94,288.34L363.22,277.33Z" class="snQTJEsa_5"></path>
    </clipPath>
    <clipPath id="clip-path-7">
      <path style="fill: none" d="M363.52,285.59L363.62,288.17L345.33,299.04L345.24,296.49L363.52,285.59Z" class="snQTJEsa_6"></path>
    </clipPath>
    <clipPath id="clip-path-8">
      <path d="M363.62,288.17q.17,4.64.26,9.23t.11,9.12q0,4.54,0,9t-.19,8.91l-18.31,10.39q.13-4.37.19-8.79t0-8.9q0-4.47-.1-9t-.25-9.11Z" style="fill: none" class="snQTJEsa_7"></path>
    </clipPath>
  </defs>
  <title>icon-top-right-shield</title>
  <g id="Layer_2" data-name="Layer 2">
    <g id="Benefits_-_1200" data-name="Benefits - 1200">
      <g id="Shield">
        <g id="Piece">
          <g>
            <g>
              <g style="isolation: isolate">
                <g style="clip-path: url(#clip-path)">
                  <path d="M97.21,1.08,82.5,15.86a19.74,19.74,0,0,1,2.31.26,20.16,20.16,0,0,1,2.29.53,20.42,20.42,0,0,1,4.42,1.89L106.36,3.8a20.71,20.71,0,0,0-4.48-1.92,20.43,20.43,0,0,0-2.33-.54A20,20,0,0,0,97.21,1.08Z" style="fill: none;stroke: #000;stroke-miterlimit: 10;stroke-width: 0.25px" class="snQTJEsa_8"></path>
                  <path style="fill: none;stroke: #000;stroke-miterlimit: 10;stroke-width: 0.25px" d="M100.33,1.49L85.58,16.26" class="snQTJEsa_9"></path>
                  <path style="fill: none;stroke: #000;stroke-miterlimit: 10;stroke-width: 0.25px" d="M103.4,2.4L88.61,17.16" class="snQTJEsa_10"></path>
                  <path d="M97.21,1.08a20,20,0,0,1,2.34.26,20.43,20.43,0,0,1,2.33.54,20.71,20.71,0,0,1,4.48,1.92L91.53,18.54a20.42,20.42,0,0,0-4.42-1.89,20.16,20.16,0,0,0-2.29-.53,19.74,19.74,0,0,0-2.31-.26Z" style="fill: none;stroke: #000;stroke-miterlimit: 10;stroke-width: 0.25px" class="snQTJEsa_11"></path>
                </g>
              </g>
              <g style="isolation: isolate">
                <g style="clip-path: url(#clip-path-2)">
                  <path d="M106.36,3.8,91.53,18.54a455.29,455.29,0,0,0,52.53,28.53A488.72,488.72,0,0,0,200.5,69a518.59,518.59,0,0,0,59.43,15.11,541.48,541.48,0,0,0,61.49,8.2l17.87-13.64A548.59,548.59,0,0,1,277,70.29a525.63,525.63,0,0,1-60.21-15.34,495.55,495.55,0,0,1-57.19-22.21A461.82,461.82,0,0,1,106.36,3.8Z" style="fill: none;stroke: #000;stroke-miterlimit: 10;stroke-width: 0.25px" class="snQTJEsa_12"></path>
                  <path style="fill: none;stroke: #000;stroke-miterlimit: 10;stroke-width: 0.25px" d="M178.26,40.9L162.49,55.11" class="snQTJEsa_13"></path>
                  <path style="fill: none;stroke: #000;stroke-miterlimit: 10;stroke-width: 0.25px" d="M256.65,65.95L239.84,79.79" class="snQTJEsa_14"></path>
                  <path d="M106.36,3.8a461.82,461.82,0,0,0,53.24,28.94,495.55,495.55,0,0,0,57.19,22.21A525.63,525.63,0,0,0,277,70.29a548.59,548.59,0,0,0,62.3,8.34L321.42,92.27a541.48,541.48,0,0,1-61.49-8.2A518.59,518.59,0,0,1,200.5,69a488.72,488.72,0,0,1-56.44-21.89A455.29,455.29,0,0,1,91.53,18.54Z" style="fill: none;stroke: #000;stroke-miterlimit: 10;stroke-width: 0.25px" class="snQTJEsa_15"></path>
                </g>
              </g>
              <g style="isolation: isolate">
                <g style="clip-path: url(#clip-path-3)">
                  <path style="fill: none;stroke: #000;stroke-miterlimit: 10;stroke-width: 0.25px" d="M339.29,78.63L340.31,79.15L322.43,92.78L321.42,92.27L339.29,78.63Z" class="snQTJEsa_16"></path>
                </g>
              </g>
              <g style="isolation: isolate">
                <g style="clip-path: url(#clip-path-4)">
                  <path d="M340.31,79.15,322.43,92.78a23.84,23.84,0,0,1,6.14,4.31,34,34,0,0,1,5.14,6.24,34.86,34.86,0,0,1,3.59,7.28,25.46,25.46,0,0,1,1.49,7.42l18.11-13.29a25.82,25.82,0,0,0-1.51-7.52,35.37,35.37,0,0,0-3.64-7.38,34.45,34.45,0,0,0-5.21-6.33A24.18,24.18,0,0,0,340.31,79.15Z" style="fill: none;stroke: #000;stroke-miterlimit: 10;stroke-width: 0.25px" class="snQTJEsa_17"></path>
                  <path style="fill: none;stroke: #000;stroke-miterlimit: 10;stroke-width: 0.25px" d="M348.41,85.45L330.43,98.99" class="snQTJEsa_18"></path>
                  <path style="fill: none;stroke: #000;stroke-miterlimit: 10;stroke-width: 0.25px" d="M354.38,94.7L336.31,108.12" class="snQTJEsa_19"></path>
                  <path d="M340.31,79.15a24.18,24.18,0,0,1,6.22,4.37,34.45,34.45,0,0,1,5.21,6.33,35.37,35.37,0,0,1,3.64,7.38,25.82,25.82,0,0,1,1.51,7.52L338.79,118a25.46,25.46,0,0,0-1.49-7.42,34.86,34.86,0,0,0-3.59-7.28,34,34,0,0,0-5.14-6.24,23.84,23.84,0,0,0-6.14-4.31Z" style="fill: none;stroke: #000;stroke-miterlimit: 10;stroke-width: 0.25px" class="snQTJEsa_20"></path>
                </g>
              </g>
              <g style="isolation: isolate">
                <g style="clip-path: url(#clip-path-5)">
                  <path style="fill: none;stroke: #000;stroke-miterlimit: 10;stroke-width: 0.25px" d="M356.89,104.75L363.22,277.33L344.94,288.34L338.79,118.03L356.89,104.75Z" class="snQTJEsa_21"></path>
                </g>
              </g>
              <g style="isolation: isolate">
                <g style="clip-path: url(#clip-path-6)">
                  <path style="fill: none;stroke: #000;stroke-miterlimit: 10;stroke-width: 0.25px" d="M363.22,277.33L363.52,285.59L345.24,296.49L344.94,288.34L363.22,277.33Z" class="snQTJEsa_22"></path>
                </g>
              </g>
              <g style="isolation: isolate">
                <g style="clip-path: url(#clip-path-7)">
                  <path style="fill: none;stroke: #000;stroke-miterlimit: 10;stroke-width: 0.25px" d="M363.52,285.59L363.62,288.17L345.33,299.04L345.24,296.49L363.52,285.59Z" class="snQTJEsa_23"></path>
                </g>
              </g>
              <g style="isolation: isolate">
                <g style="clip-path: url(#clip-path-8)">
                  <path d="M363.62,288.17,345.33,299q.17,4.58.25,9.11t.1,9q0,4.48,0,8.9t-.19,8.79l18.31-10.39q.13-4.43.19-8.91t0-9q0-4.53-.11-9.12T363.62,288.17Z" style="fill: none;stroke: #000;stroke-miterlimit: 10;stroke-width: 0.25px" class="snQTJEsa_24"></path>
                  <path style="fill: none;stroke: #000;stroke-miterlimit: 10;stroke-width: 0.25px" d="M363.93,300.46L345.64,311.17" class="snQTJEsa_25"></path>
                  <path style="fill: none;stroke: #000;stroke-miterlimit: 10;stroke-width: 0.25px" d="M363.98,312.56L345.67,323.1" class="snQTJEsa_26"></path>
                  <path d="M363.62,288.17q.17,4.64.26,9.23t.11,9.12q0,4.54,0,9t-.19,8.91l-18.31,10.39q.13-4.37.19-8.79t0-8.9q0-4.47-.1-9t-.25-9.11Z" style="fill: none;stroke: #000;stroke-miterlimit: 10;stroke-width: 0.25px" class="snQTJEsa_27"></path>
                </g>
              </g>
            </g>
            <g>
              <g style="clip-path: url(#clip-path)">
                <path d="M97.21,1.08,82.5,15.86a19.74,19.74,0,0,1,2.31.26,20.16,20.16,0,0,1,2.29.53,20.42,20.42,0,0,1,4.42,1.89L106.36,3.8a20.71,20.71,0,0,0-4.48-1.92,20.43,20.43,0,0,0-2.33-.54A20,20,0,0,0,97.21,1.08Z" style="fill: none;stroke: #4e7096;stroke-miterlimit: 10" class="snQTJEsa_28"></path>
                <path style="fill: none;stroke: #4e7096;stroke-miterlimit: 10" d="M100.33,1.49L85.58,16.26" class="snQTJEsa_29"></path>
                <path style="fill: none;stroke: #4e7096;stroke-miterlimit: 10" d="M103.4,2.4L88.61,17.16" class="snQTJEsa_30"></path>
                <path d="M97.21,1.08a20,20,0,0,1,2.34.26,20.43,20.43,0,0,1,2.33.54,20.71,20.71,0,0,1,4.48,1.92L91.53,18.54a20.42,20.42,0,0,0-4.42-1.89,20.16,20.16,0,0,0-2.29-.53,19.74,19.74,0,0,0-2.31-.26Z" style="fill: none;stroke: #4e7096;stroke-miterlimit: 10" class="snQTJEsa_31"></path>
              </g>
              <g style="clip-path: url(#clip-path-2)">
                <path d="M106.36,3.8,91.53,18.54a455.29,455.29,0,0,0,52.53,28.53A488.72,488.72,0,0,0,200.5,69a518.59,518.59,0,0,0,59.43,15.11,541.48,541.48,0,0,0,61.49,8.2l17.87-13.64A548.59,548.59,0,0,1,277,70.29a525.63,525.63,0,0,1-60.21-15.34,495.55,495.55,0,0,1-57.19-22.21A461.82,461.82,0,0,1,106.36,3.8Z" style="fill: none;stroke: #4e7096;stroke-miterlimit: 10" class="snQTJEsa_32"></path>
                <path style="fill: none;stroke: #4e7096;stroke-miterlimit: 10" d="M178.26,40.9L162.49,55.11" class="snQTJEsa_33"></path>
                <path style="fill: none;stroke: #4e7096;stroke-miterlimit: 10" d="M256.65,65.95L239.84,79.79" class="snQTJEsa_34"></path>
                <path d="M106.36,3.8a461.82,461.82,0,0,0,53.24,28.94,495.55,495.55,0,0,0,57.19,22.21A525.63,525.63,0,0,0,277,70.29a548.59,548.59,0,0,0,62.3,8.34L321.42,92.27a541.48,541.48,0,0,1-61.49-8.2A518.59,518.59,0,0,1,200.5,69a488.72,488.72,0,0,1-56.44-21.89A455.29,455.29,0,0,1,91.53,18.54Z" style="fill: none;stroke: #4e7096;stroke-miterlimit: 10" class="snQTJEsa_35"></path>
              </g>
              <g style="clip-path: url(#clip-path-3)">
                <path style="fill: none;stroke: #4e7096;stroke-miterlimit: 10" d="M339.29,78.63L340.31,79.15L322.43,92.78L321.42,92.27L339.29,78.63Z" class="snQTJEsa_36"></path>
              </g>
              <g style="clip-path: url(#clip-path-4)">
                <path d="M340.31,79.15,322.43,92.78a23.84,23.84,0,0,1,6.14,4.31,34,34,0,0,1,5.14,6.24,34.86,34.86,0,0,1,3.59,7.28,25.46,25.46,0,0,1,1.49,7.42l18.11-13.29a25.82,25.82,0,0,0-1.51-7.52,35.37,35.37,0,0,0-3.64-7.38,34.45,34.45,0,0,0-5.21-6.33A24.18,24.18,0,0,0,340.31,79.15Z" style="fill: none;stroke: #4e7096;stroke-miterlimit: 10" class="snQTJEsa_37"></path>
                <path style="fill: none;stroke: #4e7096;stroke-miterlimit: 10" d="M348.41,85.45L330.43,98.99" class="snQTJEsa_38"></path>
                <path style="fill: none;stroke: #4e7096;stroke-miterlimit: 10" d="M354.38,94.7L336.31,108.12" class="snQTJEsa_39"></path>
                <path d="M340.31,79.15a24.18,24.18,0,0,1,6.22,4.37,34.45,34.45,0,0,1,5.21,6.33,35.37,35.37,0,0,1,3.64,7.38,25.82,25.82,0,0,1,1.51,7.52L338.79,118a25.46,25.46,0,0,0-1.49-7.42,34.86,34.86,0,0,0-3.59-7.28,34,34,0,0,0-5.14-6.24,23.84,23.84,0,0,0-6.14-4.31Z" style="fill: none;stroke: #4e7096;stroke-miterlimit: 10" class="snQTJEsa_40"></path>
              </g>
              <g style="clip-path: url(#clip-path-5)">
                <path style="fill: none;stroke: #4e7096;stroke-miterlimit: 10" d="M356.89,104.75L363.22,277.33L344.94,288.34L338.79,118.03L356.89,104.75Z" class="snQTJEsa_41"></path>
              </g>
              <g style="clip-path: url(#clip-path-6)">
                <path style="fill: none;stroke: #4e7096;stroke-miterlimit: 10" d="M363.22,277.33L363.52,285.59L345.24,296.49L344.94,288.34L363.22,277.33Z" class="snQTJEsa_42"></path>
              </g>
              <g style="clip-path: url(#clip-path-7)">
                <path style="fill: none;stroke: #4e7096;stroke-miterlimit: 10" d="M363.52,285.59L363.62,288.17L345.33,299.04L345.24,296.49L363.52,285.59Z" class="snQTJEsa_43"></path>
              </g>
              <g style="clip-path: url(#clip-path-8)">
                <path d="M363.62,288.17,345.33,299q.17,4.58.25,9.11t.1,9q0,4.48,0,8.9t-.19,8.79l18.31-10.39q.13-4.43.19-8.91t0-9q0-4.53-.11-9.12T363.62,288.17Z" style="fill: none;stroke: #4e7096;stroke-miterlimit: 10" class="snQTJEsa_44"></path>
                <path style="fill: none;stroke: #4e7096;stroke-miterlimit: 10" d="M363.93,300.46L345.64,311.17" class="snQTJEsa_45"></path>
                <path style="fill: none;stroke: #4e7096;stroke-miterlimit: 10" d="M363.98,312.56L345.67,323.1" class="snQTJEsa_46"></path>
                <path d="M363.62,288.17q.17,4.64.26,9.23t.11,9.12q0,4.54,0,9t-.19,8.91l-18.31,10.39q.13-4.37.19-8.79t0-8.9q0-4.47-.1-9t-.25-9.11Z" style="fill: none;stroke: #4e7096;stroke-miterlimit: 10" class="snQTJEsa_47"></path>
              </g>
            </g>
          </g>
          <g>
            <g>
              <path style="fill: #03a9f4" d="M363.75,323.38L345.45,333.77L91.88,335.34L106.85,324.88L363.75,323.38Z" class="snQTJEsa_48"></path>
              <path style="fill: #03a9f4" d="M106.85,324.88L91.88,335.34L82.5,14.78L97.21,0L106.85,324.88Z" class="snQTJEsa_49"></path>
            </g>
            <path d="M98.24,1.64a19.77,19.77,0,0,1,2.33.26,20.21,20.21,0,0,1,2.31.54,20.52,20.52,0,0,1,4.45,1.92,458.3,458.3,0,0,0,52.94,29,490.88,490.88,0,0,0,56.87,22.22A520,520,0,0,0,277,70.89a542.24,542.24,0,0,0,61.94,8.35l1,.52a24,24,0,0,1,6.19,4.37,34.43,34.43,0,0,1,5.18,6.33,35.49,35.49,0,0,1,3.62,7.38,26,26,0,0,1,1.51,7.53l6.29,172.69.3,8.26.09,2.59q.17,4.65.26,9.24t.11,9.13q0,4.54,0,9c0,3-.1,4.88-.19,7.83l-255.45,1.5Z" style="fill: #03a9f4;opacity: 0.6000000000000001" class="snQTJEsa_50"></path>
            <path d="M97.92,1.61a25.63,25.63,0,0,1,2.65.3,20.21,20.21,0,0,1,2.31.54,20.52,20.52,0,0,1,4.45,1.92,458.3,458.3,0,0,0,52.94,29,490.88,490.88,0,0,0,56.87,22.22A520,520,0,0,0,277,70.89a542.24,542.24,0,0,0,61.94,8.35l1,.52a24,24,0,0,1,6.19,4.37,34.43,34.43,0,0,1,5.18,6.33,35.49,35.49,0,0,1,3.62,7.38,26,26,0,0,1,1.51,7.53l6.29,172.69.3,8.26.09,2.59q.17,4.65.26,9.24t.11,9.13q0,4.54,0,9c0,3-.1,4.88-.19,7.83l-256.11,1Z" style="fill: none;stroke: #4e7096;stroke-miterlimit: 10" class="snQTJEsa_51"></path>
          </g>
          <g>
            <path style="fill: none;stroke: #d1d5db;stroke-linecap: round;stroke-linejoin: round" d="M345.5,333.94L187.5,354.94" class="snQTJEsa_52"></path>
            <path style="fill: none;stroke: #d4d8de;stroke-linecap: round;stroke-linejoin: round" d="M317.07,334.15L166.8,354.87" class="snQTJEsa_53"></path>
            <path style="fill: none;stroke: #d7dbe0;stroke-linecap: round;stroke-linejoin: round" d="M288.65,334.37L146.09,354.81" class="snQTJEsa_54"></path>
            <path style="fill: none;stroke: #dadee3;stroke-linecap: round;stroke-linejoin: round" d="M260.22,334.58L125.39,354.75" class="snQTJEsa_55"></path>
            <path style="fill: none;stroke: #dde1e6;stroke-linecap: round;stroke-linejoin: round" d="M231.8,334.79L104.69,354.68" class="snQTJEsa_56"></path>
            <path style="fill: none;stroke: #e1e4e8;stroke-linecap: round;stroke-linejoin: round" d="M203.37,335L83.98,354.62" class="snQTJEsa_57"></path>
            <path style="fill: none;stroke: #e4e7eb;stroke-linecap: round;stroke-linejoin: round" d="M174.94,335.22L63.28,354.55" class="snQTJEsa_58"></path>
            <path style="fill: none;stroke: #e7eaee;stroke-linecap: round;stroke-linejoin: round" d="M146.52,335.43L42.57,354.49" class="snQTJEsa_59"></path>
            <path style="fill: none;stroke: #eaedf0;stroke-linecap: round;stroke-linejoin: round" d="M118.09,335.64L21.87,354.42" class="snQTJEsa_60"></path>
            <path style="fill: none;stroke: #edf0f3;stroke-linecap: round;stroke-linejoin: round" d="M89.67,335.86L1.17,354.36" class="snQTJEsa_61"></path>
          </g>
          <g>
            <path style="fill: none;stroke: #edf0f3;stroke-miterlimit: 10" d="M89.17,336.11L1.42,354.36" class="snQTJEsa_62"></path>
            <path style="fill: none;stroke: #eceff3;stroke-linecap: round;stroke-linejoin: round" d="M89.02,329.65L1.4,349.72" class="snQTJEsa_63"></path>
            <path style="fill: none;stroke: #eceff2;stroke-linecap: round;stroke-linejoin: round" d="M88.87,323.2L1.38,345.07" class="snQTJEsa_64"></path>
            <path style="fill: none;stroke: #ebeef2;stroke-linecap: round;stroke-linejoin: round" d="M88.72,316.74L1.36,340.43" class="snQTJEsa_65"></path>
            <path style="fill: none;stroke: #ebeef1;stroke-linecap: round;stroke-linejoin: round" d="M88.57,310.29L1.34,335.79" class="snQTJEsa_66"></path>
            <path style="fill: none;stroke: #eaedf1;stroke-linecap: round;stroke-linejoin: round" d="M88.43,303.84L1.32,331.15" class="snQTJEsa_67"></path>
            <path style="fill: none;stroke: #eaedf0;stroke-linecap: round;stroke-linejoin: round" d="M88.28,297.38L1.3,326.51" class="snQTJEsa_68"></path>
            <path style="fill: none;stroke: #e9ecf0;stroke-linecap: round;stroke-linejoin: round" d="M88.13,290.93L1.29,321.87" class="snQTJEsa_69"></path>
            <path style="fill: none;stroke: #e8ecef;stroke-linecap: round;stroke-linejoin: round" d="M87.98,284.47L1.27,317.23" class="snQTJEsa_70"></path>
            <path style="fill: none;stroke: #e8ebef;stroke-linecap: round;stroke-linejoin: round" d="M87.84,278.02L1.25,312.59" class="snQTJEsa_71"></path>
            <path style="fill: none;stroke: #e7eaee;stroke-linecap: round;stroke-linejoin: round" d="M87.69,271.57L1.23,307.94" class="snQTJEsa_72"></path>
            <path style="fill: none;stroke: #e7eaee;stroke-linecap: round;stroke-linejoin: round" d="M87.54,265.11L1.21,303.3" class="snQTJEsa_73"></path>
            <path style="fill: none;stroke: #e6e9ed;stroke-linecap: round;stroke-linejoin: round" d="M87.39,258.66L1.19,298.66" class="snQTJEsa_74"></path>
            <path style="fill: none;stroke: #e6e9ed;stroke-linecap: round;stroke-linejoin: round" d="M87.24,252.2L1.17,294.02" class="snQTJEsa_75"></path>
            <path style="fill: none;stroke: #e5e8ec;stroke-linecap: round;stroke-linejoin: round" d="M87.1,245.75L1.15,289.38" class="snQTJEsa_76"></path>
            <path style="fill: none;stroke: #e4e8ec;stroke-linecap: round;stroke-linejoin: round" d="M86.95,239.3L1.14,284.74" class="snQTJEsa_77"></path>
            <path style="fill: none;stroke: #e4e7eb;stroke-linecap: round;stroke-linejoin: round" d="M86.8,232.84L1.12,280.1" class="snQTJEsa_78"></path>
            <path style="fill: none;stroke: #e3e7eb;stroke-linecap: round;stroke-linejoin: round" d="M86.65,226.39L1.1,275.46" class="snQTJEsa_79"></path>
            <path style="fill: none;stroke: #e3e6ea;stroke-linecap: round;stroke-linejoin: round" d="M86.5,219.93L1.08,270.82" class="snQTJEsa_80"></path>
            <path style="fill: none;stroke: #e2e6ea;stroke-linecap: round;stroke-linejoin: round" d="M86.36,213.48L1.06,266.17" class="snQTJEsa_81"></path>
            <path style="fill: none;stroke: #e2e5e9;stroke-linecap: round;stroke-linejoin: round" d="M86.21,207.02L1.04,261.53" class="snQTJEsa_82"></path>
            <path style="fill: none;stroke: #e1e4e9;stroke-linecap: round;stroke-linejoin: round" d="M86.06,200.57L1.02,256.89" class="snQTJEsa_83"></path>
            <path style="fill: none;stroke: #e0e4e8;stroke-linecap: round;stroke-linejoin: round" d="M85.91,194.12L1.01,252.25" class="snQTJEsa_84"></path>
            <path style="fill: none;stroke: #e0e3e8;stroke-linecap: round;stroke-linejoin: round" d="M85.76,187.66L0.99,247.61" class="snQTJEsa_85"></path>
            <path style="fill: none;stroke: #dfe3e7;stroke-linecap: round;stroke-linejoin: round" d="M85.62,181.21L0.97,242.97" class="snQTJEsa_86"></path>
            <path style="fill: none;stroke: #dfe2e7;stroke-linecap: round;stroke-linejoin: round" d="M85.47,174.75L0.95,238.33" class="snQTJEsa_87"></path>
            <path style="fill: none;stroke: #dee2e6;stroke-linecap: round;stroke-linejoin: round" d="M85.32,168.3L0.93,233.69" class="snQTJEsa_88"></path>
            <path style="fill: none;stroke: #dee1e6;stroke-linecap: round;stroke-linejoin: round" d="M85.17,161.85L0.91,229.05" class="snQTJEsa_89"></path>
            <path style="fill: none;stroke: #dde1e5;stroke-linecap: round;stroke-linejoin: round" d="M85.02,155.39L0.89,224.4" class="snQTJEsa_90"></path>
            <path style="fill: none;stroke: #dce0e5;stroke-linecap: round;stroke-linejoin: round" d="M84.88,148.94L0.87,219.76" class="snQTJEsa_91"></path>
            <path style="fill: none;stroke: #dcdfe4;stroke-linecap: round;stroke-linejoin: round" d="M84.73,142.48L0.86,215.12" class="snQTJEsa_92"></path>
            <path style="fill: none;stroke: #dbdfe4;stroke-linecap: round;stroke-linejoin: round" d="M84.58,136.03L0.84,210.48" class="snQTJEsa_93"></path>
            <path style="fill: none;stroke: #dbdee3;stroke-linecap: round;stroke-linejoin: round" d="M84.43,129.58L0.82,205.84" class="snQTJEsa_94"></path>
            <path style="fill: none;stroke: #dadee3;stroke-linecap: round;stroke-linejoin: round" d="M84.28,123.12L0.8,201.2" class="snQTJEsa_95"></path>
            <path style="fill: none;stroke: #dadde2;stroke-linecap: round;stroke-linejoin: round" d="M84.14,116.67L0.78,196.56" class="snQTJEsa_96"></path>
            <path style="fill: none;stroke: #d9dde2;stroke-linecap: round;stroke-linejoin: round" d="M83.99,110.21L0.76,191.92" class="snQTJEsa_97"></path>
            <path style="fill: none;stroke: #d8dce1;stroke-linecap: round;stroke-linejoin: round" d="M83.84,103.76L0.74,187.27" class="snQTJEsa_98"></path>
            <path style="fill: none;stroke: #d8dce1;stroke-linecap: round;stroke-linejoin: round" d="M83.69,97.31L0.72,182.63" class="snQTJEsa_99"></path>
            <path style="fill: none;stroke: #d7dbe0;stroke-linecap: round;stroke-linejoin: round" d="M83.54,90.85L0.71,177.99" class="snQTJEsa_100"></path>
            <path style="fill: none;stroke: #d7dbe0;stroke-linecap: round;stroke-linejoin: round" d="M83.4,84.4L0.69,173.35" class="snQTJEsa_101"></path>
            <path style="fill: none;stroke: #d6dadf;stroke-linecap: round;stroke-linejoin: round" d="M83.25,77.94L0.67,168.71" class="snQTJEsa_102"></path>
            <path style="fill: none;stroke: #d6d9df;stroke-linecap: round;stroke-linejoin: round" d="M83.1,71.49L0.65,164.07" class="snQTJEsa_103"></path>
            <path style="fill: none;stroke: #d5d9de;stroke-linecap: round;stroke-linejoin: round" d="M82.95,65.03L0.63,159.43" class="snQTJEsa_104"></path>
            <path style="fill: none;stroke: #d4d8de;stroke-linecap: round;stroke-linejoin: round" d="M82.8,58.58L0.61,154.79" class="snQTJEsa_105"></path>
            <path style="fill: none;stroke: #d4d8dd;stroke-linecap: round;stroke-linejoin: round" d="M82.66,52.13L0.59,150.15" class="snQTJEsa_106"></path>
            <path style="fill: none;stroke: #d3d7dd;stroke-linecap: round;stroke-linejoin: round" d="M82.51,45.67L0.57,145.5" class="snQTJEsa_107"></path>
            <path style="fill: none;stroke: #d3d7dc;stroke-linecap: round;stroke-linejoin: round" d="M82.36,39.22L0.56,140.86" class="snQTJEsa_108"></path>
            <path style="fill: none;stroke: #d2d6dc;stroke-linecap: round;stroke-linejoin: round" d="M82.21,32.76L0.54,136.22" class="snQTJEsa_109"></path>
            <path style="fill: none;stroke: #d2d6db;stroke-linecap: round;stroke-linejoin: round" d="M82.06,26.31L0.52,131.58" class="snQTJEsa_110"></path>
            <path style="fill: none;stroke: #d1d5db;stroke-linecap: round;stroke-linejoin: round" d="M81.92,19.86L0.5,126.94" class="snQTJEsa_111"></path>
          </g>
        </g>
        <g id="reflection" style="opacity: 0.30000000000000004">
          <path d="M106.42,313.25,276.1,71.91l-.1,0a520,520,0,0,1-59.87-15.35,490.84,490.84,0,0,1-56.87-22.22l-1.94-.92L100.9,126.52Z" style="fill: #fff;opacity: 0.55" class="snQTJEsa_112"></path>
          <path d="M310.49,77.42q-12.7-1.62-25.25-3.83l-176.69,253,21.9-.13Z" style="fill: #fff;opacity: 0.55" class="snQTJEsa_113"></path>
        </g>
        <g id="Text">
          <g>
            <text transform="translate(172.06 241.05)" style="font-size: 15px;fill: #373e5a;font-family: Lato-Regular, Lato">D<tspan x="11.41" y="0" style="letter-spacing: -0.006966145833333334em">D</tspan><tspan x="22.71" y="0" style="letter-spacing: -0.014973958333333334em">o</tspan><tspan x="30.99" y="0" style="letter-spacing: -0.00006510416666666667em">S </tspan><tspan x="42.97" y="0" style="letter-spacing: -0.0095703125em">P</tspan><tspan x="51.83" y="0" style="letter-spacing: -0.020442708333333334em">r</tspan><tspan x="56.99" y="0" style="letter-spacing: -0.011002604166666667em">e</tspan><tspan x="64.74" y="0" style="letter-spacing: -0.013997395833333334em">v</tspan><tspan x="72.27" y="0">e</tspan><tspan x="80.19" y="0" style="letter-spacing: -0.00703125em">n</tspan><tspan x="88.46" y="0">tion</tspan></text>
            <text transform="translate(172.06 214.05)" style="font-size: 15px;fill: #373e5a;font-family: Lato-Regular, Lato"><tspan style="letter-spacing: -0.0240234375em">Z</tspan><tspan x="8.67" y="0">e</tspan><tspan x="16.59" y="0" style="letter-spacing: -0.0205078125em">r</tspan><tspan x="21.74" y="0">o </tspan><tspan x="34.09" y="0" style="letter-spacing: -0.012955729166666667em">D</tspan><tspan x="45.3" y="0" style="letter-spacing: -0.011979166666666667em">a</tspan><tspan x="52.58" y="0" style="letter-spacing: -0.024479166666666666em">y</tspan><tspan x="59.94" y="0"> </tspan><tspan x="63.78" y="0" style="letter-spacing: -0.0150390625em">U</tspan><tspan x="74.59" y="0">pd</tspan><tspan x="91.39" y="0" style="letter-spacing: -0.006510416666666667em">a</tspan><tspan x="98.75" y="0" style="letter-spacing: -0.0024739583333333332em">t</tspan><tspan x="104.09" y="0" style="letter-spacing: 0.00006510416666666667em">es</tspan></text>
            <text transform="translate(172.06 187.05)" style="font-size: 15px;fill: #373e5a;font-family: Lato-Regular, Lato"><tspan style="letter-spacing: -0.0099609375em">B</tspan><tspan x="9.55" y="0">lock</tspan><tspan x="36.38" y="0" style="letter-spacing: -0.033528645833333336em"> </tspan><tspan x="39.71" y="0" style="letter-spacing: -0.030013020833333334em">A</tspan><tspan x="49.42" y="0">ttacks &amp; </tspan><tspan x="106.75" y="0" style="letter-spacing: -0.014973958333333334em">H</tspan><tspan x="117.98" y="0">acks</tspan></text>
            <text transform="translate(172.06 161.05)" style="font-size: 15px;fill: #373e5a;font-family: Lato-Regular, Lato"><tspan style="letter-spacing: -0.022526041666666666em">S</tspan><tspan x="7.8" y="0" style="letter-spacing: -0.0024739583333333332em">t</tspan><tspan x="13.14" y="0">op </tspan><tspan x="33.89" y="0" style="letter-spacing: -0.0150390625em">M</tspan><tspan x="47.59" y="0">al</tspan><tspan x="58.59" y="0" style="letter-spacing: -0.005989583333333334em">w</tspan><tspan x="70.28" y="0" style="letter-spacing: -0.00006510416666666667em">a</tspan><tspan x="77.74" y="0" style="letter-spacing: -0.020442708333333334em">r</tspan><tspan x="82.89" y="0">e</tspan></text>
          </g>
          <path id="bullet" style="fill: #373e5a" d="M160.92,155.24A1.52,1.52 0,1,1 163.96,155.24A1.52,1.52 0,1,1 160.92,155.24" class="snQTJEsa_114"></path>
          <path id="bullet-2" data-name="bullet" style="fill: #373e5a" d="M160.92,181.24A1.52,1.52 0,1,1 163.96,181.24A1.52,1.52 0,1,1 160.92,181.24" class="snQTJEsa_115"></path>
          <path id="bullet-3" data-name="bullet" style="fill: #373e5a" d="M160.92,209.24A1.52,1.52 0,1,1 163.96,209.24A1.52,1.52 0,1,1 160.92,209.24" class="snQTJEsa_116"></path>
          <path id="bullet-4" data-name="bullet" style="fill: #373e5a" d="M160.92,235.24A1.52,1.52 0,1,1 163.96,235.24A1.52,1.52 0,1,1 160.92,235.24" class="snQTJEsa_117"></path>
          <text transform="translate(160.41 126.58)" style="font-size: 20px;font-family: Montserrat-MediumItalic, Montserrat MediumItalic;font-style: italic;letter-spacing: 0.034033203125em">P<tspan x="11.32" y="0" style="letter-spacing: 0.039990234375em">r</tspan><tspan x="18.66" y="0" style="letter-spacing: 0.05em">o</tspan><tspan x="30.64" y="0" style="letter-spacing: 0.043994140625em">t</tspan><tspan x="38.14" y="0" style="letter-spacing: 0.050048828125em">e</tspan><tspan x="49.16" y="0" style="letter-spacing: 0.06298828125em">c</tspan><tspan x="59.38" y="0" style="letter-spacing: 0.049951171875em">t</tspan></text>
        </g>
      </g>
    </g>
  </g>
<style>.snQTJEsa_0{stroke-dasharray:61 63;stroke-dashoffset:62;animation:snQTJEsa_draw 3000ms ease-out 0ms forwards;}.snQTJEsa_1{stroke-dasharray:535 537;stroke-dashoffset:536;animation:snQTJEsa_draw 3000ms ease-out 0ms forwards;}.snQTJEsa_2{stroke-dasharray:48 50;stroke-dashoffset:49;animation:snQTJEsa_draw 3000ms ease-out 0ms forwards;}.snQTJEsa_3{stroke-dasharray:109 111;stroke-dashoffset:110;animation:snQTJEsa_draw 3000ms ease-out 0ms forwards;}.snQTJEsa_4{stroke-dasharray:387 389;stroke-dashoffset:388;animation:snQTJEsa_draw 3000ms ease-out 0ms forwards;}.snQTJEsa_5{stroke-dasharray:60 62;stroke-dashoffset:61;animation:snQTJEsa_draw 3000ms ease-out 0ms forwards;}.snQTJEsa_6{stroke-dasharray:48 50;stroke-dashoffset:49;animation:snQTJEsa_draw 3000ms ease-out 0ms forwards;}.snQTJEsa_7{stroke-dasharray:115 117;stroke-dashoffset:116;animation:snQTJEsa_draw 3000ms ease-out 0ms forwards;}.snQTJEsa_8{stroke-dasharray:61 63;stroke-dashoffset:62;animation:snQTJEsa_draw 3000ms ease-out 0ms forwards;}.snQTJEsa_9{stroke-dasharray:21 23;stroke-dashoffset:22;animation:snQTJEsa_draw 3000ms ease-out 0ms forwards;}.snQTJEsa_10{stroke-dasharray:21 23;stroke-dashoffset:22;animation:snQTJEsa_draw 3000ms ease-out 0ms forwards;}.snQTJEsa_11{stroke-dasharray:61 63;stroke-dashoffset:62;animation:snQTJEsa_draw 3000ms ease-out 0ms forwards;}.snQTJEsa_12{stroke-dasharray:535 537;stroke-dashoffset:536;animation:snQTJEsa_draw 3000ms ease-out 0ms forwards;}.snQTJEsa_13{stroke-dasharray:22 24;stroke-dashoffset:23;animation:snQTJEsa_draw 3000ms ease-out 0ms forwards;}.snQTJEsa_14{stroke-dasharray:22 24;stroke-dashoffset:23;animation:snQTJEsa_draw 3000ms ease-out 0ms forwards;}.snQTJEsa_15{stroke-dasharray:535 537;stroke-dashoffset:536;animation:snQTJEsa_draw 3000ms ease-out 0ms forwards;}.snQTJEsa_16{stroke-dasharray:48 50;stroke-dashoffset:49;animation:snQTJEsa_draw 3000ms ease-out 0ms forwards;}.snQTJEsa_17{stroke-dasharray:109 111;stroke-dashoffset:110;animation:snQTJEsa_draw 3000ms ease-out 0ms forwards;}.snQTJEsa_18{stroke-dasharray:23 25;stroke-dashoffset:24;animation:snQTJEsa_draw 3000ms ease-out 0ms forwards;}.snQTJEsa_19{stroke-dasharray:23 25;stroke-dashoffset:24;animation:snQTJEsa_draw 3000ms ease-out 0ms forwards;}.snQTJEsa_20{stroke-dasharray:109 111;stroke-dashoffset:110;animation:snQTJEsa_draw 3000ms ease-out 0ms forwards;}.snQTJEsa_21{stroke-dasharray:387 389;stroke-dashoffset:388;animation:snQTJEsa_draw 3000ms ease-out 0ms forwards;}.snQTJEsa_22{stroke-dasharray:60 62;stroke-dashoffset:61;animation:snQTJEsa_draw 3000ms ease-out 0ms forwards;}.snQTJEsa_23{stroke-dasharray:48 50;stroke-dashoffset:49;animation:snQTJEsa_draw 3000ms ease-out 0ms forwards;}.snQTJEsa_24{stroke-dasharray:115 117;stroke-dashoffset:116;animation:snQTJEsa_draw 3000ms ease-out 0ms forwards;}.snQTJEsa_25{stroke-dasharray:22 24;stroke-dashoffset:23;animation:snQTJEsa_draw 3000ms ease-out 0ms forwards;}.snQTJEsa_26{stroke-dasharray:22 24;stroke-dashoffset:23;animation:snQTJEsa_draw 3000ms ease-out 0ms forwards;}.snQTJEsa_27{stroke-dasharray:115 117;stroke-dashoffset:116;animation:snQTJEsa_draw 3000ms ease-out 0ms forwards;}.snQTJEsa_28{stroke-dasharray:61 63;stroke-dashoffset:62;animation:snQTJEsa_draw 3000ms ease-out 0ms forwards;}.snQTJEsa_29{stroke-dasharray:21 23;stroke-dashoffset:22;animation:snQTJEsa_draw 3000ms ease-out 0ms forwards;}.snQTJEsa_30{stroke-dasharray:21 23;stroke-dashoffset:22;animation:snQTJEsa_draw 3000ms ease-out 0ms forwards;}.snQTJEsa_31{stroke-dasharray:61 63;stroke-dashoffset:62;animation:snQTJEsa_draw 3000ms ease-out 0ms forwards;}.snQTJEsa_32{stroke-dasharray:535 537;stroke-dashoffset:536;animation:snQTJEsa_draw 3000ms ease-out 0ms forwards;}.snQTJEsa_33{stroke-dasharray:22 24;stroke-dashoffset:23;animation:snQTJEsa_draw 3000ms ease-out 0ms forwards;}.snQTJEsa_34{stroke-dasharray:22 24;stroke-dashoffset:23;animation:snQTJEsa_draw 3000ms ease-out 0ms forwards;}.snQTJEsa_35{stroke-dasharray:535 537;stroke-dashoffset:536;animation:snQTJEsa_draw 3000ms ease-out 0ms forwards;}.snQTJEsa_36{stroke-dasharray:48 50;stroke-dashoffset:49;animation:snQTJEsa_draw 3000ms ease-out 0ms forwards;}.snQTJEsa_37{stroke-dasharray:109 111;stroke-dashoffset:110;animation:snQTJEsa_draw 3000ms ease-out 0ms forwards;}.snQTJEsa_38{stroke-dasharray:23 25;stroke-dashoffset:24;animation:snQTJEsa_draw 3000ms ease-out 0ms forwards;}.snQTJEsa_39{stroke-dasharray:23 25;stroke-dashoffset:24;animation:snQTJEsa_draw 3000ms ease-out 0ms forwards;}.snQTJEsa_40{stroke-dasharray:109 111;stroke-dashoffset:110;animation:snQTJEsa_draw 3000ms ease-out 0ms forwards;}.snQTJEsa_41{stroke-dasharray:387 389;stroke-dashoffset:388;animation:snQTJEsa_draw 3000ms ease-out 0ms forwards;}.snQTJEsa_42{stroke-dasharray:60 62;stroke-dashoffset:61;animation:snQTJEsa_draw 3000ms ease-out 0ms forwards;}.snQTJEsa_43{stroke-dasharray:48 50;stroke-dashoffset:49;animation:snQTJEsa_draw 3000ms ease-out 0ms forwards;}.snQTJEsa_44{stroke-dasharray:115 117;stroke-dashoffset:116;animation:snQTJEsa_draw 3000ms ease-out 0ms forwards;}.snQTJEsa_45{stroke-dasharray:22 24;stroke-dashoffset:23;animation:snQTJEsa_draw 3000ms ease-out 0ms forwards;}.snQTJEsa_46{stroke-dasharray:22 24;stroke-dashoffset:23;animation:snQTJEsa_draw 3000ms ease-out 0ms forwards;}.snQTJEsa_47{stroke-dasharray:115 117;stroke-dashoffset:116;animation:snQTJEsa_draw 3000ms ease-out 0ms forwards;}.snQTJEsa_48{stroke-dasharray:550 552;stroke-dashoffset:551;animation:snQTJEsa_draw 3000ms ease-out 0ms forwards;}.snQTJEsa_49{stroke-dasharray:685 687;stroke-dashoffset:686;animation:snQTJEsa_draw 3000ms ease-out 0ms forwards;}.snQTJEsa_50{stroke-dasharray:1087 1089;stroke-dashoffset:1088;animation:snQTJEsa_draw 3000ms ease-out 0ms forwards;}.snQTJEsa_51{stroke-dasharray:1088 1090;stroke-dashoffset:1089;animation:snQTJEsa_draw 3000ms ease-out 0ms forwards;}.snQTJEsa_52{stroke-dasharray:160 162;stroke-dashoffset:161;animation:snQTJEsa_draw 3000ms ease-out 0ms forwards;}.snQTJEsa_53{stroke-dasharray:152 154;stroke-dashoffset:153;animation:snQTJEsa_draw 3000ms ease-out 0ms forwards;}.snQTJEsa_54{stroke-dasharray:145 147;stroke-dashoffset:146;animation:snQTJEsa_draw 3000ms ease-out 0ms forwards;}.snQTJEsa_55{stroke-dasharray:137 139;stroke-dashoffset:138;animation:snQTJEsa_draw 3000ms ease-out 0ms forwards;}.snQTJEsa_56{stroke-dasharray:129 131;stroke-dashoffset:130;animation:snQTJEsa_draw 3000ms ease-out 0ms forwards;}.snQTJEsa_57{stroke-dasharray:121 123;stroke-dashoffset:122;animation:snQTJEsa_draw 3000ms ease-out 0ms forwards;}.snQTJEsa_58{stroke-dasharray:114 116;stroke-dashoffset:115;animation:snQTJEsa_draw 3000ms ease-out 0ms forwards;}.snQTJEsa_59{stroke-dasharray:106 108;stroke-dashoffset:107;animation:snQTJEsa_draw 3000ms ease-out 0ms forwards;}.snQTJEsa_60{stroke-dasharray:99 101;stroke-dashoffset:100;animation:snQTJEsa_draw 3000ms ease-out 0ms forwards;}.snQTJEsa_61{stroke-dasharray:91 93;stroke-dashoffset:92;animation:snQTJEsa_draw 3000ms ease-out 0ms forwards;}.snQTJEsa_62{stroke-dasharray:90 92;stroke-dashoffset:91;animation:snQTJEsa_draw 3000ms ease-out 0ms forwards;}.snQTJEsa_63{stroke-dasharray:90 92;stroke-dashoffset:91;animation:snQTJEsa_draw 3000ms ease-out 0ms forwards;}.snQTJEsa_64{stroke-dasharray:91 93;stroke-dashoffset:92;animation:snQTJEsa_draw 3000ms ease-out 0ms forwards;}.snQTJEsa_65{stroke-dasharray:91 93;stroke-dashoffset:92;animation:snQTJEsa_draw 3000ms ease-out 0ms forwards;}.snQTJEsa_66{stroke-dasharray:91 93;stroke-dashoffset:92;animation:snQTJEsa_draw 3000ms ease-out 0ms forwards;}.snQTJEsa_67{stroke-dasharray:92 94;stroke-dashoffset:93;animation:snQTJEsa_draw 3000ms ease-out 0ms forwards;}.snQTJEsa_68{stroke-dasharray:92 94;stroke-dashoffset:93;animation:snQTJEsa_draw 3000ms ease-out 0ms forwards;}.snQTJEsa_69{stroke-dasharray:93 95;stroke-dashoffset:94;animation:snQTJEsa_draw 3000ms ease-out 0ms forwards;}.snQTJEsa_70{stroke-dasharray:93 95;stroke-dashoffset:94;animation:snQTJEsa_draw 3000ms ease-out 0ms forwards;}.snQTJEsa_71{stroke-dasharray:94 96;stroke-dashoffset:95;animation:snQTJEsa_draw 3000ms ease-out 0ms forwards;}.snQTJEsa_72{stroke-dasharray:94 96;stroke-dashoffset:95;animation:snQTJEsa_draw 3000ms ease-out 0ms forwards;}.snQTJEsa_73{stroke-dasharray:95 97;stroke-dashoffset:96;animation:snQTJEsa_draw 3000ms ease-out 0ms forwards;}.snQTJEsa_74{stroke-dasharray:96 98;stroke-dashoffset:97;animation:snQTJEsa_draw 3000ms ease-out 0ms forwards;}.snQTJEsa_75{stroke-dasharray:96 98;stroke-dashoffset:97;animation:snQTJEsa_draw 3000ms ease-out 0ms forwards;}.snQTJEsa_76{stroke-dasharray:97 99;stroke-dashoffset:98;animation:snQTJEsa_draw 3000ms ease-out 0ms forwards;}.snQTJEsa_77{stroke-dasharray:98 100;stroke-dashoffset:99;animation:snQTJEsa_draw 3000ms ease-out 0ms forwards;}.snQTJEsa_78{stroke-dasharray:98 100;stroke-dashoffset:99;animation:snQTJEsa_draw 3000ms ease-out 0ms forwards;}.snQTJEsa_79{stroke-dasharray:99 101;stroke-dashoffset:100;animation:snQTJEsa_draw 3000ms ease-out 0ms forwards;}.snQTJEsa_80{stroke-dasharray:100 102;stroke-dashoffset:101;animation:snQTJEsa_draw 3000ms ease-out 0ms forwards;}.snQTJEsa_81{stroke-dasharray:101 103;stroke-dashoffset:102;animation:snQTJEsa_draw 3000ms ease-out 0ms forwards;}.snQTJEsa_82{stroke-dasharray:102 104;stroke-dashoffset:103;animation:snQTJEsa_draw 3000ms ease-out 0ms forwards;}.snQTJEsa_83{stroke-dasharray:102 104;stroke-dashoffset:103;animation:snQTJEsa_draw 3000ms ease-out 0ms forwards;}.snQTJEsa_84{stroke-dasharray:103 105;stroke-dashoffset:104;animation:snQTJEsa_draw 3000ms ease-out 0ms forwards;}.snQTJEsa_85{stroke-dasharray:104 106;stroke-dashoffset:105;animation:snQTJEsa_draw 3000ms ease-out 0ms forwards;}.snQTJEsa_86{stroke-dasharray:105 107;stroke-dashoffset:106;animation:snQTJEsa_draw 3000ms ease-out 0ms forwards;}.snQTJEsa_87{stroke-dasharray:106 108;stroke-dashoffset:107;animation:snQTJEsa_draw 3000ms ease-out 0ms forwards;}.snQTJEsa_88{stroke-dasharray:107 109;stroke-dashoffset:108;animation:snQTJEsa_draw 3000ms ease-out 0ms forwards;}.snQTJEsa_89{stroke-dasharray:108 110;stroke-dashoffset:109;animation:snQTJEsa_draw 3000ms ease-out 0ms forwards;}.snQTJEsa_90{stroke-dasharray:109 111;stroke-dashoffset:110;animation:snQTJEsa_draw 3000ms ease-out 0ms forwards;}.snQTJEsa_91{stroke-dasharray:110 112;stroke-dashoffset:111;animation:snQTJEsa_draw 3000ms ease-out 0ms forwards;}.snQTJEsa_92{stroke-dasharray:111 113;stroke-dashoffset:112;animation:snQTJEsa_draw 3000ms ease-out 0ms forwards;}.snQTJEsa_93{stroke-dasharray:113 115;stroke-dashoffset:114;animation:snQTJEsa_draw 3000ms ease-out 0ms forwards;}.snQTJEsa_94{stroke-dasharray:114 116;stroke-dashoffset:115;animation:snQTJEsa_draw 3000ms ease-out 0ms forwards;}.snQTJEsa_95{stroke-dasharray:115 117;stroke-dashoffset:116;animation:snQTJEsa_draw 3000ms ease-out 0ms forwards;}.snQTJEsa_96{stroke-dasharray:116 118;stroke-dashoffset:117;animation:snQTJEsa_draw 3000ms ease-out 0ms forwards;}.snQTJEsa_97{stroke-dasharray:117 119;stroke-dashoffset:118;animation:snQTJEsa_draw 3000ms ease-out 0ms forwards;}.snQTJEsa_98{stroke-dasharray:118 120;stroke-dashoffset:119;animation:snQTJEsa_draw 3000ms ease-out 0ms forwards;}.snQTJEsa_99{stroke-dasharray:120 122;stroke-dashoffset:121;animation:snQTJEsa_draw 3000ms ease-out 0ms forwards;}.snQTJEsa_100{stroke-dasharray:121 123;stroke-dashoffset:122;animation:snQTJEsa_draw 3000ms ease-out 0ms forwards;}.snQTJEsa_101{stroke-dasharray:122 124;stroke-dashoffset:123;animation:snQTJEsa_draw 3000ms ease-out 0ms forwards;}.snQTJEsa_102{stroke-dasharray:123 125;stroke-dashoffset:124;animation:snQTJEsa_draw 3000ms ease-out 0ms forwards;}.snQTJEsa_103{stroke-dasharray:124 126;stroke-dashoffset:125;animation:snQTJEsa_draw 3000ms ease-out 0ms forwards;}.snQTJEsa_104{stroke-dasharray:126 128;stroke-dashoffset:127;animation:snQTJEsa_draw 3000ms ease-out 0ms forwards;}.snQTJEsa_105{stroke-dasharray:127 129;stroke-dashoffset:128;animation:snQTJEsa_draw 3000ms ease-out 0ms forwards;}.snQTJEsa_106{stroke-dasharray:128 130;stroke-dashoffset:129;animation:snQTJEsa_draw 3000ms ease-out 0ms forwards;}.snQTJEsa_107{stroke-dasharray:130 132;stroke-dashoffset:131;animation:snQTJEsa_draw 3000ms ease-out 0ms forwards;}.snQTJEsa_108{stroke-dasharray:131 133;stroke-dashoffset:132;animation:snQTJEsa_draw 3000ms ease-out 0ms forwards;}.snQTJEsa_109{stroke-dasharray:132 134;stroke-dashoffset:133;animation:snQTJEsa_draw 3000ms ease-out 0ms forwards;}.snQTJEsa_110{stroke-dasharray:134 136;stroke-dashoffset:135;animation:snQTJEsa_draw 3000ms ease-out 0ms forwards;}.snQTJEsa_111{stroke-dasharray:135 137;stroke-dashoffset:136;animation:snQTJEsa_draw 3000ms ease-out 0ms forwards;}.snQTJEsa_112{stroke-dasharray:716 718;stroke-dashoffset:717;animation:snQTJEsa_draw 3000ms ease-out 0ms forwards;}.snQTJEsa_113{stroke-dasharray:664 666;stroke-dashoffset:665;animation:snQTJEsa_draw 3000ms ease-out 0ms forwards;}.snQTJEsa_114{stroke-dasharray:10 12;stroke-dashoffset:11;animation:snQTJEsa_draw 3000ms ease-out 0ms forwards;}.snQTJEsa_115{stroke-dasharray:10 12;stroke-dashoffset:11;animation:snQTJEsa_draw 3000ms ease-out 0ms forwards;}.snQTJEsa_116{stroke-dasharray:10 12;stroke-dashoffset:11;animation:snQTJEsa_draw 3000ms ease-out 0ms forwards;}.snQTJEsa_117{stroke-dasharray:10 12;stroke-dashoffset:11;animation:snQTJEsa_draw 3000ms ease-out 0ms forwards;}@keyframes snQTJEsa_draw{100%{stroke-dashoffset:0;}}@keyframes snQTJEsa_fade{0%{stroke-opacity:1;}94.44444444444444%{stroke-opacity:1;}100%{stroke-opacity:0;}}</style></svg>
