<svg width="50" height="50" viewBox="0 0 50 50"><path id="icon-rpm" class="medium-blue" d="M37.68,22.47A.5.5,0,0,0,37,22.4L26.14,30.58a2.92,2.92,0,0,0-3.6,2.54l-2.17,1.61a.5.5,0,0,0,.3.9h0L23,35.58l-.32,2.29a.5.5,0,0,0,.28.52.49.49,0,0,0,.21,0,.5.5,0,0,0,.37-.16l1.68-1.8.11,0h.17a3,3,0,0,0,3-2.83,3,3,0,0,0-.07-.77l9.25-9.75A.5.5,0,0,0,37.68,22.47ZM22.62,34.3c0,.09.05.19.09.28h-.48Zm1.25,2.14.06-.4.2.13Zm2.39-1.09h0a2.07,2.07,0,0,1-.4.12h0a2,2,0,0,1-2.34-2.09,2,2,0,0,1,.09-.47l0-.11a2,2,0,0,1,.18-.36l0,0a2,2,0,0,1,.74-.66h0l.07,0a2.11,2.11,0,0,1,.39-.14h0a1.88,1.88,0,0,1,.44-.05h.11a2,2,0,0,1,.37.06,2.08,2.08,0,0,1,.34.12,2,2,0,0,1,1,1h0a2.11,2.11,0,0,1,.15.43v.05a1.88,1.88,0,0,1,0,.49,2.09,2.09,0,0,1,0,.32h0A2,2,0,0,1,26.27,35.35ZM28,31.88a3,3,0,0,0-.82-.84l5.65-4.25ZM9,32a1,1,0,1,1-1-1A1,1,0,0,1,9,32Zm1-7a1,1,0,1,1-1-1A1,1,0,0,1,10,25Zm4-7a1,1,0,1,1-1-1A1,1,0,0,1,14,18Zm7-4a1,1,0,1,1-1-1A1,1,0,0,1,21,14ZM42,31a1,1,0,1,1-1,1A1,1,0,0,1,42,31Zm-1-7a1,1,0,1,1-1,1A1,1,0,0,1,41,24Zm-4-7a1,1,0,1,1-1,1A1,1,0,0,1,37,17Zm-7-4a1,1,0,1,1-1,1A1,1,0,0,1,30,13Zm11.18.76A22.52,22.52,0,0,0,25,7.48,22.65,22.65,0,0,0,3.5,38.69.5.5,0,0,0,4,39h8.13a14.66,14.66,0,0,0,12.4,6.89h1A14.65,14.65,0,0,0,37.91,39H46a.5.5,0,0,0,.46-.31,22.65,22.65,0,0,0-5.32-24.93ZM45.7,38H38.23a.48.48,0,0,0-.19-.21.5.5,0,0,0-.68.19,13.65,13.65,0,0,1-11.85,6.91h-1A13.67,13.67,0,0,1,12.7,38.08.5.5,0,0,0,12,37.9a.49.49,0,0,0-.12.1H4.3A21.64,21.64,0,0,1,25,8.49,21.65,21.65,0,0,1,45.7,38Z"/>
</svg>
