<svg xmlns="http://www.w3.org/2000/svg" viewBox="0 0 44.92 50"><defs><style>.cls-1,.cls-3{fill:none;stroke:#fff;}.cls-1{stroke-miterlimit:10;}.cls-2{fill:#fff;}.cls-3{stroke-linecap:round;stroke-linejoin:round;}</style></defs><title>icon-white-headset</title><g id="Layer_2" data-name="Layer 2"><g id="_1200" data-name="1200"><g id="Sales_Support" data-name="Sales Support"><g id="sales_icon" data-name="sales icon"><path class="cls-1" d="M2.89,32.66V19.31A18.93,18.93,0,0,1,21.83.5h1.32A18.93,18.93,0,0,1,42.09,19.31h0V32.37c0,.18,0,.37,0,.55h0c0,.17,0,.34,0,.51A14.19,14.19,0,0,1,28.41,47"/><path class="cls-2" d="M15.29,30.51c1.43-1.05,2.52-1.91,3.29-2.58a8.49,8.49,0,0,0,1.63-1.85,3.38,3.38,0,0,0,.49-1.75,2,2,0,0,0-.59-1.48,2.22,2.22,0,0,0-1.6-.57,2.2,2.2,0,0,0-1.69.69,2.92,2.92,0,0,0-.76,1.84L15,24.16A3.51,3.51,0,0,1,16.1,22a3.57,3.57,0,0,1,2.46-.83,3.93,3.93,0,0,1,1.82.4,2.84,2.84,0,0,1,1.21,1.14A3.26,3.26,0,0,1,22,24.33a4.18,4.18,0,0,1-.47,1.91A7.67,7.67,0,0,1,20,28.17a23.07,23.07,0,0,1-2.91,2.22h0c.69,0,1.21,0,1.55,0h3.61v1.17H15.29Z"/><path class="cls-2" d="M30.84,28.83H29v2.69H27.76V28.83h-5v-.91l4.71-6.65H29v6.49h1.83Zm-6.78-1.07h3.7V23.93l.07-1.65h0a12.71,12.71,0,0,1-1,1.71Z"/><path class="cls-3" d="M42.18,31.23a4.49,4.49,0,0,0-.1-7.83"/><path class="cls-1" d="M35.45,26.19v5.68a1.7,1.7,0,0,0,1.44,1.59l3.69.55A1.18,1.18,0,0,0,42,32.86V32.4"/><path class="cls-1" d="M42,21.77a1.19,1.19,0,0,0-1.44-1.16l-3.69.55a1.71,1.71,0,0,0-1.44,1.59v4.84"/><path class="cls-3" d="M2.75,31.23a4.49,4.49,0,0,1,.09-7.83"/><path class="cls-1" d="M9.48,26.19v5.68A1.7,1.7,0,0,1,8,33.46L4.35,34A1.18,1.18,0,0,1,2.9,32.86V32.4"/><path class="cls-1" d="M2.9,21.77a1.19,1.19,0,0,1,1.45-1.16L8,21.16a1.71,1.71,0,0,1,1.45,1.59v4.84"/><path class="cls-2" d="M26,50a3,3,0,1,1,3-3A3,3,0,0,1,26,50Zm0-5a2,2,0,1,0,2,2A2,2,0,0,0,26,45Z"/></g></g></g></g></svg>