<svg id="icon-shield-small" xmlns="http://www.w3.org/2000/svg" viewBox="0 0 50 50"><path d="M43.86,5.25C37.11,5.45,32.11,4,25.78,1.34a2.5,2.5,0,0,0-.84-.2.64.64,0,0,0-.3.11,2.48,2.48,0,0,0-.67.18C17.64,4.05,12.65,5.53,5.85,5.34A1.73,1.73,0,0,0,4.24,7.06v14c0,13.84,6.15,22.42,20,27.83a1.9,1.9,0,0,0,.63.11.45.45,0,0,0,.28-.1,1.52,1.52,0,0,0,.47-.1c13.79-5.4,19.94-14,19.94-27.83V7A1.75,1.75,0,0,0,43.86,5.25ZM44.51,21c0,13.37-5.95,21.67-19.31,26.9a.76.76,0,0,1-.27,0,.6.6,0,0,0-.23.06.8.8,0,0,1-.15,0C11.19,42.74,5.24,34.45,5.24,21.08v-14a.72.72,0,0,1,.63-.72c6.94.2,12-1.31,18.48-4a1.33,1.33,0,0,1,.5-.12.65.65,0,0,0,.21-.06,1.62,1.62,0,0,1,.34.1C31.86,5,37,6.45,43.83,6.25a.73.73,0,0,1,.68.73ZM41.7,15.41v2a.5.5,0,0,1-.5.5h0a.5.5,0,0,1-.5-.5v-2a.5.5,0,0,1,.5-.5h0A.5.5,0,0,1,41.7,15.41Zm0,5v1.36c0,11.26-5,18.25-16.23,22.64a2,2,0,0,1-.35.07.48.48,0,0,1-.29.1,1.45,1.45,0,0,1-.55-.1C13.06,40.08,8.05,33.1,8.05,21.83V10.48A1.5,1.5,0,0,1,9.45,9C15,9.15,19,8,24.1,5.82a2.19,2.19,0,0,1,.53-.14.49.49,0,0,1,.3-.1,2.21,2.21,0,0,1,.72.17c5.12,2.13,9.14,3.33,14.61,3.17a.49.49,0,0,1,.51.48.5.5,0,0,1-.48.52h-1c-5.11,0-9-1.19-13.91-3.21V8.51a.5.5,0,0,1-.5.5.5.5,0,0,1-.5-.5V6.79C19.18,8.94,15.05,10.15,9.47,10a.51.51,0,0,0-.42.5V21.83c0,10.71,4.74,17.38,15.33,21.6V41.64a.5.5,0,0,1,.5-.5.51.51,0,0,1,.5.5v1.73C36,39.14,40.7,32.47,40.7,21.77V20.41a.5.5,0,0,1,.5-.5h0A.5.5,0,0,1,41.7,20.41Zm0-10v2a.5.5,0,0,1-.5.5h0a.5.5,0,0,1-.5-.5v-2a.5.5,0,0,1,.5-.5A.5.5,0,0,1,41.7,10.41Zm-16.82,2a.5.5,0,0,1-.5-.5v-.41a.5.5,0,0,1,.5-.5.51.51,0,0,1,.5.5v.41A.51.51,0,0,1,24.88,12.42Zm0,25a.5.5,0,0,1,.5.5v.71a.5.5,0,0,1-.5.5.5.5,0,0,1-.5-.5v-.71A.5.5,0,0,1,24.88,37.43Zm0-5h0a.9.9,0,0,1-.89-.9V24.28a3.29,3.29,0,1,1,1.79,0v7.23A.9.9,0,0,1,24.92,32.41Z"/></svg>