<svg xmlns="http://www.w3.org/2000/svg" xmlns:xlink="http://www.w3.org/1999/xlink" width="296.6" height="153.87" viewBox="0 0 296.6 153.87">
  <defs>
    <clipPath id="clip-path">
      <path d="M218.11,68.41l-25.34,7.4a1.07,1.07,0,0,1,.32,0l25.34-7.4A1.07,1.07,0,0,0,218.11,68.41Z" style="fill: #fff;stroke: #373e5a;stroke-linecap: round;stroke-linejoin: round"/>
    </clipPath>
    <clipPath id="clip-path-2">
      <path d="M259,144.28l25.34-7.4a1.12,1.12,0,0,0,.79-1.07l-25.34,7.4A1.12,1.12,0,0,1,259,144.28Z" style="fill: #fff;stroke: #373e5a;stroke-linecap: round;stroke-linejoin: round"/>
    </clipPath>
    <clipPath id="clip-path-3">
      <path d="M259.86,78.08l25.34-7.4a1.15,1.15,0,0,0-1.11-1.16l-25.34,7.4A1.15,1.15,0,0,1,259.86,78.08Z" style="fill: #fff;stroke: #373e5a;stroke-linecap: round;stroke-linejoin: round"/>
    </clipPath>
  </defs>
  <title>icon-managed-providers</title>
  <g id="Layer_2" data-name="Layer 2">
    <g id="_1200" data-name="1200">
      <g id="Who_Benefits" data-name="Who Benefits">
        <g id="reseller-managed-service-providers-icon">
          <g>
            <polyline points="115.88 122.16 182.7 122.16 173.21 116.76 123.91 116.87 115.88 122.16" style="fill: none;stroke: #4e5a60;stroke-linecap: round;stroke-linejoin: round"/>
            <g>
              <line x1="100.36" y1="106.52" x2="104.95" y2="106.52" style="fill: none;stroke: #4e5a60;stroke-linecap: round;stroke-linejoin: round"/>
              <line x1="101.22" y1="103.88" x2="105.81" y2="103.88" style="fill: none;stroke: #4e5a60;stroke-linecap: round;stroke-linejoin: round"/>
              <line x1="98.65" y1="109.16" x2="103.24" y2="109.16" style="fill: none;stroke: #4e5a60;stroke-linecap: round;stroke-linejoin: round"/>
              <line x1="106.97" y1="106.52" x2="111.56" y2="106.52" style="fill: none;stroke: #4e5a60;stroke-linecap: round;stroke-linejoin: round"/>
              <line x1="107.83" y1="103.88" x2="112.42" y2="103.88" style="fill: none;stroke: #4e5a60;stroke-linecap: round;stroke-linejoin: round"/>
              <line x1="105.25" y1="109.16" x2="109.84" y2="109.16" style="fill: none;stroke: #4e5a60;stroke-linecap: round;stroke-linejoin: round"/>
              <line x1="113.58" y1="106.52" x2="118.17" y2="106.52" style="fill: none;stroke: #4e5a60;stroke-linecap: round;stroke-linejoin: round"/>
              <line x1="114.44" y1="103.88" x2="119.03" y2="103.88" style="fill: none;stroke: #4e5a60;stroke-linecap: round;stroke-linejoin: round"/>
              <line x1="111.86" y1="109.16" x2="116.45" y2="109.16" style="fill: none;stroke: #4e5a60;stroke-linecap: round;stroke-linejoin: round"/>
              <line x1="120.19" y1="106.52" x2="124.78" y2="106.52" style="fill: none;stroke: #4e5a60;stroke-linecap: round;stroke-linejoin: round"/>
              <line x1="121.05" y1="103.88" x2="125.64" y2="103.88" style="fill: none;stroke: #4e5a60;stroke-linecap: round;stroke-linejoin: round"/>
              <line x1="118.47" y1="109.16" x2="123.06" y2="109.16" style="fill: none;stroke: #4e5a60;stroke-linecap: round;stroke-linejoin: round"/>
            </g>
            <g>
              <line x1="199.25" y1="106.52" x2="194.66" y2="106.52" style="fill: none;stroke: #4e5a60;stroke-linecap: round;stroke-linejoin: round"/>
              <line x1="198.39" y1="103.88" x2="193.8" y2="103.88" style="fill: none;stroke: #4e5a60;stroke-linecap: round;stroke-linejoin: round"/>
              <line x1="200.96" y1="109.16" x2="196.37" y2="109.16" style="fill: none;stroke: #4e5a60;stroke-linecap: round;stroke-linejoin: round"/>
              <line x1="192.64" y1="106.52" x2="188.05" y2="106.52" style="fill: none;stroke: #4e5a60;stroke-linecap: round;stroke-linejoin: round"/>
              <line x1="191.78" y1="103.88" x2="187.19" y2="103.88" style="fill: none;stroke: #4e5a60;stroke-linecap: round;stroke-linejoin: round"/>
              <line x1="194.36" y1="109.16" x2="189.77" y2="109.16" style="fill: none;stroke: #4e5a60;stroke-linecap: round;stroke-linejoin: round"/>
              <line x1="186.03" y1="106.52" x2="181.44" y2="106.52" style="fill: none;stroke: #4e5a60;stroke-linecap: round;stroke-linejoin: round"/>
              <line x1="185.17" y1="103.88" x2="180.58" y2="103.88" style="fill: none;stroke: #4e5a60;stroke-linecap: round;stroke-linejoin: round"/>
              <line x1="187.75" y1="109.16" x2="183.16" y2="109.16" style="fill: none;stroke: #4e5a60;stroke-linecap: round;stroke-linejoin: round"/>
              <line x1="179.42" y1="106.52" x2="174.83" y2="106.52" style="fill: none;stroke: #4e5a60;stroke-linecap: round;stroke-linejoin: round"/>
              <line x1="178.56" y1="103.88" x2="173.97" y2="103.88" style="fill: none;stroke: #4e5a60;stroke-linecap: round;stroke-linejoin: round"/>
              <line x1="181.14" y1="109.16" x2="176.55" y2="109.16" style="fill: none;stroke: #4e5a60;stroke-linecap: round;stroke-linejoin: round"/>
            </g>
            <g>
              <line x1="171.49" y1="106.52" x2="166.9" y2="106.52" style="fill: none;stroke: #4e5a60;stroke-linecap: round;stroke-linejoin: round"/>
              <line x1="170.63" y1="103.88" x2="166.04" y2="103.88" style="fill: none;stroke: #4e5a60;stroke-linecap: round;stroke-linejoin: round"/>
              <line x1="173.21" y1="109.16" x2="168.62" y2="109.16" style="fill: none;stroke: #4e5a60;stroke-linecap: round;stroke-linejoin: round"/>
              <line x1="164.89" y1="106.52" x2="160.3" y2="106.52" style="fill: none;stroke: #4e5a60;stroke-linecap: round;stroke-linejoin: round"/>
              <line x1="164.03" y1="103.88" x2="159.44" y2="103.88" style="fill: none;stroke: #4e5a60;stroke-linecap: round;stroke-linejoin: round"/>
              <line x1="166.6" y1="109.16" x2="162.01" y2="109.16" style="fill: none;stroke: #4e5a60;stroke-linecap: round;stroke-linejoin: round"/>
              <line x1="158.28" y1="106.52" x2="153.69" y2="106.52" style="fill: none;stroke: #4e5a60;stroke-linecap: round;stroke-linejoin: round"/>
              <line x1="157.42" y1="103.88" x2="152.83" y2="103.88" style="fill: none;stroke: #4e5a60;stroke-linecap: round;stroke-linejoin: round"/>
              <line x1="160" y1="109.16" x2="155.41" y2="109.16" style="fill: none;stroke: #4e5a60;stroke-linecap: round;stroke-linejoin: round"/>
              <line x1="151.67" y1="106.52" x2="147.08" y2="106.52" style="fill: none;stroke: #4e5a60;stroke-linecap: round;stroke-linejoin: round"/>
              <line x1="150.81" y1="103.88" x2="146.22" y2="103.88" style="fill: none;stroke: #4e5a60;stroke-linecap: round;stroke-linejoin: round"/>
              <line x1="153.39" y1="109.16" x2="148.8" y2="109.16" style="fill: none;stroke: #4e5a60;stroke-linecap: round;stroke-linejoin: round"/>
            </g>
            <g>
              <line x1="128.12" y1="106.52" x2="132.71" y2="106.52" style="fill: none;stroke: #4e5a60;stroke-linecap: round;stroke-linejoin: round"/>
              <line x1="128.98" y1="103.88" x2="133.57" y2="103.88" style="fill: none;stroke: #4e5a60;stroke-linecap: round;stroke-linejoin: round"/>
              <line x1="126.4" y1="109.16" x2="157.42" y2="109.16" style="fill: none;stroke: #4e5a60;stroke-linecap: round;stroke-linejoin: round"/>
              <line x1="134.72" y1="106.52" x2="139.31" y2="106.52" style="fill: none;stroke: #4e5a60;stroke-linecap: round;stroke-linejoin: round"/>
              <line x1="135.58" y1="103.88" x2="140.17" y2="103.88" style="fill: none;stroke: #4e5a60;stroke-linecap: round;stroke-linejoin: round"/>
              <line x1="133.01" y1="109.16" x2="137.6" y2="109.16" style="fill: none;stroke: #4e5a60;stroke-linecap: round;stroke-linejoin: round"/>
              <line x1="141.33" y1="106.52" x2="145.92" y2="106.52" style="fill: none;stroke: #4e5a60;stroke-linecap: round;stroke-linejoin: round"/>
              <line x1="142.19" y1="103.88" x2="146.78" y2="103.88" style="fill: none;stroke: #4e5a60;stroke-linecap: round;stroke-linejoin: round"/>
              <line x1="139.61" y1="109.16" x2="144.2" y2="109.16" style="fill: none;stroke: #4e5a60;stroke-linecap: round;stroke-linejoin: round"/>
              <line x1="147.94" y1="106.52" x2="152.53" y2="106.52" style="fill: none;stroke: #4e5a60;stroke-linecap: round;stroke-linejoin: round"/>
              <line x1="148.8" y1="103.88" x2="153.39" y2="103.88" style="fill: none;stroke: #4e5a60;stroke-linecap: round;stroke-linejoin: round"/>
              <line x1="146.22" y1="109.16" x2="150.81" y2="109.16" style="fill: none;stroke: #4e5a60;stroke-linecap: round;stroke-linejoin: round"/>
            </g>
            <polygon points="92.24 112.25 207.66 112.25 198.85 100.79 101.05 100.79 92.24 112.25" style="fill: none;stroke: #4e5a60;stroke-miterlimit: 10"/>
            <path d="M65.22,127.1,88.17,97.94V26.07s-1-6.27,6.27-6.27H204.25c7.29,0,6.27,6.27,6.27,6.27V97.94l22.83,29.16" style="fill: none;stroke: #4e5a60;stroke-miterlimit: 10"/>
            <path d="M150.14,127.1H65.22a9.43,9.43,0,0,0,6.65,6.46H226.71a9.43,9.43,0,0,0,6.65-6.46Z" style="fill: #f7f7f7;stroke: #4e5a60;stroke-miterlimit: 10"/>
            <path d="M142.8,127a3,3,0,0,0,2.14,2.08h8.69a3,3,0,0,0,2.14-2.08Z" style="fill: none;stroke: #4e5a60;stroke-miterlimit: 10"/>
            <rect x="95.28" y="27.53" width="107.73" height="66.13" style="fill: #fff;stroke: #4e5a60;stroke-miterlimit: 10"/>
            <line x1="68.74" y1="132.04" x2="229.8" y2="132.04" style="fill: none;stroke: #4e5a60;stroke-miterlimit: 10"/>
          </g>
          <g>
            <path d="M121.41,107c0,2.21-9.6,4-21.44,4s-21.44-1.79-21.44-4" style="fill: none;stroke: #373e5a;stroke-linecap: round;stroke-linejoin: round"/>
            <path d="M121.41,117.58c0,3.22-9.6,5.83-21.44,5.83s-21.44-2.61-21.44-5.83" style="fill: none;stroke: #373e5a;stroke-linecap: round;stroke-linejoin: round"/>
          </g>
          <g>
            <g>
              <path d="M180.25,76V72.83l-5.49-2.74-1.7-6.6,3.41-5.27L175,55.52l-6.07.55-4.28-4.49.52-6.36-2.59-1.59-5,3.58-6.29-1.78-2.61-5.75h-3L143,45.43l-6.3,1.78-5-3.58-2.59,1.59.52,6.36-4.28,4.49-6.07-.55-1.52,2.71,3.42,5.27-1.7,6.6L114,72.83V76l5.49,2.74,1.7,6.6-3.41,5.27,1.52,2.71,6.07-.55,4.29,4.49-.52,6.36,2.59,1.59,5-3.58,6.3,1.78,2.61,5.75h3l2.61-5.75,6.3-1.78,5,3.58,2.59-1.59-.52-6.36,4.29-4.49,6.07.55,1.52-2.71-3.41-5.27,1.7-6.6Zm-17.57-2c-.53,9.56-8,16.92-16.75,16.43a15.43,15.43,0,0,1-12.45-8l.23-.15a18.36,18.36,0,0,1-.62-5.89c.52-9.34,7.85-16.53,16.37-16.06A15.62,15.62,0,0,1,162.29,69c-.07-.31-.13-.62-.21-.93l.23,1,0,0A18.85,18.85,0,0,1,162.68,74Z" style="fill: #f8f9fa;stroke: #fff;stroke-miterlimit: 10;stroke-width: 9px"/>
              <path d="M180.25,76V72.83l-5.49-2.74-1.7-6.6,3.41-5.27L175,55.52l-6.07.55-4.28-4.49.52-6.36-2.59-1.59-5,3.58-6.29-1.78-2.61-5.75h-3L143,45.43l-6.3,1.78-5-3.58-2.59,1.59.52,6.36-4.28,4.49-6.07-.55-1.52,2.71,3.42,5.27-1.7,6.6L114,72.83V76l5.49,2.74,1.7,6.6-3.41,5.27,1.52,2.71,6.07-.55,4.29,4.49-.52,6.36,2.59,1.59,5-3.58,6.3,1.78,2.61,5.75h3l2.61-5.75,6.3-1.78,5,3.58,2.59-1.59-.52-6.36,4.29-4.49,6.07.55,1.52-2.71-3.41-5.27,1.7-6.6Zm-18.19-6.84h0a18.22,18.22,0,0,1,.62,4.85c-.53,9.56-8,16.92-16.75,16.43a15.43,15.43,0,0,1-12.45-8l.23-.15a18.36,18.36,0,0,1-.62-5.89c.52-9.34,7.85-16.53,16.37-16.06,5.49.3,10.13,3.89,12.61,8.78" style="fill: #fff;stroke: #4e5a60;stroke-linecap: round;stroke-linejoin: round"/>
              <ellipse cx="147.12" cy="74.4" rx="21.12" ry="22.13" style="fill: none;stroke: #4e5a60;stroke-linecap: round;stroke-linejoin: round;stroke-dasharray: 2.012643337249756,3.018965005874634"/>
              <ellipse cx="147.12" cy="74.4" rx="15.77" ry="16.52" style="fill: none;stroke: #4e5a60;stroke-miterlimit: 10"/>
              <path d="M134.59,84.24A17.11,17.11,0,0,1,133,77c0-9.13,7.06-16.52,15.77-16.52a15.48,15.48,0,0,1,12.33,6.23" style="fill: none;stroke: #4e5a60;stroke-miterlimit: 10"/>
            </g>
            <g>
              <path d="M136.63,111l32.3-33.48a2.05,2.05,0,0,1,1.93-.61,11.5,11.5,0,0,0,2.44.26A11.93,11.93,0,0,0,182,73.44a13.11,13.11,0,0,0,3.6-9.1A13.29,13.29,0,0,0,184.47,59a.87.87,0,0,0-.63-.51.83.83,0,0,0-.76.25l-6.89,7.17s-1.28-1.15-1.8-1.68l-1-1a2.71,2.71,0,0,1,0-3.62l5.23-5.49a.94.94,0,0,0,.24-.8.9.9,0,0,0-.49-.66,11.71,11.71,0,0,0-5.12-1.18,11.92,11.92,0,0,0-8.69,3.77,13.11,13.11,0,0,0-3.6,9.11,13.26,13.26,0,0,0,.25,2.56,2.32,2.32,0,0,1-.58,2l-32.3,33.48a6.22,6.22,0,0,0-1.71,4.32h0a6.21,6.21,0,0,0,1.71,4.32,5.64,5.64,0,0,0,8.24,0Z" style="fill: #f8f9fa;stroke: #fff;stroke-linecap: round;stroke-linejoin: round;stroke-width: 7px"/>
              <g>
                <path d="M136.63,111l32.3-33.48a2.05,2.05,0,0,1,1.93-.61,11.5,11.5,0,0,0,2.44.26A11.93,11.93,0,0,0,182,73.44a13.11,13.11,0,0,0,3.6-9.1A13.29,13.29,0,0,0,184.47,59a.87.87,0,0,0-.63-.51.83.83,0,0,0-.76.25l-6.89,7.17s-1.28-1.15-1.8-1.68l-1-1a2.71,2.71,0,0,1,0-3.62l5.23-5.49a.94.94,0,0,0,.24-.8.9.9,0,0,0-.49-.66,11.71,11.71,0,0,0-5.12-1.18,11.92,11.92,0,0,0-8.69,3.77,13.11,13.11,0,0,0-3.6,9.11,13.26,13.26,0,0,0,.25,2.56,2.32,2.32,0,0,1-.58,2l-32.3,33.48a6.22,6.22,0,0,0-1.71,4.32h0a6.21,6.21,0,0,0,1.71,4.32,5.64,5.64,0,0,0,8.24,0Z" style="fill: #fff;stroke: #4e5a60;stroke-linecap: round;stroke-linejoin: round"/>
                <path d="M171.07,68.68a.93.93,0,0,0,0-1.27.83.83,0,0,0-1.21,0l-2.42,2.53a.93.93,0,0,0,0,1.27.83.83,0,0,0,1.21,0Z" style="fill: #f8f9fa;stroke: #4e5a60;stroke-linecap: round;stroke-linejoin: round"/>
                <path d="M169.25,66.78a.93.93,0,0,0,0-1.27.83.83,0,0,0-1.21,0L165.63,68a.93.93,0,0,0,0,1.27.83.83,0,0,0,1.21,0Z" style="fill: #f8f9fa;stroke: #4e5a60;stroke-linecap: round;stroke-linejoin: round"/>
                <path d="M172.88,70.58a.93.93,0,0,0,0-1.27.83.83,0,0,0-1.21,0l-2.42,2.53a.93.93,0,0,0,0,1.27.83.83,0,0,0,1.21,0Z" style="fill: #f8f9fa;stroke: #4e5a60;stroke-linecap: round;stroke-linejoin: round"/>
                <path d="M132.58,105.31l27.48-28.8a2.54,2.54,0,0,1,3.26-.37,2.71,2.71,0,0,0-.36-.47l-.09-.1a2.55,2.55,0,0,0-3.71,0l-27.48,28.8a2.85,2.85,0,0,0,0,3.89l.09.1a2.62,2.62,0,0,0,.45.37A2.86,2.86,0,0,1,132.58,105.31Z" style="fill: #fff;stroke: #4e5a60;stroke-linecap: round;stroke-linejoin: round"/>
                <g>
                  <line x1="175.19" y1="64.88" x2="181.34" y2="71.04" style="fill: #fff"/>
                  <g>
                    <line x1="175.19" y1="64.88" x2="175.9" y2="65.59" style="fill: none;stroke: #4e5a60;stroke-linecap: round;stroke-linejoin: round"/>
                    <line x1="177.67" y1="67.37" x2="179.75" y2="69.44" style="fill: none;stroke: #4e5a60;stroke-linecap: round;stroke-linejoin: round;stroke-dasharray: 1.6762630939483643,2.514394760131836"/>
                    <line x1="180.64" y1="70.33" x2="181.34" y2="71.04" style="fill: none;stroke: #4e5a60;stroke-linecap: round;stroke-linejoin: round"/>
                  </g>
                </g>
                <line x1="175.03" y1="64.72" x2="179.02" y2="68.71" style="fill: none;stroke: #4e5a60;stroke-linecap: round;stroke-linejoin: round"/>
              </g>
            </g>
            <g>
              <g>
                <path d="M161,84a1.44,1.44,0,0,1-1.29-1.3l-.48-5.17,0-.06-9.53,9.48.06,0,5.22.51a1.44,1.44,0,0,1,1.29,1.29l.53,5.26v0l17.12,17.12a6.9,6.9,0,0,0,9.36.51,6.74,6.74,0,0,0,.33-9.82L166.32,84.52l-.06,0Z" style="fill: #fff;stroke: #fff;stroke-linecap: round;stroke-linejoin: round;stroke-width: 6px"/>
                <polygon points="127.19 52.88 125.2 51.98 124.31 52.87 125.2 54.87 153.46 83.17 155.44 81.18 127.19 52.88" style="fill: #fff;stroke: #fff;stroke-linecap: round;stroke-linejoin: round;stroke-width: 6px"/>
              </g>
              <g>
                <path d="M160.45,83.38a1.44,1.44,0,0,1-1.29-1.3l-.48-5.17,0-.06-9.53,9.48.06,0,5.22.51a1.44,1.44,0,0,1,1.29,1.29l.53,5.26v0l17.12,17.12a6.9,6.9,0,0,0,9.36.51,6.74,6.74,0,0,0,.33-9.82L165.73,83.93l-.06,0Z" style="fill: #fff;stroke: #4e5a60;stroke-linecap: round;stroke-linejoin: round"/>
                <rect x="159.29" y="96.59" width="23.81" height="4.61" rx="2.04" ry="2.04" transform="translate(120.07 -92.09) rotate(45)" style="fill: #fff;stroke: #4e5a60;stroke-linecap: round;stroke-linejoin: round"/>
                <polygon points="154.86 80.59 126.61 52.29 124.61 51.39 123.72 52.28 124.62 54.28 152.87 82.58 154.86 80.59" style="fill: #fff;stroke: #4e5a60;stroke-linecap: round;stroke-linejoin: round"/>
                <path d="M152.93,85.07l3,.74A1.78,1.78,0,0,1,157,87.34l.48,3.12" style="fill: none;stroke: #4e5a60;stroke-linecap: round;stroke-linejoin: round"/>
                <line x1="167.39" y1="87.43" x2="181.31" y2="101.34" style="fill: none;stroke: #4e5a60;stroke-linecap: round;stroke-linejoin: round"/>
                <line x1="159.75" y1="95.07" x2="173.66" y2="108.99" style="fill: none;stroke: #4e5a60;stroke-linecap: round;stroke-linejoin: round"/>
              </g>
            </g>
          </g>
          <g>
            <g>
              <g style="isolation: isolate">
                <g style="isolation: isolate">
                  <path d="M218.11,68.41l-25.34,7.4a1.07,1.07,0,0,1,.32,0l25.34-7.4A1.07,1.07,0,0,0,218.11,68.41Z" style="fill: #fff"/>
                  <g style="clip-path: url(#clip-path)">
                    <g style="isolation: isolate">
                      <path d="M193.08,75.77l25.34-7.4h-.07L193,75.77h.07" style="fill: #fff;stroke: #373e5a;stroke-linecap: round;stroke-linejoin: round"/>
                      <path d="M193,75.77l25.34-7.4a1.07,1.07,0,0,0-.26,0l-25.34,7.4a1.07,1.07,0,0,1,.26,0" style="fill: #fff;stroke: #373e5a;stroke-linecap: round;stroke-linejoin: round"/>
                    </g>
                  </g>
                  <path d="M218.11,68.41l-25.34,7.4a1.07,1.07,0,0,1,.32,0l25.34-7.4A1.07,1.07,0,0,0,218.11,68.41Z" style="fill: none;stroke: #373e5a;stroke-linecap: round;stroke-linejoin: round"/>
                </g>
                <g style="isolation: isolate">
                  <path d="M259,144.28l25.34-7.4a1.12,1.12,0,0,0,.79-1.07l-25.34,7.4A1.12,1.12,0,0,1,259,144.28Z" style="fill: #fff"/>
                  <g style="clip-path: url(#clip-path-2)">
                    <g style="isolation: isolate">
                      <path d="M259,144.28l25.34-7.4a1.12,1.12,0,0,0,.79-1.07l-25.34,7.4a1.12,1.12,0,0,1-.79,1.07" style="fill: #fff;stroke: #373e5a;stroke-linecap: round;stroke-linejoin: round"/>
                    </g>
                  </g>
                  <path d="M259,144.28l25.34-7.4a1.12,1.12,0,0,0,.79-1.07l-25.34,7.4A1.12,1.12,0,0,1,259,144.28Z" style="fill: none;stroke: #373e5a;stroke-linecap: round;stroke-linejoin: round"/>
                </g>
                <polygon points="258.75 76.91 284.1 69.52 218.43 68.37 193.08 75.77 258.75 76.91" style="fill: #fff;stroke: #373e5a;stroke-linecap: round;stroke-linejoin: round"/>
                <polygon points="259.75 143.21 285.09 135.81 285.2 70.68 259.86 78.08 259.75 143.21" style="fill: #fff;stroke: #373e5a;stroke-linecap: round;stroke-linejoin: round"/>
                <path d="M193.08,75.77A1.1,1.1,0,0,0,192,76.89L191.86,142a1.14,1.14,0,0,0,1.11,1.15l65.67,1.15a1.11,1.11,0,0,0,1.11-1.12l.11-65.13a1.15,1.15,0,0,0-1.11-1.16Z" style="fill: #fff;stroke: #373e5a;stroke-linecap: round;stroke-linejoin: round"/>
                <g style="isolation: isolate">
                  <path d="M259.86,78.08l25.34-7.4a1.15,1.15,0,0,0-1.11-1.16l-25.34,7.4A1.15,1.15,0,0,1,259.86,78.08Z" style="fill: #fff"/>
                  <g style="clip-path: url(#clip-path-3)">
                    <g style="isolation: isolate">
                      <path d="M259.86,78.08l25.34-7.4a1.18,1.18,0,0,0-.46-.94l-25.34,7.4a1.18,1.18,0,0,1,.46.94" style="fill: #fff;stroke: #373e5a;stroke-linecap: round;stroke-linejoin: round"/>
                      <path d="M259.4,77.14l25.34-7.4a1.13,1.13,0,0,0-.22-.13L259.18,77a1.13,1.13,0,0,1,.22.13" style="fill: #fff;stroke: #373e5a;stroke-linecap: round;stroke-linejoin: round"/>
                      <path d="M259.18,77l25.34-7.4-.22-.07L259,76.94l.22.07" style="fill: #fff;stroke: #373e5a;stroke-linecap: round;stroke-linejoin: round"/>
                      <path d="M259,76.94l25.34-7.4-.2,0-25.34,7.4.2,0" style="fill: #fff;stroke: #373e5a;stroke-linecap: round;stroke-linejoin: round"/>
                    </g>
                  </g>
                  <path d="M259.86,78.08l25.34-7.4a1.15,1.15,0,0,0-1.11-1.16l-25.34,7.4A1.15,1.15,0,0,1,259.86,78.08Z" style="fill: none;stroke: #373e5a;stroke-linecap: round;stroke-linejoin: round"/>
                </g>
              </g>
              <polygon points="279.22 72.14 279.34 98.82 269.86 101.75 269.86 74.83 279.22 72.14" style="fill: #fff;stroke: #373e5a;stroke-linecap: round;stroke-linejoin: round"/>
              <polygon points="200.58 73.42 269.74 74.71 279.46 71.79 214.39 70.03 200.58 73.42" style="fill: #fff;stroke: #373e5a;stroke-linecap: round;stroke-linejoin: round"/>
              <line x1="274.86" y1="100.4" x2="274.86" y2="138.03" style="fill: none;stroke: #373e5a;stroke-linecap: round;stroke-linejoin: round"/>
            </g>
            <g id="Logo_Mark" data-name="Logo Mark">
              <g style="isolation: isolate">
                <polygon points="224.96 98.9 224.95 98.91 224.9 98.95 224.96 98.9" style="fill: #106235"/>
                <polygon points="224.96 98.9 224.95 98.91 224.9 98.95 224.96 98.9" style="fill: #565656"/>
                <polygon points="222.23 99.68 222.28 99.7 222.24 99.69 222.23 99.68" style="fill: #106235"/>
                <path d="M232.95,88a12.08,12.08,0,0,1,4.46.76,12.73,12.73,0,0,1,8,13.61,10.84,10.84,0,0,1,7.87,10.51,11.16,11.16,0,0,1-10.79,11.25,2.33,2.33,0,0,1-2.1-1.23L237,116.66l-3.76,6.41a2.42,2.42,0,0,1-2,1.21,2.36,2.36,0,0,1-2.1-1.23l-5-9.15a2.51,2.51,0,0,1,.93-3.35,2.35,2.35,0,0,1,3.25.91l3,5.48,3.76-6.41a2.46,2.46,0,0,1,2.07-1.22,2.37,2.37,0,0,1,2.07,1.23l4.63,8.46a6.26,6.26,0,0,0,4.67-6.09,6,6,0,0,0-6-6.06,2.38,2.38,0,0,1-2.4-2.41,2.53,2.53,0,0,1,.19-1,8,8,0,0,0-4.54-10.16,7.41,7.41,0,0,0-2.72-.46,8.43,8.43,0,0,0-7.65,5.36,2.61,2.61,0,0,0,.15-.93,2.42,2.42,0,0,0-.88-1.84,15.6,15.6,0,0,0-2.38-1.61A13.3,13.3,0,0,1,232.95,88Z" style="fill: #1cb05e"/>
                <path d="M222.23,93.85a15.6,15.6,0,0,1,2.38,1.61,2.42,2.42,0,0,1,.88,1.84,2.52,2.52,0,0,1-.16.94l-.07.15,0,.08-.06.11-.06.11,0,.07-.1.14-.05.05-.11.13-.07.06-.11.1-.1.07-.08.06-.12.08-.08,0-.12.06-.09,0-.11,0-.11,0-.11,0-.12,0-.1,0-.13,0h-.57l-.11,0-.14,0-.09,0-.18-.06,0,0-.17-.07-.06,0-.12-.07-.09-.05-.08-.05-.12-.1a2.41,2.41,0,0,1-.89-1.9,2.53,2.53,0,0,1,.16-.88A12.94,12.94,0,0,1,222.23,93.85Z" style="fill: #1cb05e"/>
                <path d="M214.5,91.94a15.55,15.55,0,0,1,7.73,1.91,12.94,12.94,0,0,0-1.37,2.69,2.53,2.53,0,0,0-.16.88,2.41,2.41,0,0,0,.89,1.9,10.91,10.91,0,0,0-7.08-2.47,11.51,11.51,0,0,0-11.12,11.61,11.08,11.08,0,0,0,11.16,11.22l8.29-.14a2.38,2.38,0,0,1,2.4,2.41,2.47,2.47,0,0,1-2.39,2.49l-8.29.14a15.84,15.84,0,0,1-16-16A16.45,16.45,0,0,1,214.5,91.94Z" style="fill: #1cb05e"/>
              </g>
            </g>
          </g>
          <g>
            <path d="M125.11,141C63.36,150.1,2.76,141,2.76,141S.5,140.48.5,139.87V126c0-12.81,0-24.91,21-31.82,13.84-4.54,21.33-9.79,24.85-17.5a47.11,47.11,0,0,1-4.92-7.43l0-.07a65.84,65.84,0,0,1-4-14.06,24.2,24.2,0,0,1-1.91-2.91,13.56,13.56,0,0,1-2.24-5.94l0-.54c-.18-6-.06-9.44,1.15-10.68a1.8,1.8,0,0,1,.59-.41c-1-2.87-1.8-7.4-.35-11A43.3,43.3,0,0,1,37.44,18l-1,0a1.12,1.12,0,0,1-.59-2.06s1.49-1,4.23-5A23.37,23.37,0,0,1,54.84.87a27.37,27.37,0,0,1,9.25.08A27.37,27.37,0,0,1,73.35.87a23.37,23.37,0,0,1,14.76,10c2.74,3.93,4.22,5,4.24,5a1.12,1.12,0,0,1-.6,2l-1,0a43.3,43.3,0,0,1,2.74,5.67c1.45,3.57.69,8.1-.35,11a1.8,1.8,0,0,1,.59.41c1.2,1.24,1.33,4.71,1.15,10.68l0,.54a13.55,13.55,0,0,1-2.24,5.94,24.2,24.2,0,0,1-1.91,2.91,65.84,65.84,0,0,1-4,14.06l0,.07a47.56,47.56,0,0,1-5.83,8.53c3.72,7.12,11,12,24.31,16.39,21.07,6.9,21.06,19,21,31.82v13a3.28,3.28,0,0,1-.22,1.22A1.36,1.36,0,0,1,125.11,141Z" style="fill: #fff;stroke: #373e5a;stroke-miterlimit: 10"/>
            <path d="M112.93,129.68s1.83,4.63,1.56,12.7" style="fill: none;stroke: #373e5a;stroke-linecap: round;stroke-linejoin: round"/>
            <path d="M14.12,129.68s-1.83,4.63-1.56,12.7" style="fill: none;stroke: #373e5a;stroke-linecap: round;stroke-linejoin: round"/>
          </g>
          <g>
            <polygon points="294.1 128.15 290.25 130.07 289.07 134.69 291.46 138.38 290.39 140.28 286.15 139.89 283.14 143.04 283.51 147.5 281.7 148.61 278.18 146.1 273.77 147.35 271.94 151.38 269.83 151.38 268 147.35 263.6 146.1 260.07 148.61 258.26 147.5 258.63 143.04 255.63 139.89 251.38 140.28 250.31 138.38 252.71 134.69 251.52 130.07 247.67 128.15 247.67 125.95 251.52 124.03 252.71 119.41 250.31 115.72 251.38 113.82 255.63 114.2 258.63 111.05 258.26 106.6 260.07 105.49 263.6 107.99 268 106.75 269.83 102.72 271.94 102.72 273.77 106.75 278.18 107.99 281.7 105.49 283.51 106.6 283.14 111.05 286.14 114.2 290.39 113.82 291.46 115.72 289.07 119.41 290.25 124.03 294.1 125.95 294.1 128.15" style="fill: #fff;stroke: #fff;stroke-miterlimit: 10;stroke-width: 5px"/>
            <polygon points="294.1 128.15 290.25 130.07 289.07 134.69 291.46 138.38 290.39 140.28 286.15 139.89 283.14 143.04 283.51 147.5 281.7 148.61 278.18 146.1 273.77 147.35 271.94 151.38 269.83 151.38 268 147.35 263.6 146.1 260.07 148.61 258.26 147.5 258.63 143.04 255.63 139.89 251.38 140.28 250.31 138.38 252.71 134.69 251.52 130.07 247.67 128.15 247.67 125.95 251.52 124.03 252.71 119.41 250.31 115.72 251.38 113.82 255.63 114.2 258.63 111.05 258.26 106.6 260.07 105.49 263.6 107.99 268 106.75 269.83 102.72 271.94 102.72 273.77 106.75 278.18 107.99 281.7 105.49 283.51 106.6 283.14 111.05 286.14 114.2 290.39 113.82 291.46 115.72 289.07 119.41 290.25 124.03 294.1 125.95 294.1 128.15" style="fill: #fff;stroke: #373e5a;stroke-miterlimit: 10"/>
            <ellipse cx="270.89" cy="127.05" rx="14.79" ry="15.5" style="fill: none;stroke: #373e5a;stroke-linecap: round;stroke-linejoin: round;stroke-dasharray: 2.003669261932373,3.0055038928985596"/>
            <ellipse cx="270.89" cy="127.05" rx="11.05" ry="11.58" style="fill: none;stroke: #373e5a;stroke-miterlimit: 10"/>
            <path d="M262.11,133.94a12,12,0,0,1-1.12-5.08,11.32,11.32,0,0,1,11-11.58,10.85,10.85,0,0,1,8.64,4.36" style="fill: none;stroke: #373e5a;stroke-miterlimit: 10"/>
          </g>
        </g>
      </g>
    </g>
  </g>
</svg>
