<svg id="icon-cloudserver-small" xmlns="http://www.w3.org/2000/svg" viewBox="0 0 50 50"><path  d="M43.46,33.16a.5.5,0,0,1-.5.5H38.59a.5.5,0,0,1-.5-.5.5.5,0,0,1,.5-.5H43A.51.51,0,0,1,43.46,33.16Zm5.75-10.85a2.31,2.31,0,0,1-.87,1.8,2.31,2.31,0,0,1,.87,1.8v2.43a2.34,2.34,0,0,1-1,1.91,2.55,2.55,0,0,1,1,2V34a2.68,2.68,0,0,1-2.68,2.68H35a3.58,3.58,0,0,0-2.44,3.44v3.65h2.31a1.62,1.62,0,0,1,1.62,1.49H46.74a.5.5,0,0,1,.5.5.5.5,0,0,1-.5.5H36.46a1.62,1.62,0,0,1-1.62,1.49H29a1.62,1.62,0,0,1-1.62-1.49H17a.5.5,0,0,1-.5-.5.5.5,0,0,1,.5-.5H27.39A1.62,1.62,0,0,1,29,43.77h2.52V40.11a3.63,3.63,0,0,0-2.47-3.43H17.49A2.69,2.69,0,0,1,14.81,34v-1A11,11,0,0,1,7,27,9.57,9.57,0,0,1,1.18,20.2c-1.19-5,1.66-10,6.33-11.08a8.54,8.54,0,0,1,1-.18,12.22,12.22,0,0,1,6.79-5.8c.35-.12.71-.23,1.07-.32a12.29,12.29,0,0,1,11.7,3.59,10.46,10.46,0,0,1,1.17-.36,9.52,9.52,0,0,1,8.6,2.34l.21-.06a6.13,6.13,0,0,1,4.85.91,7,7,0,0,1,2.91,4.24A7.26,7.26,0,0,1,46,16.1l2,1.73a2.32,2.32,0,0,1,1.23,2ZM41.84,13.9a5.91,5.91,0,0,0-3.62-1.05H25.07a6.08,6.08,0,0,0-3.66,1.06l-3.69,3.63H46.1Zm-26,16.35a2.44,2.44,0,0,1-1-1.91V25.91a2.33,2.33,0,0,1,.5-1.42,2.28,2.28,0,0,1,.38-.38,2.28,2.28,0,0,1-.38-.38,2.38,2.38,0,0,1-.5-1.42V19.87a2.38,2.38,0,0,1,.5-1.42,2.54,2.54,0,0,1,.62-.56l4.81-4.72a7,7,0,0,1,4.35-1.32H38.2a6.93,6.93,0,0,1,4.28,1.28L45,15.28a6.42,6.42,0,0,0-.14-1.57,6.08,6.08,0,0,0-2.49-3.64,5.2,5.2,0,0,0-4.07-.77h0l-.42.11a.49.49,0,0,1-.5-.11A8.56,8.56,0,0,0,29.48,7a8.33,8.33,0,0,0-1.33.45.51.51,0,0,1-.56-.12A11.53,11.53,0,0,0,19.12,3.5a10.7,10.7,0,0,0-2.51.3,10.24,10.24,0,0,0-1.3.4,11.25,11.25,0,0,0-6,5.45.54.54,0,0,1-.41.27,6.17,6.17,0,0,0-1.13.17c-4.14,1-6.65,5.42-5.59,9.88A8.52,8.52,0,0,0,7.5,26.08a.5.5,0,0,1,.29.26,10.05,10.05,0,0,0,7,5.71,2.57,2.57,0,0,1,.48-1.3A2.63,2.63,0,0,1,15.81,30.25ZM29,44.77a.63.63,0,0,0-.61.49.58.58,0,0,0,0,.14v.71a.8.8,0,0,0,0,.15.63.63,0,0,0,.61.49h5.83a.63.63,0,0,0,.61-.49.8.8,0,0,0,0-.15V45.4a.58.58,0,0,0,0-.14.63.63,0,0,0-.61-.49Zm19.2-12.5a1.62,1.62,0,0,0-1.62-1.6H17.49a1.62,1.62,0,0,0-1.67,1.52s0,0,0,.07V34a1.68,1.68,0,0,0,1.68,1.68H29.24A4.57,4.57,0,0,1,32,38.08a4.54,4.54,0,0,1,2.77-2.39H46.53A1.68,1.68,0,0,0,48.21,34Zm0-6.36a1.31,1.31,0,0,0-1.14-1.29c-.06,0-30,0-30.11,0a1.31,1.31,0,0,0-1.15,1.29v2.43a1.33,1.33,0,0,0,1.34,1.33H46.88a1.32,1.32,0,0,0,1.33-1.33Zm0-6a1.3,1.3,0,0,0-.59-1.07,1.07,1.07,0,0,0-.22-.15,1.27,1.27,0,0,0-.52-.11H17.15a1.26,1.26,0,0,0-.64.19,1.14,1.14,0,0,0-.23.15,1.34,1.34,0,0,0-.47,1v2.44A1.33,1.33,0,0,0,17,23.6c.06,0,30.05,0,30.11,0a1.32,1.32,0,0,0,1.14-1.29Zm-5,.81a.46.46,0,0,0-.23-.06H38.59a.5.5,0,0,0-.5.5.5.5,0,0,0,.5.5H43a.51.51,0,0,0,.5-.5A.48.48,0,0,0,43.19,20.68Zm-.23,6H38.59a.5.5,0,0,0-.5.5.5.5,0,0,0,.5.5H43a.5.5,0,0,0,.5-.5A.51.51,0,0,0,43,26.65Z"/></svg>