<svg id="clock" xmlns="http://www.w3.org/2000/svg" viewBox="0 0 173 102.99"><path class="light-blue-grey" d="M170.43 87.67c-5.32-5.67-16.5-8.67-26.88-10.21-.1.36-.21.72-.34 1.06a12.06 12.06 0 0 1-2.54 4.15 10 10 0 0 1-3.75 2.51l-20.25 14a.86.86 0 0 1-.2.15 9.85 9.85 0 0 1-.92.39L143.1 103s38.66-3.33 27.33-15.33z"/><path class="blue-stroke white" d="M131.76 11.81h-.48L71.55 5.07 54.86 3.28 31.56.8a7.17 7.17 0 0 0-3.64.54A8 8 0 0 0 25 3.53L6.76 16.33h-.07a8.67 8.67 0 0 0-3.17 2.4 11.42 11.42 0 0 0-2.09 3.82 14.71 14.71 0 0 0-.7 4.87l.89 44.18a16.53 16.53 0 0 0 .89 5 16 16 0 0 0 2.23 4.3A13 13 0 0 0 8 84a9.54 9.54 0 0 0 3.94 1.54l99 13.9a8.94 8.94 0 0 0 4.33-.43 8.8 8.8 0 0 0 .85-.36l20.46-14.15a9.25 9.25 0 0 0 3.54-2.35 11.36 11.36 0 0 0 2.39-3.89 14.32 14.32 0 0 0 .86-5.06l-.24-46.73a16.57 16.57 0 0 0-.92-5.34 16.07 16.07 0 0 0-2.45-4.55 13.5 13.5 0 0 0-3.6-3.28 10.52 10.52 0 0 0-4.38-1.52z"/><path class="blue-stroke" d="M110 28.14l-32.19-3.42v.21l-41.64-4.45v-.2L10.11 17.5a7.17 7.17 0 0 0-3.64.5 8 8 0 0 0-2.93 2.22 10.55 10.55 0 0 0-1.93 3.53A13.61 13.61 0 0 0 1 28.3l.87 44.2a15.29 15.29 0 0 0 .82 4.63 14.77 14.77 0 0 0 2.06 4 12 12 0 0 0 3 2.91 8.82 8.82 0 0 0 3.64 1.42l99 13.85a8.26 8.26 0 0 0 4-.4 8.54 8.54 0 0 0 3.27-2.17 10.5 10.5 0 0 0 2.2-3.6 13.26 13.26 0 0 0 .79-4.68l-.25-46.71a15.34 15.34 0 0 0-.85-4.94 14.85 14.85 0 0 0-2.26-4.21 12.47 12.47 0 0 0-3.33-3 9.72 9.72 0 0 0-4-1.41"/><path class="blue-stroke" d="M110 31.31L9.33 20a5 5 0 0 0-2.59.39 5.71 5.71 0 0 0-2.09 1.62 7.81 7.81 0 0 0-1.38 2.59 10.28 10.28 0 0 0-.46 3.4l.86 46a11.56 11.56 0 0 0 .58 3.4 11 11 0 0 0 1.47 2.93 8.69 8.69 0 0 0 2.14 2.14 6.16 6.16 0 0 0 2.6 1l100 14.26a5.69 5.69 0 0 0 2.84-.3 6.08 6.08 0 0 0 2.32-1.6 7.79 7.79 0 0 0 1.56-2.64 10 10 0 0 0 .56-3.43l-.27-48.43a11.56 11.56 0 0 0-.6-3.62 11 11 0 0 0-1.61-3.08 9 9 0 0 0-2.36-2.22 6.78 6.78 0 0 0-2.87-1"/><path id="face" class="blue" d="M12.12 75.92a2.16 2.16 0 0 1-.9-.35 3 3 0 0 1-.74-.71 3.63 3.63 0 0 1-.51-1 3.75 3.75 0 0 1-.2-1.14L9 30.28a3.33 3.33 0 0 1 .16-1.11 2.59 2.59 0 0 1 .48-.87 2 2 0 0 1 .72-.54 1.76 1.76 0 0 1 .89-.13l97.33 10.87a2.39 2.39 0 0 1 1 .35 3.06 3.06 0 0 1 .81.74 3.64 3.64 0 0 1 .55 1 3.77 3.77 0 0 1 .21 1.21l.28 44.52a3.27 3.27 0 0 1-.19 1.14 2.58 2.58 0 0 1-.53.88 2.09 2.09 0 0 1-.8.54 2 2 0 0 1-1 .1L12.12 75.92"/><polyline class="blue-stroke" points="77.61 24.72 77.57 21.46 35.92 17.08 35.97 20.28"/><path id="numbers" class="white" d="M21.52 65.44l-2 1.89.63 1 11.47 1.41 1-.63-1.42-2.44-9.65-1.21M34 54.92l-1.2 1.2-1.32 10.24L33 68.68l.74-.47 1.45-11.64L34 54.92m-12.7-1.71l-1.22.91-1.45 11.74.51 1 2-1.73 1.15-10.26-1-1.63m14.88-12.68l-2 1.67-1.05 10.33 1 1.48 1.34-1.2 1.34-11.3-.63-1m-13.82-2l-.61.53-1.46 11.6 1.1 1.67 1.14-.94L23.86 41l-1.51-2.45m12.82.66L23.58 37.8l-.86.5 1.41 2.43 9.73 1.2 2-1.73-.73-1m5.15 28.52l-2 1.89.63 1L50.41 72l1-.63L50 69l-9.65-1.21m12.46-10.57l-1.2 1.2-1.33 10.25L51.75 71l.74-.47 1.45-11.64-1.13-1.65M40.1 55.51l-1.22.91-1.45 11.75.51 1 2-1.73 1.15-10.26-1-1.63M55 42.87l-2 1.67-1.08 10.33 1 1.48 1.34-1.2 1.34-11.3-.63-1m-13.82-2l-.61.53L39.09 53l1.1 1.67 1.13-.94 1.35-10.41-1.51-2.45m12.84.66l-11.63-1.42-.85.5 1.4 2.39 9.74 1.2 2-1.73-.73-1m7.48 21.23a.61.61 0 0 0-.51.24l-1.42 1.64a.93.93 0 0 0-.27.64 1.17 1.17 0 0 0 .18.58L61 68.23a.76.76 0 0 0 .52.36c.1 0 .27-.11.5-.37l1.39-1.73a1 1 0 0 0 .24-.63 1.39 1.39 0 0 0-.22-.65l-1.44-2a1 1 0 0 0-.55-.41m-.19-15a.61.61 0 0 0-.51.24l-1.42 1.64a.93.93 0 0 0-.27.64 1.17 1.17 0 0 0 .18.58l1.58 2.38a.76.76 0 0 0 .52.36c.1 0 .27-.11.5-.37l1.39-1.73a1 1 0 0 0 .24-.63 1.42 1.42 0 0 0-.22-.65l-1.44-2a1 1 0 0 0-.55-.41m6.08 23.28l-2 1.89.63 1 11.47 1.41 1-.63L77 72.28l-9.65-1.21m12.48-10.53l-1.2 1.2L77.3 72l1.47 2.32.74-.47L81 62.19l-1.13-1.65m-1.2-2.08l-9.79-1.2-1.46 1.17 1.25 1.8 9.71 1.19L79.7 60l-1.07-1.55M82 46.18l-2 1.67-1.07 10.34 1 1.48 1.34-1.2 1.34-11.3-.63-1m-1-1.33L69.4 43.43l-.86.5 1.41 2.43 9.74 1.2 2-1.73-.73-1m5.15 28.52l-2 1.89.63 1 11.47 1.41 1-.63-1.42-2.44-9.65-1.21m12.49-10.52L97.43 64 96.1 74.3l1.48 2.32.73-.48 1.45-11.64-1.13-1.65m-1.2-2.08l-9.79-1.2-1.46 1.17 1.26 1.8 9.71 1.19 1.37-1.4-1.07-1.55m3.37-12.27l-2 1.67-1.08 10.32 1 1.48 1.33-1.2 1.34-11.3-.63-1M87 46.5l-.61.53-1.45 11.6L86 60.29l1.14-.94 1.35-10.41L87 46.5m12.81.66l-11.62-1.42-.85.5 1.4 2.43 9.74 1.2 2-1.73-.74-1"/></svg>