<svg id="CSOC" xmlns="http://www.w3.org/2000/svg" viewBox="0 0 50 50"><g id="SVG_Icons" data-name="SVG Icons"><path class="svg-grey" d="M37.73,31.08c-3.9-1.28-6.11-2.69-7.27-4.67a15.68,15.68,0,0,0,1.72-2.6,21.87,21.87,0,0,0,1.28-4.46,9.82,9.82,0,0,0,.56-.87,4.73,4.73,0,0,0,.78-2.13v-.17c.07-2.08,0-3.18-.46-3.72a5.66,5.66,0,0,0,0-3.5c-.19-.45-.38-.87-.57-1.25a.81.81,0,0,0,.36-.48.83.83,0,0,0-.28-.91A12.87,12.87,0,0,1,32.55,4.8c-2.21-2.83-4-3.95-5.3-3.33a2.87,2.87,0,0,1-1.55,0,4.71,4.71,0,0,0-1.17-.07,9.08,9.08,0,0,0-3,0,7.91,7.91,0,0,0-5,3.4,7,7,0,0,1-1.21,1.45.86.86,0,0,0-.35,1,.85.85,0,0,0,.37.48c-.19.38-.38.8-.56,1.25a5.59,5.59,0,0,0,0,3.5c-.47.54-.53,1.64-.47,3.72v.17A4.73,4.73,0,0,0,15,18.48c.23.39.42.68.56.87a22.06,22.06,0,0,0,1.3,4.51,16.65,16.65,0,0,0,1.42,2.2c-1.1,2.17-3.36,3.68-7.45,5-6.37,2.09-7,5.77-7,9.36a.5.5,0,0,0,.14.35,27.77,27.77,0,0,0,20,8.46,28.1,28.1,0,0,0,20.57-9,.49.49,0,0,0,.13-.36C44.62,36.7,44,33.13,37.73,31.08ZM4.85,40.24c.08-3.4.68-6.36,6.33-8.21,4.56-1.49,7-3.23,8.19-5.82a.51.51,0,0,0-.07-.52,15.15,15.15,0,0,1-1.5-2.27,20.15,20.15,0,0,1-1.23-4.34.47.47,0,0,0-.11-.25A8.72,8.72,0,0,1,15.9,18a3.83,3.83,0,0,1-.64-1.65v-.17c0-.49,0-1.35,0-2l.12,0a.55.55,0,0,1,.12.24s0,0,0,0,.05.12.06.25.06.42.09.57a2,2,0,0,1,.07.44s0,0,0,.19l0,.11a1.26,1.26,0,0,0,.12.38c0,.09.09.22.11.28a1.16,1.16,0,0,0,.11.26.67.67,0,0,1,.06.12s0,0,0,0,0,0,0,.07a1.61,1.61,0,0,0,.21.3l.15.15a.85.85,0,0,0,.12.13l0,0a.81.81,0,0,0,.33.16,3.19,3.19,0,0,0,.45.12,6.2,6.2,0,0,0,1.07,0h.21l.48-.05.28,0,.22,0h0l.12,0,.21-.05a5.16,5.16,0,0,0,.57-.15.19.19,0,0,1,.1,0,1.7,1.7,0,0,0,.53-.19,2.84,2.84,0,0,0,.69-.46l.21-.2.23-.21a.79.79,0,0,0,.16-.18s0-.06,0-.06,0,0,0,0,0-.05.06-.08A.57.57,0,0,0,23,16l.06-.11a.92.92,0,0,0,.12-.29,4.93,4.93,0,0,0,.16-.66.73.73,0,0,1,0-.15h.29a2.63,2.63,0,0,0,.38,0,.36.36,0,0,1,.15,0h.13a.36.36,0,0,1,.15,0,2.79,2.79,0,0,0,.39,0h.28a.36.36,0,0,1,0,.15,4.93,4.93,0,0,0,.16.66,1.25,1.25,0,0,0,.12.29.41.41,0,0,1,.06.11.5.5,0,0,0,.14.22l.06.08s0,0,0,0,0,0,0,.06a.79.79,0,0,0,.16.18l.23.21.21.2a2.84,2.84,0,0,0,.69.46,1.66,1.66,0,0,0,.54.19.22.22,0,0,1,.1,0,4.43,4.43,0,0,0,.56.15l.21.05.12,0h.05l.21,0,.28,0,.48.05h.21a6.2,6.2,0,0,0,1.07,0,3.19,3.19,0,0,0,.45-.12.81.81,0,0,0,.33-.16l0,0a.85.85,0,0,0,.12-.13l.15-.15a1.25,1.25,0,0,0,.21-.3s0-.07,0-.07,0,0,0,0a.67.67,0,0,1,.06-.12,1.16,1.16,0,0,0,.11-.26c0-.06.07-.19.11-.28a1.26,1.26,0,0,0,.12-.38l0-.11c.05-.15.06-.18.05-.19a2,2,0,0,1,.07-.44c0-.15,0-.3.09-.57s0-.25.06-.25,0,0,0,0a.55.55,0,0,1,.12-.24.5.5,0,0,1,.16-.05.83.83,0,0,0,.31-.12.23.23,0,0,0,0-.14,0,0,0,0,1,0,0,.86.86,0,0,0,0-.23s0-.1,0-.14a.47.47,0,0,0,0-.12.57.57,0,0,1,0-.18c.3.36.24,2.21.21,3v.17A3.83,3.83,0,0,1,33.16,18a8.72,8.72,0,0,1-.56.86.47.47,0,0,0-.11.25,20.13,20.13,0,0,1-1.23,4.33A13.65,13.65,0,0,1,29.48,26a.5.5,0,0,0-.06.56c1.24,2.39,3.64,4,8,5.45,5.51,1.81,6.18,4.77,6.31,7.68A27.08,27.08,0,0,1,24,48.25,26.77,26.77,0,0,1,4.85,40.24Zm19.6-37.8a.43.43,0,0,0,.16,0,3.67,3.67,0,0,1,.95.06,3.68,3.68,0,0,0,2.12-.13c.78-.37,2.31.77,4.08,3.05.51.65.93,1.15,1.19,1.43a.5.5,0,0,0-.39.75,13.54,13.54,0,0,1,.84,1.74,4.84,4.84,0,0,1-.12,3.13.53.53,0,0,0,0,.25h-.42l-.32,0-.33,0c-.38,0-.77,0-1.15,0h-.27l-.29,0h-.27l-.21,0-.22,0a5.07,5.07,0,0,0-1.11-.06,2.76,2.76,0,0,1-.39,0,1.44,1.44,0,0,0-.32,0,3.55,3.55,0,0,0-.56.13,1.83,1.83,0,0,1-.39.07l-.1,0-.12,0a3.42,3.42,0,0,0-.72.33l-.18.1a1.63,1.63,0,0,0-.33.27,1.38,1.38,0,0,1-.32.24.05.05,0,0,0,0,0l0,0,0,0-.06,0-.08,0a.82.82,0,0,1-.25.1l-.28,0-.25.05s-.16,0-.3-.05l-.28,0a.82.82,0,0,1-.25-.1l-.08,0-.06,0,0,0,0,0a.05.05,0,0,0,0,0,1.38,1.38,0,0,1-.32-.24,2.46,2.46,0,0,0-.32-.27l-.18-.1a3.47,3.47,0,0,0-.73-.33l-.12,0-.1,0A1.83,1.83,0,0,1,21,12.7a3.6,3.6,0,0,0-.55-.13,1.57,1.57,0,0,0-.33,0,2.79,2.79,0,0,1-.39,0,5.55,5.55,0,0,0-.7,0,.25.25,0,0,1-.13,0h-.14l-.14,0-.22,0-.21,0h-.26l-.3,0h-.52c-.3,0-.6,0-.9,0l-.33,0H15.8a.44.44,0,0,0,0-.23,4.84,4.84,0,0,1-.12-3.13A13.54,13.54,0,0,1,16.5,7.6a.5.5,0,0,0-.37-.75A10.78,10.78,0,0,0,17.32,5.4a6.92,6.92,0,0,1,4.37-3A8.18,8.18,0,0,1,24.45,2.44Zm4.38,11.68a.21.21,0,0,1-.16.22,1.65,1.65,0,0,0-1,.57,1.32,1.32,0,0,0-.18.33l0,0a1.66,1.66,0,0,0-.06.16l0,.08c0,.05,0,.07,0,.08a.17.17,0,0,1-.1.13l0,0h-.06a.21.21,0,0,1-.18-.11.82.82,0,0,1-.07-.28,1.84,1.84,0,0,1,0-.31,1,1,0,0,1,.17-.63.89.89,0,0,1,.32-.25A1.86,1.86,0,0,1,28,14a4.82,4.82,0,0,1,.6-.07A.19.19,0,0,1,28.83,14.12Zm-9.58,0a.21.21,0,0,1-.16.22,1.65,1.65,0,0,0-.95.57,1.32,1.32,0,0,0-.18.33l0,0a1,1,0,0,0-.06.16.17.17,0,0,1,0,.07v0s0,0,0,0a.17.17,0,0,1-.1.13l-.09,0a.22.22,0,0,1-.18-.11.82.82,0,0,1-.07-.28,1.84,1.84,0,0,1,0-.31,1,1,0,0,1,.17-.63.89.89,0,0,1,.32-.25,1.86,1.86,0,0,1,.59-.16A4.82,4.82,0,0,1,19,14,.21.21,0,0,1,19.25,14.12ZM15.88,7.06a.08.08,0,0,1-.05.05h0ZM32.13,38a.82.82,0,0,1,.79.84.82.82,0,0,1-.29.64v1.78a.5.5,0,0,1-.5.5.51.51,0,0,1-.5-.5V39.43a.86.86,0,0,1-.29-.64A.82.82,0,0,1,32.13,38Zm3.72-2.23a7.23,7.23,0,0,1-3.35-1,.73.73,0,0,0-.79,0,7.12,7.12,0,0,1-3.35,1.06.75.75,0,0,0-.69.74v2.93c0,2.86,1.32,4.71,4.16,5.82a.75.75,0,0,0,.54,0c2.84-1.11,4.17-3,4.17-5.82V36.46A.76.76,0,0,0,35.85,35.72Zm-.31,3.67c0,2.43-1,3.89-3.44,4.85-2.4-1-3.43-2.42-3.43-4.85V36.7a8.25,8.25,0,0,0,3.43-1.1,8.3,8.3,0,0,0,3.44,1.1Z"/></g></svg>