<svg xmlns="http://www.w3.org/2000/svg" xmlns:xlink="http://www.w3.org/1999/xlink" width="308.94" height="155.72" viewBox="0 0 308.94 155.72">
  <defs>
    <clipPath id="clip-path">
      <polygon points="161.06 144.39 161.09 127.69 174.73 130.71 174.7 147.41 161.06 144.39" style="fill: none"/>
    </clipPath>
    <clipPath id="clip-path-2">
      <polygon points="167.39 143.62 167.42 127.06 178.65 129.55 178.62 146.11 167.39 143.62" style="fill: none"/>
    </clipPath>
    <clipPath id="clip-path-3">
      <polygon points="206.15 124.99 206.18 108.29 219.82 111.31 219.79 128.01 206.15 124.99" style="fill: none"/>
    </clipPath>
    <clipPath id="clip-path-4">
      <polygon points="212.47 124.22 212.5 107.66 223.73 110.14 223.7 126.71 212.47 124.22" style="fill: none"/>
    </clipPath>
    <clipPath id="clip-path-5">
      <polygon points="116.21 135.42 116.24 118.71 129.87 121.73 129.84 138.44 116.21 135.42" style="fill: none"/>
    </clipPath>
    <clipPath id="clip-path-6">
      <polygon points="122.53 134.65 122.57 118.09 133.79 120.57 133.76 137.14 122.53 134.65" style="fill: none"/>
    </clipPath>
    <clipPath id="clip-path-7">
      <path d="M231.11,71.41l-25.34,7.4a1.07,1.07,0,0,1,.32,0l25.34-7.4A1.07,1.07,0,0,0,231.11,71.41Z" style="fill: #fff;stroke: #373e5a;stroke-linecap: round;stroke-linejoin: round"/>
    </clipPath>
    <clipPath id="clip-path-8">
      <path d="M272,147.28l25.34-7.4a1.12,1.12,0,0,0,.79-1.07l-25.34,7.4A1.12,1.12,0,0,1,272,147.28Z" style="fill: #fff;stroke: #373e5a;stroke-linecap: round;stroke-linejoin: round"/>
    </clipPath>
    <clipPath id="clip-path-9">
      <path d="M272.86,81.08l25.34-7.4a1.15,1.15,0,0,0-1.11-1.16l-25.34,7.4A1.15,1.15,0,0,1,272.86,81.08Z" style="fill: #fff;stroke: #373e5a;stroke-linecap: round;stroke-linejoin: round"/>
    </clipPath>
  </defs>
  <title>icon-ecommerce</title>
  <g id="Layer_2" data-name="Layer 2">
    <g id="_1200" data-name="1200">
      <g id="Who_Benefits" data-name="Who Benefits">
        <g id="ecommerce-reseller-icon">
          <line x1="82.68" y1="61.67" x2="87.02" y2="61.67" style="fill: #fff"/>
          <line x1="82.68" y1="66.71" x2="87.02" y2="66.71" style="fill: #fff"/>
          <line x1="82.68" y1="71.72" x2="87.02" y2="71.72" style="fill: #fff"/>
          <line x1="72.27" y1="79.42" x2="97.43" y2="79.42" style="fill: #fff"/>
          <g>
            <rect x="89.05" y="4.24" width="156.51" height="124.17" rx="1.89" ry="1.89" style="fill: #fff;stroke: #4e5a60;stroke-linecap: round;stroke-linejoin: round"/>
            <line x1="89.05" y1="18.56" x2="245.56" y2="18.56" style="fill: none;stroke: #4e5a60;stroke-linecap: round;stroke-linejoin: round"/>
            <rect x="122.72" y="9.82" width="113.61" height="2.47" rx="0.79" ry="0.79" style="fill: none;stroke: #4e5a60;stroke-miterlimit: 10"/>
            <line x1="98.6" y1="11.05" x2="100.56" y2="11.05" style="fill: #fff;stroke: #4e5a60;stroke-linecap: round;stroke-linejoin: round"/>
            <line x1="104.95" y1="11.05" x2="106.91" y2="11.05" style="fill: #fff;stroke: #4e5a60;stroke-linecap: round;stroke-linejoin: round"/>
            <line x1="111.3" y1="11.05" x2="113.27" y2="11.05" style="fill: #fff;stroke: #4e5a60;stroke-linecap: round;stroke-linejoin: round"/>
          </g>
          <g>
            <path d="M265.94,121.49l-17.31,10.26a1.43,1.43,0,0,1-2.4-1.06V46.33a1.43,1.43,0,0,0-1.43-1.43h-9.72a1.43,1.43,0,0,1-1-2.44l31.76-31.8a1.43,1.43,0,0,1,2,0L299,42.89a1.43,1.43,0,0,1-1.09,2.42L289.75,45a1.43,1.43,0,0,0-1.49,1.46l1,84.36a1.43,1.43,0,0,1-2.35,1.12l-19.06-10.46A1.43,1.43,0,0,0,265.94,121.49Z" style="fill: #fff;stroke: #4e5a60;stroke-linecap: round;stroke-linejoin: round"/>
            <g>
              <line x1="266.53" y1="57.03" x2="266.53" y2="55.53" style="fill: none;stroke: #4e5a60;stroke-linecap: round;stroke-linejoin: round"/>
              <line x1="266.53" y1="52.24" x2="266.53" y2="40.72" style="fill: none;stroke: #4e5a60;stroke-linecap: round;stroke-linejoin: round;stroke-dasharray: 3.29259991645813,3.29259991645813"/>
              <line x1="266.53" y1="39.07" x2="266.53" y2="37.57" style="fill: none;stroke: #4e5a60;stroke-linecap: round;stroke-linejoin: round"/>
            </g>
            <line x1="266.53" y1="84.68" x2="266.53" y2="50.04" style="fill: none;stroke: #4e5a60;stroke-linecap: round;stroke-linejoin: round"/>
            <path d="M264.86,18.19l1.14-1a1.1,1.1,0,0,1,1.57,0l1.13,1.08" style="fill: none;stroke: #4e5a60;stroke-linecap: round;stroke-linejoin: round"/>
          </g>
          <path d="M106.55,31.83l48.9-11.91a14.89,14.89,0,0,1,6.77-.06L251.3,39.78" style="fill: #fff;stroke: #373e5a;stroke-linecap: round;stroke-linejoin: round"/>
          <g>
            <g id="SOURCE">
              <g style="isolation: isolate">
                <g style="clip-path: url(#clip-path)">
                  <g>
                    <path d="M167.91,130.16a4.48,4.48,0,0,0-4.27,1.23,6.76,6.76,0,0,0-1.77,4.83,10,10,0,0,0,1.75,5.62,7.3,7.3,0,0,0,4.26,3.11,4.5,4.5,0,0,0,4.27-1.22,6.78,6.78,0,0,0,1.77-4.84l.4.09-.4-.09a10,10,0,0,0-1.75-5.61,7.28,7.28,0,0,0-4.27-3.12" style="fill: #fff"/>
                    <path d="M167.91,129.2c-3.76-.83-6.82,2.23-6.83,6.84s3,9,6.8,9.86,6.82-2.22,6.83-6.84l-.39-.09-.4-.09a6.78,6.78,0,0,1-1.77,4.84,4.5,4.5,0,0,1-4.27,1.22,7.3,7.3,0,0,1-4.26-3.11,10,10,0,0,1-1.75-5.62,6.76,6.76,0,0,1,1.77-4.83,4.48,4.48,0,0,1,4.27-1.23,7.28,7.28,0,0,1,4.27,3.12,10,10,0,0,1,1.75,5.61l.4.09.39.09c0-4.61-3-9-6.8-9.86" style="fill: #373e5a"/>
                  </g>
                </g>
              </g>
            </g>
            <g id="SOURCE-2" data-name="SOURCE">
              <g style="isolation: isolate">
                <g style="clip-path: url(#clip-path-2)">
                  <path d="M171.83,128a5.09,5.09,0,0,0-4.36,1,.53.53,0,0,0-.05.66.49.49,0,0,0,.3.24.28.28,0,0,0,.25-.06,4.51,4.51,0,0,1,3.86-.85,7.28,7.28,0,0,1,4.27,3.11,10,10,0,0,1,1.75,5.62c0,3.61-2.12,6.14-4.92,6.17-.21,0-.35.22-.31.49a.58.58,0,0,0,.39.48h.07c3.16,0,5.55-2.91,5.55-7,0-4.62-3-9-6.8-9.86" style="fill: #373e5a"/>
                </g>
              </g>
            </g>
            <path d="M165.45,129.72l4.5-1.27" style="fill: none;stroke: #373e5a;stroke-linecap: round;stroke-linejoin: round"/>
            <path d="M170.27,145.42c.3-.07,4.6-1.46,4.6-1.46" style="fill: none;stroke: #373e5a;stroke-linecap: round;stroke-linejoin: round"/>
          </g>
          <path d="M154.67,24.78l5,16.67L169,72.58a4.29,4.29,0,0,1,.19,1.25,3.18,3.18,0,0,1-.59,1.93l-5.13,6.87a7.35,7.35,0,0,0-1.34,4.43,10.28,10.28,0,0,0,1.85,5.8l2.83,4a7.53,7.53,0,0,0,4.45,3.18l49.25,10.47c1,.21,1.78-.58,1.77-1.77a2.59,2.59,0,0,0-1.78-2.53l-2.43-.52-46.82-10a3.29,3.29,0,0,1-1.94-1.39l-2.82-4a4.45,4.45,0,0,1-.81-2.53,3.18,3.18,0,0,1,.59-1.93L171.43,79a7.38,7.38,0,0,0,1.34-4.44,10,10,0,0,0-.43-2.86L165,47.31,158,24.1" style="fill: #fff;stroke: #373e5a;stroke-miterlimit: 10"/>
          <path d="M107.2,36.16l3.9,13,12,39.92a4.51,4.51,0,0,1,.19,1.25,3.18,3.18,0,0,1-.59,1.93l-5.13,6.87a7.37,7.37,0,0,0-1.34,4.43,10.3,10.3,0,0,0,1.85,5.8l2.83,4a7.57,7.57,0,0,0,4.46,3.19L174.6,127c1,.21,1.77-.59,1.77-1.78a2.58,2.58,0,0,0-1.77-2.53l-2.2-.47-47-10a3.29,3.29,0,0,1-1.94-1.39l-2.83-4a4.55,4.55,0,0,1-.81-2.54,3.23,3.23,0,0,1,.59-1.93l5.14-6.86a7.43,7.43,0,0,0,1.34-4.44,10.22,10.22,0,0,0-.43-2.86l-9.74-32.44-6.15-20.47" style="fill: #fff;stroke: #373e5a;stroke-miterlimit: 10"/>
          <polyline points="210.51 34.94 250.52 43.48 228.58 80.55 187.51 91.08 123.33 85.62 110.5 35.05 158.25 23.78 210.51 34.94" style="fill: #fff;stroke: #373e5a;stroke-linecap: round;stroke-linejoin: round"/>
          <polygon points="186.44 91.96 228.58 80.55 250.25 43.96 200.19 52.46 186.44 91.96" style="fill: #fff;stroke: #373e5a;stroke-linecap: round;stroke-linejoin: round"/>
          <polygon points="107.14 35.49 122.36 85.53 186.44 91.96 200.19 52.46 107.14 35.49" style="fill: #fff;stroke: #373e5a;stroke-linecap: round;stroke-linejoin: round"/>
          <g>
            <path d="M139.88,8.21,126.65,4.54a3.23,3.23,0,0,0-3.33,2.23,4,4,0,0,0,2.18,4.81l15,4.43" style="fill: #fff;stroke: #373e5a;stroke-linecap: round;stroke-linejoin: round"/>
            <ellipse cx="140.71" cy="12.35" rx="2.87" ry="3.54" transform="translate(-0.16 22.71) rotate(-9.22)" style="fill: #fff;stroke: #373e5a;stroke-linecap: round;stroke-linejoin: round"/>
          </g>
          <g>
            <path d="M142.1,12.69l8.44,2.12a5.54,5.54,0,0,1,3.31,2.63l1.44,2.23" style="fill: #fff;stroke: #373e5a;stroke-miterlimit: 10"/>
            <path d="M152.9,20.18,152,18.67A3.29,3.29,0,0,0,150,17l-8.44-2.12a2.24,2.24,0,0,1,1.09-4.35l8.44,2.12a7.79,7.79,0,0,1,4.64,3.58l1.81,2.62" style="fill: #fff;stroke: #373e5a;stroke-linecap: round;stroke-linejoin: round"/>
          </g>
          <path d="M176.52,47.3l23.49,5,52.14-12.17s2,3.37-3.22,7.46L206.15,58.06a23.31,23.31,0,0,1-10.47.13L109.2,39.43s-6-.44-2.78-7.17l70.1,15" style="fill: #fff;stroke: #373e5a;stroke-linecap: round;stroke-linejoin: round"/>
          <line x1="177.73" y1="54.43" x2="171.13" y2="89.52" style="fill: none;stroke: #373e5a;stroke-linecap: round;stroke-linejoin: round"/>
          <line x1="160.59" y1="51.25" x2="157.08" y2="87.96" style="fill: none;stroke: #373e5a;stroke-linecap: round;stroke-linejoin: round"/>
          <line x1="143.03" y1="47.97" x2="143.63" y2="86.13" style="fill: none;stroke: #373e5a;stroke-linecap: round;stroke-linejoin: round"/>
          <line x1="125.13" y1="44.07" x2="131.17" y2="85.43" style="fill: none;stroke: #373e5a;stroke-linecap: round;stroke-linejoin: round"/>
          <line x1="193.88" y1="68.18" x2="111.82" y2="52.46" style="fill: none;stroke: #373e5a;stroke-linecap: round;stroke-linejoin: round"/>
          <line x1="190.88" y1="77.75" x2="116.5" y2="65.61" style="fill: none;stroke: #373e5a;stroke-linecap: round;stroke-linejoin: round"/>
          <line x1="187.61" y1="85.52" x2="119.14" y2="77.33" style="fill: none;stroke: #373e5a;stroke-linecap: round;stroke-linejoin: round"/>
          <line x1="210.58" y1="35.58" x2="204.19" y2="51.14" style="fill: none;stroke: #373e5a;stroke-linecap: round;stroke-linejoin: round"/>
          <line x1="227.22" y1="39.03" x2="223.43" y2="46.94" style="fill: none;stroke: #373e5a;stroke-linecap: round;stroke-linejoin: round"/>
          <line x1="193.64" y1="31.36" x2="188.94" y2="50.24" style="fill: none;stroke: #373e5a;stroke-linecap: round;stroke-linejoin: round"/>
          <line x1="175.93" y1="28.71" x2="173.24" y2="45.31" style="fill: none;stroke: #373e5a;stroke-linecap: round;stroke-linejoin: round"/>
          <line x1="158.17" y1="24.18" x2="158.43" y2="43.06" style="fill: none;stroke: #373e5a;stroke-linecap: round;stroke-linejoin: round"/>
          <line x1="219.89" y1="47.55" x2="158.59" y2="34.99" style="fill: none;stroke: #373e5a;stroke-linecap: round;stroke-linejoin: round"/>
          <g>
            <path d="M91.77,23.12,78.54,19.46a3.23,3.23,0,0,0-3.33,2.23A4,4,0,0,0,77.4,26.5l15,4.43" style="fill: #fff;stroke: #373e5a;stroke-linecap: round;stroke-linejoin: round"/>
            <ellipse cx="92.6" cy="27.26" rx="2.87" ry="3.54" transform="translate(-3.17 15.19) rotate(-9.22)" style="fill: #fff;stroke: #373e5a;stroke-linecap: round;stroke-linejoin: round"/>
          </g>
          <g>
            <path d="M94,27.61l8.44,2.12a5.54,5.54,0,0,1,3.31,2.63l1.44,2.23" style="fill: #fff;stroke: #373e5a;stroke-miterlimit: 10"/>
            <path d="M105.25,35.73l-1.39-2.15a3.29,3.29,0,0,0-2-1.67l-8.44-2.12a2.24,2.24,0,1,1,1.09-4.35L103,27.56a7.79,7.79,0,0,1,4.64,3.58l1.45,2.24" style="fill: #fff;stroke: #373e5a;stroke-linecap: round;stroke-linejoin: round"/>
          </g>
          <path d="M165.75,125l-.44,6.78v4.3a1.79,1.79,0,1,0,3.58,0V131.9a.64.64,0,0,1,.19-.45l4.82-4.62a1.32,1.32,0,0,1,2.08.57,2.35,2.35,0,0,0-.49-1.43,2.68,2.68,0,0,0-1.69-1l-5.9-1.08a1.88,1.88,0,0,0-2.13,1.12Z" style="fill: #fff;stroke: #373e5a;stroke-linecap: round;stroke-linejoin: round"/>
          <g>
            <g id="SOURCE-3" data-name="SOURCE">
              <g style="isolation: isolate">
                <g style="clip-path: url(#clip-path-3)">
                  <g>
                    <path d="M213,110.76a4.49,4.49,0,0,0-4.27,1.22,6.79,6.79,0,0,0-1.77,4.83,10,10,0,0,0,1.75,5.62,7.28,7.28,0,0,0,4.27,3.11,4.48,4.48,0,0,0,4.27-1.22,6.76,6.76,0,0,0,1.78-4.84l.39.09-.39-.09a10,10,0,0,0-1.76-5.61,7.26,7.26,0,0,0-4.26-3.11" style="fill: #fff"/>
                    <path d="M213,109.8c-3.77-.83-6.82,2.22-6.83,6.83s3,9,6.8,9.86,6.82-2.22,6.83-6.84l-.4-.09-.39-.09a6.76,6.76,0,0,1-1.78,4.84,4.48,4.48,0,0,1-4.27,1.22,7.28,7.28,0,0,1-4.27-3.11,10,10,0,0,1-1.75-5.62,6.79,6.79,0,0,1,1.77-4.83,4.49,4.49,0,0,1,4.27-1.22,7.26,7.26,0,0,1,4.26,3.11,10,10,0,0,1,1.76,5.61l.39.09.4.09c0-4.61-3-9-6.8-9.85" style="fill: #373e5a"/>
                  </g>
                </g>
              </g>
            </g>
            <g id="SOURCE-4" data-name="SOURCE">
              <g style="isolation: isolate">
                <g style="clip-path: url(#clip-path-4)">
                  <path d="M216.92,108.63a5.08,5.08,0,0,0-4.36,1,.54.54,0,0,0-.06.67.5.5,0,0,0,.3.24.3.3,0,0,0,.25-.05,4.46,4.46,0,0,1,3.86-.86,7.3,7.3,0,0,1,4.26,3.11,10,10,0,0,1,1.75,5.62c0,3.61-2.12,6.15-4.91,6.18-.21,0-.35.22-.32.49a.56.56,0,0,0,.38.47h.08c3.16,0,5.55-2.91,5.55-7,0-4.62-3-9-6.79-9.86" style="fill: #373e5a"/>
                </g>
              </g>
            </g>
            <path d="M210.53,110.31,215,109" style="fill: none;stroke: #373e5a;stroke-linecap: round;stroke-linejoin: round"/>
            <path d="M215.35,126c.3-.07,4.6-1.46,4.6-1.46" style="fill: none;stroke: #373e5a;stroke-linecap: round;stroke-linejoin: round"/>
          </g>
          <path d="M210.83,105.63l-.44,6.78v4.3a1.79,1.79,0,1,0,3.58,0V112.5a.64.64,0,0,1,.19-.45l4.82-4.62a1.32,1.32,0,0,1,2.08.57,2.35,2.35,0,0,0-.49-1.43,2.68,2.68,0,0,0-1.69-1l-5.9-1.08a1.88,1.88,0,0,0-2.13,1.12Z" style="fill: #fff;stroke: #373e5a;stroke-linecap: round;stroke-linejoin: round"/>
          <g>
            <g id="SOURCE-5" data-name="SOURCE">
              <g style="isolation: isolate">
                <g style="clip-path: url(#clip-path-5)">
                  <path d="M123.05,120.22c-3.76-.83-6.82,2.23-6.83,6.84s3,9,6.8,9.86,6.82-2.22,6.83-6.84l-.4-.09-.39-.09a6.76,6.76,0,0,1-1.78,4.84A4.47,4.47,0,0,1,123,136a7.25,7.25,0,0,1-4.26-3.11,10,10,0,0,1-1.76-5.62,6.76,6.76,0,0,1,1.78-4.83,4.5,4.5,0,0,1,4.27-1.23,7.3,7.3,0,0,1,4.26,3.11,10,10,0,0,1,1.76,5.61l.39.09.4.09c0-4.61-3-9-6.8-9.86" style="fill: #373e5a"/>
                </g>
              </g>
            </g>
            <g id="SOURCE-6" data-name="SOURCE">
              <g style="isolation: isolate">
                <g style="clip-path: url(#clip-path-6)">
                  <path d="M127,119.06a5.08,5.08,0,0,0-4.36,1,.52.52,0,0,0-.05.66.48.48,0,0,0,.3.24.3.3,0,0,0,.25-.05A4.47,4.47,0,0,1,127,120a7.26,7.26,0,0,1,4.26,3.11,10,10,0,0,1,1.76,5.62c0,3.61-2.13,6.15-4.92,6.17-.21,0-.35.22-.31.49a.56.56,0,0,0,.39.48h.07c3.16,0,5.55-2.91,5.55-7,0-4.62-3-9-6.8-9.86" style="fill: #373e5a"/>
                </g>
              </g>
            </g>
            <path d="M120.59,120.74l4.5-1.27" style="fill: none;stroke: #373e5a;stroke-linecap: round;stroke-linejoin: round"/>
            <path d="M125.41,136.45c.3-.07,4.6-1.46,4.6-1.46" style="fill: none;stroke: #373e5a;stroke-linecap: round;stroke-linejoin: round"/>
          </g>
          <path d="M120.89,116.06l-.44,6.78v4.3a1.79,1.79,0,1,0,3.58,0v-4.21a.64.64,0,0,1,.19-.45l4.82-4.62a1.32,1.32,0,0,1,2.08.57,2.35,2.35,0,0,0-.49-1.43,2.68,2.68,0,0,0-1.69-1L123,114.9A1.88,1.88,0,0,0,120.9,116Z" style="fill: #fff;stroke: #373e5a;stroke-linecap: round;stroke-linejoin: round"/>
          <g>
            <g style="isolation: isolate">
              <g style="isolation: isolate">
                <path d="M231.11,71.41l-25.34,7.4a1.07,1.07,0,0,1,.32,0l25.34-7.4A1.07,1.07,0,0,0,231.11,71.41Z" style="fill: #fff"/>
                <g style="clip-path: url(#clip-path-7)">
                  <g style="isolation: isolate">
                    <path d="M206.08,78.77l25.34-7.4h-.07L206,78.77h.07" style="fill: #fff;stroke: #373e5a;stroke-linecap: round;stroke-linejoin: round"/>
                    <path d="M206,78.77l25.34-7.4a1.07,1.07,0,0,0-.26,0l-25.34,7.4a1.07,1.07,0,0,1,.26,0" style="fill: #fff;stroke: #373e5a;stroke-linecap: round;stroke-linejoin: round"/>
                  </g>
                </g>
                <path d="M231.11,71.41l-25.34,7.4a1.07,1.07,0,0,1,.32,0l25.34-7.4A1.07,1.07,0,0,0,231.11,71.41Z" style="fill: none;stroke: #373e5a;stroke-linecap: round;stroke-linejoin: round"/>
              </g>
              <g style="isolation: isolate">
                <path d="M272,147.28l25.34-7.4a1.12,1.12,0,0,0,.79-1.07l-25.34,7.4A1.12,1.12,0,0,1,272,147.28Z" style="fill: #fff"/>
                <g style="clip-path: url(#clip-path-8)">
                  <g style="isolation: isolate">
                    <path d="M272,147.28l25.34-7.4a1.12,1.12,0,0,0,.79-1.07l-25.34,7.4a1.12,1.12,0,0,1-.79,1.07" style="fill: #fff;stroke: #373e5a;stroke-linecap: round;stroke-linejoin: round"/>
                  </g>
                </g>
                <path d="M272,147.28l25.34-7.4a1.12,1.12,0,0,0,.79-1.07l-25.34,7.4A1.12,1.12,0,0,1,272,147.28Z" style="fill: none;stroke: #373e5a;stroke-linecap: round;stroke-linejoin: round"/>
              </g>
              <polygon points="271.75 79.91 297.1 72.52 231.43 71.37 206.08 78.77 271.75 79.91" style="fill: #fff;stroke: #373e5a;stroke-linecap: round;stroke-linejoin: round"/>
              <polygon points="272.75 146.21 298.09 138.81 298.2 73.68 272.86 81.08 272.75 146.21" style="fill: #fff;stroke: #373e5a;stroke-linecap: round;stroke-linejoin: round"/>
              <path d="M206.08,78.77A1.1,1.1,0,0,0,205,79.89L204.86,145a1.14,1.14,0,0,0,1.11,1.15l65.67,1.15a1.11,1.11,0,0,0,1.11-1.12l.11-65.13a1.15,1.15,0,0,0-1.11-1.16Z" style="fill: #fff;stroke: #373e5a;stroke-linecap: round;stroke-linejoin: round"/>
              <g style="isolation: isolate">
                <path d="M272.86,81.08l25.34-7.4a1.15,1.15,0,0,0-1.11-1.16l-25.34,7.4A1.15,1.15,0,0,1,272.86,81.08Z" style="fill: #fff"/>
                <g style="clip-path: url(#clip-path-9)">
                  <g style="isolation: isolate">
                    <path d="M272.86,81.08l25.34-7.4a1.18,1.18,0,0,0-.46-.94l-25.34,7.4a1.18,1.18,0,0,1,.46.94" style="fill: #fff;stroke: #373e5a;stroke-linecap: round;stroke-linejoin: round"/>
                    <path d="M272.4,80.14l25.34-7.4a1.13,1.13,0,0,0-.22-.13L272.18,80a1.13,1.13,0,0,1,.22.13" style="fill: #fff;stroke: #373e5a;stroke-linecap: round;stroke-linejoin: round"/>
                    <path d="M272.18,80l25.34-7.4-.22-.07L272,79.94l.22.07" style="fill: #fff;stroke: #373e5a;stroke-linecap: round;stroke-linejoin: round"/>
                    <path d="M272,79.94l25.34-7.4-.2,0-25.34,7.4.2,0" style="fill: #fff;stroke: #373e5a;stroke-linecap: round;stroke-linejoin: round"/>
                  </g>
                </g>
                <path d="M272.86,81.08l25.34-7.4a1.15,1.15,0,0,0-1.11-1.16l-25.34,7.4A1.15,1.15,0,0,1,272.86,81.08Z" style="fill: none;stroke: #373e5a;stroke-linecap: round;stroke-linejoin: round"/>
              </g>
            </g>
            <polygon points="292.22 75.14 292.34 101.82 282.86 104.75 282.86 77.83 292.22 75.14" style="fill: #fff;stroke: #373e5a;stroke-linecap: round;stroke-linejoin: round"/>
            <polygon points="213.58 76.42 282.74 77.71 292.46 74.79 227.39 73.03 213.58 76.42" style="fill: #fff;stroke: #373e5a;stroke-linecap: round;stroke-linejoin: round"/>
            <line x1="287.98" y1="103.45" x2="287.98" y2="141.61" style="fill: none;stroke: #373e5a;stroke-linecap: round;stroke-linejoin: round"/>
            <g id="Logo_Mark" data-name="Logo Mark">
              <g>
                <path d="M245.94,91a12.07,12.07,0,0,1,4.47.77,12.72,12.72,0,0,1,8,13.6,10.84,10.84,0,0,1,7.87,10.51,11.16,11.16,0,0,1-10.79,11.25,2.34,2.34,0,0,1-2.1-1.23L250,119.66l-3.76,6.41a2.41,2.41,0,0,1-2,1.21,2.36,2.36,0,0,1-2.1-1.23l-5-9.14a2.5,2.5,0,0,1,.93-3.35,2.34,2.34,0,0,1,3.25.9l3,5.48,3.75-6.4a2.45,2.45,0,0,1,2-1.21,2.36,2.36,0,0,1,2.1,1.23l4.62,8.45a6.26,6.26,0,0,0,4.68-6.09,6,6,0,0,0-6-6.06,2.38,2.38,0,0,1-2.4-2.41,2.52,2.52,0,0,1,.19-1,7.93,7.93,0,0,0-4.54-10.15,7.37,7.37,0,0,0-2.73-.46,8.42,8.42,0,0,0-7.65,5.36,2.61,2.61,0,0,0,.15-.93,2.42,2.42,0,0,0-.88-1.84,15.61,15.61,0,0,0-2.38-1.61A13.31,13.31,0,0,1,245.94,91Z" style="fill: #1cb05e"/>
                <path d="M227.5,94.94a15.52,15.52,0,0,1,7.73,1.91,13.17,13.17,0,0,0-1.37,2.69,2.51,2.51,0,0,0-.16.88,2.44,2.44,0,0,0,.85,1.86,10.86,10.86,0,0,0-7-2.43,11.51,11.51,0,0,0-11.12,11.6,11.09,11.09,0,0,0,11.16,11.22l8.29-.14a2.39,2.39,0,0,1,2.41,2.41,2.47,2.47,0,0,1-2.4,2.49l-8.29.14a15.84,15.84,0,0,1-16-16A16.46,16.46,0,0,1,227.5,94.94Z" style="fill: #1cb05e"/>
                <path d="M235.23,96.85a15.61,15.61,0,0,1,2.38,1.61,2.42,2.42,0,0,1,.88,1.84,2.52,2.52,0,0,1-.16.93l-.06.15,0,.08-.06.11-.06.11-.05.07-.1.14,0,.05-.11.13-.07.07-.1.09-.1.07-.09.07-.11.07-.09,0-.12.06-.08,0-.12,0-.1,0-.11,0-.11,0-.11,0-.13,0h-.57l-.11,0-.14,0-.08,0-.18-.05-.05,0-.17-.08-.06,0-.11-.07-.1-.05-.08-.05-.12-.1a2.44,2.44,0,0,1-.89-1.9,2.51,2.51,0,0,1,.16-.88A13.17,13.17,0,0,1,235.23,96.85Z" style="fill: #1cb05e"/>
              </g>
            </g>
          </g>
          <g>
            <g>
              <rect x="200.27" y="133.47" width="16.64" height="3.99" rx="0.92" ry="0.92" style="fill: #fff;stroke: #4e5a60;stroke-miterlimit: 10"/>
              <rect x="201.36" y="137.87" width="16.64" height="3.99" rx="0.92" ry="0.92" style="fill: #fff;stroke: #4e5a60;stroke-miterlimit: 10"/>
              <rect x="200.27" y="142.27" width="16.64" height="3.99" rx="0.92" ry="0.92" style="fill: #fff;stroke: #4e5a60;stroke-miterlimit: 10"/>
              <g>
                <line x1="215.43" y1="134.86" x2="215.43" y2="135.82" style="fill: #fff;stroke: #4e5a60;stroke-linecap: round;stroke-linejoin: round"/>
                <line x1="213.43" y1="134.86" x2="213.43" y2="135.82" style="fill: #fff;stroke: #485257;stroke-linecap: round;stroke-linejoin: round"/>
                <line x1="211.42" y1="134.86" x2="211.42" y2="135.82" style="fill: #fff;stroke: #42494e;stroke-linecap: round;stroke-linejoin: round"/>
                <line x1="209.42" y1="134.86" x2="209.42" y2="135.82" style="fill: #fff;stroke: #3c4145;stroke-linecap: round;stroke-linejoin: round"/>
                <line x1="207.42" y1="134.86" x2="207.42" y2="135.82" style="fill: #fff;stroke: #35383b;stroke-linecap: round;stroke-linejoin: round"/>
                <line x1="205.42" y1="134.86" x2="205.42" y2="135.82" style="fill: #fff;stroke: #2f3032;stroke-linecap: round;stroke-linejoin: round"/>
                <line x1="203.41" y1="134.86" x2="203.41" y2="135.82" style="fill: #fff;stroke: #292729;stroke-linecap: round;stroke-linejoin: round"/>
                <line x1="201.41" y1="134.86" x2="201.41" y2="135.82" style="fill: #fff;stroke: #231f20;stroke-linecap: round;stroke-linejoin: round"/>
              </g>
              <g>
                <line x1="216.36" y1="139.28" x2="216.36" y2="140.23" style="fill: #fff;stroke: #4e5a60;stroke-linecap: round;stroke-linejoin: round"/>
                <line x1="214.36" y1="139.28" x2="214.36" y2="140.23" style="fill: #fff;stroke: #485257;stroke-linecap: round;stroke-linejoin: round"/>
                <line x1="212.36" y1="139.28" x2="212.36" y2="140.23" style="fill: #fff;stroke: #42494e;stroke-linecap: round;stroke-linejoin: round"/>
                <line x1="210.36" y1="139.28" x2="210.36" y2="140.23" style="fill: #fff;stroke: #3c4145;stroke-linecap: round;stroke-linejoin: round"/>
                <line x1="208.35" y1="139.28" x2="208.35" y2="140.23" style="fill: #fff;stroke: #35383b;stroke-linecap: round;stroke-linejoin: round"/>
                <line x1="206.35" y1="139.28" x2="206.35" y2="140.23" style="fill: #fff;stroke: #2f3032;stroke-linecap: round;stroke-linejoin: round"/>
                <line x1="204.35" y1="139.28" x2="204.35" y2="140.23" style="fill: #fff;stroke: #292729;stroke-linecap: round;stroke-linejoin: round"/>
                <line x1="202.35" y1="139.28" x2="202.35" y2="140.23" style="fill: #fff;stroke: #231f20;stroke-linecap: round;stroke-linejoin: round"/>
              </g>
              <g>
                <rect x="201.36" y="129.37" width="16.64" height="3.99" rx="0.92" ry="0.92" style="fill: #fff;stroke: #4e5a60;stroke-miterlimit: 10"/>
                <g>
                  <line x1="216.36" y1="130.78" x2="216.36" y2="131.74" style="fill: #fff;stroke: #4e5a60;stroke-linecap: round;stroke-linejoin: round"/>
                  <line x1="214.36" y1="130.78" x2="214.36" y2="131.74" style="fill: #fff;stroke: #485257;stroke-linecap: round;stroke-linejoin: round"/>
                  <line x1="212.36" y1="130.78" x2="212.36" y2="131.74" style="fill: #fff;stroke: #42494e;stroke-linecap: round;stroke-linejoin: round"/>
                  <line x1="210.36" y1="130.78" x2="210.36" y2="131.74" style="fill: #fff;stroke: #3c4145;stroke-linecap: round;stroke-linejoin: round"/>
                  <line x1="208.35" y1="130.78" x2="208.35" y2="131.74" style="fill: #fff;stroke: #35383b;stroke-linecap: round;stroke-linejoin: round"/>
                  <line x1="206.35" y1="130.78" x2="206.35" y2="131.74" style="fill: #fff;stroke: #2f3032;stroke-linecap: round;stroke-linejoin: round"/>
                  <line x1="204.35" y1="130.78" x2="204.35" y2="131.74" style="fill: #fff;stroke: #292729;stroke-linecap: round;stroke-linejoin: round"/>
                  <line x1="202.35" y1="130.78" x2="202.35" y2="131.74" style="fill: #fff;stroke: #231f20;stroke-linecap: round;stroke-linejoin: round"/>
                </g>
              </g>
              <g>
                <line x1="215.43" y1="143.95" x2="215.43" y2="144.91" style="fill: #fff;stroke: #4e5a60;stroke-linecap: round;stroke-linejoin: round"/>
                <line x1="213.43" y1="143.95" x2="213.43" y2="144.91" style="fill: #fff;stroke: #485257;stroke-linecap: round;stroke-linejoin: round"/>
                <line x1="211.42" y1="143.95" x2="211.42" y2="144.91" style="fill: #fff;stroke: #42494e;stroke-linecap: round;stroke-linejoin: round"/>
                <line x1="209.42" y1="143.95" x2="209.42" y2="144.91" style="fill: #fff;stroke: #3c4145;stroke-linecap: round;stroke-linejoin: round"/>
                <line x1="207.42" y1="143.95" x2="207.42" y2="144.91" style="fill: #fff;stroke: #35383b;stroke-linecap: round;stroke-linejoin: round"/>
                <line x1="205.42" y1="143.95" x2="205.42" y2="144.91" style="fill: #fff;stroke: #2f3032;stroke-linecap: round;stroke-linejoin: round"/>
                <line x1="203.41" y1="143.95" x2="203.41" y2="144.91" style="fill: #fff;stroke: #292729;stroke-linecap: round;stroke-linejoin: round"/>
                <line x1="201.41" y1="143.95" x2="201.41" y2="144.91" style="fill: #fff;stroke: #231f20;stroke-linecap: round;stroke-linejoin: round"/>
              </g>
            </g>
            <g>
              <rect x="190.27" y="133.47" width="16.64" height="3.99" rx="0.92" ry="0.92" style="fill: #fff;stroke: #4e5a60;stroke-miterlimit: 10"/>
              <rect x="191.36" y="137.87" width="16.64" height="3.99" rx="0.92" ry="0.92" style="fill: #fff;stroke: #4e5a60;stroke-miterlimit: 10"/>
              <rect x="190.27" y="142.27" width="16.64" height="3.99" rx="0.92" ry="0.92" style="fill: #fff;stroke: #4e5a60;stroke-miterlimit: 10"/>
              <g>
                <line x1="205.43" y1="134.86" x2="205.43" y2="135.82" style="fill: #fff;stroke: #4e5a60;stroke-linecap: round;stroke-linejoin: round"/>
                <line x1="203.43" y1="134.86" x2="203.43" y2="135.82" style="fill: #fff;stroke: #485257;stroke-linecap: round;stroke-linejoin: round"/>
                <line x1="201.42" y1="134.86" x2="201.42" y2="135.82" style="fill: #fff;stroke: #42494e;stroke-linecap: round;stroke-linejoin: round"/>
                <line x1="199.42" y1="134.86" x2="199.42" y2="135.82" style="fill: #fff;stroke: #3c4145;stroke-linecap: round;stroke-linejoin: round"/>
                <line x1="197.42" y1="134.86" x2="197.42" y2="135.82" style="fill: #fff;stroke: #35383b;stroke-linecap: round;stroke-linejoin: round"/>
                <line x1="195.42" y1="134.86" x2="195.42" y2="135.82" style="fill: #fff;stroke: #2f3032;stroke-linecap: round;stroke-linejoin: round"/>
                <line x1="193.41" y1="134.86" x2="193.41" y2="135.82" style="fill: #fff;stroke: #292729;stroke-linecap: round;stroke-linejoin: round"/>
                <line x1="191.41" y1="134.86" x2="191.41" y2="135.82" style="fill: #fff;stroke: #231f20;stroke-linecap: round;stroke-linejoin: round"/>
              </g>
              <g>
                <line x1="206.36" y1="139.28" x2="206.36" y2="140.23" style="fill: #fff;stroke: #4e5a60;stroke-linecap: round;stroke-linejoin: round"/>
                <line x1="204.36" y1="139.28" x2="204.36" y2="140.23" style="fill: #fff;stroke: #485257;stroke-linecap: round;stroke-linejoin: round"/>
                <line x1="202.36" y1="139.28" x2="202.36" y2="140.23" style="fill: #fff;stroke: #42494e;stroke-linecap: round;stroke-linejoin: round"/>
                <line x1="200.36" y1="139.28" x2="200.36" y2="140.23" style="fill: #fff;stroke: #3c4145;stroke-linecap: round;stroke-linejoin: round"/>
                <line x1="198.35" y1="139.28" x2="198.35" y2="140.23" style="fill: #fff;stroke: #35383b;stroke-linecap: round;stroke-linejoin: round"/>
                <line x1="196.35" y1="139.28" x2="196.35" y2="140.23" style="fill: #fff;stroke: #2f3032;stroke-linecap: round;stroke-linejoin: round"/>
                <line x1="194.35" y1="139.28" x2="194.35" y2="140.23" style="fill: #fff;stroke: #292729;stroke-linecap: round;stroke-linejoin: round"/>
                <line x1="192.35" y1="139.28" x2="192.35" y2="140.23" style="fill: #fff;stroke: #231f20;stroke-linecap: round;stroke-linejoin: round"/>
              </g>
              <g>
                <rect x="191.36" y="129.37" width="16.64" height="3.99" rx="0.92" ry="0.92" style="fill: #fff;stroke: #4e5a60;stroke-miterlimit: 10"/>
                <g>
                  <line x1="206.36" y1="130.78" x2="206.36" y2="131.74" style="fill: #fff;stroke: #4e5a60;stroke-linecap: round;stroke-linejoin: round"/>
                  <line x1="204.36" y1="130.78" x2="204.36" y2="131.74" style="fill: #fff;stroke: #485257;stroke-linecap: round;stroke-linejoin: round"/>
                  <line x1="202.36" y1="130.78" x2="202.36" y2="131.74" style="fill: #fff;stroke: #42494e;stroke-linecap: round;stroke-linejoin: round"/>
                  <line x1="200.36" y1="130.78" x2="200.36" y2="131.74" style="fill: #fff;stroke: #3c4145;stroke-linecap: round;stroke-linejoin: round"/>
                  <line x1="198.35" y1="130.78" x2="198.35" y2="131.74" style="fill: #fff;stroke: #35383b;stroke-linecap: round;stroke-linejoin: round"/>
                  <line x1="196.35" y1="130.78" x2="196.35" y2="131.74" style="fill: #fff;stroke: #2f3032;stroke-linecap: round;stroke-linejoin: round"/>
                  <line x1="194.35" y1="130.78" x2="194.35" y2="131.74" style="fill: #fff;stroke: #292729;stroke-linecap: round;stroke-linejoin: round"/>
                  <line x1="192.35" y1="130.78" x2="192.35" y2="131.74" style="fill: #fff;stroke: #231f20;stroke-linecap: round;stroke-linejoin: round"/>
                </g>
              </g>
              <g>
                <line x1="205.43" y1="143.95" x2="205.43" y2="144.91" style="fill: #fff;stroke: #4e5a60;stroke-linecap: round;stroke-linejoin: round"/>
                <line x1="203.43" y1="143.95" x2="203.43" y2="144.91" style="fill: #fff;stroke: #485257;stroke-linecap: round;stroke-linejoin: round"/>
                <line x1="201.42" y1="143.95" x2="201.42" y2="144.91" style="fill: #fff;stroke: #42494e;stroke-linecap: round;stroke-linejoin: round"/>
                <line x1="199.42" y1="143.95" x2="199.42" y2="144.91" style="fill: #fff;stroke: #3c4145;stroke-linecap: round;stroke-linejoin: round"/>
                <line x1="197.42" y1="143.95" x2="197.42" y2="144.91" style="fill: #fff;stroke: #35383b;stroke-linecap: round;stroke-linejoin: round"/>
                <line x1="195.42" y1="143.95" x2="195.42" y2="144.91" style="fill: #fff;stroke: #2f3032;stroke-linecap: round;stroke-linejoin: round"/>
                <line x1="193.41" y1="143.95" x2="193.41" y2="144.91" style="fill: #fff;stroke: #292729;stroke-linecap: round;stroke-linejoin: round"/>
                <line x1="191.41" y1="143.95" x2="191.41" y2="144.91" style="fill: #fff;stroke: #231f20;stroke-linecap: round;stroke-linejoin: round"/>
              </g>
            </g>
            <g>
              <rect x="190.27" y="116.47" width="16.64" height="3.99" rx="0.92" ry="0.92" style="fill: #fff;stroke: #4e5a60;stroke-miterlimit: 10"/>
              <rect x="191.36" y="120.87" width="16.64" height="3.99" rx="0.92" ry="0.92" style="fill: #fff;stroke: #4e5a60;stroke-miterlimit: 10"/>
              <rect x="190.27" y="125.27" width="16.64" height="3.99" rx="0.92" ry="0.92" style="fill: #fff;stroke: #4e5a60;stroke-miterlimit: 10"/>
              <g>
                <line x1="205.43" y1="117.86" x2="205.43" y2="118.82" style="fill: #fff;stroke: #4e5a60;stroke-linecap: round;stroke-linejoin: round"/>
                <line x1="203.43" y1="117.86" x2="203.43" y2="118.82" style="fill: #fff;stroke: #485257;stroke-linecap: round;stroke-linejoin: round"/>
                <line x1="201.42" y1="117.86" x2="201.42" y2="118.82" style="fill: #fff;stroke: #42494e;stroke-linecap: round;stroke-linejoin: round"/>
                <line x1="199.42" y1="117.86" x2="199.42" y2="118.82" style="fill: #fff;stroke: #3c4145;stroke-linecap: round;stroke-linejoin: round"/>
                <line x1="197.42" y1="117.86" x2="197.42" y2="118.82" style="fill: #fff;stroke: #35383b;stroke-linecap: round;stroke-linejoin: round"/>
                <line x1="195.42" y1="117.86" x2="195.42" y2="118.82" style="fill: #fff;stroke: #2f3032;stroke-linecap: round;stroke-linejoin: round"/>
                <line x1="193.41" y1="117.86" x2="193.41" y2="118.82" style="fill: #fff;stroke: #292729;stroke-linecap: round;stroke-linejoin: round"/>
                <line x1="191.41" y1="117.86" x2="191.41" y2="118.82" style="fill: #fff;stroke: #231f20;stroke-linecap: round;stroke-linejoin: round"/>
              </g>
              <g>
                <line x1="206.36" y1="122.28" x2="206.36" y2="123.23" style="fill: #fff;stroke: #4e5a60;stroke-linecap: round;stroke-linejoin: round"/>
                <line x1="204.36" y1="122.28" x2="204.36" y2="123.23" style="fill: #fff;stroke: #485257;stroke-linecap: round;stroke-linejoin: round"/>
                <line x1="202.36" y1="122.28" x2="202.36" y2="123.23" style="fill: #fff;stroke: #42494e;stroke-linecap: round;stroke-linejoin: round"/>
                <line x1="200.36" y1="122.28" x2="200.36" y2="123.23" style="fill: #fff;stroke: #3c4145;stroke-linecap: round;stroke-linejoin: round"/>
                <line x1="198.35" y1="122.28" x2="198.35" y2="123.23" style="fill: #fff;stroke: #35383b;stroke-linecap: round;stroke-linejoin: round"/>
                <line x1="196.35" y1="122.28" x2="196.35" y2="123.23" style="fill: #fff;stroke: #2f3032;stroke-linecap: round;stroke-linejoin: round"/>
                <line x1="194.35" y1="122.28" x2="194.35" y2="123.23" style="fill: #fff;stroke: #292729;stroke-linecap: round;stroke-linejoin: round"/>
                <line x1="192.35" y1="122.28" x2="192.35" y2="123.23" style="fill: #fff;stroke: #231f20;stroke-linecap: round;stroke-linejoin: round"/>
              </g>
              <g>
                <rect x="191.36" y="112.37" width="16.64" height="3.99" rx="0.92" ry="0.92" style="fill: #fff;stroke: #4e5a60;stroke-miterlimit: 10"/>
                <g>
                  <line x1="206.36" y1="113.78" x2="206.36" y2="114.74" style="fill: #fff;stroke: #4e5a60;stroke-linecap: round;stroke-linejoin: round"/>
                  <line x1="204.36" y1="113.78" x2="204.36" y2="114.74" style="fill: #fff;stroke: #485257;stroke-linecap: round;stroke-linejoin: round"/>
                  <line x1="202.36" y1="113.78" x2="202.36" y2="114.74" style="fill: #fff;stroke: #42494e;stroke-linecap: round;stroke-linejoin: round"/>
                  <line x1="200.36" y1="113.78" x2="200.36" y2="114.74" style="fill: #fff;stroke: #3c4145;stroke-linecap: round;stroke-linejoin: round"/>
                  <line x1="198.35" y1="113.78" x2="198.35" y2="114.74" style="fill: #fff;stroke: #35383b;stroke-linecap: round;stroke-linejoin: round"/>
                  <line x1="196.35" y1="113.78" x2="196.35" y2="114.74" style="fill: #fff;stroke: #2f3032;stroke-linecap: round;stroke-linejoin: round"/>
                  <line x1="194.35" y1="113.78" x2="194.35" y2="114.74" style="fill: #fff;stroke: #292729;stroke-linecap: round;stroke-linejoin: round"/>
                  <line x1="192.35" y1="113.78" x2="192.35" y2="114.74" style="fill: #fff;stroke: #231f20;stroke-linecap: round;stroke-linejoin: round"/>
                </g>
              </g>
              <g>
                <line x1="205.43" y1="126.95" x2="205.43" y2="127.91" style="fill: #fff;stroke: #4e5a60;stroke-linecap: round;stroke-linejoin: round"/>
                <line x1="203.43" y1="126.95" x2="203.43" y2="127.91" style="fill: #fff;stroke: #485257;stroke-linecap: round;stroke-linejoin: round"/>
                <line x1="201.42" y1="126.95" x2="201.42" y2="127.91" style="fill: #fff;stroke: #42494e;stroke-linecap: round;stroke-linejoin: round"/>
                <line x1="199.42" y1="126.95" x2="199.42" y2="127.91" style="fill: #fff;stroke: #3c4145;stroke-linecap: round;stroke-linejoin: round"/>
                <line x1="197.42" y1="126.95" x2="197.42" y2="127.91" style="fill: #fff;stroke: #35383b;stroke-linecap: round;stroke-linejoin: round"/>
                <line x1="195.42" y1="126.95" x2="195.42" y2="127.91" style="fill: #fff;stroke: #2f3032;stroke-linecap: round;stroke-linejoin: round"/>
                <line x1="193.41" y1="126.95" x2="193.41" y2="127.91" style="fill: #fff;stroke: #292729;stroke-linecap: round;stroke-linejoin: round"/>
                <line x1="191.41" y1="126.95" x2="191.41" y2="127.91" style="fill: #fff;stroke: #231f20;stroke-linecap: round;stroke-linejoin: round"/>
              </g>
            </g>
          </g>
          <g>
            <path d="M125.11,141C63.36,150.1,2.76,141,2.76,141S.5,140.48.5,139.87V126c0-12.81,0-24.91,21-31.82,13.84-4.54,21.33-9.79,24.85-17.5a47.11,47.11,0,0,1-4.92-7.43l0-.07a65.84,65.84,0,0,1-4-14.06,24.2,24.2,0,0,1-1.91-2.91,13.56,13.56,0,0,1-2.24-5.94l0-.54c-.18-6-.06-9.44,1.15-10.68a1.8,1.8,0,0,1,.59-.41c-1-2.87-1.8-7.4-.35-11A43.3,43.3,0,0,1,37.44,18l-1,0a1.12,1.12,0,0,1-.59-2.06s1.49-1,4.23-5A23.37,23.37,0,0,1,54.84.87a27.37,27.37,0,0,1,9.25.08A27.37,27.37,0,0,1,73.35.87a23.37,23.37,0,0,1,14.76,10c2.74,3.93,4.22,5,4.24,5a1.12,1.12,0,0,1-.6,2l-1,0a43.3,43.3,0,0,1,2.74,5.67c1.45,3.57.69,8.1-.35,11a1.8,1.8,0,0,1,.59.41c1.2,1.24,1.33,4.71,1.15,10.68l0,.54a13.55,13.55,0,0,1-2.24,5.94,24.2,24.2,0,0,1-1.91,2.91,65.84,65.84,0,0,1-4,14.06l0,.07a47.56,47.56,0,0,1-5.83,8.53c3.72,7.12,11,12,24.31,16.39,21.07,6.9,21.06,19,21,31.82v13a3.28,3.28,0,0,1-.22,1.22A1.36,1.36,0,0,1,125.11,141Z" style="fill: #fff;stroke: #373e5a;stroke-miterlimit: 10"/>
            <path d="M112.93,129.68s1.83,4.63,1.56,12.7" style="fill: none;stroke: #373e5a;stroke-linecap: round;stroke-linejoin: round"/>
            <path d="M14.12,129.68s-1.83,4.63-1.56,12.7" style="fill: none;stroke: #373e5a;stroke-linecap: round;stroke-linejoin: round"/>
          </g>
          <g>
            <polygon points="306.44 129.99 302.6 131.91 301.41 136.53 303.8 140.22 302.74 142.12 298.49 141.74 295.49 144.88 295.85 149.34 294.04 150.45 290.52 147.94 286.11 149.19 284.28 153.22 282.18 153.22 280.35 149.19 275.94 147.94 272.42 150.45 270.61 149.34 270.97 144.88 267.97 141.74 263.72 142.12 262.66 140.22 265.05 136.53 263.86 131.91 260.02 129.99 260.02 127.79 263.86 125.87 265.05 121.25 262.66 117.56 263.72 115.66 267.97 116.04 270.97 112.9 270.61 108.44 272.42 107.33 275.94 109.84 280.35 108.59 282.18 104.56 284.28 104.56 286.11 108.59 290.52 109.84 294.04 107.33 295.85 108.44 295.49 112.9 298.49 116.04 302.74 115.66 303.8 117.56 301.41 121.25 302.6 125.87 306.44 127.79 306.44 129.99" style="fill: #fff;stroke: #fff;stroke-miterlimit: 10;stroke-width: 5px"/>
            <polygon points="306.44 129.99 302.6 131.91 301.41 136.53 303.8 140.22 302.74 142.12 298.49 141.74 295.49 144.88 295.85 149.34 294.04 150.45 290.52 147.94 286.11 149.19 284.28 153.22 282.18 153.22 280.35 149.19 275.94 147.94 272.42 150.45 270.61 149.34 270.97 144.88 267.97 141.74 263.72 142.12 262.66 140.22 265.05 136.53 263.86 131.91 260.02 129.99 260.02 127.79 263.86 125.87 265.05 121.25 262.66 117.56 263.72 115.66 267.97 116.04 270.97 112.9 270.61 108.44 272.42 107.33 275.94 109.84 280.35 108.59 282.18 104.56 284.28 104.56 286.11 108.59 290.52 109.84 294.04 107.33 295.85 108.44 295.49 112.9 298.49 116.04 302.74 115.66 303.8 117.56 301.41 121.25 302.6 125.87 306.44 127.79 306.44 129.99" style="fill: #fff;stroke: #373e5a;stroke-miterlimit: 10"/>
            <ellipse cx="283.23" cy="128.89" rx="14.79" ry="15.5" style="fill: none;stroke: #373e5a;stroke-linecap: round;stroke-linejoin: round;stroke-dasharray: 2.003669261932373,3.0055038928985596"/>
            <ellipse cx="283.23" cy="128.89" rx="11.05" ry="11.58" style="fill: none;stroke: #373e5a;stroke-miterlimit: 10"/>
            <path d="M274.46,135.79a12,12,0,0,1-1.12-5.08,11.32,11.32,0,0,1,11-11.58,10.85,10.85,0,0,1,8.64,4.36" style="fill: none;stroke: #373e5a;stroke-miterlimit: 10"/>
          </g>
        </g>
      </g>
    </g>
  </g>
</svg>
