<svg xmlns="http://www.w3.org/2000/svg" width="431.17" height="281.55" viewBox="0 0 431.17 281.55">
  <title>icon-thief</title>
  <g id="Layer_2" data-name="Layer 2">
    <g id="Home_-_1200" data-name="Home - 1200">
      <g id="Web_Security" data-name="Web Security">
        <g id="Illustration">
          <g id="Hacker">
            <g id="Hacker-2" data-name="Hacker">
              <path d="M304.88,158a71,71,0,0,0,12,4.52c5.06,1.34,13.55,1.52,18,4.28,1.85,1.13,2.86,4.75,4.82,5.53,2.37,1,2.19-.2,5.28-.94,5.11-1.23,9.17-.44,14.75.26A94.74,94.74,0,0,1,388,179.16c9.21,4,22,7.31,29.93,13.37,5.66,4.31,11.25,11.88,11.74,18.86.94,13.36,0,27.12,0,40.52,0,3.36,2.31,20.7-.14,23-.94.89-7.12,0-8.33,0H2.19c.24-7-.52-12.42,3-18.22,5.09-8.4,11.77-16.18,17.55-24.12,3.86-5.3,7.69-10,10.23-16,3.76-8.9,5.16-12.37,12.16-18.92,5.31-5,10.3-9.74,16.22-13.92,4.55-3.22,9-6.73,13.72-9.69,4.27-2.68,3.09-1.54,7.59-2.05,1.49-.17,2.71.92,4,.32,2-.94,3-4.49,4.79-5.85,2.71-2.1,5-2.35,8.65-3.13a232.93,232.93,0,0,0,23.8-6" style="fill: #fff;stroke: #3f4563;stroke-miterlimit: 10"/>
              <polygon points="124.42 158.63 125.85 160.32 88.23 178.57 87.98 183.57 86.85 182.57 85.83 181.93 55.6 176.82 73.79 176.63 79.98 172.45 87.1 174.07 93.57 166.04 117.23 160.95 124.42 158.63" style="fill: #edf0f3"/>
              <path d="M111.74,130.63a38.36,38.36,0,0,1,5.64-18.85l30.9-50.3c10.05-16.37,16.82-33.29,33.3-43.24C189.69,13.35,201.25,2.85,210.51,1c7.7-1.57,27.78,1.22,35,4.14,14.35,5.79,28.9,27,39.39,39.35,9.5,11.16,20.29,22,28.83,33.87,5.5,7.67,6.14,13.89,8.07,23.62,2,10.34,3.22,21.11.19,31.56-2.84,9.8-11.71,17.5-18.34,25.55a339.22,339.22,0,0,1-48,47c-7.29,5.92-16,11.73-24.73,15.34-9.2,3.81-4.69,4-14.67-.71-20.65-9.7-49-17.31-65.27-33.27-10.06-9.84-23.6-23.45-30.74-35.61C117,146.09,111.52,137.36,111.74,130.63Z" style="fill: #fff;stroke: #3f4563;stroke-miterlimit: 10"/>
              <path d="M224,217.44l-49.62-27.06c-14.5-7.91-21.09-15.48-32-28.33C133.8,152,115,137.78,119,123c4.79-18,26.92-19.32,41.51-23.65,16.62-4.93,30.92-8.66,48.09-10.44,18.24-1.9,34.29.81,52.46,4.27,13.23,2.52,31.89,3.76,43.43,10.32,19.45,11.06,9.53,29.29-.88,43.37-9.22,12.47-23,22.26-34.17,33.16C254.53,194.54,241.17,205.88,224,217.44Z" style="fill: #373e5a"/>
              <polygon points="177.4 124.79 202.46 124.79 223.11 108.84 240.31 121.98 263.12 123.9 271.57 134.1 265.33 160.45 240.16 190.19 226.85 194.77 216.73 194.77 204.93 190.28 176.88 160.72 169.75 135.77 177.4 124.79" style="fill: #fff"/>
              <polygon points="208.23 144.2 216.54 149.19 226.56 149.19 235.79 143.57 231.62 153.68 226.28 156.69 217.47 156.69 211.38 152.07 208.23 144.2" style="fill: #373e5a"/>
              <polygon points="221.43 165.25 214.57 162.89 199.65 162.89 199.65 161.76 214.84 161.79 221.49 164.09 231.55 161.76 242.34 161.76 242.34 162.89 231.61 162.89 221.43 165.25" style="fill: #373e5a"/>
              <polygon points="211.38 168.89 220.99 168.89 232.49 168.89 228.74 173.12 220.99 173.12 214.66 175.46 211.38 168.89" style="fill: #373e5a"/>
              <polygon points="221.93 112.9 216.73 135.21 221.93 144.2 225.16 135.77 221.93 112.9" style="fill: #3f4563;stroke: #fff;stroke-linecap: round;stroke-linejoin: round;stroke-width: 0.75px"/>
              <polygon points="173.47 135.77 188.08 161.76 190.89 175.46 179.25 160.47 173.47 135.77" style="fill: #edf0f3"/>
              <polygon points="267.3 135.77 259.44 155.62 249.88 175.46 265.33 160.45 267.3 135.77" style="fill: #edf0f3"/>
              <polygon points="172.29 34.1 155.99 86.92 146.44 87.26 172.29 34.1" style="fill: #edf0f3"/>
              <polygon points="272.3 35.2 296.46 67.22 296.46 79.02 272.3 35.2" style="fill: #edf0f3"/>
              <polygon points="304.81 159.07 312.06 162.63 334.63 167.82 340.5 174.76 347.81 171.32 375.31 175.07 305.21 267.2 258.2 267.2 316.41 218.29 330.02 174.34 304.06 159.95 304.81 159.07" style="fill: #edf0f3"/>
              <polygon points="342.25 233.45 385.25 181.18 415.67 194.77 398.25 194.77 342.25 233.45" style="fill: #373e5a"/>
              <polygon points="34.88 206.78 47.32 222.79 75.95 241.46 80.92 260.12 61.07 241.46 28.66 222.79 34.88 206.78" style="fill: #373e5a"/>
              <polygon points="0 262.18 22.58 260.12 57.32 281.55 25.44 269.22 0 262.18" style="fill: #373e5a"/>
              <polygon points="221.13 165.09 220.88 168.34 212.5 168.34 199.65 162.89 214.57 162.89 221.13 165.09" style="fill: #edf0f3"/>
            </g>
          </g>
        </g>
      </g>
    </g>
  </g>
</svg>
