<svg id="web_security" data-name="web security" xmlns="http://www.w3.org/2000/svg" viewBox="0 0 609 356"><defs><style>.p-stroke{fill:#fff;stroke:#373e5a;stroke-linecap:round;stroke-linejoin:round;stroke-width:1.5px;vector-effect:non-scaling-stroke;}.fill-blue{fill:#373e5a;}</style></defs><title>web-security</title><path id="computer" class="p-stroke" d="M484.83,268.23H468.25m-3.1-8.56h16.58M491,276.79H474.46M461,268.23H444.38m13.48-8.56H441.28m25.89,17.12H450.59m-30.07-8.56h16.58m-3.1-8.56H417.41m25.89,17.12H426.72m-13.5-8.56H396.65m13.48-8.56H393.54m9.31,17.12h16.58m-406,74.08H595.18M498.44,22.16H109.29V233.07H498.44Zm-191,312.71H.73s3.79,15.51,24,20.91H584c20.22-5.4,24-20.91,24-20.91ZM281.56,336a11,11,0,0,0,7.13,5.28h31.38a10.88,10.88,0,0,0,7.28-5.57m-229-49H515.21l-31.82-37.09H130.15ZM227.9,268.23h16.58M231,259.67h16.58M221.7,276.79h112m-82-8.56h16.58m-13.48-8.56h16.58m-25.89,17.12h16.58m13.5-8.56h16.58m-13.48-8.56h16.58m-25.89,17.12H286m13.5-8.56h16.58m-13.48-8.56h16.58M293.3,276.79h16.58m74.71-8.56H368m13.48-8.56H364.9m25.89,17.12H374.21m-13.5-8.56H344.14m13.48-8.56H341m25.89,17.12H350.34m-13.5-8.56H320.27m13.48-8.56H317.17m25.89,17.12H326.48m-30.07-8.56H313m-19.68-8.56h16.58m9.31,17.12H302.61m-175-8.56h16.58m-13.48-8.56h16.58m-25.89,17.12H138m13.5-8.56H168.1m-13.48-8.56h16.58m-25.89,17.12H161.9m13.5-8.56H192m-13.48-8.56h16.58m-25.89,17.12h16.58m13.5-8.56h16.58m-13.48-8.56h16.58m-25.89,17.12h16.58m-25.95,42.08H425.08l-10.42-17.47-216.28.36-14.69,17.12M608,334.52l-84.87-81.06V20.73S526.82.42,500.49.42H103.85C77.53.42,81.19,20.73,81.19,20.73V253.46L.73,334.87"/><g id="crack"><path class="p-stroke" d="M197.66,91.1l.59-15.33-13-10m-48,102,24-21,3-26L178,114.44m8.24,4.72-10,25.62,1,25,8,25-12,23m41-2-5-28,7-27L205.1,131m-13.67,1.89.82,16.84-6,12,8,10m37.5-92.5L218,82.5l-6.33,10-3.9,2.09m25.39,4.46-6.77,2.82-7.9-2.77-8.07,9.7m-101.18-39,27,11,22-2,5,10L183.32,87m314.6,122.75-23.67-15-50,4L254.38,108.65l-14.62,3.25-28.87-.25M155.3,76.38l-18-14.61-27-2m56.9,43.77-20.9,9.23-25-1-12,23m61.91-31.39-13.91,7.39-12,12,1,12-22,6-15,68.33M237.92,21.77l-31.67,9-9.67,19.67,16.67,16-6.09,17M191.25,91.1,170.58,66.44l10-24.67-35.33-19M156,91l-9.42-.58-3.33,4.67"/><polygon class="fill-blue" points="252.42 106.6 240.25 111.27 231.52 111.13 228.13 111.02 215.38 110.77 214.88 108.4 211.97 107.78 216.25 101.65 207.66 100.19 207.71 99.21 209.75 93.4 207.98 93.44 208.58 80.77 198.25 87.44 197.58 80.1 189.74 88.6 176.92 73.77 179.58 86.77 180.68 87.28 177.44 87.58 143.25 67.1 156.03 89.01 153.5 91.1 170.58 93.1 161.92 107.1 177.44 103 178.58 110.43 171.5 117.27 181.11 115.92 183.47 117.37 184.28 124.62 188.02 121.52 192.02 145.03 198.31 123.82 209.25 141.17 206.66 119.91 206.79 119.86 217.25 117.77 215.18 116.72 226.16 112.6 229.21 112.2 240.42 112.94 256.58 110.44 424.25 198.77 252.42 106.6"/></g></svg>