<svg xmlns="http://www.w3.org/2000/svg" width="197.95" height="143.85" viewBox="0 0 197.95 143.85">
  <title>icon-long-green-line</title>
  <g id="Layer_2" data-name="Layer 2">
    <g id="Home_-_1200" data-name="Home - 1200">
      <g id="Hacked_" data-name="Hacked?">
        <g id="Free_Services_Include" data-name="Free Services Include">
          <g id="arrow">
            <g>
              <g>
                <path d="M1.09,139.32c-.13.11,0,.29.36.18l.22-.37Z" style="fill: #3bcb7c"/>
                <path d="M3.77,139.48c.42-.24.9-.6.56-.85-.39.39-.52.28-.94.74-.38.1-.69,0-.64-.12-.12.11-.61,0-.78.27a2.4,2.4,0,0,0,1.8-.26C3.91,139.31,3.79,139.42,3.77,139.48Z" style="fill: #3bcb7c"/>
                <path d="M41.21,133H41A1,1,0,0,0,41.21,133Z" style="fill: #3bcb7c"/>
                <path d="M64.17,127.66c-.17.06-.23.11-.24.14C64.09,127.73,64.22,127.67,64.17,127.66Z" style="fill: #3bcb7c"/>
                <path d="M68.15,126.94l-.23,0A.37.37,0,0,0,68.15,126.94Z" style="fill: #3bcb7c"/>
                <path d="M41.21,133l.64,0C41.87,132.83,41.52,132.93,41.21,133Z" style="fill: #3bcb7c"/>
                <path d="M8.8,137.8a1.32,1.32,0,0,0-.32.14l.31-.09A.3.3,0,0,1,8.8,137.8Z" style="fill: #3bcb7c"/>
                <path d="M31.09,135.3l-.19,0a1,1,0,0,0-.13.16Z" style="fill: #3bcb7c"/>
                <path d="M23.29,136.95c.18,0,.19-.31.23-.45a.62.62,0,0,1-.35.27A.32.32,0,0,0,23.29,136.95Z" style="fill: #3bcb7c"/>
                <path d="M10.75,138.62l-.21.08Z" style="fill: #3bcb7c"/>
                <path d="M36.7,134.22a.21.21,0,0,0,.09.08S36.75,134.25,36.7,134.22Z" style="fill: #3bcb7c"/>
                <path d="M194.79,9.29h0S194.78,9.24,194.79,9.29Z" style="fill: #3bcb7c"/>
                <path d="M193.44.18l.07.11.15,0Z" style="fill: #3bcb7c"/>
                <path d="M75.36,125.32h0C75.15,125.41,75.25,125.38,75.36,125.32Z" style="fill: #3bcb7c"/>
                <path d="M138.26,100.38c-.79.15.94-.88-.2-.57C138.2,99.85,137.34,100.69,138.26,100.38Z" style="fill: #3bcb7c"/>
                <path d="M9,137.8l.32-.06A1.64,1.64,0,0,0,9,137.8Z" style="fill: #3bcb7c"/>
                <path d="M138.06,99.81h0l-.12,0Z" style="fill: #3bcb7c"/>
                <path d="M91.55,120.15a.48.48,0,0,0-.2-.06S91.41,120.14,91.55,120.15Z" style="fill: #3bcb7c"/>
                <path d="M79.37,123.6l.31-.06A1.82,1.82,0,0,0,79.37,123.6Z" style="fill: #3bcb7c"/>
                <path d="M97.64,117.65a1.14,1.14,0,0,0,.44-.14H98A.58.58,0,0,1,97.64,117.65Z" style="fill: #3bcb7c"/>
                <path d="M104.07,115.31h-.14l-.2.09Z" style="fill: #3bcb7c"/>
                <path d="M195.65,29.49a1.18,1.18,0,0,1,.29-.27C195.73,29.3,195.76,28.31,195.65,29.49Z" style="fill: #3bcb7c"/>
                <path d="M8.83,138A.24.24,0,0,1,9,137.8l-.22.05S8.77,137.94,8.83,138Z" style="fill: #3bcb7c"/>
                <path d="M97.17,115.46l1-.33C97.9,115.21,97.53,115.33,97.17,115.46Z" style="fill: #3bcb7c"/>
                <path d="M173.84,71.58l.14-.21A.5.5,0,0,0,173.84,71.58Z" style="fill: #3bcb7c"/>
                <path d="M101.19,114a2.13,2.13,0,0,0,.64,0,.42.42,0,0,0,.09-.11Z" style="fill: #3bcb7c"/>
                <path d="M195.94,29.22h0Z" style="fill: #3bcb7c"/>
                <path d="M195.74,22.19c0,1,.35.48.56.7.08,1.22-.28.55-.48,1a6.19,6.19,0,0,0,.23,1,2.76,2.76,0,0,1,.09.88c-.06,0-.1.15-.16,0,.22.82-.21,2.36.07,3.33a.26.26,0,0,1-.1.11.58.58,0,0,1,.52-.08c0,.46.1.88-.15,1,.05-.28,0-.31-.09-.45l0,.49c-.42.38,0-.66-.26-.7a13.57,13.57,0,0,1-.16,2.75c-.36.09.17-1.67-.29-.78l.31-1.07c-.67.75.15-.65-.55,0-.34,1.41-.1,1.62-.44,3,.13.36.29-.05.42.31-.1,2.1-1.21,1.39-1.12,3a1.58,1.58,0,0,1,0,1.68l-.28-.46c-.39,1.35.37.94-.36,2.27-.06-.29.24-1.08.12-.9-.6.81,0,.7-.25,1.4l-.37,0c-.22.72-.4,1.48-.59,2.27a13.6,13.6,0,0,1-.71,2.37c-.06-.12,0-.42-.29-.11a25.25,25.25,0,0,1-1.29,3c-.25.49-.5,1-.77,1.45l-.88,1.31-.11.81c-.09.16-.28.23-.23,0-.47.64.15.12.07.51s-.43.44-.37.15a25.08,25.08,0,0,1-1,2.52,9.58,9.58,0,0,1-1.57,2.26l.08-.29c-.72.89-.2,1.41-1,2.15l.07-.2A28.53,28.53,0,0,1,180,64.56c.11.55-1.65,1.82-1.3,2.32a15.4,15.4,0,0,0-2.48,1.84c-.38.37-.26.83-.66,1.36l-.24-.2-.37.88-.59.1-.36.51c.18-.17.45-.29.49-.2a5,5,0,0,1-1.09,1.09,1.51,1.51,0,0,1-.81.38l-1.48,1.75c0-.12.2-.42.36-.68-.67,1.06-.39-.08-1,.89.16-.05.07.19.09.25a9.09,9.09,0,0,0-2.09,1.82v-.28c-.64.55-1.25,1.21-1.93,1.82s-1.4,1.23-2.14,1.83c.59-.36.71,0,.3.41l-.38-.11c-.15.38.53-.28.11.38-.58.42-.61,0-.36-.32l-.6.64c-.1,0,0-.21,0-.34-.15.38-1.36.69-1.54,1.29l-.1,0c-1.47,1.2-2.06,1.86-3.33,2.75.14.24-.39.54-.63,1a36.75,36.75,0,0,0-3.26,2c-.71.68-.09.36-.35.75-.2-.17-1.31.65-.83.08-.66.5-1.08.81-1.54,1.18s-1,.72-1.82,1.36c.25,0,.49-.13.43,0-.3.24-.79.37-.81.23l.07-.08c-1.8,1.57-5,2.22-6.31,3.66l.08-.08c-.5.43-1,.84-1.53,1.22-.81.39.38-.42-.29-.24-1.63,1.37-2.94,1.52-4.31,2.6-1.54,0-4.12,2.34-6,2.7l.17.11c-.34.36-.55.15-.88.26.11.1.53-.07.31.14a115.35,115.35,0,0,1-11.2,4.82c-1.38.52-.41,1.17-2.3,1.49l.36-.51c-2.6,1.51-5.64,2.33-8.22,3.77.13-.14.1-.23.36-.34-.66,0-2.11.87-2.05,1.05-.43.14-.16-.13-.46-.12-.63.08-1.35.82-1.75.71-.07,0,.14-.13.24-.19-.34.25-1.78.62-1.32.74-1.08.25-1.93.83-2.81,1-.43.49-1.82.5-1.84,1-.08-.45-1.93.32-2.52.75.17-.21-.61.07-.42-.2-.74.28-1.4.6-1.19.78a4.25,4.25,0,0,0-2,.66,2,2,0,0,1-1.62.32c-2.17.94-4.2,1.76-6.19,2.5-.06-.45,2.22-.75,2-1.18a30.75,30.75,0,0,1-4.78,2c-.51.1.22-.28.36-.4-1.86.79-3.71,1.14-5.35,1.91,0,0,.16-.14.33-.23-.33.13-.81.17-.71.35l.32-.14c.63.14-1.17,1-1.19,1.14.41-.72-1.75.33-1-.64-.21.1-.47.27-.38.39-.34.05-.47,0-.18-.24-1.19.44-.69.53-1.8.83,0-.1.19-.19.27-.34a4.66,4.66,0,0,1-2,.86c0-.07-.09-.12.19-.19-1.59.47-2.59,1.25-4.4,1.55.41-.56-.64,0-.83-.31l-.92.37.43.07a17.17,17.17,0,0,1-2.23.76l.58-.32-1.53.5.91-.11c-.79.42.21.43-.92.64a7.69,7.69,0,0,1-1.32.13h0a3,3,0,0,1-1.42.51c-.19-.08,0-.43-.1-.48-.33.4-1.94.55-2.37,1,.15-.12.11-.31,0-.33l-.28.33c-.41,0-.47,0-.45-.18-1.18.23.48.37-.95.5.1,0,0-.07.26-.16-1.41.23-2.64.8-4,1-.46-.28,1.09-.35.59-.56-1.82.5-3.7,1.34-5.5,1.68l.34,0c-.13.58-1.38.06-2.23.52.21-.09.22-.36.18-.28a42.73,42.73,0,0,0-4.28,1.29l.2-.18c-.75,0-1.92.32-2.72.42-.2.18-.66.25-.34.39-2.57-.27-4.51,1.35-6.78,1.15.26-.05.59-.24.38-.2l-1.8.49c.19.2.27.09.68.19a2.9,2.9,0,0,1-1.15.48c.79-.32-.08-.36-.46-.42.07.06,0,.16,0,.22-1-.21-.07.49-1.42.48l0-.13a7.49,7.49,0,0,1-1.42.48c-.27-.22.49-.23.49-.45-.73.17-1.36.79-2.07.67.3-.14.75-.23,1-.37a3,3,0,0,0-1.4,0h.05l-1.27.11.33,0c-.79.88-1.85.5-3,1.16,1.14-.63.15-.28.19-.59-.33,0-.84,0-.71-.14-.55.34-1,0-1.79.48-.05-.09-.63.1-.54-.16-.75.21.21.14.17.27-1.12.53-2.85.08-4.47.83-1.43.44-1.65.81-3,1.21-.49-.07.32-.42.32-.42a5.41,5.41,0,0,0-2,.34c.13-.11,0-.15-.26-.23-.56.12-.32.42-1.08.4a1.92,1.92,0,0,1,.49-.48c-.65.2-1.27.49-1.94.7-.21-.14.37-.33.59-.48-.76.21-2,.5-2.16.8h.51c-.28.06-.18-.2,0-.29.62-.32,1-.07,1,0l-.48.15c.59.48,1.94-.43,2.93-.57l-.34.48.95-.51c.23.07.42.27-.06.42.74.08.6-.25,1.24-.13.07,0,0,0,0,.08l.67-.24c-.12.11.16.27-.27.28,1.28,0,1.94-.65,2.46-.42l-.1,0c1.69-.43.11-.33,1.33-.9l1,.59.11-.33c.18,0,.53-.06.49.07.62-.32-.14-.11.21-.37.9.13,2.32-.53,2.6-.09.26-.28-.85,0,0-.35.35.47,1-.27,1.85-.17-.19.31-1,.29-.13.4.38-.53,1.53-.16,2.17-.37,0-.36,1.39-.44,2.46-.78a28.71,28.71,0,0,0,3.14-.3l0,.07c.13-.4,1.19-.55,1.94-.78,0,.22-.11.33-.5.52l.72-.15a1.79,1.79,0,0,1,.82-.39l-.13.31a16.45,16.45,0,0,1,3.13-.78c0-.26-1.12-.5.14-.93.08.13.17.35-.16.47a1.54,1.54,0,0,1,.61-.18l-.47.33c.58,0,.25-.25.71-.32,0,.2.36.07.33.24s-.41,0-.56.11a3.5,3.5,0,0,1,1.38,0c-.07-.1-.05-.26.31-.36,1-.21.38.17,1,.15.2-.18.84-.17.8-.46a.58.58,0,0,1,.49.12c.47-.23,2.3-.51,1.68-.7h-.13l.08,0h0c1.56-.6,3.4-.55,5-1.06l0,.1A22.09,22.09,0,0,0,48.6,131c.28-.07.71,0,.61.16a5,5,0,0,1,1.86-.47c-.69.34.29.09-.72.3a4.79,4.79,0,0,0,2.17-.54c-.29.33.79.14,1.22,0l-.71,0a11.76,11.76,0,0,1,1.4-.33l-.17.38c2-.07,3.33-1.5,5-1.2.46-.35-1.09.09-.7-.28a15.09,15.09,0,0,1,2.23,0c1.27-.11,1-.75,2.32-1-.19-.07-.42-.33.49-.7.89-.2,1.21.18.68.43-.21.07-.32.06-.32,0-.27.12-.64.27-.25.3l.08-.15c.47,0,1.68-.35,1.45-.09.64-.29.24-.27-.27-.19,1.18-.15,1.77-.48,3-.69-.2,0-.41-.1-.23-.15,1.75-.33.7-.43,1.84-.8.71,0-.12.48,1,0,.75-.08.24.26,0,.43a8,8,0,0,1,2.65-.53l-.54.25a5.29,5.29,0,0,1,.88-.3l-.39-.14c.34-.05.62-.13.64,0,.3-.24-.37-.31.25-.7.47,0,1.3-.49,1.54-.23-1.41.28.24.26-.92.63a3.14,3.14,0,0,1,.83-.22c.06,0,0,.08-.11.12,1.4-.09.51-.51,1.88-.88-.12.22.41.24.63.14-.55.15-.35-.21.12-.48.92-.11.92-.37,1.38-.5l-.54.1c.13-.23.57-.34,1.15-.59.09.12-.52.27-.29.26.58-.51,1.61-.17,2.49-.67.47,0,.14.31.55.26,1-.55,1.21-.13,2.26-.66-.39-.13-.43-.05.28-.52l-1.77.74,1.06-.7c-.55.17-1.11.51-1.45.58.5-.36.46-.29.14-.39.86.1,1.42-.67,2.36-.71l.15.57c1.38-.16,2.22-1,4-1.42l-.58.08c.15-.3,1-.36,1.55-.63,0,.2.38.16.65.21-.07-.13,1.24-.38,1.27-.8h.84c1.4-.32,1.37-1.06,2.68-1.46-.32.34.31.26-.5.72.43-.16.83-.26.8-.39.29,0,1.11-.69,1.57-.66.15-.15.14-.36.63-.53.07,0,0,.09,0,.09s.71-.4.22-.45c1.54.1,3.7-1.4,5-1.32.92-.41,2-.88,2.88-1.2,0,.08,0,.09-.14.13,1.25-.26.53-.78,1.93-1.1.79,0-.64.44-.18.39.42.54,1.56-.74,2.59-.76l-.2.13c.76-.08,1.57-.92,2.69-1.34,0,0,0,.08,0,.09a14.89,14.89,0,0,1,3.06-1.85c-.23.37-.43.33-.13.48.46-.23-.3-.32.62-.79.36,0,1.1-.18,1.3,0l-.9.39c.6.14,1.16-.5,1.66-.64v.17c1.36-.63,1.23-1,2.71-1.61l-.2,0c.63-.73.76-.12,1.43-.76l.4.25c.49-.34,1.68-1.22,2.58-1.73a15,15,0,0,1-2.05,1.66A7.65,7.65,0,0,0,126,106a2,2,0,0,1-.65.39,6.9,6.9,0,0,1,2.31-1.61c.15.78,2.78-1.11,3.79-.93,1.73-1.08,3.64-1.73,5.71-2.89-1-.12.6-.34.18-.81.46-.3.65-.39.72-.38l1.64-.48c.43,0-.4.37-.28.46,1.08-.54.57,0,1.35-.26-.25-.11.22-.47.86-.73l-1,.22c1.32-1.09,1.54-.25,2.87-1.34l-.38.42c.74-.47,2.76-1.68,3.25-2.53.17,0,.43,0,.12.26,1.82-1,3.67-2.89,5.21-3.49l-.05.21c.31-.24.42-.59.92-.72,0,.06-.05.21.11.12a6.05,6.05,0,0,1,1.18-1l-.27.4c1.77-1,2.32-2.15,3.65-3.22.25.36,1.64-.45,2.34-.86v.07c2-1.29,3-2.74,4.59-4.25a11.73,11.73,0,0,0,2.6-1.72L169.72,79c-.3.17-.19-.29.06-.59.44-.29.83-1.2,1-.85l-.14.12c.55,0,1.25-.78,1.86-1.34l-.27-.47a8.86,8.86,0,0,0,2.89-2.47c.82-1,1.54-1.94,2.19-2.15.26-.48.69-1,.94-1.42l.19.21a18.38,18.38,0,0,0,2.63-3l-.07.42c.64-.79.15-1.53.71-2.27l.5,0c.54-.7,1.16-1.35,1.74-2a13,13,0,0,0,.82-1,7.75,7.75,0,0,0,.59-1.2c0,.06.11.17,0,.42.46-.69,2-2.54,1.35-2.61.33.19,1-1.51,1.41-2.39l.16.27a5,5,0,0,1,.48-2c.16-.22.3-.09.07.18.55-.71.1-.74.74-1.61l0,.44a2,2,0,0,0,.39-1.31c.17-.55.88-1.48,1.17-1.49a1.72,1.72,0,0,1,.24-1.17c.11,0,.09.18.08.28.78-1.32.61-2.21,1.28-3.06a.24.24,0,0,0,.22-.1c-.49,1.11-.9,2-.88,1.9.23.11.67-.78.68.09a9.85,9.85,0,0,1,.79-3,.45.45,0,0,1,.13-.08v.1a1.73,1.73,0,0,0,.2-.57,3.53,3.53,0,0,0,.34-.72c.24,0,.47-1,.64-1.49-.28-.06,0-.65-.44-.15,0-.07,0,.1-.09.41a1.27,1.27,0,0,0,0,.21v0l-.37,1.16a2,2,0,0,1,.33-1.29c-.09-.3-.18-.62-.21-.79.58-.5,1.2-1.66,1.49-1.75l.29-1.16.22-1.23a5.39,5.39,0,0,0,.05-2.07c0-.43.27-.44.39-.57a3.56,3.56,0,0,0,0,.68c.09-.85.56-2.45.19-2.73.34-1,.23.66.42-.8l.08.22a8.94,8.94,0,0,0,.47-3.8,9.31,9.31,0,0,1,.35-4c-.07.22-.1.33-.16.37a15.41,15.41,0,0,0,.21-2.76c0-.93,0-1.87,0-2.8-.14-1.87-.22-3.72-.2-5.53a2.88,2.88,0,0,0-.5-1.71l.26-.26-.52-1a5.69,5.69,0,0,1-.15-2.12,4.89,4.89,0,0,0-.48-2.37l-.14.29c-.1-.68-.68-2.07-.41-2a.48.48,0,0,1-.23-.45l.15-.06c-.23-.52-.51-1-.76-1.53-.31-1.28.69,0,.05-1.84-.29-.66-1.21-1.74-1.2-1.44s.2.72.06.8c-.11-.19-.21-.38-.33-.56-.48.1-1.07-.14-.8,1.37.22.29.43.6.64.9l-.09.4-.32-.84a1.45,1.45,0,0,0,.51,1.09.72.72,0,0,0-.1.51l.75.87c-.14.17-.49-.34-.37.36.34.41.26-.58.62.18-.07.56-.27.46.06,1-.09.11-.2,0-.31-.21.28.48.45,1.35.74,1.57-.14.59.46,1.77,0,1.81a3.68,3.68,0,0,1,.64,1.35c-.67-.8.27,1.84-.32,1.69.61.58.52,2.36.91,3.51a.49.49,0,0,1-.12-.29,5.39,5.39,0,0,1-.14,1.31c.39.05.53,1.09.8,1.64-.34.84-.48-.48-.83-.2.32-.06.38,1.4.63,1.12-.21.63-.09.54-.4.87.5.1.11.58.39,1.1-.26.91-.46.23-.34,1.23C195.89,23.08,195.74,22.19,195.74,22.19Zm-3.91,23.23h0L192,45Zm-.8,1.84c.11-.22.23-.5.36-.79.12,0,.18.08.09.27C191.46,46.61,191.22,47,191,47.27ZM194.46,44c-.07.32-.16.41-.22.43l.15-.55,0,0A.37.37,0,0,1,194.46,44Z" style="fill: #3bcb7c"/>
                <path d="M194.3,43.33a1,1,0,0,1,0-.13l-.12.16,0,.14Z" style="fill: #3bcb7c"/>
                <path d="M40.92,133h0l-.1,0Z" style="fill: #3bcb7c"/>
                <polygon points="175.25 69.83 175.3 69.88 175.37 69.71 175.25 69.83" style="fill: #3bcb7c"/>
                <path d="M29.78,134.27a.28.28,0,0,0-.16,0A.36.36,0,0,0,29.78,134.27Z" style="fill: #3bcb7c"/>
                <path d="M25,135.17l-.69,0A6.86,6.86,0,0,0,25,135.17Z" style="fill: #3bcb7c"/>
                <path d="M21.38,135.73a.29.29,0,0,0,0,.13h0Z" style="fill: #3bcb7c"/>
                <path d="M78.59,121.88l.13-.06C79,121.67,78.81,121.76,78.59,121.88Z" style="fill: #3bcb7c"/>
                <path d="M61.87,127.18a5.46,5.46,0,0,1,.51-.28C62.08,127,61.84,127,61.87,127.18Z" style="fill: #3bcb7c"/>
                <polygon points="97.05 115.5 97.05 115.51 97.17 115.47 97.05 115.5" style="fill: #3bcb7c"/>
                <path d="M63.17,126.69a2.34,2.34,0,0,0-.79.21A3.62,3.62,0,0,0,63.17,126.69Z" style="fill: #3bcb7c"/>
                <path d="M5.54,138.34l-.18,0a.05.05,0,0,1,0,0Z" style="fill: #3bcb7c"/>
                <path d="M5.35,138.41l-.19.07C5.25,138.46,5.32,138.44,5.35,138.41Z" style="fill: #3bcb7c"/>
                <path d="M4.76,138.62l.4-.14A.69.69,0,0,0,4.76,138.62Z" style="fill: #3bcb7c"/>
                <path d="M10.39,137.63l0-.11A.14.14,0,0,0,10.39,137.63Z" style="fill: #3bcb7c"/>
                <path d="M11.86,137.35a6.35,6.35,0,0,0-1.39.09l0,.09C10.63,137.33,11.55,137.58,11.86,137.35Z" style="fill: #3bcb7c"/>
                <path d="M18.21,137.53l-1.25.13c.23.07.54.16,0,.29C18.57,138,16.59,137.77,18.21,137.53Z" style="fill: #3bcb7c"/>
                <path d="M22.06,137c-.65.16,0,.15,0,.22C22.48,137.07,22.58,137,22.06,137Z" style="fill: #3bcb7c"/>
                <path d="M49.51,131.24v.26C50,131.35,49.48,131.41,49.51,131.24Z" style="fill: #3bcb7c"/>
                <polygon points="54.41 128.71 53.88 128.68 53.7 128.96 54.41 128.71" style="fill: #3bcb7c"/>
                <polygon points="57.92 129.75 57.71 129.84 58.53 129.55 57.92 129.75" style="fill: #3bcb7c"/>
                <path d="M103,116l-.26-.24C102.45,115.89,102.5,116.25,103,116Z" style="fill: #3bcb7c"/>
                <path d="M121.79,108.07a1.42,1.42,0,0,0,1.08-.4A10.35,10.35,0,0,0,121.79,108.07Z" style="fill: #3bcb7c"/>
                <polygon points="173.32 75.46 173.09 75.82 173.59 75.22 173.32 75.46" style="fill: #3bcb7c"/>
              </g>
              <path d="M7.12,134.08a.5.5,0,0,1,0,.71l-5.67,5.14,7.05,3a.5.5,0,1,1-.39.92L.31,140.55a.5.5,0,0,1-.14-.83L6.41,134a.5.5,0,0,1,.71,0Z" style="fill: #1fc469"/>
            </g>
          </g>
        </g>
      </g>
    </g>
  </g>
</svg>
