<svg width="50" height="50" viewBox="0 0 50 50"><path id="icon-clock" class="medium-blue" d="M13.71,38.51l-.1-.06a.48.48,0,0,0-.07-.09A17.65,17.65,0,0,1,8.06,20.6a.5.5,0,0,0,0-.2l3.57,4.46a.5.5,0,0,0,.78-.62l-4.3-5.37a.5.5,0,0,0-.7-.08L2,23.09a.5.5,0,0,0,.63.78l4.43-3.55v0a18.65,18.65,0,0,0,5.78,18.76l.11.07a.48.48,0,0,0,.07.09,18.72,18.72,0,0,0,1.63,1.25.5.5,0,1,0,.56-.83A17.78,17.78,0,0,1,13.71,38.51Zm15.71,4.77a18.53,18.53,0,0,1-2,.35h-.06a.5.5,0,0,1-.06-1,17.54,17.54,0,0,0,1.92-.33.5.5,0,0,1,.22,1Zm-9.5-.81a.5.5,0,0,1-.47.34l-.16,0A18.63,18.63,0,0,1,17.37,42a.5.5,0,0,1,.42-.91,17.34,17.34,0,0,0,1.81.72A.5.5,0,0,1,19.91,42.47Zm4.92.79a.5.5,0,0,1-.5.48h0a18.65,18.65,0,0,1-2-.21.5.5,0,0,1,.16-1,17.62,17.62,0,0,0,1.93.2A.5.5,0,0,1,24.84,43.26Zm8.94-.66a26.61,26.61,0,0,0,2.5-1.85,6.66,6.66,0,0,0,1.34-1.47A2.55,2.55,0,0,0,38,37.95a1.35,1.35,0,0,0-.37-1,1.37,1.37,0,0,0-1-.38,1.4,1.4,0,0,0-1.13.49,2.27,2.27,0,0,0-.46,1.4l-1.55-.59a2.81,2.81,0,0,1,1-2,3.39,3.39,0,0,1,2.27-.74,3.51,3.51,0,0,1,1.7.38,2.58,2.58,0,0,1,1,1,2.7,2.7,0,0,1,.35,1.36,3.47,3.47,0,0,1-.91,2.28A12.23,12.23,0,0,1,36,42.42h0q.75-.05,1.57-.05H40v1.44H33.77Zm13-2.09V35.24H44.6l-3.76,5.62v.95h4.28v2h1.63v-2h1.39v-1.3Zm-1.62-2.63v2.63H42.57l1.78-2.61a9.43,9.43,0,0,0,.78-1.42h0ZM33.5,27h-7A2,2,0,0,0,25,25.07V17.5a.5.5,0,0,0-1,0v7.57A2,2,0,1,0,26.22,28H33.5a.5.5,0,0,0,0-1Zm-9,1a1,1,0,1,1,1-1A1,1,0,0,1,24.5,28Zm23.81,1-5.85,3.61a.5.5,0,0,1-.26.07h-.12a.5.5,0,0,1-.31-.22l-3.61-5.85A.5.5,0,0,1,39,26l3,4.82h0A18,18,0,0,0,29.38,7.54q-.52-.13-1.06-.23a.5.5,0,0,1-.4-.58.49.49,0,0,1,.58-.4q.56.11,1.12.24A19,19,0,0,1,43,31.09l4.8-3a.5.5,0,1,1,.52.85Zm-32-20.31a.5.5,0,0,1-.19.68,17.92,17.92,0,0,0-1.64,1.05.5.5,0,1,1-.59-.81,19.16,19.16,0,0,1,1.73-1.11A.5.5,0,0,1,16.29,8.66Zm-4,2.92a.5.5,0,0,1,0,.71A18.35,18.35,0,0,0,11,13.74a.5.5,0,0,1-.78-.62,19.11,19.11,0,0,1,1.37-1.53A.5.5,0,0,1,12.25,11.58ZM25.94,6.51a.49.49,0,0,1-.51.49H25q-.77,0-1.52.06h0a.5.5,0,0,1,0-1Q24.19,6,25,6h.45A.5.5,0,0,1,25.94,6.51Zm-5,.42a.5.5,0,0,1-.36.61,17.59,17.59,0,0,0-1.86.57.49.49,0,0,1-.17,0,.5.5,0,0,1-.17-1,18.81,18.81,0,0,1,2-.61A.5.5,0,0,1,21,6.93Z"/>
</svg>
