<svg xmlns="http://www.w3.org/2000/svg" width="38.66" height="41" viewBox="0 0 38.66 41">
  <title>icon-robot</title>
  <g id="Layer_2" data-name="Layer 2">
    <g id="Home_-_1200" data-name="Home - 1200">
      <g id="First_Module" data-name="First Module">
        <g id="Threats">
          <g id="icon">
            <g>
              <g>
                <path d="M24.45,5.62v4H14.21v-4a5.12,5.12,0,0,1,10.23,0Z" style="fill: #fff;stroke: #3f4563;stroke-miterlimit: 10"/>
                <rect x="14.21" y="9.66" width="10.23" height="2.88" style="fill: #fff;stroke: #3f4563;stroke-miterlimit: 10"/>
                <path d="M19.64,12.54H19A2,2,0,0,1,19.64,12.54Z" style="fill: none;stroke: #3f4563;stroke-miterlimit: 10"/>
                <path d="M25.58,27.77s4.07,0,4.07,5H25.58V31" style="fill: #fff;stroke: #3f4563;stroke-miterlimit: 10"/>
                <path d="M25.58,32.81v5a3.64,3.64,0,0,1,4.07,0v-5Z" style="fill: #fff;stroke: #3f4563;stroke-miterlimit: 10"/>
                <path d="M24,40.5h7.27a3.65,3.65,0,0,0-1.6-2.71A3.65,3.65,0,0,0,24,40.5Z" style="fill: #fff;stroke: #3f4563;stroke-miterlimit: 10"/>
                <path d="M13.08,27.77s-4.07,0-4.07,5h4.07V31" style="fill: #fff;stroke: #3f4563;stroke-miterlimit: 10"/>
                <path d="M22.43,25.52h3.16V31H13.08v-5.5h9.35Z" style="fill: #fff;stroke: #3f4563;stroke-miterlimit: 10"/>
                <rect x="16.23" y="19.37" width="6.19" height="9.83" rx="2.89" ry="2.89" style="fill: #fff;stroke: #3f4563;stroke-miterlimit: 10"/>
                <g>
                  <path d="M19.64,12.55H19A2,2,0,0,1,19.64,12.55Z" style="fill: none;stroke: #3f4563;stroke-miterlimit: 10"/>
                  <path d="M16.23,23.81V22.26a2.89,2.89,0,0,1,2.89-2.89h.42a2.89,2.89,0,0,1,2.89,2.89v1.55h5.79V19.38c0-.6,0-1.15-.07-1.66-.36-4.2-2.12-5-3.08-5.17H13.58c-1,.14-2.71,1-3.08,5.17,0,.5-.07,1.05-.07,1.66v4.43Z" style="fill: #fff;stroke: #3f4563;stroke-miterlimit: 10"/>
                </g>
                <g>
                  <g>
                    <path d="M8.06,26.56l-.25,3.79H6.47V27.09L4.86,26H3.71l-1.61,1.1v3.26H.76L.52,26.56l1.5-1a2.31,2.31,0,0,1,1.25-1.63,2.23,2.23,0,0,1,.86-.23h.17a2.29,2.29,0,0,1,1.08.27,2.37,2.37,0,0,1,.45.31,2.34,2.34,0,0,1,.74,1.29Z" style="fill: #fff;stroke: #3f4563;stroke-miterlimit: 10"/>
                    <path d="M13.58,12.54c-1,.13-2.72,1-3.08,5.17a4.54,4.54,0,0,1-2.07-1.58,5.28,5.28,0,0,1-.85-2,5.94,5.94,0,0,1-.13-1.59Z" style="fill: #fff;stroke: #3f4563;stroke-miterlimit: 10"/>
                    <path d="M8.44,16.14c-1.21,1-2.84,3.29-3.06,7.81a2.3,2.3,0,0,0-1.08-.27H4.12a2.25,2.25,0,0,0-.86.23c.27-5.84,2.69-8.59,4.32-9.78A5.28,5.28,0,0,0,8.44,16.14Z" style="fill: #fff;stroke: #3f4563;stroke-miterlimit: 10"/>
                    <line x1="5.73" y1="16" x2="7.45" y2="17.21" style="fill: none;stroke: #3f4563;stroke-miterlimit: 10"/>
                    <line x1="4.04" y1="19.37" x2="6.01" y2="20.1" style="fill: none;stroke: #3f4563;stroke-miterlimit: 10"/>
                  </g>
                  <g>
                    <path d="M30.6,26.56l.25,3.79h1.34V27.09L33.8,26h1.15l1.61,1.1v3.26H37.9l.25-3.79-1.5-1a2.31,2.31,0,0,0-1.25-1.63,2.23,2.23,0,0,0-.86-.23h-.17a2.29,2.29,0,0,0-1.08.27,2.37,2.37,0,0,0-.45.31,2.34,2.34,0,0,0-.74,1.29Z" style="fill: #fff;stroke: #3f4563;stroke-miterlimit: 10"/>
                    <path d="M25.08,12.54c1,.13,2.72,1,3.08,5.17a4.54,4.54,0,0,0,2.07-1.58,5.28,5.28,0,0,0,.85-2,5.94,5.94,0,0,0,.13-1.59Z" style="fill: #fff;stroke: #3f4563;stroke-miterlimit: 10"/>
                    <path d="M30.22,16.14c1.21,1,2.84,3.29,3.06,7.81a2.3,2.3,0,0,1,1.08-.27h.17a2.25,2.25,0,0,1,.86.23c-.27-5.84-2.69-8.59-4.32-9.78A5.28,5.28,0,0,1,30.22,16.14Z" style="fill: #fff;stroke: #3f4563;stroke-miterlimit: 10"/>
                    <line x1="32.93" y1="16" x2="31.21" y2="17.21" style="fill: none;stroke: #3f4563;stroke-miterlimit: 10"/>
                    <line x1="34.62" y1="19.37" x2="32.65" y2="20.1" style="fill: none;stroke: #3f4563;stroke-miterlimit: 10"/>
                  </g>
                </g>
                <rect x="15.79" y="5.08" width="7.09" height="2.4" style="fill: #fff;stroke: #3f4563;stroke-miterlimit: 10"/>
              </g>
              <path d="M13.08,32.81v5a3.64,3.64,0,0,0-4.07,0v-5Z" style="fill: #fff;stroke: #3f4563;stroke-miterlimit: 10"/>
              <path d="M14.67,40.5H7.4A3.65,3.65,0,0,1,9,37.79a3.65,3.65,0,0,1,5.67,2.71Z" style="fill: #fff;stroke: #3f4563;stroke-miterlimit: 10"/>
            </g>
            <line x1="14.21" y1="15.83" x2="20.79" y2="15.83" style="fill: none;stroke: #3f4563;stroke-linecap: round;stroke-linejoin: round;stroke-dasharray: 2.3181469440460205,3.09086275100708"/>
          </g>
        </g>
      </g>
    </g>
  </g>
</svg>
