<svg xmlns="http://www.w3.org/2000/svg" viewBox="0 0 36.86 35.76"><defs><style>.random-class-1{fill:none;stroke:#373e5a;stroke-miterlimit:10;stroke-opacity:0.3;stroke-width:0.5px;}.random-2{fill:#4e7096;opacity:0.35;}.random-3{fill:#fff;fill-rule:evenodd;}.random-4{opacity:0.4;}.random-5{fill:#2f3449;}</style></defs><title>icon-blue-check-bg</title><g id="Layer_2" data-name="Layer 2"><g id="_1200" data-name="1200"><g id="Technical_Support" data-name="Technical Support"><ellipse class="random-class-1" cx="18.43" cy="17.88" rx="18.18" ry="17.63"/><circle class="random-2" cx="18.74" cy="18.01" r="14.78"/><path class="random-3" d="M29,12.4h0L16.69,25.15h0a.45.45,0,0,1-.32.14.44.44,0,0,1-.32-.13L9.21,18.33h0A.47.47,0,0,1,9.07,18a.47.47,0,0,1,.46-.46.42.42,0,0,1,.32.14h0l6.5,6.5,12-12.41h0a.44.44,0,0,1,.33-.14.45.45,0,0,1,.45.45A.44.44,0,0,1,29,12.4Z"/><g class="random-4"><path class="random-5" d="M12.08,29.34C8.75,26,4,16.85,12,8.9A14.32,14.32,0,0,1,25.9,5.24,14.13,14.13,0,0,0,8.34,7.67a15.06,15.06,0,0,0,0,20.94,13.92,13.92,0,0,0,8.45,3.88A14.5,14.5,0,0,1,12.08,29.34Z"/><path class="random-2" d="M12.08,29.34C8.75,26,4,16.85,12,8.9A14.32,14.32,0,0,1,25.9,5.24,14.13,14.13,0,0,0,8.34,7.67a15.06,15.06,0,0,0,0,20.94,13.92,13.92,0,0,0,8.45,3.88A14.5,14.5,0,0,1,12.08,29.34Z"/></g></g></g></g></svg>