<svg xmlns="http://www.w3.org/2000/svg" viewBox="0 0 50 50"><path class="medium-blue" d="M39.52 34a.61.61 0 0 1-.17-.44.61.61 0 0 1 1-.4.59.59 0 0 1 .16.43.6.6 0 0 1-.62.59.58.58 0 0 1-.37-.18zm3.2 13.7a.54.54 0 0 1-.48.34 21 21 0 0 1-10.57-3.62 24.32 24.32 0 0 1-6-5.66A59.29 59.29 0 0 1 18.42 25h-.12l-8.6-1.6a.5.5 0 0 1-.34-.23l-5-8.3a.5.5 0 0 1 .3-.74l5.83-1.59a14.71 14.71 0 0 1 8.45-6.74l1.54-3.53a.5.5 0 0 1 .87-.09l3.91 5.52 1.81-.45a.51.51 0 0 1 .52.18L33 14.58a.5.5 0 0 1 0 .57l-2 3.2a50.66 50.66 0 0 1 9.16 10.5c5.96 9.8 2.7 18.45 2.56 18.82zM25.88 8.58l1.57 2.21a.51.51 0 0 1 .09.26l.31 4.62c.77.63 1.56 1.32 2.37 2L32 14.91 27 8.3zm-6-2.42l1.82 2.43.65.87.71.94a.5.5 0 0 1 .08.46l-.19.47a.5.5 0 0 1-.31.29 11.09 11.09 0 0 0-1.15.38l-.31.12v.08l.06.07L27 18.51l-.16-2.36-.09-1.36-.24-3.55-1.67-2.4-.63-.84L21 3.49zm-9.15 8.23l2.2 3.31a18 18 0 0 1 1.89-2.7 14.67 14.67 0 0 1 7-4.63l-1.17-1.51L19.1 6.8c-1.31.42-6.36 2.36-8.38 7.58zM18 23.92c-1.16-3.09-2-5.79-2.49-7.46a13.53 13.53 0 0 0-1.39 2c-.14.27-.62.45-.87.59a.51.51 0 0 1-.71-.12l-2.8-4.23a.5.5 0 0 1-.05-.45c.07-.19.15-.36.23-.54l-4.36 1.21 4.54 7.54zm18 13.79c3.1-2 4.91-2.29 5.93-2.09a23.31 23.31 0 0 0-2.68-6.25c-2.81-4.61-7.38-9-11.34-12.34l.19 2.8a.5.5 0 0 1-.86.38l-7.04-7.49a.48.48 0 0 1-.05-.1 14.25 14.25 0 0 0-3.83 2.93l.06.19c1.1 3.86 4.59 15.07 10.11 22.36a23.3 23.3 0 0 0 4.86 4.8c.43-2.28 4.17-4.9 4.65-5.19zm-3.16 6.23c.29-2.15 3.65-4.52 4.1-4.83 2.74-1.81 4.41-2 5.37-1.71l-.11-.61c-.27-.2-1.64-.9-5.65 1.75-1.62 1.08-4.69 3.69-4.26 5.07zm9.66-5.36c-.34-.24-1.68-.83-5 1.36-1.42 1-4.09 3.33-3.61 4.6a20.71 20.71 0 0 0 8 2.46 20.69 20.69 0 0 0 .64-8.43zm-8.67-1.72a.61.61 0 1 0-.6.78.71.71 0 0 0 .19 0 .61.61 0 0 0 .44-.78zM30 39.47a.6.6 0 0 0-.16.84.6.6 0 0 0 .85.16.61.61 0 1 0-.69-1zm6.53-4.06a.61.61 0 0 0 .44-.16.63.63 0 0 0 .19-.43.61.61 0 0 0-.16-.43.63.63 0 0 0-.86 0 .64.64 0 0 0-.19.43.62.62 0 0 0 .16.44.61.61 0 0 0 .44.15z"/></svg>