<svg xmlns="http://www.w3.org/2000/svg" width="40" height="33.45" viewBox="0 0 40 33.45">
  <title>icon-green-cloud</title>
  <g id="Layer_2" data-name="Layer 2">
    <g id="_1200" data-name="1200">
      <g id="Detailed_Features" data-name="Detailed Features">
        <g id="cdn_-_sm" data-name="cdn - sm">
          <path d="M31.3,4.43l-.38.14A7.69,7.69,0,0,0,23.69,3a7.36,7.36,0,0,0-1.18.47,10.14,10.14,0,0,0-10-2.53A9.93,9.93,0,0,0,6.37,6.53a6.58,6.58,0,0,0-1,.22A7.28,7.28,0,0,0,.85,16,7.64,7.64,0,0,0,6,21.18a8.65,8.65,0,0,0,10,4.44,8.19,8.19,0,0,0,5.07-4.55,9.83,9.83,0,0,0,2.55-2.2,7.45,7.45,0,0,0,4.93.22,7.58,7.58,0,0,0,4.68-4.18,4.68,4.68,0,0,0,1.15-.2,5.19,5.19,0,0,0,3.22-6.59A5.19,5.19,0,0,0,31.3,4.43Z" style="fill: #fff;stroke: #1fc469;stroke-linecap: round;stroke-linejoin: round"/>
          <path d="M25.7,21.84h12a1.78,1.78,0,0,1,1.78,1.78V25a1.78,1.78,0,0,1-1.78,1.78H28.25A3.45,3.45,0,0,0,25.83,30V33" style="fill: #fff;stroke: #1fc469;stroke-linecap: round;stroke-linejoin: round"/>
          <rect x="12.31" y="12.03" width="27.19" height="4.96" rx="1.65" ry="1.65" style="fill: #fff;stroke: #1fc469;stroke-linecap: round;stroke-linejoin: round"/>
          <line x1="31.26" y1="14.54" x2="35.49" y2="14.54" style="fill: #fff;stroke: #1fc469;stroke-linecap: round;stroke-linejoin: round;stroke-dasharray: 2.0920705795288086,3.138105869293213"/>
          <rect x="12.31" y="16.95" width="27.19" height="4.96" rx="1.65" ry="1.65" style="fill: #fff;stroke: #1fc469;stroke-linecap: round;stroke-linejoin: round"/>
          <line x1="31.26" y1="19.45" x2="35.49" y2="19.45" style="fill: #fff;stroke: #1fc469;stroke-linecap: round;stroke-linejoin: round;stroke-dasharray: 2.0920705795288086,3.138105869293213"/>
          <path d="M26.1,21.84h-12a1.78,1.78,0,0,0-1.78,1.78V25a1.78,1.78,0,0,0,1.78,1.78h9.47A3.45,3.45,0,0,1,26,30V33" style="fill: #fff;stroke: #1fc469;stroke-linecap: round;stroke-linejoin: round"/>
          <line x1="31.26" y1="24.34" x2="35.49" y2="24.34" style="fill: #fff;stroke: #1fc469;stroke-linecap: round;stroke-linejoin: round;stroke-dasharray: 2.0920705795288086,3.138105869293213"/>
          <path d="M25.6,7.37l-5.35,0a5.31,5.31,0,0,0-3.23,1L12.8,12H25.6" style="fill: #fff;stroke: #1fc469;stroke-linecap: round;stroke-linejoin: round"/>
          <line x1="13.56" y1="31.85" x2="38.09" y2="31.85" style="fill: #fff;stroke: #1fc469;stroke-linecap: round;stroke-linejoin: round"/>
          <path d="M25.58,7.37l5.35,0a5.31,5.31,0,0,1,3.23,1L38.38,12H25.58" style="fill: #fff;stroke: #1fc469;stroke-linecap: round;stroke-linejoin: round"/>
        </g>
      </g>
    </g>
  </g>
</svg>
