<svg id="benefits" xmlns="http://www.w3.org/2000/svg" viewBox="0 0 414 515">
  <g id="protect" class="protect-hover">
    <path class="blue-stroke " d="M207.75.87A14,14,0,0,1,214.41,3c53,33.45,117.08,53.85,184.8,58.75a14.39,14.39,0,0,1,13.46,14.69V228.18c0,7.52.31,15.44,0,22.68h0"/>

    <line class="grey-stroke " opacity="0.2" x1="208.49" y1="102.79" x2="208.49" y2="250.71"/>
    <line class="grey-stroke" opacity="0.2" x1="329.33" y1="250.64" x2="208.43" y2="250.64"/>

    <path class="grey-stroke " opacity="0.4" d="M207.68,51.78a11.23,11.23,0,0,1,5.41,1.7c42.51,26.82,93.85,43.17,148.14,47.09A11.54,11.54,0,0,1,372,112.34s.12,131.8,0,136.76v.5q0,.79-.07,1.57"/>

    <path class="grey-stroke " opacity="0.4" d="M363,251.3q0-.7.07-1.4V119.51a11,11,0,0,0-10.25-11.18C301.26,104.6,252.48,89.06,212.1,63.59A10.55,10.55,0,0,0,207.68,62"/>

    <path class="blue " d="M250.09,184a3.12,3.12,0,0,1,1.08,2.54,5.54,5.54,0,0,1-.72,2.85,4.84,4.84,0,0,1-2.06,1.9,7,7,0,0,1-3.18.67H243l-.68,3.39h-3.2l2.45-12.26H247A4.75,4.75,0,0,1,250.09,184Zm-2.69,4.79a2.2,2.2,0,0,0,.66-1.69,1.33,1.33,0,0,0-.45-1.08,2,2,0,0,0-1.29-.37h-2l-.75,3.76h2A2.56,2.56,0,0,0,247.39,188.78Zm11.85-3-.37,2.85-.46,0a3.41,3.41,0,0,0-2,.61,2.7,2.7,0,0,0-1.11,1.57l-.91,4.56h-3.11l1.89-9.46h3.11l-.3,1.47A4,4,0,0,1,259.25,185.77Zm8,.56a3.92,3.92,0,0,1,1.64,1.52,4.43,4.43,0,0,1,.58,2.29,5.26,5.26,0,0,1-.73,2.76,5,5,0,0,1-2,1.88,6.26,6.26,0,0,1-2.94.67,5.45,5.45,0,0,1-2.5-.54,3.9,3.9,0,0,1-1.64-1.53,4.48,4.48,0,0,1-.58-2.3,5.25,5.25,0,0,1,.73-2.76,4.94,4.94,0,0,1,2-1.87,6.32,6.32,0,0,1,2.95-.67A5.45,5.45,0,0,1,267.27,186.33ZM262.88,189a2.77,2.77,0,0,0-.65,1.91,2.21,2.21,0,0,0,.49,1.5A1.64,1.64,0,0,0,264,193a2.09,2.09,0,0,0,1.64-.73,2.77,2.77,0,0,0,.65-1.91,2.21,2.21,0,0,0-.49-1.5,1.64,1.64,0,0,0-1.31-.57A2.09,2.09,0,0,0,262.88,189Zm11.45,3.06a1.51,1.51,0,0,0,0,.37.52.52,0,0,0,.13.41.56.56,0,0,0,.41.1,3.25,3.25,0,0,0,1.31-.37l.33,2.31a4.89,4.89,0,0,1-1.23.43,6.45,6.45,0,0,1-1.35.15,3,3,0,0,1-2-.66,2.26,2.26,0,0,1-.75-1.79,3.38,3.38,0,0,1,.07-.7l.79-3.93h-1.29l.4-2.06h1.31l.52-2.62H276l-.52,2.62h2.45l-.4,2.06h-2.47Zm11.46-5.77a3.78,3.78,0,0,1,1.6,1.48A4.32,4.32,0,0,1,288,190a7,7,0,0,1-.17,1.42h-6.71a1.79,1.79,0,0,0,.61,1.24,2.14,2.14,0,0,0,1.42.44,3.42,3.42,0,0,0,2.17-.79l1.56,1.7a5.51,5.51,0,0,1-3.85,1.43,6.12,6.12,0,0,1-2.62-.53,4,4,0,0,1-1.73-1.5,4.19,4.19,0,0,1-.61-2.27,5.48,5.48,0,0,1,.69-2.75,5,5,0,0,1,1.91-1.92,5.44,5.44,0,0,1,2.75-.7A5.36,5.36,0,0,1,285.8,186.33Zm-.78,3.13a1.41,1.41,0,0,0-.4-1.06,1.48,1.48,0,0,0-1.08-.39,2,2,0,0,0-1.33.49,3.11,3.11,0,0,0-.91,1.29H285A2.24,2.24,0,0,0,285,189.45Zm5.84,5.46a3.72,3.72,0,0,1-1.54-1.51,4.57,4.57,0,0,1-.54-2.25,5.54,5.54,0,0,1,.69-2.79,4.9,4.9,0,0,1,1.91-1.9,5.65,5.65,0,0,1,2.8-.68,4.93,4.93,0,0,1,2.46.58,3.67,3.67,0,0,1,1.55,1.65l-2.38,1.31a1.85,1.85,0,0,0-.71-.73,2.08,2.08,0,0,0-1-.25,1.94,1.94,0,0,0-1.54.72,2.76,2.76,0,0,0-.61,1.85,2.19,2.19,0,0,0,.46,1.46,1.53,1.53,0,0,0,1.23.55,2.16,2.16,0,0,0,2-1.07l2.15,1.33a4.43,4.43,0,0,1-1.84,1.67,5.94,5.94,0,0,1-2.69.59A4.86,4.86,0,0,1,290.86,194.92Zm12-2.82a1.51,1.51,0,0,0,0,.37.52.52,0,0,0,.13.41.56.56,0,0,0,.41.1,3.25,3.25,0,0,0,1.31-.37l.33,2.31a4.89,4.89,0,0,1-1.23.43,6.45,6.45,0,0,1-1.35.15,3,3,0,0,1-2-.66,2.26,2.26,0,0,1-.75-1.79,3.38,3.38,0,0,1,.07-.7l.79-3.93h-1.29l.4-2.06H301l.52-2.62h3.09l-.52,2.62h2.45l-.4,2.06h-2.47Z"/>
  </g>
  <g id="enhance" class="enhance-hover">
    <path class="blue-stroke" d="M1.77,251q-.57-11.21-.57-22.87V76.42A14.39,14.39,0,0,1,14.66,61.73C82.38,56.84,146.43,36.44,199.46,3A14.28,14.28,0,0,1,208,.87"/>
    <path class="grey-stroke" opacity="0.4" d="M42.46,251q-.39-8.36-.39-17V112.34a11.54,11.54,0,0,1,10.79-11.77C107.15,96.65,158.49,80.3,201,53.48a11.34,11.34,0,0,1,6.09-1.72"/>
    <path class="grey-stroke" opacity="0.4" d="M207.68,62a11.52,11.52,0,0,0-1.37-.08h.09a10.77,10.77,0,0,0-5.79,1.63c-40.39,25.48-89.16,41-140.74,44.74a11,11,0,0,0-10.25,11.18V235.08q0,8.06.36,15.84"/>
    <line class="grey-stroke" opacity="0.2" x1="208.43" y1="250.64" x2="87.65" y2="250.64"/>
    <line class="grey-stroke" opacity="0.2" x1="208.49" y1="102.79" x2="208.49" y2="250.71"/>
    <path class="blue" d="M114.42,185.64H108l-.47,2.29h5.86l-.51,2.54H107l-.47,2.33h6.66l-.51,2.55h-9.84l2.45-12.26h9.67Zm10.25,1a3,3,0,0,1,.87,2.23,4.35,4.35,0,0,1-.09.91l-1.12,5.59h-3.11l1-5.14a2.22,2.22,0,0,0,.05-.45,1.31,1.31,0,0,0-.37-1,1.39,1.39,0,0,0-1-.36,2,2,0,0,0-1.41.59,2.86,2.86,0,0,0-.81,1.54l-1,4.81h-3.11l1.87-9.46h3.11l-.24,1.26a3.62,3.62,0,0,1,2.94-1.38A3.24,3.24,0,0,1,124.67,186.61Zm11.93,0a3,3,0,0,1,.88,2.26,5,5,0,0,1-.09.87l-1.14,5.59h-3.09l1-5.14a2.16,2.16,0,0,0,.05-.45,1.31,1.31,0,0,0-.37-1,1.39,1.39,0,0,0-1-.36,2,2,0,0,0-1.41.59,2.76,2.76,0,0,0-.79,1.54l-1,4.81h-3.11l2.55-13h3.13l-.94,4.77a3.58,3.58,0,0,1,2.92-1.38A3.26,3.26,0,0,1,136.6,186.62Zm3.7,8.32a3.51,3.51,0,0,1-1.3-1.47,4.86,4.86,0,0,1-.46-2.17,6,6,0,0,1,.66-2.8,5.14,5.14,0,0,1,1.8-2,4.59,4.59,0,0,1,2.53-.73,3,3,0,0,1,2.94,1.68l.31-1.57h3.09L148,195.35h-3.11l.23-1.12a4,4,0,0,1-2.9,1.24A3.52,3.52,0,0,1,140.3,194.95Zm4.32-2.24a2.56,2.56,0,0,0,.88-1,3,3,0,0,0,.32-1.38,2.05,2.05,0,0,0-.48-1.43,1.65,1.65,0,0,0-1.29-.53,2.08,2.08,0,0,0-1.2.38,2.67,2.67,0,0,0-.87,1,2.94,2.94,0,0,0-.32,1.36,2,2,0,0,0,.48,1.42,1.62,1.62,0,0,0,1.27.53A2.15,2.15,0,0,0,144.62,192.71Zm15.81-6.09a3,3,0,0,1,.87,2.23,4.28,4.28,0,0,1-.09.91l-1.12,5.59H157l1-5.14a2.16,2.16,0,0,0,.05-.45,1.32,1.32,0,0,0-.37-1,1.39,1.39,0,0,0-1-.36,2,2,0,0,0-1.41.59,2.85,2.85,0,0,0-.81,1.54l-1,4.81h-3.11l1.87-9.46h3.11l-.25,1.26a3.63,3.63,0,0,1,2.94-1.38A3.24,3.24,0,0,1,160.42,186.61Zm4.06,8.3a3.73,3.73,0,0,1-1.54-1.51,4.58,4.58,0,0,1-.54-2.25,5.54,5.54,0,0,1,.69-2.79,4.9,4.9,0,0,1,1.91-1.9,5.65,5.65,0,0,1,2.8-.68,4.94,4.94,0,0,1,2.46.58A3.66,3.66,0,0,1,171.8,188l-2.38,1.31a1.84,1.84,0,0,0-.71-.73,2.08,2.08,0,0,0-1-.25,1.94,1.94,0,0,0-1.54.72,2.76,2.76,0,0,0-.61,1.85,2.2,2.2,0,0,0,.46,1.46,1.53,1.53,0,0,0,1.23.55,2.16,2.16,0,0,0,2-1.07l2.15,1.33a4.43,4.43,0,0,1-1.84,1.67,5.94,5.94,0,0,1-2.69.59A4.86,4.86,0,0,1,164.48,194.92ZM180,186.33a3.78,3.78,0,0,1,1.6,1.48,4.32,4.32,0,0,1,.56,2.23,7,7,0,0,1-.17,1.42h-6.71a1.79,1.79,0,0,0,.61,1.24,2.14,2.14,0,0,0,1.42.44,3.42,3.42,0,0,0,2.17-.79l1.56,1.7a5.51,5.51,0,0,1-3.85,1.43,6.12,6.12,0,0,1-2.62-.53,4,4,0,0,1-1.73-1.5,4.19,4.19,0,0,1-.61-2.27,5.48,5.48,0,0,1,.69-2.75,5,5,0,0,1,1.92-1.92,5.43,5.43,0,0,1,2.74-.7A5.35,5.35,0,0,1,180,186.33Zm-.78,3.13a1.41,1.41,0,0,0-.4-1.06,1.48,1.48,0,0,0-1.08-.39,2,2,0,0,0-1.33.49,3.1,3.1,0,0,0-.91,1.29h3.71A2.24,2.24,0,0,0,179.27,189.45Z"/>
  </g>
  <g id="respond" class="respond-hover">
    <path class="blue-stroke" d="M207.83,513.83a17.71,17.71,0,0,1-3.07.33,11.2,11.2,0,0,1-5.3-.82C71.46,463.6,8.31,379.62,1.77,251"/>
    <path class="grey-stroke" opacity="0.4" d="M207.77,463a14.37,14.37,0,0,1-2.52.27,9,9,0,0,1-4.25-.65C98,422.55,47.35,354.82,42.46,251"/>
    <path class="grey-stroke" opacity="0.4" d="M50,250.92c4.55,98.8,52.63,163.24,150.63,201.32a8.53,8.53,0,0,0,4,.62,15.85,15.85,0,0,0,3.2-.42"/>
    <line class="grey-stroke" opacity="0.2" x1="208.49" y1="250.71" x2="208.49" y2="380.84"/>
    <line class="grey-stroke" opacity="0.2" x1="208.49" y1="380.91" x2="208.49" y2="381.91"/>
    <line class="grey-dash1" opacity="0.2" x1="208.49" y1="384.93" x2="208.49" y2="423.71"/>
    <line class="grey-stroke" opacity="0.2" x1="208.49" y1="425.22" x2="208.49" y2="426.22"/>
    <line class="grey-stroke" opacity="0.2" x1="208.43" y1="250.64" x2="87.65" y2="250.64"/>
    <path class="blue" d="M114.34,311.18a4.92,4.92,0,0,1-2.26,1.9l1.71,4h-3.64l-1.1-3.39h-2.36L106,317h-3.2l2.45-12.26h5.51a5,5,0,0,1,3.23.91,3.09,3.09,0,0,1,1.13,2.55A5.38,5.38,0,0,1,114.34,311.18Zm-7.13-.08h2.31a2.61,2.61,0,0,0,1.84-.61,2.19,2.19,0,0,0,.66-1.7,1.33,1.33,0,0,0-.45-1.08,1.94,1.94,0,0,0-1.29-.38H108ZM123.43,308a3.78,3.78,0,0,1,1.6,1.48,4.32,4.32,0,0,1,.56,2.23,6.91,6.91,0,0,1-.17,1.42h-6.71a1.79,1.79,0,0,0,.61,1.24,2.14,2.14,0,0,0,1.42.44,3.43,3.43,0,0,0,2.17-.79l1.56,1.7a5.51,5.51,0,0,1-3.85,1.43,6.11,6.11,0,0,1-2.62-.53,4,4,0,0,1-1.73-1.5,4.19,4.19,0,0,1-.61-2.27,5.48,5.48,0,0,1,.69-2.75,5,5,0,0,1,1.91-1.92,5.43,5.43,0,0,1,2.75-.7A5.35,5.35,0,0,1,123.43,308Zm-.78,3.13a1.41,1.41,0,0,0-.4-1.06,1.49,1.49,0,0,0-1.08-.39,2,2,0,0,0-1.33.49,3.1,3.1,0,0,0-.91,1.29h3.71A2.39,2.39,0,0,0,122.66,311.15Zm5.13,5.53a6.24,6.24,0,0,1-2.14-1.32l1.29-1.85a6.22,6.22,0,0,0,1.63,1.07,4.06,4.06,0,0,0,1.66.4,1.34,1.34,0,0,0,.76-.18.59.59,0,0,0,.27-.52.57.57,0,0,0-.33-.48,7.25,7.25,0,0,0-1-.48,13.87,13.87,0,0,1-1.4-.63,2.9,2.9,0,0,1-1-.83,2.1,2.1,0,0,1-.4-1.3,2.81,2.81,0,0,1,.47-1.61,3.07,3.07,0,0,1,1.32-1.08,4.66,4.66,0,0,1,1.95-.38,7,7,0,0,1,2.33.41,7.43,7.43,0,0,1,2.09,1.13l-1.36,1.85a8.65,8.65,0,0,0-1.6-.89,3.64,3.64,0,0,0-1.36-.33,1.09,1.09,0,0,0-.65.18.55.55,0,0,0-.26.46.59.59,0,0,0,.34.49,7,7,0,0,0,1.06.49,15.4,15.4,0,0,1,1.43.66,3.06,3.06,0,0,1,1,.84,2.1,2.1,0,0,1,.41,1.32,2.74,2.74,0,0,1-.49,1.61,3.18,3.18,0,0,1-1.36,1.08,4.91,4.91,0,0,1-2,.38A7.36,7.36,0,0,1,127.79,316.68ZM145.05,308a3.52,3.52,0,0,1,1.3,1.46,4.8,4.8,0,0,1,.46,2.16,6,6,0,0,1-.67,2.81,5.18,5.18,0,0,1-1.81,2,4.59,4.59,0,0,1-2.53.73,3.53,3.53,0,0,1-1.79-.43,2.74,2.74,0,0,1-1.13-1.25l-1,4.95h-3.11l2.57-12.85h3.09l-.23,1.12a4.16,4.16,0,0,1,1.35-.91,4,4,0,0,1,1.57-.31A3.52,3.52,0,0,1,145.05,308Zm-4.33,2.23a2.68,2.68,0,0,0-.87,1,3,3,0,0,0-.32,1.38A2,2,0,0,0,140,314a1.65,1.65,0,0,0,1.29.53,2.07,2.07,0,0,0,1.19-.37,2.63,2.63,0,0,0,.87-1,3,3,0,0,0,.32-1.38,2.06,2.06,0,0,0-.47-1.43,1.63,1.63,0,0,0-1.28-.53A2.08,2.08,0,0,0,140.73,310.23ZM155.84,308a3.92,3.92,0,0,1,1.64,1.52,4.43,4.43,0,0,1,.58,2.29,5.26,5.26,0,0,1-.73,2.76,5,5,0,0,1-2,1.88,6.26,6.26,0,0,1-2.94.67,5.45,5.45,0,0,1-2.5-.54,3.89,3.89,0,0,1-1.64-1.53,4.47,4.47,0,0,1-.58-2.3,5.24,5.24,0,0,1,.73-2.76,4.94,4.94,0,0,1,2-1.87,6.31,6.31,0,0,1,2.95-.66A5.46,5.46,0,0,1,155.84,308Zm-4.39,2.71a2.77,2.77,0,0,0-.65,1.91,2.21,2.21,0,0,0,.49,1.5,1.64,1.64,0,0,0,1.31.57,2.09,2.09,0,0,0,1.64-.73,2.78,2.78,0,0,0,.65-1.91,2.21,2.21,0,0,0-.49-1.49,1.64,1.64,0,0,0-1.31-.57A2.09,2.09,0,0,0,151.45,310.73Zm17.33-2.42a3,3,0,0,1,.87,2.23,4.28,4.28,0,0,1-.09.91L168.45,317h-3.11l1-5.14a2.17,2.17,0,0,0,.05-.45,1.32,1.32,0,0,0-.37-1,1.39,1.39,0,0,0-1-.36,2,2,0,0,0-1.41.59,2.85,2.85,0,0,0-.81,1.54l-1,4.81h-3.11l1.87-9.46h3.11l-.25,1.26a3.63,3.63,0,0,1,2.94-1.38A3.25,3.25,0,0,1,168.78,308.31Zm3.71,8.33a3.5,3.5,0,0,1-1.3-1.47,4.87,4.87,0,0,1-.46-2.17,6,6,0,0,1,.66-2.8,5.12,5.12,0,0,1,1.8-2,4.58,4.58,0,0,1,2.53-.73,3,3,0,0,1,2.94,1.68l1-5.09h3.11l-2.59,13h-3.11l.23-1.12a4,4,0,0,1-2.9,1.24A3.51,3.51,0,0,1,172.48,316.64Zm4.32-2.24a2.57,2.57,0,0,0,.88-1A3,3,0,0,0,178,312a2.05,2.05,0,0,0-.48-1.42,1.65,1.65,0,0,0-1.29-.53,2.08,2.08,0,0,0-1.2.38,2.67,2.67,0,0,0-.87,1,2.93,2.93,0,0,0-.32,1.36,2,2,0,0,0,.48,1.42,1.62,1.62,0,0,0,1.27.53A2.16,2.16,0,0,0,176.8,314.4Z"/>
  </g>
  <g id="detect" class="detect-hover">
    <path class="blue-stroke" d="M412.65,250.85c-6.72,127.5-71.49,211.21-202.58,262.49-.69.17-1.46.35-2.24.49"/>
    <line class="grey-stroke" opacity="0.2" x1="208.49" y1="250.71" x2="208.49" y2="380.84"/>
    <line class="grey-stroke" opacity="0.2" x1="208.49" y1="380.91" x2="208.49" y2="381.91"/>
    <line class="grey-dash1" opacity="0.2" x1="208.49" y1="384.93" x2="208.49" y2="423.71"/>
    <line class="grey-stroke" opacity="0.2" x1="208.49" y1="425.22" x2="208.49" y2="426.22"/>
    <path class="grey-stroke" opacity="0.4" d="M371.94,251.17c-5.1,102.77-57,170.17-162.44,211.41-.54.13-1.13.27-1.73.38"/>
    <line class="grey-stroke" opacity="0.2" x1="329.33" y1="250.64" x2="208.43" y2="250.64"/>
    <path class="grey-stroke" opacity="0.4" d="M207.86,452.44l.83-.2C308.88,413.05,358.2,349,363,251.3"/>
    <path class="blue" d="M249.61,305.43a4.67,4.67,0,0,1,2,1.82,5.24,5.24,0,0,1,.69,2.71,6.77,6.77,0,0,1-3.74,6.18,8.38,8.38,0,0,1-3.9.9h-5.45l2.43-12.26h5A6.6,6.6,0,0,1,249.61,305.43Zm-1.41,2.76a2.7,2.7,0,0,0-2-.8H244.3l-1.42,7.06h2.33a3.55,3.55,0,0,0,1.9-.53,3.76,3.76,0,0,0,1.36-1.48,4.5,4.5,0,0,0,.5-2.13A2.93,2.93,0,0,0,248.2,308.2Zm12.35-.18a3.78,3.78,0,0,1,1.6,1.48,4.32,4.32,0,0,1,.56,2.23,7,7,0,0,1-.17,1.42h-6.71a1.79,1.79,0,0,0,.61,1.24,2.14,2.14,0,0,0,1.42.44A3.43,3.43,0,0,0,260,314l1.56,1.7a5.51,5.51,0,0,1-3.85,1.43,6.11,6.11,0,0,1-2.62-.53,4,4,0,0,1-1.73-1.5,4.19,4.19,0,0,1-.61-2.27,5.48,5.48,0,0,1,.69-2.75,5,5,0,0,1,1.91-1.92,5.43,5.43,0,0,1,2.75-.7A5.36,5.36,0,0,1,260.55,308Zm-.78,3.13a1.41,1.41,0,0,0-.4-1.06,1.49,1.49,0,0,0-1.08-.39,2,2,0,0,0-1.33.49,3.1,3.1,0,0,0-.91,1.29h3.71A2.25,2.25,0,0,0,259.77,311.15Zm7.75,2.64a1.51,1.51,0,0,0,0,.37.52.52,0,0,0,.13.41.56.56,0,0,0,.41.1,3.27,3.27,0,0,0,1.31-.37l.33,2.31a5,5,0,0,1-1.23.43,6.45,6.45,0,0,1-1.35.15,3,3,0,0,1-2-.66,2.25,2.25,0,0,1-.75-1.79,3.37,3.37,0,0,1,.07-.7l.79-3.93h-1.29l.4-2.06h1.31l.52-2.62h3.09l-.52,2.62h2.45l-.4,2.06h-2.47ZM279,308a3.78,3.78,0,0,1,1.6,1.48,4.32,4.32,0,0,1,.56,2.23,7,7,0,0,1-.17,1.42h-6.71a1.79,1.79,0,0,0,.61,1.24,2.14,2.14,0,0,0,1.42.44,3.43,3.43,0,0,0,2.17-.79l1.56,1.7a5.51,5.51,0,0,1-3.85,1.43,6.11,6.11,0,0,1-2.62-.53,4,4,0,0,1-1.73-1.5,4.19,4.19,0,0,1-.61-2.27,5.48,5.48,0,0,1,.69-2.75,5,5,0,0,1,1.91-1.92,5.43,5.43,0,0,1,2.75-.7A5.36,5.36,0,0,1,279,308Zm-.78,3.13a1.41,1.41,0,0,0-.4-1.06,1.49,1.49,0,0,0-1.08-.39,2,2,0,0,0-1.33.49,3.1,3.1,0,0,0-.91,1.29h3.71A2.25,2.25,0,0,0,278.2,311.15Zm5.84,5.46a3.73,3.73,0,0,1-1.54-1.51,4.57,4.57,0,0,1-.54-2.25,5.54,5.54,0,0,1,.69-2.79,4.9,4.9,0,0,1,1.91-1.9,5.64,5.64,0,0,1,2.8-.68,4.93,4.93,0,0,1,2.46.58,3.67,3.67,0,0,1,1.55,1.65L289,311a1.85,1.85,0,0,0-.71-.73,2.07,2.07,0,0,0-1-.25,1.94,1.94,0,0,0-1.54.72,2.76,2.76,0,0,0-.61,1.85,2.19,2.19,0,0,0,.46,1.46,1.53,1.53,0,0,0,1.23.55,2.16,2.16,0,0,0,2-1.07l2.15,1.33a4.43,4.43,0,0,1-1.84,1.67,5.94,5.94,0,0,1-2.69.59A4.86,4.86,0,0,1,284,316.61Zm12-2.82a1.51,1.51,0,0,0,0,.37.52.52,0,0,0,.13.41.56.56,0,0,0,.41.1,3.27,3.27,0,0,0,1.31-.37l.33,2.31A5,5,0,0,1,297,317a6.45,6.45,0,0,1-1.35.15,3,3,0,0,1-2-.66,2.25,2.25,0,0,1-.75-1.79,3.37,3.37,0,0,1,.07-.7l.79-3.93h-1.29l.4-2.06h1.31l.52-2.62h3.09l-.52,2.62h2.45l-.4,2.06h-2.47Z"/>
  </g>

  <path class="bright-blue" d="M19.42,88.05A2.92,2.92,0,0,1,22.5,85a3.09,3.09,0,1,1,0,6.17A2.92,2.92,0,0,1,19.42,88.05Z"/>
  <path class="bright-blue" d="M201.8,489.14a3.09,3.09,0,1,1,3.09,3.09A2.92,2.92,0,0,1,201.8,489.14Z"/>
  <path class="bright-blue" d="M17.74,242.15a2.92,2.92,0,0,1,3.09-3.09,3.09,3.09,0,0,1,0,6.17A2.92,2.92,0,0,1,17.74,242.15Z"/>
  <path class="bright-blue" d="M64.59,393.56a3.09,3.09,0,1,1,3.09,3.09A2.92,2.92,0,0,1,64.59,393.56Z"/>
  <path class="bright-blue" d="M347.92,393.56a3.09,3.09,0,1,0-3.09,3.09A2.92,2.92,0,0,0,347.92,393.56Z"/>
  <path class="bright-blue" d="M203.47,33.64a3.09,3.09,0,0,1,6.17,0,3.09,3.09,0,0,1-6.17,0Z"/>
  <path class="bright-blue" d="M385.42,92.05a3.09,3.09,0,1,1,3.09,3.09A2.92,2.92,0,0,1,385.42,92.05Z"/>
  <path class="bright-blue" d="M394.76,242.15a3.09,3.09,0,1,0-3.09,3.09A2.92,2.92,0,0,0,394.76,242.15Z"/>

</svg>