<svg xmlns="http://www.w3.org/2000/svg" viewBox="0 0 50 50"><path class="medium-blue" d="M13.71 38.51l-.1-.06a.48.48 0 0 0-.07-.09A17.65 17.65 0 0 1 8.06 20.6a.5.5 0 0 0 0-.2l3.57 4.46a.5.5 0 0 0 .78-.62l-4.3-5.37a.5.5 0 0 0-.7-.08L2 23.09a.5.5 0 0 0 .63.78l4.43-3.55a18.65 18.65 0 0 0 5.78 18.76l.11.07a.48.48 0 0 0 .07.09 18.72 18.72 0 0 0 1.63 1.25.5.5 0 1 0 .56-.83 17.78 17.78 0 0 1-1.5-1.15zm15.71 4.77a18.53 18.53 0 0 1-2 .35h-.06a.5.5 0 0 1-.06-1 17.54 17.54 0 0 0 1.92-.33.5.5 0 0 1 .22 1zm-9.5-.81a.5.5 0 0 1-.47.34h-.16a18.63 18.63 0 0 1-1.92-.81.5.5 0 0 1 .42-.91 17.34 17.34 0 0 0 1.81.72.5.5 0 0 1 .31.66zm4.92.79a.5.5 0 0 1-.5.48 18.65 18.65 0 0 1-2-.21.5.5 0 0 1 .16-1 17.62 17.62 0 0 0 1.93.2.5.5 0 0 1 .41.53zm8.94-.66a26.61 26.61 0 0 0 2.5-1.85 6.66 6.66 0 0 0 1.34-1.47 2 2 0 0 0 0-2.33 1.54 1.54 0 0 0-2.15.12 2.27 2.27 0 0 0-.46 1.4l-1.55-.59a2.81 2.81 0 0 1 1-2 3.78 3.78 0 0 1 4-.36 2.58 2.58 0 0 1 1 1 3.22 3.22 0 0 1-.56 3.64 12.23 12.23 0 0 1-2.9 2.26q.75-.05 1.57-.05H40v1.44h-6.23zm13-2.09v-5.27H44.6l-3.76 5.62v.95h4.28v2h1.63v-2h1.39v-1.3zm-1.62-2.63v2.63h-2.59l1.78-2.61a9.43 9.43 0 0 0 .78-1.42zM33.5 27h-7a2 2 0 0 0-1.5-1.93V17.5a.5.5 0 0 0-1 0v7.57A2 2 0 1 0 26.22 28h7.28a.5.5 0 0 0 0-1zm-9 1a1 1 0 1 1 1-1 1 1 0 0 1-1 1zm23.81 1l-5.85 3.61a.5.5 0 0 1-.26.07h-.12a.5.5 0 0 1-.31-.22l-3.61-5.85A.5.5 0 0 1 39 26l3 4.82A18 18 0 0 0 29.38 7.54q-.52-.13-1.06-.23a.5.5 0 0 1-.4-.58.49.49 0 0 1 .58-.4q.56.11 1.12.24A19 19 0 0 1 43 31.09l4.8-3a.5.5 0 1 1 .52.85zm-32-20.31a.5.5 0 0 1-.19.68 17.92 17.92 0 0 0-1.64 1.05.5.5 0 1 1-.59-.81 19.16 19.16 0 0 1 1.73-1.11.5.5 0 0 1 .67.16zm-4 2.92a.5.5 0 0 1 0 .71A18.35 18.35 0 0 0 11 13.74a.5.5 0 0 1-.78-.62 19.11 19.11 0 0 1 1.37-1.53.5.5 0 0 1 .66-.01zm13.63-5.1a.49.49 0 0 1-.51.49H25q-.77 0-1.52.06a.5.5 0 0 1 0-1Q24.19 6 25 6h.45a.5.5 0 0 1 .49.51zm-5 .42a.5.5 0 0 1-.36.61 17.59 17.59 0 0 0-1.86.57.49.49 0 0 1-.17 0 .5.5 0 0 1-.17-1 18.81 18.81 0 0 1 2-.61.5.5 0 0 1 .62.43z"/></svg>