<svg xmlns="http://www.w3.org/2000/svg" width="723.91" height="632.93" viewBox="0 0 723.91 632.93">
  <title>icon-brain-new</title>
  <g id="Layer_2" data-name="Layer 2">
    <g id="_1200" data-name="1200">
      <g id="Brain">
        <g>
          <line x1="723.41" y1="315.68" x2="706.97" y2="315.68" style="fill: none;stroke: #8799a3;stroke-linecap: round;stroke-linejoin: round"/>
          <line x1="702.07" y1="324.43" x2="690.49" y2="324.43" style="fill: none;stroke: #8799a3;stroke-linecap: round;stroke-linejoin: round;stroke-dasharray: 2,3"/>
          <line x1="482.69" y1="102.54" x2="493.37" y2="102.54" style="fill: none;stroke: #969c9c;stroke-linecap: round;stroke-linejoin: round;stroke-dasharray: 2,3"/>
          <line x1="567.43" y1="201.06" x2="577.1" y2="201.06" style="fill: none;stroke: #969c9c;stroke-linecap: round;stroke-linejoin: round;stroke-dasharray: 2,3"/>
          <g>
            <circle cx="58.37" cy="376.07" r="9.12" style="fill: none;stroke: #23e390;stroke-linecap: round;stroke-linejoin: round;stroke-dasharray: 2.0829362869262695,3.1244044303894043"/>
            <g>
              <polygon points="587.1 250.48 585 256.27 587.1 262.07 590.14 256.84 587.1 250.48" style="fill: none;stroke: #03a9f4;stroke-linecap: round;stroke-linejoin: round"/>
              <g>
                <polygon points="594.23 250.48 597.27 256.79 593.75 262.07 587.1 262.07 590.14 256.84 587.1 250.48 594.23 250.48" style="fill: none;stroke: #03a9f4;stroke-linecap: round;stroke-linejoin: round"/>
                <line x1="596.7" y1="256.84" x2="590.14" y2="256.84" style="fill: none;stroke: #03a9f4;stroke-linecap: round;stroke-linejoin: round"/>
              </g>
            </g>
            <g>
              <polygon points="141.52 206.19 138.54 214.37 141.52 222.55 145.81 215.18 141.52 206.19" style="fill: none;stroke: #03a9f4;stroke-linecap: round;stroke-linejoin: round"/>
              <g>
                <polygon points="151.57 206.19 155.87 215.1 150.9 222.55 141.52 222.55 145.81 215.18 141.52 206.19 151.57 206.19" style="fill: none;stroke: #03a9f4;stroke-linecap: round;stroke-linejoin: round"/>
                <line x1="155.06" y1="215.18" x2="145.81" y2="215.18" style="fill: none;stroke: #03a9f4;stroke-linecap: round;stroke-linejoin: round"/>
              </g>
            </g>
            <g>
              <polygon points="220.26 460.64 222.53 466.89 220.26 473.13 216.99 467.5 220.26 460.64" style="fill: none;stroke: #03a9f4;stroke-linecap: round;stroke-linejoin: round"/>
              <g>
                <polygon points="212.59 460.64 209.31 467.45 213.1 473.13 220.26 473.13 216.99 467.5 220.26 460.64 212.59 460.64" style="fill: #fcfcfc;stroke: #03a9f4;stroke-linecap: round;stroke-linejoin: round"/>
                <line x1="209.92" y1="467.5" x2="216.99" y2="467.5" style="fill: none;stroke: #03a9f4;stroke-linecap: round;stroke-linejoin: round"/>
              </g>
            </g>
            <g>
              <polygon points="648.25 123.05 645.78 129.84 648.25 136.63 651.81 130.51 648.25 123.05" style="fill: none;stroke: #03a9f4;stroke-linecap: round;stroke-linejoin: round"/>
              <g>
                <polygon points="656.6 123.05 660.16 130.45 656.04 136.63 648.25 136.63 651.81 130.51 648.25 123.05 656.6 123.05" style="fill: none;stroke: #03a9f4;stroke-linecap: round;stroke-linejoin: round"/>
                <line x1="659.49" y1="130.51" x2="651.81" y2="130.51" style="fill: none;stroke: #03a9f4;stroke-linecap: round;stroke-linejoin: round"/>
              </g>
            </g>
            <g>
              <line x1="114.01" y1="413.5" x2="139.06" y2="413.5" style="fill: none;stroke: #969c9c;stroke-linecap: round;stroke-linejoin: round"/>
              <line x1="124.08" y1="405.42" x2="139.25" y2="405.42" style="fill: none;stroke: #969c9c;stroke-linecap: round;stroke-linejoin: round;stroke-dasharray: 2,3"/>
              <line x1="133.06" y1="422.48" x2="140.15" y2="422.48" style="fill: none;stroke: #969c9c;stroke-linecap: round;stroke-linejoin: round"/>
            </g>
            <line x1="448.98" y1="103.95" x2="421.83" y2="103.95" style="fill: none;stroke: #8799a3;stroke-linecap: round;stroke-linejoin: round"/>
            <g>
              <g>
                <g>
                  <path d="M443.8,373.89A26.61,26.61,0,0,1,447.35,387a22.48,22.48,0,0,1-2.84,10.85c49.15,3.48,76-20,68.46-58.24v0c11.45-10.63,10.07-28-3.29-37,11.6-13.06-.3-34.17-17.59-29.79,1.72-13.06-8.53-24.18-20.89-22.94v-.11c0-18.12-21.48-28.63-37.13-18.68-3.22-16.58-22.94-25.49-39.08-17.74a23.6,23.6,0,0,0-37.51-6.1A37.35,37.35,0,0,0,328.58,194c-15,0-27.85,8.35-33.35,20.25a33.22,33.22,0,0,0-46.53,18.27c-16.36-5.65-33.8,2.13-40.16,16.62-20.77-1.61-36.91,17.29-31.63,37.17-11.87,11.3-9.21,29.72,5.65,37.77-6.66,30.13,27.14,53,51.5,34.55,1.27,25,33.61,48.85,62.58,25.34a6.66,6.66,0,0,1,9.43.79c2.62,3.18,6.77,5.28,10.41,6.59a37.41,37.41,0,0,1,8.44-19.68m118.87,2.22-57.5-25.81-40.74,8.34" style="fill: none;stroke: #373e5a;stroke-linecap: round;stroke-linejoin: round"/>
                  <path d="M339.46,359.58" style="fill: none;stroke: #373e5a;stroke-linecap: round;stroke-linejoin: round"/>
                  <path d="M332.6,435.55c-13-17-17.52-31.83-16.1-44.2a38,38,0,0,1,10.48-22" style="fill: none;stroke: #373e5a;stroke-linecap: round;stroke-linejoin: round"/>
                  <path d="M442.06,371.14A27.46,27.46,0,0,1,447.35,387a22.48,22.48,0,0,1-2.84,10.85c-9.17,16.92-39.15,27.51-69.51,25.42a60.32,60.32,0,0,1,.89,6.69" style="fill: none;stroke: #373e5a;stroke-linecap: round;stroke-linejoin: round"/>
                  <path d="M357.47,207.24A41.21,41.21,0,0,0,344.86,222c-13.82,27,5.33,61,36.93,49.33" style="fill: none;stroke: #373e5a;stroke-linecap: round;stroke-linejoin: round"/>
                  <path d="M176.91,286.33c4.51-8,16.51-11.57,25.64-9.69,13.59,2.8,18.06,19.93,12.45,32.12" style="fill: none;stroke: #373e5a;stroke-linecap: round;stroke-linejoin: round"/>
                  <path d="M234.09,358.64s-5.86-27.63,30.83-29.27" style="fill: none;stroke: #373e5a;stroke-linecap: round;stroke-linejoin: round"/>
                  <path d="M309.81,247.21C292.86,255,274,267.91,276.06,289c2.08,21.65,20.29,28.9,33.16,43.15,5.59,6.19,9.23,15.28,5.86,22.91" style="fill: none;stroke: #373e5a;stroke-linecap: round;stroke-linejoin: round"/>
                  <path d="M440.89,271.86c0,9.88-6.33,19-14.57,24.44s-18.16,7.77-28,9.1-19.73,1.79-29.36,4c-8.24,1.89-17.48,6.66-18.23,15.08" style="fill: none;stroke: #373e5a;stroke-linecap: round;stroke-linejoin: round"/>
                  <path d="M509.68,302.6s-47.49-18.14-62.34,13.08-30.18,5.48-30.18,5.48" style="fill: none;stroke: #373e5a;stroke-linecap: round;stroke-linejoin: round"/>
                  <path d="M248.73,232.54s11.82,4.27,8,16.86" style="fill: none;stroke: #373e5a;stroke-linecap: round;stroke-linejoin: round"/>
                  <path d="M295.23,214.28a24.39,24.39,0,0,0,8,18.26" style="fill: none;stroke: #373e5a;stroke-linecap: round;stroke-linejoin: round"/>
                </g>
                <path d="M253.1,286.69s1.6,14.77,22.81,9.42" style="fill: none;stroke: #373e5a;stroke-linecap: round;stroke-linejoin: round"/>
                <path d="M345.09,262.74s-17.89,2.82-11.38,24" style="fill: none;stroke: #373e5a;stroke-linecap: round;stroke-linejoin: round"/>
                <path d="M377.61,310.64s-5.69,14.51,8.94,20.48" style="fill: none;stroke: #373e5a;stroke-linecap: round;stroke-linejoin: round"/>
                <path d="M342.58,227.34s17.27-25.93,30.63-3.21" style="fill: none;stroke: #373e5a;stroke-linecap: round;stroke-linejoin: round"/>
                <path d="M234.56,348.08s-17.87-2.05-19.11-18.71" style="fill: none;stroke: #373e5a;stroke-linecap: round;stroke-linejoin: round"/>
                <path d="M446.81,353.51c-.34,1.93-5,25.8-28,36-21.42,9.48-40.81-.79-43-2-11.85,9.25-28.32,7.14-36.33-3-6.48-8.2-6.68-20.69,0-30.33" style="fill: none;stroke: #373e5a;stroke-miterlimit: 10"/>
                <circle cx="312.23" cy="245.55" r="3.07" style="fill: #1fc469"/>
                <circle cx="253.23" cy="284.55" r="3.07" style="fill: #1fc469"/>
                <circle cx="350.48" cy="327.05" r="3.07" style="fill: #1fc469"/>
                <circle cx="335.23" cy="289.55" r="3.07" style="fill: #1fc469"/>
                <circle cx="446.81" cy="353.01" r="3.07" style="fill: #1fc469"/>
                <circle cx="389.31" cy="332.76" r="3.07" style="fill: #1fc469"/>
                <circle cx="416.56" cy="320.26" r="3.07" style="fill: #1fc469"/>
              </g>
              <g>
                <path d="M305.41,406.6c-74.15,21.06-133.49,20.13-144.45-5.74-14.23-33.58,58.4-96.45,162.22-140.44S522.69,208,536.92,241.58c5.58,13.17-2.2,30.83-20,50.1" style="fill: none;stroke: #23e390;stroke-linecap: round;stroke-linejoin: round"/>
                <path d="M526.9,359.09c11.23,14.69,15.58,28.1,11.27,38.74-13.68,33.8-109.5,26.91-214-15.4S146,278.41,159.7,244.61c6.53-16.13,31.75-23,67.69-21.16" style="fill: none;stroke: #23e390;stroke-linecap: round;stroke-linejoin: round"/>
                <path d="M348,460c-28.43,38-56.5,58.18-75.63,50.44-23-9.31-27.16-56.62-14.15-118.83" style="fill: none;stroke: #23e390;stroke-linecap: round;stroke-linejoin: round"/>
                <path d="M342.21,193.13c31-44.79,62.48-69.6,83.34-61.15,19.47,7.88,25.44,43,18.92,91.34" style="fill: none;stroke: #23e390;stroke-linecap: round;stroke-linejoin: round"/>
                <path d="M249.47,204.62c-3-37.68,3.31-64.39,19.82-71.38,33.58-14.23,96.45,58.4,140.44,162.22S462.16,495,428.58,509.2c-19,8-47.37-11.7-76.39-49.17" style="fill: none;stroke: #23e390;stroke-linecap: round;stroke-linejoin: round"/>
              </g>
            </g>
            <line x1="526.44" y1="463.15" x2="553.59" y2="463.15" style="fill: none;stroke: #969c9c;stroke-linecap: round;stroke-linejoin: round"/>
            <line x1="537.36" y1="454.4" x2="553.8" y2="454.4" style="fill: none;stroke: #969c9c;stroke-linecap: round;stroke-linejoin: round"/>
            <line x1="547.09" y1="472.88" x2="554.78" y2="472.88" style="fill: none;stroke: #969c9c;stroke-linecap: round;stroke-linejoin: round"/>
            <line x1="558.71" y1="463.15" x2="570.28" y2="463.15" style="fill: none;stroke: #969c9c;stroke-linecap: round;stroke-linejoin: round;stroke-dasharray: 2,3"/>
            <circle cx="578.81" cy="186.42" r="9.09" style="fill: none;stroke: #23e390;stroke-linecap: round;stroke-linejoin: round;stroke-dasharray: 2.0759623050689697,3.113943576812744"/>
            <g>
              <path d="M65.3,219l.69-1.33" style="fill: none;stroke: #03a9f4;stroke-miterlimit: 10"/>
              <path d="M67.87,214.12C119.09,120,226.65,55.15,351,55.15c121.73,0,227.34,62.09,279.81,153" style="fill: none;stroke: #03a9f4;stroke-miterlimit: 10;stroke-dasharray: 2.9883334636688232,3.9844446182250977"/>
              <path d="M631.84,209.87l.73,1.3" style="fill: none;stroke: #03a9f4;stroke-miterlimit: 10"/>
            </g>
            <g>
              <g>
                <path d="M362.41,483.42c0,2.87-1.07,4.46-2.94,4.46-1.65,0-2.77-1.55-2.79-4.34s1.22-4.39,2.94-4.39S362.41,480.73,362.41,483.42Zm-4.59.13c0,2.2.68,3.44,1.72,3.44s1.73-1.36,1.73-3.52-.53-3.45-1.72-3.45C358.55,480,357.83,481.25,357.83,483.55Z" style="fill: #03a9f4"/>
                <path d="M359.28,496h0l-1.47.79-.22-.87,1.85-1h1v8.45h-1.1Z" style="fill: #03a9f4"/>
                <path d="M362.41,514.62c0,2.87-1.07,4.46-2.94,4.46-1.65,0-2.77-1.55-2.79-4.34s1.22-4.39,2.94-4.39S362.41,511.93,362.41,514.62Zm-4.59.13c0,2.2.68,3.44,1.72,3.44s1.73-1.36,1.73-3.52-.53-3.45-1.72-3.45C358.55,511.23,357.83,512.45,357.83,514.75Z" style="fill: #03a9f4"/>
                <path d="M359.28,527.16h0l-1.47.79-.22-.87,1.85-1h1v8.45h-1.1Z" style="fill: #03a9f4"/>
                <path d="M359.28,542.76h0l-1.47.79-.22-.87,1.85-1h1v8.45h-1.1Z" style="fill: #03a9f4"/>
                <path d="M359.28,558.36h0l-1.47.79-.22-.87,1.85-1h1v8.45h-1.1Z" style="fill: #03a9f4"/>
                <path d="M362.41,577c0,2.87-1.07,4.46-2.94,4.46-1.65,0-2.77-1.55-2.79-4.34s1.22-4.39,2.94-4.39S362.41,574.33,362.41,577Zm-4.59.13c0,2.2.68,3.44,1.72,3.44s1.73-1.36,1.73-3.52-.53-3.45-1.72-3.45C358.55,573.63,357.83,574.85,357.83,577.15Z" style="fill: #03a9f4"/>
                <path d="M359.28,589.56h0l-1.47.79-.22-.87,1.85-1h1v8.45h-1.1Z" style="fill: #03a9f4"/>
                <path d="M362.41,608.22c0,2.87-1.07,4.46-2.94,4.46-1.65,0-2.77-1.55-2.79-4.34s1.22-4.39,2.94-4.39S362.41,605.53,362.41,608.22Zm-4.59.13c0,2.2.68,3.44,1.72,3.44s1.73-1.36,1.73-3.52-.53-3.45-1.72-3.45C358.55,604.83,357.83,606.05,357.83,608.35Z" style="fill: #03a9f4"/>
                <path d="M359.28,620.76h0l-1.47.79-.22-.87,1.85-1h1v8.45h-1.1Z" style="fill: #03a9f4"/>
              </g>
              <g>
                <path d="M383.88,436.42c0,2.87-1.07,4.46-2.94,4.46-1.65,0-2.77-1.55-2.79-4.34s1.22-4.39,2.94-4.39S383.88,433.73,383.88,436.42Zm-4.59.13c0,2.2.68,3.44,1.72,3.44s1.73-1.36,1.73-3.52S382.21,433,381,433C380,433,379.29,434.25,379.29,436.55Z" style="fill: #03a9f4"/>
                <path d="M380.75,449h0l-1.47.79-.22-.87,1.85-1h1v8.45h-1.1Z" style="fill: #03a9f4"/>
                <path d="M383.88,467.62c0,2.87-1.07,4.46-2.94,4.46-1.65,0-2.77-1.55-2.79-4.34s1.22-4.39,2.94-4.39S383.88,464.93,383.88,467.62Zm-4.59.13c0,2.2.68,3.44,1.72,3.44s1.73-1.36,1.73-3.52-.53-3.45-1.72-3.45C380,464.23,379.29,465.45,379.29,467.75Z" style="fill: #03a9f4"/>
                <path d="M380.75,480.16h0l-1.47.79-.22-.87,1.85-1h1v8.45h-1.1Z" style="fill: #03a9f4"/>
                <path d="M380.75,495.76h0l-1.47.79-.22-.87,1.85-1h1v8.45h-1.1Z" style="fill: #03a9f4"/>
                <path d="M380.75,511.36h0l-1.47.79-.22-.87,1.85-1h1v8.45h-1.1Z" style="fill: #03a9f4"/>
                <path d="M383.88,530c0,2.87-1.07,4.46-2.94,4.46-1.65,0-2.77-1.55-2.79-4.34s1.22-4.39,2.94-4.39S383.88,527.33,383.88,530Zm-4.59.13c0,2.2.68,3.44,1.72,3.44s1.73-1.36,1.73-3.52-.53-3.45-1.72-3.45C380,526.63,379.29,527.85,379.29,530.15Z" style="fill: #03a9f4"/>
                <path d="M380.75,542.56h0l-1.47.79-.22-.87,1.85-1h1v8.45h-1.1Z" style="fill: #03a9f4"/>
                <path d="M383.88,561.22c0,2.87-1.07,4.46-2.94,4.46-1.65,0-2.77-1.55-2.79-4.34s1.22-4.39,2.94-4.39S383.88,558.53,383.88,561.22Zm-4.59.13c0,2.2.68,3.44,1.72,3.44s1.73-1.36,1.73-3.52-.53-3.45-1.72-3.45C380,557.83,379.29,559.05,379.29,561.35Z" style="fill: #03a9f4"/>
                <path d="M380.75,573.76h0l-1.47.79-.22-.87,1.85-1h1v8.45h-1.1Z" style="fill: #03a9f4"/>
                <path d="M383.88,592.42c0,2.87-1.07,4.46-2.94,4.46-1.65,0-2.77-1.55-2.79-4.34s1.22-4.39,2.94-4.39S383.88,589.73,383.88,592.42Zm-4.59.13c0,2.2.68,3.44,1.72,3.44s1.73-1.36,1.73-3.52S382.21,589,381,589C380,589,379.29,590.25,379.29,592.55Z" style="fill: #03a9f4"/>
              </g>
              <g>
                <path d="M341,457c0,2.87-1.07,4.46-2.94,4.46-1.65,0-2.77-1.55-2.79-4.34s1.22-4.39,2.94-4.39S341,454.32,341,457Zm-4.59.13c0,2.2.68,3.44,1.72,3.44s1.73-1.36,1.73-3.52-.53-3.45-1.72-3.45C337.15,453.62,336.42,454.84,336.42,457.15Z" style="fill: #03a9f4"/>
                <path d="M337.88,469.55h0l-1.47.79-.22-.87,1.85-1h1v8.45h-1.11Z" style="fill: #03a9f4"/>
                <path d="M341,488.22c0,2.87-1.07,4.46-2.94,4.46-1.65,0-2.77-1.55-2.79-4.34s1.22-4.39,2.94-4.39S341,485.52,341,488.22Zm-4.59.13c0,2.2.68,3.44,1.72,3.44s1.73-1.36,1.73-3.52-.53-3.45-1.72-3.45C337.15,484.82,336.42,486,336.42,488.35Z" style="fill: #03a9f4"/>
                <path d="M337.88,500.75h0l-1.47.79-.22-.87,1.85-1h1v8.45h-1.11Z" style="fill: #03a9f4"/>
                <path d="M337.88,516.35h0l-1.47.79-.22-.87,1.85-1h1v8.45h-1.11Z" style="fill: #03a9f4"/>
                <path d="M337.88,531.95h0l-1.47.79-.22-.87,1.85-1h1v8.45h-1.11Z" style="fill: #03a9f4"/>
                <path d="M341,550.62c0,2.87-1.07,4.46-2.94,4.46-1.65,0-2.77-1.55-2.79-4.34s1.22-4.39,2.94-4.39S341,547.92,341,550.62Zm-4.59.13c0,2.2.68,3.44,1.72,3.44s1.73-1.36,1.73-3.52-.53-3.45-1.72-3.45C337.15,547.22,336.42,548.44,336.42,550.75Z" style="fill: #03a9f4"/>
                <path d="M337.88,563.15h0l-1.47.79-.22-.87,1.85-1h1v8.45h-1.11Z" style="fill: #03a9f4"/>
                <path d="M341,581.82c0,2.87-1.07,4.46-2.94,4.46-1.65,0-2.77-1.55-2.79-4.34s1.22-4.39,2.94-4.39S341,579.12,341,581.82Zm-4.59.13c0,2.2.68,3.44,1.72,3.44s1.73-1.36,1.73-3.52-.53-3.45-1.72-3.45C337.15,578.42,336.42,579.64,336.42,581.95Z" style="fill: #03a9f4"/>
                <path d="M337.88,594.35h0l-1.47.79-.22-.87,1.85-1h1v8.45h-1.11Z" style="fill: #03a9f4"/>
                <path d="M341,613c0,2.87-1.07,4.46-2.94,4.46-1.65,0-2.77-1.55-2.79-4.34s1.22-4.39,2.94-4.39S341,610.32,341,613Zm-4.59.13c0,2.2.68,3.44,1.72,3.44s1.73-1.36,1.73-3.52-.53-3.45-1.72-3.45C337.15,609.62,336.42,610.84,336.42,613.15Z" style="fill: #03a9f4"/>
                <path d="M337.88,625.55h0l-1.47.79-.22-.87,1.85-1h1v8.45h-1.11Z" style="fill: #03a9f4"/>
              </g>
              <g>
                <path d="M319.73,436.42c0,2.87-1.07,4.46-2.94,4.46-1.65,0-2.77-1.55-2.79-4.34s1.22-4.39,2.94-4.39S319.73,433.73,319.73,436.42Zm-4.59.13c0,2.2.68,3.44,1.72,3.44s1.73-1.36,1.73-3.52-.53-3.45-1.72-3.45C315.87,433,315.14,434.25,315.14,436.55Z" style="fill: #03a9f4"/>
                <path d="M316.6,449h0l-1.47.79-.22-.87,1.85-1h1v8.45H316.6Z" style="fill: #03a9f4"/>
                <path d="M319.73,467.62c0,2.87-1.07,4.46-2.94,4.46-1.65,0-2.77-1.55-2.79-4.34s1.22-4.39,2.94-4.39S319.73,464.93,319.73,467.62Zm-4.59.13c0,2.2.68,3.44,1.72,3.44s1.73-1.36,1.73-3.52-.53-3.45-1.72-3.45C315.87,464.23,315.14,465.45,315.14,467.75Z" style="fill: #03a9f4"/>
                <path d="M316.6,480.16h0l-1.47.79-.22-.87,1.85-1h1v8.45H316.6Z" style="fill: #03a9f4"/>
                <path d="M316.6,495.76h0l-1.47.79-.22-.87,1.85-1h1v8.45H316.6Z" style="fill: #03a9f4"/>
                <path d="M316.6,511.36h0l-1.47.79-.22-.87,1.85-1h1v8.45H316.6Z" style="fill: #03a9f4"/>
                <path d="M319.73,530c0,2.87-1.07,4.46-2.94,4.46-1.65,0-2.77-1.55-2.79-4.34s1.22-4.39,2.94-4.39S319.73,527.33,319.73,530Zm-4.59.13c0,2.2.68,3.44,1.72,3.44s1.73-1.36,1.73-3.52-.53-3.45-1.72-3.45C315.87,526.63,315.14,527.85,315.14,530.15Z" style="fill: #03a9f4"/>
                <path d="M316.6,542.56h0l-1.47.79-.22-.87,1.85-1h1v8.45H316.6Z" style="fill: #03a9f4"/>
                <path d="M319.73,561.22c0,2.87-1.07,4.46-2.94,4.46-1.65,0-2.77-1.55-2.79-4.34s1.22-4.39,2.94-4.39S319.73,558.53,319.73,561.22Zm-4.59.13c0,2.2.68,3.44,1.72,3.44s1.73-1.36,1.73-3.52-.53-3.45-1.72-3.45C315.87,557.83,315.14,559.05,315.14,561.35Z" style="fill: #03a9f4"/>
                <path d="M316.6,573.76h0l-1.47.79-.22-.87,1.85-1h1v8.45H316.6Z" style="fill: #03a9f4"/>
                <path d="M319.73,592.42c0,2.87-1.07,4.46-2.94,4.46-1.65,0-2.77-1.55-2.79-4.34s1.22-4.39,2.94-4.39S319.73,589.73,319.73,592.42Zm-4.59.13c0,2.2.68,3.44,1.72,3.44s1.73-1.36,1.73-3.52-.53-3.45-1.72-3.45C315.87,589,315.14,590.25,315.14,592.55Z" style="fill: #03a9f4"/>
              </g>
            </g>
            <g>
              <line x1="348.94" y1="95.51" x2="348.94" y2="97.01" style="fill: none;stroke: #03a9f4;stroke-miterlimit: 10"/>
              <line x1="348.94" y1="100.85" x2="348.94" y2="159.35" style="fill: none;stroke: #03a9f4;stroke-miterlimit: 10;stroke-dasharray: 2.877082586288452,3.8361101150512695"/>
              <line x1="348.94" y1="161.26" x2="348.94" y2="162.76" style="fill: none;stroke: #03a9f4;stroke-miterlimit: 10"/>
            </g>
            <g>
              <line x1="508.72" y1="162.36" x2="507.66" y2="163.42" style="fill: none;stroke: #03a9f4;stroke-miterlimit: 10"/>
              <line x1="504.94" y1="166.13" x2="463.58" y2="207.5" style="fill: none;stroke: #03a9f4;stroke-miterlimit: 10;stroke-dasharray: 2.877082586288452,3.8361101150512695"/>
              <line x1="462.22" y1="208.85" x2="461.16" y2="209.92" style="fill: none;stroke: #03a9f4;stroke-miterlimit: 10"/>
            </g>
            <g>
              <line x1="601.57" y1="289.4" x2="600.07" y2="289.4" style="fill: none;stroke: #03a9f4;stroke-miterlimit: 10"/>
              <line x1="596.23" y1="289.4" x2="537.73" y2="289.4" style="fill: none;stroke: #03a9f4;stroke-miterlimit: 10;stroke-dasharray: 2.877082586288452,3.8361101150512695"/>
              <line x1="535.81" y1="289.4" x2="534.31" y2="289.4" style="fill: none;stroke: #03a9f4;stroke-miterlimit: 10"/>
            </g>
            <g>
              <line x1="184.01" y1="162.36" x2="185.07" y2="163.42" style="fill: none;stroke: #03a9f4;stroke-miterlimit: 10"/>
              <line x1="187.78" y1="166.13" x2="229.15" y2="207.5" style="fill: none;stroke: #03a9f4;stroke-miterlimit: 10;stroke-dasharray: 2.877082586288452,3.8361101150512695"/>
              <line x1="230.51" y1="208.85" x2="231.57" y2="209.92" style="fill: none;stroke: #03a9f4;stroke-miterlimit: 10"/>
            </g>
            <g>
              <line x1="90.16" y1="289.4" x2="91.66" y2="289.4" style="fill: none;stroke: #03a9f4;stroke-miterlimit: 10"/>
              <line x1="95.5" y1="289.4" x2="154" y2="289.4" style="fill: none;stroke: #03a9f4;stroke-miterlimit: 10;stroke-dasharray: 2.877082586288452,3.8361101150512695"/>
              <line x1="155.92" y1="289.4" x2="157.42" y2="289.4" style="fill: none;stroke: #03a9f4;stroke-miterlimit: 10"/>
            </g>
            <g>
              <g>
                <circle cx="662.77" cy="289.4" r="40" style="fill: #fbfcfd"/>
                <circle cx="662.77" cy="289.4" r="40" style="fill: none;stroke: #03a9f4;stroke-miterlimit: 10"/>
                <path d="M662.77,248.4a41,41,0,1,1-41,41,41,41,0,0,1,41-41m0-8a49,49,0,1,0,49,49,49.06,49.06,0,0,0-49-49Z" style="fill: #fbfcfd"/>
              </g>
              <g id="icon">
                <g id="missle_big" data-name="missle big">
                  <path d="M654.11,276.42a14.45,14.45,0,0,1,2.16-1s12,7.83,17.39,16.57a19.78,19.78,0,0,1,2.29,16.54v0a19.78,19.78,0,0,1-14.56-8.18c-6.18-8.16-9.06-22.24-9.06-22.24a14.44,14.44,0,0,1,1.79-1.75Z" style="fill: #fbfcfd;stroke: #03a9f4;stroke-linecap: round;stroke-linejoin: round"/>
                  <polyline points="655.36 288.77 647.62 287.35 643.11 279.88 649.26 278.2 653.3 280.99 656.08 288.91 655.36 288.77" style="fill: #fbfcfd;stroke: #03a9f4;stroke-linecap: round;stroke-linejoin: round"/>
                  <path d="M666.23,283.14l1.92-3-4.87-6.44-6.46,1.62" style="fill: #fbfcfd;stroke: #03a9f4;stroke-linecap: round;stroke-linejoin: round"/>
                  <polygon points="662.78 283.7 662.25 275.79 656.75 268.05 655.28 271.42 658.31 275.45 656.66 275.95 656.43 276.97 656.64 277.21 662.78 283.7" style="fill: #fbfcfd;stroke: #03a9f4;stroke-linecap: round;stroke-linejoin: round"/>
                  <path d="M649.58,282.64s2.74-5.87,8.73-7.18l-3-4s-6.09,1.53-8.22,7.41Z" style="fill: #fff;stroke: #03a9f4;stroke-linecap: round;stroke-linejoin: round"/>
                  <path d="M666.65,305.4c-1-2,3.94-5.26,3.94-5.26,4.63-3.06,5.75-1.41,5.75-1.41l.3,1.63s-1.17-1.62-5.2,1c0,0-4.44,3-3.34,4.87Z" style="fill: none;stroke: #03a9f4;stroke-linecap: round;stroke-linejoin: round"/>
                  <path d="M650.23,282.26a13.5,13.5,0,0,1,7.91-6.38l.17-.43c-6,1.31-8.74,7.18-8.74,7.18Z" style="fill: #fff;stroke: #03a9f4;stroke-linecap: round;stroke-linejoin: round"/>
                </g>
                <path d="M670.81,297.7a.55.55,0,0,0,.39-.15.57.57,0,0,0,.17-.38.55.55,0,0,0-.15-.39.57.57,0,0,0-.77,0,.57.57,0,0,0-.17.38.56.56,0,0,0,.15.39A.55.55,0,0,0,670.81,297.7Z" style="fill: #03a9f4"/>
                <path d="M668,299.68a.55.55,0,0,0,.37-.68h0a.55.55,0,0,0-.68-.37h0a.55.55,0,0,0-.37.68h0a.55.55,0,0,0,.51.39h0Z" style="fill: #03a9f4"/>
                <path d="M665.55,302.25a.54.54,0,0,0,.14-.76h0a.54.54,0,0,0-.76-.14h0a.54.54,0,0,0-.14.76h0a.55.55,0,0,0,.44.24h0A.56.56,0,0,0,665.55,302.25Z" style="fill: #03a9f4"/>
                <path d="M673.87,296.57a.54.54,0,0,0,.56-.53.53.53,0,0,0-.15-.39.55.55,0,0,0-.94.36.55.55,0,0,0,.15.39A.53.53,0,0,0,673.87,296.57Z" style="fill: #03a9f4"/>
              </g>
            </g>
            <g>
              <g>
                <circle cx="143.09" cy="120.47" r="40" style="fill: #fbfcfd"/>
                <circle cx="143.09" cy="120.47" r="40" style="fill: none;stroke: #03a9f4;stroke-miterlimit: 10"/>
                <circle cx="143.09" cy="120.47" r="40" style="fill: #fbfcfd;stroke: #03a9f4;stroke-miterlimit: 10;stroke-width: 1.40350877192982px"/>
                <path d="M143.09,79.47a41,41,0,1,1-41,41,41,41,0,0,1,41-41m0-8a49,49,0,1,0,49,49,49.06,49.06,0,0,0-49-49Z" style="fill: #fbfcfd"/>
              </g>
              <g>
                <path d="M129.77,118s0-1,1.52-1.87c0,0,1.24-.86,4.25-2.78,0,0,4.88-3.22,8.63-2.5,0,0,6.81.61,8.51,8.48l0,.09a4.44,4.44,0,1,1-2.28,8.58l.06-.18c-5.32,6-11.57,3.25-11.57,3.25-3.62-1.19-6.31-6.38-6.31-6.38-1.69-3.14-2.35-4.49-2.35-4.49a2.6,2.6,0,0,1-.41-2.37" style="fill: #fbfcfd;stroke: #03a9f4;stroke-linecap: round;stroke-linejoin: round"/>
                <path d="M159.85,122.06a3.8,3.8,0,0,0-3.86.41" style="fill: none;stroke: #03a9f4;stroke-linecap: round;stroke-linejoin: round"/>
                <path d="M155.31,126.25s1.65,2,3.58,1.87" style="fill: none;stroke: #03a9f4;stroke-linecap: round;stroke-linejoin: round"/>
                <polyline points="138.78 111.87 137.46 109.5 133.09 108.44 132.38 107.45" style="fill: none;stroke: #03a9f4;stroke-linecap: round;stroke-linejoin: round"/>
                <polyline points="143.84 110.77 144.63 106.61 141.23 103.14 140.99 101.63" style="fill: none;stroke: #03a9f4;stroke-linecap: round;stroke-linejoin: round"/>
                <path d="M147.81,130.51l3.78,4.64.86,3.58,1.06.59" style="fill: none;stroke: #03a9f4;stroke-linecap: round;stroke-linejoin: round"/>
                <polyline points="140.99 131.61 139.59 136.29 134.03 137.63 133.62 139.31" style="fill: none;stroke: #03a9f4;stroke-linecap: round;stroke-linejoin: round"/>
                <polyline points="135.82 129.09 132.28 131.93 127.45 130.5 126.33 130.81" style="fill: none;stroke: #03a9f4;stroke-linecap: round;stroke-linejoin: round"/>
                <path d="M152.64,119.45a10.29,10.29,0,0,1-2.28,8.58" style="fill: none;stroke: #03a9f4;stroke-linecap: round;stroke-linejoin: round"/>
                <path d="M135.93,116.78c2.06-1.37,4.85-2.94,7.57-2.57a8.23,8.23,0,0,1,6.14,4.42.26.26,0,0,1,.07.18" style="fill: none;stroke: #03a9f4;stroke-linecap: round;stroke-linejoin: round"/>
                <polyline points="158.31 108.97 157.03 108.97 154.57 111.59 150.13 113.65" style="fill: none;stroke: #03a9f4;stroke-linecap: round;stroke-linejoin: round"/>
                <path d="M130.37,119.22c2.95.95,6.19,1.85,9.69,2.63,2.71.6,5.3,1.07,7.75,1.44" style="fill: none;stroke: #03a9f4;stroke-linecap: round;stroke-linejoin: round;stroke-dasharray: 2.2586264610290527,3.0115020275115967"/>
              </g>
            </g>
            <g>
              <g>
                <circle cx="49" cy="289.4" r="40" style="fill: #fbfcfd"/>
                <circle cx="49" cy="289.4" r="40" style="fill: none;stroke: #03a9f4;stroke-miterlimit: 10"/>
                <circle cx="49" cy="289.4" r="40" style="fill: #fbfcfd;stroke: #03a9f4;stroke-miterlimit: 10;stroke-width: 1.40350877192982px"/>
                <path d="M49,248.4a41,41,0,1,1-41,41,41,41,0,0,1,41-41m0-8a49,49,0,1,0,49,49,49.06,49.06,0,0,0-49-49Z" style="fill: #fbfcfd"/>
              </g>
              <g id="icon-2" data-name="icon">
                <g>
                  <g>
                    <path d="M54.6,274.51v4H44.37v-4a5.12,5.12,0,0,1,10.23,0Z" style="fill: #fbfcfd;stroke: #03a9f4;stroke-miterlimit: 10"/>
                    <rect x="44.37" y="278.55" width="10.23" height="2.88" style="fill: #fbfcfd;stroke: #03a9f4;stroke-miterlimit: 10"/>
                    <path d="M49.8,281.44h-.63A2,2,0,0,1,49.8,281.44Z" style="fill: #fbfcfd;stroke: #03a9f4;stroke-miterlimit: 10"/>
                    <path d="M55.74,296.67s4.07,0,4.07,5H55.74v-1.78" style="fill: #fbfcfd;stroke: #03a9f4;stroke-miterlimit: 10"/>
                    <path d="M55.74,301.7v5a3.64,3.64,0,0,1,4.07,0v-5Z" style="fill: #fbfcfd;stroke: #03a9f4;stroke-miterlimit: 10"/>
                    <path d="M54.14,309.4h7.27a3.65,3.65,0,0,0-1.6-2.71,3.65,3.65,0,0,0-5.67,2.71Z" style="fill: #fbfcfd;stroke: #03a9f4;stroke-miterlimit: 10"/>
                    <path d="M43.23,296.67s-4.07,0-4.07,5h4.07v-1.78" style="fill: #fbfcfd;stroke: #03a9f4;stroke-miterlimit: 10"/>
                    <path d="M52.58,294.42h3.16v5.5H43.23v-5.5h9.35Z" style="fill: #fbfcfd;stroke: #03a9f4;stroke-miterlimit: 10"/>
                    <rect x="46.39" y="288.26" width="6.19" height="9.83" rx="2.89" ry="2.89" style="fill: #fbfcfd;stroke: #03a9f4;stroke-miterlimit: 10"/>
                    <g>
                      <path d="M49.8,281.45h-.63A2,2,0,0,1,49.8,281.45Z" style="fill: #fbfcfd;stroke: #03a9f4;stroke-miterlimit: 10"/>
                      <path d="M46.39,292.71v-1.55a2.89,2.89,0,0,1,2.89-2.89h.42a2.89,2.89,0,0,1,2.89,2.89v1.55h5.79v-4.43c0-.6,0-1.15-.07-1.66-.36-4.2-2.12-5-3.08-5.17H43.74c-1,.14-2.71,1-3.08,5.17,0,.5-.07,1.05-.07,1.66v4.43Z" style="fill: #fbfcfd;stroke: #03a9f4;stroke-miterlimit: 10"/>
                    </g>
                    <g>
                      <g>
                        <path d="M38.22,295.46,38,299.25H36.63V296L35,294.89H33.87L32.26,296v3.26H30.92l-.25-3.79,1.5-1a2.31,2.31,0,0,1,1.25-1.63,2.23,2.23,0,0,1,.86-.23h.17a2.29,2.29,0,0,1,1.08.27,2.37,2.37,0,0,1,.45.31,2.34,2.34,0,0,1,.74,1.29Z" style="fill: #fbfcfd;stroke: #03a9f4;stroke-miterlimit: 10"/>
                        <path d="M43.74,281.44c-1,.13-2.72,1-3.08,5.17A4.54,4.54,0,0,1,38.59,285a5.28,5.28,0,0,1-.85-2,5.94,5.94,0,0,1-.13-1.59Z" style="fill: #fbfcfd;stroke: #03a9f4;stroke-miterlimit: 10"/>
                        <path d="M38.59,285c-1.21,1-2.84,3.29-3.06,7.81a2.3,2.3,0,0,0-1.08-.27h-.17a2.25,2.25,0,0,0-.86.23c.27-5.84,2.69-8.59,4.32-9.78A5.28,5.28,0,0,0,38.59,285Z" style="fill: #fbfcfd;stroke: #03a9f4;stroke-miterlimit: 10"/>
                        <line x1="35.89" y1="284.89" x2="37.6" y2="286.1" style="fill: #fbfcfd;stroke: #03a9f4;stroke-miterlimit: 10"/>
                        <line x1="34.19" y1="288.26" x2="36.17" y2="289" style="fill: #fbfcfd;stroke: #03a9f4;stroke-miterlimit: 10"/>
                      </g>
                      <g>
                        <path d="M60.75,295.46l.25,3.79h1.34V296l1.61-1.1H65.1l1.61,1.1v3.26H68l.25-3.79-1.5-1a2.31,2.31,0,0,0-1.25-1.63,2.23,2.23,0,0,0-.86-.23h-.17a2.29,2.29,0,0,0-1.08.27,2.37,2.37,0,0,0-.45.31,2.34,2.34,0,0,0-.74,1.29Z" style="fill: #fbfcfd;stroke: #03a9f4;stroke-miterlimit: 10"/>
                        <path d="M55.23,281.44c1,.13,2.72,1,3.08,5.17A4.54,4.54,0,0,0,60.38,285a5.28,5.28,0,0,0,.85-2,5.94,5.94,0,0,0,.13-1.59Z" style="fill: #fbfcfd;stroke: #03a9f4;stroke-miterlimit: 10"/>
                        <path d="M60.38,285c1.21,1,2.84,3.29,3.06,7.81a2.3,2.3,0,0,1,1.08-.27h.17a2.25,2.25,0,0,1,.86.23c-.27-5.84-2.69-8.59-4.32-9.78A5.28,5.28,0,0,1,60.38,285Z" style="fill: #fbfcfd;stroke: #03a9f4;stroke-miterlimit: 10"/>
                        <line x1="63.08" y1="284.89" x2="61.36" y2="286.1" style="fill: #fbfcfd;stroke: #03a9f4;stroke-miterlimit: 10"/>
                        <line x1="64.77" y1="288.26" x2="62.8" y2="289" style="fill: #fbfcfd;stroke: #03a9f4;stroke-miterlimit: 10"/>
                      </g>
                    </g>
                    <rect x="45.94" y="273.98" width="7.09" height="2.4" style="fill: #fbfcfd;stroke: #03a9f4;stroke-miterlimit: 10"/>
                  </g>
                  <path d="M43.23,301.7v5a3.64,3.64,0,0,0-4.07,0v-5Z" style="fill: #fbfcfd;stroke: #03a9f4;stroke-miterlimit: 10"/>
                  <path d="M44.83,309.4H37.56a3.65,3.65,0,0,1,1.6-2.71,3.65,3.65,0,0,1,5.67,2.71Z" style="fill: #fbfcfd;stroke: #03a9f4;stroke-miterlimit: 10"/>
                </g>
                <line x1="44.37" y1="284.73" x2="50.94" y2="284.73" style="fill: #fbfcfd;stroke: #03a9f4;stroke-linecap: round;stroke-linejoin: round;stroke-dasharray: 2.3181469440460205,3.09086275100708"/>
              </g>
            </g>
            <g>
              <g>
                <circle cx="549.73" cy="120.47" r="40" style="fill: #fbfcfd"/>
                <circle cx="549.73" cy="120.47" r="40" style="fill: none;stroke: #03a9f4;stroke-miterlimit: 10"/>
                <path d="M549.73,79.47a41,41,0,1,1-41,41,41,41,0,0,1,41-41m0-8a49,49,0,1,0,49,49,49.06,49.06,0,0,0-49-49Z" style="fill: #fbfcfd"/>
              </g>
              <g id="icon-3" data-name="icon">
                <path d="M563.54,133.51a5,5,0,0,1-2.51.33,9.5,9.5,0,0,1-4-1.37h0a13.69,13.69,0,0,1-6.13-11l-.68-.56-1.92-1.88c-4.94,2.13-7.69-1.16-7.78-1.27a5.85,5.85,0,0,1-1-4.33c.11-2.16,1.1-4.65,3.26-5.49a9,9,0,0,1,7.7.69,72.66,72.66,0,0,1,10.49,7.87c5,3.42,8.16,10,6.59,16a6.51,6.51,0,0,1-.61,1.7,23.3,23.3,0,0,1-2.92-1.06" style="fill: #fff;stroke: #03a9f4;stroke-linecap: round;stroke-linejoin: round"/>
                <path d="M540.44,109.13a1.3,1.3,0,0,0,1.15-.61,9,9,0,0,1,8.76.17,72.66,72.66,0,0,1,10.49,7.87c5,3.42,8.16,10,6.59,16a6.51,6.51,0,0,1-.61,1.7,23.3,23.3,0,0,1-2.92-1.06" style="fill: #fbfcfd;stroke: #03a9f4;stroke-linecap: round;stroke-linejoin: round"/>
                <path d="M564.06,134c1.73,2.79.14,6.5.14,6.5a8.09,8.09,0,0,0,2.57-5.8" style="fill: #fff;stroke: #03a9f4;stroke-linecap: round;stroke-linejoin: round"/>
                <path d="M570.78,107.4a5,5,0,0,0,3.65,1.59" style="fill: none;stroke: #4e7096;stroke-linecap: round;stroke-linejoin: round"/>
                <path d="M560.84,116.56c-2.22-.43-4.94-.86-7.12-.12a3.84,3.84,0,0,0-2.79,3.44" style="fill: none;stroke: #03a9f4;stroke-linecap: round;stroke-linejoin: round"/>
                <path d="M545.92,112.42a6.84,6.84,0,0,1,4.68.77c1,.64,1.34,1.33,2.55,2a7,7,0,0,0,3.61.79l1.21,0a8.31,8.31,0,0,1,2.25.38,4.87,4.87,0,0,0,2.39.18A7,7,0,0,0,565.4,115l.27-.21c.75-.58,1.52-1.15,2.23-1.78.23,0,.46,0,.7,0a4.3,4.3,0,0,0,.69-.08,4.07,4.07,0,0,0,1.48-.62,3.39,3.39,0,0,0,.38-.3s.08-.09.13-.12c.84-.62.69-1.22.69-1.22,1,.48,2-.53,2-.53a1.07,1.07,0,0,0,.37-1.14c1.74-1,2.34-3.62,2.34-3.62a1,1,0,0,0,0-.75.92.92,0,0,0-.45-.47,19.54,19.54,0,0,0-6.29-.9h-.09a20.55,20.55,0,0,0-6.56,1.3l-.82.31a106.12,106.12,0,0,0-12.16,5.51Z" style="fill: #fff;stroke: #03a9f4;stroke-linecap: round;stroke-linejoin: round"/>
                <path d="M545.92,112.42A122.45,122.45,0,0,1,558.81,104l.88-.49a23.71,23.71,0,0,1,7.25-2.65h.1a22.54,22.54,0,0,1,7.34-.09,1.06,1.06,0,0,1,.6.45,1.19,1.19,0,0,1,.13.85s-.22,3.06-2,4.54a1.24,1.24,0,0,1-.22,1.36s-.92,1.32-2.17,1h0s.28.66-.57,1.52c0,0-2.14,3.35-7.33,1,0,0-2.23-1.42-6.77-.54Z" style="fill: #fff;stroke: #03a9f4;stroke-linecap: round;stroke-linejoin: round"/>
                <line x1="565.41" y1="107.83" x2="570.71" y2="108.9" style="fill: none;stroke: #03a9f4;stroke-linecap: round;stroke-linejoin: round"/>
                <line x1="563.27" y1="104.63" x2="573.06" y2="106.57" style="fill: none;stroke: #03a9f4;stroke-linecap: round;stroke-linejoin: round;stroke-dasharray: 2.2466320991516113,2.995509624481201"/>
                <path d="M534.81,112c-.34-.13-.76-.12-1.1-.28a1.79,1.79,0,0,1-.81-.77,9.68,9.68,0,0,0-5.78-4.59s-1.82-.85-1.45.24.77,1.09,1.78,1.23a1.73,1.73,0,0,1,.42.11,10.18,10.18,0,0,1,4.71,3.81,1.33,1.33,0,0,0,1.06.51,7,7,0,0,0,1.12,0S534.81,112,534.81,112Z" style="fill: #03a9f4"/>
                <path d="M535,112.1c-.43,0-.9.15-1.35.1a2.13,2.13,0,0,1-1.21-.57,11.53,11.53,0,0,0-8.26-3s-2.37-.27-1.55.82,1.28.95,2.47.72a2.06,2.06,0,0,1,.51,0,12.13,12.13,0,0,1,6.75,2.54,1.59,1.59,0,0,0,1.39.18,8.37,8.37,0,0,0,1.27-.43S535,112.14,535,112.1Z" style="fill: #03a9f4"/>
                <path d="M541.54,119.1l-1.87,4.21-2.4.84a3.1,3.1,0,0,0-3.47,1.05" style="fill: none;stroke: #03a9f4;stroke-linecap: round;stroke-linejoin: round"/>
                <path d="M535.68,125.92a2.17,2.17,0,0,0,1.59-1.77" style="fill: none;stroke: #03a9f4;stroke-linecap: round;stroke-linejoin: round"/>
                <path d="M538.25,126.58A2.39,2.39,0,0,1,541,125.2l1.65-1.21.55-4.11" style="fill: none;stroke: #03a9f4;stroke-linecap: round;stroke-linejoin: round"/>
                <path d="M540.44,126.58a1.52,1.52,0,0,0,.58-1.38" style="fill: none;stroke: #03a9f4;stroke-linecap: round;stroke-linejoin: round"/>
                <path d="M546,119.87l2.14,2.7-.67,2.13a3.09,3.09,0,0,0-3.46,1.38" style="fill: none;stroke: #03a9f4;stroke-linecap: round;stroke-linejoin: round"/>
                <path d="M546,126.08a2,2,0,0,0,1.47-1.38" style="fill: none;stroke: #03a9f4;stroke-linecap: round;stroke-linejoin: round"/>
                <g>
                  <path d="M555.73,125.39c-1.19.79-2.77,2.17-2.07,4.16,0,0-.93,2.31,0,3.93.32.56.23,1.21.73,1.77.85.94,2.78,1.47,3.53.29a2.31,2.31,0,0,0-.93-3.27,5.54,5.54,0,0,1,0-3.26" style="fill: #fff;stroke: #03a9f4;stroke-linecap: round;stroke-linejoin: round"/>
                  <path d="M557.85,136.68l.83,1.27a2.48,2.48,0,0,1,2.64,1.67" style="fill: none;stroke: #03a9f4;stroke-linecap: round;stroke-linejoin: round"/>
                  <path d="M559.58,139.62s-1.34-.83-.9-1.67" style="fill: none;stroke: #03a9f4;stroke-linecap: round;stroke-linejoin: round"/>
                </g>
                <path d="M557,132.5a9.5,9.5,0,0,0,4,1.37,5,5,0,0,0,2.51-.33c.93-.56-1.75-.56-2.61-1.42-.14-.14-.26-.23-.44-.43a35.57,35.57,0,0,1-2.69-3.09,13.62,13.62,0,0,1-2.27-7.53,2.89,2.89,0,0,0-.42-2,2.73,2.73,0,0,0-3.07-.33,2.44,2.44,0,0,0-1.21,2.52v.28a13.69,13.69,0,0,0,6.13,11Z" style="fill: #fbfcfd;stroke: #03a9f4;stroke-linecap: round;stroke-linejoin: round"/>
                <g>
                  <path d="M552.14,125.39c-1.19.79-2.77,2.17-2.07,4.16,0,0-.93,2.31,0,3.93.32.56.23,1.21.73,1.77.85.94,2.78,1.47,3.53.29a2.31,2.31,0,0,0-.93-3.27s-.92-2.72.76-4.5" style="fill: #fff;stroke: #03a9f4;stroke-linecap: round;stroke-linejoin: round"/>
                  <path d="M554.25,136.68l.83,1.27a2.48,2.48,0,0,1,2.64,1.67" style="fill: none;stroke: #03a9f4;stroke-linecap: round;stroke-linejoin: round"/>
                  <path d="M556,139.62s-1.34-.83-.9-1.67" style="fill: none;stroke: #03a9f4;stroke-linecap: round;stroke-linejoin: round"/>
                </g>
                <path d="M540.46,116.82a2.78,2.78,0,0,1-.34.37l-.1.08a10.35,10.35,0,0,1-1,.62c-.47.3-.64.73-1,1.1a7,7,0,0,1-1.64,1.29,4.63,4.63,0,0,1-2.67.63c-1.06-.31.22-1.82.4-2.48a10.18,10.18,0,0,0,.34-2,8.73,8.73,0,0,1,.2-4.66,4.12,4.12,0,0,0,.5-1.7c0-.68-.27-1.35-.24-2,.66.27,1.32.75,2,.27s.61-1.13.62-1.78a6.3,6.3,0,0,1,1.61,1.45c.86.89,2.08,1.15,2.74,2.26a4.27,4.27,0,0,1,0,3.93" style="fill: #fff;stroke: #03a9f4;stroke-linecap: round;stroke-linejoin: round"/>
                <ellipse cx="537.52" cy="112.72" rx="2.67" ry="1.23" transform="translate(239.59 574.1) rotate(-68.99)" style="fill: #fff;stroke: #03a9f4;stroke-linecap: round;stroke-linejoin: round"/>
              </g>
            </g>
            <g>
              <g>
                <circle cx="348.94" cy="53" r="40" style="fill: #fbfcfd"/>
                <circle cx="348.94" cy="53" r="40" style="fill: none;stroke: #03a9f4;stroke-miterlimit: 10"/>
                <path d="M348.94,12a41,41,0,1,1-41,41,41,41,0,0,1,41-41m0-12a53,53,0,1,0,53,53,53.06,53.06,0,0,0-53-53Z" style="fill: #fbfcfd"/>
              </g>
              <g id="icon-4" data-name="icon">
                <circle cx="341.57" cy="54.4" r="11.94" style="fill: #fbfcfd;stroke: #03a9f4;stroke-linecap: round;stroke-linejoin: round"/>
                <line x1="363.45" y1="50.13" x2="367.89" y2="47.68" style="fill: none;stroke: #03a9f4;stroke-linecap: round;stroke-linejoin: round;stroke-dasharray: 2.1199028491973877,2.8265371322631836"/>
                <line x1="364.43" y1="52.68" x2="369.63" y2="53.46" style="fill: none;stroke: #03a9f4;stroke-linecap: round;stroke-linejoin: round;stroke-dasharray: 2.1199028491973877,2.8265371322631836"/>
                <line x1="363.45" y1="54.9" x2="366.78" y2="58.78" style="fill: none;stroke: #03a9f4;stroke-linecap: round;stroke-linejoin: round;stroke-dasharray: 2.1199028491973877,2.8265371322631836"/>
                <line x1="361.35" y1="55.89" x2="361" y2="60.52" style="fill: none;stroke: #03a9f4;stroke-linecap: round;stroke-linejoin: round;stroke-dasharray: 2.1199028491973877,2.8265371322631836"/>
                <line x1="362.74" y1="49.58" x2="364.16" y2="47.68" style="fill: none;stroke: #03a9f4;stroke-linecap: round;stroke-linejoin: round"/>
                <line x1="364.16" y1="51.18" x2="366.02" y2="50.78" style="fill: none;stroke: #03a9f4;stroke-linecap: round;stroke-linejoin: round"/>
                <line x1="364.09" y1="54" x2="365.26" y2="54.54" style="fill: none;stroke: #03a9f4;stroke-linecap: round;stroke-linejoin: round"/>
                <line x1="362.37" y1="55.64" x2="362.74" y2="56.84" style="fill: none;stroke: #03a9f4;stroke-linecap: round;stroke-linejoin: round"/>
                <path d="M341.76,46.34s-9.05,0-9.4,8c0,0,.07,2.4.78.57a11.72,11.72,0,0,1,8.17-7.66S343.65,46.3,341.76,46.34Z" style="fill: none;stroke: #03a9f4;stroke-linecap: round;stroke-linejoin: round"/>
                <g>
                  <path d="M345.49,41.84c.8-1,3.31-.34,5.61,1.49s3.52,4.13,2.72,5.13-3.31.34-5.61-1.49-3.52-4.13-2.72-5.13" style="fill: #fff;stroke: #03a9f4;stroke-linecap: round;stroke-linejoin: round"/>
                  <path d="M344.17,43.48c-.8,1,.42,3.3,2.72,5.13s4.82,2.5,5.61,1.49l1.22-1.54c-.8,1-3.31.34-5.61-1.49s-3.52-4.13-2.72-5.13L344,43.74Z" style="fill: #fff;stroke: #03a9f4;stroke-linecap: round;stroke-linejoin: round"/>
                </g>
                <line x1="361.74" y1="49.19" x2="363" y2="44.83" style="fill: none;stroke: #03a9f4;stroke-linecap: round;stroke-linejoin: round;stroke-dasharray: 2.1199028491973877,2.8265371322631836"/>
                <path d="M350,45l4.51-4.51A3.54,3.54,0,0,1,359.84,45l-3.75,3.75a3.36,3.36,0,0,0,4.13,4.74l1.44-1.09" style="fill: none;stroke: #03a9f4;stroke-linecap: round;stroke-linejoin: round"/>
              </g>
            </g>
            <line x1="97.82" y1="258.91" x2="122.86" y2="258.91" style="fill: none;stroke: #969c9c;stroke-linecap: round;stroke-linejoin: round"/>
            <line x1="107.89" y1="253.42" x2="123.06" y2="253.42" style="fill: none;stroke: #969c9c;stroke-linecap: round;stroke-linejoin: round"/>
            <g>
              <polygon points="555.52 246.19 552.54 254.37 555.52 262.55 559.81 255.18 555.52 246.19" style="fill: none;stroke: #03a9f4;stroke-linecap: round;stroke-linejoin: round"/>
              <g>
                <polygon points="565.58 246.19 569.87 255.1 564.9 262.55 555.52 262.55 559.81 255.18 555.52 246.19 565.58 246.19" style="fill: none;stroke: #03a9f4;stroke-linecap: round;stroke-linejoin: round"/>
                <line x1="569.06" y1="255.18" x2="559.81" y2="255.18" style="fill: none;stroke: #03a9f4;stroke-linecap: round;stroke-linejoin: round"/>
              </g>
            </g>
            <g>
              <polygon points="323.26 106.64 325.53 112.89 323.26 119.13 319.99 113.5 323.26 106.64" style="fill: none;stroke: #03a9f4;stroke-linecap: round;stroke-linejoin: round"/>
              <g>
                <polygon points="315.59 106.64 312.31 113.45 316.1 119.13 323.26 119.13 319.99 113.5 323.26 106.64 315.59 106.64" style="fill: #fcfcfc;stroke: #03a9f4;stroke-linecap: round;stroke-linejoin: round"/>
                <line x1="312.92" y1="113.5" x2="319.99" y2="113.5" style="fill: none;stroke: #03a9f4;stroke-linecap: round;stroke-linejoin: round"/>
              </g>
            </g>
            <g>
              <polygon points="211.25 46.05 208.78 52.84 211.25 59.63 214.81 53.51 211.25 46.05" style="fill: none;stroke: #03a9f4;stroke-linecap: round;stroke-linejoin: round"/>
              <g>
                <polygon points="219.6 46.05 223.16 53.45 219.04 59.63 211.25 59.63 214.81 53.51 211.25 46.05 219.6 46.05" style="fill: none;stroke: #03a9f4;stroke-linecap: round;stroke-linejoin: round"/>
                <line x1="222.49" y1="53.51" x2="214.81" y2="53.51" style="fill: none;stroke: #03a9f4;stroke-linecap: round;stroke-linejoin: round"/>
              </g>
            </g>
            <line x1="423.08" y1="110.42" x2="438.25" y2="110.42" style="fill: none;stroke: #969c9c;stroke-linecap: round;stroke-linejoin: round;stroke-dasharray: 2,3"/>
            <g>
              <path d="M225.38,125.72h-9.84a1.09,1.09,0,0,1-.94-1.64l4.92-8.52,4.92-8.52a1.09,1.09,0,0,1,1.89,0l4.92,8.52,4.92,8.52a1.09,1.09,0,0,1-.94,1.64Z" style="fill: none;stroke: #03a9f4;stroke-miterlimit: 10;fill-rule: evenodd"/>
              <text transform="translate(223.38 122.9)" style="font-size: 13.227299690246582px;fill: #03a9f4;font-family: WorkSans-SemiBold, Work Sans;font-weight: 700">!</text>
            </g>
            <g>
              <path d="M613.38,359.72h-9.84a1.09,1.09,0,0,1-.94-1.64l4.92-8.52,4.92-8.52a1.09,1.09,0,0,1,1.89,0l4.92,8.52,4.92,8.52a1.09,1.09,0,0,1-.94,1.64Z" style="fill: none;stroke: #03a9f4;stroke-miterlimit: 10;fill-rule: evenodd"/>
              <text transform="translate(611.38 356.9)" style="font-size: 13.227299690246582px;fill: #03a9f4;font-family: WorkSans-SemiBold, Work Sans;font-weight: 700">!</text>
            </g>
            <g>
              <path d="M40.81,226.87A12,12,0,1,0,26,238.53l2.86,5.32,2.7-5.29A12,12,0,0,0,40.81,226.87Z" style="fill: none;stroke: #03a9f4;stroke-miterlimit: 10;fill-rule: evenodd"/>
              <text transform="translate(25.34 233.85)" style="font-size: 20.829069137573242px;fill: #03a9f4;font-family: TimesNewRomanPS-BoldMT, Times New Roman;font-weight: 700">!</text>
            </g>
            <g>
              <path d="M439.81,33.87A12,12,0,1,0,425,45.53l2.86,5.32,2.7-5.29A12,12,0,0,0,439.81,33.87Z" style="fill: none;stroke: #03a9f4;stroke-miterlimit: 10;fill-rule: evenodd"/>
              <text transform="translate(424.34 40.85)" style="font-size: 20.829069137573242px;fill: #03a9f4;font-family: TimesNewRomanPS-BoldMT, Times New Roman;font-weight: 700">!</text>
            </g>
            <g>
              <path d="M144.81,339.87A12,12,0,1,0,130,351.53l2.86,5.32,2.7-5.29A12,12,0,0,0,144.81,339.87Z" style="fill: none;stroke: #03a9f4;stroke-miterlimit: 10;fill-rule: evenodd"/>
              <text transform="translate(129.34 346.85)" style="font-size: 20.829069137573242px;fill: #03a9f4;font-family: TimesNewRomanPS-BoldMT, Times New Roman;font-weight: 700">!</text>
            </g>
          </g>
        </g>
      </g>
    </g>
  </g>
</svg>
