<svg xmlns="http://www.w3.org/2000/svg" width="608.95" height="356.35" viewBox="0 0 608.95 356.35">
  <title>icon-fixed-laptop</title>
  <g id="Layer_2" data-name="Layer 2">
    <g id="Home_-_1200" data-name="Home - 1200">
      <g id="Web_Security" data-name="Web Security">
        <g id="Illustration">
          <g id="Default">
            <g id="Computer">
              <path id="Line_and_Fill" data-name="Line and Fill" d="M.5,332.55l81.11-79V20.82S77.95.5,104.27.5H500.91c26.32,0,22.66,20.32,22.66,20.32V253.54l84.23,79" style="fill: #fff;stroke: #969c9c;stroke-linecap: round;stroke-linejoin: round"/>
              <g id="Line">
                <g>
                  <line x1="485.25" y1="268.31" x2="468.67" y2="268.31" style="fill: none;stroke: #efefef;stroke-linecap: round;stroke-linejoin: round"/>
                  <line x1="482.14" y1="259.75" x2="465.56" y2="259.75" style="fill: none;stroke: #efefef;stroke-linecap: round;stroke-linejoin: round"/>
                  <line x1="491.45" y1="276.87" x2="474.87" y2="276.87" style="fill: none;stroke: #efefef;stroke-linecap: round;stroke-linejoin: round"/>
                  <line x1="461.38" y1="268.31" x2="444.8" y2="268.31" style="fill: none;stroke: #efefef;stroke-linecap: round;stroke-linejoin: round"/>
                  <line x1="458.27" y1="259.75" x2="441.7" y2="259.75" style="fill: none;stroke: #efefef;stroke-linecap: round;stroke-linejoin: round"/>
                  <line x1="467.58" y1="276.87" x2="451.01" y2="276.87" style="fill: none;stroke: #efefef;stroke-linecap: round;stroke-linejoin: round"/>
                  <line x1="437.51" y1="268.31" x2="420.93" y2="268.31" style="fill: none;stroke: #efefef;stroke-linecap: round;stroke-linejoin: round"/>
                  <line x1="434.41" y1="259.75" x2="417.83" y2="259.75" style="fill: none;stroke: #efefef;stroke-linecap: round;stroke-linejoin: round"/>
                  <line x1="443.72" y1="276.87" x2="427.14" y2="276.87" style="fill: none;stroke: #efefef;stroke-linecap: round;stroke-linejoin: round"/>
                  <line x1="413.64" y1="268.31" x2="397.06" y2="268.31" style="fill: none;stroke: #efefef;stroke-linecap: round;stroke-linejoin: round"/>
                  <line x1="410.54" y1="259.75" x2="393.96" y2="259.75" style="fill: none;stroke: #efefef;stroke-linecap: round;stroke-linejoin: round"/>
                  <line x1="419.85" y1="276.87" x2="403.27" y2="276.87" style="fill: none;stroke: #efefef;stroke-linecap: round;stroke-linejoin: round"/>
                  <line x1="13.85" y1="350.95" x2="595.6" y2="350.95" style="fill: none;stroke: #969c9c;stroke-linecap: round;stroke-linejoin: round"/>
                  <rect x="109.71" y="22.24" width="389.15" height="210.91" style="fill: none;stroke: #969c9c;stroke-linecap: round;stroke-linejoin: round"/>
                  <path d="M307.88,334.95H1.15s3.79,15.51,24,20.91H584.43c20.22-5.4,24-20.91,24-20.91Z" style="fill: none;stroke: #969c9c;stroke-linecap: round;stroke-linejoin: round"/>
                  <path d="M281.36,334.67s1.22,5,7.75,6.74h31.38c6.52-1.74,7.75-6.74,7.75-6.74Z" style="fill: none;stroke: #969c9c;stroke-linecap: round;stroke-linejoin: round"/>
                  <polygon points="98.74 286.86 515.63 286.86 483.81 249.77 130.56 249.77 98.74 286.86" style="fill: none;stroke: #969c9c;stroke-linecap: round;stroke-linejoin: round"/>
                  <g>
                    <line x1="228.32" y1="268.31" x2="244.9" y2="268.31" style="fill: none;stroke: #969c9c;stroke-linecap: round;stroke-linejoin: round"/>
                    <line x1="231.42" y1="259.75" x2="248" y2="259.75" style="fill: none;stroke: #969c9c;stroke-linecap: round;stroke-linejoin: round"/>
                    <line x1="222.11" y1="276.87" x2="334.16" y2="276.87" style="fill: none;stroke: #969c9c;stroke-linecap: round;stroke-linejoin: round"/>
                    <line x1="252.19" y1="268.31" x2="268.77" y2="268.31" style="fill: none;stroke: #969c9c;stroke-linecap: round;stroke-linejoin: round"/>
                    <line x1="255.29" y1="259.75" x2="271.87" y2="259.75" style="fill: none;stroke: #969c9c;stroke-linecap: round;stroke-linejoin: round"/>
                    <line x1="245.98" y1="276.87" x2="262.56" y2="276.87" style="fill: none;stroke: #969c9c;stroke-linecap: round;stroke-linejoin: round"/>
                    <line x1="276.05" y1="268.31" x2="292.63" y2="268.31" style="fill: none;stroke: #969c9c;stroke-linecap: round;stroke-linejoin: round"/>
                    <line x1="279.16" y1="259.75" x2="295.74" y2="259.75" style="fill: none;stroke: #969c9c;stroke-linecap: round;stroke-linejoin: round"/>
                    <line x1="269.85" y1="276.87" x2="286.43" y2="276.87" style="fill: none;stroke: #969c9c;stroke-linecap: round;stroke-linejoin: round"/>
                    <line x1="299.92" y1="268.31" x2="316.5" y2="268.31" style="fill: none;stroke: #969c9c;stroke-linecap: round;stroke-linejoin: round"/>
                    <line x1="303.03" y1="259.75" x2="319.6" y2="259.75" style="fill: none;stroke: #969c9c;stroke-linecap: round;stroke-linejoin: round"/>
                    <line x1="293.72" y1="276.87" x2="310.29" y2="276.87" style="fill: none;stroke: #969c9c;stroke-linecap: round;stroke-linejoin: round"/>
                  </g>
                  <g>
                    <g>
                      <line x1="385" y1="268.31" x2="368.42" y2="268.31" style="fill: none;stroke: #efefef;stroke-linecap: round;stroke-linejoin: round"/>
                      <line x1="381.9" y1="259.75" x2="365.32" y2="259.75" style="fill: none;stroke: #efefef;stroke-linecap: round;stroke-linejoin: round"/>
                      <line x1="391.21" y1="276.87" x2="374.63" y2="276.87" style="fill: none;stroke: #efefef;stroke-linecap: round;stroke-linejoin: round"/>
                      <line x1="361.13" y1="268.31" x2="344.55" y2="268.31" style="fill: none;stroke: #efefef;stroke-linecap: round;stroke-linejoin: round"/>
                      <line x1="358.03" y1="259.75" x2="341.45" y2="259.75" style="fill: none;stroke: #efefef;stroke-linecap: round;stroke-linejoin: round"/>
                      <line x1="367.34" y1="276.87" x2="350.76" y2="276.87" style="fill: none;stroke: #efefef;stroke-linecap: round;stroke-linejoin: round"/>
                      <line x1="337.27" y1="268.31" x2="320.69" y2="268.31" style="fill: none;stroke: #efefef;stroke-linecap: round;stroke-linejoin: round"/>
                      <line x1="334.16" y1="259.75" x2="317.58" y2="259.75" style="fill: none;stroke: #efefef;stroke-linecap: round;stroke-linejoin: round"/>
                      <line x1="343.47" y1="276.87" x2="326.89" y2="276.87" style="fill: none;stroke: #efefef;stroke-linecap: round;stroke-linejoin: round"/>
                      <line x1="313.4" y1="268.31" x2="296.82" y2="268.31" style="fill: none;stroke: #efefef;stroke-linecap: round;stroke-linejoin: round"/>
                      <line x1="310.29" y1="259.75" x2="293.72" y2="259.75" style="fill: none;stroke: #efefef;stroke-linecap: round;stroke-linejoin: round"/>
                      <line x1="319.6" y1="276.87" x2="303.03" y2="276.87" style="fill: none;stroke: #fff;stroke-linecap: round;stroke-linejoin: round"/>
                    </g>
                    <g>
                      <line x1="385" y1="268.31" x2="368.42" y2="268.31" style="fill: none;stroke: #969c9c;stroke-linecap: round;stroke-linejoin: round"/>
                      <line x1="381.9" y1="259.75" x2="365.32" y2="259.75" style="fill: none;stroke: #969c9c;stroke-linecap: round;stroke-linejoin: round"/>
                      <line x1="391.21" y1="276.87" x2="374.63" y2="276.87" style="fill: none;stroke: #969c9c;stroke-linecap: round;stroke-linejoin: round"/>
                      <line x1="361.13" y1="268.31" x2="344.55" y2="268.31" style="fill: none;stroke: #969c9c;stroke-linecap: round;stroke-linejoin: round"/>
                      <line x1="358.03" y1="259.75" x2="341.45" y2="259.75" style="fill: none;stroke: #969c9c;stroke-linecap: round;stroke-linejoin: round"/>
                      <line x1="367.34" y1="276.87" x2="350.76" y2="276.87" style="fill: none;stroke: #969c9c;stroke-linecap: round;stroke-linejoin: round"/>
                      <line x1="337.27" y1="268.31" x2="320.69" y2="268.31" style="fill: none;stroke: #969c9c;stroke-linecap: round;stroke-linejoin: round"/>
                      <line x1="334.16" y1="259.75" x2="317.58" y2="259.75" style="fill: none;stroke: #969c9c;stroke-linecap: round;stroke-linejoin: round"/>
                      <line x1="343.47" y1="276.87" x2="326.89" y2="276.87" style="fill: none;stroke: #969c9c;stroke-linecap: round;stroke-linejoin: round"/>
                      <line x1="313.4" y1="268.31" x2="296.82" y2="268.31" style="fill: none;stroke: #969c9c;stroke-linecap: round;stroke-linejoin: round"/>
                      <line x1="310.29" y1="259.75" x2="293.72" y2="259.75" style="fill: none;stroke: #969c9c;stroke-linecap: round;stroke-linejoin: round"/>
                      <line x1="319.6" y1="276.87" x2="303.03" y2="276.87" style="fill: none;stroke: #969c9c;stroke-linecap: round;stroke-linejoin: round"/>
                    </g>
                  </g>
                  <g>
                    <g>
                      <line x1="128.07" y1="268.31" x2="144.65" y2="268.31" style="fill: none;stroke: #efefef;stroke-linecap: round;stroke-linejoin: round"/>
                      <line x1="131.18" y1="259.75" x2="147.76" y2="259.75" style="fill: none;stroke: #efefef;stroke-linecap: round;stroke-linejoin: round"/>
                      <line x1="121.87" y1="276.87" x2="138.45" y2="276.87" style="fill: none;stroke: #efefef;stroke-linecap: round;stroke-linejoin: round"/>
                      <line x1="151.94" y1="268.31" x2="168.52" y2="268.31" style="fill: none;stroke: #efefef;stroke-linecap: round;stroke-linejoin: round"/>
                      <line x1="155.05" y1="259.75" x2="171.62" y2="259.75" style="fill: none;stroke: #efefef;stroke-linecap: round;stroke-linejoin: round"/>
                      <line x1="145.74" y1="276.87" x2="162.31" y2="276.87" style="fill: none;stroke: #efefef;stroke-linecap: round;stroke-linejoin: round"/>
                      <line x1="175.81" y1="268.31" x2="192.39" y2="268.31" style="fill: none;stroke: #efefef;stroke-linecap: round;stroke-linejoin: round"/>
                      <line x1="178.91" y1="259.75" x2="195.49" y2="259.75" style="fill: none;stroke: #efefef;stroke-linecap: round;stroke-linejoin: round"/>
                      <line x1="169.6" y1="276.87" x2="186.18" y2="276.87" style="fill: none;stroke: #efefef;stroke-linecap: round;stroke-linejoin: round"/>
                      <line x1="199.68" y1="268.31" x2="216.26" y2="268.31" style="fill: none;stroke: #efefef;stroke-linecap: round;stroke-linejoin: round"/>
                      <line x1="202.78" y1="259.75" x2="219.36" y2="259.75" style="fill: none;stroke: #efefef;stroke-linecap: round;stroke-linejoin: round"/>
                      <line x1="193.47" y1="276.87" x2="210.05" y2="276.87" style="fill: none;stroke: #efefef;stroke-linecap: round;stroke-linejoin: round"/>
                    </g>
                    <g>
                      <line x1="128.07" y1="268.31" x2="144.65" y2="268.31" style="fill: none;stroke: #969c9c;stroke-linecap: round;stroke-linejoin: round"/>
                      <line x1="131.18" y1="259.75" x2="147.76" y2="259.75" style="fill: none;stroke: #969c9c;stroke-linecap: round;stroke-linejoin: round"/>
                      <line x1="121.87" y1="276.87" x2="138.45" y2="276.87" style="fill: none;stroke: #969c9c;stroke-linecap: round;stroke-linejoin: round"/>
                      <line x1="151.94" y1="268.31" x2="168.52" y2="268.31" style="fill: none;stroke: #969c9c;stroke-linecap: round;stroke-linejoin: round"/>
                      <line x1="155.05" y1="259.75" x2="171.62" y2="259.75" style="fill: none;stroke: #969c9c;stroke-linecap: round;stroke-linejoin: round"/>
                      <line x1="145.74" y1="276.87" x2="162.31" y2="276.87" style="fill: none;stroke: #969c9c;stroke-linecap: round;stroke-linejoin: round"/>
                      <line x1="175.81" y1="268.31" x2="192.39" y2="268.31" style="fill: none;stroke: #969c9c;stroke-linecap: round;stroke-linejoin: round"/>
                      <line x1="178.91" y1="259.75" x2="195.49" y2="259.75" style="fill: none;stroke: #969c9c;stroke-linecap: round;stroke-linejoin: round"/>
                      <line x1="169.6" y1="276.87" x2="186.18" y2="276.87" style="fill: none;stroke: #969c9c;stroke-linecap: round;stroke-linejoin: round"/>
                      <line x1="199.68" y1="268.31" x2="216.26" y2="268.31" style="fill: none;stroke: #969c9c;stroke-linecap: round;stroke-linejoin: round"/>
                      <line x1="202.78" y1="259.75" x2="219.36" y2="259.75" style="fill: none;stroke: #969c9c;stroke-linecap: round;stroke-linejoin: round"/>
                      <line x1="193.47" y1="276.87" x2="210.05" y2="276.87" style="fill: none;stroke: #969c9c;stroke-linecap: round;stroke-linejoin: round"/>
                    </g>
                  </g>
                  <polyline points="184.1 318.95 425.49 318.95 415.07 301.48 198.79 301.83 184.1 318.95" style="fill: none;stroke: #969c9c;stroke-linecap: round;stroke-linejoin: round"/>
                </g>
                <g>
                  <line x1="485.25" y1="268.31" x2="468.67" y2="268.31" style="fill: none;stroke: #969c9c;stroke-linecap: round;stroke-linejoin: round"/>
                  <line x1="482.14" y1="259.75" x2="465.56" y2="259.75" style="fill: none;stroke: #969c9c;stroke-linecap: round;stroke-linejoin: round"/>
                  <line x1="491.45" y1="276.87" x2="474.87" y2="276.87" style="fill: none;stroke: #969c9c;stroke-linecap: round;stroke-linejoin: round"/>
                  <line x1="461.38" y1="268.31" x2="444.8" y2="268.31" style="fill: none;stroke: #969c9c;stroke-linecap: round;stroke-linejoin: round"/>
                  <line x1="458.27" y1="259.75" x2="441.7" y2="259.75" style="fill: none;stroke: #969c9c;stroke-linecap: round;stroke-linejoin: round"/>
                  <line x1="467.58" y1="276.87" x2="451.01" y2="276.87" style="fill: none;stroke: #969c9c;stroke-linecap: round;stroke-linejoin: round"/>
                  <line x1="437.51" y1="268.31" x2="420.93" y2="268.31" style="fill: none;stroke: #969c9c;stroke-linecap: round;stroke-linejoin: round"/>
                  <line x1="434.41" y1="259.75" x2="417.83" y2="259.75" style="fill: none;stroke: #969c9c;stroke-linecap: round;stroke-linejoin: round"/>
                  <line x1="443.72" y1="276.87" x2="427.14" y2="276.87" style="fill: none;stroke: #969c9c;stroke-linecap: round;stroke-linejoin: round"/>
                  <line x1="413.64" y1="268.31" x2="397.06" y2="268.31" style="fill: none;stroke: #969c9c;stroke-linecap: round;stroke-linejoin: round"/>
                  <line x1="410.54" y1="259.75" x2="393.96" y2="259.75" style="fill: none;stroke: #969c9c;stroke-linecap: round;stroke-linejoin: round"/>
                  <line x1="419.85" y1="276.87" x2="403.27" y2="276.87" style="fill: none;stroke: #969c9c;stroke-linecap: round;stroke-linejoin: round"/>
                  <line x1="13.85" y1="350.95" x2="595.6" y2="350.95" style="fill: none;stroke: #969c9c;stroke-linecap: round;stroke-linejoin: round"/>
                  <rect x="109.71" y="22.24" width="389.15" height="210.91" style="fill: none;stroke: #969c9c;stroke-linecap: round;stroke-linejoin: round"/>
                  <path d="M307.88,334.95H1.15s3.79,15.51,24,20.91H584.43c20.22-5.4,24-20.91,24-20.91Z" style="fill: none;stroke: #969c9c;stroke-linecap: round;stroke-linejoin: round"/>
                  <path d="M281.36,334.67s1.22,5,7.75,6.74h31.38c6.52-1.74,7.75-6.74,7.75-6.74Z" style="fill: none;stroke: #969c9c;stroke-linecap: round;stroke-linejoin: round"/>
                  <polygon points="98.74 286.86 515.63 286.86 483.81 249.77 130.56 249.77 98.74 286.86" style="fill: none;stroke: #969c9c;stroke-linecap: round;stroke-linejoin: round"/>
                  <g>
                    <line x1="228.32" y1="268.31" x2="244.9" y2="268.31" style="fill: none;stroke: #969c9c;stroke-linecap: round;stroke-linejoin: round"/>
                    <line x1="231.42" y1="259.75" x2="248" y2="259.75" style="fill: none;stroke: #969c9c;stroke-linecap: round;stroke-linejoin: round"/>
                    <line x1="222.11" y1="276.87" x2="334.16" y2="276.87" style="fill: none;stroke: #969c9c;stroke-linecap: round;stroke-linejoin: round"/>
                    <line x1="252.19" y1="268.31" x2="268.77" y2="268.31" style="fill: none;stroke: #969c9c;stroke-linecap: round;stroke-linejoin: round"/>
                    <line x1="255.29" y1="259.75" x2="271.87" y2="259.75" style="fill: none;stroke: #969c9c;stroke-linecap: round;stroke-linejoin: round"/>
                    <line x1="245.98" y1="276.87" x2="262.56" y2="276.87" style="fill: none;stroke: #969c9c;stroke-linecap: round;stroke-linejoin: round"/>
                    <line x1="276.05" y1="268.31" x2="292.63" y2="268.31" style="fill: none;stroke: #969c9c;stroke-linecap: round;stroke-linejoin: round"/>
                    <line x1="279.16" y1="259.75" x2="295.74" y2="259.75" style="fill: none;stroke: #969c9c;stroke-linecap: round;stroke-linejoin: round"/>
                    <line x1="269.85" y1="276.87" x2="286.43" y2="276.87" style="fill: none;stroke: #969c9c;stroke-linecap: round;stroke-linejoin: round"/>
                    <line x1="299.92" y1="268.31" x2="316.5" y2="268.31" style="fill: none;stroke: #969c9c;stroke-linecap: round;stroke-linejoin: round"/>
                    <line x1="303.03" y1="259.75" x2="319.6" y2="259.75" style="fill: none;stroke: #969c9c;stroke-linecap: round;stroke-linejoin: round"/>
                    <line x1="293.72" y1="276.87" x2="310.29" y2="276.87" style="fill: none;stroke: #969c9c;stroke-linecap: round;stroke-linejoin: round"/>
                  </g>
                  <g>
                    <g>
                      <line x1="385" y1="268.31" x2="368.42" y2="268.31" style="fill: none;stroke: #969c9c;stroke-linecap: round;stroke-linejoin: round"/>
                      <line x1="381.9" y1="259.75" x2="365.32" y2="259.75" style="fill: none;stroke: #969c9c;stroke-linecap: round;stroke-linejoin: round"/>
                      <line x1="391.21" y1="276.87" x2="374.63" y2="276.87" style="fill: none;stroke: #969c9c;stroke-linecap: round;stroke-linejoin: round"/>
                      <line x1="361.13" y1="268.31" x2="344.55" y2="268.31" style="fill: none;stroke: #969c9c;stroke-linecap: round;stroke-linejoin: round"/>
                      <line x1="358.03" y1="259.75" x2="341.45" y2="259.75" style="fill: none;stroke: #969c9c;stroke-linecap: round;stroke-linejoin: round"/>
                      <line x1="367.34" y1="276.87" x2="350.76" y2="276.87" style="fill: none;stroke: #969c9c;stroke-linecap: round;stroke-linejoin: round"/>
                      <line x1="337.27" y1="268.31" x2="320.69" y2="268.31" style="fill: none;stroke: #969c9c;stroke-linecap: round;stroke-linejoin: round"/>
                      <line x1="334.16" y1="259.75" x2="317.58" y2="259.75" style="fill: none;stroke: #969c9c;stroke-linecap: round;stroke-linejoin: round"/>
                      <line x1="343.47" y1="276.87" x2="326.89" y2="276.87" style="fill: none;stroke: #969c9c;stroke-linecap: round;stroke-linejoin: round"/>
                      <line x1="313.4" y1="268.31" x2="296.82" y2="268.31" style="fill: none;stroke: #969c9c;stroke-linecap: round;stroke-linejoin: round"/>
                      <line x1="310.29" y1="259.75" x2="293.72" y2="259.75" style="fill: none;stroke: #969c9c;stroke-linecap: round;stroke-linejoin: round"/>
                      <line x1="319.6" y1="276.87" x2="303.03" y2="276.87" style="fill: none;stroke: #969c9c;stroke-linecap: round;stroke-linejoin: round"/>
                    </g>
                    <g>
                      <line x1="385" y1="268.31" x2="368.42" y2="268.31" style="fill: none;stroke: #969c9c;stroke-linecap: round;stroke-linejoin: round"/>
                      <line x1="381.9" y1="259.75" x2="365.32" y2="259.75" style="fill: none;stroke: #969c9c;stroke-linecap: round;stroke-linejoin: round"/>
                      <line x1="391.21" y1="276.87" x2="374.63" y2="276.87" style="fill: none;stroke: #969c9c;stroke-linecap: round;stroke-linejoin: round"/>
                      <line x1="361.13" y1="268.31" x2="344.55" y2="268.31" style="fill: none;stroke: #969c9c;stroke-linecap: round;stroke-linejoin: round"/>
                      <line x1="358.03" y1="259.75" x2="341.45" y2="259.75" style="fill: none;stroke: #969c9c;stroke-linecap: round;stroke-linejoin: round"/>
                      <line x1="367.34" y1="276.87" x2="350.76" y2="276.87" style="fill: none;stroke: #969c9c;stroke-linecap: round;stroke-linejoin: round"/>
                      <line x1="337.27" y1="268.31" x2="320.69" y2="268.31" style="fill: none;stroke: #969c9c;stroke-linecap: round;stroke-linejoin: round"/>
                      <line x1="334.16" y1="259.75" x2="317.58" y2="259.75" style="fill: none;stroke: #969c9c;stroke-linecap: round;stroke-linejoin: round"/>
                      <line x1="343.47" y1="276.87" x2="326.89" y2="276.87" style="fill: none;stroke: #969c9c;stroke-linecap: round;stroke-linejoin: round"/>
                      <line x1="313.4" y1="268.31" x2="296.82" y2="268.31" style="fill: none;stroke: #969c9c;stroke-linecap: round;stroke-linejoin: round"/>
                      <line x1="310.29" y1="259.75" x2="293.72" y2="259.75" style="fill: none;stroke: #969c9c;stroke-linecap: round;stroke-linejoin: round"/>
                      <line x1="319.6" y1="276.87" x2="303.03" y2="276.87" style="fill: none;stroke: #969c9c;stroke-linecap: round;stroke-linejoin: round"/>
                    </g>
                    <g>
                      <line x1="385" y1="268.31" x2="368.42" y2="268.31" style="fill: none;stroke: #969c9c;stroke-linecap: round;stroke-linejoin: round"/>
                      <line x1="381.9" y1="259.75" x2="365.32" y2="259.75" style="fill: none;stroke: #969c9c;stroke-linecap: round;stroke-linejoin: round"/>
                      <line x1="391.21" y1="276.87" x2="374.63" y2="276.87" style="fill: none;stroke: #969c9c;stroke-linecap: round;stroke-linejoin: round"/>
                      <line x1="361.13" y1="268.31" x2="344.55" y2="268.31" style="fill: none;stroke: #969c9c;stroke-linecap: round;stroke-linejoin: round"/>
                      <line x1="358.03" y1="259.75" x2="341.45" y2="259.75" style="fill: none;stroke: #969c9c;stroke-linecap: round;stroke-linejoin: round"/>
                      <line x1="367.34" y1="276.87" x2="350.76" y2="276.87" style="fill: none;stroke: #969c9c;stroke-linecap: round;stroke-linejoin: round"/>
                      <line x1="337.27" y1="268.31" x2="320.69" y2="268.31" style="fill: none;stroke: #969c9c;stroke-linecap: round;stroke-linejoin: round"/>
                      <line x1="334.16" y1="259.75" x2="317.58" y2="259.75" style="fill: none;stroke: #969c9c;stroke-linecap: round;stroke-linejoin: round"/>
                      <line x1="343.47" y1="276.87" x2="326.89" y2="276.87" style="fill: none;stroke: #969c9c;stroke-linecap: round;stroke-linejoin: round"/>
                      <line x1="313.4" y1="268.31" x2="296.82" y2="268.31" style="fill: none;stroke: #969c9c;stroke-linecap: round;stroke-linejoin: round"/>
                      <line x1="310.29" y1="259.75" x2="293.72" y2="259.75" style="fill: none;stroke: #969c9c;stroke-linecap: round;stroke-linejoin: round"/>
                      <line x1="319.6" y1="276.87" x2="303.03" y2="276.87" style="fill: none;stroke: #969c9c;stroke-linecap: round;stroke-linejoin: round"/>
                    </g>
                  </g>
                  <g>
                    <g>
                      <line x1="128.07" y1="268.31" x2="144.65" y2="268.31" style="fill: none;stroke: #969c9c;stroke-linecap: round;stroke-linejoin: round"/>
                      <line x1="131.18" y1="259.75" x2="147.76" y2="259.75" style="fill: none;stroke: #969c9c;stroke-linecap: round;stroke-linejoin: round"/>
                      <line x1="121.87" y1="276.87" x2="138.45" y2="276.87" style="fill: none;stroke: #969c9c;stroke-linecap: round;stroke-linejoin: round"/>
                      <line x1="151.94" y1="268.31" x2="168.52" y2="268.31" style="fill: none;stroke: #969c9c;stroke-linecap: round;stroke-linejoin: round"/>
                      <line x1="155.05" y1="259.75" x2="171.62" y2="259.75" style="fill: none;stroke: #969c9c;stroke-linecap: round;stroke-linejoin: round"/>
                      <line x1="145.74" y1="276.87" x2="162.31" y2="276.87" style="fill: none;stroke: #969c9c;stroke-linecap: round;stroke-linejoin: round"/>
                      <line x1="175.81" y1="268.31" x2="192.39" y2="268.31" style="fill: none;stroke: #969c9c;stroke-linecap: round;stroke-linejoin: round"/>
                      <line x1="178.91" y1="259.75" x2="195.49" y2="259.75" style="fill: none;stroke: #969c9c;stroke-linecap: round;stroke-linejoin: round"/>
                      <line x1="169.6" y1="276.87" x2="186.18" y2="276.87" style="fill: none;stroke: #969c9c;stroke-linecap: round;stroke-linejoin: round"/>
                      <line x1="199.68" y1="268.31" x2="216.26" y2="268.31" style="fill: none;stroke: #969c9c;stroke-linecap: round;stroke-linejoin: round"/>
                      <line x1="202.78" y1="259.75" x2="219.36" y2="259.75" style="fill: none;stroke: #969c9c;stroke-linecap: round;stroke-linejoin: round"/>
                      <line x1="193.47" y1="276.87" x2="210.05" y2="276.87" style="fill: none;stroke: #969c9c;stroke-linecap: round;stroke-linejoin: round"/>
                    </g>
                    <g>
                      <line x1="128.07" y1="268.31" x2="144.65" y2="268.31" style="fill: none;stroke: #969c9c;stroke-linecap: round;stroke-linejoin: round"/>
                      <line x1="131.18" y1="259.75" x2="147.76" y2="259.75" style="fill: none;stroke: #969c9c;stroke-linecap: round;stroke-linejoin: round"/>
                      <line x1="121.87" y1="276.87" x2="138.45" y2="276.87" style="fill: none;stroke: #969c9c;stroke-linecap: round;stroke-linejoin: round"/>
                      <line x1="151.94" y1="268.31" x2="168.52" y2="268.31" style="fill: none;stroke: #969c9c;stroke-linecap: round;stroke-linejoin: round"/>
                      <line x1="155.05" y1="259.75" x2="171.62" y2="259.75" style="fill: none;stroke: #969c9c;stroke-linecap: round;stroke-linejoin: round"/>
                      <line x1="145.74" y1="276.87" x2="162.31" y2="276.87" style="fill: none;stroke: #969c9c;stroke-linecap: round;stroke-linejoin: round"/>
                      <line x1="175.81" y1="268.31" x2="192.39" y2="268.31" style="fill: none;stroke: #969c9c;stroke-linecap: round;stroke-linejoin: round"/>
                      <line x1="178.91" y1="259.75" x2="195.49" y2="259.75" style="fill: none;stroke: #969c9c;stroke-linecap: round;stroke-linejoin: round"/>
                      <line x1="169.6" y1="276.87" x2="186.18" y2="276.87" style="fill: none;stroke: #969c9c;stroke-linecap: round;stroke-linejoin: round"/>
                      <line x1="199.68" y1="268.31" x2="216.26" y2="268.31" style="fill: none;stroke: #969c9c;stroke-linecap: round;stroke-linejoin: round"/>
                      <line x1="202.78" y1="259.75" x2="219.36" y2="259.75" style="fill: none;stroke: #969c9c;stroke-linecap: round;stroke-linejoin: round"/>
                      <line x1="193.47" y1="276.87" x2="210.05" y2="276.87" style="fill: none;stroke: #969c9c;stroke-linecap: round;stroke-linejoin: round"/>
                    </g>
                    <g>
                      <line x1="128.07" y1="268.31" x2="144.65" y2="268.31" style="fill: none;stroke: #969c9c;stroke-linecap: round;stroke-linejoin: round"/>
                      <line x1="131.18" y1="259.75" x2="147.76" y2="259.75" style="fill: none;stroke: #969c9c;stroke-linecap: round;stroke-linejoin: round"/>
                      <line x1="121.87" y1="276.87" x2="138.45" y2="276.87" style="fill: none;stroke: #969c9c;stroke-linecap: round;stroke-linejoin: round"/>
                      <line x1="151.94" y1="268.31" x2="168.52" y2="268.31" style="fill: none;stroke: #969c9c;stroke-linecap: round;stroke-linejoin: round"/>
                      <line x1="155.05" y1="259.75" x2="171.62" y2="259.75" style="fill: none;stroke: #969c9c;stroke-linecap: round;stroke-linejoin: round"/>
                      <line x1="145.74" y1="276.87" x2="162.31" y2="276.87" style="fill: none;stroke: #969c9c;stroke-linecap: round;stroke-linejoin: round"/>
                      <line x1="175.81" y1="268.31" x2="192.39" y2="268.31" style="fill: none;stroke: #969c9c;stroke-linecap: round;stroke-linejoin: round"/>
                      <line x1="178.91" y1="259.75" x2="195.49" y2="259.75" style="fill: none;stroke: #969c9c;stroke-linecap: round;stroke-linejoin: round"/>
                      <line x1="169.6" y1="276.87" x2="186.18" y2="276.87" style="fill: none;stroke: #969c9c;stroke-linecap: round;stroke-linejoin: round"/>
                      <line x1="199.68" y1="268.31" x2="216.26" y2="268.31" style="fill: none;stroke: #969c9c;stroke-linecap: round;stroke-linejoin: round"/>
                      <line x1="202.78" y1="259.75" x2="219.36" y2="259.75" style="fill: none;stroke: #969c9c;stroke-linecap: round;stroke-linejoin: round"/>
                      <line x1="193.47" y1="276.87" x2="210.05" y2="276.87" style="fill: none;stroke: #969c9c;stroke-linecap: round;stroke-linejoin: round"/>
                    </g>
                  </g>
                  <polyline points="184.1 318.95 425.49 318.95 415.07 301.48 198.79 301.83 184.1 318.95" style="fill: none;stroke: #969c9c;stroke-linecap: round;stroke-linejoin: round"/>
                </g>
              </g>
            </g>
          </g>
        </g>
      </g>
    </g>
  </g>
</svg>
