<svg xmlns="http://www.w3.org/2000/svg" width="149.46" height="143.88" viewBox="0 0 149.46 143.88">
  <title>icon-repsonse-team-green</title>
  <g id="Layer_2" data-name="Layer 2">
    <g id="cWatch_Pricing" data-name="cWatch Pricing">
      <g id="_575" data-name="575">
        <g id="Detailed_Features" data-name="Detailed Features">
          <g id="Response">
            <g id="csoc_-_lg" data-name="csoc - lg">
              <path d="M25.48,104.36A34.79,34.79,0,0,0,51.11,93.13c-.15-4.3-1.21-8.21-8.45-10.58-5.34-1.75-8.29-3.74-9.79-6.61a19.18,19.18,0,0,0,2.35-3.44v0a26.56,26.56,0,0,0,1.6-5.67,9.77,9.77,0,0,0,.77-1.17,5.47,5.47,0,0,0,.9-2.4V63c.07-2.41,0-3.81-.46-4.31a.73.73,0,0,0-.24-.17A6.63,6.63,0,0,0,38,54.11a17.47,17.47,0,0,0-1.1-2.29h.4a.45.45,0,0,0,.42-.32.45.45,0,0,0-.18-.5,8.7,8.7,0,0,1-1.71-2,9.41,9.41,0,0,0-5.95-4,11,11,0,0,0-3.73,0,11,11,0,0,0-3.73,0,9.41,9.41,0,0,0-5.95,4,8.77,8.77,0,0,1-1.7,2,.45.45,0,0,0,.24.83h.4a17.45,17.45,0,0,0-1.1,2.29,6.63,6.63,0,0,0,.14,4.42.73.73,0,0,0-.24.17c-.49.5-.54,1.9-.46,4.31v.22a5.47,5.47,0,0,0,.9,2.4,9.76,9.76,0,0,0,.77,1.17A26.56,26.56,0,0,0,17,72.46v0a19,19,0,0,0,2,3c-1.42,3.11-4.43,5.23-10,7.05C1.34,85,.57,89.24.5,93.82A34.78,34.78,0,0,0,25.48,104.36Z" style="fill: #fff;stroke: #1fc469;stroke-linecap: round;stroke-linejoin: round"/>
              <path d="M41.12,123.85A50.11,50.11,0,0,0,78,107.67c-.22-6.2-1.74-11.82-12.17-15.24-7.69-2.52-11.94-5.38-14.1-9.52a27.62,27.62,0,0,0,3.38-5l0,0a38.26,38.26,0,0,0,2.3-8.16,14.07,14.07,0,0,0,1.11-1.69,7.87,7.87,0,0,0,1.3-3.45v-.32c.11-3.47,0-5.48-.67-6.2a1,1,0,0,0-.34-.24,9.54,9.54,0,0,0,.2-6.37,25.16,25.16,0,0,0-1.59-3.29h.58a.65.65,0,0,0,.61-.46.65.65,0,0,0-.26-.72A12.53,12.53,0,0,1,56,44.1a13.56,13.56,0,0,0-8.57-5.83,15.87,15.87,0,0,0-5.37,0,15.87,15.87,0,0,0-5.37,0A13.56,13.56,0,0,0,28.1,44.1,12.63,12.63,0,0,1,25.65,47,.65.65,0,0,0,26,48.18h.58A25.13,25.13,0,0,0,25,51.48a9.54,9.54,0,0,0,.2,6.37,1,1,0,0,0-.34.24c-.7.72-.77,2.74-.67,6.2v.32a7.88,7.88,0,0,0,1.3,3.45,14.06,14.06,0,0,0,1.11,1.69,38.25,38.25,0,0,0,2.3,8.16l0,0a27.36,27.36,0,0,0,2.85,4.31c-2,4.47-6.38,7.53-14.42,10.16-11,3.6-12.09,9.65-12.2,16.24A50.09,50.09,0,0,0,41.12,123.85Z" style="fill: #fff;stroke: #1fc469;stroke-linecap: round;stroke-linejoin: round"/>
              <path d="M123.33,104.36A34.79,34.79,0,0,0,149,93.13c-.15-4.3-1.21-8.21-8.45-10.58-5.34-1.75-8.29-3.74-9.79-6.61a19.18,19.18,0,0,0,2.35-3.44v0a26.56,26.56,0,0,0,1.6-5.67,9.77,9.77,0,0,0,.77-1.17,5.47,5.47,0,0,0,.9-2.4V63c.07-2.41,0-3.81-.46-4.31a.73.73,0,0,0-.24-.17,6.63,6.63,0,0,0,.14-4.42,17.47,17.47,0,0,0-1.1-2.29h.4a.45.45,0,0,0,.42-.32.45.45,0,0,0-.18-.5,8.7,8.7,0,0,1-1.71-2,9.41,9.41,0,0,0-5.95-4A11,11,0,0,0,124,45a11,11,0,0,0-3.73,0,9.41,9.41,0,0,0-5.95,4,8.77,8.77,0,0,1-1.7,2,.45.45,0,0,0,.24.83h.4a17.45,17.45,0,0,0-1.1,2.29,6.63,6.63,0,0,0,.14,4.42.73.73,0,0,0-.24.17c-.49.5-.54,1.9-.46,4.31v.22a5.47,5.47,0,0,0,.9,2.4,9.76,9.76,0,0,0,.77,1.17,26.56,26.56,0,0,0,1.6,5.67v0a19,19,0,0,0,2,3c-1.42,3.11-4.43,5.23-10,7.05-7.63,2.5-8.4,6.7-8.47,11.28A34.78,34.78,0,0,0,123.33,104.36Z" style="fill: #fff;stroke: #1fc469;stroke-linecap: round;stroke-linejoin: round"/>
              <path d="M106.36,123.85a50.11,50.11,0,0,0,36.92-16.18c-.22-6.2-1.74-11.82-12.17-15.24-7.69-2.52-11.94-5.38-14.1-9.52a27.62,27.62,0,0,0,3.38-5l0,0a38.26,38.26,0,0,0,2.3-8.16,14.07,14.07,0,0,0,1.11-1.69,7.87,7.87,0,0,0,1.3-3.45v-.32c.11-3.47,0-5.48-.67-6.2a1,1,0,0,0-.34-.24,9.54,9.54,0,0,0,.2-6.37,25.16,25.16,0,0,0-1.59-3.29h.58a.65.65,0,0,0,.61-.46.65.65,0,0,0-.26-.72,12.53,12.53,0,0,1-2.46-2.89,13.56,13.56,0,0,0-8.57-5.83,15.87,15.87,0,0,0-5.37,0,15.87,15.87,0,0,0-5.37,0,13.56,13.56,0,0,0-8.57,5.83A12.63,12.63,0,0,1,90.88,47a.65.65,0,0,0,.34,1.19h.58a25.13,25.13,0,0,0-1.59,3.29,9.54,9.54,0,0,0,.2,6.37,1,1,0,0,0-.34.24c-.7.72-.77,2.74-.67,6.2v.32a7.88,7.88,0,0,0,1.3,3.45,14.06,14.06,0,0,0,1.11,1.69,38.25,38.25,0,0,0,2.3,8.16l0,0A27.36,27.36,0,0,0,97,82.27c-2,4.47-6.38,7.53-14.42,10.16-11,3.6-12.09,9.65-12.2,16.24A50.09,50.09,0,0,0,106.36,123.85Z" style="fill: #fff;stroke: #1fc469;stroke-linecap: round;stroke-linejoin: round"/>
              <path d="M73.55,143.38A83.45,83.45,0,0,0,135,116.44c-.36-10.32-2.89-19.69-20.27-25.39-12.81-4.2-19.89-9-23.49-15.85A46,46,0,0,0,96.92,67l0-.07a63.72,63.72,0,0,0,3.84-13.6,23.44,23.44,0,0,0,1.85-2.81,13.11,13.11,0,0,0,2.16-5.75l0-.53c.18-5.77.05-9.13-1.11-10.33a1.74,1.74,0,0,0-.57-.4c1-2.78,1.74-7.16.34-10.61a41.89,41.89,0,0,0-2.65-5.48l1,0a1.08,1.08,0,0,0,1-.77,1.09,1.09,0,0,0-.43-1.21,46,46,0,0,1-4.1-4.82C92.21,2.78,87.24-.67,84,.85c-2.8,1.32-6.5-.31-8.94.07A26.43,26.43,0,0,0,66.13.85a22.58,22.58,0,0,0-14.27,9.71c-2.64,3.8-4.08,4.81-4.08,4.81a1.08,1.08,0,0,0,.57,2l1,0a41.85,41.85,0,0,0-2.65,5.48c-1.4,3.45-.67,7.83.34,10.61a1.74,1.74,0,0,0-.57.4c-1.16,1.2-1.29,4.56-1.11,10.33l0,.53a13.12,13.12,0,0,0,2.16,5.75,23.42,23.42,0,0,0,1.85,2.81,63.7,63.7,0,0,0,3.84,13.6l0,.07A45.56,45.56,0,0,0,58,74.14c-3.4,7.45-10.63,12.53-24,16.92-18.3,6-20.14,16.07-20.31,27A83.42,83.42,0,0,0,73.55,143.38Z" style="fill: #fff;stroke: #1fc469;stroke-linecap: round;stroke-linejoin: round"/>
              <path d="M118.57,119.55s1.63,1.42,1.39,8.6" style="fill: #fff;stroke: #1fc469;stroke-linecap: round;stroke-linejoin: round"/>
              <path d="M28,119.55s-1.63,1.42-1.39,8.6" style="fill: #fff;stroke: #1fc469;stroke-linecap: round;stroke-linejoin: round"/>
              <path d="M97.85,132.73a.68.68,0,0,1-.25,0c-7.49-2.93-10.83-7.59-10.83-15.1v-8.23a.68.68,0,0,1,.63-.68,21.7,21.7,0,0,0,10.08-3.2.68.68,0,0,1,.73,0,21.69,21.69,0,0,0,10.08,3.2h0a.68.68,0,0,1,.63.68v8.23c0,7.51-3.34,12.16-10.83,15.1A.68.68,0,0,1,97.85,132.73Z" style="fill: #fff;stroke: #1fc469;stroke-linecap: round;stroke-linejoin: round"/>
              <ellipse cx="97.94" cy="115.92" rx="0.81" ry="0.97" style="fill: #fff;stroke: #1fc469;stroke-linecap: round;stroke-linejoin: round"/>
              <line x1="97.94" y1="116.89" x2="97.94" y2="122.71" style="fill: #fff;stroke: #1fc469;stroke-linecap: round;stroke-linejoin: round"/>
              <polyline points="72.06 126.32 72.06 114.25 72.06 90.25 77.46 90.25" style="fill: #fff;stroke: #1fc469;stroke-linecap: round;stroke-linejoin: round"/>
              <path d="M100.92,84.91c-.07.14-.16.3-.27.49-1.92,3.32-5.48,6.08-8.11,8.71-3.4,3.39-6.78,6.93-10.19,10.25-1-.34-2.72-5.7-3.19-7.19a51.46,51.46,0,0,1-1.7-6.91,4.33,4.33,0,0,1,.07-2.36c1.78-2.81,5.46-4.19,8-6a32.4,32.4,0,0,0,4.69-3.7c1.28-1.33,1.16-2.74,2.06-4.17,2.76-4.38,4.45,5,5.56,6.63A10.88,10.88,0,0,0,100.09,83C101.1,83.86,101.46,83.87,100.92,84.91Z" style="fill: #fff;stroke: #1fc469;stroke-linecap: round;stroke-linejoin: round"/>
              <path d="M70.9,90.25a51.48,51.48,0,0,1-1.7,6.91C68.73,98.66,67,104,66,104.35,62.6,101,59.22,97.49,55.82,94.1c-2.63-2.63-6.18-5.39-8.11-8.71-.11-.18-.2-.35-.27-.49-.54-1-.18-1,.83-1.88a10.86,10.86,0,0,0,2.27-2.37c1.11-1.64,2.8-11,5.56-6.63.9,1.43.78,2.84,2.06,4.17a32.17,32.17,0,0,0,4.69,3.7c2.53,1.8,6.21,3.18,8,6A4.33,4.33,0,0,1,70.9,90.25Z" style="fill: #fff;stroke: #1fc469;stroke-linecap: round;stroke-linejoin: round"/>
              <ellipse cx="75.67" cy="96.71" rx="1.31" ry="1.41" style="fill: #fff;stroke: #1fc469;stroke-linecap: round;stroke-linejoin: round"/>
              <ellipse cx="76.21" cy="109.1" rx="1.31" ry="1.41" style="fill: #fff;stroke: #1fc469;stroke-linecap: round;stroke-linejoin: round"/>
              <path d="M48.63,34.18a2.12,2.12,0,0,1,.07.74,1.29,1.29,0,0,0,0,.33,3.73,3.73,0,0,1,0,.41,2.1,2.1,0,0,0,.08.65.14.14,0,0,1,0,.09.64.64,0,0,0,.1.39,2.18,2.18,0,0,0,.89.33,1.26,1.26,0,0,1,.43.13,1.33,1.33,0,0,1,.35.67s0,.07,0,.07a1.61,1.61,0,0,1,.18.7c.09.78.16,1.19.24,1.6a5.61,5.61,0,0,1,.19,1.24s0,.13.16.54a1.66,1.66,0,0,1,.07.31,4.3,4.3,0,0,0,.36,1.06c.1.26.24.63.3.81a3.31,3.31,0,0,0,.31.73,1.35,1.35,0,0,1,.17.34s0,.08.06.08.07.08.11.19a3.48,3.48,0,0,0,.6.86c.06.05.25.25.41.44a2.19,2.19,0,0,0,.34.34.2.2,0,0,1,.1.07,2.45,2.45,0,0,0,.92.44,10.32,10.32,0,0,0,1.26.35,18.14,18.14,0,0,0,3,.06l.6,0c.31,0,1-.07,1.34-.12l.81-.1a3.91,3.91,0,0,0,.6-.09l.14,0a1.79,1.79,0,0,0,.33-.08,4.84,4.84,0,0,1,.58-.14,10.64,10.64,0,0,0,1.6-.44.68.68,0,0,1,.28-.06,5.71,5.71,0,0,0,1.5-.54,7.29,7.29,0,0,0,2-1.31l.59-.55L70.4,44a2.71,2.71,0,0,0,.45-.51c.05-.1.12-.17.14-.16s.06,0,.08,0a1,1,0,0,1,.17-.21,1.82,1.82,0,0,0,.39-.63,1.16,1.16,0,0,1,.16-.31,2.88,2.88,0,0,0,.33-.82,10.86,10.86,0,0,0,.45-1.87,1.49,1.49,0,0,1,.08-.41,5.09,5.09,0,0,1,.8,0,10.33,10.33,0,0,0,1.09,0,1.7,1.7,0,0,1,.42,0,2.09,2.09,0,0,1,.36,0,1.7,1.7,0,0,1,.42,0,10.32,10.32,0,0,0,1.09,0,5.09,5.09,0,0,1,.8,0,1.49,1.49,0,0,1,.08.41,10.85,10.85,0,0,0,.45,1.87,2.88,2.88,0,0,0,.33.82,1.16,1.16,0,0,1,.16.31,1.82,1.82,0,0,0,.39.63,1,1,0,0,1,.17.21s.05.06.08,0,.08.06.14.16a2.71,2.71,0,0,0,.45.51l.64.59.59.55a7.29,7.29,0,0,0,2,1.31,5.72,5.72,0,0,0,1.5.54.68.68,0,0,1,.28.06,10.63,10.63,0,0,0,1.6.44,4.85,4.85,0,0,1,.58.14,1.79,1.79,0,0,0,.33.08l.14,0a3.92,3.92,0,0,0,.6.09l.81.1c.38.06,1,.12,1.34.12l.6,0a18.14,18.14,0,0,0,3-.06,10.33,10.33,0,0,0,1.26-.35,2.45,2.45,0,0,0,.92-.44.2.2,0,0,1,.1-.07,2.19,2.19,0,0,0,.34-.34c.16-.19.35-.38.41-.44a3.47,3.47,0,0,0,.6-.86c0-.1.09-.18.11-.19s0,0,.06-.08a1.35,1.35,0,0,1,.17-.34,3.31,3.31,0,0,0,.31-.73c.06-.18.19-.55.3-.81a4.3,4.3,0,0,0,.36-1.06,1.65,1.65,0,0,1,.07-.31c.14-.41.17-.51.16-.54a5.61,5.61,0,0,1,.19-1.24c.09-.41.15-.83.24-1.6a1.61,1.61,0,0,1,.18-.7s0,0,0-.07a1.33,1.33,0,0,1,.35-.67,1.26,1.26,0,0,1,.43-.13,2.18,2.18,0,0,0,.89-.33.64.64,0,0,0,.1-.39.14.14,0,0,1,0-.09,2.1,2.1,0,0,0,.08-.65,3.69,3.69,0,0,1,0-.41,1.29,1.29,0,0,0,0-.33,2.12,2.12,0,0,1,.07-.74.49.49,0,0,0,0-.41.82.82,0,0,1-.07-.3c.1-.35-1.81-.24-2-.26l-.91-.07-.94-.06c-1.07-.08-2.17,0-3.24,0-.21,0-.55,0-.76,0L92.83,33l-.74,0-.6,0-.63-.06a14.06,14.06,0,0,0-3.12-.16,10.67,10.67,0,0,1-1.1,0,3.18,3.18,0,0,0-.92.09,12.12,12.12,0,0,0-1.58.35,6.23,6.23,0,0,1-1.08.21,1.15,1.15,0,0,0-.28.06l-.34.11a9.34,9.34,0,0,0-2,.92l-.51.28a9.41,9.41,0,0,0-.91.76,4.61,4.61,0,0,1-.9.69.19.19,0,0,0-.11.07.18.18,0,0,1-.11.07s-.06,0-.06,0-.08.06-.18.08a.72.72,0,0,0-.23.08,2.41,2.41,0,0,1-.69.3l-.79.11a2.66,2.66,0,0,0-.71.14s-.46-.1-.85-.14l-.79-.11a2.41,2.41,0,0,1-.69-.3.72.72,0,0,0-.23-.08c-.1,0-.18-.06-.18-.08s0,0-.06,0a.18.18,0,0,1-.11-.07.19.19,0,0,0-.11-.07,4.62,4.62,0,0,1-.9-.69,9.4,9.4,0,0,0-.91-.76l-.51-.28a9.34,9.34,0,0,0-2-.92l-.34-.11a1.15,1.15,0,0,0-.28-.06,6.22,6.22,0,0,1-1.08-.21,12.13,12.13,0,0,0-1.58-.35,3.18,3.18,0,0,0-.92-.09,10.67,10.67,0,0,1-1.1,0,11.16,11.16,0,0,0-2,0,.77.77,0,0,1-.38.09h-.39l-.39,0-.63.06-.6,0-.74,0-.83.05c-.21,0-.55,0-.76,0l-.71,0c-.85,0-1.69-.09-2.53,0l-.94.06-.91.07c-.59.06-2.08-.26-2.17.55A1,1,0,0,0,48.63,34.18Z" style="fill: #1fc469"/>
              <path d="M87.44,35.42a17.29,17.29,0,0,0-2.16.24,7.21,7.21,0,0,0-2,.53,2.83,2.83,0,0,0-1,.79,3.07,3.07,0,0,0-.54,2,8.88,8.88,0,0,0,.08,1,2.5,2.5,0,0,0,.22.89.25.25,0,0,0,.22.13.24.24,0,0,0,.11,0,.25.25,0,0,0,.13-.21c0-.07.07-.19.12-.31l.09-.26a5.19,5.19,0,0,1,.24-.65l.06-.15a5.5,5.5,0,0,1,.73-1.29,6.39,6.39,0,0,1,3.73-2.24.25.25,0,0,0,.2-.27A.23.23,0,0,0,87.44,35.42Z" style="fill: #fff"/>
              <path d="M59.38,35.42a17.29,17.29,0,0,0-2.16.24,7.21,7.21,0,0,0-2,.53,2.83,2.83,0,0,0-1,.79,3.07,3.07,0,0,0-.54,2,8.88,8.88,0,0,0,.08,1,2.5,2.5,0,0,0,.22.89.25.25,0,0,0,.22.13.24.24,0,0,0,.11,0,.25.25,0,0,0,.13-.21c0-.07.07-.19.12-.31l.09-.26a5.19,5.19,0,0,1,.24-.65l.06-.15a5.5,5.5,0,0,1,.73-1.29,6.39,6.39,0,0,1,3.73-2.24.25.25,0,0,0,.2-.27A.23.23,0,0,0,59.38,35.42Z" style="fill: #fff"/>
            </g>
          </g>
        </g>
      </g>
    </g>
  </g>
</svg>
