<svg xmlns="http://www.w3.org/2000/svg" width="60.94" height="60.94" viewBox="0 0 60.94 60.94">
  <title>icon-sm-firewall</title>
  <g id="Layer_2" data-name="Layer 2">
    <g id="_1200" data-name="1200">
      <g id="Illustration">
        <g>
          <circle cx="30.47" cy="30.47" r="29.97" style="fill: #edf0f3;stroke: #fff;stroke-linecap: round;stroke-linejoin: round;opacity: 0.2"/>
          <g id="firewall_-_sm" data-name="firewall - sm">
            <path d="M24.45,44.28a9.69,9.69,0,0,0,8.44-5.05v0c1.54-2.85,2.82-8.23-2-16.1-3.49-5.71-1.8-8.58-1.8-8.58s-4.58,4.22-3.16,7.41h0a18.07,18.07,0,0,0,1.66,2c3.89,4.13,5.65,7.83,5.64,11.41a8.88,8.88,0,0,1-8.79,8.91" style="fill: #fff;stroke: #373e5a;stroke-linecap: round;stroke-linejoin: round"/>
            <path d="M33.35,35.46c0-3.54-1.75-7.21-5.64-11.31C20.21,16.25,27,11.63,27,11.63a6.09,6.09,0,0,1,.84-.63l-.68.17s-10.41,2.64-9.49,13.44a12.31,12.31,0,0,1-1,7.08l-.12.24a8.78,8.78,0,0,0,8,12.36,8.84,8.84,0,0,0,8.79-8.83" style="fill: #fff;stroke: #373e5a;stroke-linecap: round;stroke-linejoin: round"/>
            <path d="M24.34,42.82s5-3,2.11-8a5.92,5.92,0,0,1-1-3.55l-.26.64a2.61,2.61,0,0,1-1.11-2.46s-1.45,1.4-.28,4.06A6.71,6.71,0,0,1,22.21,28,10,10,0,0,0,19.7,38.25a9.1,9.1,0,0,0,3.56,4.68A1.37,1.37,0,0,0,24.34,42.82Z" style="fill: #fff;stroke: #373e5a;stroke-linecap: round;stroke-linejoin: round"/>
            <g>
              <g>
                <path d="M34.69,25.28l-7.61,4.39a.08.08,0,0,0,0,.15l2.2,1.27a.28.28,0,0,0,.26,0l7.61-4.39a.08.08,0,0,0,0-.15l-2.2-1.27A.28.28,0,0,0,34.69,25.28Z" style="fill: #fff"/>
                <path d="M42.66,20.68,35,25.1c-.07,0-.06.1,0,.15l2.19,1.26a.28.28,0,0,0,.26,0l7.66-4.42c.07,0,.06-.1,0-.15l-2.19-1.26A.28.28,0,0,0,42.66,20.68Z" style="fill: #fff"/>
                <path d="M26.59,30,24.71,31c-.07,0-.06.1,0,.15l2.19,1.26a.28.28,0,0,0,.26,0L29,31.38c.07,0,.06-.1,0-.15L26.84,30A.28.28,0,0,0,26.59,30Z" style="fill: #fff"/>
              </g>
              <g>
                <path d="M34.69,25.28l-7.61,4.39a.08.08,0,0,0,0,.15l2.2,1.27a.28.28,0,0,0,.26,0l7.61-4.39a.08.08,0,0,0,0-.15l-2.2-1.27A.28.28,0,0,0,34.69,25.28Z" style="fill: #fff;stroke: #fff;stroke-linecap: round;stroke-linejoin: round"/>
                <path d="M42.66,20.68,35,25.1c-.07,0-.06.1,0,.15l2.19,1.26a.28.28,0,0,0,.26,0l7.66-4.42c.07,0,.06-.1,0-.15l-2.19-1.26A.28.28,0,0,0,42.66,20.68Z" style="fill: #fff;stroke: #fff;stroke-linecap: round;stroke-linejoin: round"/>
                <path d="M26.59,30,24.71,31c-.07,0-.06.1,0,.15l2.19,1.26a.28.28,0,0,0,.26,0L29,31.38c.07,0,.06-.1,0-.15L26.84,30A.28.28,0,0,0,26.59,30Z" style="fill: #fff;stroke: #fff;stroke-linecap: round;stroke-linejoin: round"/>
              </g>
              <g>
                <path d="M34.69,25.28l-7.61,4.39a.08.08,0,0,0,0,.15l2.2,1.27a.28.28,0,0,0,.26,0l7.61-4.39a.08.08,0,0,0,0-.15l-2.2-1.27A.28.28,0,0,0,34.69,25.28Z" style="fill: none;stroke: #373e5a;stroke-linecap: round;stroke-linejoin: round"/>
                <path d="M42.66,20.68,35,25.1c-.07,0-.06.1,0,.15l2.19,1.26a.28.28,0,0,0,.26,0l7.66-4.42c.07,0,.06-.1,0-.15l-2.19-1.26A.28.28,0,0,0,42.66,20.68Z" style="fill: none;stroke: #373e5a;stroke-linecap: round;stroke-linejoin: round"/>
                <path d="M26.59,30,24.71,31c-.07,0-.06.1,0,.15l2.19,1.26a.28.28,0,0,0,.26,0L29,31.38c.07,0,.06-.1,0-.15L26.84,30A.28.28,0,0,0,26.59,30Z" style="fill: none;stroke: #373e5a;stroke-linecap: round;stroke-linejoin: round"/>
              </g>
            </g>
            <g>
              <g>
                <line x1="26.56" y1="36.9" x2="26.56" y2="40.94" style="fill: #fff"/>
                <line x1="26.56" y1="41.34" x2="26.56" y2="45.37" style="fill: #fff"/>
                <path d="M26.56,45.71v4.16c0,.08-.05.11-.17,0l-1.66-1s-.06-.07-.06-.15V31.41c0-.08,0-.12.11-.08l1.68,1a.26.26,0,0,1,.11.21V45.71Z" style="fill: #fff"/>
              </g>
              <g>
                <line x1="26.56" y1="36.9" x2="26.56" y2="40.94" style="fill: #03a9f4;stroke: #fff;stroke-linecap: round;stroke-linejoin: round"/>
                <line x1="26.56" y1="41.34" x2="26.56" y2="45.37" style="fill: #03a9f4;stroke: #fff;stroke-linecap: round;stroke-linejoin: round"/>
                <path d="M26.56,45.71v4.16c0,.08-.05.11-.17,0l-1.66-1s-.06-.07-.06-.15V31.41c0-.08,0-.12.11-.08l1.68,1a.26.26,0,0,1,.11.21V45.71Z" style="fill: #fff;stroke: #fff;stroke-linecap: round;stroke-linejoin: round"/>
              </g>
              <g>
                <line x1="26.56" y1="36.9" x2="26.56" y2="40.94" style="fill: none;stroke: #373e5a;stroke-linecap: round;stroke-linejoin: round"/>
                <line x1="26.56" y1="41.34" x2="26.56" y2="45.37" style="fill: none;stroke: #373e5a;stroke-linecap: round;stroke-linejoin: round"/>
                <path d="M26.56,45.71v4.16c0,.08-.05.11-.17,0l-1.66-1s-.06-.07-.06-.15V31.41c0-.08,0-.12.11-.08l1.68,1a.26.26,0,0,1,.11.21V45.71Z" style="fill: none;stroke: #373e5a;stroke-linecap: round;stroke-linejoin: round"/>
              </g>
            </g>
            <g id="wall">
              <g>
                <path d="M29.34,35.39,37,31a.28.28,0,0,0,.13-.22v-4c0-.08-.06-.11-.27-.16L29.2,31c.07.12,0,.22,0,.31v4C29.21,35.4,29.27,35.43,29.34,35.39Z" style="fill: #fff"/>
                <path d="M37.26,30.65l7.68-4.43a.27.27,0,0,0,.1-.12V21.92a.08.08,0,0,0-.1,0l-7.68,4.43a.28.28,0,0,0-.13.22v4C37.14,30.65,37.19,30.69,37.26,30.65Z" style="fill: #fff"/>
                <path d="M41.23,28.63v4c0,.08.06.11.13.07L45,30.59v-4.3l-3.69,2.13A.28.28,0,0,0,41.23,28.63Z" style="fill: #fff"/>
                <path d="M37.52,39.36,45,35v-4.3l-7.52,4.34a.28.28,0,0,0-.13.22v4C37.39,39.36,37.45,39.4,37.52,39.36Z" style="fill: #fff"/>
                <path d="M41.11,32.71v-4c0-.08-.06-.11-.13-.07L33.3,33.06a.28.28,0,0,0-.13.22v4c0,.08.06.11.13.07L41,32.93A.28.28,0,0,0,41.11,32.71Z" style="fill: #fff"/>
                <path d="M29.47,39.71a.28.28,0,0,0-.13.22v4c0,.08.06.11.13.07l7.68-4.43a.28.28,0,0,0,.13-.22v-4c0-.08-.06-.11-.13-.07Z" style="fill: #fff"/>
                <path d="M29.22,44V40c0-.08-.06-.11-.13-.07l-2.24,1.3v4.3l2.24-1.3A.28.28,0,0,0,29.22,44Z" style="fill: #fff"/>
                <path d="M41,37.49,33.3,41.92a.28.28,0,0,0-.13.22v4c0,.08.06.11.13.07L41,41.79a.28.28,0,0,0,.13-.22v-4C41.11,37.48,41,37.45,41,37.49Z" style="fill: #fff"/>
                <path d="M45,35.14l-3.69,2.13a.28.28,0,0,0-.13.22v4c0,.08.06.11.13.07L45,39.44Z" style="fill: #fff"/>
                <path d="M32.92,42.14l-6.08,3.51v4.3l6.08-3.51a.28.28,0,0,0,.13-.22v-4C33.05,42.13,33,42.1,32.92,42.14Z" style="fill: #fff"/>
                <path d="M33.05,37.36v-4c0-.08-.06-.11-.13-.07l-6.08,3.51v4.3l6.08-3.51A.28.28,0,0,0,33.05,37.36Z" style="fill: #fff"/>
                <path d="M29,35.29v-4c0-.08-.06-.11-.13-.07l-2,1.15v4.3l2-1.15A.28.28,0,0,0,29,35.29Z" style="fill: #fff"/>
              </g>
              <g>
                <path d="M29.34,35.39,37,31a.28.28,0,0,0,.13-.22v-4c0-.08-.06-.11-.27-.16L29.2,31c.07.12,0,.22,0,.31v4C29.21,35.4,29.27,35.43,29.34,35.39Z" style="fill: #fff;stroke: #fff;stroke-linecap: round;stroke-linejoin: round"/>
                <path d="M37.26,30.65l7.68-4.43a.27.27,0,0,0,.1-.12V21.92a.08.08,0,0,0-.1,0l-7.68,4.43a.28.28,0,0,0-.13.22v4C37.14,30.65,37.19,30.69,37.26,30.65Z" style="fill: #fff;stroke: #fff;stroke-linecap: round;stroke-linejoin: round"/>
                <path d="M41.23,28.63v4c0,.08.06.11.13.07L45,30.59v-4.3l-3.69,2.13A.28.28,0,0,0,41.23,28.63Z" style="fill: #fff;stroke: #fff;stroke-linecap: round;stroke-linejoin: round"/>
                <path d="M37.52,39.36,45,35v-4.3l-7.52,4.34a.28.28,0,0,0-.13.22v4C37.39,39.36,37.45,39.4,37.52,39.36Z" style="fill: #fff;stroke: #fff;stroke-linecap: round;stroke-linejoin: round"/>
                <path d="M41.11,32.71v-4c0-.08-.06-.11-.13-.07L33.3,33.06a.28.28,0,0,0-.13.22v4c0,.08.06.11.13.07L41,32.93A.28.28,0,0,0,41.11,32.71Z" style="fill: #fff;stroke: #fff;stroke-linecap: round;stroke-linejoin: round"/>
                <path d="M29.47,39.71a.28.28,0,0,0-.13.22v4c0,.08.06.11.13.07l7.68-4.43a.28.28,0,0,0,.13-.22v-4c0-.08-.06-.11-.13-.07Z" style="fill: #fff;stroke: #fff;stroke-linecap: round;stroke-linejoin: round"/>
                <path d="M29.22,44V40c0-.08-.06-.11-.13-.07l-2.24,1.3v4.3l2.24-1.3A.28.28,0,0,0,29.22,44Z" style="fill: #fff;stroke: #fff;stroke-linecap: round;stroke-linejoin: round"/>
                <path d="M41,37.49,33.3,41.92a.28.28,0,0,0-.13.22v4c0,.08.06.11.13.07L41,41.79a.28.28,0,0,0,.13-.22v-4C41.11,37.48,41,37.45,41,37.49Z" style="fill: #fff;stroke: #fff;stroke-linecap: round;stroke-linejoin: round"/>
                <path d="M45,35.14l-3.69,2.13a.28.28,0,0,0-.13.22v4c0,.08.06.11.13.07L45,39.44Z" style="fill: #fff;stroke: #fff;stroke-linecap: round;stroke-linejoin: round"/>
                <path d="M32.92,42.14l-6.08,3.51v4.3l6.08-3.51a.28.28,0,0,0,.13-.22v-4C33.05,42.13,33,42.1,32.92,42.14Z" style="fill: #fff;stroke: #fff;stroke-linecap: round;stroke-linejoin: round"/>
                <path d="M33.05,37.36v-4c0-.08-.06-.11-.13-.07l-6.08,3.51v4.3l6.08-3.51A.28.28,0,0,0,33.05,37.36Z" style="fill: #fff;stroke: #fff;stroke-linecap: round;stroke-linejoin: round"/>
                <path d="M29,35.29v-4c0-.08-.06-.11-.13-.07l-2,1.15v4.3l2-1.15A.28.28,0,0,0,29,35.29Z" style="fill: #fff;stroke: #fff;stroke-linecap: round;stroke-linejoin: round"/>
              </g>
              <g>
                <path d="M29.34,35.39,37,31a.28.28,0,0,0,.13-.22v-4c0-.08-.06-.11-.27-.16L29.2,31c.07.12,0,.22,0,.31v4C29.21,35.4,29.27,35.43,29.34,35.39Z" style="fill: none;stroke: #373e5a;stroke-linecap: round;stroke-linejoin: round"/>
                <path d="M37.26,30.65l7.68-4.43a.27.27,0,0,0,.1-.12V21.92a.08.08,0,0,0-.1,0l-7.68,4.43a.28.28,0,0,0-.13.22v4C37.14,30.65,37.19,30.69,37.26,30.65Z" style="fill: none;stroke: #373e5a;stroke-linecap: round;stroke-linejoin: round"/>
                <path d="M41.23,28.63v4c0,.08.06.11.13.07L45,30.59v-4.3l-3.69,2.13A.28.28,0,0,0,41.23,28.63Z" style="fill: none;stroke: #373e5a;stroke-linecap: round;stroke-linejoin: round"/>
                <path d="M37.52,39.36,45,35v-4.3l-7.52,4.34a.28.28,0,0,0-.13.22v4C37.39,39.36,37.45,39.4,37.52,39.36Z" style="fill: none;stroke: #373e5a;stroke-linecap: round;stroke-linejoin: round"/>
                <path d="M41.11,32.71v-4c0-.08-.06-.11-.13-.07L33.3,33.06a.28.28,0,0,0-.13.22v4c0,.08.06.11.13.07L41,32.93A.28.28,0,0,0,41.11,32.71Z" style="fill: none;stroke: #373e5a;stroke-linecap: round;stroke-linejoin: round"/>
                <path d="M29.47,39.71a.28.28,0,0,0-.13.22v4c0,.08.06.11.13.07l7.68-4.43a.28.28,0,0,0,.13-.22v-4c0-.08-.06-.11-.13-.07Z" style="fill: none;stroke: #373e5a;stroke-linecap: round;stroke-linejoin: round"/>
                <path d="M29.22,44V40c0-.08-.06-.11-.13-.07l-2.24,1.3v4.3l2.24-1.3A.28.28,0,0,0,29.22,44Z" style="fill: none;stroke: #373e5a;stroke-linecap: round;stroke-linejoin: round"/>
                <path d="M41,37.49,33.3,41.92a.28.28,0,0,0-.13.22v4c0,.08.06.11.13.07L41,41.79a.28.28,0,0,0,.13-.22v-4C41.11,37.48,41,37.45,41,37.49Z" style="fill: none;stroke: #373e5a;stroke-linecap: round;stroke-linejoin: round"/>
                <path d="M45,35.14l-3.69,2.13a.28.28,0,0,0-.13.22v4c0,.08.06.11.13.07L45,39.44Z" style="fill: none;stroke: #373e5a;stroke-linecap: round;stroke-linejoin: round"/>
                <path d="M32.92,42.14l-6.08,3.51v4.3l6.08-3.51a.28.28,0,0,0,.13-.22v-4C33.05,42.13,33,42.1,32.92,42.14Z" style="fill: none;stroke: #373e5a;stroke-linecap: round;stroke-linejoin: round"/>
                <path d="M33.05,37.36v-4c0-.08-.06-.11-.13-.07l-6.08,3.51v4.3l6.08-3.51A.28.28,0,0,0,33.05,37.36Z" style="fill: none;stroke: #373e5a;stroke-linecap: round;stroke-linejoin: round"/>
                <path d="M29,35.29v-4c0-.08-.06-.11-.13-.07l-2,1.15v4.3l2-1.15A.28.28,0,0,0,29,35.29Z" style="fill: none;stroke: #373e5a;stroke-linecap: round;stroke-linejoin: round"/>
              </g>
            </g>
          </g>
        </g>
      </g>
    </g>
  </g>
</svg>
