<svg xmlns="http://www.w3.org/2000/svg" width="40.89" height="47.95" viewBox="0 0 40.89 47.95">
  <title>icon-blue-person</title>
  <g id="Layer_2" data-name="Layer 2">
    <g id="_1200" data-name="1200">
      <g id="Table">
        <g id="Protection">
          <g id="csoc_-_sm" data-name="csoc - sm">
            <g id="Lines">
              <path id="person" d="M20.18,47.45a27.42,27.42,0,0,0,20.2-8.85c-.12-3.39-1-6.47-6.66-8.34C29.52,28.87,27.19,27.31,26,25a15.11,15.11,0,0,0,1.85-2.71v0a20.93,20.93,0,0,0,1.26-4.47,7.7,7.7,0,0,0,.61-.92A4.31,4.31,0,0,0,30.45,15v-.17c.06-1.9,0-3-.36-3.39a.57.57,0,0,0-.19-.13A5.22,5.22,0,0,0,30,7.85,13.76,13.76,0,0,0,29.14,6h.32a.35.35,0,0,0,.33-.25.36.36,0,0,0-.14-.4,15.12,15.12,0,0,1-1.35-1.58c-2-2.56-3.63-3.69-4.69-3.19s-2.14-.1-2.94,0a8.68,8.68,0,0,0-2.94,0,7.42,7.42,0,0,0-4.69,3.19,6.91,6.91,0,0,1-1.34,1.58A.36.36,0,0,0,11.9,6h.32a13.75,13.75,0,0,0-.87,1.8,5.22,5.22,0,0,0,.11,3.48.57.57,0,0,0-.19.13c-.38.39-.42,1.5-.36,3.39V15a4.31,4.31,0,0,0,.71,1.89,7.69,7.69,0,0,0,.61.92,20.93,20.93,0,0,0,1.26,4.47v0a15,15,0,0,0,1.56,2.36c-1.12,2.45-3.49,4.12-7.89,5.56-6,2-6.62,5.28-6.67,8.89A27.41,27.41,0,0,0,20.18,47.45Z" style="fill: #fff;stroke: #03a9f4;stroke-linecap: round;stroke-linejoin: round"/>
              <g>
                <g>
                  <ellipse cx="28.29" cy="37.49" rx="0.29" ry="0.34" style="fill: #fff;stroke: #03a9f4;stroke-linecap: round;stroke-linejoin: round"/>
                  <line x1="28.29" y1="37.84" x2="28.29" y2="39.9" style="fill: #fff;stroke: #03a9f4;stroke-linecap: round;stroke-linejoin: round"/>
                </g>
                <path d="M28.25,43.46l-.09,0c-2.66-1-3.85-2.69-3.85-5.36V35.16a.24.24,0,0,1,.22-.24,7.71,7.71,0,0,0,3.58-1.14.24.24,0,0,1,.26,0A7.7,7.7,0,0,0,32,34.92h0a.24.24,0,0,1,.22.24v2.92c0,2.67-1.19,4.32-3.85,5.36Z" style="fill: none;stroke: #03a9f4;stroke-linecap: round;stroke-linejoin: round"/>
              </g>
            </g>
            <path id="Fill" d="M11,11.75A.75.75,0,0,1,11,12a.46.46,0,0,0,0,.12,1.32,1.32,0,0,1,0,.14.74.74,0,0,0,0,.23,0,0,0,0,1,0,0,.23.23,0,0,0,0,.14.77.77,0,0,0,.31.12l.15,0a.47.47,0,0,1,.12.24s0,0,0,0a.57.57,0,0,1,.06.25c0,.28.06.42.09.57a2,2,0,0,1,.07.44s0,0,.06.19a.59.59,0,0,1,0,.11,1.53,1.53,0,0,0,.13.38l.11.29a1.17,1.17,0,0,0,.11.26.48.48,0,0,1,.06.12l0,0s0,0,0,.07a1.23,1.23,0,0,0,.21.3l.15.15.12.12,0,0a.87.87,0,0,0,.33.16,3.66,3.66,0,0,0,.45.12,6.44,6.44,0,0,0,1.07,0l.21,0,.48,0,.29,0,.21,0h0l.12,0,.21,0a3.77,3.77,0,0,0,.57-.16l.1,0a2,2,0,0,0,.53-.19,2.58,2.58,0,0,0,.69-.46l.21-.2.23-.21a1,1,0,0,0,.16-.18s0-.06,0-.06,0,0,0,0l.06-.08a.64.64,0,0,0,.14-.22.41.41,0,0,1,.06-.11,1,1,0,0,0,.12-.29,3.85,3.85,0,0,0,.16-.66.53.53,0,0,1,0-.15h.82a.74.74,0,0,1,.13,0h.82a.53.53,0,0,1,0,.15,3.85,3.85,0,0,0,.16.66,1,1,0,0,0,.12.29.41.41,0,0,1,.06.11.64.64,0,0,0,.14.22l.06.08s0,0,0,0,0,0,0,.06a1,1,0,0,0,.16.18l.23.21.21.2a2.58,2.58,0,0,0,.69.46,2,2,0,0,0,.53.19l.1,0a3.77,3.77,0,0,0,.57.16l.21,0,.12,0h0l.21,0,.29,0,.48,0,.21,0a6.44,6.44,0,0,0,1.07,0,3.67,3.67,0,0,0,.45-.12.87.87,0,0,0,.33-.16l0,0,.12-.12.15-.15a1.23,1.23,0,0,0,.21-.3s0-.07,0-.07l0,0a.48.48,0,0,1,.06-.12,1.17,1.17,0,0,0,.11-.26l.11-.29a1.53,1.53,0,0,0,.13-.38.59.59,0,0,1,0-.11c.05-.15.06-.18.06-.19a2,2,0,0,1,.07-.44c0-.15.05-.29.09-.57a.57.57,0,0,1,.06-.25s0,0,0,0a.47.47,0,0,1,.12-.24l.15,0a.77.77,0,0,0,.31-.12.23.23,0,0,0,0-.14,0,0,0,0,1,0,0,.75.75,0,0,0,0-.23,1.31,1.31,0,0,1,0-.14.46.46,0,0,0,0-.12.75.75,0,0,1,0-.26.17.17,0,0,0,0-.14.29.29,0,0,1,0-.11c0-.12-.64-.08-.72-.09l-.32,0-.33,0c-.38,0-.77,0-1.15,0h-.27l-.29,0h-.26l-.21,0-.22,0a5,5,0,0,0-1.11-.06h-.39a1.13,1.13,0,0,0-.33,0,4.3,4.3,0,0,0-.56.12,2.21,2.21,0,0,1-.38.08l-.1,0-.12,0a3.31,3.31,0,0,0-.73.33L22,12l-.32.27a1.64,1.64,0,0,1-.32.24l0,0,0,0,0,0-.06,0-.08,0a.85.85,0,0,1-.25.11l-.28,0a.94.94,0,0,0-.25.05l-.3-.05-.28,0a.85.85,0,0,1-.25-.11l-.08,0-.06,0,0,0,0,0,0,0a1.64,1.64,0,0,1-.32-.24L18.67,12l-.18-.1a3.31,3.31,0,0,0-.73-.33l-.12,0-.1,0a2.21,2.21,0,0,1-.38-.08,4.3,4.3,0,0,0-.56-.12,1.13,1.13,0,0,0-.33,0h-.39a4,4,0,0,0-.69,0,.27.27,0,0,1-.14,0h-.14l-.14,0-.22,0-.21,0h-.26l-.29,0h-.52c-.3,0-.6,0-.9,0l-.33,0-.32,0c-.21,0-.74-.09-.77.19A.37.37,0,0,0,11,11.75Z" style="fill: #03a9f4"/>
            <g>
              <path d="M24.77,12.65a5,5,0,0,0-.61.07,2.08,2.08,0,0,0-.59.16.92.92,0,0,0-.32.25,1,1,0,0,0-.17.63,2.5,2.5,0,0,0,0,.3.8.8,0,0,0,.08.28.2.2,0,0,0,.17.11h.09a.18.18,0,0,0,.1-.14l0-.07,0-.09a1.38,1.38,0,0,1,.06-.16l0,0a1.4,1.4,0,0,1,.19-.33,1.62,1.62,0,0,1,.95-.57.2.2,0,0,0,.16-.22A.19.19,0,0,0,24.77,12.65Z" style="fill: #fff"/>
              <path d="M15.19,12.65a4.93,4.93,0,0,0-.61.07,2.08,2.08,0,0,0-.59.16.92.92,0,0,0-.32.25,1,1,0,0,0-.17.63,2.52,2.52,0,0,0,0,.31.78.78,0,0,0,.07.28.2.2,0,0,0,.18.11l.09,0a.18.18,0,0,0,.1-.14l0,0v0l0-.07a1.32,1.32,0,0,1,.06-.16l0,0a1.37,1.37,0,0,1,.19-.33,1.62,1.62,0,0,1,.95-.57.2.2,0,0,0,.16-.22A.21.21,0,0,0,15.19,12.65Zm-1.31,1.52Z" style="fill: #fff"/>
            </g>
          </g>
        </g>
      </g>
    </g>
  </g>
</svg>
