<svg xmlns="http://www.w3.org/2000/svg" width="55.1" height="49.32" viewBox="0 0 55.1 49.32">
  <title>icon-blue-finger-right</title>
  <g id="Layer_2" data-name="Layer 2">
    <g id="cWatch_Home" data-name="cWatch Home">
      <g id="_575" data-name="575">
        <g id="Pricing">
          <path d="M34.22,19.35a4.3,4.3,0,0,1,4.48,3.57L39,26.57V35.9s-.27,8.33-7,11.8A24.05,24.05,0,0,1,15.47,47s-4.76-2.1-7.87-9.61c0,0-3.75-6.22-7-9.15,0,0-.82-4.39,3.93-3.93a6,6,0,0,1,4.76,2.93s2.1,1.92,3.29,1.65c0,0,.91-.55.91-4.3V5.17s-.09-3.48,3-3.48c0,0,3.29-.64,3.29,3.48V21.63a3.86,3.86,0,0,0,1.46,3" style="fill: none;stroke: #03a9f4;stroke-linecap: round;stroke-linejoin: round"/>
          <path d="M21,17.06h3s2.84-.18,2.65,3.84a3,3,0,0,0,1.1,2.65" style="fill: none;stroke: #03a9f4;stroke-linecap: round;stroke-linejoin: round"/>
          <path d="M27.54,18.16h3.84a3.2,3.2,0,0,1,1.92,3.38h0a1.94,1.94,0,0,0,.64,1.74" style="fill: none;stroke: #03a9f4;stroke-linecap: round;stroke-linejoin: round"/>
          <g>
            <polyline points="44.99 14.45 54.6 7.82 31.84 7.82" style="fill: none;stroke: #03a9f4;stroke-linecap: round;stroke-linejoin: round"/>
            <line x1="45.5" y1="0.5" x2="54.6" y2="7.82" style="fill: none;stroke: #03a9f4;stroke-linecap: round;stroke-linejoin: round"/>
          </g>
        </g>
      </g>
    </g>
  </g>
</svg>
