<svg xmlns="http://www.w3.org/2000/svg" width="41" height="35.74" viewBox="0 0 41 35.74">
  <title>icon-blue-price-tag</title>
  <g id="Layer_2" data-name="Layer 2">
    <g id="Benefits_-_1200" data-name="Benefits - 1200">
      <g id="More_Benefits" data-name="More Benefits">
        <path d="M41,25a22.15,22.15,0,0,0-2.16-7.84A26,26,0,0,0,36.48,13L38,4.49A2.16,2.16,0,0,0,36.26,2L30.15.88A2.14,2.14,0,0,0,28.73.55l-.27,0L25.41,0a2.14,2.14,0,0,0-1.75.45,3.55,3.55,0,0,0-.52.28l-.85.56-4.5.54a2.14,2.14,0,0,0-1.54.94,3.6,3.6,0,0,0-.42.42L11.56,8.35l-8,5.24A3.68,3.68,0,0,0,2.5,18.67l.2.31L.85,21.2a3.68,3.68,0,0,0,.47,5.17l10.22,8.52a3.64,3.64,0,0,0,2.34.85l.34,0a3.64,3.64,0,0,0,2.49-1.3l8.74-10.49,3.18-2.08.29.43a15.58,15.58,0,0,0,1.32,1.78c2.52,3.21,6.29,5.77,8.28,5.77a1.6,1.6,0,0,0,.68-.13C40.48,29.11,41.11,27.42,41,25ZM16.59,3.87a2.76,2.76,0,0,1,.35-.34.48.48,0,0,0,.11-.13,1.13,1.13,0,0,1,.85-.54l2.5-.3-6,3.92Zm-.64,29.91a2.68,2.68,0,0,1-3.76.34L2,25.61a2.68,2.68,0,0,1-.34-3.76l1.66-2L9.79,29.8a3.67,3.67,0,0,0,5.08,1.06l7.71-5.05ZM14.33,30a2.68,2.68,0,0,1-3.7-.77L3.94,19l0,0-.57-.87,0,0,0-.05a2.68,2.68,0,0,1,.77-3.7L9.37,11l-.08.09,2.86-1.87.08-.09L22.64,2.29h.08l1-.67a2.58,2.58,0,0,1,.43-.22.52.52,0,0,0,.14-.09A1.11,1.11,0,0,1,25.05,1l.18,0L36.08,3A1.16,1.16,0,0,1,37,4.31L35.66,12a15.84,15.84,0,0,0-1.42-1.55A9,9,0,0,0,32.37,9a2.56,2.56,0,1,0-.45.89,8.12,8.12,0,0,1,1.63,1.22,15.94,15.94,0,0,1,1.87,2.14l-.33,1.84a2.65,2.65,0,0,1-1.19,2.08ZM29.45,8.71a2.43,2.43,0,0,0-.74.57,1.53,1.53,0,1,1,2.73-.63A2.76,2.76,0,0,0,29.45,8.71Zm1.44.83a1.43,1.43,0,0,1-1.35.3,1.37,1.37,0,0,1,.33-.22A1.66,1.66,0,0,1,30.9,9.54ZM38.78,28.8c-.86.4-4.83-1.63-7.79-5.39a15.31,15.31,0,0,1-1.24-1.68l-.28-.42,5-3.26a3.6,3.6,0,0,0,1.63-2.8l.14-.79a25.93,25.93,0,0,1,1.7,3.09A21.14,21.14,0,0,1,40,25C40.09,27,39.65,28.39,38.78,28.8ZM21,23.54a.5.5,0,0,1-.42-.23L20,22.47a8.35,8.35,0,0,1-2.46,1,6.39,6.39,0,0,1-2.62,0,.5.5,0,0,1-.39-.51l.13-2.6a.5.5,0,0,1,.69-.44,2.91,2.91,0,0,0,1.53.2,4.6,4.6,0,0,0,1.26-.36l-.63-1a15.88,15.88,0,0,1-1.89.65,4.34,4.34,0,0,1-2.12,0,3.15,3.15,0,0,1-1.9-1.44,3.55,3.55,0,0,1-.42-3.14,6,6,0,0,1,2-2.72l-.56-.86a.5.5,0,0,1,.14-.69l1-.63a.5.5,0,0,1,.69.14l.55.83A7.06,7.06,0,0,1,17.37,10a7.23,7.23,0,0,1,2.57.14.5.5,0,0,1,.39.54l-.27,2.52a.5.5,0,0,1-.67.42,3.46,3.46,0,0,0-1.52-.23,3.6,3.6,0,0,0-1,.29l.7,1.07a14.73,14.73,0,0,1,1.91-.64,4.31,4.31,0,0,1,2.16,0,3.26,3.26,0,0,1,1.92,1.47,3.28,3.28,0,0,1,.3,3.14,6.23,6.23,0,0,1-2,2.56l.56.85a.5.5,0,0,1-.14.69l-1,.63A.5.5,0,0,1,21,23.54Zm-5.41-1.07a5.37,5.37,0,0,0,1.8,0,8,8,0,0,0,2.54-1.07.5.5,0,0,1,.68.15l.54.82.13-.08-.54-.82a.5.5,0,0,1,.13-.68,5.55,5.55,0,0,0,2-2.4,2.5,2.5,0,0,0-1.53-3.29,3.31,3.31,0,0,0-1.67,0,14.94,14.94,0,0,0-2.15.75.5.5,0,0,1-.61-.19l-1.24-1.88a.5.5,0,0,1,.17-.71,5,5,0,0,1,1.91-.65,4.11,4.11,0,0,1,1.37.1L19.29,11a6.13,6.13,0,0,0-1.78,0,6.68,6.68,0,0,0-2.42,1,.5.5,0,0,1-.67-.15L13.87,11l-.13.08.54.82a.5.5,0,0,1-.12.67,5.32,5.32,0,0,0-2,2.51,2.56,2.56,0,0,0,.31,2.29,2.15,2.15,0,0,0,1.3,1,3.25,3.25,0,0,0,1.63,0,16,16,0,0,0,2.14-.77.5.5,0,0,1,.61.19l1.17,1.78a.5.5,0,0,1-.18.71A5.91,5.91,0,0,1,17,21,4.07,4.07,0,0,1,15.66,21Zm4.28-2.76h-.08a.5.5,0,0,1-.34-.22l-1-1.58a.5.5,0,0,1,.25-.74,3.74,3.74,0,0,1,1.22-.27h0a1.21,1.21,0,0,1,1,.54c.3.46.42,1.2-.75,2.16A.5.5,0,0,1,19.86,19.71Zm-.25-1.79.33.51c.13-.16.22-.33.14-.44h0c0-.05-.08-.08-.21-.09Zm-4.43-1.39a1.15,1.15,0,0,1-1-.53,1.28,1.28,0,0,1-.12-1.17,2.53,2.53,0,0,1,.78-1,.52.52,0,0,1,.4-.12.5.5,0,0,1,.35.22l1.07,1.63a.5.5,0,0,1-.26.75,4.09,4.09,0,0,1-1.19.25ZM15.11,15a.86.86,0,0,0-.09.19.29.29,0,0,0,0,.29s0,.07.17.08l.26,0Z" style="fill: #03a9f4"/>
      </g>
    </g>
  </g>
</svg>
