<svg id="CDN" xmlns="http://www.w3.org/2000/svg" viewBox="0 0 50 50"><g id="SVG_Icons" data-name="SVG Icons"><path class="svg-grey" d="M17,9.83a7.81,7.81,0,0,0-3.34,1.73.55.55,0,0,1-.36.13.52.52,0,0,1-.4-.18.54.54,0,0,1,.05-.77,8.9,8.9,0,0,1,3.81-2,.54.54,0,0,1,.65.4A.55.55,0,0,1,17,9.83ZM8.33,15A6.67,6.67,0,0,0,4.91,19a.55.55,0,0,0,.36.67l.16,0A.54.54,0,0,0,6,19.34,5.56,5.56,0,0,1,8.8,15.93a.54.54,0,1,0-.47-1ZM40.73,37H38.39a.54.54,0,0,0,0,1.08h2.34a.54.54,0,0,0,0-1.08ZM49,26.63A2.51,2.51,0,0,1,48,28.58a2.53,2.53,0,0,1,.95,2v2.08a2.53,2.53,0,0,1-1,2,2.55,2.55,0,0,1,1,2v1.71a2.72,2.72,0,0,1-2.71,2.71H34.8a3.5,3.5,0,0,0-2.38,3.37V45.6H46.21a.54.54,0,1,1,0,1.08h-29a.54.54,0,1,1,0-1.08H31.34V44.46a3.56,3.56,0,0,0-2.41-3.36H17.47a2.72,2.72,0,0,1-2.71-2.71V36.68a2.54,2.54,0,0,1,1-2l-.12-.09A11.2,11.2,0,0,1,7.87,29,9.86,9.86,0,0,1,2.11,15.38a8.46,8.46,0,0,1,5.18-4.49,7.39,7.39,0,0,1,1-.24A12.36,12.36,0,0,1,15.81,4a12.46,12.46,0,0,1,12,2.86,9.39,9.39,0,0,1,10,1.37L38,8.15a6.17,6.17,0,0,1,5,.61,7.23,7.23,0,0,1,2.84,9.31,6.42,6.42,0,0,1-1.15,1.65l3.2,2.73s0,.05.06.07a2.54,2.54,0,0,1,1,2Zm-2.34,2.5H17.1a1.43,1.43,0,0,0-1.25,1.41v2.08a1.49,1.49,0,0,0,1.44,1.44H46.45a1.44,1.44,0,0,0,1.43-1.44V30.54A1.42,1.42,0,0,0,46.63,29.13Zm-.31,6H17.47a1.57,1.57,0,0,0-1.63,1.54v1.71A1.62,1.62,0,0,0,17.47,40H29l.12,0a4.43,4.43,0,0,1,2.76,2.31A4.34,4.34,0,0,1,34.61,40l.12,0H46.26a1.61,1.61,0,0,0,1.62-1.62V36.68A1.56,1.56,0,0,0,46.32,35.14ZM14.86,33.26a2.3,2.3,0,0,1-.09-.64V30.54a2.52,2.52,0,0,1,.94-2,2.5,2.5,0,0,1-.94-1.95V24.55a2.48,2.48,0,0,1,.9-1.91l.05-.09,4.94-4.85A7,7,0,0,1,25,16.38H38a6.88,6.88,0,0,1,4.27,1.29L43.83,19a5.36,5.36,0,0,0,1-1.41,6.15,6.15,0,0,0-2.41-7.9,5.13,5.13,0,0,0-4.12-.51h0l-.4.14a.54.54,0,0,1-.55-.08,8.57,8.57,0,0,0-8.06-1.79A7.77,7.77,0,0,0,28,8a.52.52,0,0,1-.61-.09,11.73,11.73,0,0,0-8.07-3.34A10.6,10.6,0,0,0,16.13,5a11.27,11.27,0,0,0-7,6.34.57.57,0,0,1-.42.32,7,7,0,0,0-1.12.24,7.43,7.43,0,0,0-4.52,3.93,8.67,8.67,0,0,0-.46,6.34A8.58,8.58,0,0,0,8.38,28a.54.54,0,0,1,.33.26A10.26,10.26,0,0,0,14.86,33.26ZM45.72,22l-1.87-1.59-.42-.37L43,19.7l-1.4-1.2a6,6,0,0,0-3.56-1H25a6.07,6.07,0,0,0-3.6,1.05L17.8,22H45.72Zm2.16,4.6V24.55a1.44,1.44,0,0,0-1.43-1.44H17.29a1.44,1.44,0,0,0-1.44,1.44v2.08A1.42,1.42,0,0,0,17.1,28H46.63A1.41,1.41,0,0,0,47.88,26.63Zm-7.15-1.55H38.39a.54.54,0,0,0,0,1.08h2.34a.54.54,0,1,0,0-1.08Zm0,6H38.39a.54.54,0,0,0,0,1.08h2.34a.54.54,0,1,0,0-1.08Z"/></g></svg>