<svg xmlns="http://www.w3.org/2000/svg" viewBox="0 0 485.63 412.33" style=""><path class="light-blue-grey rihvOgFN_0" d="M384,353.29l.22-.08c.16,0,1.41.22,1.2.2l-.73-.07-.68-.06m.22-.08s0,0,0,0h0M227.65,412.33,0,380c21.64-6.79,44.53-12,70.88-16.5s55.17-7.82,86.76-10.05,66-3.35,103.47-3.38,78.12,1,122.12,3.19l.7.06h0l-156.33,59"></path><g id="opac-10" opacity=".10"><path class="grey-stroke rihvOgFN_1" d="M317.85.42C322.44,104.83,373,172.89,476.44,213.06a7.46,7.46,0,0,0,3.41.65"></path><path class="grey-stroke rihvOgFN_2" d="M325.41,1.09c4.47,99,52.54,163.51,150.64,201.63a6.94,6.94,0,0,0,3.14.62"></path><path class="grey-stroke rihvOgFN_3" d="M485.51,263.82a23.88,23.88,0,0,1-5.3.82,11.2,11.2,0,0,1-5.3-.82C346.76,214,283.62,129.91,277.18,1.1"></path></g><path class="light-blue-grey rihvOgFN_4" d="M389.77,61.66a4.94,4.94,0,0,1-2.26,1.9l1.71,4H385.6l-1.1-3.39h-2.36l-.68,3.39h-3.2l2.45-12.26h5.51a5,5,0,0,1,3.23.91,3.1,3.1,0,0,1,1.13,2.55A5.38,5.38,0,0,1,389.77,61.66Zm-7.13-.08h2.31a2.61,2.61,0,0,0,1.84-.61,2.19,2.19,0,0,0,.66-1.7,1.33,1.33,0,0,0-.45-1.08,2,2,0,0,0-1.29-.38h-2.33Zm16.23-3.08a3.78,3.78,0,0,1,1.6,1.48,4.32,4.32,0,0,1,.56,2.23,6.91,6.91,0,0,1-.17,1.42h-6.71a1.79,1.79,0,0,0,.61,1.24,2.15,2.15,0,0,0,1.42.44,3.43,3.43,0,0,0,2.17-.79l1.56,1.7a5.51,5.51,0,0,1-3.85,1.43,6.12,6.12,0,0,1-2.62-.52,4,4,0,0,1-1.73-1.5,4.2,4.2,0,0,1-.61-2.27,5.48,5.48,0,0,1,.69-2.74,5,5,0,0,1,1.91-1.92,5.44,5.44,0,0,1,2.75-.7A5.35,5.35,0,0,1,398.87,58.5Zm-.78,3.13a1.41,1.41,0,0,0-.4-1.06,1.48,1.48,0,0,0-1.08-.39,2,2,0,0,0-1.33.49,3.1,3.1,0,0,0-.91,1.29h3.71A2.37,2.37,0,0,0,398.1,61.63Zm5.13,5.53a6.23,6.23,0,0,1-2.14-1.32L402.38,64A6.25,6.25,0,0,0,404,65.06a4.06,4.06,0,0,0,1.66.4,1.35,1.35,0,0,0,.76-.18.59.59,0,0,0,.27-.52.57.57,0,0,0-.33-.48,7.48,7.48,0,0,0-1-.48,14.12,14.12,0,0,1-1.4-.63,2.9,2.9,0,0,1-1-.83,2.1,2.1,0,0,1-.4-1.3,2.81,2.81,0,0,1,.47-1.61,3.08,3.08,0,0,1,1.32-1.08A4.68,4.68,0,0,1,406.3,58a7,7,0,0,1,2.33.41,7.43,7.43,0,0,1,2.09,1.13l-1.36,1.85a8.72,8.72,0,0,0-1.6-.89,3.66,3.66,0,0,0-1.36-.33,1.1,1.1,0,0,0-.65.18.55.55,0,0,0-.26.46.59.59,0,0,0,.34.49,7.07,7.07,0,0,0,1.06.49,14.92,14.92,0,0,1,1.43.66,3.06,3.06,0,0,1,1,.84,2.1,2.1,0,0,1,.41,1.32,2.74,2.74,0,0,1-.49,1.61,3.19,3.19,0,0,1-1.36,1.08,4.9,4.9,0,0,1-2,.38A7.34,7.34,0,0,1,403.23,67.16Zm17.26-8.68a3.52,3.52,0,0,1,1.3,1.46,4.81,4.81,0,0,1,.46,2.16,5.94,5.94,0,0,1-.67,2.81,5.18,5.18,0,0,1-1.81,2,4.59,4.59,0,0,1-2.53.73,3.53,3.53,0,0,1-1.79-.43A2.74,2.74,0,0,1,414.34,66l-1,4.95h-3.11l2.57-12.85h3.09l-.23,1.12a4.18,4.18,0,0,1,1.35-.91,4,4,0,0,1,1.57-.31A3.52,3.52,0,0,1,420.49,58.48Zm-4.33,2.23a2.67,2.67,0,0,0-.87,1A3,3,0,0,0,415,63.1a2,2,0,0,0,.48,1.41,1.64,1.64,0,0,0,1.29.53,2.08,2.08,0,0,0,1.19-.37,2.65,2.65,0,0,0,.87-1,3,3,0,0,0,.32-1.38,2.07,2.07,0,0,0-.47-1.43,1.63,1.63,0,0,0-1.28-.52A2.09,2.09,0,0,0,416.17,60.71Zm15.12-2.21A3.91,3.91,0,0,1,432.92,60a4.43,4.43,0,0,1,.58,2.29,5.25,5.25,0,0,1-.73,2.76,5,5,0,0,1-2,1.88,6.26,6.26,0,0,1-2.94.67,5.45,5.45,0,0,1-2.5-.54,3.9,3.9,0,0,1-1.64-1.53,4.48,4.48,0,0,1-.58-2.3,5.25,5.25,0,0,1,.73-2.76,4.94,4.94,0,0,1,2-1.87,6.33,6.33,0,0,1,2.95-.67A5.46,5.46,0,0,1,431.28,58.5Zm-4.39,2.71a2.78,2.78,0,0,0-.65,1.91,2.2,2.2,0,0,0,.49,1.49,1.64,1.64,0,0,0,1.31.57,2.09,2.09,0,0,0,1.64-.73,2.77,2.77,0,0,0,.65-1.91,2.21,2.21,0,0,0-.49-1.5,1.64,1.64,0,0,0-1.31-.57A2.09,2.09,0,0,0,426.89,61.21Zm17.33-2.42a3,3,0,0,1,.87,2.23,4.26,4.26,0,0,1-.09.91l-1.12,5.6h-3.11l1-5.14a2.17,2.17,0,0,0,.05-.46,1.32,1.32,0,0,0-.37-1,1.39,1.39,0,0,0-1-.36,2,2,0,0,0-1.41.59,2.86,2.86,0,0,0-.81,1.54l-1,4.81h-3.11l1.87-9.46h3.11l-.25,1.26a3.63,3.63,0,0,1,2.94-1.38A3.25,3.25,0,0,1,444.22,58.79Zm3.71,8.33a3.51,3.51,0,0,1-1.3-1.47,4.86,4.86,0,0,1-.46-2.17,6,6,0,0,1,.66-2.8,5.13,5.13,0,0,1,1.8-2,4.59,4.59,0,0,1,2.53-.73,3,3,0,0,1,2.94,1.68l1-5.09h3.11l-2.59,13H452.5l.23-1.12a4,4,0,0,1-2.9,1.24A3.52,3.52,0,0,1,447.92,67.12Zm4.32-2.24a2.56,2.56,0,0,0,.88-1,3,3,0,0,0,.32-1.38,2,2,0,0,0-.48-1.43,1.65,1.65,0,0,0-1.29-.53,2.08,2.08,0,0,0-1.2.38,2.68,2.68,0,0,0-.87,1,2.94,2.94,0,0,0-.32,1.36,2,2,0,0,0,.48,1.42,1.62,1.62,0,0,0,1.27.53A2.16,2.16,0,0,0,452.24,64.88Z"></path><g opacity="0.25"><path class="light-blue-stroke rihvOgFN_5" d="M381,22.7l9.38,320.5-.75-.15-.74-.16-.71-.16-.69-.17Q327,318.83,281.15,287.77t-77.9-70.27a322.41,322.41,0,0,1-50.82-87.27c-12.57-32.12-20.81-67.36-24.88-106Z"></path><path class="light-blue-stroke rihvOgFN_6" d="M375.5,358.5C334.64,342.44,296,322.82,265,301.76S207.69,257,186,230.51A327.14,327.14,0,0,1,134.48,142c-12.75-32.56-21.11-68.27-25.26-107.38l18.31-10.39c4.07,38.59,12.31,73.83,24.88,106a322.41,322.41,0,0,0,50.82,87.27q32.08,39.26,77.9,70.27c30.64,20.78,69,39.9,109.35,55.73Z"></path></g><path id="face" opacity="0.5" class="bright-blue rihvOgFN_7" d="M365.61,32.16,375.25,357l-.76-.15-.74-.16-.72-.17-.7-.17Q311,332.24,264.55,300.74t-79-71.25A327.14,327.14,0,0,1,134.06,141C121.32,108.48,113,72.76,108.81,33.65Z"></path><path class="light-blue-stroke rihvOgFN_8" d="M365.61,32.16,375.25,357l-.76-.15-.74-.16-.72-.17-.7-.17Q311,332.24,264.55,300.74t-79-71.25A327.14,327.14,0,0,1,134.06,141C121.32,108.48,113,72.76,108.81,33.65Z"></path><g id="reflection" opacity="0.15"><path class="white rihvOgFN_9" d="M107.81,34.65a446.08,446.08,0,0,0,11.77,65.66l46.5-66Z"></path><path class="white rihvOgFN_10" d="M196.2,34.14l-17.05.1L123.42,114q2.13,7.11,4.51,14Z"></path><path class="white rihvOgFN_11" d="M324.37,336.72l47.26-67-4-133.94L268.23,302.72a4.44,4.44,0,0,0-.59,1.74s0,0,0,0A501.91,501.91,0,0,0,324.37,336.72Z"></path><path class="white rihvOgFN_12" d="M372.66,304.63l-.52-17.56L334,341.36q4.4,2.05,8.89,4.06Z"></path><path class="white rihvOgFN_13" opacity="0.5" d="M107.81,34.65a446.08,446.08,0,0,0,11.77,65.66l46.5-66Z"></path><path class="white rihvOgFN_14" opacity="0.5" d="M196.2,34.14l-17.05.1L123.42,114q2.13,7.11,4.51,14Z"></path><path class="white rihvOgFN_15" opacity="0.5" d="M324.37,336.72l47.26-67-4-133.94L268.23,302.72a4.44,4.44,0,0,0-.59,1.74s0,0,0,0A501.91,501.91,0,0,0,324.37,336.72Z"></path><path class="white rihvOgFN_16" opacity="0.5" d="M372.66,304.63l-.52-17.56L334,341.36q4.4,2.05,8.89,4.06Z"></path></g><g id="rays1"><path class="grey-stroke rihvOgFN_17" opacity="0.44" d="M391.79,339.84L473.46,257.84"></path><path class="grey-stroke rihvOgFN_18" opacity="0.43" d="M391.59,333.35L473.45,252.81"></path><path class="grey-stroke rihvOgFN_19" opacity="0.43" d="M391.38,326.86L473.45,247.77"></path><path class="grey-stroke rihvOgFN_20" opacity="0.42" d="M391.18,320.37L473.44,242.74"></path><path class="grey-stroke rihvOgFN_21" opacity="0.42" d="M390.98,313.88L473.43,237.7"></path><path class="grey-stroke rihvOgFN_22" opacity="0.41" d="M390.77,307.39L473.43,232.67"></path><path class="grey-stroke rihvOgFN_23" opacity="0.41" d="M390.57,300.9L473.42,227.64"></path><path class="grey-stroke rihvOgFN_24" opacity="0.4" d="M390.36,294.41L473.41,222.6"></path><path class="grey-stroke rihvOgFN_25" opacity="0.4" d="M390.16,287.92L473.4,217.57"></path><path class="grey-stroke rihvOgFN_26" opacity="0.39" d="M389.96,281.43L473.4,212.53"></path><path class="grey-stroke rihvOgFN_27" opacity="0.39" d="M389.75,274.94L473.39,207.5"></path><path class="grey-stroke rihvOgFN_28" opacity="0.38" d="M389.55,268.45L473.38,202.47"></path><path class="grey-stroke rihvOgFN_29" opacity="0.38" d="M389.34,261.96L473.38,197.43"></path><path class="grey-stroke rihvOgFN_30" opacity="0.37" d="M389.14,255.47L473.37,192.4"></path><path class="grey-stroke rihvOgFN_31" opacity="0.37" d="M388.94,248.98L473.36,187.36"></path><path class="grey-stroke rihvOgFN_32" opacity="0.36" d="M388.73,242.49L473.36,182.33"></path><path class="grey-stroke rihvOgFN_33" opacity="0.36" d="M388.53,236L473.35,177.3"></path><path class="grey-stroke rihvOgFN_34" opacity="0.35" d="M388.32,229.51L473.34,172.26"></path><path class="grey-stroke rihvOgFN_35" opacity="0.35" d="M388.12,223.02L473.34,167.23"></path><path class="grey-stroke rihvOgFN_36" opacity="0.34" d="M387.92,216.53L473.33,162.19"></path><path class="grey-stroke rihvOgFN_37" opacity="0.34" d="M387.71,210.04L473.32,157.16"></path><path class="grey-stroke rihvOgFN_38" opacity="0.33" d="M387.51,203.55L473.32,152.13"></path><path class="grey-stroke rihvOgFN_39" opacity="0.33" d="M387.3,197.06L473.31,147.09"></path><path class="grey-stroke rihvOgFN_40" opacity="0.32" d="M387.1,190.57L473.3,142.06"></path><path class="grey-stroke rihvOgFN_41" opacity="0.32" d="M386.89,184.08L473.3,137.02"></path><path class="grey-stroke rihvOgFN_42" opacity="0.31" d="M386.69,177.59L473.29,131.99"></path><path class="grey-stroke rihvOgFN_43" opacity="0.31" d="M386.49,171.1L473.28,126.96"></path><path class="grey-stroke rihvOgFN_44" opacity="0.3" d="M386.28,164.61L473.28,121.92"></path><path class="grey-stroke rihvOgFN_45" opacity="0.3" d="M386.08,158.13L473.27,116.89"></path><path class="grey-stroke rihvOgFN_46" opacity="0.29" d="M385.87,151.64L473.26,111.85"></path><path class="grey-stroke rihvOgFN_47" opacity="0.29" d="M385.67,145.15L473.26,106.82"></path><path class="grey-stroke rihvOgFN_48" opacity="0.28" d="M385.47,138.66L473.25,101.79"></path><path class="grey-stroke rihvOgFN_49" opacity="0.28" d="M385.26,132.17L473.24,96.75"></path><path class="grey-stroke rihvOgFN_50" opacity="0.27" d="M385.06,125.68L473.23,91.72"></path><path class="grey-stroke rihvOgFN_51" opacity="0.27" d="M384.85,119.19L473.23,86.68"></path><path class="grey-stroke rihvOgFN_52" opacity="0.26" d="M384.65,112.7L473.22,81.65"></path><path class="grey-stroke rihvOgFN_53" opacity="0.26" d="M384.45,106.21L473.21,76.61"></path><path class="grey-stroke rihvOgFN_54" opacity="0.25" d="M384.24,99.72L473.21,71.58"></path><path class="grey-stroke rihvOgFN_55" opacity="0.25" d="M384.04,93.23L473.2,66.55"></path><path class="grey-stroke rihvOgFN_56" opacity="0.24" d="M383.83,86.74L473.19,61.51"></path><path class="grey-stroke rihvOgFN_57" opacity="0.24" d="M383.63,80.25L473.19,56.48"></path><path class="grey-stroke rihvOgFN_58" opacity="0.23" d="M383.43,73.76L473.18,51.44"></path><path class="grey-stroke rihvOgFN_59" opacity="0.23" d="M383.22,67.27L473.17,46.41"></path><path class="grey-stroke rihvOgFN_60" opacity="0.22" d="M383.02,60.78L473.17,41.38"></path><path class="grey-stroke rihvOgFN_61" opacity="0.22" d="M382.81,54.29L473.16,36.34"></path><path class="grey-stroke rihvOgFN_62" opacity="0.21" d="M382.61,47.8L473.15,31.31"></path><path class="grey-stroke rihvOgFN_63" opacity="0.21" d="M382.4,41.31L473.15,26.27"></path><path class="grey-stroke rihvOgFN_64" opacity="0.2" d="M382.2,34.82L473.14,21.24"></path><path class="grey-stroke rihvOgFN_65" opacity="0.2" d="M382,28.33L473.13,16.21"></path></g><g id="rays2"><path class="grey-stroke rihvOgFN_66" opacity="0.22" d="M381.79,21.84L473.13,11.17"></path><path class="grey-stroke rihvOgFN_67" opacity="0.22" d="M381.13,21.84L472.46,10.51"></path><path class="grey-stroke rihvOgFN_68" opacity="0.22" d="M353.57,21.91L452.31,10.47"></path><path class="grey-stroke rihvOgFN_69" opacity="0.25" d="M326.01,21.99L432.16,10.43"></path><path class="grey-stroke rihvOgFN_70" opacity="0.27" d="M298.46,22.06L412.01,10.4"></path><path class="grey-stroke rihvOgFN_71" opacity="0.3" d="M270.9,22.14L391.87,10.36"></path><path class="grey-stroke rihvOgFN_72" opacity="0.32" d="M243.35,22.21L371.72,10.32"></path><path class="grey-stroke rihvOgFN_73" opacity="0.35" d="M215.79,22.28L351.57,10.28"></path><path class="grey-stroke rihvOgFN_74" opacity="0.37" d="M188.24,22.36L331.42,10.25"></path><path class="grey-stroke rihvOgFN_75" opacity="0.4" d="M160.68,22.43L311.27,10.21"></path><path class="grey-stroke rihvOgFN_76" opacity="0.42" d="M133.13,22.51L291.13,10.17"></path></g><path class="light-blue-grey rihvOgFN_77" d="M482.75,263.02L484.16,264.17L483.93,1.06L475.02,8.44L474.5,260.27L482.25,262.77"></path><path class="light-blue-grey rihvOgFN_78" d="M483.93,1.06L277.21,1.13L290.73,8.94L475.02,8.44L483.93,1.06Z"></path><path class="blue-stroke rihvOgFN_79" d="M277.15,0.88L291.19,9.35L474.02,9.44L474.02,259.21"></path><path class="bright-blue rihvOgFN_80" d="M365.61,31.16L380.59,20.69L389.96,341.2L375.25,355.98L365.61,31.16Z"></path><path class="bright-blue rihvOgFN_81" d="M108.81,33.65L127.12,23.26L380.59,21.69L365.61,32.16L108.81,33.65Z"></path>
<a href="" tab-index="0" data-link="/pages/expert-monitoring-assistance" aria-labeledby="link to expert assistant" title="/pages/expert-monitoring-assistance">
	<path class="bright-blue rihvOgFN_82" d="M352.71,266.83c0-.09,0-.18,0-.27v-.1q0-.16,0-.31c0-.1,0-.21,0-.31s0-.21,0-.31,0-.2,0-.31,0-.22,0-.33l0-.33-.06-.33-.06-.32-.08-.37-.09-.37-.1-.36-.11-.36-.15-.45-.16-.44-.17-.43-.19-.43a15.67,15.67,0,0,0-1-1.83,15.9,15.9,0,0,0-4.21-4.5l-.39-.27-.4-.26-.41-.25-.42-.24-.34-.18-.34-.17-.35-.16-.35-.15-.31-.13-.31-.12-.31-.11-.31-.11-.29-.09-.29-.09L341,252l-.3-.07-.29-.06-.29-.06-.29-.05-.29,0-.29,0-.29,0-.29,0-.29,0-.29,0h-.89l-127.34.09h-.6l-.3,0-.3,0-.32,0-.32,0-.32,0-.31.05-.36.07-.35.08-.35.08-.35.09-.43.13-.42.14-.42.15-.41.17-.69.31-.67.35-.65.38-.62.42-4.35,3.07.63-.42.65-.38.67-.35.69-.32.41-.17.42-.15.42-.14.43-.13.35-.09.35-.08.36-.08.36-.07.32-.05.32,0,.32,0,.32,0,.3,0,.3,0h.61l127.79-.07h.89l.29,0,.29,0,.29,0,.29,0,.29,0,.29,0,.29.05.29.06.29.07.3.07.3.08.29.09.29.09.31.11.31.11.31.12.31.13.35.15.35.16.34.17.34.18.42.24.41.25.4.26.39.27a16,16,0,0,1,4.23,4.51,15.71,15.71,0,0,1,1,1.84l.19.43.17.44.16.44.15.45.11.36.1.37.09.37.08.37.06.33.06.33.05.33,0,.33,0,.31c0,.1,0,.21,0,.31s0,.21,0,.31,0,.21,0,.31v.1q0,.14,0,.28t0,.27c0,.09,0,.18,0,.27s0,.18,0,.27,0,.2,0,.29,0,.19,0,.29,0,.19,0,.29l0,.29,0,.29,0,.29,0,.29-.05.29-.06.3-.07.29-.07.29-.08.29-.09.31-.1.31-.11.31-.11.3-.14.34-.15.34-.15.34-.16.33-.22.41-.23.4-.24.39-.25.38q-.29.43-.61.84t-.67.79q-.35.38-.72.74t-.78.69l3.84-3.17q.4-.33.77-.69t.72-.74q.35-.38.67-.79t.61-.84l.25-.38.24-.39.23-.4.21-.41.16-.33.15-.33.15-.34.14-.34.11-.3.11-.3.1-.31.09-.31.08-.29.07-.29.07-.29.06-.3.05-.29,0-.29,0-.29,0-.29,0-.29q0-.14,0-.29c0-.1,0-.19,0-.29s0-.19,0-.29,0-.18,0-.27,0-.18,0-.27S352.71,266.92,352.71,266.83Z"></path><path class="blue-stroke rihvOgFN_83" d="M209.61,251.57h-.3l-.3,0-.3,0-.32,0-.32,0-.32,0-.31.05-.36.07-.35.08-.35.08-.35.09-.43.13-.42.14-.42.15-.41.17-.69.31-.67.35-.65.38-.62.42-4.35,3.07.63-.42.65-.38.67-.35.69-.32.41-.17.42-.15.42-.14.43-.13.35-.09.35-.08.36-.08.36-.07.32-.05.32,0,.32,0,.32,0,.3,0,.3,0h.61l4.32-3.06Z"></path><path class="blue-stroke rihvOgFN_84" d="M352.71,266.83q0-.14,0-.27v-.1q0-.16,0-.31t0-.31q0-.15,0-.31l0-.31,0-.33,0-.33-.06-.33-.06-.32-.08-.37-.09-.37-.1-.36-.11-.36-.15-.45-.16-.44-.17-.43-.19-.43a15.67,15.67,0,0,0-1-1.83,15.92,15.92,0,0,0-4.21-4.5l-.39-.27-.4-.26-.41-.25-.42-.24-.34-.18-.34-.17-.35-.16-.35-.15-.31-.13-.31-.12-.31-.11-.31-.11-.29-.09-.29-.09L341,252l-.3-.07-.29-.06-.29-.06-.29-.05-.29,0-.29,0-.29,0-.29,0-.29,0-.29,0h-.89l-3.88,3.08h.89l.29,0,.29,0,.29,0,.29,0,.29,0,.29,0,.29.05.29.06.29.07.3.07.3.08.29.09.29.09.32.11.31.11.31.12.31.13.35.16.35.16.34.17.34.18.42.24.41.25.4.26.39.27a16,16,0,0,1,4.23,4.51,15.74,15.74,0,0,1,1,1.84l.19.43.17.44.16.44.15.45.11.36.1.37.09.37.08.37.06.33.06.33.05.33,0,.33,0,.31q0,.15,0,.31t0,.31q0,.16,0,.31v.1q0,.14,0,.28t0,.27,0,.27,0,.27,0,.29,0,.29,0,.29l0,.29,0,.29,0,.29,0,.29-.05.29-.06.3-.07.3-.07.29-.08.29-.09.31-.1.31-.11.31-.11.3-.14.34-.15.34-.15.34-.16.33-.22.41-.23.4-.24.39-.25.38q-.29.43-.61.84t-.67.79q-.35.38-.72.74t-.78.69l3.84-3.17q.4-.33.77-.69t.72-.74q.35-.38.67-.79t.61-.84l.25-.38.24-.39.23-.4.21-.41.16-.33.15-.33.15-.34.14-.34.11-.3.11-.3.1-.31.09-.31.08-.29.07-.29.07-.29.06-.3.05-.28,0-.29,0-.29,0-.29,0-.29q0-.14,0-.29t0-.29,0-.29c0-.09,0-.18,0-.27s0-.18,0-.27S352.71,266.92,352.71,266.83Z"></path><path class="blue-stroke rihvOgFN_85" d="M205.59,254.63L209.92,251.57L337.26,251.48L333.38,254.56L205.59,254.63Z"></path><path class="medium-blue rihvOgFN_86" d="M333.38,254.56a15.08,15.08,0,0,1,5.87,1.19,15.9,15.9,0,0,1,8.26,8.06,15.37,15.37,0,0,1,1.37,5.88,14.84,14.84,0,0,1-1,5.88,14.49,14.49,0,0,1-13.56,9.25l-127.68-.08a14.86,14.86,0,0,1-5.81-1.19A15.7,15.7,0,0,1,196,280.3a15.92,15.92,0,0,1-3.36-4.78,15.41,15.41,0,0,1-1.38-5.84,14.8,14.8,0,0,1,1-5.84,14.46,14.46,0,0,1,3-4.78,14.21,14.21,0,0,1,10.34-4.42Z"></path>
	<path class="white rihvOgFN_87" d="M219.17,265.13a3.93,3.93,0,0,1,1.39,1l-.8.86a3.16,3.16,0,0,0-1.08-.82,3.1,3.1,0,0,0-1.32-.29,3.61,3.61,0,0,0-1.86.5,3.83,3.83,0,0,0-1.37,1.35,3.52,3.52,0,0,0-.51,1.85,3,3,0,0,0,.4,1.53,2.93,2.93,0,0,0,1.09,1.09,3.06,3.06,0,0,0,1.56.4,3.61,3.61,0,0,0,1.38-.28,4.51,4.51,0,0,0,1.25-.77l.65.79a5.73,5.73,0,0,1-1.64,1,4.71,4.71,0,0,1-1.8.37,4.17,4.17,0,0,1-2.11-.54,3.88,3.88,0,0,1-1.47-1.46,4.06,4.06,0,0,1-.53-2.06,4.54,4.54,0,0,1,.69-2.44,5.11,5.11,0,0,1,4.35-2.41A4.42,4.42,0,0,1,219.17,265.13ZM228,265a4.62,4.62,0,0,1,1.31.63l-.61,1.06a4.19,4.19,0,0,0-1.2-.57,4.26,4.26,0,0,0-1.2-.19,2.43,2.43,0,0,0-1.26.29,1,1,0,0,0-.53.8,1,1,0,0,0,.19.76,1.68,1.68,0,0,0,.63.47,9.92,9.92,0,0,0,1,.39,10.92,10.92,0,0,1,1.28.5,2.38,2.38,0,0,1,.83.68,1.77,1.77,0,0,1,.34,1.13,2.87,2.87,0,0,1,0,.31,2.29,2.29,0,0,1-.52,1.31,3,3,0,0,1-1.23.86,4.56,4.56,0,0,1-1.71.31,4.61,4.61,0,0,1-1.84-.37,4.55,4.55,0,0,1-1.49-1l.64-1a4,4,0,0,0,1.32.93,3.7,3.7,0,0,0,1.49.33,2.51,2.51,0,0,0,1.47-.38,1.2,1.2,0,0,0,.54-1,1,1,0,0,0-.25-.69,1.83,1.83,0,0,0-.63-.44,10.76,10.76,0,0,0-1-.36,9.86,9.86,0,0,1-1.27-.47,2.26,2.26,0,0,1-.84-.67,1.76,1.76,0,0,1-.34-1.12,2.33,2.33,0,0,1,.42-1.38,2.74,2.74,0,0,1,1.18-.93,4.36,4.36,0,0,1,1.75-.33A5.09,5.09,0,0,1,228,265Zm10.84.34a3.92,3.92,0,0,1,2,3.51,4.56,4.56,0,0,1-.69,2.44,5.15,5.15,0,0,1-4.38,2.44,4.26,4.26,0,0,1-2.14-.54,4,4,0,0,1-2-3.53,4.52,4.52,0,0,1,.69-2.44,5.15,5.15,0,0,1,4.37-2.41A4.33,4.33,0,0,1,238.79,265.31Zm-4.08,1a3.86,3.86,0,0,0-1.39,1.35,3.47,3.47,0,0,0-.52,1.84,3,3,0,0,0,.41,1.55,3,3,0,0,0,1.11,1.11,3,3,0,0,0,1.55.41,3.54,3.54,0,0,0,1.83-.51,3.86,3.86,0,0,0,1.37-1.36,3.52,3.52,0,0,0,.51-1.84,3,3,0,0,0-.4-1.54,2.93,2.93,0,0,0-1.09-1.09,3,3,0,0,0-1.53-.4A3.65,3.65,0,0,0,234.72,266.36Zm14.91-1.23a3.93,3.93,0,0,1,1.39,1l-.8.86a3.16,3.16,0,0,0-1.08-.82,3.1,3.1,0,0,0-1.32-.29,3.61,3.61,0,0,0-1.86.5,3.83,3.83,0,0,0-1.37,1.35,3.52,3.52,0,0,0-.51,1.85,3,3,0,0,0,.4,1.53,2.93,2.93,0,0,0,1.09,1.09,3.06,3.06,0,0,0,1.56.4,3.61,3.61,0,0,0,1.38-.28,4.51,4.51,0,0,0,1.25-.77l.65.79a5.73,5.73,0,0,1-1.64,1,4.71,4.71,0,0,1-1.8.37,4.17,4.17,0,0,1-2.11-.54,3.88,3.88,0,0,1-1.47-1.46,4.06,4.06,0,0,1-.53-2.06,4.54,4.54,0,0,1,.69-2.44,5.11,5.11,0,0,1,4.35-2.41A4.42,4.42,0,0,1,249.63,265.13Zm15.43,4.28a3.53,3.53,0,0,1-1.87,1.26l1.43,3h-1.37l-1.18-2.74h-2.72l-.55,2.73h-1.2l1.75-8.75h3.42a3.4,3.4,0,0,1,2.19.63,2.13,2.13,0,0,1,.77,1.75A3.52,3.52,0,0,1,265.06,269.4Zm-1.24-.21a2.12,2.12,0,0,0,.73-1.73,1.31,1.31,0,0,0-.51-1.12,2.46,2.46,0,0,0-1.49-.38h-2.24l-.76,3.84h2.21A3.13,3.13,0,0,0,263.82,269.19Zm9.79-1.46a2.82,2.82,0,0,1,.77,2.08,5.13,5.13,0,0,1-.1.95h-5.34a2,2,0,0,0,.59,1.43,2.09,2.09,0,0,0,1.49.53,3.15,3.15,0,0,0,1.05-.18,2.83,2.83,0,0,0,.89-.5l.54.76a3.71,3.71,0,0,1-2.51.88,3.62,3.62,0,0,1-1.69-.37,2.68,2.68,0,0,1-1.12-1.06,3.13,3.13,0,0,1-.39-1.59,3.7,3.7,0,0,1,.49-1.88,3.52,3.52,0,0,1,1.34-1.32,3.77,3.77,0,0,1,1.89-.48A2.84,2.84,0,0,1,273.61,267.73Zm-.74.69a1.78,1.78,0,0,0-1.36-.51,2.42,2.42,0,0,0-1.55.54,2.63,2.63,0,0,0-.91,1.4h4.29A2,2,0,0,0,272.86,268.42Zm4.29,4.91a3,3,0,0,1-1.23-.89l.54-.79a2.92,2.92,0,0,0,1,.76,3,3,0,0,0,1.28.3,1.57,1.57,0,0,0,.92-.26.8.8,0,0,0,.36-.68.72.72,0,0,0-.31-.61,4.45,4.45,0,0,0-1-.48,7.73,7.73,0,0,1-.94-.44,1.9,1.9,0,0,1-.6-.54,1.42,1.42,0,0,1-.25-.86,1.71,1.71,0,0,1,.65-1.39,2.6,2.6,0,0,1,1.7-.53,4,4,0,0,1,1.39.24,3.44,3.44,0,0,1,1.13.64l-.58.81a3.85,3.85,0,0,0-1-.53,2.82,2.82,0,0,0-1-.21,1.41,1.41,0,0,0-.84.24.74.74,0,0,0-.33.63.65.65,0,0,0,.31.56,5,5,0,0,0,.94.46,9.91,9.91,0,0,1,1,.44,2,2,0,0,1,.64.56,1.44,1.44,0,0,1,.26.88,1.81,1.81,0,0,1-.31,1,2.08,2.08,0,0,1-.87.71,3,3,0,0,1-1.27.26A4.15,4.15,0,0,1,277.15,273.34Zm12.79-6a2.53,2.53,0,0,1,1,1,3.33,3.33,0,0,1,.35,1.55,3.92,3.92,0,0,1-.47,1.9,3.54,3.54,0,0,1-1.29,1.36,3.46,3.46,0,0,1-1.83.5,2.72,2.72,0,0,1-1.56-.42,2.21,2.21,0,0,1-.88-1.2l-.81,4h-1.16l1.8-9h1.16l-.22,1.09a3.26,3.26,0,0,1,1.1-.84,3.17,3.17,0,0,1,1.38-.3A2.83,2.83,0,0,1,289.94,267.31Zm-3.11.95a2.59,2.59,0,0,0-.91,1,2.76,2.76,0,0,0-.34,1.35,2,2,0,0,0,.54,1.49,1.89,1.89,0,0,0,1.42.56,2.38,2.38,0,0,0,1.28-.36A2.72,2.72,0,0,0,290.1,270a2,2,0,0,0-.56-1.48,1.93,1.93,0,0,0-1.44-.57A2.36,2.36,0,0,0,286.84,268.26Zm12-.92a2.71,2.71,0,0,1,1.09,1.07,3.12,3.12,0,0,1,.39,1.56,3.67,3.67,0,0,1-.49,1.9,3.48,3.48,0,0,1-1.35,1.31,3.93,3.93,0,0,1-1.92.47,3.3,3.3,0,0,1-1.62-.38,2.69,2.69,0,0,1-1.08-1.07,3.19,3.19,0,0,1-.38-1.57,3.68,3.68,0,0,1,.49-1.89,3.44,3.44,0,0,1,1.34-1.31,3.93,3.93,0,0,1,1.92-.47A3.31,3.31,0,0,1,298.88,267.34Zm-3,1a2.38,2.38,0,0,0-.89.92,2.75,2.75,0,0,0-.33,1.34,2.1,2.1,0,0,0,.55,1.51,1.91,1.91,0,0,0,1.45.57,2.41,2.41,0,0,0,1.26-.33,2.38,2.38,0,0,0,.88-.92,2.75,2.75,0,0,0,.33-1.34,2.11,2.11,0,0,0-.54-1.51,1.88,1.88,0,0,0-1.44-.58A2.44,2.44,0,0,0,295.9,268.3Zm13.09-.82a2,2,0,0,1,.63,1.54,3.41,3.41,0,0,1-.08.69l-.79,3.9h-1.17l.75-3.76a2,2,0,0,0,0-.46,1.33,1.33,0,0,0-.41-1,1.63,1.63,0,0,0-1.14-.37,2.23,2.23,0,0,0-1.52.56,2.68,2.68,0,0,0-.84,1.51l-.71,3.55h-1.17l1.3-6.61h1.19l-.23,1.11a2.81,2.81,0,0,1,2.39-1.19A2.55,2.55,0,0,1,309,267.48Zm3.71,5.86a3,3,0,0,1-1.23-.89l.54-.79a2.92,2.92,0,0,0,1,.76,3,3,0,0,0,1.28.3,1.57,1.57,0,0,0,.92-.26.8.8,0,0,0,.36-.68.72.72,0,0,0-.31-.61,4.45,4.45,0,0,0-1-.48,7.73,7.73,0,0,1-.94-.44,1.9,1.9,0,0,1-.6-.54,1.42,1.42,0,0,1-.25-.86,1.71,1.71,0,0,1,.65-1.39,2.6,2.6,0,0,1,1.7-.53,4,4,0,0,1,1.39.24,3.44,3.44,0,0,1,1.13.64l-.58.81a3.85,3.85,0,0,0-1-.53,2.82,2.82,0,0,0-1-.21,1.41,1.41,0,0,0-.84.24.74.74,0,0,0-.33.63.65.65,0,0,0,.31.56,5,5,0,0,0,.94.46,9.91,9.91,0,0,1,1,.44,2,2,0,0,1,.64.56,1.44,1.44,0,0,1,.26.88,1.81,1.81,0,0,1-.31,1,2.08,2.08,0,0,1-.87.71,3,3,0,0,1-1.27.26A4.15,4.15,0,0,1,312.7,273.34Zm12.39-5.61a2.82,2.82,0,0,1,.77,2.08,5.13,5.13,0,0,1-.1.95h-5.34a2,2,0,0,0,.59,1.43,2.09,2.09,0,0,0,1.49.53,3.15,3.15,0,0,0,1.05-.18,2.83,2.83,0,0,0,.89-.5l.54.76a3.71,3.71,0,0,1-2.51.88,3.62,3.62,0,0,1-1.69-.37,2.68,2.68,0,0,1-1.12-1.06,3.13,3.13,0,0,1-.39-1.59,3.7,3.7,0,0,1,.49-1.88,3.52,3.52,0,0,1,1.34-1.32A3.77,3.77,0,0,1,323,267,2.84,2.84,0,0,1,325.1,267.73Zm-.74.69a1.78,1.78,0,0,0-1.36-.51,2.42,2.42,0,0,0-1.55.54,2.63,2.63,0,0,0-.91,1.4h4.29A2,2,0,0,0,324.35,268.42Zm-105.19-3.3a3.93,3.93,0,0,1,1.39,1l-.8.86a3.16,3.16,0,0,0-1.08-.82,3.1,3.1,0,0,0-1.32-.29,3.61,3.61,0,0,0-1.86.5,3.83,3.83,0,0,0-1.37,1.35,3.52,3.52,0,0,0-.51,1.85,3,3,0,0,0,.4,1.53,2.93,2.93,0,0,0,1.09,1.09,3.06,3.06,0,0,0,1.56.4,3.61,3.61,0,0,0,1.38-.28,4.51,4.51,0,0,0,1.25-.77l.65.79a5.73,5.73,0,0,1-1.64,1,4.71,4.71,0,0,1-1.8.37,4.17,4.17,0,0,1-2.11-.54,3.88,3.88,0,0,1-1.47-1.46,4.06,4.06,0,0,1-.53-2.06,4.54,4.54,0,0,1,.69-2.44,5.11,5.11,0,0,1,4.35-2.41A4.42,4.42,0,0,1,219.17,265.13ZM228,265a4.62,4.62,0,0,1,1.31.63l-.61,1.06a4.19,4.19,0,0,0-1.2-.57,4.26,4.26,0,0,0-1.2-.19,2.43,2.43,0,0,0-1.26.29,1,1,0,0,0-.53.8,1,1,0,0,0,.19.76,1.68,1.68,0,0,0,.63.47,9.92,9.92,0,0,0,1,.39,10.92,10.92,0,0,1,1.28.5,2.38,2.38,0,0,1,.83.68,1.77,1.77,0,0,1,.34,1.13,2.87,2.87,0,0,1,0,.31,2.29,2.29,0,0,1-.52,1.31,3,3,0,0,1-1.23.86,4.56,4.56,0,0,1-1.71.31,4.61,4.61,0,0,1-1.84-.37,4.55,4.55,0,0,1-1.49-1l.64-1a4,4,0,0,0,1.32.93,3.7,3.7,0,0,0,1.49.33,2.51,2.51,0,0,0,1.47-.38,1.2,1.2,0,0,0,.54-1,1,1,0,0,0-.25-.69,1.83,1.83,0,0,0-.63-.44,10.76,10.76,0,0,0-1-.36,9.86,9.86,0,0,1-1.27-.47,2.26,2.26,0,0,1-.84-.67,1.76,1.76,0,0,1-.34-1.12,2.33,2.33,0,0,1,.42-1.38,2.74,2.74,0,0,1,1.18-.93,4.36,4.36,0,0,1,1.75-.33A5.09,5.09,0,0,1,228,265Zm10.84.34a3.92,3.92,0,0,1,2,3.51,4.56,4.56,0,0,1-.69,2.44,5.15,5.15,0,0,1-4.38,2.44,4.26,4.26,0,0,1-2.14-.54,4,4,0,0,1-2-3.53,4.52,4.52,0,0,1,.69-2.44,5.15,5.15,0,0,1,4.37-2.41A4.33,4.33,0,0,1,238.79,265.31Zm-4.08,1a3.86,3.86,0,0,0-1.39,1.35,3.47,3.47,0,0,0-.52,1.84,3,3,0,0,0,.41,1.55,3,3,0,0,0,1.11,1.11,3,3,0,0,0,1.55.41,3.54,3.54,0,0,0,1.83-.51,3.86,3.86,0,0,0,1.37-1.36,3.52,3.52,0,0,0,.51-1.84,3,3,0,0,0-.4-1.54,2.93,2.93,0,0,0-1.09-1.09,3,3,0,0,0-1.53-.4A3.65,3.65,0,0,0,234.72,266.36Zm14.91-1.23a3.93,3.93,0,0,1,1.39,1l-.8.86a3.16,3.16,0,0,0-1.08-.82,3.1,3.1,0,0,0-1.32-.29,3.61,3.61,0,0,0-1.86.5,3.83,3.83,0,0,0-1.37,1.35,3.52,3.52,0,0,0-.51,1.85,3,3,0,0,0,.4,1.53,2.93,2.93,0,0,0,1.09,1.09,3.06,3.06,0,0,0,1.56.4,3.61,3.61,0,0,0,1.38-.28,4.51,4.51,0,0,0,1.25-.77l.65.79a5.73,5.73,0,0,1-1.64,1,4.71,4.71,0,0,1-1.8.37,4.17,4.17,0,0,1-2.11-.54,3.88,3.88,0,0,1-1.47-1.46,4.06,4.06,0,0,1-.53-2.06,4.54,4.54,0,0,1,.69-2.44,5.11,5.11,0,0,1,4.35-2.41A4.42,4.42,0,0,1,249.63,265.13Zm15.43,4.28a3.53,3.53,0,0,1-1.87,1.26l1.43,3h-1.37l-1.18-2.74h-2.72l-.55,2.73h-1.2l1.75-8.75h3.42a3.4,3.4,0,0,1,2.19.63,2.13,2.13,0,0,1,.77,1.75A3.52,3.52,0,0,1,265.06,269.4Zm-1.24-.21a2.12,2.12,0,0,0,.73-1.73,1.31,1.31,0,0,0-.51-1.12,2.46,2.46,0,0,0-1.49-.38h-2.24l-.76,3.84h2.21A3.13,3.13,0,0,0,263.82,269.19Zm9.79-1.46a2.82,2.82,0,0,1,.77,2.08,5.13,5.13,0,0,1-.1.95h-5.34a2,2,0,0,0,.59,1.43,2.09,2.09,0,0,0,1.49.53,3.15,3.15,0,0,0,1.05-.18,2.83,2.83,0,0,0,.89-.5l.54.76a3.71,3.71,0,0,1-2.51.88,3.62,3.62,0,0,1-1.69-.37,2.68,2.68,0,0,1-1.12-1.06,3.13,3.13,0,0,1-.39-1.59,3.7,3.7,0,0,1,.49-1.88,3.52,3.52,0,0,1,1.34-1.32,3.77,3.77,0,0,1,1.89-.48A2.84,2.84,0,0,1,273.61,267.73Zm-.74.69a1.78,1.78,0,0,0-1.36-.51,2.42,2.42,0,0,0-1.55.54,2.63,2.63,0,0,0-.91,1.4h4.29A2,2,0,0,0,272.86,268.42Zm4.29,4.91a3,3,0,0,1-1.23-.89l.54-.79a2.92,2.92,0,0,0,1,.76,3,3,0,0,0,1.28.3,1.57,1.57,0,0,0,.92-.26.8.8,0,0,0,.36-.68.72.72,0,0,0-.31-.61,4.45,4.45,0,0,0-1-.48,7.73,7.73,0,0,1-.94-.44,1.9,1.9,0,0,1-.6-.54,1.42,1.42,0,0,1-.25-.86,1.71,1.71,0,0,1,.65-1.39,2.6,2.6,0,0,1,1.7-.53,4,4,0,0,1,1.39.24,3.44,3.44,0,0,1,1.13.64l-.58.81a3.85,3.85,0,0,0-1-.53,2.82,2.82,0,0,0-1-.21,1.41,1.41,0,0,0-.84.24.74.74,0,0,0-.33.63.65.65,0,0,0,.31.56,5,5,0,0,0,.94.46,9.91,9.91,0,0,1,1,.44,2,2,0,0,1,.64.56,1.44,1.44,0,0,1,.26.88,1.81,1.81,0,0,1-.31,1,2.08,2.08,0,0,1-.87.71,3,3,0,0,1-1.27.26A4.15,4.15,0,0,1,277.15,273.34Zm12.79-6a2.53,2.53,0,0,1,1,1,3.33,3.33,0,0,1,.35,1.55,3.92,3.92,0,0,1-.47,1.9,3.54,3.54,0,0,1-1.29,1.36,3.46,3.46,0,0,1-1.83.5,2.72,2.72,0,0,1-1.56-.42,2.21,2.21,0,0,1-.88-1.2l-.81,4h-1.16l1.8-9h1.16l-.22,1.09a3.26,3.26,0,0,1,1.1-.84,3.17,3.17,0,0,1,1.38-.3A2.83,2.83,0,0,1,289.94,267.31Zm-3.11.95a2.59,2.59,0,0,0-.91,1,2.76,2.76,0,0,0-.34,1.35,2,2,0,0,0,.54,1.49,1.89,1.89,0,0,0,1.42.56,2.38,2.38,0,0,0,1.28-.36A2.72,2.72,0,0,0,290.1,270a2,2,0,0,0-.56-1.48,1.93,1.93,0,0,0-1.44-.57A2.36,2.36,0,0,0,286.84,268.26Zm12-.92a2.71,2.71,0,0,1,1.09,1.07,3.12,3.12,0,0,1,.39,1.56,3.67,3.67,0,0,1-.49,1.9,3.48,3.48,0,0,1-1.35,1.31,3.93,3.93,0,0,1-1.92.47,3.3,3.3,0,0,1-1.62-.38,2.69,2.69,0,0,1-1.08-1.07,3.19,3.19,0,0,1-.38-1.57,3.68,3.68,0,0,1,.49-1.89,3.44,3.44,0,0,1,1.34-1.31,3.93,3.93,0,0,1,1.92-.47A3.31,3.31,0,0,1,298.88,267.34Zm-3,1a2.38,2.38,0,0,0-.89.92,2.75,2.75,0,0,0-.33,1.34,2.1,2.1,0,0,0,.55,1.51,1.91,1.91,0,0,0,1.45.57,2.41,2.41,0,0,0,1.26-.33,2.38,2.38,0,0,0,.88-.92,2.75,2.75,0,0,0,.33-1.34,2.11,2.11,0,0,0-.54-1.51,1.88,1.88,0,0,0-1.44-.58A2.44,2.44,0,0,0,295.9,268.3Zm13.09-.82a2,2,0,0,1,.63,1.54,3.41,3.41,0,0,1-.08.69l-.79,3.9h-1.17l.75-3.76a2,2,0,0,0,0-.46,1.33,1.33,0,0,0-.41-1,1.63,1.63,0,0,0-1.14-.37,2.23,2.23,0,0,0-1.52.56,2.68,2.68,0,0,0-.84,1.51l-.71,3.55h-1.17l1.3-6.61h1.19l-.23,1.11a2.81,2.81,0,0,1,2.39-1.19A2.55,2.55,0,0,1,309,267.48Zm3.71,5.86a3,3,0,0,1-1.23-.89l.54-.79a2.92,2.92,0,0,0,1,.76,3,3,0,0,0,1.28.3,1.57,1.57,0,0,0,.92-.26.8.8,0,0,0,.36-.68.72.72,0,0,0-.31-.61,4.45,4.45,0,0,0-1-.48,7.73,7.73,0,0,1-.94-.44,1.9,1.9,0,0,1-.6-.54,1.42,1.42,0,0,1-.25-.86,1.71,1.71,0,0,1,.65-1.39,2.6,2.6,0,0,1,1.7-.53,4,4,0,0,1,1.39.24,3.44,3.44,0,0,1,1.13.64l-.58.81a3.85,3.85,0,0,0-1-.53,2.82,2.82,0,0,0-1-.21,1.41,1.41,0,0,0-.84.24.74.74,0,0,0-.33.63.65.65,0,0,0,.31.56,5,5,0,0,0,.94.46,9.91,9.91,0,0,1,1,.44,2,2,0,0,1,.64.56,1.44,1.44,0,0,1,.26.88,1.81,1.81,0,0,1-.31,1,2.08,2.08,0,0,1-.87.71,3,3,0,0,1-1.27.26A4.15,4.15,0,0,1,312.7,273.34Zm12.39-5.61a2.82,2.82,0,0,1,.77,2.08,5.13,5.13,0,0,1-.1.95h-5.34a2,2,0,0,0,.59,1.43,2.09,2.09,0,0,0,1.49.53,3.15,3.15,0,0,0,1.05-.18,2.83,2.83,0,0,0,.89-.5l.54.76a3.71,3.71,0,0,1-2.51.88,3.62,3.62,0,0,1-1.69-.37,2.68,2.68,0,0,1-1.12-1.06,3.13,3.13,0,0,1-.39-1.59,3.7,3.7,0,0,1,.49-1.88,3.52,3.52,0,0,1,1.34-1.32A3.77,3.77,0,0,1,323,267,2.84,2.84,0,0,1,325.1,267.73Zm-.74.69a1.78,1.78,0,0,0-1.36-.51,2.42,2.42,0,0,0-1.55.54,2.63,2.63,0,0,0-.91,1.4h4.29A2,2,0,0,0,324.35,268.42Z"></path>
</a>
<text class="benefit-bullets" transform="translate(175.03 130.97)">24/7 Website Surveillance</text><text class="benefit-bullets" transform="translate(189.04 157.19)">Incident Response Plans</text><text class="benefit-bullets" transform="translate(215.05 183.41)">Threat Investigation</text><text class="benefit-bullets" transform="translate(234.13 209.64)">Security Analysts</text><path class="blue rihvOgFN_88" d="M177.45,89.89a5.68,5.68,0,0,1-2.8,2.1l2.12,4.6h-3l-1.58-4.14-.5,0h-3.18l-.82,4.12H165l2.8-14h5.84a5.58,5.58,0,0,1,3.59,1,3.48,3.48,0,0,1,1.25,2.87A5.83,5.83,0,0,1,177.45,89.89Zm-2.6-.6a2.88,2.88,0,0,0,1-2.34,1.76,1.76,0,0,0-.69-1.51,3.31,3.31,0,0,0-2-.51H170l-1,5.18h3.16A4.18,4.18,0,0,0,174.85,89.3ZM190,87.07a4.5,4.5,0,0,1,1.29,3.39,7.51,7.51,0,0,1-.2,1.7H183a2.6,2.6,0,0,0,.86,1.82,3,3,0,0,0,2,.66,4.57,4.57,0,0,0,2.8-1l1.22,1.58a6,6,0,0,1-4.1,1.46,6.35,6.35,0,0,1-2.84-.6,4.45,4.45,0,0,1-1.89-1.71,4.87,4.87,0,0,1-.67-2.57,6,6,0,0,1,.79-3.07,5.73,5.73,0,0,1,2.18-2.16,6.17,6.17,0,0,1,3.11-.79A4.86,4.86,0,0,1,190,87.07Zm-1.67,1.48a2.33,2.33,0,0,0-1.8-.67,3.31,3.31,0,0,0-2.07.7,3.75,3.75,0,0,0-1.29,1.84H189A2.51,2.51,0,0,0,188.37,88.55Zm6.4,7.61a5.42,5.42,0,0,1-2.12-1.46l1.12-1.7a5.33,5.33,0,0,0,1.72,1.22,4.69,4.69,0,0,0,2,.48,2,2,0,0,0,1.18-.31,1,1,0,0,0,.44-.83.89.89,0,0,0-.44-.76,7.24,7.24,0,0,0-1.36-.66,16,16,0,0,1-1.51-.7,3,3,0,0,1-1-.9,2.38,2.38,0,0,1-.42-1.44,3,3,0,0,1,.5-1.72,3.36,3.36,0,0,1,1.4-1.16,4.88,4.88,0,0,1,2.08-.42,7.17,7.17,0,0,1,2.41.43,6.18,6.18,0,0,1,2,1.15l-1.24,1.72a7.34,7.34,0,0,0-1.66-.93,4.31,4.31,0,0,0-1.56-.35,1.69,1.69,0,0,0-1,.3.89.89,0,0,0-.41.74.81.81,0,0,0,.42.71,9.82,9.82,0,0,0,1.36.67,16.52,16.52,0,0,1,1.56.73,3.25,3.25,0,0,1,1,.92,2.4,2.4,0,0,1,.44,1.47,3,3,0,0,1-.52,1.74,3.46,3.46,0,0,1-1.46,1.19,5.08,5.08,0,0,1-2.14.43A7.22,7.22,0,0,1,194.77,96.16Zm20-9.76a4.09,4.09,0,0,1,1.54,1.68,5.38,5.38,0,0,1,.55,2.48,6.5,6.5,0,0,1-.76,3.13A5.79,5.79,0,0,1,214,95.91a5.46,5.46,0,0,1-2.93.81,4.25,4.25,0,0,1-2.28-.57,3.36,3.36,0,0,1-1.36-1.67l-1.22,6h-2.58l2.9-14.58h2.6l-.3,1.46a5.2,5.2,0,0,1,1.65-1.15,4.86,4.86,0,0,1,2-.41A4.3,4.3,0,0,1,214.76,86.39Zm-5,2a3.56,3.56,0,0,0-1.26,1.35,3.86,3.86,0,0,0-.46,1.87,2.82,2.82,0,0,0,.72,2,2.5,2.5,0,0,0,1.9.76,3.3,3.3,0,0,0,1.77-.5,3.61,3.61,0,0,0,1.28-1.35,3.77,3.77,0,0,0,.47-1.85,2.83,2.83,0,0,0-.73-2,2.54,2.54,0,0,0-1.93-.77A3.26,3.26,0,0,0,209.81,88.42Zm18.27-2a4.28,4.28,0,0,1,1.8,1.73,5.13,5.13,0,0,1,.63,2.56,6,6,0,0,1-.81,3.1,5.67,5.67,0,0,1-2.22,2.12,6.62,6.62,0,0,1-3.19.76,5.71,5.71,0,0,1-2.71-.62,4.37,4.37,0,0,1-1.8-1.73,5.12,5.12,0,0,1-.63-2.57,6,6,0,0,1,.8-3.09,5.6,5.6,0,0,1,2.22-2.11,6.68,6.68,0,0,1,3.2-.76A5.77,5.77,0,0,1,228.08,86.43Zm-4.64,2.07a3.25,3.25,0,0,0-1.21,1.28,3.87,3.87,0,0,0-.44,1.86,2.93,2.93,0,0,0,.74,2.09,2.55,2.55,0,0,0,2,.79,3.22,3.22,0,0,0,2.92-1.74,3.88,3.88,0,0,0,.44-1.86,3,3,0,0,0-.73-2.08,2.51,2.51,0,0,0-2-.8A3.3,3.3,0,0,0,223.44,88.5Zm20.06-1.81a3.22,3.22,0,0,1,1,2.51,5.42,5.42,0,0,1-.12,1.1l-1.26,6.3h-2.62l1.18-5.92a3.6,3.6,0,0,0,.06-.64,1.84,1.84,0,0,0-.56-1.42,2.2,2.2,0,0,0-1.56-.52,2.92,2.92,0,0,0-2,.78,3.64,3.64,0,0,0-1.13,2.06l-1.16,5.66h-2.6l2.1-10.7h2.64l-.3,1.52a4.13,4.13,0,0,1,3.48-1.66A4.07,4.07,0,0,1,243.5,86.69Zm5.76,9.43a4.08,4.08,0,0,1-1.54-1.69,5.45,5.45,0,0,1-.55-2.49,6.42,6.42,0,0,1,.76-3.12A5.76,5.76,0,0,1,250,86.61,5.51,5.51,0,0,1,253,85.8a4.26,4.26,0,0,1,2.27.57A3.25,3.25,0,0,1,256.57,88l1.28-6.26h2.58l-3,14.84h-2.58l.3-1.46a5,5,0,0,1-1.66,1.17,5,5,0,0,1-2,.41A4.28,4.28,0,0,1,249.26,96.12Zm5-2a3.55,3.55,0,0,0,1.26-1.35,3.82,3.82,0,0,0,.46-1.85,2.85,2.85,0,0,0-.72-2,2.5,2.5,0,0,0-1.92-.77,3.26,3.26,0,0,0-1.76.5,3.61,3.61,0,0,0-1.27,1.36,3.8,3.8,0,0,0-.47,1.86,2.8,2.8,0,0,0,.73,2,2.55,2.55,0,0,0,1.93.76A3.26,3.26,0,0,0,254.23,94.08Zm-76.78-4.18a5.68,5.68,0,0,1-2.8,2.1l2.12,4.6h-3l-1.58-4.14-.5,0h-3.18l-.82,4.12H165l2.8-14h5.84a5.58,5.58,0,0,1,3.59,1,3.48,3.48,0,0,1,1.25,2.87A5.83,5.83,0,0,1,177.45,89.89Zm-2.6-.6a2.88,2.88,0,0,0,1-2.34,1.76,1.76,0,0,0-.69-1.51,3.31,3.31,0,0,0-2-.51H170l-1,5.18h3.16A4.18,4.18,0,0,0,174.85,89.3ZM190,87.07a4.5,4.5,0,0,1,1.29,3.39,7.51,7.51,0,0,1-.2,1.7H183a2.6,2.6,0,0,0,.86,1.82,3,3,0,0,0,2,.66,4.57,4.57,0,0,0,2.8-1l1.22,1.58a6,6,0,0,1-4.1,1.46,6.35,6.35,0,0,1-2.84-.6,4.45,4.45,0,0,1-1.89-1.71,4.87,4.87,0,0,1-.67-2.57,6,6,0,0,1,.79-3.07,5.73,5.73,0,0,1,2.18-2.16,6.17,6.17,0,0,1,3.11-.79A4.86,4.86,0,0,1,190,87.07Zm-1.67,1.48a2.33,2.33,0,0,0-1.8-.67,3.31,3.31,0,0,0-2.07.7,3.75,3.75,0,0,0-1.29,1.84H189A2.51,2.51,0,0,0,188.37,88.55Zm6.4,7.61a5.42,5.42,0,0,1-2.12-1.46l1.12-1.7a5.33,5.33,0,0,0,1.72,1.22,4.69,4.69,0,0,0,2,.48,2,2,0,0,0,1.18-.31,1,1,0,0,0,.44-.83.89.89,0,0,0-.44-.76,7.24,7.24,0,0,0-1.36-.66,16,16,0,0,1-1.51-.7,3,3,0,0,1-1-.9,2.38,2.38,0,0,1-.42-1.44,3,3,0,0,1,.5-1.72,3.36,3.36,0,0,1,1.4-1.16,4.88,4.88,0,0,1,2.08-.42,7.17,7.17,0,0,1,2.41.43,6.18,6.18,0,0,1,2,1.15l-1.24,1.72a7.34,7.34,0,0,0-1.66-.93,4.31,4.31,0,0,0-1.56-.35,1.69,1.69,0,0,0-1,.3.89.89,0,0,0-.41.74.81.81,0,0,0,.42.71,9.82,9.82,0,0,0,1.36.67,16.52,16.52,0,0,1,1.56.73,3.25,3.25,0,0,1,1,.92,2.4,2.4,0,0,1,.44,1.47,3,3,0,0,1-.52,1.74,3.46,3.46,0,0,1-1.46,1.19,5.08,5.08,0,0,1-2.14.43A7.22,7.22,0,0,1,194.77,96.16Zm20-9.76a4.09,4.09,0,0,1,1.54,1.68,5.38,5.38,0,0,1,.55,2.48,6.5,6.5,0,0,1-.76,3.13A5.79,5.79,0,0,1,214,95.91a5.46,5.46,0,0,1-2.93.81,4.25,4.25,0,0,1-2.28-.57,3.36,3.36,0,0,1-1.36-1.67l-1.22,6h-2.58l2.9-14.58h2.6l-.3,1.46a5.2,5.2,0,0,1,1.65-1.15,4.86,4.86,0,0,1,2-.41A4.3,4.3,0,0,1,214.76,86.39Zm-5,2a3.56,3.56,0,0,0-1.26,1.35,3.86,3.86,0,0,0-.46,1.87,2.82,2.82,0,0,0,.72,2,2.5,2.5,0,0,0,1.9.76,3.3,3.3,0,0,0,1.77-.5,3.61,3.61,0,0,0,1.28-1.35,3.77,3.77,0,0,0,.47-1.85,2.83,2.83,0,0,0-.73-2,2.54,2.54,0,0,0-1.93-.77A3.26,3.26,0,0,0,209.81,88.42Zm18.27-2a4.28,4.28,0,0,1,1.8,1.73,5.13,5.13,0,0,1,.63,2.56,6,6,0,0,1-.81,3.1,5.67,5.67,0,0,1-2.22,2.12,6.62,6.62,0,0,1-3.19.76,5.71,5.71,0,0,1-2.71-.62,4.37,4.37,0,0,1-1.8-1.73,5.12,5.12,0,0,1-.63-2.57,6,6,0,0,1,.8-3.09,5.6,5.6,0,0,1,2.22-2.11,6.68,6.68,0,0,1,3.2-.76A5.77,5.77,0,0,1,228.08,86.43Zm-4.64,2.07a3.25,3.25,0,0,0-1.21,1.28,3.87,3.87,0,0,0-.44,1.86,2.93,2.93,0,0,0,.74,2.09,2.55,2.55,0,0,0,2,.79,3.22,3.22,0,0,0,2.92-1.74,3.88,3.88,0,0,0,.44-1.86,3,3,0,0,0-.73-2.08,2.51,2.51,0,0,0-2-.8A3.3,3.3,0,0,0,223.44,88.5Zm20.06-1.81a3.22,3.22,0,0,1,1,2.51,5.42,5.42,0,0,1-.12,1.1l-1.26,6.3h-2.62l1.18-5.92a3.6,3.6,0,0,0,.06-.64,1.84,1.84,0,0,0-.56-1.42,2.2,2.2,0,0,0-1.56-.52,2.92,2.92,0,0,0-2,.78,3.64,3.64,0,0,0-1.13,2.06l-1.16,5.66h-2.6l2.1-10.7h2.64l-.3,1.52a4.13,4.13,0,0,1,3.48-1.66A4.07,4.07,0,0,1,243.5,86.69Zm5.76,9.43a4.08,4.08,0,0,1-1.54-1.69,5.45,5.45,0,0,1-.55-2.49,6.42,6.42,0,0,1,.76-3.12A5.76,5.76,0,0,1,250,86.61,5.51,5.51,0,0,1,253,85.8a4.26,4.26,0,0,1,2.27.57A3.25,3.25,0,0,1,256.57,88l1.28-6.26h2.58l-3,14.84h-2.58l.3-1.46a5,5,0,0,1-1.66,1.17,5,5,0,0,1-2,.41A4.28,4.28,0,0,1,249.26,96.12Zm5-2a3.55,3.55,0,0,0,1.26-1.35,3.82,3.82,0,0,0,.46-1.85,2.85,2.85,0,0,0-.72-2,2.5,2.5,0,0,0-1.92-.77,3.26,3.26,0,0,0-1.76.5,3.61,3.61,0,0,0-1.27,1.36,3.8,3.8,0,0,0-.47,1.86,2.8,2.8,0,0,0,.73,2,2.55,2.55,0,0,0,1.93.76A3.26,3.26,0,0,0,254.23,94.08Z"></path><path id="bullet" class="blue rihvOgFN_89" d="M164.7,126.25A1.52,1.52 0,1,1 167.74,126.25A1.52,1.52 0,1,1 164.7,126.25"></path><path id="bullet-2" data-name="bullet" class="blue rihvOgFN_90" d="M178.7,151.25A1.52,1.52 0,1,1 181.74,151.25A1.52,1.52 0,1,1 178.7,151.25"></path><path id="bullet-3" data-name="bullet" class="blue rihvOgFN_91" d="M202.7,178.25A1.52,1.52 0,1,1 205.74,178.25A1.52,1.52 0,1,1 202.7,178.25"></path><path id="bullet-4" data-name="bullet" class="blue rihvOgFN_92" d="M222.7,203.25A1.52,1.52 0,1,1 225.74,203.25A1.52,1.52 0,1,1 222.7,203.25"></path>
<style>
  .rihvOgFN_17{
    stroke-dasharray:116 118;
    stroke-dashoffset:117;
    animation:rihvOgFN_draw117 300ms linear 0ms forwards;
  }
  .rihvOgFN_18{
    stroke-dasharray:115 117;
    stroke-dashoffset:116;
    animation:rihvOgFN_draw116 300ms linear 0ms forwards;
  }
  .rihvOgFN_19{
    stroke-dasharray:114 116;
    stroke-dashoffset:115;
    animation:rihvOgFN_draw115 300ms linear 0ms forwards;
  }
  .rihvOgFN_20{
    stroke-dasharray:114 116;
    stroke-dashoffset:115;
    animation:rihvOgFN_draw115 300ms linear 0ms forwards;
  }
  .rihvOgFN_21{
    stroke-dasharray:113 115;
    stroke-dashoffset:114;
    animation:rihvOgFN_draw114 300ms linear 0ms forwards;
  }
  .rihvOgFN_22{
    stroke-dasharray:112 114;
    stroke-dashoffset:113;
    animation:rihvOgFN_draw113 300ms linear 0ms forwards;
  }
  .rihvOgFN_23{
    stroke-dasharray:111 113;
    stroke-dashoffset:112;
    animation:rihvOgFN_draw112 300ms linear 0ms forwards;
  }
  .rihvOgFN_24{
    stroke-dasharray:110 112;
    stroke-dashoffset:111;
    animation:rihvOgFN_draw111 300ms linear 0ms forwards;
  }
  .rihvOgFN_25{
    stroke-dasharray:109 111;
    stroke-dashoffset:110;
    animation:rihvOgFN_draw110 300ms linear 0ms forwards;
  }
  .rihvOgFN_26{
    stroke-dasharray:109 111;
    stroke-dashoffset:110;
    animation:rihvOgFN_draw110 300ms linear 0ms forwards;
  }
  .rihvOgFN_27{
    stroke-dasharray:108 110;
    stroke-dashoffset:109;
    animation:rihvOgFN_draw109 300ms linear 0ms forwards;
  }
  .rihvOgFN_28{
    stroke-dasharray:107 109;
    stroke-dashoffset:108;
    animation:rihvOgFN_draw108 300ms linear 0ms forwards;
  }
  .rihvOgFN_29{
    stroke-dasharray:106 108;
    stroke-dashoffset:107;
    animation:rihvOgFN_draw107 300ms linear 0ms forwards;
  }
  .rihvOgFN_30{
    stroke-dasharray:106 108;
    stroke-dashoffset:107;
    animation:rihvOgFN_draw107 300ms linear 0ms forwards;
  }
  .rihvOgFN_31{
    stroke-dasharray:105 107;
    stroke-dashoffset:106;
    animation:rihvOgFN_draw106 300ms linear 0ms forwards;
  }
  .rihvOgFN_32{
    stroke-dasharray:104 106;
    stroke-dashoffset:105;
    animation:rihvOgFN_draw105 300ms linear 0ms forwards;
  }
  .rihvOgFN_33{
    stroke-dasharray:104 106;
    stroke-dashoffset:105;
    animation:rihvOgFN_draw105 300ms linear 0ms forwards;
  }
  .rihvOgFN_34{
    stroke-dasharray:103 105;
    stroke-dashoffset:104;
    animation:rihvOgFN_draw104 300ms linear 0ms forwards;
  }
  .rihvOgFN_35{
    stroke-dasharray:102 104;
    stroke-dashoffset:103;
    animation:rihvOgFN_draw103 300ms linear 0ms forwards;
  }
  .rihvOgFN_36{
    stroke-dasharray:102 104;
    stroke-dashoffset:103;
    animation:rihvOgFN_draw103 300ms linear 0ms forwards;
  }
  .rihvOgFN_37{
    stroke-dasharray:101 103;
    stroke-dashoffset:102;
    animation:rihvOgFN_draw102 300ms linear 0ms forwards;
  }
  .rihvOgFN_38{
    stroke-dasharray:101 103;
    stroke-dashoffset:102;
    animation:rihvOgFN_draw102 300ms linear 0ms forwards;
  }
  .rihvOgFN_39{
    stroke-dasharray:100 102;
    stroke-dashoffset:101;
    animation:rihvOgFN_draw101 300ms linear 0ms forwards;
  }
  .rihvOgFN_40{
    stroke-dasharray:99 101;
    stroke-dashoffset:100;
    animation:rihvOgFN_draw100 300ms linear 0ms forwards;
  }
  .rihvOgFN_41{
    stroke-dasharray:99 101;
    stroke-dashoffset:100;
    animation:rihvOgFN_draw100 300ms linear 0ms forwards;
  }
  .rihvOgFN_42{
    stroke-dasharray:98 100;
    stroke-dashoffset:99;
    animation:rihvOgFN_draw99 300ms linear 0ms forwards;
  }
  .rihvOgFN_43{
    stroke-dasharray:98 100;
    stroke-dashoffset:99;
    animation:rihvOgFN_draw99 300ms linear 0ms forwards;
  }
  .rihvOgFN_44{
    stroke-dasharray:97 99;
    stroke-dashoffset:98;
    animation:rihvOgFN_draw98 300ms linear 0ms forwards;
  }
  .rihvOgFN_45{
    stroke-dasharray:97 99;
    stroke-dashoffset:98;
    animation:rihvOgFN_draw98 300ms linear 0ms forwards;
  }
  .rihvOgFN_46{
    stroke-dasharray:97 99;
    stroke-dashoffset:98;
    animation:rihvOgFN_draw98 300ms linear 0ms forwards;
  }
  .rihvOgFN_47{
    stroke-dasharray:96 98;
    stroke-dashoffset:97;
    animation:rihvOgFN_draw97 300ms linear 0ms forwards;
  }
  .rihvOgFN_48{
    stroke-dasharray:96 98;
    stroke-dashoffset:97;
    animation:rihvOgFN_draw97 300ms linear 0ms forwards;
  }
  .rihvOgFN_49{
    stroke-dasharray:95 97;
    stroke-dashoffset:96;
    animation:rihvOgFN_draw96 300ms linear 0ms forwards;
  }
  .rihvOgFN_50{
    stroke-dasharray:95 97;
    stroke-dashoffset:96;
    animation:rihvOgFN_draw96 300ms linear 0ms forwards;
  }
  .rihvOgFN_51{
    stroke-dasharray:95 97;
    stroke-dashoffset:96;
    animation:rihvOgFN_draw96 300ms linear 0ms forwards;
  }
  .rihvOgFN_52{
    stroke-dasharray:94 96;
    stroke-dashoffset:95;
    animation:rihvOgFN_draw95 300ms linear 0ms forwards;
  }
  .rihvOgFN_53{
    stroke-dasharray:94 96;
    stroke-dashoffset:95;
    animation:rihvOgFN_draw95 300ms linear 0ms forwards;
  }
  .rihvOgFN_54{
    stroke-dasharray:94 96;
    stroke-dashoffset:95;
    animation:rihvOgFN_draw95 300ms linear 0ms forwards;
  }
  .rihvOgFN_55{
    stroke-dasharray:94 96;
    stroke-dashoffset:95;
    animation:rihvOgFN_draw95 300ms linear 0ms forwards;
  }
  .rihvOgFN_56{
    stroke-dasharray:93 95;
    stroke-dashoffset:94;
    animation:rihvOgFN_draw94 300ms linear 0ms forwards;
  }
  .rihvOgFN_57{
    stroke-dasharray:93 95;
    stroke-dashoffset:94;
    animation:rihvOgFN_draw94 300ms linear 0ms forwards;
  }
  .rihvOgFN_58{
    stroke-dasharray:93 95;
    stroke-dashoffset:94;
    animation:rihvOgFN_draw94 300ms linear 0ms forwards;
  }
  .rihvOgFN_59{
    stroke-dasharray:93 95;
    stroke-dashoffset:94;
    animation:rihvOgFN_draw94 300ms linear 0ms forwards;
  }
  .rihvOgFN_60{
    stroke-dasharray:93 95;
    stroke-dashoffset:94;
    animation:rihvOgFN_draw94 300ms linear 0ms forwards;
  }
  .rihvOgFN_61{
    stroke-dasharray:93 95;
    stroke-dashoffset:94;
    animation:rihvOgFN_draw94 300ms linear 0ms forwards;
  }
  .rihvOgFN_62{
    stroke-dasharray:93 95;
    stroke-dashoffset:94;
    animation:rihvOgFN_draw94 300ms linear 0ms forwards;
  }
  .rihvOgFN_63{
    stroke-dasharray:92 94;
    stroke-dashoffset:93;
    animation:rihvOgFN_draw93 300ms linear 0ms forwards;
  }
  .rihvOgFN_64{
    stroke-dasharray:92 94;
    stroke-dashoffset:93;
    animation:rihvOgFN_draw93 300ms linear 0ms forwards;
  }
  .rihvOgFN_65{
    stroke-dasharray:92 94;
    stroke-dashoffset:93;
    animation:rihvOgFN_draw93 300ms linear 0ms forwards;
  }
  .rihvOgFN_66{
    stroke-dasharray:92 94;
    stroke-dashoffset:93;
    animation:rihvOgFN_draw93 300ms linear 0ms forwards;
  }
  .rihvOgFN_67{
    stroke-dasharray:93 95;
    stroke-dashoffset:94;
    animation:rihvOgFN_draw94 300ms linear 0ms forwards;
  }
  .rihvOgFN_68{
    stroke-dasharray:100 102;
    stroke-dashoffset:101;
    animation:rihvOgFN_draw101 300ms linear 0ms forwards;
  }
  .rihvOgFN_69{
    stroke-dasharray:107 109;
    stroke-dashoffset:108;
    animation:rihvOgFN_draw108 300ms linear 0ms forwards;
  }
  .rihvOgFN_70{
    stroke-dasharray:115 117;
    stroke-dashoffset:116;
    animation:rihvOgFN_draw116 300ms linear 0ms forwards;
  }
  .rihvOgFN_71{
    stroke-dasharray:122 124;
    stroke-dashoffset:123;
    animation:rihvOgFN_draw123 300ms linear 0ms forwards;
  }
  .rihvOgFN_72{
    stroke-dasharray:129 131;
    stroke-dashoffset:130;
    animation:rihvOgFN_draw130 300ms linear 0ms forwards;
  }
  .rihvOgFN_73{
    stroke-dasharray:137 139;
    stroke-dashoffset:138;
    animation:rihvOgFN_draw138 300ms linear 0ms forwards;
  }
  .rihvOgFN_74{
    stroke-dasharray:144 146;
    stroke-dashoffset:145;
    animation:rihvOgFN_draw145 300ms linear 0ms forwards;
  }
  .rihvOgFN_75{
    stroke-dasharray:152 154;
    stroke-dashoffset:153;
    animation:rihvOgFN_draw153 300ms linear 0ms forwards;
  }
  .rihvOgFN_76{
    stroke-dasharray:159 161;
    stroke-dashoffset:160;
    animation:rihvOgFN_draw160 300ms linear 0ms forwards;
  }
  @keyframes rihvOgFN_fade{
    0%{
      stroke-opacity:1;
    }
    94.44444444444444%{
      stroke-opacity:1;
    }
    100%{
      stroke-opacity:0;
    }
  }

  </style></svg>
