<svg xmlns="http://www.w3.org/2000/svg" width="44.89" height="50" viewBox="0 0 44.89 50">
  <title>icon-green-bug-single</title>
  <g id="Layer_2" data-name="Layer 2">
    <g id="_1200" data-name="1200">
      <g id="Table">
        <g id="Repair_Recovery" data-name="Repair &amp; Recovery">
          <path d="M5,21.81s0-1.29,2-2.43c0,0,1.63-1.12,5.56-3.61,0,0,6.39-4.18,11.29-3.24,0,0,8.91.8,11.14,11l0,.12a5.78,5.78,0,0,1-1.17,11.44A5.85,5.85,0,0,1,32,34.83L32,34.6c-7,7.85-15.14,4.23-15.14,4.23-4.74-1.55-8.27-8.3-8.27-8.3-2.21-4.08-3.08-5.84-3.08-5.84C4.42,22.75,5,21.61,5,21.61" style="fill: #fff;stroke: #1fc469;stroke-linecap: round;stroke-linejoin: round"/>
          <path d="M44.39,27.07a5,5,0,0,0-5.06.53" style="fill: none;stroke: #1fc469;stroke-linecap: round;stroke-linejoin: round"/>
          <path d="M38.44,32.51s2.16,2.6,4.69,2.43" style="fill: none;stroke: #1fc469;stroke-linecap: round;stroke-linejoin: round"/>
          <polyline points="23.43 12.39 24.45 6.97 20 2.47 19.7 0.5" style="fill: none;stroke: #1fc469;stroke-linecap: round;stroke-linejoin: round"/>
          <path d="M28.62,38.06l4.94,6,1.12,4.65,1.38.76" style="fill: none;stroke: #1fc469;stroke-linecap: round;stroke-linejoin: round"/>
          <polyline points="19.7 39.48 17.86 45.57 10.57 47.31 10.05 49.5" style="fill: none;stroke: #1fc469;stroke-linecap: round;stroke-linejoin: round"/>
          <polyline points="12.92 36.22 8.29 39.9 1.97 38.04 0.5 38.45" style="fill: none;stroke: #1fc469;stroke-linecap: round;stroke-linejoin: round"/>
          <path d="M34.95,23.67s1.45,6.38-3,11.15" style="fill: none;stroke: #1fc469;stroke-linecap: round;stroke-linejoin: round"/>
          <path d="M13.07,20.2c2.7-1.78,6.35-3.83,9.91-3.34a10.78,10.78,0,0,1,8,5.75.34.34,0,0,1,.09.23" style="fill: none;stroke: #1fc469;stroke-linecap: round;stroke-linejoin: round"/>
          <polyline points="42.37 10.05 40.69 10.05 37.46 13.46 31.65 16.13" style="fill: none;stroke: #1fc469;stroke-linecap: round;stroke-linejoin: round"/>
          <path d="M5.78,23.38c3.86,1.23,8.1,2.41,12.69,3.42,3.55.79,6.94,1.4,10.14,1.87" style="fill: none;stroke: #1fc469;stroke-linecap: round;stroke-linejoin: round;stroke-dasharray: 2.2586264610290527,3.0115020275115967"/>
        </g>
      </g>
    </g>
  </g>
</svg>
