<svg xmlns="http://www.w3.org/2000/svg" width="51.28" height="32.04" viewBox="0 0 51.28 32.04">
  <title>icon-gplus</title>
  <g id="Layer_2" data-name="Layer 2">
    <g id="Home_-_1200" data-name="Home - 1200">
      <g id="Footer">
        <g id="_7TbLSB.tif" data-name="7TbLSB.tif">
          <g>
            <path d="M17.81,0c.94.2,1.9.35,2.83.6a14.77,14.77,0,0,1,6.57,3.69L22.84,8.42A9.53,9.53,0,0,0,15,6.06,9.76,9.76,0,0,0,9.17,9,10,10,0,0,0,7.58,21,10.24,10.24,0,0,0,19.11,25.8C22.43,25,25.3,22,25.4,19.24h-9V13.87H31.7a16.72,16.72,0,0,1-.36,7.23C29.54,27.91,23.82,32,16.29,32A16.14,16.14,0,0,1,0,16.76,16,16,0,0,1,13.94.2c.29,0,.57-.13.86-.2Z" style="fill: #373e5a"/>
            <path d="M51.28,18.24H46.63v4.55H42V18.28H37.36V13.75h4.52V9.25h4.7v4.38h4.69Z" style="fill: #373e5a"/>
          </g>
        </g>
      </g>
    </g>
  </g>
</svg>
