<svg id="icon-gears-small" xmlns="http://www.w3.org/2000/svg" viewBox="0 0 50 50"><path d="M49.7,15.83a.53.53,0,0,0,.19-.5l-.17-.85a.48.48,0,0,0-.35-.39L48,13.69l-.61-1.31L47.91,11a.5.5,0,0,0-.08-.51l-.55-.66a.52.52,0,0,0-.53-.16l-1.39.4-1-.73-.16-1.54a.52.52,0,0,0-.32-.41l-.79-.3a.51.51,0,0,0-.54.12l-1,1.07-1.34-.12L39.3,6.89a.51.51,0,0,0-.5-.21L38,6.84a.51.51,0,0,0-.39.37l-.36,1.48-1.2.6L34.7,8.68a.5.5,0,0,0-.55.08l-.62.57a.5.5,0,0,0-.15.5l.42,1.49-.68,1.06-1.45.15a.48.48,0,0,0-.42.34l-.2.58-1.52-1.59.28-3.33a.52.52,0,0,0-.24-.47l-1.44-.89a.52.52,0,0,0-.55,0L25,9.05l-3.06-.86-1.36-3a.51.51,0,0,0-.46-.3H18.42a.49.49,0,0,0-.45.3l-1.37,3-3.05.86L10.94,7.19a.52.52,0,0,0-.55,0l-1.45.89a.49.49,0,0,0-.23.47L9,11.86,6.91,14l-3.14-.28a.49.49,0,0,0-.48.25l-.85,1.51a.51.51,0,0,0,0,.52l1.78,2.76L3.41,22,.55,23.47a.49.49,0,0,0-.27.45v1.75a.5.5,0,0,0,.27.45l2.86,1.43.83,3.25L2.46,33.56a.49.49,0,0,0,0,.51l.85,1.52a.5.5,0,0,0,.48.25l3.14-.28L9,37.73l-.27,3.33a.49.49,0,0,0,.23.47l1.45.88a.48.48,0,0,0,.55,0l2.61-1.86,3.05.87,1.37,3a.48.48,0,0,0,.45.29h1.67a.5.5,0,0,0,.46-.29l1.36-3L25,40.53l2.61,1.86a.48.48,0,0,0,.55,0l1.44-.89a.49.49,0,0,0,.24-.46l-.28-3.33,2.07-2.17,3.15.28a.52.52,0,0,0,.48-.25l.84-1.52a.49.49,0,0,0,0-.51L34.27,30.8l.84-3.25,2.35-1.18,0,0a.52.52,0,0,0,.54-.12l1-1.07,1.34.12.88,1.24a.48.48,0,0,0,.41.21h.09l.82-.15a.52.52,0,0,0,.39-.38l.36-1.47,1.2-.6,1.33.61a.5.5,0,0,0,.55-.09l.62-.56a.52.52,0,0,0,.15-.51l-.42-1.49.68-1.05,1.44-.15a.5.5,0,0,0,.43-.34l.27-.81a.5.5,0,0,0-.11-.51l-1.05-1.1.09-1.44ZM37.24,25.36l-.35.18-.45.22-2,1a.55.55,0,0,0-.27.33l-.94,3.68a.51.51,0,0,0,.06.4l1.74,2.69-.54,1-3.06-.28a.53.53,0,0,0-.41.15L28.66,37.2a.52.52,0,0,0-.14.39l.26,3.24-.89.56-2.54-1.81a.45.45,0,0,0-.42-.07l-3.51,1a.48.48,0,0,0-.32.27l-1.33,2.92h-1l-1.32-2.92a.51.51,0,0,0-.32-.27l-3.51-1a.48.48,0,0,0-.43.07l-2.53,1.81-.9-.56L10,37.59a.52.52,0,0,0-.14-.39L7.47,34.69a.53.53,0,0,0-.41-.15L4,34.82l-.54-1L5.2,31.16a.51.51,0,0,0,.07-.4l-.95-3.68a.54.54,0,0,0-.26-.33L1.28,25.36V24.22l2.78-1.39a.49.49,0,0,0,.26-.32l.95-3.69a.5.5,0,0,0-.07-.39L3.46,15.74l.54-1,3.06.28a.57.57,0,0,0,.41-.16l2.39-2.51A.49.49,0,0,0,10,12L9.73,8.75l.9-.55L13.16,10a.55.55,0,0,0,.43.07l3.51-1a.5.5,0,0,0,.32-.28l1.32-2.92h1L21.1,8.81a.47.47,0,0,0,.32.28l3.51,1a.52.52,0,0,0,.42-.07L27.89,8.2l.89.55L28.52,12a.49.49,0,0,0,.14.38L31,14.89a.57.57,0,0,0,.41.16l.43,0,.64-.06.59,0,1.4-.13.54,1-1.74,2.69a.49.49,0,0,0-.06.39l0,.12L34,21.82l.17.69a.54.54,0,0,0,.07.13.46.46,0,0,0,.2.19l.34.17,1.92,1,.52.25Zm10.32-6.67,1,1-.08.22-1.35.13a.53.53,0,0,0-.38.23l-.93,1.45a.48.48,0,0,0-.06.4l.39,1.41-.15.14-1.25-.57a.52.52,0,0,0-.44,0L42.69,24a.47.47,0,0,0-.26.32l-.34,1.4-.18,0-.83-1.17a.5.5,0,0,0-.36-.21l-1.81-.15h0a.48.48,0,0,0-.36.16l-.27.28v-.7a.5.5,0,0,0-.28-.45L35.11,22l-.84-3.25L35.44,17c0,.22,0,.44.06.66a5.19,5.19,0,0,0,2.07,3.26,4.76,4.76,0,0,0,2.78.91,4.41,4.41,0,0,0,.89-.09,5,5,0,0,0,3.83-5.91A5.14,5.14,0,0,0,43,12.55a4.7,4.7,0,0,0-3.67-.82,4.81,4.81,0,0,0-3.61,3.17l-.5-.9a.5.5,0,0,0-.48-.25L32.27,14,32,13.71l.08-.22,1.36-.14a.52.52,0,0,0,.37-.22l.93-1.45a.49.49,0,0,0,.06-.41l-.39-1.41.15-.13,1.25.57a.49.49,0,0,0,.44,0l1.62-.81a.46.46,0,0,0,.26-.33l.34-1.39.18,0L39.5,8.9a.5.5,0,0,0,.36.21l1.81.15a.5.5,0,0,0,.4-.15l1-1,.19.07.15,1.46a.5.5,0,0,0,.21.35L45,11a.54.54,0,0,0,.43.07l1.31-.37.15.18-.54,1.33a.47.47,0,0,0,0,.4l.8,1.71a.51.51,0,0,0,.32.27L48.8,15l.05.25-1.11.84a.51.51,0,0,0-.2.37l-.12,1.89A.55.55,0,0,0,47.56,18.69Zm-8-6a3.23,3.23,0,0,1,.69-.07,3.83,3.83,0,0,1,2.21.72A4.17,4.17,0,0,1,44.09,16a4,4,0,0,1-3,4.74,3.74,3.74,0,0,1-2.9-.66,4.12,4.12,0,0,1-1.66-2.63A4,4,0,0,1,39.53,12.71ZM27.31,20a9.23,9.23,0,0,0-8-4.9A9.54,9.54,0,0,0,10,24.79a9.53,9.53,0,0,0,9.3,9.73,9.53,9.53,0,0,0,9.29-9.73,10,10,0,0,0-1.18-4.73ZM12.05,29.1A9,9,0,0,1,11,24.79a8.53,8.53,0,0,1,8.3-8.73,8,8,0,0,1,5.47,2.19,8.9,8.9,0,0,0-3.57-.76,9.53,9.53,0,0,0-9.29,9.73A10.6,10.6,0,0,0,12.05,29.1Zm7.21,4.42a8,8,0,0,1-5.51-2.22.45.45,0,0,0,0-.23L13.66,31a9.11,9.11,0,0,1-.79-3.73,8.53,8.53,0,0,1,8.29-8.73,8,8,0,0,1,5.34,2.06h0a9.1,9.1,0,0,1,1,4.23A8.52,8.52,0,0,1,19.26,33.52Z"/></svg>