<svg xmlns="http://www.w3.org/2000/svg" width="36" height="36" viewBox="0 0 36 36">
  <title>icon-blue-earth</title>
  <g id="Layer_2" data-name="Layer 2">
    <g id="Benefits_-_1200" data-name="Benefits - 1200">
      <g id="More_Benefits" data-name="More Benefits">
        <path d="M18,0A18,18,0,1,0,36,18,18,18,0,0,0,18,0Zm0,35A17,17,0,1,1,35,18,17,17,0,0,1,18,35Zm2.51-13.55a14.11,14.11,0,0,1-1.13-1.08A3.49,3.49,0,0,0,16.2,19a4.1,4.1,0,0,0-3.26,1c-.6.72-.75,1.83-.46,3.4a3.69,3.69,0,0,0,1.61,2.78c.42.3.63.46.57,1.42-.16,2.42.38,3.21.78,3.78l.12.18c.45.7,1,1.4,1.64,1.4l.18,0c.71-.14.95-1,1.06-1.67a10,10,0,0,1,2.09-4.81C21.23,25.6,22.88,23.47,20.51,21.45Zm-.77,4.45a11.06,11.06,0,0,0-2.28,5.25,3.23,3.23,0,0,1-.25.86c-.07,0-.3-.15-.8-.93l-.14-.21c-.35-.51-.74-1.08-.6-3.15a2.14,2.14,0,0,0-1-2.29,2.74,2.74,0,0,1-1.21-2.15,3.19,3.19,0,0,1,.25-2.58c.39-.46,1.13-.66,2.49-.66a2.54,2.54,0,0,1,2.47,1,15.4,15.4,0,0,0,1.2,1.15C21.24,23.38,20.86,24.45,19.74,25.9Zm9.5-4.33a1.62,1.62,0,0,0-1.79-.31,1.46,1.46,0,0,0-.71,1.13,1.65,1.65,0,0,0,.55,1.37,2.59,2.59,0,0,0,1.54.72A1.17,1.17,0,0,0,30,23.53,1.83,1.83,0,0,0,29.24,21.57ZM29,23.24c0,.06-.07.21-.15.24A1.45,1.45,0,0,1,28,23a.65.65,0,0,1-.22-.53.46.46,0,0,1,.23-.36H28a1.08,1.08,0,0,1,.61.27A.88.88,0,0,1,29,23.24Zm5.14-6.75c0-.12,0-.23,0-.35V16c0-.34-.09-.68-.16-1,0-.17-.06-.34-.1-.51-.07-.33-.16-.66-.25-1l0-.16-.08-.28q-.21-.65-.47-1.28l-.16-.36-.07-.16c-.11-.25-.23-.5-.35-.74s-.23-.42-.35-.63l-.33-.55c-.14-.22-.29-.45-.44-.67L31,8.33A16.46,16.46,0,0,0,28.88,6l-.11-.1c-.28-.25-.57-.49-.91-.75a16.27,16.27,0,0,0-4.26-2.34A.5.5,0,0,0,23,3l-.28.45a4.22,4.22,0,0,1-1,1.3,1.68,1.68,0,0,0-.65,1.94,1.46,1.46,0,0,0,1,1,4.48,4.48,0,0,0,.19,1.71A2.51,2.51,0,0,0,23.42,11c.65.32,1.51.22,2.86-.34.44-.18.71-.16.79-.11s.08.14.05.36a3.49,3.49,0,0,1-.5,1.41c-.45.83-.92,1.69-.08,4A7.3,7.3,0,0,0,28.41,19a5.78,5.78,0,0,1,1.27,1.65c.34.8,1.41,1.61,3.18,2.4a.5.5,0,0,0,.21,0,.49.49,0,0,0,.21,0,.5.5,0,0,0,.27-.31c.13-.42.24-.86.33-1.3,0-.12.05-.25.07-.38l0-.13c.06-.33.11-.66.15-1l-.5-.06.51,0c0-.13,0-.26,0-.39,0-.49.07-1,.07-1.48S34.23,17,34.17,16.49Zm-1,2.89c0,.12,0,.24,0,.36v.08h0c0,.31-.09.62-.14.93l0,.13c0,.11,0,.23-.07.34s-.1.44-.16.66a4.67,4.67,0,0,1-2.14-1.64,6.61,6.61,0,0,0-1.47-1.95A6.41,6.41,0,0,1,27.49,16c-.68-1.9-.37-2.47,0-3.19a4.43,4.43,0,0,0,.61-1.78,1.21,1.21,0,0,0-1.24-1.5,2.62,2.62,0,0,0-1,.22c-1,.42-1.69.54-2,.37s-.45-.47-.62-1.08a2.64,2.64,0,0,1-.13-1.54h0a.5.5,0,0,0,.1-.57.49.49,0,0,0-.51-.28c-.37,0-.58-.07-.66-.33a.7.7,0,0,1,.2-.76,4.55,4.55,0,0,0,1.34-1.65l.05-.08a15.41,15.41,0,0,1,3.65,2.08c.28.21.55.44.82.68l.14.12a15.32,15.32,0,0,1,2,2.2l.25.33c.14.2.28.42.41.63l.31.51c.11.19.22.39.33.59s.23.46.33.69l.08.17.15.32c.16.39.31.8.44,1.2l.07.24,0,.18c.09.31.17.61.24.93,0,.16.07.32.1.48.06.32.11.63.15,1l0,.13c0,.1,0,.21,0,.31,0,.53.07,1,.07,1.42S33.22,18.93,33.18,19.39ZM20.19,11C20,9.64,19.36,8.75,17,8.75a2.11,2.11,0,0,0-2,1.41l-.13.24a2.44,2.44,0,0,1-.45-.37A3.35,3.35,0,0,1,14,9.53c.15,0,.38-.07.54-.09a3.86,3.86,0,0,0,1-.23,2.23,2.23,0,0,0,1.34-2.08c0-.26-.26-.88-1.28-1A2.68,2.68,0,0,0,14,6.44c-.22.1-.3.14-.73,0a1.9,1.9,0,0,0-2.09.83,3.4,3.4,0,0,1-.43.42A9.92,9.92,0,0,1,8.23,5.62a.5.5,0,0,0-.69,0A16.37,16.37,0,0,0,3.16,11.4a.5.5,0,0,0,0,.25,8,8,0,0,0,1.95,4.73c.24.44,1.46,2.28,5.94,4.42a.49.49,0,0,0,.19,0h.06a.83.83,0,0,0,.78-.44c.23-.51-.21-1-.62-1.45s-1.47-1.47-1.39-2c0,0,0-.19.34-.35.81-.42,1-.42,1.06-.39s.14.08.3.73C12,18,12.66,18,12.86,18c.69-.05,1.28-.85,1.37-1.85s1.69-2.09,3.2-2.76l.77-.31C19.28,12.64,20.38,12.21,20.19,11Zm-2.35,1.15-.81.33c-1.35.59-3.66,2-3.8,3.59a1.46,1.46,0,0,1-.41.95.63.63,0,0,1-.14-.32,1.9,1.9,0,0,0-.86-1.4c-.56-.25-1.24.05-1.94.42A1.47,1.47,0,0,0,9,16.78c-.14.88.61,1.8,1.41,2.62-3.75-2-4.5-3.5-4.51-3.51a.5.5,0,0,0-.11-.16,6.9,6.9,0,0,1-1.7-4,15.39,15.39,0,0,1,3.7-5,10,10,0,0,0,2.62,2c.65.24,1.12-.28,1.5-.68s.69-.69,1-.58a1.65,1.65,0,0,0,1.5,0,1.74,1.74,0,0,1,1-.17c.17,0,.36.06.37.13,0,.25-.35.81-.75,1a3.33,3.33,0,0,1-.75.15c-.61.08-1.25.17-1.43.72s.29,1.11.78,1.59a1.73,1.73,0,0,0,1.34.67c.46-.08.65-.47.83-.82s.43-.86,1.14-.86c2,0,2.07.67,2.19,1.38C19.26,11.51,18.95,11.69,17.84,12.13Z" style="fill: #03a9f4"/>
      </g>
    </g>
  </g>
</svg>
