<svg id="icon-global-small" xmlns="http://www.w3.org/2000/svg" viewBox="0 0 50 50"><path d="M24.88,1.72A23.28,23.28,0,1,0,48.15,25,23.31,23.31,0,0,0,24.88,1.72Zm0,1A22.32,22.32,0,0,1,47.13,23.9.71.71,0,0,0,47,24a7.89,7.89,0,0,0-1,1.56q-.49.59-1,1.17l-.06.1c-.25.54-.52,1.08-.76,1.55a1.15,1.15,0,0,1-.87.41.67.67,0,0,1-.59-.32,2.34,2.34,0,0,1-.3-.9l-.6-2.85a8.29,8.29,0,0,1-.26-2.51l.1-.89c.1-.87.19-1.7.23-2.59V18.6c0-.68,0-.84.48-1.22l0,0a1.48,1.48,0,0,0,.28.35.5.5,0,0,0,.82-.44c0-.38-.06-.77-.07-1.18a8.15,8.15,0,0,0-.66-3.44,1.54,1.54,0,0,0-.86-.83,1.11,1.11,0,0,0-.89.12.91.91,0,0,0-.41.65,1.55,1.55,0,0,0,.27.95l-.2,0a.49.49,0,0,0-.45.35.48.48,0,0,0,.17.54l.09.07c-.35,0-.86-.06-1.05.41a.85.85,0,0,0,0,.55l.44,1.91a3.47,3.47,0,0,1,.14,1.13.82.82,0,0,1-.39.65.45.45,0,0,1-.44-.11.43.43,0,0,1-.17-.42,1.18,1.18,0,0,1,.24-.41l.1-.15A1.6,1.6,0,0,0,39.74,17c-.19-1.12-1.68-1.13-2.88-1.15a4.83,4.83,0,0,1-1-.06,1.28,1.28,0,0,1-.8-1.1s0-.06,0-.07a.47.47,0,0,1,.26,0s1.81.44,2.2-.29c.1-.19.18-.57-.39-1a1.47,1.47,0,0,0-.61-.24,1.18,1.18,0,0,0,.19-.11,1.23,1.23,0,0,0,.5-1,1.53,1.53,0,0,0-.63-1.24,2,2,0,0,0-2-.15.49.49,0,0,0-.21.72,3.4,3.4,0,0,0,.21.3c.11.14.44.57.32.74a1.44,1.44,0,0,1-.84-.23A19.69,19.69,0,0,1,30.6,9.51l-.07-.07.14-.11a1.54,1.54,0,0,0,.5-.63,1.22,1.22,0,0,0-.82-1.48,3.31,3.31,0,0,0-.64-.14,3.34,3.34,0,0,1-.43-.1,2.12,2.12,0,0,1-.42-.22l-.21-.12a5.61,5.61,0,0,0-4.09-.27l-.46.09a6.64,6.64,0,0,1-2.45-.08c-.45-.07-.91-.15-1.44-.19a5.18,5.18,0,0,0-2.63.67,8.07,8.07,0,0,1-1.22.51,2.22,2.22,0,0,1-.88,0,2.08,2.08,0,0,0-1.65.17,8.61,8.61,0,0,0-1,.76,4,4,0,0,0-.29.29,1.73,1.73,0,0,1-.36.32.24.24,0,0,1-.18,0,.74.74,0,0,1-.19-.2,1.55,1.55,0,0,0-.19-.24c-.21-.22-.44-.42-.74-.68l-.06,0A22.21,22.21,0,0,1,24.88,2.72Zm16.8,11.69a.7.7,0,0,0,.3-.29,1,1,0,0,0-.14-1l-.17-.32s.16.09.29.34a7.64,7.64,0,0,1,.54,3v.12a1.16,1.16,0,0,0-.65.25,2.06,2.06,0,0,0-.82,1.2c0-.19-.07-.37-.11-.54l-.38-1.64a1.09,1.09,0,0,0,1.1-.22A1,1,0,0,0,41.68,14.41Zm-6-3a.7.7,0,0,1,.29.13.54.54,0,0,1,.21.43.25.25,0,0,1-.08.21l-.13.07A1.8,1.8,0,0,0,35.66,11.4ZM21.72,46.18a2.13,2.13,0,0,1,.57-.38c.52-.28,1.23-.66,1.16-1.44,0-.35-.24-1-1.38-1.19l-.56-.1a5.42,5.42,0,0,1-2.08-.66,1.72,1.72,0,0,1-.72-1.12.84.84,0,0,1,.16-.69,3.69,3.69,0,0,1,.54-.46c.48-.36,1.14-.84.95-1.66a1.29,1.29,0,0,0-.36-.61,5.28,5.28,0,0,0,2.2-1.08,1.55,1.55,0,0,1,.56-.32,1.47,1.47,0,0,1,.63.07l.1,0a16,16,0,0,0,3.09.29c1.77,0,3.43.09,4.65,1.11l.18.16a3.21,3.21,0,0,0,.76.54,2.63,2.63,0,0,0,2.24-.23l.29-.13A3.12,3.12,0,0,1,36,37.87h0a.9.9,0,0,1,.64.28.34.34,0,0,1,.1.27,1.17,1.17,0,0,1-.22.43c-3.32,4.74-9.64,6.47-14.09,7.36A1,1,0,0,1,21.72,46.18Zm3.16,1.1c-.74,0-1.46,0-2.18-.11,4.62-.93,11.12-2.74,14.63-7.75a2,2,0,0,0,.39-.86,1.35,1.35,0,0,0-.34-1.07,1.89,1.89,0,0,0-1.4-.62,4,4,0,0,0-1.72.53l-.27.13a1.75,1.75,0,0,1-1.41.21,2.25,2.25,0,0,1-.51-.37l-.2-.18c-1.48-1.24-3.4-1.29-5.26-1.34a15.29,15.29,0,0,1-3-.29,2.43,2.43,0,0,0-1.05-.07,2.52,2.52,0,0,0-1,.52,3.71,3.71,0,0,1-2.07.9h0c-.6,0-1.29-.42-1.32-1v-.13a1.84,1.84,0,0,0-.05-.5,1.47,1.47,0,0,0-1.22-.94l-.15,0a1.3,1.3,0,0,1-.6-.22.11.11,0,0,1,0-.06.49.49,0,0,0,.3-.56.5.5,0,0,0-.56-.4l-.1,0c-1.46.32-2.36.21-2.77-.36a1.13,1.13,0,0,1-.14-.92,2,2,0,0,1,1-1.24A5.39,5.39,0,0,1,17,30.38a1,1,0,0,1,.61.19,1.2,1.2,0,0,1,.22.41c0,.11.08.21.13.32a1.18,1.18,0,0,0,1.39.73c.7-.25.69-1,.68-1.47v-.22a2.84,2.84,0,0,1,.91-1.61l2.61-2.95a1.51,1.51,0,0,1,.69-.53,2.61,2.61,0,0,1,.28,0,1.38,1.38,0,0,0,.93-.19,1.43,1.43,0,0,0,.4-1.49c0-.17-.07-.52,0-.57s.12-.07.66.26a1.71,1.71,0,0,0,1.3.26,1,1,0,0,0,.59-.49.92.92,0,0,0,0-.88,1.43,1.43,0,0,0-.74-.57A1.39,1.39,0,0,0,27,20.37a3.24,3.24,0,0,0-.63-.34,1.78,1.78,0,0,1-.52-.3,1.38,1.38,0,0,1-.22-.32,2.08,2.08,0,0,0-.59-.69,1.94,1.94,0,0,0-1.4-.16,1.37,1.37,0,0,1-.7,0,2.24,2.24,0,0,1-.36-.21c-.3-.19-.87-.56-1.34-.29,0,0,0,0,0-.08a4.08,4.08,0,0,1-.11-1.87.49.49,0,0,0-.12-.43.53.53,0,0,0-.42-.16c-2.15.21-4.84-.53-5.66-2.63a3.9,3.9,0,0,1-.17-.48,3.79,3.79,0,0,0-.57-1.25,2.42,2.42,0,0,0-1.57-.9,1.5,1.5,0,0,0-1.16.33l-.12.11-.07.06-.2.18a2,2,0,0,1-.63.25,3,3,0,0,0-.79.31,3,3,0,0,0-.84.82,3.81,3.81,0,0,1-.37.43,1.36,1.36,0,0,1-1.06.19.54.54,0,0,0-.57.35c-.18.55.76,1.2.78,1.2a1.55,1.55,0,0,0,.83.13,2.37,2.37,0,0,1,.41,0,1.5,1.5,0,0,1,1,1A4.3,4.3,0,0,1,9.12,19c-.26.38-.54.75-.82,1.12a18,18,0,0,0-1.07,1.53,8.62,8.62,0,0,0,.15,8.81.5.5,0,0,0,.56.21.49.49,0,0,0,.36-.48,6.32,6.32,0,0,1,.06-.74c.1.32.19.66.27,1a7.05,7.05,0,0,0,1,2.58,7,7,0,0,0,2.46,1.8l6.74,3.49c.16.08.48.25.51.41s-.14.31-.57.63a3.53,3.53,0,0,0-.71.63,1.84,1.84,0,0,0-.38,1.46,2.74,2.74,0,0,0,1.15,1.81,6.16,6.16,0,0,0,2.46.81l.54.1c.39.08.58.22.59.29s-.4.35-.64.48c-.52.28-1.31.7-1.05,1.55a.94.94,0,0,0,.35.48A22.26,22.26,0,0,1,10,8.4l0,0,.22.18a6.1,6.1,0,0,1,.59.55,1,1,0,0,1,.12.15,1.55,1.55,0,0,0,.58.51,1.18,1.18,0,0,0,1.09-.09,2.41,2.41,0,0,0,.58-.49A2.34,2.34,0,0,1,13.48,9a6.86,6.86,0,0,1,.9-.68c.22-.15.48-.12.92,0a2.86,2.86,0,0,0,1.34,0A9.55,9.55,0,0,0,18,7.77a4,4,0,0,1,2.13-.58c.5,0,.93.11,1.35.18a7.55,7.55,0,0,0,2.79.07l.47-.09a4.68,4.68,0,0,1,3.41.16l.18.1a2.81,2.81,0,0,0,.6.31,2.65,2.65,0,0,0,.62.14,3.13,3.13,0,0,1,.44.1.47.47,0,0,1,.23.19c0,.05-.13.15-.21.21a1.14,1.14,0,0,0-.52,1,1.15,1.15,0,0,0,.41.7A20.84,20.84,0,0,0,33.53,13a2.29,2.29,0,0,0,1.62.33l.09,0a.85.85,0,0,0,.17.39,1.14,1.14,0,0,0-1.29.51,1.13,1.13,0,0,0-.1.59,2.28,2.28,0,0,0,1.46,2,4.35,4.35,0,0,0,1.37.12c.51,0,1.85,0,1.9.32,0,0,0,.16-.16.4l-.09.13a2.34,2.34,0,0,0-.38.72,1.41,1.41,0,0,0,.47,1.44,1.43,1.43,0,0,0,1.5.28,1.67,1.67,0,0,0,.84-.89c0,.65-.12,1.29-.2,2l-.1.89a9.36,9.36,0,0,0,.28,2.83l.6,2.84A3.53,3.53,0,0,0,42,29a1.69,1.69,0,0,0,1.4.76h0a2.11,2.11,0,0,0,1.69-.88c.28-.53.55-1.06.8-1.6.31-.38.62-.77.94-1.15l.06-.09.25-.47A22.3,22.3,0,0,1,24.88,47.28ZM10.76,15.34A2.47,2.47,0,0,0,9.2,13.71a1.11,1.11,0,0,0-.26-.07,1.66,1.66,0,0,0,.21-.16,6.19,6.19,0,0,0,.47-.55,2.17,2.17,0,0,1,.56-.57,2.34,2.34,0,0,1,.55-.21,2.81,2.81,0,0,0,1-.41L12,11.5l.06-.06.09-.08a.51.51,0,0,1,.41-.11,1.44,1.44,0,0,1,.89.52,3.11,3.11,0,0,1,.41.94c.06.19.11.37.18.55.94,2.37,3.71,3.33,6.09,3.29a4.81,4.81,0,0,0,0,.76,2.71,2.71,0,0,0-1.72.07,2,2,0,0,0-1.09,1.31A1.48,1.48,0,0,0,17.56,20a2.31,2.31,0,0,0,1,.65l.32.16a1.93,1.93,0,0,1,1,1.43.48.48,0,0,0,.35.41.49.49,0,0,0,.52-.15,4.76,4.76,0,0,0,1.11-3.45v0l.25.15a3.76,3.76,0,0,0,.5.29,2.31,2.31,0,0,0,1.24.07,1.17,1.17,0,0,1,.71,0,1.12,1.12,0,0,1,.28.36,2.28,2.28,0,0,0,.36.51A2.44,2.44,0,0,0,26,21a2,2,0,0,1,.44.23c.11.07.18.25.21.25a.5.5,0,0,0-.35.54l0,.11a1.17,1.17,0,0,0-1.15.13,1.51,1.51,0,0,0-.36,1.49,1.41,1.41,0,0,1,0,.54.7.7,0,0,1-.3,0,3.65,3.65,0,0,0-.47,0,2.21,2.21,0,0,0-1.29.86l-2.62,2.94A3.76,3.76,0,0,0,19,30.32v.26c0,.16,0,.45,0,.5a.49.49,0,0,1-.19-.21,1.86,1.86,0,0,1-.1-.25,2,2,0,0,0-.46-.78,2,2,0,0,0-1.17-.45,6.29,6.29,0,0,0-3.72.31,3,3,0,0,0-1.5,1.89,2.11,2.11,0,0,0,.3,1.74,3,3,0,0,0,3,.91,1.15,1.15,0,0,0,.28.56,2.13,2.13,0,0,0,1.11.5l.14,0c.32.07.46.18.48.25a1.22,1.22,0,0,1,0,.21,1.09,1.09,0,0,0,0,.18,1.34,1.34,0,0,0,0,.35l-4.63-2.4a6.18,6.18,0,0,1-2.12-1.51,6.23,6.23,0,0,1-.87-2.23,7.45,7.45,0,0,0-.95-2.48.52.52,0,0,0-.41-.21H8.18a.51.51,0,0,0-.41.31,6.2,6.2,0,0,0-.23.69,7.59,7.59,0,0,1,.55-6.36,16.36,16.36,0,0,1,1-1.44c.29-.38.59-.77.85-1.18A5.16,5.16,0,0,0,10.76,15.34Zm10.08,3.83a3.76,3.76,0,0,1-.36,1.9,3,3,0,0,0-1.15-1.13l-.39-.18a1.54,1.54,0,0,1-.6-.36.51.51,0,0,1-.07-.47,1,1,0,0,1,.51-.63,1.39,1.39,0,0,1,.53-.1,2.75,2.75,0,0,1,1.23.36.45.45,0,0,0,.32.06A1.48,1.48,0,0,0,20.84,19.17Zm3.94-8.56a2,2,0,0,0-1.42.74,2.87,2.87,0,0,0-.33.5,2.34,2.34,0,0,1-.15.27.6.6,0,0,1-.2.14l-.31.2a.8.8,0,0,0-.2.28.62.62,0,0,0,.35.76l.32.14.25.11.18.12h0l.3.29.33.34c.13.12.25.25.37.37a6.62,6.62,0,0,1,1.09,1.42,2.64,2.64,0,0,1,.18.56,2,2,0,0,0,1,1.49,1.58,1.58,0,0,0,.63.11,1.47,1.47,0,0,0,1.23-.51,1,1,0,0,0,0-1.05,1.34,1.34,0,0,1-.07-.18c-.1-.42,0-.61.36-1a3.14,3.14,0,0,0,.6-1,1.93,1.93,0,0,0-.47-1.84A6.19,6.19,0,0,0,24.78,10.61Zm3.57,3.77a2.25,2.25,0,0,1-.43.7,2,2,0,0,0-.55,1.86,2.23,2.23,0,0,0,.14.38s0,.06,0,.05a1.17,1.17,0,0,1-.64.05c-.21-.09-.29-.37-.41-.82a3.8,3.8,0,0,0-.27-.78A7.59,7.59,0,0,0,25,14.18l-.39-.39-.33-.33a4.17,4.17,0,0,0-.37-.36,1.81,1.81,0,0,0-.36-.23.86.86,0,0,0,.14-.18,3.13,3.13,0,0,0,.22-.36,2.08,2.08,0,0,1,.21-.33,1.08,1.08,0,0,1,.73-.4A5.43,5.43,0,0,1,28,13.46,1.11,1.11,0,0,1,28.35,14.38Z"/></svg>