<svg xmlns="http://www.w3.org/2000/svg" viewBox="0 0 442 368">
    <g opacity="0.1">
        <path class="bright-blue" d="M248.85,359a3.09,3.09,0,1,1,3.09,3.09A2.92,2.92,0,0,1,248.85,359Z" />
        <path class="bright-blue" d="M250.52,204.93a3.09,3.09,0,1,1,3.09,3.09A2.92,2.92,0,0,1,250.52,204.93Z" />
        <path class="bright-blue" d="M434.58,150.52a3.09,3.09,0,1,1,3.09,3.09A2.92,2.92,0,0,1,434.58,150.52Z" />
        <path class="light-blue-stroke" d="M232.82,366.82q-.52-10.68-.52-21.76V193.3a14.39,14.39,0,0,1,13.46-14.69c67.72-4.9,131.77-25.29,184.8-58.75a14.28,14.28,0,0,1,8.51-2.11" />
        <path class="light-blue-stroke" d="M436.2,168.64a11.34,11.34,0,0,0-6.09,1.72c-42.51,26.82-93.85,43.17-148.14,47.09a11.54,11.54,0,0,0-10.79,11.77V350.87q0,8.11.34,15.95" />
        <path class="light-blue-stroke" d="M437.51,178.84a10.77,10.77,0,0,0-5.79,1.63c-40.39,25.48-89.16,41-140.74,44.74a11,11,0,0,0-10.25,11.18V352q0,7.9.34,15.53" />
    </g>
    <path id="Enhance" class="light-blue-grey" d="M345.53,302.52h-6.47l-.47,2.29h5.86l-.51,2.54h-5.86l-.47,2.33h6.66l-.51,2.55h-9.84L336.37,300H346Zm10.25,1a3,3,0,0,1,.87,2.23,4.33,4.33,0,0,1-.09.91l-1.12,5.59h-3.11l1-5.14a2.24,2.24,0,0,0,.05-.46,1.32,1.32,0,0,0-.37-1,1.39,1.39,0,0,0-1-.36,2,2,0,0,0-1.41.59,2.86,2.86,0,0,0-.81,1.54l-1,4.81h-3.11l1.87-9.46h3.11l-.24,1.26a3.63,3.63,0,0,1,2.94-1.38A3.25,3.25,0,0,1,355.77,303.49Zm11.93,0a3,3,0,0,1,.88,2.25,5,5,0,0,1-.09.87l-1.14,5.59h-3.09l1-5.14a2.18,2.18,0,0,0,.05-.46,1.32,1.32,0,0,0-.37-1,1.39,1.39,0,0,0-1-.36,2,2,0,0,0-1.41.59,2.76,2.76,0,0,0-.79,1.54l-1,4.81h-3.11l2.55-13h3.13l-.94,4.77a3.58,3.58,0,0,1,2.92-1.38A3.25,3.25,0,0,1,367.71,303.5Zm3.7,8.32a3.52,3.52,0,0,1-1.3-1.47,4.87,4.87,0,0,1-.46-2.17,6,6,0,0,1,.66-2.8,5.14,5.14,0,0,1,1.8-2,4.58,4.58,0,0,1,2.53-.73,3,3,0,0,1,2.94,1.68l.31-1.57H381l-1.87,9.46H376l.23-1.12a4,4,0,0,1-2.9,1.24A3.51,3.51,0,0,1,371.4,311.82Zm4.32-2.24a2.57,2.57,0,0,0,.88-1,3,3,0,0,0,.32-1.38,2,2,0,0,0-.48-1.42,1.65,1.65,0,0,0-1.29-.53,2.09,2.09,0,0,0-1.2.38,2.68,2.68,0,0,0-.87,1,2.94,2.94,0,0,0-.32,1.36,2.05,2.05,0,0,0,.48,1.43,1.62,1.62,0,0,0,1.27.53A2.16,2.16,0,0,0,375.72,309.58Zm15.81-6.09a3,3,0,0,1,.87,2.23,4.27,4.27,0,0,1-.09.91l-1.12,5.59h-3.11l1-5.14a2.18,2.18,0,0,0,.05-.46,1.32,1.32,0,0,0-.37-1,1.39,1.39,0,0,0-1-.36,2,2,0,0,0-1.41.59,2.85,2.85,0,0,0-.81,1.54l-1,4.81h-3.11l1.87-9.46h3.11l-.25,1.26a3.63,3.63,0,0,1,2.94-1.38A3.25,3.25,0,0,1,391.53,303.49Zm4.06,8.3a3.73,3.73,0,0,1-1.54-1.51,4.58,4.58,0,0,1-.54-2.26,5.54,5.54,0,0,1,.69-2.79,4.91,4.91,0,0,1,1.91-1.9,5.64,5.64,0,0,1,2.8-.68,4.93,4.93,0,0,1,2.46.59,3.66,3.66,0,0,1,1.55,1.65l-2.38,1.31a1.83,1.83,0,0,0-.71-.72,2.06,2.06,0,0,0-1-.25,1.93,1.93,0,0,0-1.54.72,2.75,2.75,0,0,0-.61,1.85,2.19,2.19,0,0,0,.46,1.46,1.53,1.53,0,0,0,1.23.55,2.16,2.16,0,0,0,2-1.07l2.15,1.33a4.42,4.42,0,0,1-1.84,1.67,5.94,5.94,0,0,1-2.69.59A4.86,4.86,0,0,1,395.58,311.8Zm15.57-8.59a3.78,3.78,0,0,1,1.6,1.48,4.32,4.32,0,0,1,.56,2.23,7,7,0,0,1-.17,1.42h-6.71a1.79,1.79,0,0,0,.61,1.24,2.14,2.14,0,0,0,1.42.44,3.44,3.44,0,0,0,2.17-.79l1.56,1.7a5.5,5.5,0,0,1-3.85,1.43,6.11,6.11,0,0,1-2.62-.52,4,4,0,0,1-1.73-1.5,4.2,4.2,0,0,1-.61-2.27,5.48,5.48,0,0,1,.69-2.74,5,5,0,0,1,1.92-1.92,5.42,5.42,0,0,1,2.74-.7A5.35,5.35,0,0,1,411.15,303.2Zm-.78,3.13a1.41,1.41,0,0,0-.4-1.06,1.48,1.48,0,0,0-1.08-.39,2,2,0,0,0-1.33.49,3.1,3.1,0,0,0-.91,1.29h3.71A2.23,2.23,0,0,0,410.37,306.33Z" />
    <g id="opac-25" opacity="0.25">
        <path class="light-blue-stroke" d="M346.75,16l-9.21,320.59L83.26,335q-.12-4.37-.17-8.79t0-8.9q0-4.47.11-9t.26-9.11l6.82-188.58a19.59,19.59,0,0,1,1.48-6.81,19.17,19.17,0,0,1,3.63-5.68,18.09,18.09,0,0,1,5.35-4,17.34,17.34,0,0,1,6.63-1.72,533,533,0,0,0,61.49-8.27,520.61,520.61,0,0,0,59.43-15.22A498.85,498.85,0,0,0,284.71,47a469.56,469.56,0,0,0,52.53-28.32,16.94,16.94,0,0,1,2.21-1.17,17.67,17.67,0,0,1,2.35-.84,18.43,18.43,0,0,1,2.45-.51A19.05,19.05,0,0,1,346.75,16Z" />
        <path class="light-blue-stroke" d="M65,324.61,83.26,335q-.12-4.37-.17-8.79t0-8.9q0-4.47.11-9t.26-9.11L65.15,288.32q-.17,4.64-.27,9.23t-.12,9.12q0,4.54,0,9T65,324.61Z" />
        <line class="light-blue-stroke" x1="64.76" y1="312.7" x2="83.07" y2="323.25" />
        <line class="light-blue-stroke" x1="64.83" y1="300.61" x2="83.13" y2="311.32" />
        <line class="light-blue-stroke" x1="74.67" y1="88.25" x2="92.73" y2="101.75" />
        <line class="light-blue-stroke" x1="80.79" y1="81.65" x2="98.77" y2="95.24" />
        <line class="light-blue-stroke" x1="172.12" y1="65.98" x2="188.93" y2="79.83" />
        <line class="light-blue-stroke" x1="250.51" y1="40.82" x2="266.29" y2="55.04" />
        <line class="light-blue-stroke" x1="325.43" y1="2.44" x2="340.22" y2="17.2" />
        <line class="light-blue-stroke" x1="328.67" y1="1.53" x2="343.42" y2="16.3" />
        <path class="light-blue-stroke" d="M346.75,16l-9.21,320.59L83.26,335q-.12-4.37-.17-8.79t0-8.9q0-4.47.11-9t.26-9.11l6.82-188.58a19.59,19.59,0,0,1,1.48-6.81,19.17,19.17,0,0,1,3.63-5.68,18.09,18.09,0,0,1,5.35-4,17.34,17.34,0,0,1,6.63-1.72,533,533,0,0,0,61.49-8.27,520.61,520.61,0,0,0,59.43-15.22A498.85,498.85,0,0,0,284.71,47a469.56,469.56,0,0,0,52.53-28.32,16.94,16.94,0,0,1,2.21-1.17,17.67,17.67,0,0,1,2.35-.84,18.43,18.43,0,0,1,2.45-.51A19.05,19.05,0,0,1,346.75,16Z" />
        <path class="light-blue-stroke" d="M65,324.61,83.26,335q-.12-4.37-.17-8.79t0-8.9q0-4.47.11-9t.26-9.11L65.15,288.32q-.17,4.64-.27,9.23t-.12,9.12q0,4.54,0,9T65,324.61Z" />
        <line class="light-blue-stroke" x1="64.76" y1="312.7" x2="83.07" y2="323.25" />
        <line class="light-blue-stroke" x1="64.83" y1="300.61" x2="83.13" y2="311.32" />
        <line class="light-blue-stroke" x1="74.67" y1="88.25" x2="92.73" y2="101.75" />
        <line class="light-blue-stroke" x1="80.79" y1="81.65" x2="98.77" y2="95.24" />
        <line class="light-blue-stroke" x1="172.12" y1="65.98" x2="188.93" y2="79.83" />
        <line class="light-blue-stroke" x1="250.51" y1="40.82" x2="266.29" y2="55.04" />
        <line class="light-blue-stroke" x1="325.43" y1="2.44" x2="340.22" y2="17.2" />
        <line class="light-blue-stroke" x1="328.67" y1="1.53" x2="343.42" y2="16.3" />
    </g>
    <polygon class="bright-blue" points="332.16 1.1 346.75 15.99 337.54 336.57 322.61 327 332.16 1.1" />
    <polygon class="bright-blue" points="322.52 326.34 337.54 336.57 83.27 335 65.02 324.5 322.52 326.34" />
    <path class="bright-blue" opacity="0.5" d="M331.92,1.21l-9.42,324.9-257.63-1.5q-.12-4.43-.17-8.91t0-9q0-4.53.12-9.13t.27-9.24l7-191.09a19.87,19.87,0,0,1,1.51-6.9,19.47,19.47,0,0,1,3.69-5.76,18.35,18.35,0,0,1,5.42-4,17.52,17.52,0,0,1,6.71-1.74,540.26,540.26,0,0,0,62.3-8.42A527.94,527.94,0,0,0,211.9,54.91,506,506,0,0,0,269.1,32.68,476.44,476.44,0,0,0,322.32,4a17.27,17.27,0,0,1,2.23-1.19,17.9,17.9,0,0,1,2.37-.85,18.54,18.54,0,0,1,2.47-.52A19,19,0,0,1,331.92,1.21Z" />
    <path class="light-blue-stroke" d="M331.92,1.21l-9.42,324.9-257.63-1.5q-.12-4.43-.17-8.91t0-9q0-4.53.12-9.13t.27-9.24l7-191.09a19.87,19.87,0,0,1,1.51-6.9,19.47,19.47,0,0,1,3.69-5.76,18.35,18.35,0,0,1,5.42-4,17.52,17.52,0,0,1,6.71-1.74,540.26,540.26,0,0,0,62.3-8.42A527.94,527.94,0,0,0,211.9,54.91,506,506,0,0,0,269.1,32.68,476.44,476.44,0,0,0,322.32,4a17.27,17.27,0,0,1,2.23-1.19,17.9,17.9,0,0,1,2.37-.85,18.54,18.54,0,0,1,2.47-.52A19,19,0,0,1,331.92,1.21Z" />
    <path class="white" opacity="0.15" d="M170.67,326.23,327.44,122.4,330.92,2.21a19,19,0,0,0-2.53.18,18.52,18.52,0,0,0-2.47.52,17.89,17.89,0,0,0-2.37.85A17.28,17.28,0,0,0,321.32,5,476.44,476.44,0,0,1,268.1,33.68q-7,3.25-14.22,6.28L65.09,325.62Z" />
    <polygon class="white" opacity="0.15" points="326.07 169.73 327 137.72 183.22 326.3 202.34 326.42 326.07 169.73" />
    <g id="rays1">
        <line class="grey-stroke HNrHclox_34" opacity="0.2" x1="339.86" y1="337.5" x2="428.27" y2="354.59" />
        <line class="grey-stroke HNrHclox_35" opacity="0.2" x1="340.02" y1="331.02" x2="428.29" y2="349.94" />
        <line class="grey-stroke HNrHclox_36" opacity="0.21" x1="340.18" y1="324.55" x2="428.31" y2="345.3" />
        <line class="grey-stroke HNrHclox_37" opacity="0.21" x1="340.34" y1="318.07" x2="428.33" y2="340.66" />
        <line class="grey-stroke HNrHclox_38" opacity="0.22" x1="340.5" y1="311.59" x2="428.35" y2="336.02" />
        <line class="grey-stroke HNrHclox_39" opacity="0.22" x1="340.66" y1="305.11" x2="428.37" y2="331.38" />
        <line class="grey-stroke HNrHclox_40" opacity="0.23" x1="340.82" y1="298.64" x2="428.38" y2="326.74" />
        <line class="grey-stroke HNrHclox_41" opacity="0.23" x1="340.99" y1="292.16" x2="428.4" y2="322.1" />
        <line class="grey-stroke HNrHclox_42" opacity="0.24" x1="341.15" y1="285.68" x2="428.42" y2="317.46" />
        <line class="grey-stroke HNrHclox_43" opacity="0.24" x1="341.31" y1="279.2" x2="428.44" y2="312.82" />
        <line class="grey-stroke HNrHclox_44" opacity="0.25" x1="341.47" y1="272.72" x2="428.46" y2="308.17" />
        <line class="grey-stroke HNrHclox_45" opacity="0.25" x1="341.63" y1="266.25" x2="428.48" y2="303.53" />
        <line class="grey-stroke HNrHclox_46" opacity="0.26" x1="341.79" y1="259.77" x2="428.5" y2="298.89" />
        <line class="grey-stroke HNrHclox_47" opacity="0.26" x1="341.96" y1="253.29" x2="428.52" y2="294.25" />
        <line class="grey-stroke HNrHclox_48" opacity="0.27" x1="342.12" y1="246.81" x2="428.53" y2="289.61" />
        <line class="grey-stroke HNrHclox_49" opacity="0.27" x1="342.28" y1="240.33" x2="428.55" y2="284.97" />
        <line class="grey-stroke HNrHclox_50" opacity="0.28" x1="342.44" y1="233.86" x2="428.57" y2="280.33" />
        <line class="grey-stroke HNrHclox_51" opacity="0.28" x1="342.6" y1="227.38" x2="428.59" y2="275.69" />
        <line class="grey-stroke HNrHclox_52" opacity="0.29" x1="342.76" y1="220.9" x2="428.61" y2="271.05" />
        <line class="grey-stroke HNrHclox_53" opacity="0.29" x1="342.93" y1="214.42" x2="428.63" y2="266.4" />
        <line class="grey-stroke HNrHclox_54" opacity="0.3" x1="343.09" y1="207.94" x2="428.65" y2="261.76" />
        <line class="grey-stroke HNrHclox_55" opacity="0.3" x1="343.25" y1="201.47" x2="428.66" y2="257.12" />
        <line class="grey-stroke HNrHclox_56" opacity="0.31" x1="343.41" y1="194.99" x2="428.68" y2="252.48" />
        <line class="grey-stroke HNrHclox_57" opacity="0.31" x1="343.57" y1="188.51" x2="428.7" y2="247.84" />
        <line class="grey-stroke HNrHclox_58" opacity="0.32" x1="343.73" y1="182.03" x2="428.72" y2="243.2" />
        <line class="grey-stroke HNrHclox_59" opacity="0.32" x1="343.89" y1="175.56" x2="428.74" y2="238.56" />
        <line class="grey-stroke HNrHclox_60" opacity="0.33" x1="344.06" y1="169.08" x2="428.76" y2="233.92" />
        <line class="grey-stroke HNrHclox_61" opacity="0.33" x1="344.22" y1="162.6" x2="428.78" y2="229.27" />
        <line class="grey-stroke HNrHclox_62" opacity="0.34" x1="344.38" y1="156.12" x2="428.8" y2="224.63" />
        <line class="grey-stroke HNrHclox_63" opacity="0.34" x1="344.54" y1="149.64" x2="428.81" y2="219.99" />
        <line class="grey-stroke HNrHclox_64" opacity="0.35" x1="344.7" y1="143.17" x2="428.83" y2="215.35" />
        <line class="grey-stroke HNrHclox_65" opacity="0.35" x1="344.86" y1="136.69" x2="428.85" y2="210.71" />
        <line class="grey-stroke HNrHclox_66" opacity="0.36" x1="345.03" y1="130.21" x2="428.87" y2="206.07" />
        <line class="grey-stroke HNrHclox_67" opacity="0.36" x1="345.19" y1="123.73" x2="428.89" y2="201.43" />
        <line class="grey-stroke HNrHclox_68" opacity="0.37" x1="345.35" y1="117.25" x2="428.91" y2="196.79" />
        <line class="grey-stroke HNrHclox_69" opacity="0.37" x1="345.51" y1="110.78" x2="428.93" y2="192.15" />
        <line class="grey-stroke HNrHclox_70" opacity="0.38" x1="345.67" y1="104.3" x2="428.95" y2="187.5" />
        <line class="grey-stroke HNrHclox_71" opacity="0.38" x1="345.83" y1="97.82" x2="428.96" y2="182.86" />
        <line class="grey-stroke HNrHclox_72" opacity="0.39" x1="345.99" y1="91.34" x2="428.98" y2="178.22" />
        <line class="grey-stroke HNrHclox_73" opacity="0.39" x1="346.16" y1="84.86" x2="429" y2="173.58" />
        <line class="grey-stroke HNrHclox_74" opacity="0.40" x1="346.32" y1="78.39" x2="429.02" y2="168.94" />
        <line class="grey-stroke HNrHclox_75" opacity="0.40" x1="346.48" y1="71.91" x2="429.04" y2="164.3" />
        <line class="grey-stroke HNrHclox_76" opacity="0.41" x1="346.64" y1="65.43" x2="429.06" y2="159.66" />
        <line class="grey-stroke HNrHclox_77" opacity="0.41" x1="346.8" y1="58.95" x2="429.08" y2="155.02" />
        <line class="grey-stroke HNrHclox_78" opacity="0.42" x1="346.96" y1="52.48" x2="429.1" y2="150.38" />
        <line class="grey-stroke HNrHclox_79" opacity="0.42" x1="347.13" y1="46" x2="429.11" y2="145.73" />
        <line class="grey-stroke HNrHclox_80" opacity="0.43" x1="347.29" y1="39.52" x2="429.13" y2="141.09" />
        <line class="grey-stroke HNrHclox_81" opacity="0.43" x1="347.45" y1="33.04" x2="429.15" y2="136.45" />
        <line class="grey-stroke HNrHclox_82" opacity="0.44" x1="347.61" y1="26.56" x2="429.17" y2="131.81" />
        <line class="grey-stroke HNrHclox_83" opacity="0.44" x1="347.77" y1="20.09" x2="429.19" y2="127.17" />
    </g>
    <g id="rays2">
        <line class="grey-stroke HNrHclox_84" opacity="0.42" x1="83.86" y1="335.5" x2="241.36" y2="355.92" />
        <line class="grey-stroke HNrHclox_85" opacity="0.4" x1="112.23" y1="335.65" x2="262.06" y2="355.85" />
        <line class="grey-stroke HNrHclox_86" opacity="0.37" x1="140.6" y1="335.8" x2="282.76" y2="355.79" />
        <line class="grey-stroke HNrHclox_87" opacity="0.35" x1="168.97" y1="335.95" x2="303.47" y2="355.72" />
        <line class="grey-stroke HNrHclox_88" opacity="0.32" x1="197.34" y1="336.1" x2="324.17" y2="355.66" />
        <line class="grey-stroke HNrHclox_89" opacity="0.3" x1="225.71" y1="336.24" x2="344.87" y2="355.6" />
        <line class="grey-stroke HNrHclox_90" opacity="0.27" x1="254.08" y1="336.39" x2="365.58" y2="355.53" />
        <line class="grey-stroke HNrHclox_91" opacity="0.25" x1="284.02" y1="336.83" x2="386.28" y2="355.47" />
        <line class="grey-stroke HNrHclox_92" opacity="0.22" x1="312.77" y1="337.07" x2="406.99" y2="355.4" />
        <line class="grey-stroke HNrHclox_93" opacity="0" x1="339.19" y1="336.84" x2="427.69" y2="355.34" />
    </g>
    <polyline class="light-blue-grey" points="232.29 366.02 232.21 367.77 440.62 368.11 430.62 357.27 239.87 357.19 233.54 364.86" />
    <polygon class="light-blue-grey" points="440.52 367.84 439.86 118.17 438.46 116.86 431.19 127.5 430.62 357.44 440.52 367.84" />
    <polyline class="blue-stroke" points="438.09 117.42 437.89 117.41 430.44 127.56 430.44 356.52" />
    <path class="blue-stroke" d="M430.44,356.53H239.52L231.67,366l-.15.06.06,1.1" />
		<a data-link="/pages/content-delivery-network" href="/pages/content-delivery-network"><path class="bright-blue HNrHclox_99" d="M260.12 301.68c-4.44 0-123.52 0-128-.07a14.36 14.36 0 0 1-8-2.6c3.21 2.27 6.29 4.85 10.3 5.48a21.3 21.3 0 0 0 3.34.18l122.87.08c4 0 7.66 0 11.25-2.22a15.81 15.81 0 0 0 7.5-11.83 15.16 15.16 0 0 0-5.82-13.29l-3.24-2.68a15 15 0 0 1 4.41 16.49 15.79 15.79 0 0 1-14.61 10.45"></path><path class="medium-blue HNrHclox_100" d="M260.31 271.18a14.65 14.65 0 0 1 13.94 10.4 15.64 15.64 0 0 1-5.5 16.6c-3.51 2.72-7.5 3.25-11.72 3.25H131.86a14.69 14.69 0 0 1-13.61-20c2.48-6.54 8.65-10.12 15.44-10.12h125.59z"></path><path class="medium-blue-stroke HNrHclox_101" d="M279.42 288.33a14.79 14.79 0 0 0-5.27-10.42c-1.27-1.07-2.56-2.11-3.84-3.17a15 15 0 0 1 4.41 16.49 15.79 15.79 0 0 1-14.61 10.45l3.92 3-3.92-3-127.79-.07a14.33 14.33 0 0 1-8.23-2.6l3.9 2.75a14.87 14.87 0 0 0 8.65 2.91l127.34.08a15.73 15.73 0 0 0 15.44-16.42z"></path><path id="CDN_Enhancement" data-name="CDN Enhancement" class="white HNrHclox_102" d="M138.52 282.94a3.93 3.93 0 0 1 1.39 1l-.8.86a3.16 3.16 0 0 0-1.11-.8 3.1 3.1 0 0 0-1.32-.29 3.61 3.61 0 0 0-1.86.5 3.83 3.83 0 0 0-1.37 1.35 3.52 3.52 0 0 0-.51 1.85 3 3 0 0 0 .4 1.53 2.93 2.93 0 0 0 1.09 1.09 3.06 3.06 0 0 0 1.56.4 3.61 3.61 0 0 0 1.38-.28 4.51 4.51 0 0 0 1.25-.77l.65.79a5.73 5.73 0 0 1-1.64 1 4.71 4.71 0 0 1-1.8.37 4.17 4.17 0 0 1-2.11-.54 3.88 3.88 0 0 1-1.47-1.46 4.06 4.06 0 0 1-.53-2.06 4.54 4.54 0 0 1 .69-2.44 5.11 5.11 0 0 1 4.35-2.41 4.42 4.42 0 0 1 1.76.31zm9.94.21a3.4 3.4 0 0 1 1.38 1.33 3.77 3.77 0 0 1 .49 1.91 4.76 4.76 0 0 1-.71 2.54 5.14 5.14 0 0 1-1.93 1.82 5.34 5.34 0 0 1-2.62.67h-3.73l1.74-8.75h3.35a4.25 4.25 0 0 1 2.04.48zm.27 2a2.58 2.58 0 0 0-1-1 3 3 0 0 0-1.48-.36h-2.19l-1.3 6.55h2.52a3.72 3.72 0 0 0 1.88-.5 3.88 3.88 0 0 0 1.41-1.37 3.61 3.61 0 0 0 .53-1.92 2.79 2.79 0 0 0-.36-1.44zm11-2.44h1.19l-1.75 8.75H158l-3.62-6.79-1.38 6.75h-1.2l1.75-8.75h1.21l3.64 6.79zm14.09 1.1h-4.89l-.54 2.69h4.36l-.21 1.09h-4.36l-.55 2.77h5l-.2 1.1h-6.24l1.75-8.75H174zm7.48 1.52a2 2 0 0 1 .63 1.54 3.41 3.41 0 0 1-.08.69l-.79 3.9h-1.17l.75-3.76a2 2 0 0 0 0-.46 1.33 1.33 0 0 0-.41-1 1.63 1.63 0 0 0-1.14-.37 2.23 2.23 0 0 0-1.52.56 2.68 2.68 0 0 0-.84 1.51l-.71 3.55h-1.17l1.3-6.61h1.19l-.23 1.11a2.81 2.81 0 0 1 2.39-1.19 2.55 2.55 0 0 1 1.81.5zm9 0a2 2 0 0 1 .63 1.54 3.41 3.41 0 0 1-.08.69l-.79 3.9h-1.18l.75-3.76a2 2 0 0 0 .05-.46 1.33 1.33 0 0 0-.41-1 1.63 1.63 0 0 0-1.14-.37 2.23 2.23 0 0 0-1.52.56 2.67 2.67 0 0 0-.84 1.51l-.71 3.55h-1.17l1.83-9.28h1.19l-.75 3.77a2.81 2.81 0 0 1 2.39-1.19 2.55 2.55 0 0 1 1.73.51zm3.81 5.81a2.57 2.57 0 0 1-1-1 3.28 3.28 0 0 1-.35-1.54 3.94 3.94 0 0 1 .47-1.91 3.5 3.5 0 0 1 3.12-1.85 2.73 2.73 0 0 1 1.56.43 2.22 2.22 0 0 1 .88 1.2l.33-1.57h1.16l-1.28 6.52h-1.2l.22-1.08a3.27 3.27 0 0 1-1.1.84 3.2 3.2 0 0 1-1.37.3 2.79 2.79 0 0 1-1.46-.37zm3.11-1a2.59 2.59 0 0 0 .91-1 2.76 2.76 0 0 0 .34-1.35 2.05 2.05 0 0 0-.54-1.49 1.89 1.89 0 0 0-1.42-.56 2.38 2.38 0 0 0-1.28.36 2.72 2.72 0 0 0-1.27 2.31 2 2 0 0 0 .56 1.48 1.93 1.93 0 0 0 1.44.57 2.35 2.35 0 0 0 1.24-.31zm11.07-4.86a2 2 0 0 1 .63 1.54 3.41 3.41 0 0 1-.08.69l-.79 3.9h-1.17l.75-3.76a2 2 0 0 0 0-.46 1.33 1.33 0 0 0-.41-1 1.63 1.63 0 0 0-1.14-.37 2.23 2.23 0 0 0-1.52.56 2.68 2.68 0 0 0-.84 1.51l-.71 3.55h-1.17l1.3-6.61h1.19l-.23 1.11a2.81 2.81 0 0 1 2.39-1.19 2.55 2.55 0 0 1 1.78.55zm3.91 5.78a2.63 2.63 0 0 1-1-1.06 3.22 3.22 0 0 1-.37-1.56 3.82 3.82 0 0 1 .47-1.91 3.37 3.37 0 0 1 1.31-1.31 3.77 3.77 0 0 1 1.88-.47 3.87 3.87 0 0 1 1.46.26 2.62 2.62 0 0 1 1.05.74l-.71.8a2.41 2.41 0 0 0-1.86-.78 2.39 2.39 0 0 0-1.24.33 2.36 2.36 0 0 0-.87.92 2.73 2.73 0 0 0-.32 1.33 2.08 2.08 0 0 0 .55 1.5 1.88 1.88 0 0 0 1.42.57 3.27 3.27 0 0 0 1.17-.21 2.36 2.36 0 0 0 .91-.62l.59.69a3.49 3.49 0 0 1-1.23.85 4.13 4.13 0 0 1-1.61.3 3.11 3.11 0 0 1-1.63-.35zm12-5.53a2.82 2.82 0 0 1 .77 2.08 5.13 5.13 0 0 1-.1.95h-5.34a2 2 0 0 0 .59 1.43 2.09 2.09 0 0 0 1.49.53 3.15 3.15 0 0 0 1.05-.18 2.83 2.83 0 0 0 .89-.5l.54.76a3.71 3.71 0 0 1-2.51.88 3.62 3.62 0 0 1-1.69-.37 2.68 2.68 0 0 1-1.12-1.06 3.13 3.13 0 0 1-.39-1.59 3.7 3.7 0 0 1 .49-1.88 3.52 3.52 0 0 1 1.34-1.32 3.77 3.77 0 0 1 1.89-.48 2.84 2.84 0 0 1 2.09.77zm-.74.69a1.78 1.78 0 0 0-1.36-.51 2.42 2.42 0 0 0-1.55.54 2.63 2.63 0 0 0-.91 1.4h4.29a2 2 0 0 0-.48-1.41zm14.47-.94a2 2 0 0 1 .63 1.54 3.4 3.4 0 0 1-.07.69l-.79 3.9h-1.17l.75-3.76a2 2 0 0 0 0-.46 1.33 1.33 0 0 0-.41-1 1.62 1.62 0 0 0-1.14-.37 2.25 2.25 0 0 0-1.47.52 2.57 2.57 0 0 0-.86 1.39l-.75 3.71h-1.17l.75-3.76a2 2 0 0 0 0-.46 1.33 1.33 0 0 0-.41-1 1.63 1.63 0 0 0-1.14-.37 2.24 2.24 0 0 0-1.52.57 2.62 2.62 0 0 0-.84 1.51l-.71 3.55h-1.17l1.3-6.61H229l-.23 1.11a2.81 2.81 0 0 1 2.39-1.19 2.73 2.73 0 0 1 1.58.42 1.8 1.8 0 0 1 .76 1.18 3 3 0 0 1 2.66-1.6 2.55 2.55 0 0 1 1.76.51zm8.31.25a2.82 2.82 0 0 1 .77 2.08 5.13 5.13 0 0 1-.1.95h-5.34a2 2 0 0 0 .59 1.43 2.09 2.09 0 0 0 1.49.53 3.15 3.15 0 0 0 1.05-.18 2.83 2.83 0 0 0 .89-.5l.54.76a3.71 3.71 0 0 1-2.51.88 3.62 3.62 0 0 1-1.69-.37 2.68 2.68 0 0 1-1.13-1.11 3.13 3.13 0 0 1-.39-1.59 3.7 3.7 0 0 1 .49-1.88 3.52 3.52 0 0 1 1.34-1.32 3.77 3.77 0 0 1 1.89-.48 2.84 2.84 0 0 1 2.1.82zm-.74.69a1.78 1.78 0 0 0-1.36-.51 2.42 2.42 0 0 0-1.55.54 2.63 2.63 0 0 0-.91 1.4h4.29a2 2 0 0 0-.48-1.41zm9.47-.94a2 2 0 0 1 .63 1.54 3.41 3.41 0 0 1-.08.69l-.79 3.9h-1.17l.75-3.76a2 2 0 0 0 0-.46 1.33 1.33 0 0 0-.41-1 1.63 1.63 0 0 0-1.14-.37 2.23 2.23 0 0 0-1.52.56 2.68 2.68 0 0 0-.84 1.51l-.71 3.55h-1.17l1.3-6.61H251l-.23 1.11a2.81 2.81 0 0 1 2.39-1.19 2.55 2.55 0 0 1 1.84.55zm4.27 4.14a1.81 1.81 0 0 0 0 .41.54.54 0 0 0 .14.43.67.67 0 0 0 .44.13 2.48 2.48 0 0 0 1.13-.34l.21.94a3.22 3.22 0 0 1-1.61.47 1.59 1.59 0 0 1-1.08-.36 1.32 1.32 0 0 1-.41-1 2.75 2.75 0 0 1 0-.54l.73-3.61h-.94l.15-.95h1l.35-1.78h1.16l-.35 1.78h2l-.16.89h-2z"></path></a>
    <text class="benefit-bullets" transform="translate(131.52 158.96)">Faster Website Speeds</text>
    <text class="benefit-bullets" transform="translate(131.52 184.96)">SEO Ranking Rewards</text>
    <text class="benefit-bullets" transform="translate(131.52 211.96)">High Website Availability</text>
    <text class="benefit-bullets" transform="translate(131.52 239.63)">Bandwidth Cost Savings</text>
    <circle class="blue" cx="121.95" cy="153.25" r="1.52" />
    <circle class="blue" cx="121.95" cy="179.25" r="1.52" />
    <circle class="blue" cx="121.95" cy="207.25" r="1.52" />
    <circle class="blue" cx="121.95" cy="233.25" r="1.52" />
    <path class="blue" d="M132.3,113.93h-7.6l-.7,3.46h6.82l-.46,2.34h-6.82l-.7,3.52h7.8l-.44,2.34H119.7l2.8-14h10.24Zm12.29,1.75a3.21,3.21,0,0,1,1,2.51,5.43,5.43,0,0,1-.12,1.1l-1.26,6.3h-2.62l1.18-5.92a3.69,3.69,0,0,0,.06-.64,1.84,1.84,0,0,0-.56-1.42,2.2,2.2,0,0,0-1.56-.52,2.92,2.92,0,0,0-2,.78,3.65,3.65,0,0,0-1.13,2.06l-1.16,5.66h-2.6l2.1-10.7h2.64l-.3,1.52a4.13,4.13,0,0,1,3.48-1.66A4.07,4.07,0,0,1,144.59,115.68Zm14.48,0a3.21,3.21,0,0,1,1,2.51,5.43,5.43,0,0,1-.12,1.1l-1.26,6.3H156.1l1.18-5.92a3.69,3.69,0,0,0,.06-.64,1.84,1.84,0,0,0-.56-1.42,2.21,2.21,0,0,0-1.56-.52,3,3,0,0,0-2,.78,3.62,3.62,0,0,0-1.14,2.06l-1.14,5.66H148.3l2.94-14.84h2.62l-1.1,5.66a4.13,4.13,0,0,1,3.48-1.66A4.07,4.07,0,0,1,159.07,115.68Zm5.76,9.43a4.07,4.07,0,0,1-1.54-1.69,5.45,5.45,0,0,1-.55-2.49,6.43,6.43,0,0,1,.76-3.12,5.76,5.76,0,0,1,2.08-2.21,5.51,5.51,0,0,1,2.94-.81,4.27,4.27,0,0,1,2.27.57,3.26,3.26,0,0,1,1.35,1.65l.44-2.12h2.6L173,125.59h-2.58l.3-1.46a5,5,0,0,1-1.66,1.17,5,5,0,0,1-2,.41A4.28,4.28,0,0,1,164.83,125.11Zm5-2a3.55,3.55,0,0,0,1.26-1.35,3.82,3.82,0,0,0,.46-1.85,2.85,2.85,0,0,0-.72-2,2.5,2.5,0,0,0-1.92-.77,3.26,3.26,0,0,0-1.76.5,3.62,3.62,0,0,0-1.27,1.36,3.81,3.81,0,0,0-.47,1.86,2.8,2.8,0,0,0,.73,2,2.55,2.55,0,0,0,1.93.76A3.26,3.26,0,0,0,169.8,123.07Zm18.25-7.39a3.21,3.21,0,0,1,1,2.51,5.43,5.43,0,0,1-.12,1.1l-1.26,6.3h-2.62l1.18-5.92a3.69,3.69,0,0,0,.06-.64,1.84,1.84,0,0,0-.56-1.42,2.2,2.2,0,0,0-1.56-.52,2.92,2.92,0,0,0-2,.78,3.65,3.65,0,0,0-1.13,2.06l-1.16,5.66h-2.6l2.1-10.7H182l-.3,1.52a4.13,4.13,0,0,1,3.48-1.66A4.07,4.07,0,0,1,188.05,115.68Zm6,9.4a4.28,4.28,0,0,1-1.72-1.72,5.21,5.21,0,0,1-.61-2.55,6.17,6.17,0,0,1,.78-3.11,5.5,5.5,0,0,1,2.15-2.13,6.22,6.22,0,0,1,3.07-.76,6,6,0,0,1,2.56.51,4.33,4.33,0,0,1,1.76,1.45l-1.74,1.5a3.26,3.26,0,0,0-2.68-1.18,3.17,3.17,0,0,0-2.85,1.7,3.82,3.82,0,0,0-.43,1.84,2.89,2.89,0,0,0,.72,2,2.47,2.47,0,0,0,1.9.78,3.74,3.74,0,0,0,3-1.26l1.5,1.34a5.44,5.44,0,0,1-2.05,1.6,6.65,6.65,0,0,1-2.79.56A5.25,5.25,0,0,1,194.07,125.08Zm19.56-9a4.5,4.5,0,0,1,1.29,3.39,7.51,7.51,0,0,1-.2,1.7H206.6a2.59,2.59,0,0,0,.86,1.82,3,3,0,0,0,2,.66,4.57,4.57,0,0,0,2.8-1l1.22,1.58a6,6,0,0,1-4.1,1.46,6.36,6.36,0,0,1-2.84-.6,4.44,4.44,0,0,1-1.89-1.71,4.87,4.87,0,0,1-.67-2.57,6,6,0,0,1,.79-3.07A5.74,5.74,0,0,1,207,115.6a6.17,6.17,0,0,1,3.11-.79A4.86,4.86,0,0,1,213.63,116.06ZM212,117.54a2.33,2.33,0,0,0-1.8-.67,3.31,3.31,0,0,0-2.07.7,3.76,3.76,0,0,0-1.29,1.84h5.74A2.52,2.52,0,0,0,212,117.54Z" />
</svg>