<svg id="icon-thumbsup-small" xmlns="http://www.w3.org/2000/svg" viewBox="0 0 50 50"><path d="M24.14,5.38V1a.5.5,0,0,1,.5-.5h0a.5.5,0,0,1,.5.5V5.38a.5.5,0,0,1-.5.5h0A.5.5,0,0,1,24.14,5.38ZM9.56,44.83l-1,0a.5.5,0,0,0,0,1h0l1,0a.5.5,0,0,0,.48-.51A.51.51,0,0,0,9.56,44.83ZM10.93,28.2l-.41-.28a.5.5,0,1,0-.57.82l.41.28a.5.5,0,1,0,.57-.82Zm1.25-17.82a.51.51,0,0,0,.71,0,.51.51,0,0,0,0-.71L9.76,6.07A.49.49,0,0,0,9.06,6,.51.51,0,0,0,9,6.73Zm24.69-.13a.49.49,0,0,0,.38-.18L40.6,6.22a.51.51,0,0,0-.06-.71.49.49,0,0,0-.7,0L36.49,9.42a.5.5,0,0,0,0,.7A.5.5,0,0,0,36.87,10.25ZM17.45,7a.51.51,0,0,0,.47.31.43.43,0,0,0,.19,0h0a.51.51,0,0,0,.27-.65l-.77-1.85A.5.5,0,0,0,17,4.48a.49.49,0,0,0-.27.65Zm25,18.94a5.21,5.21,0,0,0-4.57-2.28H29a.47.47,0,0,1-.46-.07c-.45-.41-.6-1.95-.35-3.83a19,19,0,0,1,.42-2.1c.42-1.82.86-3.7.08-5.62a5,5,0,0,0-4.58-3.12S22,9.1,21.9,10.07l-.35,6.14a4.85,4.85,0,0,1-.66,2.27c-.43.47-.89.93-1.39,1.41a11.5,11.5,0,0,0-3.35,4.56,13.57,13.57,0,0,0-.33,1.48c-.26,1.35-.52,2.76-1.59,3.32a2,2,0,0,1-1.86-.05L12,28.92a.5.5,0,0,0-.57.83l.3.2s0,0,0,0a3.08,3.08,0,0,0,2.95.15c1.49-.79,1.82-2.51,2.1-4a12.05,12.05,0,0,1,.31-1.36,10.62,10.62,0,0,1,3.09-4.14c.49-.48,1-1,1.45-1.48a5.47,5.47,0,0,0,.89-2.84l.35-6a4.25,4.25,0,0,1,1.27-.35,4,4,0,0,1,3.61,2.5c.66,1.62.27,3.27-.14,5-.17.72-.34,1.47-.44,2.21-.17,1.36-.32,3.79.68,4.69a1.44,1.44,0,0,0,1.3.32h8.72a4.23,4.23,0,0,1,3.72,1.8c.6,1,.91,4-.1,4.77a.64.64,0,0,0-.26.46.71.71,0,0,0,.17.5A3.54,3.54,0,0,1,42,34.6c0,.58-.05,2.34-.74,2.88a.56.56,0,0,0-.19.36.5.5,0,0,0,.12.37,3.93,3.93,0,0,1,.18,3,2.43,2.43,0,0,1-1,1.68.5.5,0,0,0-.33.51c0,.16.32,3.73-2.27,4-1.29.12-2.47.27-3.6.41A39.65,39.65,0,0,1,22.34,48a18.15,18.15,0,0,1-4.19-1.46A33.29,33.29,0,0,1,15,44.87a.48.48,0,0,0-.18-.07,10.86,10.86,0,0,0-2.43,0l-.84,0a.49.49,0,0,0-.49.51.51.51,0,0,0,.5.49h.31a.53.53,0,0,0,.22,0l.35,0h.19a10.56,10.56,0,0,1,1.95,0c1.06.63,2.12,1.19,3.15,1.67A18.91,18.91,0,0,0,22.19,49a42,42,0,0,0,5.52.39,48,48,0,0,0,6.56-.53c1.13-.14,2.3-.29,3.58-.4,2.67-.32,3.25-3.1,3.19-4.79a3.73,3.73,0,0,0,1.33-2.19A5.47,5.47,0,0,0,42.23,38a5.91,5.91,0,0,0,.8-3.37,5,5,0,0,0-.66-2.82C43.58,30.41,43.22,27.18,42.46,25.92ZM24,35.55c-.21.13-.36.22-.4.46a.48.48,0,0,0,.4.57h.09a.55.55,0,0,0,.33-.12l.1-.07a9,9,0,0,0,4.53-9.12h0a3.48,3.48,0,0,0-.13-.92.49.49,0,0,0-.62-.34.5.5,0,0,0-.34.62,2.62,2.62,0,0,1,.09.64v.06A8,8,0,0,1,24,35.55Zm9.49-8h3.65A2,2,0,0,0,38.3,27l.27-.2a.5.5,0,0,0,.5,0,.51.51,0,0,0,.18-.69.72.72,0,0,0-.48-.36,1.41,1.41,0,0,0-1.08.45,2,2,0,0,1-.51.33H33.56a4.51,4.51,0,0,0-3.18,1.09,2.71,2.71,0,0,0-.66,2.24,2.61,2.61,0,0,0,1.31,2,3.38,3.38,0,0,0-.61.48,2.91,2.91,0,0,0-.7,2.39A2.74,2.74,0,0,0,31,36.86a2.68,2.68,0,0,0-.9,1.1,3,3,0,0,0,.43,2.85,2.79,2.79,0,0,0,.71.67,2.07,2.07,0,0,0-.46.39,2.57,2.57,0,0,0-.43,2.58c.36,1.19,1.62,2,3.65,2.31a5.82,5.82,0,0,1,.48.56.51.51,0,0,0,.4.2.47.47,0,0,0,.3-.1.5.5,0,0,0,.19-.43h.11a.5.5,0,0,0,.5-.42.5.5,0,0,0-.41-.57l-1.48-.25h0c-1.15-.19-2.49-.62-2.79-1.6a1.66,1.66,0,0,1,.22-1.62,1.69,1.69,0,0,1,1-.49l5,.48.45,0H38l.5.05a.49.49,0,0,0,.54-.45.5.5,0,0,0-.45-.55l-1.22-.11-2.27-.24L32.47,41a2.4,2.4,0,0,1-1.12-.76A2,2,0,0,1,31,38.35a2.07,2.07,0,0,1,1.43-1.07h6.92a.51.51,0,0,0,.5-.5s0,0,0,0,0,0,0,0a.5.5,0,0,0-.51-.49l-6.22.09h-1a1.72,1.72,0,0,1-1.42-1.6,1.91,1.91,0,0,1,.43-1.62,3.5,3.5,0,0,1,2.38-.78h5.84a.51.51,0,0,0,.5-.5.5.5,0,0,0-.5-.5H32.14a1.63,1.63,0,0,1-1.42-1.5,1.76,1.76,0,0,1,.39-1.48A3.6,3.6,0,0,1,33.53,27.52ZM8.38,14a.51.51,0,0,0-.18-.69l-1.73-1a.5.5,0,0,0-.5.86l1.73,1a.52.52,0,0,0,.25.07A.5.5,0,0,0,8.38,14ZM31.5,6.75h0a.41.41,0,0,0,.19,0,.49.49,0,0,0,.46-.31l.77-1.84A.5.5,0,1,0,32,4.25L31.23,6.1A.49.49,0,0,0,31.5,6.75ZM43.83,12a.51.51,0,0,0-.69-.18l-1.72,1a.49.49,0,0,0-.18.68h0a.5.5,0,0,0,.43.25.45.45,0,0,0,.25-.07l1.73-1A.49.49,0,0,0,43.83,12Z"/></svg>