<svg xmlns="http://www.w3.org/2000/svg" viewBox="0 0 50 50"><g id="SVG_Icons" data-name="SVG Icons"><path class="svg-grey" d="M50,24.91a.49.49,0,0,0-.43-.47l-7.64-1.06s0-.08,0-.13V11.36a1.48,1.48,0,0,0-1.38-1.47A30.88,30.88,0,0,1,26.2,5.34a1.44,1.44,0,0,0-1.57,0A30.88,30.88,0,0,1,10.29,9.89a1.47,1.47,0,0,0-1.37,1.46v12l-7.82,1a.5.5,0,0,0-.43.51c0,.14.07,3.6,2.2,3.89a.33.33,0,0,0,.14,0l.28,0a2.78,2.78,0,0,0,2.79,3.55,3,3,0,0,0,.8-.12l.15,1a.53.53,0,0,0,.19.33.54.54,0,0,0,.3.1h.07l3.1-.44c2.3,5.54,6.9,9.51,14.18,12.36a1.41,1.41,0,0,0,1.09,0c7.28-2.85,11.88-6.82,14.18-12.36l3.1.44h.07a.54.54,0,0,0,.3-.1.5.5,0,0,0,.2-.33l.15-1a3.18,3.18,0,0,0,.88.14,2.77,2.77,0,0,0,2.79-3.54l.2,0a.29.29,0,0,0,.13,0C50.11,28.48,50,25.06,50,24.91Zm-3.07,4.54a2,2,0,0,1-2.07,2,2.2,2.2,0,0,1-.77-.15l.23-1.56h.16a.53.53,0,0,0,.3-.09l1.4-1a.44.44,0,0,1,.33-.08l.22,0A2,2,0,0,1,46.91,29.45ZM43,31.64l-.13.9-2.37-.34a21.77,21.77,0,0,0,.81-2.88l.61.09.41.05.42.06.54.08-.15,1-.07.55ZM39.1,33c-2.21,5.09-6.51,8.77-13.2,11.45,0,0,0-.06,0-.09v-2a.5.5,0,0,0-.5-.5.5.5,0,0,0-.5.5v2s0,.06,0,.09c-6.69-2.68-11-6.36-13.2-11.45-.07-.16-.14-.32-.2-.48s-.14-.31-.2-.48a20,20,0,0,1-.82-2.88c0-.16-.08-.32-.11-.49s-.05-.33-.08-.49A27.91,27.91,0,0,1,10,24.31V24.2c0-.13,0-.26,0-.4v-.1c0-.13,0-.26,0-.4v-12a.49.49,0,0,1,.44-.47A31.87,31.87,0,0,0,24.92,6.33v2a.5.5,0,0,0,.5.5.5.5,0,0,0,.5-.5v-2s0,0,0,0a31.87,31.87,0,0,0,14.56,4.55.49.49,0,0,1,.45.48V23.24h0v.05c0,.15,0,.3,0,.45v.05c0,.15,0,.3,0,.45v.06a29.49,29.49,0,0,1-.38,3.88c0,.16,0,.33-.08.49s-.07.33-.11.49a20,20,0,0,1-.82,2.88c-.06.17-.13.32-.2.48S39.17,32.85,39.1,33ZM7.94,32.54l-.12-.84-.06-.47-.08-.52L7.52,29.6l.63-.09.42-.06L9,29.39l.52-.07a21.77,21.77,0,0,0,.81,2.88ZM4,29.45a1.92,1.92,0,0,1,.21-.86h.12a.43.43,0,0,1,.33.08l1.4,1a.53.53,0,0,0,.3.09h.16l.23,1.59a2.16,2.16,0,0,1-.68.12A2,2,0,0,1,4,29.45Zm1.8-4.7.5-.06L9,24.34v.11a29.49,29.49,0,0,0,.38,3.88l-.56.08-.42.06-.44.07-.53.07-.5.07-.38.06-.13-.09-1.12-.81a2.14,2.14,0,0,0-.22-.1,1.39,1.39,0,0,0-.53-.14,1,1,0,0,0-.3,0l-.32,0-.94.14c-.84-.18-1.16-1.6-1.25-2.47Zm40.82,2.84a.83.83,0,0,0-.22,0,1.38,1.38,0,0,0-.56.12,1.31,1.31,0,0,0-.27.12l-1.12.81-.12.09L44,28.68l-.5-.07L43,28.55l-.44-.07-.42-.06-.64-.09a27.88,27.88,0,0,0,.38-3.88v-.06l2.64.36.49.07,4,.55c0,.84-.27,2.22-1.09,2.4l-.84-.12ZM24.92,13.37v-2a.5.5,0,0,1,.5-.5.5.5,0,0,1,.5.5v2a.5.5,0,0,1-.5.5A.5.5,0,0,1,24.92,13.37Zm1,3a.51.51,0,0,1-1,0,.5.5,0,0,1,.5-.5h0A.5.5,0,0,1,25.93,16.37Zm0,18a.51.51,0,0,1-1,0,.5.5,0,0,1,.5-.5h0A.5.5,0,0,1,25.93,34.37Zm0,3v2a.5.5,0,0,1-.5.5.5.5,0,0,1-.5-.5v-2a.5.5,0,0,1,.5-.5A.5.5,0,0,1,25.92,37.37Zm1.46-11.82a2,2,0,0,0-.51-1.05,1.86,1.86,0,0,0-.41-.33L26.15,24,26,24a1.3,1.3,0,0,0-.33-.07h0l-.24,0-.25,0h0a1.14,1.14,0,0,0-.32.07l-.16,0a2.11,2.11,0,0,0-.3.16,1.91,1.91,0,0,0-.42.33,2,2,0,0,0-.51,1.06,1.55,1.55,0,0,0,0,.31,1.85,1.85,0,0,0,.16.78,2,2,0,0,0,.41.62,2,2,0,0,0,.44.33l.18.1a1.4,1.4,0,0,0,.29.09l.19.05h.14l.19,0,.18,0h.14l.19-.05a1.4,1.4,0,0,0,.29-.09l.19-.1a2.24,2.24,0,0,0,.43-.33,2.06,2.06,0,0,0,.42-.62,2,2,0,0,0,.16-.78A1.75,1.75,0,0,0,27.38,25.55Zm-2,1.32a.53.53,0,0,1-.18,0l-.14,0h-.05a1.12,1.12,0,0,1-.29-.19.76.76,0,0,1-.09-.09.41.41,0,0,1-.07-.11.94.94,0,0,1-.18-.54,1.14,1.14,0,0,1,.06-.33l0-.08.06-.09a1.09,1.09,0,0,1,.21-.26l0,0L25,25h0a.71.71,0,0,1,.24-.06l.07,0,.11,0,.1,0,.07,0a.93.93,0,0,1,.24.05h0l.17.11.05,0a1.09,1.09,0,0,1,.21.26l.06.08,0,.09a.88.88,0,0,1,.07.33,1,1,0,0,1-.19.54.41.41,0,0,1-.07.11.38.38,0,0,1-.09.09,1.12,1.12,0,0,1-.29.19h-.05l-.14,0A.53.53,0,0,1,25.42,26.87ZM19.82,31a.48.48,0,0,1,.15.29.47.47,0,0,1-.11.42.58.58,0,0,1-.24.14l-.13,0h0a.52.52,0,0,1-.31-.12l-.29-.3a5.77,5.77,0,0,1-.42-.44,7.81,7.81,0,0,1-1.51-2.79c-.05-.16-.09-.32-.13-.48a4.21,4.21,0,0,1-.09-.49l0-.17A7.73,7.73,0,0,1,16.6,26a7.63,7.63,0,0,1,.52-2.75v0c.07-.17.15-.34.23-.51v0c.09-.18.17-.35.27-.52v0A8.12,8.12,0,0,1,19,20.47a.5.5,0,1,1,.69.72,6.57,6.57,0,0,0-.7.8h0a5,5,0,0,0-.38.56h0a5.45,5.45,0,0,0-.29.53h0a6.61,6.61,0,0,0-.66,2.38c0,.18,0,.36,0,.54a6.72,6.72,0,0,0,.1,1.1,3.86,3.86,0,0,0,.09.49c0,.17.08.33.13.49a6.7,6.7,0,0,0,1.73,2.75Zm-3.44,1.7a.5.5,0,0,1-.74.68c-.25-.28-.48-.56-.7-.86-.11-.15-.21-.3-.31-.46a4.53,4.53,0,0,1-.3-.46,10.83,10.83,0,0,1-1.19-2.83c0-.16-.08-.32-.11-.49s-.07-.32-.1-.49A10.63,10.63,0,0,1,12.78,26,11,11,0,0,1,13,23.87s0-.05,0-.08.07-.3.11-.45,0,0,0-.07.09-.3.14-.45a.14.14,0,0,1,0-.07,11,11,0,0,1,2.18-3.92.5.5,0,1,1,.75.66,9.89,9.89,0,0,0-1.83,3.11.14.14,0,0,0,0,.06c-.06.15-.11.31-.16.47s0,0,0,.06-.09.31-.13.46,0,0,0,.06a9.72,9.72,0,0,0-.14,4c0,.16.06.33.1.49s.07.33.11.49a10.06,10.06,0,0,0,1.28,2.81c.1.16.21.31.32.46s.24.31.36.46Zm7-2.76a.5.5,0,0,1-.44.27.46.46,0,0,1-.23-.06,4.61,4.61,0,0,1-2.36-2.93A4.49,4.49,0,0,1,20.21,26,4.64,4.64,0,0,1,21,23.38a5,5,0,0,1,.68-.77h0a5.35,5.35,0,0,1,.75-.58l.18-.06h0a.49.49,0,0,1,.49.23.44.44,0,0,1,.07.19h0a.52.52,0,0,1-.24.5A3.69,3.69,0,0,0,21.21,26a2.88,2.88,0,0,0,.06.59,2.68,2.68,0,0,0,.11.49,4.68,4.68,0,0,0,.18.48,3.65,3.65,0,0,0,1.64,1.7A.51.51,0,0,1,23.41,30Zm10.3-6.69A7.64,7.64,0,0,1,34.24,26a7.74,7.74,0,0,1-.09,1.08l0,.17a4.21,4.21,0,0,1-.09.49c0,.16-.08.32-.13.48A7.66,7.66,0,0,1,32.39,31a5.77,5.77,0,0,1-.42.44l-.29.3a.52.52,0,0,1-.31.12h0l-.13,0a.58.58,0,0,1-.24-.14.5.5,0,0,1-.11-.42A.48.48,0,0,1,31,31l.17-.17a6.7,6.7,0,0,0,1.73-2.75c.05-.16.09-.32.13-.49s.07-.32.1-.49a6.72,6.72,0,0,0,.1-1.1c0-.18,0-.36,0-.54a6.61,6.61,0,0,0-.66-2.38h0a4.68,4.68,0,0,0-.3-.54h0c-.12-.19-.25-.38-.38-.56h0a6.57,6.57,0,0,0-.7-.8.5.5,0,1,1,.69-.72,7.51,7.51,0,0,1,1.33,1.7h0c.1.18.19.36.28.54h0a5,5,0,0,1,.23.53Zm4.12.6A10.26,10.26,0,0,1,38.06,26a10.64,10.64,0,0,1-.16,1.79l-.09.49-.12.49a10.83,10.83,0,0,1-1.19,2.83c-.09.16-.19.31-.29.46l-.32.46c-.22.3-.45.58-.7.86a.49.49,0,0,1-.37.16.5.5,0,0,1-.37-.84l.29-.34c.12-.15.25-.3.36-.46s.22-.3.32-.46a10.06,10.06,0,0,0,1.28-2.81c0-.16.08-.33.11-.49s.07-.33.1-.49a9.26,9.26,0,0,0-.14-4v0c0-.17-.09-.33-.13-.49v0c-.06-.17-.11-.34-.17-.5v0a9.87,9.87,0,0,0-1.84-3.14.51.51,0,0,1,0-.71.51.51,0,0,1,.71,0,10.84,10.84,0,0,1,2.19,4l0,0c0,.16.09.32.14.48v0c0,.16.08.32.11.49Zm-8-.49A4.64,4.64,0,0,1,30.62,26a4.49,4.49,0,0,1-.17,1.22,4.62,4.62,0,0,1-2.35,2.93.53.53,0,0,1-.24.06.5.5,0,0,1-.44-.27.51.51,0,0,1,.21-.68,3.65,3.65,0,0,0,1.64-1.7,4.68,4.68,0,0,0,.18-.48,3.89,3.89,0,0,0,.12-.49,3.81,3.81,0,0,0,.05-.59,3.69,3.69,0,0,0-1.78-3.13.52.52,0,0,1-.24-.5h0a.62.62,0,0,1,.07-.19.49.49,0,0,1,.49-.23h0a.64.64,0,0,1,.18.06,5.35,5.35,0,0,1,.75.58h0A4.52,4.52,0,0,1,29.79,23.38Z"/></g></svg>