<svg xmlns="http://www.w3.org/2000/svg" viewBox="0 0 50 50"><path class="medium-blue" d="M5.75 32.8h-.11c-.22 0-.79-.14-.86-2.27.5-11.65 13.44-11.92 13.82-11.92s1.4 0 1.54.62c.05.26.17.79-2 1.69A16.31 16.31 0 0 0 6.87 31.46c-.19.54-.51 1.34-1.12 1.34zm.25-.89zm12.6-12.3A17.85 17.85 0 0 0 12.3 21a10.19 10.19 0 0 0-6.52 9.52 7.12 7.12 0 0 0 .07.79l.07-.18S8.53 22.27 17.86 20c.24-.13.51-.27.74-.39zm0-.5zM37 9.67h-.11a.5.5 0 0 1-.37-.6L37 7.11a.5.5 0 0 1 1 .22l-.45 1.95a.5.5 0 0 1-.55.39zm1.12-4.87h-.11a.5.5 0 0 1-.37-.6l.41-1.78a.5.5 0 0 1 1 .22l-.41 1.78a.5.5 0 0 1-.47.37zm2 6.69a.5.5 0 0 1-.3-.9l1.61-1.19a.5.5 0 0 1 .59.8l-1.61 1.19a.5.5 0 0 1-.29.1zm4-3a.5.5 0 0 1-.3-.9l1.61-1.19a.5.5 0 1 1 .59.8l-1.58 1.22a.5.5 0 0 1-.3.1zm4.21 6.71l-2-.15a.5.5 0 0 1 .07-1l2 .15a.5.5 0 0 1 0 1zm-5-.38l-2-.15a.5.5 0 1 1 .08-1l2 .15a.5.5 0 0 1 0 1zm1.18 7.94a.5.5 0 0 1-.38-.17l-1-1.2a.5.5 0 1 1 .76-.65l1 1.2a.5.5 0 0 1-.38.83zm-3-3.48a.5.5 0 0 1-.38-.17l-1.3-1.52a.5.5 0 0 1 .76-.65l1.3 1.52a.5.5 0 0 1-.38.83zm-6.02-9.55a.5.5 0 0 0 .32-.63l-.75-2.3a.5.5 0 1 0-1 .31l.75 2.29a.5.5 0 0 0 .48.34zm3.53.36l1.38-2.38a.5.5 0 1 0-.87-.5l-1.38 2.37a.5.5 0 0 0 .87.5zm2.29 3L44 12a.5.5 0 0 0-.39-.92l-2.69 1.12a.5.5 0 0 0 .39.92zm2.94 4.26a.5.5 0 0 0-.24-.66l-2.71-1.25a.5.5 0 1 0-.42.91l2.71 1.25a.5.5 0 0 0 .66-.24zm-10.31-6.66a.5.5 0 0 1-.44-.26l-1-1.75a.5.5 0 1 1 .88-.48l1 1.75a.5.5 0 0 1-.2.68.49.49 0 0 1-.24.06zm-2.42-4.37a.5.5 0 0 1-.44-.26l-.7-1.26a.5.5 0 1 1 .88-.48L32 5.57a.5.5 0 0 1-.2.68.49.49 0 0 1-.28.07zm6.16 6.94a2.19 2.19 0 0 0-1.68-.59 4 4 0 0 0-2.64 1.21l-.85.85-.33-.28a14.26 14.26 0 0 0-5-2.66c-1.71-.45-3-.23-3.7.62v.08l-.08.07v.06l-.77 1a17.42 17.42 0 1 0 12.08 10.7L36 22.58l.11-.11c1.18-1.49-.07-4.43-2.86-7l.8-.8a3 3 0 0 1 2-.92A1.2 1.2 0 0 1 37 14a.5.5 0 0 0 .71-.71zm-15.43 2.42l.75-1c.36 1.75 1.92 4 4.31 5.85a14.26 14.26 0 0 0 5 2.66 5.88 5.88 0 0 0 1.75.23l-.56.71c-.41.52-1.38.62-2.66.28a13.24 13.24 0 0 1-4.6-2.47c-3.02-2.36-4.4-5.03-3.99-6.26zm12.53 14.87a16.46 16.46 0 1 1-12.89-16l-.08.1a.49.49 0 0 0-.18.14c-1.32 1.67.41 5.17 3.94 8a14.26 14.26 0 0 0 5 2.66 6.26 6.26 0 0 0 1.59.23 2.87 2.87 0 0 0 1.71-.48 16.39 16.39 0 0 1 .91 5.35zm.55-8.74c-.41.51-1.38.62-2.66.28a13.26 13.26 0 0 1-4.6-2.47 13.25 13.25 0 0 1-3.45-3.92c-.62-1.17-.74-2.14-.33-2.66a1.62 1.62 0 0 1 1.32-.48 5.3 5.3 0 0 1 1.34.2 13.23 13.23 0 0 1 4.6 2.47l.24.21L30 17.26a.5.5 0 1 0 .71.71l1.86-1.86c2.49 2.34 3.49 4.78 2.75 5.7z"/></svg>