<svg xmlns="http://www.w3.org/2000/svg" xmlns:xlink="http://www.w3.org/1999/xlink" width="296.6" height="153.87" viewBox="0 0 296.6 153.87">
  <defs>
    <clipPath id="clip-path">
      <path d="M218.11,68.41l-25.34,7.4a1.07,1.07,0,0,1,.32,0l25.34-7.4A1.07,1.07,0,0,0,218.11,68.41Z" style="fill: #fff;stroke: #373e5a;stroke-linecap: round;stroke-linejoin: round"/>
    </clipPath>
    <clipPath id="clip-path-2">
      <path d="M259,144.28l25.34-7.4a1.12,1.12,0,0,0,.79-1.07l-25.34,7.4A1.12,1.12,0,0,1,259,144.28Z" style="fill: #fff;stroke: #373e5a;stroke-linecap: round;stroke-linejoin: round"/>
    </clipPath>
    <clipPath id="clip-path-3">
      <path d="M259.86,78.08l25.34-7.4a1.15,1.15,0,0,0-1.11-1.16l-25.34,7.4A1.15,1.15,0,0,1,259.86,78.08Z" style="fill: #fff;stroke: #373e5a;stroke-linecap: round;stroke-linejoin: round"/>
    </clipPath>
  </defs>
  <title>icon-hosting-providers</title>
  <g id="Layer_2" data-name="Layer 2">
    <g id="_1200" data-name="1200">
      <g id="Who_Benefits" data-name="Who Benefits">
        <g id="reseller-web-hosting-providers-icon">
          <path d="M234.2,46.83A17.52,17.52,0,0,0,220,37.69c-.32,0-.64,0-1,0,0-.25,0-.49,0-.74a20.56,20.56,0,0,0-34.13-15.47,17.07,17.07,0,0,0-28.18,13s0,0,0,.05c-.34,0-.67-.05-1-.05a16.11,16.11,0,0,0-6.36,30.9,17.33,17.33,0,0,0,13.2,7.5,16.72,16.72,0,0,0,4.17-.3A28.54,28.54,0,0,0,173,78.47a25.78,25.78,0,0,0,16.7,4.6,25.79,25.79,0,0,0,17.11-2.7,28.55,28.55,0,0,0,6.87-5.14,16.73,16.73,0,0,0,4.11.76,17.41,17.41,0,0,0,14.57-6.72,11.28,11.28,0,1,0,1.82-22.42Z" style="fill: #fff;stroke: #373e5a;stroke-linecap: round;stroke-linejoin: round"/>
          <path d="M143,20.62q-1.19.17-2.38.45a26,26,0,0,0-11.13,5.74" style="fill: #fff;stroke: #373e5a;stroke-linecap: round;stroke-linejoin: round"/>
          <g>
            <path d="M205.51,48.68a17.64,17.64,0,0,0,1.24-8.1c-.73-9.21-8.28-16.12-16.85-15.44-.42,0-.84.09-1.25.16a24,24,0,0,0-20.94-9.7,22.93,22.93,0,0,0-3.89.65C157.44,6.79,146.79,1,135.22,1.9a30.94,30.94,0,0,0-22.58,12.93,20.5,20.5,0,0,0-3.23,0A21.28,21.28,0,0,0,93,25.1a16.82,16.82,0,0,0-3.26,8.73,24.89,24.89,0,0,0-.32,3.31l-.4,0a14.39,14.39,0,0,0-11,8.42,9.27,9.27,0,1,0,3,18.24,14.31,14.31,0,0,0,12.37,4.55,13.75,13.75,0,0,0,3.31-.89,23.46,23.46,0,0,0,6,3.76,21.82,21.82,0,0,0,7.89,1.79,25.14,25.14,0,0,0,37.25-4.1A30.61,30.61,0,0,0,157,64a23.23,23.23,0,0,0,14.86,4,22.84,22.84,0,0,0,8-2.12" style="fill: #fff;stroke: #373e5a;stroke-linecap: round;stroke-linejoin: round"/>
            <path d="M133.39,10.92q-1.3.29-2.59.71A28.89,28.89,0,0,0,119,19" style="fill: #fff;stroke: #373e5a;stroke-linecap: round;stroke-linejoin: round"/>
          </g>
          <g>
            <g>
              <path d="M219.72,126c0,4.89-9.6,8.85-21.44,8.85s-21.44-4-21.44-8.85V87.22c0-.8,9.6-1.46,21.44-1.46s21.44.65,21.44,1.46v39" style="fill: #fff;stroke: #373e5a;stroke-miterlimit: 10"/>
              <path d="M219.72,87.22c0,.8-9.6,1.46-21.44,1.46s-21.44-.65-21.44-1.46" style="fill: none;stroke: #373e5a;stroke-linecap: round;stroke-linejoin: round"/>
              <ellipse cx="198.28" cy="87.22" rx="15.32" ry="1.04" style="fill: #fff;stroke: #373e5a;stroke-linecap: round;stroke-linejoin: round"/>
            </g>
            <path d="M219.72,96.46c0,1.48-9.6,2.68-21.44,2.68s-21.44-1.2-21.44-2.68" style="fill: none;stroke: #373e5a;stroke-linecap: round;stroke-linejoin: round"/>
            <path d="M219.72,107c0,2.21-9.6,4-21.44,4s-21.44-1.79-21.44-4" style="fill: none;stroke: #373e5a;stroke-linecap: round;stroke-linejoin: round"/>
            <path d="M219.72,117.58c0,3.22-9.6,5.83-21.44,5.83s-21.44-2.61-21.44-5.83" style="fill: none;stroke: #373e5a;stroke-linecap: round;stroke-linejoin: round"/>
          </g>
          <g>
            <g>
              <path d="M170.57,126c0,4.89-9.6,8.85-21.44,8.85s-21.44-4-21.44-8.85V87.22c0-.8,9.6-1.46,21.44-1.46s21.44.65,21.44,1.46v39" style="fill: #fff;stroke: #373e5a;stroke-miterlimit: 10"/>
              <path d="M170.57,87.22c0,.8-9.6,1.46-21.44,1.46s-21.44-.65-21.44-1.46" style="fill: none;stroke: #373e5a;stroke-linecap: round;stroke-linejoin: round"/>
              <ellipse cx="149.12" cy="87.22" rx="15.32" ry="1.04" style="fill: #fff;stroke: #373e5a;stroke-linecap: round;stroke-linejoin: round"/>
            </g>
            <path d="M170.57,96.46c0,1.48-9.6,2.68-21.44,2.68s-21.44-1.2-21.44-2.68" style="fill: none;stroke: #373e5a;stroke-linecap: round;stroke-linejoin: round"/>
            <path d="M170.57,107c0,2.21-9.6,4-21.44,4s-21.44-1.79-21.44-4" style="fill: none;stroke: #373e5a;stroke-linecap: round;stroke-linejoin: round"/>
            <path d="M170.57,117.58c0,3.22-9.6,5.83-21.44,5.83s-21.44-2.61-21.44-5.83" style="fill: none;stroke: #373e5a;stroke-linecap: round;stroke-linejoin: round"/>
          </g>
          <g>
            <g>
              <path d="M121.41,126c0,4.89-9.6,8.85-21.44,8.85s-21.44-4-21.44-8.85V87.22c0-.8,9.6-1.46,21.44-1.46s21.44.65,21.44,1.46v39" style="fill: #fff;stroke: #373e5a;stroke-miterlimit: 10"/>
              <path d="M121.41,87.22c0,.8-9.6,1.46-21.44,1.46S78.53,88,78.53,87.22" style="fill: none;stroke: #373e5a;stroke-linecap: round;stroke-linejoin: round"/>
              <ellipse cx="99.97" cy="87.22" rx="15.32" ry="1.04" style="fill: #fff;stroke: #373e5a;stroke-linecap: round;stroke-linejoin: round"/>
            </g>
            <path d="M121.41,96.46c0,1.48-9.6,2.68-21.44,2.68s-21.44-1.2-21.44-2.68" style="fill: none;stroke: #373e5a;stroke-linecap: round;stroke-linejoin: round"/>
            <path d="M121.41,107c0,2.21-9.6,4-21.44,4s-21.44-1.79-21.44-4" style="fill: none;stroke: #373e5a;stroke-linecap: round;stroke-linejoin: round"/>
            <path d="M121.41,117.58c0,3.22-9.6,5.83-21.44,5.83s-21.44-2.61-21.44-5.83" style="fill: none;stroke: #373e5a;stroke-linecap: round;stroke-linejoin: round"/>
          </g>
          <g id="source">
            <path d="M150,76.17a1.8,1.8,0,0,1-1.8-1.8V62.08a1.8,1.8,0,1,1,3.59,0v12.3A1.8,1.8,0,0,1,150,76.17Z" style="fill: #fff;stroke: #373e5a;stroke-miterlimit: 10"/>
            <path d="M196.61,82.06V76.94H159.18a1.8,1.8,0,0,1,0-3.59h39.23a1.8,1.8,0,0,1,1.8,1.8v6.92" style="fill: #fff;stroke: #373e5a;stroke-miterlimit: 10"/>
            <path d="M98.15,87.24V75.14a1.8,1.8,0,0,1,1.8-1.8h42.32a1.8,1.8,0,0,1,0,3.59H101.75v10.3" style="fill: #fff;stroke: #373e5a;stroke-miterlimit: 10"/>
            <rect x="139.58" y="72.07" width="20.75" height="6.15" rx="1.21" ry="1.21" style="fill: #f8f9fa;stroke: #373e5a;stroke-miterlimit: 10"/>
          </g>
          <g>
            <path d="M125.11,141C63.36,150.1,2.76,141,2.76,141S.5,140.48.5,139.87V126c0-12.81,0-24.91,21-31.82,13.84-4.54,21.33-9.79,24.85-17.5a47.11,47.11,0,0,1-4.92-7.43l0-.07a65.84,65.84,0,0,1-4-14.06,24.2,24.2,0,0,1-1.91-2.91,13.56,13.56,0,0,1-2.24-5.94l0-.54c-.18-6-.06-9.44,1.15-10.68a1.8,1.8,0,0,1,.59-.41c-1-2.87-1.8-7.4-.35-11A43.3,43.3,0,0,1,37.44,18l-1,0a1.12,1.12,0,0,1-.59-2.06s1.49-1,4.23-5A23.37,23.37,0,0,1,54.84.87a27.37,27.37,0,0,1,9.25.08A27.37,27.37,0,0,1,73.35.87a23.37,23.37,0,0,1,14.76,10c2.74,3.93,4.22,5,4.24,5a1.12,1.12,0,0,1-.6,2l-1,0a43.3,43.3,0,0,1,2.74,5.67c1.45,3.57.69,8.1-.35,11a1.8,1.8,0,0,1,.59.41c1.2,1.24,1.33,4.71,1.15,10.68l0,.54a13.55,13.55,0,0,1-2.24,5.94,24.2,24.2,0,0,1-1.91,2.91,65.84,65.84,0,0,1-4,14.06l0,.07a47.56,47.56,0,0,1-5.83,8.53c3.72,7.12,11,12,24.31,16.39,21.07,6.9,21.06,19,21,31.82v13a3.28,3.28,0,0,1-.22,1.22A1.36,1.36,0,0,1,125.11,141Z" style="fill: #fff;stroke: #373e5a;stroke-miterlimit: 10"/>
            <path d="M112.93,129.68s1.83,4.63,1.56,12.7" style="fill: none;stroke: #373e5a;stroke-linecap: round;stroke-linejoin: round"/>
            <path d="M14.12,129.68s-1.83,4.63-1.56,12.7" style="fill: none;stroke: #373e5a;stroke-linecap: round;stroke-linejoin: round"/>
          </g>
          <path d="M114.48,58.58A23.8,23.8,0,0,0,130.56,61s10.4,9.85,24.67,1.52" style="fill: #fff;stroke: #373e5a;stroke-linecap: round;stroke-linejoin: round"/>
          <path d="M138,52c.75-.25,22.25,2.5,22.25,2.5l.25,5.75L151,64s-12-1.75-12-2.5S138,52,138,52Z" style="fill: #fff"/>
          <g>
            <g>
              <g style="isolation: isolate">
                <g style="isolation: isolate">
                  <path d="M218.11,68.41l-25.34,7.4a1.07,1.07,0,0,1,.32,0l25.34-7.4A1.07,1.07,0,0,0,218.11,68.41Z" style="fill: #fff"/>
                  <g style="clip-path: url(#clip-path)">
                    <g style="isolation: isolate">
                      <path d="M193.08,75.77l25.34-7.4h-.07L193,75.77h.07" style="fill: #fff;stroke: #373e5a;stroke-linecap: round;stroke-linejoin: round"/>
                      <path d="M193,75.77l25.34-7.4a1.07,1.07,0,0,0-.26,0l-25.34,7.4a1.07,1.07,0,0,1,.26,0" style="fill: #fff;stroke: #373e5a;stroke-linecap: round;stroke-linejoin: round"/>
                    </g>
                  </g>
                  <path d="M218.11,68.41l-25.34,7.4a1.07,1.07,0,0,1,.32,0l25.34-7.4A1.07,1.07,0,0,0,218.11,68.41Z" style="fill: none;stroke: #373e5a;stroke-linecap: round;stroke-linejoin: round"/>
                </g>
                <g style="isolation: isolate">
                  <path d="M259,144.28l25.34-7.4a1.12,1.12,0,0,0,.79-1.07l-25.34,7.4A1.12,1.12,0,0,1,259,144.28Z" style="fill: #fff"/>
                  <g style="clip-path: url(#clip-path-2)">
                    <g style="isolation: isolate">
                      <path d="M259,144.28l25.34-7.4a1.12,1.12,0,0,0,.79-1.07l-25.34,7.4a1.12,1.12,0,0,1-.79,1.07" style="fill: #fff;stroke: #373e5a;stroke-linecap: round;stroke-linejoin: round"/>
                    </g>
                  </g>
                  <path d="M259,144.28l25.34-7.4a1.12,1.12,0,0,0,.79-1.07l-25.34,7.4A1.12,1.12,0,0,1,259,144.28Z" style="fill: none;stroke: #373e5a;stroke-linecap: round;stroke-linejoin: round"/>
                </g>
                <polygon points="258.75 76.91 284.1 69.52 218.43 68.37 193.08 75.77 258.75 76.91" style="fill: #fff;stroke: #373e5a;stroke-linecap: round;stroke-linejoin: round"/>
                <polygon points="259.75 143.21 285.09 135.81 285.2 70.68 259.86 78.08 259.75 143.21" style="fill: #fff;stroke: #373e5a;stroke-linecap: round;stroke-linejoin: round"/>
                <path d="M193.08,75.77A1.1,1.1,0,0,0,192,76.89L191.86,142a1.14,1.14,0,0,0,1.11,1.15l65.67,1.15a1.11,1.11,0,0,0,1.11-1.12l.11-65.13a1.15,1.15,0,0,0-1.11-1.16Z" style="fill: #fff;stroke: #373e5a;stroke-linecap: round;stroke-linejoin: round"/>
                <g style="isolation: isolate">
                  <path d="M259.86,78.08l25.34-7.4a1.15,1.15,0,0,0-1.11-1.16l-25.34,7.4A1.15,1.15,0,0,1,259.86,78.08Z" style="fill: #fff"/>
                  <g style="clip-path: url(#clip-path-3)">
                    <g style="isolation: isolate">
                      <path d="M259.86,78.08l25.34-7.4a1.18,1.18,0,0,0-.46-.94l-25.34,7.4a1.18,1.18,0,0,1,.46.94" style="fill: #fff;stroke: #373e5a;stroke-linecap: round;stroke-linejoin: round"/>
                      <path d="M259.4,77.14l25.34-7.4a1.13,1.13,0,0,0-.22-.13L259.18,77a1.13,1.13,0,0,1,.22.13" style="fill: #fff;stroke: #373e5a;stroke-linecap: round;stroke-linejoin: round"/>
                      <path d="M259.18,77l25.34-7.4-.22-.07L259,76.94l.22.07" style="fill: #fff;stroke: #373e5a;stroke-linecap: round;stroke-linejoin: round"/>
                      <path d="M259,76.94l25.34-7.4-.2,0-25.34,7.4.2,0" style="fill: #fff;stroke: #373e5a;stroke-linecap: round;stroke-linejoin: round"/>
                    </g>
                  </g>
                  <path d="M259.86,78.08l25.34-7.4a1.15,1.15,0,0,0-1.11-1.16l-25.34,7.4A1.15,1.15,0,0,1,259.86,78.08Z" style="fill: none;stroke: #373e5a;stroke-linecap: round;stroke-linejoin: round"/>
                </g>
              </g>
              <polygon points="279.22 72.14 279.34 98.82 269.86 101.75 269.86 74.83 279.22 72.14" style="fill: #fff;stroke: #373e5a;stroke-linecap: round;stroke-linejoin: round"/>
              <polygon points="200.58 73.42 269.74 74.71 279.46 71.79 214.39 70.03 200.58 73.42" style="fill: #fff;stroke: #373e5a;stroke-linecap: round;stroke-linejoin: round"/>
              <line x1="274.86" y1="100.4" x2="274.86" y2="138.03" style="fill: none;stroke: #373e5a;stroke-linecap: round;stroke-linejoin: round"/>
            </g>
            <g id="Logo_Mark" data-name="Logo Mark">
              <g>
                <path d="M232.95,88a12.05,12.05,0,0,1,4.46.76,12.73,12.73,0,0,1,8,13.61,10.84,10.84,0,0,1,7.87,10.51,11.16,11.16,0,0,1-10.79,11.25,2.34,2.34,0,0,1-2.1-1.23L237,116.66l-3.76,6.41a2.41,2.41,0,0,1-2,1.21,2.36,2.36,0,0,1-2.1-1.23l-5-9.15a2.51,2.51,0,0,1,.93-3.35,2.35,2.35,0,0,1,3.25.91l3,5.48,3.75-6.4a2.46,2.46,0,0,1,2.07-1.22,2.37,2.37,0,0,1,2.07,1.23l4.63,8.46a6.26,6.26,0,0,0,4.68-6.09,6,6,0,0,0-6-6.06,2.38,2.38,0,0,1-2.4-2.41,2.52,2.52,0,0,1,.19-1,8,8,0,0,0-4.54-10.16,7.41,7.41,0,0,0-2.72-.46,8.43,8.43,0,0,0-7.65,5.36,2.61,2.61,0,0,0,.15-.93,2.42,2.42,0,0,0-.88-1.84,15.6,15.6,0,0,0-2.38-1.61A13.32,13.32,0,0,1,232.95,88Z" style="fill: #1976CC"/>
                <polygon points="222.23 99.68 222.28 99.7 222.24 99.69 222.23 99.68" style="fill: #106235"/>
                <path d="M214.5,91.94a15.55,15.55,0,0,1,7.73,1.91,12.94,12.94,0,0,0-1.37,2.69,2.51,2.51,0,0,0-.16.88,2.44,2.44,0,0,0,.85,1.86,10.9,10.9,0,0,0-7-2.44,11.51,11.51,0,0,0-11.12,11.61,11.08,11.08,0,0,0,11.16,11.22l8.29-.14a2.38,2.38,0,0,1,2.4,2.41,2.47,2.47,0,0,1-2.39,2.49l-8.29.14a15.84,15.84,0,0,1-16-16A16.45,16.45,0,0,1,214.5,91.94Z" style="fill: #1976CC"/>
                <polygon points="224.96 98.9 224.95 98.91 224.9 98.95 224.96 98.9" style="fill: #106235"/>
                <polygon points="224.96 98.9 224.95 98.91 224.9 98.95 224.96 98.9" style="fill: #565656"/>
                <path d="M222.23,93.85a15.6,15.6,0,0,1,2.38,1.61,2.42,2.42,0,0,1,.88,1.84,2.52,2.52,0,0,1-.16.94l-.06.15,0,.08-.06.11-.07.11,0,.07-.1.14-.05.05-.1.13-.07.06-.11.1-.09.07-.09.06-.11.08-.09,0-.12.06-.08,0-.12,0-.11,0-.11,0-.12,0-.1,0-.13,0h-.57l-.11,0-.14,0-.08,0-.18-.06-.05,0-.17-.07-.06,0-.12-.07-.09-.05-.08-.05-.12-.1a2.44,2.44,0,0,1-.89-1.9,2.51,2.51,0,0,1,.16-.88A12.94,12.94,0,0,1,222.23,93.85Z" style="fill: #1976CC"/>
              </g>
            </g>
          </g>
          <g>
            <polygon points="294.1 128.15 290.25 130.07 289.07 134.69 291.46 138.38 290.39 140.28 286.15 139.89 283.14 143.04 283.51 147.5 281.7 148.61 278.18 146.1 273.77 147.35 271.94 151.38 269.83 151.38 268 147.35 263.6 146.1 260.07 148.61 258.26 147.5 258.63 143.04 255.63 139.89 251.38 140.28 250.31 138.38 252.71 134.69 251.52 130.07 247.67 128.15 247.67 125.95 251.52 124.03 252.71 119.41 250.31 115.72 251.38 113.82 255.63 114.2 258.63 111.05 258.26 106.6 260.07 105.49 263.6 107.99 268 106.75 269.83 102.72 271.94 102.72 273.77 106.75 278.18 107.99 281.7 105.49 283.51 106.6 283.14 111.05 286.14 114.2 290.39 113.82 291.46 115.72 289.07 119.41 290.25 124.03 294.1 125.95 294.1 128.15" style="fill: #fff;stroke: #fff;stroke-miterlimit: 10;stroke-width: 5px"/>
            <polygon points="294.1 128.15 290.25 130.07 289.07 134.69 291.46 138.38 290.39 140.28 286.15 139.89 283.14 143.04 283.51 147.5 281.7 148.61 278.18 146.1 273.77 147.35 271.94 151.38 269.83 151.38 268 147.35 263.6 146.1 260.07 148.61 258.26 147.5 258.63 143.04 255.63 139.89 251.38 140.28 250.31 138.38 252.71 134.69 251.52 130.07 247.67 128.15 247.67 125.95 251.52 124.03 252.71 119.41 250.31 115.72 251.38 113.82 255.63 114.2 258.63 111.05 258.26 106.6 260.07 105.49 263.6 107.99 268 106.75 269.83 102.72 271.94 102.72 273.77 106.75 278.18 107.99 281.7 105.49 283.51 106.6 283.14 111.05 286.14 114.2 290.39 113.82 291.46 115.72 289.07 119.41 290.25 124.03 294.1 125.95 294.1 128.15" style="fill: #fff;stroke: #373e5a;stroke-miterlimit: 10"/>
            <ellipse cx="270.89" cy="127.05" rx="14.79" ry="15.5" style="fill: none;stroke: #373e5a;stroke-linecap: round;stroke-linejoin: round;stroke-dasharray: 2.003669261932373,3.0055038928985596"/>
            <ellipse cx="270.89" cy="127.05" rx="11.05" ry="11.58" style="fill: none;stroke: #373e5a;stroke-miterlimit: 10"/>
            <path d="M262.11,133.94a12,12,0,0,1-1.12-5.08,11.32,11.32,0,0,1,11-11.58,10.85,10.85,0,0,1,8.64,4.36" style="fill: none;stroke: #373e5a;stroke-miterlimit: 10"/>
          </g>
        </g>
      </g>
    </g>
  </g>
</svg>
