<svg xmlns="http://www.w3.org/2000/svg" viewBox="0 0 25 25"><path class="blue" d="M16.92,2.79H8.17a7.79,7.79,0,0,0-8,8.1,7.79,7.79,0,0,0,8,8.1h7.91l5,3.58a.52.52,0,0,0,.29.09.78.78,0,0,0,.21,0,.52.52,0,0,0,.29-.41l.56-5.29a8.24,8.24,0,0,0,2.48-6A7.78,7.78,0,0,0,16.92,2.79Zm4.71,13.52a.49.49,0,0,0-.16.32L21,21.25l-4.45-3.17a.48.48,0,0,0-.29-.09H8.17a6.74,6.74,0,0,1-7-7.1,6.74,6.74,0,0,1,7-7.1h8.75a6.75,6.75,0,0,1,7,7.1A7.21,7.21,0,0,1,21.63,16.31ZM7.91,11.5a1,1,0,1,1-1-1A1,1,0,0,1,7.91,11.5Zm3.73,0a1,1,0,1,1-1-1A1,1,0,0,1,11.64,11.5Zm3.72,0a1,1,0,1,1-1-1A1,1,0,0,1,15.36,11.5Zm3.73,0a1,1,0,1,1-1-1A1,1,0,0,1,19.09,11.5Z"/></svg>