<svg xmlns="http://www.w3.org/2000/svg" width="43.04" height="36.42" viewBox="0 0 43.04 36.42">
  <title>icon-blue-cloud-server</title>
  <g id="Layer_2" data-name="Layer 2">
    <g id="Benefits_-_1200" data-name="Benefits - 1200">
      <g id="More_Benefits" data-name="More Benefits">
        <path d="M14.73,27.07c-.21,0-.42,0-.63,0a9.63,9.63,0,0,1-8.26-5,8.42,8.42,0,0,1-5.45-5.6,8,8,0,0,1,5-10.1,7.35,7.35,0,0,1,.84-.2A10.72,10.72,0,0,1,12.72.46,10.79,10.79,0,0,1,23.16,2.93a8.14,8.14,0,0,1,1-.37,8.39,8.39,0,0,1,7.66,1.55l.15,0a5.42,5.42,0,0,1,4.33.53,6.25,6.25,0,0,1,2.65,7.62l-.8-.7a5.29,5.29,0,0,0-2.35-6.05A4.43,4.43,0,0,0,32.23,5h0l-.35.12a.5.5,0,0,1-.51-.08,7.4,7.4,0,0,0-6.95-1.54A7.22,7.22,0,0,0,23.3,4a.5.5,0,0,1-.57-.08,10.1,10.1,0,0,0-7-2.89A9.42,9.42,0,0,0,13,1.41,9.74,9.74,0,0,0,7,6.89a.5.5,0,0,1-.39.29,6.28,6.28,0,0,0-1,.21,7,7,0,0,0-4.29,8.85,7.39,7.39,0,0,0,5,5,.5.5,0,0,1,.31.24,8.55,8.55,0,0,0,8.32,4.59,2,2,0,0,0-.21.88S14.72,27,14.73,27.07ZM34,17.4h2.09a.5.5,0,0,0,0-1H34a.5.5,0,0,0,0,1Zm2.09,9.06H34a.5.5,0,0,0,0,1h2.09a.5.5,0,0,0,0-1Zm4,3.52c-1.35.06-2.72,0-4.07,0s-2.59-.05-3.88,0a3.13,3.13,0,0,0-3,2.15,3,3,0,0,0-.09.52v.86H41.5a.53.53,0,0,1,0,1.06H29.12v1.31a.53.53,0,0,1-1.06,0V34.58H16.56a.53.53,0,0,1,0-1.06h11.5v-.73a5.25,5.25,0,0,0-.2-.81,3.28,3.28,0,0,0-3-2c-1.41-.06-2.83,0-4.24,0a28.2,28.2,0,0,1-4.07,0c-2.39-.36-3.54-4.14-1.48-5.62a3.35,3.35,0,0,1,.13-4.93,3.08,3.08,0,0,1-1.11-2.82A2.87,2.87,0,0,1,14.61,15a2.77,2.77,0,0,1,.36-.4.31.31,0,0,1-.06-.34c.46-.95.06-.1.17-.28a8.13,8.13,0,0,1,1.28-1.2l1.92-1.8a6,6,0,0,1,3.88-1.85c1-.07,2,0,3,0q3,0,6,0c1,0,2,0,3,0A6.08,6.08,0,0,1,38,10.76l3.28,2.87a4.48,4.48,0,0,1,1.7,3.6,2.72,2.72,0,0,1-1.11,2.17,3.34,3.34,0,0,1,0,5.08A3.1,3.1,0,0,1,40.13,30ZM16.67,13.83H40c-1.39-1.21-2.92-3.11-4.75-3.58a21.72,21.72,0,0,0-5.15-.19H25.88c-1.65,0-3.74-.27-5.3.4S17.84,12.73,16.67,13.83Zm1.71,5H38.51c1.31,0,3.49.31,3.49-1.64,0-1.34-.41-2.33-1.89-2.4-.89,0-1.8,0-2.69,0H19.13c-1.78,0-4.14-.35-4,2.21C15.19,19.08,16.91,18.87,18.38,18.87ZM15.65,23.5c.54.49,1.13.39,1.8.39l3.25,0c3.37,0,6.73,0,10.08,0h9.32c1.51,0,1.91-1,1.91-2.33,0-2.1-2.71-1.64-4.09-1.64H17.48a6.42,6.42,0,0,0-1,0C14.94,20.2,14.64,22.58,15.65,23.5ZM42,26.76c0-2.06-2.11-1.8-3.5-1.8H17.31A4.43,4.43,0,0,0,16,25c-.92.33-.94,1.43-.84,2.25.23,2,2.2,1.73,3.65,1.73h5.16c1.85,0,3.63.37,4.63,2.14C30,28.41,33.39,29,36,29c1.25,0,2.49,0,3.74,0A2,2,0,0,0,42,26.76Zm-8-4.32h2.09a.5.5,0,0,0,0-1H34a.5.5,0,0,0,0,1Z" style="fill: #03a9f4"/>
      </g>
    </g>
  </g>
</svg>
