<svg xmlns="http://www.w3.org/2000/svg" width="393" height="482.4" viewBox="0 0 393 482.4">
  <title>icon-bug-3</title>
  <g id="Layer_2" data-name="Layer 2">
    <g id="Home_-_1200" data-name="Home - 1200">
      <g id="Web_Security" data-name="Web Security">
        <g id="Illustration">
          <g id="Malware">
            <g>
              <g>
                <path d="M392.5,481.9l-2-.11" style="fill: none;stroke: #969c9c;stroke-linecap: round;stroke-linejoin: round"/>
                <path d="M379.77,481c-6.13-.55-14.16-1.39-23.37-2.67" style="fill: none;stroke: #969c9c;stroke-linecap: round;stroke-linejoin: round;stroke-dasharray: 5.879024982452393,3.9193499088287354,10.778212547302246,5.879024982452393"/>
                <path d="M353.49,477.91c-59.65-8.66-163.44-35.22-131.56-114,44-108.73,162.87-170.49,42.92-175.93S256,147.47,204.32,85.79C160.52,33.55,100.47,36,83.11,38" style="fill: none;stroke: #969c9c;stroke-linecap: round;stroke-linejoin: round;stroke-dasharray: 3.9193499088287354,10.778212547302246,5.879024982452393,3.9193499088287354,10.778212547302246,5.879024982452393"/>
                <path d="M80.2,38.34c-1.28.19-2,.32-2,.32" style="fill: none;stroke: #969c9c;stroke-linecap: round;stroke-linejoin: round"/>
              </g>
              <g id="Bug_3" data-name="Bug 3">
                <g id="Fills">
                  <path d="M96.58,47.7s-.65-.22-.57-.66l.14-.92s0-1.09,1.5-.42a5,5,0,0,1,1,.07,2.88,2.88,0,0,1,.6.13,19.44,19.44,0,0,1,3.17.63,7.23,7.23,0,0,0,1.64.35,10.61,10.61,0,0,0,2.37,0l.83-.1a.45.45,0,0,1,.11.6L106,48.79s-.42.33-.39.57l0,1.43a.71.71,0,0,1-.84.52,4.09,4.09,0,0,0-1.89-1.46S98.36,48.17,96.58,47.7Z" style="fill: #3f4563"/>
                  <path d="M97.87,38.65s4.13,7.5-3.3,17.92c-2.21,3.1-8.89,6.3-12.79,6.93-7.52,1.21-18.25,3.94-37.14-3.95,0,0-15.84-7.08-10.74-22.95s5.37-14.2,5.37-14.2S79.44,4.54,97.87,38.65Z" style="fill: #3f4563"/>
                  <path d="M49,59.15a1,1,0,0,0-1.12,1.17,66.48,66.48,0,0,1,1.72,10c.34,4.51,2.55,6.25,4.57,7.1A1,1,0,0,0,55.36,77h0a3.13,3.13,0,0,1,2.2-1.35l.64-.08s0-1.57-2.55-4.59a24.64,24.64,0,0,1-4.72-10.77,1,1,0,0,0-.79-.9Z" style="fill: #3f4563"/>
                  <path d="M57.94,76.29s-2.41-.51-.73,1.79a29.51,29.51,0,0,0,5.89,7.16,1.19,1.19,0,0,0,.54.26c.85.18,3.22.55,4.32-.77a.63.63,0,0,0,.15-.4c0-.64-.5-2.46-5.47-4.91a15.23,15.23,0,0,1-2.94-1.89Z" style="fill: #3f4563"/>
                  <path d="M77.44,76.39l-2.13-3.09A4.09,4.09,0,0,0,73.53,72L69.76,70.6a11.33,11.33,0,0,1-4.28-2.75C63,65.2,63.39,63.11,63.71,62.3a.55.55,0,0,1,.52-.37c3.26.19,11.12,8.16,11.49,8.53l0,0,3.2,4c-3.94-4.91.47.63.77,1.25s-1.5.82-1.5.82A.63.63,0,0,1,77.44,76.39Z" style="fill: #3f4563"/>
                  <path d="M79.14,78.38s-.64-.46-.45-.89.38-.87.69-1c.57-.29,1.52.21,2,.44.82.35,1.6.82,2.41,1.18a11.57,11.57,0,0,1,1.89,1.1,8.89,8.89,0,0,0,1.67.93,12.52,12.52,0,0,0,2.55.79l.92.18s.29.39,0,.67l-1.89,1s-.53.2-.56.46L88,84.71A.72.72,0,0,1,87,85a5.11,5.11,0,0,0-1.67-2.18S80.93,79.5,79.14,78.38Z" style="fill: #3f4563"/>
                  <path d="M25,55.93l-14.46-.3s-.43,0-.22.46l.4.9a2.11,2.11,0,0,1,.14.88L10.65,61s-.14.5.34.24l3.44-1.76.69.93,7.7-2.78a1.55,1.55,0,0,1,1.12,0c.69.29,1.82.75,2.07.83,0,0,.47.14.47-.34L26,56.23s-.08-.38-.72-.31Z" style="fill: #3f4563"/>
                  <path d="M35.31,50.45c.36.33,1.84,3.35,1.56,3.56a23.9,23.9,0,0,0-3.79,3.6c-1.51,1.87-4.53,1.71-5.73,1a1,1,0,0,1-.43-.82h0a3.48,3.48,0,0,0-.62-1.85L26,55.5s.48-.71,2.56-.67c1.89,0,4.5-3.8,5.51-5a.42.42,0,0,1,.64,0Z" style="fill: #3f4563"/>
                  <path d="M23.31,39.35l-1.52-1.14-5,.48h0l5.75-3.57.09,0h0c.08,0,.14,0,.16,0h0a.11.11,0,0,1,0,.07v0l2.13,2.12" style="fill: #3f4563"/>
                  <path d="M22.87,43.15l-3.52,1.94s-.19.08-.27,0L15.9,43.24s0,0,0,0l3.58.18,2.73-1.59" style="fill: #3f4563"/>
                  <path d="M114,52s-.88.86-.08,1.4a1.61,1.61,0,0,0,.79.3l1,.26.17,0-1-.85.63-.06-.21-.44,1.18.15-1.07-.8C115.12,51.68,114.64,51.39,114,52Z" style="fill: #3f4563"/>
                  <path d="M97.06,86.19s-.61,1.15.41,1.52a1.82,1.82,0,0,0,.93.12l1.13,0h.19l-1.31-.67.64-.23-.37-.42,1.28-.14-1.4-.59C98.17,85.53,97.57,85.35,97.06,86.19Z" style="fill: #3f4563"/>
                  <path d="M2.81,55.8s.81-1-.12-1.57a1.82,1.82,0,0,0-.9-.29L.68,53.71l-.19,0,1.17.9L1,54.68l.29.48L0,55.07l1.27.83A.94.94,0,0,0,2.81,55.8Z" style="fill: #3f4563"/>
                  <path d="M73.23,92.19s.51-1.33,1.55-.76a2,2,0,0,1,.76.69l.83.92.14.15L75,92.59l.27.69h-.61l.8,1.16L74,93.7C73.47,93.57,72.89,93.21,73.23,92.19Z" style="fill: #3f4563"/>
                </g>
                <g id="Fills_and_Lines" data-name="Fills and Lines">
                  <path d="M39.38,38A59,59,0,0,0,54.73,53.77c18.14,12.61,38.4,11.17,45.61,10.3a.78.78,0,0,0,.7-.15c.13-.15.2-.41.05-.89a2.45,2.45,0,0,0-.82-1.11l-8.43-6.83A9.64,9.64,0,0,1,89,52.17,14.29,14.29,0,0,0,83.47,47l-2.73-1.41a18.68,18.68,0,0,1-2.9-1.86l-9.67-5Z" style="fill: #fff;stroke: #3f4563;stroke-linecap: round;stroke-linejoin: round"/>
                  <path d="M35.59,31.26A51.91,51.91,0,0,1,45.7,16.44C58.3,3.55,74.1,1.15,79.76.58c0,0,.35-.16.55,0s.2.29.14.68a2.13,2.13,0,0,1-.51,1L74.19,9a8.48,8.48,0,0,0-1.84,2.75,12.59,12.59,0,0,1-3.72,5l-2,1.56a16.43,16.43,0,0,0-2,1.94l-6.91,5.56Z" style="fill: #fff;stroke: #3f4563;stroke-linecap: round;stroke-linejoin: round"/>
                  <path d="M36.89,30.46a5.89,5.89,0,0,1,.38-5c1.48-2.5,25.94-33.9,58.12-13.72,0,0-3.85-2-15.49-1.18S49.08,16.59,36.89,30.46Z" style="fill: #fff;stroke: #3f4563;stroke-linecap: round;stroke-linejoin: round"/>
                  <path d="M34.3,40.12v0a15.63,15.63,0,0,0,3.3,8.19C42,54,53,63.27,76,59.64c0,0,27.11-1.8,22.24-23.18,0,0-8.64-10.91-38-9.45,0,0-23.93,2.64-25.19,9.41l-.7,2.85A2.63,2.63,0,0,0,34.3,40.12Z" style="fill: #fff;stroke: #3f4563;stroke-linecap: round;stroke-linejoin: round"/>
                </g>
                <g id="Lines">
                  <line x1="43.27" y1="24.69" x2="60.56" y2="14.85" style="fill: none;stroke: #3f4563;stroke-linecap: round;stroke-linejoin: round"/>
                  <polyline points="66.24 16.82 65.29 13.97 59.32 15.91" style="fill: none;stroke: #3f4563;stroke-linecap: round;stroke-linejoin: round"/>
                  <polyline points="60.27 20.76 54.83 21.27 53.14 19.07" style="fill: none;stroke: #3f4563;stroke-linecap: round;stroke-linejoin: round"/>
                  <path d="M5.92,58.5s1.61,2.88,3.53.45c0,0,1.44-2-.33-3A3,3,0,0,0,7,55.58S8.4,57.32,5.92,58.5Z" style="fill: none;stroke: #3f4563;stroke-linecap: round;stroke-linejoin: round"/>
                  <path d="M3.15,56.79s1,1.94,2.33.44c0,0,1-1.25-.15-1.94a2,2,0,0,0-1.38-.36S4.81,56.12,3.15,56.79Z" style="fill: none;stroke: #3f4563;stroke-linecap: round;stroke-linejoin: round"/>
                  <path d="M93.51,84.11s-2.11-2.54-3.56.2c0,0-1,2.25.87,2.84a3,3,0,0,0,2.14,0S91.29,85.72,93.51,84.11Z" style="fill: none;stroke: #3f4563;stroke-linecap: round;stroke-linejoin: round"/>
                  <path d="M96.55,85.28s-1.34-1.73-2.37,0c0,0-.76,1.42.5,1.88a2,2,0,0,0,1.42.1S95,86.24,96.55,85.28Z" style="fill: none;stroke: #3f4563;stroke-linecap: round;stroke-linejoin: round"/>
                  <path d="M68.83,90.13s-3.48-.93-1.43-3.62c0,0,1.75-2.07,3.21-.45a3.24,3.24,0,0,1,1,2.11S69.41,87.2,68.83,90.13Z" style="fill: none;stroke: #3f4563;stroke-linecap: round;stroke-linejoin: round"/>
                  <path d="M72.09,92.24s-2.38.13-1.7-1.95c0,0,.63-1.64,1.9-.93a2.21,2.21,0,0,1,1.1,1.1S71.8,90.31,72.09,92.24Z" style="fill: none;stroke: #3f4563;stroke-linecap: round;stroke-linejoin: round"/>
                  <path d="M111.4,49.47s-1.14-2.63-3.21-.57c0,0-1.58,1.72-.05,2.63A2.69,2.69,0,0,0,110,52S109,50.4,111.4,49.47Z" style="fill: none;stroke: #3f4563;stroke-linecap: round;stroke-linejoin: round"/>
                  <path d="M113.76,51.12a1.22,1.22,0,0,0-2.1-.5s-1.08,1.06-.1,1.72a1.81,1.81,0,0,0,1.23.38S112.13,51.63,113.76,51.12Z" style="fill: none;stroke: #3f4563;stroke-linecap: round;stroke-linejoin: round"/>
                  <path d="M22.66,43.1c.28,1.32,1.38,2.51,4.11,3.11a27.43,27.43,0,0,0,6,.08L35.49,29l-.66-.42s-3.11-1.88-6,2.52l-4,6.47s-2.63,3-2.09,5.58" style="fill: none;stroke: #3f4563;stroke-linecap: round;stroke-linejoin: round"/>
                  <path d="M22.58,42.25a2,2,0,0,0,.59.87c1.09,1,3,.62,4.2-.78s1.34-3.3.25-4.27a4.68,4.68,0,0,1-1.24-3.18S21.88,40.08,22.58,42.25Z" style="fill: none;stroke: #3f4563;stroke-linecap: round;stroke-linejoin: round"/>
                  <path d="M31.44,40.82S25,42,27.43,33.23" style="fill: none;stroke: #3f4563;stroke-linecap: round;stroke-linejoin: round"/>
                </g>
              </g>
            </g>
          </g>
        </g>
      </g>
    </g>
  </g>
</svg>
