<svg xmlns="http://www.w3.org/2000/svg" xmlns:xlink="http://www.w3.org/1999/xlink" width="285.74" height="147" viewBox="0 0 285.74 147">
  <defs>
    <symbol id="spike" data-name="spike" viewBox="0 0 3.47 4.67">
      <path d="M0,3.56,3.47,0,1.67,4.67A3.38,3.38,0,0,1,0,3.56Z" style="fill: #3f4563"/>
    </symbol>
    <symbol id="New_Symbol" data-name="New Symbol" viewBox="0 0 2.11 2.64">
      <path d="M0,1.76,2.11,0,1.7,2.64a3.8,3.8,0,0,1-.94-.35A3.8,3.8,0,0,1,0,1.76Z" style="fill: #3f4563"/>
    </symbol>
  </defs>
  <title>icon-med-biz</title>
  <g id="Layer_2" data-name="Layer 2">
    <g id="Benefits_-_1200" data-name="Benefits - 1200">
      <g id="Target">
        <g>
          <path d="M6.11,146.9l1.18-1.63a6,6,0,0,0,1.83-.06l1.54,1.69,0-2.21a6.07,6.07,0,0,0,1.19-.78l2.46.69-1.25-2.06a6,6,0,0,0,.55-1.07l2.38-.3-2-1.44a6,6,0,0,0,0-1.29l2-1.19-2.48-.53a6.08,6.08,0,0,0-1-1.53l.63-2.22-1.89,1.15a6,6,0,0,0-1.2-.58l-.45-2.26-1.19,1.93a6,6,0,0,0-1.64.12l-1.48-2L5,134a6.1,6.1,0,0,0-1,.69l-2.34-.66,1.2,2a6,6,0,0,0-.56,1.15L0,137.48l2,1.42a6,6,0,0,0,0,1.22l-2,1.39,2.5.34a6.08,6.08,0,0,0,.77,1.21l-.61,2.16,1.76-1.07a6,6,0,0,0,1.42.77Z" style="fill: red"/>
          <path d="M10.78,144.53" style="fill: #75757f"/>
          <line x1="10.77" y1="144.52" x2="10.77" y2="144.52" style="fill: #75757f"/>
        </g>
        <path d="M7.92,143.55A7,7,0,0,0,8,146.39H29.9c.37-.13-.27-.29.07-.48V130.66l-.19,0a1.6,1.6,0,0,0-.89.27,1.77,1.77,0,0,0-3.42-.13,1.52,1.52,0,0,0-.63.19,1.13,1.13,0,0,0-.62-.2,1.15,1.15,0,0,0-1,.61,2.51,2.51,0,0,0-.28-.64,1,1,0,0,0,.16,0A1.09,1.09,0,1,0,22,129.68a1,1,0,0,0,0,.2,2.5,2.5,0,0,0-3.77,1.93,1.49,1.49,0,0,0-2.17.74c-.25.09-.5.19-.74.3a.93.93,0,0,0-1.86.05.92.92,0,0,0,.42.76l-.5.37a1.72,1.72,0,0,0-.77-.19,1.78,1.78,0,0,0-1.64,1.1,1.37,1.37,0,0,0-1.81,2,2.49,2.49,0,0,0-.76,3.26,1.72,1.72,0,0,0-.53,3.32Zm15.35-11a1.42,1.42,0,0,0,.13.15l-.15.07,0,0C23.23,132.7,23.26,132.64,23.27,132.57Z" style="fill: #fff;stroke: #1fc469;stroke-linecap: round;stroke-linejoin: round"/>
        <g>
          <path d="M17.36,147l1.17-1.64a6,6,0,0,0,1.83-.07L21.92,147v-2.21a6.07,6.07,0,0,0,1.19-.79l2.46.68-1.26-2.05a6,6,0,0,0,.54-1.07l2.38-.31-2-1.42a6,6,0,0,0,0-1.29l2-1.2-2.48-.51a6.08,6.08,0,0,0-1-1.53L24.3,133l-1.89,1.16a6,6,0,0,0-1.21-.57l-.47-2.26-1.18,1.93a6,6,0,0,0-1.64.13l-1.49-2-.27,2.64a6.1,6.1,0,0,0-1,.7l-2.34-.65,1.21,2a6,6,0,0,0-.56,1.16l-2.31.3,2,1.41a6,6,0,0,0,.05,1.22l-2,1.41,2.5.33a6.08,6.08,0,0,0,.77,1.2l-.6,2.17,1.75-1.08a6,6,0,0,0,1.43.76Z" style="fill: red"/>
          <path d="M22,144.59" style="fill: #75757f"/>
          <line x1="22.01" y1="144.59" x2="22.01" y2="144.59" style="fill: #75757f"/>
        </g>
        <path d="M192,141.95a1.72,1.72,0,0,0-1.64-1.71,2.49,2.49,0,0,0-.76-3.26,1.37,1.37,0,0,0-1.81-2,1.78,1.78,0,0,0-1.64-1.1,1.72,1.72,0,0,0-.77.19l-.5-.37a.92.92,0,0,0,.42-.76.93.93,0,0,0-1.86-.05c-.24-.11-.49-.21-.74-.3a1.49,1.49,0,0,0-2.17-.74,2.5,2.5,0,0,0-3.77-1.93,1,1,0,0,0,0-.2,1.09,1.09,0,1,0-1.09,1.09,1,1,0,0,0,.16,0,2.51,2.51,0,0,0-.28.64,1.15,1.15,0,0,0-1-.61,1.13,1.13,0,0,0-.62.2,1.52,1.52,0,0,0-.63-.19,1.77,1.77,0,0,0-3.42.13,1.6,1.6,0,0,0-.89-.27l-.19,0v15.25c.34.19-.3.35.07.48h21.89a7,7,0,0,0,.08-2.84A1.72,1.72,0,0,0,192,141.95Zm-16.4-9.18,0,0-.15-.07a1.42,1.42,0,0,0,.13-.15C175.53,132.64,175.55,132.7,175.57,132.77Z" style="fill: #fff;stroke: #1fc469;stroke-linecap: round;stroke-linejoin: round"/>
        <g id="_2" data-name="2">
          <path d="M103.78,27.33a0,0,0,0,0,0-.05" style="fill: #567a81"/>
          <path d="M101.69,27.25a2.24,2.24,0,0,0-.29-.67s0,0,0,0h0a6.55,6.55,0,0,1,.24.68" style="fill: #231f20"/>
          <path d="M82.36,56.12h0a3.17,3.17,0,0,0-.43.13l-.45.15a4,4,0,0,0-.86.39,1.8,1.8,0,0,0-.62.68,1.74,1.74,0,0,0-.16.46.61.61,0,0,0,.06.47s.12.07.15,0a2.23,2.23,0,0,1,.45-.69,1.76,1.76,0,0,1,.75-.43,4.76,4.76,0,0,0,.82-.29.93.93,0,0,0,.5-.56" style="fill: #3f4563"/>
          <path d="M81.71,57.07h0c0,.09,0,.19,0,.29s0,.22-.05.33a3.3,3.3,0,0,1-.19.61.08.08,0,0,0,.11.11,1.7,1.7,0,0,0,.75-.79,1.82,1.82,0,0,0,.15-.54c0-.09.1-.56.12-.64" style="fill: #3f4563"/>
          <path d="M94.2,40.1a2,2,0,0,0-.39.44c-.12.16-.23.33-.33.5a5.14,5.14,0,0,1-.69.9,1.78,1.78,0,0,1-.91.51" style="fill: #231f20"/>
          <path d="M99,35.79" style="fill: #231f20"/>
          <path d="M102,40a3.13,3.13,0,0,1,.36,1" style="fill: #231f20"/>
          <path d="M104.24,45.76a.44.44,0,0,0,.19,0l.22,0,.47-.05a1.3,1.3,0,0,1,.57,0" style="fill: #231f20"/>
          <path d="M97.83,39.32a1.33,1.33,0,0,0,.22-.14l.26-.14a3.46,3.46,0,0,1,.59-.21,3.14,3.14,0,0,1,.54-.1.91.91,0,0,1,.34,0c.1,0,.14-.1.06-.15a.64.64,0,0,0-.39,0,2.91,2.91,0,0,0-.59.11,3.07,3.07,0,0,0-.62.24,1.83,1.83,0,0,0-.26.17.5.5,0,0,0-.19.21,0,0,0,0,0,0,0Z" style="fill: #231f20"/>
          <path d="M101.66,45.82a.33.33,0,0,0,0,.18,1.8,1.8,0,0,1,0,.2,1.3,1.3,0,0,1,0,.22" style="fill: #231f20"/>
          <path d="M109,32.76c-.05-.44-.12-.88-.21-1.32a7.2,7.2,0,0,0-.5-1.6" style="fill: #231f20"/>
          <path d="M110,41.59a5.84,5.84,0,0,0-.22-2.57c-.1-.42-.21-.84-.29-1.27s-.14-.83-.18-1.26c-.13-1.24-.16-2.5-.31-3.74" style="fill: #231f20"/>
          <path d="M114.72,30.42a.92.92,0,0,1-.39.08" style="fill: #567a81;stroke: #c41230;stroke-miterlimit: 10;stroke-width: 0px"/>
          <path d="M115.57,28.83l-.06-.08" style="fill: #567a81"/>
          <path d="M114.11,30.48a.06.06,0,0,0,.1,0" style="fill: #567a81"/>
          <path d="M108.11,29.82c0,.06.11,0,.11,0s0-.2,0-.3a2.31,2.31,0,0,1,0-.33,3.65,3.65,0,0,1,.17-.62c.14-.4.33-.78.44-1.18a2.17,2.17,0,0,0,.08-.62.74.74,0,0,0-.19-.52.27.27,0,0,0-.21-.07.39.39,0,0,0-.23.14,1.9,1.9,0,0,1-.44.34,2.52,2.52,0,0,1-.93.31,1.45,1.45,0,0,1-.44,0,1,1,0,0,1-.4-.17s-.06,0,0,0" style="fill: none"/>
          <path d="M85.44,57.95c-.73.11-1,1-.76,1.66a1.64,1.64,0,0,0,1,.91,3.12,3.12,0,0,0,1,.21,3.82,3.82,0,0,0,1.06-.06A2.51,2.51,0,0,0,89,59.93a1.08,1.08,0,0,0,.29-1.11.06.06,0,0,0-.11,0,1.24,1.24,0,0,1-.06.58,1.4,1.4,0,0,1-.39.53,2.71,2.71,0,0,1-1.66.6A3.7,3.7,0,0,1,86,60.45a2.07,2.07,0,0,1-.71-.32,1.26,1.26,0,0,1-.53-1A1.15,1.15,0,0,1,85.46,58a0,0,0,0,0,0-.08Z" style="fill: #231f20"/>
          <path d="M85.3,60.23h0c-.25.15-.49.34-.73.5l-.17.11c-.05,0-.11.07-.13.14a.3.3,0,0,0,.06.19l.12.2c.07.1.15.26.28.15a2.77,2.77,0,0,0,.3-.35l.26-.35a2.05,2.05,0,0,0,.24-.39" style="fill: #3f4563"/>
          <path d="M84.39,61.05a1.71,1.71,0,0,0-.33.14l-.34.16a5.19,5.19,0,0,1-.71.25.08.08,0,0,0,0,.12c.11.25.39.88.75.6a1.75,1.75,0,0,0,.2-.22l.23-.27.22-.25a1.5,1.5,0,0,0,.21-.27" style="fill: #3f4563"/>
          <path d="M83.08,61.84h0c-.33.11-.64.25-1,.33s-.7.14-1.05.2a.08.08,0,0,0,0,.13,1.38,1.38,0,0,0,.61.26,1.7,1.7,0,0,0,.73,0,1.19,1.19,0,0,0,.88-.76" style="fill: #3f4563"/>
          <path d="M82.55,62.65h0a2.44,2.44,0,0,0-.19.43.86.86,0,0,0-.06.46.08.08,0,0,0,.08.06c.14,0,.27-.14.36-.23a2.51,2.51,0,0,0,.52-.77,1.91,1.91,0,0,0,.2-.64" style="fill: #3f4563"/>
          <path d="M94.57,47.28a1,1,0,0,0,0,.33,1.76,1.76,0,0,0,.16.4,2,2,0,0,0,.53.64c.07.05.18,0,.13-.1A2.05,2.05,0,0,1,95.2,48a2.65,2.65,0,0,1-.06-.31c0-.08,0-.17,0-.26" style="fill: #3f4563"/>
          <path d="M98,47.46l.08.07.22.25a3.11,3.11,0,0,1,.34.54.08.08,0,0,0,.16,0,1.85,1.85,0,0,0-.38-1,1.21,1.21,0,0,0-.57-.38" style="fill: #3f4563"/>
          <path d="M97.92,47s-.08-.16-.1-.2a.54.54,0,0,0-.24-.18l-.38-.17a1.41,1.41,0,0,1-.26-.12l0-.11a.12.12,0,0,0-.06-.12,2,2,0,0,0-.23-.12l-.24-.12-.29-.12,0-.06c0-.11-.06-.17-.16-.19a1.45,1.45,0,0,1-.79-.52h0a5.56,5.56,0,0,0,.45-1.73,4.55,4.55,0,0,0,0-.85,2.5,2.5,0,0,0-.21-.88l-.08.09,0-.1a3.09,3.09,0,0,0,0-.37,2.62,2.62,0,0,0,0-.49,1.07,1.07,0,0,0-.1-.31A.44.44,0,0,0,95.2,40L94.38,40a1.31,1.31,0,0,0-.05.77l0,.15a2.36,2.36,0,0,0-.11.95s0,.07,0,.11,0,0,0,0A1.89,1.89,0,0,0,94,43h0a3.19,3.19,0,0,0,.15,1.92,2.23,2.23,0,0,0,.32.59c.08.09.2.21.33.15a.33.33,0,0,0,.11-.14,1.72,1.72,0,0,1,.36.28l.47.44a.07.07,0,0,0,.11,0l.09-.15a1.74,1.74,0,0,1,.22.3,1.5,1.5,0,0,0,.49.45.08.08,0,0,0,.11,0l0-.1.07.07.26.23.35.31s0,.08,0,.12v.33q0,.31,0,.63a.07.07,0,0,0,.14,0,3.26,3.26,0,0,0,.3-.86s.07-.09.08-.12m-2-1.78h0Z" style="fill: #373e5a"/>
          <path d="M105.94,45.68a1,1,0,0,0-.77-.18l-.49.06-.23,0h-.08a.54.54,0,0,0-.31-.39l-.33-.19-.22-.16a.31.31,0,0,0,0-.12.31.31,0,0,0-.11-.23l-.24-.21-.14-.14L103,44a.07.07,0,0,0,0-.08,4,4,0,0,1-.32-.52,1.66,1.66,0,0,1-.1-.29,1.8,1.8,0,0,1,0-.25,1.38,1.38,0,0,0,.09-.37,3.89,3.89,0,0,0,0-.63,6.27,6.27,0,0,0-.17-1.14,3.2,3.2,0,0,0-.16-.48l0-.08a.08.08,0,0,0,.06,0,.76.76,0,0,0,0-.41,3.35,3.35,0,0,0-.15-.6,9.69,9.69,0,0,0-.69-1.57,11.72,11.72,0,0,0-1-1.61,7.07,7.07,0,0,0-.57-.66,1.45,1.45,0,0,0-.92-.53.09.09,0,0,0-.09.07c-.21,1.06.29,1.11.53,2.09a7.11,7.11,0,0,1,.29,1.18,5.65,5.65,0,0,1,0,1.56v.09l0,.09,0,.11a.15.15,0,0,0,.08.17c.08.05.16,0,.22-.06l.11-.08c.19.31.39.62.58.94s.29.54.42.81a4.07,4.07,0,0,0,.64,1.09,1.07,1.07,0,0,0,.43.29,1.79,1.79,0,0,0,0,.6.7.7,0,0,0,.18.36.33.33,0,0,0,.21.09,1,1,0,0,0,0,.36.93.93,0,0,0,.18.38.48.48,0,0,0,.27.18h.11a1.23,1.23,0,0,0,.23.51,1,1,0,0,0,.52.44.3.3,0,0,0,.2,0,1.14,1.14,0,0,0,.09.26,1.77,1.77,0,0,0,.24.39,1.08,1.08,0,0,0,.64.46.09.09,0,0,0,.09-.09,2.13,2.13,0,0,0-.14-.56,1.3,1.3,0,0,0-.23-.39l.21,0a4.62,4.62,0,0,0,.89-.23A.09.09,0,0,0,105.94,45.68Z" style="fill: #373e5a"/>
          <path d="M105.79,57.87l.66-1.9a6,6,0,0,0,1.73-.59l2,1.16-.62-2.12a6.07,6.07,0,0,0,.91-1.09l2.56-.05-1.79-1.61a6,6,0,0,0,.21-1.18l2.19-1-2.31-.8a6,6,0,0,0-.41-1.22l1.55-1.72L109.9,46a6.08,6.08,0,0,0-1.41-1.17l0-2.3L107,44.16a6,6,0,0,0-1.32-.2l-1.09-2L104,44.11a6,6,0,0,0-1.53.6l-2-1.45.5,2.61a6.1,6.1,0,0,0-.73.95l-2.43.05,1.73,1.55a6,6,0,0,0-.2,1.27l-2.13,1,2.29.79a6,6,0,0,0,.4,1.15L98.4,54.48l2.49-.4A6.08,6.08,0,0,0,102,55l0,2.25,1.37-1.53a6,6,0,0,0,1.58.32Z" style="fill: red"/>
          <path d="M102.89,46a3,3,0,0,0-.37-.52,1.51,1.51,0,0,0-.48-.34,1.6,1.6,0,0,0-.56-.14,1.12,1.12,0,0,0-.39,0,.39.39,0,0,0,.05-.1.28.28,0,0,0-.06-.25l-.19-.25a11.57,11.57,0,0,1-.75-1.12q-.17-.3-.33-.6l-.15-.3a2.47,2.47,0,0,0-.15-.28l0,0a1,1,0,0,0,0-.61c-.05-.21-.12-.41-.19-.62a7.76,7.76,0,0,1-.3-1,2.64,2.64,0,0,1,0-1.07,9.2,9.2,0,0,0-1.31.38l-.59,1a8.74,8.74,0,0,1,.76.94,3.91,3.91,0,0,1,.28.52.89.89,0,0,0,.36.42l.27.14.25.12a10.07,10.07,0,0,0,.94,2.24,4.34,4.34,0,0,0,.3.51.46.46,0,0,0,.42.22l.13,0a2,2,0,0,0,.26.25,2.21,2.21,0,0,0,.66,1.15.08.08,0,0,0,.14-.06,1.71,1.71,0,0,0,0-.42,1.37,1.37,0,0,0-.05-.22l0-.07c.15,0,.3,0,.45.06a2.58,2.58,0,0,1,.51.19C102.84,46.17,102.93,46.1,102.89,46Z" style="fill: #373e5a"/>
          <path d="M95.11,47.45a1.93,1.93,0,0,1,.5.17,1.89,1.89,0,0,1,.57.47.09.09,0,0,0,.15-.09,1.82,1.82,0,0,0-1-1.09c-.26-.11-.55-.09-.78-.27a4,4,0,0,0-.34-.27,1,1,0,0,0-.34-.15l0,0c-.12-.15-.23-.3-.33-.47a6.45,6.45,0,0,1-.51-1,11.23,11.23,0,0,1-.37-1.1c-.11-.37-.19-.74-.29-1.11a2.24,2.24,0,0,0,.51-.35,4.6,4.6,0,0,0,.73-.92c.11-.17.23-.35.35-.52s.26-.32.38-.49,0-.12-.09-.09l-2.34-.64s0,0-.05,0c0,.22,0,.43-.08.65s-.07.43-.12.65A7.81,7.81,0,0,0,91.32,42a.64.64,0,0,0,.13.52.46.46,0,0,0,.36.09c.12.38.25.76.35,1.15A10.14,10.14,0,0,1,92.4,45c0,.21,0,.42.06.63a1,1,0,0,0,.13.5,1,1,0,0,0,.46.31.82.82,0,0,0,.55.07h0a6.57,6.57,0,0,1,.59.47c.1.09.2.18.3.26l.05,0" style="fill: #373e5a"/>
          <path d="M93.59,34a.56.56,0,0,0-.8-.1,1.38,1.38,0,0,0-.39.77c-.09.37-.2.75-.27,1.13A2.55,2.55,0,0,0,92.21,37a.06.06,0,0,0,.12,0,2.16,2.16,0,0,1,.28-1l-.09,0a4.16,4.16,0,0,0,.23,2.13c0,.05.11,0,.1,0a2,2,0,0,1,.06-.71h-.1a5.54,5.54,0,0,0,.59,1.81,2.29,2.29,0,0,0,.85.94A.61.61,0,0,0,95,40a1.1,1.1,0,0,0,.23-.48,3,3,0,0,0,.06-.8,3.89,3.89,0,0,0,0-.41s-.09,0-.09,0a5.26,5.26,0,0,1,0,.93,1.43,1.43,0,0,1-.17.58.49.49,0,0,1-.3.24.57.57,0,0,1-.38-.06,2.12,2.12,0,0,1-.83-.9,5.33,5.33,0,0,1-.59-1.8c0-.05-.09,0-.1,0a2,2,0,0,0-.06.74h.1A4,4,0,0,1,92.61,36c0-.06-.06-.09-.09,0A2.44,2.44,0,0,0,92.2,37l.12,0a2.59,2.59,0,0,1-.1-1,7.1,7.1,0,0,1,.23-1.07c.1-.38.23-1.19.8-1.08a.57.57,0,0,1,.28.14s.09,0,.06,0Z" style="fill: none;stroke: #3f4563;stroke-linecap: round;stroke-linejoin: round"/>
          <path d="M93.4,33.83a5.65,5.65,0,0,1,3.1-1.89.05.05,0,0,0,0-.1,3,3,0,0,0-1.68.3l.06.07A4.37,4.37,0,0,1,98.34,31c.06,0,.07-.09,0-.1a4.71,4.71,0,0,0-1.61-.11l0,.08a2.05,2.05,0,0,1,2-.19,3.51,3.51,0,0,1,1.57,1.46.05.05,0,0,0,.09,0,2.55,2.55,0,0,0-.22-1.37l-.08.06a2.71,2.71,0,0,1,.74,1.35,6,6,0,0,1,.25,1.63,2.47,2.47,0,0,1,0,.51.05.05,0,0,0,.09.05,2.28,2.28,0,0,0,.54-.77h-.09a5.68,5.68,0,0,1-.42,3.69c0,.05.05.1.08,0a5.59,5.59,0,0,0,.44-3.77.05.05,0,0,0-.09,0,2.12,2.12,0,0,1-.53.75l.09.05a2.56,2.56,0,0,0,0-.6,5.94,5.94,0,0,0-.07-.79,5.07,5.07,0,0,0-.5-1.62,2,2,0,0,0-.45-.59,0,0,0,0,0-.08.06,2.49,2.49,0,0,1,.2,1.32l.09,0a3.68,3.68,0,0,0-1.54-1.47,2.24,2.24,0,0,0-2,0l-.19.13a0,0,0,0,0,0,.09,4.71,4.71,0,0,1,1.56.11v-.1a4.51,4.51,0,0,0-3.52,1.23,0,0,0,0,0,.06.07,3.07,3.07,0,0,1,1.63-.28v-.1a5.36,5.36,0,0,0-3.15,1.95s0,.07,0,0Z" style="fill: none;stroke: #3f4563;stroke-linecap: round;stroke-linejoin: round"/>
          <path d="M87.49,36.72c-.07-.07-.16-.14-.24-.2L87,36.29a3.81,3.81,0,0,1-.44-.55,4.09,4.09,0,0,1-.33-.61A5.75,5.75,0,0,1,86,34.5" style="fill: none;stroke: #3f4563;stroke-linecap: round;stroke-linejoin: round"/>
          <path d="M83.62,38.61s.07,0,.07,0a3.14,3.14,0,0,0-.14-1,4.74,4.74,0,0,0-.37-1,4.3,4.3,0,0,0-1.33-1.56s0,0,0,0h0" style="fill: none;stroke: #3f4563;stroke-miterlimit: 10"/>
          <path d="M84.11,37.9a3.23,3.23,0,0,0,.13-.71,4.88,4.88,0,0,0,0-.73,4.33,4.33,0,0,0-.09-.71,2.43,2.43,0,0,0-.22-.68" style="fill: none;stroke: #3f4563;stroke-linecap: round;stroke-linejoin: round"/>
          <path d="M85.35,36.31a1.55,1.55,0,0,0,0-.36c0-.14,0-.27,0-.41s0-.27,0-.41a2.92,2.92,0,0,0,0-.38" style="fill: none;stroke: #3f4563;stroke-linecap: round;stroke-linejoin: round"/>
          <path d="M83.67,53.79h0c-.09.19-.16.39-.24.58a4.9,4.9,0,0,1-.31.59.09.09,0,0,0,0,.11,2,2,0,0,0,.65.36.09.09,0,0,0,.1,0,3.21,3.21,0,0,0,.31-1.55" style="fill: #3f4563"/>
          <path d="M83.25,55h0c-.17.16-.34.33-.52.47a3,3,0,0,1-.6.36.08.08,0,0,0,0,.13,1.65,1.65,0,0,1,.44.7.09.09,0,0,0,.15,0,5.4,5.4,0,0,0,.51-.7c.08-.12.14-.25.21-.38a1.35,1.35,0,0,0,.16-.42" style="fill: #3f4563"/>
          <path d="M85.49,36.15c.26.06-.19.1-.27.16a3.65,3.65,0,0,0-.6.65,16.73,16.73,0,0,0-1.45,2.32,28.38,28.38,0,0,0-1.35,2.86c-.18.44-.34.88-.48,1.33a7.09,7.09,0,0,0-.26,1.1,2.65,2.65,0,0,0,0,.5" style="fill: none;stroke: #3f4563;stroke-linecap: round;stroke-linejoin: round"/>
          <path d="M85.75,36.21H86l.15,0a4.06,4.06,0,0,1,.78.28A4.84,4.84,0,0,1,88.68,38a4,4,0,0,1,.63,1.17,4.18,4.18,0,0,1,.19,1.52,5.27,5.27,0,0,1-.13.89c-.05.23-.12.67-.41.7" style="fill: none;stroke: #3f4563;stroke-miterlimit: 10"/>
          <g>
            <path d="M114.2,30.09a2,2,0,0,1-.14.42.08.08,0,0,0,0,.11,1,1,0,0,0,.9-.18,1.89,1.89,0,0,0,.65-1.35c0-.11,0-.22,0-.34a.08.08,0,0,0-.06-.08,1.23,1.23,0,0,0-1.32.67,1.53,1.53,0,0,0-.11.58,1.18,1.18,0,0,1-.08.49.05.05,0,0,0,0,.06" style="fill: none;stroke: #373e5a;stroke-linecap: round;stroke-linejoin: round"/>
            <path d="M115.38,30a.65.65,0,0,0,.54,0,1.51,1.51,0,0,0,.46-.24,2.26,2.26,0,0,0,.85-1.32.84.84,0,0,0,0-.5c-.07-.15-.21-.12-.35-.1a2.47,2.47,0,0,0-.68.21c-.31.14-.86.49-.61.89" style="fill: none;stroke: #373e5a;stroke-linecap: round;stroke-linejoin: round"/>
            <path d="M116.8,29.27a.41.41,0,0,0,.32.22.73.73,0,0,0,.4-.06,2,2,0,0,0,.72-.6,2.59,2.59,0,0,0,.48-.85c.06-.21.1-.5-.11-.64a.69.69,0,0,0-.58,0,2.78,2.78,0,0,0-.49.22.67.67,0,0,0-.4.53" style="fill: none;stroke: #373e5a;stroke-miterlimit: 10"/>
            <path d="M118.2,28.91a.88.88,0,0,0,.39.18,1.38,1.38,0,0,0,.4.05,1.23,1.23,0,0,0,.75-.28,2.21,2.21,0,0,0,.59-.84,3.09,3.09,0,0,0,.25-.73c0-.26,0-.58-.29-.64a1.36,1.36,0,0,0-.8.19,3.77,3.77,0,0,0-.54.32,1.32,1.32,0,0,0-.19.16.4.4,0,0,0-.09.11" style="fill: none;stroke: #373e5a;stroke-miterlimit: 10"/>
            <path d="M120.12,28.28a1.46,1.46,0,0,1,.45.16,1.29,1.29,0,0,0,.69.12,1.94,1.94,0,0,0,.93-.43,2.49,2.49,0,0,0,.6-.67,1.15,1.15,0,0,0,.2-.66.45.45,0,0,0-.34-.41,1.75,1.75,0,0,0-.51,0,3.36,3.36,0,0,0-.58.08,2.65,2.65,0,0,0-1,.49" style="fill: none;stroke: #373e5a;stroke-miterlimit: 10"/>
            <path d="M109,32.72a1.44,1.44,0,0,0,.31,0l.35-.05.67-.08.67,0h.67a1,1,0,0,0,.53-.18,2.15,2.15,0,0,0,.39-.37,9.27,9.27,0,0,1,.82-.85c.24-.22.5-.42.75-.63" style="fill: none;stroke: #373e5a;stroke-miterlimit: 10"/>
            <path d="M114.4,29.21a1.56,1.56,0,0,0-.49.25,4.78,4.78,0,0,0-.44.33c-.29.24-.55.51-.82.78a5.07,5.07,0,0,1-.88.79,2.83,2.83,0,0,1-1,.34c-.33.06-.67.1-1,.15a2.42,2.42,0,0,0-.95.3" style="fill: none;stroke: #373e5a;stroke-miterlimit: 10"/>
          </g>
          <path d="M86.92,54.72h0a.58.58,0,0,0-.2.48.38.38,0,0,0,.12.2,1.05,1.05,0,0,0,.48.22,4.05,4.05,0,0,0,1.44,0,3.07,3.07,0,0,0,1-.27.76.76,0,0,0,.31-.25.56.56,0,0,0,.06-.38,1,1,0,0,0-.14-.4" style="fill: none;stroke: #3f4563;stroke-miterlimit: 10"/>
          <path d="M86.21,55.94a.58.58,0,0,0,.29.36,2.25,2.25,0,0,0,.53.22,5.76,5.76,0,0,0,1.23.22l.63,0a5,5,0,0,0,.6,0,1.39,1.39,0,0,0,.67-.21" style="fill: none;stroke: #3f4563;stroke-miterlimit: 10"/>
          <path d="M85.5,57.26a.74.74,0,0,0,.17.51A1.29,1.29,0,0,0,86,58a4.9,4.9,0,0,0,1.41.52,5.55,5.55,0,0,0,1.62.17l.32,0" style="fill: none;stroke: #3f4563;stroke-miterlimit: 10"/>
          <path d="M74.56,53" style="fill: none;stroke: #75757f;stroke-miterlimit: 10"/>
          <path d="M69.09,50.91a6.75,6.75,0,0,0-.6,2.08,9.41,9.41,0,0,0,0,2.17,9.6,9.6,0,0,0,.34,1.8,5.26,5.26,0,0,0,.47,1.17,1,1,0,0,0,.46.45.69.69,0,0,0,.53-.1c.16-.08.3-.19.45-.29a8.53,8.53,0,0,1,1.64-.73,8.94,8.94,0,0,0,1.47-.61,2.79,2.79,0,0,0,1.09-1.12,3.22,3.22,0,0,0,.39-1.37,1.6,1.6,0,0,0-.18-.79,2.66,2.66,0,0,0-.52-.62" style="fill: none;stroke: #3f4563;stroke-miterlimit: 10"/>
          <path d="M69.65,49.38a1.1,1.1,0,0,1-.53,1.15.08.08,0,0,0,0,.11" style="fill: none;stroke: #3f4563;stroke-miterlimit: 10"/>
          <path d="M69.73,49.34s-.1,0-.08,0" style="fill: none;stroke: #75757f;stroke-miterlimit: 10"/>
          <path d="M71,45.51h0a.9.9,0,0,0,.3-.24,2,2,0,0,0,.25-.34,2.11,2.11,0,0,0,.26-.79" style="fill: none;stroke: #969c9c;stroke-miterlimit: 10"/>
          <path d="M79.26,43.21l.27.44.25.4a2.45,2.45,0,0,0,.63.69c.17.12.38.25.33.49s-.21.19-.39.27a2.17,2.17,0,0,1-.86.18,2.25,2.25,0,0,1-.94-.19,3,3,0,0,1-.52-.31,10.47,10.47,0,0,1-1.16-1l-1.23-1.22a11,11,0,0,0-1.21-1.05,2.45,2.45,0,0,0-1.08-.51.7.7,0,0,0-.45.08,2.15,2.15,0,0,0-.56.48,2.26,2.26,0,0,0-.61,1.73.64.64,0,0,0,.23.46,1.11,1.11,0,0,0,.45.16l.49.08a3.48,3.48,0,0,1,.46.14,14.76,14.76,0,0,1,3.19,2.26,6.13,6.13,0,0,0,.83.51,3.51,3.51,0,0,1,.88.55,1.24,1.24,0,0,1,.39.79,1.61,1.61,0,0,1-.16.81,1.69,1.69,0,0,1-1.21,1,.94.94,0,0,1-.78-.26,3,3,0,0,1-.52-.82,6.93,6.93,0,0,0-.79-1.16A12.58,12.58,0,0,0,74,46.88a7.77,7.77,0,0,0-1.39-1.05l-.34-.18-.68-.31a.82.82,0,0,0-.38,0,1.34,1.34,0,0,0-.5.27,3.59,3.59,0,0,0-1.38,2.7,3.15,3.15,0,0,0,0,.53.73.73,0,0,0,.29.48,1.87,1.87,0,0,0,.54.3l.19.08.22.11.48.16a8.19,8.19,0,0,0,1.1.24c.52.08,1.05.14,1.58.21a7.63,7.63,0,0,1,1.42.29,1.78,1.78,0,0,1,.94.61,1.1,1.1,0,0,1,.18.5,1.75,1.75,0,0,1-.09.78.84.84,0,0,1-.48.52,1.42,1.42,0,0,1-.89,0,10.37,10.37,0,0,1-1.78-1,2.76,2.76,0,0,0-1-.33c-.4,0-.8,0-1.2-.09a2.77,2.77,0,0,1-1-.35,2,2,0,0,1-.74-.71" style="fill: none;stroke: #3f4563;stroke-miterlimit: 10"/>
          <path d="M71.57,57.61s.07,0,.06,0h0a9.34,9.34,0,0,0-.5,2.21,7.79,7.79,0,0,0,.44,3.38.08.08,0,0,1-.12.1,4.06,4.06,0,0,1-1.38-1.78,5.71,5.71,0,0,1-.33-1.14c-.07-.38-.09-.77-.13-1.16a2.64,2.64,0,0,0-.05-.35c0-.13-.08-.25-.11-.37s.07-.09.1,0" style="fill: none;stroke: #3f4563;stroke-miterlimit: 10"/>
          <path d="M74.59,39.46a1.57,1.57,0,0,0-.24.16l-.25.19a3.43,3.43,0,0,0-.44.42,1.8,1.8,0,0,0-.48,1" style="fill: none;stroke: #3f4563;stroke-miterlimit: 10"/>
          <path d="M68.73,30.47a.58.58,0,0,0-.49.41,1,1,0,0,0,.15.8,4.87,4.87,0,0,0,.57.7c.2.22.42.44.64.65a13.49,13.49,0,0,0,3,2.17,6.86,6.86,0,0,0,1.46.58,4.44,4.44,0,0,0,1.85,0c.67-.12,1.33-.31,2-.42a13.36,13.36,0,0,1,2.17-.13,29,29,0,0,0,4.3-.19,11.49,11.49,0,0,0,3.4-1.23,18.58,18.58,0,0,1,4-1.88" style="fill: none;stroke: #373e5a;stroke-linecap: round;stroke-linejoin: round"/>
          <path d="M82,41.88a6.91,6.91,0,0,0-.17-2.19,5.47,5.47,0,0,0-.95-2,4.49,4.49,0,0,0-1.4-1.23,4,4,0,0,0-.41-.19L78.58,36a.78.78,0,0,1-.39-.3.59.59,0,0,1,0-.51s0-.05-.06,0h0" style="fill: none;stroke: #3f4563;stroke-miterlimit: 10"/>
          <path d="M78.2,35.85c0-.15-.36,0-.44.06a2.06,2.06,0,0,0-.42.27,1.85,1.85,0,0,0-.57.81.6.6,0,0,0,0,.15" style="fill: none;stroke: #3f4563;stroke-miterlimit: 10"/>
          <path d="M61.45,23.81a.06.06,0,0,0,.06-.1h0c-1.53-1-2.11-2.82-2.58-4.51-.22-.78-.45-1.85.22-2.48a2.08,2.08,0,0,1,1.41-.43l1.48,0c4.16,0,8.4.1,12.29,1.72,1.1.46,2.17,1,3.22,1.57,1.32.71,2.63,1.46,3.92,2.24C84.27,23.46,87,25.21,89.69,27c1.75,1.19,3.5,2.39,5.16,3.7" style="fill: none;stroke: #373e5a;stroke-linecap: round;stroke-linejoin: round"/>
          <path d="M60.12,27a2.29,2.29,0,0,1-1.43-.41,3,3,0,0,1-.74-.87c-.19-.31-.37-.62-.59-.91a13.11,13.11,0,0,1-1.21-1.73,2.71,2.71,0,0,1-.3-1,1,1,0,0,1,.16-.75.81.81,0,0,1,.43-.23,5.45,5.45,0,0,1,1-.17,8.76,8.76,0,0,1,1.93.16" style="fill: none;stroke: #373e5a;stroke-linecap: round;stroke-linejoin: round"/>
          <path d="M62.68,26a5.62,5.62,0,0,1-1.91.91,2.86,2.86,0,0,1-.65.1" style="fill: none;stroke: #373e5a;stroke-linecap: round;stroke-linejoin: round"/>
          <path d="M61,28.25a1,1,0,0,1-.41-.18A1.65,1.65,0,0,1,60,27.3l-.08-.22" style="fill: none;stroke: #373e5a;stroke-linecap: round;stroke-linejoin: round"/>
          <path d="M68.58,31.79H67.32c-.44,0-.88,0-1.31,0a6.85,6.85,0,0,1-2.27-.57,4.48,4.48,0,0,1-1.64-1.25,5.65,5.65,0,0,1-.56-1,2,2,0,0,0-.26-.4" style="fill: none;stroke: #373e5a;stroke-linecap: round;stroke-linejoin: round"/>
          <path d="M64,26.5a6,6,0,0,0,2.64,3.27,6,6,0,0,0,2,.76,7.83,7.83,0,0,0,2.47,0,12,12,0,0,0,2.68-.72c.47-.19.92-.43,1.4-.61a7.56,7.56,0,0,1,1.76-.39,27.75,27.75,0,0,1,5.66.11c3.18.29,6.35.75,9.51,1.22.42.06.84.12,1.25.2a5.55,5.55,0,0,1,1.09.26" style="fill: none;stroke: #373e5a;stroke-linecap: round;stroke-linejoin: round"/>
          <path d="M66.86,24.88A24.48,24.48,0,0,0,64,26.42a.07.07,0,0,0,0,.08" style="fill: none;stroke: #373e5a;stroke-linecap: round;stroke-linejoin: round"/>
          <path d="M66.58,21.47h0a12.21,12.21,0,0,0-1.3.53L64,22.55l-1.25.56-.62.28c-.18.08-.37.16-.54.26a.74.74,0,0,0-.34.35.67.67,0,0,0,0,.53,2,2,0,0,0,.32.46l.35.39a3.27,3.27,0,0,0,1.67,1,1.63,1.63,0,0,0,.52,0" style="fill: none;stroke: #373e5a;stroke-linecap: round;stroke-linejoin: round"/>
          <path d="M75.44,57.29h0c-.31,0-.62-.08-.92-.13a2.52,2.52,0,0,0-1.22-.05h0" style="fill: none;stroke: #3f4563;stroke-linecap: round;stroke-linejoin: round"/>
          <path d="M89.23,58.64s.07.16,0,.21.42.58-.61,1.38c0,0-2.23,1.21-3.73-.41a1.36,1.36,0,0,1,.58-1.87,1,1,0,0,1,.11-.48,1,1,0,0,1,.6-1s-.08-.17.16-.36a.77.77,0,0,1,.47-.85.71.71,0,0,1,.15-.54s-.36-.11.08-.91a1,1,0,0,1-.16-.87,5.4,5.4,0,0,0-.79-2.52h0a9.35,9.35,0,0,1,.12,1,3.32,3.32,0,0,1-.11,1.31,1.24,1.24,0,0,1-.26.45,2,2,0,0,1-.47.35,3.58,3.58,0,0,1-1.38.42,2.81,2.81,0,0,1-1.49-.22h-.07a5.42,5.42,0,0,1-2.75,2.19l.11-.05-.09.11a3.08,3.08,0,0,1-.53.38,7.6,7.6,0,0,1-.78.41,6.33,6.33,0,0,1-1.9.57,5.35,5.35,0,0,1-1.06,0" style="fill: none;stroke: #3f4563;stroke-linecap: round;stroke-linejoin: round"/>
          <path d="M87.89,43a5.34,5.34,0,0,1-.15,2.81.63.63,0,0,1-.26.28h0a.66.66,0,0,0-.3.7l.19.87a.46.46,0,0,0,.08.18l2,2.64a1.48,1.48,0,0,1,.29,1.11l-.12.79a1.58,1.58,0,0,1,.51,1.31,1.36,1.36,0,0,1-.27.68s.26.33.16.6a.56.56,0,0,1-.2.25.69.69,0,0,1,.31,1.24l-.1.09s.05.14-.15.4l-.09.13a1.11,1.11,0,0,1,.15,1,.82.82,0,0,1-.73.53" style="fill: none;stroke: #3f4563;stroke-linecap: round;stroke-linejoin: round"/>
          <path d="M106.5,26.93l1.14-.2.1,0,.51-.21.39-.29.15.44a.89.89,0,0,1,0,.57l-.45,1.38-.22.57a3.23,3.23,0,0,0,.07.69,25.35,25.35,0,0,1,.74,3.73,39.54,39.54,0,0,0,1,6.06c.5,1.17,0,.06,0,.06s.07.68.1,1.26a.65.65,0,0,1-.81.67,4.42,4.42,0,0,1-.91-.33.39.39,0,0,0-.17,0c-.4,0-2.09-.1-2.76-1s-1.57-2.48-3.57-2.17a.46.46,0,0,0-.2.08,3,3,0,0,1-2.06.5h-.07a3.57,3.57,0,0,0-1.81.81v.06a1.55,1.55,0,0,1-1.26.88,1.08,1.08,0,0,1-1.25-.63s-.22.51-.49.56c0,0-.19.07-.38-.19A1.57,1.57,0,0,1,92,39.83a.45.45,0,0,0-.7,0,7.14,7.14,0,0,1-3,2.62.47.47,0,0,0-.34.52" style="fill: none;stroke: #3f4563;stroke-linecap: round;stroke-linejoin: round"/>
          <path d="M90,27.12s.18-.48,1.25-.77a3.06,3.06,0,0,0-1.36.13,8,8,0,0,1,3.27-1.31l-1.31-.26a8.1,8.1,0,0,1,4.6-.2,6.39,6.39,0,0,0-.93-.72,10.74,10.74,0,0,1,4.81,2.24s0-.34-.76-1a3,3,0,0,1,2.07,1.89s.15.19.51,0c0,0,.76-.36.86-.83a.56.56,0,0,1,0,.45,3.5,3.5,0,0,0,.7-1.31.71.71,0,0,1,.12.65.32.32,0,0,1,.27,0,3.47,3.47,0,0,0,1-1.23l.3-.15h0a1.48,1.48,0,0,1,.21.9l0,.44a.46.46,0,0,0,.12.36l.38.41a.46.46,0,0,0,.41.14" style="fill: none;stroke: #3f4563;stroke-linecap: round;stroke-linejoin: round"/>
          <path d="M81.61,42.7a3.2,3.2,0,0,0-.2-.8A7.51,7.51,0,0,0,81,41a8.08,8.08,0,0,0-1-1.5,8.49,8.49,0,0,0-2.17-1.87,4.68,4.68,0,0,0-.79-.39,1.28,1.28,0,0,0-.63-.09,1.85,1.85,0,0,0-.45.15,4.29,4.29,0,0,0-1.07.69,1.64,1.64,0,0,0-.62.95c-.05.43.32.7.67.85.15.06.31.11.47.16l.51.19a6.79,6.79,0,0,1,.88.44,6.16,6.16,0,0,1,2.1,2.11c.2.33.38.66.56,1a3.8,3.8,0,0,0,.5.75.88.88,0,0,0,1.17.2" style="fill: none;stroke: #3f4563;stroke-miterlimit: 10"/>
          <g>
            <path d="M112.5,28.32a1.62,1.62,0,0,1,0,.35.06.06,0,0,0,.05.08.85.85,0,0,0,.68-.29,1.54,1.54,0,0,0,.29-1.18c0-.09,0-.18,0-.27a.07.07,0,0,0-.06-.05,1,1,0,0,0-.93.76,1.24,1.24,0,0,0,0,.48,1,1,0,0,1,0,.41,0,0,0,0,0,0,0" style="fill: none;stroke: #373e5a;stroke-linecap: round;stroke-linejoin: round"/>
            <path d="M113.42,28a.53.53,0,0,0,.44-.06,1.23,1.23,0,0,0,.33-.27,1.83,1.83,0,0,0,.45-1.19.68.68,0,0,0-.09-.4c-.08-.11-.19-.06-.29,0a2,2,0,0,0-.51.28c-.22.16-.6.53-.33.81" style="fill: none;stroke: #373e5a;stroke-linecap: round;stroke-linejoin: round"/>
            <path d="M114.42,27.22a.33.33,0,0,0,.29.12.59.59,0,0,0,.31-.12,1.62,1.62,0,0,0,.47-.6,2.1,2.1,0,0,0,.24-.76c0-.18,0-.42-.2-.49a.56.56,0,0,0-.46.1,2.25,2.25,0,0,0-.35.26.54.54,0,0,0-.23.49" style="fill: none;stroke: #373e5a;stroke-miterlimit: 10"/>
            <path d="M115.48,26.7a.72.72,0,0,0,.34.08,1.12,1.12,0,0,0,.32,0,1,1,0,0,0,.54-.35,1.79,1.79,0,0,0,.33-.76,2.51,2.51,0,0,0,.08-.62c0-.21-.09-.46-.34-.46a1.1,1.1,0,0,0-.6.29,3.06,3.06,0,0,0-.38.35,1.07,1.07,0,0,0-.12.16.32.32,0,0,0,0,.1" style="fill: none;stroke: #373e5a;stroke-miterlimit: 10"/>
            <path d="M116.89,25.87a1.18,1.18,0,0,1,.38.05,1,1,0,0,0,.57,0,1.57,1.57,0,0,0,.66-.5,2,2,0,0,0,.36-.64.94.94,0,0,0,0-.56.36.36,0,0,0-.34-.27,1.42,1.42,0,0,0-.4.07,2.72,2.72,0,0,0-.45.17,2.15,2.15,0,0,0-.75.57" style="fill: none;stroke: #373e5a;stroke-miterlimit: 10"/>
            <path d="M108.56,31.41a5,5,0,0,0,.49-.21l.27-.1.52-.17.53-.15.53-.12a.81.81,0,0,0,.39-.23,1.74,1.74,0,0,0,.24-.36,7.52,7.52,0,0,1,.51-.82c.16-.22.33-.42.49-.62" style="fill: none;stroke: #373e5a;stroke-miterlimit: 10"/>
            <path d="M112.51,27.58a1.26,1.26,0,0,0-.35.28,3.88,3.88,0,0,0-.29.34c-.19.24-.35.5-.52.76a4.11,4.11,0,0,1-.57.78,2.3,2.3,0,0,1-.72.43c-.25.11-.52.19-.77.29a2,2,0,0,0-.7.4" style="fill: none;stroke: #373e5a;stroke-miterlimit: 10"/>
          </g>
          <path d="M87.89,43h0a2.13,2.13,0,0,0-4.09,0c-1,3.46-3.44,10.68-8.39,14.27" style="fill: #fff;stroke: #3f4563;stroke-linecap: round;stroke-linejoin: round"/>
          <path d="M103.63,29.35a1.86,1.86,0,0,1,.25-.68,1.44,1.44,0,0,1,.78-.6,1.84,1.84,0,0,1,1,0l.21.08a5.19,5.19,0,0,1,.93.5,3.59,3.59,0,0,1,.68.61,4.41,4.41,0,0,1,.77,1.31,8.85,8.85,0,0,1,.51,2.13,10.93,10.93,0,0,1,0,2.43,10.58,10.58,0,0,1-.19,1.19,5.86,5.86,0,0,1-.31,1.08,1,1,0,0,1-.67.65,1.15,1.15,0,0,1-1-.48,7.88,7.88,0,0,1-.63-.86q-.3-.45-.56-.91a15.92,15.92,0,0,1-1-2,13.64,13.64,0,0,1-.66-2.14,8,8,0,0,1-.19-2.07Z" style="fill: none;stroke: #373e5a;stroke-linecap: round;stroke-linejoin: round"/>
          <path d="M104.57,28.07h0a1.41,1.41,0,0,0-.95.32,2.43,2.43,0,0,0-.65.92,5.22,5.22,0,0,0-.55,2.33,3.08,3.08,0,0,0,.16.89.05.05,0,0,0,.1,0,4.08,4.08,0,0,1,.32-.72h0a8.74,8.74,0,0,0,.15,2.8,0,0,0,0,0,.09,0,4.55,4.55,0,0,1,.25-.48" style="fill: none;stroke: #373e5a;stroke-linecap: round;stroke-linejoin: round"/>
          <path d="M103.43,34.12h0a3.22,3.22,0,0,0,.66,1.86,22.33,22.33,0,0,0,1.55,1.91c.54.64,1.52,1.56,2.41,1a2.15,2.15,0,0,0,.75-1,6.57,6.57,0,0,0,.42-1.74,8.44,8.44,0,0,0,.06-1.33" style="fill: none;stroke: #373e5a;stroke-linecap: round;stroke-linejoin: round"/>
          <ellipse cx="106.17" cy="31.55" rx="2.23" ry="3.74" transform="translate(-4.25 40.16) rotate(-21.01)" style="fill: none"/>
        </g>
        <g>
          <path d="M194.13,147l.37-2a6,6,0,0,0,1.63-.84l2.12.86-.93-2a6.07,6.07,0,0,0,.75-1.22l2.52-.43-2-1.33a6,6,0,0,0,0-1.2l2-1.29-2.41-.45a6,6,0,0,0-.58-1.15l1.28-1.92-2.46.59a6.08,6.08,0,0,0-1.57-1l-.38-2.27-1.22,1.85a6,6,0,0,0-1.33,0l-1.38-1.85-.25,2.25a6,6,0,0,0-1.43.81l-2.18-1.14.87,2.5a6.1,6.1,0,0,0-.58,1l-2.39.41,1.94,1.28a6,6,0,0,0,0,1.28l-2,1.25,2.38.44a6,6,0,0,0,.56,1.08l-1.19,2.11,2.4-.76a6.08,6.08,0,0,0,1.21.76l.38,2.22,1.13-1.72a6,6,0,0,0,1.61.09Z" style="fill: red"/>
          <path d="M197.33,142.83" style="fill: #75757f"/>
          <line x1="197.32" y1="142.82" x2="197.32" y2="142.82" style="fill: #75757f"/>
        </g>
        <g>
          <path d="M185.51,135.28l.66-1.9a6,6,0,0,0,1.73-.59l2,1.16-.62-2.12a6.07,6.07,0,0,0,.91-1.09l2.56-.05-1.79-1.61a6,6,0,0,0,.21-1.18l2.19-1-2.31-.8a6,6,0,0,0-.41-1.22l1.55-1.72-2.52.22a6.08,6.08,0,0,0-1.41-1.17l0-2.3-1.48,1.65a6,6,0,0,0-1.32-.2l-1.09-2-.57,2.19a6,6,0,0,0-1.53.6l-2-1.45.5,2.61a6.1,6.1,0,0,0-.73.95l-2.43.05,1.73,1.55a6,6,0,0,0-.2,1.27l-2.13,1,2.29.79a6,6,0,0,0,.4,1.15l-1.48,1.91,2.49-.4a6.08,6.08,0,0,0,1.09.93l0,2.25,1.37-1.53a6,6,0,0,0,1.58.32Z" style="fill: red"/>
          <path d="M189.28,131.65" style="fill: #75757f"/>
          <line x1="189.28" y1="131.64" x2="189.28" y2="131.64" style="fill: #75757f"/>
        </g>
        <g>
          <path d="M178.75,146.85l.28-2a6,6,0,0,0,1.59-.91l2.15.77-1-2a6.07,6.07,0,0,0,.69-1.25L185,141l-2.07-1.24a6,6,0,0,0,0-1.2l2-1.37-2.42-.34a6,6,0,0,0-.63-1.12l1.19-2-2.44.69a6.08,6.08,0,0,0-1.61-.88l-.48-2.25-1.14,1.9a6,6,0,0,0-1.33,0l-1.46-1.79-.15,2.26a6,6,0,0,0-1.39.88l-2.22-1,1,2.46a6.1,6.1,0,0,0-.54,1.07l-2.37.51,2,1.19a6,6,0,0,0,0,1.28l-1.91,1.34,2.4.34a6,6,0,0,0,.61,1.05l-1.09,2.16,2.37-.86a6.08,6.08,0,0,0,1.24.71l.47,2.2L176,145.2a6,6,0,0,0,1.62,0Z" style="fill: red"/>
          <path d="M181.1,144.77" style="fill: #75757f"/>
          <line x1="181.09" y1="144.77" x2="181.09" y2="144.77" style="fill: #75757f"/>
        </g>
        <g>
          <rect x="31.27" y="55.3" width="136.46" height="90.93" rx="0.5" ry="0.5" style="fill: #fff;stroke: #969c9c;stroke-linecap: round;stroke-linejoin: round"/>
          <rect x="28.79" y="49.73" width="141.43" height="7.21" rx="0.5" ry="0.5" style="fill: #fff;stroke: #969c9c;stroke-miterlimit: 10"/>
          <rect x="28.79" y="56.94" width="141.43" height="2" rx="0.5" ry="0.5" style="fill: #fff;stroke: #969c9c;stroke-miterlimit: 10"/>
          <path d="M38.53,86.7V65.46a1.4,1.4,0,0,1,1.24-1.51h17" style="fill: none;stroke: #969c9c;stroke-linecap: round;stroke-linejoin: round"/>
          <path d="M38.53,114.46V93.22a1.4,1.4,0,0,1,1.24-1.51h17" style="fill: none;stroke: #969c9c;stroke-linecap: round;stroke-linejoin: round"/>
          <path d="M59.06,86.7V65.46a1.4,1.4,0,0,1,1.24-1.51h17" style="fill: none;stroke: #969c9c;stroke-linecap: round;stroke-linejoin: round"/>
          <path d="M59.06,114.46V93.22a1.4,1.4,0,0,1,1.24-1.51h17" style="fill: none;stroke: #969c9c;stroke-linecap: round;stroke-linejoin: round"/>
          <path d="M79.79,86.7V65.46A1.4,1.4,0,0,1,81,63.95H98" style="fill: none;stroke: #969c9c;stroke-linecap: round;stroke-linejoin: round"/>
          <path d="M79.79,114.46V93.22A1.4,1.4,0,0,1,81,91.71H98" style="fill: none;stroke: #969c9c;stroke-linecap: round;stroke-linejoin: round"/>
          <path d="M100.32,86.7V65.46a1.4,1.4,0,0,1,1.24-1.51h17" style="fill: none;stroke: #969c9c;stroke-linecap: round;stroke-linejoin: round"/>
          <path d="M100.32,114.46V93.22a1.4,1.4,0,0,1,1.24-1.51h17" style="fill: none;stroke: #969c9c;stroke-linecap: round;stroke-linejoin: round"/>
          <path d="M122,86.7V65.46a1.4,1.4,0,0,1,1.24-1.51h17" style="fill: none;stroke: #969c9c;stroke-linecap: round;stroke-linejoin: round"/>
          <path d="M122,114.46V93.22a1.4,1.4,0,0,1,1.24-1.51h17" style="fill: none;stroke: #969c9c;stroke-linecap: round;stroke-linejoin: round"/>
          <path d="M142.76,86.7V65.46A1.4,1.4,0,0,1,144,63.95h17" style="fill: none;stroke: #969c9c;stroke-linecap: round;stroke-linejoin: round"/>
          <path d="M142.76,114.46V93.22A1.4,1.4,0,0,1,144,91.71h17" style="fill: none;stroke: #969c9c;stroke-linecap: round;stroke-linejoin: round"/>
          <path d="M86.18,128.1H31.54a.5.5,0,0,1-.5-.5V115a.5.5,0,0,1,.5-.5H167.35a.5.5,0,0,1,.5.5V127.6a.5.5,0,0,1-.5.5H113.08" style="fill: #fff;stroke: #969c9c;stroke-linecap: round;stroke-linejoin: round"/>
          <g>
            <rect x="90.71" y="124.66" width="17.59" height="21.73" rx="0.5" ry="0.5" style="fill: none;stroke: #969c9c;stroke-linecap: round;stroke-linejoin: round"/>
            <line x1="99.5" y1="124.66" x2="99.5" y2="146.39" style="fill: none;stroke: #969c9c;stroke-linecap: round;stroke-linejoin: round"/>
          </g>
          <path d="M86.18,132.28H26.41a.5.5,0,0,1-.5-.5V128.6a.5.5,0,0,1,.5-.5H86.18Z" style="fill: #fff;stroke: #969c9c;stroke-linecap: round;stroke-linejoin: round"/>
          <path d="M113.08,132.28h59.6a.5.5,0,0,0,.5-.5V128.6a.5.5,0,0,0-.5-.5h-59.6Z" style="fill: #fff;stroke: #969c9c;stroke-linecap: round;stroke-linejoin: round"/>
          <rect x="162.38" y="132.28" width="6.33" height="13.94" style="fill: #fff;stroke: #969c9c;stroke-linecap: round;stroke-linejoin: round"/>
          <rect x="29.88" y="132.28" width="6.3" height="13.94" style="fill: #fff;stroke: #969c9c;stroke-linecap: round;stroke-linejoin: round"/>
          <polyline points="83.17 134.53 83.17 146.22 76.88 146.22 76.88 132.28 83.17 132.28 83.17 134.53" style="fill: #fff;stroke: #969c9c;stroke-linecap: round;stroke-linejoin: round"/>
          <rect x="53.88" y="132.28" width="6.3" height="13.94" style="fill: #fff;stroke: #969c9c;stroke-linecap: round;stroke-linejoin: round"/>
          <rect x="116.08" y="132.28" width="6.3" height="13.94" style="fill: #fff;stroke: #969c9c;stroke-linecap: round;stroke-linejoin: round"/>
          <rect x="138.08" y="132.28" width="6.3" height="13.94" style="fill: #fff;stroke: #969c9c;stroke-linecap: round;stroke-linejoin: round"/>
          <rect x="80.03" y="119.94" width="39.2" height="6.72" rx="0.5" ry="0.5" style="fill: #fff;stroke: #969c9c;stroke-linecap: round;stroke-linejoin: round"/>
        </g>
        <g>
          <line x1="180.51" y1="146.39" x2="180.51" y2="135.1" style="fill: none;stroke: #1fc469;stroke-linecap: round;stroke-linejoin: round"/>
          <path d="M185.29,124.74a5.18,5.18,0,1,0-9.56,0,7.27,7.27,0,1,0,9.56,0Z" style="fill: #fff;stroke: #1fc469;stroke-linecap: round;stroke-linejoin: round"/>
          <polyline points="180.51 137.48 180.51 131.83 180.51 129.32 182.13 126.17" style="fill: none;stroke: #1fc469;stroke-linecap: round;stroke-linejoin: round"/>
          <line x1="177.75" y1="129.65" x2="180.51" y2="132.06" style="fill: none;stroke: #1fc469;stroke-linecap: round;stroke-linejoin: round"/>
          <line x1="181.44" y1="127.52" x2="180.78" y2="126.42" style="fill: none;stroke: #1fc469;stroke-linecap: round;stroke-linejoin: round"/>
        </g>
        <g>
          <line x1="239.78" y1="146.39" x2="239.78" y2="130.45" style="fill: none;stroke: #1fc469;stroke-linecap: round;stroke-linejoin: round"/>
          <path d="M246.53,115.83a7.31,7.31,0,1,0-13.5,0,10.26,10.26,0,1,0,13.5,0Z" style="fill: #fff;stroke: #1fc469;stroke-linecap: round;stroke-linejoin: round"/>
          <polyline points="239.78 133.82 239.78 125.84 239.78 122.31 242.06 117.86" style="fill: none;stroke: #1fc469;stroke-linecap: round;stroke-linejoin: round"/>
          <line x1="235.88" y1="122.76" x2="239.78" y2="126.16" style="fill: none;stroke: #1fc469;stroke-linecap: round;stroke-linejoin: round"/>
          <line x1="241.08" y1="119.76" x2="240.16" y2="118.21" style="fill: none;stroke: #1fc469;stroke-linecap: round;stroke-linejoin: round"/>
        </g>
        <g>
          <line x1="23.51" y1="146.39" x2="23.51" y2="135.1" style="fill: none;stroke: #1fc469;stroke-linecap: round;stroke-linejoin: round"/>
          <path d="M28.29,124.74a5.18,5.18,0,1,0-9.56,0,7.27,7.27,0,1,0,9.56,0Z" style="fill: #fff;stroke: #1fc469;stroke-linecap: round;stroke-linejoin: round"/>
          <polyline points="23.51 137.48 23.51 131.83 23.51 129.32 25.13 126.17" style="fill: none;stroke: #1fc469;stroke-linecap: round;stroke-linejoin: round"/>
          <line x1="20.75" y1="129.65" x2="23.51" y2="132.06" style="fill: none;stroke: #1fc469;stroke-linecap: round;stroke-linejoin: round"/>
          <line x1="24.44" y1="127.52" x2="23.78" y2="126.42" style="fill: none;stroke: #1fc469;stroke-linecap: round;stroke-linejoin: round"/>
        </g>
        <line x1="183.53" y1="9.5" x2="211.43" y2="9.5" style="fill: none;stroke: #03a9f4;stroke-linecap: round;stroke-linejoin: round"/>
        <line x1="194.75" y1="0.5" x2="211.65" y2="0.5" style="fill: none;stroke: #03a9f4;stroke-linecap: round;stroke-linejoin: round"/>
        <line x1="216.69" y1="9.5" x2="228.59" y2="9.5" style="fill: none;stroke: #03a9f4;stroke-linecap: round;stroke-linejoin: round;stroke-dasharray: 2,3"/>
        <g>
          <line x1="250.04" y1="146.39" x2="250.04" y2="135.1" style="fill: none;stroke: #1fc469;stroke-linecap: round;stroke-linejoin: round"/>
          <path d="M254.83,124.74a5.18,5.18,0,1,0-9.56,0,7.27,7.27,0,1,0,9.56,0Z" style="fill: #fff;stroke: #1fc469;stroke-linecap: round;stroke-linejoin: round"/>
          <polyline points="250.04 137.48 250.04 131.83 250.04 129.32 251.66 126.17" style="fill: none;stroke: #1fc469;stroke-linecap: round;stroke-linejoin: round"/>
          <line x1="247.28" y1="129.65" x2="250.04" y2="132.06" style="fill: none;stroke: #1fc469;stroke-linecap: round;stroke-linejoin: round"/>
          <line x1="250.97" y1="127.52" x2="250.31" y2="126.42" style="fill: none;stroke: #1fc469;stroke-linecap: round;stroke-linejoin: round"/>
        </g>
        <path d="M241.56,53.72a4.14,4.14,0,0,1,3.28-3.86,12.17,12.17,0,0,1,22.45-1.55,7.62,7.62,0,0,1,11.86,2,4.1,4.1,0,0,1,6.06,3.45Z" style="fill: #fff;stroke: #03a9f4;stroke-miterlimit: 10"/>
        <path d="M25.62,89.6c3.48-1.21,8.3-2.11,13.06-.49A8.41,8.41,0,1,0,44.1,73.18C31.3,68.82,25.59,70.87,19.75,74A16.36,16.36,0,0,0,11.5,84.28a15.37,15.37,0,0,0-.37,2A13.43,13.43,0,0,0,14,96.39c3.2,4,8.63,6.5,16.59,7.58" style="fill: #fff;stroke: #373e5a;stroke-linecap: round;stroke-linejoin: round"/>
        <g>
          <use width="3.47" height="4.67" transform="translate(31.56 107.54) rotate(155.34)" xlink:href="#spike"/>
          <use width="3.47" height="4.67" transform="translate(28.03 107.24) rotate(162.31)" xlink:href="#spike"/>
          <use width="3.47" height="4.67" transform="matrix(-0.98, 0.22, -0.22, -0.98, 24.4, 106.44)" xlink:href="#spike"/>
          <use width="3.47" height="4.67" transform="translate(20.87 105.31) rotate(174.81)" xlink:href="#spike"/>
          <use width="3.47" height="4.67" transform="translate(17.88 104) rotate(-179.98)" xlink:href="#spike"/>
          <use width="3.47" height="4.67" transform="translate(14.87 102.05) rotate(-171.05)" xlink:href="#spike"/>
          <use width="3.47" height="4.67" transform="matrix(-0.92, -0.4, 0.4, -0.92, 11.89, 99.38)" xlink:href="#spike"/>
          <use width="3.47" height="4.67" transform="translate(9.66 96.63) rotate(-143.7)" xlink:href="#spike"/>
          <use width="3.47" height="4.67" transform="matrix(-0.65, -0.76, 0.76, -0.65, 8.09, 92.96)" xlink:href="#spike"/>
          <use width="3.47" height="4.67" transform="translate(7.41 88.83) rotate(-116.55)" xlink:href="#spike"/>
          <use width="3.47" height="4.67" transform="translate(7.76 85.34) rotate(-107.95)" xlink:href="#spike"/>
          <use width="3.47" height="4.67" transform="translate(8.53 81.35) rotate(-92)" xlink:href="#spike"/>
          <use width="3.47" height="4.67" transform="translate(10.19 78.01) rotate(-82.74)" xlink:href="#spike"/>
          <use width="3.47" height="4.67" transform="translate(12.67 74.89) rotate(-72.5)" xlink:href="#spike"/>
          <use width="2.11" height="2.64" transform="matrix(-0.98, 0.21, -0.21, -0.98, 29.4, 104.16)" xlink:href="#New_Symbol"/>
          <use width="2.11" height="2.64" transform="translate(26.11 103.54) rotate(170.4)" xlink:href="#New_Symbol"/>
          <use width="2.11" height="2.64" transform="translate(22.76 102.75) rotate(178.83)" xlink:href="#New_Symbol"/>
          <use width="2.11" height="2.64" transform="translate(19.92 101.49) rotate(-170.25)" xlink:href="#New_Symbol"/>
          <use width="2.11" height="2.64" transform="translate(17.4 99.94) rotate(-166.01)" xlink:href="#New_Symbol"/>
          <use width="2.11" height="2.64" transform="translate(14.95 98.22) rotate(-152.37)" xlink:href="#New_Symbol"/>
          <use width="2.11" height="2.64" transform="translate(13.02 95.82) rotate(-142.82)" xlink:href="#New_Symbol"/>
          <use width="2.11" height="2.64" transform="translate(11.48 93.01) rotate(-132.51)" xlink:href="#New_Symbol"/>
          <use width="2.11" height="2.64" transform="translate(10.45 89.9) rotate(-112.19)" xlink:href="#New_Symbol"/>
          <use width="2.11" height="2.64" transform="translate(10.58 86.54) rotate(-104.29)" xlink:href="#New_Symbol"/>
          <use width="2.11" height="2.64" transform="translate(11.2 83.67) rotate(-96.91)" xlink:href="#New_Symbol"/>
          <use width="2.11" height="2.64" transform="translate(12.49 80.56) rotate(-82)" xlink:href="#New_Symbol"/>
          <use width="2.11" height="2.64" transform="translate(14.27 77.88) rotate(-72.95)" xlink:href="#New_Symbol"/>
          <use width="2.11" height="2.64" transform="translate(16.94 75.17) rotate(-64.57)" xlink:href="#New_Symbol"/>
          <use width="2.11" height="2.64" transform="matrix(0.56, -0.83, 0.83, 0.56, 20, 73.37)" xlink:href="#New_Symbol"/>
          <use width="2.11" height="2.64" transform="translate(22.68 72.33) rotate(-50.74)" xlink:href="#New_Symbol"/>
          <use width="2.11" height="2.64" transform="translate(25.4 71.22) rotate(-38.64)" xlink:href="#New_Symbol"/>
          <use width="2.11" height="2.64" transform="translate(28.44 70.52) rotate(-31.9)" xlink:href="#New_Symbol"/>
          <use width="2.11" height="2.64" transform="translate(31.68 70.42) rotate(-24.69)" xlink:href="#New_Symbol"/>
          <use width="2.11" height="2.64" transform="translate(34.83 70.74) rotate(-18.63)" xlink:href="#New_Symbol"/>
          <use width="2.11" height="2.64" transform="translate(37.99 71.44) rotate(-18.14)" xlink:href="#New_Symbol"/>
          <use width="2.11" height="2.64" transform="matrix(0.95, -0.32, 0.32, 0.95, 40.83, 72.11)" xlink:href="#New_Symbol"/>
          <use width="2.11" height="2.64" transform="translate(43.65 72.82) rotate(-9.27)" xlink:href="#New_Symbol"/>
          <use width="3.47" height="4.67" transform="translate(32.44 67.25) rotate(-27.63)" xlink:href="#spike"/>
          <use width="3.47" height="4.67" transform="translate(29.15 67.26) rotate(-30.76)" xlink:href="#spike"/>
          <use width="3.47" height="4.67" transform="translate(36.11 67.59) rotate(-19.29)" xlink:href="#spike"/>
          <use width="3.47" height="4.67" transform="translate(39 68.27) rotate(-19.29)" xlink:href="#spike"/>
          <use width="3.47" height="4.67" transform="translate(42.18 68.93) rotate(-14.4)" xlink:href="#spike"/>
          <use width="2.11" height="2.64" transform="matrix(0.8, 0.61, 0.61, -0.8, 39.26, 89.35)" xlink:href="#New_Symbol"/>
          <use width="2.11" height="2.64" transform="matrix(0.65, 0.76, 0.76, -0.65, 36.14, 88.37)" xlink:href="#New_Symbol"/>
          <use width="2.11" height="2.64" transform="matrix(0.85, 0.52, 0.52, -0.85, 33.2, 88.48)" xlink:href="#New_Symbol"/>
          <use width="2.11" height="2.64" transform="matrix(0.9, 0.43, 0.43, -0.9, 30.21, 88.61)" xlink:href="#New_Symbol"/>
          <use width="2.11" height="2.64" transform="matrix(0.98, 0.22, 0.22, -0.98, 27.28, 89.44)" xlink:href="#New_Symbol"/>
          <use width="2.11" height="2.64" transform="matrix(1, -0.08, -0.08, -1, 24.94, 90.81)" xlink:href="#New_Symbol"/>
          <use width="3.47" height="4.67" transform="matrix(0.79, -0.61, 0.61, 0.79, 25.54, 67.73)" xlink:href="#spike"/>
          <use width="3.47" height="4.67" transform="translate(22.21 68.97) rotate(-46.74)" xlink:href="#spike"/>
          <use width="3.47" height="4.67" transform="translate(19.16 70.29) rotate(-56.62)" xlink:href="#spike"/>
          <use width="3.47" height="4.67" transform="matrix(0.47, -0.88, 0.88, 0.47, 16.18, 72.17)" xlink:href="#spike"/>
          <use width="3.47" height="4.67" transform="matrix(-0.63, 0.77, -0.77, -0.63, 31.5, 91.36)" xlink:href="#spike"/>
          <use width="3.47" height="4.67" transform="matrix(-0.72, 0.69, -0.69, -0.72, 34.13, 91.14)" xlink:href="#spike"/>
          <use width="3.47" height="4.67" transform="matrix(-0.84, 0.54, -0.54, -0.84, 36.61, 91.58)" xlink:href="#spike"/>
          <use width="3.47" height="4.67" transform="translate(38.39 92.64) rotate(163.43)" xlink:href="#spike"/>
          <use width="3.47" height="4.67" transform="translate(41.69 93.21) rotate(161.32)" xlink:href="#spike"/>
        </g>
        <path d="M41.4,76.15c-9.8-2.59-18.85-1-23.29,4.52-.61.76-4,5-2.75,9.87,1.13,4.36,5.57,7.72,11.26,8.42" style="fill: none;stroke: #373e5a;stroke-linecap: round;stroke-linejoin: round;stroke-width: 2px;stroke-dasharray: 0,3"/>
        <path d="M41.37,76.38" style="fill: none"/>
        <line x1="25.46" y1="89.96" x2="25.31" y2="91.22" style="fill: #fff;stroke: #373e5a;stroke-linecap: round;stroke-linejoin: round"/>
        <g>
          <g>
            <path d="M156,49.28c-3,.07-3.25,6.28-2.09,10.72,6,22.89-14.18,35.76-23.06,38.92a7.32,7.32,0,1,1-4.9-13.79c1.48-.56,14.54-6.22,13-23.92-.76-8.68.58-14.86,4.09-18.9a13.23,13.23,0,0,1,9.53-4.57,16.28,16.28,0,0,1,16,10.81l.21.85-13.08,0" style="fill: #fff"/>
            <path d="M156,49.28c-3,.07-3.25,6.28-2.09,10.72,6,22.89-14.18,35.76-23.06,38.92a7.32,7.32,0,1,1-4.9-13.79c1.48-.56,14.54-6.22,13-23.92-.76-8.68.58-14.86,4.09-18.9a13.23,13.23,0,0,1,9.53-4.57,16.28,16.28,0,0,1,16,10.81l.21.85-13.08,0" style="fill: #fff;stroke: #3f4563;stroke-miterlimit: 10"/>
            <path d="M156,49.28c-3,.07-3.25,6.28-2.09,10.72,6,22.89-14.18,35.76-23.06,38.92a7.32,7.32,0,1,1-4.9-13.79c1.48-.56,14.54-6.22,13-23.92-.76-8.68.58-14.86,4.09-18.9a13.23,13.23,0,0,1,9.53-4.57,16.28,16.28,0,0,1,16,10.81l.21.85-13.08,0" style="fill: none;stroke: #3f4563;stroke-linecap: round;stroke-linejoin: round"/>
          </g>
          <circle cx="163.42" cy="46.17" r="0.84" transform="matrix(0.5, -0.86, 0.86, 0.5, 41.43, 164.31)" style="fill: #373e5a"/>
          <circle cx="161.45" cy="44.25" r="0.84" transform="translate(42.11 161.65) rotate(-59.86)" style="fill: #373e5a"/>
          <circle cx="158.92" cy="42.59" r="0.84" transform="translate(42.29 158.64) rotate(-59.86)" style="fill: #373e5a"/>
          <circle cx="156.56" cy="41.51" r="0.84" transform="translate(42.05 156.05) rotate(-59.86)" style="fill: #373e5a"/>
          <circle cx="154.2" cy="41.15" r="0.84" transform="translate(41.18 153.84) rotate(-59.86)" style="fill: #373e5a"/>
          <circle cx="151.51" cy="41.36" r="0.84" transform="matrix(0.37, -0.93, 0.93, 0.37, 56.98, 166.77)" style="fill: #373e5a"/>
          <circle cx="149.08" cy="42.23" r="0.84" transform="translate(54.63 165.07) rotate(-68.26)" style="fill: #373e5a"/>
          <circle cx="147.17" cy="44.05" r="0.84" transform="translate(51.73 164.43) rotate(-68.26)" style="fill: #373e5a"/>
          <g>
            <path d="M122.1,92.61a8.32,8.32,0,0,0,2.7,4.81.26.26,0,0,1-.05.44,6.75,6.75,0,0,1-2.26.58,2.26,2.26,0,0,1-2-1.08l-.51-.81a2.31,2.31,0,0,1-.14-2.22,5.42,5.42,0,0,1,1.64-1.94A.4.4,0,0,1,122.1,92.61Z" style="fill: #fff;stroke: #373e5a;stroke-linecap: round;stroke-linejoin: round"/>
            <circle cx="119.42" cy="96.28" r="0.7" transform="matrix(0.5, -0.86, 0.86, 0.5, -23.81, 151.21)" style="fill: #373e5a"/>
            <circle cx="120.4" cy="97.76" r="0.7" transform="translate(-24.6 152.79) rotate(-59.86)" style="fill: #373e5a"/>
          </g>
          <circle cx="145.37" cy="46.02" r="0.84" transform="translate(48.78 164.01) rotate(-68.26)" style="fill: #373e5a"/>
          <circle cx="143.8" cy="48.73" r="0.84" transform="translate(45.28 164.25) rotate(-68.26)" style="fill: #373e5a"/>
          <circle cx="143.04" cy="51.16" r="0.84" transform="translate(42.53 165.07) rotate(-68.26)" style="fill: #373e5a"/>
          <circle cx="142.76" cy="53.78" r="0.84" transform="translate(39.92 166.46) rotate(-68.26)" style="fill: #373e5a"/>
          <circle cx="142.31" cy="56.55" r="0.84" transform="translate(37.07 167.79) rotate(-68.26)" style="fill: #373e5a"/>
          <circle cx="142.53" cy="60.06" r="0.84" transform="translate(19.79 154.17) rotate(-60.33)" style="fill: #373e5a"/>
          <circle cx="142.6" cy="63.16" r="0.84" transform="translate(18.2 157.22) rotate(-60.98)" style="fill: #373e5a"/>
          <circle cx="141.12" cy="73.29" r="0.84" transform="translate(-17.03 89.88) rotate(-33.43)" style="fill: #373e5a"/>
          <circle cx="139.87" cy="76.18" r="0.84" transform="translate(-18.33 94.6) rotate(-35.22)" style="fill: #373e5a"/>
          <circle cx="133.02" cy="84.09" r="0.84" transform="translate(-4.07 6.81) rotate(-2.89)" style="fill: #373e5a"/>
          <circle cx="130.33" cy="85.92" r="0.84" transform="translate(-0.31 0.47) rotate(-0.21)" style="fill: #373e5a"/>
          <circle cx="128.03" cy="87.47" r="0.84" transform="translate(-8.27 13.55) rotate(-5.87)" style="fill: #373e5a"/>
          <circle cx="142.62" cy="66.42" r="0.84" transform="translate(10.23 151.41) rotate(-57.67)" style="fill: #373e5a"/>
          <circle cx="142.06" cy="69.8" r="0.84" transform="translate(-5.21 127.82) rotate(-47.67)" style="fill: #373e5a"/>
          <circle cx="138.09" cy="79.2" r="0.84" transform="translate(-20.65 67.21) rotate(-25.52)" style="fill: #373e5a"/>
          <circle cx="135.7" cy="81.79" r="0.84" transform="matrix(0.96, -0.28, 0.28, 0.96, -17.27, 40.5)" style="fill: #373e5a"/>
          <circle cx="126.06" cy="89.19" r="0.84" transform="translate(-19.07 36.44) rotate(-15.31)" style="fill: #373e5a"/>
          <circle cx="164.83" cy="48.65" r="0.84" transform="translate(40 166.77) rotate(-59.86)" style="fill: #373e5a"/>
        </g>
        <g>
          <use width="3.47" height="4.67" transform="translate(168.81 41.57) rotate(30.14)" xlink:href="#spike"/>
          <use width="3.47" height="4.67" transform="translate(165.39 38.83) rotate(11.13)" xlink:href="#spike"/>
          <use width="3.47" height="4.67" transform="translate(161.61 35.93) rotate(0.19)" xlink:href="#spike"/>
          <use width="3.47" height="4.67" transform="translate(157.33 34.66) rotate(-13.08)" xlink:href="#spike"/>
          <use width="3.47" height="4.67" transform="translate(153.09 34.01) rotate(-23.94)" xlink:href="#spike"/>
          <use width="3.47" height="4.67" transform="matrix(0.78, -0.62, 0.62, 0.78, 149.23, 34.54)" xlink:href="#spike"/>
          <use width="3.47" height="4.67" transform="matrix(0.61, -0.79, 0.79, 0.61, 145.09, 36.13)" xlink:href="#spike"/>
          <use width="3.47" height="4.67" transform="matrix(0.42, -0.91, 0.91, 0.42, 141.42, 38.57)" xlink:href="#spike"/>
          <use width="3.47" height="4.67" transform="translate(138.61 42.13) rotate(-81.83)" xlink:href="#spike"/>
          <use width="3.47" height="4.67" transform="translate(136.54 46.53) rotate(-95.59)" xlink:href="#spike"/>
          <use width="3.47" height="4.67" transform="translate(135.95 51.62) rotate(-110.57)" xlink:href="#spike"/>
          <use width="3.47" height="4.67" transform="translate(135.31 56.83) rotate(-121.3)" xlink:href="#spike"/>
          <use width="3.47" height="4.67" transform="translate(135.45 61.59) rotate(-126)" xlink:href="#spike"/>
          <use width="3.47" height="4.67" transform="matrix(-0.61, -0.79, 0.79, -0.61, 135.78, 66.12)" xlink:href="#spike"/>
          <use width="3.47" height="4.67" transform="translate(135 71.04) rotate(-115.78)" xlink:href="#spike"/>
          <use width="3.47" height="4.67" transform="translate(133.34 74.43) rotate(-104.74)" xlink:href="#spike"/>
          <use width="3.47" height="4.67" transform="translate(130.73 78.13) rotate(-91.2)" xlink:href="#spike"/>
          <use width="3.47" height="4.67" transform="matrix(0.36, -0.93, 0.93, 0.36, 126.58, 81.09)" xlink:href="#spike"/>
          <use width="3.47" height="4.67" transform="matrix(0.51, -0.86, 0.86, 0.51, 122.8, 82.87)" xlink:href="#spike"/>
          <use width="3.47" height="4.67" transform="translate(119.87 84.81) rotate(-64.91)" xlink:href="#spike"/>
          <use width="3.47" height="4.67" transform="translate(117.57 89.51) rotate(-92.83)" xlink:href="#spike"/>
          <path d="M164.22,44.36l2.7-.46L165.25,46a3.79,3.79,0,0,1-1-1.61Z" style="fill: #373e5a"/>
          <use width="2.11" height="2.64" transform="matrix(0.97, 0.25, -0.25, 0.97, 162.43, 40.43)" xlink:href="#New_Symbol"/>
          <use width="2.11" height="2.64" transform="translate(158.81 38.64) rotate(-1.67)" xlink:href="#New_Symbol"/>
          <use width="2.11" height="2.64" transform="translate(155.36 37.92) rotate(-17.05)" xlink:href="#New_Symbol"/>
          <use width="2.11" height="2.64" transform="matrix(0.85, -0.53, 0.53, 0.85, 152.14, 37.97)" xlink:href="#New_Symbol"/>
          <use width="2.11" height="2.64" transform="matrix(0.75, -0.66, 0.66, 0.75, 149.06, 38.66)" xlink:href="#New_Symbol"/>
          <use width="2.11" height="2.64" transform="translate(145.67 40.21) rotate(-54.59)" xlink:href="#New_Symbol"/>
          <use width="2.11" height="2.64" transform="translate(143.29 42.79) rotate(-75.22)" xlink:href="#New_Symbol"/>
          <use width="2.11" height="2.64" transform="translate(141.31 45.42) rotate(-84.76)" xlink:href="#New_Symbol"/>
          <use width="2.11" height="2.64" transform="translate(139.72 48.95) rotate(-96.4)" xlink:href="#New_Symbol"/>
          <use width="2.11" height="2.64" transform="translate(139.41 52.52) rotate(-112.35)" xlink:href="#New_Symbol"/>
          <use width="2.11" height="2.64" transform="matrix(-0.43, -0.9, 0.9, -0.43, 139.27, 55.38)" xlink:href="#New_Symbol"/>
          <use width="2.11" height="2.64" transform="translate(139.34 58.64) rotate(-124)" xlink:href="#New_Symbol"/>
          <use width="2.11" height="2.64" transform="translate(139.29 61.72) rotate(-116.07)" xlink:href="#New_Symbol"/>
          <use width="2.11" height="2.64" transform="translate(139.38 64.86) rotate(-116.72)" xlink:href="#New_Symbol"/>
          <use width="2.11" height="2.64" transform="translate(137.3 73.31) rotate(-89.17)" xlink:href="#New_Symbol"/>
          <use width="2.11" height="2.64" transform="translate(136.23 76.32) rotate(-90.95)" xlink:href="#New_Symbol"/>
          <use width="2.11" height="2.64" transform="translate(129.88 82.26) rotate(-58.63)" xlink:href="#New_Symbol"/>
          <use width="2.11" height="2.64" transform="translate(127.27 83.95) rotate(-55.95)" xlink:href="#New_Symbol"/>
          <use width="2.11" height="2.64" transform="matrix(0.48, -0.88, 0.88, 0.48, 124.8, 85.81)" xlink:href="#New_Symbol"/>
          <use width="2.11" height="2.64" transform="translate(121.13 91.97) rotate(-102.04)" xlink:href="#New_Symbol"/>
          <circle cx="124.56" cy="91.36" r="0.84" transform="translate(-27.55 118.3) rotate(-46.3)" style="fill: #373e5a"/>
          <use width="2.11" height="2.64" transform="translate(139.31 67.93) rotate(-113.41)" xlink:href="#New_Symbol"/>
          <use width="2.11" height="2.64" transform="matrix(-0.23, -0.97, 0.97, -0.23, 138.54, 70.72)" xlink:href="#New_Symbol"/>
          <use width="2.11" height="2.64" transform="translate(134.48 78.72) rotate(-81.25)" xlink:href="#New_Symbol"/>
          <use width="2.11" height="2.64" transform="translate(132.22 80.72) rotate(-71.71)" xlink:href="#New_Symbol"/>
          <use width="2.11" height="2.64" transform="translate(122.6 88.08) rotate(-71.04)" xlink:href="#New_Symbol"/>
          <use id="New_Symbol-111" data-name="New Symbol" width="2.11" height="2.64" transform="translate(167.4 46.22) rotate(42.56)" xlink:href="#New_Symbol"/>
          <use id="spike-101" data-name="spike" width="3.47" height="4.67" transform="translate(132.91 101.73) rotate(132.95)" xlink:href="#spike"/>
          <use width="3.47" height="4.67" transform="matrix(-0.57, 0.82, -0.82, -0.57, 136.39, 100.35)" xlink:href="#spike"/>
          <use width="3.47" height="4.67" transform="matrix(-0.5, 0.87, -0.87, -0.5, 139.99, 98.28)" xlink:href="#spike"/>
          <use width="3.47" height="4.67" transform="translate(143.54 95.96) rotate(116.62)" xlink:href="#spike"/>
          <use width="3.47" height="4.67" transform="translate(146.87 93.04) rotate(107.78)" xlink:href="#spike"/>
          <use width="3.47" height="4.67" transform="translate(150.1 89.55) rotate(100.44)" xlink:href="#spike"/>
          <use width="3.47" height="4.67" transform="translate(152.56 86.52) rotate(94.97)" xlink:href="#spike"/>
          <use width="3.47" height="4.67" transform="matrix(0.04, 1, -1, 0.04, 154.58, 83.13)" xlink:href="#spike"/>
          <use width="3.47" height="4.67" transform="matrix(0.15, 0.99, -0.99, 0.15, 156.32, 79.24)" xlink:href="#spike"/>
          <use width="3.47" height="4.67" transform="translate(157.67 75.15) rotate(73.78)" xlink:href="#spike"/>
          <use width="3.47" height="4.67" transform="translate(158.41 70.8) rotate(66.91)" xlink:href="#spike"/>
          <use width="3.47" height="4.67" transform="translate(158.42 65.99) rotate(57.41)" xlink:href="#spike"/>
          <use width="3.47" height="4.67" transform="translate(157.92 61.95) rotate(50.56)" xlink:href="#spike"/>
          <use width="3.47" height="4.67" transform="translate(156.94 57.8) rotate(44.2)" xlink:href="#spike"/>
          <use width="3.47" height="4.67" transform="translate(156.36 54.23) rotate(48.53)" xlink:href="#spike"/>
          <use width="3.47" height="4.67" transform="translate(156.97 51.02) rotate(62.31)" xlink:href="#spike"/>
          <use width="3.47" height="4.67" transform="translate(158.74 49.38) rotate(87.26)" xlink:href="#spike"/>
          <use width="2.11" height="2.64" transform="translate(154.38 50.16) rotate(79.31)" xlink:href="#New_Symbol"/>
          <use width="2.11" height="2.64" transform="translate(153.28 53.91) rotate(61.14)" xlink:href="#New_Symbol"/>
          <use width="2.11" height="2.64" transform="translate(153.39 57.67) rotate(50.69)" xlink:href="#New_Symbol"/>
          <use width="2.11" height="2.64" transform="matrix(0.63, 0.78, -0.78, 0.63, 154.14, 61.65)" xlink:href="#New_Symbol"/>
          <use width="2.11" height="2.64" transform="translate(154.82 65.26) rotate(59.34)" xlink:href="#New_Symbol"/>
          <use width="2.11" height="2.64" transform="translate(155.06 69.11) rotate(67.02)" xlink:href="#New_Symbol"/>
          <use width="2.11" height="2.64" transform="translate(154.74 73.44) rotate(83.97)" xlink:href="#New_Symbol"/>
          <use width="2.11" height="2.64" transform="translate(153.64 77.02) rotate(83.97)" xlink:href="#New_Symbol"/>
          <use width="2.11" height="2.64" transform="translate(152.42 80.69) rotate(91.8)" xlink:href="#New_Symbol"/>
          <use width="2.11" height="2.64" transform="translate(150.53 84.17) rotate(98.47)" xlink:href="#New_Symbol"/>
          <use width="2.11" height="2.64" transform="translate(148.23 86.98) rotate(109.29)" xlink:href="#New_Symbol"/>
          <use width="2.11" height="2.64" transform="translate(145.26 89.76) rotate(109.29)" xlink:href="#New_Symbol"/>
          <use width="2.11" height="2.64" transform="translate(142.16 92.14) rotate(109.29)" xlink:href="#New_Symbol"/>
          <use width="2.11" height="2.64" transform="translate(139.42 94.9) rotate(114.59)" xlink:href="#New_Symbol"/>
          <use width="2.11" height="2.64" transform="translate(136.01 97.08) rotate(124.61)" xlink:href="#New_Symbol"/>
          <use width="2.11" height="2.64" transform="matrix(-0.64, 0.77, -0.77, -0.64, 132.78, 98.69)" xlink:href="#New_Symbol"/>
          <circle cx="151.73" cy="65.38" r="0.84" transform="translate(-0.37 129.91) rotate(-46.3)" style="fill: #373e5a"/>
          <circle cx="151.38" cy="68.92" r="0.84" transform="translate(-3.03 130.76) rotate(-46.3)" style="fill: #373e5a"/>
          <circle cx="150.99" cy="72.56" r="0.84" transform="translate(-5.78 131.6) rotate(-46.3)" style="fill: #373e5a"/>
          <circle cx="150.59" cy="76.2" r="0.84" transform="translate(-8.53 132.43) rotate(-46.3)" style="fill: #373e5a"/>
          <circle cx="149.14" cy="79.41" r="0.84" transform="translate(-11.3 132.38) rotate(-46.3)" style="fill: #373e5a"/>
          <circle cx="147.38" cy="82.44" r="0.84" transform="translate(-14.04 132.04) rotate(-46.3)" style="fill: #373e5a"/>
          <circle cx="145.25" cy="85.6" r="0.84" transform="translate(-16.99 131.48) rotate(-46.3)" style="fill: #373e5a"/>
          <circle cx="143.32" cy="87.74" r="0.84" transform="translate(-19.13 130.75) rotate(-46.3)" style="fill: #373e5a"/>
          <circle cx="140.7" cy="90" r="0.84" transform="translate(-21.58 129.55) rotate(-46.3)" style="fill: #373e5a"/>
          <circle cx="138.32" cy="91.85" r="0.84" transform="translate(-23.64 128.4) rotate(-46.3)" style="fill: #373e5a"/>
          <circle cx="135.47" cy="93.59" r="0.84" transform="translate(-25.79 126.88) rotate(-46.3)" style="fill: #373e5a"/>
          <circle cx="132.84" cy="94.96" r="0.84" transform="translate(-27.59 125.4) rotate(-46.3)" style="fill: #373e5a"/>
          <circle cx="130.19" cy="96.37" r="0.84" transform="translate(-29.43 123.92) rotate(-46.3)" style="fill: #373e5a"/>
        </g>
        <g>
          <path d="M213.5,147l.36-2a6,6,0,0,0,1.62-.85l2.12.85-.94-2a6.07,6.07,0,0,0,.74-1.22l2.52-.45-2-1.31a6,6,0,0,0,0-1.2l2-1.3-2.41-.43a6,6,0,0,0-.59-1.15L218.2,134l-2.46.6a6.08,6.08,0,0,0-1.58-.94l-.4-2.27-1.21,1.86a6,6,0,0,0-1.33,0l-1.39-1.84-.23,2.25a6,6,0,0,0-1.42.82L206,133.34l.89,2.5a6.1,6.1,0,0,0-.57,1l-2.39.42,1.95,1.26a6,6,0,0,0,0,1.28l-2,1.27,2.38.43a6,6,0,0,0,.57,1.08l-1.17,2.12,2.4-.78a6.08,6.08,0,0,0,1.22.76l.39,2.21,1.12-1.73a6,6,0,0,0,1.62.08Z" style="fill: red"/>
          <path d="M216.67,142.78" style="fill: #75757f"/>
          <line x1="216.66" y1="142.78" x2="216.66" y2="142.78" style="fill: #75757f"/>
        </g>
      </g>
    </g>
  </g>
</svg>
