<svg xmlns="http://www.w3.org/2000/svg" width="412.48" height="514.31" viewBox="0 0 412.48 514.31">
  <title>icon-main-shield</title>
  <path class="top-right-shield" d="M205.2.53a14.28,14.28,0,0,1,8.51,2.11c53,33.45,117.08,53.85,184.8,58.75A14.39,14.39,0,0,1,412,76.07V227.83q0,11.28-.53,22.13" style="fill: none;stroke: #4e7096;stroke-miterlimit: 10"/>
  <path d="M411.8,250.45l.15.06C405.23,378,340.46,461.72,209.37,513a23.88,23.88,0,0,1-5.3.82,11.2,11.2,0,0,1-5.3-.82C63.33,460.37.5,369.39.5,227.83V76.07A14.39,14.39,0,0,1,14,61.39c67.72-4.9,131.77-25.29,184.8-58.75A14.28,14.28,0,0,1,207.28.53h.2" style="fill: none;stroke: #373e5a;stroke-miterlimit: 10;opacity: 0.6900000000000001"/>
        <path d="M206.4,51.42a11.34,11.34,0,0,0-6.09,1.72C157.79,80,106.45,96.3,52.17,100.23A11.54,11.54,0,0,0,41.37,112V233.65c0,113.48,50.36,186.4,158.93,228.59a9,9,0,0,0,4.25.65,19.14,19.14,0,0,0,4.25-.65c106-41.45,157.86-109.33,162.51-213" style="fill: none;stroke: #d1d5db;stroke-miterlimit: 10"/>
        <line x1="207.79" y1="102.44" x2="207.79" y2="380.5" style="fill: #edf0f3;stroke: #d1d5db;stroke-miterlimit: 10"/>
        <line x1="207.79" y1="380.57" x2="207.79" y2="435.88" style="fill: #edf0f3;stroke: #d1d5db;stroke-linecap: round;stroke-linejoin: round;stroke-dasharray: 7,10"/>
        <line x1="328.63" y1="250.29" x2="86.96" y2="250.29" style="fill: #d1d5db;stroke: #d1d5db;stroke-miterlimit: 10"/>
        <path d="M18.72,87.71a2.92,2.92,0,0,1,3.09-3.09,3.09,3.09,0,1,1,0,6.17A2.92,2.92,0,0,1,18.72,87.71Z" style="fill: #03a9f4"/>
        <path d="M201.1,488.79a3.09,3.09,0,1,1,3.09,3.09A2.92,2.92,0,0,1,201.1,488.79Z" style="fill: #03a9f4"/>
        <path d="M17,241.81a2.92,2.92,0,0,1,3.09-3.09,3.09,3.09,0,0,1,0,6.17A2.92,2.92,0,0,1,17,241.81Z" style="fill: #03a9f4"/>
        <path d="M63.89,393.22A3.09,3.09,0,1,1,67,396.31,2.92,2.92,0,0,1,63.89,393.22Z" style="fill: #03a9f4"/>
        <path d="M347.22,393.22a3.09,3.09,0,1,0-3.09,3.09A2.92,2.92,0,0,0,347.22,393.22Z" style="fill: #03a9f4"/>
        <path d="M205.71,61.61a10.77,10.77,0,0,0-5.79,1.63c-40.39,25.48-89.16,41-140.74,44.74a11,11,0,0,0-10.25,11.18V234.74c0,107.8,47.84,177.08,151,217.16a8.53,8.53,0,0,0,4,.62,18.18,18.18,0,0,0,4-.62C308.66,412.52,358,348,362.39,249.56" style="fill: none;stroke: #d1d5db;stroke-miterlimit: 10"/>
        <text transform="translate(101.87 195)" style="font-size: 17.48362922668457px;fill: #3f4563;font-family: Montserrat-BoldItalic, Montserrat BoldItalic;font-weight: 700;font-style: italic">Enhan<tspan x="46.14" y="0" style="letter-spacing: -0.006004500975676862em">c</tspan><tspan x="53.87" y="0">e</tspan></text>
        <text transform="translate(101.87 316.7)" style="font-size: 17.48362922668457px;fill: #3f4563;font-family: Montserrat-BoldItalic, Montserrat BoldItalic;font-weight: 700;font-style: italic"><tspan style="letter-spacing: 0.003993691346612983em">R</tspan><tspan x="9.48" y="0">espond</tspan></text> 
        <text transform="translate(238.22 316.7)" style="font-size: 17.48362922668457px;fill: #3f4563;font-family: Montserrat-BoldItalic, Montserrat BoldItalic;font-weight: 700;font-style: italic"><tspan style="letter-spacing: 0.0040216192581277585em">D</tspan><tspan x="11.71" y="0">e</tspan><tspan x="20.47" y="0" style="letter-spacing: -0.005976573064162086em">t</tspan><tspan x="26.16" y="0">e</tspan><tspan x="34.91" y="0" style="letter-spacing: 0.012958550942856112em">c</tspan><tspan x="42.97" y="0">t</tspan></text>
        
        <path d="M202.78,33.29a3.09,3.09,0,0,1,6.17,0,3.09,3.09,0,1,1-6.17,0Z" style="fill: #03a9f4"/>
        <path d="M206.3,51.42a11.34,11.34,0,0,1,6.09,1.72C254.9,80,306.24,96.3,360.53,100.23A11.54,11.54,0,0,1,371.32,112V233.65q0,9.72-.49,19" style="fill: none;stroke: #d1d5db;stroke-miterlimit: 10"/>
        <path d="M384.72,91.71a3.09,3.09,0,1,1,3.09,3.09A2.92,2.92,0,0,1,384.72,91.71Z" style="fill: #03a9f4"/>
        <path d="M394.06,241.81A3.09,3.09,0,1,0,391,244.9,2.92,2.92,0,0,0,394.06,241.81Z" style="fill: #03a9f4"/>
        <path d="M362.39,253.74V119.17A11,11,0,0,0,352.14,108c-51.57-3.73-100.35-19.26-140.74-44.74a10.77,10.77,0,0,0-5.79-1.63" style="fill: none;stroke: #d1d5db;stroke-miterlimit: 10"/>
        <text transform="translate(238.22 195)" style="font-size: 17.48362922668457px;fill: #373e5a;font-family: Montserrat-BoldItalic, Montserrat BoldItalic;font-weight: 700;font-style: italic"><tspan style="letter-spacing: -0.01597476538645193em">P</tspan><tspan x="9.02" y="0" style="letter-spacing: -0.009942336499260292em">r</tspan><tspan x="14.56" y="0" style="letter-spacing: -0.000055855823029552205em">o</tspan><tspan x="24.16" y="0" style="letter-spacing: -0.005976573064162086em">t</tspan><tspan x="29.84" y="0">e</tspan><tspan x="38.6" y="0" style="letter-spacing: 0.012958550942856112em">c</tspan><tspan x="46.66" y="0">t</tspan></text>
        <path d="M207.48.52s97.57,59.76,193,61.11c0,0,11.5,2,11.5,14.45l0,174.43" style="fill: none;stroke: #373e5a;stroke-miterlimit: 10"/>
</svg>
