<svg xmlns="http://www.w3.org/2000/svg" width="20" height="15.89" viewBox="0 0 20 15.89">
  <title>icon-chat-dots-blue-dark</title>
  <g id="Layer_2" data-name="Layer 2">
    <g id="_1200" data-name="1200">
      <g id="Overview_Features_-_DEFAULT" data-name="Overview Features - DEFAULT">
        <path d="M17.93,11.28l-.49,4.61L13.11,12.8H6.32A6.13,6.13,0,0,1,0,6.4,6.13,6.13,0,0,1,6.32,0h7.37A6.12,6.12,0,0,1,20,6.4a6.53,6.53,0,0,1-2.07,4.88ZM6.11,5.84a.56.56,0,1,0,.56.56.56.56,0,0,0-.56-.56Zm2.59,0a.56.56,0,1,0,.56.56.56.56,0,0,0-.56-.56Zm2.59,0a.56.56,0,1,0,.56.56.56.56,0,0,0-.56-.56Zm2.59,0a.56.56,0,1,0,.56.56.56.56,0,0,0-.56-.56ZM13.68.74H6.32A5.39,5.39,0,0,0,.74,6.4a5.39,5.39,0,0,0,5.58,5.66h7l3.49,2.49.39-3.64.11-.1A5.77,5.77,0,0,0,19.26,6.4,5.38,5.38,0,0,0,13.68.74Z" style="fill: #373e5a;fill-rule: evenodd"/>
      </g>
    </g>
  </g>
</svg>
