<svg id="CDN" xmlns="http://www.w3.org/2000/svg" viewBox="0 0 100 100"><g id="SVG_Icons" data-name="SVG Icons"><path class="svg-grey" d="M24.18,18.69a.51.51,0,0,1,.05-.71,18.59,18.59,0,0,1,8.06-4.16c.56-.13,1.14-.24,1.72-.32a.51.51,0,0,1,.57.42.5.5,0,0,1-.43.57c-.55.08-1.1.18-1.63.31a17.73,17.73,0,0,0-7.64,3.93.46.46,0,0,1-.33.13A.5.5,0,0,1,24.18,18.69Zm-9.84,9.54a.5.5,0,0,0,.23-.67.51.51,0,0,0-.67-.23,13.92,13.92,0,0,0-7.14,8.51.5.5,0,0,0,.33.63l.15,0a.49.49,0,0,0,.47-.35A12.94,12.94,0,0,1,14.34,28.23ZM99.18,63.67a15.23,15.23,0,0,1-.68,3.62,30.94,30.94,0,0,1-8.11,14.9.39.39,0,0,1-.11.17,7.56,7.56,0,0,1-.67.6,30.86,30.86,0,0,1-34.09,5.8l-.1,0H41v.91A1.26,1.26,0,0,1,39.7,91H29.42a1.26,1.26,0,0,1-1.26-1.26v-.91H12.34a.5.5,0,0,1-.5-.5.5.5,0,0,1,.5-.5H28.16v-.92a1.25,1.25,0,0,1,1.26-1.25H34.1V80a5.55,5.55,0,0,0-3.81-5.24H13.37A3.7,3.7,0,0,1,9.68,71V68.51a3.49,3.49,0,0,1,1.74-3,3.4,3.4,0,0,1-1.74-3V59.46a3.41,3.41,0,0,1,1-2.44,4,4,0,0,1,.56-.43,3.44,3.44,0,0,1-1.54-2.31A18.44,18.44,0,0,1,1.06,42.53c-2.26-9.55,3.15-19,12-21.15A17.36,17.36,0,0,1,15.27,21a23.14,23.14,0,0,1,37.9-4.84,16.9,16.9,0,0,1,2.53-.81A18.18,18.18,0,0,1,72.3,20c.21-.07.42-.12.64-.18a11.5,11.5,0,0,1,9.13,1.72,13.24,13.24,0,0,1,5.5,8,13.47,13.47,0,0,1-.11,6.68A31,31,0,0,1,98.81,55.42a.47.47,0,0,1,.08.26s0,.07,0,.11a31.06,31.06,0,0,1,.37,4.75c0,.11,0,.22,0,.32A13.21,13.21,0,0,1,99.18,63.67ZM73.72,82.37v0C85.67,81.07,95,75,97.52,67.06a29.84,29.84,0,0,0,.72-6.17,13.45,13.45,0,0,0-.69-3.12c-2.78,2.07-9.62,3.48-17.56,4.17a1.89,1.89,0,0,1-1.42,1.28,39.41,39.41,0,0,1-5.36,17.87A1.91,1.91,0,0,1,73.72,82.37Zm-12,7.41a18.83,18.83,0,0,0,8.36-6.12c-.45,0-.9,0-1.36,0a43.75,43.75,0,0,1-16.23-3,31.83,31.83,0,0,1-7.56-4.26,9.87,9.87,0,0,0,2.7,5.79l.05.07A29.87,29.87,0,0,0,61.71,89.78ZM70,82.37V82.3A50,50,0,0,1,58,74a3.63,3.63,0,0,1-2.19.74h-11c0,.1,0,.21,0,.31a30.3,30.3,0,0,0,8.06,4.71,42.56,42.56,0,0,0,15.85,2.94c.43,0,.86,0,1.29,0A1.36,1.36,0,0,1,70,82.37ZM43,74.72H41.88a29.16,29.16,0,0,0,2.5,3.88,13.12,13.12,0,0,1-.56-3.09C43.52,75.25,43.24,75,43,74.72Zm27.31,6.63a1.88,1.88,0,0,1,1.57-.85,2,2,0,0,1,.44,0,38.72,38.72,0,0,0,5.29-17.42,1.83,1.83,0,0,1-1-.93c-2.72.16-5.51.24-8.27.24-2.94,0-5.91-.09-8.79-.28v.37a3.41,3.41,0,0,1-1.73,3,3.5,3.5,0,0,1,1.73,3V71a3.64,3.64,0,0,1-.78,2.23A48.92,48.92,0,0,0,70.27,81.35Zm-10.8-30.7v3.06c0,.08,0,.14,0,.21s0,.35-.06.51a3.43,3.43,0,0,1-1.52,2.16,4,4,0,0,1,.56.43,3.41,3.41,0,0,1,1,2.44v1.71c2.73.17,5.67.27,8.79.27q4.27,0,8.09-.23a1.86,1.86,0,0,1,1.32-1.62A42.34,42.34,0,0,0,75.5,46.54l-.21-.61c-.07-.2-.15-.39-.23-.59a34.19,34.19,0,0,0-2.31-5,2.22,2.22,0,0,1-.45.06,2,2,0,0,1-1.38-.54,49,49,0,0,0-12.23,8.61A3.36,3.36,0,0,1,59.47,50.65ZM49,37.66a23.15,23.15,0,0,1,6-1.44,43.67,43.67,0,0,1,16,1.45v0A20.45,20.45,0,0,0,63.24,31,29.83,29.83,0,0,0,49,37.66Zm37.22-1.14a29.82,29.82,0,0,0-17.9-5.94,30.36,30.36,0,0,0-3.32.18,22.54,22.54,0,0,1,7,6.44,2,2,0,0,1,.35,0,2,2,0,0,1,1.3.46C78.28,35.89,82.66,35.46,86.17,36.52ZM73.69,39.89a35,35,0,0,1,2.08,4.36l.21.53c.08.2.16.4.23.6a43.26,43.26,0,0,1,2.46,14.19A1.87,1.87,0,0,1,80,60.94c8.89-.79,15.15-2.42,17.16-4.11C95.07,51.81,90,47,82.55,43.21l-.5-.26-.53-.26c-1.64-.8-3.37-1.55-5.21-2.25-.8-.3-1.59-.57-2.38-.83A1.61,1.61,0,0,1,73.69,39.89ZM46.88,38.44h0ZM45.7,40.08c-.13,0-.63-.1-.66-.1a10.88,10.88,0,0,0-1.41-.07H24.43a9.14,9.14,0,0,0-5.49,1.6l-5.81,5.72H55.78l-6.7-5.72a7,7,0,0,0-2.7-1.29ZM58,47.78h0A50.12,50.12,0,0,1,70.45,39a1.37,1.37,0,0,1,0-.19,1.5,1.5,0,0,1,0-.22A42.55,42.55,0,0,0,55,37.21a19.76,19.76,0,0,0-7.59,2.29,7.4,7.4,0,0,1,2.28,1.24Zm39.91,8a29.94,29.94,0,0,0-8-16h0a9.1,9.1,0,0,0-3-2l-.47-.19L86,37.52c-2.76-.85-6.2-.72-10.09.44-.57.17-1.14.38-1.72.59a.25.25,0,0,0,0,.08c.83.27,1.67.56,2.5.87a62.5,62.5,0,0,1,5.82,2.55l.48.24.49.25C90.57,46.29,95.56,51,97.86,55.9A.2.2,0,0,0,97.87,55.83ZM10.92,48a.62.62,0,0,1,.08-.12l7.27-7.15a10,10,0,0,1,6.18-1.86H43.6a17,17,0,0,1,2.39.2l.27-.3h0a3.37,3.37,0,0,1,.33-.33A31,31,0,0,1,63.12,30l.17,0a31.47,31.47,0,0,1,5-.41,30.81,30.81,0,0,1,18.33,6,12.45,12.45,0,0,0,0-5.79,12.24,12.24,0,0,0-5.07-7.42,10.53,10.53,0,0,0-8.35-1.57h0c-.29.07-.57.15-.85.24a.49.49,0,0,1-.5-.11,17.25,17.25,0,0,0-15.89-4.6,17.65,17.65,0,0,0-2.69.89.48.48,0,0,1-.56-.12A23.09,23.09,0,0,0,35.74,9.44a21.68,21.68,0,0,0-5,.59A22.44,22.44,0,0,0,16,21.74a.54.54,0,0,1-.41.27,13.36,13.36,0,0,0-2.28.35C5,24.34-.1,33.28,2,42.29A17.52,17.52,0,0,0,9.68,53.08V50.65A3.37,3.37,0,0,1,10.92,48Zm1.69,8a2.1,2.1,0,0,0,.36,0H56.2a2.4,2.4,0,0,0,2.18-1.8,2.61,2.61,0,0,0,.08-.5s0-.06,0-.1V50.65A2.36,2.36,0,0,0,58,49.2a2.32,2.32,0,0,0-.77-.66,2.35,2.35,0,0,0-1.15-.31H13.1a2.33,2.33,0,0,0-.38,0,2.4,2.4,0,0,0-2,2.38v3.06a2,2,0,0,0,.07.55A2.09,2.09,0,0,0,11,55,2.4,2.4,0,0,0,12.61,56.08Zm.49,8.86H56.05a2.42,2.42,0,0,0,2.42-2.41V59.46a2.39,2.39,0,0,0-.73-1.71,2.2,2.2,0,0,0-1.52-.64H12.93a2.26,2.26,0,0,0-1.52.64,2.38,2.38,0,0,0-.72,1.71v3.07A2.41,2.41,0,0,0,13.1,64.94ZM34.59,77.57a6.35,6.35,0,0,1,4.09-3.84h17.1a2.7,2.7,0,0,0,1.46-.44,2.86,2.86,0,0,0,.73-.7A2.67,2.67,0,0,0,58.46,71V68.51a2.59,2.59,0,0,0-2.6-2.57H13.37a2.6,2.6,0,0,0-2.69,2.56V71a2.7,2.7,0,0,0,2.69,2.69h17.1A6.43,6.43,0,0,1,34.59,77.57ZM40,86.86a.25.25,0,0,0-.25-.25H29.42a.26.26,0,0,0-.26.25v2.83a.26.26,0,0,0,.26.26H39.7a.26.26,0,0,0,.25-.26V86.86Zm13.58.92A31.24,31.24,0,0,1,40.75,74.72H38.86A5.44,5.44,0,0,0,35.1,80v5.65h4.6A1.25,1.25,0,0,1,41,86.86v.92ZM85.61,85a14.93,14.93,0,0,1-3.75.46,25.33,25.33,0,0,1-8.67-1.75,1.88,1.88,0,0,1-1.35.57,1.9,1.9,0,0,1-.75-.16,20.75,20.75,0,0,1-7.57,6A29.9,29.9,0,0,0,85.61,85ZM95.7,72.6C91.55,78,84.06,82,75,83.26c.19.06.38.14.56.19,5.64,1.69,10.34,1.26,13.37-1.19A30.05,30.05,0,0,0,95.7,72.6ZM44.18,70.31h7.6a.5.5,0,0,0,0-1h-7.6a.5.5,0,0,0,0,1Zm0-17.59h7.6a.51.51,0,0,0,.5-.5.5.5,0,0,0-.5-.5h-7.6a.41.41,0,0,0-.19,0,.49.49,0,0,0-.31.46A.5.5,0,0,0,44.18,52.72ZM44,61.5a.41.41,0,0,0,.16,0h7.6a.55.55,0,0,0,.25-.07.49.49,0,0,0,.25-.43.51.51,0,0,0-.5-.5h-7.6a.5.5,0,0,0-.5.5.29.29,0,0,0,0,.09A.48.48,0,0,0,44,61.5Z"/></g></svg>