<svg xmlns="http://www.w3.org/2000/svg" width="81.99" height="99" viewBox="0 0 81.99 99">
  <title>icon-green-fire-black-wall</title>
  <g id="Layer_2" data-name="Layer 2">
    <g id="Benefits_-_1200" data-name="Benefits - 1200">
      <g id="Better_Way" data-name="Better Way">
        <g id="Protect">
          <g id="firewall_-_med" data-name="firewall - med">
            <g>
              <path d="M26.12,88s-12.43.94-20.54-9C1,73.59-2.6,64.4,4.52,50.64c0,0,4-5.62,2.09-18.49,0,0,3.22,1.68,3.24,4.15l0-.26,0,.26A32.39,32.39,0,0,1,7.32,54.93L7,55.56A23.1,23.1,0,0,0,28.08,88.07Z" style="fill: #fff;stroke: #1fc469;stroke-linecap: round;stroke-linejoin: round"/>
              <g>
                <path d="M27.79,88S42.63,88.55,50,74.74l0,0c4.05-7.5,7.43-21.66-5.22-42.34C35.61,17.34,40,9.79,40,9.79s-12,11.1-8.32,19.49h0a47.52,47.52,0,0,0,4.36,5.3c10.23,10.86,14.85,20.6,14.84,30A23.35,23.35,0,0,1,27.79,88" style="fill: #fff;stroke: #1fc469;stroke-linecap: round;stroke-linejoin: round"/>
                <path d="M40,9.79S28,23.51,38,36.74" style="fill: none;stroke: #1fc469;stroke-linecap: round;stroke-linejoin: round"/>
              </g>
              <g>
                <path d="M51.2,64.83c0-9.32-4.62-19-14.84-29.75-19.71-20.76-2-32.92-2-32.92A16,16,0,0,1,36.62.5L34.82,1s-27.39,7-25,35.35A32.39,32.39,0,0,1,7.32,54.93L7,55.56A23.1,23.1,0,0,0,28.08,88.07,23.25,23.25,0,0,0,51.2,64.83" style="fill: #fff;stroke: #1fc469;stroke-linecap: round;stroke-linejoin: round"/>
                <path d="M33,87.55c10.13-2.88,11.21-16.54,10-24-1.2-7.17-5.54-14.68-13.29-23.78C12.45,19.61,31.77,4.58,31.77,4.58" style="fill: none;stroke: #1fc469;stroke-linecap: round;stroke-linejoin: round"/>
                <path d="M27.5,84.21s13.26-7.83,5.55-21c0,0-3.33-5.13-2.52-9.33l-.69,1.68s-3.59-2.35-2.93-6.46c0,0-3.82,3.69-.72,10.69,0,0-5.44-5.11-4.28-14.65,0,0-12,10.74-6.61,27a23.94,23.94,0,0,0,9.36,12.3A3.61,3.61,0,0,0,27.5,84.21Z" style="fill: none;stroke: #1fc469;stroke-linecap: round;stroke-linejoin: round"/>
              </g>
            </g>
            <g>
              <g>
                <path d="M39.07,49.44l-4.89,2.82a.74.74,0,0,1-.67,0l-5.79-3.34a.2.2,0,0,1,0-.39l4.89-2.82a.74.74,0,0,1,.67,0L39.07,49A.2.2,0,0,1,39.07,49.44Z" style="fill: #fff;stroke: #373e5a;stroke-linecap: round;stroke-linejoin: round"/>
                <path d="M60.21,37.23,40.06,48.86a.74.74,0,0,1-.67,0L33.6,45.52a.2.2,0,0,1,0-.39L53.75,33.5a.74.74,0,0,1,.67,0l5.79,3.34A.2.2,0,0,1,60.21,37.23Z" style="fill: #fff;stroke: #373e5a;stroke-linecap: round;stroke-linejoin: round"/>
                <path d="M81.48,24.79a.21.21,0,0,1-.13.23L61.2,36.66a.74.74,0,0,1-.67,0l-5.79-3.34a.2.2,0,0,1,0-.39L74.89,21.29a.71.71,0,0,1,.4-.07Z" style="fill: #fff;stroke: #373e5a;stroke-linecap: round;stroke-linejoin: round"/>
              </g>
              <g>
                <path d="M33.17,63.59l-5.25-3a.8.8,0,0,1-.34-.64V49.52c0-.25.15-.36.34-.25l5.25,3a.8.8,0,0,1,.34.64V63.33C33.5,63.58,33.35,63.69,33.17,63.59Z" style="fill: #fff;stroke: #373e5a;stroke-linecap: round;stroke-linejoin: round"/>
                <path d="M33.17,75.21l-5.25-3a.8.8,0,0,1-.34-.64V61.15c0-.25.15-.36.34-.25l5.25,3a.8.8,0,0,1,.34.64V75C33.5,75.2,33.35,75.32,33.17,75.21Z" style="fill: #fff;stroke: #373e5a;stroke-linecap: round;stroke-linejoin: round"/>
                <path d="M33.17,86.83l-5.25-3a.8.8,0,0,1-.34-.64V72.77c0-.25.15-.36.34-.25l5.25,3a.8.8,0,0,1,.34.64V86.58C33.5,86.83,33.35,86.94,33.17,86.83Z" style="fill: #fff;stroke: #373e5a;stroke-linecap: round;stroke-linejoin: round"/>
                <path d="M33.17,98.46l-5.25-3a.8.8,0,0,1-.34-.64V84.4c0-.25.15-.36.34-.25l5.25,3a.8.8,0,0,1,.34.64V98.21C33.5,98.45,33.35,98.57,33.17,98.46Z" style="fill: #fff;stroke: #373e5a;stroke-linecap: round;stroke-linejoin: round"/>
              </g>
              <g>
                <path d="M39.72,59.74,59.87,48.11a.74.74,0,0,0,.34-.58V37c0-.21-.15-.3-.34-.19L39.72,48.46a.74.74,0,0,0-.34.58V59.55C39.38,59.77,39.53,59.85,39.72,59.74Z" style="fill: #fff;stroke: #373e5a;stroke-linecap: round;stroke-linejoin: round"/>
                <path d="M60.86,47.54,81,35.9a.71.71,0,0,0,.26-.31v-11a.21.21,0,0,0-.26,0L60.86,36.25a.74.74,0,0,0-.34.58V47.34C60.52,47.56,60.67,47.65,60.86,47.54Z" style="fill: #fff;stroke: #373e5a;stroke-linecap: round;stroke-linejoin: round"/>
                <path d="M71.26,42.26V52.77c0,.21.15.3.34.19l9.68-5.59V36.09L71.6,41.68A.74.74,0,0,0,71.26,42.26Z" style="fill: #fff;stroke: #373e5a;stroke-linecap: round;stroke-linejoin: round"/>
                <path d="M61.53,70.4,81.27,59V47.71L61.53,59.11a.74.74,0,0,0-.34.58V70.21C61.19,70.42,61.34,70.51,61.53,70.4Z" style="fill: #fff;stroke: #373e5a;stroke-linecap: round;stroke-linejoin: round"/>
                <path d="M70.94,53V42.44c0-.21-.15-.3-.34-.19L50.45,53.88a.74.74,0,0,0-.34.58V65c0,.21.15.3.34.19L70.6,53.54A.74.74,0,0,0,70.94,53Z" style="fill: #fff;stroke: #373e5a;stroke-linecap: round;stroke-linejoin: round"/>
                <path d="M40.39,71.32a.74.74,0,0,0-.34.58V82.41c0,.21.15.3.34.19L60.54,71a.74.74,0,0,0,.34-.58V59.88c0-.21-.15-.3-.34-.19Z" style="fill: #fff;stroke: #373e5a;stroke-linecap: round;stroke-linejoin: round"/>
                <path d="M39.73,82.6V72.09c0-.21-.15-.3-.34-.19l-5.89,3.4V86.58l5.89-3.4A.74.74,0,0,0,39.73,82.6Z" style="fill: #fff;stroke: #373e5a;stroke-linecap: round;stroke-linejoin: round"/>
                <path d="M70.6,65.5,50.45,77.13a.74.74,0,0,0-.34.58V88.23c0,.21.15.3.34.19L70.6,76.79a.74.74,0,0,0,.34-.58V65.69C70.94,65.48,70.79,65.39,70.6,65.5Z" style="fill: #fff;stroke: #373e5a;stroke-linecap: round;stroke-linejoin: round"/>
                <path d="M81.27,59.34,71.6,64.93a.74.74,0,0,0-.34.58V76c0,.21.15.3.34.19l9.68-5.59Z" style="fill: #fff;stroke: #373e5a;stroke-linecap: round;stroke-linejoin: round"/>
                <path d="M49.46,77.7l-16,9.21V98.21l16-9.21a.74.74,0,0,0,.34-.58V77.9C49.8,77.68,49.65,77.6,49.46,77.7Z" style="fill: #fff;stroke: #373e5a;stroke-linecap: round;stroke-linejoin: round"/>
                <path d="M49.8,65.16V54.65c0-.21-.15-.3-.34-.19l-16,9.21V75l16-9.21A.74.74,0,0,0,49.8,65.16Z" style="fill: #fff;stroke: #373e5a;stroke-linecap: round;stroke-linejoin: round"/>
                <path d="M39.06,59.74V49.22c0-.21-.15-.3-.34-.19L33.5,52V63.33l5.22-3A.74.74,0,0,0,39.06,59.74Z" style="fill: #fff;stroke: #373e5a;stroke-linecap: round;stroke-linejoin: round"/>
              </g>
            </g>
          </g>
        </g>
      </g>
    </g>
  </g>
</svg>
