<svg xmlns="http://www.w3.org/2000/svg" viewBox="0 0 100 83.63"><defs><style>.cls-1{fill:none;stroke:#03a9f4;stroke-miterlimit:10;}</style></defs><title>icon-blue-outline-gears</title><g id="Layer_2" data-name="Layer 2"><g id="cWatch_Contact_Us" data-name="cWatch Contact Us"><g id="_575" data-name="575"><g id="Technical_Support" data-name="Technical Support"><g id="technical_support_icon" data-name="technical support icon"><polygon class="cls-1" points="99.45 16.34 96.9 18.32 96.67 21.93 98.94 24.34 98.43 25.9 95.26 26.22 93.49 28.99 94.39 32.26 93.21 33.34 90.27 31.98 87.21 33.53 86.43 36.79 84.89 37.09 82.98 34.35 79.56 34.05 77.33 36.42 75.84 35.84 75.49 32.48 72.84 30.56 69.77 31.45 68.73 30.18 69.97 27.1 68.44 23.82 65.35 22.94 65.05 21.3 67.6 19.32 67.83 15.71 65.55 13.3 66.06 11.74 69.24 11.42 71 8.65 70.11 5.38 71.29 4.3 74.22 5.67 77.29 4.11 78.07 0.85 79.61 0.55 81.52 3.29 84.93 3.59 87.17 1.23 88.66 1.8 89.01 5.17 91.66 7.08 94.72 6.2 95.77 7.46 94.53 10.55 96.05 13.82 99.14 14.7 99.45 16.34"/><ellipse class="cls-1" cx="82.25" cy="18.82" rx="8.26" ry="8.77" transform="matrix(0.99, -0.15, 0.15, 0.99, -1.86, 12.14)"/><path class="cls-1" d="M76.77,25.2a9,9,0,0,1-1.53-3.62,8.58,8.58,0,0,1,6.49-10.19,8,8,0,0,1,7,2"/><polygon class="cls-1" points="70.34 47.69 64.56 50.62 62.77 57.67 66.37 63.3 64.77 66.2 58.38 65.61 53.86 70.41 54.41 77.21 51.69 78.91 46.39 75.08 39.76 76.98 37 83.13 33.84 83.13 31.09 76.98 24.45 75.08 19.16 78.91 16.43 77.21 16.98 70.41 12.46 65.61 6.07 66.2 4.47 63.3 8.07 57.67 6.28 50.62 0.5 47.69 0.5 44.33 6.28 41.41 8.07 34.35 4.47 28.73 6.07 25.83 12.46 26.41 16.98 21.61 16.43 14.81 19.16 13.12 24.45 16.94 31.09 15.04 33.84 8.9 37 8.9 39.76 15.04 46.39 16.94 51.69 13.12 54.41 14.81 53.86 21.61 58.38 26.41 64.77 25.83 66.37 28.73 62.77 34.35 64.56 41.41 70.34 44.33 70.34 47.69"/><ellipse class="cls-1" cx="35.42" cy="46.01" rx="16.62" ry="17.66"/><path class="cls-1" d="M22.22,56.53a18.46,18.46,0,0,1-1.68-7.75C20.54,39,28,31.12,37.16,31.12a16.24,16.24,0,0,1,13,6.65"/></g></g></g></g></g></svg>