<svg xmlns="http://www.w3.org/2000/svg" width="452.36" height="318.27" viewBox="0 0 452.36 318.27">
  <title>icon-rockets-incoming</title>
  <g id="Layer_2" data-name="Layer 2">
    <g id="Home_-_1200" data-name="Home - 1200">
      <g id="Web_Security" data-name="Web Security">
        <g id="Illustration">
          <g id="DDoS">
            <g id="DDOS_ATTACK" data-name="DDOS ATTACK">
              <g id="Drop_Lines" data-name="Drop Lines">
                <g>
                  <path d="M206.08,134.69s.37-.59,1.08-1.68" style="fill: none;stroke: #969c9c;stroke-linecap: round;stroke-linejoin: round"/>
                  <path d="M213.73,123.29c3.81-5.46,9-12.56,15.21-20.59" style="fill: none;stroke: #969c9c;stroke-linecap: round;stroke-linejoin: round;stroke-dasharray: 6.400444984436035,4.266963481903076,11.734148979187012,6.400444984436035"/>
                  <path d="M230.92,100.18C275.36,43.82,371.07-53.06,448.54,37.67" style="fill: none;stroke: #969c9c;stroke-linecap: round;stroke-linejoin: round;stroke-dasharray: 4.266963481903076,11.734148979187012,6.400444984436035,4.266963481903076,11.734148979187012,6.400444984436035"/>
                  <path d="M450.6,40.14l1.26,1.55" style="fill: none;stroke: #969c9c;stroke-linecap: round;stroke-linejoin: round"/>
                </g>
                <g>
                  <path d="M185,250.42s.37-.59,1.08-1.68" style="fill: none;stroke: #969c9c;stroke-linecap: round;stroke-linejoin: round"/>
                  <path d="M192.65,239c3.81-5.46,9-12.56,15.21-20.59" style="fill: none;stroke: #969c9c;stroke-linecap: round;stroke-linejoin: round;stroke-dasharray: 6.400444984436035,4.266963481903076,11.734148979187012,6.400444984436035"/>
                  <path d="M209.83,215.91C254.27,159.55,350,62.68,427.45,153.4" style="fill: none;stroke: #969c9c;stroke-linecap: round;stroke-linejoin: round;stroke-dasharray: 4.266963481903076,11.734148979187012,6.400444984436035,4.266963481903076,11.734148979187012,6.400444984436035"/>
                  <path d="M429.51,155.87l1.26,1.55" style="fill: none;stroke: #969c9c;stroke-linecap: round;stroke-linejoin: round"/>
                </g>
                <g>
                  <path d="M56.62,207.48s.37-.59,1.08-1.68" style="fill: none;stroke: #969c9c;stroke-linecap: round;stroke-linejoin: round"/>
                  <path d="M64.28,196.09c3.81-5.46,9-12.56,15.21-20.59" style="fill: none;stroke: #969c9c;stroke-linecap: round;stroke-linejoin: round;stroke-dasharray: 6.400444984436035,4.266963481903076,11.734148979187012,6.400444984436035"/>
                  <path d="M81.46,173c44.44-56.36,140.16-153.24,217.62-62.51" style="fill: none;stroke: #969c9c;stroke-linecap: round;stroke-linejoin: round;stroke-dasharray: 4.266963481903076,11.734148979187012,6.400444984436035,4.266963481903076,11.734148979187012,6.400444984436035"/>
                  <path d="M301.14,112.93l1.26,1.55" style="fill: none;stroke: #969c9c;stroke-linecap: round;stroke-linejoin: round"/>
                </g>
              </g>
              <g id="Lines">
                <path d="M195.08,143.27c.44-5.89,2-9.2,3.68-11.08a23.84,23.84,0,0,0-2.4,2c.29-.63.53-1.22.75-1.8-1.37,2.08-4.15,4.49-9.72,6.46a26,26,0,0,0-11,7.3,61.32,61.32,0,0,0,3.73-12,8.71,8.71,0,0,1-5.13,4.46c-24.8,15.9-6.25,33.53-5.67,34.07l1-1.53c6.48,2.69,21.38,6,28.28-16a8.71,8.71,0,0,1,2.95-6.13,61.31,61.31,0,0,0-10.56,6.75A26,26,0,0,0,195.08,143.27Zm-13.66,10.56L182,153c-.91-4.6,3.76-8.09,3.76-8.09a22.34,22.34,0,0,0,5.71-3.9,22.45,22.45,0,0,0-1.75,5.47s-2.13,5.41-6.81,5.75Z" style="fill: #fff;stroke: #3f4563;stroke-miterlimit: 10"/>
                <path d="M157.15,180.73a57.57,57.57,0,0,0-8.49-4.05s-48.84,29.85-71.06,64-11,65.62-11,65.62l0,.09s33.37.84,58.87-31,38.52-87.57,38.52-87.57a57.53,57.53,0,0,0-6.94-7.17Z" style="fill: #fff;stroke: #3f4563;stroke-linecap: round;stroke-linejoin: round"/>
                <polyline points="147.2 229.1 180.92 223.84 199.1 195.7 176.28 188.34 159.89 199.01 147.2 229.1 150.81 229.78" style="fill: #fff;stroke: #3f4563;stroke-linecap: round;stroke-linejoin: round"/>
                <path d="M108.16,206.13l-7.32-12.24,20.11-25.1L146.49,176" style="fill: #fff;stroke: #3f4563;stroke-linecap: round;stroke-linejoin: round"/>
                <polygon points="121.82 208.77 124.82 177.29 147.57 147.09 153.07 160.68 140.55 176.4 147.04 178.56 147.86 182.64 146.98 183.57 121.82 208.77" style="fill: #fff;stroke: #3f4563;stroke-linecap: round;stroke-linejoin: round"/>
                <path d="M174.52,206s-10.27-23.69-34-29.57l12.51-15.72s24.08,6.76,31.93,30.4Z" style="fill: #fff;stroke: #3f4563;stroke-linecap: round;stroke-linejoin: round"/>
                <path d="M104,294.73c4.2-7.67-15.11-21.37-15.11-21.37-18.11-12.69-22.75-6.27-22.75-6.27l-1.38,6.45s4.84-6.31,20.59,4.74c0,0,17.33,12.6,12.78,19.77Z" style="fill: #fff;stroke: #3f4563;stroke-linecap: round;stroke-linejoin: round"/>
                <polygon points="144.61 146.2 121.82 176.68 118.82 207.23 121.82 208.77 124.82 177.29 147.53 146.85 146.42 146.65 144.61 146.2" style="fill: #fff;stroke: #3f4563;stroke-linecap: round;stroke-linejoin: round"/>
                <path d="M170.74,203.64s-9.65-18.07-29.35-24.37l-.83-2.87c23.69,5.88,34,29.56,34,29.56Z" style="fill: #fff;stroke: #3f4563;stroke-linecap: round;stroke-linejoin: round"/>
                <polygon points="149.05 232 147.2 229.1 180.92 223.84 199.1 195.7 199.75 195.7 200.94 197.97 182.9 227.07 149.05 232 149.05 232" style="fill: #fff;stroke: #3f4563;stroke-linecap: round;stroke-linejoin: round"/>
                <line x1="180.92" y1="223.84" x2="182.55" y2="226.55" style="fill: #fff;stroke: #3f4563;stroke-linecap: round;stroke-linejoin: round"/>
                <path d="M176.35,260.45a26.25,26.25,0,0,0-3.87-1.85s-22.27,13.61-32.4,29.2-5,29.92-5,29.92l0,0s15.21.39,26.84-14.13,17.56-39.92,17.56-39.92a26.23,26.23,0,0,0-3.16-3.27Z" style="fill: #fff;stroke: #3f4563;stroke-linecap: round;stroke-linejoin: round"/>
                <polyline points="173.46 282.82 187.6 280.61 196.15 267.28 185.07 263.92 177.6 268.79 172.15 283.03 173.46 282.82" style="fill: #fff;stroke: #3f4563;stroke-linecap: round;stroke-linejoin: round"/>
                <path d="M154,272l-3.34-5.58L159.85,255l11.65,3.27" style="fill: #fff;stroke: #3f4563;stroke-linecap: round;stroke-linejoin: round"/>
                <polygon points="160.25 273.24 161.61 258.89 171.99 245.12 174.49 251.31 168.79 258.48 171.74 259.47 172.12 261.32 171.72 261.75 160.25 273.24" style="fill: #fff;stroke: #3f4563;stroke-linecap: round;stroke-linejoin: round"/>
                <path d="M184.27,272s-4.68-10.8-15.49-13.48l5.71-7.17s11,3.08,14.56,13.86Z" style="fill: #fff;stroke: #3f4563;stroke-linecap: round;stroke-linejoin: round"/>
                <path d="M152.13,312.43c1.91-3.5-6.89-9.74-6.89-9.74-8.25-5.79-10.37-2.86-10.37-2.86l-.63,2.94s2.21-2.87,9.39,2.16c0,0,7.9,5.75,5.83,9Z" style="fill: #fff;stroke: #3f4563;stroke-linecap: round;stroke-linejoin: round"/>
                <polygon points="171.19 244.85 160.83 258.64 159.36 272.78 160.25 273.24 161.61 258.89 171.97 245.01 171.46 244.91 171.19 244.85" style="fill: #fff;stroke: #3f4563;stroke-linecap: round;stroke-linejoin: round"/>
                <path d="M183.11,271.24s-4.27-9.09-14-12l-.28-.78c10.8,2.68,15.5,13.48,15.5,13.48Z" style="fill: #fff;stroke: #3f4563;stroke-linecap: round;stroke-linejoin: round"/>
                <polygon points="172.66 283.83 172.15 283.03 187.61 280.64 196.15 267.28 196.16 267.31 196.32 268.31 188.09 281.58 172.66 283.83 172.66 283.83" style="fill: #fff;stroke: #3f4563;stroke-linecap: round;stroke-linejoin: round"/>
                <path d="M43.55,224.29a26.54,26.54,0,0,0-3.92-1.87S17.11,236.18,6.87,251.95s-5,30.26-5,30.26l0,0S17.22,282.64,29,268s17.76-40.37,17.76-40.37a26.52,26.52,0,0,0-3.2-3.3Z" style="fill: #fff;stroke: #3f4563;stroke-linecap: round;stroke-linejoin: round"/>
                <polyline points="40.62 246.9 54.92 244.68 63.57 231.19 52.37 227.8 44.81 232.71 39.3 247.12 40.62 246.9" style="fill: #fff;stroke: #3f4563;stroke-linecap: round;stroke-linejoin: round"/>
                <path d="M21,236l-3.38-5.64,9.27-11.57,11.78,3.3" style="fill: #fff;stroke: #3f4563;stroke-linecap: round;stroke-linejoin: round"/>
                <polygon points="27.26 237.22 28.64 222.7 39.13 208.78 41.66 215.04 35.9 222.29 38.89 223.29 39.27 225.17 38.86 225.6 27.26 237.22" style="fill: #fff;stroke: #3f4563;stroke-linecap: round;stroke-linejoin: round"/>
                <path d="M51.56,235.92S46.82,225,35.9,222.29L41.67,215s11.1,3.12,14.72,14Z" style="fill: #fff;stroke: #3f4563;stroke-linecap: round;stroke-linejoin: round"/>
                <path d="M19,276.85c1.93-3.54-7-9.85-7-9.85-8.35-5.85-10.49-2.89-10.49-2.89l-.63,3s2.23-2.91,9.5,2.18c0,0,8,5.81,5.89,9.12Z" style="fill: #fff;stroke: #3f4563;stroke-linecap: round;stroke-linejoin: round"/>
                <polygon points="38.33 208.5 27.84 222.45 26.36 236.75 27.26 237.22 28.64 222.7 39.11 208.67 38.6 208.57 38.33 208.5" style="fill: #fff;stroke: #3f4563;stroke-linecap: round;stroke-linejoin: round"/>
                <path d="M50.38,235.2s-4.32-9.19-14.2-12.11l-.29-.79c10.92,2.71,15.67,13.63,15.67,13.63Z" style="fill: #fff;stroke: #3f4563;stroke-linecap: round;stroke-linejoin: round"/>
                <polygon points="39.81 247.92 39.3 247.12 54.93 244.7 63.57 231.19 63.58 231.22 63.74 232.23 55.42 245.65 39.81 247.92 39.81 247.92" style="fill: #fff;stroke: #3f4563;stroke-linecap: round;stroke-linejoin: round"/>
              </g>
              <g id="toxic_circles" data-name="toxic circles">
                <path d="M26.53,248.9c-4.22,3.22-7.09,10.09-6.41,15.35s4.65,6.92,8.86,3.7,7.09-10.09,6.41-15.35S30.75,245.69,26.53,248.9Z" style="fill: none;stroke: #969c9c;stroke-linecap: round;stroke-linejoin: round;opacity: 0.33"/>
                <path d="M160.29,284.25c-4.22,3.22-7.09,10.09-6.41,15.35s4.65,6.92,8.86,3.7,7.09-10.09,6.41-15.35S164.51,281,160.29,284.25Z" style="fill: none;stroke: #969c9c;stroke-linecap: round;stroke-linejoin: round;opacity: 0.30000000000000004"/>
                <path d="M120.4,227.27c-7.9,6-13,19.32-11.3,29.69s9.41,13.89,17.31,7.86,13-19.32,11.3-29.69S128.3,221.25,120.4,227.27Z" style="fill: none;stroke: #969c9c;stroke-linecap: round;stroke-linejoin: round;opacity: 0.33"/>
              </g>
              <g id="Fills">
                <path d="M125.68,248.63h0l4.53,5h0c-2.8,4.84-6.61,7.56-10,7.58l2.11-10.09C123.48,251.12,124.74,250.25,125.68,248.63Z" style="fill: #3f4563"/>
                <path d="M121.16,243.62l-4.53-5h0a24.06,24.06,0,0,0-3.16,15.1l6.64-5.07a8,8,0,0,1,1-5Z" style="fill: #3f4563"/>
                <path d="M133.36,238.54A10.72,10.72,0,0,0,131,233a5.77,5.77,0,0,0-4.41-2l-2.12,10.1a1.89,1.89,0,0,1,1.47.64,3.63,3.63,0,0,1,.77,1.84Z" style="fill: #3f4563"/>
                <path d="M124.81,243.72c-.69-.76-1.87-.31-2.64,1s-.83,3-.14,3.78,1.87.31,2.64-1S125.5,244.48,124.81,243.72Z" style="fill: #3f4563"/>
                <path d="M28.89,259.71h0l2.27,2.48h0c-1.55,2.52-3.58,4-5.31,4L27.12,261A2.45,2.45,0,0,0,28.89,259.71Z" style="fill: #3f4563"/>
                <path d="M26.63,257.24l-2.27-2.48h0a12.61,12.61,0,0,0-1.91,7.76L26,259.81a4.18,4.18,0,0,1,.63-2.58Z" style="fill: #3f4563"/>
                <path d="M33.07,254.42a5,5,0,0,0-1.13-2.77,2.82,2.82,0,0,0-2.26-.94l-1.28,5.19a.92.92,0,0,1,.76.3,1.71,1.71,0,0,1,.37.93Z" style="fill: #3f4563"/>
                <path d="M28.52,257.22c-.34-.38-1-.13-1.39.57a1.8,1.8,0,0,0-.14,1.93c.34.38,1,.12,1.39-.57A1.8,1.8,0,0,0,28.52,257.22Z" style="fill: #3f4563"/>
                <path d="M162.65,295.05h0l2.27,2.48h0c-1.55,2.52-3.58,4-5.31,4l1.28-5.19A2.45,2.45,0,0,0,162.65,295.05Z" style="fill: #3f4563"/>
                <path d="M160.39,292.58l-2.27-2.48h0a12.61,12.61,0,0,0-1.91,7.76l3.55-2.71a4.18,4.18,0,0,1,.63-2.58Z" style="fill: #3f4563"/>
                <path d="M166.83,289.76A5,5,0,0,0,165.7,287a2.82,2.82,0,0,0-2.26-.94l-1.28,5.19a.92.92,0,0,1,.76.3,1.71,1.71,0,0,1,.37.93Z" style="fill: #3f4563"/>
                <path d="M162.29,292.56c-.34-.38-1-.13-1.39.57a1.8,1.8,0,0,0-.14,1.93c.34.38,1,.12,1.39-.57A1.8,1.8,0,0,0,162.29,292.56Z" style="fill: #3f4563"/>
                <path d="M138,298.08a.54.54,0,0,1,0-.3c.1-.22.3-.37.46-.32s.2.28.1.5-.3.36-.45.31a.23.23,0,0,1-.15-.19" style="fill: #3f4563"/>
                <path d="M135.92,298.12a.53.53,0,0,1,0-.29c.09-.21.28-.35.42-.3s.18.26.08.47-.28.35-.42.3a.21.21,0,0,1-.13-.18" style="fill: #3f4563"/>
                <path d="M141.08,298.92a.64.64,0,0,1,.06-.38.42.42,0,1,1,.14.66.37.37,0,0,1-.2-.28" style="fill: #3f4563"/>
                <path d="M147.51,302.91a.65.65,0,0,1,.17-.35.42.42,0,1,1-.07.67.36.36,0,0,1-.1-.32" style="fill: #3f4563"/>
                <path d="M150.12,305.37a.61.61,0,0,1,.19-.33.42.42,0,1,1-.11.65.37.37,0,0,1-.08-.33" style="fill: #3f4563"/>
                <path d="M144.32,300.65a.66.66,0,0,1,.12-.39.46.46,0,1,1,0,.73.41.41,0,0,1-.17-.34" style="fill: #3f4563"/>
                <path d="M152.2,308a.52.52,0,0,1,.22-.21.37.37,0,0,1,.51.08c.07.15,0,.36-.24.47a.37.37,0,0,1-.51-.08.28.28,0,0,1,0-.26" style="fill: #3f4563"/>
                <path d="M153.24,310.29a.49.49,0,0,1,.19-.21.35.35,0,0,1,.48,0c.08.13,0,.33-.19.44a.35.35,0,0,1-.48,0,.25.25,0,0,1,0-.24" style="fill: #3f4563"/>
                <path d="M4.76,262.34a.55.55,0,0,1,0-.31c.1-.23.31-.37.46-.32s.2.28.1.51-.3.37-.46.32a.24.24,0,0,1-.15-.2" style="fill: #3f4563"/>
                <path d="M2.66,262.38a.54.54,0,0,1,0-.29c.09-.21.28-.35.43-.31s.18.26.09.47-.28.35-.42.3a.21.21,0,0,1-.13-.18" style="fill: #3f4563"/>
                <path d="M7.88,263.19a.65.65,0,0,1,.06-.39.5.5,0,0,1,.6-.33.57.57,0,0,1-.46,1,.37.37,0,0,1-.2-.28" style="fill: #3f4563"/>
                <path d="M14.38,267.22a.65.65,0,0,1,.17-.35.43.43,0,1,1,.6.55.49.49,0,0,1-.67.13.37.37,0,0,1-.1-.33" style="fill: #3f4563"/>
                <path d="M17,269.71a.62.62,0,0,1,.19-.33.42.42,0,1,1,.56.59.48.48,0,0,1-.66.06.37.37,0,0,1-.08-.33" style="fill: #3f4563"/>
                <path d="M11.15,264.94a.67.67,0,0,1,.13-.4.53.53,0,0,1,.71-.22.6.6,0,0,1-.67,1,.42.42,0,0,1-.17-.34" style="fill: #3f4563"/>
                <path d="M19.12,272.39a.53.53,0,0,1,.22-.21.37.37,0,0,1,.52.08c.08.15,0,.36-.24.47a.37.37,0,0,1-.51-.08.28.28,0,0,1,0-.26" style="fill: #3f4563"/>
                <path d="M20.17,274.69a.5.5,0,0,1,.19-.21.36.36,0,0,1,.49,0c.08.13,0,.33-.19.45a.36.36,0,0,1-.49,0,.25.25,0,0,1,0-.24" style="fill: #3f4563"/>
                <path d="M73,263.27a1.19,1.19,0,0,1,.1-.67c.21-.49.66-.8,1-.69s.43.6.22,1.1-.66.8-1,.69a.51.51,0,0,1-.33-.43" style="fill: #3f4563"/>
                <path d="M68.46,263.35a1.16,1.16,0,0,1,.1-.63c.2-.47.61-.76.92-.66s.39.56.19,1-.61.76-.92.66a.46.46,0,0,1-.29-.4" style="fill: #3f4563"/>
                <path d="M79.79,265.1a1.41,1.41,0,0,1,.12-.84.93.93,0,1,1,.31,1.45.81.81,0,0,1-.43-.61" style="fill: #3f4563"/>
                <path d="M93.88,273.85a1.42,1.42,0,0,1,.37-.76.92.92,0,1,1-.15,1.47.8.8,0,0,1-.22-.71" style="fill: #3f4563"/>
                <path d="M99.62,279.24a1.34,1.34,0,0,1,.41-.71.91.91,0,1,1-.23,1.43.81.81,0,0,1-.18-.72" style="fill: #3f4563"/>
                <path d="M86.89,268.89a1.46,1.46,0,0,1,.27-.86,1,1,0,1,1,.09,1.6.9.9,0,0,1-.37-.74" style="fill: #3f4563"/>
                <path d="M104.17,285.07a1.14,1.14,0,0,1,.48-.45.81.81,0,0,1,1.12.17c.16.33-.07.79-.52,1a.81.81,0,0,1-1.11-.17.61.61,0,0,1,0-.57" style="fill: #3f4563"/>
                <path d="M106.45,290a1.08,1.08,0,0,1,.41-.46.78.78,0,0,1,1.06,0c.18.28,0,.72-.41,1a.77.77,0,0,1-1.06,0,.54.54,0,0,1,0-.52" style="fill: #3f4563"/>
                <path d="M98.66,298c4.55-7.17-12.78-19.77-12.78-19.77-15.76-11-20.59-4.74-20.59-4.74l0-.11c-3.08,19.19,1.85,32.92,1.85,32.92l0,.09s14.47.37,31.63-8.47Z" style="fill: #3f4563"/>
              </g>
            </g>
          </g>
        </g>
      </g>
    </g>
  </g>
</svg>
