<svg xmlns="http://www.w3.org/2000/svg" viewBox="0 0 50 50"><path class="medium-blue" d="M49 8a1.5 1.5 0 0 0-.79-.78c-.36-.11-.73-.2-1.1-.3a9.36 9.36 0 0 0 .29-1.52 1.76 1.76 0 0 0-.21-1.25 1.64 1.64 0 0 0-1-.71 24.51 24.51 0 0 0-8 .1h-.11a25.77 25.77 0 0 0-7.9 2.88l-.91.58c-2.81 1.6-5.58 3.33-8.28 5.14l-.24-.14a10 10 0 0 0-8.66-.77 4.83 4.83 0 0 0-.94.5c-.33.17-.54.48-.86.64A7.36 7.36 0 0 1 8.64 11 5.36 5.36 0 0 0 7.1 9.71a.5.5 0 0 0-.48.05.56.56 0 0 0-.24.45c0 .71 0 1.16-.44 1.43s-.72.11-1.31-.16l-.4-.18a.5.5 0 0 0-.69.44A5.49 5.49 0 0 0 3.67 13a5.81 5.81 0 0 1 .12.89 2.73 2.73 0 0 0-2.21-.68s-.78.12-.71.58c0 0 .13 1 1 .63a.56.56 0 0 1 .18 0 4.68 4.68 0 0 1 1.63.2l-.07.18A1.83 1.83 0 0 0 2 15s-.4.3-.23.54c0 0 .37.52.76 0l.09-.07a2 2 0 0 1 .77-.22l-.12.28A9.6 9.6 0 0 0 3 20.74a10.27 10.27 0 0 1-.34 2 4.21 4.21 0 0 1-.3.63c-.36.66-.76 1.41-.51 2a1.05 1.05 0 0 0 .72.6 2.09 2.09 0 0 0 .59.08 6.82 6.82 0 0 0 2.65-.79 8.11 8.11 0 0 0 1.86-1.47 9.08 9.08 0 0 1 1.66-1.53c.05.07.09.14.15.21a6.06 6.06 0 0 0 1.06 1l-1.83 4.16-2.18.76a3.88 3.88 0 0 0-4.09 1.33.5.5 0 1 0 .76.65 2.87 2.87 0 0 1 2.73-1.09 1.91 1.91 0 0 1-1.22 1 .5.5 0 0 0 .12 1h.12a2.87 2.87 0 0 0 2-2l2.3-.8a.5.5 0 0 0 .29-.27l1.91-4.29a7 7 0 0 0 .92.41l-.55 4.13-1.41 1a3 3 0 0 0-3.29 1.82.5.5 0 0 0 .93.37 2 2 0 0 1 2-1.21 1.17 1.17 0 0 1-.39.62.5.5 0 0 0 .58.81A2.17 2.17 0 0 0 11 30.3l1.55-1.14a.5.5 0 0 0 .2-.34l.56-4.21a7.38 7.38 0 0 0 2.16.11l2.08 2.63-.5 1.58a3.83 3.83 0 0 0-3.78 1.78.5.5 0 0 0 .83.55 2.78 2.78 0 0 1 2.52-1.36 1.7 1.7 0 0 1-.91.59.5.5 0 0 0 .09 1h.09a2.67 2.67 0 0 0 2-1.81l.72-2.27a.5.5 0 0 0-.08-.46l-1.91-2.4a10 10 0 0 0 1.48-.45l1.84 1.8.56.46a16.93 16.93 0 0 0 .8 4.1c-1.56 1.29-2.12 2.71-1.65 4.24-.22.63-.86 2.8.09 4.45a2.54 2.54 0 0 1 .22.65 2.81 2.81 0 0 0 .62 1.32 3.83 3.83 0 0 0 2.69 1.2h.24a2.32 2.32 0 0 0 .47-.1l.25.38.77 1.14c-.23.92.64 1.75 1.25 2.13a.49.49 0 0 0 .26.07.5.5 0 0 0 .26-.92 2.15 2.15 0 0 1-.79-.86 2 2 0 0 1 1.91 1.45.5.5 0 0 0 .47.34h.16a.5.5 0 0 0 .32-.63 3.08 3.08 0 0 0-3-2.14L25.07 42l-.23-.32.12-.13a3.83 3.83 0 0 0 2.15.73h.24a2.34 2.34 0 0 0 .47-.1l.25.38.76 1.15c-.23.92.64 1.75 1.25 2.13a.5.5 0 1 0 .52-.84 2.08 2.08 0 0 1-.79-.86 2 2 0 0 1 1.91 1.45.5.5 0 0 0 .47.34h.16a.5.5 0 0 0 .32-.63 3.08 3.08 0 0 0-3-2.14L28.9 42l-.23-.34a1.84 1.84 0 0 0 .3-.35 2.83 2.83 0 0 0 .39-2.09 8.34 8.34 0 0 0 2.47.56 7.38 7.38 0 0 0 .82 0 4.82 4.82 0 0 0 2-.37.49.49 0 0 0 .07.19c1.68 2.71.13 6.44.11 6.48a.5.5 0 0 0 .81.55 9.08 9.08 0 0 0 2.89-6.58.48.48 0 0 0 0-.12 7 7 0 0 0 .68-1.84 14 14 0 0 0 .47-3.72 17.49 17.49 0 0 0-6.38-13.06h.41a7.82 7.82 0 0 0 3.18-1.73c.86-.66 1.72-1.3 2.54-2a4.77 4.77 0 0 0 3.71-1.28 2.31 2.31 0 0 0 .86-1.07 2.7 2.7 0 0 0 2-.79 1.57 1.57 0 0 0 .64-1.37A7.49 7.49 0 0 0 49 9.11 1.59 1.59 0 0 0 49 8zm-3.72 5.72s-.8.81-1.55.46a.5.5 0 0 0-.51.06.52.52 0 0 0-.2.49s0 .37-.55.81a1.31 1.31 0 0 0-.17.16 3.87 3.87 0 0 1-2.81.92h-.32a.46.46 0 0 0-.33.12c-.63.55-1.32 1.08-2 1.59l-.67.51a7.08 7.08 0 0 1-2.76 1.54 4.43 4.43 0 0 1-1.54 0h-.06a5.29 5.29 0 0 1-.71-.17 14 14 0 0 0-3.86-.48 6.79 6.79 0 0 1-4.17-1.14c-1.11-.79-1.88-1.77-3.2-2.27l5.92-.88.76-.11c4.56-.88 6.85.5 6.93.54C39 18.27 41.63 15 42 14.58a2.55 2.55 0 0 0 .75-1.37A2.44 2.44 0 0 0 44 12.8a3.5 3.5 0 0 0 .84-.76v-.07a1.74 1.74 0 0 0 .46-1.65 6.51 6.51 0 0 0 1.53-2.48c.34.09.69.17 1 .27a.48.48 0 0 1 .24.24.7.7 0 0 1 0 .49 6.66 6.66 0 0 1-2 3.4l-.22.15a.51.51 0 0 0-.23.57.72.72 0 0 1 0 .25.68.68 0 0 1-.31.48zm-16.9 25.66a1.81 1.81 0 0 1-.24 1.44 1.08 1.08 0 0 1-.87.49 2.76 2.76 0 0 1-1.82-.62 2.79 2.79 0 0 0 .07-1.55 3.19 3.19 0 0 0-1.36-1.87c0-.08 0-.19-.07-.32a6.23 6.23 0 0 1 .17-1.29 14.32 14.32 0 0 0 3 2.6l.1.05c.15.09.38.22.67.36a2 2 0 0 1 .35.71zm-4.08 1.43l-.06.06a1.08 1.08 0 0 1-.81.43 2.8 2.8 0 0 1-2.1-.86 1.92 1.92 0 0 1-.39-.89 3.42 3.42 0 0 0-.33-.91c-.86-1.49 0-3.74 0-3.76a.51.51 0 0 0 0-.35 2.75 2.75 0 0 1 1-3.07c.12-.11.24-.22.37-.33l.39-.29.19-.14a.49.49 0 0 0-.56-.8 15.94 15.94 0 0 1-.64-3.68v-.42a3.32 3.32 0 0 1 .07-.94 1.75 1.75 0 0 1 .94-1.26 2.46 2.46 0 0 1 2.68.22 2.41 2.41 0 0 1 .34 1.65v.18a14.29 14.29 0 0 0 .61 3.76c0 .12.07.24.11.36.09.33.2.65.31 1a14 14 0 0 0 1.46 3A.49.49 0 0 1 28 34a38.06 38.06 0 0 0 3 3.33c.13.14.23.23.32.32l.16.15a4.71 4.71 0 0 0 2.08.94h.11a6.54 6.54 0 0 1-1.71 0 8.86 8.86 0 0 1-3.26-.95c-.3-.15-.58-.3-.83-.45h-.07l-.31-.22c-.2-.14-.4-.27-.58-.41a13.24 13.24 0 0 1-2.42-2.41l-.17-.22.07-.15a3.17 3.17 0 0 1 .55-.82.5.5 0 0 0 0-.71.52.52 0 0 0-.66 0l-.28.2a4.25 4.25 0 0 0-.41.55 4.32 4.32 0 0 0-.25.47 4.58 4.58 0 0 0-.18.51 6.2 6.2 0 0 0-.08 2.87 5.89 5.89 0 0 0 .18.71.5.5 0 0 0 .23.27 2.39 2.39 0 0 1 .24.17 2.16 2.16 0 0 1 .82 1.18 1.77 1.77 0 0 1 0 1 2 2 0 0 1-.25.48zM18 23c-4.92 2.13-7.61-1.08-7.72-1.21l-.15-.21c.29-.33.42-1-.24-1-.32 0-.48.36-.69.54s-.72.43-1.05.68A10.4 10.4 0 0 0 7 23.07a6.86 6.86 0 0 1-1.6 1.28 4.7 4.7 0 0 1-2.58.65c-.07-.19.3-.87.46-1.17a4.45 4.45 0 0 0 .39-.83A11.37 11.37 0 0 0 4 20.75a.52.52 0 0 0 0-.13 8.69 8.69 0 0 1 .18-4.7 5.25 5.25 0 0 0 .56-2 6.47 6.47 0 0 0-.13-1.09v-.28a1.9 1.9 0 0 0 1.89-.09 1.93 1.93 0 0 0 .83-1.39c.2.19.39.39.59.61a23.92 23.92 0 0 0 2.61 2 2.61 2.61 0 0 1 .58.66 4 4 0 0 1 0 3.75.49.49 0 0 0 .22.62h.05a.5.5 0 0 0 .65-.27 6.08 6.08 0 0 0 .51-2.93 4.11 4.11 0 0 0-.54-1.66 3.57 3.57 0 0 0-.78-.9 3 3 0 0 0 .31-.3l.23-.12a9.11 9.11 0 0 1 8.34.23c-1.61 1.05-3.1 2.13-4.64 3.24l-.05.05-.06.08v.06a.5.5 0 0 0 0 .1.49.49 0 0 0 0 .07.5.5 0 0 0 0 .1v.06a.49.49 0 0 0 .41.27h.09a7 7 0 0 1 4.67.75 6.62 6.62 0 0 1 1.1.89 6.81 6.81 0 0 0 2.51 1.64h-.18a4.73 4.73 0 0 0-3.28 3.68 3.45 3.45 0 0 0 0 .48.48.48 0 0 0 0 .12 3.56 3.56 0 0 0-.1.54l-2-1.92A.5.5 0 0 0 18 23zm3.9-10.35c2.58-1.65 5.2-3.3 7.86-4.82l.93-.52a24.88 24.88 0 0 1 7.66-2.79A23.58 23.58 0 0 1 46 4.41a.62.62 0 0 1 .35.27.87.87 0 0 1 .06.61 9.05 9.05 0 0 1-.25 1.38c0 .15-.09.32-.14.49s-.1.31-.16.47a5.34 5.34 0 0 1-1.27 2l-.41-.08a.49.49 0 0 0-.59.39.5.5 0 0 0 .39.59l.37.07a.85.85 0 0 1-.25.73 2.83 2.83 0 0 1-.25.29 1.89 1.89 0 0 1-1 .56 1.15 1.15 0 0 1-.52 0L36.66 11a.5.5 0 0 0-.2 1l5.26 1.06a1.58 1.58 0 0 1-.5.85l-.06.08c-.08.13-2.15 3.17-7.14 1a8.78 8.78 0 0 0-4.47-1 16.38 16.38 0 0 0-3.1.31l-1.75.26h-.05l-.66.1h-.05l-.67.1h-.05l-4 .59-1.56.23.3-.21q1.08-.78 2.18-1.54l.8-.55.42-.28.42-.28zm15.89 26.51c-.39-.13-1.16-.43-2.28-.88l-.4-.16a.5.5 0 0 0-.29 0 3.43 3.43 0 0 0-.49-.17l-.4-.11a4.52 4.52 0 0 1-1.75-.72l-.18-.2-.27-.27a37.51 37.51 0 0 1-2.83-3.25 11.88 11.88 0 0 1-1.25-2.35 14.16 14.16 0 0 1-1.08-5.39v-.17a3.24 3.24 0 0 0-.57-2.3c-.93-1.12-2.72-1-3.77-.53a4.35 4.35 0 0 1 2-1.48c2.1-.71 4.71-.37 7.24.12a16.57 16.57 0 0 1 7.16 13.09 12.79 12.79 0 0 1-.41 3.39v.1a8.28 8.28 0 0 1-.43 1.28zm-1.16.64l.36.09.54.14a.48.48 0 0 0 0 .07 7.54 7.54 0 0 1-1.13 3.93 7.6 7.6 0 0 0-.6-4.54zM38.69 9a.49.49 0 0 1 .59-.39l2 .39a.5.5 0 0 1-.1 1H41l-2-.39a.5.5 0 0 1-.31-.61zm-4.87-.7a.49.49 0 0 1 0-.27.49.49 0 0 1 .59-.39l.87.17 1 .2h.07a.5.5 0 0 1-.1 1h-.1l-1.82-.36h-.14a.49.49 0 0 1-.38-.39zM8 13.6c-1-.37-2.21.69-2.89 2.48a5.46 5.46 0 0 0-.4 2.23 1.62 1.62 0 0 0 .89 1.55 1.11 1.11 0 0 0 .4.07c.79 0 1.69-.81 2.29-2.08.07-.15.14-.3.2-.47a5.46 5.46 0 0 0 .4-2.23 2.77 2.77 0 0 0 0-.31A1.49 1.49 0 0 0 8 13.6zM7.55 17C7 18.38 6.21 19 6 18.92c-.1 0-.22-.27-.25-.68a4.49 4.49 0 0 1 .25-1.8c.49-1.27 1.22-1.91 1.54-1.91h.06c.1 0 .22.27.25.68a4.49 4.49 0 0 1-.3 1.79z"/></svg>