<svg xmlns="http://www.w3.org/2000/svg" width="73.77" height="49.32" viewBox="0 0 73.77 49.32">
  <title>icon-blue-hand-left-right</title>
  <g id="Layer_2" data-name="Layer 2">
    <g id="cWatch_Home" data-name="cWatch Home">
      <g id="_575" data-name="575">
        <g id="Web_Security" data-name="Web Security">
          <g>
            <path d="M52.89,19.35a4.3,4.3,0,0,1,4.48,3.57l.27,3.66V35.9s-.27,8.33-7,11.8A24.05,24.05,0,0,1,34.14,47s-4.76-2.1-7.87-9.61c0,0-3.75-6.22-7-9.15,0,0-.82-4.39,3.93-3.93a6,6,0,0,1,4.76,2.93s2.1,1.92,3.29,1.65c0,0,.91-.55.91-4.3V5.17s-.09-3.48,3-3.48c0,0,3.29-.64,3.29,3.48V21.63a3.86,3.86,0,0,0,1.46,3" style="fill: none;stroke: #03a9f4;stroke-linecap: round;stroke-linejoin: round"/>
            <path d="M39.72,17.06h3s2.84-.18,2.65,3.84a3,3,0,0,0,1.1,2.65" style="fill: none;stroke: #03a9f4;stroke-linecap: round;stroke-linejoin: round"/>
            <path d="M46.21,18.16h3.84A3.2,3.2,0,0,1,52,21.54h0a1.94,1.94,0,0,0,.64,1.74" style="fill: none;stroke: #03a9f4;stroke-linecap: round;stroke-linejoin: round"/>
            <g>
              <polyline points="10.11 0.5 0.5 7.13 23.27 7.13" style="fill: none;stroke: #03a9f4;stroke-linecap: round;stroke-linejoin: round"/>
              <line x1="9.61" y1="14.45" x2="0.5" y2="7.13" style="fill: none;stroke: #03a9f4;stroke-linecap: round;stroke-linejoin: round"/>
            </g>
            <g>
              <polyline points="63.66 14.45 73.27 7.82 50.51 7.82" style="fill: none;stroke: #03a9f4;stroke-linecap: round;stroke-linejoin: round"/>
              <line x1="64.16" y1="0.5" x2="73.27" y2="7.82" style="fill: none;stroke: #03a9f4;stroke-linecap: round;stroke-linejoin: round"/>
            </g>
          </g>
        </g>
      </g>
    </g>
  </g>
</svg>
