<svg xmlns="http://www.w3.org/2000/svg" width="43.73" height="41.18" viewBox="0 0 43.73 41.18">
  <title>icon-blue-cloud</title>
  <g id="Layer_2" data-name="Layer 2">
    <g id="_1200" data-name="1200">
      <g id="Table">
        <g id="Protection">
          <g id="cdn-sm">
            <path d="M34.24,4.81,33.82,5A8.43,8.43,0,0,0,25.9,3.21a8.06,8.06,0,0,0-1.29.52A11.1,11.1,0,0,0,13.71,1,10.88,10.88,0,0,0,6.93,7.1a7.2,7.2,0,0,0-1.11.24A8,8,0,0,0,.89,17.47a8.37,8.37,0,0,0,5.67,5.69,9.47,9.47,0,0,0,11,4.86,9,9,0,0,0,5.56-5,10.76,10.76,0,0,0,2.8-2.41,8.17,8.17,0,0,0,5.4.24,8.3,8.3,0,0,0,5.13-4.58,5.13,5.13,0,0,0,1.26-.22,5.69,5.69,0,0,0,3.52-7.22A5.69,5.69,0,0,0,34.24,4.81Z" style="fill: #fff;stroke: #03a9f4;stroke-linecap: round;stroke-linejoin: round"/>
            <path d="M28.11,28.51H41.28a2,2,0,0,1,1.95,1.95V32a2,2,0,0,1-1.95,1.95H30.9a3.78,3.78,0,0,0-2.66,3.53v3.21" style="fill: #fff;stroke: #03a9f4;stroke-linecap: round;stroke-linejoin: round"/>
            <rect x="13.43" y="17.77" width="29.79" height="5.43" rx="1.65" ry="1.65" style="fill: #fff;stroke: #03a9f4;stroke-linecap: round;stroke-linejoin: round"/>
            <line x1="34.2" y1="20.51" x2="38.84" y2="20.51" style="fill: #fff;stroke: #03a9f4;stroke-linecap: round;stroke-linejoin: round;stroke-dasharray: 2.0920705795288086,3.138105869293213"/>
            <rect x="13.43" y="23.15" width="29.79" height="5.43" rx="1.65" ry="1.65" style="fill: #fff;stroke: #03a9f4;stroke-linecap: round;stroke-linejoin: round"/>
            <line x1="34.2" y1="25.89" x2="38.84" y2="25.89" style="fill: #fff;stroke: #03a9f4;stroke-linecap: round;stroke-linejoin: round;stroke-dasharray: 2.0920705795288086,3.138105869293213"/>
            <path d="M28.55,28.51H15.38a2,2,0,0,0-1.95,1.95V32a2,2,0,0,0,1.95,1.95H25.75a3.78,3.78,0,0,1,2.66,3.53v3.21" style="fill: #fff;stroke: #03a9f4;stroke-linecap: round;stroke-linejoin: round"/>
            <line x1="34.2" y1="31.25" x2="38.84" y2="31.25" style="fill: #fff;stroke: #03a9f4;stroke-linecap: round;stroke-linejoin: round;stroke-dasharray: 2.0920705795288086,3.138105869293213"/>
            <path d="M28,12.66l-5.87,0a5.82,5.82,0,0,0-3.54,1l-4.61,4H28" style="fill: #fff;stroke: #03a9f4;stroke-linecap: round;stroke-linejoin: round"/>
            <line x1="14.81" y1="39.48" x2="41.68" y2="39.48" style="fill: #fff;stroke: #03a9f4;stroke-linecap: round;stroke-linejoin: round"/>
            <path d="M28,12.66l5.87,0a5.82,5.82,0,0,1,3.54,1l4.61,4H28" style="fill: #fff;stroke: #03a9f4;stroke-linecap: round;stroke-linejoin: round"/>
            <path d="M14.57,5.41a7.72,7.72,0,0,0-3.31,1.71" style="fill: #fff;stroke: #03a9f4;stroke-linecap: round;stroke-linejoin: round"/>
            <path d="M6.86,11.08A5.63,5.63,0,0,0,4,14.54" style="fill: #fff;stroke: #03a9f4;stroke-linecap: round;stroke-linejoin: round"/>
          </g>
        </g>
      </g>
    </g>
  </g>
</svg>
