<svg id="CSOC" xmlns="http://www.w3.org/2000/svg" viewBox="0 0 150 150"><g id="SVG_Icons" data-name="SVG Icons"><path class="svg-grey" d="M139.62,85c-4.93-1.61-7.69-3.4-9.13-5.93a19.62,19.62,0,0,0,2.17-3.26,26.82,26.82,0,0,0,1.58-5.53,11.38,11.38,0,0,0,.7-1.09,5.7,5.7,0,0,0,.95-2.58v-.21c.08-2.6,0-3.95-.59-4.57h0a6.69,6.69,0,0,0,0-4.31c-.24-.61-.5-1.16-.75-1.66a.94.94,0,0,0,.5-.57.93.93,0,0,0-.36-1,8.69,8.69,0,0,1-1.55-1.85A9.67,9.67,0,0,0,127,48.2a11.13,11.13,0,0,0-3.74,0,15.21,15.21,0,0,0-2-.16l-.34-.47a13.69,13.69,0,0,0-8.67-5.9,16.12,16.12,0,0,0-5.34,0c-.57-.09-1.23-.17-1.94-.21-.15-2-.5-3.27-1.19-4a2.69,2.69,0,0,0-.32-.27c1-2.93,1.51-7.06.19-10.32a43.59,43.59,0,0,0-2.21-4.7h.12a1.56,1.56,0,0,0,1.45-1.11,1.53,1.53,0,0,0-.57-1.68,46.76,46.76,0,0,1-3.93-4.64C92.44,6.91,87.41,3.58,84.05,5.17c-1.52.72-3.39.46-5.19.2a12.46,12.46,0,0,0-3.33-.18,26.05,26.05,0,0,0-8.84-.06,22.49,22.49,0,0,0-14.24,9.69,21.36,21.36,0,0,1-3.85,4.56,1.55,1.55,0,0,0,.81,2.85h.12a43.59,43.59,0,0,0-2.21,4.7c-1.33,3.26-.79,7.39.19,10.32a2.69,2.69,0,0,0-.32.27c-.68.71-1,2-1.19,3.95a19.56,19.56,0,0,0-2.75.24,16.12,16.12,0,0,0-5.34,0,13.69,13.69,0,0,0-8.67,5.9l-.37.51c-.42,0-.83.07-1.18.12a11.4,11.4,0,0,0-3.74,0,9.67,9.67,0,0,0-6.11,4.15,8.89,8.89,0,0,1-1.53,1.83.94.94,0,0,0-.39,1,1,1,0,0,0,.51.59,16.07,16.07,0,0,0-.76,1.65,6.83,6.83,0,0,0,0,4.31h0c-.61.62-.67,2-.59,4.56v.22A5.7,5.7,0,0,0,16,69.14a11.72,11.72,0,0,0,.71,1.09,26.46,26.46,0,0,0,1.6,5.59,19.36,19.36,0,0,0,1.8,2.77C18.78,81.35,16,83.26,10.79,85,3,87.52,2.25,92,2.18,96.43a.52.52,0,0,0,.14.35,34.68,34.68,0,0,0,6.3,5.1c-1.57,2.77-1.84,5.87-1.89,9.06a.52.52,0,0,0,.14.35,50.29,50.29,0,0,0,8.21,6.79c0,.69,0,1.38-.06,2.07a.5.5,0,0,0,.14.35A81.64,81.64,0,0,0,74,145.35a82.48,82.48,0,0,0,45.54-13.79l.17-.12a82.24,82.24,0,0,0,14.73-12.57.49.49,0,0,0,.13-.35l-.06-1.26a49.67,49.67,0,0,0,8-7,.49.49,0,0,0,.13-.35,17.09,17.09,0,0,0-1.81-7.92,34.22,34.22,0,0,0,7.23-5.94.49.49,0,0,0,.13-.35C148.07,91.84,147.28,87.47,139.62,85ZM3.16,96.24c.09-4.29.83-8,7.94-10.36,5.61-1.84,8.62-4,10.07-7.15a.5.5,0,0,0-.06-.51,17.11,17.11,0,0,1-1.88-2.84A25.3,25.3,0,0,1,17.7,70a.44.44,0,0,0-.11-.25,9.06,9.06,0,0,1-.71-1.08,4.8,4.8,0,0,1-.81-2.11v-.21c0-1.2-.1-3.42.39-3.91a.49.49,0,0,0,.27-.62,6,6,0,0,1-.15-4,17.5,17.5,0,0,1,1.05-2.16.49.49,0,0,0-.41-.74l-.35.07a9.5,9.5,0,0,0,1.78-2.08,8.73,8.73,0,0,1,5.51-3.76,10.27,10.27,0,0,1,3.47,0,.38.38,0,0,0,.15,0l.28,0A7.85,7.85,0,0,1,27,50.27a1.13,1.13,0,0,0,.35,2c-.4.76-.8,1.62-1.19,2.58a9.6,9.6,0,0,0,.06,6.2.94.94,0,0,0-.1.1c-.81.84-.9,2.73-.79,6.41v.31a8.2,8.2,0,0,0,1.34,3.61,13.64,13.64,0,0,0,1,1.6,37.62,37.62,0,0,0,2.3,8,26.9,26.9,0,0,0,2.65,4.06c-2,4.09-6.1,6.91-13.67,9.39-5.13,1.69-8.11,3.9-9.84,6.44A33.73,33.73,0,0,1,3.16,96.24Zm12,20.72a49,49,0,0,1-7.43-6.21c.06-2.93.34-5.78,1.78-8.33l.26-.43c.08-.13.18-.26.27-.39,1.64-2.39,4.44-4.47,9.27-6.06,8-2.63,12.32-5.67,14.37-10.18a.47.47,0,0,0-.06-.51,27.09,27.09,0,0,1-2.74-4.14,36.93,36.93,0,0,1-2.21-7.86.53.53,0,0,0-.11-.24,13.7,13.7,0,0,1-1-1.59,7.25,7.25,0,0,1-1.2-3.14v-.31c-.08-2.53-.11-5.07.51-5.7a.55.55,0,0,1,.18-.13.48.48,0,0,0,.27-.61A8.79,8.79,0,0,1,27,55.26a24.66,24.66,0,0,1,1.53-3.16.48.48,0,0,0,0-.48.46.46,0,0,0-.42-.25h-.56a.14.14,0,0,1-.14-.11.14.14,0,0,1,.07-.17,9.72,9.72,0,0,0,1.87-2l.36-.49c.09-.13.19-.25.29-.4l.06-.08a12.73,12.73,0,0,1,8-5.42,15,15,0,0,1,5.07,0h.15a19.08,19.08,0,0,1,2.61-.24c-.06,1.49,0,3.32,0,5.52l0,.51a13.09,13.09,0,0,0,2.18,5.85A24,24,0,0,0,49.93,57,62.19,62.19,0,0,0,53.69,70.3a1,1,0,0,0,.05.11,43.77,43.77,0,0,0,3.48,5.53l-.12.48a1.86,1.86,0,0,0-1.67-.93c-1.53.17-2.5,3-3.35,5.46a14.07,14.07,0,0,1-.93,2.35A9.83,9.83,0,0,1,49,85.51a4.65,4.65,0,0,1-.4.32,2.26,2.26,0,0,0-.78.85,1.15,1.15,0,0,0,0,.56,2.31,2.31,0,0,0,.18.52l-.14.09a66.75,66.75,0,0,1-12.66,5.42c-9.25,3-14.26,7.12-17,11.8l-.24.43-.24.45A27.17,27.17,0,0,0,15.14,117ZM58.65,81.51a26.88,26.88,0,0,0,4,3.2l.68.48c.76.54,1.59,1,2.48,1.54,2,1.15,4,2.35,5.2,4.17,0,.06.21.44,0,2h0a31.67,31.67,0,0,1-.66,3.18l-.12.48c0,.17-.09.33-.13.49-.35,1.29-.67,2.31-.73,2.52-1.48,4.66-2.28,6.09-2.62,6.53-1.86-1.82-3.74-3.73-5.56-5.59-1.36-1.38-2.72-2.77-4.09-4.13-.67-.67-1.41-1.35-2.16-2-1-1-2.06-1.91-3-2.92-.43-.45-.84-.92-1.23-1.39s-.56-.7-.81-1.06-.36-.54-.53-.82c0-.06-.07-.11-.1-.16l-.15-.27L49,87.5l0-.07-.08-.16a.59.59,0,0,1-.08-.26,2.6,2.6,0,0,1,.46-.41,5,5,0,0,0,.42-.33A11.27,11.27,0,0,0,52,83.85a13.49,13.49,0,0,0,1-2.58c.6-1.76,1.61-4.71,2.53-4.81h0c.28,0,.63.32,1,.9l.16.29a5.79,5.79,0,0,1,.31.67l.24.67v.07c.07.19.13.39.21.58s.14.37.23.56A5,5,0,0,0,58.65,81.51Zm61.26,48.64a28.19,28.19,0,0,0-.45-5.75c0-.15-.07-.3-.1-.45l-.12-.5a8.14,8.14,0,0,0-.8-2.14.49.49,0,0,0-.83.53,7.52,7.52,0,0,1,.69,1.88c0,.15.07.31.11.48s.07.3.1.47a28.45,28.45,0,0,1,.41,6.15A81.46,81.46,0,0,1,74,144.37a80.56,80.56,0,0,1-45.45-13.88,26.12,26.12,0,0,1,.4-6.05c0-.18.07-.34.11-.49s.07-.32.11-.47a5.86,5.86,0,0,1,.72-1.77.49.49,0,1,0-.78-.6,6.35,6.35,0,0,0-.88,2.11l-.12.45c0,.16-.07.33-.1.5a26,26,0,0,0-.45,5.61A82.7,82.7,0,0,1,16,120c0-.43,0-.85,0-1.27,0-.19,0-.39,0-.58l0-.55a26.58,26.58,0,0,1,2.67-11.36l.25-.45c.09-.14.17-.29.25-.43,2.66-4.41,7.49-8.26,16.25-11.13a66.39,66.39,0,0,0,13-5.58A19.76,19.76,0,0,0,51,91.91l.72.74.63.62c.61.6,1.24,1.18,1.86,1.76s1.47,1.36,2.13,2c1.36,1.35,2.72,2.74,4.08,4.12,1.92,1.95,3.91,4,5.88,5.9a.49.49,0,0,0,.34.14l.16,0c.61-.21,1.5-1.24,3.43-7.35.06-.19.35-1.14.69-2.35,0-.16.08-.32.13-.49l.12-.49A34.09,34.09,0,0,0,71.94,93c.25-1.78,0-2.36-.14-2.64-1.28-2-3.44-3.28-5.53-4.5-.86-.5-1.68-1-2.41-1.49l-.68-.48a26.49,26.49,0,0,1-3.83-3.08,4.39,4.39,0,0,1-1-1.69c.32-.56.62-1.14.89-1.73a.5.5,0,0,0-.06-.51c-.32-.4-.63-.79-.91-1.18l-.38-.51c-.13-.18-.26-.35-.38-.53a42.67,42.67,0,0,1-2.94-4.75,61.65,61.65,0,0,1-3.71-13.16.57.57,0,0,0-.11-.25A22.42,22.42,0,0,1,49,53.84a12.37,12.37,0,0,1-2-5.39v-.51c-.07-2.17-.09-4,0-5.48L47,42l0-.48c.13-1.66.4-2.76.91-3.29a1.32,1.32,0,0,1,.4-.28.48.48,0,0,0,.27-.61c-1-2.78-1.62-6.86-.33-10A39.18,39.18,0,0,1,50.79,22a.5.5,0,0,0,0-.49.5.5,0,0,0-.42-.25h-.95a.56.56,0,0,1-.53-.41.58.58,0,0,1,.24-.64s1.46-1,4.12-4.82A21.56,21.56,0,0,1,66.89,6.09a25.43,25.43,0,0,1,8.56.07h.15a12,12,0,0,1,3.13.18c1.85.26,4,.55,5.74-.29,2.86-1.35,7.6,2,13.34,9.35a44.57,44.57,0,0,0,4.11,4.81.57.57,0,0,1,.23.63.55.55,0,0,1-.52.41h-.95a.51.51,0,0,0-.42.25.5.5,0,0,0,0,.49,41.75,41.75,0,0,1,2.55,5.29c1.29,3.16.67,7.24-.33,10a.48.48,0,0,0,.27.61,1.32,1.32,0,0,1,.4.28c.5.52.78,1.62.91,3.27,0,.15,0,.33,0,.49l0,.48c.06,1.49,0,3.32,0,5.5v.51a12.37,12.37,0,0,1-2,5.39,23.31,23.31,0,0,1-1.76,2.68.57.57,0,0,0-.11.25A61.39,61.39,0,0,1,96.44,70a1.17,1.17,0,0,0,0,.11A29.53,29.53,0,0,1,93,75.7h0a3.13,3.13,0,0,0-.42.34,3.46,3.46,0,0,0-.38.45c-.08.11-.16.21-.24.33a8.09,8.09,0,0,0-.81,1.84A5.15,5.15,0,0,1,90,80.83a25.54,25.54,0,0,1-3.81,3.06l-.7.5c-.73.51-1.54,1-2.41,1.49-2.09,1.22-4.25,2.47-5.53,4.5a3.41,3.41,0,0,0-.2,2.08H72.59a.49.49,0,0,0-.49.49v35.24a.49.49,0,1,0,1,0V93.44h4.36c.17,1,.42,2.09.68,3.11,0,.17.09.33.13.49s.09.34.13.5c.33,1.19.62,2.11.68,2.3C81,106,81.87,107,82.49,107.19a.4.4,0,0,0,.15,0,.48.48,0,0,0,.34-.14c2-1.93,4-4,5.91-5.93,1.35-1.37,2.7-2.74,4-4.09.67-.67,1.39-1.34,2.13-2,1.13-1.06,2.29-2.13,3.34-3.26.33-.37.66-.74,1-1.12a18.06,18.06,0,0,0,1.42-2,1.64,1.64,0,0,0,.14-.22c.06-.09.09-.16.14-.24l.12.08.42.27a55.94,55.94,0,0,0,12.54,5.64c8.86,2.91,13.66,6.79,16.28,11.12l.27.45.23.43a25.38,25.38,0,0,1,2.61,10.56l0,.58c0,.19,0,.37,0,.56s0,.3,0,.45A80.84,80.84,0,0,1,119.91,130.15ZM93.77,76.46c.92.1,1.93,3.05,2.54,4.81a13.61,13.61,0,0,0,1,2.58c.15.21.29.4.45.59a12.41,12.41,0,0,0,1.86,1.83l.42.33a2,2,0,0,1,.46.41.7.7,0,0,1-.05.2,2.37,2.37,0,0,1-.14.29h0s-.06.1-.08.15a2.67,2.67,0,0,0-.17.3,29.75,29.75,0,0,1-5.7,6.36c-.75.7-1.48,1.37-2.15,2-1.35,1.36-2.71,2.73-4.06,4.11-1.83,1.86-3.71,3.78-5.58,5.61-.35-.44-1.15-1.88-2.62-6.53-.07-.2-.38-1.21-.72-2.48,0-.16-.09-.32-.13-.49s-.09-.32-.13-.49a32.19,32.19,0,0,1-.66-3.21c-.22-1.54,0-1.92,0-2,1.16-1.82,3.21-3,5.2-4.17.89-.52,1.72-1,2.48-1.54l.71-.5a27.57,27.57,0,0,0,3.94-3.18A6.16,6.16,0,0,0,92,79l0-.09c.07-.21.14-.41.22-.61s.14-.35.23-.53.14-.26.22-.4l.12-.16a2.73,2.73,0,0,1,.37-.46.94.94,0,0,1,.39-.24.21.21,0,0,1,.11,0Zm47.9,33.33a47.81,47.81,0,0,1-7.19,6.32A25.7,25.7,0,0,0,131.87,106c-.07-.14-.14-.29-.22-.43s-.17-.3-.26-.45c-2.7-4.59-7.67-8.77-16.92-11.81a55.91,55.91,0,0,1-12-5.36l-.44-.27c-.14-.09-.27-.19-.42-.28l-.1-.07c.16-.67-.2-1-.79-1.46l-.4-.31a10.57,10.57,0,0,1-2.12-2.22A14.07,14.07,0,0,1,97.23,81c-.77-2.26-1.65-4.79-3-5.35a29.84,29.84,0,0,0,3-5.18.54.54,0,0,1,0-.11A61.93,61.93,0,0,0,101.12,57a24,24,0,0,0,1.76-2.71,13.09,13.09,0,0,0,2.18-5.85l0-.51c.07-2.18.09-4,0-5.49.66.05,1.27.12,1.8.21h.15a15,15,0,0,1,5.07,0,12.72,12.72,0,0,1,8.05,5.47l0,0,.31.42c.12.17.23.33.34.47a9.75,9.75,0,0,0,1.88,2.06.14.14,0,0,1,.06.16.15.15,0,0,1-.13.11h-.57a.46.46,0,0,0-.42.25.48.48,0,0,0,0,.48,23.42,23.42,0,0,1,1.53,3.16,8.79,8.79,0,0,1-.21,5.87.48.48,0,0,0,.27.61.55.55,0,0,1,.18.13c.61.63.59,3.17.51,5.7v.31a7.25,7.25,0,0,1-1.2,3.14,13.7,13.7,0,0,1-1,1.59.53.53,0,0,0-.11.24,37.06,37.06,0,0,1-2.22,7.87,26.32,26.32,0,0,1-3.24,4.74.48.48,0,0,0-.06.55c2.17,4.16,6.38,7,14.06,9.53,5,1.63,7.76,3.77,9.37,6.16.1.14.19.29.28.43l.23.41A15.84,15.84,0,0,1,141.67,109.79Zm-1.33-8.59c-1.71-2.56-4.69-4.87-9.91-6.59-7.23-2.37-11.25-5-13.34-8.77a27.13,27.13,0,0,0,3.14-4.66l0-.1a38.14,38.14,0,0,0,2.26-8,16.25,16.25,0,0,0,1-1.6,8.2,8.2,0,0,0,1.34-3.61V67.6c.11-3.68,0-5.57-.79-6.41l-.1-.1a9.6,9.6,0,0,0,.06-6.2,27.68,27.68,0,0,0-1.19-2.58,1.13,1.13,0,0,0,.37-2,8.23,8.23,0,0,1-1.16-1.22c.4,0,.78.08,1.1.13a.38.38,0,0,0,.15,0,10.27,10.27,0,0,1,3.47,0,8.71,8.71,0,0,1,5.5,3.76,6.55,6.55,0,0,0,1.78,2h-.35a.47.47,0,0,0-.41.25.48.48,0,0,0,0,.49,16.2,16.2,0,0,1,1,2.16,6,6,0,0,1-.14,4,.59.59,0,0,0,.34.67c.42.44.35,2.66.31,3.86v.21a4.74,4.74,0,0,1-.82,2.11,7.94,7.94,0,0,1-.71,1.08.55.55,0,0,0-.1.25,26,26,0,0,1-1.53,5.41,18.28,18.28,0,0,1-2.23,3.26.51.51,0,0,0-.07.55c1.54,2.93,4.48,4.93,9.85,6.69,6.94,2.28,7.76,6,7.92,9.69A33.37,33.37,0,0,1,140.34,101.2Zm-64.4-.1.18,0a1.78,1.78,0,0,0,1.76-1.86,1.88,1.88,0,0,0-.4-1.17,1.62,1.62,0,0,0-.37-.37,1.39,1.39,0,0,0-.52-.25,1.5,1.5,0,0,0-.47-.08,1.78,1.78,0,0,0-1.69,1.34,1.84,1.84,0,0,0-.08.53v0s0,0,0,0a1.8,1.8,0,0,0,.1.57,1.89,1.89,0,0,0,.24.47v0a1.73,1.73,0,0,0,.26.28A1.64,1.64,0,0,0,75.94,101.1ZM75.37,99a.8.8,0,0,1,.75-.65h0a.72.72,0,0,1,.51.25,1,1,0,0,1,.22.63.84.84,0,0,1-.78.89.75.75,0,0,1-.48-.2l-.13-.15-.08-.13a1,1,0,0,1-.1-.41A.93.93,0,0,1,75.37,99ZM108,110.46a20.72,20.72,0,0,1-9.62-3,1.14,1.14,0,0,0-1.23,0,20.8,20.8,0,0,1-9.63,3,1.16,1.16,0,0,0-1.07,1.15v8c0,.53,0,1,0,1.54,0,.18,0,.36,0,.54s0,.39.06.58c.73,6,4.12,10,10.74,12.55a1.15,1.15,0,0,0,.41.08,1.16,1.16,0,0,0,.42-.08c5.06-2,8.23-4.75,9.77-8.64.06-.17.13-.33.19-.5s.1-.33.16-.49a18.9,18.9,0,0,0,.78-5.58v-8A1.16,1.16,0,0,0,108,110.46Zm.1,9.19a17.12,17.12,0,0,1-.86,5.61c-.05.16-.11.33-.17.49l-.21.49c-1.52,3.44-4.45,5.91-9,7.71h-.13c-6-2.36-9.2-5.88-10-11.22l-.09-.58c0-.17,0-.35,0-.52-.06-.64-.1-1.29-.1-2v-8a.18.18,0,0,1,.16-.18,21.68,21.68,0,0,0,10.08-3.19.16.16,0,0,1,.09,0,.17.17,0,0,1,.1,0A21.64,21.64,0,0,0,108,111.43a.19.19,0,0,1,.17.18Zm-30-9.33a1.89,1.89,0,0,0-.32-.37,1.68,1.68,0,0,0-1.14-.45,1.82,1.82,0,0,0-1.76,1.86,1.94,1.94,0,0,0,.34,1.1,2,2,0,0,0,.34.37,1.83,1.83,0,0,0,.42.26,1.63,1.63,0,0,0,.66.14,1.82,1.82,0,0,0,1.77-1.87,1.78,1.78,0,0,0-.1-.56A1.59,1.59,0,0,0,78.1,110.32Zm-.82,1.54a.7.7,0,0,1-.27.27.68.68,0,0,1-.37.12.75.75,0,0,1-.36-.1,1,1,0,0,1-.43-.79.85.85,0,0,1,.79-.89.75.75,0,0,1,.45.18.93.93,0,0,1,.29.41,1,1,0,0,1,.05.3A.92.92,0,0,1,77.28,111.86ZM72.33,46a3,3,0,0,0,.32-.8,10.09,10.09,0,0,0,.43-1.83,1.43,1.43,0,0,1,.08-.41,5.82,5.82,0,0,1,.78,0c.4,0,.88,0,1.06,0a1.33,1.33,0,0,1,.41,0,.21.21,0,0,0,.18,0,.19.19,0,0,0,.17,0,1.34,1.34,0,0,1,.41,0c.18,0,.66,0,1.07,0a5.82,5.82,0,0,1,.78,0,1.61,1.61,0,0,1,.07.41,11.56,11.56,0,0,0,.44,1.83,3,3,0,0,0,.32.8,1.52,1.52,0,0,1,.16.3,1.57,1.57,0,0,0,.38.61,1,1,0,0,1,.16.21s.06.06.08,0,.08,0,.13.15a3.41,3.41,0,0,0,.45.5l.62.58.58.54a7.27,7.27,0,0,0,1.91,1.27,5.42,5.42,0,0,0,1.47.54.55.55,0,0,1,.27.06,10.54,10.54,0,0,0,1.56.43l.57.13a1.89,1.89,0,0,0,.33.09.35.35,0,0,1,.13,0,4.14,4.14,0,0,0,.58.09l.79.09c.37.06,1,.12,1.31.13h0l.57,0,.34,0h1.1a10.77,10.77,0,0,0,1.51-.09,12.21,12.21,0,0,0,1.23-.34A2.31,2.31,0,0,0,96,51a.24.24,0,0,1,.09-.07,1.71,1.71,0,0,0,.34-.33c.16-.18.34-.38.4-.43a3.36,3.36,0,0,0,.59-.83.53.53,0,0,1,.11-.19s0,0,.06-.07a1,1,0,0,1,.16-.33,3.23,3.23,0,0,0,.3-.71c.06-.18.19-.54.29-.79a4,4,0,0,0,.35-1,1.32,1.32,0,0,1,.07-.3c.14-.41.16-.5.15-.54a5.69,5.69,0,0,1,.18-1.21c0-.2.08-.4.12-.64s.05-.36.08-.58,0-.22,0-.35l0-.2a1.05,1.05,0,0,1,.14-.48s0,0,0-.07a1.25,1.25,0,0,1,.34-.65,1.1,1.1,0,0,1,.41-.13,2.2,2.2,0,0,0,.87-.32.67.67,0,0,0,.1-.39.16.16,0,0,1,0-.08,2.55,2.55,0,0,0,.07-.64,2.85,2.85,0,0,1,0-.4,1.18,1.18,0,0,0,0-.32,2,2,0,0,1,.07-.72.49.49,0,0,0,0-.4,1,1,0,0,1-.06-.29c.09-.34-1.77-.23-2-.25s-.62-.06-.89-.07l-.92-.06c-1-.08-2.12,0-3.17,0-.2,0-.53,0-.74,0l-.81,0-.72,0-.58,0L91,36.88a13.2,13.2,0,0,0-3-.16c-.42,0-.9,0-1.08,0a3.27,3.27,0,0,0-.9.08,14,14,0,0,0-1.54.34,5.25,5.25,0,0,1-1.05.21.88.88,0,0,0-.28.06l-.33.11a9,9,0,0,0-2,.9,5.17,5.17,0,0,1-.5.27,8.45,8.45,0,0,0-.88.74,4.86,4.86,0,0,1-.88.68.17.17,0,0,0-.12.07.17.17,0,0,1-.1.07s-.06,0-.06,0-.08.06-.18.08a.64.64,0,0,0-.22.08,2.25,2.25,0,0,1-.68.29l-.77.11a2.62,2.62,0,0,0-.69.14s-.46-.09-.83-.14l-.78-.11a2.18,2.18,0,0,1-.67-.29.83.83,0,0,0-.23-.08c-.1,0-.17-.06-.17-.08s0,0-.06,0a.23.23,0,0,1-.11-.07.17.17,0,0,0-.11-.07,4.86,4.86,0,0,1-.88-.68,9,9,0,0,0-.89-.74,4.44,4.44,0,0,1-.49-.27,9.16,9.16,0,0,0-2-.9l-.33-.11a.94.94,0,0,0-.28-.06,5.22,5.22,0,0,1-1.06-.21,12.8,12.8,0,0,0-1.54-.34,3.24,3.24,0,0,0-.9-.08c-.17,0-.66,0-1.08,0a10.3,10.3,0,0,0-1.91,0,.81.81,0,0,1-.37.09h-.38l-.38.05-.61.06L59,37l-.72,0-.8,0c-.21,0-.54,0-.75,0l-.69,0c-.83,0-1.65-.09-2.47,0l-.92.06c-.28,0-.68,0-.89.07-.58.06-2-.26-2.13.53a1.1,1.1,0,0,0,.06.41,2,2,0,0,1,.06.72,1.24,1.24,0,0,0,0,.32c0,.12,0,.29,0,.4a2,2,0,0,0,.08.64s0,.07,0,.08a.68.68,0,0,0,.11.39,2.15,2.15,0,0,0,.86.32,1.09,1.09,0,0,1,.42.13,1.32,1.32,0,0,1,.34.65s0,.07,0,.07a1.68,1.68,0,0,1,.18.68l0,.25c0,.22,0,.41.07.58s.07.43.11.62a.5.5,0,0,1,0,.12,6.06,6.06,0,0,1,.19,1.21s0,.13.15.54a1.32,1.32,0,0,1,.07.3,4.22,4.22,0,0,0,.34,1,7.29,7.29,0,0,1,.29.79,3.68,3.68,0,0,0,.31.71,1.26,1.26,0,0,1,.16.33s0,.07.06.07a.53.53,0,0,1,.11.19,3.33,3.33,0,0,0,.58.83c.06.05.25.25.41.43a2.23,2.23,0,0,0,.33.33.26.26,0,0,1,.1.07,2.33,2.33,0,0,0,.89.44c.47.15.65.2,1.23.34l.58.06,1,0h1a3.68,3.68,0,0,0,.41,0l.59,0c.3,0,.94-.07,1.31-.13l.79-.09a3.88,3.88,0,0,0,.58-.09l.14,0a1.87,1.87,0,0,0,.32-.09l.58-.13a10.54,10.54,0,0,0,1.56-.43.55.55,0,0,1,.27-.06,5.54,5.54,0,0,0,1.47-.54,7.27,7.27,0,0,0,1.91-1.27l.57-.54.63-.58a2.76,2.76,0,0,0,.44-.5c0-.1.12-.17.14-.15s0,0,.07,0a1.1,1.1,0,0,1,.17-.21,1.85,1.85,0,0,0,.38-.61A.87.87,0,0,1,72.33,46Zm10.25-5.06a2.72,2.72,0,0,1,1-.78,6.88,6.88,0,0,1,2-.52,16.24,16.24,0,0,1,2.11-.24.23.23,0,0,1,.25.22.24.24,0,0,1-.19.26A6.23,6.23,0,0,0,84,42.05a5.27,5.27,0,0,0-.72,1.26l-.06.14a4.1,4.1,0,0,0-.23.64s0,.14-.1.25l-.11.3a.25.25,0,0,1-.24.23.26.26,0,0,1-.22-.13,2.46,2.46,0,0,1-.21-.86,8.56,8.56,0,0,1-.08-1A3,3,0,0,1,82.58,40.91ZM60.26,39.85a6.26,6.26,0,0,0-3.65,2.2,5.63,5.63,0,0,0-.72,1.26l-.06.14a5.47,5.47,0,0,0-.23.64l-.09.25c0,.11-.1.24-.12.3a.23.23,0,0,1-.13.2.2.2,0,0,1-.11,0,.23.23,0,0,1-.21-.13,2.28,2.28,0,0,1-.22-.86c0-.41-.07-.73-.08-1a3,3,0,0,1,.53-2,2.68,2.68,0,0,1,1-.78,7,7,0,0,1,2-.52,16.44,16.44,0,0,1,2.11-.24.23.23,0,0,1,.25.22A.23.23,0,0,1,60.26,39.85Zm37.61,76.74A1.36,1.36,0,0,0,96.59,118a1.45,1.45,0,0,0,.79,1.33v5.31a.52.52,0,0,0,.16.36.49.49,0,0,0,.33.13.58.58,0,0,0,.19,0,.5.5,0,0,0,.3-.44h0v-5.31a1.44,1.44,0,0,0,.8-1.33A1.37,1.37,0,0,0,97.87,116.59Zm0,1.89c-.14,0-.31-.19-.31-.46s.17-.46.31-.46.31.19.31.46S98,118.48,97.87,118.48Z"/></g></svg>