<svg width="50" height="50" viewBox="0 0 50 50"><path id="icon-card-check" class="medium-blue" d="M33.5,24a.5.5,0,0,1,0-1h2a.5.5,0,0,1,0,1h-2ZM31,27.5v4a.5.5,0,0,0,.5.5h7.21l1.05-1H32V28H42.91L44,27H31.5A.5.5,0,0,0,31,27.5ZM39.5,24h2a.5.5,0,0,0,0-1h-2a.5.5,0,0,0,0,1Zm-13,2a.5.5,0,0,0,0-1l-21-.05h0a.5.5,0,0,0,0,1l21,.05Zm-13,4h-2a.5.5,0,0,0,0,1h2a.5.5,0,0,0,0-1Zm6,0h-2a.5.5,0,0,0,0,1h2a.5.5,0,0,0,0-1Zm-12,0h-2a.5.5,0,0,0,0,1h2a.5.5,0,0,0,0-1ZM48,33.14A1.87,1.87,0,0,1,46.14,35H42.65l-.81,1h4.3A2.87,2.87,0,0,0,49,33.14V27.2l-1,1.23Zm1-22.27V24.58a1.84,1.84,0,0,0-1-.48V20H3V33.14A1.87,1.87,0,0,0,4.86,35h18.7a1.75,1.75,0,0,0,.09.18l.53.82H4.86A2.87,2.87,0,0,1,2,33.14V10.86A2.87,2.87,0,0,1,4.86,8H46.14A2.87,2.87,0,0,1,49,10.86ZM48,16H3v3H48Zm0-5.14A1.87,1.87,0,0,0,46.14,9H4.86A1.87,1.87,0,0,0,3,10.86V15H48ZM29.89,36H34.5l1.05-1H28.76ZM46,31h-.09l-.81,1H46.5a.5.5,0,0,0,.5-.5V29.66l-1,1.23Zm2.34-5.69a.81.81,0,0,0-1.11,0L32.3,39.48l-6.67-5.93-.12-.08a.81.81,0,0,0-1,1.17l7,10.81a.81.81,0,0,0,.63.37h0a.81.81,0,0,0,.63-.3l15.6-19.15A.8.8,0,0,0,48.34,25.31ZM32.18,44.69l-6.06-9.37,5.72,5.08.12.08a.81.81,0,0,0,.83-.08l0,0L45.69,28.1Z"/>
</svg>