<svg id="ddos-attack" xmlns="http://www.w3.org/2000/svg" viewBox="0 0 453 319"><defs><style>.blue-stroke{fill:none;stroke:#373e5a;stroke-linecap:round;stroke-linejoin:round;stroke-width:1.5px;} .blue-stroke-white{fill:#fff;stroke:#373e5a;stroke-linecap:round;stroke-linejoin:round;stroke-width:1.5px;} .blue{fill:#373e5a;} .grey-stroke{fill:none;stroke:#969c9c;stroke-linecap:round;stroke-linejoin:round;stroke-width:1.5px;} .fly-line1{fill:none;stroke:#969c9c;stroke-linecap:round;stroke-linejoin:round;stroke-width:1.5px;stroke-dasharray:5.88 3.92 10.78 5.88;} .fly-line2{fill:none;stroke:#969c9c;stroke-linecap:round;stroke-linejoin:round;stroke-width:1.5px;stroke-dasharray:3.92 10.78 5.88 3.92 10.78 5.88;}</style></defs><path class="grey-stroke" d="M206.4 135.05s.37-.59 1.08-1.68"/><path class="fly-line1" d="M214.06 123.66c3.81-5.46 9-12.56 15.21-20.59"/><path class="fly-line2" d="M231.24 100.55C275.68 44.19 371.4-52.69 448.86 38"/><path class="grey-stroke" d="M450.92 40.5l1.26 1.55M185.32 250.78s.37-.59 1.08-1.68"/><path class="fly-line1" d="M193 239.39c3.81-5.46 9-12.56 15.21-20.59"/><path class="fly-line2" d="M210.15 216.28C254.59 159.92 350.31 63 427.77 153.77"/><path class="grey-stroke" d="M429.83 156.23l1.26 1.55M56.94 207.85s.37-.59 1.08-1.68"/><path class="fly-line1" d="M64.6 196.45c3.81-5.46 9-12.56 15.21-20.59"/><path class="fly-line2" d="M81.78 173.34C126.22 117 221.94 20.1 299.4 110.83"/><path class="grey-stroke" d="M301.46 113.3l1.26 1.55"/><path class="blue-stroke-white" d="M171.24 171.8c6.78 2.62 21 5.06 27.63-16.23a8.71 8.71 0 0 1 2.95-6.13 61.31 61.31 0 0 0-10.56 6.75 26 26 0 0 0 4.14-12.56c.44-5.89 2-9.2 3.68-11.08a23.84 23.84 0 0 0-2.4 2c.29-.63.53-1.22.75-1.8-1.37 2.08-4.15 4.49-9.72 6.46a26 26 0 0 0-11 7.3 61.32 61.32 0 0 0 3.73-12 8.71 8.71 0 0 1-5.13 4.46c-15.11 9.69-14.13 20-10.93 26.73m.25.52a26.44 26.44 0 0 0 5 6.82l1-1.53.65.26m10.5-17.61l.54-.84c-.91-4.6 3.76-8.09 3.76-8.09a22.34 22.34 0 0 0 5.71-3.9 22.45 22.45 0 0 0-1.75 5.47s-2.13 5.41-6.81 5.75zM157.47 181.09A57.57 57.57 0 0 0 149 177s-48.84 29.85-71.06 64-11 65.62-11 65.62v.09s33.37.84 58.87-31 38.52-87.57 38.52-87.57a57.53 57.53 0 0 0-6.94-7.17z"/><polyline class="blue-stroke-white" points="147.52 229.47 181.24 224.21 199.42 196.07 176.6 188.71 160.22 199.37 147.52 229.47 151.13 230.14"/><path class="blue-stroke-white" d="M108.48 206.49l-7.32-12.24 20.11-25.1 25.54 7.17"/><polygon class="blue-stroke-white" points="122.14 209.14 125.14 177.66 147.89 147.46 153.39 161.05 140.88 176.77 147.36 178.93 148.18 183 147.3 183.94 122.14 209.14"/><path class="blue-stroke-white" d="M174.84 206.34s-10.27-23.69-34-29.57L153.39 161s24.08 6.76 31.93 30.4zM104.34 295.1c4.2-7.67-15.11-21.37-15.11-21.37-18.11-12.69-22.75-6.27-22.75-6.27l-1.38 6.45s4.84-6.31 20.59 4.74c0 0 17.33 12.6 12.78 19.77z"/><polygon class="blue-stroke-white" points="144.94 146.56 122.14 177.04 119.14 207.59 122.14 209.14 125.14 177.66 147.85 147.22 146.74 147.01 144.94 146.56"/><path class="blue-stroke-white" d="M171.06 204s-9.65-18.07-29.35-24.37l-.83-2.87c23.69 5.88 34 29.56 34 29.56z"/><polygon class="blue-stroke-white" points="149.38 232.36 147.52 229.47 181.24 224.21 199.42 196.07 200.07 196.07 201.26 198.33 183.22 227.43 149.38 232.36 149.38 232.36"/><line class="blue-stroke-white" x1="181.24" y1="224.21" x2="182.87" y2="226.92"/><path class="blue-stroke-white" d="M176.68 260.82a26.25 26.25 0 0 0-3.88-1.82s-22.27 13.61-32.4 29.2-5 29.92-5 29.92 15.21.39 26.84-14.13 17.56-39.92 17.56-39.92a26.23 26.23 0 0 0-3.16-3.27z"/><polyline class="blue-stroke-white" points="173.78 283.18 187.92 280.98 196.47 267.64 185.4 264.29 177.93 269.15 172.47 283.4 173.78 283.18"/><path class="blue-stroke-white" d="M154.34 272.4l-3.34-5.58 9.17-11.44 11.65 3.27"/><polygon class="blue-stroke-white" points="160.57 273.6 161.94 259.25 172.31 245.48 174.81 251.68 169.11 258.85 172.07 259.83 172.44 261.69 172.04 262.11 160.57 273.6"/><path class="blue-stroke-white" d="M184.59 272.33s-4.68-10.8-15.49-13.48l5.71-7.17s11 3.08 14.56 13.86zM152.45 312.8c1.91-3.5-6.89-9.74-6.89-9.74-8.25-5.79-10.37-2.86-10.37-2.86l-.63 2.94s2.21-2.87 9.39 2.16c0 0 7.9 5.75 5.83 9z"/><polygon class="blue-stroke-white" points="171.51 245.21 161.15 259.01 159.68 273.14 160.57 273.6 161.94 259.25 172.29 245.37 171.78 245.28 171.51 245.21"/><path class="blue-stroke-white" d="M183.43 271.61s-4.27-9.09-14-12l-.28-.78c10.8 2.68 15.5 13.48 15.5 13.48z"/><polygon class="blue-stroke-white" points="172.98 284.19 172.47 283.4 187.93 281.01 196.47 267.64 196.48 267.67 196.64 268.68 188.41 281.95 172.98 284.19 172.98 284.19"/><path class="blue-stroke-white" d="M43.87 224.65a26.54 26.54 0 0 0-3.87-1.87s-22.57 13.76-32.81 29.53-5 30.26-5 30.26 15.39.39 27.14-14.29S47.06 228 47.06 228a26.52 26.52 0 0 0-3.2-3.3z"/><polyline class="blue-stroke-white" points="40.95 247.27 55.24 245.04 63.89 231.56 52.69 228.16 45.13 233.08 39.62 247.49 40.95 247.27"/><path class="blue-stroke-white" d="M21.28 236.36l-3.38-5.64 9.27-11.57 11.83 3.3"/><polygon class="blue-stroke-white" points="27.58 237.58 28.96 223.07 39.45 209.14 41.99 215.41 36.22 222.66 39.21 223.65 39.59 225.53 39.18 225.96 27.58 237.58"/><path class="blue-stroke-white" d="M51.88 236.29s-4.74-10.92-15.66-13.63l5.78-7.25s11.1 3.12 14.72 14zM19.37 277.21c1.93-3.54-7-9.85-7-9.85-8.35-5.85-10.49-2.89-10.49-2.89l-.63 3s2.23-2.91 9.5 2.18c0 0 8 5.81 5.89 9.12z"/><polygon class="blue-stroke-white" points="38.65 208.87 28.17 222.82 26.68 237.12 27.58 237.58 28.96 223.07 39.43 209.03 38.92 208.94 38.65 208.87"/><path class="blue-stroke-white" d="M50.7 235.56s-4.32-9.19-14.2-12.11l-.29-.79c10.92 2.71 15.67 13.63 15.67 13.63z"/><polygon class="blue-stroke-white" points="40.14 248.29 39.62 247.49 55.25 245.07 63.89 231.56 63.9 231.58 64.06 232.6 55.74 246.02 40.14 248.29 40.14 248.29"/><g id="opac-30"><path class="grey-stroke" opacity="0.3" d="M161.9 304.44c-3.76 2.11-7.08.3-7.7-4.47-.68-5.26 2.19-12.14 6.41-15.35s8.19-1.56 8.86 3.7a14.8 14.8 0 0 1-.24 4.82M34.86 260a16.23 16.23 0 0 0 .85-7.06c-.68-5.26-4.65-6.92-8.86-3.7s-7.09 10.09-6.41 15.35 4.65 6.92 8.86 3.7M120.72 227.64c-7.9 6-13 19.32-11.3 29.69s9.41 13.89 17.31 7.86 13-19.32 11.3-29.69-9.41-13.89-17.31-7.86z"/></g><path id="fills" class="blue" d="M126 249l4.53 5c-2.8 4.84-6.61 7.56-10 7.58l2.11-10.09c1.16 0 2.43-.87 3.36-2.49zm-4.52-5l-4.48-5a24.06 24.06 0 0 0-3.16 15.1l6.64-5.07a8 8 0 0 1 1-5zm12.2-5.09a10.72 10.72 0 0 0-2.37-5.52 5.77 5.77 0 0 0-4.41-2l-2.12 10.1a1.89 1.89 0 0 1 1.47.64A3.63 3.63 0 0 1 127 244zm-8.55 5.19c-.69-.76-1.87-.31-2.64 1s-.83 3-.14 3.78 1.87.31 2.64-1 .83-3.03.14-3.79zm-97.69 17.31l-1.28 5.19c1.74-.07 3.77-1.53 5.31-4l-2.27-2.48a2.45 2.45 0 0 1-1.76 1.29zM27 257.6l-2.27-2.48a12.61 12.61 0 0 0-1.91 7.76l3.55-2.71a4.18 4.18 0 0 1 .63-2.57zm6.44-2.82a5 5 0 0 0-1.18-2.78 2.82 2.82 0 0 0-2.26-.94l-1.28 5.19a.92.92 0 0 1 .76.3 1.71 1.71 0 0 1 .37.93zm-4.54 2.8c-.34-.38-1-.13-1.39.57a1.8 1.8 0 0 0-.14 1.93c.34.38 1 .12 1.39-.57a1.8 1.8 0 0 0 .09-1.92zm132.3 39.18l-1.28 5.19c1.74-.07 3.77-1.53 5.31-4l-2.23-2.53a2.45 2.45 0 0 1-1.8 1.34zm-.49-3.81l-2.27-2.48a12.61 12.61 0 0 0-1.91 7.76l3.55-2.71a4.18 4.18 0 0 1 .63-2.58zm6.44-2.82a5 5 0 0 0-1.13-2.77 2.82 2.82 0 0 0-2.26-.94l-1.28 5.19a.92.92 0 0 1 .76.3 1.71 1.71 0 0 1 .37.93zm-4.54 2.8c-.34-.38-1-.13-1.39.57a1.8 1.8 0 0 0-.14 1.93c.34.38 1 .12 1.39-.57a1.8 1.8 0 0 0 .14-1.93zm-24.29 5.52a.23.23 0 0 0 .15.19c.15.05.36-.09.45-.31s.05-.45-.1-.5-.36.09-.46.32a.54.54 0 0 0 0 .3m-2.08 0a.21.21 0 0 0 .13.18c.14 0 .33-.09.42-.3s.05-.42-.08-.47-.33.09-.42.3a.53.53 0 0 0 0 .29m5.16.8a.37.37 0 0 0 .2.28.56.56 0 1 0-.14-.66.64.64 0 0 0-.06.38m6.43 4a.36.36 0 0 0 .1.32.57.57 0 1 0 .07-.67.65.65 0 0 0-.17.35m2.61 2.46a.37.37 0 0 0 .08.33.54.54 0 1 0 .11-.65.61.61 0 0 0-.19.33m-5.8-4.72a.41.41 0 0 0 .17.34.59.59 0 1 0 0-.73.66.66 0 0 0-.12.39m7.88 7.37a.28.28 0 0 0 0 .26.37.37 0 0 0 .51.08c.21-.11.31-.32.24-.47a.37.37 0 0 0-.51-.08.52.52 0 0 0-.22.21m1 2.27a.25.25 0 0 0 0 .24.35.35 0 0 0 .48 0c.18-.12.27-.32.19-.44a.35.35 0 0 0-.48 0 .49.49 0 0 0-.19.21m-148.48-48a.24.24 0 0 0 .15.2c.15.05.36-.09.46-.32s.05-.45-.1-.51-.36.09-.46.32a.55.55 0 0 0 0 .31m-2.1 0a.21.21 0 0 0 .13.18c.14 0 .33-.09.42-.3s.05-.43-.09-.47-.33.09-.43.31a.54.54 0 0 0 0 .29m5.22.8a.37.37 0 0 0 .2.28.57.57 0 0 0 .46-1 .5.5 0 0 0-.6.33.65.65 0 0 0-.06.39m6.5 4a.37.37 0 0 0 .1.33.57.57 0 0 0 .74-.81.5.5 0 0 0-.67.13.65.65 0 0 0-.17.35m2.64 2.48a.37.37 0 0 0 .08.33.55.55 0 1 0 .11-.66.62.62 0 0 0-.19.33m-5.87-4.77a.42.42 0 0 0 .17.34.6.6 0 0 0 .67-1 .53.53 0 0 0-.71.22.67.67 0 0 0-.13.4m8 7.46a.28.28 0 0 0 0 .26.37.37 0 0 0 .51.08c.21-.11.32-.32.24-.47a.37.37 0 0 0-.52-.08.53.53 0 0 0-.22.21m1.05 2.3a.25.25 0 0 0 0 .24.36.36 0 0 0 .49 0c.19-.12.27-.32.19-.45a.36.36 0 0 0-.49 0 .5.5 0 0 0-.19.21m52.85-11.42a.51.51 0 0 0 .33.43c.34.11.78-.2 1-.69s.12-1-.22-1.1-.79.2-1 .69a1.19 1.19 0 0 0-.1.67m-4.56.09a.46.46 0 0 0 .29.4c.3.1.71-.19.92-.66s.12-.93-.19-1-.72.2-.92.66a1.16 1.16 0 0 0-.1.63m11.32 1.75a.81.81 0 0 0 .43.61 1.24 1.24 0 1 0-.31-1.45 1.41 1.41 0 0 0-.12.84m14.09 8.75a.8.8 0 0 0 .22.71 1.24 1.24 0 1 0 .15-1.47 1.42 1.42 0 0 0-.37.76m5.73 5.39a.81.81 0 0 0 .18.72 1.19 1.19 0 1 0 .23-1.43 1.34 1.34 0 0 0-.41.71m-12.96-10.22a.9.9 0 0 0 .37.74 1.3 1.3 0 1 0-.09-1.6 1.46 1.46 0 0 0-.27.86m17.28 16.17a.61.61 0 0 0 0 .57.81.81 0 0 0 1.11.17c.45-.24.69-.69.52-1A.81.81 0 0 0 105 285a1.14 1.14 0 0 0-.48.45m2.28 5a.54.54 0 0 0 0 .52.77.77 0 0 0 1.06 0c.4-.26.59-.69.41-1a.78.78 0 0 0-1.06 0 1.08 1.08 0 0 0-.41.46m-7.79 8c4.55-7.17-12.78-19.77-12.78-19.77-15.76-11-20.59-4.74-20.59-4.74v-.11c-3.08 19.19 1.85 32.92 1.85 32.92v.09s14.47.37 31.63-8.47zm50.73 15.68c2-3.22-5.74-8.87-5.74-8.87-7.07-5-9.24-2.13-9.24-2.13a32.38 32.38 0 0 0 .83 14.77 32.35 32.35 0 0 0 14.19-3.8zm-133.2-35.56c2-3.22-5.74-8.87-5.74-8.87-7.07-5-9.24-2.13-9.24-2.13a32.38 32.38 0 0 0 .83 14.77 32.35 32.35 0 0 0 14.19-3.8z"/></svg>