<svg xmlns="http://www.w3.org/2000/svg" width="140.23" height="225.92" viewBox="0 0 140.23 225.92">
  <title>icon-clear-crap</title>
  <g id="Layer_2" data-name="Layer 2">
    <g id="_1200" data-name="1200">
      <g id="Form">
        <g id="Bot">
          <path d="M8.38,156.56A3.1,3.1,0,0,1,6,151.5l36.78-45a3.1,3.1,0,0,1,4.81,3.93L21.5,142.3l11.63-6.72a3.1,3.1,0,1,1,3.1,5.37L9.93,156.15A3.09,3.09,0,0,1,8.38,156.56Z" style="fill: #fff;stroke: #3f4563;stroke-miterlimit: 10"/>
          <path d="M13.16,154.83a5.45,5.45,0,1,1-3-6.27l.44.23.24.09,49-24a3.1,3.1,0,1,1,2.73,5.57L13.34,154.74Z" style="fill: #fff;stroke: #3f4563;stroke-miterlimit: 10"/>
          <path d="M34.92,113.63a3.08,3.08,0,0,1-1.54-.41L12,101A3.1,3.1,0,0,1,10.5,97.6L22.08,46a3.1,3.1,0,0,1,6.05,1.36L17.05,96.73l19.41,11.11a3.1,3.1,0,0,1-1.54,5.8Z" style="fill: #fff;stroke: #3f4563;stroke-miterlimit: 10"/>
          <path d="M6.92,63.23a4.14,4.14,0,0,1-2.51-3.45L1.62,28.37a4.14,4.14,0,0,1,8.24-.73l2.57,28.94" style="fill: #fff;stroke: #3f4563;stroke-miterlimit: 10"/>
          <polyline points="31.69 93.17 13.52 113.15 34.92 125.61" style="fill: none;stroke: #75757f;stroke-linecap: round;stroke-linejoin: round"/>
          <circle cx="8.08" cy="153.58" r="5.45" style="fill: #fff;stroke: #373e5a;stroke-linecap: round;stroke-linejoin: round"/>
          <path d="M32.68,68.19" style="fill: #fff;stroke: #373e5a;stroke-linecap: round;stroke-linejoin: round"/>
          <circle cx="9.61" cy="57.32" r="6.92" transform="translate(-48.01 64.91) rotate(-87.98)" style="fill: #fff;stroke: #373e5a;stroke-linecap: round;stroke-linejoin: round"/>
          <circle cx="13.75" cy="102.84" r="6.92" transform="translate(-89.51 112.96) rotate(-87.98)" style="fill: #fff;stroke: #373e5a;stroke-linecap: round;stroke-linejoin: round"/>
          <path d="M7.07,63.5l13.86,27a2.81,2.81,0,0,0,1.72,1.47,6.89,6.89,0,0,0,5.2-.67,2.84,2.84,0,0,0,1.08-3.88C25.86,81.8,16.49,65.26,13.4,60.29A2.9,2.9,0,0,0,10,59.08C8.22,59.67,6.14,60.93,7.07,63.5Z" style="fill: #fff;stroke: #3f4563;stroke-linecap: round;stroke-linejoin: round"/>
          <path d="M85.64,147.58c0,21.77-15.28,30.59-34.13,19.71s-34.13-37.35-34.13-59.12S32.65,77.58,51.51,88.46,85.64,125.81,85.64,147.58Z" style="fill: #fff;stroke: #373e5a;stroke-linecap: round;stroke-linejoin: round"/>
          <path d="M80.85,143.59c-.53,1.84-1.71,2.55-2.64,1.57s-1.24-3.25-.71-5.09,1.71-2.55,2.64-1.57S81.38,141.75,80.85,143.59Z" style="fill: #373e5a;stroke: #3f4563;stroke-linecap: round;stroke-linejoin: round"/>
          <path d="M81.47,157.69c-.88,1.7-2.17,2.17-2.89,1s-.59-3.43.28-5.14,2.17-2.17,2.89-1S82.35,156,81.47,157.69Z" style="fill: #373e5a;stroke: #3f4563;stroke-linecap: round;stroke-linejoin: round"/>
          <path d="M92.73,162a3.12,3.12,0,0,1-.74-.09l-11.19-2.76a3.1,3.1,0,0,1,1.48-6l10.49,2.59,24.05-5.26a3.1,3.1,0,1,1,1.33,6.06l-24.76,5.41A3.12,3.12,0,0,1,92.73,162Z" style="fill: #fff;stroke: #3f4563;stroke-miterlimit: 10"/>
          <circle cx="94.81" cy="158.6" r="5.45" style="fill: #fff;stroke: #373e5a;stroke-linecap: round;stroke-linejoin: round"/>
          <path d="M74.59,149.48c0,19.8-13.9,27.83-31.05,17.93s-31.05-34-31.05-53.79,13.9-27.83,31.05-17.93S74.59,129.67,74.59,149.48Z" style="fill: #fff;stroke: #373e5a;stroke-linecap: round;stroke-linejoin: round"/>
          <path d="M76.42,121.77c.09,2.84-1.29,4.29-3.09,3.25s-3.33-4.18-3.42-7,1.29-4.29,3.09-3.25S76.33,118.93,76.42,121.77Z" style="fill: #fff;stroke: #3f4563;stroke-linecap: round;stroke-linejoin: round"/>
          <g>
            <polygon points="29.1 84.22 29.1 73.13 67.76 95.45 67.76 106.54 29.1 84.22" style="fill: #fff;stroke: #373e5a;stroke-linecap: round;stroke-linejoin: round"/>
            <polygon points="72.16 102.41 72.16 92.02 33.5 69.7 29.17 72.81 29.1 72.87 67.76 95.19 67.76 106.54 72.16 102.41" style="fill: #fff;stroke: #373e5a;stroke-linecap: round;stroke-linejoin: round"/>
            <line x1="72.16" y1="92.02" x2="67.76" y2="95.45" style="fill: #fff;stroke: #373e5a;stroke-linecap: round;stroke-linejoin: round"/>
          </g>
          <circle cx="5.26" cy="24.09" r="4.76" transform="translate(-9.83 4.59) rotate(-25.42)" style="fill: #fff;stroke: #373e5a;stroke-linecap: round;stroke-linejoin: round"/>
          <path d="M84.46,143" style="fill: #fff;stroke: #373e5a;stroke-linecap: round;stroke-linejoin: round"/>
          <path d="M109.25,99.78,124.42,56a4.14,4.14,0,1,0-7.82-2.71l-14.66,42.3" style="fill: #fff;stroke: #3f4563;stroke-linecap: round;stroke-linejoin: round"/>
          <path d="M1.6,21.29s3.82,4.49,6-.78l-.27-3.27L6,17.18l.27-7.72,1.37-.34A11.11,11.11,0,0,1,16,.6S9.15-.78,3.55,6.75A17.84,17.84,0,0,0,1.6,21.29Z" style="fill: #fff;stroke: #3f4563;stroke-linecap: round;stroke-linejoin: round"/>
          <circle cx="102.36" cy="101.97" r="6.92" style="fill: #fff;stroke: #373e5a;stroke-linecap: round;stroke-linejoin: round"/>
          <path d="M96.84,102,72.39,115.33A2.81,2.81,0,0,0,71,117.1a6.89,6.89,0,0,0,.86,5.17,2.84,2.84,0,0,0,3.91.94c5.47-3.26,19.66-11.75,24.52-15a2.9,2.9,0,0,0,1.09-3.43C100.71,103,99.38,101,96.84,102Z" style="fill: #fff;stroke: #3f4563;stroke-linecap: round;stroke-linejoin: round"/>
          <g>
            <path d="M92.73,147.11a3.08,3.08,0,0,1-.57-.05L79.9,144.78a3.1,3.1,0,0,1,1.14-6.1l11.31,2.1,23.57-10.56a3.1,3.1,0,1,1,2.54,5.66L94,146.84A3.12,3.12,0,0,1,92.73,147.11Z" style="fill: #fff;stroke: #3f4563;stroke-miterlimit: 10"/>
            <circle cx="94.38" cy="142.69" r="5.45" style="fill: #fff;stroke: #373e5a;stroke-linecap: round;stroke-linejoin: round"/>
          </g>
          <path d="M91.87,205.46l42,19.57a4.14,4.14,0,0,0,3.5-7.5L96.77,198.61" style="fill: #fff;stroke: #3f4563;stroke-linecap: round;stroke-linejoin: round"/>
          <circle cx="90.4" cy="198.39" r="6.92" transform="translate(-116.21 267.99) rotate(-84.12)" style="fill: #fff;stroke: #373e5a;stroke-linecap: round;stroke-linejoin: round"/>
          <path d="M91,192.89,80.18,167.2a2.81,2.81,0,0,0-1.62-1.58,6.89,6.89,0,0,0-5.23.32A2.84,2.84,0,0,0,72,169.74c2.68,5.77,9.68,20.76,12.42,25.93a2.9,2.9,0,0,0,3.3,1.44C89.55,196.64,91.71,195.53,91,192.89Z" style="fill: #fff;stroke: #3f4563;stroke-linecap: round;stroke-linejoin: round"/>
          <g>
            <circle cx="27.75" cy="101.79" r="3.47" transform="translate(-4.57 1.36) rotate(-2.59)" style="fill: #373e5a;stroke: #373e5a;stroke-miterlimit: 10"/>
            <polygon points="27.82 103.21 47.51 89.64 45.93 87.94 27.69 100.38 27.82 103.21" style="fill: #373e5a;stroke: #373e5a;stroke-linecap: round;stroke-linejoin: round"/>
            <circle cx="47.27" cy="88.4" r="1.38" transform="translate(-3.95 2.23) rotate(-2.59)" style="fill: #373e5a;stroke: #373e5a;stroke-miterlimit: 10;stroke-width: 0.75px"/>
          </g>
          <circle cx="121.39" cy="52.2" r="4.76" transform="matrix(0.04, -1, 1, 0.04, 64.95, 171.68)" style="fill: #fff;stroke: #373e5a;stroke-linecap: round;stroke-linejoin: round"/>
          <path d="M129.26,29.06a39.78,39.78,0,0,0-8.46,21.88,1.82,1.82,0,0,0,2.36.63S125.75,47.94,129.26,29.06Z" style="fill: #fff;stroke: #3f4563;stroke-linecap: round;stroke-linejoin: round"/>
        </g>
      </g>
    </g>
  </g>
</svg>
