<svg id="money-single" xmlns="http://www.w3.org/2000/svg" viewBox="0 0 111 51"><polygon class="light-blue-grey" points="94.84 39.41 108.84 40.74 94.5 50.08 2.17 47.74 24.17 33.74 94.84 39.41"/><path class="light-blue-grey" d="M110.23,11.57C103.73,13.1,57.82,23,33,2.93q-1-.82-2-1.72L.77,34.92l.32.27c3.84,3.1,30.5,22.4,87.79,11.07l21.34-34.7"/><path class="blue-stroke" d="M110.23,11.57C103.73,13.1,57.82,23,33,2.93q-1-.82-2-1.72L.77,34.92l.32.27c3.84,3.1,30.5,22.4,87.79,11.07l21.34-34.7"/><path class="blue-stroke-white" d="M99.93,17.9a4.16,4.16,0,0,0,1.67.74l.36.07L88.53,40.06l-.39,0a8.93,8.93,0,0,0-4.64,1.56A11.86,11.86,0,0,0,80,45.4l-.14.24-.34.07C34.81,54.43,8.21,37,7.94,36.82l-.22-.15L8,36.42c2.75-2.88,1.81-4.58.75-5.43a4.39,4.39,0,0,0-1.24-.7l-.33-.12L25.71,9.24l.38.09a7.3,7.3,0,0,0,5.84-1.22,8.49,8.49,0,0,0,1.47-1.24l.38-.43.38.24C59.66,23.34,98.62,15.35,99,15.27l.62-.13-.19.44a1.8,1.8,0,0,0,.49,2.32"/><path class="blue" d="M58.89,23c2.21,1.79,2,5.35-.87,9-3.64,4.65-10.21,7.7-14.65,6.82a5.29,5.29,0,0,1-2.32-1c-2.21-1.79-2-5.36.87-9,3.65-4.65,10.21-7.7,14.65-6.82a5.29,5.29,0,0,1,2.32,1"/><path class="blue-stroke" d="M78,28.19c.69.56.41,2-.76,3.52a8.48,8.48,0,0,1-3.36,2.6,2.79,2.79,0,0,1-1.47.22,1.08,1.08,0,0,1-.48-.21c-.69-.56-.41-2,.77-3.52a8.48,8.48,0,0,1,3.36-2.6A2.79,2.79,0,0,1,77.54,28a1,1,0,0,1,.47.21"/><path class="blue-stroke" d="M33,19.71c.69.56.42,2-.77,3.53a8.53,8.53,0,0,1-3.36,2.61,2.84,2.84,0,0,1-1.47.21,1.07,1.07,0,0,1-.47-.21c-.69-.56-.41-2,.77-3.53A8.54,8.54,0,0,1,31,19.72a2.87,2.87,0,0,1,1.47-.22,1.06,1.06,0,0,1,.47.21"/></svg>