<svg id="numbers" xmlns="http://www.w3.org/2000/svg" viewBox="0 0 388 212"><path class="blue" d="M264.25 75.42c1.47 0 2.11-1 2.11-2.42v-4.91c0-1.41-.64-2.42-2.11-2.42s-2.11 1-2.11 2.42V73c0 1.39.65 2.42 2.11 2.42zM262.77 68c0-1 .42-1.81 1.48-1.81s1.48.77 1.48 1.81v5c0 1.05-.42 1.82-1.48 1.82s-1.48-.77-1.48-1.82zm114.59 140.49v3.45H377v-2.84a1.14 1.14 0 0 1-.84.45v-.31a1 1 0 0 0 .91-.75zm-99-77.12c1.37 0 2-1 2-2.27v-4.6c0-1.32-.6-2.27-2-2.27s-2 .95-2 2.27v4.6c-.02 1.31.58 2.27 1.96 2.27zm-1.39-6.91c0-1 .4-1.7 1.39-1.7s1.39.72 1.39 1.7v4.66c0 1-.4 1.71-1.39 1.71s-1.39-.72-1.39-1.71zM81.84 193.52h.37v7.19h-.47v-6.38a1.53 1.53 0 0 1-1.12.61v-.41a1.31 1.31 0 0 0 1.22-1.01zm-.1 18.42v-3.54a1.53 1.53 0 0 1-1.12.61v-.41a1.31 1.31 0 0 0 1.22-1h.37v4.35zM377 185.74V181a1.14 1.14 0 0 1-.84.45v-.31a1 1 0 0 0 .91-.75h.28v5.38zm-.84 9.44a1 1 0 0 0 .91-.75h.28v5.38H377V195a1.14 1.14 0 0 1-.84.45zM53.65 194H54v6.17h-.4v-5.48a1.31 1.31 0 0 1-1 .52v-.35a1.13 1.13 0 0 0 1.05-.86zm210.6-132.65c1.47 0 2.11-1 2.11-2.42V54c0-1.41-.64-2.42-2.11-2.42s-2.11 1-2.11 2.42v4.91c0 1.41.65 2.44 2.11 2.44zM262.77 54c0-1 .42-1.81 1.48-1.81s1.48.77 1.48 1.81v5c0 1.05-.42 1.82-1.48 1.82s-1.48-.82-1.48-1.82zm1.48 49.56c1.47 0 2.11-1 2.11-2.42v-4.92c0-1.41-.64-2.42-2.11-2.42s-2.11 1-2.11 2.42v4.91c0 1.39.65 2.42 2.11 2.42zm-1.48-7.37c0-1 .42-1.81 1.48-1.81s1.48.77 1.48 1.81v5c0 1.05-.42 1.82-1.48 1.82s-1.48-.77-1.48-1.82zM377.36 45.1H377v-4.78a1.14 1.14 0 0 1-.84.45v-.31a1 1 0 0 0 .91-.75h.28zM164.67 179.36a1.87 1.87 0 0 0 1.74-1.43h.53v10.25h-.67v-9.1a2.18 2.18 0 0 1-1.59.86zm184.35.52h.33v6.36h-.42v-5.64a1.35 1.35 0 0 1-1 .53v-.36a1.16 1.16 0 0 0 1.07-.9zm14 32.06v-3a1.24 1.24 0 0 1-.91.49v-.33a1.07 1.07 0 0 0 1-.82h.3v3.68zm-253.06 0V208a1.73 1.73 0 0 1-1.27.69v-.47a1.49 1.49 0 0 0 1.31-1.12h.42v4.84zM237.3 61.8h-.7v-9.47a2.27 2.27 0 0 1-1.66.9v-.61a2 2 0 0 0 1.81-1.49h.55zm110.64 133a1.16 1.16 0 0 0 1.08-.89h.33v6.36h-.42v-5.64a1.35 1.35 0 0 1-1 .53zm-68.63-35.41h-.59v-8a1.91 1.91 0 0 1-1.4.76v-.51a1.64 1.64 0 0 0 1.53-1.26h.46zm-15.06-69.91c1.47 0 2.11-1 2.11-2.42v-4.91c0-1.41-.64-2.42-2.11-2.42s-2.11 1-2.11 2.42v4.91c0 1.39.65 2.42 2.11 2.42zm-1.48-7.37c0-1 .42-1.81 1.48-1.81s1.48.77 1.48 1.81v5c0 1.05-.42 1.82-1.48 1.82s-1.48-.77-1.48-1.82zm15.95 105.44v-8a1.91 1.91 0 0 1-1.4.76v-.51a1.64 1.64 0 0 0 1.53-1.26h.46v9zm-42.12-27.3v-9.47a2.27 2.27 0 0 1-1.66.9v-.61a2 2 0 0 0 1.81-1.49h.55v10.67zm42.71 13.23h-.59v-8a1.91 1.91 0 0 1-1.4.76v-.51a1.64 1.64 0 0 0 1.53-1.26h.46zM25.39 211.94v-2.79a1.11 1.11 0 0 1-.82.44v-.3a1 1 0 0 0 .89-.73h.27v3.38zm210.73-79.72c1.63 0 2.34-1.14 2.34-2.69v-5.45c0-1.57-.72-2.69-2.34-2.69s-2.34 1.13-2.34 2.69v5.45c0 1.55.71 2.69 2.34 2.69zm-1.64-8.22c0-1.16.47-2 1.64-2s1.64.85 1.64 2v5.53c0 1.17-.47 2-1.64 2s-1.64-.85-1.64-2zm29.77-76.74c1.47 0 2.11-1 2.11-2.42V40c0-1.41-.64-2.42-2.11-2.42s-2.11 1-2.11 2.42v4.91c0 1.35.65 2.38 2.11 2.38zm-1.48-7.37c0-1 .42-1.81 1.48-1.81s1.48.77 1.48 1.81v5c0 1.05-.42 1.82-1.48 1.82s-1.48-.77-1.48-1.82zm-25.47 106.3h-.7v-9.47a2.27 2.27 0 0 1-1.66.9V137a2 2 0 0 0 1.81-1.49h.55zM376.77 31.08c.82 0 1.18-.58 1.18-1.36V27c0-.79-.36-1.36-1.18-1.36s-1.18.57-1.18 1.36v2.75c0 .75.36 1.33 1.18 1.33zm-.83-4.13c0-.58.24-1 .83-1s.83.43.83 1v2.79c0 .59-.24 1-.83 1s-.83-.43-.83-1zm-97.62 174.74c1.37 0 2-1 2-2.27v-4.6c0-1.32-.6-2.27-2-2.27s-2 .95-2 2.27v4.6c.02 1.31.62 2.27 2 2.27zm-1.39-6.91c0-1 .4-1.7 1.39-1.7s1.39.72 1.39 1.7v4.66c0 1-.4 1.71-1.39 1.71s-1.39-.72-1.39-1.71zM265.31 5h-.63V.06h.63zm-2.12 6.35v-.55a1.75 1.75 0 0 0 1.63-1.34h.49v9.6h-.63v-8.51a2 2 0 0 1-1.49.81zM236.6 118.06v-9.47a2.27 2.27 0 0 1-1.66.9v-.61a2 2 0 0 0 1.81-1.49h.55v10.67zM377.36 2.9H377V.06h.35zM236.12 104.09c1.63 0 2.34-1.14 2.34-2.69v-5.46c0-1.57-.72-2.69-2.34-2.69s-2.34 1.13-2.34 2.69v5.45c0 1.56.71 2.7 2.34 2.7zm-1.64-8.19c0-1.16.47-2 1.64-2s1.64.85 1.64 2v5.53c0 1.17-.47 2-1.64 2s-1.64-.85-1.64-2zm142.88-36.74H377v-4.77a1.14 1.14 0 0 1-.84.45v-.31a1 1 0 0 0 .91-.75h.28zM377 73.23v-4.78a1.14 1.14 0 0 1-.84.45v-.3a1 1 0 0 0 .91-.75h.28v5.38zM376.77 17c.82 0 1.18-.58 1.18-1.36v-2.73c0-.79-.36-1.36-1.18-1.36s-1.18.57-1.18 1.36v2.75c0 .78.36 1.34 1.18 1.34zm-.83-4.13c0-.58.24-1 .83-1s.83.43.83 1v2.79c0 .59-.24 1-.83 1s-.83-.43-.83-1zM53.56 211.94v-3.15a1.31 1.31 0 0 1-1 .52V209a1.13 1.13 0 0 0 1-.86H54v3.84zm224.76-66.5c1.37 0 2-1 2-2.27v-4.6c0-1.32-.6-2.27-2-2.27s-2 .95-2 2.27v4.6c.02 1.3.62 2.26 2 2.26zm-1.39-6.91c0-1 .4-1.7 1.39-1.7s1.39.72 1.39 1.7v4.66c0 1-.4 1.71-1.39 1.71s-1.39-.72-1.39-1.71zM264.25 33.22c1.47 0 2.11-1 2.11-2.42v-4.91c0-1.41-.64-2.42-2.11-2.42s-2.11 1-2.11 2.42v4.91c0 1.4.65 2.42 2.11 2.42zm-1.48-7.37c0-1 .42-1.81 1.48-1.81s1.48.77 1.48 1.81v5c0 1.05-.42 1.82-1.48 1.82s-1.48-.77-1.48-1.82zm1.48 91.76c1.47 0 2.11-1 2.11-2.42v-4.91c0-1.41-.64-2.42-2.11-2.42s-2.11 1-2.11 2.42v4.91c0 1.39.65 2.42 2.11 2.42zm-1.48-7.37c0-1 .42-1.81 1.48-1.81s1.48.77 1.48 1.81v5c0 1.05-.42 1.82-1.48 1.82s-1.48-.77-1.48-1.82zM237.3 5.54h-.7V.06h.7zm10.7 206.4v-3.35c0-1.49.68-2.57 2.23-2.57s2.23 1.07 2.23 2.57v3.35h-.67v-3.39c0-1.1-.45-1.91-1.57-1.91s-1.57.81-1.57 1.91v3.39zm30.77 0v-4.24a1.91 1.91 0 0 1-1.4.76v-.51a1.64 1.64 0 0 0 1.53-1.26h.46v5.26zm-28.08-80.07v-9a2.16 2.16 0 0 1-1.58.86v-.58a1.86 1.86 0 0 0 1.72-1.42h.52v10.16zm-.46-56.17c1.55 0 2.23-1.09 2.23-2.57v-5.19c0-1.49-.68-2.57-2.23-2.57S248 66.45 248 67.94v5.19c0 1.48.64 2.57 2.19 2.57zm-1.57-7.8c0-1.1.45-1.91 1.57-1.91s1.57.81 1.57 1.91v5.26c0 1.12-.45 1.93-1.57 1.93s-1.57-.81-1.57-1.93zm-82.22 96h.53v10.25h-.67V165a2.18 2.18 0 0 1-1.59.86v-.58a1.87 1.87 0 0 0 1.7-1.42zm84.9-130.44h-.67v-9a2.16 2.16 0 0 1-1.58.86v-.58a1.86 1.86 0 0 0 1.72-1.42h.52zm-.67 28.13v-9a2.16 2.16 0 0 1-1.58.86v-.58a1.86 1.86 0 0 0 1.72-1.42h.52v10.1zm.67 56.26h-.67v-9a2.16 2.16 0 0 1-1.58.86v-.58a1.86 1.86 0 0 0 1.72-1.42h.52zM234.94 11v-.61a2 2 0 0 0 1.81-1.49h.55v10.71h-.7v-9.47a2.27 2.27 0 0 1-1.66.86zm57.82 200.9v-4a1.8 1.8 0 0 1-1.32.71v-.48a1.55 1.55 0 0 0 1.44-1.19h.44v5zM251.31 47.48h-.67v-9a2.16 2.16 0 0 1-1.58.86v-.58a1.86 1.86 0 0 0 1.72-1.42h.52zm-42.79 164.46v-5.32a2.5 2.5 0 0 1-1.83 1v-.67a2.15 2.15 0 0 0 2-1.65h.61v6.65zm42.12-9.74v-9a2.16 2.16 0 0 1-1.58.86v-.58a1.86 1.86 0 0 0 1.72-1.42h.52v10.14zm.67-14.06h-.67v-9a2.16 2.16 0 0 1-1.58.86v-.58a1.86 1.86 0 0 0 1.72-1.42h.52zm-1.12-28c1.55 0 2.23-1.09 2.23-2.57v-5.19c0-1.49-.68-2.57-2.23-2.57s-2.23 1.07-2.23 2.57v5.19c.04 1.43.68 2.52 2.23 2.52zm-1.57-7.8c0-1.1.45-1.91 1.57-1.91s1.57.81 1.57 1.91v5.26c0 1.12-.45 1.93-1.57 1.93s-1.57-.81-1.57-1.93zm-84 41.13a1.87 1.87 0 0 0 1.74-1.43h.53v10.25h-.67v-9.1a2.18 2.18 0 0 1-1.59.86zm86.65-19.36h-.67v-9a2.16 2.16 0 0 1-1.58.86v-.58a1.86 1.86 0 0 0 1.72-1.42h.52zm-1.12-28c1.55 0 2.23-1.09 2.23-2.57v-5.19c0-1.49-.68-2.57-2.23-2.57s-2.23 1.07-2.23 2.57v5.19c.08 1.4.72 2.46 2.27 2.46zm-1.57-7.8c0-1.1.45-1.91 1.57-1.91s1.57.81 1.57 1.91v5.26c0 1.12-.45 1.93-1.57 1.93s-1.57-.81-1.57-1.93zm2.69-34.48h-.67v-9a2.16 2.16 0 0 1-1.58.86V95a1.86 1.86 0 0 0 1.72-1.42h.52zm-14.56 88h.55v10.67h-.7V193a2.27 2.27 0 0 1-1.66.9v-.61a2 2 0 0 0 1.85-1.51zm-.15 20.16V207a2.27 2.27 0 0 1-1.66.9v-.61a2 2 0 0 0 1.81-1.49h.55v6.09zm14.75-122.31h-.67v-9a2.16 2.16 0 0 1-1.58.86v-.58a1.86 1.86 0 0 0 1.72-1.42h.52zm-14-13.81h-.7V66.4a2.27 2.27 0 0 1-1.66.9v-.61a2 2 0 0 0 1.81-1.49h.55zm26.95 98c1.47 0 2.11-1 2.11-2.42v-4.91c0-1.41-.64-2.42-2.11-2.42s-2.11 1-2.11 2.42v4.91c-.01 1.39.64 2.42 2.1 2.42zm-1.48-7.37c0-1 .42-1.81 1.48-1.81s1.48.77 1.48 1.81v5c0 1.05-.42 1.82-1.48 1.82s-1.48-.77-1.48-1.82zM321 193.41h.38v7.42h-.49v-6.59a1.58 1.58 0 0 1-1.15.62v-.42a1.36 1.36 0 0 0 1.26-1.03zM110 179h.42v8.17h-.54v-7.25a1.73 1.73 0 0 1-1.27.69v-.47A1.49 1.49 0 0 0 110 179zm210.82 33v-3.63a1.58 1.58 0 0 1-1.15.62v-.42a1.36 1.36 0 0 0 1.26-1h.38v4.47zm-56.59-24c1.47 0 2.11-1 2.11-2.42v-4.98c0-1.41-.64-2.42-2.11-2.42s-2.11 1-2.11 2.42v4.91c.02 1.4.67 2.42 2.13 2.42zm-1.48-7.37c0-1 .42-1.81 1.48-1.81s1.48.77 1.48 1.81v5c0 1.05-.42 1.82-1.48 1.82s-1.48-.77-1.48-1.82zm-26.15-90.7v-9.47a2.27 2.27 0 0 1-1.66.9v-.61a2 2 0 0 0 1.81-1.49h.55v10.67zm28.08 69.79v-8.52a2 2 0 0 1-1.49.81v-.55a1.75 1.75 0 0 0 1.63-1.34h.49v9.6zm.63-14.06h-.63v-8.52a2 2 0 0 1-1.49.81v-.55a1.75 1.75 0 0 0 1.63-1.34h.49zm-29.19-111.9c1.63 0 2.34-1.14 2.34-2.69v-5.45c0-1.57-.72-2.69-2.34-2.69s-2.34 1.13-2.34 2.69v5.45c0 1.55.71 2.69 2.34 2.69zm-1.64-8.19c0-1.16.47-2 1.64-2s1.64.85 1.64 2v5.53c0 1.17-.47 2-1.64 2s-1.64-.85-1.64-2zm114.45 186.37v-3.22a1.35 1.35 0 0 1-1 .53v-.36A1.16 1.16 0 0 0 349 208h.33v3.93zm-83.61-80.34h-.63v-8.52a2 2 0 0 1-1.49.81v-.55a1.75 1.75 0 0 0 1.63-1.34h.49zM124 211.94v-4.12a1.84 1.84 0 0 1-1.35.73v-.49a1.58 1.58 0 0 0 1.47-1.21h.45v5.09zm42.27 0v-4.73a2.18 2.18 0 0 1-1.59.86v-.58a1.87 1.87 0 0 0 1.74-1.43h.53v5.88zM248 2.81V.06h.67v2.78c0 1.12.45 1.93 1.57 1.93s1.57-.81 1.57-1.93V.06h.67v2.75c0 1.48-.68 2.57-2.23 2.57S248 4.29 248 2.81zm44.93 176h.44v8.49h-.56v-7.53a1.8 1.8 0 0 1-1.32.71V180a1.55 1.55 0 0 0 1.39-1.19zM250.19 19.44c1.55 0 2.23-1.09 2.23-2.57v-5.18c0-1.49-.68-2.57-2.23-2.57S248 10.19 248 11.69v5.19c0 1.47.64 2.56 2.19 2.56zm-1.57-7.8c0-1.1.45-1.91 1.57-1.91s1.57.81 1.57 1.91v5.26c0 1.12-.45 1.93-1.57 1.93s-1.57-.81-1.57-1.93zm-68.27 200.3V207a2.29 2.29 0 0 1-1.67.91v-.61a2 2 0 0 0 1.83-1.5h.55v6.14zm111.1-17.88a1.55 1.55 0 0 0 1.44-1.19h.44v8.49h-.56v-7.53a1.8 1.8 0 0 1-1.32.71zm-27.2 7.94c1.47 0 2.11-1 2.11-2.42v-4.91c0-1.41-.64-2.42-2.11-2.42s-2.11 1-2.11 2.42v4.91c0 1.42.65 2.42 2.11 2.42zm-1.48-7.37c0-1 .42-1.81 1.48-1.81s1.48.77 1.48 1.81v5c0 1.05-.42 1.82-1.48 1.82s-1.48-.77-1.48-1.82zm-26.65-146.8c1.63 0 2.34-1.14 2.34-2.69v-5.45c0-1.57-.72-2.69-2.34-2.69s-2.34 1.13-2.34 2.69v5.45c0 1.55.71 2.69 2.34 2.69zm-1.64-8.19c0-1.16.47-2 1.64-2s1.64.85 1.64 2v5.53c0 1.17-.47 2-1.64 2s-1.64-.85-1.64-2zM108.64 194.17A1.49 1.49 0 0 0 110 193h.42v8.17h-.54V194a1.73 1.73 0 0 1-1.27.69zm153.5 17.76v-3.2c0-1.41.64-2.42 2.11-2.42s2.11 1 2.11 2.42v3.2h-.63v-3.24c0-1-.42-1.81-1.48-1.81s-1.48.77-1.48 1.81v3.24zm86.5-110c1 0 1.4-.68 1.4-1.6V97c0-.93-.43-1.6-1.4-1.6s-1.4.67-1.4 1.6v3.25c0 .97.43 1.65 1.4 1.65zm-1-4.88c0-.69.28-1.2 1-1.2s1 .51 1 1.2v3.29c0 .7-.28 1.21-1 1.21s-1-.51-1-1.21zm-26.31-36.87h-.49v-6.59a1.58 1.58 0 0 1-1.15.62v-.41a1.36 1.36 0 0 0 1.26-1h.38zm27.31-42.67c1 0 1.4-.68 1.4-1.6v-3.25c0-.93-.43-1.6-1.4-1.6s-1.4.67-1.4 1.6v3.24c0 .93.43 1.61 1.4 1.61zm-1-4.88c0-.69.28-1.2 1-1.2s1 .51 1 1.2v3.29c0 .7-.28 1.21-1 1.21s-1-.51-1-1.21zm-27.13 75.74c1.13 0 1.63-.79 1.63-1.87v-3.79c0-1.09-.5-1.87-1.63-1.87s-1.63.78-1.63 1.87v3.79c0 1.08.5 1.87 1.63 1.87zm-1.14-5.7c0-.8.33-1.4 1.14-1.4s1.14.59 1.14 1.4v3.84c0 .82-.33 1.41-1.14 1.41s-1.14-.59-1.14-1.41zm1.14 19.76c1.13 0 1.63-.79 1.63-1.87v-3.79c0-1.09-.5-1.87-1.63-1.87s-1.63.78-1.63 1.87v3.79c0 1.08.5 1.88 1.63 1.88zm-1.14-5.7c0-.8.33-1.4 1.14-1.4s1.14.59 1.14 1.4v3.84c0 .82-.33 1.41-1.14 1.41s-1.14-.59-1.14-1.41zm2 33.76h-.49v-6.59a1.58 1.58 0 0 1-1.15.62v-.42a1.36 1.36 0 0 0 1.26-1h.38zm-.49 14.06V138a1.58 1.58 0 0 1-1.15.62v-.42a1.36 1.36 0 0 0 1.26-1h.38v7.42zm0-112.52v-6.56a1.58 1.58 0 0 1-1.15.62v-.42a1.36 1.36 0 0 0 1.26-1h.38v7.42zm28.08 41.66v-5.62a1.35 1.35 0 0 1-1 .53v-.36a1.16 1.16 0 0 0 1.08-.89h.33v6.36zm.42-14.06h-.42V54a1.35 1.35 0 0 1-1 .53v-.36a1.16 1.16 0 0 0 1.08-.89h.33zm-28 56.79h-.49v-6.59a1.58 1.58 0 0 1-1.15.62v-.42a1.36 1.36 0 0 0 1.26-1h.38zm-.49-42.19v-6.57a1.58 1.58 0 0 1-1.15.62v-.42a1.36 1.36 0 0 0 1.26-1h.38v7.42zm-.33-28.07c1.13 0 1.63-.79 1.63-1.87v-3.78c0-1.09-.5-1.87-1.63-1.87s-1.63.78-1.63 1.87v3.79c-.05 1.09.45 1.88 1.58 1.88zm-1.14-5.7c0-.8.33-1.4 1.14-1.4s1.14.59 1.14 1.4v3.84c0 .82-.33 1.41-1.14 1.41s-1.14-.59-1.14-1.41zm29.27-8.91c1 0 1.4-.68 1.4-1.6v-3.23c0-.93-.43-1.6-1.4-1.6s-1.4.67-1.4 1.6V30c-.05.89.38 1.57 1.35 1.57zm-1-4.88c0-.69.28-1.2 1-1.2s1 .51 1 1.2V30c0 .7-.28 1.21-1 1.21s-1-.51-1-1.21zm-41.22 5.68c1.21 0 1.74-.85 1.74-2v-4.03c0-1.17-.53-2-1.74-2s-1.74.84-1.74 2v4.05c-.03 1.16.51 2 1.72 2zm-1.22-6.09c0-.86.35-1.49 1.22-1.49s1.22.63 1.22 1.49v4.11c0 .87-.35 1.51-1.22 1.51s-1.22-.63-1.22-1.51zm1.22 20.15c1.21 0 1.74-.85 1.74-2v-4.03c0-1.17-.53-2-1.74-2s-1.74.84-1.74 2v4.05c-.03 1.16.51 2.01 1.72 2.01zm-1.22-6.09c0-.86.35-1.49 1.22-1.49s1.22.63 1.22 1.49v4.11c0 .87-.35 1.51-1.22 1.51s-1.22-.63-1.22-1.51zm42-38.51V.06h.42v1.8c0 .7.28 1.21 1 1.21s1-.51 1-1.21V.06h.33v1.78c0 .92-.43 1.6-1.4 1.6s-1.36-.68-1.36-1.6zM363 171.91v-5.19a1.24 1.24 0 0 1-.91.49v-.33a1.07 1.07 0 0 0 1-.82h.3v5.85zM306.45 60.5c1.21 0 1.74-.85 1.74-2v-4.05c0-1.17-.53-2-1.74-2s-1.74.84-1.74 2v4.05c-.01 1.16.53 2 1.74 2zm-1.22-6.09c0-.86.35-1.49 1.22-1.49s1.22.63 1.22 1.49v4.11c0 .87-.35 1.51-1.22 1.51s-1.22-.63-1.22-1.51zm1.22-36.11c1.21 0 1.74-.85 1.74-2v-4.05c0-1.17-.53-2-1.74-2s-1.74.84-1.74 2v4.05c-.01 1.16.53 2.01 1.74 2.01zm-1.22-6.09c0-.86.35-1.49 1.22-1.49s1.22.63 1.22 1.49v4.11c0 .87-.35 1.51-1.22 1.51s-1.22-.63-1.22-1.51zM362.71 186c.89 0 1.28-.63 1.28-1.48v-3c0-.86-.39-1.48-1.28-1.48s-1.28.62-1.28 1.48v3c-.01.88.38 1.48 1.28 1.48zm-.9-4.49c0-.63.26-1.1.9-1.1s.9.47.9 1.1v3c0 .64-.26 1.11-.9 1.11s-.9-.47-.9-1.11zm-41-8.84v-6.59a1.58 1.58 0 0 1-1.15.62v-.42a1.36 1.36 0 0 0 1.26-1h.38v7.42zM304.7 2.24V.06h.52v2.2c0 .87.35 1.51 1.22 1.51s1.22-.63 1.22-1.51V.06h.52v2.18c0 1.15-.53 2-1.74 2s-1.74-.84-1.74-2zm15.81 156.46c1.13 0 1.63-.79 1.63-1.87V153c0-1.09-.5-1.87-1.63-1.87s-1.63.78-1.63 1.87v3.79c0 1.11.5 1.91 1.63 1.91zm-1.14-5.7c0-.8.33-1.4 1.14-1.4s1.14.59 1.14 1.4v3.84c0 .82-.33 1.41-1.14 1.41s-1.14-.59-1.14-1.41zm1.14 33.83c1.13 0 1.63-.79 1.63-1.87v-3.79c0-1.09-.5-1.87-1.63-1.87s-1.63.78-1.63 1.87V185c0 1 .5 1.83 1.63 1.83zm-1.14-5.7c0-.8.33-1.4 1.14-1.4s1.14.59 1.14 1.4V185c0 .82-.33 1.41-1.14 1.41s-1.14-.59-1.14-1.41zm43.34 19c.89 0 1.28-.63 1.28-1.48v-3c0-.86-.39-1.48-1.28-1.48s-1.28.62-1.28 1.48v3c-.01.82.38 1.44 1.28 1.44zm-.9-4.49c0-.63.26-1.1.9-1.1s.9.47.9 1.1v3c0 .64-.26 1.11-.9 1.11s-.9-.47-.9-1.11zm1.55-37.76H363v-5.19a1.24 1.24 0 0 1-.91.49v-.33a1.07 1.07 0 0 0 1-.82h.3zM334.58 60c1.06 0 1.52-.74 1.52-1.75v-3.54c0-1-.46-1.75-1.52-1.75s-1.52.73-1.52 1.75v3.53c0 1.01.46 1.76 1.52 1.76zm-1.06-5.31c0-.75.31-1.3 1.06-1.3s1.07.55 1.07 1.3v3.58c0 .76-.31 1.31-1.07 1.31s-1.06-.55-1.06-1.31zM348.64 130c1 0 1.4-.68 1.4-1.6v-3.25c0-.93-.43-1.6-1.4-1.6s-1.4.67-1.4 1.6v3.25c0 .95.43 1.6 1.4 1.6zm-1-4.88c0-.69.28-1.2 1-1.2s1 .51 1 1.2v3.29c0 .7-.28 1.21-1 1.21s-1-.51-1-1.21zm-13.09-51.1c1.06 0 1.52-.74 1.52-1.75v-3.5c0-1-.46-1.75-1.52-1.75s-1.52.73-1.52 1.75v3.53c.03 1.01.49 1.75 1.55 1.75zm-1.06-5.31c0-.75.31-1.3 1.06-1.3s1.07.55 1.07 1.3v3.58c0 .76-.31 1.31-1.07 1.31s-1.06-.55-1.06-1.31zm1.83 33.38h-.45V96a1.47 1.47 0 0 1-1.07.58v-.39a1.26 1.26 0 0 0 1.17-1h.35zm-.45 14.06v-6.13a1.47 1.47 0 0 1-1.07.58v-.39a1.26 1.26 0 0 0 1.17-1h.35v6.91zm-1.07-75.88v-.39a1.26 1.26 0 0 0 1.17-1h.35v6.91h-.45v-6.06a1.47 1.47 0 0 1-1.06.58zm14.83 131.91c1 0 1.4-.68 1.4-1.6v-3.25c0-.93-.43-1.6-1.4-1.6s-1.4.67-1.4 1.6v3.25c.01.96.44 1.64 1.41 1.64zm-1-4.88c0-.69.28-1.2 1-1.2s1 .51 1 1.2v3.29c0 .7-.28 1.21-1 1.21s-1-.51-1-1.21zm-12.29-79.24h-.45v-6.14a1.47 1.47 0 0 1-1.07.58v-.39a1.26 1.26 0 0 0 1.17-1h.35zm0-84.39h-.45V.06h.45zm13.3 140.42c1 0 1.4-.68 1.4-1.6v-3.25c0-.93-.43-1.6-1.4-1.6s-1.4.67-1.4 1.6v3.25c0 .92.43 1.6 1.4 1.6zm-1-4.88c0-.69.28-1.2 1-1.2s1 .51 1 1.2v3.29c0 .7-.28 1.21-1 1.21s-1-.51-1-1.21zm-13.85-113v-.39a1.26 1.26 0 0 0 1.17-1h.35v6.98h-.45v-6.14a1.47 1.47 0 0 1-1.05.58zm0-14.06v-.39a1.26 1.26 0 0 0 1.17-1h.35v6.91h-.45V11.6a1.47 1.47 0 0 1-1.05.58zm1.53 146.2h-.45v-6.13a1.47 1.47 0 0 1-1.07.58v-.39a1.26 1.26 0 0 0 1.17-1h.35zm-14-154.46h-.49V.06h.49zm27.31 154.23c1 0 1.4-.68 1.4-1.6v-3.22c0-.93-.43-1.6-1.4-1.6s-1.4.67-1.4 1.6v3.25c.01.93.44 1.61 1.41 1.61zm-1-4.88c0-.69.28-1.2 1-1.2s1 .51 1 1.2v3.29c0 .7-.28 1.21-1 1.21s-1-.51-1-1.21zm-13.09 47.35c1.06 0 1.52-.74 1.52-1.75v-3.53c0-1-.46-1.75-1.52-1.75s-1.52.73-1.52 1.75v3.53c.04 1.05.5 1.79 1.56 1.79zm-1.06-5.31c0-.75.31-1.3 1.06-1.3s1.07.55 1.07 1.3v3.58c0 .76-.31 1.31-1.07 1.31s-1.06-.55-1.06-1.31zM348.64 116c1 0 1.4-.68 1.4-1.6v-3.25c0-.93-.43-1.6-1.4-1.6s-1.4.67-1.4 1.6v3.25c0 .88.43 1.6 1.4 1.6zm-1-4.88c0-.69.28-1.2 1-1.2s1 .51 1 1.2v3.29c0 .7-.28 1.21-1 1.21s-1-.51-1-1.21zm-27.15-93c1.13 0 1.63-.79 1.63-1.87v-3.86c0-1.09-.5-1.87-1.63-1.87s-1.63.78-1.63 1.87v3.79c.02 1.08.52 1.87 1.65 1.87zm-1.14-5.7c0-.8.33-1.4 1.14-1.4s1.14.59 1.14 1.4v3.78c0 .82-.33 1.41-1.14 1.41s-1.14-.59-1.14-1.41zm29.27 75.48c1 0 1.4-.68 1.4-1.6V83c0-.93-.43-1.6-1.4-1.6s-1.4.67-1.4 1.6v3.25c.02.9.45 1.58 1.42 1.58zm-1-4.88c0-.69.28-1.2 1-1.2s1 .51 1 1.2v3.29c0 .7-.28 1.21-1 1.21s-1-.51-1-1.21zm-14.6 129v-2.52c0-1 .46-1.75 1.52-1.75s1.52.73 1.52 1.75v2.52h-.45v-2.55c0-.75-.31-1.3-1.07-1.3s-1.06.55-1.06 1.3v2.55zm1.83-25.43v-6.13a1.47 1.47 0 0 1-1.07.58v-.39a1.26 1.26 0 0 0 1.17-1h.35v6.91zm-.31-56.2c1.06 0 1.52-.74 1.52-1.75V125c0-1-.46-1.75-1.52-1.75s-1.52.73-1.52 1.75v3.53c.04 1.04.5 1.78 1.56 1.78zm-1.03-5.39c0-.75.31-1.3 1.06-1.3s1.07.55 1.07 1.3v3.58c0 .76-.31 1.31-1.07 1.31s-1.06-.55-1.06-1.31zm1.83 47.44h-.45v-6.13a1.47 1.47 0 0 1-1.07.58v-.39a1.26 1.26 0 0 0 1.17-1h.35zm0-28.13h-.45v-6.13a1.47 1.47 0 0 1-1.07.58v-.39a1.26 1.26 0 0 0 1.17-1h.35zm14-98.73h-.42v-5.64a1.35 1.35 0 0 1-1 .53v-.36a1.16 1.16 0 0 0 1.08-.89h.33zm-42.9 155.57c1.21 0 1.74-.85 1.74-2v-4.05c0-1.17-.53-2-1.74-2s-1.74.84-1.74 2v4.05c0 1.15.54 2 1.75 2zm-1.22-6.09c0-.86.35-1.49 1.22-1.49s1.22.63 1.22 1.49v4.11c0 .87-.35 1.51-1.22 1.51s-1.22-.63-1.22-1.51zm-12.46-35.9v-7.53a1.8 1.8 0 0 1-1.32.71v-.48a1.55 1.55 0 0 0 1.44-1.19h.44v8.49zm-.38-42.16c1.3 0 1.87-.91 1.87-2.14v-4.34c0-1.25-.57-2.14-1.87-2.14s-1.86.9-1.86 2.14v4.34c0 1.28.57 2.14 1.86 2.14zm-1.31-6.52c0-.92.38-1.6 1.31-1.6s1.31.68 1.31 1.6v4.4c0 .93-.38 1.61-1.31 1.61s-1.31-.68-1.31-1.61zm2.25-35.75h-.56v-7.48a1.8 1.8 0 0 1-1.32.71v-.48a1.55 1.55 0 0 0 1.44-1.19h.44zm0 70.32h-.56v-7.53a1.8 1.8 0 0 1-1.32.71v-.48a1.55 1.55 0 0 0 1.44-1.19h.44zm0-14.06h-.56v-7.49a1.8 1.8 0 0 1-1.32.71v-.48a1.55 1.55 0 0 0 1.44-1.19h.44zm84-29.68H377v-4.73a1.14 1.14 0 0 1-.84.45v-.31a1 1 0 0 0 .91-.75h.28zm-.6 70.37c.82 0 1.18-.58 1.18-1.36v-2.75c0-.79-.36-1.36-1.18-1.36s-1.18.57-1.18 1.36v2.75c.05.83.41 1.41 1.23 1.41zm-.83-4.13c0-.58.24-1 .83-1s.83.43.83 1v2.79c0 .59-.24 1-.83 1s-.83-.43-.83-1zM361.42 1.71V.06h.38v1.67c0 .64.26 1.11.9 1.11s.9-.47.9-1.11V.06h.4v1.65c0 .85-.39 1.48-1.28 1.48s-1.3-.63-1.3-1.48zm-68.1 59h-.56v-7.53a1.8 1.8 0 0 1-1.32.71v-.48a1.55 1.55 0 0 0 1.44-1.19h.44zm-.94 42.29c1.3 0 1.87-.91 1.87-2.14V96.5c0-1.25-.57-2.14-1.87-2.14s-1.86.9-1.86 2.14v4.34c0 1.23.57 2.16 1.86 2.16zm-1.31-6.52c0-.92.38-1.6 1.31-1.6s1.31.68 1.31 1.6v4.4c0 .93-.38 1.61-1.31 1.61s-1.31-.68-1.31-1.61zm2.25-49.82h-.56v-7.54a1.8 1.8 0 0 1-1.32.71v-.48a1.55 1.55 0 0 0 1.44-1.19h.44zm-.94 126.65c1.3 0 1.87-.91 1.87-2.14v-4.34c0-1.25-.57-2.14-1.87-2.14s-1.86.9-1.86 2.14v4.34c0 1.23.57 2.13 1.86 2.13zm-1.31-6.52c0-.92.38-1.6 1.31-1.6s1.31.68 1.31 1.6v4.4c0 .93-.38 1.61-1.31 1.61s-1.31-.68-1.31-1.61zm85.7-9.13c.82 0 1.18-.58 1.18-1.36v-2.75c0-.79-.36-1.36-1.18-1.36s-1.18.57-1.18 1.36v2.75c0 .79.36 1.36 1.18 1.36zm-.83-4.13c0-.58.24-1 .83-1s.83.43.83 1v2.79c0 .59-.24 1-.83 1s-.83-.43-.83-1zm.83-66.19c.82 0 1.18-.58 1.18-1.36v-2.75c0-.79-.36-1.36-1.18-1.36s-1.18.57-1.18 1.36V86c0 .76.36 1.34 1.18 1.34zm-.83-4.13c0-.58.24-1 .83-1s.83.43.83 1V86c0 .59-.24 1-.83 1s-.83-.43-.83-1zm-69.49-8.64c1.21 0 1.74-.85 1.74-2v-4.06c0-1.17-.53-2-1.74-2s-1.74.84-1.74 2v4.05c-.01 1.16.53 2.01 1.74 2.01zm-1.22-6.09c0-.86.35-1.49 1.22-1.49s1.22.63 1.22 1.49v4.11c0 .87-.35 1.51-1.22 1.51s-1.22-.63-1.22-1.51zM278.32 61c1.37 0 2-1 2-2.27v-4.6c0-1.32-.6-2.27-2-2.27s-2 .95-2 2.27v4.6c.02 1.35.62 2.27 2 2.27zm-1.39-6.91c0-1 .4-1.7 1.39-1.7s1.39.72 1.39 1.7v4.71c0 1-.4 1.71-1.39 1.71s-1.39-.72-1.39-1.71zm-.59-51.62V.06h.59v2.48c0 1 .4 1.71 1.39 1.71s1.39-.72 1.39-1.71V.06h.59v2.45c0 1.31-.6 2.27-2 2.27s-1.96-.96-1.96-2.27zM377 143.55v-4.78a1.14 1.14 0 0 1-.84.45v-.31a1 1 0 0 0 .91-.75h.28v5.38zm-98.29-26.32v-8a1.91 1.91 0 0 1-1.4.76v-.51a1.64 1.64 0 0 0 1.53-1.26h.46v9zm-.4-28.05c1.37 0 2-1 2-2.27v-4.6c0-1.32-.6-2.27-2-2.27s-2 .95-2 2.27v4.6c.03 1.3.63 2.27 2.01 2.27zm-1.39-6.91c0-1 .4-1.7 1.39-1.7s1.39.72 1.39 1.7v4.66c0 1-.4 1.71-1.39 1.71s-1.39-.72-1.39-1.71zm100.43 33.15H377v-4.78a1.14 1.14 0 0 1-.84.45v-.31a1 1 0 0 0 .91-.75h.28zM278.72 46.9v-8a1.91 1.91 0 0 1-1.4.76v-.51a1.64 1.64 0 0 0 1.53-1.26h.46v9zm.59-28.13h-.59v-8a1.91 1.91 0 0 1-1.4.76V11a1.64 1.64 0 0 0 1.53-1.26h.46zm98.05 110.71H377v-4.78a1.14 1.14 0 0 1-.84.45v-.31a1 1 0 0 0 .91-.75h.28zm-98.05-96.64h-.59v-8a1.91 1.91 0 0 1-1.4.76v-.5a1.64 1.64 0 0 0 1.53-1.26h.46zM278.72 75v-8a1.91 1.91 0 0 1-1.4.76v-.51a1.64 1.64 0 0 0 1.53-1.25h.46v9zm84 40.67c.89 0 1.28-.63 1.28-1.48v-3c0-.86-.39-1.48-1.28-1.48s-1.28.62-1.28 1.48v3c-.02.89.37 1.51 1.27 1.51zm-.9-4.49c0-.63.26-1.1.9-1.1s.9.47.9 1.1v3c0 .64-.26 1.11-.9 1.11s-.9-.47-.9-1.11zm-55.36 33.68c1.21 0 1.74-.85 1.74-2v-4.05c0-1.17-.53-2-1.74-2s-1.74.84-1.74 2v4.05c-.02 1.14.52 2.03 1.73 2.03zm-1.22-6.09c0-.86.35-1.49 1.22-1.49s1.22.63 1.22 1.49v4.11c0 .87-.35 1.51-1.22 1.51s-1.22-.63-1.22-1.51zm1.21 20.23c1.21 0 1.74-.85 1.74-2v-4.1c0-1.17-.53-2-1.74-2s-1.74.84-1.74 2v4.1c-.01 1.11.53 2 1.74 2zm-1.22-6.09c0-.86.35-1.49 1.22-1.49s1.22.63 1.22 1.49V157c0 .87-.35 1.51-1.22 1.51s-1.22-.63-1.22-1.51zM363 31.26v-5.18a1.24 1.24 0 0 1-.91.49v-.33a1.07 1.07 0 0 0 1-.82h.3v5.85zm.38 42.19H363v-5.18a1.24 1.24 0 0 1-.91.49v-.33a1.07 1.07 0 0 0 1-.82h.3zm0 14.06H363v-5.17a1.24 1.24 0 0 1-.91.49v-.33a1.07 1.07 0 0 0 1-.82h.3zM306.45 173c1.21 0 1.74-.85 1.74-2v-4c0-1.17-.53-2-1.74-2s-1.74.84-1.74 2v4c-.01 1.17.53 2 1.74 2zm-1.22-6.09c0-.86.35-1.49 1.22-1.49s1.22.63 1.22 1.49V171c0 .87-.35 1.51-1.22 1.51s-1.22-.63-1.22-1.51zm1.22-36.11c1.21 0 1.74-.85 1.74-2v-4.05c0-1.17-.53-2-1.74-2s-1.74.84-1.74 2v4.05c-.01 1.2.53 2.03 1.74 2.03zm-1.22-6.09c0-.86.35-1.49 1.22-1.49s1.22.63 1.22 1.49v4.11c0 .87-.35 1.51-1.22 1.51s-1.22-.63-1.22-1.51zm2.1-22.11h-.52v-7a1.68 1.68 0 0 1-1.23.67v-.45a1.45 1.45 0 0 0 1.35-1.11h.41zm-.52 14.06v-7a1.68 1.68 0 0 1-1.23.67v-.45a1.45 1.45 0 0 0 1.35-1.11h.41v7.93zm.52-28.13h-.52v-7a1.68 1.68 0 0 1-1.23.67v-.45a1.45 1.45 0 0 0 1.35-1.11h.41zm55.38 55.27c.89 0 1.28-.63 1.28-1.48v-3c0-.86-.39-1.48-1.28-1.48s-1.28.62-1.28 1.48v3c-.01.89.38 1.51 1.28 1.51zm-.9-4.49c0-.63.26-1.1.9-1.1s.9.47.9 1.1v3c0 .64-.26 1.11-.9 1.11s-.9-.47-.9-1.11zm1.16-9.63v-5.19a1.24 1.24 0 0 1-.91.49v-.33a1.07 1.07 0 0 0 1-.82h.3v5.85zm-70.59-97.02c1.3 0 1.87-.91 1.87-2.14v-4.34c0-1.25-.57-2.14-1.87-2.14s-1.86.9-1.86 2.14v4.34c0 1.23.57 2.14 1.86 2.14zm-1.31-6.52c0-.92.38-1.6 1.31-1.6s1.31.68 1.31 1.6v4.4c0 .93-.38 1.61-1.31 1.61s-1.31-.68-1.31-1.61zm71.63 19.24c.89 0 1.28-.63 1.28-1.48v-3c0-.86-.39-1.48-1.28-1.48s-1.28.62-1.28 1.48v3c0 .85.39 1.48 1.29 1.48zm-.9-4.49c0-.63.26-1.1.9-1.1s.9.47.9 1.1v3c0 .64-.26 1.11-.9 1.11s-.9-.47-.9-1.11zm1.55-23.69H363V12a1.24 1.24 0 0 1-.91.49v-.33a1.07 1.07 0 0 0 1-.82h.3zm-70.59 71.64v-7.53a1.8 1.8 0 0 1-1.32.71v-.48a1.55 1.55 0 0 0 1.44-1.19h.44v8.49zm-1.32-77.14v-.48a1.55 1.55 0 0 0 1.44-1.22h.44v8.49h-.56V11a1.8 1.8 0 0 1-1.32.7zM363 101.59V96.4a1.24 1.24 0 0 1-.91.49v-.33a1.07 1.07 0 0 0 1-.82h.3v5.85zM293.32 4.46h-.56V.06h.56zm69.38 55c.89 0 1.28-.63 1.28-1.48V55c0-.86-.39-1.48-1.28-1.48s-1.28.62-1.28 1.48v3c0 .82.39 1.44 1.29 1.44zm-.9-4.46c0-.63.26-1.1.9-1.1s.9.47.9 1.1v3c0 .64-.26 1.11-.9 1.11s-.9-.47-.9-1.11zm-55.35 132.09c1.21 0 1.74-.85 1.74-2V181c0-1.17-.53-2-1.74-2s-1.74.84-1.74 2v4.05c-.01 1.19.53 2.04 1.74 2.04zm-1.23-6.09c0-.86.35-1.49 1.22-1.49s1.22.63 1.22 1.49v4.11c0 .87-.35 1.51-1.22 1.51s-1.22-.63-1.22-1.51zm-25.91-77.83h-.59v-8a1.91 1.91 0 0 1-1.4.76v-.51a1.64 1.64 0 0 0 1.53-1.26h.46zm25.39 108.77v-2.78c0-1.17.53-2 1.74-2s1.74.84 1.74 2v2.78h-.52v-2.81c0-.86-.35-1.49-1.22-1.49s-1.22.63-1.22 1.49v2.81zM53.28 45.54c.94 0 1.36-.66 1.36-1.56v-3.15c0-.91-.41-1.56-1.36-1.56s-1.36.65-1.36 1.56V44c.01.88.42 1.54 1.36 1.54zm-1-4.74c0-.67.27-1.16 1-1.16s1 .49 1 1.16V44c0 .68-.27 1.17-1 1.17s-1-.49-1-1.17zm15 33.1c1 0 1.46-.71 1.46-1.68v-3.37c0-1-.44-1.67-1.46-1.67s-1.46.7-1.46 1.67v3.39c.07.96.51 1.67 1.53 1.67zm-1-5.09c0-.72.29-1.25 1-1.25s1 .53 1 1.25v3.44c0 .73-.29 1.26-1 1.26s-1-.53-1-1.26zM67.64 116v-5.89a1.41 1.41 0 0 1-1 .56v-.38a1.21 1.21 0 0 0 1.13-.93h.34V116zm.44-14h-.44v-5.91a1.41 1.41 0 0 1-1 .56v-.38a1.21 1.21 0 0 0 1.13-.93h.34zm-.73-42.14c1 0 1.46-.71 1.46-1.68v-3.4c0-1-.44-1.67-1.46-1.67s-1.46.7-1.46 1.67v3.39c0 .96.44 1.67 1.46 1.67zm-1-5.09c0-.72.29-1.25 1-1.25s1 .53 1 1.25v3.44c0 .73-.29 1.26-1 1.26s-1-.53-1-1.26zm1.76 33.16h-.44V82a1.41 1.41 0 0 1-1 .56v-.38a1.21 1.21 0 0 0 1.13-.93h.34zm-.44 56.26v-5.89a1.41 1.41 0 0 1-1 .56v-.38a1.21 1.21 0 0 0 1.13-.93h.34v6.63zm-.3-14c1 0 1.46-.71 1.46-1.68v-3.41c0-1-.44-1.67-1.46-1.67s-1.46.7-1.46 1.67v3.39c-.02.97.42 1.68 1.44 1.68zm-1-5.09c0-.72.29-1.25 1-1.25s1 .53 1 1.25v3.44c0 .73-.29 1.26-1 1.26s-1-.53-1-1.26zm15.88 5.31h-.47V124a1.53 1.53 0 0 1-1.12.61v-.41a1.31 1.31 0 0 0 1.22-1h.37zm0-14.06h-.47v-6.38a1.53 1.53 0 0 1-1.12.61v-.41a1.31 1.31 0 0 0 1.22-1h.37zM67.64 45.72v-5.88a1.41 1.41 0 0 1-1 .56V40a1.21 1.21 0 0 0 1.13-.93h.34v6.63zm13.77 126.92c1.1 0 1.58-.77 1.58-1.82v-3.67c0-1.06-.48-1.82-1.58-1.82s-1.58.76-1.58 1.82v3.67c0 1.06.48 1.82 1.58 1.82zm-1.11-5.52c0-.78.32-1.35 1.11-1.35s1.11.57 1.11 1.35v3.72c0 .79-.32 1.36-1.11 1.36s-1.11-.57-1.11-1.36zm-13-8.83c1 0 1.46-.71 1.46-1.68v-3.39c0-1-.44-1.67-1.46-1.67s-1.46.7-1.46 1.67v3.39c.05.98.49 1.69 1.51 1.69zm-1-5.09c0-.72.29-1.25 1-1.25s1 .53 1 1.25v3.44c0 .73-.29 1.26-1 1.26s-1-.53-1-1.26zm15.09 33.5c1.1 0 1.58-.77 1.58-1.82v-3.67c0-1.06-.48-1.82-1.58-1.82s-1.58.76-1.58 1.82v3.67c.02 1.06.5 1.83 1.6 1.83zm-1.11-5.52c0-.78.32-1.35 1.11-1.35s1.11.57 1.11 1.35v3.72c0 .79-.32 1.36-1.11 1.36s-1.11-.57-1.11-1.36zm-27-79.39c.94 0 1.36-.66 1.36-1.56v-3.14c0-.91-.41-1.56-1.36-1.56s-1.36.65-1.36 1.56v3.15c.01.9.42 1.56 1.36 1.56zm-1-4.74c0-.67.27-1.16 1-1.16s1 .49 1 1.16v3.2c0 .68-.27 1.17-1 1.17s-1-.49-1-1.17zM54 73.62h-.4v-5.47a1.31 1.31 0 0 1-1 .52v-.35a1.13 1.13 0 0 0 1-.86h.4zm0-14.06h-.4v-5.48a1.31 1.31 0 0 1-1 .52v-.35a1.13 1.13 0 0 0 1-.86h.4zm182.12 114.85c1.63 0 2.34-1.14 2.34-2.69v-5.45c0-1.57-.72-2.69-2.34-2.69s-2.34 1.13-2.34 2.69v5.45c0 1.55.71 2.69 2.34 2.69zm-1.64-8.19c0-1.16.47-2 1.64-2s1.64.85 1.64 2v5.53c0 1.17-.47 2-1.64 2s-1.64-.85-1.64-2zM82.21 144.45h-.47v-6.38a1.53 1.53 0 0 1-1.12.61v-.41a1.31 1.31 0 0 0 1.22-1h.37zm-28.93-14.52c.94 0 1.36-.66 1.36-1.56v-3.15c0-.91-.41-1.56-1.36-1.56s-1.36.65-1.36 1.56v3.15c.01.9.42 1.56 1.36 1.56zm-1-4.74c0-.67.27-1.16 1-1.16s1 .49 1 1.16v3.2c0 .68-.27 1.17-1 1.17s-1-.49-1-1.17zm1 32.87c.94 0 1.36-.66 1.36-1.56v-3.15c0-.91-.41-1.56-1.36-1.56s-1.36.65-1.36 1.56v3.15c.01.9.42 1.56 1.36 1.56zm-1-4.74c0-.67.27-1.16 1-1.16s1 .49 1 1.16v3.2c0 .68-.27 1.17-1 1.17s-1-.49-1-1.17zm1 18.8c.94 0 1.36-.66 1.36-1.56v-3.15c0-.91-.41-1.56-1.36-1.56s-1.36.65-1.36 1.56v3.15c.01.91.42 1.57 1.36 1.57zm-1-4.74c0-.67.27-1.16 1-1.16s1 .49 1 1.16v3.2c0 .68-.27 1.17-1 1.17s-1-.49-1-1.17zm1-23.39c.94 0 1.36-.66 1.36-1.56v-3.15c0-.91-.41-1.56-1.36-1.56s-1.36.65-1.36 1.56v3.15c.01.91.42 1.57 1.36 1.57zm-1-4.74c0-.67.27-1.16 1-1.16s1 .49 1 1.16v3.2c0 .68-.27 1.17-1 1.17s-1-.49-1-1.17zm1.23-51.58v-5.46a1.31 1.31 0 0 1-1 .52v-.35a1.13 1.13 0 0 0 1-.86H54v6.17zm12.38 124.27v-2.45c0-1 .44-1.67 1.46-1.67s1.46.7 1.46 1.67v2.45h-.44v-2.47c0-.72-.29-1.25-1-1.25s-1 .53-1 1.25v2.47zm2.19-39.63h-.44v-5.89a1.41 1.41 0 0 1-1 .56v-.38a1.21 1.21 0 0 0 1.13-.93h.34zm-.73 28.19c1 0 1.46-.71 1.46-1.68v-3.39c0-1-.44-1.67-1.46-1.67s-1.46.7-1.46 1.67v3.39c0 .96.44 1.67 1.46 1.67zm-1-5.09c0-.72.29-1.25 1-1.25s1 .53 1 1.25v3.44c0 .73-.29 1.26-1 1.26s-1-.53-1-1.26zm1.32-9v-5.89a1.41 1.41 0 0 1-1 .56v-.38a1.21 1.21 0 0 0 1.13-.93h.34v6.63zM95.82 46.23v-6.79a1.63 1.63 0 0 1-1.19.64v-.44a1.4 1.4 0 0 0 1.3-1.07h.39v7.66zm-.34 70.39c1.17 0 1.68-.82 1.68-1.93v-3.91c0-1.12-.51-1.93-1.68-1.93s-1.68.81-1.68 1.93v3.91c-.01 1.11.51 1.93 1.68 1.93zm-1.18-5.88c0-.83.34-1.44 1.18-1.44s1.18.61 1.18 1.44v4c0 .84-.34 1.45-1.18 1.45s-1.18-.61-1.18-1.45zm2-78.58h-.5v-6.78a1.63 1.63 0 0 1-1.19.64v-.44a1.4 1.4 0 0 0 1.3-1.07h.39zm-.85 28.19c1.17 0 1.68-.82 1.68-1.93v-3.9c0-1.12-.51-1.93-1.68-1.93s-1.68.81-1.68 1.93v3.91c.02 1.11.54 1.93 1.71 1.93zm-1.15-5.86c0-.83.34-1.44 1.18-1.44s1.18.61 1.18 1.44v4c0 .84-.34 1.45-1.18 1.45s-1.18-.61-1.18-1.45zm1.18 48.07c1.17 0 1.68-.82 1.68-1.93v-3.92c0-1.12-.51-1.93-1.68-1.93s-1.68.81-1.68 1.93v3.91c-.01 1.12.51 1.94 1.68 1.94zm-1.18-5.88c0-.83.34-1.44 1.18-1.44s1.18.61 1.18 1.44v4c0 .84-.34 1.45-1.18 1.45s-1.18-.61-1.18-1.45zm1.18-8.19c1.17 0 1.68-.82 1.68-1.93v-3.91c0-1.12-.51-1.93-1.68-1.93s-1.68.81-1.68 1.93v3.91c-.01 1.11.51 1.93 1.68 1.93zm-1.18-5.87c0-.83.34-1.44 1.18-1.44s1.18.61 1.18 1.44v4c0 .84-.34 1.45-1.18 1.45s-1.18-.61-1.18-1.45zm1.18-8.19c1.17 0 1.68-.82 1.68-1.93v-3.92c0-1.12-.51-1.93-1.68-1.93s-1.68.81-1.68 1.93v3.91c-.01 1.12.51 1.94 1.68 1.94zm-1.18-5.88c0-.83.34-1.44 1.18-1.44s1.18.61 1.18 1.44v4c0 .84-.34 1.45-1.18 1.45s-1.18-.61-1.18-1.45zm2-50.45h-.5v-6.79a1.63 1.63 0 0 1-1.19.64v-.44a1.4 1.4 0 0 0 1.3-1.07h.39zm13.22 98.78c1.25 0 1.79-.87 1.79-2.06v-4.17c0-1.2-.55-2.06-1.79-2.06s-1.79.86-1.79 2.06v4.17c.02 1.18.56 2.06 1.81 2.06zm-1.26-6.27c0-.89.36-1.54 1.26-1.54s1.26.65 1.26 1.54v4.23c0 .9-.36 1.55-1.26 1.55s-1.26-.65-1.26-1.55zm1.62 34.33v-7.25a1.73 1.73 0 0 1-1.27.69v-.47a1.49 1.49 0 0 0 1.39-1.14h.42v8.17zm-28.15 13.58v-6.38a1.53 1.53 0 0 1-1.12.61v-.41a1.31 1.31 0 0 0 1.22-1h.37v7.19zm28.17-55.77V95.5a1.73 1.73 0 0 1-1.27.69v-.47a1.49 1.49 0 0 0 1.37-1.14h.42v8.17zm-.37 70.39c1.25 0 1.79-.87 1.79-2.06v-4.17c0-1.2-.55-2.06-1.79-2.06s-1.79.86-1.79 2.06v4.17c.01 1.19.55 2.06 1.8 2.06zm-1.26-6.27c0-.89.36-1.54 1.26-1.54s1.26.65 1.26 1.54v4.23c0 .9-.36 1.55-1.26 1.55s-1.26-.65-1.26-1.55zm1.26-7.8c1.25 0 1.79-.87 1.79-2.06v-4.17c0-1.2-.55-2.06-1.79-2.06s-1.79.86-1.79 2.06V157c.01 1.2.55 2.07 1.8 2.07zm-1.26-6.27c0-.89.36-1.54 1.26-1.54s1.26.65 1.26 1.54v4.2c0 .9-.36 1.55-1.26 1.55s-1.26-.65-1.26-1.55zm2.16-21.93h-.54v-7.25a1.73 1.73 0 0 1-1.27.69v-.47a1.49 1.49 0 0 0 1.39-1.14h.42zM93.79 2.17V.06h.5v2.13c0 .84.34 1.45 1.18 1.45s1.19-.64 1.19-1.45V.06h.5v2.11c0 1.11-.51 1.93-1.68 1.93s-1.69-.82-1.69-1.93zm-12.06 86v-6.36a1.53 1.53 0 0 1-1.12.61V82a1.31 1.31 0 0 0 1.22-1h.37v7.19zm-.32-42.13c1.1 0 1.58-.77 1.58-1.82v-3.65c0-1.06-.48-1.82-1.58-1.82s-1.58.76-1.58 1.82v3.67c0 1.05.48 1.82 1.58 1.82zm-1.11-5.5c0-.78.32-1.35 1.11-1.35s1.11.57 1.11 1.35v3.72c0 .79-.32 1.36-1.11 1.36s-1.11-.57-1.11-1.36zm1.11 61.78c1.1 0 1.58-.77 1.58-1.82v-3.67c0-1.06-.48-1.82-1.58-1.82s-1.58.76-1.58 1.82v3.67c0 1.05.48 1.82 1.58 1.82zM80.3 96.8c0-.78.32-1.35 1.11-1.35s1.11.57 1.11 1.35v3.72c0 .79-.32 1.36-1.11 1.36s-1.11-.57-1.11-1.36zm1.9-22.67h-.47v-6.38a1.53 1.53 0 0 1-1.12.61v-.41a1.31 1.31 0 0 0 1.22-1h.37zm13.27 56.56c1.17 0 1.68-.82 1.68-1.93v-3.91c0-1.12-.51-1.93-1.68-1.93s-1.68.81-1.68 1.93v3.91c0 1.11.52 1.93 1.69 1.93zm-1.18-5.88c0-.83.34-1.44 1.18-1.44s1.18.61 1.18 1.44v4c0 .84-.34 1.45-1.18 1.45s-1.18-.61-1.18-1.45zM82.21 60.07h-.47v-6.39a1.53 1.53 0 0 1-1.12.61v-.41a1.31 1.31 0 0 0 1.22-1h.37zm13.61 126.81v-6.79a1.63 1.63 0 0 1-1.19.64v-.44a1.4 1.4 0 0 0 1.3-1.07h.39v7.66zm-.34-42.13c1.17 0 1.68-.82 1.68-1.93v-3.91c0-1.12-.51-1.93-1.68-1.93s-1.68.81-1.68 1.93v3.91c-.01 1.11.51 1.93 1.68 1.93zm-1.18-5.88c0-.83.34-1.44 1.18-1.44s1.18.61 1.18 1.44v4c0 .84-.34 1.45-1.18 1.45s-1.18-.61-1.18-1.45zm2 33.94h-.5V166a1.63 1.63 0 0 1-1.19.64v-.44a1.4 1.4 0 0 0 1.3-1.07h.39zm-2.53 39.12v-2.71c0-1.12.51-1.93 1.68-1.93s1.68.81 1.68 1.93v2.71h-.5v-2.73c0-.83-.34-1.44-1.18-1.44s-1.18.61-1.18 1.44v2.74zM95.48 201c1.17 0 1.68-.82 1.68-1.93v-3.91c0-1.12-.51-1.93-1.68-1.93s-1.68.81-1.68 1.93v3.91c-.01 1.12.51 1.93 1.68 1.93zm-1.18-5.88c0-.83.34-1.44 1.18-1.44s1.18.61 1.18 1.44v4c0 .84-.34 1.45-1.18 1.45s-1.18-.61-1.18-1.45zm2-36.38h-.5V152a1.63 1.63 0 0 1-1.19.64v-.44a1.4 1.4 0 0 0 1.3-1.07h.39zm-56.45 13.1h-.37v-5.06a1.21 1.21 0 0 1-.89.48v-.33a1 1 0 0 0 1-.8h.29zm-28.76-.45c.72 0 1-.51 1-1.19v-2.42c0-.7-.32-1.19-1-1.19s-1 .5-1 1.19v2.42c-.09.69.27 1.2 1 1.2zm-.73-3.63c0-.51.21-.89.73-.89s.73.38.73.89v2.45c0 .52-.21.9-.73.9s-.73-.38-.73-.9zm1.25-52.67h-.31v-4.2a1 1 0 0 1-.74.4V111a.86.86 0 0 0 .8-.66h.24zm-.52 28.17c.72 0 1-.51 1-1.19v-2.42c0-.7-.32-1.19-1-1.19s-1 .5-1 1.19v2.42c-.09.69.27 1.2 1 1.2zm-.73-3.63c0-.51.21-.89.73-.89s.73.38.73.89v2.45c0 .52-.21.9-.73.9s-.73-.38-.73-.9zM11.61 101h-.31v-4.2a1 1 0 0 1-.74.4V97a.86.86 0 0 0 .8-.66h.24zm41.67 85.16c.94 0 1.36-.66 1.36-1.56v-3.15c0-.91-.41-1.56-1.36-1.56s-1.36.65-1.36 1.56v3.15c.01.93.42 1.59 1.36 1.59zm-1-4.74c0-.67.27-1.16 1-1.16s1 .49 1 1.16v3.2c0 .68-.27 1.17-1 1.17s-1-.49-1-1.17zM10 211.94v-2c0-.7.32-1.19 1-1.19s1 .5 1 1.19v2h-.31v-2c0-.51-.21-.89-.73-.89s-.73.38-.73.89v2zm1-26.48c.72 0 1-.51 1-1.19v-2.42c0-.7-.32-1.19-1-1.19s-1 .5-1 1.19v2.42c0 .73.36 1.19 1.09 1.19zm-.73-3.63c0-.51.21-.89.73-.89s.73.38.73.89v2.45c0 .52-.21.9-.73.9s-.73-.38-.73-.9zm.73 17.7c.72 0 1-.51 1-1.19v-2.42c0-.7-.32-1.19-1-1.19s-1 .5-1 1.19v2.42c0 .66.36 1.19 1.09 1.19zm-.73-3.63c0-.51.21-.89.73-.89s.73.38.73.89v2.45c0 .52-.21.9-.73.9s-.73-.38-.73-.9zM11 44.82c.72 0 1-.51 1-1.19V41.2c0-.7-.32-1.19-1-1.19s-1 .5-1 1.19v2.42c0 .69.36 1.19 1.09 1.19zm-.73-3.63c0-.51.21-.89.73-.89s.73.38.73.89v2.45c0 .52-.21.9-.73.9s-.73-.38-.73-.9zM11.09 87c.72 0 1-.51 1-1.19V83.4c0-.7-.32-1.19-1-1.19s-1 .5-1 1.19v2.42c-.09.68.27 1.18 1 1.18zm-.73-3.63c0-.51.21-.89.73-.89s.73.38.73.89v2.45c0 .52-.21.9-.73.9s-.73-.38-.73-.9zm.73-24.5c.72 0 1-.51 1-1.19v-2.41c0-.7-.32-1.19-1-1.19s-1 .5-1 1.19v2.42c-.09.68.27 1.19 1 1.19zm-.73-3.63c0-.51.21-.89.73-.89s.73.38.73.89v2.46c0 .52-.21.9-.73.9s-.73-.38-.73-.9zm.73 17.7c.72 0 1-.51 1-1.19v-2.42c0-.7-.32-1.19-1-1.19s-1 .5-1 1.19v2.42c-.09.69.27 1.19 1 1.19zm-.73-3.63c0-.51.21-.89.73-.89s.73.38.73.89v2.45c0 .52-.21.9-.73.9s-.73-.38-.73-.9zm.94 59.85V125a1 1 0 0 1-.74.4v-.27a.86.86 0 0 0 .8-.66h.24v4.73zm-.21 28.17c.72 0 1-.51 1-1.19v-2.42c0-.7-.32-1.19-1-1.19s-1 .5-1 1.19v2.42c-.09.68.27 1.19 1 1.19zm-.73-3.63c0-.51.21-.89.73-.89s.73.38.73.89v2.45c0 .52-.21.9-.73.9s-.73-.38-.73-.9zm29.49-52.18h-.37v-5.07a1.21 1.21 0 0 1-.89.48v-.33a1 1 0 0 0 1-.8h.29zm0 14.06h-.37v-5.06a1.21 1.21 0 0 1-.89.48v-.33a1 1 0 0 0 1-.8h.29zm-.37 14.06v-5.06a1.21 1.21 0 0 1-.89.48v-.33a1 1 0 0 0 1-.8h.29v5.71zm-.26 14.11c.87 0 1.25-.61 1.25-1.44v-2.91c0-.84-.38-1.44-1.25-1.44s-1.25.6-1.25 1.44v2.91c.03.84.38 1.45 1.25 1.45zm-.88-4.38c0-.62.25-1.07.88-1.07s.88.46.88 1.07v3c0 .63-.25 1.08-.88 1.08s-.88-.46-.88-1.08zm71.2-50.63c1.25 0 1.79-.87 1.79-2.06v-4.16c0-1.2-.55-2.06-1.79-2.06s-1.79.86-1.79 2.06v4.17c0 1.19.54 2.06 1.79 2.06zm-1.26-6.27c0-.89.36-1.54 1.26-1.54s1.26.65 1.26 1.54v4.23c0 .9-.36 1.55-1.26 1.55s-1.26-.65-1.26-1.55zM39.47 200v-5.06a1.21 1.21 0 0 1-.89.48v-.33a1 1 0 0 0 1-.8h.29V200zm.37-14.06h-.37v-5.06a1.21 1.21 0 0 1-.89.48V181a1 1 0 0 0 1-.8h.29zm0-28.13h-.37v-5.06a1.21 1.21 0 0 1-.89.48v-.33a1 1 0 0 0 1-.8h.29zm-.62-70.31c.87 0 1.25-.61 1.25-1.44v-2.91c0-.84-.38-1.44-1.25-1.44s-1.22.6-1.22 1.44v2.91c0 .83.35 1.44 1.22 1.44zm-.88-4.38c0-.62.25-1.07.88-1.07s.88.46.88 1.07v3c0 .63-.25 1.08-.88 1.08s-.88-.46-.88-1.08zm1.51-37.86h-.37V40.2a1.21 1.21 0 0 1-.89.48v-.33a1 1 0 0 0 1-.8h.29zm-.37 14.06v-5.06a1.21 1.21 0 0 1-.89.48v-.33a1 1 0 0 0 1-.8h.29v5.71zm-.26 14.11c.87 0 1.25-.61 1.25-1.44v-2.91c0-.84-.38-1.44-1.25-1.44s-1.22.6-1.22 1.44V72c0 .83.35 1.44 1.22 1.44zm-.88-4.38c0-.62.25-1.07.88-1.07s.88.46.88 1.07v3c0 .63-.25 1.08-.88 1.08s-.88-.46-.88-1.08zm-13.19 102.6c.8 0 1.15-.56 1.15-1.32v-2.68c0-.77-.35-1.32-1.15-1.32s-1.15.55-1.15 1.32v2.68c0 .76.35 1.32 1.15 1.32zm-.81-4c0-.57.23-1 .81-1s.81.42.81 1v2.71c0 .58-.23 1-.81 1s-.81-.42-.81-1zm1.39-24.15h-.34v-4.65a1.11 1.11 0 0 1-.82.44V139a1 1 0 0 0 .89-.73h.27zM38 211.94v-2.21c0-.84.38-1.44 1.25-1.44s1.25.6 1.25 1.44v2.21h-.4v-2.23c0-.62-.25-1.07-.88-1.07s-.88.46-.88 1.07v2.23zM25.15 115.4c.8 0 1.15-.56 1.15-1.32v-2.68c0-.77-.35-1.32-1.15-1.32s-1.15.55-1.15 1.32v2.68c0 .76.35 1.32 1.15 1.32zm-.81-4c0-.57.23-1 .81-1s.81.42.81 1v2.71c0 .58-.23 1-.81 1s-.81-.42-.81-1zm.81-10c.8 0 1.15-.56 1.15-1.32v-2.75c0-.77-.35-1.32-1.15-1.32S24 96.56 24 97.33V100c0 .77.35 1.33 1.15 1.33zm-.81-4c0-.57.23-1 .81-1s.81.42.81 1v2.6c0 .58-.23 1-.81 1s-.81-.42-.81-1zm1 88.37V181a1.11 1.11 0 0 1-.82.44v-.3a1 1 0 0 0 .89-.73h.27v5.24zm-.24 14.11c.8 0 1.15-.56 1.15-1.32v-2.68c0-.77-.35-1.32-1.15-1.32s-1.1.44-1.1 1.22v2.68c0 .76.35 1.32 1.15 1.32zm-.81-4c0-.57.23-1 .81-1s.81.42.81 1v2.71c0 .58-.23 1-.81 1s-.81-.42-.81-1zm1.39-66.34h-.34v-4.65a1.11 1.11 0 0 1-.82.44v-.3a1 1 0 0 0 .89-.73h.27zm-.34 28.13v-4.65a1.11 1.11 0 0 1-.82.44V153a1 1 0 0 0 .89-.73h.27v5.24zm0-70.32v-4.78a1.11 1.11 0 0 1-.82.44v-.3a1 1 0 0 0 .89-.73h.27v5.24zm.34-14.06h-.34v-4.78a1.11 1.11 0 0 1-.82.44v-.3a1 1 0 0 0 .89-.73h.27zM25.39 45v-4.62a1.11 1.11 0 0 1-.82.44v-.3a1 1 0 0 0 .89-.73h.27V45zm-.24 14.11c.8 0 1.15-.56 1.15-1.32v-2.65c0-.77-.35-1.32-1.15-1.32S24 54.37 24 55.14v2.68c0 .76.35 1.32 1.15 1.32zm-.81-4c0-.57.23-1 .81-1s.81.42.81 1v2.71c0 .58-.23 1-.81 1s-.81-.42-.81-1zm28.94 60.75c.94 0 1.36-.66 1.36-1.56v-3.15c0-.91-.41-1.56-1.36-1.56s-1.36.65-1.36 1.56v3.15c.01.91.42 1.57 1.36 1.57zm-1-4.74c0-.67.27-1.16 1-1.16s1 .49 1 1.16v3.2c0 .68-.27 1.17-1 1.17s-1-.49-1-1.17zm142.1 49.43v-10a2.39 2.39 0 0 1-1.75.95v-.64a2.06 2.06 0 0 0 1.91-1.58h.58v11.27zm0-28.13v-10a2.39 2.39 0 0 1-1.75.95v-.64a2.06 2.06 0 0 0 1.91-1.58h.58v11.27zm-.51 14.16c1.72 0 2.48-1.21 2.48-2.85V138c0-1.66-.76-2.85-2.48-2.85s-2.48 1.19-2.48 2.85v5.76c.06 1.62.82 2.83 2.54 2.83zm-1.74-8.65c0-1.22.5-2.12 1.74-2.12s1.74.9 1.74 2.12v5.84c0 1.24-.5 2.14-1.74 2.14s-1.74-.9-1.74-2.14zm3-19.57h-.74v-10a2.39 2.39 0 0 1-1.75.95v-.64a2.06 2.06 0 0 0 1.91-1.58h.58zm0-14.06h-.74v-10a2.39 2.39 0 0 1-1.75.95v-.65a2.06 2.06 0 0 0 1.96-1.6h.58zM208 203.11c1.8 0 2.59-1.26 2.59-3v-6c0-1.73-.79-3-2.59-3s-2.59 1.24-2.59 3v6c-.01 1.74.78 3 2.59 3zm-1.82-9c0-1.28.52-2.22 1.82-2.22s1.82.94 1.82 2.22v6.1c0 1.29-.52 2.24-1.82 2.24s-1.82-.94-1.82-2.24zm-14.73 17.87v-3.63c0-1.66.76-2.85 2.48-2.85s2.48 1.19 2.48 2.85v3.63h-.74v-3.68c0-1.22-.5-2.12-1.74-2.12s-1.74.9-1.74 2.12v3.68zm2.48-37.22c1.72 0 2.48-1.21 2.48-2.85v-5.76c0-1.66-.76-2.85-2.48-2.85s-2.48 1.19-2.48 2.85v5.76c0 1.6.76 2.81 2.48 2.81zm-1.74-8.65c0-1.22.5-2.12 1.74-2.12s1.74.9 1.74 2.12v5.84c0 1.24-.5 2.14-1.74 2.14s-1.74-.9-1.74-2.14zm2.24 36.69v-10a2.39 2.39 0 0 1-1.75.95v-.64a2.06 2.06 0 0 0 1.91-1.58h.58v11.27zm0-182.84v-10a2.39 2.39 0 0 1-1.75.95v-.64a2.06 2.06 0 0 0 1.91-1.58h.58v11.22zm-.51 14.16c1.72 0 2.48-1.21 2.48-2.85v-5.8c0-1.66-.76-2.85-2.48-2.85s-2.48 1.19-2.48 2.85v5.76c.01 1.63.77 2.84 2.49 2.84zm-1.74-8.65c0-1.22.5-2.12 1.74-2.12s1.74.9 1.74 2.12v5.84c0 1.24-.5 2.14-1.74 2.14s-1.74-.9-1.74-2.14zm-.73-22.37v-3h.74v3.03c0 1.24.5 2.14 1.74 2.14s1.74-.9 1.74-2.14V.06h.74v3c0 1.64-.76 2.85-2.48 2.85s-2.48-1.17-2.48-2.81zm2.48 73.17c1.72 0 2.48-1.21 2.48-2.85v-5.76c0-1.66-.76-2.85-2.48-2.85s-2.48 1.19-2.48 2.85v5.76c0 1.64.76 2.85 2.48 2.85zm-1.74-8.65c0-1.22.5-2.12 1.74-2.12s1.74.9 1.74 2.12v5.84c0 1.24-.5 2.14-1.74 2.14s-1.74-.9-1.74-2.14zm1.74 22.72c1.72 0 2.48-1.21 2.48-2.85v-5.76c0-1.66-.76-2.85-2.48-2.85s-2.48 1.19-2.48 2.85v5.76c0 1.63.76 2.84 2.48 2.84zm-1.74-8.65c0-1.22.5-2.12 1.74-2.12s1.74.9 1.74 2.12v5.84c0 1.24-.5 2.14-1.74 2.14s-1.74-.9-1.74-2.14zm2.24-19.57v-10a2.39 2.39 0 0 1-1.75.95v-.64a2.06 2.06 0 0 0 1.91-1.58h.58V62.1zm.75-14.12h-.74V38a2.39 2.39 0 0 1-1.75.95v-.64a2.06 2.06 0 0 0 1.91-1.58h.58zm0 140.65h-.74v-10a2.39 2.39 0 0 1-1.75.95v-.6a2.06 2.06 0 0 0 1.91-1.58h.58zm-15.31-42.36c1.64 0 2.36-1.15 2.36-2.72v-5.5c0-1.58-.72-2.72-2.36-2.72s-2.36 1.14-2.36 2.72v5.5c-.01 1.61.71 2.76 2.35 2.76zm-1.66-8.26c0-1.17.48-2 1.66-2s1.66.86 1.66 2v5.57c0 1.18-.48 2-1.66 2s-1.66-.86-1.66-2zm1.66-5.8c1.64 0 2.36-1.15 2.36-2.72V124c0-1.58-.72-2.72-2.36-2.72s-2.36 1.14-2.36 2.72v5.5c-.01 1.61.71 2.76 2.35 2.76zm-1.66-8.23c0-1.17.48-2 1.66-2s1.66.86 1.66 2v5.57c0 1.18-.48 2-1.66 2s-1.66-.86-1.66-2zm1.66 36.39c1.64 0 2.36-1.15 2.36-2.72v-5.5c0-1.58-.72-2.72-2.36-2.72s-2.36 1.14-2.36 2.72v5.5c-.01 1.57.71 2.72 2.35 2.72zm-1.66-8.26c0-1.17.48-2 1.66-2s1.66.86 1.66 2v5.57c0 1.18-.48 2-1.66 2s-1.66-.86-1.66-2zm1.66 22.33c1.64 0 2.36-1.15 2.36-2.72v-5.5c0-1.58-.72-2.72-2.36-2.72s-2.36 1.14-2.36 2.72v5.5c-.01 1.57.71 2.72 2.35 2.72zm-1.66-8.26c0-1.17.48-2 1.66-2s1.66.86 1.66 2v5.57c0 1.18-.48 2-1.66 2s-1.66-.86-1.66-2zm1.66 36.39c1.64 0 2.36-1.15 2.36-2.72v-5.5c0-1.58-.72-2.72-2.36-2.72s-2.36 1.14-2.36 2.72v5.5c-.01 1.57.71 2.72 2.35 2.72zm-1.66-8.26c0-1.17.48-2 1.66-2s1.66.86 1.66 2v5.57c0 1.18-.48 2-1.66 2s-1.66-.86-1.66-2zm1.66-5.8c1.64 0 2.36-1.15 2.36-2.72v-5.5c0-1.58-.72-2.72-2.36-2.72s-2.36 1.14-2.36 2.72v5.5c-.01 1.56.71 2.71 2.35 2.71zm-1.66-8.26c0-1.17.48-2 1.66-2s1.66.86 1.66 2v5.57c0 1.18-.48 2-1.66 2s-1.66-.86-1.66-2zm1.66-62.06c1.64 0 2.36-1.15 2.36-2.72V110c0-1.58-.72-2.72-2.36-2.72s-2.36 1.14-2.36 2.72v5.5c-.01 1.5.71 2.7 2.35 2.7zm-1.66-8.26c0-1.17.48-2 1.66-2s1.66.86 1.66 2v5.57c0 1.18-.48 2-1.66 2s-1.66-.86-1.66-2zm2.85-20h-.71v-9.52a2.29 2.29 0 0 1-1.67.91v-.61a2 2 0 0 0 1.83-1.5h.55zm-1.19-56.17c1.64 0 2.36-1.15 2.36-2.72V25.6c0-1.58-.72-2.72-2.36-2.72S177.5 24 177.5 25.6v5.5c0 1.56.72 2.71 2.36 2.71zm-1.66-8.26c0-1.17.48-2 1.66-2s1.66.86 1.66 2v5.57c0 1.18-.48 2-1.66 2s-1.66-.86-1.66-2zm1.66-5.8c1.64 0 2.36-1.15 2.36-2.72v-5.5c0-1.58-.72-2.72-2.36-2.72s-2.37 1.22-2.37 2.75V17c0 1.6.72 2.75 2.36 2.75zm-1.66-8.26c0-1.17.48-2 1.66-2s1.66.86 1.66 2v5.57c0 1.18-.48 2-1.66 2s-1.66-.86-1.66-2zm1.66 36.39c1.64 0 2.36-1.15 2.36-2.72v-5.5c0-1.58-.72-2.72-2.36-2.72s-2.36 1.14-2.36 2.72v5.5c-.01 1.59.71 2.75 2.35 2.75zm-1.66-8.26c0-1.17.48-2 1.66-2s1.66.86 1.66 2v5.57c0 1.18-.48 2-1.66 2s-1.66-.86-1.66-2zm1.66 22.33c1.64 0 2.36-1.15 2.36-2.72v-5.5c0-1.58-.72-2.72-2.36-2.72s-2.36 1.14-2.36 2.72v5.5c-.01 1.59.71 2.74 2.35 2.74zm-1.66-8.26c0-1.17.48-2 1.66-2s1.66.86 1.66 2v5.57c0 1.18-.48 2-1.66 2s-1.66-.86-1.66-2zm2.85 22.23h-.71v-9.53a2.29 2.29 0 0 1-1.67.91v-.61a2 2 0 0 0 1.83-1.5h.55zM177.5 3V.06h.71V3c0 1.18.48 2 1.66 2s1.66-.86 1.66-2V.06h.71V3c0 1.57-.72 2.72-2.36 2.72S177.5 4.53 177.5 3zm2.85 101v-9.51a2.29 2.29 0 0 1-1.67.91v-.61a2 2 0 0 0 1.83-1.5h.55V104zm41.71 56.59c1.71 0 2.47-1.2 2.47-2.83v-5.73c0-1.65-.75-2.83-2.47-2.83s-2.47 1.18-2.47 2.83v5.73c0 1.67.75 2.87 2.47 2.87zm-1.73-8.59c0-1.22.5-2.11 1.73-2.11s1.73.9 1.73 2.11v5.81c0 1.23-.5 2.13-1.73 2.13s-1.73-.9-1.73-2.13zm1.73-19.51c1.71 0 2.47-1.2 2.47-2.83v-5.73c0-1.65-.75-2.83-2.47-2.83s-2.47 1.18-2.47 2.83v5.73c0 1.64.75 2.84 2.47 2.84zm-1.73-8.62c0-1.22.5-2.11 1.73-2.11s1.73.9 1.73 2.11v5.81c0 1.23-.5 2.13-1.73 2.13s-1.73-.9-1.73-2.13zm1.73-5.45c1.71 0 2.47-1.2 2.47-2.83v-5.73c0-1.65-.75-2.83-2.47-2.83s-2.47 1.18-2.47 2.83v5.73c0 1.64.75 2.85 2.47 2.85zm-1.73-8.62c0-1.22.5-2.11 1.73-2.11s1.73.9 1.73 2.11v5.81c0 1.23-.5 2.13-1.73 2.13s-1.73-.9-1.73-2.13zm1.73-5.45c1.71 0 2.47-1.2 2.47-2.83V95.8c0-1.65-.75-2.83-2.47-2.83s-2.47 1.18-2.47 2.83v5.73c0 1.64.75 2.84 2.47 2.84zm-1.73-8.62c0-1.22.5-2.11 1.73-2.11s1.73.9 1.73 2.11v5.81c0 1.23-.5 2.13-1.73 2.13s-1.73-.9-1.73-2.13zm1.73-5.45c1.71 0 2.47-1.2 2.47-2.83v-5.71c0-1.65-.75-2.83-2.47-2.83s-2.47 1.18-2.47 2.83v5.73c0 1.64.75 2.84 2.47 2.84zm-1.73-8.62c0-1.22.5-2.11 1.73-2.11s1.73.9 1.73 2.11v5.84c0 1.23-.5 2.13-1.73 2.13s-1.73-.9-1.73-2.13zm1.73 64.88c1.71 0 2.47-1.2 2.47-2.83V138c0-1.65-.75-2.83-2.47-2.83s-2.47 1.18-2.47 2.83v5.73c0 1.63.75 2.84 2.47 2.84zm-1.73-8.62c0-1.22.5-2.11 1.73-2.11s1.73.9 1.73 2.11v5.81c0 1.23-.5 2.13-1.73 2.13s-1.73-.9-1.73-2.13zm3 50.72h-.74v-10a2.38 2.38 0 0 1-1.75.94V179a2.05 2.05 0 0 0 1.91-1.57h.58zm-56.4-183.3h-.67V.06h.67zm55.63 197.39v-10a2.38 2.38 0 0 1-1.75.94v-.64a2.05 2.05 0 0 0 1.91-1.57h.58v11.23zM222.06 20c1.71 0 2.47-1.2 2.47-2.83v-5.76c0-1.65-.75-2.83-2.47-2.83s-2.47 1.18-2.47 2.83v5.73c0 1.64.75 2.86 2.47 2.86zm-1.73-8.62c0-1.22.5-2.11 1.73-2.11s1.73.9 1.73 2.11v5.81c0 1.23-.5 2.13-1.73 2.13s-1.73-.9-1.73-2.13zm-.74-8.28v-3h.74v3.02c0 1.23.5 2.13 1.73 2.13s1.73-.9 1.73-2.13V.06h.74v3c0 1.63-.75 2.83-2.47 2.83s-2.47-1.17-2.47-2.81zm16.53 185.39c1.63 0 2.34-1.14 2.34-2.69v-5.45c0-1.57-.72-2.69-2.34-2.69s-2.34 1.13-2.34 2.69v5.45c0 1.53.71 2.68 2.34 2.68zm-1.64-8.19c0-1.16.47-2 1.64-2s1.64.85 1.64 2v5.53c0 1.17-.47 2-1.64 2s-1.64-.85-1.64-2zM223.3 48h-.74V38a2.38 2.38 0 0 1-1.75.94v-.64a2.05 2.05 0 0 0 1.91-1.57h.58zm-.74 14.06v-10a2.38 2.38 0 0 1-1.75.94v-.64a2.05 2.05 0 0 0 1.91-1.57h.58v11.29zM223.3 34h-.74V24a2.38 2.38 0 0 1-1.75.94v-.64a2.05 2.05 0 0 0 1.91-1.57h.58zm-1.24 42.29c1.71 0 2.47-1.2 2.47-2.83v-5.79c0-1.65-.75-2.83-2.47-2.83s-2.47 1.18-2.47 2.83v5.73c0 1.6.75 2.84 2.47 2.84zm-1.73-8.62c0-1.22.5-2.11 1.73-2.11s1.73.9 1.73 2.11v5.81c0 1.23-.5 2.13-1.73 2.13s-1.73-.9-1.73-2.13zM208 118.72c1.8 0 2.59-1.26 2.59-3v-6c0-1.73-.79-3-2.59-3s-2.59 1.24-2.59 3v6c-.01 1.74.78 3 2.59 3zm-1.82-9c0-1.28.52-2.22 1.82-2.22s1.82.94 1.82 2.22v6.1c0 1.29-.52 2.24-1.82 2.24s-1.82-.94-1.82-2.24zm2.34 65.2v-10.5a2.5 2.5 0 0 1-1.83 1v-.67a2.15 2.15 0 0 0 2-1.65h.61v11.78zM208 189c1.8 0 2.59-1.26 2.59-3v-6c0-1.73-.79-3-2.59-3s-2.59 1.24-2.59 3v6c-.01 1.78.78 3 2.59 3zm-1.82-9c0-1.28.52-2.22 1.82-2.22s1.82.94 1.82 2.22v6.1c0 1.29-.52 2.24-1.82 2.24s-1.82-.94-1.82-2.24zm3.12-103.58h-.77V66a2.5 2.5 0 0 1-1.83 1v-.67a2.15 2.15 0 0 0 2-1.65h.61zm0 84.39h-.77v-10.45a2.5 2.5 0 0 1-1.83 1v-.67a2.15 2.15 0 0 0 2-1.65h.61zm0-28.13h-.77v-10.45a2.5 2.5 0 0 1-1.83 1v-.67a2.15 2.15 0 0 0 2-1.65h.61zm0 14.06h-.77v-10.45a2.5 2.5 0 0 1-1.83 1v-.67a2.15 2.15 0 0 0 2-1.65h.61zm0-56.26h-.77V80a2.5 2.5 0 0 1-1.83 1v-.67a2.15 2.15 0 0 0 2-1.65h.61zm-2.61-65.72v-.67a2.15 2.15 0 0 0 2-1.65h.61v11.79h-.77V23.77a2.5 2.5 0 0 1-1.84.99zM209.3 6.1h-.77v-6h.77zm10.3 205.84v-3.62c0-1.65.75-2.83 2.47-2.83s2.47 1.18 2.47 2.83v3.62h-.74v-3.67c0-1.22-.5-2.11-1.73-2.11s-1.73.9-1.73 2.11v3.67zM206.69 10.7V10a2.15 2.15 0 0 0 2-1.65h.61v11.81h-.77V9.71a2.5 2.5 0 0 1-1.84.99zM208 62.46c1.8 0 2.59-1.26 2.59-3v-6c0-1.73-.79-3-2.59-3s-2.59 1.24-2.59 3v6c-.01 1.74.78 3 2.59 3zm-1.82-9c0-1.28.52-2.22 1.82-2.22s1.82.94 1.82 2.22v6.1c0 1.29-.52 2.24-1.82 2.24s-1.82-.94-1.82-2.24zm2.34 51.14V94.1a2.5 2.5 0 0 1-1.83 1v-.67a2.15 2.15 0 0 0 2-1.65h.61v11.78zm14.78 70h-.74v-10a2.38 2.38 0 0 1-1.75.94v-.64a2.05 2.05 0 0 0 1.91-1.57h.58zM208 48.39c1.8 0 2.59-1.26 2.59-3v-6c0-1.73-.79-3-2.59-3s-2.59 1.24-2.59 3v6c-.01 1.74.78 3 2.59 3zm-1.82-9c0-1.28.52-2.22 1.82-2.22s1.82.94 1.82 2.22v6.1c0 1.29-.52 2.24-1.82 2.24s-1.82-.94-1.82-2.24zm-54.45 36.1c1.49 0 2.14-1 2.14-2.46v-5c0-1.43-.65-2.46-2.14-2.46s-2.14 1-2.14 2.46v5c0 1.42.66 2.46 2.14 2.46zm-1.5-7.49c0-1.06.43-1.84 1.5-1.84s1.5.78 1.5 1.84v5c0 1.07-.43 1.85-1.5 1.85s-1.5-.78-1.5-1.85zM121.7 2.43V.06h.57v2.4c0 1 .38 1.65 1.34 1.65s1.34-.69 1.34-1.65V.06h.57v2.37c0 1.26-.58 2.19-1.91 2.19s-1.91-.93-1.91-2.19zm14 209.51v-3.1c0-1.35.62-2.32 2-2.32s2 1 2 2.32v3.1h-.6v-3.14c0-1-.41-1.73-1.42-1.73s-1.41.73-1.41 1.73v3.14zm2-10.15c1.4 0 2-1 2-2.32v-4.69c0-1.35-.62-2.32-2-2.32s-2 1-2 2.32v4.69c-.05 1.33.57 2.32 1.97 2.32zm-1.41-7.05c0-1 .41-1.73 1.41-1.73s1.42.73 1.42 1.73v4.76c0 1-.41 1.74-1.42 1.74s-1.41-.73-1.41-1.74zm1.41-7c1.4 0 2-1 2-2.32v-4.69c0-1.35-.62-2.32-2-2.32s-2 1-2 2.32v4.69c-.05 1.32.57 2.3 1.97 2.3zm-1.41-7.05c0-1 .41-1.73 1.41-1.73s1.42.73 1.42 1.73v4.76c0 1-.41 1.74-1.42 1.74s-1.41-.73-1.41-1.74zm1.38-105.49c1.4 0 2-1 2-2.32v-4.69c0-1.35-.62-2.32-2-2.32s-2 1-2 2.32v4.69c-.02 1.34.6 2.32 2 2.32zm-1.41-7.05c0-1 .41-1.73 1.41-1.73s1.42.73 1.42 1.73v4.76c0 1-.41 1.74-1.42 1.74s-1.41-.73-1.41-1.74zM124 46.74V39a1.84 1.84 0 0 1-1.35.73v-.49a1.58 1.58 0 0 0 1.47-1.21h.45v8.68zm.57-14.06H124V25a1.84 1.84 0 0 1-1.35.73v-.49a1.58 1.58 0 0 0 1.47-1.24h.45zm-1 28.2c1.32 0 1.91-.93 1.91-2.19v-4.43c0-1.27-.58-2.19-1.91-2.19s-1.91.92-1.91 2.19v4.43c.04 1.31.62 2.19 1.94 2.19zm-1.34-6.66c0-.94.38-1.63 1.34-1.63s1.34.69 1.34 1.63v4.49c0 1-.38 1.65-1.34 1.65s-1.34-.69-1.34-1.65zm15.4 49.11c1.4 0 2-1 2-2.32v-4.69c0-1.35-.62-2.32-2-2.32s-2 1-2 2.32V101c.02 1.35.64 2.33 2.04 2.33zm-1.41-7.05c0-1 .41-1.73 1.41-1.73s1.42.73 1.42 1.73V101c0 1-.41 1.74-1.42 1.74s-1.41-.73-1.41-1.74zm1.41-7c1.4 0 2-1 2-2.32v-4.7c0-1.35-.62-2.32-2-2.32s-2 1-2 2.32V87c.02 1.29.64 2.27 2.04 2.27zm-1.41-7.05c0-1 .41-1.73 1.41-1.73s1.42.73 1.42 1.73V87c0 1-.41 1.74-1.42 1.74s-1.38-.74-1.38-1.74zm1.83 63.23v-8.16a2 2 0 0 1-1.43.77v-.52a1.68 1.68 0 0 0 1.56-1.28h.47v9.19zm.6-28.13h-.6v-8.15a2 2 0 0 1-1.43.77v-.52a1.68 1.68 0 0 0 1.56-1.28h.47zm-1 42.27c1.4 0 2-1 2-2.32v-4.69c0-1.35-.62-2.32-2-2.32s-2 1-2 2.32v4.69c0 1.33.62 2.31 2.02 2.31zm-1.41-7.05c0-1 .41-1.73 1.41-1.73s1.42.73 1.42 1.73v4.76c0 1-.41 1.74-1.42 1.74s-1.41-.73-1.41-1.74zm2.43-21.16h-.6v-8.15a2 2 0 0 1-1.43.77v-.52a1.68 1.68 0 0 0 1.56-1.28h.47zm-1 42.27c1.4 0 2-1 2-2.32v-4.69c0-1.35-.62-2.32-2-2.32s-2 1-2 2.32v4.69c-.02 1.33.6 2.32 2 2.32zm-1.41-7.05c0-1 .41-1.73 1.41-1.73s1.42.73 1.42 1.73v4.76c0 1-.41 1.74-1.42 1.74s-1.41-.73-1.41-1.74zm-11.69-148H124v-7.7a1.84 1.84 0 0 1-1.35.73v-.49a1.58 1.58 0 0 0 1.47-1.21h.45zM110.44 4.29h-.54V.06h.54zm13.16 197.24c1.32 0 1.91-.93 1.91-2.19v-4.43c0-1.27-.58-2.19-1.91-2.19s-1.91.92-1.91 2.19v4.43c.01 1.26.59 2.19 1.91 2.19zm-1.34-6.66c0-.94.38-1.63 1.34-1.63s1.34.69 1.34 1.63v4.49c0 1-.38 1.65-1.34 1.65s-1.34-.69-1.34-1.65zM109.54 18.43c1.25 0 1.79-.87 1.79-2.06V12.2c0-1.2-.55-2.06-1.79-2.06s-1.79.86-1.79 2.06v4.17c0 1.18.54 2.06 1.79 2.06zm-1.26-6.27c0-.89.36-1.54 1.26-1.54s1.26.65 1.26 1.54v4.23c0 .9-.36 1.55-1.26 1.55s-1.26-.65-1.26-1.55zm2.16 48.39h-.54v-7.24a1.73 1.73 0 0 1-1.27.69v-.47a1.49 1.49 0 0 0 1.37-1.14h.42zm14.12 98.71H124v-7.7a1.84 1.84 0 0 1-1.35.73v-.49a1.58 1.58 0 0 0 1.47-1.21h.45zm-14.65-84.64v-7.25a1.73 1.73 0 0 1-1.27.69v-.47a1.49 1.49 0 0 0 1.36-1.14h.42v8.17zm-.37-42.12c1.25 0 1.79-.87 1.79-2.06v-4.18c0-1.2-.55-2.06-1.79-2.06s-1.79.86-1.79 2.06v4.17c0 1.19.54 2.06 1.79 2.06zm-1.26-6.27c0-.89.36-1.54 1.26-1.54s1.26.65 1.26 1.54v4.23c0 .9-.36 1.55-1.26 1.55s-1.26-.65-1.26-1.55zM124.56 103H124v-7.7a1.84 1.84 0 0 1-1.35.73v-.49a1.58 1.58 0 0 0 1.47-1.21h.45zm0-14.06H124v-7.7a1.84 1.84 0 0 1-1.35.73v-.49a1.58 1.58 0 0 0 1.47-1.21h.45zm0 84.39H124v-7.7a1.84 1.84 0 0 1-1.35.73v-.49a1.58 1.58 0 0 0 1.47-1.21h.45zm-.56-56.26v-7.7a1.84 1.84 0 0 1-1.35.73v-.49a1.58 1.58 0 0 0 1.47-1.21h.45v8.68zm.57-42.19H124v-7.7a1.84 1.84 0 0 1-1.35.73v-.49a1.58 1.58 0 0 0 1.47-1.21h.45zM124 187.39v-7.7a1.84 1.84 0 0 1-1.35.73v-.49a1.58 1.58 0 0 0 1.47-1.21h.45v8.68zm-.39-56.18c1.32 0 1.91-.93 1.91-2.19v-4.43c0-1.27-.58-2.19-1.91-2.19s-1.91.92-1.91 2.19V129c0 1.28.58 2.2 1.9 2.2zm-1.34-6.66c0-.94.38-1.63 1.34-1.63s1.34.69 1.34 1.63V129c0 1-.38 1.65-1.34 1.65s-1.34-.69-1.34-1.65zm1.34 20.72c1.32 0 1.91-.93 1.91-2.19v-4.43c0-1.27-.58-2.19-1.91-2.19s-1.91.92-1.91 2.19v4.43c0 1.26.58 2.19 1.9 2.19zm-1.34-6.66c0-.94.38-1.63 1.34-1.63s1.34.69 1.34 1.63v4.49c0 1-.38 1.65-1.34 1.65s-1.34-.69-1.34-1.65zM152.81 5.08h-.64v-5h.64zm13 155.05c1.57 0 2.25-1.1 2.25-2.59v-5.24c0-1.51-.69-2.59-2.25-2.59s-2.25 1.08-2.25 2.59v5.24c-.01 1.46.67 2.59 2.24 2.59zm-1.58-7.87c0-1.11.45-1.93 1.58-1.93s1.58.82 1.58 1.93v5.31c0 1.13-.45 1.95-1.58 1.95s-1.58-.82-1.58-1.95zm2.71-20.35h-.67v-9.1a2.18 2.18 0 0 1-1.59.86v-.58a1.87 1.87 0 0 0 1.74-1.43h.53zm0-14.06h-.67v-9.1a2.18 2.18 0 0 1-1.59.86V109a1.87 1.87 0 0 0 1.74-1.43h.53zm-1.14-98.36c1.57 0 2.25-1.1 2.25-2.59v-5.24c0-1.51-.69-2.59-2.25-2.59s-2.25 1.08-2.25 2.59v5.24c0 1.49.68 2.59 2.25 2.59zm-1.58-7.87c0-1.11.45-1.93 1.58-1.93s1.58.82 1.58 1.93v5.31c0 1.13-.45 1.95-1.58 1.95s-1.58-.82-1.58-1.95zm-12.49 35.74c1.49 0 2.14-1 2.14-2.46v-5c0-1.43-.65-2.46-2.14-2.46s-2.14 1-2.14 2.46v5c0 1.42.66 2.46 2.14 2.46zm-1.5-7.48c0-1.06.43-1.84 1.5-1.84s1.5.78 1.5 1.84v5c0 1.07-.43 1.85-1.5 1.85s-1.5-.78-1.5-1.85zm.42-28.56v-.56a1.78 1.78 0 0 0 1.65-1.36h.5v9.74h-.64V10.5a2.07 2.07 0 0 1-1.5.82zm0 14.06v-.56a1.78 1.78 0 0 0 1.65-1.36h.5v9.74h-.64v-8.64a2.07 2.07 0 0 1-1.5.82zm16.28 22.14h-.67v-9.1a2.18 2.18 0 0 1-1.59.86v-.58a1.87 1.87 0 0 0 1.74-1.43h.53zm0 14.06h-.67V52.5a2.18 2.18 0 0 1-1.59.86v-.58a1.87 1.87 0 0 0 1.74-1.43h.53zm-.67 14.06v-9.1a2.18 2.18 0 0 1-1.59.86v-.58a1.87 1.87 0 0 0 1.74-1.43h.53v10.27zm-14.09-14.3v-8.65a2.07 2.07 0 0 1-1.51.82V53a1.78 1.78 0 0 0 1.65-1.36h.5v9.74zm13.63 42.54c1.57 0 2.25-1.1 2.25-2.59v-5.24c0-1.51-.69-2.59-2.25-2.59s-2.25 1.08-2.25 2.59v5.24c0 1.49.68 2.59 2.25 2.59zM164.22 96c0-1.11.45-1.93 1.58-1.93s1.58.82 1.58 1.93v5.31c0 1.13-.45 1.95-1.58 1.95s-1.58-.82-1.58-1.95zm2 50v-9.1a2.18 2.18 0 0 1-1.59.86v-.58a1.87 1.87 0 0 0 1.74-1.43h.53V146zm.67-112.52h-.67v-9.1a2.18 2.18 0 0 1-1.59.86v-.58a1.87 1.87 0 0 0 1.74-1.43h.53zm-1.09 56.33c1.57 0 2.25-1.1 2.25-2.59V82c0-1.51-.69-2.59-2.25-2.59s-2.25 1.08-2.25 2.59v5.24c0 1.47.68 2.57 2.25 2.57zm-1.58-7.87c0-1.11.45-1.93 1.58-1.93s1.58.82 1.58 1.93v5.31c0 1.13-.45 1.95-1.58 1.95s-1.58-.82-1.58-1.95zm-12 91.91v-8.65a2.07 2.07 0 0 1-1.51.82v-.56a1.78 1.78 0 0 0 1.65-1.36h.5v9.74zm-2.58 38.08v-3.23c0-1.43.65-2.46 2.14-2.46s2.14 1 2.14 2.46v3.24h-.64v-3.28c0-1.06-.43-1.84-1.5-1.84s-1.5.78-1.5 1.84v3.28zM138.69 4.8h-.6V.06h.6zM152.17 202v-8.65a2.07 2.07 0 0 1-1.51.82v-.56a1.78 1.78 0 0 0 1.65-1.36h.5V202zm-14.5-183c1.4 0 2-1 2-2.32v-4.75c0-1.35-.62-2.32-2-2.32s-2 1-2 2.32v4.69c-.02 1.38.6 2.33 2 2.33zm-1.41-7.05c0-1 .41-1.73 1.41-1.73s1.42.73 1.42 1.73v4.76c0 1-.41 1.74-1.42 1.74s-1.41-.73-1.41-1.74zm1.41 35.18c1.4 0 2-1 2-2.32v-4.75c0-1.35-.62-2.32-2-2.32s-2 1-2 2.32v4.69c-.02 1.34.6 2.33 2 2.33zM136.25 40c0-1 .41-1.73 1.41-1.73s1.42.73 1.42 1.73v4.76c0 1-.41 1.74-1.42 1.74s-1.41-.73-1.41-1.74zm1.41-7c1.4 0 2-1 2-2.32V26c0-1.35-.62-2.32-2-2.32s-2 1-2 2.32v4.69c-.01 1.31.61 2.31 2.01 2.31zm-1.41-7c0-1 .41-1.73 1.41-1.73s1.42.73 1.42 1.73v4.76c0 1-.41 1.74-1.42 1.74s-1.41-.73-1.41-1.74zm15.48 162c1.49 0 2.14-1 2.14-2.46v-5c0-1.43-.65-2.46-2.14-2.46s-2.14 1-2.14 2.46v5c0 1.46.66 2.46 2.14 2.46zm-1.5-7.48c0-1.06.43-1.84 1.5-1.84s1.5.78 1.5 1.84v5c0 1.07-.43 1.85-1.5 1.85s-1.5-.78-1.5-1.85zm1.5-48.78c1.49 0 2.14-1 2.14-2.46v-5c0-1.43-.65-2.46-2.14-2.46s-2.14 1-2.14 2.46v5c0 1.42.66 2.47 2.14 2.47zm-1.5-7.48c0-1.06.43-1.84 1.5-1.84s1.5.78 1.5 1.84v5c0 1.07-.43 1.85-1.5 1.85s-1.5-.78-1.5-1.85zm2.58 21.46h-.64v-8.65a2.07 2.07 0 0 1-1.51.82v-.56a1.78 1.78 0 0 0 1.65-1.36h.5zm-.64-42.19v-8.64a2.07 2.07 0 0 1-1.51.82v-.56a1.78 1.78 0 0 0 1.65-1.36h.5v9.74zm-.44 14.15c1.49 0 2.14-1 2.14-2.46v-5c0-1.43-.65-2.46-2.14-2.46s-2.14 1-2.14 2.46v5c0 1.42.66 2.46 2.14 2.46zm-1.5-7.48c0-1.06.43-1.84 1.5-1.84s1.5.78 1.5 1.84v5c0 1.07-.43 1.85-1.5 1.85s-1.5-.78-1.5-1.85zm2.58-20.74h-.64v-8.64a2.07 2.07 0 0 1-1.51.82v-.56a1.78 1.78 0 0 0 1.65-1.36h.5zm0 70.32h-.64v-8.65a2.07 2.07 0 0 1-1.51.82v-.56a1.78 1.78 0 0 0 1.65-1.36h.5zM110.44 46.49h-.54v-7.25a1.73 1.73 0 0 1-1.27.69v-.47a1.49 1.49 0 0 0 1.37-1.14h.42zm27.23 14.65c1.4 0 2-1 2-2.32v-4.69c0-1.35-.62-2.32-2-2.32s-2 1-2 2.32v4.69c-.02 1.34.6 2.32 2 2.32zm-1.41-7.05c0-1 .41-1.73 1.41-1.73s1.42.73 1.42 1.73v4.76c0 1-.41 1.74-1.42 1.74s-1.41-.73-1.41-1.74zM68.08 31.66h-.44v-5.89a1.41 1.41 0 0 1-1 .56V26a1.21 1.21 0 0 0 1.1-1h.34zm-.73-14c1 0 1.46-.71 1.46-1.68v-3.39c0-1-.44-1.67-1.46-1.67s-1.46.7-1.46 1.67V16c0 .94.44 1.65 1.46 1.65zm-1-5.09c0-.72.29-1.25 1-1.25s1 .53 1 1.25V16c0 .73-.29 1.26-1 1.26s-1-.53-1-1.26zm1.76-9h-.44V.06h.44zm-14.8 28c.94 0 1.36-.66 1.36-1.56v-3.24c0-.91-.41-1.56-1.36-1.56s-1.36.65-1.36 1.56v3.15c-.02.9.39 1.56 1.33 1.56zm-1-4.74c0-.67.27-1.16 1-1.16s1 .49 1 1.16v3.2c0 .68-.27 1.17-1 1.17s-1-.49-1-1.17zm-.41-25V.06h.41v1.75c0 .68.27 1.17 1 1.17s1-.49 1-1.17V.06h.4v1.73c0 .9-.41 1.56-1.36 1.56s-1.42-.66-1.42-1.56zm1.36 15.62c.94 0 1.36-.66 1.36-1.56V12.7c0-.91-.41-1.56-1.36-1.56s-1.36.65-1.36 1.56v3.15c.03.9.44 1.56 1.38 1.56zm-1-4.74c0-.67.27-1.16 1-1.16s1 .49 1 1.16v3.2c0 .68-.27 1.17-1 1.17s-1-.49-1-1.17zm28.28-.58v-.41a1.31 1.31 0 0 0 1.22-1h.37v7.19h-.47v-6.42a1.53 1.53 0 0 1-1.04.61zM81.41 32c1.1 0 1.58-.77 1.58-1.82v-3.67c0-1.06-.48-1.82-1.58-1.82s-1.58.76-1.58 1.82v3.67c0 1.05.48 1.82 1.58 1.82zm-1.11-5.52c0-.78.32-1.35 1.11-1.35s1.11.57 1.11 1.35v3.72c0 .79-.32 1.36-1.11 1.36S80.3 31 80.3 30.2zm1.9-22.67h-.47V.06h.47zM11.09 30.75c.72 0 1-.51 1-1.19v-2.42c0-.7-.32-1.19-1-1.19s-1 .5-1 1.19v2.42c-.09.68.27 1.19 1 1.19zm-.73-3.63c0-.51.21-.89.73-.89s.73.38.73.89v2.45c0 .52-.21.9-.73.9s-.73-.38-.73-.9zm.73-10.43c.72 0 1-.51 1-1.19v-2.43c0-.7-.32-1.19-1-1.19s-1 .5-1 1.19v2.42c-.09.69.27 1.19 1 1.19zm-.73-3.63c0-.51.21-.89.73-.89s.73.38.73.89v2.44c0 .52-.21.9-.73.9s-.73-.38-.73-.9zM10 1.42V.06h.31v1.38c0 .52.21.9.73.9s.73-.38.73-.9V.06h.31v1.36c0 .69-.32 1.19-1 1.19S10 2.11 10 1.42zm28 .25V.06h.37v1.63c0 .63.25 1.08.88 1.08s.88-.46.88-1.08V.06h.37v1.61c0 .83-.38 1.44-1.25 1.44S38 2.5 38 1.67zm1.88 15.46h-.37v-5.06a1.21 1.21 0 0 1-.89.48v-.33a1 1 0 0 0 1-.8h.29zm0 14.06h-.37v-5.06a1.21 1.21 0 0 1-.89.48v-.33a1 1 0 0 0 1-.8h.29zM25.15 31c.8 0 1.15-.56 1.15-1.32V27c0-.77-.35-1.32-1.15-1.32S24 26.24 24 27v2.68c0 .77.35 1.32 1.15 1.32zm-.81-4c0-.57.23-1 .81-1s.81.42.81 1v2.7c0 .58-.23 1-.81 1s-.81-.42-.81-1zm1-14.74a1.11 1.11 0 0 1-.82.44v-.3a1 1 0 0 0 .89-.73h.27v5.23h-.34zm.34-9.41h-.34V.06h.34z"/></svg>