<svg xmlns="http://www.w3.org/2000/svg" width="83.67" height="80.52" viewBox="0 0 83.67 80.52">
  <title>icon-download</title>
  <g id="Layer_2" data-name="Layer 2">
    <g id="_1200" data-name="1200">
      <g id="Dangerous">
        <g>
          <path d="M41.85,47.69A43.17,43.17,0,0,1,47,47.38c2.93,0,6.65.35,7.74,2.14a2.22,2.22,0,0,1,.09,2.27s-.09.13-.13.17v0c-.13.79-.79,1.66-3.1,1.66-2.8,0-7-1.27-10.71-3.19A83.14,83.14,0,0,0,23.7,54.12c-4.5,7.7-8,11.46-10.58,11.46a2.42,2.42,0,0,1-1.22-.31l-1-.52c-.13,0-.17-.13-.26-.22A1.83,1.83,0,0,1,10.32,63c.44-2,2.8-5.38,8.22-8.22a.73.73,0,0,1,1,.26.34.34,0,0,1,.09.17c1.36-2.23,2.93-5.07,4.68-8.62A67,67,0,0,0,28.86,35.1c-1.4-4.77-1.84-9.66-1-12.55.31-1.09,1-1.75,1.84-1.75h1a1.87,1.87,0,0,1,1.53.66,3.48,3.48,0,0,1,.39,3,.89.89,0,0,1-.17.35,1,1,0,0,1,0,.35v1.31a51.18,51.18,0,0,1-.61,8.4c1.53,4.59,3.8,8.31,6.38,10.41A29.78,29.78,0,0,0,41.85,47.69ZM19,56.31a20.88,20.88,0,0,0-6,6.91C14.3,62.6,16.18,60.72,19,56.31Zm18.41-8c-.44-.35-.87-.66-1.27-1a23.28,23.28,0,0,1-5.55-7.7,56.36,56.36,0,0,1-3.63,8.62c-.66,1.22-1.31,2.45-2,3.63A66.75,66.75,0,0,1,37.39,48.35ZM30.3,28.75c.13-.7.22-1.36.31-1.92.09-.74.22-1.36.31-1.88a1.31,1.31,0,0,1,.17-.35s0-.13-.09-.22a2.52,2.52,0,0,0-.57-1.57c0,.09,0,.13,0,.17A13.63,13.63,0,0,0,30.3,28.75Zm10.2-7.64,21,1.25c-.26-.74,2.06-.19,1.75-.5L46,5.87a52.29,52.29,0,0,0-5.5-3.75Zm6.59,29a17.4,17.4,0,0,0,5.42,1.22,3.59,3.59,0,0,0,.79,0s0-.09-.09-.13C53,51,51.86,50.14,47.09,50.14Z" style="fill: #edf0f3"/>
          <path d="M63,21.95H42.68a2.34,2.34,0,0,1-2.34-2.34V1.12L63.5,21.78V71.2a2.91,2.91,0,0,1-2.91,2.91H3.41A2.91,2.91,0,0,1,.5,71.2V4A2.91,2.91,0,0,1,3.41,1.12l36.91,0" style="fill: none;stroke: #4e7096;stroke-miterlimit: 10;opacity: 0.2"/>
          <g>
            <rect x="53.37" y="59.07" width="19.13" height="19.08" style="fill: #fff"/>
            <path d="M76,80.52H54.09a9,9,0,0,1-3.82-17.14c0-.3,0-.58,0-.86A10.29,10.29,0,0,1,70,58.62a5.08,5.08,0,0,1,3.34-1.25,5.15,5.15,0,0,1,5.14,5.14,5,5,0,0,1-.82,2.77A7.72,7.72,0,0,1,76,80.52ZM70.17,67.66h-4.5V60.58a.66.66,0,0,0-.64-.64H61.16a.66.66,0,0,0-.64.64v7.07H56a.65.65,0,0,0-.64.64.67.67,0,0,0,.18.46l7.07,7.07a.64.64,0,0,0,.46.18.67.67,0,0,0,.46-.18l7.05-7.05a.74.74,0,0,0,.2-.48A.63.63,0,0,0,70.17,67.66Z" style="fill: #03a9f4"/>
          </g>
        </g>
      </g>
    </g>
  </g>
</svg>
