<svg xmlns="http://www.w3.org/2000/svg" width="178.95" height="234.81" viewBox="0 0 178.95 234.81">
  <title>icon-fishing</title>
  <g id="Layer_2" data-name="Layer 2">
    <g id="_1200" data-name="1200">
      <g id="Form">
        <g id="Phishing_Guy" data-name="Phishing Guy">
          <g>
            <g>
              <path d="M142.3,82.59a25.71,25.71,0,0,0-.19-3.83,9.79,9.79,0,0,1-3.45.54,7.75,7.75,0,0,1-2.9-.69,11.32,11.32,0,0,1-3.32,2.77c-1.57.64-3.38.93-4.8,1.87s-3.1,2.69-2.78,3.76,3.54,2.16,6.42.93c1.85-.79,3.61-2.49,5.38-2.81C136.65,85.13,142.08,84.27,142.3,82.59Z" style="fill: #fff;stroke: #373e5a;stroke-miterlimit: 10"/>
              <path d="M142.25,82.78c-.58,1.55-5.6,2.35-5.6,2.35-1.77.32-3.52,2-5.38,2.81-2.88,1.23-6.1.13-6.42-.93a1,1,0,0,1,0-.18,1.23,1.23,0,0,0,0,.71c.32,1.07,3.54,2.16,6.42.93,1.86-.79,3.61-2.49,5.38-2.81,0,0,.8-.13,1.81-.38v.61a10.85,10.85,0,0,0,3.43-1.35l.39-1.28h0a.87.87,0,0,0,0-.14S142.24,83,142.25,82.78Z" style="fill: #fff;stroke: #373e5a;stroke-linecap: round;stroke-linejoin: round"/>
            </g>
            <g>
              <path d="M145.18,85.54s-1,3.6-2.43,4.77-4.72,6-2.53,7.1,7.44-.58,8.07-2.53a22,22,0,0,1,1.7-4.62,5.51,5.51,0,0,0,.81-5.8s-1.38,2.34-3.36,2S145.18,85.54,145.18,85.54Z" style="fill: #fff;stroke: #373e5a;stroke-miterlimit: 10"/>
              <g>
                <path d="M151.32,86.57A6.26,6.26,0,0,1,150,90.26a22,22,0,0,0-1.7,4.62c-.63,1.94-5.88,3.65-8.07,2.53a1.3,1.3,0,0,1-.71-1.07,1.48,1.48,0,0,0,.71,1.64c2.19,1.12,7.44-.58,8.07-2.53a21.94,21.94,0,0,1,1.7-4.62A4.9,4.9,0,0,0,151.32,86.57Z" style="fill: #fff"/>
                <path d="M151.32,86.57A6.26,6.26,0,0,1,150,90.26a22,22,0,0,0-1.7,4.62c-.63,1.94-5.88,3.65-8.07,2.53a1.3,1.3,0,0,1-.71-1.07,1.48,1.48,0,0,0,.71,1.64c2.19,1.12,7.44-.58,8.07-2.53a21.94,21.94,0,0,1,1.7-4.62A4.9,4.9,0,0,0,151.32,86.57Z" style="fill: #373e5a;fill-rule: evenodd"/>
                <path d="M151.32,86.57A6.26,6.26,0,0,1,150,90.26a22,22,0,0,0-1.7,4.62c-.63,1.94-5.88,3.65-8.07,2.53a1.3,1.3,0,0,1-.71-1.07,1.48,1.48,0,0,0,.71,1.64c2.19,1.12,7.44-.58,8.07-2.53a21.94,21.94,0,0,1,1.7-4.62A4.9,4.9,0,0,0,151.32,86.57Z" style="fill: none;stroke: #373e5a;stroke-linecap: round;stroke-linejoin: round"/>
              </g>
            </g>
            <path d="M132.5,81.2s2.36-9.83,2.63-14.88-2-10,2.7-14.2a55.23,55.23,0,0,1,17.3-9.89l.66-1.76a17.06,17.06,0,0,0,5.51,3.88l.65,7S155.81,56.7,144,59.53c0,0,.36,3.78.36,7.52s-2.09,15.47-2.09,15.47S138.26,85.54,132.5,81.2Z" style="fill: #373e5a"/>
            <path d="M143.85,86.59s.61,3.27,3.46,3.85a5.19,5.19,0,0,0,4.74-1.69s3.08-10.08,3.73-12.81,0-8.51,0-8.51,5.77-4,10.62-6.81,6.17-3.72,7.36-8.33a8.67,8.67,0,0,0-1-7.37,19.09,19.09,0,0,1-11.43-.58,15.48,15.48,0,0,1-2.14,4.58c-1.63,2.42-10.87,11.74-11.56,15.17-.35,1.73-.57,7.69-1.42,12.93A70.06,70.06,0,0,1,143.85,86.59Z" style="fill: #373e5a"/>
          </g>
          <g>
            <path d="M166.91,13c0,.54,1.84,2.26,1.61,3.87s-4.88,8.17-7.53,7-2.32-6.7-2.11-6.82S166.91,13,166.91,13Z" style="fill: #fff;stroke: #969c9c;stroke-miterlimit: 10;fill-rule: evenodd"/>
            <path d="M161.88,49.72c2.85.19,9.76,0,12,2.15,0,0,2.5.39,1.14-6.16-.54-2.6.19-11,.78-13.28s.61-9.73.61-9.73a22,22,0,0,0-9.15-8.44l0-.57-.25.57a4.33,4.33,0,0,1,.18,3c-.46,1.92-3.2,6.38-6,5.33-1.6-.6-2.57-2.31-1.7-6.61l0-2.13a5.67,5.67,0,0,0-4.55.83c-2.25,1.54-.73,8-.34,9.92s1.17,8.79,1.31,10.46a22.18,22.18,0,0,1-1.1,5.85c-.11.18-.67,1.35-1.37,1.42s.78,1.71.78,1.71a7.15,7.15,0,0,0,2.27,3.13C158,48.23,159.66,49.57,161.88,49.72Z" style="fill: #373e5a"/>
            <path d="M155.49,52.35a8.44,8.44,0,0,1,4.78-1.28,8.66,8.66,0,0,0,1.94-.2l10.32-7.47s-.3-2.45-1-8-1-11.25,1.68-12.32,4,1.12,4.56,4.51S179,46.48,177.44,48s-13.83,6.16-13.83,6.16c-.19.28-.39.57-.6.85-.8,1-1.78,1.15-3,1.56s-1.67.9-2.64,1.14a5.62,5.62,0,0,1-2.6-.08c-1-.16-.94-.37-.82-.84a10.76,10.76,0,0,1,1.67-2.45c.32-.29.3-.46.3-.46-.71.13-2,1.51-2.37,1.81s-.8.27-1-.1S153.9,53.45,155.49,52.35Z" style="fill: #fff;stroke: #373e5a;stroke-miterlimit: 10"/>
            <path d="M138.67,40c0-.05,0-.12-.08-.21a2.4,2.4,0,0,0-2.43,0c-1.17.48-2.86,1.68-3.52,1.19s.31-1,.71-1.24a18,18,0,0,1,1.81-.76.9.9,0,0,0-1.18-.13c-.64.46-2.28,1.47-2.65,1s.11-1.33.4-1.85A7.16,7.16,0,0,1,134,35.62a8,8,0,0,1,3.42-.09,20.12,20.12,0,0,0,2.87,0c.82-.57,3.52-2.47,4.78-3.51a29.14,29.14,0,0,0,3.08-2.84c.57-.62,5-12.86,8.81-15h0c-2.05,1.57-1.72,8.1-2.11,9.8-.45,1.94.79,4.33.23,5.91-.32.91-3,3.57-3.89,4.65-2.39,1.27-8,4.16-9.16,4.59" style="fill: #fff;stroke: #373e5a;stroke-miterlimit: 10"/>
            <g>
              <path d="M156.32,7a20.18,20.18,0,0,0-.71,3.62c0,1.29.89,1.83.91,2.61a3.14,3.14,0,0,0,.38,2.08s-.47,1.38.2,1.59a2.51,2.51,0,0,1,.49.2A2.8,2.8,0,0,1,158,18a1.91,1.91,0,0,0,1.76,1.81c1.58.22,4.56-.52,6.7-3.95s2.57-5.29,2.55-8.4a5.56,5.56,0,0,0-6-5.36A7.67,7.67,0,0,0,156.32,7Z" style="fill: #fff;stroke: #373e5a;stroke-miterlimit: 10"/>
              <path d="M166.49,12.47s.18-1,.83-1.19,1.54-.1,1.27,1.19-1.38,2.65-2,2.21" style="fill: #fff;stroke: #373e5a;stroke-miterlimit: 10;fill-rule: evenodd"/>
            </g>
            <path d="M170.06,35.45c0-.2-.18-1.26-.2-1.48-.67-5.59.34-11.23,3-12.3s4.84,1.16,5.44,4.56a37.93,37.93,0,0,1,.12,8A27.24,27.24,0,0,1,170.06,35.45Z" style="fill: #373e5a"/>
            <path d="M153.1,27.79c-.73-.19-2.66-1.77-3.72-2.42A20.12,20.12,0,0,1,155.24,16h0c-1.78,1.88-2,7.16-2.12,8.9A15.9,15.9,0,0,1,153.1,27.79Z" style="fill: #969c9c"/>
          </g>
          <path d="M163.21,1.48c-5.26-.18-8.07,4.06-8.15,5.32a2.53,2.53,0,0,0,.83,2c.16.56.49,1.27,1.13,1.4,1.09.23,3.94-.78,5.39-.13s1.22,1.71,1.65,2.38a1.78,1.78,0,0,0,1.58.79l.38-.38s1.23-1.9,2.6-1.46a11.51,11.51,0,0,0,.36-2A5.9,5.9,0,0,0,163.21,1.48Z" style="fill: #373e5a"/>
          <g>
            <path d="M152.76,9.7A16.74,16.74,0,0,0,157.94,15" style="fill: none;stroke: #373e5a;stroke-linecap: round;stroke-linejoin: round"/>
            <g>
              <path d="M155.53,11.22a8.53,8.53,0,0,1,1.07.49,6.54,6.54,0,0,0,.88.6,2.75,2.75,0,0,0,.78-.15,3.6,3.6,0,0,1,3.43.9c.15.16.41.29.45.56.13,1,1.67-.84,2.49-.76.16,0,0,.16-.1.18l1.62-.1c-.31-.14-3.68,4.35-6.91,3.38-.86-.26-.91-.63-1.35-.83-.42,0-.45.18-1.22.13s-.77-1-1.32-1.22" style="fill: #373e5a"/>
              <g>
                <path d="M155.35,12.77c.43.19.38,1.05,1.3.88,0,0,.33.13.15-.15a9.17,9.17,0,0,0-1.45-.72" style="fill: #fff"/>
                <path d="M158.34,13.91a2.37,2.37,0,0,1,2,.11s.45.51.18.68a3.74,3.74,0,0,1-1.94-.53S158.29,14.12,158.34,13.91Z" style="fill: #fff"/>
              </g>
            </g>
            <path d="M161.14,13a7.56,7.56,0,0,0,2.26-.23,5.5,5.5,0,0,0,2.26-1c-1.4,1.41-.7,1.83-4.25,3.23Z" style="fill: #969c9c"/>
            <path d="M172.08,18.49" style="fill: #373e5a"/>
            <path d="M158.84,2.17a6.23,6.23,0,0,1,4.43-2A6.53,6.53,0,0,1,168,2.79c2.78,3.5,1,7,3.44,10.3v0c1.11,1.61,2.14,3.54,1.06,4a4.11,4.11,0,0,0-.59.29l.59,5.4-.27.11s-2.91,3.94-7.38-4-9-9.2-10.46-9.47a1.19,1.19,0,0,0-1.49,1.15A1.56,1.56,0,0,1,152,9.8C151.12,7.51,157.81,2.88,158.84,2.17Z" style="fill: #373e5a"/>
          </g>
          <g>
            <line x1="16.45" y1="2.24" x2="16.45" y2="165.66" style="fill: none;stroke: #373e5a;stroke-miterlimit: 10;stroke-width: 0.5px"/>
            <path d="M128.51,35.45a364.56,364.56,0,0,0-45.6-18.57A364.59,364.59,0,0,0,15.65,1.53" style="fill: none;stroke: #373e5a;stroke-linecap: round;stroke-linejoin: round"/>
            <path d="M140,43.18c-4.45-2.5-9-4.9-13.61-7.15a.47.47,0,0,1-.22-.64l.88-1.81a.48.48,0,0,1,.64-.22c4.63,2.27,9.26,4.7,13.75,7.23a.48.48,0,0,1,.18.65,1.43,1.43,0,0,1-.06,1,1.48,1.48,0,0,1-.92.78C140.61,43,140.33,43.34,140,43.18Z" style="fill: #373e5a"/>
            <g>
              <path d="M120.83,33.35q-3.29-1.38-6.6-2.67a.61.61,0,0,1-.35-.8l.62-1.61a.62.62,0,0,1,.8-.36q3.39,1.32,6.78,2.74a.52.52,0,0,1,.28.67L121.73,33A.68.68,0,0,1,120.83,33.35Z" style="fill: #373e5a"/>
              <circle cx="118.13" cy="30.63" r="2.42" style="fill: #fff;stroke: #373e5a;stroke-miterlimit: 10"/>
            </g>
            <circle cx="118.13" cy="30.63" r="0.28" style="fill: #373e5a"/>
            <polyline points="118.49 37.25 118.84 36.25 116.85 33.75 117.68 30.64 118.49 30.88 117.35 33.75 118.84 35.92 118.49 37.41" style="fill: none;stroke: #373e5a;stroke-linecap: round;stroke-linejoin: round"/>
            <line x1="96.09" y1="20.93" x2="95.62" y2="21.96" style="fill: none;stroke: #373e5a;stroke-linecap: round;stroke-linejoin: round"/>
            <line x1="83.52" y1="16.23" x2="83.05" y2="17.26" style="fill: none;stroke: #373e5a;stroke-linecap: round;stroke-linejoin: round"/>
            <line x1="63.67" y1="10.71" x2="63.2" y2="11.74" style="fill: none;stroke: #373e5a;stroke-linecap: round;stroke-linejoin: round"/>
            <line x1="41.96" y1="5.56" x2="41.5" y2="6.59" style="fill: none;stroke: #373e5a;stroke-linecap: round;stroke-linejoin: round"/>
            <line x1="16.91" y1="0.5" x2="16.45" y2="1.53" style="fill: none;stroke: #373e5a;stroke-linecap: round;stroke-linejoin: round"/>
            <circle cx="16.68" cy="167.67" r="2" style="fill: none;stroke: #373e5a;stroke-miterlimit: 10"/>
          </g>
          <path d="M142.81,38.83a9.82,9.82,0,0,0-1.19.48,14.41,14.41,0,0,0-1.45.86,5.36,5.36,0,0,1-2.86.65c-.36,0-2.38-.05-2.75-1.05a.95.95,0,0,1,.22-1c.39-.38,1-.22,1.65-.22a4,4,0,0,0,2.19-.73" style="fill: #fff;stroke: #373e5a;stroke-linecap: round;stroke-linejoin: round"/>
          <path d="M.5,211.22c1.88,3.59,2.51,6.52,3.88,10.35,1.2,3.35,1.05,6.33,3.9,8.7a10.26,10.26,0,0,0,7.36,2.22,11.8,11.8,0,0,0,8-4.11c4.38-5.3,4.76-15.08,3.68-21.56-.66-4-2.47-8-6.09-16-2.28-5-3.58-7.27-4.69-11.64a43.69,43.69,0,0,1-1.29-8.73" style="fill: none;stroke: #373e5a;stroke-linecap: round;stroke-linejoin: round"/>
          <path d="M.82,211.55c1.88,3.59,1.7,9.43,3.07,13.26,1.2,3.35,2.33,5.72,5.17,8.08,2,1.68,6.59,1.51,9.21,1.29,3-.26,6-2.83,7.92-5.17,4.38-5.3,4.76-15.08,3.68-21.56-.66-4-2.16-7-5.78-15-2.28-5-4.06-8.89-5.17-13.26a43.69,43.69,0,0,1-1.29-8.73" style="fill: none;stroke: #373e5a;stroke-linecap: round;stroke-linejoin: round"/>
          <path d="M155.36,29.56l.78-4,1-3.61-2.32-5.66-5.66,8.89S154.18,29.46,155.36,29.56Z" style="fill: #373e5a"/>
          <path d="M.34,210.74c.81.16,11,11.8,11,11.8l-6.47-.48Z" style="fill: #373e5a"/>
        </g>
      </g>
    </g>
  </g>
</svg>
