<svg xmlns="http://www.w3.org/2000/svg" xmlns:xlink="http://www.w3.org/1999/xlink" width="364.49" height="355.44" viewBox="0 0 364.49 355.44">
  <defs>
    <clipPath id="clip-path">
      <path d="M97.21,1.08a20,20,0,0,1,2.34.26,20.43,20.43,0,0,1,2.33.54,20.71,20.71,0,0,1,4.48,1.92L91.53,18.54a20.42,20.42,0,0,0-4.42-1.89,20.16,20.16,0,0,0-2.29-.53,19.74,19.74,0,0,0-2.31-.26Z" style="fill: none"/>
    </clipPath>
    <clipPath id="clip-path-2">
      <path d="M106.36,3.8a461.82,461.82,0,0,0,53.24,28.94,495.55,495.55,0,0,0,57.19,22.21A525.63,525.63,0,0,0,277,70.29a548.59,548.59,0,0,0,62.3,8.34L321.42,92.27a541.48,541.48,0,0,1-61.49-8.2A518.59,518.59,0,0,1,200.5,69a488.72,488.72,0,0,1-56.44-21.89A455.29,455.29,0,0,1,91.53,18.54Z" style="fill: none"/>
    </clipPath>
    <clipPath id="clip-path-3">
      <polygon points="339.29 78.63 340.31 79.15 322.43 92.78 321.42 92.27 339.29 78.63" style="fill: none"/>
    </clipPath>
    <clipPath id="clip-path-4">
      <path d="M340.31,79.15a24.18,24.18,0,0,1,6.22,4.37,34.45,34.45,0,0,1,5.21,6.33,35.37,35.37,0,0,1,3.64,7.38,25.82,25.82,0,0,1,1.51,7.52L338.79,118a25.46,25.46,0,0,0-1.49-7.42,34.86,34.86,0,0,0-3.59-7.28,34,34,0,0,0-5.14-6.24,23.84,23.84,0,0,0-6.14-4.31Z" style="fill: none"/>
    </clipPath>
    <clipPath id="clip-path-5">
      <polygon points="356.89 104.75 363.22 277.33 344.94 288.34 338.79 118.03 356.89 104.75" style="fill: none"/>
    </clipPath>
    <clipPath id="clip-path-6">
      <polygon points="363.22 277.33 363.52 285.59 345.24 296.49 344.94 288.34 363.22 277.33" style="fill: none"/>
    </clipPath>
    <clipPath id="clip-path-7">
      <polygon points="363.52 285.59 363.62 288.17 345.33 299.04 345.24 296.49 363.52 285.59" style="fill: none"/>
    </clipPath>
    <clipPath id="clip-path-8">
      <path d="M363.62,288.17q.17,4.64.26,9.23t.11,9.12q0,4.54,0,9t-.19,8.91l-18.31,10.39q.13-4.37.19-8.79t0-8.9q0-4.47-.1-9t-.25-9.11Z" style="fill: none"/>
    </clipPath>
  </defs>
  <title>icon-top-right-shield</title>
  <g id="Layer_2" data-name="Layer 2">
    <g id="Benefits_-_1200" data-name="Benefits - 1200">
      <g id="Shield">
        <g id="Piece">
          <g>
            <g>
              <g style="isolation: isolate">
                <g style="clip-path: url(#clip-path)">
                  <path d="M97.21,1.08,82.5,15.86a19.74,19.74,0,0,1,2.31.26,20.16,20.16,0,0,1,2.29.53,20.42,20.42,0,0,1,4.42,1.89L106.36,3.8a20.71,20.71,0,0,0-4.48-1.92,20.43,20.43,0,0,0-2.33-.54A20,20,0,0,0,97.21,1.08Z" style="fill: none;stroke: #000;stroke-miterlimit: 10;stroke-width: 0.25px"/>
                  <line x1="100.33" y1="1.49" x2="85.58" y2="16.26" style="fill: none;stroke: #000;stroke-miterlimit: 10;stroke-width: 0.25px"/>
                  <line x1="103.4" y1="2.4" x2="88.61" y2="17.16" style="fill: none;stroke: #000;stroke-miterlimit: 10;stroke-width: 0.25px"/>
                  <path d="M97.21,1.08a20,20,0,0,1,2.34.26,20.43,20.43,0,0,1,2.33.54,20.71,20.71,0,0,1,4.48,1.92L91.53,18.54a20.42,20.42,0,0,0-4.42-1.89,20.16,20.16,0,0,0-2.29-.53,19.74,19.74,0,0,0-2.31-.26Z" style="fill: none;stroke: #000;stroke-miterlimit: 10;stroke-width: 0.25px"/>
                </g>
              </g>
              <g style="isolation: isolate">
                <g style="clip-path: url(#clip-path-2)">
                  <path d="M106.36,3.8,91.53,18.54a455.29,455.29,0,0,0,52.53,28.53A488.72,488.72,0,0,0,200.5,69a518.59,518.59,0,0,0,59.43,15.11,541.48,541.48,0,0,0,61.49,8.2l17.87-13.64A548.59,548.59,0,0,1,277,70.29a525.63,525.63,0,0,1-60.21-15.34,495.55,495.55,0,0,1-57.19-22.21A461.82,461.82,0,0,1,106.36,3.8Z" style="fill: none;stroke: #000;stroke-miterlimit: 10;stroke-width: 0.25px"/>
                  <line x1="178.26" y1="40.9" x2="162.49" y2="55.11" style="fill: none;stroke: #000;stroke-miterlimit: 10;stroke-width: 0.25px"/>
                  <line x1="256.65" y1="65.95" x2="239.84" y2="79.79" style="fill: none;stroke: #000;stroke-miterlimit: 10;stroke-width: 0.25px"/>
                  <path d="M106.36,3.8a461.82,461.82,0,0,0,53.24,28.94,495.55,495.55,0,0,0,57.19,22.21A525.63,525.63,0,0,0,277,70.29a548.59,548.59,0,0,0,62.3,8.34L321.42,92.27a541.48,541.48,0,0,1-61.49-8.2A518.59,518.59,0,0,1,200.5,69a488.72,488.72,0,0,1-56.44-21.89A455.29,455.29,0,0,1,91.53,18.54Z" style="fill: none;stroke: #000;stroke-miterlimit: 10;stroke-width: 0.25px"/>
                </g>
              </g>
              <g style="isolation: isolate">
                <g style="clip-path: url(#clip-path-3)">
                  <polygon points="339.29 78.63 340.31 79.15 322.43 92.78 321.42 92.27 339.29 78.63" style="fill: none;stroke: #000;stroke-miterlimit: 10;stroke-width: 0.25px"/>
                </g>
              </g>
              <g style="isolation: isolate">
                <g style="clip-path: url(#clip-path-4)">
                  <path d="M340.31,79.15,322.43,92.78a23.84,23.84,0,0,1,6.14,4.31,34,34,0,0,1,5.14,6.24,34.86,34.86,0,0,1,3.59,7.28,25.46,25.46,0,0,1,1.49,7.42l18.11-13.29a25.82,25.82,0,0,0-1.51-7.52,35.37,35.37,0,0,0-3.64-7.38,34.45,34.45,0,0,0-5.21-6.33A24.18,24.18,0,0,0,340.31,79.15Z" style="fill: none;stroke: #000;stroke-miterlimit: 10;stroke-width: 0.25px"/>
                  <line x1="348.41" y1="85.45" x2="330.43" y2="98.99" style="fill: none;stroke: #000;stroke-miterlimit: 10;stroke-width: 0.25px"/>
                  <line x1="354.38" y1="94.7" x2="336.31" y2="108.12" style="fill: none;stroke: #000;stroke-miterlimit: 10;stroke-width: 0.25px"/>
                  <path d="M340.31,79.15a24.18,24.18,0,0,1,6.22,4.37,34.45,34.45,0,0,1,5.21,6.33,35.37,35.37,0,0,1,3.64,7.38,25.82,25.82,0,0,1,1.51,7.52L338.79,118a25.46,25.46,0,0,0-1.49-7.42,34.86,34.86,0,0,0-3.59-7.28,34,34,0,0,0-5.14-6.24,23.84,23.84,0,0,0-6.14-4.31Z" style="fill: none;stroke: #000;stroke-miterlimit: 10;stroke-width: 0.25px"/>
                </g>
              </g>
              <g style="isolation: isolate">
                <g style="clip-path: url(#clip-path-5)">
                  <polygon points="356.89 104.75 363.22 277.33 344.94 288.34 338.79 118.03 356.89 104.75" style="fill: none;stroke: #000;stroke-miterlimit: 10;stroke-width: 0.25px"/>
                </g>
              </g>
              <g style="isolation: isolate">
                <g style="clip-path: url(#clip-path-6)">
                  <polygon points="363.22 277.33 363.52 285.59 345.24 296.49 344.94 288.34 363.22 277.33" style="fill: none;stroke: #000;stroke-miterlimit: 10;stroke-width: 0.25px"/>
                </g>
              </g>
              <g style="isolation: isolate">
                <g style="clip-path: url(#clip-path-7)">
                  <polygon points="363.52 285.59 363.62 288.17 345.33 299.04 345.24 296.49 363.52 285.59" style="fill: none;stroke: #000;stroke-miterlimit: 10;stroke-width: 0.25px"/>
                </g>
              </g>
              <g style="isolation: isolate">
                <g style="clip-path: url(#clip-path-8)">
                  <path d="M363.62,288.17,345.33,299q.17,4.58.25,9.11t.1,9q0,4.48,0,8.9t-.19,8.79l18.31-10.39q.13-4.43.19-8.91t0-9q0-4.53-.11-9.12T363.62,288.17Z" style="fill: none;stroke: #000;stroke-miterlimit: 10;stroke-width: 0.25px"/>
                  <line x1="363.93" y1="300.46" x2="345.64" y2="311.17" style="fill: none;stroke: #000;stroke-miterlimit: 10;stroke-width: 0.25px"/>
                  <line x1="363.98" y1="312.56" x2="345.67" y2="323.1" style="fill: none;stroke: #000;stroke-miterlimit: 10;stroke-width: 0.25px"/>
                  <path d="M363.62,288.17q.17,4.64.26,9.23t.11,9.12q0,4.54,0,9t-.19,8.91l-18.31,10.39q.13-4.37.19-8.79t0-8.9q0-4.47-.1-9t-.25-9.11Z" style="fill: none;stroke: #000;stroke-miterlimit: 10;stroke-width: 0.25px"/>
                </g>
              </g>
            </g>
            <g>
              <g style="clip-path: url(#clip-path)">
                <path d="M97.21,1.08,82.5,15.86a19.74,19.74,0,0,1,2.31.26,20.16,20.16,0,0,1,2.29.53,20.42,20.42,0,0,1,4.42,1.89L106.36,3.8a20.71,20.71,0,0,0-4.48-1.92,20.43,20.43,0,0,0-2.33-.54A20,20,0,0,0,97.21,1.08Z" style="fill: none;stroke: #4e7096;stroke-miterlimit: 10"/>
                <line x1="100.33" y1="1.49" x2="85.58" y2="16.26" style="fill: none;stroke: #4e7096;stroke-miterlimit: 10"/>
                <line x1="103.4" y1="2.4" x2="88.61" y2="17.16" style="fill: none;stroke: #4e7096;stroke-miterlimit: 10"/>
                <path d="M97.21,1.08a20,20,0,0,1,2.34.26,20.43,20.43,0,0,1,2.33.54,20.71,20.71,0,0,1,4.48,1.92L91.53,18.54a20.42,20.42,0,0,0-4.42-1.89,20.16,20.16,0,0,0-2.29-.53,19.74,19.74,0,0,0-2.31-.26Z" style="fill: none;stroke: #4e7096;stroke-miterlimit: 10"/>
              </g>
              <g style="clip-path: url(#clip-path-2)">
                <path d="M106.36,3.8,91.53,18.54a455.29,455.29,0,0,0,52.53,28.53A488.72,488.72,0,0,0,200.5,69a518.59,518.59,0,0,0,59.43,15.11,541.48,541.48,0,0,0,61.49,8.2l17.87-13.64A548.59,548.59,0,0,1,277,70.29a525.63,525.63,0,0,1-60.21-15.34,495.55,495.55,0,0,1-57.19-22.21A461.82,461.82,0,0,1,106.36,3.8Z" style="fill: none;stroke: #4e7096;stroke-miterlimit: 10"/>
                <line x1="178.26" y1="40.9" x2="162.49" y2="55.11" style="fill: none;stroke: #4e7096;stroke-miterlimit: 10"/>
                <line x1="256.65" y1="65.95" x2="239.84" y2="79.79" style="fill: none;stroke: #4e7096;stroke-miterlimit: 10"/>
                <path d="M106.36,3.8a461.82,461.82,0,0,0,53.24,28.94,495.55,495.55,0,0,0,57.19,22.21A525.63,525.63,0,0,0,277,70.29a548.59,548.59,0,0,0,62.3,8.34L321.42,92.27a541.48,541.48,0,0,1-61.49-8.2A518.59,518.59,0,0,1,200.5,69a488.72,488.72,0,0,1-56.44-21.89A455.29,455.29,0,0,1,91.53,18.54Z" style="fill: none;stroke: #4e7096;stroke-miterlimit: 10"/>
              </g>
              <g style="clip-path: url(#clip-path-3)">
                <polygon points="339.29 78.63 340.31 79.15 322.43 92.78 321.42 92.27 339.29 78.63" style="fill: none;stroke: #4e7096;stroke-miterlimit: 10"/>
              </g>
              <g style="clip-path: url(#clip-path-4)">
                <path d="M340.31,79.15,322.43,92.78a23.84,23.84,0,0,1,6.14,4.31,34,34,0,0,1,5.14,6.24,34.86,34.86,0,0,1,3.59,7.28,25.46,25.46,0,0,1,1.49,7.42l18.11-13.29a25.82,25.82,0,0,0-1.51-7.52,35.37,35.37,0,0,0-3.64-7.38,34.45,34.45,0,0,0-5.21-6.33A24.18,24.18,0,0,0,340.31,79.15Z" style="fill: none;stroke: #4e7096;stroke-miterlimit: 10"/>
                <line x1="348.41" y1="85.45" x2="330.43" y2="98.99" style="fill: none;stroke: #4e7096;stroke-miterlimit: 10"/>
                <line x1="354.38" y1="94.7" x2="336.31" y2="108.12" style="fill: none;stroke: #4e7096;stroke-miterlimit: 10"/>
                <path d="M340.31,79.15a24.18,24.18,0,0,1,6.22,4.37,34.45,34.45,0,0,1,5.21,6.33,35.37,35.37,0,0,1,3.64,7.38,25.82,25.82,0,0,1,1.51,7.52L338.79,118a25.46,25.46,0,0,0-1.49-7.42,34.86,34.86,0,0,0-3.59-7.28,34,34,0,0,0-5.14-6.24,23.84,23.84,0,0,0-6.14-4.31Z" style="fill: none;stroke: #4e7096;stroke-miterlimit: 10"/>
              </g>
              <g style="clip-path: url(#clip-path-5)">
                <polygon points="356.89 104.75 363.22 277.33 344.94 288.34 338.79 118.03 356.89 104.75" style="fill: none;stroke: #4e7096;stroke-miterlimit: 10"/>
              </g>
              <g style="clip-path: url(#clip-path-6)">
                <polygon points="363.22 277.33 363.52 285.59 345.24 296.49 344.94 288.34 363.22 277.33" style="fill: none;stroke: #4e7096;stroke-miterlimit: 10"/>
              </g>
              <g style="clip-path: url(#clip-path-7)">
                <polygon points="363.52 285.59 363.62 288.17 345.33 299.04 345.24 296.49 363.52 285.59" style="fill: none;stroke: #4e7096;stroke-miterlimit: 10"/>
              </g>
              <g style="clip-path: url(#clip-path-8)">
                <path d="M363.62,288.17,345.33,299q.17,4.58.25,9.11t.1,9q0,4.48,0,8.9t-.19,8.79l18.31-10.39q.13-4.43.19-8.91t0-9q0-4.53-.11-9.12T363.62,288.17Z" style="fill: none;stroke: #4e7096;stroke-miterlimit: 10"/>
                <line x1="363.93" y1="300.46" x2="345.64" y2="311.17" style="fill: none;stroke: #4e7096;stroke-miterlimit: 10"/>
                <line x1="363.98" y1="312.56" x2="345.67" y2="323.1" style="fill: none;stroke: #4e7096;stroke-miterlimit: 10"/>
                <path d="M363.62,288.17q.17,4.64.26,9.23t.11,9.12q0,4.54,0,9t-.19,8.91l-18.31,10.39q.13-4.37.19-8.79t0-8.9q0-4.47-.1-9t-.25-9.11Z" style="fill: none;stroke: #4e7096;stroke-miterlimit: 10"/>
              </g>
            </g>
          </g>
          <g>
            <g>
              <polygon points="363.75 323.38 345.45 333.77 91.88 335.34 106.85 324.88 363.75 323.38" style="fill: #03a9f4"/>
              <polygon points="106.85 324.88 91.88 335.34 82.5 14.78 97.21 0 106.85 324.88" style="fill: #03a9f4"/>
            </g>
            <path d="M98.24,1.64a19.77,19.77,0,0,1,2.33.26,20.21,20.21,0,0,1,2.31.54,20.52,20.52,0,0,1,4.45,1.92,458.3,458.3,0,0,0,52.94,29,490.88,490.88,0,0,0,56.87,22.22A520,520,0,0,0,277,70.89a542.24,542.24,0,0,0,61.94,8.35l1,.52a24,24,0,0,1,6.19,4.37,34.43,34.43,0,0,1,5.18,6.33,35.49,35.49,0,0,1,3.62,7.38,26,26,0,0,1,1.51,7.53l6.29,172.69.3,8.26.09,2.59q.17,4.65.26,9.24t.11,9.13q0,4.54,0,9c0,3-.1,4.88-.19,7.83l-255.45,1.5Z" style="fill: #03a9f4;opacity: 0.6000000000000001"/>
            <path d="M97.92,1.61a25.63,25.63,0,0,1,2.65.3,20.21,20.21,0,0,1,2.31.54,20.52,20.52,0,0,1,4.45,1.92,458.3,458.3,0,0,0,52.94,29,490.88,490.88,0,0,0,56.87,22.22A520,520,0,0,0,277,70.89a542.24,542.24,0,0,0,61.94,8.35l1,.52a24,24,0,0,1,6.19,4.37,34.43,34.43,0,0,1,5.18,6.33,35.49,35.49,0,0,1,3.62,7.38,26,26,0,0,1,1.51,7.53l6.29,172.69.3,8.26.09,2.59q.17,4.65.26,9.24t.11,9.13q0,4.54,0,9c0,3-.1,4.88-.19,7.83l-256.11,1Z" style="fill: none;stroke: #4e7096;stroke-miterlimit: 10"/>
          </g>
          <g>
            <line x1="345.5" y1="333.94" x2="187.5" y2="354.94" style="fill: none;stroke: #d1d5db;stroke-linecap: round;stroke-linejoin: round"/>
            <line x1="317.07" y1="334.15" x2="166.8" y2="354.87" style="fill: none;stroke: #d4d8de;stroke-linecap: round;stroke-linejoin: round"/>
            <line x1="288.65" y1="334.37" x2="146.09" y2="354.81" style="fill: none;stroke: #d7dbe0;stroke-linecap: round;stroke-linejoin: round"/>
            <line x1="260.22" y1="334.58" x2="125.39" y2="354.75" style="fill: none;stroke: #dadee3;stroke-linecap: round;stroke-linejoin: round"/>
            <line x1="231.8" y1="334.79" x2="104.69" y2="354.68" style="fill: none;stroke: #dde1e6;stroke-linecap: round;stroke-linejoin: round"/>
            <line x1="203.37" y1="335" x2="83.98" y2="354.62" style="fill: none;stroke: #e1e4e8;stroke-linecap: round;stroke-linejoin: round"/>
            <line x1="174.94" y1="335.22" x2="63.28" y2="354.55" style="fill: none;stroke: #e4e7eb;stroke-linecap: round;stroke-linejoin: round"/>
            <line x1="146.52" y1="335.43" x2="42.57" y2="354.49" style="fill: none;stroke: #e7eaee;stroke-linecap: round;stroke-linejoin: round"/>
            <line x1="118.09" y1="335.64" x2="21.87" y2="354.42" style="fill: none;stroke: #eaedf0;stroke-linecap: round;stroke-linejoin: round"/>
            <line x1="89.67" y1="335.86" x2="1.17" y2="354.36" style="fill: none;stroke: #edf0f3;stroke-linecap: round;stroke-linejoin: round"/>
          </g>
          <g>
            <line x1="89.17" y1="336.11" x2="1.42" y2="354.36" style="fill: none;stroke: #edf0f3;stroke-miterlimit: 10"/>
            <line x1="89.02" y1="329.65" x2="1.4" y2="349.72" style="fill: none;stroke: #eceff3;stroke-linecap: round;stroke-linejoin: round"/>
            <line x1="88.87" y1="323.2" x2="1.38" y2="345.07" style="fill: none;stroke: #eceff2;stroke-linecap: round;stroke-linejoin: round"/>
            <line x1="88.72" y1="316.74" x2="1.36" y2="340.43" style="fill: none;stroke: #ebeef2;stroke-linecap: round;stroke-linejoin: round"/>
            <line x1="88.57" y1="310.29" x2="1.34" y2="335.79" style="fill: none;stroke: #ebeef1;stroke-linecap: round;stroke-linejoin: round"/>
            <line x1="88.43" y1="303.84" x2="1.32" y2="331.15" style="fill: none;stroke: #eaedf1;stroke-linecap: round;stroke-linejoin: round"/>
            <line x1="88.28" y1="297.38" x2="1.3" y2="326.51" style="fill: none;stroke: #eaedf0;stroke-linecap: round;stroke-linejoin: round"/>
            <line x1="88.13" y1="290.93" x2="1.29" y2="321.87" style="fill: none;stroke: #e9ecf0;stroke-linecap: round;stroke-linejoin: round"/>
            <line x1="87.98" y1="284.47" x2="1.27" y2="317.23" style="fill: none;stroke: #e8ecef;stroke-linecap: round;stroke-linejoin: round"/>
            <line x1="87.84" y1="278.02" x2="1.25" y2="312.59" style="fill: none;stroke: #e8ebef;stroke-linecap: round;stroke-linejoin: round"/>
            <line x1="87.69" y1="271.57" x2="1.23" y2="307.94" style="fill: none;stroke: #e7eaee;stroke-linecap: round;stroke-linejoin: round"/>
            <line x1="87.54" y1="265.11" x2="1.21" y2="303.3" style="fill: none;stroke: #e7eaee;stroke-linecap: round;stroke-linejoin: round"/>
            <line x1="87.39" y1="258.66" x2="1.19" y2="298.66" style="fill: none;stroke: #e6e9ed;stroke-linecap: round;stroke-linejoin: round"/>
            <line x1="87.24" y1="252.2" x2="1.17" y2="294.02" style="fill: none;stroke: #e6e9ed;stroke-linecap: round;stroke-linejoin: round"/>
            <line x1="87.1" y1="245.75" x2="1.15" y2="289.38" style="fill: none;stroke: #e5e8ec;stroke-linecap: round;stroke-linejoin: round"/>
            <line x1="86.95" y1="239.3" x2="1.14" y2="284.74" style="fill: none;stroke: #e4e8ec;stroke-linecap: round;stroke-linejoin: round"/>
            <line x1="86.8" y1="232.84" x2="1.12" y2="280.1" style="fill: none;stroke: #e4e7eb;stroke-linecap: round;stroke-linejoin: round"/>
            <line x1="86.65" y1="226.39" x2="1.1" y2="275.46" style="fill: none;stroke: #e3e7eb;stroke-linecap: round;stroke-linejoin: round"/>
            <line x1="86.5" y1="219.93" x2="1.08" y2="270.82" style="fill: none;stroke: #e3e6ea;stroke-linecap: round;stroke-linejoin: round"/>
            <line x1="86.36" y1="213.48" x2="1.06" y2="266.17" style="fill: none;stroke: #e2e6ea;stroke-linecap: round;stroke-linejoin: round"/>
            <line x1="86.21" y1="207.02" x2="1.04" y2="261.53" style="fill: none;stroke: #e2e5e9;stroke-linecap: round;stroke-linejoin: round"/>
            <line x1="86.06" y1="200.57" x2="1.02" y2="256.89" style="fill: none;stroke: #e1e4e9;stroke-linecap: round;stroke-linejoin: round"/>
            <line x1="85.91" y1="194.12" x2="1.01" y2="252.25" style="fill: none;stroke: #e0e4e8;stroke-linecap: round;stroke-linejoin: round"/>
            <line x1="85.76" y1="187.66" x2="0.99" y2="247.61" style="fill: none;stroke: #e0e3e8;stroke-linecap: round;stroke-linejoin: round"/>
            <line x1="85.62" y1="181.21" x2="0.97" y2="242.97" style="fill: none;stroke: #dfe3e7;stroke-linecap: round;stroke-linejoin: round"/>
            <line x1="85.47" y1="174.75" x2="0.95" y2="238.33" style="fill: none;stroke: #dfe2e7;stroke-linecap: round;stroke-linejoin: round"/>
            <line x1="85.32" y1="168.3" x2="0.93" y2="233.69" style="fill: none;stroke: #dee2e6;stroke-linecap: round;stroke-linejoin: round"/>
            <line x1="85.17" y1="161.85" x2="0.91" y2="229.05" style="fill: none;stroke: #dee1e6;stroke-linecap: round;stroke-linejoin: round"/>
            <line x1="85.02" y1="155.39" x2="0.89" y2="224.4" style="fill: none;stroke: #dde1e5;stroke-linecap: round;stroke-linejoin: round"/>
            <line x1="84.88" y1="148.94" x2="0.87" y2="219.76" style="fill: none;stroke: #dce0e5;stroke-linecap: round;stroke-linejoin: round"/>
            <line x1="84.73" y1="142.48" x2="0.86" y2="215.12" style="fill: none;stroke: #dcdfe4;stroke-linecap: round;stroke-linejoin: round"/>
            <line x1="84.58" y1="136.03" x2="0.84" y2="210.48" style="fill: none;stroke: #dbdfe4;stroke-linecap: round;stroke-linejoin: round"/>
            <line x1="84.43" y1="129.58" x2="0.82" y2="205.84" style="fill: none;stroke: #dbdee3;stroke-linecap: round;stroke-linejoin: round"/>
            <line x1="84.28" y1="123.12" x2="0.8" y2="201.2" style="fill: none;stroke: #dadee3;stroke-linecap: round;stroke-linejoin: round"/>
            <line x1="84.14" y1="116.67" x2="0.78" y2="196.56" style="fill: none;stroke: #dadde2;stroke-linecap: round;stroke-linejoin: round"/>
            <line x1="83.99" y1="110.21" x2="0.76" y2="191.92" style="fill: none;stroke: #d9dde2;stroke-linecap: round;stroke-linejoin: round"/>
            <line x1="83.84" y1="103.76" x2="0.74" y2="187.27" style="fill: none;stroke: #d8dce1;stroke-linecap: round;stroke-linejoin: round"/>
            <line x1="83.69" y1="97.31" x2="0.72" y2="182.63" style="fill: none;stroke: #d8dce1;stroke-linecap: round;stroke-linejoin: round"/>
            <line x1="83.54" y1="90.85" x2="0.71" y2="177.99" style="fill: none;stroke: #d7dbe0;stroke-linecap: round;stroke-linejoin: round"/>
            <line x1="83.4" y1="84.4" x2="0.69" y2="173.35" style="fill: none;stroke: #d7dbe0;stroke-linecap: round;stroke-linejoin: round"/>
            <line x1="83.25" y1="77.94" x2="0.67" y2="168.71" style="fill: none;stroke: #d6dadf;stroke-linecap: round;stroke-linejoin: round"/>
            <line x1="83.1" y1="71.49" x2="0.65" y2="164.07" style="fill: none;stroke: #d6d9df;stroke-linecap: round;stroke-linejoin: round"/>
            <line x1="82.95" y1="65.03" x2="0.63" y2="159.43" style="fill: none;stroke: #d5d9de;stroke-linecap: round;stroke-linejoin: round"/>
            <line x1="82.8" y1="58.58" x2="0.61" y2="154.79" style="fill: none;stroke: #d4d8de;stroke-linecap: round;stroke-linejoin: round"/>
            <line x1="82.66" y1="52.13" x2="0.59" y2="150.15" style="fill: none;stroke: #d4d8dd;stroke-linecap: round;stroke-linejoin: round"/>
            <line x1="82.51" y1="45.67" x2="0.57" y2="145.5" style="fill: none;stroke: #d3d7dd;stroke-linecap: round;stroke-linejoin: round"/>
            <line x1="82.36" y1="39.22" x2="0.56" y2="140.86" style="fill: none;stroke: #d3d7dc;stroke-linecap: round;stroke-linejoin: round"/>
            <line x1="82.21" y1="32.76" x2="0.54" y2="136.22" style="fill: none;stroke: #d2d6dc;stroke-linecap: round;stroke-linejoin: round"/>
            <line x1="82.06" y1="26.31" x2="0.52" y2="131.58" style="fill: none;stroke: #d2d6db;stroke-linecap: round;stroke-linejoin: round"/>
            <line x1="81.92" y1="19.86" x2="0.5" y2="126.94" style="fill: none;stroke: #d1d5db;stroke-linecap: round;stroke-linejoin: round"/>
          </g>
        </g>
        <g id="reflection" style="opacity: 0.30000000000000004">
          <path d="M106.42,313.25,276.1,71.91l-.1,0a520,520,0,0,1-59.87-15.35,490.84,490.84,0,0,1-56.87-22.22l-1.94-.92L100.9,126.52Z" style="fill: #fff;opacity: 0.55"/>
          <path d="M310.49,77.42q-12.7-1.62-25.25-3.83l-176.69,253,21.9-.13Z" style="fill: #fff;opacity: 0.55"/>
        </g>
        <g id="Text">
          <g>
            <text transform="translate(172.06 241.05)" style="font-size: 15px;fill: #373e5a;font-family: Lato-Regular, Lato">D<tspan x="11.41" y="0" style="letter-spacing: -0.006966145833333334em">D</tspan><tspan x="22.71" y="0" style="letter-spacing: -0.014973958333333334em">o</tspan><tspan x="30.99" y="0" style="letter-spacing: -0.00006510416666666667em">S </tspan><tspan x="42.97" y="0" style="letter-spacing: -0.0095703125em">P</tspan><tspan x="51.83" y="0" style="letter-spacing: -0.020442708333333334em">r</tspan><tspan x="56.99" y="0" style="letter-spacing: -0.011002604166666667em">e</tspan><tspan x="64.74" y="0" style="letter-spacing: -0.013997395833333334em">v</tspan><tspan x="72.27" y="0">e</tspan><tspan x="80.19" y="0" style="letter-spacing: -0.00703125em">n</tspan><tspan x="88.46" y="0">tion</tspan></text>
            <text transform="translate(172.06 214.05)" style="font-size: 15px;fill: #373e5a;font-family: Lato-Regular, Lato"><tspan style="letter-spacing: -0.0240234375em">Z</tspan><tspan x="8.67" y="0">e</tspan><tspan x="16.59" y="0" style="letter-spacing: -0.0205078125em">r</tspan><tspan x="21.74" y="0">o </tspan><tspan x="34.09" y="0" style="letter-spacing: -0.012955729166666667em">D</tspan><tspan x="45.3" y="0" style="letter-spacing: -0.011979166666666667em">a</tspan><tspan x="52.58" y="0" style="letter-spacing: -0.024479166666666666em">y</tspan><tspan x="59.94" y="0"> </tspan><tspan x="63.78" y="0" style="letter-spacing: -0.0150390625em">U</tspan><tspan x="74.59" y="0">pd</tspan><tspan x="91.39" y="0" style="letter-spacing: -0.006510416666666667em">a</tspan><tspan x="98.75" y="0" style="letter-spacing: -0.0024739583333333332em">t</tspan><tspan x="104.09" y="0" style="letter-spacing: 0.00006510416666666667em">es</tspan></text>
            <text transform="translate(172.06 187.05)" style="font-size: 15px;fill: #373e5a;font-family: Lato-Regular, Lato"><tspan style="letter-spacing: -0.0099609375em">B</tspan><tspan x="9.55" y="0">lock</tspan><tspan x="36.38" y="0" style="letter-spacing: -0.033528645833333336em"> </tspan><tspan x="39.71" y="0" style="letter-spacing: -0.030013020833333334em">A</tspan><tspan x="49.42" y="0">ttacks &amp; </tspan><tspan x="106.75" y="0" style="letter-spacing: -0.014973958333333334em">H</tspan><tspan x="117.98" y="0">acks</tspan></text>
            <text transform="translate(172.06 161.05)" style="font-size: 15px;fill: #373e5a;font-family: Lato-Regular, Lato"><tspan style="letter-spacing: -0.022526041666666666em">S</tspan><tspan x="7.8" y="0" style="letter-spacing: -0.0024739583333333332em">t</tspan><tspan x="13.14" y="0">op </tspan><tspan x="33.89" y="0" style="letter-spacing: -0.0150390625em">M</tspan><tspan x="47.59" y="0">al</tspan><tspan x="58.59" y="0" style="letter-spacing: -0.005989583333333334em">w</tspan><tspan x="70.28" y="0" style="letter-spacing: -0.00006510416666666667em">a</tspan><tspan x="77.74" y="0" style="letter-spacing: -0.020442708333333334em">r</tspan><tspan x="82.89" y="0">e</tspan></text>
          </g>
          <circle id="bullet" cx="162.44" cy="155.24" r="1.52" style="fill: #373e5a"/>
          <circle id="bullet-2" data-name="bullet" cx="162.44" cy="181.24" r="1.52" style="fill: #373e5a"/>
          <circle id="bullet-3" data-name="bullet" cx="162.44" cy="209.24" r="1.52" style="fill: #373e5a"/>
          <circle id="bullet-4" data-name="bullet" cx="162.44" cy="235.24" r="1.52" style="fill: #373e5a"/>
          <text transform="translate(160.41 126.58)" style="font-size: 20px;font-family: Montserrat-MediumItalic, Montserrat MediumItalic;font-style: italic;letter-spacing: 0.034033203125em">P<tspan x="11.32" y="0" style="letter-spacing: 0.039990234375em">r</tspan><tspan x="18.66" y="0" style="letter-spacing: 0.05em">o</tspan><tspan x="30.64" y="0" style="letter-spacing: 0.043994140625em">t</tspan><tspan x="38.14" y="0" style="letter-spacing: 0.050048828125em">e</tspan><tspan x="49.16" y="0" style="letter-spacing: 0.06298828125em">c</tspan><tspan x="59.38" y="0" style="letter-spacing: 0.049951171875em">t</tspan></text>
        </g>
      </g>
    </g>
  </g>
</svg>
