<svg xmlns="http://www.w3.org/2000/svg" width="37.91" height="41" viewBox="0 0 37.91 41">
  <title>icon-hacker</title>
  <g id="Layer_2" data-name="Layer 2">
    <g id="Home_-_1200" data-name="Home - 1200">
      <g id="First_Module" data-name="First Module">
        <g id="Threats">
          <g id="icon">
            <path d="M29.52,37.84l6.27-1.27a1.81,1.81,0,0,0,1.58-2.13l-1.74-7.19c-.56-2.83-.91-3.68-5-4.57h-.13c.07-1.05.11-2.11.12-2.23A26.49,26.49,0,0,0,28.36,8.07a14.74,14.74,0,0,0-4.47-5.45A14.56,14.56,0,0,0,20.41.76c-1.57-.59-2.57-.1-4,.65a13.8,13.8,0,0,0-2.9,2A15.92,15.92,0,0,0,9.56,9,28.36,28.36,0,0,0,7.73,22.63l-.46,0c-4.08.89-4.43,1.74-5,4.57L.55,34.44a1.81,1.81,0,0,0,1.58,2.13l6.63,1.27" style="fill: #fff;stroke: #3f4563;stroke-linecap: round;stroke-linejoin: round"/>
            <path d="M21.77,27.09a5,5,0,0,0,1.8-3.38V21l-.22.17a9.05,9.05,0,0,1-1.77,1,5.82,5.82,0,0,1-2.45.78,7.11,7.11,0,0,1-2.7-.93,11,11,0,0,1-1.62-.93l0,0v2.55a5,5,0,0,0,1.8,3.38" style="fill: #fff;stroke: #3f4563;stroke-linecap: round;stroke-linejoin: round"/>
            <path d="M11.63,12.62s.65,1.92.8,2.45c.25.9.22,1.9.44,2.81A5.75,5.75,0,0,0,14,20.35a7.86,7.86,0,0,0,2.5,1.72,7.11,7.11,0,0,0,2.7.93,5.82,5.82,0,0,0,2.45-.78,9.05,9.05,0,0,0,1.77-1,4.82,4.82,0,0,0,1.3-1.34v0c1-1.7,1-4.25,1.14-4.77s.81-2.45.81-2.45S19.91,1.22,11.63,12.62Z" style="fill: #fff;stroke: #3f4563;stroke-linecap: round;stroke-linejoin: round"/>
            <path d="M19.47,11a6.15,6.15,0,0,1,3-.52l.12,0a11.5,11.5,0,0,1,2.32.81.57.57,0,0,1,.29.64l-.32,1.35a.58.58,0,0,1-.32.39,4.56,4.56,0,0,1-4-.07.58.58,0,0,1-.21-.18A5.37,5.37,0,0,1,19.47,11Z" style="fill: none;stroke: #3f4563;stroke-linecap: round;stroke-linejoin: round"/>
            <path d="M18.59,11a6.15,6.15,0,0,0-3-.52l-.12,0a11.5,11.5,0,0,0-2.32.81.57.57,0,0,0-.29.64l.32,1.35a.58.58,0,0,0,.32.39,4.56,4.56,0,0,0,4-.07.58.58,0,0,0,.21-.18A5.37,5.37,0,0,0,18.59,11Z" style="fill: none;stroke: #3f4563;stroke-linecap: round;stroke-linejoin: round"/>
            <path d="M30.21,24.94c.22,0,.4-4.23.41-4.49A26.49,26.49,0,0,0,28.36,8.07a14.74,14.74,0,0,0-4.47-5.45A14.56,14.56,0,0,0,20.41.76c-1.57-.59-2.57-.1-4,.65a13.8,13.8,0,0,0-2.9,2A15.92,15.92,0,0,0,9.56,9,28.36,28.36,0,0,0,7.73,22.63c.07.77.16,1.54.29,2.31C6.94,15.83,13.77,9,19.53,9.22,25.12,9.39,31.35,16.18,30.21,24.94Z" style="fill: #fff;stroke: #3f4563;stroke-linecap: round;stroke-linejoin: round"/>
            <path d="M6.88,40.5,5.57,27.88a1.25,1.25,0,0,1,1.25-1.38H31a1.25,1.25,0,0,1,1.25,1.38L30.91,40.5Z" style="fill: #fff;stroke: #3f4563;stroke-linecap: round;stroke-linejoin: round"/>
          </g>
        </g>
      </g>
    </g>
  </g>
</svg>
