<svg xmlns="http://www.w3.org/2000/svg" width="54.8" height="41" viewBox="0 0 54.8 41">
  <title>icon-wasp</title>
  <g id="Layer_2" data-name="Layer 2">
    <g id="Home_-_1200" data-name="Home - 1200">
      <g id="First_Module" data-name="First Module">
        <g id="Threats">
          <g id="icon">
            <path d="M41.11,33.54a5,5,0,0,1-2.51.33,9.5,9.5,0,0,1-4-1.37h0a13.69,13.69,0,0,1-6.13-11L27.71,21l-1.92-1.88c-4.94,2.13-7.69-1.16-7.78-1.27a5.85,5.85,0,0,1-1-4.33c.11-2.16,1.1-4.65,3.26-5.49a9,9,0,0,1,7.7.69,72.66,72.66,0,0,1,10.49,7.87c5,3.42,8.16,10,6.59,16a6.51,6.51,0,0,1-.61,1.7,23.3,23.3,0,0,1-2.92-1.06" style="fill: #fff;stroke: #3f4563;stroke-linecap: round;stroke-linejoin: round"/>
            <path d="M18,9.16a1.3,1.3,0,0,0,1.15-.61,9,9,0,0,1,8.76.17,72.66,72.66,0,0,1,10.49,7.87c5,3.42,8.16,10,6.59,16a6.51,6.51,0,0,1-.61,1.7,23.3,23.3,0,0,1-2.92-1.06" style="fill: #fff;stroke: #3f4563;stroke-linecap: round;stroke-linejoin: round"/>
            <path d="M41.63,34c1.73,2.79.14,6.5.14,6.5a8.09,8.09,0,0,0,2.57-5.8" style="fill: #fff;stroke: #3f4563;stroke-linecap: round;stroke-linejoin: round"/>
            <path d="M48.35,7.43A5,5,0,0,0,52,9" style="fill: none;stroke: #4e7096;stroke-linecap: round;stroke-linejoin: round"/>
            <path d="M38.41,16.59c-2.22-.43-4.94-.86-7.12-.12a3.84,3.84,0,0,0-2.79,3.44" style="fill: none;stroke: #3f4563;stroke-linecap: round;stroke-linejoin: round"/>
            <path d="M23.49,12.45a6.84,6.84,0,0,1,4.68.77c1,.64,1.34,1.33,2.55,2a7,7,0,0,0,3.61.79l1.21,0a8.31,8.31,0,0,1,2.25.38,4.87,4.87,0,0,0,2.39.18A7,7,0,0,0,43,15.07l.27-.21c.75-.58,1.52-1.15,2.23-1.78.23,0,.46,0,.7,0a4.3,4.3,0,0,0,.69-.08,4.07,4.07,0,0,0,1.48-.62,3.39,3.39,0,0,0,.38-.3s.08-.09.13-.12c.84-.62.69-1.22.69-1.22,1,.48,2-.53,2-.53a1.07,1.07,0,0,0,.37-1.14c1.74-1,2.34-3.62,2.34-3.62a1,1,0,0,0,0-.75.92.92,0,0,0-.45-.47,19.54,19.54,0,0,0-6.29-.9H47.4a20.55,20.55,0,0,0-6.56,1.3L40,5a106.12,106.12,0,0,0-12.16,5.51Z" style="fill: #fff;stroke: #3f4563;stroke-linecap: round;stroke-linejoin: round"/>
            <path d="M23.49,12.45A122.45,122.45,0,0,1,36.38,4l.88-.49A23.71,23.71,0,0,1,44.51.87h.1A22.54,22.54,0,0,1,51.95.76a1.06,1.06,0,0,1,.6.45,1.19,1.19,0,0,1,.13.85s-.22,3.06-2,4.54A1.24,1.24,0,0,1,50.43,8s-.92,1.32-2.17,1h0s.28.66-.57,1.52c0,0-2.14,3.35-7.33,1,0,0-2.23-1.42-6.77-.54Z" style="fill: #fff;stroke: #3f4563;stroke-linecap: round;stroke-linejoin: round"/>
            <line x1="42.98" y1="7.87" x2="48.28" y2="8.93" style="fill: none;stroke: #3f4563;stroke-linecap: round;stroke-linejoin: round"/>
            <line x1="40.84" y1="4.66" x2="50.63" y2="6.6" style="fill: none;stroke: #3f4563;stroke-linecap: round;stroke-linejoin: round;stroke-dasharray: 2.2466320991516113,2.995509624481201"/>
            <path d="M12.38,12c-.34-.13-.76-.12-1.1-.28a1.79,1.79,0,0,1-.81-.77A9.68,9.68,0,0,0,4.68,6.39s-1.82-.85-1.45.24S4,7.73,5,7.86A1.73,1.73,0,0,1,5.42,8a10.18,10.18,0,0,1,4.71,3.81,1.33,1.33,0,0,0,1.06.51,7,7,0,0,0,1.12,0S12.38,12.07,12.38,12Z" style="fill: #3f4563"/>
            <path d="M12.55,12.13c-.43,0-.9.15-1.35.1A2.13,2.13,0,0,1,10,11.66a11.53,11.53,0,0,0-8.26-3S-.65,8.37.17,9.46s1.28.95,2.47.72a2.06,2.06,0,0,1,.51,0,12.13,12.13,0,0,1,6.75,2.54,1.59,1.59,0,0,0,1.39.18,8.37,8.37,0,0,0,1.27-.43S12.55,12.17,12.55,12.13Z" style="fill: #3f4563"/>
            <path d="M19.11,19.13l-1.87,4.21-2.4.84a3.1,3.1,0,0,0-3.47,1.05" style="fill: none;stroke: #3f4563;stroke-linecap: round;stroke-linejoin: round"/>
            <path d="M13.25,25.95a2.17,2.17,0,0,0,1.59-1.77" style="fill: none;stroke: #3f4563;stroke-linecap: round;stroke-linejoin: round"/>
            <path d="M15.82,26.61a2.39,2.39,0,0,1,2.77-1.38L20.23,24l.55-4.11" style="fill: none;stroke: #3f4563;stroke-linecap: round;stroke-linejoin: round"/>
            <path d="M18,26.61a1.52,1.52,0,0,0,.58-1.38" style="fill: none;stroke: #3f4563;stroke-linecap: round;stroke-linejoin: round"/>
            <path d="M23.57,19.91l2.14,2.7L25,24.73a3.09,3.09,0,0,0-3.46,1.38" style="fill: none;stroke: #3f4563;stroke-linecap: round;stroke-linejoin: round"/>
            <path d="M23.57,26.11A2,2,0,0,0,25,24.73" style="fill: none;stroke: #3f4563;stroke-linecap: round;stroke-linejoin: round"/>
            <g>
              <path d="M33.3,25.42c-1.19.79-2.77,2.17-2.07,4.16,0,0-.93,2.31,0,3.93.32.56.23,1.21.73,1.77.85.94,2.78,1.47,3.53.29a2.31,2.31,0,0,0-.93-3.27,5.54,5.54,0,0,1,0-3.26" style="fill: #fff;stroke: #3f4563;stroke-linecap: round;stroke-linejoin: round"/>
              <path d="M35.41,36.72,36.25,38a2.48,2.48,0,0,1,2.64,1.67" style="fill: none;stroke: #3f4563;stroke-linecap: round;stroke-linejoin: round"/>
              <path d="M37.15,39.65s-1.34-.83-.9-1.67" style="fill: none;stroke: #3f4563;stroke-linecap: round;stroke-linejoin: round"/>
            </g>
            <path d="M34.56,32.54a9.5,9.5,0,0,0,4,1.37,5,5,0,0,0,2.51-.33C42,33,39.36,33,38.5,32.16c-.14-.14-.26-.23-.44-.43a35.57,35.57,0,0,1-2.69-3.09,13.62,13.62,0,0,1-2.27-7.53,2.89,2.89,0,0,0-.42-2,2.73,2.73,0,0,0-3.07-.33,2.44,2.44,0,0,0-1.21,2.52v.28a13.69,13.69,0,0,0,6.13,11Z" style="fill: #fff;stroke: #3f4563;stroke-linecap: round;stroke-linejoin: round"/>
            <g>
              <path d="M29.71,25.42c-1.19.79-2.77,2.17-2.07,4.16,0,0-.93,2.31,0,3.93.32.56.23,1.21.73,1.77.85.94,2.78,1.47,3.53.29A2.31,2.31,0,0,0,31,32.29s-.92-2.72.76-4.5" style="fill: #fff;stroke: #3f4563;stroke-linecap: round;stroke-linejoin: round"/>
              <path d="M31.82,36.72,32.65,38a2.48,2.48,0,0,1,2.64,1.67" style="fill: none;stroke: #3f4563;stroke-linecap: round;stroke-linejoin: round"/>
              <path d="M33.56,39.65s-1.34-.83-.9-1.67" style="fill: none;stroke: #3f4563;stroke-linecap: round;stroke-linejoin: round"/>
            </g>
            <path d="M18,16.85a2.78,2.78,0,0,1-.34.37l-.1.08a10.35,10.35,0,0,1-1,.62c-.47.3-.64.73-1,1.1A7,7,0,0,1,14,20.32a4.63,4.63,0,0,1-2.67.63c-1.06-.31.22-1.82.4-2.48a10.18,10.18,0,0,0,.34-2,8.73,8.73,0,0,1,.2-4.66,4.12,4.12,0,0,0,.5-1.7c0-.68-.27-1.35-.24-2,.66.27,1.32.75,2,.27s.61-1.13.62-1.78A6.3,6.3,0,0,1,16.78,8c.86.89,2.08,1.15,2.74,2.26a4.27,4.27,0,0,1,0,3.93" style="fill: #fff;stroke: #3f4563;stroke-linecap: round;stroke-linejoin: round"/>
            <ellipse cx="15.09" cy="12.75" rx="2.67" ry="1.23" transform="matrix(0.36, -0.93, 0.93, 0.36, -2.22, 22.27)" style="fill: #fff;stroke: #3f4563;stroke-linecap: round;stroke-linejoin: round"/>
          </g>
        </g>
      </g>
    </g>
  </g>
</svg>
