<svg xmlns="http://www.w3.org/2000/svg" width="480.4" height="384.32" viewBox="0 0 480.4 384.32">
  <title>icon-brain-grey</title>
  <g id="Layer_2" data-name="Layer 2">
    <g id="_1200" data-name="1200">
      <g id="Brain">
        <g > 
          <path class="path" d="M480.4,200.17c0-26.8-8.29-48.38-24-62.41a66.28,66.28,0,0,0-15.79-10.37,50.26,50.26,0,0,0,0-10.9c-.12-1.57-.26-3.08-.26-4.39,0-19.52-11.11-39.19-29.73-52.61a92.22,92.22,0,0,0-43.79-16.61C356.37,16.75,322.84,0,280.24,0c-10.72,0-44.54,1.59-62.11,19.84C208.32,12.31,193.9,8,176.15,8c-37,0-81.65,29-87.42,64.41C39.93,76.06,0,115.35,0,161.57v6.94c0,52.78,39.51,95.72,88.07,95.72h43.45c6.26,0,16.15-1.78,23.59-6,8.71,14.31,21.88,24.41,37.09,30.58.26,17.95,13.8,35.37,36.41,46.68,6.74,3.37,13.5,6.12,20,8.78,22.28,9.07,36.12,15.55,39.74,33.66a8,8,0,0,0,7.84,6.44,8.12,8.12,0,0,0,1.58-.16,8,8,0,0,0,6.28-9.42c-5.49-27.48-27.82-36.57-49.41-45.36-6.26-2.55-12.72-5.18-18.91-8.28-9.85-4.93-20.17-12.85-24.91-22.31,20.74,12.48,37.48,17.29,51.51,17.29,25.31,0,41.83-15.64,57.1-30.1,16.16-15.31,31.43-29.77,56.84-29.77a8,8,0,0,0,0-16c-31.78,0-50.94,18.15-67.85,34.16-19.33,18.3-35.54,33.45-67.85,21.38,28.81-3.19,47.59-22.37,65.76-41,21.8-22.39,42.39-43.54,80.87-43.54,7,0,18.66,2.79,22.82,9,.84,1.25,3.4,5.06-.16,13.8a8,8,0,1,0,14.82,6c5.61-13.76,2.35-23.25-1.37-28.78-6.11-9.1-17.2-13.41-26.45-15.12,2.67-5.29,8.18-8.64,13.42-10.16a8,8,0,0,0-4.46-15.38c-13.31,3.86-22.62,13.24-25.55,24.84-40.89,2.49-64.48,26.65-85.4,48.13-19.18,19.7-35.74,36.71-62.71,36.71-26.3,0-56-10.58-67.32-38.4a13.54,13.54,0,0,0-1.08-3.73,7.53,7.53,0,0,0-.51-.7,70.06,70.06,0,0,1-3.15-21.23c0-34.12,29.93-64.05,64.05-64.05,6.72,0,20.7,0,26.37,5.66a8,8,0,0,0,11.32-11.32c-10.35-10.35-28.13-10.35-37.69-10.35a75.2,75.2,0,0,0-26.66,5,35.45,35.45,0,0,0-23.72-35.3A8,8,0,1,0,168.49,121a19.71,19.71,0,0,1,7.9,32,.69.69,0,0,0-.06.11c-19.27,14.92-32.2,38.07-32.2,63.1a86.12,86.12,0,0,0,4.24,27.44c-2.66,2-9.68,4.58-16.83,4.58H88.07C49,248.21,16,211.71,16,168.5v-6.94c0-37.21,32-69,71.57-73-1.49,13.21-6.9,20.26-18.05,24a8,8,0,0,0,2.53,15.61,8.1,8.1,0,0,0,2.53-.41c26.44-8.82,29.49-31.4,29.49-47.63,0-28.87,40.6-56,72.06-56,6.69,0,40,1.16,40,24,0,2.76-2.81,6.46-7.32,9.67C201,63.33,187.6,67.6,175,65.19a23.24,23.24,0,0,0-.47-2.85,8,8,0,1,0-15.4,4.37c1.48,5.21-2.78,12.84-8,14.33a8,8,0,0,0,2.19,15.71,8.13,8.13,0,0,0,2.21-.31c7.52-2.15,13.61-8.19,17-15.43,17.11,3.08,34.68-2.47,45.62-10.26C227.21,64.32,232.2,56.25,232.2,48a34.94,34.94,0,0,0-3.61-15.72C238,21.13,260.77,16,280.24,16c31.5,0,57.49,10.38,68.43,26.53a119.37,119.37,0,0,0-30.93,5.9,8,8,0,0,0,5.07,15.19c28.78-9.6,57.38-6.38,78.47,8.84,14.46,10.42,23.08,25.22,23.08,39.62,0,1.7.15,3.64.3,5.66.1,1.26.21,2.73.27,4.1-11.06-2.6-23.64-3.23-37.58-2-3.78-10.52-11.48-21.38-21.2-25.08a8,8,0,0,0-5.69,15c4.49,1.71,10.93,10.09,13,19.38,1.09,4.91.63,9-1.24,10.93a8,8,0,0,0,11.51,11.13c3.82-3.95,5.77-9.32,6.11-15.48,24.45-1.94,43.3,2.69,55.92,14,12.18,10.9,18.63,28.36,18.63,50.48,0,40.6-38.27,71.22-89,71.22a106,106,0,0,1-18.18-1.56,8,8,0,1,0-2.75,15.77,121.76,121.76,0,0,0,20.93,1.8,135.88,135.88,0,0,0,21.39-1.67c-16.83,29.51-49,31.06-66.58,26.76a7.95,7.95,0,0,0-7.06,13.79,1,1,0,0,0,.2.28c.74.59,18,14.84,21,50.43a8,8,0,0,0,8,7.34c.22,0,.45,0,.67,0a8,8,0,0,0,7.31-8.65c-1.71-20.49-7.72-35.25-13.64-45.21,27.38-.1,55.74-13.72,69.15-47.23a7.69,7.69,0,0,0,.4-2.2C454.61,268.3,480.4,237.74,480.4,200.17Z" style="fill: #404041"/>
          <path class="path" d="M62.51,218.38a7.83,7.83,0,0,0,1.09.07,8,8,0,0,0,7.93-6.92,19.73,19.73,0,0,1,16-16.65,66.13,66.13,0,0,0,9.17-1c20-3.68,33.47-15.94,38-34.09a35.15,35.15,0,0,0,8.7,1.18c1,0,2,0,3-.13a8,8,0,0,0-1.36-16,19.81,19.81,0,0,1-20.07-12.57,8,8,0,0,0-15,5.74A35.39,35.39,0,0,0,119.74,152c-2.54,18-15.39,24.18-26,26.13a50.69,50.69,0,0,1-6.79.76,7.32,7.32,0,0,0-1.1-.06l-.32.07c-16.3.37-31.65-6.59-35.6-14.49a8,8,0,0,0-14.32,7.16c4.58,9.16,15.14,16.3,27.8,20.17a35.45,35.45,0,0,0-7.76,17.57A8,8,0,0,0,62.51,218.38Z" style="fill: #404041"/>
          <path class="path" d="M327,127.35a8,8,0,0,0-4.93-15.24,19.73,19.73,0,0,1-21.79-30.69,8,8,0,1,0-12.73-9.7,35.44,35.44,0,0,0-7,18c-8.43-4.23-18.5-7.33-28.61-7.34h0c-14,0-25.8,5.86-34.11,16.93a8,8,0,0,0,12.81,9.61c5.32-7.08,12.28-10.53,21.3-10.53h0c15.28,0,30.72,10,34.71,15.3,0,0,0,0,0,0a35.93,35.93,0,0,0,29.44,15.35A35.36,35.36,0,0,0,327,127.35Z" style="fill: #404041"/>
          <path class="path" d="M255.54,215.72c12-12,20.57-19.62,29.85-16.08h.07a41.62,41.62,0,0,0,7.16,15A8,8,0,1,0,305.33,205c-6.74-8.82-7.12-21-.94-29.54a8,8,0,1,0-13-9.38A39.09,39.09,0,0,0,284.57,183c-16.51-2.39-29.6,10.66-40.35,21.41-1.41,1.41-2.84,2.81-4.26,4.17-.2.16-.45.23-.63.42s-.4.54-.63.79c-5.48,5.14-10.79,9.25-14.64,9-3.45-.25-7-4.16-9.46-7.4A8,8,0,1,0,201.76,221c6.5,8.73,13.41,13.24,21.14,13.8.54,0,1.07.06,1.6.06a23.22,23.22,0,0,0,7.72-1.42,26.38,26.38,0,0,0,7.1,14.63,8,8,0,0,0,11.32-11.32c-3.6-3.6-3.78-11.49-.6-15.61C251.88,219.34,253.72,217.53,255.54,215.72Z" style="fill: #404041"/>
        </g>
      </g>
    </g>
  </g>
</svg>
