<svg xmlns="http://www.w3.org/2000/svg" viewBox="0 0 50 50"><path class="medium-blue" d="M37.68 22.47a.5.5 0 0 0-.68-.07l-10.86 8.18a2.92 2.92 0 0 0-3.6 2.54l-2.17 1.61a.5.5 0 0 0-.17.56.51.51 0 0 0 .48.34l2.32-.05-.32 2.29a.5.5 0 0 0 .28.52.52.52 0 0 0 .58-.11l1.68-1.8h.11a3 3 0 0 0 3.17-2.82 3 3 0 0 0-.07-.77l9.25-9.75a.5.5 0 0 0 0-.67zM22.62 34.3c0 .09.05.19.09.28h-.48zm1.25 2.14l.06-.4.2.13zm2.39-1.09a2 2 0 0 1-1.69-3.62 2 2 0 0 1 2.72.9 2 2 0 0 1 .15 1.29 2 2 0 0 1-1.17 1.43zM28 31.88a3 3 0 0 0-.82-.84l5.65-4.25zM9 32a1 1 0 0 1-2 0 1 1 0 0 1 2 0zm1-7a1 1 0 0 1-2 0 1 1 0 0 1 2 0zm4-7a1 1 0 0 1-2 0 1 1 0 0 1 2 0zm7-4a1 1 0 0 1-2 0 1 1 0 0 1 2 0zm21 17a1 1 0 0 1 0 2 1 1 0 0 1 0-2zm-1-7a1 1 0 0 1 0 2 1 1 0 0 1 0-2zm-4-7a1 1 0 0 1 0 2 1 1 0 0 1 0-2zm-7-4a1 1 0 0 1 0 2 1 1 0 0 1 0-2zm11.18.76A22.52 22.52 0 0 0 25 7.48a22.51 22.51 0 0 0-16.18 6.28A22.82 22.82 0 0 0 3.5 38.69.5.5 0 0 0 4 39h8.13a14.66 14.66 0 0 0 12.4 6.89h1A14.65 14.65 0 0 0 37.91 39H46a.5.5 0 0 0 .46-.31 22.82 22.82 0 0 0-5.28-24.93zM45.7 38h-7.47a.48.48 0 0 0-.19-.21.5.5 0 0 0-.68.19 13.65 13.65 0 0 1-11.85 6.91h-1a13.67 13.67 0 0 1-11.81-6.81.5.5 0 0 0-.7-.18.49.49 0 0 0-.12.1H4.3a21.86 21.86 0 0 1 11.6-27.76A21.76 21.76 0 0 1 25 8.49a21.5 21.5 0 0 1 15.51 6A21.81 21.81 0 0 1 45.7 38z"/></svg>