<svg xmlns="http://www.w3.org/2000/svg" width="99.62" height="61.13" viewBox="0 0 99.62 61.13">
  <title>icon-green-defense</title>
  <g id="Layer_2" data-name="Layer 2">
    <g id="Benefits_-_1200" data-name="Benefits - 1200">
      <g id="Better_Way" data-name="Better Way">
        <g id="Detect">
          <g id="siem_-_med" data-name="siem - med">
            <g>
              <path d="M53.66,44.92a2.4,2.4,0,0,1,3-1.54l4.67,1.43a2.4,2.4,0,0,1,1.64,3L61.39,53a2.4,2.4,0,0,1-3,1.54L53.7,53.14a2.4,2.4,0,0,1-1.64-3Z" style="fill: #fff;stroke: #373e5a;stroke-linecap: round;stroke-linejoin: round"/>
              <path d="M56.86,48.36l9.6,2.94a5.31,5.31,0,0,0,6.7-3.38L76,38.62" style="fill: #fff;stroke: #373e5a;stroke-linecap: round;stroke-linejoin: round"/>
              <path d="M72.54,40.85l-.91,3a.93.93,0,0,0,.73,1.07l4.07,1.25a.93.93,0,0,0,1.2-.48l.91-3Z" style="fill: #fff;stroke: #373e5a;stroke-linecap: round;stroke-linejoin: round"/>
              <path d="M99.11,36.72A8.48,8.48,0,0,0,93.22,28l-22.1-6.76C64,19.06,59.18,22.72,57,30l2.82.86h-.07c-.1,4,2,7.16,5.1,8.11l20.51,6.28a6.39,6.39,0,0,0,5.72-.91,9.65,9.65,0,0,0,3.29-4.3A3.87,3.87,0,0,0,99.11,36.72Z" style="fill: #fff;stroke: #373e5a;stroke-linecap: round;stroke-linejoin: round"/>
              <path d="M59.76,30.91c-.1,4,2,7.16,5.1,8.11l20.51,6.28a6.39,6.39,0,0,0,5.72-.91,9.65,9.65,0,0,0,3.29-4.3,3.87,3.87,0,0,0,4.72-3.36A8.48,8.48,0,0,0,93.22,28l-22.1-6.76C64,19.06,59.18,22.72,57,30l22.52,6.89a6.57,6.57,0,0,0,6.91-2.68c1.49-2,4.56-4.34,7-3.6" style="fill: #fff;stroke: #373e5a;stroke-linecap: round;stroke-linejoin: round"/>
              <path d="M89.44,31.84l-.35-.08a11.36,11.36,0,0,0-2.6,2.48,7.08,7.08,0,0,1-2.87,2.42c-.51,2.65.56,5.13,2.58,5.75,2.22.68,4.74-1.14,5.63-4.06S91.65,32.52,89.44,31.84Z" style="fill: #fff;stroke: #373e5a;stroke-linecap: round;stroke-linejoin: round"/>
              <path d="M95.1,36.95a16.36,16.36,0,0,1-.71,3.12" style="fill: #fff;stroke: #373e5a;stroke-linecap: round;stroke-linejoin: round"/>
            </g>
            <g>
              <path d="M46,44.92a2.4,2.4,0,0,0-3-1.54l-4.67,1.43a2.4,2.4,0,0,0-1.64,3L38.24,53a2.4,2.4,0,0,0,3,1.54l4.67-1.43a2.4,2.4,0,0,0,1.64-3Z" style="fill: #fff;stroke: #373e5a;stroke-linecap: round;stroke-linejoin: round"/>
              <path d="M42.22,48.36l-9.6,2.94a5.31,5.31,0,0,1-6.7-3.38l-2.85-9.3" style="fill: #fff;stroke: #373e5a;stroke-linecap: round;stroke-linejoin: round"/>
              <path d="M26.54,40.85l.91,3a.93.93,0,0,1-.73,1.07l-4.07,1.25a.93.93,0,0,1-1.2-.48l-.91-3Z" style="fill: #fff;stroke: #373e5a;stroke-linecap: round;stroke-linejoin: round"/>
              <path d="M5.24,40.08a9.65,9.65,0,0,0,3.29,4.3,6.39,6.39,0,0,0,5.72.91L34.76,39c3.1-.95,5.2-4.09,5.1-8.11h-.07L42.62,30c-2.18-7.33-7-11-14.11-8.82L6.41,28A8.48,8.48,0,0,0,.52,36.72,3.87,3.87,0,0,0,5.24,40.08Z" style="fill: #fff;stroke: #373e5a;stroke-linecap: round;stroke-linejoin: round"/>
              <path d="M39.86,30.91c.1,4-2,7.16-5.1,8.11L14.25,45.29a6.39,6.39,0,0,1-5.72-.91,9.65,9.65,0,0,1-3.29-4.3A3.87,3.87,0,0,1,.52,36.72,8.48,8.48,0,0,1,6.41,28l22.1-6.76c7.09-2.17,11.94,1.49,14.11,8.82L20.1,36.93a6.57,6.57,0,0,1-6.91-2.68c-1.49-2-4.56-4.34-7-3.6" style="fill: #fff;stroke: #373e5a;stroke-linecap: round;stroke-linejoin: round"/>
              <path d="M10.19,31.84l.35-.08a11.36,11.36,0,0,1,2.6,2.48A7.08,7.08,0,0,0,16,36.66c.51,2.65-.56,5.13-2.58,5.75-2.22.68-4.74-1.14-5.63-4.06S8,32.52,10.19,31.84Z" style="fill: #fff;stroke: #373e5a;stroke-linecap: round;stroke-linejoin: round"/>
              <path d="M4.52,36.95a16.36,16.36,0,0,0,.71,3.12" style="fill: #fff;stroke: #373e5a;stroke-linecap: round;stroke-linejoin: round"/>
            </g>
            <g>
              <path d="M49.77.5a2.68,2.68,0,0,1,.91.22c8.08,3.35,15.09,1.3,24.69,1h0a1.67,1.67,0,0,1,1.55,1.66V23.55c0,18.38-8.18,29.79-26.52,37a1.66,1.66,0,0,1-.61.11" style="fill: #fff;stroke: #373e5a;stroke-linecap: round;stroke-linejoin: round"/>
              <path d="M49.63,60.63a1.66,1.66,0,0,1-.61-.11c-18.34-7.18-26.52-18.58-26.52-37V3.39A1.67,1.67,0,0,1,24,1.74h0c9.6.28,16.61,2.34,24.69-1A2.68,2.68,0,0,1,49.65.5" style="fill: #fff;stroke: #373e5a;stroke-linecap: round;stroke-linejoin: round"/>
            </g>
            <g>
              <path d="M49.75,6.3a2.17,2.17,0,0,1,.73.18c6.52,2.71,12.18,1,19.93.82h0a1.35,1.35,0,0,1,1.25,1.34V24.91c0,14.84-6.6,24-21.41,29.84a1.34,1.34,0,0,1-.49.09" style="fill: #fff;stroke: #373e5a;stroke-linecap: round;stroke-linejoin: round"/>
              <path d="M49.64,54.83a1.34,1.34,0,0,1-.49-.09c-14.8-5.8-21.41-15-21.41-29.84V8.63A1.35,1.35,0,0,1,29,7.3h0c7.75.23,13.41,1.89,19.93-.82a2.17,2.17,0,0,1,.73-.18" style="fill: #fff;stroke: #373e5a;stroke-linecap: round;stroke-linejoin: round"/>
            </g>
            <line x1="49.76" y1="7.56" x2="49.76" y2="45.42" style="fill: none;stroke: #373e5a;stroke-linecap: round;stroke-linejoin: round;stroke-dasharray: 1.906606674194336,2.859910011291504"/>
            <circle cx="49.77" cy="28.46" r="3.16" style="fill: #fff;stroke: #373e5a;stroke-linecap: round;stroke-linejoin: round"/>
            <g>
              <path d="M40.68,35.75a9.93,9.93,0,0,1-.22-14.57" style="fill: none;stroke: #1fc469;stroke-linecap: round;stroke-linejoin: round"/>
              <path d="M36.87,38a14.38,14.38,0,0,1-.23-19.17" style="fill: none;stroke: #1fc469;stroke-linecap: round;stroke-linejoin: round"/>
              <path d="M44.49,33.45a5.74,5.74,0,0,1-.32-10" style="fill: none;stroke: #1fc469;stroke-linecap: round;stroke-linejoin: round"/>
            </g>
            <g>
              <path d="M58.59,35.75a9.93,9.93,0,0,0,.22-14.57" style="fill: none;stroke: #1fc469;stroke-linecap: round;stroke-linejoin: round"/>
              <path d="M62.4,38a14.38,14.38,0,0,0,.23-19.17" style="fill: none;stroke: #1fc469;stroke-linecap: round;stroke-linejoin: round"/>
              <path d="M54.78,33.45a5.74,5.74,0,0,0,.32-10" style="fill: none;stroke: #1fc469;stroke-linecap: round;stroke-linejoin: round"/>
            </g>
            <circle cx="49.77" cy="57.53" r="0.66" style="fill: #373e5a"/>
            <circle cx="25.66" cy="5.43" r="0.66" style="fill: #373e5a"/>
            <circle cx="73.4" cy="5.43" r="0.66" style="fill: #373e5a"/>
            <circle cx="49.77" cy="3.61" r="0.66" style="fill: #373e5a"/>
            <circle cx="25.19" cy="28.5" r="0.66" style="fill: #373e5a"/>
            <circle cx="74.18" cy="28.44" r="0.66" style="fill: #373e5a"/>
          </g>
        </g>
      </g>
    </g>
  </g>
</svg>
