<svg xmlns="http://www.w3.org/2000/svg" width="34.12" height="39.98" viewBox="0 0 34.12 39.98">
  <title>icon-green-guy</title>
  <g id="Layer_2" data-name="Layer 2">
    <g id="_1200" data-name="1200">
      <g id="Detailed_Features" data-name="Detailed Features">
        <g id="csoc_-_sm" data-name="csoc - sm">
          <g id="Lines">
            <path id="person" d="M16.84,39.48a22.77,22.77,0,0,0,16.78-7.35c-.1-2.82-.79-5.37-5.53-6.93-3.49-1.15-5.43-2.45-6.41-4.32a12.55,12.55,0,0,0,1.54-2.25v0a17.38,17.38,0,0,0,1-3.71,6.39,6.39,0,0,0,.5-.77,3.58,3.58,0,0,0,.59-1.57v-.14c0-1.58,0-2.49-.3-2.82a.48.48,0,0,0-.16-.11A4.34,4.34,0,0,0,25,6.6a11.43,11.43,0,0,0-.72-1.5h.26a.29.29,0,0,0,.28-.21.3.3,0,0,0-.12-.33,12.55,12.55,0,0,1-1.12-1.31C21.94,1.12,20.58.18,19.7.6s-1.77-.09-2.44,0a7.21,7.21,0,0,0-2.44,0,6.16,6.16,0,0,0-3.89,2.65A5.74,5.74,0,0,1,9.81,4.56.29.29,0,0,0,10,5.1h.26a11.42,11.42,0,0,0-.72,1.5A4.34,4.34,0,0,0,9.6,9.49a.48.48,0,0,0-.16.11c-.32.33-.35,1.24-.3,2.82v.14a3.58,3.58,0,0,0,.59,1.57,6.39,6.39,0,0,0,.5.77,17.38,17.38,0,0,0,1,3.71v0a12.43,12.43,0,0,0,1.3,2c-.93,2-2.9,3.42-6.55,4.62C1,26.84.55,29.59.5,32.58A22.76,22.76,0,0,0,16.84,39.48Z" style="fill: #fff;stroke: #1fc469;stroke-linecap: round;stroke-linejoin: round"/>
            <g>
              <g>
                <ellipse cx="23.57" cy="31.22" rx="0.24" ry="0.29" style="fill: #fff;stroke: #1fc469;stroke-linecap: round;stroke-linejoin: round"/>
                <line x1="23.57" y1="31.5" x2="23.57" y2="33.22" style="fill: #fff;stroke: #1fc469;stroke-linecap: round;stroke-linejoin: round"/>
              </g>
              <path d="M23.55,36.17h-.07a4.36,4.36,0,0,1-3.19-4.45V29.28a.2.2,0,0,1,.19-.2,6.4,6.4,0,0,0,3-.94.2.2,0,0,1,.21,0,6.39,6.39,0,0,0,3,.94h0a.2.2,0,0,1,.19.2v2.43a4.36,4.36,0,0,1-3.19,4.45Z" style="fill: none;stroke: #1fc469;stroke-linecap: round;stroke-linejoin: round"/>
            </g>
          </g>
          <path id="Fill" d="M9.18,9.84a.63.63,0,0,1,0,.22.38.38,0,0,0,0,.1,1.1,1.1,0,0,1,0,.12.62.62,0,0,0,0,.19,0,0,0,0,1,0,0,.19.19,0,0,0,0,.12.64.64,0,0,0,.26.1l.13,0a.39.39,0,0,1,.1.2s0,0,0,0a.47.47,0,0,1,.05.21c0,.23,0,.35.07.47A1.65,1.65,0,0,1,10,12s0,0,0,.16a.49.49,0,0,1,0,.09,1.27,1.27,0,0,0,.11.31l.09.24a1,1,0,0,0,.09.21.4.4,0,0,1,0,.1l0,0s0,0,0,.05a1,1,0,0,0,.18.25l.12.13.1.1,0,0a.72.72,0,0,0,.27.13l.37.1a5.34,5.34,0,0,0,.89,0h.18l.4,0,.24,0,.18,0h0l.1,0,.17,0a3.13,3.13,0,0,0,.47-.13l.08,0a1.68,1.68,0,0,0,.44-.16,2.15,2.15,0,0,0,.58-.39l.17-.16.19-.17a.8.8,0,0,0,.13-.15s0-.05,0,0h0l.05-.06a.54.54,0,0,0,.12-.18.34.34,0,0,1,0-.09.85.85,0,0,0,.1-.24,3.2,3.2,0,0,0,.13-.55.44.44,0,0,1,0-.12h1.47a.44.44,0,0,1,0,.12,3.2,3.2,0,0,0,.13.55.85.85,0,0,0,.1.24.34.34,0,0,1,0,.09.54.54,0,0,0,.12.18l.05.06h0s0,0,0,0a.8.8,0,0,0,.13.15l.19.17.17.16a2.15,2.15,0,0,0,.58.39,1.68,1.68,0,0,0,.44.16l.08,0a3.13,3.13,0,0,0,.47.13l.17,0,.1,0h0l.18,0,.24,0,.39,0h.18a5.34,5.34,0,0,0,.89,0l.37-.1a.72.72,0,0,0,.27-.13l0,0,.1-.1.12-.13a1,1,0,0,0,.18-.25s0-.05,0-.05l0,0a.4.4,0,0,1,0-.1,1,1,0,0,0,.09-.21l.09-.24a1.27,1.27,0,0,0,.11-.31.49.49,0,0,1,0-.09c0-.12.05-.15,0-.16a1.65,1.65,0,0,1,.05-.37c0-.12,0-.24.07-.47A.47.47,0,0,1,24.2,11s0,0,0,0a.39.39,0,0,1,.1-.2l.13,0a.64.64,0,0,0,.26-.1.19.19,0,0,0,0-.12,0,0,0,0,1,0,0,.62.62,0,0,0,0-.19,1.09,1.09,0,0,1,0-.12.38.38,0,0,0,0-.1.63.63,0,0,1,0-.22.14.14,0,0,0,0-.12.24.24,0,0,1,0-.09c0-.1-.53-.07-.59-.08l-.27,0-.28,0c-.32,0-.64,0-1,0h-.22l-.24,0h-.39l-.18,0a4.14,4.14,0,0,0-.92,0h-.33a.94.94,0,0,0-.27,0l-.46.1-.32.06-.08,0-.1,0a2.75,2.75,0,0,0-.6.27l-.15.08-.27.22a1.36,1.36,0,0,1-.27.2l0,0,0,0h0l-.05,0-.07,0a.71.71,0,0,1-.2.09l-.23,0-.21,0-.25,0-.23,0a.71.71,0,0,1-.2-.09l-.07,0-.05,0h0l0,0,0,0a1.36,1.36,0,0,1-.27-.2L15.58,10l-.15-.08a2.75,2.75,0,0,0-.6-.27l-.1,0-.08,0-.32-.06-.46-.1a.94.94,0,0,0-.27,0h-.33a3.29,3.29,0,0,0-.58,0,.23.23,0,0,1-.11,0h-.23l-.18,0h-.39l-.24,0H11.1c-.25,0-.5,0-.75,0l-.28,0-.27,0c-.18,0-.61-.08-.64.16A.31.31,0,0,0,9.18,9.84Z" style="fill: #fff;stroke: #1fc469;stroke-miterlimit: 10"/>
          <g>
            <path d="M20.66,10.59a4.12,4.12,0,0,0-.5.06,1.73,1.73,0,0,0-.49.13.76.76,0,0,0-.26.21.8.8,0,0,0-.14.52,2.08,2.08,0,0,0,0,.25.67.67,0,0,0,.06.24.16.16,0,0,0,.15.09h.07a.15.15,0,0,0,.08-.11l0-.06,0-.07a1.14,1.14,0,0,1,0-.13v0a1.16,1.16,0,0,1,.15-.27,1.35,1.35,0,0,1,.79-.47.16.16,0,0,0,.13-.18A.16.16,0,0,0,20.66,10.59Z" style="fill: none;stroke: #1fc469;stroke-miterlimit: 10"/>
            <path d="M12.7,10.59a4.1,4.1,0,0,0-.5.06,1.73,1.73,0,0,0-.49.13.76.76,0,0,0-.26.21.81.81,0,0,0-.15.52,2.09,2.09,0,0,0,0,.26.65.65,0,0,0,.06.23.16.16,0,0,0,.15.09l.08,0a.15.15,0,0,0,.08-.11v-.07l0-.06a1.09,1.09,0,0,1,.05-.14v0a1.14,1.14,0,0,1,.15-.27,1.35,1.35,0,0,1,.79-.47.16.16,0,0,0,.13-.18A.17.17,0,0,0,12.7,10.59Zm-1.09,1.26Z" style="fill: none;stroke: #1fc469;stroke-miterlimit: 10"/>
          </g>
        </g>
      </g>
    </g>
  </g>
</svg>
