<svg xmlns="http://www.w3.org/2000/svg" viewBox="0 0 326.77 215.54">
<title>cWatch Large Business</title>
<path d="M276.41 215.2l1.2-1.62a6 6 0 0 0 1.83 0l1.53 1.7v-2.21a6.07 6.07 0 0 0 1.2-.77l2.45.72-1.23-2.07a6 6 0 0 0 .56-1.07l2.38-.27-2-1.45a6 6 0 0 0 0-1.29l2-1.17-2.47-.55a6.08 6.08 0 0 0-1-1.54l.65-2.21-1.9 1.13a6 6 0 0 0-1.2-.59l-.43-2.27-1.21 1.91a6 6 0 0 0-1.64.11l-1.46-2-.31 2.63a6.1 6.1 0 0 0-1 .69l-2.33-.68 1.18 2a6 6 0 0 0-.58 1.15l-2.32.27 1.95 1.44a6 6 0 0 0 0 1.22l-2 1.38 2.49.37a6.08 6.08 0 0 0 .75 1.22l-.63 2.16 1.77-1a6 6 0 0 0 1.41.78z" class="bright-red"/><path d="M295.83 215.52l.39-2a6 6 0 0 0 1.64-.82l2.11.89-.91-2a6.07 6.07 0 0 0 .76-1.21l2.53-.4-2-1.35a6 6 0 0 0 0-1.2l2-1.26-2.4-.47a6 6 0 0 0-.57-1.16l1.3-1.91-2.47.56a6.08 6.08 0 0 0-1.56-1l-.36-2.27-1.24 1.84a6 6 0 0 0-1.33 0l-1.36-1.86-.27 2.25a6 6 0 0 0-1.44.8l-2.16-1.17.85 2.51a6.1 6.1 0 0 0-.59 1l-2.4.38 1.92 1.3a6 6 0 0 0 0 1.28l-2 1.23 2.38.47a6 6 0 0 0 .55 1.09l-1.21 2.09 2.41-.73a6.08 6.08 0 0 0 1.2.78l.35 2.22 1.15-1.71a6 6 0 0 0 1.61.11z" class="bright-red"/><path d="M309.05 214.79v-17.17" class="green-stroke"/><path d="M316.32 181.87a7.88 7.88 0 1 0-14.54 0 11.06 11.06 0 1 0 14.54 0z" class="green-stroke-white"/><path d="M309.05 201.25v-12.41l2.45-4.79M304.84 189.33l4.21 3.67M310.46 186.1l-1-1.67M297.63 214.79v-17.17" class="green-stroke"/><path d="M304.9 181.87a7.88 7.88 0 1 0-14.54 0 11.06 11.06 0 1 0 14.54 0z" class="green-stroke-white"/><path d="M297.63 201.25v-12.41l2.46-4.79M293.43 189.33l4.2 3.67M299.04 186.1l-1-1.67M280.98 214.79V201.9" class="green-stroke"/><path d="M286.44 190.07a5.92 5.92 0 1 0-10.92 0 8.3 8.3 0 1 0 10.92 0z" class="green-stroke-white"/><path d="M280.98 204.62v-9.32l1.84-3.59M277.82 195.67l3.16 2.75M282.03 193.25l-.74-1.26M317.71 214.79V201.9" class="green-stroke"/><path d="M323.17 190.07a5.92 5.92 0 1 0-10.92 0 8.3 8.3 0 1 0 10.92 0z" class="green-stroke-white"/><path d="M317.71 204.62v-9.32l1.85-3.59M314.55 195.67l3.16 2.75M318.77 193.25l-.75-1.26M78.8 214.79v-11.3" class="green-stroke"/><path d="M83.58 193.14a5.18 5.18 0 1 0-9.56 0 7.27 7.27 0 1 0 9.56 0z" class="green-stroke-white"/><path d="M78.8 205.88v-8.16l1.61-3.15M76.03 198.05l2.77 2.4M79.72 195.92l-.66-1.1M71.52 214.79v-15.94" class="green-stroke"/><path d="M78.27 184.23a7.31 7.31 0 1 0-13.5 0 10.26 10.26 0 1 0 13.5 0z" class="green-stroke-white"/><path d="M71.52 202.22V190.7l2.28-4.44M67.62 191.16l3.9 3.4M72.83 188.16l-.93-1.55" class="green-stroke"/><path d="M87 215.34l.33-2a6 6 0 0 0 1.61-.87l2.13.82-1-2a6.07 6.07 0 0 0 .72-1.23l2.51-.47-2-1.29a6 6 0 0 0 0-1.2l2-1.32-2.41-.4a6 6 0 0 0-.6-1.14l1.24-1.95-2.45.63a6.08 6.08 0 0 0-1.59-.92l-.43-2.26-1.18 1.87a6 6 0 0 0-1.33 0l-1.41-1.82-.14 2.29a6 6 0 0 0-1.41.84l-2.2-1.1.92 2.49a6.1 6.1 0 0 0-.56 1.05l-2.39.45 2 1.24a6 6 0 0 0 0 1.28l-1.95 1.29 2.39.4a6 6 0 0 0 .58 1.07l-1.15 2.13 2.39-.81a6.08 6.08 0 0 0 1.22.74l.42 2.21 1.1-1.74a6 6 0 0 0 1.62.06z" class="bright-red"/><g id="large-businesses"><rect width="183.62" height="104.89" x="92.64" y="108.74" class="grey-stroke-white" rx=".5" ry=".5"/><path d="M216.36 81.48h7.35a.86.86 0 0 1 .85.85v130.45a.86.86 0 0 1-.85.85h-77.5a.86.86 0 0 1-.85-.85V82.34a.86.86 0 0 1 .85-.85h7.16M161.22 72.84v-10a.5.5 0 0 1 .5-.5h46.81a.5.5 0 0 1 .5.5v10" class="grey-stroke-white"/><rect width="34.87" height="112.32" x="101.91" y="101.32" class="grey-stroke-white" rx=".5" ry=".5"/><rect width="34.87" height="112.32" x="233.9" y="101.32" class="grey-stroke-white" rx=".5" ry=".5"/><rect width="62.98" height="140.79" x="153.37" y="72.84" class="grey-stroke-white" rx=".5" ry=".5"/><rect width="189.52" height="8.32" x="88.89" y="206.47" class="grey-stroke-white" rx=".5" ry=".5"/><path d="M161.8 93.38v-7.84a.56.56 0 0 1 .56-.56H170m0 11.72h-7.61a.56.56 0 0 0-.56.56v7.84m8.17 3.32h-7.61a.56.56 0 0 0-.56.56v7.84m8.17 3.32h-7.61a.56.56 0 0 0-.56.56v7.84m8.17 3.32h-7.61a.56.56 0 0 0-.56.56v7.84m8.17 3.32h-7.61a.56.56 0 0 0-.56.56V152m8.17 3.32h-7.61a.56.56 0 0 0-.56.56v7.84M170 167h-7.61a.56.56 0 0 0-.56.56v7.84m8.17 3.32h-7.61a.56.56 0 0 0-.56.56v7.84M181.13 85h-7.61a.56.56 0 0 0-.56.56v7.84m8.17 3.32h-7.61a.56.56 0 0 0-.56.56v7.84m8.17 3.32h-7.61a.56.56 0 0 0-.56.56v7.84m8.17 3.32h-7.61a.56.56 0 0 0-.56.56v7.84m8.17 3.32h-7.61a.56.56 0 0 0-.56.56v7.84m8.17 3.32h-7.61a.56.56 0 0 0-.56.56V152m8.17 3.32h-7.61a.56.56 0 0 0-.56.56v7.84m8.17 3.32h-7.61a.56.56 0 0 0-.56.56v7.84m8.17 3.32h-7.61a.56.56 0 0 0-.56.56v7.84M197.92 85h-7.61a.56.56 0 0 0-.56.56v7.84m8.17 3.32h-7.61a.56.56 0 0 0-.56.56v7.84m8.17 3.32h-7.61a.56.56 0 0 0-.56.56v7.84m8.17 3.32h-7.61a.56.56 0 0 0-.56.56v7.84m8.17 3.32h-7.61a.56.56 0 0 0-.56.56v7.84m8.17 3.32h-7.61a.56.56 0 0 0-.56.56V152m8.17 3.32h-7.61a.56.56 0 0 0-.56.56v7.84m8.17 3.32h-7.61a.56.56 0 0 0-.56.56v7.84m8.17 3.32h-7.61a.56.56 0 0 0-.56.56v7.84M209.08 85h-7.61a.56.56 0 0 0-.56.56v7.84m8.17 3.32h-7.61a.56.56 0 0 0-.56.56v7.84m8.17 3.32h-7.61a.56.56 0 0 0-.56.56v7.84m8.17 3.32h-7.61a.56.56 0 0 0-.56.56v7.84m8.17 3.32h-7.61a.56.56 0 0 0-.56.56v7.84m8.17 3.32h-7.61a.56.56 0 0 0-.56.56V152m8.17 3.32h-7.61a.56.56 0 0 0-.56.56v7.84m8.17 3.32h-7.61a.56.56 0 0 0-.56.56v7.84m8.17 3.32h-7.61a.56.56 0 0 0-.56.56v7.84M190.23 206.47H179.5a.5.5 0 0 1-.5-.5v-13.49a.5.5 0 0 1 .5-.5h10.73a.5.5 0 0 1 .5.5V206a.5.5 0 0 1-.5.47zM184.86 192v14.49m5.87-.5v-13.51a.5.5 0 0 0-.5-.5H179.5a.5.5 0 0 0-.5.5V206a.5.5 0 0 0 .5.5h10.73a.5.5 0 0 0 .5-.5zm-5.87-14v14.49M125.2 206v-13.52a.5.5 0 0 0-.5-.5H114a.5.5 0 0 0-.5.5V206a.5.5 0 0 0 .5.5h10.7a.5.5 0 0 0 .5-.5zm-5.87-14v14.49M257.2 206v-13.52a.5.5 0 0 0-.5-.5H246a.5.5 0 0 0-.5.5V206a.5.5 0 0 0 .5.5h10.7a.5.5 0 0 0 .5-.5zm-5.87-14v14.49M109.89 128.55v-7.84a.56.56 0 0 1 .56-.56h7.61m0 11.72h-7.61a.56.56 0 0 0-.56.56v7.84m8.17 3.32h-7.61a.56.56 0 0 0-.56.56V152m8.17 3.32h-7.61a.56.56 0 0 0-.56.56v7.84m8.17 3.32h-7.61a.56.56 0 0 0-.56.56v7.84m8.17 3.32h-7.61a.56.56 0 0 0-.56.56v7.84m19.33-67h-7.61a.56.56 0 0 0-.56.56v7.84m8.17 3.32h-7.61a.56.56 0 0 0-.56.56v7.84m8.17 3.32h-7.61a.56.56 0 0 0-.56.56V152m8.17 3.32h-7.61a.56.56 0 0 0-.56.56v7.84m8.17 3.32h-7.61a.56.56 0 0 0-.56.56v7.84m8.17 3.32h-7.61a.56.56 0 0 0-.56.56v7.84M241.4 128.55v-7.84a.56.56 0 0 1 .56-.56h7.61m0 11.72H242a.56.56 0 0 0-.56.56v7.84m8.17 3.32H242a.56.56 0 0 0-.56.56V152m8.17 3.32H242a.56.56 0 0 0-.56.56v7.84m8.17 3.32H242a.56.56 0 0 0-.56.56v7.84m8.17 3.32H242a.56.56 0 0 0-.56.56v7.84m19.33-67h-7.61a.56.56 0 0 0-.56.56v7.84m8.17 3.32h-7.61a.56.56 0 0 0-.56.56v7.84m8.17 3.32h-7.61a.56.56 0 0 0-.56.56V152m8.17 3.32h-7.61a.56.56 0 0 0-.56.56v7.84m8.17 3.32h-7.61a.56.56 0 0 0-.56.56v7.84m8.17 3.32h-7.61a.56.56 0 0 0-.56.56v7.84" class="grey-stroke"/></g><path d="M263.25 205.93l1.2-1.62a6 6 0 0 0 1.83 0l1.53 1.7v-2.21a6.07 6.07 0 0 0 1.2-.77l2.45.72-1.23-2.07a6 6 0 0 0 .56-1.06l2.38-.27-2-1.46a6 6 0 0 0 0-1.29l2-1.17-2.47-.55a6.08 6.08 0 0 0-1-1.54l.65-2.21-1.91 1.13a6 6 0 0 0-1.2-.59l-.43-2.27-1.21 1.91a6 6 0 0 0-1.64.11l-1.45-2-.31 2.63a6.1 6.1 0 0 0-1 .68L259 193l1.18 2a6 6 0 0 0-.58 1.15l-2.32.26 1.95 1.44a6 6 0 0 0 0 1.22l-2 1.37 2.49.37a6.08 6.08 0 0 0 .75 1.22l-.63 2.16 1.77-1a6 6 0 0 0 1.39.81z" class="bright-red"/><g id="bot"><path d="M142.9 118.35a21 21 0 0 0-4.47 11.56 1 1 0 0 0 1.24.33s1.33-1.91 3.23-11.89zM91.69 177.27l-6.78 3.91a1.5 1.5 0 0 1-1.91-2.24l6-7.34" class="medium-blue-stroke-white"/><path d="M93.16 177.25l-6.6 3.26h-.09a2.63 2.63 0 1 1-1.46-3l.21.11h.12l5.83-2.86M86.76 155l-.86-.49a1.5 1.5 0 0 1-.72-1.63L90.79 128a1.5 1.5 0 0 1 2.93.66l-5.36 23.84.49.28M83.86 133.49a2 2 0 0 1-.31-2l5.8-14.1a2 2 0 0 1 3.7 1.52l-5.34 13" class="medium-blue-stroke-white"/><circle cx="84.02" cy="179.95" r="2.63" class="medium-blue-stroke-white"/><circle cx="84.76" cy="133.41" r="3.35" class="medium-blue-stroke-white" transform="rotate(-87.98 84.77 133.42)"/><circle cx="86.76" cy="155.42" r="3.35" class="medium-blue-stroke-white" transform="rotate(-87.98 86.77 155.42)"/><path d="M83.53 136.4l6.7 13a1.36 1.36 0 0 0 .83.71 3.33 3.33 0 0 0 2.51-.33 1.37 1.37 0 0 0 .52-1.87c-1.48-2.7-6-10.69-7.51-13.1a1.4 1.4 0 0 0-1.64-.59c-.85.33-1.86.93-1.41 2.18zM121.51 177c0 10.52-7.39 14.79-16.5 9.53s-16.5-18.02-16.5-28.53 7.39-14.79 16.5-9.53 16.5 18.05 16.5 28.53z" class="medium-blue-stroke-white"/><path d="M119.2 175.12c-.26.89-.83 1.23-1.28.76a2.85 2.85 0 0 1-.34-2.46c.26-.89.83-1.23 1.28-.76a2.85 2.85 0 0 1 .34 2.46zM119.5 181.93c-.42.82-1.05 1-1.4.5a2.85 2.85 0 0 1 .14-2.48c.42-.82 1.05-1 1.4-.5a2.85 2.85 0 0 1-.14 2.48z" class="medium-blue-stroke-white"/><path d="M124.94 184a1.51 1.51 0 0 1-.36 0l-5.41-1.33a1.5 1.5 0 1 1 .72-2.91L125 181l11.63-2.54a1.5 1.5 0 0 1 .64 2.93l-12 2.62a1.51 1.51 0 0 1-.33-.01z" class="medium-blue-stroke-white"/><circle cx="125.95" cy="182.37" r="2.63" class="medium-blue-stroke-white"/><path d="M91.69 177.28c-3.38-5.13-5.54-11.22-5.54-16.65 0-9.57 6.72-13.45 15-8.67s15 16.43 15 26-6.72 13.45-15 8.67a29.56 29.56 0 0 1-9.47-9.35M117.06 164.57c0 1.37-.62 2.07-1.49 1.57a4.41 4.41 0 0 1-1.65-3.39c0-1.37.62-2.07 1.49-1.57a4.41 4.41 0 0 1 1.65 3.39zM94.18 146.42v-5.37l18.69 10.79v5.37l-18.69-10.79z" class="medium-blue-stroke-white"/><path d="M115 155.21v-5.03L96.31 139.4l-2.09 1.5-.04.03 18.69 10.79v5.49l2.13-2zM115 150.18l-2.13 1.66" class="medium-blue-stroke-white"/><circle cx="91.86" cy="116.33" r="2.3" class="medium-blue-stroke-white" transform="rotate(-87.98 91.87 116.33)"/><path d="M132.93 153.94l7.33-21.15a2 2 0 0 0-3.78-1.31l-7.09 20.45M90.91 114.31s.64 2.78 2.74 1l.61-1.46-.55-.32 1.84-3.25.66.16a5.37 5.37 0 0 1 5.49-1.79s-2.63-2.12-6.71-.13a8.63 8.63 0 0 0-4.07 5.8z" class="medium-blue-stroke-white"/><circle cx="129.6" cy="155" r="3.35" class="medium-blue-stroke-white"/><path d="M126.93 155l-11.82 6.45a1.36 1.36 0 0 0-.68.86 3.33 3.33 0 0 0 .41 2.5 1.37 1.37 0 0 0 1.89.45c2.64-1.58 9.5-5.68 11.85-7.26a1.4 1.4 0 0 0 .53-1.66c-.31-.85-.95-1.83-2.18-1.34zM124.94 176.82h-.27l-5.93-1.1a1.5 1.5 0 0 1 .55-2.95l5.47 1 11.4-5.11a1.5 1.5 0 1 1 1.23 2.74l-11.82 5.3a1.51 1.51 0 0 1-.63.12z" class="medium-blue-stroke-white"/><circle cx="125.74" cy="174.68" r="2.63" class="medium-blue-stroke-white"/><path d="M124.53 205l20.29 9.46a2 2 0 1 0 1.69-3.63l-19.61-9.15" class="medium-blue-stroke-white"/><circle cx="123.82" cy="201.61" r="3.35" class="medium-blue-stroke-white" transform="rotate(-84.12 123.82 201.6)"/><path d="M124.08 198.95l-5.21-12.42a1.36 1.36 0 0 0-.78-.76 3.33 3.33 0 0 0-2.53.16 1.37 1.37 0 0 0-.65 1.83c1.3 2.79 4.68 10 6 12.53a1.4 1.4 0 0 0 1.6.7c.9-.23 1.94-.77 1.57-2.04z" class="medium-blue-stroke-white"/><circle cx="138.8" cy="130.94" r="2.3" class="medium-blue-stroke-white" transform="rotate(-87.98 138.81 130.94)"/><path d="M102.92 147.4a1 1 0 0 0-.86.54l-7.58 5.17a2.08 2.08 0 0 0-1-.24 2.06 2.06 0 0 0 .09 4.11h.09a2.06 2.06 0 0 0 2-2.15v-.15l7.55-5.2a1 1 0 0 0 .89-1.08 1.06 1.06 0 0 0-1.18-1z" class="medium-blue"/></g><path d="M253.79 82.94h47.11v-.23a4.32 4.32 0 0 0-5.25-4.23 9.18 9.18 0 0 0-13.83-7.12 12.42 12.42 0 0 0-23.36 7.19 6.44 6.44 0 0 0-4.67 4.39z" class="bright-blue-stroke"/><path fill="#fff" d="M272.09 83.74a3.28 3.28 0 0 1 2.6-3.06 9.64 9.64 0 0 1 17.79-1.23 6 6 0 0 1 9.4 1.56 3.25 3.25 0 0 1 4.81 2.73z"/><path d="M272.09 83.74a3.28 3.28 0 0 1 2.6-3.06 9.64 9.64 0 0 1 17.79-1.23 6 6 0 0 1 9.4 1.56 3.25 3.25 0 0 1 4.81 2.73z" class="bright-blue-stroke"/><g id="malware-bug2"><path d="M15 20.51l-.77-.58-2.55.24 2.92-1.81h.08l1.08 1.08" class="medium-blue"/><path d="M8.59 27.81l.66-1.9a6 6 0 0 0 1.75-.6l2 1.16-.62-2.12a6.07 6.07 0 0 0 .91-1.09l2.56-.05L14 21.6a6 6 0 0 0 .21-1.18l2.19-1-2.31-.8a6 6 0 0 0-.41-1.22l1.55-1.72-2.52.22a6.08 6.08 0 0 0-1.41-1.17v-2.3L9.77 14.1a6 6 0 0 0-1.32-.2l-1.09-2-.57 2.19a6 6 0 0 0-1.53.6l-2-1.45.5 2.61a6.1 6.1 0 0 0-.73.95l-2.43.05 1.73 1.55a6 6 0 0 0-.2 1.27l-2.13.9 2.29.79a6 6 0 0 0 .4 1.15l-1.48 1.91L3.7 24a6.08 6.08 0 0 0 1.08 1v2.25l1.42-1.58a6 6 0 0 0 1.58.33z" class="bright-red"/><g opacity=".3"><path d="M139.52 97.28q-.71-.7-1.45-1.37" class="grey-stroke"/><path fill="none" stroke="#969c9c" stroke-dasharray="5.88 3.92 10.78 5.88" stroke-linecap="round" stroke-linejoin="round" stroke-width="1.5" d="M129.09 89.29a90.12 90.12 0 0 0-22.47-9.21"/><path fill="none" stroke="#969c9c" stroke-dasharray="3.92 10.78 5.88 3.92 10.78 5.88" stroke-linecap="round" stroke-linejoin="round" stroke-width="1.5" d="M103.67 79.3c-4.16-1-7.94-1.81-11-2.45-17.87-3.68.53-51.48-34.44-54.62"/><path d="M55.17 22.08h-2" class="grey-stroke"/></g><path d="M16 28.94c.33 0 .37.16.37.16l.24 1c0 .24-.24.17-.24.17l-1.05-.42a.79.79 0 0 0-.57 0L10.8 31.2l-.35-.47-1.75.9c-.24.13-.17-.12-.17-.12l.13-1.57a1.07 1.07 0 0 0-.07-.45L8.38 29c-.11-.24.11-.23.11-.23l7.35.15zm41.7-4.66l-.42.05a5.39 5.39 0 0 1-1.2 0 3.66 3.66 0 0 1-.83-.18 9.91 9.91 0 0 0-1.61-.32h-.18a6.8 6.8 0 0 0-.53-3.64c-9.38-17.34-29.81-8.26-29.81-8.26s-.14-.85-2.73 7.22a8.75 8.75 0 0 0 .32 6.72.19.19 0 0 0-.22 0c-.51.59-1.84 2.54-2.8 2.52s-1.3.34-1.3.34l.14.2a1.77 1.77 0 0 1 .32.94.53.53 0 0 0 .22.42 2.48 2.48 0 0 0 2.92-.49 12.16 12.16 0 0 1 1.87-1.8s0-.17-.06-.36a12.16 12.16 0 0 0 4 3.17q.89.37 1.73.68a32.83 32.83 0 0 1 .81 4.79 3.77 3.77 0 0 0 2.32 3.61.49.49 0 0 0 .59-.18 1.59 1.59 0 0 1 1.13-.71h.33s0-.8-1.29-2.34A13 13 0 0 1 29.19 32a30.66 30.66 0 0 0 6.28 1.36 3.56 3.56 0 0 0 .94 1.64 5.76 5.76 0 0 0 2.18 1.4l1.92.72a2.08 2.08 0 0 1 .91.66l1.08 1.57a.32.32 0 0 0 .4.09s.89-.15.76-.42-2.4-3.14-.39-.64l-1.63-2a38.43 38.43 0 0 0-3.11-2.81 39.86 39.86 0 0 0 6.19-.74c2-.32 5.38-1.95 6.51-3.52a12.16 12.16 0 0 0 2-4.2c1 .34 2.19.79 2.19.79a2.08 2.08 0 0 1 1 .74.36.36 0 0 0 .43-.27v-.77c0-.12.2-.29.2-.29l.73-.72a.23.23 0 0 0-.11-.31z" class="medium-blue"/><path d="M35 40.89a7.75 7.75 0 0 1-1.5-1l-.9-.64s-1.22-.26-.37.91a15 15 0 0 0 3 3.64.61.61 0 0 0 .27.13c.43.09 1.64.28 2.2-.39a.32.32 0 0 0 .08-.21c-.03-.27-.28-1.19-2.78-2.44zM48.85 41.64a6.38 6.38 0 0 1-1.29-.4 4.54 4.54 0 0 1-.85-.47 5.89 5.89 0 0 0-1-.56c-.41-.18-.81-.42-1.23-.6-.26-.11-.75-.37-1-.22s-.26.38-.35.52.23.45.23.45a71.5 71.5 0 0 1 3.13 2.24 2.6 2.6 0 0 1 .85 1.11.37.37 0 0 0 .52-.13l.19-.76c0-.13.29-.23.29-.23l1-.51c.16-.14 0-.34 0-.34zM14.74 22.44l-1.79 1h-.14l-1.61-.93 1.8-.34 1.39-.81M61.8 26.94l.54.41-.6-.07.11.22h-.32l.47.5h-.08l-.51-.13a.82.82 0 0 1-.4-.15c-.41-.27 0-.71 0-.71.41-.37.65-.23.79-.07zm-9.32 17.4s-.31.59.21.78a.93.93 0 0 0 .47.06h.67l-.67-.34.32-.12-.19-.21.65-.07-.71-.3c-.23-.14-.49-.23-.75.2zM4.54 28.87s.41-.52-.06-.8a.93.93 0 0 0-.48-.14l-.56-.12h-.09l.59.46-.34.06.15.25H3.1l.64.42a.48.48 0 0 0 .8-.13zm36.2 19.28l.76.37-.41-.59h.31l-.13-.35.76.3-.07-.08-.42-.47a1 1 0 0 0-.39-.35c-.53-.29-.79.38-.79.38-.18.54.12.73.37.79z" class="medium-blue"/><path d="M49.82 28.52L54.11 32a1.25 1.25 0 0 1 .42.57c.07.24 0 .38 0 .45a.4.4 0 0 1-.35.08 36.15 36.15 0 0 1-16.39-1.73M32.48 13.6L36 10.77a8.36 8.36 0 0 1 1-1L38 9a6.4 6.4 0 0 0 1.89-2.52 4.31 4.31 0 0 1 .93-1.4l2.92-3.43a1.09 1.09 0 0 0 .26-.52c0-.2 0-.3-.07-.35s-.26 0-.28 0a28.42 28.42 0 0 0-17.3 8.08 26.4 26.4 0 0 0-5.14 7.54zm-11.93 7.3a8 8 0 0 0 1.68 4.16C24.48 28 30 32.67 41.76 30.83c0 0 13.79-.92 11.31-11.79 0 0-4.39-5.55-19.31-4.8 0 0-12.17 1.35-12.81 4.78l-.35 1.45a1.34 1.34 0 0 0-.05.43z" class="medium-blue-stroke-white"/><path d="M21.87 16a3 3 0 0 1 .19-2.55c.75-1.27 13.19-17.24 29.56-7 0 0-2-1-7.88-.6S28.07 8.93 21.87 16zM6.12 30.25s.82 1.47 1.8.23c0 0 .73-1-.17-1.5a1.51 1.51 0 0 0-1.07-.21s.7.88-.56 1.48zm-1-1.81a1 1 0 0 1 .7.18c.58.35.07 1 .07 1-.68.76-1.18-.22-1.18-.22.85-.4.41-.96.41-.96zm45.27 16.4a1.51 1.51 0 0 1-1.09 0c-1-.3-.44-1.45-.44-1.45.73-1.39 1.81-.1 1.81-.1-1.13.81-.28 1.54-.28 1.54zm1.6 0a1 1 0 0 1-.72 0c-.64-.23-.25-1-.25-1 .52-.87 1.2 0 1.2 0-.78.52-.22 1.03-.22 1.03zm-13.88 1.5s-1.77-.47-.73-1.84c0 0 .89-1.05 1.63-.23a1.65 1.65 0 0 1 .51 1.07s-1.11-.49-1.41 1zm1.66 1.07s-1.21.07-.86-1c0 0 .32-.83 1-.47a1.13 1.13 0 0 1 .56.56s-.84-.07-.69.91zm19.3-20.47a1.37 1.37 0 0 1-1-.24c-.78-.46 0-1.34 0-1.34a.93.93 0 0 1 1.64.29c-1.18.48-.64 1.29-.64 1.29zm1.41.37a.92.92 0 0 1-.63-.19c-.5-.33.05-.88.05-.88a.62.62 0 0 1 1.1.26c-.86.25-.52.81-.52.81z" class="medium-blue-stroke-white"/><path fill="none" stroke="#3f4563" stroke-linecap="round" stroke-linejoin="round" stroke-width="1.5" d="M25.12 13.05l8.79-5M36.8 9l-.48-1.4-3.12.85m-3.06 1.75l.86 1.11 2.77-.26M14.63 22.42c.14.67.7 1.28 2.09 1.58a14 14 0 0 0 3.07 0l1.37-8.82-.34-.18s-1.58-1-3.07 1.28l-2.05 3.3s-1.34 1.54-1.06 2.84m0-.43a1 1 0 0 0 .3.44A1.56 1.56 0 0 0 17 22a1.56 1.56 0 0 0 .13-2.17 2.38 2.38 0 0 1-.63-1.62s-2.26 2.67-1.9 3.79zm2.71-4.88c-1.23 4.46 2 3.86 2 3.86"/></g></svg>