<svg xmlns="http://www.w3.org/2000/svg" width="39.02" height="48.88" viewBox="0 0 39.02 48.88">
  <title>icon-blue-fire-wall</title>
  <g id="Layer_2" data-name="Layer 2">
    <g id="_1200" data-name="1200">
      <g id="Table">
        <g id="Protection">
          <g id="waf-sm">
            <path d="M11.72,41.41s7.3.24,10.92-6.21v0c2-3.51,3.65-10.12-2.57-19.79-4.51-7-2.33-10.54-2.33-10.54S11.82,10,13.65,14h0a22.49,22.49,0,0,0,2.14,2.48c5,5.08,7.31,9.63,7.3,14a11.2,11.2,0,0,1-11.38,11" style="fill: #fff;stroke: #03a9f4;stroke-linecap: round;stroke-linejoin: round"/>
            <path d="M23.23,30.56c0-4.36-2.27-8.87-7.3-13.9C6.23,7,15,1.28,15,1.28A7.85,7.85,0,0,1,16.06.5l-.88.21S1.7,4,2.89,17.23a14.43,14.43,0,0,1-1.24,8.7l-.16.3a10.3,10.3,0,0,0-1,4.4c0,6,5.08,10.79,11.36,10.79A11.16,11.16,0,0,0,23.23,30.56" style="fill: #fff;stroke: #03a9f4;stroke-linecap: round;stroke-linejoin: round"/>
            <path d="M11.57,39.62S18.1,36,14.31,29.81c0,0-1.64-2.4-1.24-4.36l-.34.79a3.17,3.17,0,0,1-1.44-3s-1.88,1.73-.36,5a8,8,0,0,1-2.11-6.85S2.94,26.39,5.57,34a11.21,11.21,0,0,0,4.61,5.75A1.86,1.86,0,0,0,11.57,39.62Z" style="fill: #fff;stroke: #03a9f4;stroke-linecap: round;stroke-linejoin: round"/>
            <g>
              <path d="M25,18.06l-9.84,5.4c-.09.05-.09.13,0,.18L18,25.2a.38.38,0,0,0,.33,0l9.84-5.4c.09-.05.09-.13,0-.18l-2.85-1.56A.38.38,0,0,0,25,18.06Z" style="fill: #fff;stroke: #03a9f4;stroke-linecap: round;stroke-linejoin: round"/>
              <path d="M35.27,12.41l-9.91,5.43c-.08,0-.07.13,0,.18l2.83,1.55a.39.39,0,0,0,.33,0l9.91-5.43c.08,0,.07-.13,0-.18l-2.83-1.55A.39.39,0,0,0,35.27,12.41Z" style="fill: #fff;stroke: #03a9f4;stroke-linecap: round;stroke-linejoin: round"/>
              <path d="M14.48,23.81,12,25.14c-.08,0-.07.13,0,.18l2.83,1.55a.39.39,0,0,0,.33,0l2.43-1.33c.08,0,.07-.13,0-.18l-2.83-1.55A.39.39,0,0,0,14.48,23.81Z" style="fill: #fff;stroke: #03a9f4;stroke-linecap: round;stroke-linejoin: round"/>
            </g>
            <g>
              <line x1="14.44" y1="32.35" x2="14.44" y2="37.31" style="fill: #fff;stroke: #969c9c;stroke-linecap: round;stroke-linejoin: round"/>
              <line x1="14.44" y1="37.8" x2="14.44" y2="42.75" style="fill: #fff;stroke: #969c9c;stroke-linecap: round;stroke-linejoin: round"/>
              <path d="M14.44,43.17v5.12c0,.09-.07.13-.22,0l-2.15-1.18S12,47,12,46.95V25.59c0-.1.06-.15.14-.1l2.17,1.19a.32.32,0,0,1,.14.26V43.17Z" style="fill: #fff;stroke: #03a9f4;stroke-linecap: round;stroke-linejoin: round"/>
            </g>
            <g id="wall">
              <g>
                <path d="M18,30.48,28,25a.34.34,0,0,0,.17-.27V19.84c0-.1-.07-.14-.35-.19l-9.93,5.45c.09.15,0,.28,0,.38v4.92C17.87,30.49,17.95,30.53,18,30.48Z" style="fill: #fff"/>
                <path d="M28.3,24.65l9.93-5.45a.34.34,0,0,0,.13-.15V13.92a.11.11,0,0,0-.13,0L28.3,19.37a.34.34,0,0,0-.17.27v4.92C28.13,24.66,28.2,24.7,28.3,24.65Z" style="fill: #fff"/>
                <path d="M33.42,22.18V27.1c0,.1.07.14.17.09l4.77-2.62V19.29l-4.77,2.62A.34.34,0,0,0,33.42,22.18Z" style="fill: #fff"/>
                <path d="M28.63,35.36,38.36,30V24.74l-9.73,5.34a.34.34,0,0,0-.17.27v4.92C28.46,35.37,28.54,35.41,28.63,35.36Z" style="fill: #fff"/>
                <path d="M33.27,27.19V22.27c0-.1-.07-.14-.17-.09l-9.93,5.45a.34.34,0,0,0-.17.27v4.92c0,.1.07.14.17.09l9.93-5.45A.34.34,0,0,0,33.27,27.19Z" style="fill: #fff"/>
                <path d="M18.21,35.79a.34.34,0,0,0-.17.27V41c0,.1.07.14.17.09l9.93-5.45a.34.34,0,0,0,.17-.27V30.43c0-.1-.07-.14-.17-.09Z" style="fill: #fff"/>
                <path d="M17.88,41.07V36.15c0-.1-.07-.14-.17-.09l-2.9,1.59v5.29l2.9-1.59A.34.34,0,0,0,17.88,41.07Z" style="fill: #fff"/>
                <path d="M33.1,33.06l-9.93,5.45a.34.34,0,0,0-.17.27v4.92c0,.1.07.14.17.09l9.93-5.45a.34.34,0,0,0,.17-.27V33.15C33.27,33.05,33.19,33,33.1,33.06Z" style="fill: #fff"/>
                <path d="M38.36,30.18,33.59,32.8a.34.34,0,0,0-.17.27V38c0,.1.07.14.17.09l4.77-2.62Z" style="fill: #fff"/>
                <path d="M22.68,38.78l-7.87,4.31v5.29l7.87-4.31a.34.34,0,0,0,.17-.27V38.87C22.85,38.77,22.77,38.73,22.68,38.78Z" style="fill: #fff"/>
                <path d="M22.85,32.91V28c0-.1-.07-.14-.17-.09l-7.87,4.31v5.29l7.87-4.31A.34.34,0,0,0,22.85,32.91Z" style="fill: #fff"/>
                <path d="M17.55,30.36V25.44c0-.1-.07-.14-.17-.09l-2.57,1.41V32l2.57-1.41A.34.34,0,0,0,17.55,30.36Z" style="fill: #fff"/>
              </g>
              <g>
                <path d="M18,30.48,28,25a.34.34,0,0,0,.17-.27V19.84c0-.1-.07-.14-.35-.19l-9.93,5.45c.09.15,0,.28,0,.38v4.92C17.87,30.49,17.95,30.53,18,30.48Z" style="fill: #fff;stroke: #03a9f4;stroke-linecap: round;stroke-linejoin: round"/>
                <path d="M28.3,24.65l9.93-5.45a.34.34,0,0,0,.13-.15V13.92a.11.11,0,0,0-.13,0L28.3,19.37a.34.34,0,0,0-.17.27v4.92C28.13,24.66,28.2,24.7,28.3,24.65Z" style="fill: #fff;stroke: #03a9f4;stroke-linecap: round;stroke-linejoin: round"/>
                <path d="M33.42,22.18V27.1c0,.1.07.14.17.09l4.77-2.62V19.29l-4.77,2.62A.34.34,0,0,0,33.42,22.18Z" style="fill: #fff;stroke: #03a9f4;stroke-linecap: round;stroke-linejoin: round"/>
                <path d="M28.63,35.36,38.36,30V24.74l-9.73,5.34a.34.34,0,0,0-.17.27v4.92C28.46,35.37,28.54,35.41,28.63,35.36Z" style="fill: #fff;stroke: #03a9f4;stroke-linecap: round;stroke-linejoin: round"/>
                <path d="M33.27,27.19V22.27c0-.1-.07-.14-.17-.09l-9.93,5.45a.34.34,0,0,0-.17.27v4.92c0,.1.07.14.17.09l9.93-5.45A.34.34,0,0,0,33.27,27.19Z" style="fill: #fff;stroke: #03a9f4;stroke-linecap: round;stroke-linejoin: round"/>
                <path d="M18.21,35.79a.34.34,0,0,0-.17.27V41c0,.1.07.14.17.09l9.93-5.45a.34.34,0,0,0,.17-.27V30.43c0-.1-.07-.14-.17-.09Z" style="fill: #fff;stroke: #03a9f4;stroke-linecap: round;stroke-linejoin: round"/>
                <path d="M17.88,41.07V36.15c0-.1-.07-.14-.17-.09l-2.9,1.59v5.29l2.9-1.59A.34.34,0,0,0,17.88,41.07Z" style="fill: #fff;stroke: #03a9f4;stroke-linecap: round;stroke-linejoin: round"/>
                <path d="M33.1,33.06l-9.93,5.45a.34.34,0,0,0-.17.27v4.92c0,.1.07.14.17.09l9.93-5.45a.34.34,0,0,0,.17-.27V33.15C33.27,33.05,33.19,33,33.1,33.06Z" style="fill: #fff;stroke: #03a9f4;stroke-linecap: round;stroke-linejoin: round"/>
                <path d="M38.36,30.18,33.59,32.8a.34.34,0,0,0-.17.27V38c0,.1.07.14.17.09l4.77-2.62Z" style="fill: #fff;stroke: #03a9f4;stroke-linecap: round;stroke-linejoin: round"/>
                <path d="M22.68,38.78l-7.87,4.31v5.29l7.87-4.31a.34.34,0,0,0,.17-.27V38.87C22.85,38.77,22.77,38.73,22.68,38.78Z" style="fill: #fff;stroke: #03a9f4;stroke-linecap: round;stroke-linejoin: round"/>
                <path d="M22.85,32.91V28c0-.1-.07-.14-.17-.09l-7.87,4.31v5.29l7.87-4.31A.34.34,0,0,0,22.85,32.91Z" style="fill: #fff;stroke: #03a9f4;stroke-linecap: round;stroke-linejoin: round"/>
                <path d="M17.55,30.36V25.44c0-.1-.07-.14-.17-.09l-2.57,1.41V32l2.57-1.41A.34.34,0,0,0,17.55,30.36Z" style="fill: #fff;stroke: #03a9f4;stroke-linecap: round;stroke-linejoin: round"/>
              </g>
              <g>
                <path d="M18,30.48,28,25a.34.34,0,0,0,.17-.27V19.84c0-.1-.07-.14-.35-.19l-9.93,5.45c.09.15,0,.28,0,.38v4.92C17.87,30.49,17.95,30.53,18,30.48Z" style="fill: none;stroke: #03a9f4;stroke-linecap: round;stroke-linejoin: round"/>
                <path d="M28.3,24.65l9.93-5.45a.34.34,0,0,0,.13-.15V13.92a.11.11,0,0,0-.13,0L28.3,19.37a.34.34,0,0,0-.17.27v4.92C28.13,24.66,28.2,24.7,28.3,24.65Z" style="fill: none;stroke: #03a9f4;stroke-linecap: round;stroke-linejoin: round"/>
                <path d="M33.42,22.18V27.1c0,.1.07.14.17.09l4.77-2.62V19.29l-4.77,2.62A.34.34,0,0,0,33.42,22.18Z" style="fill: none;stroke: #03a9f4;stroke-linecap: round;stroke-linejoin: round"/>
                <path d="M28.63,35.36,38.36,30V24.74l-9.73,5.34a.34.34,0,0,0-.17.27v4.92C28.46,35.37,28.54,35.41,28.63,35.36Z" style="fill: none;stroke: #03a9f4;stroke-linecap: round;stroke-linejoin: round"/>
                <path d="M33.27,27.19V22.27c0-.1-.07-.14-.17-.09l-9.93,5.45a.34.34,0,0,0-.17.27v4.92c0,.1.07.14.17.09l9.93-5.45A.34.34,0,0,0,33.27,27.19Z" style="fill: none;stroke: #03a9f4;stroke-linecap: round;stroke-linejoin: round"/>
                <path d="M18.21,35.79a.34.34,0,0,0-.17.27V41c0,.1.07.14.17.09l9.93-5.45a.34.34,0,0,0,.17-.27V30.43c0-.1-.07-.14-.17-.09Z" style="fill: none;stroke: #03a9f4;stroke-linecap: round;stroke-linejoin: round"/>
                <path d="M17.88,41.07V36.15c0-.1-.07-.14-.17-.09l-2.9,1.59v5.29l2.9-1.59A.34.34,0,0,0,17.88,41.07Z" style="fill: none;stroke: #03a9f4;stroke-linecap: round;stroke-linejoin: round"/>
                <path d="M33.1,33.06l-9.93,5.45a.34.34,0,0,0-.17.27v4.92c0,.1.07.14.17.09l9.93-5.45a.34.34,0,0,0,.17-.27V33.15C33.27,33.05,33.19,33,33.1,33.06Z" style="fill: none;stroke: #03a9f4;stroke-linecap: round;stroke-linejoin: round"/>
                <path d="M38.36,30.18,33.59,32.8a.34.34,0,0,0-.17.27V38c0,.1.07.14.17.09l4.77-2.62Z" style="fill: none;stroke: #03a9f4;stroke-linecap: round;stroke-linejoin: round"/>
                <path d="M22.68,38.78l-7.87,4.31v5.29l7.87-4.31a.34.34,0,0,0,.17-.27V38.87C22.85,38.77,22.77,38.73,22.68,38.78Z" style="fill: none;stroke: #03a9f4;stroke-linecap: round;stroke-linejoin: round"/>
                <path d="M22.85,32.91V28c0-.1-.07-.14-.17-.09l-7.87,4.31v5.29l7.87-4.31A.34.34,0,0,0,22.85,32.91Z" style="fill: none;stroke: #03a9f4;stroke-linecap: round;stroke-linejoin: round"/>
                <path d="M17.55,30.36V25.44c0-.1-.07-.14-.17-.09l-2.57,1.41V32l2.57-1.41A.34.34,0,0,0,17.55,30.36Z" style="fill: none;stroke: #03a9f4;stroke-linecap: round;stroke-linejoin: round"/>
              </g>
            </g>
          </g>
        </g>
      </g>
    </g>
  </g>
</svg>
