<svg xmlns="http://www.w3.org/2000/svg" width="261.22" height="10.05" viewBox="0 0 261.22 10.05">
  <title>icon-green-line</title>
  <g id="Layer_2" data-name="Layer 2">
    <g id="_1200" data-name="1200">
      <g id="Form">
        <g id="Bullets">
          <g>
            <path d="M.05,6.78c-.13.1,0,.28.35.21l.23-.36Z" style="fill: #3bcb7c"/>
            <path d="M2.66,7.13c.43-.2.91-.53.59-.81-.4.36-.53.24-1,.66-.37.08-.67,0-.62-.17-.12.1-.6,0-.78.21a2.3,2.3,0,0,0,1.77-.12C2.81,7,2.69,7.07,2.66,7.13Z" style="fill: #3bcb7c"/>
            <path d="M39.64,4.43l-.24,0A1,1,0,0,0,39.64,4.43Z" style="fill: #3bcb7c"/>
            <path d="M62.57,3.35c-.17,0-.25.05-.25.08C62.48,3.4,62.61,3.37,62.57,3.35Z" style="fill: #3bcb7c"/>
            <path d="M66.5,3.53h-.23A.35.35,0,0,0,66.5,3.53Z" style="fill: #3bcb7c"/>
            <path d="M39.64,4.43l.62.06C40.29,4.38,39.94,4.43,39.64,4.43Z" style="fill: #3bcb7c"/>
            <path d="M7.67,5.84A1.26,1.26,0,0,0,7.34,6l.31-.07Z" style="fill: #3bcb7c"/>
            <path d="M29.56,5.42h-.19a1,1,0,0,0-.14.15Z" style="fill: #3bcb7c"/>
            <path d="M21.82,6.07c.18,0,.21-.29.27-.42a.59.59,0,0,1-.36.23A.32.32,0,0,0,21.82,6.07Z" style="fill: #3bcb7c"/>
            <path d="M9.52,6.8l-.21.06Z" style="fill: #3bcb7c"/>
            <path d="M35.11,5.08a.2.2,0,0,0,.08.1S35.15,5.11,35.11,5.08Z" style="fill: #3bcb7c"/>
            <path d="M252.3,7s0,0,0,0S252.36,7,252.3,7Z" style="fill: #3bcb7c"/>
            <path d="M261.12,9.32H261a.66.66,0,0,0,0,.15Z" style="fill: #3bcb7c"/>
            <path d="M73.68,3.62h0C73.46,3.65,73.57,3.64,73.68,3.62Z" style="fill: #3bcb7c"/>
            <path d="M139.51,3c-.74-.27,1.22-.29.1-.6C139.71,2.51,138.58,2.81,139.51,3Z" style="fill: #3bcb7c"/>
            <path d="M7.87,5.85l.32,0A1.58,1.58,0,0,0,7.87,5.85Z" style="fill: #3bcb7c"/>
            <path d="M139.61,2.4h0l-.12,0Z" style="fill: #3bcb7c"/>
            <path d="M90.19,3A.46.46,0,0,0,90,2.9S90.07,3,90.19,3Z" style="fill: #3bcb7c"/>
            <path d="M77.87,2.94l.31,0A1.74,1.74,0,0,0,77.87,2.94Z" style="fill: #3bcb7c"/>
            <path d="M96.58,2.52a1.08,1.08,0,0,0,.45,0L97,2.5A.55.55,0,0,1,96.58,2.52Z" style="fill: #3bcb7c"/>
            <path d="M103.23,2.47l-.12-.06-.21,0Z" style="fill: #3bcb7c"/>
            <path d="M232.11,5.32a1,1,0,0,1,.29.28C232.31,5.39,233.29,5.4,232.11,5.32Z" style="fill: #3bcb7c"/>
            <path d="M7.69,6a.24.24,0,0,1,.18-.14l-.22,0S7.64,6,7.69,6Z" style="fill: #3bcb7c"/>
            <path d="M96.82.3l1.06,0C97.58.31,97.2.29,96.82.3Z" style="fill: #3bcb7c"/>
            <path d="M184.4,2.25l.24,0A.48.48,0,0,0,184.4,2.25Z" style="fill: #3bcb7c"/>
            <path d="M101,.27a2.05,2.05,0,0,0,.6.19.41.41,0,0,0,.12-.07Z" style="fill: #3bcb7c"/>
            <path d="M232.4,5.6h0Z" style="fill: #3bcb7c"/>
            <path d="M239.4,5.52c-1-.1-.5.32-.74.51-1.21,0-.53-.32-.92-.54a18.39,18.39,0,0,1-1.92.27c0-.06-.14-.09,0-.16-.82.23-2.35-.18-3.31.11a.27.27,0,0,1-.11-.1.6.6,0,0,1,.1.52c-.45,0-.86.16-1-.09.28,0,.31-.07.44-.13l-.48.07c-.4-.38.65-.07.68-.32a13.31,13.31,0,0,1-2.72.08c-.12-.35,1.66,0,.74-.36l1.08.22c-.79-.6.66.09-.06-.54-1.43-.22-1.62,0-3-.18-.34.16.08.29-.25.45-2.06.17-1.54-1-3.07-.65a1.55,1.55,0,0,1-1.64.31l.39-.36c-1.39-.14-.84.49-2.28.13.27-.13,1.1,0,.9-.11-.92-.37-.68.17-1.41.12l-.13-.35c-1.49-.05-3.14.07-4.78,0,.1-.09.39-.18,0-.31a40,40,0,0,1-6.4-.69l-.78.25c-.18,0-.32-.15-.12-.2-.77-.16-.05.18-.43.28s-.57-.2-.29-.28a17.16,17.16,0,0,1-5.38-.11l.29-.07c-1.12-.19-1.31.52-2.34.18l.2,0c-2.44-.27-5.16-.19-7-.72-.38.4-2.41-.31-2.6.27a14.58,14.58,0,0,0-2.94-.74c-.52-.05-.8.33-1.46.36V2.29l-.9.28-.45-.39-.61,0c.24,0,.51.16.47.25A4.06,4.06,0,0,1,182.78,2l-2.27.15c.06-.12.44-.14.74-.21-1.22.25-.2-.34-1.32-.1.14.08-.09.18-.12.24a8.81,8.81,0,0,0-2.72-.25l.19-.2c-1.67-.12-3.53,0-5.41-.11.67.12.5.49-.05.5l-.21-.33c-.36.19.57.15-.17.36-.7-.06-.46-.39,0-.48l-.86.08c0-.1.16-.14.21-.26-.36.19-1.46-.38-2-.05l0-.1c-1.88-.07-2.73,0-4.26,0,0,.28-.64.19-1.1.4a35.46,35.46,0,0,0-3.71-.43c-1,.1-.29.23-.72.38-.06-.26-1.41-.29-.71-.44a38.43,38.43,0,0,0-4.14.15c.22.11.47.16.34.25-.37,0-.85-.13-.79-.25l.1,0c-2.32.33-5.31-.88-7.16-.39l.1,0L144.77,1c-.88-.07.53-.18-.11-.35-2.06.38-3.25-.14-4.95.1-1.3-.8-4.65,0-6.41-.53l.1.18c-.46.17-.55-.11-.89-.15,0,.14.49.16.21.26-3.88.18-8-.34-12-.53-1.45-.06-.83.91-2.66.47l.52-.33c-2.93.35-6,0-8.86.34.17-.08.18-.18.46-.18a3.5,3.5,0,0,0-2.25.2c-.45,0-.1-.18-.38-.27C107,.1,106,.55,105.72.32c-.06,0,.17-.08.28-.1-.4.12-1.85,0-1.47.26-1.08-.12-2.06.14-2.92,0-.56.31-1.85-.14-2,.3C99.67.31,97.71.41,97,.63c.23-.14-.59-.14-.33-.33-.78,0-1.49.1-1.35.33-1.44-.54-2.87.46-3.69-.2-2.3.3-4.44.52-6.51.68.06-.45,2.29-.1,2.19-.58a29.56,29.56,0,0,1-5,.6c-.51,0,.28-.2.45-.28-2,.24-3.81.06-5.55.35,0,0,.19-.09.37-.13-.34,0-.8,0-.76.16l.33-.06c.56.28-1.35.66-1.41.82.57-.6-1.73-.1-.83-.87-.23,0-.51.15-.45.28-.34,0-.45-.11-.11-.27-1.23.14-.79.35-1.91.38,0-.1.23-.14.34-.26a4.47,4.47,0,0,1-2.07.36c.05-.06-.06-.14.22-.14-1.62.08-2.75.64-4.54.53.51-.46-.61-.11-.72-.48l-1,.16.39.16a16.45,16.45,0,0,1-2.3.25l.62-.18L61.87,2l.9.1c-.84.23.11.47-1,.42a7.42,7.42,0,0,1-1.29-.16h0A3.14,3.14,0,0,1,59,2.6c-.17-.11.11-.42,0-.49-.39.33-2,.18-2.46.54.17-.09.17-.28.11-.32l-.33.27c-.39-.06-.45-.1-.4-.26-1.17,0,.4.46-1,.32.11,0,.05-.06.28-.11-1.4,0-2.68.29-4,.22-.4-.36,1.11-.15.66-.44-1.84.16-3.8.62-5.59.64l.33,0c-.22.55-1.34-.17-2.23.15.22-.05.27-.31.22-.25a30.24,30.24,0,0,0-4.33.61l.22-.15c-.73-.07-1.9.07-2.68.06-.22.15-.67.16-.38.34-2.45-.6-4.54.74-6.72.25.25,0,.6-.16.39-.15l-1.8.25c.16.22.25.12.64.27a2.76,2.76,0,0,1-1.17.33c.8-.21,0-.37-.4-.47.06.07,0,.15,0,.22-1-.34-.12.47-1.44.29L27,4.61a7.1,7.1,0,0,1-1.44.29c-.24-.25.5-.16.52-.38-.73.07-1.4.61-2.09.39.3-.1.75-.13,1.06-.23a2.88,2.88,0,0,0-1.37-.19h.05c-.42,0-.83,0-1.25,0l.32.05c-.85.78-1.85.31-3,.89,1.16-.55.18-.27.24-.58-.32-.05-.81-.1-.68-.2-.56.3-1-.1-1.78.34,0-.09-.62.05-.52-.2-.75.15.19.15.14.28-1.14.45-2.78-.13-4.42.49-1.43.33-1.66.68-3,1-.47-.11.34-.39.34-.39a5.17,5.17,0,0,0-2,.19c.13-.1,0-.16-.24-.24-.55.08-.33.39-1.08.32A1.84,1.84,0,0,1,7.34,6c-.64.15-1.27.4-1.93.55-.2-.15.38-.3.61-.43-.75.15-1.95.35-2.15.64l.5,0c-.27,0-.17-.22,0-.28.63-.27.95,0,1,.09l-.47.11c.55.52,1.92-.28,2.89-.35l-.36.45,1-.44c.22.09.39.3-.08.41.71.14.6-.21,1.22,0,.07,0,0,.05,0,.07l.66-.19c-.12.1.14.28-.28.26,1.24.12,1.93-.5,2.42-.24l-.1,0c1.67-.31.13-.32,1.36-.8l.92.67.14-.32c.18,0,.52,0,.47.11C15.74,6,15,6.2,15.35,6c.86.19,2.3-.36,2.53.11.28-.26-.82-.1.06-.35.3.5,1-.19,1.81,0-.21.29-.95.22-.16.39.42-.5,1.5,0,2.13-.2,0-.36,1.39-.31,2.46-.5a27.5,27.5,0,0,0,3.08.11l0,.06c.17-.38,1.21-.39,2-.52,0,.22-.14.32-.54.44l.71-.05a1.7,1.7,0,0,1,.84-.28l-.16.29a15.61,15.61,0,0,1,3.12-.36c0-.26-1-.64.25-.9.06.13.12.37-.21.45a1.47,1.47,0,0,1,.61-.1l-.5.27c.56.06.28-.21.72-.23,0,.2.34.12.29.28s-.39-.05-.56,0a3.33,3.33,0,0,1,1.33.21c-.05-.11,0-.27.35-.32.95-.08.34.21.9.28.22-.15.83-.05.83-.35.28,0,.34.12.45.19.48-.16,2.29-.2,1.72-.47h-.13l.08,0h0c1.59-.41,3.35-.07,4.94-.31v.1A21.56,21.56,0,0,0,47,3.68c.28,0,.68.15.56.27a4.79,4.79,0,0,1,1.86-.11c-.72.21.26.14-.74.16a4.54,4.54,0,0,0,2.18-.13c-.33.27.73.28,1.18.19l-.67-.15a11.1,11.1,0,0,1,1.4-.06l-.23.34c2,.31,3.46-.85,5-.25.5-.26-1.06-.11-.62-.41A14.2,14.2,0,0,1,59.05,4c1.23.13,1.12-.54,2.4-.47-.17-.11-.34-.42.61-.58.9,0,1.12.45.56.57-.21,0-.32,0-.31-.05-.29.06-.66.13-.3.24l.11-.12c.45.1,1.68,0,1.4.24.67-.14.28-.21-.22-.25,1.15.12,1.79-.08,3,0-.19-.06-.37-.19-.18-.2,1.73.06.75-.26,1.92-.37.67.15-.22.44,1,.24.72.09.16.31-.12.42a6.86,6.86,0,0,1,2.63.09l-.56.11a5,5,0,0,1,.9-.08l-.33-.23c.33,0,.62,0,.61.13.34-.16-.28-.39.4-.62.45.11,1.35-.16,1.51.15-1.4-.07.16.31-1,.39a3,3,0,0,1,.84,0c.05,0,0,.07-.14.09,1.34.25.6-.37,2-.4-.17.18.33.33.56.28-.56,0-.28-.29.23-.44.89.11,1-.13,1.42-.12l-.53-.05c.17-.18.62-.17,1.23-.24.06.14-.56.11-.34.17.68-.33,1.56.28,2.51,0,.45.11.05.33.44.4,1.07-.26,1.17.21,2.29,0-.33-.23-.39-.17.4-.42L82,3l1.18-.38c-.56,0-1.18.18-1.51.15.56-.21.5-.15.23-.34.77.34,1.51-.25,2.4,0V3c1.34.23,2.35-.36,4.08-.26l-.56-.09c.23-.24,1.07-.06,1.62-.17,0,.2.3.26.54.38,0-.15,1.26,0,1.41-.42l.78.24c1.4.06,1.58-.59,2.92-.54-.4.22.21.35-.69.51.45,0,.85,0,.86-.1.26.12,1.24-.28,1.65-.09.19-.09.25-.3.75-.28.06,0,0,.1,0,.1s.79-.14.34-.35c1.39.61,3.85-.07,5.06.45,1-.07,2.15-.15,3-.17-.06.06,0,.1-.17.08,1.22.17.75-.57,2.14-.38.71.31-.74.18-.29.3.2.65,1.68-.1,2.62.27l-.23,0c.72.22,1.75-.26,2.92-.22,0,0-.06.06,0,.1a13.11,13.11,0,0,1,3.44-.54c-.35.25-.51.13-.3.39.5,0-.15-.42.86-.48.33.14,1.05.27,1.15.55h-.95c.49.36,1.23,0,1.73.07l-.06.16c1.46,0,1.48-.43,3-.39l-.16-.12c.86-.38.72.23,1.57-.06l.26.4c.56-.09,2-.36,3-.43a14.31,14.31,0,0,1-2.5.59,7.22,7.22,0,0,0,2.19-.2,1.86,1.86,0,0,1-.73.07A6.53,6.53,0,0,1,128.37,2c-.21.76,2.9.22,3.7.82,2-.26,3.91.14,6.2.15-.8-.62.67,0,.54-.61.54,0,.74,0,.79,0l1.61.41c.38.19-.51.12-.46.26,1.17.08.49.27,1.26.45-.15-.22.41-.3,1.08-.2L142.16,3c1.64-.28,1.4.55,3.06.27l-.53.18c.85-.09,3.12.08,4-.39.15.07.34.25,0,.28,2,.12,4.52-.41,6.08-.07l-.16.15c.38,0,.67-.26,1.13-.1,0,.06-.16.15,0,.16a4.37,4.37,0,0,1,1.51-.14l-.43.16c2,.24,3-.3,4.7-.35,0,.44,1.53.64,2.3.74l0,.06a50.7,50.7,0,0,0,6-.31c1.3.53,4.46.37,6.57.72-.32-.09.07-.34.45-.37s1.39-.24,1.29.16l-.18,0c.36.41,1.38.36,2.18.41l.16-.52c2.05.87,5.49,0,6.59.74.51-.11,1.13-.07,1.64-.18l0,.28a33.93,33.93,0,0,0,3.82.23l-.36.18c1,.07,1.27-.75,2.17-.72l.25.44c1.7.08,3.39.57,5.09.29,0,.06-.09.18-.36.18.8.06,3.07.48,2.82-.12,0,.38,1.75.15,2.68,0l-.16.27a3.88,3.88,0,0,1,1.91-.43c.25.05.21.24-.13.14.84.2.68-.22,1.71,0l-.4.15a1.9,1.9,0,0,0,1.31-.2c.56-.08,1.66.17,1.77.43a1.38,1.38,0,0,1,1.14-.21c.06.1-.13.15-.23.17,1.45.3,2.2-.17,3.19.18a.23.23,0,0,0,.16.18c-1.16-.09-2.1-.17-2-.19,0,.26.92.37.15.67a9,9,0,0,1,3-.28.42.42,0,0,1,.12.1l-.1,0a1.61,1.61,0,0,0,.58,0,5.27,5.27,0,0,0,.75.13c.09.22,1.07.19,1.54.24,0-.28.59-.19,0-.47.07,0-.09,0-.4,0h-.2l0,0-1.17-.07a1.83,1.83,0,0,1,1.29,0c.25-.16.53-.33.69-.41.61.44,1.84.74,2,1,1.44-.05,3.38.14,4.33-.32.41,0,.46.19.6.28a3.2,3.2,0,0,0-.65.07c.82-.07,2.42.14,2.64-.21,1,.25-.6.29.81.35l-.2.1c2.73.81,4.59-.57,7.6.44-.21-.06-.31-.09-.35-.16,3.48.62,7.25.33,10.66,1.17a2.9,2.9,0,0,0,1.72-.15l.18.32,1.06-.25c1.48-.11,2.44,1,4.33.69l-.22-.23c.66.1,2.11.09,2,.31a.45.45,0,0,1,.49-.05v.16l1.65-.1c1.24.25-.26.6,1.57.83.69,0,2-.24,1.74-.37s-.69-.18-.69-.34H261c.17-.45.71-.87-.8-1.36l-1.1.17-.32-.26.9.08a1.44,1.44,0,0,0-1.21,0,.71.71,0,0,0-.42-.29L257,8c-.11-.19.51-.31-.19-.48-.51.15.43.46-.4.5-.49-.26-.32-.42-.94-.3-.07-.13.06-.19.31-.22-.55.08-1.42-.08-1.72.14-.51-.31-1.81-.11-1.71-.54a4.42,4.42,0,0,1-1.47.22c.95-.44-1.83-.21-1.54-.75-.71.4-2.42,0-3.62.14a.48.48,0,0,1,.31-.06,5.77,5.77,0,0,1-1.26-.39c-.12.38-1.16.38-1.74.57-.78-.45.53-.41.31-.8,0,.32-1.44.19-1.19.48-.6-.29-.52-.16-.82-.51-.15.48-.59,0-1.13.28-.88-.32-.19-.48-1.19-.42C238.51,5.61,239.4,5.52,239.4,5.52Zm-23.56-1h0l.49,0Zm-2-.14.86.07c.06.1,0,.2-.22.18C214.62,4.57,214.16,4.48,213.87,4.38Zm4,2.25c-.31,0-.42,0-.45-.11H218l0,0A.36.36,0,0,1,217.9,6.62Z" style="fill: #3bcb7c"/>
            <path d="M218.49,6.3h.13l-.18-.08-.12.08Z" style="fill: #3bcb7c"/>
            <path d="M39.35,4.4h0l-.09,0Z" style="fill: #3bcb7c"/>
            <polygon points="186.61 2.22 186.6 2.29 186.78 2.24 186.61 2.22" style="fill: #3bcb7c"/>
            <path d="M28.41,4.22a.28.28,0,0,0-.15-.06A.36.36,0,0,0,28.41,4.22Z" style="fill: #3bcb7c"/>
            <path d="M23.71,4.49l-.67,0Z" style="fill: #3bcb7c"/>
            <path d="M20.09,4.71a.3.3,0,0,0-.06.13h0Z" style="fill: #3bcb7c"/>
            <path d="M77.57,1.07l.14,0C78,1,77.81,1,77.57,1.07Z" style="fill: #3bcb7c"/>
            <path d="M60.47,2.38A5.16,5.16,0,0,1,61,2.22C60.71,2.21,60.47,2.22,60.47,2.38Z" style="fill: #3bcb7c"/>
            <polygon points="96.7 0.29 96.7 0.3 96.82 0.3 96.7 0.29" style="fill: #3bcb7c"/>
            <path d="M61.81,2.19a2.24,2.24,0,0,0-.8,0A3.45,3.45,0,0,0,61.81,2.19Z" style="fill: #3bcb7c"/>
            <path d="M4.45,6.13H4.27a0,0,0,0,1,0,0Z" style="fill: #3bcb7c"/>
            <path d="M4.26,6.18l-.19.05C4.16,6.22,4.23,6.21,4.26,6.18Z" style="fill: #3bcb7c"/>
            <path d="M3.67,6.34l.4-.11A.66.66,0,0,0,3.67,6.34Z" style="fill: #3bcb7c"/>
            <path d="M9.24,5.78l0-.11A.14.14,0,0,0,9.24,5.78Z" style="fill: #3bcb7c"/>
            <path d="M10.68,5.61a6.09,6.09,0,0,0-1.37,0l0,.08C9.49,5.5,10.37,5.81,10.68,5.61Z" style="fill: #3bcb7c"/>
            <path d="M16.85,6.27l-1.22,0c.22.09.51.2,0,.29C17.16,6.76,15.26,6.38,16.85,6.27Z" style="fill: #3bcb7c"/>
            <path d="M20.63,6c-.65.11,0,.16,0,.22C21,6.13,21.13,6.1,20.63,6Z" style="fill: #3bcb7c"/>
            <path d="M47.88,4l-.05.26C48.33,4.24,47.83,4.2,47.88,4Z" style="fill: #3bcb7c"/>
            <polygon points="53.02 2.47 52.52 2.34 52.3 2.58 53.02 2.47" style="fill: #3bcb7c"/>
            <polygon points="56.2 4.15 55.98 4.19 56.82 4.06 56.2 4.15" style="fill: #3bcb7c"/>
            <path d="M102.05,2.72l-.16-.31C101.55,2.47,101.49,2.82,102.05,2.72Z" style="fill: #3bcb7c"/>
            <path d="M121.86,2.36a1.36,1.36,0,0,0,1.12.11A9.81,9.81,0,0,0,121.86,2.36Z" style="fill: #3bcb7c"/>
            <polygon points="181.23 4.48 180.83 4.56 181.58 4.51 181.23 4.48" style="fill: #3bcb7c"/>
          </g>
        </g>
      </g>
    </g>
  </g>
</svg>
