<svg xmlns="http://www.w3.org/2000/svg" xmlns:xlink="http://www.w3.org/1999/xlink" width="315.21" height="172.14" viewBox="0 0 315.21 172.14">
  <defs>
    <clipPath id="clip-path">
      <path d="M218.11,87.68l-25.34,7.4a1.07,1.07,0,0,1,.32,0l25.34-7.4A1.07,1.07,0,0,0,218.11,87.68Z" style="fill: #fff;stroke: #373e5a;stroke-linecap: round;stroke-linejoin: round"/>
    </clipPath>
    <clipPath id="clip-path-2">
      <path d="M259,163.54l25.34-7.4a1.12,1.12,0,0,0,.79-1.07l-25.34,7.4A1.12,1.12,0,0,1,259,163.54Z" style="fill: #fff;stroke: #373e5a;stroke-linecap: round;stroke-linejoin: round"/>
    </clipPath>
    <clipPath id="clip-path-3">
      <path d="M259.86,97.34l25.34-7.4a1.15,1.15,0,0,0-1.11-1.16l-25.34,7.4A1.15,1.15,0,0,1,259.86,97.34Z" style="fill: #fff;stroke: #373e5a;stroke-linecap: round;stroke-linejoin: round"/>
    </clipPath>
  </defs>
  <title>icon-security-providers</title>
  <g id="Layer_2" data-name="Layer 2">
    <g id="_1200" data-name="1200">
      <g id="Who_Benefits" data-name="Who Benefits">
        <g id="reseller-security-solution-provider-icon">
          <g>
            <rect x="224.01" y="33.98" width="36.99" height="35" rx="0.5" ry="0.5" style="fill: #fff;stroke: #373e5a;stroke-linecap: round;stroke-linejoin: round"/>
            <rect x="170.95" y="69.87" width="142.09" height="81.17" rx="0.5" ry="0.5" style="fill: #fff;stroke: #373e5a;stroke-linecap: round;stroke-linejoin: round"/>
            <rect x="178.12" y="64.12" width="26.98" height="86.92" rx="0.5" ry="0.5" style="fill: #fff;stroke: #373e5a;stroke-linecap: round;stroke-linejoin: round"/>
            <rect x="280.26" y="64.12" width="26.98" height="86.92" rx="0.5" ry="0.5" style="fill: #fff;stroke: #373e5a;stroke-linecap: round;stroke-linejoin: round"/>
            <rect x="217.95" y="42.09" width="48.74" height="108.95" rx="0.5" ry="0.5" style="fill: #fff;stroke: #373e5a;stroke-linecap: round;stroke-linejoin: round"/>
            <rect x="211.75" y="48.77" width="61.29" height="102.27" rx="0.85" ry="0.85" style="fill: #fff;stroke: #373e5a;stroke-linecap: round;stroke-linejoin: round"/>
            <g>
              <path d="M224.47,58V51.91a.43.43,0,0,1,.43-.43h5.89" style="fill: none;stroke: #373e5a;stroke-linecap: round;stroke-linejoin: round"/>
              <path d="M224.47,67.05V61a.43.43,0,0,1,.43-.43h5.89" style="fill: none;stroke: #373e5a;stroke-linecap: round;stroke-linejoin: round"/>
              <path d="M224.47,76.12V70.06a.43.43,0,0,1,.43-.43h5.89" style="fill: none;stroke: #373e5a;stroke-linecap: round;stroke-linejoin: round"/>
              <path d="M224.47,85.2V79.13a.43.43,0,0,1,.43-.43h5.89" style="fill: none;stroke: #373e5a;stroke-linecap: round;stroke-linejoin: round"/>
              <path d="M224.47,94.27V88.2a.43.43,0,0,1,.43-.43h5.89" style="fill: none;stroke: #373e5a;stroke-linecap: round;stroke-linejoin: round"/>
              <path d="M224.47,103.34V97.27a.43.43,0,0,1,.43-.43h5.89" style="fill: none;stroke: #373e5a;stroke-linecap: round;stroke-linejoin: round"/>
              <path d="M224.47,112.41v-6.07a.43.43,0,0,1,.43-.43h5.89" style="fill: none;stroke: #373e5a;stroke-linecap: round;stroke-linejoin: round"/>
              <path d="M224.47,121.48v-6.07a.43.43,0,0,1,.43-.43h5.89" style="fill: none;stroke: #373e5a;stroke-linecap: round;stroke-linejoin: round"/>
              <path d="M224.47,130.55v-6.07a.43.43,0,0,1,.43-.43h5.89" style="fill: none;stroke: #373e5a;stroke-linecap: round;stroke-linejoin: round"/>
            </g>
            <g>
              <path d="M233.11,58V51.91a.43.43,0,0,1,.43-.43h5.89" style="fill: none;stroke: #373e5a;stroke-linecap: round;stroke-linejoin: round"/>
              <path d="M233.11,67.05V61a.43.43,0,0,1,.43-.43h5.89" style="fill: none;stroke: #373e5a;stroke-linecap: round;stroke-linejoin: round"/>
              <path d="M233.11,76.12V70.06a.43.43,0,0,1,.43-.43h5.89" style="fill: none;stroke: #373e5a;stroke-linecap: round;stroke-linejoin: round"/>
              <path d="M233.11,85.2V79.13a.43.43,0,0,1,.43-.43h5.89" style="fill: none;stroke: #373e5a;stroke-linecap: round;stroke-linejoin: round"/>
              <path d="M233.11,94.27V88.2a.43.43,0,0,1,.43-.43h5.89" style="fill: none;stroke: #373e5a;stroke-linecap: round;stroke-linejoin: round"/>
              <path d="M233.11,103.34V97.27a.43.43,0,0,1,.43-.43h5.89" style="fill: none;stroke: #373e5a;stroke-linecap: round;stroke-linejoin: round"/>
              <path d="M233.11,112.41v-6.07a.43.43,0,0,1,.43-.43h5.89" style="fill: none;stroke: #373e5a;stroke-linecap: round;stroke-linejoin: round"/>
              <path d="M233.11,121.48v-6.07a.43.43,0,0,1,.43-.43h5.89" style="fill: none;stroke: #373e5a;stroke-linecap: round;stroke-linejoin: round"/>
              <path d="M233.11,130.55v-6.07a.43.43,0,0,1,.43-.43h5.89" style="fill: none;stroke: #373e5a;stroke-linecap: round;stroke-linejoin: round"/>
            </g>
            <g>
              <path d="M246.1,58V51.91a.43.43,0,0,1,.43-.43h5.89" style="fill: none;stroke: #373e5a;stroke-linecap: round;stroke-linejoin: round"/>
              <path d="M246.1,67.05V61a.43.43,0,0,1,.43-.43h5.89" style="fill: none;stroke: #373e5a;stroke-linecap: round;stroke-linejoin: round"/>
              <path d="M246.1,76.12V70.06a.43.43,0,0,1,.43-.43h5.89" style="fill: none;stroke: #373e5a;stroke-linecap: round;stroke-linejoin: round"/>
              <path d="M246.1,85.2V79.13a.43.43,0,0,1,.43-.43h5.89" style="fill: none;stroke: #373e5a;stroke-linecap: round;stroke-linejoin: round"/>
              <path d="M246.1,94.27V88.2a.43.43,0,0,1,.43-.43h5.89" style="fill: none;stroke: #373e5a;stroke-linecap: round;stroke-linejoin: round"/>
              <path d="M246.1,103.34V97.27a.43.43,0,0,1,.43-.43h5.89" style="fill: none;stroke: #373e5a;stroke-linecap: round;stroke-linejoin: round"/>
              <path d="M246.1,112.41v-6.07a.43.43,0,0,1,.43-.43h5.89" style="fill: none;stroke: #373e5a;stroke-linecap: round;stroke-linejoin: round"/>
              <path d="M246.1,121.48v-6.07a.43.43,0,0,1,.43-.43h5.89" style="fill: none;stroke: #373e5a;stroke-linecap: round;stroke-linejoin: round"/>
              <path d="M246.1,130.55v-6.07a.43.43,0,0,1,.43-.43h5.89" style="fill: none;stroke: #373e5a;stroke-linecap: round;stroke-linejoin: round"/>
            </g>
            <g>
              <path d="M254.73,58V51.91a.43.43,0,0,1,.43-.43h5.89" style="fill: none;stroke: #373e5a;stroke-linecap: round;stroke-linejoin: round"/>
              <path d="M254.73,67.05V61a.43.43,0,0,1,.43-.43h5.89" style="fill: none;stroke: #373e5a;stroke-linecap: round;stroke-linejoin: round"/>
              <path d="M254.73,76.12V70.06a.43.43,0,0,1,.43-.43h5.89" style="fill: none;stroke: #373e5a;stroke-linecap: round;stroke-linejoin: round"/>
              <path d="M254.73,85.2V79.13a.43.43,0,0,1,.43-.43h5.89" style="fill: none;stroke: #373e5a;stroke-linecap: round;stroke-linejoin: round"/>
              <path d="M254.73,94.27V88.2a.43.43,0,0,1,.43-.43h5.89" style="fill: none;stroke: #373e5a;stroke-linecap: round;stroke-linejoin: round"/>
              <path d="M254.73,103.34V97.27a.43.43,0,0,1,.43-.43h5.89" style="fill: none;stroke: #373e5a;stroke-linecap: round;stroke-linejoin: round"/>
              <path d="M254.73,112.41v-6.07a.43.43,0,0,1,.43-.43h5.89" style="fill: none;stroke: #373e5a;stroke-linecap: round;stroke-linejoin: round"/>
              <path d="M254.73,121.48v-6.07a.43.43,0,0,1,.43-.43h5.89" style="fill: none;stroke: #373e5a;stroke-linecap: round;stroke-linejoin: round"/>
              <path d="M254.73,130.55v-6.07a.43.43,0,0,1,.43-.43h5.89" style="fill: none;stroke: #373e5a;stroke-linecap: round;stroke-linejoin: round"/>
            </g>
            <g>
              <rect x="237.78" y="134.29" width="9.08" height="11.21" rx="0.5" ry="0.5" style="fill: none;stroke: #373e5a;stroke-linecap: round;stroke-linejoin: round"/>
              <line x1="242.32" y1="134.29" x2="242.32" y2="145.5" style="fill: none;stroke: #373e5a;stroke-linecap: round;stroke-linejoin: round"/>
            </g>
            <g>
              <rect x="237.78" y="134.29" width="9.08" height="11.21" rx="0.5" ry="0.5" style="fill: none;stroke: #373e5a;stroke-linecap: round;stroke-linejoin: round"/>
              <line x1="242.32" y1="134.29" x2="242.32" y2="145.5" style="fill: none;stroke: #373e5a;stroke-linecap: round;stroke-linejoin: round"/>
            </g>
            <g>
              <rect x="187.07" y="134.29" width="9.08" height="11.21" rx="0.5" ry="0.5" style="fill: none;stroke: #373e5a;stroke-linecap: round;stroke-linejoin: round"/>
              <line x1="191.61" y1="134.29" x2="191.61" y2="145.5" style="fill: none;stroke: #373e5a;stroke-linecap: round;stroke-linejoin: round"/>
            </g>
            <g>
              <rect x="289.21" y="134.29" width="9.08" height="11.21" rx="0.5" ry="0.5" style="fill: none;stroke: #373e5a;stroke-linecap: round;stroke-linejoin: round"/>
              <line x1="293.75" y1="134.29" x2="293.75" y2="145.5" style="fill: none;stroke: #373e5a;stroke-linecap: round;stroke-linejoin: round"/>
            </g>
            <g>
              <path d="M184.3,85.2V79.13a.43.43,0,0,1,.43-.43h5.89" style="fill: none;stroke: #373e5a;stroke-linecap: round;stroke-linejoin: round"/>
              <path d="M184.3,94.27V88.2a.43.43,0,0,1,.43-.43h5.89" style="fill: none;stroke: #373e5a;stroke-linecap: round;stroke-linejoin: round"/>
              <path d="M184.3,103.34V97.27a.43.43,0,0,1,.43-.43h5.89" style="fill: none;stroke: #373e5a;stroke-linecap: round;stroke-linejoin: round"/>
              <path d="M184.3,112.41v-6.07a.43.43,0,0,1,.43-.43h5.89" style="fill: none;stroke: #373e5a;stroke-linecap: round;stroke-linejoin: round"/>
              <path d="M184.3,121.48v-6.07a.43.43,0,0,1,.43-.43h5.89" style="fill: none;stroke: #373e5a;stroke-linecap: round;stroke-linejoin: round"/>
              <path d="M184.3,130.55v-6.07a.43.43,0,0,1,.43-.43h5.89" style="fill: none;stroke: #373e5a;stroke-linecap: round;stroke-linejoin: round"/>
            </g>
            <g>
              <path d="M192.94,85.2V79.13a.43.43,0,0,1,.43-.43h5.89" style="fill: none;stroke: #373e5a;stroke-linecap: round;stroke-linejoin: round"/>
              <path d="M192.94,94.27V88.2a.43.43,0,0,1,.43-.43h5.89" style="fill: none;stroke: #373e5a;stroke-linecap: round;stroke-linejoin: round"/>
              <path d="M192.94,103.34V97.27a.43.43,0,0,1,.43-.43h5.89" style="fill: none;stroke: #373e5a;stroke-linecap: round;stroke-linejoin: round"/>
              <path d="M192.94,112.41v-6.07a.43.43,0,0,1,.43-.43h5.89" style="fill: none;stroke: #373e5a;stroke-linecap: round;stroke-linejoin: round"/>
              <path d="M192.94,121.48v-6.07a.43.43,0,0,1,.43-.43h5.89" style="fill: none;stroke: #373e5a;stroke-linecap: round;stroke-linejoin: round"/>
              <path d="M192.94,130.55v-6.07a.43.43,0,0,1,.43-.43h5.89" style="fill: none;stroke: #373e5a;stroke-linecap: round;stroke-linejoin: round"/>
            </g>
            <g>
              <path d="M286.07,85.2V79.13a.43.43,0,0,1,.43-.43h5.89" style="fill: none;stroke: #373e5a;stroke-linecap: round;stroke-linejoin: round"/>
              <path d="M286.07,94.27V88.2a.43.43,0,0,1,.43-.43h5.89" style="fill: none;stroke: #373e5a;stroke-linecap: round;stroke-linejoin: round"/>
              <path d="M286.07,103.34V97.27a.43.43,0,0,1,.43-.43h5.89" style="fill: none;stroke: #373e5a;stroke-linecap: round;stroke-linejoin: round"/>
              <path d="M286.07,112.41v-6.07a.43.43,0,0,1,.43-.43h5.89" style="fill: none;stroke: #373e5a;stroke-linecap: round;stroke-linejoin: round"/>
              <path d="M286.07,121.48v-6.07a.43.43,0,0,1,.43-.43h5.89" style="fill: none;stroke: #373e5a;stroke-linecap: round;stroke-linejoin: round"/>
              <path d="M286.07,130.55v-6.07a.43.43,0,0,1,.43-.43h5.89" style="fill: none;stroke: #373e5a;stroke-linecap: round;stroke-linejoin: round"/>
            </g>
            <g>
              <path d="M294.7,85.2V79.13a.43.43,0,0,1,.43-.43H301" style="fill: none;stroke: #373e5a;stroke-linecap: round;stroke-linejoin: round"/>
              <path d="M294.7,94.27V88.2a.43.43,0,0,1,.43-.43H301" style="fill: none;stroke: #373e5a;stroke-linecap: round;stroke-linejoin: round"/>
              <path d="M294.7,103.34V97.27a.43.43,0,0,1,.43-.43H301" style="fill: none;stroke: #373e5a;stroke-linecap: round;stroke-linejoin: round"/>
              <path d="M294.7,112.41v-6.07a.43.43,0,0,1,.43-.43H301" style="fill: none;stroke: #373e5a;stroke-linecap: round;stroke-linejoin: round"/>
              <path d="M294.7,121.48v-6.07a.43.43,0,0,1,.43-.43H301" style="fill: none;stroke: #373e5a;stroke-linecap: round;stroke-linejoin: round"/>
              <path d="M294.7,130.55v-6.07a.43.43,0,0,1,.43-.43H301" style="fill: none;stroke: #373e5a;stroke-linecap: round;stroke-linejoin: round"/>
            </g>
            <rect x="168.04" y="145.5" width="146.67" height="6.44" rx="0.5" ry="0.5" style="fill: #fff;stroke: #373e5a;stroke-miterlimit: 10"/>
            <line x1="193.11" y1="81.99" x2="193.11" y2="84.96" style="fill: none;stroke: #4e5a60;stroke-linecap: round;stroke-linejoin: round"/>
          </g>
          <g>
            <rect x="107.65" y="33.98" width="36.99" height="35" rx="0.5" ry="0.5" style="fill: #fff;stroke: #373e5a;stroke-linecap: round;stroke-linejoin: round"/>
            <rect x="54.59" y="69.87" width="142.09" height="81.17" rx="0.5" ry="0.5" style="fill: #fff;stroke: #373e5a;stroke-linecap: round;stroke-linejoin: round"/>
            <rect x="61.76" y="64.12" width="26.98" height="86.92" rx="0.5" ry="0.5" style="fill: #fff;stroke: #373e5a;stroke-linecap: round;stroke-linejoin: round"/>
            <rect x="163.9" y="64.12" width="26.98" height="86.92" rx="0.5" ry="0.5" style="fill: #fff;stroke: #373e5a;stroke-linecap: round;stroke-linejoin: round"/>
            <rect x="101.59" y="42.09" width="48.74" height="108.95" rx="0.5" ry="0.5" style="fill: #fff;stroke: #373e5a;stroke-linecap: round;stroke-linejoin: round"/>
            <rect x="95.38" y="48.77" width="61.29" height="102.27" rx="0.85" ry="0.85" style="fill: #fff;stroke: #373e5a;stroke-linecap: round;stroke-linejoin: round"/>
            <g>
              <path d="M108.11,58V51.91a.43.43,0,0,1,.43-.43h5.89" style="fill: none;stroke: #373e5a;stroke-linecap: round;stroke-linejoin: round"/>
              <path d="M108.11,67.05V61a.43.43,0,0,1,.43-.43h5.89" style="fill: none;stroke: #373e5a;stroke-linecap: round;stroke-linejoin: round"/>
              <path d="M108.11,76.12V70.06a.43.43,0,0,1,.43-.43h5.89" style="fill: none;stroke: #373e5a;stroke-linecap: round;stroke-linejoin: round"/>
              <path d="M108.11,85.2V79.13a.43.43,0,0,1,.43-.43h5.89" style="fill: none;stroke: #373e5a;stroke-linecap: round;stroke-linejoin: round"/>
              <path d="M108.11,94.27V88.2a.43.43,0,0,1,.43-.43h5.89" style="fill: none;stroke: #373e5a;stroke-linecap: round;stroke-linejoin: round"/>
              <path d="M108.11,103.34V97.27a.43.43,0,0,1,.43-.43h5.89" style="fill: none;stroke: #373e5a;stroke-linecap: round;stroke-linejoin: round"/>
              <path d="M108.11,112.41v-6.07a.43.43,0,0,1,.43-.43h5.89" style="fill: none;stroke: #373e5a;stroke-linecap: round;stroke-linejoin: round"/>
              <path d="M108.11,121.48v-6.07a.43.43,0,0,1,.43-.43h5.89" style="fill: none;stroke: #373e5a;stroke-linecap: round;stroke-linejoin: round"/>
              <path d="M108.11,130.55v-6.07a.43.43,0,0,1,.43-.43h5.89" style="fill: none;stroke: #373e5a;stroke-linecap: round;stroke-linejoin: round"/>
            </g>
            <g>
              <path d="M116.75,58V51.91a.43.43,0,0,1,.43-.43h5.89" style="fill: none;stroke: #373e5a;stroke-linecap: round;stroke-linejoin: round"/>
              <path d="M116.75,67.05V61a.43.43,0,0,1,.43-.43h5.89" style="fill: none;stroke: #373e5a;stroke-linecap: round;stroke-linejoin: round"/>
              <path d="M116.75,76.12V70.06a.43.43,0,0,1,.43-.43h5.89" style="fill: none;stroke: #373e5a;stroke-linecap: round;stroke-linejoin: round"/>
              <path d="M116.75,85.2V79.13a.43.43,0,0,1,.43-.43h5.89" style="fill: none;stroke: #373e5a;stroke-linecap: round;stroke-linejoin: round"/>
              <path d="M116.75,94.27V88.2a.43.43,0,0,1,.43-.43h5.89" style="fill: none;stroke: #373e5a;stroke-linecap: round;stroke-linejoin: round"/>
              <path d="M116.75,103.34V97.27a.43.43,0,0,1,.43-.43h5.89" style="fill: none;stroke: #373e5a;stroke-linecap: round;stroke-linejoin: round"/>
              <path d="M116.75,112.41v-6.07a.43.43,0,0,1,.43-.43h5.89" style="fill: none;stroke: #373e5a;stroke-linecap: round;stroke-linejoin: round"/>
              <path d="M116.75,121.48v-6.07a.43.43,0,0,1,.43-.43h5.89" style="fill: none;stroke: #373e5a;stroke-linecap: round;stroke-linejoin: round"/>
              <path d="M116.75,130.55v-6.07a.43.43,0,0,1,.43-.43h5.89" style="fill: none;stroke: #373e5a;stroke-linecap: round;stroke-linejoin: round"/>
            </g>
            <g>
              <path d="M129.73,58V51.91a.43.43,0,0,1,.43-.43h5.89" style="fill: none;stroke: #373e5a;stroke-linecap: round;stroke-linejoin: round"/>
              <path d="M129.73,67.05V61a.43.43,0,0,1,.43-.43h5.89" style="fill: none;stroke: #373e5a;stroke-linecap: round;stroke-linejoin: round"/>
              <path d="M129.73,76.12V70.06a.43.43,0,0,1,.43-.43h5.89" style="fill: none;stroke: #373e5a;stroke-linecap: round;stroke-linejoin: round"/>
              <path d="M129.73,85.2V79.13a.43.43,0,0,1,.43-.43h5.89" style="fill: none;stroke: #373e5a;stroke-linecap: round;stroke-linejoin: round"/>
              <path d="M129.73,94.27V88.2a.43.43,0,0,1,.43-.43h5.89" style="fill: none;stroke: #373e5a;stroke-linecap: round;stroke-linejoin: round"/>
              <path d="M129.73,103.34V97.27a.43.43,0,0,1,.43-.43h5.89" style="fill: none;stroke: #373e5a;stroke-linecap: round;stroke-linejoin: round"/>
              <path d="M129.73,112.41v-6.07a.43.43,0,0,1,.43-.43h5.89" style="fill: none;stroke: #373e5a;stroke-linecap: round;stroke-linejoin: round"/>
              <path d="M129.73,121.48v-6.07a.43.43,0,0,1,.43-.43h5.89" style="fill: none;stroke: #373e5a;stroke-linecap: round;stroke-linejoin: round"/>
              <path d="M129.73,130.55v-6.07a.43.43,0,0,1,.43-.43h5.89" style="fill: none;stroke: #373e5a;stroke-linecap: round;stroke-linejoin: round"/>
            </g>
            <g>
              <path d="M138.37,58V51.91a.43.43,0,0,1,.43-.43h5.89" style="fill: none;stroke: #373e5a;stroke-linecap: round;stroke-linejoin: round"/>
              <path d="M138.37,67.05V61a.43.43,0,0,1,.43-.43h5.89" style="fill: none;stroke: #373e5a;stroke-linecap: round;stroke-linejoin: round"/>
              <path d="M138.37,76.12V70.06a.43.43,0,0,1,.43-.43h5.89" style="fill: none;stroke: #373e5a;stroke-linecap: round;stroke-linejoin: round"/>
              <path d="M138.37,85.2V79.13a.43.43,0,0,1,.43-.43h5.89" style="fill: none;stroke: #373e5a;stroke-linecap: round;stroke-linejoin: round"/>
              <path d="M138.37,94.27V88.2a.43.43,0,0,1,.43-.43h5.89" style="fill: none;stroke: #373e5a;stroke-linecap: round;stroke-linejoin: round"/>
              <path d="M138.37,103.34V97.27a.43.43,0,0,1,.43-.43h5.89" style="fill: none;stroke: #373e5a;stroke-linecap: round;stroke-linejoin: round"/>
              <path d="M138.37,112.41v-6.07a.43.43,0,0,1,.43-.43h5.89" style="fill: none;stroke: #373e5a;stroke-linecap: round;stroke-linejoin: round"/>
              <path d="M138.37,121.48v-6.07a.43.43,0,0,1,.43-.43h5.89" style="fill: none;stroke: #373e5a;stroke-linecap: round;stroke-linejoin: round"/>
              <path d="M138.37,130.55v-6.07a.43.43,0,0,1,.43-.43h5.89" style="fill: none;stroke: #373e5a;stroke-linecap: round;stroke-linejoin: round"/>
            </g>
            <g>
              <rect x="121.42" y="134.29" width="9.08" height="11.21" rx="0.5" ry="0.5" style="fill: none;stroke: #373e5a;stroke-linecap: round;stroke-linejoin: round"/>
              <line x1="125.96" y1="134.29" x2="125.96" y2="145.5" style="fill: none;stroke: #373e5a;stroke-linecap: round;stroke-linejoin: round"/>
            </g>
            <g>
              <rect x="121.42" y="134.29" width="9.08" height="11.21" rx="0.5" ry="0.5" style="fill: none;stroke: #373e5a;stroke-linecap: round;stroke-linejoin: round"/>
              <line x1="125.96" y1="134.29" x2="125.96" y2="145.5" style="fill: none;stroke: #373e5a;stroke-linecap: round;stroke-linejoin: round"/>
            </g>
            <g>
              <rect x="70.71" y="134.29" width="9.08" height="11.21" rx="0.5" ry="0.5" style="fill: none;stroke: #373e5a;stroke-linecap: round;stroke-linejoin: round"/>
              <line x1="75.25" y1="134.29" x2="75.25" y2="145.5" style="fill: none;stroke: #373e5a;stroke-linecap: round;stroke-linejoin: round"/>
            </g>
            <g>
              <rect x="172.85" y="134.29" width="9.08" height="11.21" rx="0.5" ry="0.5" style="fill: none;stroke: #373e5a;stroke-linecap: round;stroke-linejoin: round"/>
              <line x1="177.39" y1="134.29" x2="177.39" y2="145.5" style="fill: none;stroke: #373e5a;stroke-linecap: round;stroke-linejoin: round"/>
            </g>
            <g>
              <path d="M67.94,85.2V79.13a.43.43,0,0,1,.43-.43h5.89" style="fill: none;stroke: #373e5a;stroke-linecap: round;stroke-linejoin: round"/>
              <path d="M67.94,94.27V88.2a.43.43,0,0,1,.43-.43h5.89" style="fill: none;stroke: #373e5a;stroke-linecap: round;stroke-linejoin: round"/>
              <path d="M67.94,103.34V97.27a.43.43,0,0,1,.43-.43h5.89" style="fill: none;stroke: #373e5a;stroke-linecap: round;stroke-linejoin: round"/>
              <path d="M67.94,112.41v-6.07a.43.43,0,0,1,.43-.43h5.89" style="fill: none;stroke: #373e5a;stroke-linecap: round;stroke-linejoin: round"/>
              <path d="M67.94,121.48v-6.07a.43.43,0,0,1,.43-.43h5.89" style="fill: none;stroke: #373e5a;stroke-linecap: round;stroke-linejoin: round"/>
              <path d="M67.94,130.55v-6.07a.43.43,0,0,1,.43-.43h5.89" style="fill: none;stroke: #373e5a;stroke-linecap: round;stroke-linejoin: round"/>
            </g>
            <g>
              <path d="M76.57,85.2V79.13A.43.43,0,0,1,77,78.7H82.9" style="fill: none;stroke: #373e5a;stroke-linecap: round;stroke-linejoin: round"/>
              <path d="M76.57,94.27V88.2a.43.43,0,0,1,.43-.43H82.9" style="fill: none;stroke: #373e5a;stroke-linecap: round;stroke-linejoin: round"/>
              <path d="M76.57,103.34V97.27a.43.43,0,0,1,.43-.43H82.9" style="fill: none;stroke: #373e5a;stroke-linecap: round;stroke-linejoin: round"/>
              <path d="M76.57,112.41v-6.07a.43.43,0,0,1,.43-.43H82.9" style="fill: none;stroke: #373e5a;stroke-linecap: round;stroke-linejoin: round"/>
              <path d="M76.57,121.48v-6.07A.43.43,0,0,1,77,115H82.9" style="fill: none;stroke: #373e5a;stroke-linecap: round;stroke-linejoin: round"/>
              <path d="M76.57,130.55v-6.07a.43.43,0,0,1,.43-.43H82.9" style="fill: none;stroke: #373e5a;stroke-linecap: round;stroke-linejoin: round"/>
            </g>
            <g>
              <path d="M169.7,85.2V79.13a.43.43,0,0,1,.43-.43H176" style="fill: none;stroke: #373e5a;stroke-linecap: round;stroke-linejoin: round"/>
              <path d="M169.7,94.27V88.2a.43.43,0,0,1,.43-.43H176" style="fill: none;stroke: #373e5a;stroke-linecap: round;stroke-linejoin: round"/>
              <path d="M169.7,103.34V97.27a.43.43,0,0,1,.43-.43H176" style="fill: none;stroke: #373e5a;stroke-linecap: round;stroke-linejoin: round"/>
              <path d="M169.7,112.41v-6.07a.43.43,0,0,1,.43-.43H176" style="fill: none;stroke: #373e5a;stroke-linecap: round;stroke-linejoin: round"/>
              <path d="M169.7,121.48v-6.07a.43.43,0,0,1,.43-.43H176" style="fill: none;stroke: #373e5a;stroke-linecap: round;stroke-linejoin: round"/>
              <path d="M169.7,130.55v-6.07a.43.43,0,0,1,.43-.43H176" style="fill: none;stroke: #373e5a;stroke-linecap: round;stroke-linejoin: round"/>
            </g>
            <g>
              <path d="M178.34,85.2V79.13a.43.43,0,0,1,.43-.43h5.89" style="fill: none;stroke: #373e5a;stroke-linecap: round;stroke-linejoin: round"/>
              <path d="M178.34,94.27V88.2a.43.43,0,0,1,.43-.43h5.89" style="fill: none;stroke: #373e5a;stroke-linecap: round;stroke-linejoin: round"/>
              <path d="M178.34,103.34V97.27a.43.43,0,0,1,.43-.43h5.89" style="fill: none;stroke: #373e5a;stroke-linecap: round;stroke-linejoin: round"/>
              <path d="M178.34,112.41v-6.07a.43.43,0,0,1,.43-.43h5.89" style="fill: none;stroke: #373e5a;stroke-linecap: round;stroke-linejoin: round"/>
              <path d="M178.34,121.48v-6.07a.43.43,0,0,1,.43-.43h5.89" style="fill: none;stroke: #373e5a;stroke-linecap: round;stroke-linejoin: round"/>
              <path d="M178.34,130.55v-6.07a.43.43,0,0,1,.43-.43h5.89" style="fill: none;stroke: #373e5a;stroke-linecap: round;stroke-linejoin: round"/>
            </g>
            <rect x="51.68" y="145.5" width="146.67" height="6.44" rx="0.5" ry="0.5" style="fill: #fff;stroke: #373e5a;stroke-miterlimit: 10"/>
            <line x1="76.75" y1="81.99" x2="76.75" y2="84.96" style="fill: none;stroke: #4e5a60;stroke-linecap: round;stroke-linejoin: round"/>
          </g>
          <g>
            <path d="M143.59,152.08c-56-22-63.39-60.63-63.39-60.63V24.39L132.56.5h23l52.36,23.89V91.45S200.54,130,144.5,152.08Z" style="fill: #fff;stroke: #373e5a;stroke-miterlimit: 10"/>
            <path d="M143.65,142.27C94.86,123.07,88.47,89.49,88.47,89.49V31.11L134,10.32h9.6" style="fill: #fff;stroke: #373e5a;stroke-miterlimit: 10"/>
            <path d="M143.65,142.27h.8c48.78-19.19,55.18-52.78,55.18-52.78V31.11L154,10.32h-10.4V141.06" style="fill: #fff;stroke: #373e5a;stroke-miterlimit: 10"/>
          </g>
          <circle cx="144.05" cy="73.53" r="38.89" style="fill: #fff;stroke: #373e5a;stroke-miterlimit: 10"/>
          <circle cx="144.05" cy="73.53" r="34.98" style="fill: #fff;stroke: #373e5a;stroke-miterlimit: 10"/>
          <circle cx="143.74" cy="5.55" r="1.38" style="fill: #373e5a"/>
          <circle cx="174.82" cy="14.74" r="1.38" style="fill: #373e5a"/>
          <circle cx="202.38" cy="27.6" r="1.38" style="fill: #373e5a"/>
          <circle cx="203.64" cy="58.95" r="1.38" style="fill: #373e5a"/>
          <circle cx="203.64" cy="84.67" r="1.38" style="fill: #373e5a"/>
          <circle cx="84.22" cy="58.95" r="1.38" style="fill: #373e5a"/>
          <circle cx="84.22" cy="84.67" r="1.38" style="fill: #373e5a"/>
          <circle cx="93.71" cy="110.36" r="1.38" style="fill: #373e5a"/>
          <circle cx="85.71" cy="27.6" r="1.38" style="fill: #373e5a"/>
          <circle cx="114.19" cy="14.74" r="1.38" style="fill: #373e5a"/>
          <circle cx="144.27" cy="147.37" r="1.38" style="fill: #373e5a"/>
          <circle cx="172.52" cy="132.79" r="1.38" style="fill: #373e5a"/>
          <circle cx="115.57" cy="132.79" r="1.38" style="fill: #373e5a"/>
          <path d="M142.55,79.43l38.34-36.53A.78.78,0,0,1,182,44L142.33,92.69a.78.78,0,0,1-1.26-.07L123.3,65.13a.78.78,0,0,1,1-1.13l17.46,15.51A.78.78,0,0,0,142.55,79.43Z" style="fill: #fff;stroke: #4e5a60;stroke-miterlimit: 10"/>
          <g>
            <path d="M125.11,157.25c-61.74,9.12-122.35,0-122.35,0S.5,156.75.5,156.13V142.22c0-12.81,0-24.91,21-31.82,13.84-4.54,21.33-9.79,24.85-17.5a47.11,47.11,0,0,1-4.92-7.43l0-.07a65.84,65.84,0,0,1-4-14.06,24.2,24.2,0,0,1-1.91-2.91,13.56,13.56,0,0,1-2.24-5.94l0-.54c-.18-6-.06-9.44,1.15-10.68a1.8,1.8,0,0,1,.59-.41c-1-2.87-1.8-7.4-.35-11a43.3,43.3,0,0,1,2.74-5.67l-1,0a1.12,1.12,0,0,1-.59-2.06s1.49-1,4.23-5a23.37,23.37,0,0,1,14.76-10,27.37,27.37,0,0,1,9.25.08,27.37,27.37,0,0,1,9.25-.08,23.37,23.37,0,0,1,14.76,10c2.74,3.93,4.22,5,4.24,5a1.12,1.12,0,0,1-.6,2l-1,0a43.3,43.3,0,0,1,2.74,5.67c1.45,3.57.69,8.1-.35,11a1.8,1.8,0,0,1,.59.41c1.2,1.24,1.33,4.71,1.15,10.68l0,.54a13.55,13.55,0,0,1-2.24,5.94,24.2,24.2,0,0,1-1.91,2.91,65.84,65.84,0,0,1-4,14.06l0,.07A47.56,47.56,0,0,1,80.88,94c3.72,7.12,11,12,24.31,16.39,21.07,6.9,21.06,19,21,31.82v13a3.28,3.28,0,0,1-.22,1.22A1.36,1.36,0,0,1,125.11,157.25Z" style="fill: #fff;stroke: #373e5a;stroke-miterlimit: 10"/>
            <path d="M113.19,145.94s1.83,4.63,1.56,12.7" style="fill: none;stroke: #373e5a;stroke-linecap: round;stroke-linejoin: round"/>
            <path d="M14.37,145.94s-1.83,4.63-1.56,12.7" style="fill: none;stroke: #373e5a;stroke-linecap: round;stroke-linejoin: round"/>
          </g>
          <g>
            <g>
              <g style="isolation: isolate">
                <g style="isolation: isolate">
                  <path d="M218.11,87.68l-25.34,7.4a1.07,1.07,0,0,1,.32,0l25.34-7.4A1.07,1.07,0,0,0,218.11,87.68Z" style="fill: #fff"/>
                  <g style="clip-path: url(#clip-path)">
                    <g style="isolation: isolate">
                      <path d="M193.08,95l25.34-7.4h-.07L193,95h.07" style="fill: #fff;stroke: #373e5a;stroke-linecap: round;stroke-linejoin: round"/>
                      <path d="M193,95l25.34-7.4a1.07,1.07,0,0,0-.26,0l-25.34,7.4a1.07,1.07,0,0,1,.26,0" style="fill: #fff;stroke: #373e5a;stroke-linecap: round;stroke-linejoin: round"/>
                    </g>
                  </g>
                  <path d="M218.11,87.68l-25.34,7.4a1.07,1.07,0,0,1,.32,0l25.34-7.4A1.07,1.07,0,0,0,218.11,87.68Z" style="fill: none;stroke: #373e5a;stroke-linecap: round;stroke-linejoin: round"/>
                </g>
                <g style="isolation: isolate">
                  <path d="M259,163.54l25.34-7.4a1.12,1.12,0,0,0,.79-1.07l-25.34,7.4A1.12,1.12,0,0,1,259,163.54Z" style="fill: #fff"/>
                  <g style="clip-path: url(#clip-path-2)">
                    <g style="isolation: isolate">
                      <path d="M259,163.54l25.34-7.4a1.12,1.12,0,0,0,.79-1.07l-25.34,7.4a1.12,1.12,0,0,1-.79,1.07" style="fill: #fff;stroke: #373e5a;stroke-linecap: round;stroke-linejoin: round"/>
                    </g>
                  </g>
                  <path d="M259,163.54l25.34-7.4a1.12,1.12,0,0,0,.79-1.07l-25.34,7.4A1.12,1.12,0,0,1,259,163.54Z" style="fill: none;stroke: #373e5a;stroke-linecap: round;stroke-linejoin: round"/>
                </g>
                <polygon points="258.75 96.17 284.1 88.78 218.43 87.63 193.08 95.03 258.75 96.17" style="fill: #fff;stroke: #373e5a;stroke-linecap: round;stroke-linejoin: round"/>
                <polygon points="259.75 162.47 285.09 155.07 285.2 89.94 259.86 97.34 259.75 162.47" style="fill: #fff;stroke: #373e5a;stroke-linecap: round;stroke-linejoin: round"/>
                <path d="M193.08,95A1.1,1.1,0,0,0,192,96.15l-.11,65.13a1.14,1.14,0,0,0,1.11,1.15l65.67,1.15a1.11,1.11,0,0,0,1.11-1.12l.11-65.13a1.15,1.15,0,0,0-1.11-1.16Z" style="fill: #fff;stroke: #373e5a;stroke-linecap: round;stroke-linejoin: round"/>
                <g style="isolation: isolate">
                  <path d="M259.86,97.34l25.34-7.4a1.15,1.15,0,0,0-1.11-1.16l-25.34,7.4A1.15,1.15,0,0,1,259.86,97.34Z" style="fill: #fff"/>
                  <g style="clip-path: url(#clip-path-3)">
                    <g style="isolation: isolate">
                      <path d="M259.86,97.34l25.34-7.4a1.18,1.18,0,0,0-.46-.94L259.4,96.4a1.18,1.18,0,0,1,.46.94" style="fill: #fff;stroke: #373e5a;stroke-linecap: round;stroke-linejoin: round"/>
                      <path d="M259.4,96.4,284.74,89a1.13,1.13,0,0,0-.22-.13l-25.34,7.4a1.13,1.13,0,0,1,.22.13" style="fill: #fff;stroke: #373e5a;stroke-linecap: round;stroke-linejoin: round"/>
                      <path d="M259.18,96.27l25.34-7.4-.22-.07L259,96.2l.22.07" style="fill: #fff;stroke: #373e5a;stroke-linecap: round;stroke-linejoin: round"/>
                      <path d="M259,96.2l25.34-7.4-.2,0-25.34,7.4.2,0" style="fill: #fff;stroke: #373e5a;stroke-linecap: round;stroke-linejoin: round"/>
                    </g>
                  </g>
                  <path d="M259.86,97.34l25.34-7.4a1.15,1.15,0,0,0-1.11-1.16l-25.34,7.4A1.15,1.15,0,0,1,259.86,97.34Z" style="fill: none;stroke: #373e5a;stroke-linecap: round;stroke-linejoin: round"/>
                </g>
              </g>
              <polygon points="279.22 91.4 279.34 118.08 269.86 121.01 269.86 94.09 279.22 91.4" style="fill: #fff;stroke: #373e5a;stroke-linecap: round;stroke-linejoin: round"/>
              <polygon points="200.58 92.69 269.74 93.97 279.46 91.05 214.39 89.29 200.58 92.69" style="fill: #fff;stroke: #373e5a;stroke-linecap: round;stroke-linejoin: round"/>
              <line x1="274.86" y1="119.67" x2="274.86" y2="157.29" style="fill: none;stroke: #373e5a;stroke-linecap: round;stroke-linejoin: round"/>
            </g>
            <g id="Logo_Mark" data-name="Logo Mark">
              <g style="isolation: isolate">
                <polygon points="224.96 119.15 224.95 119.17 224.9 119.22 224.96 119.15" style="fill: #106235"/>
                <polygon points="222.23 119.95 222.28 119.96 222.24 119.95 222.23 119.95" style="fill: #106235"/>
                <path d="M232.95,108.21a12.05,12.05,0,0,1,4.46.76,12.73,12.73,0,0,1,8,13.61,10.84,10.84,0,0,1,7.87,10.5,11.17,11.17,0,0,1-10.79,11.26,2.34,2.34,0,0,1-2.1-1.23l-3.39-6.2-3.76,6.41a2.43,2.43,0,0,1-2,1.21,2.36,2.36,0,0,1-2.1-1.23l-5-9.15a2.51,2.51,0,0,1,.93-3.35,2.34,2.34,0,0,1,3.25.9l3,5.48,3.75-6.4a2.45,2.45,0,0,1,2-1.21,2.36,2.36,0,0,1,2.09,1.23l4.63,8.46a6.26,6.26,0,0,0,4.68-6.1,6,6,0,0,0-6-6.05,2.38,2.38,0,0,1-2.4-2.41,2.54,2.54,0,0,1,.19-1,7.94,7.94,0,0,0-4.54-10.15,7.38,7.38,0,0,0-2.72-.46,8.43,8.43,0,0,0-7.65,5.36,2.54,2.54,0,0,0,.15-.92,2.4,2.4,0,0,0-.88-1.83,15.61,15.61,0,0,0-2.38-1.61A13.32,13.32,0,0,1,232.95,108.21Z" style="fill: #1cb05e"/>
                <path d="M214.5,112.21a15.55,15.55,0,0,1,7.73,1.91,12.94,12.94,0,0,0-1.37,2.69,2.47,2.47,0,0,0,.7,2.74,10.86,10.86,0,0,0-7-2.44,11.51,11.51,0,0,0-11.12,11.61,11.08,11.08,0,0,0,11.16,11.22l8.29-.14a2.38,2.38,0,0,1,2.4,2.41,2.47,2.47,0,0,1-2.39,2.49l-8.29.14a15.84,15.84,0,0,1-16-16A16.45,16.45,0,0,1,214.5,112.21Z" style="fill: #1cb05e"/>
                <path d="M222.23,114.12a15.61,15.61,0,0,1,2.38,1.61,2.4,2.4,0,0,1,.88,1.83,2.52,2.52,0,0,1-.16.94l-.06.15,0,.08-.06.11-.07.11,0,.07-.1.13-.05.06-.1.13-.07.06-.11.09-.09.08-.09.06-.11.07-.09.06-.12.06-.08,0-.12.06-.11,0-.11,0-.12,0-.1,0-.13,0h-.46l-.11,0-.11,0-.14,0-.08,0-.18-.06-.05,0-.17-.07-.06,0-.12-.07-.09-.06-.08-.05-.12-.09a2.47,2.47,0,0,1-.73-2.77A12.94,12.94,0,0,1,222.23,114.12Z" style="fill: #1cb05e"/>
              </g>
            </g>
          </g>
          <g>
            <polygon points="294.1 146.41 290.25 148.33 289.07 152.95 291.46 156.64 290.39 158.54 286.15 158.16 283.14 161.3 283.51 165.76 281.7 166.87 278.18 164.36 273.77 165.61 271.94 169.64 269.83 169.64 268 165.61 263.6 164.36 260.07 166.87 258.26 165.76 258.63 161.3 255.63 158.16 251.38 158.54 250.31 156.64 252.71 152.95 251.52 148.33 247.67 146.41 247.67 144.21 251.52 142.29 252.71 137.67 250.31 133.98 251.38 132.08 255.63 132.46 258.63 129.31 258.26 124.86 260.07 123.75 263.6 126.25 268 125.01 269.83 120.98 271.94 120.98 273.77 125.01 278.18 126.25 281.7 123.75 283.51 124.86 283.14 129.31 286.14 132.46 290.39 132.08 291.46 133.98 289.07 137.67 290.25 142.29 294.1 144.21 294.1 146.41" style="fill: #fff;stroke: #fff;stroke-miterlimit: 10;stroke-width: 5px"/>
            <polygon points="294.1 146.41 290.25 148.33 289.07 152.95 291.46 156.64 290.39 158.54 286.15 158.16 283.14 161.3 283.51 165.76 281.7 166.87 278.18 164.36 273.77 165.61 271.94 169.64 269.83 169.64 268 165.61 263.6 164.36 260.07 166.87 258.26 165.76 258.63 161.3 255.63 158.16 251.38 158.54 250.31 156.64 252.71 152.95 251.52 148.33 247.67 146.41 247.67 144.21 251.52 142.29 252.71 137.67 250.31 133.98 251.38 132.08 255.63 132.46 258.63 129.31 258.26 124.86 260.07 123.75 263.6 126.25 268 125.01 269.83 120.98 271.94 120.98 273.77 125.01 278.18 126.25 281.7 123.75 283.51 124.86 283.14 129.31 286.14 132.46 290.39 132.08 291.46 133.98 289.07 137.67 290.25 142.29 294.1 144.21 294.1 146.41" style="fill: #fff;stroke: #373e5a;stroke-miterlimit: 10"/>
            <ellipse cx="270.89" cy="145.31" rx="14.79" ry="15.5" style="fill: none;stroke: #373e5a;stroke-linecap: round;stroke-linejoin: round;stroke-dasharray: 2.003669261932373,3.0055038928985596"/>
            <ellipse cx="270.89" cy="145.31" rx="11.05" ry="11.58" style="fill: none;stroke: #373e5a;stroke-miterlimit: 10"/>
            <path d="M262.11,152.2a12,12,0,0,1-1.12-5.08,11.32,11.32,0,0,1,11-11.58,10.85,10.85,0,0,1,8.64,4.36" style="fill: none;stroke: #373e5a;stroke-miterlimit: 10"/>
          </g>
        </g>
      </g>
    </g>
  </g>
</svg>
