<svg xmlns="http://www.w3.org/2000/svg" width="60.94" height="60.94" viewBox="0 0 60.94 60.94">
  <title>icon-sm-shield</title>
  <g id="Layer_2" data-name="Layer 2">
    <g id="_1200" data-name="1200">
      <g id="Illustration">
        <g>
          <circle cx="30.47" cy="30.47" r="29.97" style="fill: #edf0f3;stroke: #fff;stroke-linecap: round;stroke-linejoin: round;opacity: 0.2"/>
          <g id="siem_-_sm" data-name="siem - sm">
            <rect x="28.54" y="28.55" width="15.86" height="7.48" transform="translate(4.99 -4.88) rotate(8.21)" style="fill: #fff;stroke: #373e5a;stroke-linecap: round;stroke-linejoin: round"/>
            <polygon points="45.79 36.27 43.94 36.04 44.57 31.67 46.84 31.94 45.79 36.27" style="fill: #fff;stroke: #373e5a;stroke-linecap: round;stroke-linejoin: round"/>
            <path d="M33.1,28.06l-5.77-.83h0s0,2.52.65,3l.56.08c.1,0,.19.11.24.26l.37,1.08" style="fill: #fff;stroke: #373e5a;stroke-linecap: round;stroke-linejoin: round"/>
            <line x1="36.2" y1="32.69" x2="30.78" y2="31.9" style="fill: #fff;stroke: #373e5a;stroke-linecap: round;stroke-linejoin: round;stroke-dasharray: 1.631687045097351,2.447530508041382"/>
            <path d="M33.54,28.13,50,30.5s-1.09,2.36-2.55,2.55l-1.13-.16a.8.8,0,0,0-.58.14L44.24,34" style="fill: #fff;stroke: #373e5a;stroke-linecap: round;stroke-linejoin: round"/>
            <rect x="27.29" y="30.33" width="0.4" height="3.36" transform="translate(4.85 -3.6) rotate(8.21)" style="fill: #fff;stroke: #373e5a;stroke-linecap: round;stroke-linejoin: round"/>
            <rect x="16.58" y="28.55" width="15.86" height="7.48" transform="translate(53.39 60.76) rotate(171.79)" style="fill: #fff;stroke: #373e5a;stroke-linecap: round;stroke-linejoin: round"/>
            <polygon points="15.2 36.27 17.04 36.04 16.41 31.67 14.07 31.95 15.2 36.27" style="fill: #fff;stroke: #373e5a;stroke-linecap: round;stroke-linejoin: round"/>
            <path d="M27.84,28.06l5.77-.83h0s0,2.52-.65,3l-.56.08c-.1,0-.19.11-.24.26l-.37,1.08" style="fill: #fff;stroke: #373e5a;stroke-linecap: round;stroke-linejoin: round"/>
            <line x1="24.75" y1="32.69" x2="30.16" y2="31.9" style="fill: #fff;stroke: #373e5a;stroke-linecap: round;stroke-linejoin: round;stroke-dasharray: 1.631687045097351,2.447530508041382"/>
            <path d="M27.41,28.13,11,30.5s1.09,2.36,2.55,2.55l1.13-.16a.8.8,0,0,1,.58.14l1.5.73" style="fill: #fff;stroke: #373e5a;stroke-linecap: round;stroke-linejoin: round"/>
            <rect x="33.26" y="30.33" width="0.4" height="3.36" transform="translate(71.14 58.91) rotate(171.79)" style="fill: #fff;stroke: #373e5a;stroke-linecap: round;stroke-linejoin: round"/>
            <path d="M30.48,42.89a.61.61,0,0,1-.22,0c-6.8-2.66-9.83-6.89-9.83-13.7V21.67a.62.62,0,0,1,.57-.61,19.7,19.7,0,0,0,9.15-2.9.62.62,0,0,1,.66,0A19.69,19.69,0,0,0,40,21.05h0a.62.62,0,0,1,.57.61v7.47c0,6.82-3,11-9.83,13.7A.61.61,0,0,1,30.48,42.89Z" style="fill: #fff;stroke: #373e5a;stroke-linecap: round;stroke-linejoin: round"/>
            <line x1="30.48" y1="18.39" x2="30.48" y2="23.13" style="fill: none;stroke: #373e5a;stroke-linecap: round;stroke-linejoin: round;stroke-dasharray: 1.631687045097351,2.447530508041382"/>
            <line x1="30.61" y1="42.62" x2="30.61" y2="37.47" style="fill: none;stroke: #373e5a;stroke-linecap: round;stroke-linejoin: round;stroke-dasharray: 1.631687045097351,2.447530508041382"/>
            <circle cx="30.58" cy="30.51" r="0.97" style="fill: none;stroke: #373e5a;stroke-linecap: round;stroke-linejoin: round"/>
            <g>
              <path d="M27.17,33.76a4.29,4.29,0,0,1-.09-6.3" style="fill: none;stroke: #373e5a;stroke-linecap: round;stroke-linejoin: round"/>
              <path d="M25.09,34.76a6.22,6.22,0,0,1-.1-8.29" style="fill: none;stroke: #373e5a;stroke-linecap: round;stroke-linejoin: round"/>
            </g>
            <g>
              <path d="M34,33.76a4.29,4.29,0,0,0,.09-6.3" style="fill: none;stroke: #373e5a;stroke-linecap: round;stroke-linejoin: round"/>
              <path d="M36.05,34.76a6.22,6.22,0,0,0,.1-8.29" style="fill: none;stroke: #373e5a;stroke-linecap: round;stroke-linejoin: round"/>
            </g>
          </g>
        </g>
      </g>
    </g>
  </g>
</svg>
