<svg xmlns="http://www.w3.org/2000/svg" width="132.62" height="101" viewBox="0 0 132.62 101">
  <title>icon-wasp-mad</title>
  <g id="Layer_2" data-name="Layer 2">
    <g id="Artwork">
      <g id="wasp">
        <path d="M107.13,61.18,105.3,60a6.39,6.39,0,0,0,.1-1.72l1.79-1.13-2.1-.4A6.41,6.41,0,0,0,104.2,55l.92-2.25-2.13,1a6.46,6.46,0,0,0-1.29-.8l-.45-2.68-1.42,2.13a6.39,6.39,0,0,0-1.28,0L97.2,50.19l-.48,2.56a6.42,6.42,0,0,0-1.22.61l-2-1.37.62,2.62a6.47,6.47,0,0,0-1,1.66l-2.41.4,2,1.3a6.39,6.39,0,0,0,0,1.42l-2,1.46,2.39.27a6.38,6.38,0,0,0,.86,1.52L92.63,65,95.3,64a6.49,6.49,0,0,0,1.11.62l.42,2.55,1.37-2.06a6.39,6.39,0,0,0,1.36,0l1.33,2.1.48-2.53a6.4,6.4,0,0,0,1.15-.6l2.24,1.27-.8-2.56a6.47,6.47,0,0,0,.82-1.28Z" style="fill: red"/>
        <g id="WASP-2" data-name="WASP">
          <path d="M74.63,35.11a1.1,1.1,0,0,0-1.57-.2,2.69,2.69,0,0,0-.77,1.51c-.18.73-.4,1.46-.52,2.21a5,5,0,0,0,.16,2.52.12.12,0,0,0,.23,0,4.23,4.23,0,0,1,.55-2h0A5.89,5.89,0,0,0,73,43.19c0,.1.21.1.2,0a3.89,3.89,0,0,1,.11-1.39h0a6.64,6.64,0,0,0,1,3.54,4.49,4.49,0,0,0,1.66,1.85A1.19,1.19,0,0,0,77.4,47a2.15,2.15,0,0,0,.45-.94A5.76,5.76,0,0,0,78,44.49a7.61,7.61,0,0,0-.08-.79" style="fill: none;stroke: #373e5a;stroke-linecap: round;stroke-linejoin: round"/>
          <path d="M34.89,80.25c0-.07-4.57,9.56-4.59,9.64h0a23.36,23.36,0,0,0-1.07,4.18,17.57,17.57,0,0,0-.15,4.18,15.28,15.28,0,0,0,.31,2c0,.13-.09.29-.19.21a6,6,0,0,1-1.8-3.1,11.4,11.4,0,0,1-.32-2.07c0-.7,0-1.42,0-2.13a5.73,5.73,0,0,0,0-.65c0-.23,1-9.17.94-9.39a56.23,56.23,0,0,1,6.93-2.89" style="fill: none;stroke: #373e5a;stroke-linecap: round;stroke-linejoin: round"/>
          <path d="M89.76,41.71a10.94,10.94,0,0,0,.86-7.36.1.1,0,0,0-.18,0,4.15,4.15,0,0,1-1,1.46h0a1.8,1.8,0,0,0,.26-1.07,7.9,7.9,0,0,0-.14-1.54,9.91,9.91,0,0,0-1-3.18,3.85,3.85,0,0,0-.88-1.15.1.1,0,0,0-.15.12,4.82,4.82,0,0,1,.58,2.54h0a7.2,7.2,0,0,0-3-2.87,4.37,4.37,0,0,0-3.92.08,3.27,3.27,0,0,0-.38.25.1.1,0,0,0,.07.18,4.56,4.56,0,0,1,3.05.22h0A8.63,8.63,0,0,0,77,31.58a.09.09,0,0,0,.11.14,4.41,4.41,0,0,1,3.19-.54h0a10.18,10.18,0,0,0-6.15,3.61" style="fill: none;stroke: #373e5a;stroke-linecap: round;stroke-linejoin: round"/>
          <path d="M92.68,24.49h0a12.72,12.72,0,0,0,1.9,7.27,9.27,9.27,0,0,0,2,2.33,4,4,0,0,0,2.08,1c2,.19,2.77-2.39,2.94-4a11.35,11.35,0,0,0-.29-3.83,9.47,9.47,0,0,0-1.14-2.89,5.49,5.49,0,0,0-4-2.55,3.4,3.4,0,0,0-2,.41,3.13,3.13,0,0,0-1.32,1.56,3,3,0,0,0-.19.68" style="fill: none;stroke: #373e5a;stroke-miterlimit: 10"/>
          <path d="M92.28,25.41h0a18,18,0,0,0,2.36,9.7,12.18,12.18,0,0,0,2.43,3.11,4.75,4.75,0,0,0,2.58,1.3c2.53.25,3.43-3.19,3.64-5.28a16.28,16.28,0,0,0-.36-5.11,13.22,13.22,0,0,0-1.41-3.86,6.77,6.77,0,0,0-5-3.4,4,4,0,0,0-2.42.55,4.11,4.11,0,0,0-1.63,2.08,4.2,4.2,0,0,0-.23.91" style="fill: none;stroke: #373e5a;stroke-linecap: round;stroke-linejoin: round"/>
          <path d="M92.76,24.3h0A10.34,10.34,0,0,0,93,29.17a15.2,15.2,0,0,0,1.54,3.73c.81,1.37,2.06,2.83,3.74,3.07a2.91,2.91,0,0,0,1.77-.31,3.57,3.57,0,0,0,1.36-1.35A7.5,7.5,0,0,0,102,29.1a13.06,13.06,0,0,0-.45-1.69,10.28,10.28,0,0,0-.76-1.79" style="fill: none;stroke: #373e5a;stroke-linecap: round;stroke-linejoin: round"/>
          <path d="M94.23,22.2c-.16.14-.42.11-.62.19a3.06,3.06,0,0,0-.91.56,3.88,3.88,0,0,0-.7.9A10.94,10.94,0,0,0,91,26a7.48,7.48,0,0,0-.16,4.7h0a4,4,0,0,1,.69-1.85.1.1,0,0,1,.18.08A16.79,16.79,0,0,0,92,34.83a7.8,7.8,0,0,1,.49-.87h0a5.64,5.64,0,0,0,1.16,3.57,43.67,43.67,0,0,0,3,3.73c1.06,1.24,3,3.06,4.71,1.94a4.21,4.21,0,0,0,1.47-2,12.84,12.84,0,0,0,.82-3.41,16.5,16.5,0,0,0,.13-2.6s.07-12.21-7.2-13.38A3,3,0,0,0,94.23,22.2Z" style="fill: none;stroke: #373e5a;stroke-linecap: round;stroke-linejoin: round"/>
          <path d="M59.79,36.18a4.15,4.15,0,0,0,.32,1.26,6.92,6.92,0,0,0,.63,1.22,7.74,7.74,0,0,0,.85,1.08c.15.17.32.32.49.47a2.42,2.42,0,0,0,.55.4" style="fill: none;stroke: #373e5a;stroke-linecap: round;stroke-linejoin: round"/>
          <path d="M55.27,43.83A7.18,7.18,0,0,0,55,42.2a9.27,9.27,0,0,0-.73-1.87,8.54,8.54,0,0,0-2.41-2.92" style="fill: none;stroke: #373e5a;stroke-linecap: round;stroke-linejoin: round"/>
          <path d="M56.09,42.82a6.32,6.32,0,0,0,.26-1.39,9.55,9.55,0,0,0,0-1.43,8.47,8.47,0,0,0-.18-1.38,4.76,4.76,0,0,0-.44-1.33" style="fill: none;stroke: #373e5a;stroke-linecap: round;stroke-linejoin: round"/>
          <path d="M58.27,36.69h0a5.65,5.65,0,0,0,0,.74c0,.26,0,.53,0,.79s0,.49,0,.74a3.3,3.3,0,0,0,.05.76" style="fill: none;stroke: #373e5a;stroke-linecap: round;stroke-linejoin: round"/>
          <path d="M52.61,73.52l.36.19a5.49,5.49,0,0,0,2.91.43,7,7,0,0,0,2.7-.83,3.82,3.82,0,0,0,.92-.69,2.43,2.43,0,0,0,.52-.88,6.5,6.5,0,0,0,.21-2.56,20.23,20.23,0,0,0-.37-2.59" style="fill: none;stroke: #373e5a;stroke-linecap: round;stroke-linejoin: round"/>
          <path d="M55.11,74.18c-.12.29-.23.58-.36.87a9.57,9.57,0,0,1-.6,1.15.17.17,0,0,0,0,.21,3.85,3.85,0,0,0,1.27.71.17.17,0,0,0,.19-.08,6.33,6.33,0,0,0,.61-2.94" style="fill: #373e5a"/>
          <path d="M54.28,76.49c-.29.27-.57.55-.89.79a5.93,5.93,0,0,1-1.18.7.16.16,0,0,0,0,.26,3.22,3.22,0,0,1,.87,1.37.18.18,0,0,0,.29.08,10.57,10.57,0,0,0,1-1.37c.15-.24.28-.49.41-.74A4.27,4.27,0,0,0,55,77" style="fill: #373e5a"/>
          <path d="M52.44,78.51c-.2.06-.41.13-.61.2l-.89.3a7.88,7.88,0,0,0-1.67.77,3.52,3.52,0,0,0-1.22,1.33,3.41,3.41,0,0,0-.31.9,1.2,1.2,0,0,0,.12.93c.06.09.24.13.29,0A4.35,4.35,0,0,1,49,81.59a3.45,3.45,0,0,1,1.46-.84,9.31,9.31,0,0,0,1.6-.57,2,2,0,0,0,.9-.86" style="fill: #373e5a"/>
          <path d="M51.37,80.48c0,.13,0,.27,0,.4s-.06.44-.11.65a6.46,6.46,0,0,1-.37,1.19.16.16,0,0,0,.22.22,3.33,3.33,0,0,0,1.48-1.55,3.56,3.56,0,0,0,.29-1,3.89,3.89,0,0,1,.09-.51,2,2,0,0,1,.14-.34" style="fill: #373e5a"/>
          <path d="M58.26,39.72A7.14,7.14,0,0,0,57.08,41a32.72,32.72,0,0,0-2.84,4.53,55.5,55.5,0,0,0-2.63,5.6c-.34.86-.66,1.72-.93,2.6a13.86,13.86,0,0,0-.51,2.16,5.18,5.18,0,0,0-.06,1A4.54,4.54,0,0,0,51,59S49.9,67.13,40.1,78.51" style="fill: none;stroke: #373e5a;stroke-linecap: round;stroke-linejoin: round"/>
          <path d="M59.3,39.53h.17l.11,0,.14,0,.3.07a7.93,7.93,0,0,1,1.52.55A9.46,9.46,0,0,1,65,43a7.74,7.74,0,0,1,1.22,2.3,8.18,8.18,0,0,1,.37,3A10.31,10.31,0,0,1,66.38,50c-.1.45-.23,1.32-.8,1.37" style="fill: none;stroke: #373e5a;stroke-linecap: round;stroke-linejoin: round"/>
          <path d="M85.28,38.7" style="fill: #231f20;stroke: #373e5a;stroke-miterlimit: 10"/>
          <path d="M91,47a6.11,6.11,0,0,1,.7,2.05" style="fill: #231f20;stroke: #373e5a;stroke-miterlimit: 10"/>
          <path d="M95.46,58.21a.87.87,0,0,0,.37,0l.42-.06c.3,0,.61-.08.91-.11a2.54,2.54,0,0,1,1.11.07" style="fill: #231f20;stroke: #373e5a;stroke-miterlimit: 10"/>
          <path d="M90.4,58.31a.64.64,0,0,0,.06.34,3.53,3.53,0,0,1,.08.38,2.54,2.54,0,0,1,0,.43" style="fill: #231f20;stroke: #373e5a;stroke-miterlimit: 10"/>
          <path d="M113,21.63a4,4,0,0,0-.06.44,7.87,7.87,0,0,0,0,.83c0,.24,0,.65.28.74a1.25,1.25,0,0,0,1.15-.44,3.46,3.46,0,0,0,.58-2.66c0-.18,0-.36-.07-.53a.45.45,0,0,0-.19-.35.55.55,0,0,0-.43,0,1.8,1.8,0,0,0-1,.82,2.14,2.14,0,0,0-.25.61,1.58,1.58,0,0,0,0,.74" style="fill: none;stroke: #373e5a;stroke-miterlimit: 10"/>
          <path d="M114.86,22.18a.88.88,0,0,0,.66,0A2.72,2.72,0,0,0,117,20.52a4.93,4.93,0,0,0,.3-1.68,1.46,1.46,0,0,0-.14-.89.66.66,0,0,0-.67-.18,2.62,2.62,0,0,0-1.3.83,2.06,2.06,0,0,0-.58,1" style="fill: none;stroke: #373e5a;stroke-miterlimit: 10"/>
          <path d="M116.52,20.91a.25.25,0,0,0,0,.06.22.22,0,0,0,.07.11.47.47,0,0,0,.21.1,1.24,1.24,0,0,0,.6,0,2.17,2.17,0,0,0,1.16-.83" style="fill: none;stroke: #373e5a;stroke-miterlimit: 10"/>
          <path d="M118.56,20.32a2.89,2.89,0,0,0,.25-.41,4.44,4.44,0,0,0,.42-1.46,7.09,7.09,0,0,0,.05-1,.89.89,0,0,0-.14-.61c-.23-.27-.68-.13-.95,0a2.57,2.57,0,0,0-1,.71c-.14.17-.32.44-.16.65" style="fill: none;stroke: #373e5a;stroke-miterlimit: 10"/>
          <path d="M118.5,20.07a1.46,1.46,0,0,0,1.25-.08,2.52,2.52,0,0,0,.92-.91,5.49,5.49,0,0,0,.82-2.44.88.88,0,0,0-.16-.72.89.89,0,0,0-.86-.1,2.65,2.65,0,0,0-1,.51c-.19.16-.45.41-.44.68a.07.07,0,0,0,.14,0" style="fill: none;stroke: #373e5a;stroke-miterlimit: 10"/>
          <path d="M120.85,18.63a2,2,0,0,0,1.51,0,2.41,2.41,0,0,0,1-.84,5.26,5.26,0,0,0,.59-1.1l.2-.49,0-.09,0-.06a1.58,1.58,0,0,0,.11-.31A.65.65,0,0,0,124,15a1.65,1.65,0,0,0-1-.06,3.19,3.19,0,0,0-1.1.44,5.25,5.25,0,0,0-.59.55" style="fill: none;stroke: #373e5a;stroke-miterlimit: 10"/>
          <path d="M114.9,27.68a3.68,3.68,0,0,1-.24.69.15.15,0,0,0,.09.22,2,2,0,0,0,1.76-.34,3.7,3.7,0,0,0,1.27-2.65c0-.22,0-.44,0-.66a.16.16,0,0,0-.12-.16,2.41,2.41,0,0,0-2.57,1.32,3,3,0,0,0-.22,1.13,2.31,2.31,0,0,1-.16,1" style="fill: none;stroke: #373e5a;stroke-linecap: round;stroke-linejoin: round"/>
          <path d="M117.25,27.35a1.28,1.28,0,0,0,1.06.07,3,3,0,0,0,.9-.47,4.41,4.41,0,0,0,1.66-2.59,1.65,1.65,0,0,0,0-1c-.13-.29-.42-.24-.68-.2a4.83,4.83,0,0,0-1.33.41c-.45.2-1.16.63-1.29,1.17" style="fill: none;stroke: #373e5a;stroke-linecap: round;stroke-linejoin: round"/>
          <path d="M120.12,26.12a.9.9,0,0,0,.53.27,1.43,1.43,0,0,0,.78-.12,3.9,3.9,0,0,0,1.42-1.18,5.06,5.06,0,0,0,.94-1.67c.13-.41.19-1-.22-1.26a1.35,1.35,0,0,0-1.13,0,5.44,5.44,0,0,0-1,.43,1.68,1.68,0,0,0-.67.62" style="fill: none;stroke: #373e5a;stroke-linecap: round;stroke-linejoin: round"/>
          <path d="M122.76,25.24a1.73,1.73,0,0,0,.76.36,2.7,2.7,0,0,0,.78.1,2.41,2.41,0,0,0,1.46-.56,4.33,4.33,0,0,0,1.15-1.63,6,6,0,0,0,.49-1.43c.09-.5,0-1.14-.57-1.26a2.66,2.66,0,0,0-1.57.37,7.38,7.38,0,0,0-1.06.63,2.58,2.58,0,0,0-.37.31l-.09.1" style="fill: none;stroke: #373e5a;stroke-linecap: round;stroke-linejoin: round"/>
          <path d="M126.65,24a3.79,3.79,0,0,1,.74.3,2.53,2.53,0,0,0,1.35.24,3.79,3.79,0,0,0,1.82-.84,4.87,4.87,0,0,0,1.18-1.32,2.26,2.26,0,0,0,.38-1.29.87.87,0,0,0-.67-.81,3.41,3.41,0,0,0-1,0,6.57,6.57,0,0,0-1.14.16,5.21,5.21,0,0,0-1.88.84" style="fill: none;stroke: #373e5a;stroke-linecap: round;stroke-linejoin: round"/>
          <path d="M104.09,30a.14.14,0,0,0,.12,0,2.77,2.77,0,0,0,.57-.2l.61-.24,1.19-.43c.8-.27,1.61-.48,2.42-.68a2.21,2.21,0,0,0,1-.48,3,3,0,0,0,.6-.8c.18-.32.33-.64.51-1s.41-.68.63-1c.41-.62.89-1.19,1.33-1.78" style="fill: none;stroke: #373e5a;stroke-miterlimit: 10"/>
          <path d="M113,21.18a3,3,0,0,0-.82.68,9.3,9.3,0,0,0-.69.83c-.44.58-.82,1.21-1.2,1.83a10.36,10.36,0,0,1-1.32,1.9,4.85,4.85,0,0,1-1.62,1c-.6.25-1.22.44-1.82.67a4.42,4.42,0,0,0-1.68,1" style="fill: none;stroke: #373e5a;stroke-miterlimit: 10"/>
          <path d="M104.41,32.9a7,7,0,0,0,.93-.27l.68-.1c.44-.06.88-.11,1.32-.15s.88-.07,1.32-.08.87,0,1.3,0a2,2,0,0,0,1-.35,4.2,4.2,0,0,0,.76-.73,18.13,18.13,0,0,1,1.6-1.67c.48-.43,1-.81,1.47-1.23" style="fill: none;stroke: #373e5a;stroke-linecap: round;stroke-linejoin: round"/>
          <path d="M115.33,25.84a3,3,0,0,0-1,.48,9.35,9.35,0,0,0-.87.65c-.56.47-1.08,1-1.6,1.52A9.91,9.91,0,0,1,110.18,30a5.54,5.54,0,0,1-1.91.66c-.65.12-1.31.19-2,.3a6,6,0,0,0-2.11.58" style="fill: none;stroke: #373e5a;stroke-linecap: round;stroke-linejoin: round"/>
          <path d="M61.25,76.71a1,1,0,0,0,.19.28,1.91,1.91,0,0,0,.91.48,6.75,6.75,0,0,0,2.77.09A5.29,5.29,0,0,0,67,77a1.84,1.84,0,0,0,.33-.24" style="fill: none;stroke: #373e5a;stroke-linecap: round;stroke-linejoin: round"/>
          <path d="M60,79.23a1.6,1.6,0,0,0,.41.36,4.36,4.36,0,0,0,1,.43,11.16,11.16,0,0,0,2.39.44c.41,0,.82.05,1.22.07a9.75,9.75,0,0,0,1.17,0,2.93,2.93,0,0,0,1.1-.29" style="fill: none;stroke: #373e5a;stroke-linecap: round;stroke-linejoin: round"/>
          <path d="M58.66,82a2,2,0,0,0,.5.62,3.07,3.07,0,0,0,.95.49,11.22,11.22,0,0,0,3.53.51,14.77,14.77,0,0,0,2.55-.15" style="fill: none;stroke: #373e5a;stroke-linecap: round;stroke-linejoin: round"/>
          <path d="M58.42,86.5c-.5.29-.95.66-1.43,1l-.33.22c-.11.07-.22.13-.25.27a.58.58,0,0,0,.12.37c.07.13.15.26.23.38s.3.51.56.28a5.42,5.42,0,0,0,.59-.68q.27-.33.51-.68a4,4,0,0,0,.47-.77" style="fill: #373e5a"/>
          <path d="M56.44,88.17c-.15.06-.3.15-.44.21l-.66.31a10.16,10.16,0,0,1-1.38.49.16.16,0,0,0-.09.23c.22.49.77,1.73,1.48,1.17a3.42,3.42,0,0,0,.4-.44l.46-.52.42-.48.22-.26" style="fill: #373e5a"/>
          <path d="M26.92,67.88a12.67,12.67,0,0,0-1.37,4.45,18.4,18.4,0,0,0-.08,4.25,18.78,18.78,0,0,0,.67,3.51,10.29,10.29,0,0,0,.93,2.3,1.85,1.85,0,0,0,.91.89,1.35,1.35,0,0,0,1-.19c.31-.16.58-.38.88-.56a16.67,16.67,0,0,1,3.2-1.44A17.48,17.48,0,0,0,36,79.9a5.46,5.46,0,0,0,2.14-2.19A6.29,6.29,0,0,0,38.86,75a3.12,3.12,0,0,0-.35-1.55,5.2,5.2,0,0,0-1-1.21" style="fill: none;stroke: #373e5a;stroke-linecap: round;stroke-linejoin: round"/>
          <path d="M34.89,80.38h0a4.93,4.93,0,0,1,2.39.11c.6.11,1.2.21,1.8.26a10.59,10.59,0,0,0,2.12,0,12.38,12.38,0,0,0,3.72-1.11,14.86,14.86,0,0,0,1.53-.8,6.39,6.39,0,0,0,1-.84,10.59,10.59,0,0,0,5.39-4.29" style="fill: none;stroke: #373e5a;stroke-linecap: round;stroke-linejoin: round"/>
          <path d="M27,68.16a4.13,4.13,0,0,0,1.17,1,5.42,5.42,0,0,0,1.94.68c.78.11,1.57.08,2.35.17a5.4,5.4,0,0,1,2,.64,20.28,20.28,0,0,0,3.48,1.92,2.77,2.77,0,0,0,1.74.05,1.64,1.64,0,0,0,.94-1A3.43,3.43,0,0,0,40.78,70a2.14,2.14,0,0,0-.35-1,3.49,3.49,0,0,0-1.84-1.2,14.91,14.91,0,0,0-2.78-.56c-1-.14-2.06-.24-3.09-.41a16,16,0,0,1-2.16-.47c-.32-.1-.63-.21-.95-.32a3.13,3.13,0,0,1-.43-.21,1.46,1.46,0,0,1-.59-.5" style="fill: none;stroke: #373e5a;stroke-linecap: round;stroke-linejoin: round"/>
          <path d="M27.81,65.27h0a2.15,2.15,0,0,1-1,2.24.16.16,0,0,0-.06.22,3.36,3.36,0,0,0,.29.42" style="fill: none;stroke: #373e5a;stroke-linecap: round;stroke-linejoin: round"/>
          <path d="M31.54,57.37a1.61,1.61,0,0,0-.74,0,2.62,2.62,0,0,0-1,.53,7,7,0,0,0-2.69,5.28,6.17,6.17,0,0,0,.05,1,1.42,1.42,0,0,0,.57.94,3.65,3.65,0,0,0,1.05.59" style="fill: none;stroke: #373e5a;stroke-linecap: round;stroke-linejoin: round"/>
          <path d="M31.75,54.93a.15.15,0,0,0-.07.11,3.85,3.85,0,0,1-.46,1.39,4.19,4.19,0,0,1-.43.63c-.16.19-.35.35-.49.55" style="fill: none;stroke: #373e5a;stroke-linecap: round;stroke-linejoin: round"/>
          <path d="M49.09,56.5a.43.43,0,0,1,.1.17.32.32,0,0,1-.08.29,2.09,2.09,0,0,1-1.18.59,4.26,4.26,0,0,1-1.83,0A4,4,0,0,1,44.83,57a13.89,13.89,0,0,1-2.19-1.79c-1.6-1.51-3.06-3.17-4.79-4.54a7.05,7.05,0,0,0-2.27-1.32,2.51,2.51,0,0,0-1-.11,2.24,2.24,0,0,0-1.06.52,5.49,5.49,0,0,0-1.91,2.89,3.42,3.42,0,0,0,0,2,1.8,1.8,0,0,0,1.59,1c.32,0,.64.09,1,.17a6.86,6.86,0,0,1,.9.28,8.92,8.92,0,0,1,1.65.87,33.77,33.77,0,0,1,3,2.39c.5.41,1,.82,1.53,1.19a12.76,12.76,0,0,0,1.65,1,5.2,5.2,0,0,1,1.66,1.12,2,2,0,0,1,.48,1.51,3.32,3.32,0,0,1-1.67,2.55A1.76,1.76,0,0,1,42,66.9a2.44,2.44,0,0,1-1.25-1.31c-.23-.42-.43-.84-.69-1.24s-.54-.79-.83-1.17A23.82,23.82,0,0,0,37,60.62a18.56,18.56,0,0,0-2.71-2.22,6.77,6.77,0,0,0-2.67-1.14,3.56,3.56,0,0,0-.61,0" style="fill: none;stroke: #373e5a;stroke-linecap: round;stroke-linejoin: round"/>
          <path d="M76.56,61.18a1.87,1.87,0,0,0,.07.65,3.45,3.45,0,0,0,.31.79,4,4,0,0,0,1,1.26c.13.11.35,0,.25-.19a4,4,0,0,1-.44-1.08,5.19,5.19,0,0,1-.11-.6c0-.16,0-.34-.06-.5" style="fill: #969c9c;stroke: #373e5a;stroke-miterlimit: 10"/>
          <path d="M83.22,61.53l.15.14c.15.16.29.32.43.49a6.07,6.07,0,0,1,.67,1.07.16.16,0,0,0,.31-.09A3.62,3.62,0,0,0,84,61.22a2.37,2.37,0,0,0-1.11-.75" style="fill: #969c9c;stroke: #373e5a;stroke-miterlimit: 10"/>
          <path d="M98.78,58a1.87,1.87,0,0,0-1.5-.35c-.32,0-.65.06-1,.11l-.45.06-.16,0a1.06,1.06,0,0,0-.6-.77l-.65-.37a5.14,5.14,0,0,1-.44-.31.6.6,0,0,0,.09-.24.61.61,0,0,0-.22-.44c-.15-.15-.32-.28-.47-.42s-.19-.18-.27-.28l-.19-.22a.14.14,0,0,0,0-.16,7.77,7.77,0,0,1-.62-1,3.24,3.24,0,0,1-.2-.57,3.51,3.51,0,0,1-.08-.48,2.71,2.71,0,0,0,.17-.72,7.6,7.6,0,0,0,0-1.23,12.26,12.26,0,0,0-.33-2.23,6.26,6.26,0,0,0-.31-.95l-.07-.15a.17.17,0,0,0,.12-.09,1.48,1.48,0,0,0,.07-.81,6.55,6.55,0,0,0-.28-1.18,19,19,0,0,0-1.36-3.07,22.92,22.92,0,0,0-2-3.14A13.83,13.83,0,0,0,87,37.74a2.84,2.84,0,0,0-1.8-1,.18.18,0,0,0-.17.13c-.41,2.08.56,2.17,1,4.08a13.91,13.91,0,0,1,.57,2.3,11,11,0,0,1,.07,3.06l0,.18,0,.19,0,.22a.3.3,0,0,0,.15.34c.16.1.32,0,.43-.12l.21-.16c.37.61.77,1.21,1.12,1.84s.56,1.05.82,1.59a8,8,0,0,0,1.25,2.14,2.08,2.08,0,0,0,.83.57,3.49,3.49,0,0,0,.05,1.17,1.36,1.36,0,0,0,.35.71.64.64,0,0,0,.41.17,2,2,0,0,0,.06.71,1.82,1.82,0,0,0,.35.75.93.93,0,0,0,.53.35.66.66,0,0,0,.21,0,2.41,2.41,0,0,0,.45,1,2,2,0,0,0,1,.86.58.58,0,0,0,.4,0,2.23,2.23,0,0,0,.18.5,3.47,3.47,0,0,0,.48.76,2.11,2.11,0,0,0,1.25.89.18.18,0,0,0,.18-.18A4.16,4.16,0,0,0,97,59.59a2.55,2.55,0,0,0-.46-.77l.41,0a9,9,0,0,0,1.74-.46A.18.18,0,0,0,98.78,58Z" style="fill: #373e5a"/>
          <path d="M92.81,58.7a5.84,5.84,0,0,0-.72-1,3,3,0,0,0-.93-.66,3.13,3.13,0,0,0-1.1-.27,2.19,2.19,0,0,0-.76.07.77.77,0,0,0,.1-.19.54.54,0,0,0-.12-.48l-.38-.49a22.62,22.62,0,0,1-1.47-2.2q-.34-.58-.64-1.18l-.29-.59a4.82,4.82,0,0,0-.29-.54l0-.06a1.85,1.85,0,0,0,0-1.19c-.1-.41-.23-.81-.37-1.2a15.18,15.18,0,0,1-.59-2,5.17,5.17,0,0,1,0-2.1,18,18,0,0,0-2.56.74l-1.15,1.94A17.09,17.09,0,0,1,83,49.12a7.64,7.64,0,0,1,.55,1,1.75,1.75,0,0,0,.71.83c.17.1.35.19.53.28a4.74,4.74,0,0,0,.49.23,19.7,19.7,0,0,0,1.83,4.37,8.5,8.5,0,0,0,.59,1,.89.89,0,0,0,.83.43,1.09,1.09,0,0,0,.25-.07,3.84,3.84,0,0,0,.51.49,4.33,4.33,0,0,0,1.28,2.24.16.16,0,0,0,.26-.11,3.35,3.35,0,0,0,0-.82,2.68,2.68,0,0,0-.11-.43l0-.14c.3,0,.59.06.89.12a5.05,5.05,0,0,1,1,.37C92.72,59,92.9,58.86,92.81,58.7Z" style="fill: #373e5a"/>
          <path d="M51.25,52.59a9.62,9.62,0,0,0-.46-1.95A14.68,14.68,0,0,0,50,48.88a15.8,15.8,0,0,0-1.94-2.94,16.61,16.61,0,0,0-4.24-3.66,9.16,9.16,0,0,0-1.55-.76,2.5,2.5,0,0,0-1.23-.18,3.62,3.62,0,0,0-.88.29A8.39,8.39,0,0,0,38.11,43a3.2,3.2,0,0,0-1.21,1.85c-.11.83.64,1.37,1.31,1.65.3.13.61.21.92.32s.67.24,1,.37a13.28,13.28,0,0,1,1.71.85,12,12,0,0,1,4.11,4.13c.39.64.74,1.3,1.1,2a7.42,7.42,0,0,0,1,1.47,1.71,1.71,0,0,0,2.29.39" style="fill: none;stroke: #373e5a;stroke-linecap: round;stroke-linejoin: round"/>
          <path d="M75.87,47.19a3,3,0,0,1-4.39-.57.88.88,0,0,0-.52-.29.88.88,0,0,1,.52.29,3,3,0,0,0,4.39.57.11.11,0,0,1,0,.11c-.23.33-.5.63-.74,1s-.45.68-.68,1A9,9,0,0,1,73,51.07a4.38,4.38,0,0,1-1,.69c.19.72.35,1.46.56,2.18a22,22,0,0,0,.73,2.14,12.62,12.62,0,0,0,1,2c.2.32.43.61.65.91l.05.09a1.91,1.91,0,0,1,.67.29,7.72,7.72,0,0,1,.67.54c.44.36,1,.33,1.52.54a3.57,3.57,0,0,1,2,2.13.18.18,0,0,1-.29.17,3.69,3.69,0,0,0-1.11-.91,3.77,3.77,0,0,0-1-.33l-1-.32-.1-.05c-.21-.15-.4-.34-.6-.52a12.85,12.85,0,0,0-1.15-.92l-.06,0a1.6,1.6,0,0,1-1.07-.14,2,2,0,0,1-.9-.6,2,2,0,0,1-.25-1c0-.41-.07-.82-.12-1.23a19.83,19.83,0,0,0-.48-2.45c-.2-.76-.46-1.5-.68-2.25a.91.91,0,0,1-.71-.18,1.24,1.24,0,0,1-.25-1,15.26,15.26,0,0,1,.56-2.46c.1-.42.17-.84.24-1.27l.1-.81a.88.88,0,0,1,.52.29,3.05,3.05,0,0,0,4.41.56,0,0,0,0,1,0,0" style="fill: #373e5a"/>
          <path d="M90,66.2,88.2,65a6.39,6.39,0,0,0,.1-1.72l1.79-1.13-2.1-.4A6.41,6.41,0,0,0,87.09,60L88,57.76l-2.13,1a6.46,6.46,0,0,0-1.29-.8l-.45-2.68L82.73,57.4a6.39,6.39,0,0,0-1.28,0L80.09,55.2l-.48,2.56a6.42,6.42,0,0,0-1.22.61l-2-1.37L77,59.63a6.47,6.47,0,0,0-1,1.66l-2.41.4,2,1.3a6.39,6.39,0,0,0,0,1.42l-2,1.46,2.39.27a6.38,6.38,0,0,0,.86,1.52L75.53,70l2.67-.92a6.49,6.49,0,0,0,1.11.62l.42,2.55,1.37-2.06a6.39,6.39,0,0,0,1.36,0l1.33,2.1.48-2.53a6.4,6.4,0,0,0,1.15-.6l2.24,1.27-.8-2.56a6.47,6.47,0,0,0,.82-1.28Z" style="fill: red"/>
          <path d="M83.09,60.64c0-.07-.15-.31-.19-.39a1.06,1.06,0,0,0-.47-.35c-.24-.13-.49-.24-.74-.34a2.76,2.76,0,0,1-.5-.24c0-.07,0-.15.06-.22a.23.23,0,0,0-.13-.24,4,4,0,0,0-.44-.24l-.47-.23a4.74,4.74,0,0,0-.58-.24.74.74,0,0,0,0-.11c0-.22-.11-.33-.31-.38a2.83,2.83,0,0,1-1.54-1v0a10.86,10.86,0,0,0,.89-3.38,8.9,8.9,0,0,0,0-1.66,4.89,4.89,0,0,0-.42-1.73l-.16.18c0-.07,0-.13-.08-.2a6,6,0,0,0,.08-.73,5.12,5.12,0,0,0-.05-1,2.08,2.08,0,0,0-.2-.6.86.86,0,0,0-.1-.55l-1.61-.13a2.56,2.56,0,0,0-.1,1.5c0,.09,0,.19.07.29a4.62,4.62,0,0,0-.22,1.85c0,.07,0,.15,0,.22s-.06,0-.07,0a3.69,3.69,0,0,0-.36,2h0a6.25,6.25,0,0,0,.3,3.76,4.36,4.36,0,0,0,.62,1.16c.15.19.39.42.64.29a.64.64,0,0,0,.21-.27,3.36,3.36,0,0,1,.71.55l.92.85a.14.14,0,0,0,.22,0l.17-.29a3.4,3.4,0,0,1,.44.58,2.94,2.94,0,0,0,1,.88.15.15,0,0,0,.21-.06c0-.06,0-.13.07-.19l.15.14.51.46.68.61c0,.08,0,.17,0,.24v.64q0,.62,0,1.23a.14.14,0,0,0,.28.07,6.38,6.38,0,0,0,.58-1.68c0-.05.14-.18.15-.24m-4-3.48h0Z" style="fill: #373e5a"/>
          <path d="M37.48,45.87a3.08,3.08,0,0,0-.48.32l-.49.38a6.71,6.71,0,0,0-.85.83,3.51,3.51,0,0,0-.93,2" style="fill: none;stroke: #373e5a;stroke-linecap: round;stroke-linejoin: round"/>
          <path d="M26,28.29a1.13,1.13,0,0,0-1,.81,1.85,1.85,0,0,0,.29,1.57A9.53,9.53,0,0,0,26.45,32c.4.44.82.86,1.25,1.27a26.38,26.38,0,0,0,5.89,4.24,13.42,13.42,0,0,0,2.85,1.13,8.67,8.67,0,0,0,3.63,0c1.31-.23,2.59-.6,3.91-.83a26.12,26.12,0,0,1,4.24-.26,56.66,56.66,0,0,0,8.42-.38,22.47,22.47,0,0,0,6.64-2.4c2.54-1.31,5-3,7.83-3.67.19,0,.11-.34-.08-.29" style="fill: none;stroke: #373e5a;stroke-linecap: round;stroke-linejoin: round"/>
          <path d="M51.94,50.46a13.56,13.56,0,0,0-.34-4.14,10.7,10.7,0,0,0-1.85-4A8.78,8.78,0,0,0,47,39.92a7.76,7.76,0,0,0-.81-.38c-.3-.12-.61-.21-.91-.33a1.53,1.53,0,0,1-.77-.58,1.13,1.13,0,0,1-.14-.84" style="fill: none;stroke: #373e5a;stroke-linecap: round;stroke-linejoin: round"/>
          <path d="M44.54,38.82c-.08-.29-.71.05-.87.12a4,4,0,0,0-.82.53A3.61,3.61,0,0,0,41.72,41a1.17,1.17,0,0,0-.06.29.08.08,0,0,0,0,.07" style="fill: none;stroke: #373e5a;stroke-linecap: round;stroke-linejoin: round"/>
          <path d="M11.9,15.08h0c-3-2-4.13-5.52-5-8.83C6.42,4.72,6,2.64,7.28,1.4A4.07,4.07,0,0,1,10,.55l2.9,0c8.13-.09,16.43.2,24,3.36,2.16.9,4.24,2,6.3,3.08,2.59,1.39,5.14,2.86,7.66,4.37C56.4,14.58,61.75,18,67,21.58c3.43,2.32,6.84,4.68,10.1,7.24" style="fill: none;stroke: #373e5a;stroke-linecap: round;stroke-linejoin: round"/>
          <path d="M7.87,9.83a10.38,10.38,0,0,0-4.53-.39,8.73,8.73,0,0,0-1.72.37,1.57,1.57,0,0,0-.86.66,2.68,2.68,0,0,0-.21,1.71,5.8,5.8,0,0,0,.61,1.89,25.5,25.5,0,0,0,2.37,3.38c.42.57.77,1.18,1.14,1.78a6.3,6.3,0,0,0,1.43,1.7,5,5,0,0,0,4,.8,10.2,10.2,0,0,0,2.35-.81,7.51,7.51,0,0,0,2.11-1.4" style="fill: none;stroke: #373e5a;stroke-linecap: round;stroke-linejoin: round"/>
          <path d="M10,24a2.12,2.12,0,0,0,.91.34" style="fill: none;stroke: #373e5a;stroke-linecap: round;stroke-linejoin: round"/>
          <path d="M8.68,21.85A3.13,3.13,0,0,0,10,24" style="fill: none;stroke: #373e5a;stroke-linecap: round;stroke-linejoin: round"/>
          <path d="M10.24,23.89c-.06,0-.07.08,0,.1a2.75,2.75,0,0,1,1.48,1.56c.17.35.33.71.52,1.05a7.21,7.21,0,0,0,.57.84A8.85,8.85,0,0,0,16,29.93c2.94,1.42,6.31,1.37,9.49,1.22l.36,0" style="fill: none;stroke: #373e5a;stroke-linecap: round;stroke-linejoin: round"/>
          <path d="M22.36,17.37a47.88,47.88,0,0,0-5.62,3,.15.15,0,0,0-.07.16,11.76,11.76,0,0,0,5.17,6.39,11.64,11.64,0,0,0,3.93,1.48,15.32,15.32,0,0,0,4.82,0A23.44,23.44,0,0,0,35.85,27c.93-.36,1.81-.84,2.74-1.19A14.79,14.79,0,0,1,42,25a54.28,54.28,0,0,1,11.08.22c6.22.57,12.41,1.47,18.59,2.38.82.12,1.64.23,2.45.38a10.86,10.86,0,0,1,2.13.5" style="fill: none;stroke: #373e5a;stroke-linecap: round;stroke-linejoin: round"/>
          <path d="M21.89,10.8c.07,0,0-.13-.09-.11h0a23.88,23.88,0,0,0-2.55,1l-2.45,1.08L14.37,13.9l-1.22.55c-.36.16-.72.31-1.06.5a1.45,1.45,0,0,0-.66.68,1.31,1.31,0,0,0,.08,1,3.84,3.84,0,0,0,.63.9c.22.26.45.51.69.76a6.39,6.39,0,0,0,3.27,1.92,3.18,3.18,0,0,0,1,0" style="fill: none;stroke: #373e5a;stroke-linecap: round;stroke-linejoin: round"/>
          <path d="M71,46.33a.9.9,0,0,0-.88.36c-1.13,1.54-3.45,4.35-5.92,5.09a.91.91,0,0,0-.66,1,10.54,10.54,0,0,1-.27,5.44,1.27,1.27,0,0,1-.51.59,1.31,1.31,0,0,0-.6,1.4l.36,1.68a.93.93,0,0,0,.17.37l3.93,5.16a2.92,2.92,0,0,1,.57,2.19l-.23,1.53a0,0,0,0,0,0,0,3.09,3.09,0,0,1,1,2.55A2.68,2.68,0,0,1,67.39,75a0,0,0,0,0,0,0,1.41,1.41,0,0,1,.3,1.17,1.19,1.19,0,0,1-.34.47,0,0,0,0,0,0,0c.33.11,2.06.8.55,2.42l-.18.16a0,0,0,0,0,0,0c0,.06,0,.33-.3.77l-.17.23a0,0,0,0,0,0,0,2.16,2.16,0,0,1,.28,2,1.62,1.62,0,0,1-1.39,1,0,0,0,0,0,0,0c0,.08.07.27-.06.36a0,0,0,0,0,0,0c.1.16.65,1.23-1.2,2.67-.08,0-4.39,2.33-7.29-.8h0A2.66,2.66,0,0,1,58.67,82a0,0,0,0,0,0,0,1.9,1.9,0,0,1,.21-.91h0A2,2,0,0,1,60,79.17a0,0,0,0,0,0,0c0-.08-.08-.36.3-.68a0,0,0,0,0,0,0,1.49,1.49,0,0,1,.91-1.64,0,0,0,0,0,0,0,1.43,1.43,0,0,1,.28-1,0,0,0,0,0,0,0c-.12-.06-.56-.39.18-1.76a0,0,0,0,0,0,0,2,2,0,0,1-.3-1.68c.3-.86-1.2-4.86-1.55-4.93" style="fill: none;stroke: #373e5a;stroke-linecap: round;stroke-linejoin: round"/>
          <path d="M67.66,21.75S68,20.86,70,20.29a0,0,0,0,0,0-.05,6.06,6.06,0,0,0-2.38.21,0,0,0,0,1,0,0A16.06,16.06,0,0,1,73.71,18a0,0,0,0,0,0-.05l-2.34-.47a0,0,0,0,1,0,0A16.11,16.11,0,0,1,80.19,17a0,0,0,0,0,0,0,13,13,0,0,0-1.66-1.28,0,0,0,0,1,0,0A21.54,21.54,0,0,1,87.82,20a0,0,0,0,0,0,0c0-.18-.21-.79-1.4-1.77a0,0,0,0,1,0,0,5.84,5.84,0,0,1,3.94,3.67h0s.32.36,1,0c0,0,1.4-.67,1.67-1.54a0,0,0,0,1,0,0,1.16,1.16,0,0,1,0,.63,0,0,0,0,0,0,0,6.47,6.47,0,0,0,1.25-2.37,0,0,0,0,1,0,0,1.56,1.56,0,0,1,.23,1.12c0,.19.72-.16.74-.18a5.22,5.22,0,0,0,.78-.79c.42-.5.74-1.52,1.43-1.66h.09c.39.19.45.86.39,1.52s-.26,1.3.16,1.75l.73.78c.61.65,2.27,0,3-.1l.2-.06a13.47,13.47,0,0,0,1.64-.89.25.25,0,0,1,.16-.05c.08,0,.13.1.15.18a3.17,3.17,0,0,1,.1,1.75l-.88,2.68a4,4,0,0,0-.35,2.17c.21,1.16.58,2.29.82,3.44.29,1.37.52,2.74.68,4.13.25,2.57.55,5.15,1,7.7.13.84.37,1.68.55,2.5.1.47.3.91.4,1.38a8.16,8.16,0,0,1,0,1.37c0,.5.14,1,.16,1.48a1.28,1.28,0,0,1-1.58,1.31,8.63,8.63,0,0,1-1.78-.65.79.79,0,0,0-.34-.09c-.8,0-4.09-.21-5.38-2-1.45-2-3.07-4.85-7-4.24a.91.91,0,0,0-.4.17,5.77,5.77,0,0,1-4,1h-.14a7,7,0,0,0-3.53,1.58v.12a3,3,0,0,1-2.47,1.71,2.12,2.12,0,0,1-2.42-1.17,0,0,0,0,0,0,0c-.1.21-.48,1-.94,1,0,0-.36.13-.73-.34" style="fill: none;stroke: #373e5a;stroke-linecap: round;stroke-linejoin: round"/>
          <g>
            <path d="M53.79,89.39c-.19.1-.36.22-.54.34l-.79.5A7.88,7.88,0,0,0,51,91.38,3.52,3.52,0,0,0,50.17,93a3.41,3.41,0,0,0-.09.95,1.2,1.2,0,0,0,.34.87c.08.07.26.07.29-.07a4.35,4.35,0,0,1,.53-1.51A3.45,3.45,0,0,1,52.45,92a9.31,9.31,0,0,0,1.41-.94A2,2,0,0,0,54.52,90" style="fill: #373e5a"/>
            <path d="M53.23,91.56c0,.13,0,.27.06.4s0,.44.05.66a6.46,6.46,0,0,1-.07,1.25.16.16,0,0,0,.27.16,3.33,3.33,0,0,0,1.06-1.86,3.56,3.56,0,0,0,0-1.09,3.89,3.89,0,0,1,0-.52,2,2,0,0,1,.06-.37" style="fill: #373e5a"/>
          </g>
        </g>
      </g>
    </g>
  </g>
</svg>
