<svg id="web_security" data-name="web security" xmlns="http://www.w3.org/2000/svg" viewBox="0 0 429.98 275.91"><defs><style>.stroke{fill:none;stroke:#373e5a;stroke-linecap:round;stroke-linejoin:round;stroke-width:1.5px;vector-effect:non-scaling-stroke}</style></defs><path id="lip" class="stroke" d="M220 165.5l-6.87-2.36h-14.92v-1.13l15.2.03 6.65 2.3 10.05-2.33h10.79v1.13h-10.72L220 165.5z"/><path id="dark_shadows" data-name="dark shadows" d="M303 103.79c-11.54-6.56-30.2-7.8-43.43-10.32-18.16-3.47-34.2-6.17-52.44-4.27C190 91 175.65 94.71 159 99.64c-14.59 4.33-36.72 5.62-41.51 23.65-3.92 14.74 14.83 29 23.36 39 10.94 12.84 17.54 20.42 32 28.33l49.62 27.06c17.19-11.56 30.55-22.9 45.41-37.37 11.19-10.9 25-20.69 34.17-33.16 10.49-14.07 20.42-32.29.95-43.36zm-39.12 56.9l-25.17 29.74-13.3 4.57h-10.12l-11.8-4.49L175.44 161l-7.13-25 7.69-11h25l20.64-16 17.2 13.14 22.81 1.92 8.45 10.21zm-57.1-16.25l8.31 5h10l9.23-5.62-4.18 10.11-5.33 3H216l-6.1-4.63zm3.15 24.69h21.11l-3.75 4.22h-7.74l-6.33 2.34zM223.72 136l-3.23 8.43-5.2-9 5.2-22.31zm118.59 95.93l43-52.26 14 4.56 8.63 3.54 8.55 5.49h-18.18zM35.17 209.08l11.3 14.54 28.62 18.67 5 18.66-19.87-18.66-32.42-18.67 3.34-5.94zM1.24 262.19l19.91-1.82L44.78 275l-4.61.77-16.17-6.3-22.64-6.26z" fill="#373e5a"/><path id="light_shadows" data-name="light shadows" d="M219.22 165.89l-.25 3.25h-8.37l-12.85-5.46h14.92zm-96.55-7.59a232.1 232.1 0 0 1-23.87 6l-1.33.28c-2.89.59-4.8 1-7 2.72a9.93 9.93 0 0 0-1.89 2.5c-.85 1.38-1.74 2.82-3 3.43a3.61 3.61 0 0 1-2.68 0 4.07 4.07 0 0 0-1.54-.23 24.58 24.58 0 0 1-2.89.17c-1.36 0-1.57 0-4.39 1.78-1.71 1.07-3.4 2.24-5.07 3.42l15 2.54 1 .64 1.13 1 .25-5L124 159.28l-1-1.19a.73.73 0 0 1-.33.22zM172 136l14.61 26 2.81 13.7-11.64-15zm91.86 24.68l-15.45 15 9.59-19.81 7.86-19.87zm-93-126.34l-16.31 52.83-9.55.34zm100 1.09l24.16 32v11.8zM336.5 169.6l1.8 2.13a6.78 6.78 0 0 1-1.8-2.13zm-4.82-4.26l1.51.35.53.62a13.72 13.72 0 0 0-2.05-.96zm-27.9 99.72h-47l58.22-48.9 13.61-43.95-19.15-10.62a57.23 57.23 0 0 0 5.79 1.88 61.42 61.42 0 0 0 6.26 1.15c4.11.62 8.77 1.32 11.58 3a8 8 0 0 1 2 2.44c.83 1.3 1.68 2.64 2.95 3.15a3.51 3.51 0 0 0 3.49-.09 10.33 10.33 0 0 1 2.24-.82c4.35-1.05 7.95-.58 12.5 0l2 .26a108.41 108.41 0 0 1 14 2.57zM315.6 162c-1.57-.42-3-.88-4.48-1.4l11.62 2.67-1-.16a60.72 60.72 0 0 1-6.14-1.11z" fill="#edf0f3"/><path id="outline" class="stroke" d="M110.3 130.88a38.36 38.36 0 0 1 5.63-18.88l30.9-50.3c10.05-16.37 16.82-33.29 33.3-43.24 8.12-4.86 19.68-15.36 28.95-17.26 7.7-1.57 27.78 1.22 35 4.14 14.35 5.79 28.9 27 39.39 39.35 9.5 11.16 20.29 22 28.83 33.87 5.5 7.67 6.14 13.89 8.07 23.62 2 10.34 3.22 21.11.19 31.56-2.84 9.8-11.71 17.5-18.34 25.55a339.22 339.22 0 0 1-48 47c-7.29 5.92-16 11.73-24.73 15.34-9.2 3.81-4.69 4-14.67-.71-20.65-9.7-49-17.31-65.27-33.27-10.06-9.84-23.6-23.45-30.74-35.61-3.25-5.7-8.73-14.43-8.51-21.16zm12.14 26.72a232.93 232.93 0 0 1-23.8 6c-3.67.79-5.95 1-8.65 3.13-1.75 1.36-2.81 4.91-4.79 5.85-1.27.6-2.49-.48-4-.32-4.5.51-3.32-.63-7.59 2.05-4.72 3-9.17 6.48-13.72 9.69-5.92 4.18-10.91 9-16.22 13.92-7 6.55-8.4 10-12.16 18.92-2.53 6-6.37 10.69-10.23 16-5.78 7.95-12.46 15.72-17.55 24.12-3.51 5.8-2.76 11.22-3 18.22m427.36 0c2.44-2.31.14-19.64.14-23 0-13.39.94-27.16 0-40.52-.49-7-6.08-14.55-11.74-18.86-7.94-6.05-20.72-9.41-29.93-13.37a94.74 94.74 0 0 0-28.29-7.54c-5.59-.7-9.64-1.49-14.75-.26-3.09.75-2.91 1.9-5.28.94-2-.79-3-4.4-4.82-5.53-4.49-2.75-13-2.93-18-4.28a71 71 0 0 1-12-4.52"/></svg>