<svg xmlns="http://www.w3.org/2000/svg" width="159" height="32.54" viewBox="0 0 159 32.54">
  <title>icon-sm-logo</title>
  <g id="Layer_2" data-name="Layer 2">
    <g id="_1200" data-name="1200">
      <g id="Table">
        <g id="Repair_Recovery" data-name="Repair &amp; Recovery">
          <g id="Logo_Mark" data-name="Logo Mark">
            <path d="M22.66,10.49h0Z" style="fill: #6EC0FF"/>
            <path d="M22.22,10.48h0Z" style="fill: #6EC0FF"/>
            <path d="M22.87,10.47l-.12,0Z" style="fill: #6EC0FF"/>
            <path d="M22.45,10.5h0Z" style="fill: #6EC0FF"/>
            <path d="M22,10.43l-.07,0Z" style="fill: #6EC0FF"/>
            <path d="M24.16,9.73l-.1.11Z" style="fill: #6EC0FF"/>
            <path d="M23.45,10.28l-.08,0Z" style="fill: #6EC0FF"/>
            <path d="M23.82,10.06l-.08.06Z" style="fill: #6EC0FF"/>
            <path d="M24,9.91l-.09.08Z" style="fill: #6EC0FF"/>
            <path d="M23.06,10.42l-.11,0Z" style="fill: #6EC0FF"/>
            <path d="M23.26,10.36l-.09,0Z" style="fill: #6EC0FF"/>
            <path d="M23.63,10.18l-.07,0Z" style="fill: #6EC0FF"/>
            <path d="M43,13.07A11.57,11.57,0,0,0,35.66.75,12,12,0,0,0,21.71,5.12,14.53,14.53,0,0,1,23.89,6.6a2.2,2.2,0,0,1,.65,2.5h0a7.57,7.57,0,0,1,9.53-4.23A7.17,7.17,0,0,1,38.23,14a2.2,2.2,0,0,0,2,3.06A5.53,5.53,0,0,1,41.48,28l-4.23-7.65a2.2,2.2,0,0,0-3.8-.08L30,26l-2.73-5a2.2,2.2,0,1,0-3.85,2.12L28,31.4a2.2,2.2,0,0,0,1.88,1.14h0a2.2,2.2,0,0,0,1.88-1.06l3.46-5.69,3.1,5.61a2.2,2.2,0,0,0,1.92,1.13A9.92,9.92,0,0,0,43,13.07Z" style="fill: #6EC0FF"/>
            <path d="M24.4,9.4l-.06.1Z" style="fill: #6EC0FF"/>
            <path d="M21.39,10.19l-.09-.05Z" style="fill: #6EC0FF"/>
            <path d="M21.23,10.09,21.12,10Z" style="fill: #6EC0FF"/>
            <path d="M24.3,9.56l-.09.12Z" style="fill: #6EC0FF"/>
            <path d="M21.71,10.35h0l0,0Z" style="fill: #6EC0FF"/>
            <path d="M21.55,10.28l-.05,0Z" style="fill: #6EC0FF"/>
            <path d="M24.49,9.23l0,.07Z" style="fill: #6EC0FF"/>
            <path d="M24.55,9.1l-.06.14Z" style="fill: #6EC0FF"/>
            <path d="M23.74,10.11l-.1.07Z" style="fill: #6EC0FF"/>
            <path d="M24.45,9.3l-.06.1Z" style="fill: #6EC0FF"/>
            <path d="M23.91,10l-.09.07Z" style="fill: #6EC0FF"/>
            <path d="M24.34,9.5l0,.06Z" style="fill: #6EC0FF"/>
            <path d="M24.06,9.85,24,9.91Z" style="fill: #6EC0FF"/>
            <path d="M24.2,9.69h0l0,.05Z" style="fill: #6EC0FF"/>
            <path d="M22.53,10.5h0Z" style="fill: #6EC0FF"/>
            <path d="M22.12,10.46l-.13,0Z" style="fill: #6EC0FF"/>
            <path d="M21.5,10.26l-.11-.06Z" style="fill: #6EC0FF"/>
            <path d="M21.91,10.42l-.16-.05Z" style="fill: #6EC0FF"/>
            <path d="M21.7,10.35l-.15-.07Z" style="fill: #6EC0FF"/>
            <path d="M20.45,7.51a11.29,11.29,0,0,1,1.26-2.39,14.62,14.62,0,1,0-7.09,27.41h7.61a2.2,2.2,0,0,0,0-4.4H14.62A10.23,10.23,0,1,1,21.11,10h0A2.2,2.2,0,0,1,20.45,7.51Z" style="fill: #6EC0FF"/>
            <path d="M21.3,10.14l-.07,0Z" style="fill: #6EC0FF"/>
            <path d="M22.74,10.48h0Z" style="fill: #6EC0FF"/>
            <path d="M23.16,10.39l-.1,0Z" style="fill: #6EC0FF"/>
            <path d="M23.37,10.32l-.11,0Z" style="fill: #6EC0FF"/>
            <path d="M22.32,10.49h0Z" style="fill: #6EC0FF"/>
            <path d="M23,10.45l-.09,0Z" style="fill: #6EC0FF"/>
            <path d="M23.56,10.22l-.11.06Z" style="fill: #6EC0FF"/>
            <path d="M23.89,6.6a14.53,14.53,0,0,0-2.18-1.48,11.29,11.29,0,0,0-1.26,2.39A2.2,2.2,0,0,0,21.12,10l.11.09.07,0,.09.05.11.06.05,0,.15.07,0,0,.16.05.07,0,.13,0h.63l.12,0,.09,0,.11,0,.1,0,.09,0,.11,0,.08,0,.11-.06.07,0,.1-.07.08-.06.09-.07L24,9.91l.06-.06.1-.11,0-.05.09-.12,0-.06.06-.1.06-.1,0-.07.06-.14A2.2,2.2,0,0,0,23.89,6.6Z" style="fill: #6EC0FF"/>
            <path d="M23.89,6.6a14.53,14.53,0,0,0-2.18-1.48,11.29,11.29,0,0,0-1.26,2.39A2.2,2.2,0,0,0,21.12,10l.11.09.07,0,.09.05.11.06.05,0,.15.07,0,0,.16.05.07,0,.13,0h.63l.12,0,.09,0,.11,0,.1,0,.09,0,.11,0,.08,0,.11-.06.07,0,.1-.07.08-.06.09-.07L24,9.91l.06-.06.1-.11,0-.05.09-.12,0-.06.06-.1.06-.1,0-.07.06-.14A2.2,2.2,0,0,0,23.89,6.6Z" style="fill: #6EC0FF"/>
          </g>
          <g id="cwatch">
            <path d="M71,26.25l2.69.35A7,7,0,0,1,71.42,31,6.58,6.58,0,0,1,67,32.54a6.94,6.94,0,0,1-5.33-2.17,8.79,8.79,0,0,1-2-6.21,11.26,11.26,0,0,1,.87-4.58,6.05,6.05,0,0,1,2.64-2.94,7.84,7.84,0,0,1,3.86-1A6.71,6.71,0,0,1,71.27,17a6.11,6.11,0,0,1,2.15,3.78l-2.66.41a4.42,4.42,0,0,0-1.35-2.45,3.49,3.49,0,0,0-2.34-.82,4.25,4.25,0,0,0-3.36,1.48,7,7,0,0,0-1.29,4.69q0,3.26,1.25,4.73a4.06,4.06,0,0,0,3.26,1.48,3.84,3.84,0,0,0,2.69-1A4.91,4.91,0,0,0,71,26.25Z" style="fill: #373e5a"/>
            <path d="M80.26,32.17,74.35,9.87h3l3.39,14.62q.55,2.3.94,4.56.85-3.58,1-4.12L87,9.87h3.56l3.19,11.29a59.76,59.76,0,0,1,1.73,7.9q.43-2.12,1.11-4.85l3.5-14.33h3l-6.12,22.3H94.06l-4.7-17q-.59-2.13-.7-2.62-.35,1.54-.65,2.62l-4.73,17Z" style="fill: #373e5a"/>
            <path d="M114.82,30.18A10.2,10.2,0,0,1,111.89,32a8.46,8.46,0,0,1-3,.53,5.88,5.88,0,0,1-4.09-1.3,4.3,4.3,0,0,1-1.43-3.33,4.5,4.5,0,0,1,2-3.74,6.67,6.67,0,0,1,2-.9,19.7,19.7,0,0,1,2.43-.41,25,25,0,0,0,4.88-.94q0-.56,0-.71a3,3,0,0,0-.78-2.36,4.59,4.59,0,0,0-3.12-.93,4.84,4.84,0,0,0-2.85.68,4.14,4.14,0,0,0-1.36,2.4l-2.68-.37a6.64,6.64,0,0,1,1.2-2.78,5.28,5.28,0,0,1,2.42-1.63,10.8,10.8,0,0,1,3.67-.57,9.71,9.71,0,0,1,3.36.49,4.45,4.45,0,0,1,1.9,1.23,4.31,4.31,0,0,1,.85,1.86,15.4,15.4,0,0,1,.14,2.53V25.4a38.7,38.7,0,0,0,.18,4.83,6.09,6.09,0,0,0,.69,1.94h-2.86A5.81,5.81,0,0,1,114.82,30.18Zm-.23-6.12a20.11,20.11,0,0,1-4.47,1,10.37,10.37,0,0,0-2.39.55,2.38,2.38,0,0,0-1.08.89,2.42,2.42,0,0,0,.45,3.13,3.57,3.57,0,0,0,2.43.73,5.65,5.65,0,0,0,2.81-.69,4.27,4.27,0,0,0,1.81-1.89,6.61,6.61,0,0,0,.44-2.74Z" style="fill: #373e5a"/>
            <path d="M127.58,29.72l.4,2.42a10.13,10.13,0,0,1-2.07.24,4.69,4.69,0,0,1-2.31-.47,2.64,2.64,0,0,1-1.16-1.24,9.79,9.79,0,0,1-.33-3.23v-9.3h-2V16h2V12l2.72-1.64V16h2.75v2.13h-2.75v9.45A4.76,4.76,0,0,0,125,29.1a1.14,1.14,0,0,0,.47.53,1.82,1.82,0,0,0,.94.2A9,9,0,0,0,127.58,29.72Z" style="fill: #373e5a"/>
            <path d="M140.8,26.25l2.69.35A7,7,0,0,1,141.24,31a6.58,6.58,0,0,1-4.46,1.57,6.94,6.94,0,0,1-5.33-2.17,8.79,8.79,0,0,1-2-6.21,11.26,11.26,0,0,1,.87-4.58,6.05,6.05,0,0,1,2.64-2.94,7.84,7.84,0,0,1,3.86-1A6.71,6.71,0,0,1,141.09,17a6.11,6.11,0,0,1,2.15,3.78l-2.66.41a4.42,4.42,0,0,0-1.35-2.45,3.49,3.49,0,0,0-2.34-.82,4.25,4.25,0,0,0-3.36,1.48,7,7,0,0,0-1.29,4.69q0,3.26,1.25,4.73a4.06,4.06,0,0,0,3.26,1.48,3.84,3.84,0,0,0,2.69-1A4.91,4.91,0,0,0,140.8,26.25Z" style="fill: #373e5a"/>
            <path d="M145.84,32.17V9.87h2.74v8a6.12,6.12,0,0,1,4.84-2.22,6.52,6.52,0,0,1,3.12.71,4.16,4.16,0,0,1,1.89,2,9,9,0,0,1,.57,3.62V32.17h-2.74V21.93a4.23,4.23,0,0,0-.89-3,3.31,3.31,0,0,0-2.52-.94,4.44,4.44,0,0,0-2.29.63A3.57,3.57,0,0,0,149,20.35a7.87,7.87,0,0,0-.46,3v8.84Z" style="fill: #373e5a"/>
          </g>
        </g>
      </g>
    </g>
  </g>
</svg>
