<svg id="icon-pricetag-small" xmlns="http://www.w3.org/2000/svg" viewBox="0 0 50 50"><path d="M47.55,21.44a22.4,22.4,0,0,0-3.83-5.23L45,9.31a1.92,1.92,0,0,0-.32-1.45,1.89,1.89,0,0,0-1.25-.8l-5.4-1a2,2,0,0,0-1.32-.41l-.7.05L29.88,4.64a2.91,2.91,0,0,0-.32,0,1.81,1.81,0,0,0-1.19.45L26.31,6.4,23,6.63a2,2,0,0,0-.32.06,1.78,1.78,0,0,0-1,.72L16.8,12.58,3.23,21.39a3.83,3.83,0,0,0-1.1,5.3l.66,1L1.23,29.38a3.84,3.84,0,0,0,.22,5.41L13.63,46a3.83,3.83,0,0,0,5.4-.22L32.51,31.16l5.61-3.68c2.52,4.14,6.06,6.94,8.55,6.94a2.63,2.63,0,0,0,1.26-.29c1.27-.67,2-2.43,1.89-4.84A18.33,18.33,0,0,0,47.55,21.44ZM16,40.8A2.83,2.83,0,0,1,12,40L3,26.14a2.83,2.83,0,0,1,.81-3.92L29,5.84a.9.9,0,0,1,.57-.23h.14L43.2,8a.9.9,0,0,1,.61.39,1,1,0,0,1,.16.71l-1.12,6.25q-.35-.3-.69-.57a8.87,8.87,0,0,0-3-1.61,1.79,1.79,0,0,0,0-.23,2.38,2.38,0,0,0-.15-.81,2.41,2.41,0,1,0-2.26,3.22,2.36,2.36,0,0,0,1.45-.5,2.41,2.41,0,0,0,.63-.72l.33.1a8.43,8.43,0,0,1,2.34,1.34c.37.29.73.61,1.09.95l-1.08,6v.06a2.85,2.85,0,0,1-1.26,2.21ZM38.12,13.06a2.4,2.4,0,0,0-1.21.26,5.14,5.14,0,0,0-1,.78,1.41,1.41,0,0,1,.85-2.53,1.4,1.4,0,0,1,1.27.81,1.33,1.33,0,0,1,.14.6s0,0,0,.08Zm-.5,1.06a1.42,1.42,0,0,1-.41.2.69.69,0,0,1,.17-.11A1,1,0,0,1,37.62,14.12ZM22.41,8a.85.85,0,0,1,.49-.35l.14,0,1.54-.1-4.31,2.8C22.37,8.07,22.39,8,22.41,8ZM18.3,45.1a2.83,2.83,0,0,1-4,.17L2.13,34.05a2.83,2.83,0,0,1-.17-4l1.39-1.51,7.85,12a3.84,3.84,0,0,0,5.3,1.11L29.08,33.4ZM47.46,33.25c-1.71.91-5.64-1.6-8.51-6.32l1.9-1.24a3.77,3.77,0,0,0,1.7-3l1-5.31a21.71,21.71,0,0,1,3.16,4.48,17.4,17.4,0,0,1,2.16,7.41C48.87,31.3,48.37,32.77,47.46,33.25ZM26.93,20.94a5.11,5.11,0,0,0-2.49-.05,15.06,15.06,0,0,0-2.3.74L20.69,19.5a3.56,3.56,0,0,1,1.25-.27,4.33,4.33,0,0,1,1.87.44.48.48,0,0,0,.45,0,.47.47,0,0,0,.25-.37l.36-2.88a.51.51,0,0,0-.35-.55,8.3,8.3,0,0,0-3.08-.33,7.63,7.63,0,0,0-2.83.93l-.89-1.31A.51.51,0,0,0,17,15l-1.81,1.24a.49.49,0,0,0-.21.32.52.52,0,0,0,.07.38l.9,1.31a6.83,6.83,0,0,0-2.18,3.37,4.41,4.41,0,0,0,.65,3.71A3.79,3.79,0,0,0,16.62,27a5,5,0,0,0,2.47,0,16.8,16.8,0,0,0,2.32-.79l1.38,2a5.44,5.44,0,0,1-1.65.36,3.45,3.45,0,0,1-1.89-.43.51.51,0,0,0-.74.39l-.33,2.94a.51.51,0,0,0,.33.52,6.84,6.84,0,0,0,3.26.35,8.93,8.93,0,0,0,3.1-1.08l.89,1.3a.49.49,0,0,0,.41.22.52.52,0,0,0,.29-.09l1.81-1.23a.52.52,0,0,0,.21-.33.45.45,0,0,0-.08-.37l-.89-1.31a7.18,7.18,0,0,0,2.16-3.17,4.06,4.06,0,0,0-.54-3.67A4,4,0,0,0,26.93,20.94ZM28.72,26a6.42,6.42,0,0,1-2.2,3,.5.5,0,0,0-.09.67L27.3,31l-1,.68-.87-1.28a.51.51,0,0,0-.42-.21.47.47,0,0,0-.25.07,8.41,8.41,0,0,1-3.13,1.18,6.18,6.18,0,0,1-2.42-.18l.21-1.85a4.67,4.67,0,0,0,1.76.25,6.47,6.47,0,0,0,2.57-.7.5.5,0,0,0,.19-.73L22,25.33a.5.5,0,0,0-.61-.17,18.76,18.76,0,0,1-2.55.89,4,4,0,0,1-2,0,2.84,2.84,0,0,1-1.61-1.26,3.44,3.44,0,0,1-.5-2.91A6.07,6.07,0,0,1,17,18.73a.48.48,0,0,0,.09-.66l-.87-1.28,1-.67L18,17.39a.5.5,0,0,0,.67.15,7.12,7.12,0,0,1,2.82-1,7,7,0,0,1,2.3.19l-.23,1.82a5.27,5.27,0,0,0-1.69-.29,4.84,4.84,0,0,0-2.2.63.57.57,0,0,0-.25.32.51.51,0,0,0,.08.4l2,2.94a.5.5,0,0,0,.61.18,16.75,16.75,0,0,1,2.51-.84,4.1,4.1,0,0,1,2,.05,3,3,0,0,1,1.64,1.3A3.09,3.09,0,0,1,28.72,26ZM18.59,20.31a.54.54,0,0,0-.37-.21.47.47,0,0,0-.39.13,2.94,2.94,0,0,0-.9,1.43,1.82,1.82,0,0,0,.28,1.51,1.57,1.57,0,0,0,1.28.71h.08a4.62,4.62,0,0,0,1.48-.3.51.51,0,0,0,.25-.76Zm-.07,2.57a.55.55,0,0,1-.48-.27.82.82,0,0,1-.14-.72,1.68,1.68,0,0,1,.22-.48l1,1.41A3.06,3.06,0,0,1,18.52,22.88ZM25.07,24a4.08,4.08,0,0,0-1.55.29.48.48,0,0,0-.31.31.49.49,0,0,0,.06.44l1.65,2.42a.47.47,0,0,0,.36.21h0a.48.48,0,0,0,.34-.14c1.31-1.2,1.08-2.19.66-2.8A1.58,1.58,0,0,0,25.07,24ZM25,25a.63.63,0,0,1,.49.3h0c.1.16.33.48-.12,1.08l-.9-1.33A2.05,2.05,0,0,1,25,25Z"/></svg>