<svg width="50" height="50" viewBox="0 0 50 50"><path id="icon-chart" class="medium-blue" d="M7.5,14h-1a.5.5,0,0,1,0-1h1a.5.5,0,0,1,0,1Zm5.5-.5a.5.5,0,0,0-.5-.5h-1a.5.5,0,0,0,0,1h1A.5.5,0,0,0,13,13.5Zm5,0a.5.5,0,0,0-.5-.5h-1a.5.5,0,0,0,0,1h1A.5.5,0,0,0,18,13.5Zm26,10v-3a.5.5,0,0,0-.5-.5H6.5a.5.5,0,0,0-.5.5v3a.5.5,0,0,0,.5.5h37A.5.5,0,0,0,44,23.5ZM7,21H43v2H7ZM3,43.23a.81.81,0,0,1,0-.1V9.87A.87.87,0,0,1,3.87,9H46.13a.87.87,0,0,1,.87.87V24.14a1.5,1.5,0,0,0-.49-.09H46V18H4V42.43ZM4,17H46V10H4ZM46.45,34a1.51,1.51,0,0,1-.45-.08V43H20.17l-.27.2a1.5,1.5,0,0,1-1.86,0L17.86,43H8L6.81,44H46.13a.87.87,0,0,0,.87-.87V33.89A1.48,1.48,0,0,1,46.45,34Zm.4-8.8A.5.5,0,0,0,46.5,25l-7,0a.52.52,0,0,0-.5.5.5.5,0,0,0,.5.5l5.72,0-10.7,9.77-3.16-3.16a.5.5,0,0,0-.65,0L19,41.36l-5.7-4.75a.5.5,0,0,0-.64,0l-11,9a.5.5,0,1,0,.63.77L13,37.65l5.68,4.74a.5.5,0,0,0,.62,0L31,33.66l3.19,3.19a.5.5,0,0,0,.69,0L46,26.68l0,5.81a.5.5,0,0,0,.5.5h0a.5.5,0,0,0,.5-.5l0-7A.5.5,0,0,0,46.86,25.2Z"/>
</svg>