<svg xmlns="http://www.w3.org/2000/svg" xmlns:xlink="http://www.w3.org/1999/xlink" width="83.21" height="95.91" viewBox="0 0 83.21 95.91">
  <defs>
    <linearGradient id="Green_Gradient" data-name="Green Gradient" x1="0.85" y1="43.33" x2="34.08" y2="43.33" gradientUnits="userSpaceOnUse">
      <stop offset="0" stop-color="#1fc469"/>
      <stop offset="0.1" stop-color="#1fc469"/>
      <stop offset="0.9" stop-color="#23e390"/>
      <stop offset="1" stop-color="#23e390"/>
    </linearGradient>
    <linearGradient id="Green_Gradient-2" x1="27.63" y1="55.96" x2="82.61" y2="55.96" xlink:href="#Green_Gradient"/>
  </defs>
  <title>icon-green-fire-wall</title>
  <g id="Layer_2" data-name="Layer 2">
    <g id="Home_-_1200" data-name="Home - 1200">
      <g id="How">
        <g id="Icon_Medium" data-name="Icon Medium">
          <path id="fire_-_Fill" data-name="fire - Fill" d="M52.32,49.35l.07.3-.36.2a.68.68,0,0,0-.22.22l-.09-.39ZM47.71,52l.11.28.69-.39-.12-.28ZM26.84,48.13a.32.32,0,0,0-.17-.34.33.33,0,0,0-.38.05c-.15.14-3.26,3.22-1.48,9a17.85,17.85,0,0,1-2.93-12.65.32.32,0,0,0-.17-.32.33.33,0,0,0-.37,0c-.12.11-12,10.88-6.66,26.87a24.06,24.06,0,0,0,9.42,12.26l.08,0a4.63,4.63,0,0,0,1.32.19,3.14,3.14,0,0,0,1.78-.5c.07,0,.48-.29,1.06-.73v-.8a15.21,15.21,0,0,1-1.41,1h0a3.24,3.24,0,0,1-2.5.24,23.39,23.39,0,0,1-9.12-11.89c-4.46-13.43,3.47-23.09,5.84-25.58-.72,8.85,4.39,13.71,4.44,13.76a.33.33,0,0,0,.41,0,.32.32,0,0,0,.11-.39c-2.16-4.83-.87-8,0-9.34a6.92,6.92,0,0,0,2.23,4.83V53A5.88,5.88,0,0,1,26.84,48.13ZM52.67,61.07c0,.12,0,.24,0,.36l.69-.39c0-.12,0-.24,0-.36ZM47,76.35l.13-.21-2,1.12-.52.64,3.44-2,.37-.56-1.28.73ZM30.25,57.59l.14.42.89.51-.17-.44Zm4.23,15.15V72c0,.13,0,.25-.07.38A.81.81,0,0,1,34.48,72.73Zm0-.95.68-.39c0-.12,0-.24,0-.36l-.66.38C34.57,71.53,34.55,71.66,34.53,71.79Zm4.14-61c-2.83,2.93-10,11.23-7.08,17.68a46.73,46.73,0,0,0,4.26,5.13c1.4,1.47,2.68,2.92,3.88,4.36l-.63.36q-1.6-1.88-3.44-3.79c-6.81-7.1-9.91-14-9.22-20.42A16.72,16.72,0,0,1,28.74,7.3a23.82,23.82,0,0,0-6.16,13.06c-.63,6.12,1.68,12.28,6.88,18.32q1.36,1.58,2.58,3.09l-.57.33q-1.18-1.47-2.5-3c-5.32-6.18-7.68-12.51-7-18.81,1-9.8,9.13-16.15,9.21-16.21h0a17.24,17.24,0,0,1,2.62-2.38s.32-.29.74-.62l-.07,0C34.18,1.15,7.6,8.16,9.92,35.41c0,0,0,0,0,0s.05.26.11.65h0l0,.23v.06l0,.23v.09l0,.25v.12l0,.26v.15l0,.26V38l0,.27v.21c0,.09,0,.19,0,.28V39c0,.1,0,.2,0,.31s0,.16,0,.24,0,.21,0,.32,0,.17,0,.26,0,.22,0,.33,0,.18,0,.28,0,.23,0,.34,0,.19,0,.29,0,.23,0,.35,0,.21,0,.31,0,.25,0,.37,0,.21,0,.31,0,.26,0,.38,0,.22,0,.33,0,.26,0,.39,0,.22,0,.34,0,.27,0,.41l0,.34c0,.14,0,.28-.06.42l-.05.35-.07.43-.06.35-.09.46-.07.34-.1.47L9.46,48l-.12.48-.09.34-.14.48-.1.35-.15.49-.11.35L8.57,51l-.11.31-.22.58-.1.27-.26.62-.1.23q-.19.43-.39.86l-.33.63a22,22,0,0,0-2,9.11q0,.57,0,1.13c0,.13,0,.25,0,.38s0,.49.06.73,0,.29.05.44.05.44.08.66.05.31.08.46.07.41.11.62.07.31.11.47.09.4.14.59.09.32.13.47.11.38.16.57l.15.47c.06.19.12.37.19.55l.18.46.21.54.2.45.24.52.22.44.26.51.24.43.29.49.26.42.31.48.28.41.33.46.3.39.35.45.31.38.37.43.33.36.39.41.35.35.42.39.36.33.44.38.37.31.46.36.39.29.48.34.4.27.5.32.4.25.52.3.41.23.55.28.41.2.59.26.4.17.65.25.36.14.82.28L21,85l1.05.3.27.06.8.18.39.07.7.12.45.06.66.08.48,0,.63,0,.86,0,.12,0h1v.69l-.67,0c-.43,0-.87,0-1.3,0h-.09l-.55,0c-.56,0-12.72.64-20.63-8.94C.64,72.39-3.19,63.22,4,49.42c.06-.09,3.87-5.63,2-18a.32.32,0,0,1,.13-.31.33.33,0,0,1,.34,0,8.28,8.28,0,0,1,2.62,2.22C8.33,7.3,34,.53,34.29.46L36.07,0a.33.33,0,0,1,.38.19.32.32,0,0,1-.14.4,15.69,15.69,0,0,0-2.13,1.59c-.1.07-6.28,4.35-7.09,12-.43,4,.69,8.25,3.32,12.59-.54-3.14.59-6.9,3.36-11a40.8,40.8,0,0,1,5.56-6.54.33.33,0,0,1,.42,0,.32.32,0,0,1,.08.41c0,.07-4.17,7.46,4.7,21.82.59,1,1.13,1.89,1.66,2.82l-.56.32c-.52-.92-1.06-1.85-1.65-2.8C37.08,20.61,37.82,13.64,38.67,10.77ZM9.29,35.61h0v0h0v0l0-.24h0a.25.25,0,0,1,0,0C9.08,33.74,7.62,32.58,6.8,32,8.44,44.18,4.73,49.53,4.57,49.75c-7,13.45-3.31,22.37,1,27.49a24.5,24.5,0,0,0,15.16,8.37l0,0-.93-.31-.35-.13-.63-.25-.38-.16-.6-.27-.36-.17L16.83,84l-.25-.13-.87-.5-.29-.18-.57-.37-.34-.23L14,82.22,13.66,82l-.53-.41-.28-.22-.75-.64-.21-.19-.53-.5-.28-.28-.44-.45-.28-.3-.42-.48-.25-.29-.55-.69L9,77.32q-.27-.36-.53-.73l-.2-.31-.36-.55-.21-.34-.32-.56-.19-.34c-.12-.22-.24-.45-.35-.68l-.12-.23q-.22-.45-.42-.92l-.12-.29c-.09-.22-.18-.44-.27-.67l-.13-.36q-.11-.32-.22-.64l-.12-.36c-.07-.24-.14-.48-.21-.72l-.08-.29q-.13-.5-.24-1l0-.21c-.05-.28-.11-.55-.15-.83,0-.12,0-.24-.05-.36s-.06-.47-.09-.71,0-.25,0-.38,0-.49-.06-.74,0-.23,0-.34c0-.36,0-.72,0-1.09a22.62,22.62,0,0,1,2-9.39l.33-.64q.2-.42.38-.84l.16-.39L7.54,52l.2-.52.12-.31c.08-.22.16-.45.23-.67l.05-.15q.13-.4.25-.79v0A31.91,31.91,0,0,0,9.29,35.61ZM28.78,80.94l.59.34.24-.21L29,80.73ZM50,62.6c0,.11,0,.23,0,.34l.91-.52c0-.11,0-.23,0-.34Z" style="fill:#23e390"/>
          <path id="wall_-_Fill" data-name="wall - Fill" d="M83.2,19.92a.32.32,0,0,0-.15-.2l-.11-.06,0-.07a.5.5,0,0,0-.31-.14l-5.94-3.4a.33.33,0,0,0-.14,0,1,1,0,0,0-.6.12L55,28.06a.56.56,0,0,0-.31.48h0a1.09,1.09,0,0,0-.72.1L33.12,40.58a.55.55,0,0,0-.31.48h0a1.09,1.09,0,0,0-.72.1L27,44.06a.56.56,0,0,0-.31.48.51.51,0,0,0,.16.36.67.67,0,0,0-.16.46V56a1.18,1.18,0,0,0,.27.72.61.61,0,0,0-.27.55V67.94a1.18,1.18,0,0,0,.27.72.61.61,0,0,0-.27.55V79.86a1.18,1.18,0,0,0,.27.72.62.62,0,0,0-.27.55V91.79a1.14,1.14,0,0,0,.51.94l5.43,3.11h0a.61.61,0,0,0,.3.08.5.5,0,0,0,.25-.07.56.56,0,0,0,.26-.36l16.4-9.37a1.08,1.08,0,0,0,.45-.57h0a.51.51,0,0,0,.25.07.64.64,0,0,0,.32-.09L71.78,73.6a1.08,1.08,0,0,0,.45-.57h0a.51.51,0,0,0,.25.07.64.64,0,0,0,.32-.09l10-5.73A.32.32,0,0,0,83,67V55.43a.3.3,0,0,1,0-.35V43.5a.3.3,0,0,1,0-.35V31.58a.31.31,0,0,0-.12-.24,1.15,1.15,0,0,0,.09-.13.32.32,0,0,0,0-.14V20.45A.51.51,0,0,0,83.2,19.92Zm-.86,35L62.19,66.41V55.79a.45.45,0,0,1,.19-.32l20-11.41ZM62.2,66.75,62,66.5h0l.15.26ZM32.9,71.6h0l-.05.09h0Zm.61-10.81v-.73l16.23-9.28V61.4a.45.45,0,0,1-.18.32l-16,9.17ZM71.64,48.88a.45.45,0,0,1-.18.32L50.72,61V50.43a.45.45,0,0,1,.18-.32L71.64,38.26ZM33.51,72.71V72l5.8-3.32V79.28a.45.45,0,0,1-.18.32l-5.62,3.21Zm6.12-27.62a1,1,0,0,0,.51-.12L60.51,33.32v10a.45.45,0,0,1-.18.32L39.6,55.48V45.08Zm-6.09,3.48a1,1,0,0,0,.51-.13l4.56-2.61v10a.45.45,0,0,1-.19.32L33.51,59V48.56ZM32.9,59.68l-.05.09h0l.05-.09Zm0-.26-5.29-3a.52.52,0,0,1-.19-.38V45.46l5.29,3a.52.52,0,0,1,.18.38Zm-5.47-2,5.29,3a.52.52,0,0,1,.19.38V71.34l-5.29-3a.52.52,0,0,1-.19-.38Zm0,11.92,5.29,3a.52.52,0,0,1,.19.38V83.27l-5.29-3a.52.52,0,0,1-.19-.38Zm5.46,14.3.05-.09h0l-.05.09Zm7.44-4.68V68.31a.44.44,0,0,1,.18-.32h0L61.21,56.14V66.76a.45.45,0,0,1-.19.32Zm32.33-30.4V37.91a.45.45,0,0,1,.19-.32l9.53-5.45V43ZM82.34,31a.36.36,0,0,1-.11.12L61.5,43V32.56h0a1,1,0,0,0,.51-.12l20.3-11.6ZM76.22,16.69a.36.36,0,0,1,.16,0l5.45,3.11L61.36,31.47a1,1,0,0,0-.28.26l-5.59-3.19ZM54.32,29.2a.45.45,0,0,1,.37,0l5.31,3L39.46,44a1,1,0,0,0-.28.26l-5.59-3.19ZM32.42,41.72a.45.45,0,0,1,.37,0l5.31,3L33,47.67l0,0-5.5-3.15ZM27.56,92.17a.52.52,0,0,1-.19-.38V81.23l5.29,3a.52.52,0,0,1,.19.38V95.19Zm5.33,3.28h0l-.06.11Zm16.84-10.2a.45.45,0,0,1-.18.32l-16,9.17V83.9l16.23-9.28Zm.14-10.71-.15-.26h0l.16.25Zm21.76-1.81a.45.45,0,0,1-.18.32L50.72,84.89V74.27a.45.45,0,0,1,.18-.32L71.64,62.1ZM71.78,62l-.15-.26h0l.16.25Zm10.56,4.8-9.72,5.56V61.75a.45.45,0,0,1,.19-.32L82.34,56Z" style="fill:#23e390"/>
        </g>
      </g>
    </g>
  </g>
</svg>
