<svg xmlns="http://www.w3.org/2000/svg" width="146.17" height="117.95" viewBox="0 0 146.17 117.95">
  <title>icon-paper-work</title>
  <g id="Layer_2" data-name="Layer 2">
    <g id="_1200" data-name="1200">
      <g id="Why_" data-name="Why?">
        <g id="marketing-support-icon">
          <path d="M0,22.2" transform="translate(-3.83)" style="fill: #fff;stroke: #4e5a60;stroke-linecap: round;stroke-linejoin: round"/>
          <g>
            <rect x="8.95" y="22.56" width="88.8" height="57.57" rx="1.89" ry="1.89" style="fill: none;stroke: #edf0f3;stroke-linecap: round;stroke-linejoin: round"/>
            <line x1="8.95" y1="30.64" x2="97.75" y2="30.64" style="fill: none;stroke: #edf0f3;stroke-linecap: round;stroke-linejoin: round"/>
            <rect x="28.06" y="25.71" width="64.46" height="1.39" rx="0.7" ry="0.7" style="fill: none;stroke: #edf0f3;stroke-miterlimit: 10"/>
            <line x1="14.37" y1="26.4" x2="15.49" y2="26.4" style="fill: none;stroke: #edf0f3;stroke-linecap: round;stroke-linejoin: round;stroke-width: 0.75px"/>
            <line x1="17.97" y1="26.4" x2="19.09" y2="26.4" style="fill: none;stroke: #edf0f3;stroke-linecap: round;stroke-linejoin: round;stroke-width: 0.75px"/>
            <line x1="21.58" y1="26.4" x2="22.69" y2="26.4" style="fill: none;stroke: #edf0f3;stroke-linecap: round;stroke-linejoin: round;stroke-width: 0.75px"/>
          </g>
          <g>
            <rect x="16.17" y="8.96" width="100.44" height="84.76" rx="1.89" ry="1.89" style="fill: #373e5a;stroke: #edf0f3;stroke-linecap: round;stroke-linejoin: round"/>
            <line x1="16.17" y1="18.1" x2="116.61" y2="18.1" style="fill: none;stroke: #edf0f3;stroke-linecap: round;stroke-linejoin: round"/>
            <rect x="37.78" y="12.52" width="72.91" height="1.58" rx="0.79" ry="0.79" style="fill: none;stroke: #edf0f3;stroke-miterlimit: 10"/>
            <line x1="22.3" y1="13.31" x2="23.56" y2="13.31" style="fill: #fff;stroke: #edf0f3;stroke-linecap: round;stroke-linejoin: round;stroke-width: 0.75px"/>
            <line x1="26.38" y1="13.31" x2="27.64" y2="13.31" style="fill: #fff;stroke: #edf0f3;stroke-linecap: round;stroke-linejoin: round;stroke-width: 0.75px"/>
            <line x1="30.45" y1="13.31" x2="31.71" y2="13.31" style="fill: #fff;stroke: #edf0f3;stroke-linecap: round;stroke-linejoin: round;stroke-width: 0.75px"/>
          </g>
          <g>
            <path d="M102.17,56.81H86.47v9.72h15.69V56.81Z" transform="translate(-3.83)" style="fill: #fff;stroke: #4e5a60;stroke-miterlimit: 10"/>
            <line x1="83.01" y1="73.33" x2="98.07" y2="73.33" style="fill: #fff;stroke: #4e5a60;stroke-linecap: round;stroke-linejoin: round"/>
            <line x1="83.01" y1="79.38" x2="98.07" y2="79.38" style="fill: #fff;stroke: #4e5a60;stroke-linecap: round;stroke-linejoin: round"/>
            <line x1="83.01" y1="85.43" x2="98.07" y2="85.43" style="fill: #fff;stroke: #4e5a60;stroke-linecap: round;stroke-linejoin: round"/>
          </g>
          <g>
            <g>
              <rect x="29.85" y="0.5" width="102.88" height="101.69" rx="1.89" ry="1.89" transform="translate(158.74 102.69) rotate(-180)" style="fill: #373e5a;stroke: #edf0f3;stroke-linecap: round;stroke-linejoin: round"/>
              <line x1="128.9" y1="9.86" x2="26.02" y2="9.86" style="fill: none;stroke: #edf0f3;stroke-linecap: round;stroke-linejoin: round"/>
              <rect x="35.91" y="4.14" width="74.68" height="1.61" rx="0.79" ry="0.79" transform="translate(142.67 9.9) rotate(180)" style="fill: none;stroke: #edf0f3;stroke-miterlimit: 10"/>
              <line x1="122.62" y1="4.95" x2="121.33" y2="4.95" style="fill: #fff;stroke: #edf0f3;stroke-linecap: round;stroke-linejoin: round;stroke-width: 0.75px"/>
              <line x1="118.44" y1="4.95" x2="117.15" y2="4.95" style="fill: #fff;stroke: #edf0f3;stroke-linecap: round;stroke-linejoin: round;stroke-width: 0.75px"/>
              <line x1="114.27" y1="4.95" x2="112.98" y2="4.95" style="fill: #fff;stroke: #edf0f3;stroke-linecap: round;stroke-linejoin: round;stroke-width: 0.75px"/>
            </g>
            <g>
              <path d="M41.9,45.1v9.72H57.6V45.1Z" transform="translate(-3.83)" style="fill: none;stroke: #03a9f4;stroke-miterlimit: 10"/>
              <line x1="53.29" y1="61.63" x2="38.43" y2="61.63" style="fill: none;stroke: #03a9f4;stroke-linecap: round;stroke-linejoin: round"/>
              <line x1="53.29" y1="67.68" x2="38.43" y2="67.68" style="fill: none;stroke: #03a9f4;stroke-linecap: round;stroke-linejoin: round"/>
              <line x1="53.29" y1="73.73" x2="38.43" y2="73.73" style="fill: none;stroke: #03a9f4;stroke-linecap: round;stroke-linejoin: round"/>
            </g>
            <g>
              <path d="M65,45.1v9.72H80.73V45.1Z" transform="translate(-3.83)" style="fill: none;stroke: #03a9f4;stroke-miterlimit: 10"/>
              <line x1="76.63" y1="61.66" x2="61.58" y2="61.66" style="fill: none;stroke: #03a9f4;stroke-linecap: round;stroke-linejoin: round"/>
              <line x1="76.63" y1="67.71" x2="61.58" y2="67.71" style="fill: none;stroke: #03a9f4;stroke-linecap: round;stroke-linejoin: round"/>
              <line x1="76.63" y1="73.73" x2="61.58" y2="73.73" style="fill: none;stroke: #03a9f4;stroke-linecap: round;stroke-linejoin: round"/>
            </g>
            <g>
              <line x1="109.11" y1="19.24" x2="44.66" y2="19.24" style="fill: #edf0f3;stroke: #03a9f4;stroke-linecap: round;stroke-linejoin: round"/>
              <line x1="116.92" y1="31.03" x2="36.85" y2="31.03" style="fill: #edf0f3;stroke: #03a9f4;stroke-linecap: round;stroke-linejoin: round"/>
              <line x1="116.92" y1="25.6" x2="36.85" y2="25.6" style="fill: #edf0f3;stroke: #03a9f4;stroke-linecap: round;stroke-linejoin: round"/>
              <line x1="116.14" y1="36.78" x2="37.63" y2="36.78" style="fill: #edf0f3;stroke: #03a9f4;stroke-linecap: round;stroke-linejoin: round"/>
            </g>
          </g>
          <g>
            <rect x="53.5" y="74.04" width="44.02" height="31.26" style="fill: #373e5a;stroke: #edf0f3;stroke-linecap: round;stroke-linejoin: round"/>
            <polyline points="53.42 78.32 75.43 96.44 97.44 78.32" style="fill: #373e5a;stroke: #edf0f3;stroke-linecap: round;stroke-linejoin: round"/>
            <line x1="68.64" y1="91.4" x2="53.42" y2="103.92" style="fill: #373e5a;stroke: #edf0f3;stroke-linecap: round;stroke-linejoin: round"/>
            <line x1="97.44" y1="103.92" x2="81.91" y2="91.14" style="fill: #373e5a;stroke: #edf0f3;stroke-linecap: round;stroke-linejoin: round"/>
          </g>
          <path d="M148.88,91.33c-23-15.95-18.24-57.58-18.24-57.58L86.09,37.41s-2,43.27,18.72,67.95Z" transform="translate(-3.83)" style="fill: #373e5a;stroke: #fff;stroke-miterlimit: 10"/>
          <path d="M146.94,89.36C123.93,73.42,136.35,35,136.35,35L97.92,48.14s-7.25,37.57,13.48,62.25Z" transform="translate(-3.83)" style="fill: #373e5a;stroke: #fff;stroke-miterlimit: 10"/>
          <g id="paper">
            <path d="M139.2,33.13s-16,20.35,6.73,53.85c0,0-9.78,3-26.9,30.47,0,0-18.92-11.63-17.07-33.43" transform="translate(-3.83)" style="fill: #373e5a;stroke: #fff;stroke-linecap: round;stroke-linejoin: round"/>
            <path d="M102,84a46.51,46.51,0,0,1,17.31-14.69S121.1,61.41,139.06,33C139.06,33,110.6,61.87,102,84Z" transform="translate(-3.83)" style="fill: #373e5a;stroke: #fff;stroke-linecap: round;stroke-linejoin: round"/>
          </g>
          <path d="M37,86.77a112.17,112.17,0,0,0,11.6.92" transform="translate(-3.83)" style="fill: none;stroke: #03a9f4;stroke-linecap: round;stroke-linejoin: round;stroke-dasharray: 2,3"/>
          <path d="M16.72,80.45C21.48,83.29,28,85.55,37,86.77" transform="translate(-3.83)" style="fill: none;stroke: #03a9f4;stroke-linecap: round;stroke-linejoin: round"/>
          <path d="M8,47.29s-10.8,21.5,8.72,33.16" transform="translate(-3.83)" style="fill: none;stroke: #03a9f4;stroke-linecap: round;stroke-linejoin: round"/>
          <path d="M42.37,95.6q3,.27,6.23.37" transform="translate(-3.83)" style="fill: none;stroke: #03a9f4;stroke-linecap: round;stroke-linejoin: round;stroke-dasharray: 2,3"/>
          <path d="M24.73,91.84A67.13,67.13,0,0,0,42.37,95.6" transform="translate(-3.83)" style="fill: none;stroke: #03a9f4;stroke-linecap: round;stroke-linejoin: round"/>
          <path d="M4.7,60.44c-1.43,8.73.51,24,20,31.41" transform="translate(-3.83)" style="fill: none;stroke: #03a9f4;stroke-linecap: round;stroke-linejoin: round"/>
        </g>
      </g>
    </g>
  </g>
</svg>
