<svg xmlns="http://www.w3.org/2000/svg" width="150" height="144.44" viewBox="0 0 150 144.44">
  <title>icon-people-graph</title>
  <g id="Layer_2" data-name="Layer 2">
    <g id="_1200" data-name="1200">
      <g id="Why_" data-name="Why?">
        <g id="high-demand-icon">
          <g style="isolation: isolate">
            <g>
              <polygon points="97.65 44.88 95.41 40.3 119.75 14.78 123.16 17.66 97.65 44.88" style="fill: none;stroke: #03a9f4;stroke-miterlimit: 10"/>
              <polygon points="97.65 44.88 95.41 40.3 119.75 14.78 123.16 17.66 97.65 44.88" style="fill: none;stroke: #03a9f4;stroke-miterlimit: 10"/>
            </g>
            <g>
              <polygon points="117.03 12.37 114.35 8.95 139.31 0.59 141.98 4.01 117.03 12.37" style="fill: none;stroke: #03a9f4;stroke-miterlimit: 10"/>
              <polygon points="117.03 12.37 114.35 8.95 139.31 0.59 141.98 4.01 117.03 12.37" style="fill: none;stroke: #03a9f4;stroke-miterlimit: 10"/>
            </g>
            <polygon points="52.2 64.41 49.7 60.46 86.44 24.48 89.12 27.9 52.2 64.41" style="fill: none;stroke: #03a9f4;stroke-miterlimit: 10"/>
            <polygon points="3.35 84.65 0.67 81.22 40.32 42.75 43 46.17 3.35 84.65" style="fill: none;stroke: #03a9f4;stroke-miterlimit: 10"/>
            <polygon points="117.03 12.37 141.98 4.01 136.3 29.01 129.77 23.37 95.35 60.11 86.59 42.68 49.68 79.16 40.42 60.83 9.48 90.85 3.35 84.65 43 46.17 52.2 64.41 89.12 27.9 97.65 44.88 123.16 17.66 117.03 12.37" style="fill: none;stroke: #edf0f3;stroke-miterlimit: 10"/>
          </g>
          <path d="M96.65,103.3c-5.69-1.49-8-3-8.92-3.88A21.34,21.34,0,0,0,94.54,97a.49.49,0,0,0,.24-.52.5.5,0,0,0-.41-.4,4.67,4.67,0,0,1-1.29-.4,8.52,8.52,0,0,0,5.54-3.45.49.49,0,0,0,.07-.38.5.5,0,0,0-.23-.32,5.52,5.52,0,0,1-1.18-1c3.46-1.16,5-5.91,5-6.13a.49.49,0,0,0-.27-.59.51.51,0,0,0-.64.18,1.58,1.58,0,0,1-1,.63,2.33,2.33,0,0,1-1.76-.73c-1.1-1-1.3-2-1.77-4.53A88.21,88.21,0,0,0,94.35,69a15.13,15.13,0,0,0-8.6-9.9,16.06,16.06,0,0,0-6-1.35h-.61a17.75,17.75,0,0,0-6.33,1.35A15.1,15.1,0,0,0,63.88,69a88.2,88.2,0,0,0-2.53,10.38c-.47,2.53-.67,3.58-1.77,4.53a2.33,2.33,0,0,1-1.76.73,1.58,1.58,0,0,1-1-.62.51.51,0,0,0-.64-.19.49.49,0,0,0-.27.6c.07.22,1.58,5,5,6.13a5.52,5.52,0,0,1-1.18,1,.5.5,0,0,0-.23.32.49.49,0,0,0,.07.38,8.52,8.52,0,0,0,5.54,3.45,4.67,4.67,0,0,1-1.29.4.5.5,0,0,0-.41.4.49.49,0,0,0,.24.52,21.34,21.34,0,0,0,6.8,2.43c-.9.84-3.23,2.39-8.92,3.88-9.06,2.37-9.06,6.57-9.05,11v10.3a45.22,45.22,0,0,0,53.19-.08V114.31C105.71,109.87,105.72,105.68,96.65,103.3Z" style="fill: #373e5a;stroke: #03a9f4;stroke-linecap: round;stroke-linejoin: round"/>
          <g>
            <path d="M149.41,132.18c-.19-5.42-1.54-10.34-10.82-13.34-6.83-2.21-10.61-4.71-12.53-8.33a24.13,24.13,0,0,0,3-4.33l0,0a33.08,33.08,0,0,0,2-7.14,12.3,12.3,0,0,0,1-1.48,6.82,6.82,0,0,0,1.15-3v-.28c.1-3,0-4.8-.59-5.43a.93.93,0,0,0-.31-.21,8.23,8.23,0,0,0,.18-5.57,21.86,21.86,0,0,0-1.41-2.88h.52a.57.57,0,0,0,.54-.41.57.57,0,0,0-.23-.63,11,11,0,0,1-2.19-2.53,12.05,12.05,0,0,0-7.61-5.1,14.32,14.32,0,0,0-4.77,0,14.32,14.32,0,0,0-4.77,0,12.05,12.05,0,0,0-7.61,5.1,11.11,11.11,0,0,1-2.18,2.52.56.56,0,0,0-.24.63.57.57,0,0,0,.54.41h.52A21.84,21.84,0,0,0,102.25,83a8.23,8.23,0,0,0,.18,5.57.93.93,0,0,0-.31.21c-.62.63-.69,2.39-.59,5.43v.28a6.82,6.82,0,0,0,1.15,3,12.29,12.29,0,0,0,1,1.48,33.07,33.07,0,0,0,2,7.14l0,0a23.89,23.89,0,0,0,2.54,3.77c-1.81,3.91-5.67,6.58-12.81,8.89-9.77,3.15-10.75,8.44-10.84,14.21" style="fill: #373e5a;stroke: #03a9f4;stroke-miterlimit: 10"/>
            <path d="M140.6,139.44" style="fill: #373e5a;stroke: #03a9f4;stroke-miterlimit: 10"/>
            <path d="M92.2,138.9a44.07,44.07,0,0,1-7.47-6.15" style="fill: #373e5a;stroke: #03a9f4;stroke-linecap: round;stroke-linejoin: round"/>
            <path d="M149.5,131.46A38.35,38.35,0,0,1,133.57,142c-5.54,1.87-10.06,1.89-16.81,1.9a55.73,55.73,0,0,1-16.81-2.06,51.12,51.12,0,0,1-7.75-3" style="fill: #373e5a;stroke: #03a9f4;stroke-linecap: round;stroke-linejoin: round"/>
          </g>
          <path d="M139.73,134.68s.84.72.72,4.38" style="fill: none;stroke: #03a9f4;stroke-linecap: round;stroke-linejoin: round"/>
          <path d="M93,134.68s-.84.72-.72,4.38" style="fill: none;stroke: #03a9f4;stroke-linecap: round;stroke-linejoin: round"/>
          <path d="M63.61,134.68s.84.72.72,4.38" style="fill: none;stroke: #03a9f4;stroke-linecap: round;stroke-linejoin: round"/>
          <path d="M16.86,134.68s-.84.72-.72,4.38" style="fill: none;stroke: #03a9f4;stroke-linecap: round;stroke-linejoin: round"/>
          <g>
            <path d="M73.28,132.18c-.19-5.42-1.54-10.34-10.82-13.34-6.83-2.21-10.61-4.71-12.53-8.33a24.13,24.13,0,0,0,3-4.33l0,0A33.08,33.08,0,0,0,55,99a12.3,12.3,0,0,0,1-1.48,6.82,6.82,0,0,0,1.15-3v-.28c.1-3,0-4.8-.59-5.43a.93.93,0,0,0-.31-.21A8.23,8.23,0,0,0,56.43,83,21.86,21.86,0,0,0,55,80.14h.52a.57.57,0,0,0,.54-.41.57.57,0,0,0-.23-.63,11,11,0,0,1-2.19-2.53,12.05,12.05,0,0,0-7.61-5.1,14.32,14.32,0,0,0-4.77,0,14.32,14.32,0,0,0-4.77,0,12.05,12.05,0,0,0-7.61,5.1,11.11,11.11,0,0,1-2.18,2.52.56.56,0,0,0-.24.63.57.57,0,0,0,.54.41h.52A21.84,21.84,0,0,0,26.12,83a8.23,8.23,0,0,0,.18,5.57.93.93,0,0,0-.31.21c-.62.63-.69,2.39-.59,5.43v.28a6.82,6.82,0,0,0,1.15,3,12.29,12.29,0,0,0,1,1.48,33.07,33.07,0,0,0,2,7.14l0,0A23.89,23.89,0,0,0,32.15,110c-1.81,3.91-5.67,6.58-12.81,8.89C9.58,122,8.6,127.29,8.5,133.05" style="fill: #373e5a;stroke: #03a9f4;stroke-miterlimit: 10"/>
            <path d="M64.47,139.44" style="fill: #373e5a;stroke: #03a9f4;stroke-miterlimit: 10"/>
            <path d="M16.07,138.9a44.07,44.07,0,0,1-7.47-6.15" style="fill: #373e5a;stroke: #03a9f4;stroke-linecap: round;stroke-linejoin: round"/>
            <path d="M73.37,131.46A38.35,38.35,0,0,1,57.45,142c-5.54,1.87-10.06,1.89-16.81,1.9a55.73,55.73,0,0,1-16.81-2.06,51.12,51.12,0,0,1-7.75-3" style="fill: #373e5a;stroke: #03a9f4;stroke-linecap: round;stroke-linejoin: round"/>
          </g>
        </g>
      </g>
    </g>
  </g>
</svg>
