<svg xmlns="http://www.w3.org/2000/svg" width="34.81" height="48.03" viewBox="0 0 34.81 48.03">
  <title>icon-money</title>
  <g id="Layer_2" data-name="Layer 2">
    <g id="Home_-_1200" data-name="Home - 1200">
      <g id="First_Module" data-name="First Module">
        <g id="Advantages">
          <g id="Icon_Group" data-name="Icon Group">
            <g id="icon">
              <g>
                <g>
                  <g>
                    <path d="M14,42l-3.74-2.16Z" style="fill: #fff;stroke: #4e5a60;stroke-miterlimit: 10"/>
                    <polygon points="14.01 42.04 23.35 47.44 33.62 40.01 24.27 34.61 20.3 32.33 11.18 27.06 0.92 34.48 10.27 39.88 14.01 42.04" style="fill: #fff;stroke: #3f4563;stroke-miterlimit: 10"/>
                    <path d="M13.85,28.6c-1.69,1.23-4.27,1.53-5.75.67" style="fill: none;stroke: #4e5a60;stroke-miterlimit: 10"/>
                  </g>
                  <g>
                    <path d="M14.27,38.5l-3.74-2.16Z" style="fill: #fff;stroke: #4e5a60;stroke-miterlimit: 10"/>
                    <polygon points="14.28 38.51 23.63 43.91 33.89 36.48 24.54 31.08 20.58 28.79 11.46 23.53 1.19 30.95 10.54 36.35 14.28 38.51" style="fill: #fff;stroke: #3f4563;stroke-miterlimit: 10"/>
                    <path d="M30.81,38.69c-1.48-.85-1.31-2.54.39-3.77" style="fill: none;stroke: #3f4563;stroke-miterlimit: 10"/>
                    <path d="M20.94,42.35c1.69-1.23,4.27-1.53,5.75-.67" style="fill: none;stroke: #3f4563;stroke-miterlimit: 10"/>
                    <path d="M14.12,25.07c-1.69,1.23-4.27,1.53-5.75.67" style="fill: none;stroke: #3f4563;stroke-miterlimit: 10"/>
                    <path d="M4.25,28.73c1.48.85,1.31,2.54-.39,3.77" style="fill: none;stroke: #3f4563;stroke-miterlimit: 10"/>
                    <path d="M22.4,36.51a11.55,11.55,0,0,1-8.12,2h0l-3.74-2.16v0c-.93-1.62-.19-3.78,2.13-5.46a11.55,11.55,0,0,1,8.12-2l0,0,3.77,2.18c.91,1.62.16,3.76-2.15,5.44" style="fill: #fff;stroke: #3f4563;stroke-miterlimit: 10"/>
                    <text transform="matrix(0.71, 0.41, -0.81, 0.59, 12.6, 34.47)" style="font-size: 10.750399589538574px;fill: #3f4563;font-family: WorkSans-SemiBold, Work Sans;font-weight: 700;letter-spacing: 0.20004961838780227em">$</text>
                  </g>
                </g>
                <g>
                  <line x1="26.91" y1="9.89" x2="26.86" y2="14.03" style="fill: none;stroke: #3f4563;stroke-linecap: round;stroke-linejoin: round;stroke-dasharray: 2,3"/>
                  <line x1="26.86" y1="15.12" x2="26.86" y2="19.37" style="fill: none;stroke: #3f4563;stroke-linecap: round;stroke-linejoin: round"/>
                  <line x1="7.92" y1="9.89" x2="7.9" y2="14.42" style="fill: none;stroke: #3f4563;stroke-linecap: round;stroke-linejoin: round;stroke-dasharray: 2,3"/>
                  <line x1="17.33" y1="0.5" x2="17.3" y2="9.89" style="fill: none;stroke: #3f4563;stroke-linecap: round;stroke-linejoin: round;stroke-dasharray: 2,3"/>
                  <g>
                    <line x1="7.9" y1="20.35" x2="10.49" y2="17.7" style="fill: none;stroke: #3f4563;stroke-linecap: round;stroke-linejoin: round"/>
                    <line x1="7.9" y1="20.35" x2="5.3" y2="17.7" style="fill: none;stroke: #3f4563;stroke-linecap: round;stroke-linejoin: round"/>
                  </g>
                  <line x1="7.91" y1="15.1" x2="7.91" y2="20.35" style="fill: none;stroke: #3f4563;stroke-linecap: round;stroke-linejoin: round"/>
                  <g>
                    <line x1="17.31" y1="23.35" x2="19.91" y2="20.7" style="fill: none;stroke: #3f4563;stroke-linecap: round;stroke-linejoin: round"/>
                    <line x1="17.31" y1="23.35" x2="14.71" y2="20.7" style="fill: none;stroke: #3f4563;stroke-linecap: round;stroke-linejoin: round"/>
                  </g>
                  <line x1="17.32" y1="10.55" x2="17.32" y2="23.35" style="fill: none;stroke: #3f4563;stroke-linecap: round;stroke-linejoin: round"/>
                  <g>
                    <line x1="26.91" y1="20.35" x2="29.51" y2="17.7" style="fill: none;stroke: #3f4563;stroke-linecap: round;stroke-linejoin: round"/>
                    <line x1="26.91" y1="20.35" x2="24.32" y2="17.7" style="fill: none;stroke: #3f4563;stroke-linecap: round;stroke-linejoin: round"/>
                  </g>
                </g>
              </g>
            </g>
          </g>
        </g>
      </g>
    </g>
  </g>
</svg>
