<svg xmlns="http://www.w3.org/2000/svg" width="130.9" height="137.98" viewBox="0 0 130.9 137.98">
  <title>icon-blue-headset</title>
  <g id="Layer_2" data-name="Layer 2">
    <g id="_1200" data-name="1200">
      <g id="Why_" data-name="Why?">
        <g id="support-icon">
          <path d="M68.48,130.57c5-.67,21.7-4.47,27.75-25.63l4.2.59s-4.89,24.63-31.85,29.11" style="fill: none;stroke: #edf0f3;stroke-miterlimit: 10"/>
          <path d="M25.84,74.32h0" style="fill: none;stroke: #edf0f3;stroke-miterlimit: 10"/>
          <rect x="43.99" y="129.05" width="24.59" height="8.42" rx="2.13" ry="2.13" style="fill: none;stroke: #edf0f3;stroke-miterlimit: 10"/>
          <path d="M99.84,80.41l-.15-7a46.37,46.37,0,1,0-92.74,0l.15,5.26,5.35-5.76c.94-22.49,18.86-40.4,40.95-40.45s40,18,40.95,40.45Z" style="fill: none;stroke: #edf0f3;stroke-linecap: round;stroke-linejoin: round"/>
          <path d="M12.44,72.94c.94-22.49,18.86-40.4,40.95-40.45s40,18,40.95,40.45" style="fill: none;stroke: #edf0f3;stroke-miterlimit: 10"/>
          <path d="M99.84,80.41l-.15-7a46.37,46.37,0,1,0-92.74,0l.15,5.26" style="fill: none;stroke: #edf0f3;stroke-miterlimit: 10"/>
          <path d="M66.17,140" style="fill: none;stroke: #edf0f3;stroke-miterlimit: 10;stroke-width: 2px"/>
          <g>
            <path d="M95.61,110.42s-9.88-1.2-9.88-2.66V75.87c0-1.47,9.88-2.66,9.88-2.66,1.81,0,3.28,1.19,3.29,2.65v31.9h0C98.89,109.23,97.42,110.42,95.61,110.42Z" style="fill: #373e5a;stroke: #edf0f3;stroke-miterlimit: 10"/>
            <path d="M102.81,102a10.19,10.19,0,0,1-3.45,3V78.7a10.2,10.2,0,0,1,3.45,3,18,18,0,0,1,0,20.33Z" style="fill: none;stroke: #edf0f3;stroke-miterlimit: 10"/>
            <path d="M85.73,76.11s-3.94,0-3.94,3.35v24.27s-.41,2.34,3.94,3.52Z" style="fill: none;stroke: #edf0f3;stroke-miterlimit: 10"/>
          </g>
          <g>
            <path d="M10.84,110.42s9.88-1.2,9.88-2.66V75.87c0-1.47-9.88-2.66-9.88-2.66-1.81,0-3.28,1.19-3.29,2.65v31.9h0C7.56,109.23,9,110.42,10.84,110.42Z" style="fill: none;stroke: #edf0f3;stroke-miterlimit: 10"/>
            <path d="M3.64,102a10.19,10.19,0,0,0,3.45,3V78.7a10.2,10.2,0,0,0-3.45,3,18,18,0,0,0,0,20.33Z" style="fill: none;stroke: #edf0f3;stroke-miterlimit: 10"/>
            <path d="M20.72,76.11s3.94,0,3.94,3.35v24.27s.41,2.34-3.94,3.52Z" style="fill: none;stroke: #edf0f3;stroke-miterlimit: 10"/>
          </g>
          <path d="M103.12.5A27.28,27.28,0,0,0,78.66,39.87a16.86,16.86,0,0,0,3.62,5.7A2.23,2.23,0,0,1,82,47.68l-3.83,6.84s-3,4.48,0,2.77l8.62-5.66a1.72,1.72,0,0,1,2.34,0s2.46,1.09,5.17,2c.45.15.9.3,1.36.43.67.2,1.33.37,2,.5h.06l.83.15v0A27.31,27.31,0,1,0,103.12.5Z" style="fill: #373e5a;stroke: #03a9f4;stroke-linecap: round;stroke-linejoin: round"/>
          <text transform="translate(65.66 69.97)" style="font-size: 0.14837001264095306px;fill: #edf0f3;font-family: WorkSans-Regular, Work Sans;letter-spacing: -0.0724977617742081em">24</text>
          <path d="M79,41.63" style="fill: none;stroke: #edf0f3;stroke-miterlimit: 10"/>
          <path d="M84.76,46.8" style="fill: none;stroke: #edf0f3;stroke-miterlimit: 10"/>
          <g>
            <g>
              <path d="M88.18,39.79q-.31-.39-.6-.8" style="fill: none;stroke: #03a9f4;stroke-linecap: round;stroke-linejoin: round"/>
              <path d="M86,36.43a19.28,19.28,0,1,1,9.09,8.9" style="fill: none;stroke: #03a9f4;stroke-linecap: round;stroke-linejoin: round;stroke-dasharray: 1.9974170923233032,2.9961256980895996"/>
              <path d="M93.81,44.64q-.43-.25-.86-.52" style="fill: none;stroke: #03a9f4;stroke-linecap: round;stroke-linejoin: round"/>
            </g>
            <polyline points="88.34 30.72 88.73 39.55 81.19 36.09" style="fill: none;stroke: #03a9f4;stroke-linecap: round;stroke-linejoin: round"/>
          </g>
          <g>
            <line x1="61.99" y1="68.72" x2="61.99" y2="106.92" style="fill: none;stroke: #03a9f4;stroke-linecap: round;stroke-linejoin: round"/>
            <line x1="55.91" y1="77.23" x2="55.91" y2="98.41" style="fill: none;stroke: #03a9f4;stroke-linecap: round;stroke-linejoin: round"/>
            <line x1="68.98" y1="78.48" x2="68.98" y2="97.58" style="fill: none;stroke: #03a9f4;stroke-linecap: round;stroke-linejoin: round"/>
            <line x1="76.33" y1="85.33" x2="76.33" y2="91.35" style="fill: none;stroke: #03a9f4;stroke-linecap: round;stroke-linejoin: round"/>
            <line x1="50.52" y1="85.33" x2="50.52" y2="90.31" style="fill: none;stroke: #03a9f4;stroke-linecap: round;stroke-linejoin: round"/>
            <line x1="44.09" y1="79.93" x2="44.09" y2="96.12" style="fill: none;stroke: #03a9f4;stroke-linecap: round;stroke-linejoin: round"/>
            <line x1="36.62" y1="76.19" x2="36.62" y2="98.41" style="fill: none;stroke: #03a9f4;stroke-linecap: round;stroke-linejoin: round"/>
            <line x1="31.65" y1="85.33" x2="31.65" y2="90.31" style="fill: none;stroke: #03a9f4;stroke-linecap: round;stroke-linejoin: round"/>
          </g>
          <g>
            <path d="M93.44,33.25q3-2.25,4.67-3.7a11.89,11.89,0,0,0,2.32-2.65,4.85,4.85,0,0,0,.7-2.5,2.81,2.81,0,0,0-.84-2.12,3.52,3.52,0,0,0-4.68.17,4.31,4.31,0,0,0-1.08,2.65L93,24.15a4.81,4.81,0,0,1,5.11-4.36,5.57,5.57,0,0,1,2.59.58A4.1,4.1,0,0,1,102.4,22a4.73,4.73,0,0,1,.6,2.4,5.88,5.88,0,0,1-.68,2.74,10.7,10.7,0,0,1-2.21,2.76A32,32,0,0,1,96,33.07v0q1.47-.07,2.2-.07h5.14v1.67H93.44Z" style="fill: #fff"/>
            <path d="M115.57,30.85H113v3.85h-1.78V30.85H104V29.54L110.72,20H113v9.29h2.6Zm-9.65-1.53h5.27V23.82l.09-2.36h0a18.93,18.93,0,0,1-1.47,2.45Z" style="fill: #fff"/>
          </g>
        </g>
      </g>
    </g>
  </g>
</svg>
