<svg id="malware-bug1" xmlns="http://www.w3.org/2000/svg" viewBox="0 0 393 483"><defs><style>.blue-stroke,.blue-stroke-white{fill:none;stroke:#373e5a;stroke-linecap:round;stroke-linejoin:round;stroke-width:1.5px}.blue-stroke-white{fill:#fff}.blue{fill:#373e5a}.grey-stroke{fill:none;stroke:#969c9c;stroke-linecap:round;stroke-linejoin:round;stroke-width:1.5px}</style></defs><path class="grey-stroke" d="M392.5 482.33l-2-.11"/><path d="M379.77 481.41c-6.13-.55-14.16-1.39-23.37-2.67" fill="none" stroke="#969c9c" stroke-linecap="round" stroke-linejoin="round" stroke-width="1.5" stroke-dasharray="5.88 3.92 10.78 5.88"/><path d="M353.49 478.33c-59.65-8.66-163.44-35.22-131.56-114 44-108.73 162.87-170.49 42.92-175.93S256 147.89 204.32 86.21C160.52 34 100.47 36.41 83.11 38.38" fill="none" stroke="#969c9c" stroke-linecap="round" stroke-linejoin="round" stroke-width="1.5" stroke-dasharray="3.92 10.78 5.88 3.92 10.78 5.88"/><path class="grey-stroke" d="M80.19 38.76c-1.28.19-2 .32-2 .32"/><path class="blue" d="M96.58 48.12s-.65-.22-.57-.66l.14-.92s0-1.09 1.5-.42a5 5 0 0 1 1 .07 2.88 2.88 0 0 1 .6.13 19.44 19.44 0 0 1 3.17.63 7.23 7.23 0 0 0 1.64.35 10.61 10.61 0 0 0 2.37 0l.83-.1a.45.45 0 0 1 .11.6l-1.43 1.42s-.42.33-.39.57v1.43a.71.71 0 0 1-.84.52 4.09 4.09 0 0 0-1.89-1.46s-4.46-1.68-6.24-2.16z"/><path class="blue" d="M97.87 39.07s4.13 7.5-3.3 17.93c-2.21 3.1-8.89 6.3-12.79 6.93-7.53 1.2-18.25 3.93-37.14-3.93 0 0-15.84-7.08-10.74-22.95s5.37-14.2 5.37-14.2S79.43 5 97.87 39.07z"/><path class="blue" d="M49 59.57a1 1 0 0 0-1.12 1.17 66.48 66.48 0 0 1 1.72 10c.34 4.51 2.55 6.25 4.57 7.1a1 1 0 0 0 1.16-.36 3.13 3.13 0 0 1 2.2-1.35l.64-.08s0-1.57-2.55-4.59a24.64 24.64 0 0 1-4.72-10.77 1 1 0 0 0-.79-.9z"/><path class="blue" d="M57.94 76.71s-2.41-.51-.73 1.79a29.51 29.51 0 0 0 5.89 7.16 1.19 1.19 0 0 0 .54.26c.85.18 3.22.55 4.32-.77a.63.63 0 0 0 .15-.4c0-.64-.5-2.46-5.47-4.91A15.23 15.23 0 0 1 59.7 78zM77.44 76.82l-2.13-3.09a4.09 4.09 0 0 0-1.78-1.3L69.75 71a11.33 11.33 0 0 1-4.28-2.75c-2.51-2.65-2.08-4.74-1.77-5.54a.55.55 0 0 1 .52-.37c3.26.19 11.12 8.16 11.49 8.53l3.2 4c-3.94-4.91.47.63.77 1.25s-1.5.82-1.5.82a.63.63 0 0 1-.74-.12zM79.14 78.81s-.64-.46-.45-.89.38-.87.69-1c.57-.29 1.52.21 2 .44.82.35 1.6.82 2.41 1.18a11.57 11.57 0 0 1 1.89 1.1 8.89 8.89 0 0 0 1.67.93 12.52 12.52 0 0 0 2.55.79l.92.18s.29.39 0 .67l-1.89 1s-.53.2-.56.46L88 85.13a.72.72 0 0 1-1 .26 5.11 5.11 0 0 0-1.67-2.18s-4.4-3.29-6.19-4.4zM25 56.35L10.58 56s-.43 0-.22.46l.4.9a2.11 2.11 0 0 1 .14.88l-.26 3.1s-.14.5.34.24l3.44-1.76.69.93L22.82 58a1.55 1.55 0 0 1 1.12 0c.69.29 1.82.75 2.07.83 0 0 .47.14.47-.34L26 56.65s-.08-.38-.72-.31zM35.3 50.87c.36.33 1.84 3.35 1.56 3.56A23.9 23.9 0 0 0 33.07 58c-1.51 1.87-4.53 1.71-5.73 1a1 1 0 0 1-.43-.82 3.48 3.48 0 0 0-.62-1.85l-.27-.4s.48-.71 2.56-.67c1.89 0 4.5-3.8 5.51-5a.42.42 0 0 1 .64 0zM23.31 39.77l-1.52-1.14-5 .48 5.75-3.57h.25a.11.11 0 0 1 0 .07l2.13 2.12M22.86 43.58l-3.52 1.94s-.19.08-.27 0l-3.17-1.86 3.58.18 2.73-1.59M113.95 52.44s-.88.86-.08 1.4a1.61 1.61 0 0 0 .79.3l1 .26h.17l-1-.85.63-.06-.21-.44 1.18.15-1.07-.8c-.24-.3-.72-.58-1.41.04zM97.06 86.62s-.61 1.15.41 1.52a1.82 1.82 0 0 0 .93.12H99.72l-1.31-.67.64-.23-.38-.36 1.28-.14-1.4-.59c-.39-.27-.98-.5-1.49.35zM2.81 56.22s.81-1-.12-1.57a1.82 1.82 0 0 0-.9-.29l-1.11-.23H.49l1.17.9-.66.07.29.48L0 55.49l1.27.83a.94.94 0 0 0 1.54-.1zM73.23 92.61s.51-1.33 1.55-.76a2 2 0 0 1 .76.69l.83.92.14.15L75 93l.27.69h-.61l.8 1.16-1.46-.73c-.53-.12-1.11-.49-.77-1.51z"/><path class="blue-stroke-white" d="M39.37 38.46a59 59 0 0 0 15.36 15.73c18.14 12.61 38.4 11.17 45.61 10.3a.78.78 0 0 0 .7-.15c.13-.15.2-.41.05-.89a2.45 2.45 0 0 0-.82-1.11l-8.43-6.83A9.64 9.64 0 0 1 89 52.59a14.29 14.29 0 0 0-5.57-5.17L80.73 46a18.68 18.68 0 0 1-2.9-1.86l-9.67-5zM35.59 31.68A51.91 51.91 0 0 1 45.7 16.86C58.3 4 74.1 1.58 79.76 1c0 0 .35-.16.55 0s.2.29.14.68a2.13 2.13 0 0 1-.51 1l-5.75 6.73a8.48 8.48 0 0 0-1.84 2.75 12.59 12.59 0 0 1-3.72 5l-2 1.56a16.43 16.43 0 0 0-2 1.94l-6.91 5.56z"/><path class="blue-stroke-white" d="M36.89 30.88a5.89 5.89 0 0 1 .38-5C38.75 23.37 63.21-8 95.39 12.15c0 0-3.85-2-15.49-1.18S49.08 17 36.89 30.88zM34.29 40.55a15.63 15.63 0 0 0 3.3 8.19C42 54.45 53 63.69 76 60.06c0 0 27.11-1.8 22.24-23.18 0 0-8.64-10.91-38-9.45 0 0-23.93 2.64-25.19 9.41l-.7 2.85a2.63 2.63 0 0 0-.06.86z"/><path class="blue-stroke" d="M43.27 25.11l17.29-9.84M66.23 17.24l-.94-2.85-6.13 1.67M60.27 21.18l-5.44.51-1.69-2.19"/><path class="blue-stroke-white" d="M5.92 58.92s1.61 2.88 3.53.45c0 0 1.44-2-.33-3A3 3 0 0 0 7 56s1.4 1.74-1.08 2.92zM3.15 57.21s1 1.94 2.33.44c0 0 1-1.25-.15-1.94a2 2 0 0 0-1.38-.36s.86 1.2-.8 1.86zM93.5 84.53s-2.11-2.54-3.56.2c0 0-1 2.25.87 2.84a3 3 0 0 0 2.14 0s-1.66-1.42.55-3.04zM96.55 85.7s-1.34-1.73-2.37 0c0 0-.76 1.42.5 1.88a2 2 0 0 0 1.42.1s-1.1-1.02.45-1.98zM68.82 90.56s-3.48-.93-1.43-3.62c0 0 1.75-2.07 3.21-.45a3.24 3.24 0 0 1 1 2.11s-2.19-.98-2.78 1.96zM72.09 92.67s-2.38.13-1.7-1.95c0 0 .63-1.64 1.9-.93a2.21 2.21 0 0 1 1.1 1.1s-1.59-.16-1.3 1.78zM111.39 49.89s-1.14-2.63-3.21-.57c0 0-1.58 1.72-.05 2.63a2.69 2.69 0 0 0 1.89.47s-1.02-1.6 1.37-2.53zM113.75 51.54a1.22 1.22 0 0 0-2.1-.5s-1.08 1.06-.1 1.72a1.81 1.81 0 0 0 1.23.38s-.65-1.14.97-1.6zM22.65 43.52c.28 1.32 1.38 2.51 4.11 3.11a27.43 27.43 0 0 0 6 .08l2.69-17.33-.63-.38s-3.11-1.88-6 2.52l-4 6.47s-2.63 3-2.09 5.58"/><path class="blue-stroke" d="M22.58 42.67a2 2 0 0 0 .59.87c1.09 1 3 .62 4.2-.78s1.34-3.3.25-4.27a4.68 4.68 0 0 1-1.24-3.18s-4.5 5.19-3.8 7.36zM31.92 40.67s-6.43 1.18-4-7.59"/></svg>