<svg xmlns="http://www.w3.org/2000/svg" xmlns:xlink="http://www.w3.org/1999/xlink" width="116.54" height="158.53" viewBox="0 0 116.54 158.53">
  <defs>
    <clipPath id="clip-path" transform="translate(-1.32 -10.81)">
      <polygon points="7.17 171.89 7.28 110.45 102.06 97.13 101.94 158.57 7.17 171.89" style="fill: none"/>
    </clipPath>
    <clipPath id="clip-path-2" transform="translate(-1.32 -10.81)">
      <polygon points="113.83 169.9 18.65 159.9 15.39 99.12 110.57 109.12 113.83 169.9" style="fill: none"/>
    </clipPath>
    <clipPath id="clip-path-3" transform="translate(-1.32 -10.81)">
      <rect y="97.89" width="102.22" height="75.41" style="fill: none"/>
    </clipPath>
    <clipPath id="clip-path-4" transform="translate(-1.32 -10.81)">
      <polyline points="0 173.31 98.84 162.64 102.22 97.89 3.38 108.56 0 173.31" style="fill: none"/>
    </clipPath>
    <clipPath id="clip-path-5" transform="translate(-1.32 -10.81)">
      <polygon points="12.66 118.79 25.57 71.03 116.57 58.24 103.66 106 12.66 118.79" style="fill: none"/>
    </clipPath>
    <clipPath id="clip-path-6" transform="translate(-1.32 -10.81)">
      <polyline points="103.66 106 17.49 111.61 25.57 71.03 111.73 65.41 103.66 106" style="fill: none"/>
    </clipPath>
    <clipPath id="clip-path-7" transform="translate(-1.32 -10.81)">
      <polygon points="9.35 83.08 10.01 47.56 98.66 35.1 98 70.62 9.35 83.08" style="fill: none"/>
    </clipPath>
    <clipPath id="clip-path-8" transform="translate(-1.32 -10.81)">
      <polyline points="9.35 83.08 26.29 49.31 98.66 35.1 81.71 68.87 9.35 83.08" style="fill: none"/>
    </clipPath>
    <clipPath id="clip-path-9" transform="translate(-1.32 -10.81)">
      <polygon points="31.11 33.02 3.63 13 96.11 0 123.6 20.03 31.11 33.02" style="fill: none"/>
    </clipPath>
    <clipPath id="clip-path-10" transform="translate(-1.32 -10.81)">
      <polyline points="31.11 33.02 20.92 15.61 96.11 0 106.3 17.41 31.11 33.02" style="fill: none"/>
    </clipPath>
    <clipPath id="clip-path-11" transform="translate(-1.32 -10.81)">
      <polyline points="106.3 17.41 32.16 30.05 20.92 15.61 95.06 2.98 106.3 17.41" style="fill: none"/>
    </clipPath>
  </defs>
  <title>icon-credit-cards-falling</title>
  <g id="Layer_2" data-name="Layer 2">
    <g id="Home_-_1200" data-name="Home - 1200">
      <g id="Web_Security" data-name="Web Security">
        <g id="Illustration">
          <g id="Hacker">
            <g id="Cards">
              <g>
                <g>
                  <path d="M77,163.44,12.49,126.19c-.65-.37-.56-1,.18-1.46l37-21.34a2.83,2.83,0,0,1,2.53-.11l64.53,37.26c.65.37.56,1-.18,1.46l-37,21.34A2.83,2.83,0,0,1,77,163.44Z" transform="translate(-1.32 -10.81)" style="fill: #fff;stroke: #3f4563;stroke-linecap: round;stroke-linejoin: round"/>
                  <polygon points="103.29 138.06 36.41 99.45 41.61 96.44 108.49 135.06 103.29 138.06" style="fill: none;stroke: #3f4563;stroke-linecap: round;stroke-linejoin: round"/>
                  <polygon points="77.64 146.35 63.62 138.26 69.47 134.88 83.49 142.97 77.64 146.35" style="fill: none;stroke: #3f4563;stroke-linecap: round;stroke-linejoin: round"/>
                  <line x1="79.97" y1="132.93" x2="91.55" y2="139.52" style="fill: none;stroke: #3f4563;stroke-linecap: round;stroke-linejoin: round;stroke-dasharray: 1.7736260890960693,2.6604392528533936"/>
                  <line x1="61.3" y1="129.7" x2="28.42" y2="110.62" style="fill: none;stroke: #3f4563;stroke-linecap: round;stroke-linejoin: round"/>
                  <line x1="49.95" y1="130.24" x2="22.28" y2="114.16" style="fill: none;stroke: #3f4563;stroke-linecap: round;stroke-linejoin: round;stroke-dasharray: 1.7736260890960693,2.6604392528533936"/>
                </g>
                <path d="M11.94,127.92l-.07-1.58.27-.48a.94.94,0,0,0,.35.33L77,163.44a2.83,2.83,0,0,0,2.53-.11l37-21.34a1.1,1.1,0,0,0,.61-.75l.23.39-.14,2h0c-.05.25-.36.46-.71.66l-37,21.34a2.83,2.83,0,0,1-2.53.11L12.49,128.48a.94.94,0,0,1-.35-.33" transform="translate(-1.32 -10.81)" style="fill: #fff;stroke: #3f4563;stroke-linecap: round;stroke-linejoin: round"/>
              </g>
              <g style="isolation: isolate">
                <g style="clip-path: url(#clip-path)">
                  <g>
                    <path d="M60.09,145l-4.32,3.3,11.57,5.59,4.32-3.29L60.09,145m19.64,1.62a.4.4,0,0,1-.22,0l0,0a.45.45,0,0,1-.17-.62.52.52,0,0,1,.39-.3.4.4,0,0,1,.22,0h0a.46.46,0,0,1,.17.63.52.52,0,0,1-.39.3m-2.07-1a.39.39,0,0,1-.22,0L76.07,145a.46.46,0,0,1-.17-.63.52.52,0,0,1,.38-.3.37.37,0,0,1,.22,0l1.38.65a.46.46,0,0,1,.17.62.54.54,0,0,1-.39.3m-3.43-1.62a.37.37,0,0,1-.22,0l-1.38-.65a.46.46,0,0,1-.17-.62.54.54,0,0,1,.39-.3.37.37,0,0,1,.22,0l1.38.65a.46.46,0,0,1,.16.63.52.52,0,0,1-.38.3M67.33,155a.38.38,0,0,1-.22,0l-12.46-6a.43.43,0,0,1-.22-.39.59.59,0,0,1,.23-.45l5.21-4a.47.47,0,0,1,.22-.1.41.41,0,0,1,.23,0l12.46,6a.41.41,0,0,1,.22.38.57.57,0,0,1-.22.45l-5.21,4a.5.5,0,0,1-.23.1m3.47-12.53a.4.4,0,0,1-.22,0l-1.37-.65a.46.46,0,0,1-.17-.63.52.52,0,0,1,.39-.3.4.4,0,0,1,.22,0l1.37.65a.45.45,0,0,1,.17.62.52.52,0,0,1-.39.3m-28.08.52a.37.37,0,0,1-.22,0l-1.37-.66a.47.47,0,0,1-.16-.63.54.54,0,0,1,.39-.29.38.38,0,0,1,.22,0l1.36.66a.46.46,0,0,1,.17.63.53.53,0,0,1-.39.3m-3.42-1.66a.37.37,0,0,1-.22,0l-1.37-.66a.47.47,0,0,1-.16-.63.53.53,0,0,1,.39-.3.37.37,0,0,1,.22,0l1.36.66a.45.45,0,0,1,.17.62.54.54,0,0,1-.39.3m-3.41-1.66a.36.36,0,0,1-.22,0l-1.37-.66a.47.47,0,0,1-.16-.63.54.54,0,0,1,.39-.29.38.38,0,0,1,.22,0l1.36.66a.46.46,0,0,1,.17.63.55.55,0,0,1-.39.29M32.49,138a.37.37,0,0,1-.22,0l-1.37-.66a.47.47,0,0,1-.16-.63.53.53,0,0,1,.39-.3.37.37,0,0,1,.22,0l1.36.66a.45.45,0,0,1,.17.62.54.54,0,0,1-.39.3m-3.41-1.66a.36.36,0,0,1-.22,0l-1.37-.66a.47.47,0,0,1-.16-.63.54.54,0,0,1,.39-.29.38.38,0,0,1,.22,0l1.36.66a.46.46,0,0,1,.17.63.55.55,0,0,1-.39.29m-3.41-1.66a.37.37,0,0,1-.22,0l-1.37-.66a.47.47,0,0,1-.16-.63.53.53,0,0,1,.39-.3.37.37,0,0,1,.22,0l1.36.66a.45.45,0,0,1,.17.62.54.54,0,0,1-.39.3M22.27,133a.37.37,0,0,1-.22,0l-1.37-.66a.47.47,0,0,1-.16-.63.54.54,0,0,1,.39-.29.38.38,0,0,1,.22,0l1.36.66a.46.46,0,0,1,.17.63.53.53,0,0,1-.39.3m-3.42-1.66a.37.37,0,0,1-.22,0l-.74-.36a.46.46,0,0,1-.17-.63.54.54,0,0,1,.39-.3.37.37,0,0,1,.22,0l.75.37a.46.46,0,0,1,.16.63.54.54,0,0,1-.39.3m34,9.68a.38.38,0,0,1-.22,0L23.37,126.75a.46.46,0,0,1-.16-.63.51.51,0,0,1,.38-.29.39.39,0,0,1,.23,0L53,140.08a.46.46,0,0,1,.17.63.54.54,0,0,1-.39.29m-22.1-25.87L8.62,132a1,1,0,0,0-.27.29l0,.14s0,.08.16.17L65.83,160.3a1.32,1.32,0,0,0,.71.07h.09a2.27,2.27,0,0,0,1-.42L89.3,143.43,30.72,115.13m4.64-3.54-2.44,1.86-1.31,1,58.57,28.3,3.74-2.85-58.56-28.3m7.26-5.15a2.39,2.39,0,0,0-1.06.43l-5.31,4,58.56,28.3,5.76-4.39a1.18,1.18,0,0,0,.27-.28l.06-.15s0-.08-.17-.17L43.37,106.51a1.42,1.42,0,0,0-.75-.07" transform="translate(-1.32 -10.81)" style="fill: #fff"/>
                    <path d="M31.23,113.64l-23,17.58a2.38,2.38,0,0,0-.55.59,1.4,1.4,0,0,0-.23.73,1,1,0,0,0,0,.26l.1-.21a.53.53,0,0,1,.38-.3.37.37,0,0,1,.38.18.37.37,0,0,0,.15.12c-.17-.09-.16-.14-.16-.17l0-.14a1,1,0,0,1,.27-.29l22.1-16.86L30.5,115a.41.41,0,0,1-.22-.38.57.57,0,0,1,.22-.45l.72-.55m4.13-2-2.43,1.86,2.44-1.86h0m7.26-6.11a3.3,3.3,0,0,0-1.51.62l-6,4.54a.47.47,0,0,1,.2-.08.38.38,0,0,1,.22,0l.67.32,5.31-4a2.39,2.39,0,0,1,1.06-.43,1.42,1.42,0,0,1,.75.07l57.37,27.72c.17.09.16.15.17.17l-.06.15a1.18,1.18,0,0,1-.27.28c.26-.19.33-.37.33-.41a.55.55,0,0,1,.35-.46l.08,0a.38.38,0,0,1,.39.19l.06.11a1,1,0,0,0-.61-.89L43.82,105.61a2.15,2.15,0,0,0-1.2-.13" transform="translate(-1.32 -10.81)" style="fill: #3f4563"/>
                    <path d="M35.36,110.56a.47.47,0,0,0-.2.08h0l-3.91,3-.72.55a.57.57,0,0,0-.22.45.41.41,0,0,0,.22.38l.22.11L89.3,143.43l.89-.68-58.57-28.3,1.31-1,2.43-1.86h0l58.56,28.3.89-.68-58.56-28.3-.67-.32a.38.38,0,0,0-.22,0" transform="translate(-1.32 -10.81)" style="fill: #3f4563"/>
                    <path d="M67.34,153.92l-11.57-5.59,4.32-3.3,11.57,5.59-4.32,3.29M60.09,144a.47.47,0,0,0-.22.1l-5.21,4a.59.59,0,0,0-.23.45.43.43,0,0,0,.22.39l12.46,6a.38.38,0,0,0,.22,0,.5.5,0,0,0,.23-.1l5.21-4a.57.57,0,0,0,.22-.45.41.41,0,0,0-.22-.38l-12.46-6a.41.41,0,0,0-.23,0" transform="translate(-1.32 -10.81)" style="fill: #3f4563"/>
                    <path d="M79.71,145.69a.52.52,0,0,0-.39.3.45.45,0,0,0,.17.62l0,0a.4.4,0,0,0,.22,0,.52.52,0,0,0,.39-.3.46.46,0,0,0-.17-.63h0a.4.4,0,0,0-.22,0m-3.43-1.63a.52.52,0,0,0-.38.3.46.46,0,0,0,.17.63l1.37.65a.39.39,0,0,0,.22,0,.54.54,0,0,0,.39-.3.46.46,0,0,0-.17-.62l-1.38-.65a.37.37,0,0,0-.22,0m-3.42-1.62a.54.54,0,0,0-.39.3.46.46,0,0,0,.17.62L74,144a.37.37,0,0,0,.22,0,.52.52,0,0,0,.38-.3.46.46,0,0,0-.16-.63l-1.38-.65a.37.37,0,0,0-.22,0m-3.43-1.63a.52.52,0,0,0-.39.3.46.46,0,0,0,.17.63l1.37.65a.4.4,0,0,0,.22,0,.52.52,0,0,0,.39-.3.45.45,0,0,0-.17-.62l-1.37-.65a.4.4,0,0,0-.22,0" transform="translate(-1.32 -10.81)" style="fill: #3f4563"/>
                    <path d="M23.6,125.82a.51.51,0,0,0-.38.29.46.46,0,0,0,.16.63L52.6,141a.38.38,0,0,0,.22,0,.54.54,0,0,0,.39-.29.46.46,0,0,0-.17-.63L23.83,125.86a.39.39,0,0,0-.23,0" transform="translate(-1.32 -10.81)" style="fill: #3f4563"/>
                    <path d="M41.36,141.32a.54.54,0,0,0-.39.29.47.47,0,0,0,.16.63l1.37.66a.37.37,0,0,0,.22,0,.53.53,0,0,0,.39-.3.46.46,0,0,0-.17-.63l-1.36-.66a.38.38,0,0,0-.22,0M38,139.66a.53.53,0,0,0-.39.3.47.47,0,0,0,.16.63l1.37.66a.37.37,0,0,0,.22,0,.54.54,0,0,0,.39-.3.45.45,0,0,0-.17-.62l-1.36-.66a.37.37,0,0,0-.22,0M34.55,138a.54.54,0,0,0-.39.29.47.47,0,0,0,.16.63l1.37.66a.36.36,0,0,0,.22,0,.55.55,0,0,0,.39-.29.46.46,0,0,0-.17-.63L34.77,138a.38.38,0,0,0-.22,0m-3.41-1.66a.53.53,0,0,0-.39.3.47.47,0,0,0,.16.63l1.37.66a.37.37,0,0,0,.22,0,.54.54,0,0,0,.39-.3.45.45,0,0,0-.17-.62l-1.36-.66a.37.37,0,0,0-.22,0m-3.4-1.66a.54.54,0,0,0-.39.29.47.47,0,0,0,.16.63l1.37.66a.36.36,0,0,0,.22,0,.55.55,0,0,0,.39-.29.46.46,0,0,0-.17-.63l-1.36-.66a.38.38,0,0,0-.22,0M24.32,133a.53.53,0,0,0-.39.3.47.47,0,0,0,.16.63l1.37.66a.37.37,0,0,0,.22,0,.54.54,0,0,0,.39-.3.45.45,0,0,0-.17-.62l-1.36-.66a.37.37,0,0,0-.22,0m-3.4-1.66a.54.54,0,0,0-.39.29.47.47,0,0,0,.16.63l1.37.66a.37.37,0,0,0,.22,0,.53.53,0,0,0,.39-.3.46.46,0,0,0-.17-.63l-1.36-.66a.38.38,0,0,0-.22,0M18.12,130a.54.54,0,0,0-.39.3.46.46,0,0,0,.17.63l.74.36a.37.37,0,0,0,.22,0,.54.54,0,0,0,.39-.3.46.46,0,0,0-.16-.63l-.75-.37a.37.37,0,0,0-.22,0" transform="translate(-1.32 -10.81)" style="fill: #3f4563"/>
                    <path d="M8.15,133.55l0,1a.37.37,0,0,1,.12.12.37.37,0,0,0,.15.13l57.37,27.71a1.42,1.42,0,0,0,.76.07,2.36,2.36,0,0,0,1-.42L100.57,137a2.23,2.23,0,0,0,.4-.36l.08-1.1,0,0L68.09,160.72a3.39,3.39,0,0,1-1.5.62,2.11,2.11,0,0,1-1.2-.14L8.15,133.55" transform="translate(-1.32 -10.81)" style="fill: #fff"/>
                    <path d="M8.19,134.55l0-1L65.39,161.2a2.11,2.11,0,0,0,1.2.14,3.39,3.39,0,0,0,1.5-.62L101,135.6l0,0-.08,1.1a2.23,2.23,0,0,1-.4.36L67.64,162.16a2.36,2.36,0,0,1-1,.42,1.42,1.42,0,0,1-.76-.07L8.46,134.8a.37.37,0,0,1-.15-.13.37.37,0,0,0-.12-.12m-.26-2.26a.53.53,0,0,0-.38.3l-.1.21-.14.29a.52.52,0,0,0-.06.27l.06,1.5a.4.4,0,0,0,.21.36l0,.06a1.07,1.07,0,0,0,.47.42L65.38,163.4a2,2,0,0,0,1.2.14,3.29,3.29,0,0,0,1.5-.62L101,137.8a3.93,3.93,0,0,0,.48-.42,1.32,1.32,0,0,0,.37-.65.55.55,0,0,0,0-.17l.12-1.84a.46.46,0,0,0-.06-.26l-.14-.24-.06-.11a.38.38,0,0,0-.39-.19l-.08,0a.55.55,0,0,0-.35.46s-.07.22-.33.41l-5.76,4.39-.89.68-3.74,2.85-.89.68L67.64,159.95a2.27,2.27,0,0,1-1,.42h-.09a1.32,1.32,0,0,1-.71-.07L8.46,132.58a.37.37,0,0,1-.15-.12.37.37,0,0,0-.38-.18" transform="translate(-1.32 -10.81)" style="fill: #3f4563"/>
                  </g>
                </g>
              </g>
              <g style="isolation: isolate">
                <g style="clip-path: url(#clip-path-2)">
                  <g>
                    <path d="M70.73,146.26l12,8.36-4.19,2.21-12-8.36,4.19-2.2m20,6.41a.36.36,0,0,0,.38-.2.54.54,0,0,0-.2-.67h0a.47.47,0,0,0-.22-.08.36.36,0,0,0-.37.2.53.53,0,0,0,.2.66l0,0a.5.5,0,0,0,.23.09m-2.16-1.49a.36.36,0,0,0,.37-.2.53.53,0,0,0-.2-.66l-1.43-1a.48.48,0,0,0-.22-.08.38.38,0,0,0-.38.2.55.55,0,0,0,.2.67l1.43,1a.48.48,0,0,0,.22.08M85,148.75a.36.36,0,0,0,.38-.2.54.54,0,0,0-.2-.67l-1.42-1a.5.5,0,0,0-.23-.09.36.36,0,0,0-.38.2.54.54,0,0,0,.2.66l1.42,1a.5.5,0,0,0,.23.09m-6.38,9.1a.37.37,0,0,0,.22,0l5.06-2.66a.4.4,0,0,0,.2-.39.56.56,0,0,0-.25-.43l-12.94-9a.48.48,0,0,0-.22-.09.37.37,0,0,0-.22,0l-5.06,2.66a.41.41,0,0,0-.2.39.6.6,0,0,0,.25.44l12.94,9a.48.48,0,0,0,.22.09m2.82-11.55a.36.36,0,0,0,.38-.2.54.54,0,0,0-.2-.66l-1.42-1a.5.5,0,0,0-.23-.09.36.36,0,0,0-.38.2.54.54,0,0,0,.2.67l1.42,1a.5.5,0,0,0,.23.09M53,139.95a.36.36,0,0,0,.37-.2.53.53,0,0,0-.2-.67l-1.41-1a.5.5,0,0,0-.23-.09.37.37,0,0,0-.37.19.53.53,0,0,0,.2.67l1.41,1a.49.49,0,0,0,.23.09m-3.55-2.48a.36.36,0,0,0,.38-.2.52.52,0,0,0-.2-.66l-1.41-1a.49.49,0,0,0-.23-.09.36.36,0,0,0-.37.2.53.53,0,0,0,.2.67l1.41,1a.5.5,0,0,0,.23.09M46,135a.37.37,0,0,0,.37-.2.53.53,0,0,0-.2-.67l-1.41-1a.5.5,0,0,0-.23-.09.37.37,0,0,0-.37.19.53.53,0,0,0,.2.67l1.41,1A.48.48,0,0,0,46,135m-3.54-2.48a.36.36,0,0,0,.38-.2.52.52,0,0,0-.2-.66l-1.41-1a.49.49,0,0,0-.23-.09.36.36,0,0,0-.37.2.53.53,0,0,0,.2.67l1.41,1a.5.5,0,0,0,.23.09M38.87,130a.37.37,0,0,0,.37-.2.53.53,0,0,0-.2-.67l-1.41-1a.5.5,0,0,0-.23-.09.37.37,0,0,0-.37.19.53.53,0,0,0,.2.67l1.41,1a.48.48,0,0,0,.23.09m-3.54-2.48a.36.36,0,0,0,.38-.2.52.52,0,0,0-.2-.66l-1.41-1a.49.49,0,0,0-.23-.09.36.36,0,0,0-.37.2.53.53,0,0,0,.2.67l1.41,1a.5.5,0,0,0,.23.09m-3.53-2.47a.36.36,0,0,0,.37-.2.53.53,0,0,0-.2-.67l-1.41-1a.5.5,0,0,0-.23-.09.37.37,0,0,0-.37.19.53.53,0,0,0,.2.67l1.41,1a.49.49,0,0,0,.23.09m-3.55-2.48a.36.36,0,0,0,.38-.2.52.52,0,0,0-.2-.66l-.77-.55a.47.47,0,0,0-.22-.08.38.38,0,0,0-.38.2.55.55,0,0,0,.2.67l.77.54a.5.5,0,0,0,.23.09m34.9,17.89a.37.37,0,0,0,.37-.19.53.53,0,0,0-.2-.67L33,118.42a.47.47,0,0,0-.23-.09.37.37,0,0,0-.37.2.55.55,0,0,0,.2.67l30.35,21.22a.5.5,0,0,0,.23.09m-23.78-31,60.82,42.33-21,11a1.86,1.86,0,0,1-1,.17H78.1a1.6,1.6,0,0,1-.72-.25L17.8,121.31c-.17-.13-.17-.18-.18-.21l0-.12a.67.67,0,0,1,.26-.22l21.44-11.28m4.5-2.37,60.82,42.33-3.63,1.91L40.24,109l1.27-.67,2.36-1.24m7.05-3.32a1.75,1.75,0,0,1,.77.25l59.58,41.47c.17.13.17.19.17.21l0,.12a.54.54,0,0,1-.14.15l-.13.08L105.55,149,44.74,106.67,49.88,104a1.92,1.92,0,0,1,1-.16" transform="translate(-1.32 -10.81)" style="fill: #fff"/>
                    <path d="M111.27,146l-.13.08.13-.08M39.8,108.14l-.7.37a.4.4,0,0,0-.2.39.58.58,0,0,0,.25.43l.23.16L17.93,120.76a.67.67,0,0,0-.26.22l0,.12s0,.08.18.21a.41.41,0,0,1-.16-.15.54.54,0,0,0-.4-.27.37.37,0,0,0-.37.2l-.09.19a1.14,1.14,0,0,1,0-.26,1.07,1.07,0,0,1,.19-.67,1.44,1.44,0,0,1,.53-.45L39.8,108.14m4.07-1h0l-2.36,1.24,2.36-1.24m7-4.27a2.62,2.62,0,0,1,1.22.43l59.58,41.47a1.44,1.44,0,0,1,.66,1l-.07-.12a.52.52,0,0,0-.4-.28h-.08a.38.38,0,0,0-.33.37.2.2,0,0,1,0,.1l0-.12s0-.08-.17-.21L51.7,104a1.75,1.75,0,0,0-.77-.25,1.92,1.92,0,0,0-1,.16l-5.15,2.71-.69-.48a.51.51,0,0,0-.23-.09.38.38,0,0,0-.2,0l5.78-3a2.65,2.65,0,0,1,1.48-.24" transform="translate(-1.32 -10.81)" style="fill: #3f4563"/>
                    <path d="M43.81,106.1a.51.51,0,0,1,.23.09l.69.48L105.55,149l-.86.45L43.87,107.12h0l-2.36,1.24-1.27.67,60.82,42.33-.86.45L39.37,109.49l-.23-.16a.58.58,0,0,1-.25-.43.4.4,0,0,1,.2-.39l.7-.37,3.79-2h0a.38.38,0,0,1,.2,0" transform="translate(-1.32 -10.81)" style="fill: #3f4563"/>
                    <path d="M78.58,157.38l-.24-.43.24.43m0-.55,4.19-2.21-12-8.36-4.19,2.2,12,8.36m-7.88-11.59a.48.48,0,0,1,.22.09l12.94,9a.56.56,0,0,1,.25.43.4.4,0,0,1-.2.39l-5.06,2.66a.37.37,0,0,1-.22,0,.48.48,0,0,1-.22-.09l-12.94-9a.6.6,0,0,1-.25-.44.41.41,0,0,1,.2-.39l5.06-2.66a.37.37,0,0,1,.22,0" transform="translate(-1.32 -10.81)" style="fill: #3f4563"/>
                    <path d="M90.62,151.71a.47.47,0,0,1,.22.08h0a.54.54,0,0,1,.2.67.36.36,0,0,1-.38.2.5.5,0,0,1-.23-.09l0,0a.53.53,0,0,1-.2-.66.36.36,0,0,1,.37-.2m-3.56-2.45a.48.48,0,0,1,.22.08l1.43,1a.53.53,0,0,1,.2.66.36.36,0,0,1-.37.2.48.48,0,0,1-.22-.08l-1.43-1a.55.55,0,0,1-.2-.67.38.38,0,0,1,.38-.2m-3.56-2.44a.5.5,0,0,1,.23.09l1.42,1a.54.54,0,0,1,.2.67.36.36,0,0,1-.38.2.5.5,0,0,1-.23-.09l-1.42-1a.54.54,0,0,1-.2-.66.36.36,0,0,1,.38-.2M80,144.37a.5.5,0,0,1,.23.09l1.42,1a.54.54,0,0,1,.2.66.36.36,0,0,1-.38.2.5.5,0,0,1-.23-.09l-1.42-1a.54.54,0,0,1-.2-.67.36.36,0,0,1,.38-.2" transform="translate(-1.32 -10.81)" style="fill: #3f4563"/>
                    <path d="M32.74,118.33a.47.47,0,0,1,.23.09l30.36,21.22a.53.53,0,0,1,.2.67.37.37,0,0,1-.37.19.5.5,0,0,1-.23-.09L32.57,119.19a.55.55,0,0,1-.2-.67.37.37,0,0,1,.37-.2" transform="translate(-1.32 -10.81)" style="fill: #3f4563"/>
                    <path d="M51.57,138a.5.5,0,0,1,.23.09l1.41,1a.53.53,0,0,1,.2.67.36.36,0,0,1-.37.2.49.49,0,0,1-.23-.09l-1.41-1a.53.53,0,0,1-.2-.67.37.37,0,0,1,.37-.19M48,135.53a.49.49,0,0,1,.23.09l1.41,1a.52.52,0,0,1,.2.66.36.36,0,0,1-.38.2.5.5,0,0,1-.23-.09l-1.41-1a.53.53,0,0,1-.2-.67.36.36,0,0,1,.37-.2m-3.54-2.47a.5.5,0,0,1,.23.09l1.41,1a.53.53,0,0,1,.2.67.37.37,0,0,1-.37.2.48.48,0,0,1-.23-.09l-1.41-1a.53.53,0,0,1-.2-.67.37.37,0,0,1,.37-.19m-3.55-2.48a.49.49,0,0,1,.23.09l1.41,1a.52.52,0,0,1,.2.66.36.36,0,0,1-.38.2.5.5,0,0,1-.23-.09l-1.41-1a.53.53,0,0,1-.2-.67.36.36,0,0,1,.37-.2m-3.54-2.47a.5.5,0,0,1,.23.09l1.41,1a.53.53,0,0,1,.2.67.37.37,0,0,1-.37.2.48.48,0,0,1-.23-.09l-1.41-1a.53.53,0,0,1-.2-.67.37.37,0,0,1,.37-.19m-3.55-2.48a.49.49,0,0,1,.23.09l1.41,1a.52.52,0,0,1,.2.66.36.36,0,0,1-.38.2.5.5,0,0,1-.23-.09l-1.41-1a.53.53,0,0,1-.2-.67.36.36,0,0,1,.37-.2m-3.54-2.47a.5.5,0,0,1,.23.09l1.41,1a.53.53,0,0,1,.2.67.36.36,0,0,1-.37.2.49.49,0,0,1-.23-.09l-1.41-1a.53.53,0,0,1-.2-.67.37.37,0,0,1,.37-.19m-2.89-2a.47.47,0,0,1,.22.08l.77.55a.52.52,0,0,1,.2.66.36.36,0,0,1-.38.2.5.5,0,0,1-.23-.09l-.77-.54a.55.55,0,0,1-.2-.67.38.38,0,0,1,.38-.2" transform="translate(-1.32 -10.81)" style="fill: #3f4563"/>
                    <path d="M17.53,122.19,77,163.55a2.68,2.68,0,0,0,1.22.43,2.71,2.71,0,0,0,1.48-.24l32-16.8,0,0,0,1.06,0,.06a2,2,0,0,1-.34.21l-31.95,16.8a2,2,0,0,1-1,.16,1.72,1.72,0,0,1-.77-.26L17.92,123.5a.48.48,0,0,1-.16-.16.6.6,0,0,0-.13-.15l-.1-1" transform="translate(-1.32 -10.81)" style="fill: #fff"/>
                    <path d="M78.19,164a2.68,2.68,0,0,1-1.22-.43L17.53,122.19l.1,1a.6.6,0,0,1,.13.15.48.48,0,0,0,.16.16L77.49,165a1.72,1.72,0,0,0,.77.26,2,2,0,0,0,1-.16l31.95-16.8a2,2,0,0,0,.34-.21l0-.06,0-1.06,0,0-32,16.8a2.71,2.71,0,0,1-1.48.24m-61-43.1a.54.54,0,0,1,.4.27.41.41,0,0,0,.16.15l59.58,41.47a1.6,1.6,0,0,0,.72.25h.09a1.86,1.86,0,0,0,1-.17l21-11,.86-.45,3.63-1.91.86-.45,5.58-2.94.13-.08a.54.54,0,0,0,.14-.15.2.2,0,0,0,0-.1.38.38,0,0,1,.33-.37h.08a.52.52,0,0,1,.4.28l.07.12.16.28a.54.54,0,0,1,.07.27l0,1.8a.51.51,0,0,1,0,.15.87.87,0,0,1-.33.55,2.56,2.56,0,0,1-.46.3l-32,16.8a2.63,2.63,0,0,1-1.48.24,2.59,2.59,0,0,1-1.22-.43L17.51,124.27a1.74,1.74,0,0,1-.5-.53l0-.07a.56.56,0,0,1-.22-.4l-.14-1.5a.42.42,0,0,1,0-.25l.12-.25.09-.19a.37.37,0,0,1,.37-.2" transform="translate(-1.32 -10.81)" style="fill: #3f4563"/>
                  </g>
                </g>
              </g>
              <g style="isolation: isolate">
                <g style="clip-path: url(#clip-path-3)">
                  <g style="clip-path: url(#clip-path-4)">
                    <path d="M44.76,148.1l4.41,2.39-12.54,9-4.41-2.38,12.54-9m-19.94,5.39h0l-.22.08-.71.5a.57.57,0,0,0-.24.45.48.48,0,0,0,0,.22l.06.09a.34.34,0,0,0,.26.11h0l.22-.09.72-.5a.56.56,0,0,0,.23-.44.43.43,0,0,0-.05-.21.34.34,0,0,0-.31-.2M28.28,151h0l-.22.08-1.38,1a.58.58,0,0,0-.25.45.49.49,0,0,0,0,.23l.06.08a.35.35,0,0,0,.26.11h0l.23-.08,1.39-1a.55.55,0,0,0,.24-.44.48.48,0,0,0,0-.22.36.36,0,0,0-.32-.2h0m3.47-2.44h0l-.22.08-1.38,1a.58.58,0,0,0-.25.45.49.49,0,0,0,0,.23l.06.09a.35.35,0,0,0,.26.11h0l.22-.09,1.39-1a.57.57,0,0,0,.24-.44.45.45,0,0,0,0-.21.35.35,0,0,0-.32-.2m18.73,1.74a.41.41,0,0,0-.19-.39L45,147.11l-.22,0-.22.08-13.44,9.6a.57.57,0,0,0-.24.43.4.4,0,0,0,.19.39l5.25,2.84.22,0,.22-.08,13.44-9.6a.57.57,0,0,0,.24-.44m-15.26-4.19h0l-.22.08-1.39,1a.59.59,0,0,0-.24.45.46.46,0,0,0,0,.22l.06.09a.35.35,0,0,0,.26.11h0L34,148l1.39-1a.59.59,0,0,0,.24-.45.46.46,0,0,0,0-.22.35.35,0,0,0-.32-.2h0m29.4-6.73h0l-.22.09-1.39,1a.61.61,0,0,0-.24.45.44.44,0,0,0,0,.21.41.41,0,0,0,.1.12.35.35,0,0,0,.22.08h0l.22-.09,1.38-1a.58.58,0,0,0,.25-.45.46.46,0,0,0,0-.22.37.37,0,0,0-.32-.2h0m3.46-2.47h0l-.23.09-1.38,1a.59.59,0,0,0-.24.45.46.46,0,0,0,0,.22.35.35,0,0,0,.1.12.37.37,0,0,0,.23.08h0l.23-.09,1.38-1a.59.59,0,0,0,.24-.45.45.45,0,0,0,0-.21.34.34,0,0,0-.31-.2m3.45-2.48h0l-.22.08-1.39,1a.59.59,0,0,0-.24.45.46.46,0,0,0,0,.22l.06.09a.34.34,0,0,0,.26.11h0l.23-.1,1.38-1a.57.57,0,0,0,.25-.44.46.46,0,0,0,0-.22.37.37,0,0,0-.32-.19h0M75,132h0l-.23.1-1.39,1a.56.56,0,0,0-.23.44.48.48,0,0,0,0,.22l.06.08a.34.34,0,0,0,.25.11h0l.22-.08,1.38-1a.61.61,0,0,0,.25-.46.46.46,0,0,0,0-.22A.36.36,0,0,0,75,132h0m3.44-2.47h0l-.21.09-1.39,1a.61.61,0,0,0-.24.45.44.44,0,0,0,0,.21l.06.09a.34.34,0,0,0,.26.11h0l.23-.09,1.38-1a.57.57,0,0,0,.24-.45.45.45,0,0,0,0-.22l-.06-.08h0a.38.38,0,0,0-.28-.11h0M81.86,127h0l-.22.09-1.39,1a.59.59,0,0,0-.24.45.46.46,0,0,0,0,.22.35.35,0,0,0,.14.15.36.36,0,0,0,.19.05h0l.22-.09,1.38-1a.59.59,0,0,0,.25-.45.44.44,0,0,0,0-.22.37.37,0,0,0-.32-.2h0m3.45-2.47h0l-.22.09-1.39,1a.58.58,0,0,0-.23.45.46.46,0,0,0,0,.22l.06.09a.34.34,0,0,0,.26.11h0l.23-.09,1.38-1a.57.57,0,0,0,.24-.45.5.5,0,0,0,0-.23.36.36,0,0,0-.32-.19m3.45-2.47h0l-.22.09-1.39,1a.59.59,0,0,0-.24.45.46.46,0,0,0,0,.22.33.33,0,0,0,.22.18h.15l.22-.08,1.38-1a.61.61,0,0,0,.25-.45.43.43,0,0,0,0-.21.37.37,0,0,0-.32-.2h0m-4.5-3.71h-.05l-.21.08L52.46,141.09a.61.61,0,0,0-.25.46.46.46,0,0,0,0,.22.37.37,0,0,0,.29.2h.08l.22-.1L84.4,119.23a.59.59,0,0,0,.24-.45.46.46,0,0,0,0-.22l-.06-.08h0a.36.36,0,0,0-.26-.1m-6.93-9.49,22.29,12a.76.76,0,0,1,.29.23l0,.15,0,.07-.05.07-.13.11L37.87,165.76a1.7,1.7,0,0,1-.82.29h-.24a1.86,1.86,0,0,1-.86-.19L14.07,154.06l63.26-45.18m-4.67-2.53,3.83,2.07L13.24,153.6l-3.83-2.06,63.25-45.19m-7.09-3.55a2.06,2.06,0,0,1,.68.11l.19.08,5.38,2.91L8.56,151.09,2.75,148a.72.72,0,0,1-.29-.26l0-.11v0s0-.11.19-.24l61.9-44.21a1.83,1.83,0,0,1,.82-.28h.23" transform="translate(-1.32 -10.81)" style="fill: #fff"/>
                    <path d="M75.56,106.79,100.1,120a1.48,1.48,0,0,1,.54.47,1.11,1.11,0,0,1,.18.7,1,1,0,0,1,0,.28l-.09-.19a.36.36,0,0,0-.32-.2h0a.52.52,0,0,0-.39.27l0-.07,0-.15a.76.76,0,0,0-.29-.23l-22.29-12,.23-.16a.6.6,0,0,0,.24-.43.4.4,0,0,0-.19-.39l-2.05-1.12m-2.89-.43,3.83,2.07-3.83-2.07m-6.91-4.5a2.43,2.43,0,0,1,1.16.27l6,3.24-.21,0-.22.08-.68.49L66.44,103l-.19-.08a2.06,2.06,0,0,0-.68-.11h-.23a1.83,1.83,0,0,0-.82.28L2.61,147.3c-.17.14-.18.2-.19.24a.38.38,0,0,0-.33-.33H2a.53.53,0,0,0-.39.29l-.06.12a1.55,1.55,0,0,1,.68-1.08l61.89-44.21a2.62,2.62,0,0,1,1.26-.45l.36,0" transform="translate(-1.32 -10.81)" style="fill: #3f4563"/>
                    <path d="M76.49,108.42l-3.83-2.07L9.41,151.54l3.83,2.06,63.25-45.18m-3.78-3.09.21,0h0l2.62,1.41,2.05,1.12a.4.4,0,0,1,.19.39.6.6,0,0,1-.24.43l-.23.16L14.07,154.06l-.62-.33-4.89-2.64L71.82,105.9l.68-.49.22-.08" transform="translate(-1.32 -10.81)" style="fill: #3f4563"/>
                    <path d="M36.6,160l.24-.43-.24.43m12.57-9.5-4.41-2.39-12.54,9,4.41,2.38,12.54-9m-4.36-3.4.22,0L50.28,150a.41.41,0,0,1,.19.39.57.57,0,0,1-.24.44l-13.44,9.6-.22.08-.22,0-5.25-2.84a.4.4,0,0,1-.19-.39.57.57,0,0,1,.24-.43l13.44-9.6.22-.08" transform="translate(-1.32 -10.81)" style="fill: #3f4563"/>
                    <path d="M24.82,153.48a.34.34,0,0,1,.31.2.43.43,0,0,1,.05.21.56.56,0,0,1-.23.44l-.72.5-.22.09h0a.34.34,0,0,1-.26-.11l-.06-.09a.48.48,0,0,1,0-.22.57.57,0,0,1,.24-.45l.71-.5.22-.08h0M28.28,151a.36.36,0,0,1,.32.2.48.48,0,0,1,0,.22.55.55,0,0,1-.24.44l-1.39,1-.23.08h0a.35.35,0,0,1-.26-.11l-.06-.08a.49.49,0,0,1,0-.23.58.58,0,0,1,.25-.45l1.38-1,.22-.08h0m3.47-2.44a.35.35,0,0,1,.32.2.45.45,0,0,1,0,.21.57.57,0,0,1-.24.44l-1.39,1-.22.09h0a.35.35,0,0,1-.26-.11l-.06-.09a.49.49,0,0,1,0-.23.58.58,0,0,1,.25-.45l1.38-1,.22-.08h0m3.46-2.45a.35.35,0,0,1,.32.2.46.46,0,0,1,0,.22.59.59,0,0,1-.24.45L34,148l-.22.09h0a.35.35,0,0,1-.26-.11l-.06-.09a.46.46,0,0,1,0-.22.59.59,0,0,1,.24-.45l1.39-1,.22-.08h0" transform="translate(-1.32 -10.81)" style="fill: #3f4563"/>
                    <path d="M84.26,118.37a.36.36,0,0,1,.26.1h0l.06.08a.46.46,0,0,1,0,.22.59.59,0,0,1-.24.45L52.84,141.86l-.22.1h-.08a.37.37,0,0,1-.29-.2.46.46,0,0,1,0-.22.61.61,0,0,1,.25-.46L84,118.46l.21-.08h.05" transform="translate(-1.32 -10.81)" style="fill: #3f4563"/>
                    <path d="M64.61,139.42a.37.37,0,0,1,.32.2.46.46,0,0,1,0,.22.58.58,0,0,1-.25.45l-1.38,1-.22.09h0a.35.35,0,0,1-.22-.08.41.41,0,0,1-.1-.12.44.44,0,0,1,0-.21.61.61,0,0,1,.24-.45l1.39-1,.22-.09h0m3.46-2.47a.34.34,0,0,1,.31.2.45.45,0,0,1,0,.21.59.59,0,0,1-.24.45l-1.38,1-.23.09h0a.37.37,0,0,1-.23-.08.35.35,0,0,1-.1-.12.46.46,0,0,1,0-.22.59.59,0,0,1,.24-.45l1.38-1,.23-.09h0m3.45-2.48a.37.37,0,0,1,.32.19.46.46,0,0,1,0,.22.57.57,0,0,1-.25.44l-1.38,1-.23.1h0a.34.34,0,0,1-.26-.11l-.06-.09a.46.46,0,0,1,0-.22.59.59,0,0,1,.24-.45l1.39-1,.22-.08h0M75,132h0a.36.36,0,0,1,.33.2.46.46,0,0,1,0,.22.61.61,0,0,1-.25.46l-1.38,1-.22.08h0a.34.34,0,0,1-.25-.11l-.06-.08a.48.48,0,0,1,0-.22.56.56,0,0,1,.23-.44l1.39-1,.23-.1h0m3.44-2.47h0a.38.38,0,0,1,.28.11h0l.06.08a.45.45,0,0,1,0,.22.57.57,0,0,1-.24.45l-1.38,1-.23.09h0a.34.34,0,0,1-.26-.11l-.06-.09a.44.44,0,0,1,0-.21.61.61,0,0,1,.24-.45l1.39-1,.21-.09h0M81.86,127a.37.37,0,0,1,.32.2.44.44,0,0,1,0,.22.59.59,0,0,1-.25.45l-1.38,1-.22.09h0a.36.36,0,0,1-.19-.05.35.35,0,0,1-.14-.15.46.46,0,0,1,0-.22.59.59,0,0,1,.24-.45l1.39-1,.22-.09h0m3.45-2.47a.36.36,0,0,1,.32.19.5.5,0,0,1,0,.23.57.57,0,0,1-.24.45l-1.38,1-.23.09h0a.34.34,0,0,1-.26-.11l-.06-.09a.46.46,0,0,1,0-.22.58.58,0,0,1,.23-.45l1.39-1,.22-.09h0m3.45-2.47a.37.37,0,0,1,.32.2.43.43,0,0,1,0,.21.61.61,0,0,1-.25.45l-1.38,1-.22.08h-.15a.33.33,0,0,1-.22-.18.46.46,0,0,1,0-.22.59.59,0,0,1,.24-.45l1.39-1,.22-.09h0" transform="translate(-1.32 -10.81)" style="fill: #3f4563"/>
                    <path d="M100.07,122.39l-.11,1.14-.14.17a.73.73,0,0,1-.18.17L37.74,168.1a1.79,1.79,0,0,1-.82.27h-.25a1.85,1.85,0,0,1-.84-.19L2.63,150.28a2.08,2.08,0,0,1-.35-.23L2.22,150l0-1.21.07,0,33.2,17.92a2.5,2.5,0,0,0,.87.26l.31,0h0l.35,0a2.59,2.59,0,0,0,1.25-.45l61.82-44.15" transform="translate(-1.32 -10.81)" style="fill: #fff"/>
                    <path d="M100.07,122.39,38.25,166.55A2.59,2.59,0,0,1,37,167l-.35,0h0l-.31,0a2.5,2.5,0,0,1-.87-.26L2.27,148.83l-.07,0,0,1.21.06.07a2.08,2.08,0,0,0,.35.23l33.2,17.92a1.85,1.85,0,0,0,.84.19h.25a1.79,1.79,0,0,0,.82-.27l61.89-44.23a.73.73,0,0,0,.18-.17l.14-.17.11-1.14m.31-1.29a.36.36,0,0,1,.32.2l.09.19.13.28,0,.24-.15,1.61a.62.62,0,0,1-.24.41l0,.06a1.61,1.61,0,0,1-.51.56l-61.9,44.22a2.66,2.66,0,0,1-1.17.44h-.42a2.53,2.53,0,0,1-1.19-.28L2.15,151.15a2.55,2.55,0,0,1-.47-.31.88.88,0,0,1-.33-.58v-.15l0-1.92a.66.66,0,0,1,.07-.28l.17-.3.06-.12a.53.53,0,0,1,.39-.29h.09a.38.38,0,0,1,.33.33v0l0,.11a.72.72,0,0,0,.29.26l5.81,3.14,4.89,2.64.62.33L36,165.87a1.86,1.86,0,0,0,.86.19h.24a1.7,1.7,0,0,0,.82-.29l61.89-44.21.13-.11.05-.07a.52.52,0,0,1,.39-.27h0" transform="translate(-1.32 -10.81)" style="fill: #3f4563"/>
                  </g>
                </g>
              </g>
              <g style="isolation: isolate">
                <g style="clip-path: url(#clip-path-5)">
                  <g style="clip-path: url(#clip-path-6)">
                    <path d="M68.13,95.64l-4.28,2,9.57,4.09,4.28-2-9.57-4.09m17.34,1.1h0l.19,0h0a.23.23,0,0,1,.15.27.37.37,0,0,1-.08.16.62.62,0,0,1-.22.14l-.15,0h0l-.18,0h0a.22.22,0,0,1-.15-.27.35.35,0,0,1,.08-.16.56.56,0,0,1,.34-.18m-2.83-1.18h0l.18,0,1.14.48a.23.23,0,0,1,.15.27.34.34,0,0,1-.09.15.52.52,0,0,1-.16.12.6.6,0,0,1-.19.06h0l-.18,0-1.15-.47a.24.24,0,0,1-.14-.3.36.36,0,0,1,.07-.12.62.62,0,0,1,.35-.18h0m-2.85-1.19h0l.19,0,1.14.47a.23.23,0,0,1,.15.27.35.35,0,0,1-.08.15.59.59,0,0,1-.21.14l-.14,0h0l-.18,0L79.52,95a.23.23,0,0,1-.15-.27.35.35,0,0,1,.08-.15.58.58,0,0,1,.34-.18h0m-17.17,3.4a.45.45,0,0,1,.26-.29L68.05,95l.21-.05.19,0,10.32,4.39a.22.22,0,0,1,.15.26.45.45,0,0,1-.26.29l-5.15,2.45-.21.05-.19,0L62.78,98a.22.22,0,0,1-.15-.26M77,93.17h0l.19,0,1.14.47a.24.24,0,0,1,.15.27.33.33,0,0,1-.08.15.58.58,0,0,1-.36.19h0l-.19,0-1.14-.47a.23.23,0,0,1-.15-.27.35.35,0,0,1,.08-.15.6.6,0,0,1,.36-.19h0m-25.09-.6h0l.19,0,1.13.48a.22.22,0,0,1,.15.27.37.37,0,0,1-.09.16l-.11.09a.62.62,0,0,1-.23.08h0l-.19,0-1.13-.48a.22.22,0,0,1-.15-.27.36.36,0,0,1,.09-.16.58.58,0,0,1,.34-.17m-2.81-1.22h0l.2,0,1.13.48a.23.23,0,0,1,.14.27.35.35,0,0,1-.09.15l-.07.07a.57.57,0,0,1-.27.11h0l-.2,0L48.77,92a.23.23,0,0,1-.14-.27.34.34,0,0,1,.09-.15.56.56,0,0,1,.35-.18m-2.83-1.21h0l.19,0,1.13.48a.22.22,0,0,1,.15.27.36.36,0,0,1-.09.15.52.52,0,0,1-.21.14l-.15,0h0l-.19,0L46,90.75a.22.22,0,0,1-.15-.27.36.36,0,0,1,.09-.15.58.58,0,0,1,.34-.18m-2.82-1.21h0l.19,0,1.13.48a.23.23,0,0,1,.15.27.34.34,0,0,1-.09.15.56.56,0,0,1-.35.18h0l-.2,0-1.13-.48a.22.22,0,0,1-.15-.27.34.34,0,0,1,.09-.15.56.56,0,0,1,.34-.18m-2.82-1.21h0l.19,0,1.13.48a.22.22,0,0,1,.15.27.36.36,0,0,1-.09.16l-.07.06a.59.59,0,0,1-.26.11h0l-.2,0-1.13-.48a.22.22,0,0,1-.14-.27.37.37,0,0,1,.09-.15.56.56,0,0,1,.34-.18h0m-2.8-1.22h0l.19,0,1.13.48a.23.23,0,0,1,.15.27.34.34,0,0,1-.09.15l-.07.07a.57.57,0,0,1-.27.11h0l-.2,0-1.13-.48a.22.22,0,0,1-.15-.27.34.34,0,0,1,.09-.15.58.58,0,0,1,.36-.19m-2.85-1.2h0l.2,0,1.13.48a.22.22,0,0,1,.14.27.37.37,0,0,1-.09.15l-.07.07a.57.57,0,0,1-.27.11h0l-.19,0-1.13-.48a.22.22,0,0,1-.15-.27.36.36,0,0,1,.09-.15l.11-.09a.57.57,0,0,1,.22-.08m-2.3-1h0l.18,0,.62.26a.22.22,0,0,1,.15.27.36.36,0,0,1-.09.15l-.07.07a.57.57,0,0,1-.27.11h0l-.2,0-.62-.26a.22.22,0,0,1-.14-.27.38.38,0,0,1,.09-.16.59.59,0,0,1,.34-.17h0m5.42-2.57h0l.19,0L62.49,92.14a.22.22,0,0,1,.15.27.36.36,0,0,1-.09.15.52.52,0,0,1-.24.15l-.1,0h0l-.19,0L37.79,82.34a.23.23,0,0,1-.15-.27.34.34,0,0,1,.08-.15.6.6,0,0,1,.34-.18m7.78-6.83L24,85.3a1.17,1.17,0,0,0-.28.18l-.07.09s0,.05.13.12l47.52,20.24a1.35,1.35,0,0,0,.62.08H72l.19,0a2.68,2.68,0,0,0,.78-.23L94.35,95.57,45.84,74.91m4.59-2.18L48,73.87l-1.3.62L95.23,95.15l3.7-1.76L50.43,72.72m6.92-3.14-.32.06a2.34,2.34,0,0,0-.47.16l-5.25,2.5L99.82,93l5.69-2.7.13-.06.16-.12.05-.08h0s0-.05-.12-.11L58.23,69.64a1.78,1.78,0,0,0-.67-.07l-.21,0" transform="translate(-1.32 -10.81)" style="fill: #fff"/>
                    <path d="M45.73,74.3,23.67,84.78a2,2,0,0,0-.57.37.92.92,0,0,0-.3.48v.17l.13-.14a.57.57,0,0,1,.34-.18h.06a.32.32,0,0,1,.3.13s0,.05.12.08c-.14-.06-.13-.1-.13-.12l.07-.09A1.17,1.17,0,0,1,24,85.3L45.84,74.91l-.19-.08a.23.23,0,0,1-.15-.26.43.43,0,0,1,.22-.27m4.71-1.58L48,73.87l2.41-1.14m7-3.76a3.89,3.89,0,0,0-1.12.33l-5.89,2.8.19,0,.2,0,.55.24,5.25-2.5a2.34,2.34,0,0,1,.47-.16l.32-.06.21,0a1.78,1.78,0,0,1,.67.07l47.51,20.24c.13.06.13.1.12.11h0l-.05.08.05-.07a.53.53,0,0,1,.38-.29h.09a.29.29,0,0,1,.31.14l0,.07a.58.58,0,0,0-.42-.61L58.74,69.06a2.24,2.24,0,0,0-.9-.14l-.3,0-.14,0" transform="translate(-1.32 -10.81)" style="fill: #3f4563"/>
                    <path d="M50.56,72l-.19,0h0l-3.87,1.84-.72.34,0,0a.43.43,0,0,0-.22.27.23.23,0,0,0,.15.26l.19.08L94.35,95.57l.88-.42L46.72,74.49l1.3-.62,2.41-1.14,48.5,20.66.89-.42L51.31,72.31l-.55-.24-.2,0" transform="translate(-1.32 -10.81)" style="fill: #3f4563"/>
                    <path d="M73.35,102.12l-.15-.26.15.26m-9.5-4.45,4.28-2,9.57,4.09-4.28,2-9.57-4.09M68.26,95l-.21.05-5.16,2.45a.45.45,0,0,0-.26.29.22.22,0,0,0,.15.26l10.31,4.39.19,0,.21-.05,5.15-2.45a.45.45,0,0,0,.26-.29.22.22,0,0,0-.15-.26L68.45,95l-.19,0" transform="translate(-1.32 -10.81)" style="fill: #3f4563"/>
                    <path d="M85.48,96.74a.56.56,0,0,0-.34.18.35.35,0,0,0-.08.16.22.22,0,0,0,.15.27h0l.18,0h0l.15,0a.62.62,0,0,0,.22-.14.37.37,0,0,0,.08-.16.23.23,0,0,0-.15-.27h0l-.19,0h0m-2.83-1.18a.62.62,0,0,0-.35.18.36.36,0,0,0-.07.12.24.24,0,0,0,.14.3l1.15.47.18,0h0a.6.6,0,0,0,.19-.06.52.52,0,0,0,.16-.12.34.34,0,0,0,.09-.15.23.23,0,0,0-.15-.27l-1.14-.48-.18,0h0m-2.85-1.19a.58.58,0,0,0-.34.18.35.35,0,0,0-.08.15.23.23,0,0,0,.15.27l1.14.48.18,0h0l.14,0a.59.59,0,0,0,.21-.14.35.35,0,0,0,.08-.15.23.23,0,0,0-.15-.27L80,94.39l-.19,0h0M77,93.17a.6.6,0,0,0-.36.19.35.35,0,0,0-.08.15.23.23,0,0,0,.15.27l1.14.47.19,0h0a.58.58,0,0,0,.36-.19.33.33,0,0,0,.08-.15.24.24,0,0,0-.15-.27l-1.14-.47-.19,0h0" transform="translate(-1.32 -10.81)" style="fill: #3f4563"/>
                    <path d="M38.06,81.73a.6.6,0,0,0-.34.18.34.34,0,0,0-.08.15.23.23,0,0,0,.15.27L62,92.71l.19,0h0l.1,0a.52.52,0,0,0,.24-.15.36.36,0,0,0,.09-.15.22.22,0,0,0-.15-.27L38.3,81.76l-.19,0h0" transform="translate(-1.32 -10.81)" style="fill: #3f4563"/>
                    <path d="M51.88,92.57a.58.58,0,0,0-.34.17.36.36,0,0,0-.09.16.22.22,0,0,0,.15.27l1.13.48.19,0h0a.62.62,0,0,0,.23-.08l.11-.09a.37.37,0,0,0,.09-.16.22.22,0,0,0-.15-.27l-1.13-.48-.19,0h0m-2.81-1.22a.56.56,0,0,0-.35.18.34.34,0,0,0-.09.15.23.23,0,0,0,.14.27l1.13.48.2,0h0a.57.57,0,0,0,.27-.11l.07-.07a.35.35,0,0,0,.09-.15.23.23,0,0,0-.14-.27l-1.13-.48-.2,0h0m-2.83-1.21a.58.58,0,0,0-.34.18.36.36,0,0,0-.09.15.22.22,0,0,0,.15.27l1.13.48.19,0h0l.15,0a.52.52,0,0,0,.21-.14.36.36,0,0,0,.09-.15.22.22,0,0,0-.15-.27l-1.13-.48-.19,0h0m-2.82-1.21a.56.56,0,0,0-.34.18.34.34,0,0,0-.09.15.22.22,0,0,0,.15.27l1.13.48.2,0h0a.56.56,0,0,0,.35-.18.34.34,0,0,0,.09-.15.23.23,0,0,0-.15-.27L43.65,89l-.19,0h0m-2.82-1.21a.56.56,0,0,0-.34.18.37.37,0,0,0-.09.15.22.22,0,0,0,.14.27l1.13.48.2,0h0a.59.59,0,0,0,.26-.11l.07-.06a.36.36,0,0,0,.09-.16.22.22,0,0,0-.15-.27l-1.13-.48-.19,0h0m-2.8-1.22a.58.58,0,0,0-.36.19.34.34,0,0,0-.09.15.22.22,0,0,0,.15.27l1.13.48.2,0h0a.57.57,0,0,0,.27-.11l.07-.07a.34.34,0,0,0,.09-.15.23.23,0,0,0-.15-.27L38,86.53l-.19,0h0m-2.85-1.2a.57.57,0,0,0-.22.08l-.11.09a.36.36,0,0,0-.09.15.22.22,0,0,0,.15.27l1.13.48.19,0h0a.57.57,0,0,0,.27-.11l.07-.07a.37.37,0,0,0,.09-.15.22.22,0,0,0-.14-.27l-1.13-.48-.2,0h0m-2.3-1a.59.59,0,0,0-.34.17.38.38,0,0,0-.09.16.22.22,0,0,0,.14.27l.62.26.2,0h0a.57.57,0,0,0,.27-.11l.07-.07a.36.36,0,0,0,.09-.15.22.22,0,0,0-.15-.27l-.62-.26-.18,0h0" transform="translate(-1.32 -10.81)" style="fill: #3f4563"/>
                    <path d="M23.33,86.31l-.09.67.09.08s0,.05.12.09L71,107.38a1.61,1.61,0,0,0,.66.08h.19a2.85,2.85,0,0,0,.8-.23l32.6-15.49a2.94,2.94,0,0,0,.35-.18l.05,0,.21-.72,0,0L73.21,106.28l-.29.12a3.74,3.74,0,0,1-.52.15l-.29.05h0l-.31,0a2.5,2.5,0,0,1-1.05-.13L23.33,86.31" transform="translate(-1.32 -10.81)" style="fill: #fff"/>
                    <path d="M23.33,86.31l47.41,20.2a2.5,2.5,0,0,0,1.05.13l.31,0,.29-.05a3.74,3.74,0,0,0,.52-.15l.29-.12,32.61-15.49,0,0-.21.72-.05,0a2.94,2.94,0,0,1-.35.18l-32.6,15.49a2.85,2.85,0,0,1-.8.23h-.19a1.61,1.61,0,0,1-.66-.08L23.45,87.15c-.08,0-.11-.07-.12-.09L23.24,87l.09-.67m-.07-.83a.57.57,0,0,0-.34.18l-.13.14-.15.18-.09.17-.14,1a.21.21,0,0,0,.13.24v0a.75.75,0,0,0,.37.29L70.45,108a2.3,2.3,0,0,0,1.05.13l.3,0a3.89,3.89,0,0,0,1.11-.32l32.61-15.49A5.06,5.06,0,0,0,106,92a1.11,1.11,0,0,0,.41-.42l0-.1.34-1.17,0-.11a.22.22,0,0,0,0-.11l-.1-.17,0-.07a.29.29,0,0,0-.31-.14h-.09a.53.53,0,0,0-.38.29l-.05.07-.16.12-.13.06L99.82,93l-.89.42-3.7,1.76-.88.42L72.92,105.75a2.68,2.68,0,0,1-.78.23h0L72,106h-.07a1.35,1.35,0,0,1-.62-.08L23.74,85.69c-.08,0-.11-.06-.12-.08a.32.32,0,0,0-.3-.13h-.06" transform="translate(-1.32 -10.81)" style="fill: #3f4563"/>
                  </g>
                </g>
              </g>
              <g style="isolation: isolate">
                <g style="clip-path: url(#clip-path-7)">
                  <g style="clip-path: url(#clip-path-8)">
                    <path d="M18.28,74.57h0c.17,0,.27,0,.27.14a.21.21,0,0,1,0,.08l-1.74,3.47a.85.85,0,0,1-.56.37h0a.27.27,0,0,1-.19,0,.11.11,0,0,1,0-.11.22.22,0,0,1,0-.08l1.74-3.47a.89.89,0,0,1,.55-.38h0m1.93-.37c.16,0,.25,0,.25.14a.23.23,0,0,1,0,.08l-1.74,3.47a.91.91,0,0,1-.56.37h0c-.16,0-.25,0-.26-.11a.14.14,0,0,1,0,0,.24.24,0,0,1,0-.08l1.74-3.47a.84.84,0,0,1,.55-.37h0m1.89-.38h0c.17,0,.27,0,.26.14a.22.22,0,0,1,0,.08l-1.74,3.47a.83.83,0,0,1-.55.37H20c-.17,0-.25-.08-.18-.21l1.74-3.47a.85.85,0,0,1,.55-.38h0M24,73.44h0c.15,0,.24,0,.25.12a.21.21,0,0,1,0,.1L22.5,77.13a.9.9,0,0,1-.56.37h-.06c-.13,0-.21,0-.22-.12a.21.21,0,0,1,0-.1l1.74-3.47a.84.84,0,0,1,.54-.37h0m1.91-.37h0c.15,0,.24,0,.24.11a.19.19,0,0,1,0,.1l-1.74,3.47a.87.87,0,0,1-.55.38h-.13c-.1,0-.15-.05-.15-.12a.2.2,0,0,1,0-.1l1.74-3.47a.82.82,0,0,1,.55-.37h0m1.89-.38a.35.35,0,0,1,.18,0,.11.11,0,0,1,.07.1.19.19,0,0,1,0,.08v0l-1.74,3.47a.82.82,0,0,1-.54.37h0a.43.43,0,0,1-.17,0,.12.12,0,0,1-.1-.13.24.24,0,0,1,0-.08l1.74-3.47a.86.86,0,0,1,.56-.37h0m1.93-.37h0c.14,0,.23,0,.24.11a.2.2,0,0,1,0,.1L28.22,76a.85.85,0,0,1-.54.38h0a.4.4,0,0,1-.17,0,.12.12,0,0,1-.1-.13.21.21,0,0,1,0-.08l1.74-3.47a.85.85,0,0,1,.56-.37h0m1.88-.37h0a.34.34,0,0,1,.2,0l0,0a.11.11,0,0,1,0,.07.13.13,0,0,1,0,0,.2.2,0,0,1,0,.05v0l-1.74,3.47a.88.88,0,0,1-.56.37h0c-.15,0-.25,0-.26-.11a.14.14,0,0,1,0,0,.23.23,0,0,1,0-.08l1.74-3.47a.91.91,0,0,1,.55-.37h0m1.93-.37c.16,0,.25,0,.25.13a.21.21,0,0,1,0,.08L32,75.26a.91.91,0,0,1-.56.37h-.06c-.15,0-.23,0-.23-.14a.21.21,0,0,1,0-.08L33,71.95a.82.82,0,0,1,.55-.37h0m1.89-.38c.17,0,.27,0,.26.14a.22.22,0,0,1,0,.08l-1.74,3.47a.83.83,0,0,1-.55.37h-.14c-.09,0-.14-.05-.14-.12a.21.21,0,0,1,0-.1l1.74-3.47a.87.87,0,0,1,.55-.37h0m1.92-.37c.15,0,.24,0,.25.12a.21.21,0,0,1,0,.1l-1.74,3.47a.9.9,0,0,1-.56.37h0a.33.33,0,0,1-.18,0,.11.11,0,0,1-.07-.1.19.19,0,0,1,0-.1l1.74-3.47a.81.81,0,0,1,.54-.37h0m1.89-.38c.17,0,.27,0,.26.14a.22.22,0,0,1,0,.08l-1.74,3.47a.83.83,0,0,1-.56.37H37a.12.12,0,0,1-.11-.12.22.22,0,0,1,0-.1l1.74-3.47a.87.87,0,0,1,.55-.37h0m1.93-.37h0c.14,0,.23,0,.24.12a.21.21,0,0,1,0,.1l-1.74,3.47a.87.87,0,0,1-.54.37h0c-.16,0-.26,0-.27-.11a.14.14,0,0,1,0,0,.22.22,0,0,1,0-.08l1.74-3.47a.86.86,0,0,1,.56-.37h0m1.88-.37h0c.17,0,.27,0,.26.14a.22.22,0,0,1,0,.08l-1.74,3.47a.82.82,0,0,1-.55.37h-.14c-.09,0-.14-.05-.14-.12a.21.21,0,0,1,0-.1l1.74-3.47a.89.89,0,0,1,.55-.37h0M45,69.32c.16,0,.25,0,.25.14a.23.23,0,0,1,0,.08L43.48,73a.88.88,0,0,1-.55.37H42.8c-.1,0-.16-.06-.15-.14a.22.22,0,0,1,0-.08l1.74-3.47a.86.86,0,0,1,.55-.37h0m1.89-.38h0c.17,0,.27,0,.26.14a.22.22,0,0,1,0,.08l-1.74,3.47a.83.83,0,0,1-.55.37h0a.32.32,0,0,1-.17,0,.11.11,0,0,1-.07-.12.21.21,0,0,1,0-.08l1.74-3.47a.89.89,0,0,1,.56-.38h0m1.93-.37c.14,0,.24,0,.24.12a.2.2,0,0,1,0,.1L47.3,72.27a.91.91,0,0,1-.55.37h-.06c-.15,0-.23,0-.23-.14a.21.21,0,0,1,0-.08L48.23,69a.84.84,0,0,1,.55-.37h0m1.9-.37c.15,0,.24,0,.25.11a.19.19,0,0,1,0,.1l-1.74,3.47a.83.83,0,0,1-.56.37h-.08c-.17,0-.25-.08-.17-.22l1.74-3.47a.81.81,0,0,1,.54-.37h0m1.89-.38h0a.38.38,0,0,1,.19,0,.11.11,0,0,1,.08.1.18.18,0,0,1,0,.08v0l-1.74,3.47a.86.86,0,0,1-.56.37h0c-.16,0-.25,0-.26-.11a.14.14,0,0,1,0,0,.24.24,0,0,1,0-.08L52,68.2a.86.86,0,0,1,.55-.37h0m1.93-.38c.14,0,.23,0,.24.11a.2.2,0,0,1,0,.1L53,71.14a.81.81,0,0,1-.54.37H52.3c-.11,0-.15-.1-.09-.21l1.74-3.47a.83.83,0,0,1,.56-.37h0m1.88-.37h0a.36.36,0,0,1,.19,0,.11.11,0,0,1,.07.1.18.18,0,0,1,0,.08v0l-1.74,3.47a.84.84,0,0,1-.55.37h0c-.16,0-.25,0-.26-.11a.14.14,0,0,1,0,0,.24.24,0,0,1,0-.08l1.74-3.47a.89.89,0,0,1,.55-.37h0m1.93-.37c.15,0,.24,0,.24.11a.2.2,0,0,1,0,.1l-1.74,3.47a.85.85,0,0,1-.55.38h-.06c-.15,0-.23,0-.23-.14a.21.21,0,0,1,0-.08l1.74-3.47a.85.85,0,0,1,.56-.37h0m1.89-.38h0c.16,0,.27,0,.26.14a.21.21,0,0,1,0,.08L58.74,70a.88.88,0,0,1-.55.37h0a.23.23,0,0,1-.22-.06.12.12,0,0,1,0-.08.23.23,0,0,1,0-.08l1.74-3.47a.91.91,0,0,1,.56-.37h0M62.17,66h0c.16,0,.25,0,.25.14a.23.23,0,0,1,0,.08l-1.74,3.47a.91.91,0,0,1-.56.37H60c-.12,0-.19-.06-.19-.14a.21.21,0,0,1,0-.08l1.74-3.47a.85.85,0,0,1,.55-.37h0m1.89-.38c.18,0,.28,0,.27.14a.22.22,0,0,1,0,.08l-1.74,3.47a.86.86,0,0,1-.56.37h-.17a.12.12,0,0,1-.11-.12.22.22,0,0,1,0-.1L63.49,66a.85.85,0,0,1,.54-.37h0M66,65.21h0c.15,0,.24,0,.24.12a.22.22,0,0,1,0,.1L64.46,68.9a.87.87,0,0,1-.55.37h-.06c-.15,0-.23,0-.22-.14a.22.22,0,0,1,0-.08l1.74-3.47a.82.82,0,0,1,.55-.37h0m1.89-.38c.15,0,.25,0,.25.11a.19.19,0,0,1,0,.1l-1.74,3.47a.83.83,0,0,1-.55.37h-.14c-.09,0-.14-.05-.14-.12a.21.21,0,0,1,0-.1L67.3,65.2a.9.9,0,0,1,.56-.37h0m1.92-.37c.15,0,.24,0,.24.12a.21.21,0,0,1,0,.1l-1.74,3.47a.87.87,0,0,1-.55.37h-.06c-.15,0-.23,0-.22-.14a.22.22,0,0,1,0-.08l1.74-3.47a.83.83,0,0,1,.55-.37h0m1.89-.38h0c.17,0,.27,0,.26.14a.22.22,0,0,1,0,.08l-1.74,3.47a.82.82,0,0,1-.55.37h-.18c-.11,0-.15-.1-.09-.21l1.74-3.48a.91.91,0,0,1,.56-.37h0m1.93-.37h0c.15,0,.25,0,.24.14a.24.24,0,0,1,0,.08L72.09,67.4a.91.91,0,0,1-.55.37h-.06c-.15,0-.23,0-.23-.14a.21.21,0,0,1,0-.08L73,64.08a.88.88,0,0,1,.56-.37h0m1.88-.37h0c.17,0,.27,0,.27.14a.21.21,0,0,1,0,.08L74,67a.85.85,0,0,1-.56.37h0a.27.27,0,0,1-.19,0,.11.11,0,0,1,0-.11.21.21,0,0,1,0-.08l1.74-3.47a.89.89,0,0,1,.55-.38h0M77.41,63a.34.34,0,0,1,.2,0l0,0a.11.11,0,0,1,0,.07.14.14,0,0,1,0,0,.2.2,0,0,1,0,.05v0l-1.74,3.47a.88.88,0,0,1-.56.37h0c-.12,0-.2,0-.24-.05a.12.12,0,0,1,0-.08.24.24,0,0,1,0-.08l1.75-3.47a.82.82,0,0,1,.54-.37h0m-53,2.55a.21.21,0,0,1,0-.1.83.83,0,0,1,.54-.36h0l1.44-.29c.18,0,.29,0,.28.13a.21.21,0,0,1,0,.08.83.83,0,0,1-.56.37l-1.44.28h-.14c-.09,0-.14-.05-.14-.12m5.66-1.44c.16,0,.25,0,.25.13a.21.21,0,0,1,0,.08.86.86,0,0,1-.56.37l-1.44.28h-.06c-.15,0-.23,0-.22-.14a.22.22,0,0,1,0-.08.89.89,0,0,1,.55-.37L30,64.08h0m3.58-.7h0c.17,0,.27,0,.26.13a.2.2,0,0,1,0,.07.85.85,0,0,1-.54.38l-1.44.27h-.08c-.17,0-.25-.08-.18-.21a.8.8,0,0,1,.55-.37l1.44-.28h0m3.62-.7h0c.15,0,.24,0,.24.12a.21.21,0,0,1,0,.1.87.87,0,0,1-.55.36l-1.44.28h-.06c-.13,0-.21,0-.22-.12a.21.21,0,0,1,0-.1.84.84,0,0,1,.55-.36l1.44-.28h0m3.58-.7h0c.17,0,.27,0,.26.14a.22.22,0,0,1,0,.08.88.88,0,0,1-.55.37l-1.44.28h0c-.13,0-.23,0-.26-.07a.11.11,0,0,1,0,0,.2.2,0,0,1,0-.1.87.87,0,0,1,.54-.37L40.82,62h0m3.62-.7h0a.27.27,0,0,1,.19,0c.05,0,.06.1,0,.19a.83.83,0,0,1-.54.36l-1.44.28h0a.32.32,0,0,1-.18,0,.11.11,0,0,1-.07-.1.21.21,0,0,1,0-.1.84.84,0,0,1,.55-.36l1.44-.28h0m3.58-.7h0c.16,0,.27,0,.26.14a.21.21,0,0,1,0,.08.86.86,0,0,1-.56.37l-1.44.28h-.06c-.15,0-.23,0-.22-.14a.22.22,0,0,1,0-.08.89.89,0,0,1,.55-.37L48,60.58h0m-17.54-.37h0c.16,0,.26,0,.27.11a.2.2,0,0,1,0,.1.85.85,0,0,1-.53.37h0l-1.44.28h0a.23.23,0,0,1-.22-.06.12.12,0,0,1,0-.08.23.23,0,0,1,0-.08A.85.85,0,0,1,29,60.5h0l1.44-.29h0m3.63-.7c.14,0,.23,0,.24.12a.21.21,0,0,1,0,.1.83.83,0,0,1-.55.36l-1.44.29h0a.34.34,0,0,1-.18,0,.11.11,0,0,1-.07-.1.19.19,0,0,1,0-.1.82.82,0,0,1,.55-.37l1.44-.28h0m3.57-.7h0c.17,0,.27,0,.26.14a.22.22,0,0,1,0,.08.84.84,0,0,1-.55.37L36,59.67h-.13c-.1,0-.15-.05-.15-.12a.2.2,0,0,1,0-.1.87.87,0,0,1,.54-.37l1.44-.28h0m3.6-.69h0a.36.36,0,0,1,.19,0,.11.11,0,0,1,.07.1.18.18,0,0,1,0,.08v0a.85.85,0,0,1-.55.36L39.56,59h0a.32.32,0,0,1-.17,0,.11.11,0,0,1-.07-.12.21.21,0,0,1,0-.08.86.86,0,0,1,.56-.37l1.44-.28h0m3.62-.7c.16,0,.25,0,.24.13a.23.23,0,0,1,0,.08.89.89,0,0,1-.55.37l-1.44.28H43c-.1,0-.16-.06-.16-.14a.19.19,0,0,1,0-.07.87.87,0,0,1,.56-.38l1.44-.27h0m3.57-.7h0c.18,0,.28,0,.27.14a.22.22,0,0,1,0,.08.88.88,0,0,1-.55.37l-1.44.27h0a.3.3,0,0,1-.17,0,.11.11,0,0,1-.07-.12.22.22,0,0,1,0-.08A.86.86,0,0,1,47,57l1.44-.28h0m3.62-.7h0a.36.36,0,0,1,.16,0c.09,0,.12.11.06.21a.86.86,0,0,1-.54.36l-1.44.28h0c-.16,0-.25,0-.26-.11a.14.14,0,0,1,0,0,.24.24,0,0,1,0-.08.84.84,0,0,1,.55-.36L52.08,56h0m5.49-5.49h0c.16,0,.27,0,.26.13a.19.19,0,0,1,0,.07.89.89,0,0,1-.56.38L29.23,56.56h-.18c-.11,0-.15-.1-.09-.21a.89.89,0,0,1,.55-.37l28.08-5.45h0M78.4,42.42h0l.46,0a2.42,2.42,0,0,1,2.39.89,1.17,1.17,0,0,0,.42.48.17.17,0,0,1,.12.17.45.45,0,0,1-.13.27,1.14,1.14,0,0,1-.29.25c0,.14.05.28.06.44a.79.79,0,0,1,0,.1,2.94,2.94,0,0,1-.75,1.44.28.28,0,0,1,0,.17,4,4,0,0,1-.6,1.41l0,.07a4.8,4.8,0,0,1-1,1.06l-.53.44a19,19,0,0,1-1.76,2.09A19.39,19.39,0,0,1,75.24,53c.3.68,1.34,1,3.42,1.1s2.86.71,2.86,1.57a5.7,5.7,0,0,1-.8,2.24l-.9,1.81a1.37,1.37,0,0,1-.24.31,1.57,1.57,0,0,1-.61.37c-4.24,1.2-8.34,2.14-11.91,2.84-1.18.23-2.3.44-3.35.62l-2.33.39-2.72.41h0l-.17,0c-2.26.31-3.6.45-3.64.45s-.6,0-.6-.18a.24.24,0,0,1,0-.1l1-1.93c.9-1.79,1.84-3.66,6.76-5.54a17.37,17.37,0,0,0,5.58-3,2.27,2.27,0,0,1-.38-.77,4.08,4.08,0,0,1,0-.5,4.88,4.88,0,0,1,.2-1.31,2.23,2.23,0,0,1-.15-.3,1.24,1.24,0,0,1-.1-.51,1,1,0,0,1,.08-.36l0-.07a4.16,4.16,0,0,1,1.09-1.69,2.73,2.73,0,0,1,.8-1.54l.56-.56-.08-.18c0-.17.23-.39.51-.55a9.69,9.69,0,0,0,1-.75,11.89,11.89,0,0,1,3.9-2.12A6,6,0,0,1,76,42.9l.53-.09.46-.06c.31-.09.68-.18,1.06-.26l.2,0,.19,0m16.34-6h-.06l-67,13.16a1.62,1.62,0,0,0-.65.32,1.88,1.88,0,0,0-.56.63L11.63,80a.74.74,0,0,0-.09.31.32.32,0,0,0,.07.22.33.33,0,0,0,.18.1h.27l67-13.16a1.66,1.66,0,0,0,.65-.32,1.78,1.78,0,0,0,.56-.63L95.09,37a.71.71,0,0,0,.09-.31.36.36,0,0,0-.06-.22.41.41,0,0,0-.32-.12h-.06" transform="translate(-1.32 -10.81)" style="fill: #fff"/>
                    <path d="M95.09,35.8H95l-9.77,1.92L27.92,49a3.73,3.73,0,0,0-1.39.65,3.37,3.37,0,0,0-.89,1L10.77,80.23a.76.76,0,0,0,0,.75.57.57,0,0,0,.27.18v-.07a.14.14,0,0,1,0,0c0-.09.1-.21.26-.31a1,1,0,0,1,.31-.13h.17a.33.33,0,0,1-.18-.1.32.32,0,0,1-.07-.22.74.74,0,0,1,.09-.31L26.42,50.52a1.88,1.88,0,0,1,.56-.63,1.62,1.62,0,0,1,.65-.32l67-13.16h.12a.41.41,0,0,1,.32.12.36.36,0,0,1,.06.22.36.36,0,0,0-.06-.22.11.11,0,0,1,0-.07.44.44,0,0,1,.21-.29,1.14,1.14,0,0,1,.36-.16h.23a.93.93,0,0,0-.81-.18" transform="translate(-1.32 -10.81)" style="fill: #3f4563"/>
                    <path d="M57.61,50.53h0L29.51,56a.89.89,0,0,0-.55.37c-.06.11,0,.19.09.21h.18l28.06-5.44a.89.89,0,0,0,.56-.38.19.19,0,0,0,0-.07c0-.1-.09-.16-.26-.13" transform="translate(-1.32 -10.81)" style="fill: #3f4563"/>
                    <path d="M30.51,60.21h0l-1.44.29h0a.85.85,0,0,0-.54.36.23.23,0,0,0,0,.08.12.12,0,0,0,0,.08.23.23,0,0,0,.22.06h0l1.44-.28h0a.85.85,0,0,0,.53-.37.2.2,0,0,0,0-.1c0-.09-.1-.14-.27-.11m3.63-.7h0l-1.44.28a.82.82,0,0,0-.55.37.19.19,0,0,0,0,.1.11.11,0,0,0,.07.1.34.34,0,0,0,.18,0h0l1.44-.29a.83.83,0,0,0,.55-.36.21.21,0,0,0,0-.1c0-.09-.09-.14-.24-.12m3.57-.7h0l-1.44.28a.87.87,0,0,0-.54.37.2.2,0,0,0,0,.1c0,.07.06.11.15.12H36l1.44-.28a.84.84,0,0,0,.55-.37.22.22,0,0,0,0-.08c0-.1-.09-.16-.26-.14m3.6-.69h0l-1.44.28a.86.86,0,0,0-.56.37.21.21,0,0,0,0,.08.11.11,0,0,0,.07.12.32.32,0,0,0,.17,0h0L41,58.69a.85.85,0,0,0,.55-.36v0a.18.18,0,0,0,0-.08.11.11,0,0,0-.07-.1.36.36,0,0,0-.19,0m3.62-.7h0l-1.44.27a.87.87,0,0,0-.56.38.19.19,0,0,0,0,.07c0,.08.05.13.16.14h.13L44.6,58a.89.89,0,0,0,.55-.37.23.23,0,0,0,0-.08c0-.1-.08-.16-.24-.13m3.57-.7h0L47,57a.86.86,0,0,0-.55.37.22.22,0,0,0,0,.08.11.11,0,0,0,.07.12.3.3,0,0,0,.17,0h0l1.44-.27a.88.88,0,0,0,.55-.37.22.22,0,0,0,0-.08c0-.1-.09-.16-.27-.14m3.62-.7h0l-1.44.28a.84.84,0,0,0-.55.36.24.24,0,0,0,0,.08.14.14,0,0,0,0,0c0,.09.1.13.26.11h0l1.44-.28a.86.86,0,0,0,.54-.36c.06-.11,0-.18-.06-.21a.36.36,0,0,0-.16,0" transform="translate(-1.32 -10.81)" style="fill: #3f4563"/>
                    <path d="M26.43,64.76,25,65.05h0a.83.83,0,0,0-.54.36.21.21,0,0,0,0,.1c0,.07.05.11.14.12h.14l1.44-.28a.83.83,0,0,0,.56-.37.21.21,0,0,0,0-.08c0-.1-.11-.16-.28-.13m3.64-.69h0l-1.44.27a.89.89,0,0,0-.55.37.22.22,0,0,0,0,.08c0,.1.08.15.22.14h.06l1.44-.28a.86.86,0,0,0,.56-.37.21.21,0,0,0,0-.08c0-.1-.09-.16-.25-.13m3.58-.7h0l-1.44.28a.8.8,0,0,0-.55.37c-.07.14,0,.23.18.21h.08L33.34,64a.85.85,0,0,0,.54-.38.2.2,0,0,0,0-.07c0-.1-.09-.16-.26-.13m3.62-.7h0L35.79,63a.84.84,0,0,0-.55.36.21.21,0,0,0,0,.1c0,.08.09.13.22.12h.06l1.44-.28a.87.87,0,0,0,.55-.36.21.21,0,0,0,0-.1c0-.09-.1-.14-.24-.12m3.58-.7h0l-1.44.28a.87.87,0,0,0-.54.37.2.2,0,0,0,0,.1.11.11,0,0,0,0,0c0,.06.12.09.26.07h0l1.44-.28a.88.88,0,0,0,.55-.37.22.22,0,0,0,0-.08c0-.1-.09-.16-.26-.14m3.62-.7h0L43,61.57a.84.84,0,0,0-.55.36.21.21,0,0,0,0,.1.11.11,0,0,0,.07.1.32.32,0,0,0,.18,0h0l1.44-.28a.83.83,0,0,0,.54-.36c0-.09,0-.15,0-.19a.27.27,0,0,0-.19,0m3.58-.7h0l-1.44.28a.89.89,0,0,0-.55.37.22.22,0,0,0,0,.08c0,.1.08.15.22.14h.06l1.44-.28a.86.86,0,0,0,.56-.37.21.21,0,0,0,0-.08c0-.1-.09-.16-.26-.14" transform="translate(-1.32 -10.81)" style="fill: #3f4563"/>
                    <path d="M95.64,37.41,81.13,66.32a3,3,0,0,1-.92,1,3.59,3.59,0,0,1-1.39.66L12.07,81.12l.8.67h.2a.63.63,0,0,0,.21,0h0L80.38,68.62A1.56,1.56,0,0,0,81,68.3a1.89,1.89,0,0,0,.56-.63l14.2-28.3a1.07,1.07,0,0,0,.16-.46.19.19,0,0,0,0,0l0-.06-.27-1.39" transform="translate(-1.32 -10.81)" style="fill: #fff"/>
                    <path d="M12.07,81.12,78.81,68a3.59,3.59,0,0,0,1.39-.66,3,3,0,0,0,.92-1L95.64,37.41l.27,1.39,0,.06a.19.19,0,0,1,0,0,1.07,1.07,0,0,1-.16.46l-14.2,28.3a1.89,1.89,0,0,1-.56.63,1.56,1.56,0,0,1-.65.32L13.32,81.78h0a.63.63,0,0,1-.21,0h-.2l-.8-.67M95.67,36a1.14,1.14,0,0,0-.36.16.44.44,0,0,0-.21.29.11.11,0,0,0,0,.07.36.36,0,0,1,.06.22.71.71,0,0,1-.09.31L80.31,66.48a1.78,1.78,0,0,1-.56.63,1.66,1.66,0,0,1-.65.32l-67,13.16h-.44a1,1,0,0,0-.31.13c-.16.1-.25.22-.26.31a.14.14,0,0,0,0,0v.07l.06.32,0,.06.94.77a.26.26,0,0,0,.21,0h.06l.07,0a1.47,1.47,0,0,0,.51,0H13l9.76-1.92L80.09,69.19a3.58,3.58,0,0,0,1.39-.66,3.15,3.15,0,0,0,.89-1L96.66,39.07a.82.82,0,0,0,.1-.71l-.42-2.21-.11-.1L95.9,36h-.23" transform="translate(-1.32 -10.81)" style="fill: #3f4563"/>
                    <path d="M18.28,74.57h0a.89.89,0,0,0-.55.38L16,78.42a.22.22,0,0,0,0,.08.11.11,0,0,0,0,.11.27.27,0,0,0,.19,0h0a.85.85,0,0,0,.56-.37l1.74-3.47a.21.21,0,0,0,0-.08c0-.1-.1-.16-.27-.14" transform="translate(-1.32 -10.81)" style="fill: #3f4563"/>
                    <path d="M20.21,74.19h0a.84.84,0,0,0-.55.37L17.88,78a.24.24,0,0,0,0,.08.14.14,0,0,0,0,0c0,.09.1.13.26.11h0a.91.91,0,0,0,.56-.37l1.74-3.47a.23.23,0,0,0,0-.08c0-.1-.09-.16-.25-.14" transform="translate(-1.32 -10.81)" style="fill: #3f4563"/>
                    <path d="M22.1,73.82h0a.85.85,0,0,0-.55.38l-1.74,3.47c-.07.14,0,.23.18.21H20a.83.83,0,0,0,.55-.37L22.34,74a.22.22,0,0,0,0-.08c0-.1-.09-.16-.26-.14" transform="translate(-1.32 -10.81)" style="fill: #3f4563"/>
                    <path d="M24,73.44h0a.84.84,0,0,0-.54.37l-1.74,3.47a.21.21,0,0,0,0,.1c0,.08.09.13.22.12h.06a.9.9,0,0,0,.56-.37l1.74-3.47a.21.21,0,0,0,0-.1c0-.09-.1-.14-.25-.12" transform="translate(-1.32 -10.81)" style="fill: #3f4563"/>
                    <path d="M25.94,73.07h0a.82.82,0,0,0-.55.37L23.6,76.92a.2.2,0,0,0,0,.1c0,.07.06.11.15.12h.13a.87.87,0,0,0,.55-.38l1.74-3.47a.19.19,0,0,0,0-.1c0-.09-.1-.13-.24-.11" transform="translate(-1.32 -10.81)" style="fill: #3f4563"/>
                    <path d="M27.83,72.7h0a.86.86,0,0,0-.56.37L25.5,76.54a.24.24,0,0,0,0,.08.12.12,0,0,0,.1.13.43.43,0,0,0,.17,0h0a.82.82,0,0,0,.54-.37l1.74-3.47v0a.19.19,0,0,0,0-.08.11.11,0,0,0-.07-.1.35.35,0,0,0-.18,0" transform="translate(-1.32 -10.81)" style="fill: #3f4563"/>
                    <path d="M29.75,72.32h0a.85.85,0,0,0-.56.37l-1.74,3.47a.21.21,0,0,0,0,.08.12.12,0,0,0,.1.13.4.4,0,0,0,.17,0h0a.85.85,0,0,0,.54-.38L30,72.53a.2.2,0,0,0,0-.1c0-.09-.09-.13-.24-.11" transform="translate(-1.32 -10.81)" style="fill: #3f4563"/>
                    <path d="M31.64,71.95h0a.91.91,0,0,0-.55.37l-1.74,3.47a.23.23,0,0,0,0,.08.14.14,0,0,0,0,0c0,.09.11.13.26.11h0a.88.88,0,0,0,.56-.37l1.74-3.47v0a.2.2,0,0,0,0-.05.13.13,0,0,0,0,0,.11.11,0,0,0,0-.07l0,0a.34.34,0,0,0-.2,0" transform="translate(-1.32 -10.81)" style="fill: #3f4563"/>
                    <path d="M33.56,71.57h0a.82.82,0,0,0-.55.37l-1.75,3.47a.21.21,0,0,0,0,.08c0,.09.08.15.23.14h.06a.91.91,0,0,0,.56-.37l1.74-3.48a.21.21,0,0,0,0-.08c0-.1-.09-.16-.25-.13" transform="translate(-1.32 -10.81)" style="fill: #3f4563"/>
                    <path d="M35.45,71.2h0a.87.87,0,0,0-.55.37L33.14,75a.21.21,0,0,0,0,.1c0,.07.05.11.14.12h.14a.83.83,0,0,0,.55-.37l1.74-3.47a.22.22,0,0,0,0-.08c0-.1-.09-.16-.26-.14" transform="translate(-1.32 -10.81)" style="fill: #3f4563"/>
                    <path d="M37.37,70.82h0a.81.81,0,0,0-.54.37L35,74.67a.19.19,0,0,0,0,.1.11.11,0,0,0,.07.1.33.33,0,0,0,.18,0h0a.9.9,0,0,0,.56-.37L37.6,71a.21.21,0,0,0,0-.1c0-.09-.1-.14-.25-.12" transform="translate(-1.32 -10.81)" style="fill: #3f4563"/>
                    <path d="M39.27,70.45h0a.87.87,0,0,0-.55.37L37,74.29a.22.22,0,0,0,0,.1.12.12,0,0,0,.11.12h.17a.83.83,0,0,0,.56-.37l1.74-3.47a.22.22,0,0,0,0-.08c0-.1-.09-.16-.26-.14" transform="translate(-1.32 -10.81)" style="fill: #3f4563"/>
                    <path d="M41.2,70.07h0a.86.86,0,0,0-.56.37l-1.74,3.47a.22.22,0,0,0,0,.08.14.14,0,0,0,0,0c0,.09.11.14.27.11h0a.87.87,0,0,0,.54-.37l1.74-3.47a.21.21,0,0,0,0-.1c0-.09-.09-.14-.24-.12" transform="translate(-1.32 -10.81)" style="fill: #3f4563"/>
                    <path d="M43.08,69.7h0a.89.89,0,0,0-.55.37l-1.74,3.47a.21.21,0,0,0,0,.1c0,.07.05.11.14.12H41a.82.82,0,0,0,.55-.37l1.74-3.47a.22.22,0,0,0,0-.08c0-.1-.09-.16-.26-.14" transform="translate(-1.32 -10.81)" style="fill: #3f4563"/>
                    <path d="M45,69.32h0a.86.86,0,0,0-.55.37l-1.74,3.47a.22.22,0,0,0,0,.08c0,.08.05.13.15.14h.13a.88.88,0,0,0,.55-.37l1.75-3.47a.23.23,0,0,0,0-.08c0-.1-.09-.16-.25-.14" transform="translate(-1.32 -10.81)" style="fill: #3f4563"/>
                    <path d="M46.89,68.95h0a.89.89,0,0,0-.56.38L44.57,72.8a.21.21,0,0,0,0,.08.11.11,0,0,0,.07.12.32.32,0,0,0,.17,0h0a.83.83,0,0,0,.55-.37l1.74-3.47a.22.22,0,0,0,0-.08c0-.1-.09-.16-.26-.14" transform="translate(-1.32 -10.81)" style="fill: #3f4563"/>
                    <path d="M48.82,68.57h0a.84.84,0,0,0-.55.37l-1.75,3.47a.21.21,0,0,0,0,.08c0,.09.08.15.23.14h.06a.91.91,0,0,0,.55-.37L49,68.79a.2.2,0,0,0,0-.1c0-.09-.1-.14-.24-.12" transform="translate(-1.32 -10.81)" style="fill: #3f4563"/>
                    <path d="M50.73,68.2h0a.81.81,0,0,0-.54.37L48.4,72.05c-.07.14,0,.23.17.22h.08a.83.83,0,0,0,.56-.37l1.74-3.47a.19.19,0,0,0,0-.1c0-.09-.1-.13-.25-.11" transform="translate(-1.32 -10.81)" style="fill: #3f4563"/>
                    <path d="M52.61,67.83h0a.86.86,0,0,0-.55.37L50.3,71.67a.24.24,0,0,0,0,.08.14.14,0,0,0,0,0c0,.09.1.13.26.11h0a.86.86,0,0,0,.56-.37L52.86,68v0a.18.18,0,0,0,0-.08.11.11,0,0,0-.08-.1.38.38,0,0,0-.19,0" transform="translate(-1.32 -10.81)" style="fill: #3f4563"/>
                    <path d="M54.55,67.45h0a.83.83,0,0,0-.56.37L52.2,71.3c-.06.11,0,.19.09.21h.18a.81.81,0,0,0,.54-.37l1.74-3.47a.2.2,0,0,0,0-.1c0-.09-.09-.13-.24-.11" transform="translate(-1.32 -10.81)" style="fill: #3f4563"/>
                    <path d="M56.43,67.08h0a.89.89,0,0,0-.55.37l-1.74,3.47a.24.24,0,0,0,0,.08.14.14,0,0,0,0,0c0,.09.1.13.26.11h0a.84.84,0,0,0,.55-.37l1.74-3.47v0a.18.18,0,0,0,0-.08.11.11,0,0,0-.07-.1.36.36,0,0,0-.19,0" transform="translate(-1.32 -10.81)" style="fill: #3f4563"/>
                    <path d="M58.36,66.71h0a.85.85,0,0,0-.56.37L56,70.56a.21.21,0,0,0,0,.08c0,.09.08.15.23.14h.06a.85.85,0,0,0,.55-.38l1.74-3.47a.2.2,0,0,0,0-.1c0-.09-.1-.13-.24-.11" transform="translate(-1.32 -10.81)" style="fill: #3f4563"/>
                    <path d="M60.25,66.33h0a.91.91,0,0,0-.56.37l-1.74,3.47a.23.23,0,0,0,0,.08.12.12,0,0,0,0,.08.23.23,0,0,0,.22.06h0a.88.88,0,0,0,.55-.37l1.74-3.47a.21.21,0,0,0,0-.08c0-.1-.09-.16-.26-.14" transform="translate(-1.32 -10.81)" style="fill: #3f4563"/>
                    <path d="M62.17,66h0a.85.85,0,0,0-.55.37l-1.74,3.47a.21.21,0,0,0,0,.08c0,.09.07.14.19.14h.09a.91.91,0,0,0,.56-.37l1.74-3.47a.23.23,0,0,0,0-.08c0-.1-.09-.16-.25-.14" transform="translate(-1.32 -10.81)" style="fill: #3f4563"/>
                    <path d="M64.06,65.58h0a.85.85,0,0,0-.54.37l-1.74,3.47a.22.22,0,0,0,0,.1.12.12,0,0,0,.11.12H62a.86.86,0,0,0,.56-.37L64.3,65.8a.22.22,0,0,0,0-.08c0-.1-.09-.16-.27-.14" transform="translate(-1.32 -10.81)" style="fill: #3f4563"/>
                    <path d="M66,65.21h0a.82.82,0,0,0-.55.37l-1.74,3.47a.22.22,0,0,0,0,.08c0,.1.08.15.22.14h.06a.87.87,0,0,0,.55-.37l1.74-3.47a.22.22,0,0,0,0-.1c0-.09-.09-.14-.24-.12" transform="translate(-1.32 -10.81)" style="fill: #3f4563"/>
                    <path d="M67.88,64.83h0a.9.9,0,0,0-.56.37l-1.74,3.47a.21.21,0,0,0,0,.1c0,.07.05.11.14.12h.14a.83.83,0,0,0,.55-.37L68.11,65a.19.19,0,0,0,0-.1c0-.09-.1-.14-.25-.11" transform="translate(-1.32 -10.81)" style="fill: #3f4563"/>
                    <path d="M69.8,64.46h0a.83.83,0,0,0-.55.37l-1.74,3.47a.22.22,0,0,0,0,.08c0,.1.08.15.22.14h.06a.87.87,0,0,0,.55-.37L70,64.68a.21.21,0,0,0,0-.1c0-.09-.1-.14-.24-.12" transform="translate(-1.32 -10.81)" style="fill: #3f4563"/>
                    <path d="M71.69,64.08h0a.91.91,0,0,0-.56.37l-1.74,3.48c-.06.11,0,.19.09.21h.18a.82.82,0,0,0,.55-.37l1.74-3.47a.22.22,0,0,0,0-.08c0-.1-.09-.16-.26-.14" transform="translate(-1.32 -10.81)" style="fill: #3f4563"/>
                    <path d="M73.62,63.71h0a.88.88,0,0,0-.56.37l-1.74,3.47a.21.21,0,0,0,0,.08c0,.09.08.15.23.14h.06a.91.91,0,0,0,.55-.37l1.74-3.47a.24.24,0,0,0,0-.08c0-.1-.09-.16-.24-.14" transform="translate(-1.32 -10.81)" style="fill: #3f4563"/>
                    <path d="M75.5,63.33h0a.89.89,0,0,0-.55.38l-1.74,3.47a.21.21,0,0,0,0,.08.11.11,0,0,0,0,.11.27.27,0,0,0,.19,0h0A.85.85,0,0,0,74,67l1.74-3.47a.21.21,0,0,0,0-.08c0-.1-.1-.16-.27-.14" transform="translate(-1.32 -10.81)" style="fill: #3f4563"/>
                    <path d="M77.41,63h0a.82.82,0,0,0-.54.37l-1.75,3.47a.24.24,0,0,0,0,.08.12.12,0,0,0,0,.08s.12.07.24.05h0a.88.88,0,0,0,.56-.37l1.74-3.47v0a.2.2,0,0,0,0-.05.14.14,0,0,0,0,0,.11.11,0,0,0,0-.07l0,0a.34.34,0,0,0-.2,0" transform="translate(-1.32 -10.81)" style="fill: #3f4563"/>
                    <path d="M78.08,43l-.35.06c-.35.07-.71.16-1,.24l-.07,0H76.6l-.42,0h-.07l-.46.08a5.6,5.6,0,0,0-.71.18,10.45,10.45,0,0,0-3.29,1.79c-.36.29-.64.5-.85.64l.44-.08-.57.5c-.27.23-.57.52-.89.84a2,2,0,0,0-.58,1.24s0,0,0,.06v.23l-.4.18a5.43,5.43,0,0,0-.73,1.28l0,.07a.54.54,0,0,0,0,.22,1,1,0,0,0,.08.39,1.24,1.24,0,0,0,.15.3l0,0,0,.08A4.55,4.55,0,0,0,68,52.76a3,3,0,0,0,0,.41,2.1,2.1,0,0,0,.42.79l.09.11-.18.18c-1.32,1.29-3.24,2.37-6.42,3.58-4.29,1.64-5,3.14-5.92,4.89l-.9,1.77h.11s.71-.07,1.92-.23v-.15l.11-.22a7.47,7.47,0,0,1,1.13-1.65A1,1,0,0,1,58.9,62H59c.1,0,.15.07.15.14a.32.32,0,0,1-.1.19h0l-.07.07a3.14,3.14,0,0,0-.23.29,6.84,6.84,0,0,0-.67,1.06l-.09.21a.64.64,0,0,1-.28.26L59.12,64C60,63.9,61,63.75,62,63.58l2.89-.5,2.41-.46c2.81-.55,6-1.25,9.25-2.11a.11.11,0,0,1-.08-.11.19.19,0,0,1,0-.1l.11-.21a3.38,3.38,0,0,0,.42-1.32.15.15,0,0,1,0,0c0-.13.18-.29.42-.39l.15,0h.05c.13,0,.23,0,.23.12a.32.32,0,0,1,0,.06,3.75,3.75,0,0,1-.47,1.46l-.12.23-.18.19,1.82-.5L79.91,58A5.36,5.36,0,0,0,80.65,56c0-.74-.6-1.25-2.51-1.32-2.4-.1-3.55-.52-3.79-1.43l0-.14.25-.19a17.37,17.37,0,0,0,1.65-1.33,18,18,0,0,0,1.68-2l.06-.08L78,49.4l.53-.43a3.84,3.84,0,0,0,.73-.77l0-.07a5.47,5.47,0,0,0,.54-1.2.07.07,0,0,0,0,0l-.31,0,.28-.28a2.56,2.56,0,0,0,.74-1.3s0,0,0,0a2.42,2.42,0,0,0-.14-.65l-.14-.36.43-.09a1.83,1.83,0,0,1-.31-.42,2,2,0,0,0-2-.75l-.33,0" transform="translate(-1.32 -10.81)" style="fill: #fff"/>
                    <path d="M76.6,43.34h.06l.07,0c.29-.08.65-.18,1-.24l.35-.06.33,0a2,2,0,0,1,2,.75,1.83,1.83,0,0,0,.31.42l-.43.09.14.36a2.42,2.42,0,0,1,.14.65s0,0,0,0a2.56,2.56,0,0,1-.74,1.3l-.28.28.31,0a.07.07,0,0,1,0,0,5.47,5.47,0,0,1-.54,1.2l0,.07a3.84,3.84,0,0,1-.73.77L78,49.4l-.11.07-.06.08a18,18,0,0,1-1.68,2,17.37,17.37,0,0,1-1.65,1.33l-.25.19,0,.14c.25.91,1.39,1.33,3.79,1.43,1.91.08,2.51.58,2.51,1.32A5.36,5.36,0,0,1,79.91,58L79,59.85l-1.82.5a1,1,0,0,1-.36.16h-.15l-.07,0c-3.29.86-6.44,1.56-9.25,2.11l-2.41.46-2.89.5c-1.09.18-2.07.32-2.92.44h0l-1.38.19a.66.66,0,0,1-.27.11h0c-.12,0-.22,0-.25,0-1.21.16-1.9.22-1.92.23h-.11l.9-1.77c.87-1.75,1.63-3.24,5.92-4.89,3.18-1.22,5.1-2.3,6.42-3.58l.18-.18L68.49,54a2.1,2.1,0,0,1-.42-.79,3,3,0,0,1,0-.41,4.55,4.55,0,0,1,.21-1.31l0-.08,0,0a1.24,1.24,0,0,1-.15-.3,1,1,0,0,1-.08-.39.54.54,0,0,1,0-.22l0-.07a5.43,5.43,0,0,1,.73-1.28l.4-.18v-.23s0,0,0-.06a2,2,0,0,1,.58-1.24c.32-.32.62-.61.89-.84l.57-.5-.44.08c.21-.14.49-.35.85-.64a10.45,10.45,0,0,1,3.29-1.79,5.6,5.6,0,0,1,.71-.18l.46-.08h.07l.42,0m1.8-.91h0l-.19,0-.2,0c-.38.08-.75.17-1.06.26l-.46.06L76,42.9a6,6,0,0,0-.91.23,11.89,11.89,0,0,0-3.9,2.12,9.69,9.69,0,0,1-1,.75c-.27.16-.49.38-.51.55l.08.18-.56.56a2.73,2.73,0,0,0-.8,1.54,4.16,4.16,0,0,0-1.09,1.69l0,.07a1,1,0,0,0-.08.36,1.24,1.24,0,0,0,.1.51,2.23,2.23,0,0,0,.15.3,4.88,4.88,0,0,0-.2,1.31,4.08,4.08,0,0,0,0,.5,2.27,2.27,0,0,0,.38.77,17.37,17.37,0,0,1-5.58,3c-4.92,1.89-5.85,3.75-6.76,5.54l-1,1.93a.24.24,0,0,0,0,.1c0,.2.42.19.6.18s1.38-.13,3.64-.45l.17,0,2.72-.41,2.33-.39c1.05-.18,2.17-.39,3.35-.62,3.57-.71,7.67-1.64,11.91-2.84a1.57,1.57,0,0,0,.61-.37,1.37,1.37,0,0,0,.24-.31l.9-1.81a5.7,5.7,0,0,0,.8-2.24c0-.85-.67-1.48-2.86-1.57s-3.12-.42-3.42-1.1a19.39,19.39,0,0,0,1.59-1.32,19,19,0,0,0,1.76-2.09l.53-.44a4.8,4.8,0,0,0,1-1.06l0-.07a4,4,0,0,0,.6-1.41.28.28,0,0,0,0-.17A2.94,2.94,0,0,0,81.44,45a.79.79,0,0,0,0-.1c0-.16,0-.3-.06-.44a1.14,1.14,0,0,0,.29-.25.45.45,0,0,0,.13-.27.17.17,0,0,0-.12-.17,1.17,1.17,0,0,1-.42-.48,2.42,2.42,0,0,0-2.39-.89l-.46,0" transform="translate(-1.32 -10.81)" style="fill: #4e5a60"/>
                    <path d="M77.7,58.3h-.05l-.15,0c-.23.1-.41.26-.42.39a.15.15,0,0,0,0,0,3.38,3.38,0,0,1-.42,1.32l-.11.21a.19.19,0,0,0,0,.1.11.11,0,0,0,.08.11l.07,0h.15a1,1,0,0,0,.36-.16l.18-.19.12-.23a3.75,3.75,0,0,0,.47-1.46.32.32,0,0,0,0-.06c0-.09-.1-.13-.23-.12" transform="translate(-1.32 -10.81)" style="fill: #4e5a60"/>
                    <path d="M58.9,62a1,1,0,0,0-.48.26A7.47,7.47,0,0,0,57.3,63.9l-.11.22v.15c0,.05.13.07.25,0h0a.66.66,0,0,0,.27-.11.64.64,0,0,0,.28-.26l.09-.21a6.84,6.84,0,0,1,.67-1.06,3.14,3.14,0,0,1,.23-.29l.07-.07h0a.32.32,0,0,0,.1-.19c0-.07,0-.12-.15-.14H58.9" transform="translate(-1.32 -10.81)" style="fill: #4e5a60"/>
                  </g>
                </g>
              </g>
              <g style="isolation: isolate">
                <g style="clip-path: url(#clip-path-9)">
                  <g style="clip-path: url(#clip-path-10)">
                    <g style="clip-path: url(#clip-path-11)">
                      <path d="M70,18.43,67.1,19.64l10.38.15,2.89-1.21L70,18.43M85.71,16.8h0v-.06a.46.46,0,0,1,.23-.1h0l.19,0h0a.43.43,0,0,1,.24.06v.08l-.13.07-.12,0H86a.42.42,0,0,1-.24-.05m-3.07,0h0v-.06a.39.39,0,0,1,.22-.1h0l.17,0H84.3a.47.47,0,0,1,.24.06h0v.06l-.08.06-.14,0H82.88a.44.44,0,0,1-.25-.06M66.06,19.83h0s0-.09.1-.13l3.48-1.46.16,0H70l11.18.16a.39.39,0,0,1,.23.05v0s0,.09-.1.13L77.82,20l-.16,0-.19,0L66.3,19.89a.43.43,0,0,1-.24-.05m13.51-3.11h0v-.06a.39.39,0,0,1,.22-.1h1.45a.47.47,0,0,1,.24.06h0v.06l-.11.07-.11,0H81l-1.23,0a.44.44,0,0,1-.25-.06m-3.07,0h0v-.06a.46.46,0,0,1,.25-.11h1.43a.44.44,0,0,1,.25.06h0v.06a.42.42,0,0,1-.23.11H76.74a.46.46,0,0,1-.24-.06M53.91,19.62v-.08a.42.42,0,0,1,.23-.1h.22l1.22,0a.43.43,0,0,1,.25.06v.08l-.06,0-.16.05h-.22l-1.22,0a.39.39,0,0,1-.24-.06m-3.07,0V19.5a.35.35,0,0,1,.23-.11h0l.19,0,1.22,0a.4.4,0,0,1,.24.06h0v.06l0,0a.49.49,0,0,1-.18.07h0l-.19,0-1.22,0a.39.39,0,0,1-.24-.06m-3.06,0h0v-.06a.39.39,0,0,1,.22-.1h.22l1.22,0a.38.38,0,0,1,.24.06v.08l-.06,0-.17.06h-.22l-1.23,0a.43.43,0,0,1-.24-.06m-3.06,0h0V19.4a.41.41,0,0,1,.22-.1h0l.19,0,1.22,0a.44.44,0,0,1,.24.06v.08a.45.45,0,0,1-.24.1h-.21l-1.23,0a.43.43,0,0,1-.24-.06m-3.06,0h0v-.06a.4.4,0,0,1,.21-.1h.22l1.23,0a.4.4,0,0,1,.24.06v.08l0,0a.68.68,0,0,1-.19.07h0l-.19,0-1.23,0a.39.39,0,0,1-.23-.06m-3.07,0h0v-.06a.47.47,0,0,1,.24-.1H39l1.23,0a.43.43,0,0,1,.24.06h0v.06l0,0a.48.48,0,0,1-.19.07h-.22l-1.23,0a.43.43,0,0,1-.24-.06m-3.06,0v-.08l.06,0,.16-.05h0l.18,0,1.22,0a.49.49,0,0,1,.22,0l0,0v.06l0,0a.61.61,0,0,1-.19.07H37l-1.22,0a.38.38,0,0,1-.24-.06M33,19.3v-.08a.44.44,0,0,1,.23-.1h.88a.41.41,0,0,1,.24.06v.08l0,0a.49.49,0,0,1-.18.07h-.9A.39.39,0,0,1,33,19.3m3.66-1.53v-.08a.45.45,0,0,1,.22-.1h.22l26.24.4a.4.4,0,0,1,.24.06h0v.06l0,0a.44.44,0,0,1-.18.07h-.22l-26.25-.41a.4.4,0,0,1-.24-.06m4-3.41L26,20.53a.52.52,0,0,0-.17.09l0,0H26l51.48.75a2.85,2.85,0,0,0,.47,0l.12,0h.06l.16,0a3.08,3.08,0,0,0,.59-.17l14.47-6-52.57-.77m3.09-1.3-1.62.68-.88.37,52.56.76,2.49-1-52.56-.77m5-2h-.09l-.17,0-.25.06a2,2,0,0,0-.34.11l-3.55,1.48L97,13.58l3.84-1.6.13-.06,0,0v0h0s0,0-.15,0l-51.48-.75-.31,0-.23,0" transform="translate(-1.32 -10.81)" style="fill: #fff"/>
                      <path d="M40.35,14.17,25.48,20.4a1.11,1.11,0,0,0-.35.19c-.06.07-.09.13,0,.19l.08.06,0-.06a.39.39,0,0,1,.22-.1h.07a.82.82,0,0,1,.3,0h0l0,0a.52.52,0,0,1,.17-.09l14.75-6.18h-.21a.39.39,0,0,1-.22-.05v0s0-.08.07-.11m3.47-1.11-1.62.68,1.62-.68m4.94-2.19h0l-.35.06h-.07a5.27,5.27,0,0,0-.87.25l-4,1.66.16,0,.19,0h.59L48,11.33a2,2,0,0,1,.34-.11l.25-.06.17,0h.09l.23,0,.31,0,51.48.75c.12,0,.14,0,.15,0h0v0c0-.05.06-.11.2-.14l.07,0h0a.86.86,0,0,1,.31,0l.08,0a1.08,1.08,0,0,0-.65-.15l-51.48-.75a5.7,5.7,0,0,0-.79.06" transform="translate(-1.32 -10.81)" style="fill: #3f4563"/>
                      <path d="M43.64,12.82l-.16,0h0L40.87,14l-.49.2h0c-.07,0-.09.08-.07.11v0a.39.39,0,0,0,.22.05h.21l52.57.77.59-.25-52.56-.76.88-.37,1.62-.68,52.56.77.6-.25-52.56-.76h-.59l-.19,0" transform="translate(-1.32 -10.81)" style="fill: #3f4563"/>
                      <path d="M67.1,19.64,70,18.43l10.39.15-2.89,1.21L67.1,19.64m2.7-1.45-.16,0-3.48,1.46c-.09,0-.13.09-.1.13h0a.43.43,0,0,0,.24.05L77.47,20l.19,0,.16,0,3.48-1.45c.1,0,.14-.09.1-.13v0a.39.39,0,0,0-.23-.05L70,18.18h-.18" transform="translate(-1.32 -10.81)" style="fill: #3f4563"/>
                      <path d="M86,16.62h0a.46.46,0,0,0-.23.1v.06h0a.42.42,0,0,0,.24.05h.22l.12,0,.13-.07v-.08a.43.43,0,0,0-.24-.06h0l-.19,0m-3.06,0h0a.39.39,0,0,0-.22.1v.06h0a.44.44,0,0,0,.25.06h1.44l.14,0,.08-.06v-.06h0a.47.47,0,0,0-.24-.06H83.07l-.17,0m-3.08,0h0a.39.39,0,0,0-.22.1v.06h0a.44.44,0,0,0,.25.06l1.23,0h.22l.11,0,.11-.07v-.06h0a.47.47,0,0,0-.24-.06H79.82m-3.06,0h0a.46.46,0,0,0-.25.11v.06h0a.46.46,0,0,0,.24.06h1.44a.42.42,0,0,0,.23-.11v-.06h0a.44.44,0,0,0-.25-.06H76.75" transform="translate(-1.32 -10.81)" style="fill: #3f4563"/>
                      <path d="M36.94,17.58h0a.45.45,0,0,0-.22.1v.08a.4.4,0,0,0,.24.06l26.25.41h.22a.44.44,0,0,0,.18-.07l0,0V18h0a.4.4,0,0,0-.24-.06l-26.24-.4h-.19" transform="translate(-1.32 -10.81)" style="fill: #3f4563"/>
                      <path d="M54.16,19.44h0a.42.42,0,0,0-.23.1v.08a.39.39,0,0,0,.24.06l1.22,0h.22l.16-.05.06,0V19.5a.43.43,0,0,0-.25-.06l-1.22,0h-.18m-3.07,0h0a.35.35,0,0,0-.23.11v.07a.39.39,0,0,0,.24.06l1.22,0,.19,0h0a.49.49,0,0,0,.18-.07l0,0v-.06h0a.4.4,0,0,0-.24-.06l-1.22,0-.19,0m-3.07,0h0a.39.39,0,0,0-.22.1v.06h0a.43.43,0,0,0,.24.06l1.23,0h.22l.17-.06.06,0v-.08a.38.38,0,0,0-.24-.06l-1.22,0H48M45,19.3h0a.41.41,0,0,0-.22.1v.06h0a.43.43,0,0,0,.24.06l1.23,0h.21a.45.45,0,0,0,.24-.1v-.08a.44.44,0,0,0-.24-.06l-1.22,0-.19,0m-3.06,0h0a.4.4,0,0,0-.21.1v.06h0a.39.39,0,0,0,.23.06l1.23,0,.19,0h0a.68.68,0,0,0,.19-.07l0,0v-.08a.4.4,0,0,0-.24-.06l-1.23,0h-.18m-3.06-.05h0a.47.47,0,0,0-.24.1v.06h0a.43.43,0,0,0,.24.06l1.23,0h.22a.48.48,0,0,0,.19-.07l0,0v-.06h0a.43.43,0,0,0-.24-.06l-1.23,0h-.18m-3.06,0h0l-.16.05-.06,0v.08a.38.38,0,0,0,.24.06l1.22,0h.22a.61.61,0,0,0,.19-.07l0,0v-.06l0,0a.49.49,0,0,0-.22,0l-1.22,0-.18,0m-2.5,0h0a.44.44,0,0,0-.23.1v.08a.39.39,0,0,0,.24.06h.9a.49.49,0,0,0,.18-.07l0,0v-.08a.41.41,0,0,0-.24-.06h-.85" transform="translate(-1.32 -10.81)" style="fill: #3f4563"/>
                      <path d="M25.87,20.94l.23.23.12,0,.15,0L77.84,22a3.52,3.52,0,0,0,.49,0h.13l.08,0,.08,0a3.77,3.77,0,0,0,.61-.18l22-9.2.23-.11,0,0-.14-.27h0l-22,9.2,0,0-.16.06-.46.13-.17,0-.26.05-.21,0h0a5.63,5.63,0,0,1-.69.06h-.09l-51.37-.75" transform="translate(-1.32 -10.81)" style="fill: #fff"/>
                      <path d="M26.1,21.18l-.23-.23,51.37.75h.09a5.63,5.63,0,0,0,.69-.06l.21,0,.26-.05.17,0,.46-.13.16-.06,0,0,22-9.2h0l.14.27,0,0-.23.11-22,9.2a3.77,3.77,0,0,1-.61.18l-.08,0-.08,0h-.13a3.52,3.52,0,0,1-.49,0l-51.48-.75-.15,0-.12,0m-.59-.51h-.07a.39.39,0,0,0-.22.1l0,.06-.05.08V21l.33.35a.37.37,0,0,0,.24.06h0a2,2,0,0,0,.46,0l51.48.75a4.66,4.66,0,0,0,.77-.05l.14,0,.12,0,.22,0a4.61,4.61,0,0,0,.84-.25l22-9.2.32-.14c.1-.06.17-.12.17-.19l0,0-.23-.43,0,0-.07,0-.16,0-.08,0a.86.86,0,0,0-.31,0h0l-.07,0c-.14,0-.22.09-.2.14v0l0,0-.13.06L97,13.58l-.6.25-2.49,1-.59.25-14.47,6a3.08,3.08,0,0,1-.59.17l-.16,0H78l-.12,0a2.85,2.85,0,0,1-.47,0L26,20.69h-.15a.82.82,0,0,0-.3,0" transform="translate(-1.32 -10.81)" style="fill: #3f4563"/>
                    </g>
                  </g>
                </g>
              </g>
            </g>
          </g>
        </g>
      </g>
    </g>
  </g>
</svg>
