<svg xmlns="http://www.w3.org/2000/svg" width="42" height="28.46" viewBox="0 0 42 28.46">
  <title>ico-chart</title>
  <g id="Layer_2" data-name="Layer 2">
    <g id="Home_-_1200" data-name="Home - 1200">
      <g id="First_Module" data-name="First Module">
        <g id="Advantages">
          <g id="Icon_Group" data-name="Icon Group">
            <g id="icon">
              <rect x="0.76" y="0.5" width="35.78" height="26.43" rx="0.37" ry="0.37" style="fill: none;stroke: #3f4563;stroke-miterlimit: 10"/>
              <g>
                <line x1="36.27" y1="4.37" x2="0.98" y2="4.37" style="fill: none;stroke: #3f4563;stroke-linecap: round;stroke-linejoin: round"/>
                <line x1="2.75" y1="2.59" x2="3.34" y2="2.59" style="fill: none;stroke: #373e5a;stroke-linecap: round;stroke-linejoin: round"/>
                <line x1="5.77" y1="2.59" x2="5.26" y2="2.59" style="fill: none;stroke: #373e5a;stroke-linecap: round;stroke-linejoin: round"/>
                <line x1="7.69" y1="2.59" x2="8.28" y2="2.59" style="fill: none;stroke: #373e5a;stroke-linecap: round;stroke-linejoin: round"/>
              </g>
              <rect x="3.05" y="7.72" width="31.22" height="2" style="fill: none;stroke: #3f4563;stroke-linecap: round;stroke-linejoin: round"/>
              <g>
                <g>
                  <path d="M1.53,28A1,1,0,0,1,.81,26.2l7.73-7.55a1,1,0,0,1,1.37-.06l5.63,4.6,10-7.75a1,1,0,0,1,1.13-.09l3.59,2,7.63-6.91-1.39-.05a1,1,0,0,1,0-2.06l4,.15a1,1,0,0,1,.77.33l.05.07.06.1a.84.84,0,0,1,.09.18,1.36,1.36,0,0,1,0,.2,1,1,0,0,1,0,.19s-.24,3.95-.24,3.95a1,1,0,0,1-1,1,1.06,1.06,0,0,1-.77-.35,1,1,0,0,1-.26-.75l.09-1.42L31.1,19.36a1,1,0,0,1-.69.27,1,1,0,0,1-.5-.13l-3.65-2-10.1,7.84a1,1,0,0,1-1.28,0L9.32,20.76,2.25,27.67A1,1,0,0,1,1.53,28Z" style="fill: #fff"/>
                  <path d="M36.5,8.81h.05L40.43,9h0a.51.51,0,0,1,.39.17h0a.53.53,0,0,1,.06.09.52.52,0,0,1,0,.08.54.54,0,0,1,0,.11.5.5,0,0,1,0,.09h0l-.24,3.93a.53.53,0,0,1-.53.5h0a.53.53,0,0,1-.5-.56l.16-2.65L30.76,19a.53.53,0,0,1-.35.14.53.53,0,0,1-.26-.07l-3.93-2.18-10.36,8a.53.53,0,0,1-.33.11.53.53,0,0,1-.33-.12l-5.9-4.82L1.9,27.31a.53.53,0,0,1-.74-.76L8.89,19a.53.53,0,0,1,.71,0l5.94,4.85,10.31-8a.53.53,0,0,1,.58,0l3.91,2.16,8.8-8-2.61-.1A.53.53,0,0,1,36,9.33a.52.52,0,0,1,.5-.51m0-1a1.53,1.53,0,0,0,0,3.06h.16l-6.45,5.85-3.28-1.82a1.53,1.53,0,0,0-1.68.13l-9.68,7.51L10.22,18.2a1.53,1.53,0,0,0-2,.09L.46,25.84A1.53,1.53,0,0,0,.44,28,1.53,1.53,0,0,0,2.6,28l6.75-6.59,5.21,4.26a1.53,1.53,0,0,0,1.9,0l9.85-7.64,3.36,1.86a1.54,1.54,0,0,0,.74.19,1.52,1.52,0,0,0,1-.4l7.28-6.6v.2A1.53,1.53,0,0,0,40.14,15h.09a1.53,1.53,0,0,0,1.53-1.44L42,9.59v0h0a1.18,1.18,0,0,0,0-.3A1.21,1.21,0,0,0,41.91,9a1.23,1.23,0,0,0-.14-.27,1,1,0,0,0-.12-.19l0,0,0,0,0,0h0A1.53,1.53,0,0,0,40.47,8h0l-3.82-.15Z" style="fill: #fff"/>
                </g>
                <path d="M41,9.52h0l-.24,3.93a.53.53,0,0,1-.53.5h0a.53.53,0,0,1-.5-.56l.16-2.65L30.76,19a.53.53,0,0,1-.61.07l-3.93-2.18-10.36,8a.53.53,0,0,1-.66,0l-5.9-4.82L1.9,27.31a.53.53,0,0,1-.74-.76L8.89,19a.53.53,0,0,1,.71,0l5.94,4.85,10.31-8a.53.53,0,0,1,.58,0l3.91,2.16,8.8-8-2.61-.1A.53.53,0,0,1,36,9.33a.51.51,0,0,1,.55-.51L40.43,9a.52.52,0,0,1,.42.17h0a.53.53,0,0,1,.06.09.52.52,0,0,1,0,.08.54.54,0,0,1,0,.11.49.49,0,0,1,0,.09Z" style="fill: #3f4563"/>
              </g>
            </g>
          </g>
        </g>
      </g>
    </g>
  </g>
</svg>
