<svg id="CDN" xmlns="http://www.w3.org/2000/svg" viewBox="0 0 150 150"><g id="SVG_Icons" data-name="SVG Icons"><path class="svg-grey" d="M138.15,108.92a.5.5,0,0,1,0,.69c-.43.5-.89,1-1.36,1.47a.54.54,0,0,1-.35.14.47.47,0,0,1-.35-.14.5.5,0,0,1,0-.7c.45-.46.9-.93,1.31-1.41A.49.49,0,0,1,138.15,108.92ZM92.32,123.24a.5.5,0,0,0,.49-.44.49.49,0,0,0-.44-.54L90.43,122a.5.5,0,0,0-.55.42.49.49,0,0,0,.42.55c.65.09,1.31.17,2,.24Zm37.75-8.06c-.55.34-1.1.67-1.68,1a.5.5,0,0,0,.24.93.42.42,0,0,0,.24-.07c.59-.32,1.16-.66,1.72-1a.49.49,0,0,0,.16-.67A.49.49,0,0,0,130.07,115.18Zm-42.53,6.37c-.64-.11-1.28-.24-1.91-.38a.51.51,0,0,0-.59.38.5.5,0,0,0,.38.59l1.94.38h.09a.49.49,0,0,0,.09-1Zm38.26-4.06c-.58.27-1.18.54-1.78.79a.49.49,0,0,0-.27.64.51.51,0,0,0,.46.31.65.65,0,0,0,.19,0c.62-.26,1.22-.53,1.82-.81a.49.49,0,0,0-.42-.89Zm8.2-5.14c-.49.41-1,.81-1.53,1.19a.49.49,0,0,0,.3.89.46.46,0,0,0,.29-.1c.54-.4,1.06-.81,1.57-1.23a.49.49,0,0,0,.06-.69A.48.48,0,0,0,134,112.35ZM95.23,123.49c.65,0,1.31.08,2,.1h0a.49.49,0,0,0,0-1c-.65,0-1.3-.06-1.95-.1a.5.5,0,0,0-.52.46A.49.49,0,0,0,95.23,123.49Zm5,.15h0q1,0,2,0a.48.48,0,0,0,.47-.5.48.48,0,0,0-.5-.48c-.65,0-1.3,0-2,0a.49.49,0,1,0,0,1Zm-30.85-8.75c-.56-.34-1.1-.69-1.63-1A.49.49,0,0,0,67,114a.48.48,0,0,0,.13.68c.54.37,1.1.73,1.67,1.08a.5.5,0,0,0,.26.08.52.52,0,0,0,.42-.24A.5.5,0,0,0,69.33,114.89Zm42.52,6.82c-.64.11-1.28.2-1.93.29a.5.5,0,0,0-.42.56.49.49,0,0,0,.48.42h.07c.66-.09,1.31-.19,2-.3a.49.49,0,0,0-.16-1Zm4.77-1c-.62.16-1.26.31-1.9.45a.49.49,0,0,0,.11,1h.1c.65-.14,1.3-.29,1.93-.45a.49.49,0,1,0-.24-1Zm-43-3.52c-.6-.28-1.18-.56-1.75-.86a.5.5,0,0,0-.66.21.49.49,0,0,0,.21.66c.58.3,1.17.6,1.78.88a.41.41,0,0,0,.21,0,.48.48,0,0,0,.44-.28A.5.5,0,0,0,73.62,117.19Zm9.16,3.3c-.64-.17-1.26-.34-1.88-.53a.49.49,0,1,0-.28.94c.63.19,1.26.37,1.91.54l.12,0a.5.5,0,0,0,.48-.37A.49.49,0,0,0,82.78,120.49Zm38.51-1.17c-.61.22-1.22.42-1.85.61a.49.49,0,0,0,.14,1,.39.39,0,0,0,.15,0c.64-.2,1.27-.4,1.88-.62a.49.49,0,1,0-.32-.93Zm-43.17-.27-1.82-.7a.5.5,0,0,0-.37.92c.61.24,1.23.48,1.86.7a.51.51,0,0,0,.17,0,.49.49,0,0,0,.16-1Zm60.48-3.55a.5.5,0,0,1-.49.48h0c-.56,0-1.15,0-1.75-.09a45.94,45.94,0,0,1-4.37,5.17.43.43,0,0,1-.11.2c-.31.31-.65.6-1,.87a44.72,44.72,0,0,1-49.36,8.4H60v1.56a1.62,1.62,0,0,1-1.61,1.61H43.4a1.62,1.62,0,0,1-1.61-1.61v-1.56H18.51a.49.49,0,0,1,0-1H41.79V128a1.62,1.62,0,0,1,1.61-1.61h7.2V118c-.43-6.23-5.14-7.68-5.73-7.84H20.29a5.11,5.11,0,0,1-5.11-5.11v-3.67A4.85,4.85,0,0,1,18,97a4.72,4.72,0,0,1-2.78-4.29V88.26a4.65,4.65,0,0,1,1.44-3.37,4.41,4.41,0,0,1,1.15-.78,4.7,4.7,0,0,1-2.53-3.57A26.61,26.61,0,0,1,2.32,63.35C-.95,49.57,6.85,35.89,19.7,32.84a21.73,21.73,0,0,1,3.23-.51A33.9,33.9,0,0,1,45,14.89c11.86-2.8,24.15,1.09,33,10.44a25,25,0,0,1,3.79-1.23,26.26,26.26,0,0,1,24.06,6.8c.34-.11.7-.21,1-.3A16.54,16.54,0,0,1,120,33.07a19,19,0,0,1,7.9,11.53,19.37,19.37,0,0,1-.21,9.76,46,46,0,0,1,4.24,3.77c.17.16.35.31.51.47a.47.47,0,0,1,.12.19,44.92,44.92,0,0,1,9.42,15c.33-.42.65-.83,1-1.26a.5.5,0,0,1,.69-.11.5.5,0,0,1,.11.69c-.39.53-.79,1.06-1.21,1.58a.46.46,0,0,1-.17.14,44.59,44.59,0,0,1,2.54,14.86c0,.26,0,.52,0,.79a18.94,18.94,0,0,1-.48,5.94A44.65,44.65,0,0,1,137,114.94l1.1.06A.49.49,0,0,1,138.6,115.5Zm4.86-31c0,.12.09.24.14.36l-.06-.46ZM132.69,61.12l-1.9.47-.13,0a.49.49,0,0,1-.12-1l1.92-.48c-.41-.44-.83-.88-1.25-1.31A13.52,13.52,0,0,0,127,56.28l-.45-.17c-.16-.06-.32-.1-.48-.15-5-1.56-11.34-.91-18.17,1.67,0,0,0,.08,0,.12,1.4.45,2.8.94,4.21,1.47A89.18,89.18,0,0,1,120.67,63l.5.25.48.25h0L123,63a.49.49,0,0,1,.62.3.49.49,0,0,1-.29.63l-.5.18c10.07,5.47,17.07,12.21,20.21,19.33a1.72,1.72,0,0,0,.26-.87A43.73,43.73,0,0,0,133,60.82.48.48,0,0,1,132.69,61.12Zm9.55,23.23c-3.07-7.26-10.3-14.25-20.68-19.79l-.09,0a.47.47,0,0,1-.17,0,.48.48,0,0,1-.46-.32s0-.08,0-.12l-.09,0-.49-.26-.5-.25a83.66,83.66,0,0,0-8-3.48q-2-.76-4-1.41a1.71,1.71,0,0,1-.34.47,48.59,48.59,0,0,1,3.44,7.14c.08.19.15.4.23.6l.22.6A61.24,61.24,0,0,1,114.55,82h0a.49.49,0,0,1,.21.67.47.47,0,0,1-.14.14q.27,3,.28,6a2.1,2.1,0,0,1,1.58,1.69c3.27-.28,6.3-.63,9.05-1-.13-.07-.24-.15-.37-.23a.49.49,0,1,1,.52-.83l1.32.83C134.77,88,140.1,86.2,142.24,84.35Zm-38,37.56a1.11,1.11,0,0,0,.75.58H105a.8.8,0,0,0,.15,0,1,1,0,0,0,.35-.07h0a1.05,1.05,0,0,0,.63-.73.88.88,0,0,0,.06-.28,1.05,1.05,0,0,0-.19-.57,1.07,1.07,0,0,0-.9-.52l-.07,0a1.05,1.05,0,0,0-.84.51,1.12,1.12,0,0,0-.18.56,1,1,0,0,0,.06.3Zm1.51-2.46a56.59,56.59,0,0,0,8.1-26.62,2.13,2.13,0,0,1-1.22-1.06c-4.12.27-8.39.4-12.63.4s-8.78-.14-13-.42v1A4.71,4.71,0,0,1,84.17,97a4.87,4.87,0,0,1,2.76,4.39v3.67a5.08,5.08,0,0,1-1.17,3.22,72,72,0,0,0,17.6,12.2,2.08,2.08,0,0,1,1.82-1.1A1.84,1.84,0,0,1,105.71,119.45Zm-17.44-38-1.66,1a.42.42,0,0,1-.26.08.41.41,0,0,1-.19,0,4.76,4.76,0,0,1-1.81,1.61,4.41,4.41,0,0,1,1.15.78,4.69,4.69,0,0,1,1.44,3.37v2.53c4,.26,8.39.4,13,.4,4.4,0,8.55-.13,12.42-.37a2.06,2.06,0,0,1,1.55-2q0-3.15-.31-6.2L112.37,82a.49.49,0,0,1-.22-.66.5.5,0,0,1,.67-.21l.68.36a60.49,60.49,0,0,0-2.86-12.86l-.21-.59c-.07-.2-.14-.39-.22-.58a48.22,48.22,0,0,0-3.63-7.73,2.48,2.48,0,0,1-.73.12,2.14,2.14,0,0,1-1.6-.69,70,70,0,0,0-16.51,11,.47.47,0,0,1,.09.48.49.49,0,0,1-.46.33.51.51,0,0,1-.17,0L87,70.9l-1.37,1.28a4.7,4.7,0,0,1,1.35,3.29v4.45s0,0,0,.08a4.23,4.23,0,0,1-.05.5,4.5,4.5,0,0,1-.15.73l1-.65.08,0a.54.54,0,0,1,.43,0,.52.52,0,0,1,.17.16A.49.49,0,0,1,88.27,81.42ZM70.4,57.26c8-3.86,20.51-4.19,33.94-.55l.18-.15A30.61,30.61,0,0,0,92.69,46.38,43.81,43.81,0,0,0,70.4,57.26Zm34.36.72a.87.87,0,0,0,.5.73,1.26,1.26,0,0,0,.59.16l.18,0a1.07,1.07,0,0,0,.73-.41,1.27,1.27,0,0,0,.1-.12.78.78,0,0,0,.07-.31,0,0,0,0,0,0,0,.8.8,0,0,0-.32-.62,1.13,1.13,0,0,0-.47-.21h-.05a1,1,0,0,0-.25,0h-.07a1.16,1.16,0,0,0-.7.25.9.9,0,0,0-.26.36l0,.13A.79.79,0,0,0,104.76,58Zm2.57-1.3c7.15-2.76,13.84-3.41,19.1-1.68l.47.16.32.12-.29-.23-.42-.33a43.66,43.66,0,0,0-26.53-9,44.69,44.69,0,0,0-5.58.37,32.26,32.26,0,0,1,11,10,3,3,0,0,1,.43,0A2.18,2.18,0,0,1,107.33,56.68Zm-40.26,3.2-.32-.05-.23,0h-.08a14.59,14.59,0,0,0-2.26-.13H36.33c-.07,0-4.92-.22-8.1,2.38l-8.92,8.77a3.93,3.93,0,0,1,.59-.06H82.21l.27,0L72.25,62a10.67,10.67,0,0,0-4.43-2l-.12,0h0ZM84.83,71.49s0,0,0,0l1-1-.56-.19a.5.5,0,0,1-.3-.63.49.49,0,0,1,.63-.3l1,.37A71.37,71.37,0,0,1,103.8,58.19a1.4,1.4,0,0,1,0-.61c-14.38-3.85-27.62-3.12-35,1.66a11.19,11.19,0,0,1,4.1,2l7.74,6.61a.44.44,0,0,1,.37,0l1.88.6a.49.49,0,0,1-.15,1,.4.4,0,0,1-.15,0l-.3-.09Zm-16-13.82h0Zm.3.13a.49.49,0,0,0-.15-.1A.49.49,0,0,1,69.09,57.8ZM114.45,92a1,1,0,0,0,.39-.08,1,1,0,0,0,.41-.29,1.09,1.09,0,0,0,.29-.72,1,1,0,0,0-.05-.25,1.07,1.07,0,0,0-.59-.73,1,1,0,0,0-.45-.11,1.1,1.1,0,0,0-.54.16,1.08,1.08,0,0,0-.53.83.44.44,0,0,0,0,.1,1.05,1.05,0,0,0,.41.83l.09.07A1.09,1.09,0,0,0,114.45,92ZM16.91,71.84a.61.61,0,0,1,.12-.16L27.57,61.31c3.52-2.88,8.58-2.64,8.79-2.63h27.8a14.68,14.68,0,0,1,3.17.24c.33-.35.67-.69,1-1l.07-.08h0A44.82,44.82,0,0,1,92.55,45.41l.21,0a45.19,45.19,0,0,1,7.22-.59,44.66,44.66,0,0,1,26.83,8.92,18.45,18.45,0,0,0,.08-8.87,18.06,18.06,0,0,0-7.49-10.94,15.57,15.57,0,0,0-12.34-2.33,13,13,0,0,0-1.26.36.49.49,0,0,1-.49-.11,25.29,25.29,0,0,0-23.37-6.75A23.6,23.6,0,0,0,78,26.36a.51.51,0,0,1-.56-.11A33.83,33.83,0,0,0,52.6,15a32.08,32.08,0,0,0-7.39.87A32.89,32.89,0,0,0,23.68,33a.49.49,0,0,1-.4.26,22.16,22.16,0,0,0-3.36.52C7.61,36.72.14,49.87,3.27,63.12A25.68,25.68,0,0,0,15.18,79.38V75.47A4.74,4.74,0,0,1,16.91,71.84Zm2.5,11.77c.12,0,.24,0,.36,0H82.36A3.7,3.7,0,0,0,84,83.2a3.76,3.76,0,0,0,1.94-2.82c0-.15,0-.3,0-.46V75.47a3.78,3.78,0,0,0-1.06-2.61,4.22,4.22,0,0,0-.79-.6,4.06,4.06,0,0,0-1-.4,3.94,3.94,0,0,0-.93-.13H19.9a3.91,3.91,0,0,0-1.45.29,3.75,3.75,0,0,0-2.28,3.45v4.45h0a2.78,2.78,0,0,0,.06.58,3.2,3.2,0,0,0,.15.61A3.72,3.72,0,0,0,19.41,83.61Zm.49,12.84H82.21A3.74,3.74,0,0,0,86,92.71V88.26a3.7,3.7,0,0,0-1.13-2.66,3.49,3.49,0,0,0-1.61-.87,2.93,2.93,0,0,0-.84-.1H19.69a3.45,3.45,0,0,0-2.39,1,3.7,3.7,0,0,0-1.13,2.66v4.45A3.74,3.74,0,0,0,19.9,96.45Zm31.18,18.79a9,9,0,0,1,3.06-4.52,8.62,8.62,0,0,1,1.34-.87,7.41,7.41,0,0,1,1.58-.66H81.82a4.07,4.07,0,0,0,2.53-.89,3.76,3.76,0,0,0,.69-.69,4.09,4.09,0,0,0,.91-2.55v-3.67a4,4,0,0,0-4-3.95H20.29a4,4,0,0,0-4.13,3.94v3.67a4.14,4.14,0,0,0,4.13,4.13H45.05A9.09,9.09,0,0,1,51.08,115.24Zm13.47-5.08H61.2a43.61,43.61,0,0,0,4.58,6.94,17.76,17.76,0,0,1-1.06-4.25c-.52-.41-1-.84-1.49-1.28a.49.49,0,1,1,.66-.72l.7.59C64.56,111,64.55,110.59,64.55,110.16ZM59,128a.63.63,0,0,0-.63-.63H43.4a.63.63,0,0,0-.62.63v4.09a.62.62,0,0,0,.62.62H58.34a.63.63,0,0,0,.63-.62V128Zm20.52,1.55a45.07,45.07,0,0,1-10.41-7.41.67.67,0,0,1-.14-.09c-.09-.1-.17-.2-.27-.3-.74-.72-1.46-1.47-2.15-2.25l-1.36.31h-.1a.5.5,0,0,1-.48-.39.51.51,0,0,1,.39-.59l.82-.18a45.26,45.26,0,0,1-5.7-8.5H57.24A7.5,7.5,0,0,0,55,111.31c-.12.24-.23.47-.32.7a.49.49,0,0,1-.46.3.63.63,0,0,1-.19,0l-.08-.06A8.87,8.87,0,0,0,51.59,118v8.39h6.75A1.61,1.61,0,0,1,60,128v1.55Zm11,2.93a28.3,28.3,0,0,0,13-9.85,2.12,2.12,0,0,1-.37-1.19v0a71.92,71.92,0,0,1-18-12.42,5.06,5.06,0,0,1-3.24,1.19H65.49c.05,4.39,1.31,8.16,3.88,10.9A43.87,43.87,0,0,0,90.45,132.48Zm36-7.88a20.09,20.09,0,0,1-6.73,1.07,36.26,36.26,0,0,1-12.38-2.48.56.56,0,0,1-.28.13l-1.34.1a1.91,1.91,0,0,1-.58.1,2.13,2.13,0,0,1-.87-.2,30.11,30.11,0,0,1-12,9.52,43.57,43.57,0,0,0,34.22-8.24Zm14-18.06c-.16.23-.3.47-.45.7a.49.49,0,0,1-.41.21.6.6,0,0,1-.28-.08.5.5,0,0,1-.12-.69c.36-.53.71-1.07,1-1.62a.48.48,0,0,1,.67-.18.5.5,0,0,1,.15.14c.24-.64.46-1.29.67-1.94a.49.49,0,0,1-.18-.6c.09-.2.16-.42.24-.63l-.95-.94a.49.49,0,0,1,.67-.71c.24.22.45.43.67.65a1,1,0,0,0,.06-.16.57.57,0,0,1,.26-.29c.19-.75.36-1.52.51-2.29a.67.67,0,0,1,0-.2c.13-.63.24-1.27.32-1.9a.4.4,0,0,1,.07-.19,44.66,44.66,0,0,0,.41-4.94,20.12,20.12,0,0,0-1.23-5.61c-2.61,2-8.11,3.68-15.09,4.85a0,0,0,0,0,0,0,.48.48,0,0,1-.41.23.5.5,0,0,1-.27-.08l-.08,0c-3.2.51-6.68.93-10.34,1.24a2.06,2.06,0,0,1-1.61,1.41c-.6,10.37-3.54,19.82-8.14,27.09a2.11,2.11,0,0,1,.59,1.45,2.08,2.08,0,0,1-.11.66c9.3,3.58,17.77,3.61,23-.64A44,44,0,0,0,140.49,106.54Zm5.3-.37a.52.52,0,0,0,.29-.09.51.51,0,0,0,.12-.69q-.54-.77-1.23-1.59a.49.49,0,0,0-.69-.06.48.48,0,0,0-.06.69q.66.79,1.17,1.53A.52.52,0,0,0,145.79,106.17Zm1.93,1.86a.5.5,0,1,0-.91.39,6.64,6.64,0,0,1,.53,1.75.5.5,0,0,0,.49.42h.07a.5.5,0,0,0,.42-.55A8.49,8.49,0,0,0,147.72,108Zm-.88,4.6a3.85,3.85,0,0,1-1.3,1.14.51.51,0,0,0-.19.68.52.52,0,0,0,.43.24.54.54,0,0,0,.25-.06,5,5,0,0,0,1.62-1.43.5.5,0,0,0-.12-.69A.51.51,0,0,0,146.84,112.63Zm-3.93,2.05a16.38,16.38,0,0,1-1.89.25.49.49,0,0,0-.45.53.48.48,0,0,0,.49.45h0a18.63,18.63,0,0,0,2-.27.49.49,0,0,0,.39-.57A.49.49,0,0,0,142.91,114.68Zm-3.58-16.47c-.49-.42-1-.84-1.52-1.27a.49.49,0,0,0-.69.07.48.48,0,0,0,.07.69q.78.63,1.5,1.26a.54.54,0,0,0,.32.11.46.46,0,0,0,.37-.17A.48.48,0,0,0,139.33,98.21Zm-9.49-7.11a.49.49,0,0,0-.68.13.48.48,0,0,0,.13.68L130.91,93a.48.48,0,0,0,.28.08.46.46,0,0,0,.4-.21.48.48,0,0,0-.12-.68Zm4,2.83a.49.49,0,1,0-.58.79l1.57,1.17a.47.47,0,0,0,.3.1.52.52,0,0,0,.39-.19.49.49,0,0,0-.1-.69C135,94.71,134.43,94.32,133.89,93.93ZM107.75,79.14a.49.49,0,0,0,.23.66l1.76.87a.59.59,0,0,0,.22,0,.5.5,0,0,0,.44-.27.49.49,0,0,0-.22-.66l-1.77-.88A.51.51,0,0,0,107.75,79.14ZM118.9,84.4l-1.73-1a.49.49,0,1,0-.47.87l1.72,1a.49.49,0,0,0,.66-.19A.49.49,0,0,0,118.9,84.4Zm4.26,2.48-1.7-1a.48.48,0,0,0-.67.18.49.49,0,0,0,.18.67l1.69,1a.47.47,0,0,0,.25.07.49.49,0,0,0,.42-.24A.48.48,0,0,0,123.16,86.88ZM104,76.8a.49.49,0,0,0-.41.9l.23.1,1.55.73a.52.52,0,0,0,.21,0,.49.49,0,0,0,.21-.93l-1.56-.73ZM98.87,75s-.05.05-.06.09a.49.49,0,0,0,.25.65c.6.25,1.2.52,1.8.78a.35.35,0,0,0,.14,0l.06,0a.49.49,0,0,0,.45-.3v0a.47.47,0,0,0-.25-.62q-.89-.41-1.77-.78L101,74a.49.49,0,0,0,.2-.67.48.48,0,0,0-.66-.2l-1.74.94a.5.5,0,0,0-.19.67A.51.51,0,0,0,98.87,75ZM90,72l1.83.7a.57.57,0,0,0,.18,0,.49.49,0,0,0,.18-.95l-1.85-.7A.49.49,0,1,0,90,72Zm4.57,1.79,1.81.74a.43.43,0,0,0,.19,0,.5.5,0,0,0,.46-.3.49.49,0,0,0-.27-.64l-1.82-.76a.5.5,0,0,0-.37.92ZM53.89,115.1c0-.13,0-.27,0-.4a.49.49,0,0,0-.45-.53.5.5,0,0,0-.53.45,3.85,3.85,0,0,0,0,.48,4.9,4.9,0,0,0,.27,1.66.51.51,0,0,0,.47.32l.17,0a.49.49,0,0,0,.29-.63A3.69,3.69,0,0,1,53.89,115.1ZM145,60.66a4.22,4.22,0,0,1,1.45,1,.48.48,0,0,0,.36.16.5.5,0,0,0,.34-.13.49.49,0,0,0,0-.7,5.05,5.05,0,0,0-1.79-1.19.49.49,0,1,0-.38.9ZM147.09,64a8.51,8.51,0,0,1-.44,1.8.5.5,0,0,0,.31.63.45.45,0,0,0,.16,0,.49.49,0,0,0,.46-.34,9.13,9.13,0,0,0,.49-2,.49.49,0,0,0-.43-.54A.5.5,0,0,0,147.09,64ZM140.36,60h.49c.5,0,1,0,1.43.06h0a.49.49,0,0,0,0-1c-.48,0-1-.06-1.52-.06h-.5a.48.48,0,0,0-.48.5A.5.5,0,0,0,140.36,60Zm4.32,10.73a.47.47,0,0,0,.25.07.48.48,0,0,0,.42-.23c.37-.59.7-1.17,1-1.73a.49.49,0,1,0-.87-.46c-.29.55-.61,1.11-1,1.67A.48.48,0,0,0,144.68,70.75Zm-9.22-10.21h.09c.66-.12,1.31-.22,1.92-.3a.49.49,0,1,0-.12-1c-.63.08-1.29.18-2,.3a.48.48,0,0,0-.4.57A.49.49,0,0,0,135.46,60.54ZM62.1,119.31c-.69.08-1.33.13-1.91.14a.49.49,0,0,0-.49.5.5.5,0,0,0,.49.48h0c.62,0,1.29-.06,2-.14a.49.49,0,0,0,.43-.54A.5.5,0,0,0,62.1,119.31Zm-4.71-.15a5.33,5.33,0,0,1-1.64-.72.49.49,0,0,0-.68.13.51.51,0,0,0,.13.69,6.45,6.45,0,0,0,1.94.85.32.32,0,0,0,.13,0,.48.48,0,0,0,.47-.37A.49.49,0,0,0,57.39,119.16Zm59.52-52.77,1.82-.74a.48.48,0,0,0,.3-.5.78.78,0,0,0,0-.14.51.51,0,0,0-.26-.26.5.5,0,0,0-.38,0l-1.83.74a.55.55,0,0,0-.27.27.48.48,0,0,0,0,.37.54.54,0,0,0,.09.12.5.5,0,0,0,.37.19A.39.39,0,0,0,116.91,66.39Zm-2.59.33a.52.52,0,0,0-.51-.08l-.51.23-1.29.58a.49.49,0,0,0-.25.65.5.5,0,0,0,.45.29.46.46,0,0,0,.2,0l1.8-.79a.49.49,0,0,0,.25-.65A.42.42,0,0,0,114.32,66.72Zm13.36-5.27c-.62.19-1.25.38-1.89.59a.49.49,0,0,0-.31.62A.48.48,0,0,0,126,63l.15,0c.63-.21,1.25-.4,1.87-.59a.49.49,0,0,0-.29-.94ZM91.94,78l-1.68,1a.5.5,0,0,0-.21.57s0,.08,0,.11a.51.51,0,0,0,.42.23.48.48,0,0,0,.26-.07l.6-.36c.36-.22.71-.44,1.08-.65a.5.5,0,0,0-.51-.85Zm4.26-2.48-1.71,1a.48.48,0,0,0-.18.67.5.5,0,0,0,.43.25.51.51,0,0,0,.24-.07l1.71-1a.49.49,0,0,0,.18-.67A.48.48,0,0,0,96.2,75.52Zm11.56-5a.41.41,0,0,0,.21,0l.28-.13,1-.47.52-.24a.5.5,0,0,0,.24-.66l-.06-.08a.47.47,0,0,0-.47-.18.31.31,0,0,0-.13,0l-1.78.85a.49.49,0,0,0-.22.66A.49.49,0,0,0,107.76,70.47Zm-4.4,2.21a.64.64,0,0,0,.23-.05c.58-.31,1.16-.61,1.75-.9a.49.49,0,0,0-.45-.88l-1.76.9a.49.49,0,0,0,.23.93ZM34.69,27.2a.47.47,0,0,0,.32-.12,26,26,0,0,1,11.23-5.79c.79-.19,1.6-.34,2.39-.45a.49.49,0,1,0-.13-1c-.83.11-1.67.27-2.49.46a26.94,26.94,0,0,0-11.64,6,.48.48,0,0,0,0,.69A.5.5,0,0,0,34.69,27.2Zm-14.76,13a.48.48,0,0,0-.65-.23A20,20,0,0,0,9,52.24a.49.49,0,0,0,.32.62l.15,0a.5.5,0,0,0,.47-.35,19,19,0,0,1,9.77-11.65A.5.5,0,0,0,19.93,40.22ZM65,103.76H76a.49.49,0,1,0,0-1H65a.49.49,0,1,0,0,1Zm0-25.52H76a.49.49,0,1,0,0-1l-11.11,0a.48.48,0,0,0-.41.47A.49.49,0,0,0,65,78.24ZM64.75,91A.51.51,0,0,0,65,91H76a.5.5,0,0,0,.45-.29.65.65,0,0,0,0-.2.49.49,0,0,0-.49-.49H64.94a.5.5,0,0,0-.44.48h0A.5.5,0,0,0,64.75,91Z"/></g></svg>