<svg id="worm" xmlns="http://www.w3.org/2000/svg" viewBox="0 0 81 115"><defs><style>.blue-stroke-white{fill:#fff;stroke:#373e5a;stroke-linecap:round;stroke-linejoin:round;stroke-width:1.5px}</style></defs><path class="blue-stroke-white" d="M24.26 89c4.77-.44 4.46-10.25 2.15-17.11C14.52 36.49 44.94 14 58.6 8.13a11.56 11.56 0 1 1 9.19 21.21c-2.27 1-22.25 11.36-17.92 39.08C52 82 50.55 91.91 45.45 98.64a20.9 20.9 0 0 1-14.53 8.21A25.71 25.71 0 0 1 4.61 91.53l-.43-1.31 20.62-1.35"/><path d="M11.64 94.14a1.32 1.32 0 1 1 .6 1.77 1.32 1.32 0 0 1-.6-1.77zm3.91 4.58A1.32 1.32 0 1 0 15 97a1.32 1.32 0 0 0 .55 1.72zm4.16 2.34a1.32 1.32 0 1 0-.6-1.77 1.32 1.32 0 0 0 .61 1.78zm3.84 1.46a1.32 1.32 0 1 0-.6-1.77 1.32 1.32 0 0 0 .6 1.77zm3.76.31a1.32 1.32 0 1 0-.6-1.77 1.32 1.32 0 0 0 .6 1.77zm5.2-3a1.32 1.32 0 1 0 .85 1.66 1.32 1.32 0 0 0-.85-1.71zm3.74-1.64a1.32 1.32 0 1 0 .85 1.66 1.32 1.32 0 0 0-.85-1.71zm2.84-2.78a1.32 1.32 0 1 0 .85 1.59 1.32 1.32 0 0 0-.85-1.64zm2.61-3.29a1.32 1.32 0 1 0 .85 1.66 1.32 1.32 0 0 0-.85-1.71zm2.19-4.43a1.32 1.32 0 1 0 .85 1.66 1.32 1.32 0 0 0-.85-1.71zm.94-3.92a1.32 1.32 0 1 0 .85 1.66 1.32 1.32 0 0 0-.85-1.71zm.17-4.21a1.32 1.32 0 1 0 .85 1.66 1.32 1.32 0 0 0-.85-1.66zm.39-4.7a1.32 1.32 0 1 0 .85 1.66 1.32 1.32 0 0 0-.86-1.66zm-.55-5.44a1.32 1.32 0 1 0 .61 1.76 1.32 1.32 0 0 0-.61-1.76zm-.46-4.89a1.32 1.32 0 1 0 .62 1.75 1.32 1.32 0 0 0-.62-1.75zm2-15.74a1.32 1.32 0 1 0-.25 1.85 1.32 1.32 0 0 0 .28-1.86zm1.35-4.71a1.32 1.32 0 1 0-.19 1.86 1.32 1.32 0 0 0 .22-1.86zM58 31.56A1.32 1.32 0 1 0 56.82 33 1.32 1.32 0 0 0 58 31.56zm4-3.11a1.32 1.32 0 1 0-1.22 1.41A1.32 1.32 0 0 0 62 28.45zm3.43-2.82a1.32 1.32 0 1 0-1.08 1.53 1.32 1.32 0 0 0 1.12-1.52zm4.6-7.29a1.32 1.32 0 1 0 .17 1.86 1.32 1.32 0 0 0-.13-1.86zm-26 41.09a1.32 1.32 0 1 0 .53 1.79 1.32 1.32 0 0 0-.49-1.78zm.71-5.27A1.32 1.32 0 1 0 45 56a1.32 1.32 0 0 0-.22-1.84zm5.58-14.84a1.32 1.32 0 1 0-.5 1.8 1.32 1.32 0 0 0 .54-1.8zm3.58-4.14a1.32 1.32 0 1 0-.79 1.69 1.32 1.32 0 0 0 .84-1.69zM68.34 22.5a1.32 1.32 0 1 0-.81 1.68 1.32 1.32 0 0 0 .81-1.68zM9.75 92.16a1.32 1.32 0 1 0-.6-1.77 1.32 1.32 0 0 0 .6 1.77zm20.3-30a1.32 1.32 0 1 0 .16 1.84 1.32 1.32 0 0 0-.21-1.82zm.16-5.61a1.32 1.32 0 1 0 .17 1.86 1.32 1.32 0 0 0-.18-1.84zm.24-5.77a1.32 1.32 0 1 0 .17 1.86 1.32 1.32 0 0 0-.18-1.84zm.23-5.78a1.32 1.32 0 1 0 .17 1.86 1.32 1.32 0 0 0-.17-1.86zm1.93-5.22a1.32 1.32 0 1 0 .17 1.86 1.32 1.32 0 0 0-.16-1.83zm2.45-5a1.32 1.32 0 1 0 .17 1.86 1.32 1.32 0 0 0-.16-1.8zm3-5.21a1.32 1.32 0 1 0 .17 1.86 1.32 1.32 0 0 0-.14-1.8zm2.81-3.58a1.32 1.32 0 1 0 .17 1.86 1.32 1.32 0 0 0-.14-1.8zm3.89-3.85a1.32 1.32 0 1 0 .24 1.93 1.32 1.32 0 0 0-.21-1.86zm3.55-3.16a1.32 1.32 0 1 0 .17 1.86 1.32 1.32 0 0 0-.15-1.79zM52.64 16a1.32 1.32 0 1 0 .17 1.86 1.32 1.32 0 0 0-.17-1.86zm4-2.43a1.32 1.32 0 1 0 .17 1.86 1.32 1.32 0 0 0-.17-1.87zm4-2.51a1.32 1.32 0 1 0 .17 1.86 1.32 1.32 0 0 0-.14-1.87zM6.8 96.15a5.35 5.35 0 0 0-1.08-1.38l-5.81 5.35 7.41-2.62a5.35 5.35 0 0 0-.52-1.35zm3.49 3.66a5.35 5.35 0 0 0-1.47-1l-3.75 7 6.15-4.89a5.35 5.35 0 0 0-.92-1.11zm5 4.33a5.35 5.35 0 0 0-1.62-.66L11.31 111l5.11-6a5.35 5.35 0 0 0-1.13-.86zm5.42 2.07a5.35 5.35 0 0 0-1.73-.27l-.57 7.88 3.6-7a5.35 5.35 0 0 0-1.29-.62zm5.66 1.23a5.35 5.35 0 0 0-1.75.07l.92 7.85 2.22-7.54a5.35 5.35 0 0 0-1.39-.39zm4.81-.07a5.35 5.35 0 0 0-1.68.5l2.86 7.36.26-7.85a5.35 5.35 0 0 0-1.43-.02zm5.51-1.57a5.35 5.35 0 0 0-1.51.89l4.54 6.46-1.63-7.69a5.35 5.35 0 0 0-1.4.33zm5.06-2.8a5.35 5.35 0 0 0-1.27 1.21l5.88 5.28-3.36-7.15a5.35 5.35 0 0 0-1.25.66zm3.93-4a5.35 5.35 0 0 0-.87 1.52l7.14 3.39L46.74 98a5.35 5.35 0 0 0-1.07 1zm3.13-5.59a5.35 5.35 0 0 0-.49 1.68l7.74 1.59-6.46-4.48a5.35 5.35 0 0 0-.8 1.21zm1.14-6.51a5.35 5.35 0 0 0 0 1.75l7.89-.46-7.44-2.66a5.35 5.35 0 0 0-.46 1.37zm1.25-7.31a5.35 5.35 0 0 0 .29 1.73l7.66-1.92-7.76-1.24a5.35 5.35 0 0 0-.2 1.43zm-.34-7.11a5.35 5.35 0 0 0 .43 1.7l7.48-2.54-7.84-.64a5.35 5.35 0 0 0-.08 1.48zm-.86-7a5.35 5.35 0 0 0 .48 1.68l7.41-2.75-7.89-.36a5.35 5.35 0 0 0 0 1.45zm-.25-8.82a5.35 5.35 0 0 0 .12 1.75l7.81-1.17-7.6-2a5.35 5.35 0 0 0-.35 1.44zm1.55-6.59a5.35 5.35 0 0 0-.22 1.74l7.89.34-7.08-3.4a5.35 5.35 0 0 0-.61 1.34zm3.15-7.58a5.35 5.35 0 0 0-.62 1.64l7.59 2.18-6.09-5a5.35 5.35 0 0 0-.89 1.2zm6.08-7.69a5.35 5.35 0 0 0-1.19 1.28l6.2 4.9-3.76-6.9a5.35 5.35 0 0 0-1.27.74zm6-4.33a5.35 5.35 0 0 0-1.39 1.06l5.27 5.89L67.9 30a5.35 5.35 0 0 0-1.36.49zm4.24-2.71A5.35 5.35 0 0 0 69.5 29l5.84 5.32-3.26-7.15a5.35 5.35 0 0 0-1.3.61zM74 23.34a5.35 5.35 0 0 0-.56 1.66l7.65 2-6.23-4.79a5.35 5.35 0 0 0-.86 1.13zM60.76 7.25a5.35 5.35 0 0 0 1.58-.75L58.41-.35l.91 7.8a5.35 5.35 0 0 0 1.44-.2zM55.84 9a5.35 5.35 0 0 0 1.46-1l-4.83-6.24 2 7.6A5.35 5.35 0 0 0 55.84 9zm-5.25 3A5.35 5.35 0 0 0 52 11l-5.42-5.83 2.66 7.39a5.35 5.35 0 0 0 1.35-.56zm-5.25 3.67a5.35 5.35 0 0 0 1.31-1.16l-5.7-5.47L44 16.31a5.35 5.35 0 0 0 1.34-.6zm-4.77 3.94a5.35 5.35 0 0 0 1.12-1.35l-6.47-4.53 4.14 6.67a5.35 5.35 0 0 0 1.21-.75zm-4.71 5a5.35 5.35 0 0 0 .93-1.48l-7-3.67 5 6.09a5.35 5.35 0 0 0 1.07-.9zM32.26 29a5.35 5.35 0 0 0 .74-1.52l-7.32-3 5.52 5.59A5.35 5.35 0 0 0 32.26 29zm-3 4.74a5.35 5.35 0 0 0 .59-1.65l-7.63-2 6.18 4.85a5.35 5.35 0 0 0 .87-1.16zm-4.64 11.4a5.35 5.35 0 0 0 .17-1.74l-7.9-.14 7.17 3.22a5.35 5.35 0 0 0 .58-1.3zm-1.14 6.25a5.35 5.35 0 0 0 0-1.75l-7.86.81 7.5 2.33a5.35 5.35 0 0 0 .37-1.35zm-.22 6.74a5.35 5.35 0 0 0-.33-1.72l-7.62 2.09 7.78 1.07a5.35 5.35 0 0 0 .18-1.4zm.62 5.8a5.35 5.35 0 0 0-.53-1.67l-7.31 3 7.86.13a5.35 5.35 0 0 0-.01-1.39zm1.38 6a5.35 5.35 0 0 0-.71-1.6l-6.94 3.78 7.82-.74a5.35 5.35 0 0 0-.16-1.37zM27 75.82a5.35 5.35 0 0 0-.59-1.65l-7.2 3.24 7.79-.14a5.35 5.35 0 0 0 0-1.45zm.55 6.18a5.35 5.35 0 0 0-.18-1.74l-7.77 1.47 7.66 1.73a5.35 5.35 0 0 0 .29-1.46zm-1.24 5.31a5.35 5.35 0 0 0 .57-1.65l-7.65-2 6.22 4.8a5.35 5.35 0 0 0 .86-1.11zm.38-48a5.35 5.35 0 0 0 .39-1.71l-7.82-1.16L26 40.62a5.35 5.35 0 0 0 .69-1.25zM11 96.38a6 6 0 0 0-1-1.15l-2.46 3.45 4.21-1a6 6 0 0 0-.75-1.3zm3.43 3.51a6 6 0 0 0-1.35-.81l-1.39 4 3.77-2.13a6 6 0 0 0-.99-1.06zm4.88 2.73a6 6 0 0 0-1.52-.4l-.24 4.21 3-3.08a6 6 0 0 0-1.2-.73zm4.69 1.29a6 6 0 0 0-1.58 0l.89 4.12 2.12-3.78a6 6 0 0 0-1.43-.34zm4.4.3a6 6 0 0 0-1.52.42l1.91 3.76 1.08-4.19a6 6 0 0 0-1.48.01zm4.44-.88a6 6 0 0 0-1.43.66l2.5 3.39.38-4.32a6 6 0 0 0-1.45.27zm4.88-2a6 6 0 0 0-1.24 1l3.21 2.67-.63-4.29a6 6 0 0 0-1.34.64zm3.41-2.94a6 6 0 0 0-.82 1.35l4 1.42-2.1-3.79a6 6 0 0 0-1.08 1.04zm3-3.74a6 6 0 0 0-.58 1.46l4.15.74-2.7-3.37a6 6 0 0 0-.9 1.18zm2.42-5a6 6 0 0 0-.28 1.55l4.21-.11-3.32-2.78a6 6 0 0 0-.64 1.33zm.74-4.81a6 6 0 0 0 .16 1.57l4-1.26-4-1.76a6 6 0 0 0-.19 1.44zm.08-4.38a6 6 0 0 0 .22 1.54l3.95-1.48-4-1.54a6 6 0 0 0-.2 1.46zm0-4.78a6 6 0 0 0 .47 1.5l3.68-2-4.23-.92a6 6 0 0 0 .04 1.41zm-.68-5.18a6 6 0 0 0 .22 1.5l3.93-1.52L46.78 69a6 6 0 0 0-.13 1.49zm-.44-4.91a6 6 0 0 0 .28 1.55l3.91-1.57-4.08-1.45a6 6 0 0 0-.15 1.46zm1.33-15a6 6 0 0 0-.47 1.5l4.19.42-2.95-3.17a6 6 0 0 0-.81 1.22zm1.4-4.74a6 6 0 0 0-.42 1.52l4.2.29-3-3.08a6 6 0 0 0-.82 1.24zm-3.15 14.74a6 6 0 0 0 .17 1.56l4-1.34-4-1.68a6 6 0 0 0-.17 1.46zm.48-5a6 6 0 0 0-.08 1.57l4.17-.62-3.64-2.34a6 6 0 0 0-.45 1.41zM7.87 91.5a6 6 0 0 0-.81-1.35L3.95 93l4.33-.09a6 6 0 0 0-.41-1.41zm22-6.1a6 6 0 0 0 .13-1.57l-4.19.42 3.52 2.52a6 6 0 0 0 .52-1.37zm.51-6.93a6 6 0 0 0-.38-1.54l-3.85 1.71 4.13 1.3a6 6 0 0 0 .08-1.47zm-1.15-6.29a6 6 0 0 0-.61-1.45l-3.48 2.38 4.3.53a6 6 0 0 0-.22-1.46zM27.64 66a6 6 0 0 0-.6-1.46l-3.5 2.35 4.3.56a6 6 0 0 0-.2-1.45zm-1-5.31a6 6 0 0 0-.39-1.53L22.44 61l4.17 1.17a6 6 0 0 0 .02-1.49zM26.22 55a6 6 0 0 0-.22-1.59l-4 1.31 4 1.71a6 6 0 0 0 .22-1.43zm.72-6a6 6 0 0 0 .29-1.55l-4.23.1 3.31 2.8a6 6 0 0 0 .64-1.35zm31.11-15.34a6 6 0 0 0-1.17 1.06l3.4 2.49-.92-4.21a6 6 0 0 0-1.31.66zm4-3.11a6 6 0 0 0-1.22 1l3.28 2.65-.73-4.27a6 6 0 0 0-1.38.63zm3.64-2.82a6 6 0 0 0-1.11 1.12l3.52 2.31L66.92 27a6 6 0 0 0-1.26.73zm6.07-7.07a6 6 0 0 0-.4 1.52l4.21.22-3.09-3a6 6 0 0 0-.75 1.26zM51.24 41.23a6 6 0 0 0-.67 1.43l4.1 1-2.49-3.56a6 6 0 0 0-.94 1.13zm3.25-4a6 6 0 0 0-.9 1.29l3.87 1.66-1.86-3.91a6 6 0 0 0-1.11.94zm14.37-12.69a6 6 0 0 0-.91 1.28l3.85 1.71-1.8-3.94a6 6 0 0 0-1.14.95zM28.3 43.26a6 6 0 0 0 .29-1.55l-4.21.08 3.31 2.8a6 6 0 0 0 .61-1.33zm1.7-5.44a6 6 0 0 0 .49-1.5l-4.19-.49 2.89 3.22a6 6 0 0 0 .81-1.23zm2.75-5.26a6 6 0 0 0 .66-1.43l-4.1-1 2.5 3.54a6 6 0 0 0 .97-1.11zm3.42-4a6 6 0 0 0 .92-1.28l-3.84-1.73 1.79 3.94a6 6 0 0 0 1.16-.9zm4.38-4.7a6 6 0 0 0 .92-1.28l-3.84-1.73 1.79 3.94a6 6 0 0 0 1.17-.89zm4.63-4.09a6 6 0 0 0 .92-1.28l-3.8-1.69 1.79 3.94a6 6 0 0 0 1.13-.93zm4-4.29a6 6 0 0 0 1-1.19l-3.58-2.04 1.4 4.1a6 6 0 0 0 1.24-.83zm5.06-3.13a6 6 0 0 0 1.23-1l-3.2-2.63L53 13a6 6 0 0 0 1.3-.61zm4.84-2.56a6 6 0 0 0 1.31-.88l-3-3 .31 4.32a6 6 0 0 0 1.43-.41zM76.32 12a1.1 1.1 0 1 0-.5-1.48 1.1 1.1 0 0 0 .5 1.48zm-1.7-2.23a1.1 1.1 0 1 0-.5-1.48 1.1 1.1 0 0 0 .49 1.52z" fill="#373e5a"/><path class="blue-stroke-white" d="M73 17.13a13.15 13.15 0 0 0-4.8-7.29.41.41 0 0 1 0-.69A10.66 10.66 0 0 1 71.73 8 3.57 3.57 0 0 1 75 9.49l.89 1.22a3.65 3.65 0 0 1 .46 3.49A8.56 8.56 0 0 1 74 17.44a.64.64 0 0 1-1-.31z"/></svg>