<svg xmlns="http://www.w3.org/2000/svg" viewBox="0 0 37.36 36.26"><defs><style>.cls-1{fill:none;}.cls-1,.cls-3{stroke:#e7ebed;stroke-miterlimit:10;}.cls-2,.cls-3{fill:#f3f5f6;}</style></defs><title>icon-no-check</title><g id="Layer_2" data-name="Layer 2"><g id="_1200" data-name="1200"><g id="Technical_Support" data-name="Technical Support"><ellipse class="cls-1" cx="18.68" cy="18.13" rx="18.18" ry="17.63"/><circle class="cls-1" cx="18.99" cy="18.26" r="14.78"/><path class="cls-2" d="M11.58,29.34C8.25,26,3.52,16.85,11.48,8.9A14.32,14.32,0,0,1,25.4,5.24,14.13,14.13,0,0,0,7.84,7.67a15.06,15.06,0,0,0,0,20.94,13.92,13.92,0,0,0,8.45,3.88A14.5,14.5,0,0,1,11.58,29.34Z"/><path class="cls-3" d="M11.58,29.34C8.25,26,3.52,16.85,11.48,8.9A14.32,14.32,0,0,1,25.4,5.24,14.13,14.13,0,0,0,7.84,7.67a15.06,15.06,0,0,0,0,20.94,13.92,13.92,0,0,0,8.45,3.88A14.5,14.5,0,0,1,11.58,29.34Z"/><path class="cls-1" d="M11.58,29.34C8.25,26,3.52,16.85,11.48,8.9A14.32,14.32,0,0,1,25.4,5.24,14.13,14.13,0,0,0,7.84,7.67a15.06,15.06,0,0,0,0,20.94,13.92,13.92,0,0,0,8.45,3.88A14.5,14.5,0,0,1,11.58,29.34Z"/></g></g></g></svg>