<svg xmlns="http://www.w3.org/2000/svg" width="41" height="34.28" viewBox="0 0 41 34.28">
  <title>icon-cloud-data</title>
  <g id="Layer_2" data-name="Layer 2">
    <g id="Home_-_1200" data-name="Home - 1200">
      <g id="How">
        <g id="Nav">
          <g id="cdn_-_sm" data-name="cdn - sm">
            <path d="M32.09,4.54l-.39.14A7.89,7.89,0,0,0,24.28,3a7.55,7.55,0,0,0-1.21.49A10.4,10.4,0,0,0,12.87.93,10.19,10.19,0,0,0,6.52,6.68a6.74,6.74,0,0,0-1,.23A7.47,7.47,0,0,0,.86,16.39a7.84,7.84,0,0,0,5.31,5.33,8.87,8.87,0,0,0,10.27,4.55,8.4,8.4,0,0,0,5.2-4.67,10.08,10.08,0,0,0,2.62-2.26,7.65,7.65,0,0,0,5.06.22,7.77,7.77,0,0,0,4.8-4.29,4.8,4.8,0,0,0,1.18-.2,5.33,5.33,0,0,0,3.3-6.76A5.33,5.33,0,0,0,32.09,4.54Z" style="fill: #f8f9fa;stroke: #969c9c;stroke-linecap: round;stroke-linejoin: round"/>
            <path d="M26.35,22.39H38.68a1.83,1.83,0,0,1,1.82,1.82v1.44a1.83,1.83,0,0,1-1.82,1.82H29a3.54,3.54,0,0,0-2.49,3.3v3" style="fill: #f8f9fa;stroke: #969c9c;stroke-linecap: round;stroke-linejoin: round"/>
            <rect x="12.61" y="12.33" width="27.89" height="5.09" rx="1.65" ry="1.65" style="fill: #f8f9fa;stroke: #969c9c;stroke-linecap: round;stroke-linejoin: round"/>
            <line x1="32.05" y1="14.9" x2="36.39" y2="14.9" style="fill: #fff;stroke: #969c9c;stroke-linecap: round;stroke-linejoin: round;stroke-dasharray: 2.0920705795288086,3.138105869293213"/>
            <rect x="12.61" y="17.37" width="27.89" height="5.09" rx="1.65" ry="1.65" style="fill: #f8f9fa;stroke: #969c9c;stroke-linecap: round;stroke-linejoin: round"/>
            <line x1="32.05" y1="19.94" x2="36.39" y2="19.94" style="fill: #fff;stroke: #969c9c;stroke-linecap: round;stroke-linejoin: round;stroke-dasharray: 2.0920705795288086,3.138105869293213"/>
            <path d="M26.76,22.39H14.43a1.83,1.83,0,0,0-1.82,1.82v1.44a1.83,1.83,0,0,0,1.82,1.82h9.71a3.54,3.54,0,0,1,2.49,3.3v3" style="fill: #f8f9fa;stroke: #969c9c;stroke-linecap: round;stroke-linejoin: round"/>
            <line x1="32.05" y1="24.95" x2="36.39" y2="24.95" style="fill: #fff;stroke: #969c9c;stroke-linecap: round;stroke-linejoin: round;stroke-dasharray: 2.0920705795288086,3.138105869293213"/>
            <path d="M26.24,7.55l-5.49,0a5.45,5.45,0,0,0-3.32,1l-4.32,3.78H26.24" style="fill: #f8f9fa;stroke: #969c9c;stroke-linecap: round;stroke-linejoin: round"/>
            <line x1="13.9" y1="32.65" x2="39.05" y2="32.65" style="fill: #fff;stroke: #969c9c;stroke-linecap: round;stroke-linejoin: round"/>
            <path d="M26.22,7.55l5.49,0a5.45,5.45,0,0,1,3.32,1l4.32,3.78H26.22" style="fill: #f8f9fa;stroke: #969c9c;stroke-linecap: round;stroke-linejoin: round"/>
          </g>
        </g>
      </g>
    </g>
  </g>
</svg>
