<svg xmlns="http://www.w3.org/2000/svg" viewBox="0 0 50 50"><path class="medium-blue" d="M5.5 33a.5.5 0 0 1 0-1h2a.5.5 0 0 1 0 1h-2zm5 0a.5.5 0 0 1 0-1h2a.5.5 0 0 1 0 1h-2zm5 0a.5.5 0 0 1 0-1h2a.5.5 0 0 1 0 1h-2zm5 0a.5.5 0 0 1 0-1h2a.5.5 0 0 1 0 1h-2zm13-7a.5.5 0 0 1 0-1h2a.5.5 0 0 1 0 1h-2zm5 0a.5.5 0 0 1 0-1h2a.5.5 0 0 1 0 1h-2zm8 8a.5.5 0 0 0 .5-.5v-3.43l1-1.23c.27-.33.64-.67.54-1.14a.81.81 0 0 0-1.31-.45L45.4 29H31.5a.5.5 0 0 0-.5.5v4a.5.5 0 0 0 .5.5h8.65l-7.85 7.48-6.67-5.93-.12-.08a.81.81 0 0 0-1 1.17l7 10.81a.81.81 0 0 0 .63.37.81.81 0 0 0 .63-.3L43.8 34zm-.5-1h-1.38L46 31.3zm-14 0v-3h12.35l-3.15 3zm.18 13.69l-6.06-9.37 5.72 5.08.12.08a.81.81 0 0 0 .83-.08L41.6 34l.85-.81 3.24-3.09zM26.5 28a.5.5 0 0 0 0-1l-21-.05a.5.5 0 0 0 0 1l21 .05zM48 35.14A1.87 1.87 0 0 1 46.14 37h-3.49l-.81 1h4.3A2.87 2.87 0 0 0 49 35.14V29.2l-1 1.23zM46.14 10H4.86A2.87 2.87 0 0 0 2 12.86v22.28A2.87 2.87 0 0 0 4.86 38h19.32l-.53-.82a1.75 1.75 0 0 1-.09-.18H4.86A1.87 1.87 0 0 1 3 35.14V22h45v4.1a1.84 1.84 0 0 1 1 .48V12.86A2.87 2.87 0 0 0 46.14 10zM48 21H3v-3h45zm0-4H3v-4.14A1.87 1.87 0 0 1 4.86 11h41.28A1.87 1.87 0 0 1 48 12.86zM35.55 37h-6.79l1.13 1h4.61z"/></svg>