<svg xmlns="http://www.w3.org/2000/svg" viewBox="0 0 25 25"><path class="blue" d="M5.93,16.59H20.07a.5.5,0,0,0,.47-.32l4-10.37a.51.51,0,0,0-.06-.46.49.49,0,0,0-.41-.22H3.82L3,1.63a.49.49,0,0,0-.48-.39H.94a.5.5,0,0,0-.5.5.5.5,0,0,0,.5.5H2.13L5.18,15.93,3.31,17.79a1.63,1.63,0,0,0,1.15,2.78h.08a1.7,1.7,0,1,0,1.57,0h12a1.7,1.7,0,1,0,1.57,0h.41a.5.5,0,0,0,.5-.5.5.5,0,0,0-.5-.5H4.46A.63.63,0,0,1,3.83,19,.64.64,0,0,1,4,18.5ZM4,6.22H23.33l-3.6,9.37H6.12ZM5.33,22.76A.7.7,0,1,1,6,22.07.69.69,0,0,1,5.33,22.76Zm13.55,0a.7.7,0,1,1,.69-.69A.69.69,0,0,1,18.88,22.76Z"/></svg>