<svg xmlns="http://www.w3.org/2000/svg" xmlns:xlink="http://www.w3.org/1999/xlink" width="113.44" height="42.14" viewBox="0 0 113.44 42.14">
  <defs>
    <clipPath id="clip-path" transform="translate(-11.77 -21.71)">
      <polygon points="0 78.17 6.24 0 141.66 7.1 135.42 85.27 0 78.17" style="fill: none"/>
    </clipPath>
    <clipPath id="clip-path-2" transform="translate(-11.77 -21.71)">
      <polyline points="57.94 81.21 138.72 43.99 83.72 4.06 2.94 41.28 57.94 81.21" style="fill: none"/>
    </clipPath>
  </defs>
  <title>icon-dollar</title>
  <g id="Layer_2" data-name="Layer 2">
    <g id="Home_-_1200" data-name="Home - 1200">
      <g id="Web_Security" data-name="Web Security">
        <g id="Illustration">
          <g id="Money">
            <g>
              <polygon points="94.74 31.47 108.74 32.81 94.41 42.14 2.08 39.81 24.07 25.81 94.74 31.47" style="fill: #edf0f3"/>
              <g style="isolation: isolate">
                <g style="clip-path: url(#clip-path)">
                  <g style="clip-path: url(#clip-path-2)">
                    <path d="M45.6,28.14l.1,0a8.91,8.91,0,0,0,1.54-.89l.41-.32.36.21.67.39.46.26.88.48.1.05.49.26.08,0c11.82,6.1,26.47,8.34,38.5,9l.61,0H90a153.71,153.71,0,0,0,22.24-.4l.63-.07-.22.34a1.59,1.59,0,0,0-.28.73,1.27,1.27,0,0,0,.62,1.12,4.65,4.65,0,0,0,1.62.67l.35.08L100.19,56.17H99.8a11,11,0,0,0-8.46,3.75l-.16.18-.35,0-2.52.23a161.24,161.24,0,0,1-21.92.41h-.46C36.42,59.16,20.17,49.53,20,49.41l-.22-.12.26-.19c1.42-1,2-1.88,2-2.57a1.89,1.89,0,0,0-.92-1.66,4.5,4.5,0,0,0-1.2-.61l-.33-.11L39.42,28.66l.38.1a8.33,8.33,0,0,0,1,.18l.56,0h.17a9,9,0,0,0,3.08-.45,10.11,10.11,0,0,0,1-.4m-.37-5.51L12.93,47.54l.31.22.58.41c4,2.75,20,12.16,52.15,13.88h.43a217.34,217.34,0,0,0,30.17-.67l.26,0,.93-.08h.08l2.32-.23,23.47-26.15-.89.11A195.79,195.79,0,0,1,90.9,36.19l-.5,0-.35,0C75.65,35.36,59.67,32.54,48.39,25l-1-.68-.3-.22c-.65-.47-1.28-1-1.88-1.45" transform="translate(-11.77 -21.71)" style="fill: #edf0f3"/>
                    <path d="M12.93,47.54,45.23,22.63c.6.5,1.23,1,1.88,1.45l.3.22,1,.68C59.67,32.53,75.65,35.36,90,36.14l.35,0,.5,0A195.79,195.79,0,0,0,122.74,35l.89-.11L100.16,61.06l-2.32.23h-.08l-.93.08-.26,0a217.34,217.34,0,0,1-30.17.67H66C33.83,60.34,17.85,50.93,13.82,48.17l-.58-.41-.31-.22M45.42,21.71,11.77,47.66l.15.13.24.19.39.29C15.84,50.6,32,60.81,65.81,62.58a223,223,0,0,0,34.56-1l.33,0h0l24.51-27.31-.78.12a189.67,189.67,0,0,1-33.64,1.34c-14.89-.78-31.55-3.74-42.85-12-.75-.54-1.48-1.11-2.18-1.71l-.33-.27" transform="translate(-11.77 -21.71)" style="fill: #3f4563"/>
                    <path d="M90,45.54h0a3.24,3.24,0,0,1,.52.07,1.81,1.81,0,0,1,.73.3,1.05,1.05,0,0,1,.45,1,3.77,3.77,0,0,1-1.49,2.32,10.21,10.21,0,0,1-4.15,2.18,5.85,5.85,0,0,1-1.69.19h0l-.27,0-.25,0a1.92,1.92,0,0,1-.73-.3,1.05,1.05,0,0,1-.45-1,3.79,3.79,0,0,1,1.49-2.32,10.38,10.38,0,0,1,4.15-2.18,6.44,6.44,0,0,1,1.4-.19H90M68,39.81c.3,0,.6,0,.88.08s.56.08.83.14a6.11,6.11,0,0,1,2.37,1,3,3,0,0,1,1.35,2.84c-.12,1.36-1,2.93-2.8,4.48a21.44,21.44,0,0,1-8.83,4.42,18.06,18.06,0,0,1-5.18.56H56.4l-.66-.06q-.43-.05-.83-.14a6.27,6.27,0,0,1-2.38-1,3.06,3.06,0,0,1-1.34-2.84c.12-1.36,1-2.93,2.79-4.47a21.46,21.46,0,0,1,8.85-4.42q.58-.14,1.15-.25a18.78,18.78,0,0,1,2.5-.3c.42,0,.83,0,1.23,0H68M45.6,36.52a3.41,3.41,0,0,1,.51.06,1.91,1.91,0,0,1,.73.31,1,1,0,0,1,.45,1,3.81,3.81,0,0,1-1.5,2.32,10.21,10.21,0,0,1-4.15,2.17l-.16,0a5.66,5.66,0,0,1-1.53.15h0l-.27,0-.25,0a2,2,0,0,1-.72-.3,1.06,1.06,0,0,1-.45-1,3.77,3.77,0,0,1,1.5-2.32,10.26,10.26,0,0,1,4.14-2.18l.35-.08a5.63,5.63,0,0,1,1.36-.11m1.95-8.82-.26.16A11.51,11.51,0,0,1,41,29.51h-.16l-.52,0c-.26,0-.53-.07-.79-.12L20.89,43.9a6,6,0,0,1,1,.56A2.23,2.23,0,0,1,23,46.38c-.05.75-.59,1.66-2,2.74l.16.09c2.58,1.43,18.32,9.56,45.07,11l.32,0h.17a159.28,159.28,0,0,0,21-.34l2.95-.26a12.86,12.86,0,0,1,9.11-4l14-15.21a5.13,5.13,0,0,1-1.56-.71,1.54,1.54,0,0,1-.75-1.39,1.67,1.67,0,0,1,.15-.53l-1.73.15a164.26,164.26,0,0,1-20.08.21h-.26l-.93-.05c-11.77-.69-25.93-2.85-37.6-8.59l-.28-.14-.47-.24-.47-.24-.81-.43-1.35-.76" transform="translate(-11.77 -21.71)" style="fill: #fff"/>
                    <path d="M47.29,27.85l.26-.16,1.35.76.81.43.47.24.47.24.28.14c11.67,5.73,25.84,7.9,37.6,8.59l.93.05h.26a164.26,164.26,0,0,0,20.08-.21l1.73-.15a1.67,1.67,0,0,0-.15.53,1.54,1.54,0,0,0,.75,1.39,5.13,5.13,0,0,0,1.56.71l-14,15.21a12.86,12.86,0,0,0-9.11,4l-2.95.26a159.28,159.28,0,0,1-21,.34h-.17l-.32,0c-26.75-1.46-42.5-9.6-45.07-11L21,49.12c1.41-1.08,1.95-2,2-2.74a2.23,2.23,0,0,0-1.09-1.91,6,6,0,0,0-1-.56L39.57,29.33c.27.05.53.09.79.12l.52,0H41a11.51,11.51,0,0,0,6.25-1.66m.36-1-.41.32a8.91,8.91,0,0,1-1.54.89l-.1,0a10.11,10.11,0,0,1-1,.4A9,9,0,0,1,41.5,29h-.17l-.56,0a8.33,8.33,0,0,1-1-.18l-.38-.1L19.58,44.15l.33.11a4.5,4.5,0,0,1,1.2.61A1.89,1.89,0,0,1,22,46.52c-.06.69-.6,1.54-2,2.57l-.26.19.22.12c.21.12,16.46,9.75,46,11.34h.46a161.24,161.24,0,0,0,21.92-.41l2.52-.23.35,0,.16-.18a11,11,0,0,1,8.46-3.75h.39L114.94,40.1l-.35-.08a4.65,4.65,0,0,1-1.62-.67,1.27,1.27,0,0,1-.62-1.12,1.59,1.59,0,0,1,.28-.73l.22-.34-.63.07a153.71,153.71,0,0,1-22.24.4h-.15l-.61,0c-12-.68-26.68-2.92-38.5-9l-.08,0-.49-.26-.1-.05-.88-.48-.46-.26L48,27.1l-.36-.21" transform="translate(-11.77 -21.71)" style="fill: #3f4563"/>
                    <path d="M51.67,49.18a7.13,7.13,0,0,1,2.71-4.32A20.76,20.76,0,0,1,67.8,40.07a10.41,10.41,0,0,1,1.62.21,5.92,5.92,0,0,1,2.25.93A2.9,2.9,0,0,1,73,43.93a7.11,7.11,0,0,1-2.71,4.32A20.72,20.72,0,0,1,56.82,53a10.45,10.45,0,0,1-1.63-.21,5.82,5.82,0,0,1-2.24-.93,2.9,2.9,0,0,1-1.28-2.72M68,39.81h-.3c-.4,0-.81,0-1.23,0a18.78,18.78,0,0,0-2.5.3q-.57.11-1.15.25A21.46,21.46,0,0,0,54,44.79c-1.75,1.54-2.67,3.11-2.79,4.47a3.06,3.06,0,0,0,1.34,2.84,6.27,6.27,0,0,0,2.38,1q.4.08.83.14l.66.06h.23a18.06,18.06,0,0,0,5.18-.56,21.44,21.44,0,0,0,8.83-4.42c1.75-1.55,2.68-3.11,2.8-4.48A3,3,0,0,0,72.08,41a6.11,6.11,0,0,0-2.37-1q-.4-.08-.83-.14c-.29,0-.58-.06-.88-.08" transform="translate(-11.77 -21.71)" style="fill: #3f4563"/>
                    <path d="M67.8,40.07a20.76,20.76,0,0,0-13.43,4.79,7.13,7.13,0,0,0-2.71,4.32,2.9,2.9,0,0,0,1.28,2.72,5.82,5.82,0,0,0,2.24.93,10.45,10.45,0,0,0,1.63.21,20.72,20.72,0,0,0,13.42-4.79A7.11,7.11,0,0,0,73,43.93a2.9,2.9,0,0,0-1.27-2.72,5.92,5.92,0,0,0-2.25-.93,10.41,10.41,0,0,0-1.62-.21" transform="translate(-11.77 -21.71)" style="fill: #3f4563"/>
                    <path d="M89.64,46.06a4,4,0,0,0-1.15.14A8.75,8.75,0,0,0,85,48.07a3.34,3.34,0,0,0-1.31,2,.77.77,0,0,0,.32.7,1.13,1.13,0,0,0,.46.19l.32,0a4.25,4.25,0,0,0,1.16-.13A8.83,8.83,0,0,0,89.45,49a3.5,3.5,0,0,0,1.3-2,.79.79,0,0,0-.31-.78A1.18,1.18,0,0,0,90,46.1a2,2,0,0,0-.34,0" transform="translate(-11.77 -21.71)" style="fill: #fff"/>
                    <path d="M83.67,50.1a3.34,3.34,0,0,1,1.31-2,8.75,8.75,0,0,1,3.51-1.87,4,4,0,0,1,1.15-.14,2,2,0,0,1,.34,0,1.18,1.18,0,0,1,.45.19.79.79,0,0,1,.31.78,3.5,3.5,0,0,1-1.3,2,8.83,8.83,0,0,1-3.51,1.87,4.25,4.25,0,0,1-1.16.13l-.32,0a1.13,1.13,0,0,1-.46-.19.77.77,0,0,1-.32-.7M90,45.54h-.29a6.44,6.44,0,0,0-1.4.19,10.38,10.38,0,0,0-4.15,2.18,3.79,3.79,0,0,0-1.49,2.32,1.05,1.05,0,0,0,.45,1,1.92,1.92,0,0,0,.73.3l.25,0,.27,0h0a5.85,5.85,0,0,0,1.69-.19,10.21,10.21,0,0,0,4.15-2.18,3.77,3.77,0,0,0,1.49-2.32,1.05,1.05,0,0,0-.45-1,1.81,1.81,0,0,0-.73-.3,3.24,3.24,0,0,0-.52-.07" transform="translate(-11.77 -21.71)" style="fill: #3f4563"/>
                    <path d="M45.22,37a4.18,4.18,0,0,0-1.16.13A9,9,0,0,0,40.54,39a3.47,3.47,0,0,0-1.3,2,.8.8,0,0,0,.31.78A1.18,1.18,0,0,0,40,42l.33,0a4.4,4.4,0,0,0,1.16-.13A8.87,8.87,0,0,0,45,40a3.49,3.49,0,0,0,1.31-2,.79.79,0,0,0-.31-.78,1.18,1.18,0,0,0-.46-.19l-.32,0" transform="translate(-11.77 -21.71)" style="fill: #fff"/>
                    <path d="M39.24,41a3.47,3.47,0,0,1,1.3-2,9,9,0,0,1,3.52-1.87A4.18,4.18,0,0,1,45.22,37l.32,0a1.18,1.18,0,0,1,.46.19.79.79,0,0,1,.31.78A3.49,3.49,0,0,1,45,40a8.87,8.87,0,0,1-3.51,1.88,4.4,4.4,0,0,1-1.16.13L40,42a1.18,1.18,0,0,1-.45-.19.8.8,0,0,1-.31-.78m6.36-4.48a5.63,5.63,0,0,0-1.36.11l-.35.08a10.26,10.26,0,0,0-4.14,2.18,3.77,3.77,0,0,0-1.5,2.32,1.06,1.06,0,0,0,.45,1,2,2,0,0,0,.72.3l.25,0,.27,0h0a5.66,5.66,0,0,0,1.53-.15l.16,0a10.21,10.21,0,0,0,4.15-2.17,3.81,3.81,0,0,0,1.5-2.32,1,1,0,0,0-.45-1,1.91,1.91,0,0,0-.73-.31,3.41,3.41,0,0,0-.51-.06" transform="translate(-11.77 -21.71)" style="fill: #3f4563"/>
                  </g>
                </g>
              </g>
            </g>
          </g>
        </g>
      </g>
    </g>
  </g>
</svg>
