<svg xmlns="http://www.w3.org/2000/svg" viewBox="0 0 50 41.37"><defs><style>.cls-1{opacity:0.4;}.cls-2{fill:none;stroke:#969c9c;stroke-miterlimit:10;}</style></defs><title>icon-grey-gears</title><g id="Layer_2" data-name="Layer 2"><g id="_1200" data-name="1200"><g id="Sales_Support" data-name="Sales Support"><g id="technical_support_icon" data-name="technical support icon" class="cls-1"><polygon class="cls-2" points="49.45 8.26 48.19 9.23 48.08 10.99 49.2 12.16 48.95 12.93 47.38 13.09 46.5 14.44 46.95 16.03 46.36 16.56 44.91 15.89 43.39 16.65 43.01 18.25 42.24 18.39 41.3 17.05 39.61 16.91 38.51 18.06 37.77 17.78 37.59 16.14 36.29 15.2 34.77 15.64 34.25 15.02 34.87 13.51 34.11 11.91 32.58 11.48 32.43 10.68 33.69 9.72 33.81 7.95 32.68 6.78 32.94 6.01 34.51 5.86 35.38 4.5 34.94 2.91 35.52 2.38 36.97 3.05 38.49 2.29 38.87 0.7 39.64 0.55 40.58 1.89 42.27 2.04 43.38 0.88 44.11 1.16 44.29 2.81 45.59 3.74 47.11 3.31 47.63 3.92 47.02 5.43 47.77 7.03 49.3 7.46 49.45 8.26"/><ellipse class="cls-2" cx="40.94" cy="9.47" rx="4.09" ry="4.29" transform="translate(-1.04 7.7) rotate(-10.61)"/><path class="cls-2" d="M38.23,12.59a4.47,4.47,0,0,1-.76-1.77,4.2,4.2,0,0,1,3.21-5,4,4,0,0,1,3.44,1"/><polygon class="cls-2" points="35.05 23.57 32.19 25 31.31 28.44 33.09 31.19 32.3 32.6 29.13 32.32 26.9 34.66 27.17 37.98 25.82 38.81 23.2 36.94 19.92 37.87 18.56 40.87 16.99 40.87 15.63 37.87 12.35 36.94 9.73 38.81 8.38 37.98 8.65 34.66 6.42 32.32 3.25 32.6 2.46 31.19 4.25 28.44 3.36 25 0.5 23.57 0.5 21.93 3.36 20.5 4.25 17.06 2.46 14.31 3.25 12.89 6.42 13.18 8.65 10.83 8.38 7.51 9.73 6.69 12.35 8.55 15.63 7.63 16.99 4.63 18.56 4.63 19.92 7.63 23.2 8.55 25.82 6.69 27.17 7.52 26.9 10.83 29.13 13.18 32.3 12.89 33.09 14.31 31.31 17.06 32.19 20.5 35.05 21.93 35.05 23.57"/><ellipse class="cls-2" cx="17.78" cy="22.75" rx="8.22" ry="8.62"/><path class="cls-2" d="M11.25,27.88a8.8,8.8,0,0,1-.84-3.78,8.43,8.43,0,0,1,8.22-8.62,8,8,0,0,1,6.43,3.24"/></g></g></g></g></svg>