<svg xmlns="http://www.w3.org/2000/svg" xmlns:xlink="http://www.w3.org/1999/xlink" width="172.5" height="102.74" viewBox="0 0 172.5 102.74">
  <defs>
    <clipPath id="clip-path">
      <polygon points="18.65 67.88 18.26 36.9 101.38 47.1 101.78 78.08 18.65 67.88" style="fill: none"/>
    </clipPath>
  </defs>
  <title>icon-alarm-clock</title>
  <g id="Layer_2" data-name="Layer 2">
    <g id="Home_-_1200" data-name="Home - 1200">
      <g id="Web_Security" data-name="Web Security">
        <g id="Illustration">
          <g id="Hacker">
            <g id="Clock">
              <path d="M121.09,75.41s38,0,49.33,12-27.33,15.33-27.33,15.33L86.42,96.08Z" style="fill: #edf0f3"/>
              <g style="isolation: isolate">
                <g style="isolation: isolate">
                  <line x1="105.67" y1="100.1" x2="70.5" y2="95.18" style="fill: #373e5a"/>
                </g>
                <g>
                  <path d="M11.37,82.6a6.91,6.91,0,0,1-2.86-1.11,9.41,9.41,0,0,1-2.36-2.28,11.57,11.57,0,0,1-1.62-3.12,12,12,0,0,1-.64-3.63L3,28.59a10.63,10.63,0,0,1,.51-3.52A8.25,8.25,0,0,1,5.06,22.3a6.27,6.27,0,0,1,2.3-1.73,5.62,5.62,0,0,1,2.85-.42L109.5,30.87A7.62,7.62,0,0,1,112.67,32a9.78,9.78,0,0,1,2.6,2.37A11.63,11.63,0,0,1,117,37.64a12,12,0,0,1,.66,3.86L118,87.76a10.38,10.38,0,0,1-.62,3.66,8.23,8.23,0,0,1-1.72,2.82,6.69,6.69,0,0,1-2.56,1.7,6.46,6.46,0,0,1-3.13.32L11.37,82.6m98.38-54.71L77.6,24.46v.21L36,20.22V20L9.91,17.24a7.17,7.17,0,0,0-3.64.54A8,8,0,0,0,3.34,20a10.55,10.55,0,0,0-1.93,3.53A13.61,13.61,0,0,0,.76,28l.87,44.2a15.29,15.29,0,0,0,.82,4.63,14.77,14.77,0,0,0,2.06,4,12,12,0,0,0,3,2.91,8.82,8.82,0,0,0,3.64,1.42l99,13.85a8.26,8.26,0,0,0,4-.4,8.54,8.54,0,0,0,3.27-2.17,10.5,10.5,0,0,0,2.2-3.6,13.26,13.26,0,0,0,.79-4.68l-.25-46.71a15.34,15.34,0,0,0-.85-4.94,14.85,14.85,0,0,0-2.26-4.21,12.47,12.47,0,0,0-3.33-3,9.72,9.72,0,0,0-4-1.41" style="fill: #fff"/>
                  <path d="M6.65,16.47H6.58a8.67,8.67,0,0,0-3.17,2.4,11.42,11.42,0,0,0-2.09,3.82,14.71,14.71,0,0,0-.7,4.87L1.5,71.74a16.53,16.53,0,0,0,.89,5A16,16,0,0,0,4.62,81a13,13,0,0,0,3.25,3.15,9.54,9.54,0,0,0,3.94,1.54l99,13.9a8.94,8.94,0,0,0,4.33-.43,8.8,8.8,0,0,0,.85-.36l0,0,20.41-14.15h0A9.25,9.25,0,0,0,140,82.29a11.36,11.36,0,0,0,2.39-3.89,14.32,14.32,0,0,0,.86-5.06L143,26.62a16.57,16.57,0,0,0-.92-5.34,16.07,16.07,0,0,0-2.45-4.55,13.5,13.5,0,0,0-3.6-3.28,10.52,10.52,0,0,0-4.38-1.52" style="fill: #fff;stroke: #3f4563;stroke-miterlimit: 10"/>
                  <path d="M131.76,11.55l-.48,0L71.54,4.82,54.85,3,31.56.54a7.17,7.17,0,0,0-3.64.54A8,8,0,0,0,25,3.27h0L6.76,16.08H6.68a8.67,8.67,0,0,0-3.17,2.4,11.42,11.42,0,0,0-2.09,3.82,14.71,14.71,0,0,0-.7,4.87l.87,44.18a16.53,16.53,0,0,0,.89,5,16,16,0,0,0,2.23,4.3A13,13,0,0,0,8,83.79a9.54,9.54,0,0,0,3.94,1.54l99,13.9a8.94,8.94,0,0,0,4.33-.43,8.8,8.8,0,0,0,.85-.36l0,0,20.41-14.15h0a9.25,9.25,0,0,0,3.54-2.35A11.36,11.36,0,0,0,142.5,78a14.32,14.32,0,0,0,.86-5.06l-.24-46.73a16.57,16.57,0,0,0-.92-5.34,16.07,16.07,0,0,0-2.45-4.55,13.5,13.5,0,0,0-3.6-3.28,10.52,10.52,0,0,0-4.38-1.52Z" style="fill: #fff;stroke: #373e5a;stroke-miterlimit: 10"/>
                  <polyline points="76.77 23.37 36.73 19.12 36.74 19.33 76.77 23.58 76.77 23.37" style="fill: #373e5a"/>
                  <path d="M115.4,99.23a9.4,9.4,0,0,0,2.69-2,11.36,11.36,0,0,0,2.39-3.89,14.32,14.32,0,0,0,.86-5.06l-.24-46.73a16.57,16.57,0,0,0-.92-5.34,16.07,16.07,0,0,0-2.45-4.55,13.5,13.5,0,0,0-3.6-3.28,10.52,10.52,0,0,0-4.38-1.52" style="fill: #373e5a"/>
                  <path d="M107.17,98.6l-96-13.43a8.82,8.82,0,0,1-3.64-1.42,12,12,0,0,1-3-2.91,14.77,14.77,0,0,1-2.06-4,15.29,15.29,0,0,1-.82-4.63L.76,28a13.61,13.61,0,0,1,.64-4.5A10.55,10.55,0,0,1,3.34,20a8,8,0,0,1,2.93-2.22,7.17,7.17,0,0,1,3.64-.54L36,20l0-1L9.89,16.27A7.76,7.76,0,0,0,6,16.86a8.67,8.67,0,0,0-3.17,2.4A11.42,11.42,0,0,0,.7,23.08,14.71,14.71,0,0,0,0,28L.88,72.13a16.53,16.53,0,0,0,.89,5A16,16,0,0,0,4,81.44a13,13,0,0,0,3.25,3.15,9.54,9.54,0,0,0,3.94,1.54l99,13.9a8.94,8.94,0,0,0,4.33-.43,8.8,8.8,0,0,0,.85-.36" style="fill: #373e5a"/>
                  <path d="M115.27,98.15a8.15,8.15,0,0,1-1.06.47,8.26,8.26,0,0,1-4,.4l-3-.43" style="fill: none;stroke: #373e5a;stroke-miterlimit: 10"/>
                  <path d="M109.74,26.87,77.59,23.46v1l32.15,3.43a9.72,9.72,0,0,1,4,1.41,12.47,12.47,0,0,1,3.33,3,14.85,14.85,0,0,1,2.26,4.21,15.34,15.34,0,0,1,.85,4.94l.25,46.71a13.26,13.26,0,0,1-.79,4.68,10.5,10.5,0,0,1-2.2,3.6,8.74,8.74,0,0,1-2.21,1.7" style="fill: #373e5a"/>
                  <path d="M109.94,27.81,77.8,24.39v.21L36.16,20.15v-.2L10.1,17.17a7.17,7.17,0,0,0-3.64.54,8,8,0,0,0-2.93,2.22,10.55,10.55,0,0,0-1.93,3.53A13.61,13.61,0,0,0,1,28l.87,44.2a15.29,15.29,0,0,0,.82,4.63,14.77,14.77,0,0,0,2.06,4,12,12,0,0,0,3,2.91,8.82,8.82,0,0,0,3.64,1.42l99,13.85a8.26,8.26,0,0,0,4-.4,8.54,8.54,0,0,0,3.27-2.17,10.5,10.5,0,0,0,2.2-3.6,13.26,13.26,0,0,0,.79-4.68l-.25-46.71a15.34,15.34,0,0,0-.85-4.94,14.85,14.85,0,0,0-2.26-4.21,12.47,12.47,0,0,0-3.33-3,9.72,9.72,0,0,0-4-1.41" style="fill: #fff;stroke: #3f4563;stroke-miterlimit: 10"/>
                  <path d="M108.77,38.17,11.42,27.31a1.76,1.76,0,0,0-.89.13A2,2,0,0,0,9.8,28a2.59,2.59,0,0,0-.48.87A3.33,3.33,0,0,0,9.16,30L10,72.41a3.75,3.75,0,0,0,.2,1.14,3.63,3.63,0,0,0,.51,1,3,3,0,0,0,.74.71,2.16,2.16,0,0,0,.9.35l96.81,13.08a2,2,0,0,0,1-.1,2.09,2.09,0,0,0,.8-.54,2.58,2.58,0,0,0,.53-.88,3.27,3.27,0,0,0,.19-1.14l-.28-44.52a3.77,3.77,0,0,0-.21-1.21,3.64,3.64,0,0,0-.55-1,3.06,3.06,0,0,0-.81-.74,2.39,2.39,0,0,0-1-.35" style="fill: #fff;stroke: #3f4563;stroke-miterlimit: 10"/>
                  <path d="M108.58,39.25,11.24,28.35a1.18,1.18,0,0,0-.6.09,1.31,1.31,0,0,0-.48.36,1.72,1.72,0,0,0-.32.58,2.23,2.23,0,0,0-.11.74l.79,42.47a2.51,2.51,0,0,0,.13.76A2.42,2.42,0,0,0,11,74a2,2,0,0,0,.5.48,1.44,1.44,0,0,0,.6.23l96.82,13a1.35,1.35,0,0,0,.65-.07,1.4,1.4,0,0,0,.53-.36,1.73,1.73,0,0,0,.36-.59,2.18,2.18,0,0,0,.13-.76l-.29-44.5a2.51,2.51,0,0,0-.14-.81,2.44,2.44,0,0,0-.37-.69,2,2,0,0,0-.54-.5,1.59,1.59,0,0,0-.66-.23" style="fill: #fff"/>
                  <path d="M110,31.06,9.32,19.78a5,5,0,0,0-2.59.39,5.71,5.71,0,0,0-2.09,1.62,7.81,7.81,0,0,0-1.38,2.59,10.28,10.28,0,0,0-.46,3.31l.86,46a11.56,11.56,0,0,0,.58,3.4A11,11,0,0,0,5.72,80a8.69,8.69,0,0,0,2.14,2.14,6.16,6.16,0,0,0,2.6,1l100,14.26a5.69,5.69,0,0,0,2.84-.3,6.08,6.08,0,0,0,2.32-1.6,7.79,7.79,0,0,0,1.56-2.64,10,10,0,0,0,.56-3.43L117.49,41a11.56,11.56,0,0,0-.6-3.62,11,11,0,0,0-1.61-3.08,9,9,0,0,0-2.36-2.22,6.78,6.78,0,0,0-2.87-1" style="fill: #fff;stroke: #3f4563;stroke-linecap: round;stroke-linejoin: round"/>
                  <path d="M12.11,75.66a2.16,2.16,0,0,1-.9-.35,3,3,0,0,1-.74-.71,3.63,3.63,0,0,1-.51-1,3.75,3.75,0,0,1-.2-1.14L9,30a3.33,3.33,0,0,1,.16-1.11,2.59,2.59,0,0,1,.48-.87,2,2,0,0,1,.72-.54,1.76,1.76,0,0,1,.89-.13l97.36,10.86a2.39,2.39,0,0,1,1,.35,3.06,3.06,0,0,1,.81.74,3.64,3.64,0,0,1,.55,1,3.77,3.77,0,0,1,.21,1.21l.28,44.52a3.27,3.27,0,0,1-.19,1.14,2.58,2.58,0,0,1-.53.88,2.09,2.09,0,0,1-.8.54,2,2,0,0,1-1,.1L12.11,75.66" style="fill: #3f4563;stroke: #fff;stroke-miterlimit: 10"/>
                  <path d="M36.74,19.12l0-1.24,40,4.23v1.47l-40-4.25v-.2M77.57,21.2,35.91,16.82l0,2.22,0,1v.2L77.6,24.66V23.46l0-2.26" style="fill: #373e5a"/>
                  <g id="new_clock_nums" data-name="new clock nums">
                    <g style="isolation: isolate">
                      <g style="clip-path: url(#clip-path)">
                        <g>
                          <path d="M21.5,65.18l-2,1.89.63,1L31.6,69.47l1-.64-1.42-2.44L21.5,65.18M34,54.66l-1.2,1.19L31.47,66.1l1.47,2.32.73-.48,1.46-11.63L34,54.66M21.3,53l-1.22.9L18.62,65.6l.5,1,2-1.74,1.15-10.25L21.3,53M36.17,40.3l-2,1.68L33.11,52.31l1,1.48,1.34-1.2,1.34-11.31-.63-1m-13.82-2-.61.54-1.46,11.6,1.1,1.66,1.14-.94,1.35-10.4L22.34,38.3M35.16,39,23.57,37.55l-.86.5,1.41,2.43,9.73,1.2,2-1.73-.73-1" style="fill: #fff"/>
                          <path d="M40.31,67.49l-2,1.89.63,1L50.4,71.78l1-.64L50,68.7l-9.65-1.21M52.8,57l-1.2,1.19L50.27,68.41l1.47,2.32.74-.47,1.45-11.63L52.8,57M40.09,55.26l-1.22.9L37.42,67.91l.51,1,2-1.74L41.1,56.9l-1-1.63M55,42.61l-2,1.68L51.91,54.62l1,1.48,1.34-1.2,1.34-11.31-.63-1m-13.82-2-.61.54-1.45,11.6,1.1,1.66,1.13-.94,1.35-10.4-1.51-2.46M54,41.28,42.37,39.86l-.86.5,1.41,2.43L52.66,44l2-1.73-.73-1" style="fill: #fff"/>
                          <path d="M61.44,62.5a.63.63,0,0,0-.51.24L59.5,64.38a.92.92,0,0,0-.28.64,1.25,1.25,0,0,0,.19.59L61,68a.76.76,0,0,0,.52.36c.1,0,.27-.11.5-.37l1.39-1.72a1.07,1.07,0,0,0,.24-.64,1.42,1.42,0,0,0-.22-.65l-1.44-2a1,1,0,0,0-.55-.41m-.19-15a.63.63,0,0,0-.51.24l-1.42,1.65A.9.9,0,0,0,59,50a1.22,1.22,0,0,0,.19.59L60.8,53a.76.76,0,0,0,.52.36c.1,0,.27-.11.5-.36l1.39-1.73a1,1,0,0,0,.24-.64,1.42,1.42,0,0,0-.22-.65l-1.44-2a1,1,0,0,0-.55-.41" style="fill: #fff"/>
                          <path d="M67.32,70.81l-2,1.89.63,1,11.47,1.41,1-.64L77,72l-9.66-1.21m12.5-10.52-1.2,1.19L77.29,71.73,78.76,74l.74-.47L81,61.94l-1.13-1.65M78.61,58.2,68.82,57l-1.46,1.18L68.61,60l9.71,1.19,1.37-1.4L78.61,58.2M82,45.92l-2,1.68L78.93,57.94l1,1.48,1.34-1.2,1.34-11.31-.63-1M81,44.6,69.39,43.18l-.86.5,1.41,2.43,9.73,1.2,2-1.73-.73-1" style="fill: #fff"/>
                          <path d="M86.13,73.11l-2,1.89.63,1L96.22,77.4l1-.64-1.42-2.44-9.65-1.21M98.62,62.6l-1.2,1.19L96.09,74l1.47,2.32.74-.47,1.45-11.63L98.62,62.6m-1.2-2.09-9.79-1.2-1.46,1.18,1.25,1.79,9.71,1.19,1.37-1.4-1.07-1.55m3.37-12.27-2,1.68L97.73,60.24l1,1.48,1.34-1.2,1.34-11.31-.63-1M87,46.23l-.61.54L84.9,58.37,86,60l1.13-.94,1.35-10.4L87,46.23m12.82.67L88.18,45.48l-.85.5,1.4,2.43,9.74,1.2,2-1.73-.73-1" style="fill: #fff"/>
                        </g>
                      </g>
                    </g>
                  </g>
                </g>
              </g>
            </g>
          </g>
        </g>
      </g>
    </g>
  </g>
</svg>
