<svg xmlns="http://www.w3.org/2000/svg" viewBox="0 0 50 50"><path class="medium-blue" d="M49.68 24.54a.5.5 0 0 0-.43-.47L41.5 23V11a1.49 1.49 0 0 0-1.38-1.48A30.83 30.83 0 0 1 25.78 5a1.45 1.45 0 0 0-1.57 0A30.84 30.84 0 0 1 9.88 9.52 1.48 1.48 0 0 0 8.5 11v11.99L.75 24.07a.5.5 0 0 0-.43.47c0 .15-.14 3.57 2 3.86h.14l1.13-.16.51 3.55a.5.5 0 0 0 .49.43h.06L6.37 32l.12.81a.5.5 0 0 0 .2.33.5.5 0 0 0 .3.1h.07l3.21-.46c2.3 5.56 6.91 9.53 14.2 12.38a1.48 1.48 0 0 0 .54.1 1.5 1.5 0 0 0 .54-.1c7.29-2.85 11.9-6.83 14.2-12.38l3.21.46H43a.5.5 0 0 0 .3-.1.5.5 0 0 0 .2-.33l.12-.81 1.7.21h.06a.5.5 0 0 0 .49-.43l.51-3.55 1.13.16h.14c2.17-.28 2.04-3.7 2.03-3.85zM5 31.16l-.36-2.48.86.62a.49.49 0 0 0 .29.09H6L6.23 31zm1-2.79l-.12-.09c-.61-.44-1.35-1.18-2.18-1.07l-1.3.19c-.82-.17-1.05-1.56-1.08-2.4l7.21-1a29.58 29.58 0 0 0 .38 3.94l-2.07.3zm1.45 3.8l-.11-.79L7 29.23l2.1-.3a22 22 0 0 0 .8 2.88zM25.48 44.1a.48.48 0 0 0 0-.1v-2a.5.5 0 0 0-1 0v2a.47.47 0 0 0 0 .09c-6.7-2.68-11-6.37-13.21-11.47-.14-.31-.28-.63-.4-1a20.94 20.94 0 0 1-.82-2.88c-.07-.32-.13-.65-.19-1a28.21 28.21 0 0 1-.38-3.94V11a.49.49 0 0 1 .45-.46A31.91 31.91 0 0 0 24.51 6v2a.5.5 0 0 0 1 0V6a31.9 31.9 0 0 0 14.56 4.56.48.48 0 0 1 .45.48v12.84a28.22 28.22 0 0 1-.38 3.94c-.06.33-.12.66-.19 1-1.58 7.12-6.19 11.96-14.47 15.28zm17.23-12.72l-.11.79-2.48-.36a22.1 22.1 0 0 0 .8-2.88l2.1.3zm2.29-.22L43.77 31l.23-1.62h.16a.49.49 0 0 0 .29-.09l.86-.62zm2.6-3.76l-1.26-.18a1.64 1.64 0 0 0-1.05.26l-1.12.81-.12.09-2.95-.43a29.58 29.58 0 0 0 .37-3.95l7.21 1c-.03.84-.26 2.22-1.08 2.4zM24.5 13v-2a.5.5 0 0 1 1 0v2a.5.5 0 0 1-1 0zm1 3a.5.5 0 1 1-.51-.5.5.5 0 0 1 .52.5zm0 18a.5.5 0 1 1-.51-.5.5.5 0 0 1 .52.5zm0 3v2a.5.5 0 0 1-1 0v-2a.5.5 0 0 1 1 0zM25 23.5a2 2 0 1 0 2 2 2 2 0 0 0-2-2zm0 3a1 1 0 1 1 1-1 1 1 0 0 1-1 1zm-5.59 4.15a.5.5 0 1 1-.67.74 7.7 7.7 0 0 1-.17-11.3.5.5 0 1 1 .69.72 6.66 6.66 0 0 0-2.08 4.83 6.72 6.72 0 0 0 2.23 5.01zM16 32.35a.5.5 0 1 1-.74.67 10.93 10.93 0 0 1-.17-14.57.5.5 0 0 1 .75.66A9.93 9.93 0 0 0 16 32.35zm7-2.77a.5.5 0 0 1-.67.21 4.66 4.66 0 0 1-.26-8.14.5.5 0 0 1 .52.86 3.66 3.66 0 0 0 .21 6.4.5.5 0 0 1 .2.68zm8.44-9.49a7.7 7.7 0 0 1-.17 11.3.5.5 0 1 1-.67-.74 6.72 6.72 0 0 0 2.22-5 6.66 6.66 0 0 0-2.08-4.83.5.5 0 1 1 .69-.72zm3.51-1.64A10.93 10.93 0 0 1 34.77 33a.5.5 0 1 1-.74-.67 9.93 9.93 0 0 0 .16-13.23.5.5 0 0 1 .75-.66zm-4.75 7.2a4.66 4.66 0 0 1-2.52 4.15.5.5 0 0 1-.46-.89 3.66 3.66 0 0 0 .21-6.4.5.5 0 1 1 .52-.86 4.64 4.64 0 0 1 2.25 4z"/></svg>