<svg xmlns="http://www.w3.org/2000/svg" width="41.62" height="24.83" viewBox="0 0 41.62 24.83">
  <title>icon-card-check</title>
  <g id="Layer_2" data-name="Layer 2">
    <g id="Home_-_1200" data-name="Home - 1200">
      <g id="First_Module" data-name="First Module">
        <g id="Advantages">
          <g id="Icon_Group" data-name="Icon Group">
            <g id="icon">
              <rect x="0.5" y="0.5" width="34.21" height="20.3" rx="2.36" ry="2.36" style="fill: none;stroke: #3f4563;stroke-linecap: round;stroke-linejoin: round"/>
              <rect x="0.5" y="4.63" width="34.21" height="2.66" style="fill: none;stroke: #3f4563;stroke-linecap: round;stroke-linejoin: round"/>
              <rect x="24.66" y="14.53" width="7.17" height="2.99" style="fill: none;stroke: #3f4563;stroke-linecap: round;stroke-linejoin: round"/>
              <line x1="26.48" y1="10.98" x2="32.36" y2="10.94" style="fill: none;stroke: #3f4563;stroke-linecap: round;stroke-linejoin: round;stroke-dasharray: 1.7736260890960693,2.6604392528533936"/>
              <line x1="20.27" y1="14.32" x2="3.4" y2="14.28" style="fill: none;stroke: #3f4563;stroke-linecap: round;stroke-linejoin: round"/>
              <line x1="17.6" y1="17.46" x2="3.4" y2="17.42" style="fill: none;stroke: #3f4563;stroke-linecap: round;stroke-linejoin: round;stroke-dasharray: 1.7736260890960693,2.6604392528533936"/>
              <g id="check">
                <g>
                  <path d="M27.68,24.33a1.2,1.2,0,0,1-.94-.54l-5.46-8.45a1.19,1.19,0,0,1,1-1.84,1.2,1.2,0,0,1,.51.12l.17.11L27.84,18,39.13,7.29A1.3,1.3,0,0,1,39.94,7a1.16,1.16,0,0,1,.84.36,1.18,1.18,0,0,1,.07,1.58l-12.19,15a1.19,1.19,0,0,1-.93.44Z" style="fill: #3f4563"/>
                  <path d="M39.94,7.48a.67.67,0,0,1,.48.21.69.69,0,0,1,0,.92l-12.19,15a.7.7,0,0,1-.54.26h0a.69.69,0,0,1-.54-.32l-5.46-8.45A.69.69,0,0,1,22.27,14a.71.71,0,0,1,.3.07l.11.07,5.17,4.59L39.47,7.65a.78.78,0,0,1,.47-.17m0-1a1.77,1.77,0,0,0-1.08.37l0,0,0,0-11,10.44-4.48-4-.05,0-.06,0-.11-.07-.06,0-.07,0a1.69,1.69,0,0,0-2.14,2.45l5.46,8.45a1.69,1.69,0,0,0,1.33.77h.09a1.69,1.69,0,0,0,1.31-.62l12.19-15A1.69,1.69,0,0,0,41.14,7a1.66,1.66,0,0,0-1.2-.52Z" style="fill: #fff"/>
                </g>
                <path d="M28,19.21,39.78,8a.24.24,0,0,1,.33.34l-12.19,15a.24.24,0,0,1-.39,0l-5.46-8.45a.24.24,0,0,1,.31-.35l5.37,4.77A.24.24,0,0,0,28,19.21Z" style="fill: #f8f9fa;stroke: #3f4563;stroke-miterlimit: 10;stroke-width: 0.903832839371488px"/>
              </g>
            </g>
          </g>
        </g>
      </g>
    </g>
  </g>
</svg>
