<svg xmlns="http://www.w3.org/2000/svg" xmlns:xlink="http://www.w3.org/1999/xlink" width="333.2" height="121.84" viewBox="0 0 333.2 121.84">
  <defs>
    <clipPath id="clip-path">
      <path d="M21.14,116.64c3.44-3.55-4.95-12.79-4.95-12.79C8.52,95.69,5,98.71,5,98.71l0-.1a42.06,42.06,0,0,0-2.86,19v.06a42,42,0,0,0,19-1.06Z" style="fill: none"/>
    </clipPath>
    <clipPath id="clip-path-2">
      <path d="M78.89,112.92c2.1-1.95-2.48-7.54-2.48-7.54-4.19-4.95-6.31-3.31-6.31-3.31l0-.06a24.33,24.33,0,0,0-2.22,10.91v0a24.27,24.27,0,0,0,11,0Z" style="fill: none"/>
    </clipPath>
  </defs>
  <title>icon-bombs</title>
  <g id="Layer_2" data-name="Layer 2">
    <g id="Benefits_-_1200" data-name="Benefits - 1200">
      <g id="Target">
        <g>
          <path d="M111.77,77.38a21.27,21.27,0,0,0-2.63-2.27S88.82,81,77.56,91s-10.31,22.32-10.31,22.32v0s11.81,3.56,24-5.3S113.54,80.6,113.54,80.6a21.26,21.26,0,0,0-1.77-3.23Z" style="fill: #fff;stroke: #3f4563;stroke-linecap: round;stroke-linejoin: round"/>
          <polyline points="104.72 94.24 116.24 95.55 125.78 86.95 117.84 81.96 110.97 84.16 103.65 94.13 104.72 94.24" style="fill: #fff;stroke: #3f4563;stroke-linecap: round;stroke-linejoin: round"/>
          <path d="M91.83,81.65l-1.42-5.08,9.61-7,8.4,5" style="fill: #fff;stroke: #3f4563;stroke-linecap: round;stroke-linejoin: round"/>
          <polygon points="96.44 83.92 100.58 73 111.64 64.45 112.27 69.83 106.28 74.22 108.38 75.62 108.27 77.15 107.87 77.4 96.44 83.92" style="fill: #fff;stroke: #3f4563;stroke-linecap: round;stroke-linejoin: round"/>
          <path d="M115.5,88.07s-1.35-9.45-9.22-13.85l6-4.38s7.92,4.76,8.41,13.95Z" style="fill: #fff;stroke: #373e5a;stroke-linecap: round;stroke-linejoin: round"/>
          <path d="M81.71,112.82c2.24-2.32-3.3-9.09-3.3-9.09-5.21-6.29-7.5-4.45-7.5-4.45l-1.12,2.16s2.34-1.77,6.88,3.7c0,0,4.95,6.18,2.63,8.29Z" style="fill: #fff;stroke: #373e5a;stroke-linecap: round;stroke-linejoin: round"/>
          <polygon points="111.08 64.07 100.02 72.64 95.84 83.38 96.44 83.92 100.58 73 111.65 64.36 111.27 64.18 111.08 64.07" style="fill: #fff;stroke: #3f4563;stroke-linecap: round;stroke-linejoin: round"/>
          <path d="M114.74,87.26s-1.39-8-8.41-12.37l-.05-.67c7.87,4.41,9.23,13.85,9.23,13.85Z" style="fill: #fff;stroke: #373e5a;stroke-linecap: round;stroke-linejoin: round"/>
          <polygon points="103.88 94.86 103.65 94.13 116.25 95.57 125.78 86.95 125.79 86.97 125.7 87.8 116.42 96.41 103.88 94.86 103.88 94.86" style="fill: #fff;stroke: #3f4563;stroke-linecap: round;stroke-linejoin: round"/>
          <line x1="116.25" y1="95.57" x2="116.35" y2="96.19" style="fill: #fff;stroke: #3f4563;stroke-linecap: round;stroke-linejoin: round"/>
          <g>
            <path d="M73.73,98.58a.44.44,0,0,1,.1-.23c.12-.15.31-.22.42-.15s.1.26,0,.41-.31.22-.42.15a.19.19,0,0,1-.07-.18" style="fill: #969c9c"/>
            <path d="M72.1,98.17a.43.43,0,0,1,.1-.21c.12-.15.29-.21.39-.15s.08.24,0,.38-.29.21-.39.15a.17.17,0,0,1-.07-.17" style="fill: #969c9c"/>
            <path d="M76,99.9a.52.52,0,0,1,.13-.29.34.34,0,1,1,0,.55.3.3,0,0,1-.1-.26" style="fill: #969c9c"/>
            <path d="M80.13,104.39a.52.52,0,0,1,.21-.24.34.34,0,1,1-.2.51.3.3,0,0,1,0-.27" style="fill: #3f4563"/>
            <path d="M81.65,106.87a.5.5,0,0,1,.22-.21.34.34,0,1,1-.22.49.3.3,0,0,1,0-.27" style="fill: #3f4563"/>
            <path d="M78.12,101.94a.54.54,0,0,1,.18-.28.38.38,0,1,1-.12.58.33.33,0,0,1-.06-.3" style="fill: #3f4563"/>
            <path d="M82.7,109.39a.42.42,0,0,1,.22-.12c.18,0,.36,0,.38.17s-.1.27-.29.31-.35,0-.38-.17a.23.23,0,0,1,.07-.2" style="fill: #3f4563"/>
            <path d="M83,111.39a.4.4,0,0,1,.19-.12c.17-.05.34,0,.37.12s-.07.26-.24.31-.34,0-.37-.12a.2.2,0,0,1,0-.19" style="fill: #3f4563"/>
          </g>
          <g>
            <g>
              <g>
                <path d="M93.65,101.49h0l1.24,2.42h0c-1.75,1.64-3.65,2.34-5,2L92,102.16A2,2,0,0,0,93.65,101.49Z" style="fill: #373e5a"/>
                <path d="M92.42,99.07l-1.24-2.42h0A10.22,10.22,0,0,0,88,102.31L91.37,101a3.39,3.39,0,0,1,1-1.88Z" style="fill: #373e5a"/>
                <path d="M98.05,98.25a4.08,4.08,0,0,0-.29-2.41,2.28,2.28,0,0,0-1.56-1.22l-2.11,3.79a.75.75,0,0,1,.53.4,1.38,1.38,0,0,1,.09.8Z" style="fill: #373e5a"/>
              </g>
              <path d="M93.9,99.47c-.19-.37-.73-.31-1.21.15a1.46,1.46,0,0,0-.53,1.48c.19.37.73.3,1.21-.15A1.46,1.46,0,0,0,93.9,99.47Z" style="fill: #373e5a"/>
            </g>
            <path d="M99,101a12,12,0,0,0,1.22-3.7c.6-4.26-2.15-6.4-6.14-4.79a14.9,14.9,0,0,0-8.3,10.63c-.55,3.94,1.76,6.07,5.27,5.09" style="fill: none;stroke: #373e5a;stroke-linecap: round;stroke-linejoin: round"/>
          </g>
          <g>
            <path d="M120.67,71.38s.51-.47,1.49-1.33" style="fill: none;stroke: #dfe1e1;stroke-linecap: round;stroke-linejoin: round"/>
            <path d="M130.6,62.87c4.89-4,11.41-9.18,19.13-14.8" style="fill: none;stroke: #dfe1e1;stroke-linecap: round;stroke-linejoin: round;stroke-dasharray: 6.047420978546143,4.031614303588867,11.086938858032227,6.047420978546143"/>
            <path d="M152.19,46.3c48.1-34.46,138.46-83.23,178.43.42" style="fill: none;stroke: #dfe1e1;stroke-linecap: round;stroke-linejoin: round;stroke-dasharray: 4.031614303588867,11.086938858032227,6.047420978546143,4.031614303588867,11.086938858032227,6.047420978546143"/>
            <path d="M331.89,49.47q.41.91.81,1.83" style="fill: none;stroke: #dfe1e1;stroke-linecap: round;stroke-linejoin: round"/>
          </g>
        </g>
        <path d="M71.39,54.06a35.17,35.17,0,0,0-4.58-3.48S33.89,62.37,16.35,80.07,1.65,118,1.65,118V118s19.86,4.65,39.06-11.22S74.64,59.2,74.64,59.2a35.14,35.14,0,0,0-3.26-5.15Z" style="fill: #fff;stroke: #3f4563;stroke-linecap: round;stroke-linejoin: round"/>
        <path d="M25.45,115.65c3.46-4.07-6.38-14.66-6.38-14.66C9.81,91.15,6.24,94.42,6.24,94.42L4.61,98.1s3.68-3.17,11.73,5.39c0,0,8.8,9.69,5.19,13.41Z" style="fill: #fff;stroke: #373e5a;stroke-linecap: round;stroke-linejoin: round"/>
        <g>
          <path d="M10.82,93A.73.73,0,0,1,11,92.6c.19-.27.5-.4.69-.29s.18.42,0,.68-.49.4-.68.29a.31.31,0,0,1-.14-.3" style="fill: #3f4563"/>
          <path d="M8.08,92.47a.71.71,0,0,1,.14-.36c.18-.25.46-.38.63-.28s.16.38,0,.64-.46.38-.63.28a.28.28,0,0,1-.12-.27" style="fill: #3f4563"/>
          <path d="M14.64,94.92a.86.86,0,0,1,.18-.49.66.66,0,0,1,.87-.26.76.76,0,0,1-.86,1.17.49.49,0,0,1-.18-.42" style="fill: #3f4563"/>
          <path d="M22,101.9a.87.87,0,0,1,.32-.41.56.56,0,1,1,.63.88.65.65,0,0,1-.9,0,.49.49,0,0,1,0-.45" style="fill: #3f4563"/>
          <path d="M24.74,105.84a.82.82,0,0,1,.33-.38.56.56,0,1,1-.32.83.49.49,0,0,1,0-.45" style="fill: #3f4563"/>
          <path d="M18.41,98.07a.89.89,0,0,1,.27-.48.62.62,0,1,1,.83.88.7.7,0,0,1-1,.09.55.55,0,0,1-.13-.49" style="fill: #3f4563"/>
          <path d="M26.74,109.89a.7.7,0,0,1,.34-.21c.3-.08.59,0,.65.24s-.14.46-.44.55-.59,0-.64-.24a.37.37,0,0,1,.09-.34" style="fill: #3f4563"/>
          <path d="M27.49,113.15a.66.66,0,0,1,.3-.22c.27-.1.56,0,.63.16s-.09.43-.37.53-.55,0-.63-.16a.33.33,0,0,1,.06-.31" style="fill: #3f4563"/>
        </g>
        <g style="clip-path: url(#clip-path)">
          <g>
            <path d="M12.2,109.5,12,108.06a4.49,4.49,0,0,0,.87-1l1.54.08-1-1.14a4.78,4.78,0,0,0,.23-1l1.55-.9-1.55-.42a4.42,4.42,0,0,0-.21-.82l1-1.36-1.65.28a3.91,3.91,0,0,0-.58-.63l.45-1.63-1.47,1a3.7,3.7,0,0,0-1.18-.25l-.7-1.47L9,100.38a4,4,0,0,0-.85.32l-1.25-.93.28,1.61a4.53,4.53,0,0,0-.75.88L4.79,102l1.06,1.51a4.78,4.78,0,0,0-.16.82l-1.47.86,1.49.4a4.41,4.41,0,0,0,.24.87l-1,1.32,1.63-.27a3.89,3.89,0,0,0,.55.58l-.36,1.74,1.39-1.09a3.71,3.71,0,0,0,.92.22l.68,1.43.4-1.46a3.91,3.91,0,0,0,1-.31Z" style="fill: red;stroke: #fff;stroke-linecap: round;stroke-linejoin: round;stroke-width: 0.5px"/>
            <path d="M11.73,117.54a4.63,4.63,0,0,0,.47-.72l1.61,0-1.18-1.19a4.7,4.7,0,0,0,.1-.9l1.45-.72-1.59-.56a4.27,4.27,0,0,0-.52-1.15l.64-1.56-1.37.68a3.75,3.75,0,0,0-.74-.5l-.08-1.66-1,1.31a3.72,3.72,0,0,0-1.08,0L7.65,109l-.45,1.89a4.22,4.22,0,0,0-.69.41L5,110.61l.6,1.51a4.65,4.65,0,0,0-.49.78l-1.56,0,1.17,1.18a4.71,4.71,0,0,0-.09.85l-1.46.87,1.62.43a4.29,4.29,0,0,0,.39.91l-.62,1.52,1.29-.64a3.77,3.77,0,0,0,.85.66l0,1.43,1-1.09a3.71,3.71,0,0,0,1.2.09l.86,1.34.23-1.59a4.17,4.17,0,0,0,.85-.47l1.57.68Z" style="fill: red;stroke: #fff;stroke-linecap: round;stroke-linejoin: round;stroke-width: 0.5px"/>
            <path d="M9.61,103.6a4.63,4.63,0,0,0,.47-.72l1.61,0-1.18-1.19a4.7,4.7,0,0,0,.1-.9L12,100l-1.59-.56a4.27,4.27,0,0,0-.52-1.15l.64-1.56-1.37.68a3.75,3.75,0,0,0-.74-.5l-.08-1.66-1,1.31a3.72,3.72,0,0,0-1.08,0L5.53,95l-.45,1.89a4.22,4.22,0,0,0-.69.41l-1.5-.65.6,1.51A4.65,4.65,0,0,0,3,99L1.43,99l1.17,1.18a4.71,4.71,0,0,0-.09.85l-1.46.87,1.62.43a4.29,4.29,0,0,0,.39.91l-.62,1.52,1.29-.64a3.77,3.77,0,0,0,.85.66l0,1.43,1-1.09a3.71,3.71,0,0,0,1.2.09l.86,1.34L7.8,105a4.17,4.17,0,0,0,.85-.47l1.57.68Z" style="fill: red;stroke: #fff;stroke-linecap: round;stroke-linejoin: round;stroke-width: 0.5px"/>
            <path d="M20.73,109.74a4.63,4.63,0,0,0,.47-.72l1.61,0-1.18-1.19a4.71,4.71,0,0,0,.1-.9l1.45-.72-1.59-.56a4.27,4.27,0,0,0-.52-1.15l.64-1.56-1.37.68a3.75,3.75,0,0,0-.74-.5l-.08-1.66-1,1.31a3.72,3.72,0,0,0-1.08,0l-.79-1.53-.45,1.89a4.22,4.22,0,0,0-.69.41l-1.5-.65.6,1.51a4.64,4.64,0,0,0-.49.78l-1.56,0,1.17,1.18a4.7,4.7,0,0,0-.09.85l-1.46.87,1.62.43a4.3,4.3,0,0,0,.39.91l-.62,1.52,1.29-.64a3.76,3.76,0,0,0,.85.66l0,1.43,1-1.09a3.7,3.7,0,0,0,1.2.09l.86,1.34.23-1.59a4.18,4.18,0,0,0,.85-.47l1.57.68Z" style="fill: red;stroke: #fff;stroke-linecap: round;stroke-linejoin: round;stroke-width: 0.5px"/>
            <path d="M8.8,113a4.63,4.63,0,0,0,.47-.72l1.61,0L9.69,111a4.71,4.71,0,0,0,.1-.9l1.45-.72-1.59-.56a4.27,4.27,0,0,0-.52-1.15l.64-1.56-1.37.68a3.75,3.75,0,0,0-.74-.5l-.08-1.66-1,1.31a3.72,3.72,0,0,0-1.08,0l-.79-1.53-.45,1.89a4.22,4.22,0,0,0-.69.41l-1.5-.65.6,1.51a4.64,4.64,0,0,0-.49.78l-1.56,0,1.17,1.18a4.7,4.7,0,0,0-.09.85l-1.46.87,1.62.43a4.3,4.3,0,0,0,.39.91l-.62,1.52,1.29-.64a3.76,3.76,0,0,0,.85.66l0,1.43,1-1.09a3.7,3.7,0,0,0,1.2.09l.86,1.34L7,114.35a4.18,4.18,0,0,0,.85-.47l1.57.68Z" style="fill: red;stroke: #fff;stroke-linecap: round;stroke-linejoin: round;stroke-width: 0.5px"/>
            <path d="M19.1,118.64a4.63,4.63,0,0,0,.47-.72l1.61,0L20,116.7a4.71,4.71,0,0,0,.1-.9l1.45-.72-1.59-.56a4.27,4.27,0,0,0-.52-1.15l.64-1.56-1.37.68A3.76,3.76,0,0,0,18,112l-.08-1.66-1,1.31a3.73,3.73,0,0,0-1.08,0L15,110.07,14.57,112a4.21,4.21,0,0,0-.69.41l-1.5-.65.6,1.51a4.63,4.63,0,0,0-.49.78l-1.56,0,1.17,1.18a4.68,4.68,0,0,0-.09.85l-1.46.87,1.62.43a4.31,4.31,0,0,0,.39.91l-.62,1.52,1.29-.64a3.76,3.76,0,0,0,.85.66l0,1.43,1-1.09a3.71,3.71,0,0,0,1.2.09l.86,1.34.23-1.59a4.19,4.19,0,0,0,.85-.47l1.57.68Z" style="fill: red;stroke: #fff;stroke-linecap: round;stroke-linejoin: round;stroke-width: 0.5px"/>
          </g>
        </g>
        <g>
          <g>
            <g>
              <path d="M42.83,96.06h0l2.27,3.83h0c-2.68,2.86-5.71,4.2-8,3.82l3.06-6.39A3.25,3.25,0,0,0,42.83,96.06Z" style="fill: #373e5a"/>
              <path d="M40.57,92.25l-2.27-3.83h0A16.71,16.71,0,0,0,33.72,98L39,95.42a5.54,5.54,0,0,1,1.52-3.17Z" style="fill: #373e5a"/>
              <path d="M49.68,90.33a6.66,6.66,0,0,0-.72-3.9,3.73,3.73,0,0,0-2.68-1.83L43.21,91a1.22,1.22,0,0,1,.9.59,2.26,2.26,0,0,1,.23,1.3Z" style="fill: #373e5a"/>
            </g>
            <path d="M43,92.74c-.35-.58-1.22-.42-2,.37a2.38,2.38,0,0,0-.71,2.47c.34.59,1.22.42,2-.37A2.38,2.38,0,0,0,43,92.74Z" style="fill: #373e5a"/>
          </g>
          <path d="M50.35,97.23a21.3,21.3,0,0,0,2.83-8.63c.54-7-4.16-10.23-10.5-7.19S30.76,92.6,30.22,99.6s4.16,10.23,10.5,7.19l.41-.2" style="fill: none;stroke: #373e5a;stroke-linecap: round;stroke-linejoin: round"/>
        </g>
        <g style="clip-path: url(#clip-path-2)">
          <g>
            <path d="M73.93,108.52l0-.84a2.6,2.6,0,0,0,.53-.52l.89.09-.54-.69a2.76,2.76,0,0,0,.16-.57l.92-.48-.88-.29a2.55,2.55,0,0,0-.1-.48l.65-.76-1,.11a2.26,2.26,0,0,0-.32-.38l.31-.93-.88.53a2.14,2.14,0,0,0-.67-.18l-.36-.87-.29.88a2.31,2.31,0,0,0-.5.16l-.69-.57.11.94a2.62,2.62,0,0,0-.46.48l-.93-.2.57.9a2.77,2.77,0,0,0-.12.47l-.88.45.85.28a2.55,2.55,0,0,0,.11.51l-.63.73,1-.11a2.25,2.25,0,0,0,.3.35l-.26,1,.84-.59a2.14,2.14,0,0,0,.52.15l.35.84.27-.83a2.26,2.26,0,0,0,.61-.15Z" style="fill: red;stroke: #fff;stroke-linecap: round;stroke-linejoin: round;stroke-width: 0.5px"/>
            <path d="M73.42,113.15a2.68,2.68,0,0,0,.29-.4l.93,0-.65-.72a2.72,2.72,0,0,0,.09-.52l.86-.37-.9-.37a2.47,2.47,0,0,0-.27-.68l.42-.88-.81.35a2.17,2.17,0,0,0-.41-.31v-1l-.61.73a2.15,2.15,0,0,0-.62-.06l-.41-.9L71,109.15a2.44,2.44,0,0,0-.41.22l-.85-.42.3.89a2.69,2.69,0,0,0-.3.44l-.9,0,.64.72a2.72,2.72,0,0,0-.08.49l-.87.46.92.3a2.48,2.48,0,0,0,.2.54l-.41.86.76-.33a2.18,2.18,0,0,0,.47.41l-.06.83.58-.6a2.14,2.14,0,0,0,.69.09l.46.8.18-.91a2.41,2.41,0,0,0,.51-.25l.89.44Z" style="fill: red;stroke: #fff;stroke-linecap: round;stroke-linejoin: round;stroke-width: 0.5px"/>
            <path d="M72.61,105a2.68,2.68,0,0,0,.29-.4l.93,0-.65-.72a2.72,2.72,0,0,0,.09-.52l.86-.37-.9-.37A2.47,2.47,0,0,0,73,102l.42-.88-.81.35a2.17,2.17,0,0,0-.41-.31v-1l-.61.73a2.15,2.15,0,0,0-.62-.06l-.41-.9L70.2,101a2.44,2.44,0,0,0-.41.22l-.85-.42.3.89a2.69,2.69,0,0,0-.3.44l-.9,0,.64.72a2.72,2.72,0,0,0-.08.49l-.87.46.92.3a2.48,2.48,0,0,0,.2.54l-.41.86.76-.33a2.18,2.18,0,0,0,.47.41l-.06.83.58-.6a2.14,2.14,0,0,0,.69.09l.46.8.18-.91a2.41,2.41,0,0,0,.51-.25l.89.44Z" style="fill: red;stroke: #fff;stroke-linecap: round;stroke-linejoin: round;stroke-width: 0.5px"/>
            <path d="M78.86,108.92a2.68,2.68,0,0,0,.29-.4l.93,0-.65-.72a2.72,2.72,0,0,0,.09-.52l.86-.37-.9-.37a2.47,2.47,0,0,0-.27-.68l.42-.88-.81.35a2.17,2.17,0,0,0-.41-.31v-1l-.61.73a2.15,2.15,0,0,0-.62-.06l-.41-.9-.32,1.08a2.44,2.44,0,0,0-.41.22l-.85-.42.3.89a2.69,2.69,0,0,0-.3.44l-.9,0,.64.72a2.72,2.72,0,0,0-.08.49l-.87.46.92.3a2.49,2.49,0,0,0,.2.54l-.41.86.76-.33a2.18,2.18,0,0,0,.47.41l-.06.83.58-.6a2.14,2.14,0,0,0,.69.09l.46.8.18-.91a2.42,2.42,0,0,0,.51-.25l.89.44Z" style="fill: red;stroke: #fff;stroke-linecap: round;stroke-linejoin: round;stroke-width: 0.5px"/>
            <path d="M71.87,110.44a2.68,2.68,0,0,0,.29-.4l.93,0-.65-.72a2.72,2.72,0,0,0,.09-.52l.86-.37-.9-.37a2.47,2.47,0,0,0-.27-.68l.42-.88-.81.35a2.17,2.17,0,0,0-.41-.31v-1l-.61.73a2.15,2.15,0,0,0-.62-.06l-.41-.9-.32,1.08a2.44,2.44,0,0,0-.41.22l-.85-.42.3.89a2.69,2.69,0,0,0-.3.44l-.9,0,.64.72a2.72,2.72,0,0,0-.08.49l-.87.46.92.3a2.49,2.49,0,0,0,.2.54l-.41.86.76-.33a2.18,2.18,0,0,0,.47.41l-.06.83.58-.6a2.14,2.14,0,0,0,.69.09l.46.8.18-.91a2.42,2.42,0,0,0,.51-.25l.89.44Z" style="fill: red;stroke: #fff;stroke-linecap: round;stroke-linejoin: round;stroke-width: 0.5px"/>
            <path d="M77.65,114a2.68,2.68,0,0,0,.29-.4l.93,0-.65-.72a2.72,2.72,0,0,0,.09-.52l.86-.37-.9-.37A2.47,2.47,0,0,0,78,111l.42-.88-.81.35a2.18,2.18,0,0,0-.41-.31v-1l-.61.73a2.16,2.16,0,0,0-.62-.06l-.41-.9L75.23,110a2.44,2.44,0,0,0-.41.22l-.85-.42.3.89a2.68,2.68,0,0,0-.3.44l-.9,0,.64.72a2.71,2.71,0,0,0-.08.49l-.87.46.92.3a2.49,2.49,0,0,0,.2.54l-.41.86.76-.33a2.18,2.18,0,0,0,.47.41l-.06.83.58-.6a2.14,2.14,0,0,0,.69.09l.46.8.18-.91a2.42,2.42,0,0,0,.51-.25l.89.44Z" style="fill: red;stroke: #fff;stroke-linecap: round;stroke-linejoin: round;stroke-width: 0.5px"/>
          </g>
        </g>
      </g>
    </g>
  </g>
</svg>
