<svg xmlns="http://www.w3.org/2000/svg" xmlns:xlink="http://www.w3.org/1999/xlink" width="608.95" height="356.35" viewBox="0 0 608.95 356.35">
  <defs>
    <clipPath id="clip-path">
      <polygon points="137.97 317.76 138.08 256.31 232.85 242.99 232.74 304.44 137.97 317.76" style="fill: none"/>
    </clipPath>
    <clipPath id="clip-path-2">
      <polygon points="244.62 315.76 149.44 305.76 146.19 244.98 241.37 254.99 244.62 315.76" style="fill: none"/>
    </clipPath>
    <clipPath id="clip-path-3">
      <rect x="130.79" y="243.76" width="102.22" height="75.41" style="fill: none"/>
    </clipPath>
    <clipPath id="clip-path-4">
      <polyline points="130.79 319.17 229.63 308.5 233.02 243.76 134.18 254.42 130.79 319.17" style="fill: none"/>
    </clipPath>
    <clipPath id="clip-path-5">
      <polygon points="143.45 264.65 156.36 216.89 247.36 204.1 234.45 251.86 143.45 264.65" style="fill: none"/>
    </clipPath>
    <clipPath id="clip-path-6">
      <polyline points="234.45 251.86 148.29 257.47 156.36 216.89 242.53 211.28 234.45 251.86" style="fill: none"/>
    </clipPath>
    <clipPath id="clip-path-7">
      <polygon points="140.14 228.95 140.8 193.42 229.45 180.96 228.79 216.49 140.14 228.95" style="fill: none"/>
    </clipPath>
    <clipPath id="clip-path-8">
      <polyline points="140.14 228.95 157.08 195.17 229.45 180.96 212.51 214.74 140.14 228.95" style="fill: none"/>
    </clipPath>
    <clipPath id="clip-path-9">
      <polygon points="161.91 178.89 134.43 158.86 226.91 145.86 254.39 165.89 161.91 178.89" style="fill: none"/>
    </clipPath>
    <clipPath id="clip-path-10">
      <polyline points="161.91 178.89 151.72 161.48 226.91 145.86 237.1 163.27 161.91 178.89" style="fill: none"/>
    </clipPath>
    <clipPath id="clip-path-11">
      <polyline points="237.1 163.27 162.96 175.91 151.72 161.48 225.86 148.84 237.1 163.27" style="fill: none"/>
    </clipPath>
  </defs>
  <title>icon-broken-laptop</title>
  <g id="Layer_2" data-name="Layer 2">
    <g id="Home_-_1200" data-name="Home - 1200">
      <g id="Web_Security" data-name="Web Security">
        <g id="Illustration">
          <g id="Default">
            <g id="Computer">
              <path id="Line_and_Fill" data-name="Line and Fill" d="M.5,332.55l81.11-79V20.82S77.95.5,104.27.5H500.91c26.32,0,22.66,20.32,22.66,20.32V253.54l84.23,79" style="fill: #fff;stroke: #969c9c;stroke-linecap: round;stroke-linejoin: round"/>
              <g id="Line">
                <g>
                  <line x1="485.25" y1="268.31" x2="468.67" y2="268.31" style="fill: none;stroke: #efefef;stroke-linecap: round;stroke-linejoin: round"/>
                  <line x1="482.14" y1="259.75" x2="465.56" y2="259.75" style="fill: none;stroke: #efefef;stroke-linecap: round;stroke-linejoin: round"/>
                  <line x1="491.45" y1="276.87" x2="474.87" y2="276.87" style="fill: none;stroke: #efefef;stroke-linecap: round;stroke-linejoin: round"/>
                  <line x1="461.38" y1="268.31" x2="444.8" y2="268.31" style="fill: none;stroke: #efefef;stroke-linecap: round;stroke-linejoin: round"/>
                  <line x1="458.27" y1="259.75" x2="441.7" y2="259.75" style="fill: none;stroke: #efefef;stroke-linecap: round;stroke-linejoin: round"/>
                  <line x1="467.58" y1="276.87" x2="451.01" y2="276.87" style="fill: none;stroke: #efefef;stroke-linecap: round;stroke-linejoin: round"/>
                  <line x1="437.51" y1="268.31" x2="420.93" y2="268.31" style="fill: none;stroke: #efefef;stroke-linecap: round;stroke-linejoin: round"/>
                  <line x1="434.41" y1="259.75" x2="417.83" y2="259.75" style="fill: none;stroke: #efefef;stroke-linecap: round;stroke-linejoin: round"/>
                  <line x1="443.72" y1="276.87" x2="427.14" y2="276.87" style="fill: none;stroke: #efefef;stroke-linecap: round;stroke-linejoin: round"/>
                  <line x1="413.64" y1="268.31" x2="397.06" y2="268.31" style="fill: none;stroke: #efefef;stroke-linecap: round;stroke-linejoin: round"/>
                  <line x1="410.54" y1="259.75" x2="393.96" y2="259.75" style="fill: none;stroke: #efefef;stroke-linecap: round;stroke-linejoin: round"/>
                  <line x1="419.85" y1="276.87" x2="403.27" y2="276.87" style="fill: none;stroke: #efefef;stroke-linecap: round;stroke-linejoin: round"/>
                  <line x1="13.85" y1="350.95" x2="595.6" y2="350.95" style="fill: none;stroke: #969c9c;stroke-linecap: round;stroke-linejoin: round"/>
                  <rect x="109.71" y="22.24" width="389.15" height="210.91" style="fill: none;stroke: #969c9c;stroke-linecap: round;stroke-linejoin: round"/>
                  <path d="M307.88,334.95H1.15s3.79,15.51,24,20.91H584.43c20.22-5.4,24-20.91,24-20.91Z" style="fill: none;stroke: #969c9c;stroke-linecap: round;stroke-linejoin: round"/>
                  <path d="M281.36,334.67s1.22,5,7.75,6.74h31.38c6.52-1.74,7.75-6.74,7.75-6.74Z" style="fill: none;stroke: #969c9c;stroke-linecap: round;stroke-linejoin: round"/>
                  <polygon points="98.74 286.86 515.63 286.86 483.81 249.77 130.56 249.77 98.74 286.86" style="fill: none;stroke: #969c9c;stroke-linecap: round;stroke-linejoin: round"/>
                  <g>
                    <line x1="228.32" y1="268.31" x2="244.9" y2="268.31" style="fill: none;stroke: #969c9c;stroke-linecap: round;stroke-linejoin: round"/>
                    <line x1="231.42" y1="259.75" x2="248" y2="259.75" style="fill: none;stroke: #969c9c;stroke-linecap: round;stroke-linejoin: round"/>
                    <line x1="222.11" y1="276.87" x2="334.16" y2="276.87" style="fill: none;stroke: #969c9c;stroke-linecap: round;stroke-linejoin: round"/>
                    <line x1="252.19" y1="268.31" x2="268.77" y2="268.31" style="fill: none;stroke: #969c9c;stroke-linecap: round;stroke-linejoin: round"/>
                    <line x1="255.29" y1="259.75" x2="271.87" y2="259.75" style="fill: none;stroke: #969c9c;stroke-linecap: round;stroke-linejoin: round"/>
                    <line x1="245.98" y1="276.87" x2="262.56" y2="276.87" style="fill: none;stroke: #969c9c;stroke-linecap: round;stroke-linejoin: round"/>
                    <line x1="276.05" y1="268.31" x2="292.63" y2="268.31" style="fill: none;stroke: #969c9c;stroke-linecap: round;stroke-linejoin: round"/>
                    <line x1="279.16" y1="259.75" x2="295.74" y2="259.75" style="fill: none;stroke: #969c9c;stroke-linecap: round;stroke-linejoin: round"/>
                    <line x1="269.85" y1="276.87" x2="286.43" y2="276.87" style="fill: none;stroke: #969c9c;stroke-linecap: round;stroke-linejoin: round"/>
                    <line x1="299.92" y1="268.31" x2="316.5" y2="268.31" style="fill: none;stroke: #969c9c;stroke-linecap: round;stroke-linejoin: round"/>
                    <line x1="303.03" y1="259.75" x2="319.6" y2="259.75" style="fill: none;stroke: #969c9c;stroke-linecap: round;stroke-linejoin: round"/>
                    <line x1="293.72" y1="276.87" x2="310.29" y2="276.87" style="fill: none;stroke: #969c9c;stroke-linecap: round;stroke-linejoin: round"/>
                  </g>
                  <g>
                    <g>
                      <line x1="385" y1="268.31" x2="368.42" y2="268.31" style="fill: none;stroke: #efefef;stroke-linecap: round;stroke-linejoin: round"/>
                      <line x1="381.9" y1="259.75" x2="365.32" y2="259.75" style="fill: none;stroke: #efefef;stroke-linecap: round;stroke-linejoin: round"/>
                      <line x1="391.21" y1="276.87" x2="374.63" y2="276.87" style="fill: none;stroke: #efefef;stroke-linecap: round;stroke-linejoin: round"/>
                      <line x1="361.13" y1="268.31" x2="344.55" y2="268.31" style="fill: none;stroke: #efefef;stroke-linecap: round;stroke-linejoin: round"/>
                      <line x1="358.03" y1="259.75" x2="341.45" y2="259.75" style="fill: none;stroke: #efefef;stroke-linecap: round;stroke-linejoin: round"/>
                      <line x1="367.34" y1="276.87" x2="350.76" y2="276.87" style="fill: none;stroke: #efefef;stroke-linecap: round;stroke-linejoin: round"/>
                      <line x1="337.27" y1="268.31" x2="320.69" y2="268.31" style="fill: none;stroke: #efefef;stroke-linecap: round;stroke-linejoin: round"/>
                      <line x1="334.16" y1="259.75" x2="317.58" y2="259.75" style="fill: none;stroke: #efefef;stroke-linecap: round;stroke-linejoin: round"/>
                      <line x1="343.47" y1="276.87" x2="326.89" y2="276.87" style="fill: none;stroke: #efefef;stroke-linecap: round;stroke-linejoin: round"/>
                      <line x1="313.4" y1="268.31" x2="296.82" y2="268.31" style="fill: none;stroke: #efefef;stroke-linecap: round;stroke-linejoin: round"/>
                      <line x1="310.29" y1="259.75" x2="293.72" y2="259.75" style="fill: none;stroke: #efefef;stroke-linecap: round;stroke-linejoin: round"/>
                      <line x1="319.6" y1="276.87" x2="303.03" y2="276.87" style="fill: none;stroke: #fff;stroke-linecap: round;stroke-linejoin: round"/>
                    </g>
                    <g>
                      <line x1="385" y1="268.31" x2="368.42" y2="268.31" style="fill: none;stroke: #969c9c;stroke-linecap: round;stroke-linejoin: round"/>
                      <line x1="381.9" y1="259.75" x2="365.32" y2="259.75" style="fill: none;stroke: #969c9c;stroke-linecap: round;stroke-linejoin: round"/>
                      <line x1="391.21" y1="276.87" x2="374.63" y2="276.87" style="fill: none;stroke: #969c9c;stroke-linecap: round;stroke-linejoin: round"/>
                      <line x1="361.13" y1="268.31" x2="344.55" y2="268.31" style="fill: none;stroke: #969c9c;stroke-linecap: round;stroke-linejoin: round"/>
                      <line x1="358.03" y1="259.75" x2="341.45" y2="259.75" style="fill: none;stroke: #969c9c;stroke-linecap: round;stroke-linejoin: round"/>
                      <line x1="367.34" y1="276.87" x2="350.76" y2="276.87" style="fill: none;stroke: #969c9c;stroke-linecap: round;stroke-linejoin: round"/>
                      <line x1="337.27" y1="268.31" x2="320.69" y2="268.31" style="fill: none;stroke: #969c9c;stroke-linecap: round;stroke-linejoin: round"/>
                      <line x1="334.16" y1="259.75" x2="317.58" y2="259.75" style="fill: none;stroke: #969c9c;stroke-linecap: round;stroke-linejoin: round"/>
                      <line x1="343.47" y1="276.87" x2="326.89" y2="276.87" style="fill: none;stroke: #969c9c;stroke-linecap: round;stroke-linejoin: round"/>
                      <line x1="313.4" y1="268.31" x2="296.82" y2="268.31" style="fill: none;stroke: #969c9c;stroke-linecap: round;stroke-linejoin: round"/>
                      <line x1="310.29" y1="259.75" x2="293.72" y2="259.75" style="fill: none;stroke: #969c9c;stroke-linecap: round;stroke-linejoin: round"/>
                      <line x1="319.6" y1="276.87" x2="303.03" y2="276.87" style="fill: none;stroke: #969c9c;stroke-linecap: round;stroke-linejoin: round"/>
                    </g>
                  </g>
                  <g>
                    <g>
                      <line x1="128.07" y1="268.31" x2="144.65" y2="268.31" style="fill: none;stroke: #efefef;stroke-linecap: round;stroke-linejoin: round"/>
                      <line x1="131.18" y1="259.75" x2="147.76" y2="259.75" style="fill: none;stroke: #efefef;stroke-linecap: round;stroke-linejoin: round"/>
                      <line x1="121.87" y1="276.87" x2="138.45" y2="276.87" style="fill: none;stroke: #efefef;stroke-linecap: round;stroke-linejoin: round"/>
                      <line x1="151.94" y1="268.31" x2="168.52" y2="268.31" style="fill: none;stroke: #efefef;stroke-linecap: round;stroke-linejoin: round"/>
                      <line x1="155.05" y1="259.75" x2="171.62" y2="259.75" style="fill: none;stroke: #efefef;stroke-linecap: round;stroke-linejoin: round"/>
                      <line x1="145.74" y1="276.87" x2="162.31" y2="276.87" style="fill: none;stroke: #efefef;stroke-linecap: round;stroke-linejoin: round"/>
                      <line x1="175.81" y1="268.31" x2="192.39" y2="268.31" style="fill: none;stroke: #efefef;stroke-linecap: round;stroke-linejoin: round"/>
                      <line x1="178.91" y1="259.75" x2="195.49" y2="259.75" style="fill: none;stroke: #efefef;stroke-linecap: round;stroke-linejoin: round"/>
                      <line x1="169.6" y1="276.87" x2="186.18" y2="276.87" style="fill: none;stroke: #efefef;stroke-linecap: round;stroke-linejoin: round"/>
                      <line x1="199.68" y1="268.31" x2="216.26" y2="268.31" style="fill: none;stroke: #efefef;stroke-linecap: round;stroke-linejoin: round"/>
                      <line x1="202.78" y1="259.75" x2="219.36" y2="259.75" style="fill: none;stroke: #efefef;stroke-linecap: round;stroke-linejoin: round"/>
                      <line x1="193.47" y1="276.87" x2="210.05" y2="276.87" style="fill: none;stroke: #efefef;stroke-linecap: round;stroke-linejoin: round"/>
                    </g>
                    <g>
                      <line x1="128.07" y1="268.31" x2="144.65" y2="268.31" style="fill: none;stroke: #969c9c;stroke-linecap: round;stroke-linejoin: round"/>
                      <line x1="131.18" y1="259.75" x2="147.76" y2="259.75" style="fill: none;stroke: #969c9c;stroke-linecap: round;stroke-linejoin: round"/>
                      <line x1="121.87" y1="276.87" x2="138.45" y2="276.87" style="fill: none;stroke: #969c9c;stroke-linecap: round;stroke-linejoin: round"/>
                      <line x1="151.94" y1="268.31" x2="168.52" y2="268.31" style="fill: none;stroke: #969c9c;stroke-linecap: round;stroke-linejoin: round"/>
                      <line x1="155.05" y1="259.75" x2="171.62" y2="259.75" style="fill: none;stroke: #969c9c;stroke-linecap: round;stroke-linejoin: round"/>
                      <line x1="145.74" y1="276.87" x2="162.31" y2="276.87" style="fill: none;stroke: #969c9c;stroke-linecap: round;stroke-linejoin: round"/>
                      <line x1="175.81" y1="268.31" x2="192.39" y2="268.31" style="fill: none;stroke: #969c9c;stroke-linecap: round;stroke-linejoin: round"/>
                      <line x1="178.91" y1="259.75" x2="195.49" y2="259.75" style="fill: none;stroke: #969c9c;stroke-linecap: round;stroke-linejoin: round"/>
                      <line x1="169.6" y1="276.87" x2="186.18" y2="276.87" style="fill: none;stroke: #969c9c;stroke-linecap: round;stroke-linejoin: round"/>
                      <line x1="199.68" y1="268.31" x2="216.26" y2="268.31" style="fill: none;stroke: #969c9c;stroke-linecap: round;stroke-linejoin: round"/>
                      <line x1="202.78" y1="259.75" x2="219.36" y2="259.75" style="fill: none;stroke: #969c9c;stroke-linecap: round;stroke-linejoin: round"/>
                      <line x1="193.47" y1="276.87" x2="210.05" y2="276.87" style="fill: none;stroke: #969c9c;stroke-linecap: round;stroke-linejoin: round"/>
                    </g>
                  </g>
                  <polyline points="184.1 318.95 425.49 318.95 415.07 301.48 198.79 301.83 184.1 318.95" style="fill: none;stroke: #969c9c;stroke-linecap: round;stroke-linejoin: round"/>
                </g>
                <g>
                  <line x1="485.25" y1="268.31" x2="468.67" y2="268.31" style="fill: none;stroke: #969c9c;stroke-linecap: round;stroke-linejoin: round"/>
                  <line x1="482.14" y1="259.75" x2="465.56" y2="259.75" style="fill: none;stroke: #969c9c;stroke-linecap: round;stroke-linejoin: round"/>
                  <line x1="491.45" y1="276.87" x2="474.87" y2="276.87" style="fill: none;stroke: #969c9c;stroke-linecap: round;stroke-linejoin: round"/>
                  <line x1="461.38" y1="268.31" x2="444.8" y2="268.31" style="fill: none;stroke: #969c9c;stroke-linecap: round;stroke-linejoin: round"/>
                  <line x1="458.27" y1="259.75" x2="441.7" y2="259.75" style="fill: none;stroke: #969c9c;stroke-linecap: round;stroke-linejoin: round"/>
                  <line x1="467.58" y1="276.87" x2="451.01" y2="276.87" style="fill: none;stroke: #969c9c;stroke-linecap: round;stroke-linejoin: round"/>
                  <line x1="437.51" y1="268.31" x2="420.93" y2="268.31" style="fill: none;stroke: #969c9c;stroke-linecap: round;stroke-linejoin: round"/>
                  <line x1="434.41" y1="259.75" x2="417.83" y2="259.75" style="fill: none;stroke: #969c9c;stroke-linecap: round;stroke-linejoin: round"/>
                  <line x1="443.72" y1="276.87" x2="427.14" y2="276.87" style="fill: none;stroke: #969c9c;stroke-linecap: round;stroke-linejoin: round"/>
                  <line x1="413.64" y1="268.31" x2="397.06" y2="268.31" style="fill: none;stroke: #969c9c;stroke-linecap: round;stroke-linejoin: round"/>
                  <line x1="410.54" y1="259.75" x2="393.96" y2="259.75" style="fill: none;stroke: #969c9c;stroke-linecap: round;stroke-linejoin: round"/>
                  <line x1="419.85" y1="276.87" x2="403.27" y2="276.87" style="fill: none;stroke: #969c9c;stroke-linecap: round;stroke-linejoin: round"/>
                  <line x1="13.85" y1="350.95" x2="595.6" y2="350.95" style="fill: none;stroke: #969c9c;stroke-linecap: round;stroke-linejoin: round"/>
                  <rect x="109.71" y="22.24" width="389.15" height="210.91" style="fill: none;stroke: #969c9c;stroke-linecap: round;stroke-linejoin: round"/>
                  <path d="M307.88,334.95H1.15s3.79,15.51,24,20.91H584.43c20.22-5.4,24-20.91,24-20.91Z" style="fill: none;stroke: #969c9c;stroke-linecap: round;stroke-linejoin: round"/>
                  <path d="M281.36,334.67s1.22,5,7.75,6.74h31.38c6.52-1.74,7.75-6.74,7.75-6.74Z" style="fill: none;stroke: #969c9c;stroke-linecap: round;stroke-linejoin: round"/>
                  <polygon points="98.74 286.86 515.63 286.86 483.81 249.77 130.56 249.77 98.74 286.86" style="fill: none;stroke: #969c9c;stroke-linecap: round;stroke-linejoin: round"/>
                  <g>
                    <line x1="228.32" y1="268.31" x2="244.9" y2="268.31" style="fill: none;stroke: #969c9c;stroke-linecap: round;stroke-linejoin: round"/>
                    <line x1="231.42" y1="259.75" x2="248" y2="259.75" style="fill: none;stroke: #969c9c;stroke-linecap: round;stroke-linejoin: round"/>
                    <line x1="222.11" y1="276.87" x2="334.16" y2="276.87" style="fill: none;stroke: #969c9c;stroke-linecap: round;stroke-linejoin: round"/>
                    <line x1="252.19" y1="268.31" x2="268.77" y2="268.31" style="fill: none;stroke: #969c9c;stroke-linecap: round;stroke-linejoin: round"/>
                    <line x1="255.29" y1="259.75" x2="271.87" y2="259.75" style="fill: none;stroke: #969c9c;stroke-linecap: round;stroke-linejoin: round"/>
                    <line x1="245.98" y1="276.87" x2="262.56" y2="276.87" style="fill: none;stroke: #969c9c;stroke-linecap: round;stroke-linejoin: round"/>
                    <line x1="276.05" y1="268.31" x2="292.63" y2="268.31" style="fill: none;stroke: #969c9c;stroke-linecap: round;stroke-linejoin: round"/>
                    <line x1="279.16" y1="259.75" x2="295.74" y2="259.75" style="fill: none;stroke: #969c9c;stroke-linecap: round;stroke-linejoin: round"/>
                    <line x1="269.85" y1="276.87" x2="286.43" y2="276.87" style="fill: none;stroke: #969c9c;stroke-linecap: round;stroke-linejoin: round"/>
                    <line x1="299.92" y1="268.31" x2="316.5" y2="268.31" style="fill: none;stroke: #969c9c;stroke-linecap: round;stroke-linejoin: round"/>
                    <line x1="303.03" y1="259.75" x2="319.6" y2="259.75" style="fill: none;stroke: #969c9c;stroke-linecap: round;stroke-linejoin: round"/>
                    <line x1="293.72" y1="276.87" x2="310.29" y2="276.87" style="fill: none;stroke: #969c9c;stroke-linecap: round;stroke-linejoin: round"/>
                  </g>
                  <g>
                    <g>
                      <line x1="385" y1="268.31" x2="368.42" y2="268.31" style="fill: none;stroke: #969c9c;stroke-linecap: round;stroke-linejoin: round"/>
                      <line x1="381.9" y1="259.75" x2="365.32" y2="259.75" style="fill: none;stroke: #969c9c;stroke-linecap: round;stroke-linejoin: round"/>
                      <line x1="391.21" y1="276.87" x2="374.63" y2="276.87" style="fill: none;stroke: #969c9c;stroke-linecap: round;stroke-linejoin: round"/>
                      <line x1="361.13" y1="268.31" x2="344.55" y2="268.31" style="fill: none;stroke: #969c9c;stroke-linecap: round;stroke-linejoin: round"/>
                      <line x1="358.03" y1="259.75" x2="341.45" y2="259.75" style="fill: none;stroke: #969c9c;stroke-linecap: round;stroke-linejoin: round"/>
                      <line x1="367.34" y1="276.87" x2="350.76" y2="276.87" style="fill: none;stroke: #969c9c;stroke-linecap: round;stroke-linejoin: round"/>
                      <line x1="337.27" y1="268.31" x2="320.69" y2="268.31" style="fill: none;stroke: #969c9c;stroke-linecap: round;stroke-linejoin: round"/>
                      <line x1="334.16" y1="259.75" x2="317.58" y2="259.75" style="fill: none;stroke: #969c9c;stroke-linecap: round;stroke-linejoin: round"/>
                      <line x1="343.47" y1="276.87" x2="326.89" y2="276.87" style="fill: none;stroke: #969c9c;stroke-linecap: round;stroke-linejoin: round"/>
                      <line x1="313.4" y1="268.31" x2="296.82" y2="268.31" style="fill: none;stroke: #969c9c;stroke-linecap: round;stroke-linejoin: round"/>
                      <line x1="310.29" y1="259.75" x2="293.72" y2="259.75" style="fill: none;stroke: #969c9c;stroke-linecap: round;stroke-linejoin: round"/>
                      <line x1="319.6" y1="276.87" x2="303.03" y2="276.87" style="fill: none;stroke: #969c9c;stroke-linecap: round;stroke-linejoin: round"/>
                    </g>
                    <g>
                      <line x1="385" y1="268.31" x2="368.42" y2="268.31" style="fill: none;stroke: #969c9c;stroke-linecap: round;stroke-linejoin: round"/>
                      <line x1="381.9" y1="259.75" x2="365.32" y2="259.75" style="fill: none;stroke: #969c9c;stroke-linecap: round;stroke-linejoin: round"/>
                      <line x1="391.21" y1="276.87" x2="374.63" y2="276.87" style="fill: none;stroke: #969c9c;stroke-linecap: round;stroke-linejoin: round"/>
                      <line x1="361.13" y1="268.31" x2="344.55" y2="268.31" style="fill: none;stroke: #969c9c;stroke-linecap: round;stroke-linejoin: round"/>
                      <line x1="358.03" y1="259.75" x2="341.45" y2="259.75" style="fill: none;stroke: #969c9c;stroke-linecap: round;stroke-linejoin: round"/>
                      <line x1="367.34" y1="276.87" x2="350.76" y2="276.87" style="fill: none;stroke: #969c9c;stroke-linecap: round;stroke-linejoin: round"/>
                      <line x1="337.27" y1="268.31" x2="320.69" y2="268.31" style="fill: none;stroke: #969c9c;stroke-linecap: round;stroke-linejoin: round"/>
                      <line x1="334.16" y1="259.75" x2="317.58" y2="259.75" style="fill: none;stroke: #969c9c;stroke-linecap: round;stroke-linejoin: round"/>
                      <line x1="343.47" y1="276.87" x2="326.89" y2="276.87" style="fill: none;stroke: #969c9c;stroke-linecap: round;stroke-linejoin: round"/>
                      <line x1="313.4" y1="268.31" x2="296.82" y2="268.31" style="fill: none;stroke: #969c9c;stroke-linecap: round;stroke-linejoin: round"/>
                      <line x1="310.29" y1="259.75" x2="293.72" y2="259.75" style="fill: none;stroke: #969c9c;stroke-linecap: round;stroke-linejoin: round"/>
                      <line x1="319.6" y1="276.87" x2="303.03" y2="276.87" style="fill: none;stroke: #969c9c;stroke-linecap: round;stroke-linejoin: round"/>
                    </g>
                    <g>
                      <line x1="385" y1="268.31" x2="368.42" y2="268.31" style="fill: none;stroke: #969c9c;stroke-linecap: round;stroke-linejoin: round"/>
                      <line x1="381.9" y1="259.75" x2="365.32" y2="259.75" style="fill: none;stroke: #969c9c;stroke-linecap: round;stroke-linejoin: round"/>
                      <line x1="391.21" y1="276.87" x2="374.63" y2="276.87" style="fill: none;stroke: #969c9c;stroke-linecap: round;stroke-linejoin: round"/>
                      <line x1="361.13" y1="268.31" x2="344.55" y2="268.31" style="fill: none;stroke: #969c9c;stroke-linecap: round;stroke-linejoin: round"/>
                      <line x1="358.03" y1="259.75" x2="341.45" y2="259.75" style="fill: none;stroke: #969c9c;stroke-linecap: round;stroke-linejoin: round"/>
                      <line x1="367.34" y1="276.87" x2="350.76" y2="276.87" style="fill: none;stroke: #969c9c;stroke-linecap: round;stroke-linejoin: round"/>
                      <line x1="337.27" y1="268.31" x2="320.69" y2="268.31" style="fill: none;stroke: #969c9c;stroke-linecap: round;stroke-linejoin: round"/>
                      <line x1="334.16" y1="259.75" x2="317.58" y2="259.75" style="fill: none;stroke: #969c9c;stroke-linecap: round;stroke-linejoin: round"/>
                      <line x1="343.47" y1="276.87" x2="326.89" y2="276.87" style="fill: none;stroke: #969c9c;stroke-linecap: round;stroke-linejoin: round"/>
                      <line x1="313.4" y1="268.31" x2="296.82" y2="268.31" style="fill: none;stroke: #969c9c;stroke-linecap: round;stroke-linejoin: round"/>
                      <line x1="310.29" y1="259.75" x2="293.72" y2="259.75" style="fill: none;stroke: #969c9c;stroke-linecap: round;stroke-linejoin: round"/>
                      <line x1="319.6" y1="276.87" x2="303.03" y2="276.87" style="fill: none;stroke: #969c9c;stroke-linecap: round;stroke-linejoin: round"/>
                    </g>
                  </g>
                  <g>
                    <g>
                      <line x1="128.07" y1="268.31" x2="144.65" y2="268.31" style="fill: none;stroke: #969c9c;stroke-linecap: round;stroke-linejoin: round"/>
                      <line x1="131.18" y1="259.75" x2="147.76" y2="259.75" style="fill: none;stroke: #969c9c;stroke-linecap: round;stroke-linejoin: round"/>
                      <line x1="121.87" y1="276.87" x2="138.45" y2="276.87" style="fill: none;stroke: #969c9c;stroke-linecap: round;stroke-linejoin: round"/>
                      <line x1="151.94" y1="268.31" x2="168.52" y2="268.31" style="fill: none;stroke: #969c9c;stroke-linecap: round;stroke-linejoin: round"/>
                      <line x1="155.05" y1="259.75" x2="171.62" y2="259.75" style="fill: none;stroke: #969c9c;stroke-linecap: round;stroke-linejoin: round"/>
                      <line x1="145.74" y1="276.87" x2="162.31" y2="276.87" style="fill: none;stroke: #969c9c;stroke-linecap: round;stroke-linejoin: round"/>
                      <line x1="175.81" y1="268.31" x2="192.39" y2="268.31" style="fill: none;stroke: #969c9c;stroke-linecap: round;stroke-linejoin: round"/>
                      <line x1="178.91" y1="259.75" x2="195.49" y2="259.75" style="fill: none;stroke: #969c9c;stroke-linecap: round;stroke-linejoin: round"/>
                      <line x1="169.6" y1="276.87" x2="186.18" y2="276.87" style="fill: none;stroke: #969c9c;stroke-linecap: round;stroke-linejoin: round"/>
                      <line x1="199.68" y1="268.31" x2="216.26" y2="268.31" style="fill: none;stroke: #969c9c;stroke-linecap: round;stroke-linejoin: round"/>
                      <line x1="202.78" y1="259.75" x2="219.36" y2="259.75" style="fill: none;stroke: #969c9c;stroke-linecap: round;stroke-linejoin: round"/>
                      <line x1="193.47" y1="276.87" x2="210.05" y2="276.87" style="fill: none;stroke: #969c9c;stroke-linecap: round;stroke-linejoin: round"/>
                    </g>
                    <g>
                      <line x1="128.07" y1="268.31" x2="144.65" y2="268.31" style="fill: none;stroke: #969c9c;stroke-linecap: round;stroke-linejoin: round"/>
                      <line x1="131.18" y1="259.75" x2="147.76" y2="259.75" style="fill: none;stroke: #969c9c;stroke-linecap: round;stroke-linejoin: round"/>
                      <line x1="121.87" y1="276.87" x2="138.45" y2="276.87" style="fill: none;stroke: #969c9c;stroke-linecap: round;stroke-linejoin: round"/>
                      <line x1="151.94" y1="268.31" x2="168.52" y2="268.31" style="fill: none;stroke: #969c9c;stroke-linecap: round;stroke-linejoin: round"/>
                      <line x1="155.05" y1="259.75" x2="171.62" y2="259.75" style="fill: none;stroke: #969c9c;stroke-linecap: round;stroke-linejoin: round"/>
                      <line x1="145.74" y1="276.87" x2="162.31" y2="276.87" style="fill: none;stroke: #969c9c;stroke-linecap: round;stroke-linejoin: round"/>
                      <line x1="175.81" y1="268.31" x2="192.39" y2="268.31" style="fill: none;stroke: #969c9c;stroke-linecap: round;stroke-linejoin: round"/>
                      <line x1="178.91" y1="259.75" x2="195.49" y2="259.75" style="fill: none;stroke: #969c9c;stroke-linecap: round;stroke-linejoin: round"/>
                      <line x1="169.6" y1="276.87" x2="186.18" y2="276.87" style="fill: none;stroke: #969c9c;stroke-linecap: round;stroke-linejoin: round"/>
                      <line x1="199.68" y1="268.31" x2="216.26" y2="268.31" style="fill: none;stroke: #969c9c;stroke-linecap: round;stroke-linejoin: round"/>
                      <line x1="202.78" y1="259.75" x2="219.36" y2="259.75" style="fill: none;stroke: #969c9c;stroke-linecap: round;stroke-linejoin: round"/>
                      <line x1="193.47" y1="276.87" x2="210.05" y2="276.87" style="fill: none;stroke: #969c9c;stroke-linecap: round;stroke-linejoin: round"/>
                    </g>
                    <g>
                      <line x1="128.07" y1="268.31" x2="144.65" y2="268.31" style="fill: none;stroke: #969c9c;stroke-linecap: round;stroke-linejoin: round"/>
                      <line x1="131.18" y1="259.75" x2="147.76" y2="259.75" style="fill: none;stroke: #969c9c;stroke-linecap: round;stroke-linejoin: round"/>
                      <line x1="121.87" y1="276.87" x2="138.45" y2="276.87" style="fill: none;stroke: #969c9c;stroke-linecap: round;stroke-linejoin: round"/>
                      <line x1="151.94" y1="268.31" x2="168.52" y2="268.31" style="fill: none;stroke: #969c9c;stroke-linecap: round;stroke-linejoin: round"/>
                      <line x1="155.05" y1="259.75" x2="171.62" y2="259.75" style="fill: none;stroke: #969c9c;stroke-linecap: round;stroke-linejoin: round"/>
                      <line x1="145.74" y1="276.87" x2="162.31" y2="276.87" style="fill: none;stroke: #969c9c;stroke-linecap: round;stroke-linejoin: round"/>
                      <line x1="175.81" y1="268.31" x2="192.39" y2="268.31" style="fill: none;stroke: #969c9c;stroke-linecap: round;stroke-linejoin: round"/>
                      <line x1="178.91" y1="259.75" x2="195.49" y2="259.75" style="fill: none;stroke: #969c9c;stroke-linecap: round;stroke-linejoin: round"/>
                      <line x1="169.6" y1="276.87" x2="186.18" y2="276.87" style="fill: none;stroke: #969c9c;stroke-linecap: round;stroke-linejoin: round"/>
                      <line x1="199.68" y1="268.31" x2="216.26" y2="268.31" style="fill: none;stroke: #969c9c;stroke-linecap: round;stroke-linejoin: round"/>
                      <line x1="202.78" y1="259.75" x2="219.36" y2="259.75" style="fill: none;stroke: #969c9c;stroke-linecap: round;stroke-linejoin: round"/>
                      <line x1="193.47" y1="276.87" x2="210.05" y2="276.87" style="fill: none;stroke: #969c9c;stroke-linecap: round;stroke-linejoin: round"/>
                    </g>
                  </g>
                  <polyline points="184.1 318.95 425.49 318.95 415.07 301.48 198.79 301.83 184.1 318.95" style="fill: none;stroke: #969c9c;stroke-linecap: round;stroke-linejoin: round"/>
                </g>
              </g>
            </g>
            <g id="Crack">
              <g id="crack-2" data-name="crack">
                <polyline points="204.52 92 197.52 108 197.67 101.85 198.67 75.85 185.67 65.85" style="fill: none;stroke: #3f4563;stroke-linecap: round;stroke-linejoin: round"/>
                <polyline points="190.67 108.85 164.67 120.85 161.67 146.85 137.67 167.85" style="fill: none;stroke: #3f4563;stroke-linecap: round;stroke-linejoin: round"/>
                <polyline points="190.67 108.85 176.67 144.85 177.67 169.85 185.67 194.85 173.67 217.85" style="fill: none;stroke: #3f4563;stroke-linecap: round;stroke-linejoin: round"/>
                <polyline points="198.67 112.85 216.67 160.85 209.67 187.85 214.67 215.85" style="fill: none;stroke: #3f4563;stroke-linecap: round;stroke-linejoin: round"/>
                <polyline points="190.67 108.85 192.67 149.85 186.67 161.85 194.67 171.85" style="fill: none;stroke: #3f4563;stroke-linecap: round;stroke-linejoin: round"/>
                <polyline points="177.67 101.85 179.67 114.85 192.67 122.85 217.67 117.85 185 101.19 177.67 101.85" style="fill: #3f4563"/>
                <polygon points="179.29 110.23 171.92 117.35 181.67 115.98 179.29 110.23" style="fill: #3f4563"/>
                <polygon points="183.42 113.18 184.7 124.7 192.05 118.62 183.42 113.18" style="fill: #3f4563"/>
                <polygon points="187.32 115.04 192.44 145.11 200.12 119.2 187.32 115.04" style="fill: #3f4563"/>
                <polygon points="196.55 120.46 209.67 141.25 206.79 117.58 196.55 120.46" style="fill: #3f4563"/>
                <polyline points="180 86.85 177.33 73.85 194.33 93.52 180 86.85" style="fill: #373e5a"/>
                <polyline points="190 88.85 198 80.19 198.67 87.52 209 80.85 207.67 108.85 192.33 100.19 190 88.85" style="fill: #3f4563"/>
                <polyline points="198.38 93.81 210.17 93.48 207.79 100.23 216.67 101.73 212.04 108.35 193.03 104.06 198.38 93.81" style="fill: #3f4563"/>
                <polyline points="232.17 79.35 218.42 82.58 212.09 92.58 208.19 94.68" style="fill: none;stroke: #3f4563;stroke-linecap: round;stroke-linejoin: round"/>
                <polyline points="233.59 99.14 226.81 101.96 218.91 99.19 203.66 117.53" style="fill: none;stroke: #3f4563;stroke-linecap: round;stroke-linejoin: round"/>
                <polyline points="109.67 69.85 136.67 80.85 158.67 78.85 163.67 88.85 186.67 86.85 211.29 111.73 240.17 111.98 254.79 108.73 424.67 198.85 474.67 194.85 498.33 209.85" style="fill: none;stroke: #3f4563;stroke-linecap: round;stroke-linejoin: round"/>
                <polyline points="158.67 78.85 137.67 61.85 110.67 59.85" style="fill: none;stroke: #3f4563;stroke-linecap: round;stroke-linejoin: round"/>
                <polyline points="109.67 209.19 124.67 140.85 146.67 134.85 145.67 122.85 157.67 110.85 189.67 93.85 167.56 103.62 146.67 112.85 121.67 111.85 109.67 134.85" style="fill: none;stroke: #3f4563;stroke-linecap: round;stroke-linejoin: round"/>
                <polygon points="424.67 198.85 257 110.52 240.83 113.02 227.94 112.17 205.37 120.63 170.29 88.35 186.67 86.85 210.67 110.85 240.67 111.35 252.83 106.69 424.67 198.85" style="fill: #3f4563"/>
                <polyline points="201 101.85 213.67 66.52 197 50.52 206.67 30.85 238.33 21.85" style="fill: none;stroke: #3f4563;stroke-linecap: round;stroke-linejoin: round"/>
                <polyline points="191.67 91.19 171 66.52 181 41.85 153.67 25.85" style="fill: none;stroke: #3f4563;stroke-miterlimit: 10"/>
                <polyline points="143.67 67.19 156.44 89.09 153.92 91.19 171 93.19 162.33 107.19 185 101.19 204.67 114.85 217.67 113.85 236.67 111.35 228.54 111.1 215.79 110.85 215.29 108.48 211.17 107.6" style="fill: #3f4563"/>
                <polyline points="156.42 91.1 147 90.52 143.67 95.19" style="fill: none;stroke: #3f4563;stroke-linecap: round;stroke-linejoin: round"/>
              </g>
            </g>
            <g id="cards">
              <g>
                <g>
                  <path d="M207.82,309.3,143.29,272c-.65-.37-.56-1,.18-1.46l37-21.34a2.83,2.83,0,0,1,2.53-.11l64.53,37.26c.65.37.56,1-.18,1.46l-37,21.34A2.83,2.83,0,0,1,207.82,309.3Z" style="fill: #fff;stroke: #3f4563;stroke-linecap: round;stroke-linejoin: round"/>
                  <polygon points="235.4 294.74 168.52 256.12 173.72 253.12 240.6 291.73 235.4 294.74" style="fill: none;stroke: #3f4563;stroke-linecap: round;stroke-linejoin: round"/>
                  <polygon points="209.75 303.03 195.73 294.94 201.59 291.56 215.6 299.65 209.75 303.03" style="fill: none;stroke: #3f4563;stroke-linecap: round;stroke-linejoin: round"/>
                  <line x1="212.08" y1="289.61" x2="223.66" y2="296.2" style="fill: none;stroke: #3f4563;stroke-linecap: round;stroke-linejoin: round;stroke-dasharray: 1.7736260890960693,2.6604392528533936"/>
                  <line x1="193.41" y1="286.37" x2="160.53" y2="267.29" style="fill: none;stroke: #3f4563;stroke-linecap: round;stroke-linejoin: round"/>
                  <line x1="182.06" y1="286.91" x2="154.39" y2="270.83" style="fill: none;stroke: #3f4563;stroke-linecap: round;stroke-linejoin: round;stroke-dasharray: 1.7736260890960693,2.6604392528533936"/>
                </g>
                <path d="M142.74,273.79l-.07-1.58.27-.48a.94.94,0,0,0,.35.33l64.53,37.26a2.83,2.83,0,0,0,2.53-.11l37-21.34a1.1,1.1,0,0,0,.61-.75l.23.39-.14,2h0c-.05.25-.36.46-.71.66l-37,21.34a2.83,2.83,0,0,1-2.53.11l-64.53-37.26a.94.94,0,0,1-.35-.33" style="fill: #fff;stroke: #3f4563;stroke-linecap: round;stroke-linejoin: round"/>
              </g>
              <g style="isolation: isolate">
                <g style="clip-path: url(#clip-path)">
                  <g>
                    <path d="M190.89,290.9l-4.32,3.3,11.57,5.59,4.32-3.29-11.57-5.59m19.64,1.62a.4.4,0,0,1-.22,0l0,0a.45.45,0,0,1-.17-.62.52.52,0,0,1,.39-.3.4.4,0,0,1,.22,0h0a.46.46,0,0,1,.17.63.52.52,0,0,1-.39.3m-2.07-1a.39.39,0,0,1-.22,0l-1.37-.65a.46.46,0,0,1-.17-.63.52.52,0,0,1,.38-.3.37.37,0,0,1,.22,0l1.38.65a.46.46,0,0,1,.17.62.54.54,0,0,1-.39.3M205,289.91a.37.37,0,0,1-.22,0l-1.38-.65a.46.46,0,0,1-.17-.62.54.54,0,0,1,.39-.3.37.37,0,0,1,.22,0l1.38.65a.46.46,0,0,1,.16.63.52.52,0,0,1-.38.3m-6.89,10.9a.38.38,0,0,1-.22,0l-12.46-6a.43.43,0,0,1-.22-.39.59.59,0,0,1,.23-.45l5.21-4a.47.47,0,0,1,.22-.1.41.41,0,0,1,.23,0l12.46,6a.41.41,0,0,1,.22.38.57.57,0,0,1-.22.45l-5.21,4a.5.5,0,0,1-.23.1m3.47-12.53a.4.4,0,0,1-.22,0l-1.37-.65a.46.46,0,0,1-.17-.63.52.52,0,0,1,.39-.3.4.4,0,0,1,.22,0l1.37.65a.45.45,0,0,1,.17.62.52.52,0,0,1-.39.3m-28.08.52a.37.37,0,0,1-.22,0l-1.37-.66a.47.47,0,0,1-.16-.63.54.54,0,0,1,.39-.29.38.38,0,0,1,.22,0l1.36.66a.46.46,0,0,1,.17.63.53.53,0,0,1-.39.3m-3.42-1.66a.37.37,0,0,1-.22,0l-1.37-.66a.47.47,0,0,1-.16-.63.53.53,0,0,1,.39-.3.37.37,0,0,1,.22,0l1.36.66a.45.45,0,0,1,.17.62.54.54,0,0,1-.39.3m-3.41-1.66a.36.36,0,0,1-.22,0l-1.37-.66a.47.47,0,0,1-.16-.63.54.54,0,0,1,.39-.29.38.38,0,0,1,.22,0l1.36.66a.46.46,0,0,1,.17.63.55.55,0,0,1-.39.29m-3.41-1.66a.37.37,0,0,1-.22,0l-1.37-.66a.47.47,0,0,1-.16-.63.53.53,0,0,1,.39-.3.37.37,0,0,1,.22,0l1.36.66a.45.45,0,0,1,.17.62.54.54,0,0,1-.39.3m-3.41-1.66a.36.36,0,0,1-.22,0l-1.37-.66a.47.47,0,0,1-.16-.63.54.54,0,0,1,.39-.29.38.38,0,0,1,.22,0l1.36.66a.46.46,0,0,1,.17.63.55.55,0,0,1-.39.29m-3.41-1.66a.37.37,0,0,1-.22,0l-1.37-.66a.47.47,0,0,1-.16-.63.53.53,0,0,1,.39-.3.37.37,0,0,1,.22,0l1.36.66a.45.45,0,0,1,.17.62.54.54,0,0,1-.39.3m-3.4-1.66a.37.37,0,0,1-.22,0l-1.37-.66a.47.47,0,0,1-.16-.63.54.54,0,0,1,.39-.29.38.38,0,0,1,.22,0l1.36.66a.46.46,0,0,1,.17.63.53.53,0,0,1-.39.3m-3.42-1.66a.37.37,0,0,1-.22,0l-.74-.36a.46.46,0,0,1-.17-.63.54.54,0,0,1,.39-.3.37.37,0,0,1,.22,0l.75.37a.46.46,0,0,1,.16.63.54.54,0,0,1-.39.3m34,9.68a.38.38,0,0,1-.22,0l-29.23-14.22A.46.46,0,0,1,154,272a.51.51,0,0,1,.38-.29.39.39,0,0,1,.23,0l29.22,14.22a.46.46,0,0,1,.17.63.54.54,0,0,1-.39.29M161.52,261l-22.1,16.86a1,1,0,0,0-.27.29l0,.14s0,.08.16.17l57.37,27.72a1.32,1.32,0,0,0,.71.07h.09a2.27,2.27,0,0,0,1-.42l21.66-16.52L161.52,261m4.64-3.54-2.44,1.86-1.31,1L221,288.61l3.74-2.85-58.56-28.3m7.26-5.15a2.39,2.39,0,0,0-1.06.43l-5.31,4,58.56,28.3,5.76-4.39a1.18,1.18,0,0,0,.27-.28l.06-.15s0-.08-.17-.17l-57.37-27.72a1.42,1.42,0,0,0-.75-.07" style="fill: #fff"/>
                    <path d="M162,259.5l-23,17.58a2.38,2.38,0,0,0-.55.59,1.4,1.4,0,0,0-.23.73,1,1,0,0,0,0,.26l.1-.21a.53.53,0,0,1,.38-.3.37.37,0,0,1,.38.18.37.37,0,0,0,.15.12c-.17-.09-.16-.14-.16-.17l0-.14a1,1,0,0,1,.27-.29L161.52,261l-.22-.11a.41.41,0,0,1-.22-.38.57.57,0,0,1,.22-.45l.72-.55m4.13-2-2.43,1.86,2.44-1.86h0m7.26-6.11a3.3,3.3,0,0,0-1.51.62l-6,4.54a.47.47,0,0,1,.2-.08.38.38,0,0,1,.22,0l.67.32,5.31-4a2.39,2.39,0,0,1,1.06-.43,1.42,1.42,0,0,1,.75.07l57.37,27.72c.17.09.16.15.17.17l-.06.15a1.18,1.18,0,0,1-.27.28c.26-.19.33-.37.33-.41a.55.55,0,0,1,.35-.46l.08,0a.38.38,0,0,1,.39.19l.06.11a1,1,0,0,0-.61-.89l-57.36-27.72a2.15,2.15,0,0,0-1.2-.13" style="fill: #3f4563"/>
                    <path d="M166.16,256.42a.47.47,0,0,0-.2.08h0l-3.91,3-.72.55a.57.57,0,0,0-.22.45.41.41,0,0,0,.22.38l.22.11,58.58,28.29.89-.68-58.57-28.3,1.31-1,2.43-1.86h0l58.56,28.3.89-.68L167,256.78l-.67-.32a.38.38,0,0,0-.22,0" style="fill: #3f4563"/>
                    <path d="M198.13,299.78l-11.57-5.59,4.32-3.3,11.57,5.59-4.32,3.29m-7.25-9.92a.47.47,0,0,0-.22.1l-5.21,4a.59.59,0,0,0-.23.45.43.43,0,0,0,.22.39l12.46,6a.38.38,0,0,0,.22,0,.5.5,0,0,0,.23-.1l5.21-4a.57.57,0,0,0,.22-.45.41.41,0,0,0-.22-.38l-12.46-6a.41.41,0,0,0-.23,0" style="fill: #3f4563"/>
                    <path d="M210.51,291.55a.52.52,0,0,0-.39.3.45.45,0,0,0,.17.62l0,0a.4.4,0,0,0,.22,0,.52.52,0,0,0,.39-.3.46.46,0,0,0-.17-.63h0a.4.4,0,0,0-.22,0m-3.43-1.63a.52.52,0,0,0-.38.3.46.46,0,0,0,.17.63l1.37.65a.39.39,0,0,0,.22,0,.54.54,0,0,0,.39-.3.46.46,0,0,0-.17-.62L207.3,290a.37.37,0,0,0-.22,0m-3.42-1.62a.54.54,0,0,0-.39.3.46.46,0,0,0,.17.62l1.38.65a.37.37,0,0,0,.22,0,.52.52,0,0,0,.38-.3.46.46,0,0,0-.16-.63l-1.38-.65a.37.37,0,0,0-.22,0m-3.43-1.63a.52.52,0,0,0-.39.3.46.46,0,0,0,.17.63l1.37.65a.4.4,0,0,0,.22,0,.52.52,0,0,0,.39-.3.45.45,0,0,0-.17-.62l-1.37-.65a.4.4,0,0,0-.22,0" style="fill: #3f4563"/>
                    <path d="M154.39,271.69a.51.51,0,0,0-.38.29.46.46,0,0,0,.16.63l29.23,14.22a.38.38,0,0,0,.22,0,.54.54,0,0,0,.39-.29.46.46,0,0,0-.17-.63l-29.22-14.22a.39.39,0,0,0-.23,0" style="fill: #3f4563"/>
                    <path d="M172.16,287.18a.54.54,0,0,0-.39.29.47.47,0,0,0,.16.63l1.37.66a.37.37,0,0,0,.22,0,.53.53,0,0,0,.39-.3.46.46,0,0,0-.17-.63l-1.36-.66a.38.38,0,0,0-.22,0m-3.41-1.66a.53.53,0,0,0-.39.3.47.47,0,0,0,.16.63l1.37.66a.37.37,0,0,0,.22,0,.54.54,0,0,0,.39-.3.45.45,0,0,0-.17-.62l-1.36-.66a.37.37,0,0,0-.22,0m-3.4-1.66a.54.54,0,0,0-.39.29.47.47,0,0,0,.16.63l1.37.66a.36.36,0,0,0,.22,0,.55.55,0,0,0,.39-.29.46.46,0,0,0-.17-.63l-1.36-.66a.38.38,0,0,0-.22,0m-3.41-1.66a.53.53,0,0,0-.39.3.47.47,0,0,0,.16.63l1.37.66a.37.37,0,0,0,.22,0,.54.54,0,0,0,.39-.3.45.45,0,0,0-.17-.62l-1.36-.66a.37.37,0,0,0-.22,0m-3.4-1.66a.54.54,0,0,0-.39.29.47.47,0,0,0,.16.63l1.37.66a.36.36,0,0,0,.22,0,.55.55,0,0,0,.39-.29.46.46,0,0,0-.17-.63l-1.36-.66a.38.38,0,0,0-.22,0m-3.41-1.66a.53.53,0,0,0-.39.3.47.47,0,0,0,.16.63l1.37.66a.37.37,0,0,0,.22,0,.54.54,0,0,0,.39-.3.45.45,0,0,0-.17-.62l-1.36-.66a.37.37,0,0,0-.22,0m-3.4-1.66a.54.54,0,0,0-.39.29.47.47,0,0,0,.16.63l1.37.66a.37.37,0,0,0,.22,0,.53.53,0,0,0,.39-.3.46.46,0,0,0-.17-.63l-1.36-.66a.38.38,0,0,0-.22,0m-2.79-1.36a.54.54,0,0,0-.39.3.46.46,0,0,0,.17.63l.74.36a.37.37,0,0,0,.22,0,.54.54,0,0,0,.39-.3.46.46,0,0,0-.16-.63l-.75-.37a.37.37,0,0,0-.22,0" style="fill: #3f4563"/>
                    <path d="M138.94,279.41l0,1a.37.37,0,0,1,.12.12.37.37,0,0,0,.15.13l57.37,27.71a1.42,1.42,0,0,0,.76.07,2.36,2.36,0,0,0,1-.42l32.94-25.12a2.23,2.23,0,0,0,.4-.36l.08-1.1,0,0-32.93,25.12a3.39,3.39,0,0,1-1.5.62,2.11,2.11,0,0,1-1.2-.14l-57.24-27.65" style="fill: #fff"/>
                    <path d="M139,280.41l0-1,57.24,27.65a2.11,2.11,0,0,0,1.2.14,3.39,3.39,0,0,0,1.5-.62l32.93-25.12,0,0-.08,1.1a2.23,2.23,0,0,1-.4.36L198.43,308a2.36,2.36,0,0,1-1,.42,1.42,1.42,0,0,1-.76-.07l-57.37-27.71a.37.37,0,0,1-.15-.13.37.37,0,0,0-.12-.12m-.26-2.26a.53.53,0,0,0-.38.3l-.1.21-.14.29a.52.52,0,0,0-.06.27l.06,1.5a.4.4,0,0,0,.21.36l0,.06a1.07,1.07,0,0,0,.47.42l57.37,27.71a2,2,0,0,0,1.2.14,3.29,3.29,0,0,0,1.5-.62l32.93-25.12a3.93,3.93,0,0,0,.48-.42,1.32,1.32,0,0,0,.37-.65.55.55,0,0,0,0-.17l.12-1.84a.46.46,0,0,0-.06-.26l-.14-.24-.06-.11a.38.38,0,0,0-.39-.19l-.08,0a.55.55,0,0,0-.35.46s-.07.22-.33.41l-5.76,4.39-.89.68L221,288.61l-.89.68-21.66,16.52a2.27,2.27,0,0,1-1,.42h-.09a1.32,1.32,0,0,1-.71-.07l-57.37-27.72a.37.37,0,0,1-.15-.12.37.37,0,0,0-.38-.18" style="fill: #3f4563"/>
                  </g>
                </g>
              </g>
              <g style="isolation: isolate">
                <g style="clip-path: url(#clip-path-2)">
                  <g>
                    <path d="M201.53,292.13l12,8.36-4.19,2.21-12-8.36,4.19-2.2m20,6.41a.36.36,0,0,0,.38-.2.54.54,0,0,0-.2-.67h0a.47.47,0,0,0-.22-.08.36.36,0,0,0-.37.2.53.53,0,0,0,.2.66l0,0a.5.5,0,0,0,.23.09m-2.16-1.49a.36.36,0,0,0,.37-.2.53.53,0,0,0-.2-.66l-1.43-1a.48.48,0,0,0-.22-.08.38.38,0,0,0-.38.2.55.55,0,0,0,.2.67l1.43,1a.48.48,0,0,0,.22.08m-3.56-2.44a.36.36,0,0,0,.38-.2.54.54,0,0,0-.2-.67l-1.42-1a.5.5,0,0,0-.23-.09.36.36,0,0,0-.38.2.54.54,0,0,0,.2.66l1.42,1a.5.5,0,0,0,.23.09m-6.38,9.1a.37.37,0,0,0,.22,0l5.06-2.66a.4.4,0,0,0,.2-.39.56.56,0,0,0-.25-.43l-12.94-9a.48.48,0,0,0-.22-.09.37.37,0,0,0-.22,0l-5.06,2.66a.41.41,0,0,0-.2.39.6.6,0,0,0,.25.44l12.94,9a.48.48,0,0,0,.22.09m2.82-11.55a.36.36,0,0,0,.38-.2.54.54,0,0,0-.2-.66l-1.42-1a.5.5,0,0,0-.23-.09.36.36,0,0,0-.38.2.54.54,0,0,0,.2.67l1.42,1a.5.5,0,0,0,.23.09m-28.39-6.35a.36.36,0,0,0,.37-.2.53.53,0,0,0-.2-.67l-1.41-1a.5.5,0,0,0-.23-.09.37.37,0,0,0-.37.19.53.53,0,0,0,.2.67l1.41,1a.49.49,0,0,0,.23.09m-3.55-2.48a.36.36,0,0,0,.38-.2.52.52,0,0,0-.2-.66l-1.41-1a.49.49,0,0,0-.23-.09.36.36,0,0,0-.37.2.53.53,0,0,0,.2.67l1.41,1a.5.5,0,0,0,.23.09m-3.54-2.48a.37.37,0,0,0,.37-.2.53.53,0,0,0-.2-.67l-1.41-1a.5.5,0,0,0-.23-.09.37.37,0,0,0-.37.19.53.53,0,0,0,.2.67l1.41,1a.48.48,0,0,0,.23.09m-3.54-2.48a.36.36,0,0,0,.38-.2.52.52,0,0,0-.2-.66l-1.41-1a.49.49,0,0,0-.23-.09.36.36,0,0,0-.37.2.53.53,0,0,0,.2.67l1.41,1a.5.5,0,0,0,.23.09m-3.54-2.48a.37.37,0,0,0,.37-.2.53.53,0,0,0-.2-.67l-1.41-1a.5.5,0,0,0-.23-.09.37.37,0,0,0-.37.19.53.53,0,0,0,.2.67l1.41,1a.48.48,0,0,0,.23.09m-3.54-2.48a.36.36,0,0,0,.38-.2.52.52,0,0,0-.2-.66l-1.41-1a.49.49,0,0,0-.23-.09.36.36,0,0,0-.37.2.53.53,0,0,0,.2.67l1.41,1a.5.5,0,0,0,.23.09M162.59,271a.36.36,0,0,0,.37-.2.53.53,0,0,0-.2-.67l-1.41-1a.5.5,0,0,0-.23-.09.37.37,0,0,0-.37.19.53.53,0,0,0,.2.67l1.41,1a.49.49,0,0,0,.23.09M159,268.47a.36.36,0,0,0,.38-.2.52.52,0,0,0-.2-.66l-.77-.55a.47.47,0,0,0-.22-.08.38.38,0,0,0-.38.2.55.55,0,0,0,.2.67l.77.54a.5.5,0,0,0,.23.09m34.9,17.89a.37.37,0,0,0,.37-.19.53.53,0,0,0-.2-.67l-30.36-21.22a.47.47,0,0,0-.23-.09.37.37,0,0,0-.37.2.55.55,0,0,0,.2.67l30.35,21.22a.5.5,0,0,0,.23.09m-23.78-31L231,297.68l-21,11a1.86,1.86,0,0,1-1,.17h-.09a1.6,1.6,0,0,1-.72-.25l-59.58-41.47c-.17-.13-.17-.18-.18-.21l0-.12a.67.67,0,0,1,.26-.22l21.44-11.28m4.5-2.37,60.82,42.33-3.63,1.91L171,254.9l1.27-.67,2.36-1.24m7.05-3.32a1.75,1.75,0,0,1,.77.25l59.58,41.47c.17.13.17.19.17.21l0,.12a.54.54,0,0,1-.14.15l-.13.08-5.58,2.94-60.82-42.33,5.15-2.71a1.92,1.92,0,0,1,1-.16" style="fill: #fff"/>
                    <path d="M242.06,291.85l-.13.08.13-.08M170.59,254l-.7.37a.4.4,0,0,0-.2.39.58.58,0,0,0,.25.43l.23.16-21.44,11.28a.67.67,0,0,0-.26.22l0,.12s0,.08.18.21a.41.41,0,0,1-.16-.15.54.54,0,0,0-.4-.27.37.37,0,0,0-.37.2l-.09.19a1.14,1.14,0,0,1,0-.26,1.07,1.07,0,0,1,.19-.67,1.44,1.44,0,0,1,.53-.45L170.59,254m4.07-1h0l-2.36,1.24,2.36-1.24m7-4.27a2.62,2.62,0,0,1,1.22.43l59.58,41.47a1.44,1.44,0,0,1,.66,1l-.07-.12a.52.52,0,0,0-.4-.28h-.08a.38.38,0,0,0-.33.37.2.2,0,0,1,0,.1l0-.12s0-.08-.17-.21l-59.58-41.47a1.75,1.75,0,0,0-.77-.25,1.92,1.92,0,0,0-1,.16l-5.15,2.71-.69-.48a.51.51,0,0,0-.23-.09.38.38,0,0,0-.2,0l5.78-3a2.65,2.65,0,0,1,1.48-.24" style="fill: #3f4563"/>
                    <path d="M174.61,252a.51.51,0,0,1,.23.09l.69.48,60.82,42.33-.86.45L174.67,253h0l-2.36,1.24-1.27.67,60.82,42.33-.86.45-60.82-42.33-.23-.16a.58.58,0,0,1-.25-.43.4.4,0,0,1,.2-.39l.7-.37,3.79-2h0a.38.38,0,0,1,.2,0" style="fill: #3f4563"/>
                    <path d="M209.37,303.24l-.24-.43.24.43m0-.55,4.19-2.21-12-8.36-4.19,2.2,12,8.36m-7.88-11.59a.48.48,0,0,1,.22.09l12.94,9a.56.56,0,0,1,.25.43.4.4,0,0,1-.2.39l-5.06,2.66a.37.37,0,0,1-.22,0,.48.48,0,0,1-.22-.09l-12.94-9a.6.6,0,0,1-.25-.44.41.41,0,0,1,.2-.39l5.06-2.66a.37.37,0,0,1,.22,0" style="fill: #3f4563"/>
                    <path d="M221.42,297.58a.47.47,0,0,1,.22.08h0a.54.54,0,0,1,.2.67.36.36,0,0,1-.38.2.5.5,0,0,1-.23-.09l0,0a.53.53,0,0,1-.2-.66.36.36,0,0,1,.37-.2m-3.56-2.45a.48.48,0,0,1,.22.08l1.43,1a.53.53,0,0,1,.2.66.36.36,0,0,1-.37.2.48.48,0,0,1-.22-.08l-1.43-1a.55.55,0,0,1-.2-.67.38.38,0,0,1,.38-.2m-3.56-2.44a.5.5,0,0,1,.23.09l1.42,1a.54.54,0,0,1,.2.67.36.36,0,0,1-.38.2.5.5,0,0,1-.23-.09l-1.42-1a.54.54,0,0,1-.2-.66.36.36,0,0,1,.38-.2m-3.55-2.45a.5.5,0,0,1,.23.09l1.42,1a.54.54,0,0,1,.2.66.36.36,0,0,1-.38.2.5.5,0,0,1-.23-.09l-1.42-1a.54.54,0,0,1-.2-.67.36.36,0,0,1,.38-.2" style="fill: #3f4563"/>
                    <path d="M163.54,264.19a.47.47,0,0,1,.23.09l30.36,21.22a.53.53,0,0,1,.2.67.37.37,0,0,1-.37.19.5.5,0,0,1-.23-.09l-30.35-21.22a.55.55,0,0,1-.2-.67.37.37,0,0,1,.37-.2" style="fill: #3f4563"/>
                    <path d="M182.37,283.87a.5.5,0,0,1,.23.09l1.41,1a.53.53,0,0,1,.2.67.36.36,0,0,1-.37.2.49.49,0,0,1-.23-.09l-1.41-1a.53.53,0,0,1-.2-.67.37.37,0,0,1,.37-.19m-3.55-2.48a.49.49,0,0,1,.23.09l1.41,1a.52.52,0,0,1,.2.66.36.36,0,0,1-.38.2.5.5,0,0,1-.23-.09l-1.41-1a.53.53,0,0,1-.2-.67.36.36,0,0,1,.37-.2m-3.54-2.47a.5.5,0,0,1,.23.09l1.41,1a.53.53,0,0,1,.2.67.37.37,0,0,1-.37.2.48.48,0,0,1-.23-.09l-1.41-1a.53.53,0,0,1-.2-.67.37.37,0,0,1,.37-.19m-3.55-2.48a.49.49,0,0,1,.23.09l1.41,1a.52.52,0,0,1,.2.66.36.36,0,0,1-.38.2.5.5,0,0,1-.23-.09l-1.41-1a.53.53,0,0,1-.2-.67.36.36,0,0,1,.37-.2M168.21,274a.5.5,0,0,1,.23.09l1.41,1a.53.53,0,0,1,.2.67.37.37,0,0,1-.37.2.48.48,0,0,1-.23-.09l-1.41-1a.53.53,0,0,1-.2-.67.37.37,0,0,1,.37-.19m-3.55-2.48a.49.49,0,0,1,.23.09l1.41,1a.52.52,0,0,1,.2.66.36.36,0,0,1-.38.2.5.5,0,0,1-.23-.09l-1.41-1a.53.53,0,0,1-.2-.67.36.36,0,0,1,.37-.2M161.12,269a.5.5,0,0,1,.23.09l1.41,1a.53.53,0,0,1,.2.67.36.36,0,0,1-.37.2.49.49,0,0,1-.23-.09l-1.41-1a.53.53,0,0,1-.2-.67.37.37,0,0,1,.37-.19m-2.89-2a.47.47,0,0,1,.22.08l.77.55a.52.52,0,0,1,.2.66.36.36,0,0,1-.38.2.5.5,0,0,1-.23-.09l-.77-.54a.55.55,0,0,1-.2-.67.38.38,0,0,1,.38-.2" style="fill: #3f4563"/>
                    <path d="M148.32,268.05l59.44,41.36a2.68,2.68,0,0,0,1.22.43,2.71,2.71,0,0,0,1.48-.24l32-16.8,0,0,0,1.06,0,.06a2,2,0,0,1-.34.21l-31.95,16.8a2,2,0,0,1-1,.16,1.72,1.72,0,0,1-.77-.26l-59.58-41.46a.48.48,0,0,1-.16-.16.6.6,0,0,0-.13-.15l-.1-1" style="fill: #fff"/>
                    <path d="M209,309.85a2.68,2.68,0,0,1-1.22-.43l-59.44-41.36.1,1a.6.6,0,0,1,.13.15.48.48,0,0,0,.16.16l59.58,41.46a1.72,1.72,0,0,0,.77.26,2,2,0,0,0,1-.16L242,294.12a2,2,0,0,0,.34-.21l0-.06,0-1.06,0,0-32,16.8a2.71,2.71,0,0,1-1.48.24m-61-43.1a.54.54,0,0,1,.4.27.41.41,0,0,0,.16.15l59.58,41.47a1.6,1.6,0,0,0,.72.25H209a1.86,1.86,0,0,0,1-.17l21-11,.86-.45,3.63-1.91.86-.45,5.58-2.94.13-.08a.54.54,0,0,0,.14-.15.2.2,0,0,0,0-.1.38.38,0,0,1,.33-.37h.08a.52.52,0,0,1,.4.28l.07.12.16.28a.54.54,0,0,1,.07.27l0,1.8a.51.51,0,0,1,0,.15.87.87,0,0,1-.33.55,2.56,2.56,0,0,1-.46.3l-32,16.8a2.63,2.63,0,0,1-1.48.24,2.59,2.59,0,0,1-1.22-.43L148.3,270.14a1.74,1.74,0,0,1-.5-.53l0-.07a.56.56,0,0,1-.22-.4l-.14-1.5a.42.42,0,0,1,0-.25l.12-.25.09-.19a.37.37,0,0,1,.37-.2" style="fill: #3f4563"/>
                  </g>
                </g>
              </g>
              <g style="isolation: isolate">
                <g style="clip-path: url(#clip-path-3)">
                  <g style="clip-path: url(#clip-path-4)">
                    <path d="M175.55,294l4.41,2.39-12.54,9L163,302.92l12.54-9m-19.94,5.39h0l-.22.08-.71.5a.57.57,0,0,0-.24.45.48.48,0,0,0,0,.22l.06.09a.34.34,0,0,0,.26.11h0l.22-.09.72-.5a.56.56,0,0,0,.23-.44.43.43,0,0,0-.05-.21.34.34,0,0,0-.31-.2m3.46-2.45h0l-.22.08-1.38,1a.58.58,0,0,0-.25.45.49.49,0,0,0,0,.23l.06.08a.35.35,0,0,0,.26.11h0l.23-.08,1.39-1a.55.55,0,0,0,.24-.44.48.48,0,0,0,0-.22.36.36,0,0,0-.32-.2h0m3.47-2.44h0l-.22.08-1.38,1a.58.58,0,0,0-.25.45.49.49,0,0,0,0,.23l.06.09a.35.35,0,0,0,.26.11h0l.22-.09,1.39-1a.57.57,0,0,0,.24-.44.45.45,0,0,0,0-.21.35.35,0,0,0-.32-.2m18.73,1.74a.41.41,0,0,0-.19-.39L175.82,293l-.22,0-.22.08-13.44,9.6a.57.57,0,0,0-.24.43.4.4,0,0,0,.19.39l5.25,2.84.22,0,.22-.08,13.44-9.6a.57.57,0,0,0,.24-.44M166,292h0l-.22.08-1.39,1a.59.59,0,0,0-.24.45.46.46,0,0,0,0,.22l.06.09a.35.35,0,0,0,.26.11h0l.22-.09,1.39-1a.59.59,0,0,0,.24-.45.46.46,0,0,0,0-.22.35.35,0,0,0-.32-.2h0m29.4-6.73h0l-.22.09-1.39,1a.61.61,0,0,0-.24.45.44.44,0,0,0,0,.21.41.41,0,0,0,.1.12.35.35,0,0,0,.22.08h0l.22-.09,1.38-1a.58.58,0,0,0,.25-.45.46.46,0,0,0,0-.22.37.37,0,0,0-.32-.2h0m3.46-2.47h0l-.23.09-1.38,1a.59.59,0,0,0-.24.45.46.46,0,0,0,0,.22.35.35,0,0,0,.1.12.37.37,0,0,0,.23.08h0l.23-.09,1.38-1a.59.59,0,0,0,.24-.45.45.45,0,0,0,0-.21.34.34,0,0,0-.31-.2m3.45-2.48h0l-.22.08-1.39,1a.59.59,0,0,0-.24.45.46.46,0,0,0,0,.22l.06.09a.34.34,0,0,0,.26.11h0l.23-.1,1.38-1a.57.57,0,0,0,.25-.44.46.46,0,0,0,0-.22.37.37,0,0,0-.32-.19h0m3.44-2.48h0l-.23.1-1.39,1a.56.56,0,0,0-.23.44.48.48,0,0,0,0,.22l.06.08a.34.34,0,0,0,.25.11h0l.22-.08,1.38-1a.61.61,0,0,0,.25-.46.46.46,0,0,0,0-.22.36.36,0,0,0-.33-.2h0m3.44-2.47h0l-.21.09-1.39,1a.61.61,0,0,0-.24.45.44.44,0,0,0,0,.21l.06.09a.34.34,0,0,0,.26.11h0l.23-.09,1.38-1a.57.57,0,0,0,.24-.45.45.45,0,0,0,0-.22l-.06-.08h0a.38.38,0,0,0-.28-.11h0m3.47-2.48h0l-.22.09L211,274a.59.59,0,0,0-.24.45.46.46,0,0,0,0,.22.35.35,0,0,0,.14.15.36.36,0,0,0,.19.05h0l.22-.09,1.38-1a.59.59,0,0,0,.25-.45.44.44,0,0,0,0-.22.37.37,0,0,0-.32-.2h0m3.45-2.47h0l-.22.09-1.39,1a.58.58,0,0,0-.23.45.46.46,0,0,0,0,.22l.06.09a.34.34,0,0,0,.26.11h0l.23-.09,1.38-1a.57.57,0,0,0,.24-.45.5.5,0,0,0,0-.23.36.36,0,0,0-.32-.19m3.45-2.47h0l-.22.09-1.39,1a.59.59,0,0,0-.24.45.46.46,0,0,0,0,.22.33.33,0,0,0,.22.18h.15l.22-.08,1.38-1a.61.61,0,0,0,.25-.45.43.43,0,0,0,0-.21.37.37,0,0,0-.32-.2h0m-4.5-3.71H215l-.21.08-31.54,22.63a.61.61,0,0,0-.25.46.46.46,0,0,0,0,.22.37.37,0,0,0,.29.2h.08l.22-.1,31.55-22.63a.59.59,0,0,0,.24-.45.46.46,0,0,0,0-.22l-.06-.08h0a.36.36,0,0,0-.26-.1m-6.93-9.49,22.29,12a.76.76,0,0,1,.29.23l0,.15,0,.07-.05.07-.13.11-61.89,44.21a1.7,1.7,0,0,1-.82.29h-.24a1.86,1.86,0,0,1-.86-.19l-21.88-11.81,63.26-45.18m-4.67-2.53,3.83,2.07L144,299.47l-3.83-2.06,63.25-45.19m-7.09-3.55a2.06,2.06,0,0,1,.68.11l.19.08,5.38,2.91L139.35,297l-5.81-3.14a.72.72,0,0,1-.29-.26l0-.11v0s0-.11.19-.24L195.31,249a1.83,1.83,0,0,1,.82-.28h.23" style="fill: #fff"/>
                    <path d="M206.35,252.65l24.55,13.26a1.48,1.48,0,0,1,.54.47,1.11,1.11,0,0,1,.18.7,1,1,0,0,1,0,.28l-.09-.19a.36.36,0,0,0-.32-.2h0a.52.52,0,0,0-.39.27l0-.07,0-.15a.76.76,0,0,0-.29-.23l-22.29-12,.23-.16a.6.6,0,0,0,.24-.43.4.4,0,0,0-.19-.39l-2.05-1.12m-2.89-.43,3.83,2.07-3.83-2.07m-6.91-4.5a2.43,2.43,0,0,1,1.16.27l6,3.24-.21,0-.22.08-.68.49-5.38-2.91-.19-.08a2.06,2.06,0,0,0-.68-.11h-.23a1.83,1.83,0,0,0-.82.28l-61.9,44.21c-.17.14-.18.2-.19.24a.38.38,0,0,0-.33-.33h-.09a.53.53,0,0,0-.39.29l-.06.12a1.55,1.55,0,0,1,.68-1.08l61.89-44.21a2.62,2.62,0,0,1,1.26-.45l.36,0" style="fill: #3f4563"/>
                    <path d="M207.29,254.29l-3.83-2.07L140.2,297.41l3.83,2.06,63.25-45.18m-3.78-3.09.21,0h0l2.62,1.41,2.05,1.12a.4.4,0,0,1,.19.39.6.6,0,0,1-.24.43l-.23.16-63.26,45.18-.62-.33L139.35,297l63.26-45.19.68-.49.22-.08" style="fill: #3f4563"/>
                    <path d="M167.4,305.85l.24-.43-.24.43m12.57-9.5L175.55,294l-12.54,9,4.41,2.38,12.54-9m-4.36-3.4.22,0,5.25,2.84a.41.41,0,0,1,.19.39.57.57,0,0,1-.24.44l-13.44,9.6-.22.08-.22,0-5.25-2.84a.4.4,0,0,1-.19-.39.57.57,0,0,1,.24-.43l13.44-9.6.22-.08" style="fill: #3f4563"/>
                    <path d="M155.61,299.35a.34.34,0,0,1,.31.2.43.43,0,0,1,.05.21.56.56,0,0,1-.23.44l-.72.5-.22.09h0a.34.34,0,0,1-.26-.11l-.06-.09a.48.48,0,0,1,0-.22.57.57,0,0,1,.24-.45l.71-.5.22-.08h0m3.46-2.45a.36.36,0,0,1,.32.2.48.48,0,0,1,0,.22.55.55,0,0,1-.24.44l-1.39,1-.23.08h0a.35.35,0,0,1-.26-.11l-.06-.08a.49.49,0,0,1,0-.23.58.58,0,0,1,.25-.45l1.38-1,.22-.08h0m3.47-2.44a.35.35,0,0,1,.32.2.45.45,0,0,1,0,.21.57.57,0,0,1-.24.44l-1.39,1-.22.09h0a.35.35,0,0,1-.26-.11l-.06-.09a.49.49,0,0,1,0-.23.58.58,0,0,1,.25-.45l1.38-1,.22-.08h0M166,292a.35.35,0,0,1,.32.2.46.46,0,0,1,0,.22.59.59,0,0,1-.24.45l-1.39,1-.22.09h0a.35.35,0,0,1-.26-.11l-.06-.09a.46.46,0,0,1,0-.22.59.59,0,0,1,.24-.45l1.39-1L166,292h0" style="fill: #3f4563"/>
                    <path d="M215.06,264.24a.36.36,0,0,1,.26.1h0l.06.08a.46.46,0,0,1,0,.22.59.59,0,0,1-.24.45l-31.55,22.63-.22.1h-.08a.37.37,0,0,1-.29-.2.46.46,0,0,1,0-.22.61.61,0,0,1,.25-.46l31.54-22.63.21-.08h.05" style="fill: #3f4563"/>
                    <path d="M195.41,285.28a.37.37,0,0,1,.32.2.46.46,0,0,1,0,.22.58.58,0,0,1-.25.45l-1.38,1-.22.09h0a.35.35,0,0,1-.22-.08.41.41,0,0,1-.1-.12.44.44,0,0,1,0-.21.61.61,0,0,1,.24-.45l1.39-1,.22-.09h0m3.46-2.47a.34.34,0,0,1,.31.2.45.45,0,0,1,0,.21.59.59,0,0,1-.24.45l-1.38,1-.23.09h0a.37.37,0,0,1-.23-.08.35.35,0,0,1-.1-.12.46.46,0,0,1,0-.22.59.59,0,0,1,.24-.45l1.38-1,.23-.09h0m3.45-2.48a.37.37,0,0,1,.32.19.46.46,0,0,1,0,.22.57.57,0,0,1-.25.44l-1.38,1-.23.1h0a.34.34,0,0,1-.26-.11l-.06-.09a.46.46,0,0,1,0-.22.59.59,0,0,1,.24-.45l1.39-1,.22-.08h0m3.44-2.48h0a.36.36,0,0,1,.33.2.46.46,0,0,1,0,.22.61.61,0,0,1-.25.46l-1.38,1-.22.08h0a.34.34,0,0,1-.25-.11l-.06-.08a.48.48,0,0,1,0-.22.56.56,0,0,1,.23-.44l1.39-1,.23-.1h0m3.44-2.47h0a.38.38,0,0,1,.28.11h0l.06.08a.45.45,0,0,1,0,.22.57.57,0,0,1-.24.45l-1.38,1-.23.09h0a.34.34,0,0,1-.26-.11l-.06-.09a.44.44,0,0,1,0-.21.61.61,0,0,1,.24-.45l1.39-1,.21-.09h0m3.47-2.48a.37.37,0,0,1,.32.2.44.44,0,0,1,0,.22.59.59,0,0,1-.25.45l-1.38,1-.22.09h0a.36.36,0,0,1-.19-.05.35.35,0,0,1-.14-.15.46.46,0,0,1,0-.22A.59.59,0,0,1,211,274l1.39-1,.22-.09h0m3.45-2.47a.36.36,0,0,1,.32.19.5.5,0,0,1,0,.23.57.57,0,0,1-.24.45l-1.38,1-.23.09h0a.34.34,0,0,1-.26-.11l-.06-.09a.46.46,0,0,1,0-.22.58.58,0,0,1,.23-.45l1.39-1,.22-.09h0m3.45-2.47a.37.37,0,0,1,.32.2.43.43,0,0,1,0,.21.61.61,0,0,1-.25.45l-1.38,1-.22.08h-.15a.33.33,0,0,1-.22-.18.46.46,0,0,1,0-.22.59.59,0,0,1,.24-.45l1.39-1,.22-.09h0" style="fill: #3f4563"/>
                    <path d="M230.86,268.26l-.11,1.14-.14.17a.73.73,0,0,1-.18.17L168.54,314a1.79,1.79,0,0,1-.82.27h-.25a1.85,1.85,0,0,1-.84-.19l-33.2-17.92a2.08,2.08,0,0,1-.35-.23l-.06-.07,0-1.21.07,0,33.2,17.92a2.5,2.5,0,0,0,.87.26l.31,0h0l.35,0a2.59,2.59,0,0,0,1.25-.45l61.82-44.15" style="fill: #fff"/>
                    <path d="M230.86,268.26,169,312.41a2.59,2.59,0,0,1-1.25.45l-.35,0h0l-.31,0a2.5,2.5,0,0,1-.87-.26l-33.2-17.92-.07,0,0,1.21.06.07a2.08,2.08,0,0,0,.35.23l33.2,17.92a1.85,1.85,0,0,0,.84.19h.25a1.79,1.79,0,0,0,.82-.27l61.89-44.23a.73.73,0,0,0,.18-.17l.14-.17.11-1.14m.31-1.29a.36.36,0,0,1,.32.2l.09.19.13.28,0,.24-.15,1.61a.62.62,0,0,1-.24.41l0,.06a1.61,1.61,0,0,1-.51.56l-61.9,44.22a2.66,2.66,0,0,1-1.17.44h-.42a2.53,2.53,0,0,1-1.19-.28L132.94,297a2.55,2.55,0,0,1-.47-.31.88.88,0,0,1-.33-.58V296l0-1.92a.66.66,0,0,1,.07-.28l.17-.3.06-.12a.53.53,0,0,1,.39-.29h.09a.38.38,0,0,1,.33.33v0l0,.11a.72.72,0,0,0,.29.26l5.81,3.14,4.89,2.64.62.33,21.88,11.81a1.86,1.86,0,0,0,.86.19h.24a1.7,1.7,0,0,0,.82-.29l61.89-44.21.13-.11.05-.07a.52.52,0,0,1,.39-.27h0" style="fill: #3f4563"/>
                  </g>
                </g>
              </g>
              <g style="isolation: isolate">
                <g style="clip-path: url(#clip-path-5)">
                  <g style="clip-path: url(#clip-path-6)">
                    <path d="M198.93,241.51l-4.28,2,9.57,4.09,4.28-2-9.57-4.09m17.34,1.1h0l.19,0h0a.23.23,0,0,1,.15.27.37.37,0,0,1-.08.16.62.62,0,0,1-.22.14l-.15,0h0l-.18,0h0a.22.22,0,0,1-.15-.27.35.35,0,0,1,.08-.16.56.56,0,0,1,.34-.18m-2.83-1.18h0l.18,0,1.14.48a.23.23,0,0,1,.15.27.34.34,0,0,1-.09.15.52.52,0,0,1-.16.12.6.6,0,0,1-.19.06h0l-.18,0-1.15-.47a.24.24,0,0,1-.14-.3.36.36,0,0,1,.07-.12.62.62,0,0,1,.35-.18h0m-2.85-1.19h0l.19,0,1.14.47a.23.23,0,0,1,.15.27.35.35,0,0,1-.08.15.59.59,0,0,1-.21.14l-.14,0h0l-.18,0-1.14-.48a.23.23,0,0,1-.15-.27.35.35,0,0,1,.08-.15.58.58,0,0,1,.34-.18h0m-17.17,3.4a.45.45,0,0,1,.26-.29l5.16-2.45.21-.05.19,0,10.32,4.39a.22.22,0,0,1,.15.26.45.45,0,0,1-.26.29l-5.15,2.45-.21.05-.19,0-10.31-4.39a.22.22,0,0,1-.15-.26M207.76,239h0l.19,0,1.14.47a.24.24,0,0,1,.15.27.33.33,0,0,1-.08.15.58.58,0,0,1-.36.19h0l-.19,0-1.14-.47a.23.23,0,0,1-.15-.27.35.35,0,0,1,.08-.15.6.6,0,0,1,.36-.19h0m-25.09-.6h0l.19,0,1.13.48a.22.22,0,0,1,.15.27.37.37,0,0,1-.09.16l-.11.09a.62.62,0,0,1-.23.08h0l-.19,0-1.13-.48a.22.22,0,0,1-.15-.27.36.36,0,0,1,.09-.16.58.58,0,0,1,.34-.17m-2.81-1.22h0l.2,0,1.13.48a.23.23,0,0,1,.14.27.35.35,0,0,1-.09.15l-.07.07a.57.57,0,0,1-.27.11h0l-.2,0-1.13-.48a.23.23,0,0,1-.14-.27.34.34,0,0,1,.09-.15.56.56,0,0,1,.35-.18M177,236h0l.19,0,1.13.48a.22.22,0,0,1,.15.27.36.36,0,0,1-.09.15.52.52,0,0,1-.21.14l-.15,0h0l-.19,0-1.13-.48a.22.22,0,0,1-.15-.27.36.36,0,0,1,.09-.15A.58.58,0,0,1,177,236m-2.82-1.21h0l.19,0,1.13.48a.23.23,0,0,1,.15.27.34.34,0,0,1-.09.15.56.56,0,0,1-.35.18h0l-.2,0-1.13-.48a.22.22,0,0,1-.15-.27.34.34,0,0,1,.09-.15.56.56,0,0,1,.34-.18m-2.82-1.21h0l.19,0,1.13.48a.22.22,0,0,1,.15.27.36.36,0,0,1-.09.16l-.07.06a.59.59,0,0,1-.26.11h0l-.2,0-1.13-.48a.22.22,0,0,1-.14-.27.37.37,0,0,1,.09-.15.56.56,0,0,1,.34-.18h0m-2.8-1.22h0l.19,0,1.13.48a.23.23,0,0,1,.15.27.34.34,0,0,1-.09.15l-.07.07a.57.57,0,0,1-.27.11h0l-.2,0-1.13-.48a.22.22,0,0,1-.15-.27.34.34,0,0,1,.09-.15.58.58,0,0,1,.36-.19m-2.85-1.2h0l.2,0,1.13.48a.22.22,0,0,1,.14.27.37.37,0,0,1-.09.15l-.07.07a.57.57,0,0,1-.27.11h0l-.19,0-1.13-.48a.22.22,0,0,1-.15-.27.36.36,0,0,1,.09-.15l.11-.09a.57.57,0,0,1,.22-.08m-2.3-1h0l.18,0,.62.26a.22.22,0,0,1,.15.27.36.36,0,0,1-.09.15l-.07.07a.57.57,0,0,1-.27.11h0l-.2,0-.62-.26a.22.22,0,0,1-.14-.27.38.38,0,0,1,.09-.16.59.59,0,0,1,.34-.17h0m5.42-2.57h0l.19,0L193.29,238a.22.22,0,0,1,.15.27.36.36,0,0,1-.09.15.52.52,0,0,1-.24.15l-.1,0h0l-.19,0L168.58,228.2a.23.23,0,0,1-.15-.27.34.34,0,0,1,.08-.15.6.6,0,0,1,.34-.18m7.78-6.83-21.88,10.39a1.17,1.17,0,0,0-.28.18l-.07.09s0,.05.13.12l47.52,20.24a1.35,1.35,0,0,0,.62.08h.07l.19,0a2.68,2.68,0,0,0,.78-.23l21.43-10.18-48.51-20.66m4.59-2.18-2.41,1.14-1.3.62L226,241l3.7-1.76-48.5-20.66m6.92-3.14-.32.06a2.34,2.34,0,0,0-.47.16l-5.25,2.5,48.51,20.66,5.69-2.7.13-.06.16-.12.05-.08h0s0-.05-.12-.11L189,215.5a1.78,1.78,0,0,0-.67-.07l-.21,0" style="fill: #fff"/>
                    <path d="M176.52,220.16l-22.05,10.48a2,2,0,0,0-.57.37.92.92,0,0,0-.3.48v.17l.13-.14a.57.57,0,0,1,.34-.18h.06a.32.32,0,0,1,.3.13s0,.05.12.08c-.14-.06-.13-.1-.13-.12l.07-.09a1.17,1.17,0,0,1,.28-.18l21.88-10.39-.19-.08a.23.23,0,0,1-.15-.26.43.43,0,0,1,.22-.27m4.71-1.58-2.41,1.14,2.41-1.14m7-3.76a3.89,3.89,0,0,0-1.12.33l-5.89,2.8.19,0,.2,0,.55.24,5.25-2.5a2.34,2.34,0,0,1,.47-.16l.32-.06.21,0a1.78,1.78,0,0,1,.67.07l47.51,20.24c.13.06.13.1.12.11h0l-.05.08.05-.07a.53.53,0,0,1,.38-.29h.09a.29.29,0,0,1,.31.14l0,.07a.58.58,0,0,0-.42-.61l-47.52-20.24a2.24,2.24,0,0,0-.9-.14l-.3,0-.14,0" style="fill: #3f4563"/>
                    <path d="M181.36,217.91l-.19,0h0l-3.87,1.84-.72.34,0,0a.43.43,0,0,0-.22.27.23.23,0,0,0,.15.26l.19.08,48.51,20.66L226,241l-48.51-20.66,1.3-.62,2.41-1.14,48.5,20.66.89-.42-48.51-20.66-.55-.24-.2,0" style="fill: #3f4563"/>
                    <path d="M204.15,248l-.15-.26.15.26m-9.5-4.45,4.28-2,9.57,4.09-4.28,2-9.57-4.09m4.41-2.71-.21.05-5.16,2.45a.45.45,0,0,0-.26.29.22.22,0,0,0,.15.26l10.31,4.39.19,0,.21-.05,5.15-2.45a.45.45,0,0,0,.26-.29.22.22,0,0,0-.15-.26l-10.32-4.39-.19,0" style="fill: #3f4563"/>
                    <path d="M216.27,242.6a.56.56,0,0,0-.34.18.35.35,0,0,0-.08.16.22.22,0,0,0,.15.27h0l.18,0h0l.15,0a.62.62,0,0,0,.22-.14.37.37,0,0,0,.08-.16.23.23,0,0,0-.15-.27h0l-.19,0h0m-2.83-1.18a.62.62,0,0,0-.35.18.36.36,0,0,0-.07.12.24.24,0,0,0,.14.3l1.15.47.18,0h0a.6.6,0,0,0,.19-.06.52.52,0,0,0,.16-.12.34.34,0,0,0,.09-.15.23.23,0,0,0-.15-.27l-1.14-.48-.18,0h0m-2.85-1.19a.58.58,0,0,0-.34.18.35.35,0,0,0-.08.15.23.23,0,0,0,.15.27l1.14.48.18,0h0l.14,0a.59.59,0,0,0,.21-.14.35.35,0,0,0,.08-.15.23.23,0,0,0-.15-.27l-1.14-.47-.19,0h0M207.76,239a.6.6,0,0,0-.36.19.35.35,0,0,0-.08.15.23.23,0,0,0,.15.27l1.14.47.19,0h0a.58.58,0,0,0,.36-.19.33.33,0,0,0,.08-.15.24.24,0,0,0-.15-.27l-1.14-.47-.19,0h0" style="fill: #3f4563"/>
                    <path d="M168.86,227.6a.6.6,0,0,0-.34.18.34.34,0,0,0-.08.15.23.23,0,0,0,.15.27l24.19,10.38.19,0h0l.1,0a.52.52,0,0,0,.24-.15.36.36,0,0,0,.09-.15.22.22,0,0,0-.15-.27l-24.19-10.38-.19,0h0" style="fill: #3f4563"/>
                    <path d="M182.67,238.43a.58.58,0,0,0-.34.17.36.36,0,0,0-.09.16.22.22,0,0,0,.15.27l1.13.48.19,0h0a.62.62,0,0,0,.23-.08l.11-.09a.37.37,0,0,0,.09-.16.22.22,0,0,0-.15-.27l-1.13-.48-.19,0h0m-2.81-1.22a.56.56,0,0,0-.35.18.34.34,0,0,0-.09.15.23.23,0,0,0,.14.27l1.13.48.2,0h0a.57.57,0,0,0,.27-.11l.07-.07a.35.35,0,0,0,.09-.15.23.23,0,0,0-.14-.27l-1.13-.48-.2,0h0M177,236a.58.58,0,0,0-.34.18.36.36,0,0,0-.09.15.22.22,0,0,0,.15.27l1.13.48.19,0h0l.15,0a.52.52,0,0,0,.21-.14.36.36,0,0,0,.09-.15.22.22,0,0,0-.15-.27l-1.13-.48-.19,0h0m-2.82-1.21a.56.56,0,0,0-.34.18.34.34,0,0,0-.09.15.22.22,0,0,0,.15.27l1.13.48.2,0h0a.56.56,0,0,0,.35-.18.34.34,0,0,0,.09-.15.23.23,0,0,0-.15-.27l-1.13-.48-.19,0h0m-2.82-1.21a.56.56,0,0,0-.34.18.37.37,0,0,0-.09.15.22.22,0,0,0,.14.27l1.13.48.2,0h0a.59.59,0,0,0,.26-.11l.07-.06a.36.36,0,0,0,.09-.16.22.22,0,0,0-.15-.27l-1.13-.48-.19,0h0m-2.8-1.22a.58.58,0,0,0-.36.19.34.34,0,0,0-.09.15.22.22,0,0,0,.15.27l1.13.48.2,0h0a.57.57,0,0,0,.27-.11l.07-.07a.34.34,0,0,0,.09-.15.23.23,0,0,0-.15-.27l-1.13-.48-.19,0h0m-2.85-1.2a.57.57,0,0,0-.22.08l-.11.09a.36.36,0,0,0-.09.15.22.22,0,0,0,.15.27l1.13.48.19,0h0a.57.57,0,0,0,.27-.11l.07-.07a.37.37,0,0,0,.09-.15.22.22,0,0,0-.14-.27l-1.13-.48-.2,0h0m-2.3-1a.59.59,0,0,0-.34.17.38.38,0,0,0-.09.16.22.22,0,0,0,.14.27l.62.26.2,0h0a.57.57,0,0,0,.27-.11l.07-.07a.36.36,0,0,0,.09-.15.22.22,0,0,0-.15-.27l-.62-.26-.18,0h0" style="fill: #3f4563"/>
                    <path d="M154.13,232.17l-.09.67.09.08s0,.05.12.09l47.52,20.24a1.61,1.61,0,0,0,.66.08h.19a2.85,2.85,0,0,0,.8-.23L236,237.58a2.94,2.94,0,0,0,.35-.18l.05,0,.21-.72,0,0L204,252.14l-.29.12a3.74,3.74,0,0,1-.52.15l-.29.05h0l-.31,0a2.5,2.5,0,0,1-1.05-.13l-47.41-20.2" style="fill: #fff"/>
                    <path d="M154.13,232.17l47.41,20.2a2.5,2.5,0,0,0,1.05.13l.31,0,.29-.05a3.74,3.74,0,0,0,.52-.15l.29-.12,32.61-15.49,0,0-.21.72-.05,0a2.94,2.94,0,0,1-.35.18l-32.6,15.49a2.85,2.85,0,0,1-.8.23h-.19a1.61,1.61,0,0,1-.66-.08L154.24,233c-.08,0-.11-.07-.12-.09l-.09-.08.09-.67m-.07-.83a.57.57,0,0,0-.34.18l-.13.14-.15.18-.09.17-.14,1a.21.21,0,0,0,.13.24v0a.75.75,0,0,0,.37.29l47.52,20.24a2.3,2.3,0,0,0,1.05.13l.3,0a3.89,3.89,0,0,0,1.11-.32l32.61-15.49a5.06,5.06,0,0,0,.48-.26,1.11,1.11,0,0,0,.41-.42l0-.1.34-1.17,0-.11a.22.22,0,0,0,0-.11l-.1-.17,0-.07a.29.29,0,0,0-.31-.14H237a.53.53,0,0,0-.38.29l-.05.07-.16.12-.13.06-5.69,2.7-.89.42L226,241l-.88.42-21.43,10.18a2.68,2.68,0,0,1-.78.23h0l-.19,0h-.07a1.35,1.35,0,0,1-.62-.08l-47.52-20.24c-.08,0-.11-.06-.12-.08a.32.32,0,0,0-.3-.13h-.06" style="fill: #3f4563"/>
                  </g>
                </g>
              </g>
              <g style="isolation: isolate">
                <g style="clip-path: url(#clip-path-7)">
                  <g style="clip-path: url(#clip-path-8)">
                    <path d="M149.08,220.43h0c.17,0,.27,0,.27.14a.21.21,0,0,1,0,.08l-1.74,3.47a.85.85,0,0,1-.56.37h0a.27.27,0,0,1-.19,0,.11.11,0,0,1,0-.11.22.22,0,0,1,0-.08l1.74-3.47a.89.89,0,0,1,.55-.38h0m1.93-.37c.16,0,.25,0,.25.14a.23.23,0,0,1,0,.08l-1.74,3.47a.91.91,0,0,1-.56.37h0c-.16,0-.25,0-.26-.11a.14.14,0,0,1,0,0,.24.24,0,0,1,0-.08l1.74-3.47a.84.84,0,0,1,.55-.37h0m1.89-.38h0c.17,0,.27,0,.26.14a.22.22,0,0,1,0,.08l-1.74,3.47a.83.83,0,0,1-.55.37h-.08c-.17,0-.25-.08-.18-.21l1.74-3.47a.85.85,0,0,1,.55-.38h0m1.92-.37h0c.15,0,.24,0,.25.12a.21.21,0,0,1,0,.1L153.3,223a.9.9,0,0,1-.56.37h-.06c-.13,0-.21,0-.22-.12a.21.21,0,0,1,0-.1l1.74-3.47a.84.84,0,0,1,.54-.37h0m1.91-.37h0c.15,0,.24,0,.24.11a.19.19,0,0,1,0,.1l-1.74,3.47a.87.87,0,0,1-.55.38h-.13c-.1,0-.15-.05-.15-.12a.2.2,0,0,1,0-.1l1.74-3.47a.82.82,0,0,1,.55-.37h0m1.89-.38a.35.35,0,0,1,.18,0,.11.11,0,0,1,.07.1.19.19,0,0,1,0,.08v0l-1.74,3.47a.82.82,0,0,1-.54.37h0a.43.43,0,0,1-.17,0,.12.12,0,0,1-.1-.13.24.24,0,0,1,0-.08l1.74-3.47a.86.86,0,0,1,.56-.37h0m1.93-.37h0c.14,0,.23,0,.24.11a.2.2,0,0,1,0,.1L159,221.87a.85.85,0,0,1-.54.38h0a.4.4,0,0,1-.17,0,.12.12,0,0,1-.1-.13.21.21,0,0,1,0-.08l1.74-3.47a.85.85,0,0,1,.56-.37h0m1.88-.37h0a.34.34,0,0,1,.2,0l0,0a.11.11,0,0,1,0,.07.13.13,0,0,1,0,0,.2.2,0,0,1,0,.05v0l-1.74,3.47a.88.88,0,0,1-.56.37h0c-.15,0-.25,0-.26-.11a.14.14,0,0,1,0,0,.23.23,0,0,1,0-.08l1.74-3.47a.91.91,0,0,1,.55-.37h0m1.93-.37c.16,0,.25,0,.25.13a.21.21,0,0,1,0,.08l-1.74,3.48a.91.91,0,0,1-.56.37h-.06c-.15,0-.23,0-.23-.14a.21.21,0,0,1,0-.08l1.75-3.47a.82.82,0,0,1,.55-.37h0m1.89-.38c.17,0,.27,0,.26.14a.22.22,0,0,1,0,.08l-1.74,3.47a.83.83,0,0,1-.55.37H164c-.09,0-.14-.05-.14-.12a.21.21,0,0,1,0-.1l1.74-3.47a.87.87,0,0,1,.55-.37h0m1.92-.37c.15,0,.24,0,.25.12a.21.21,0,0,1,0,.1l-1.74,3.47a.9.9,0,0,1-.56.37h0a.33.33,0,0,1-.18,0,.11.11,0,0,1-.07-.1.19.19,0,0,1,0-.1l1.74-3.47a.81.81,0,0,1,.54-.37h0m1.89-.38c.17,0,.27,0,.26.14a.22.22,0,0,1,0,.08L168.56,220a.83.83,0,0,1-.56.37h-.17a.12.12,0,0,1-.11-.12.22.22,0,0,1,0-.1l1.74-3.47a.87.87,0,0,1,.55-.37h0m1.93-.37h0c.14,0,.23,0,.24.12a.21.21,0,0,1,0,.1l-1.74,3.47a.87.87,0,0,1-.54.37h0c-.16,0-.26,0-.27-.11a.14.14,0,0,1,0,0,.22.22,0,0,1,0-.08l1.74-3.47a.86.86,0,0,1,.56-.37h0m1.88-.37h0c.17,0,.27,0,.26.14a.22.22,0,0,1,0,.08l-1.74,3.47a.82.82,0,0,1-.55.37h-.14c-.09,0-.14-.05-.14-.12a.21.21,0,0,1,0-.1l1.74-3.47a.89.89,0,0,1,.55-.37h0m1.93-.37c.16,0,.25,0,.25.14a.23.23,0,0,1,0,.08l-1.75,3.47a.88.88,0,0,1-.55.37h-.13c-.1,0-.16-.06-.15-.14a.22.22,0,0,1,0-.08l1.74-3.47a.86.86,0,0,1,.55-.37h0m1.89-.38h0c.17,0,.27,0,.26.14a.22.22,0,0,1,0,.08l-1.74,3.47a.83.83,0,0,1-.55.37h0a.32.32,0,0,1-.17,0,.11.11,0,0,1-.07-.12.21.21,0,0,1,0-.08l1.74-3.47a.89.89,0,0,1,.56-.38h0m1.93-.37c.14,0,.24,0,.24.12a.2.2,0,0,1,0,.1l-1.74,3.47a.91.91,0,0,1-.55.37h-.06c-.15,0-.23,0-.23-.14a.21.21,0,0,1,0-.08l1.75-3.47a.84.84,0,0,1,.55-.37h0m1.9-.37c.15,0,.24,0,.25.11a.19.19,0,0,1,0,.1L180,217.75a.83.83,0,0,1-.56.37h-.08c-.17,0-.25-.08-.17-.22l1.74-3.47a.81.81,0,0,1,.54-.37h0m1.89-.38h0a.38.38,0,0,1,.19,0,.11.11,0,0,1,.08.1.18.18,0,0,1,0,.08v0l-1.74,3.47a.86.86,0,0,1-.56.37h0c-.16,0-.25,0-.26-.11a.14.14,0,0,1,0,0,.24.24,0,0,1,0-.08l1.74-3.47a.86.86,0,0,1,.55-.37h0m1.93-.38c.14,0,.23,0,.24.11a.2.2,0,0,1,0,.1L183.81,217a.81.81,0,0,1-.54.37h-.18c-.11,0-.15-.1-.09-.21l1.74-3.47a.83.83,0,0,1,.56-.37h0m1.88-.37h0a.36.36,0,0,1,.19,0,.11.11,0,0,1,.07.1.18.18,0,0,1,0,.08v0l-1.74,3.47a.84.84,0,0,1-.55.37h0c-.16,0-.25,0-.26-.11a.14.14,0,0,1,0,0,.24.24,0,0,1,0-.08l1.74-3.47a.89.89,0,0,1,.55-.37h0m1.93-.37c.15,0,.24,0,.24.11a.2.2,0,0,1,0,.1l-1.74,3.47a.85.85,0,0,1-.55.38H187c-.15,0-.23,0-.23-.14a.21.21,0,0,1,0-.08l1.74-3.47a.85.85,0,0,1,.56-.37h0m1.89-.38h0c.16,0,.27,0,.26.14a.21.21,0,0,1,0,.08l-1.74,3.47a.88.88,0,0,1-.55.37h0a.23.23,0,0,1-.22-.06.12.12,0,0,1,0-.08.23.23,0,0,1,0-.08l1.74-3.47a.91.91,0,0,1,.56-.37h0m1.92-.37h0c.16,0,.25,0,.25.14a.23.23,0,0,1,0,.08l-1.74,3.47a.91.91,0,0,1-.56.37h-.09c-.12,0-.19-.06-.19-.14a.21.21,0,0,1,0-.08l1.74-3.47a.85.85,0,0,1,.55-.37h0m1.89-.38c.18,0,.28,0,.27.14a.22.22,0,0,1,0,.08l-1.74,3.47a.86.86,0,0,1-.56.37h-.17a.12.12,0,0,1-.11-.12.22.22,0,0,1,0-.1l1.74-3.47a.85.85,0,0,1,.54-.37h0m1.93-.37h0c.15,0,.24,0,.24.12a.22.22,0,0,1,0,.1l-1.74,3.47a.87.87,0,0,1-.55.37h-.06c-.15,0-.23,0-.22-.14a.22.22,0,0,1,0-.08l1.74-3.47a.82.82,0,0,1,.55-.37h0m1.89-.38c.15,0,.25,0,.25.11a.19.19,0,0,1,0,.1l-1.74,3.47a.83.83,0,0,1-.55.37h-.14c-.09,0-.14-.05-.14-.12a.21.21,0,0,1,0-.1l1.74-3.47a.9.9,0,0,1,.56-.37h0m1.92-.37c.15,0,.24,0,.24.12a.21.21,0,0,1,0,.1L199.07,214a.87.87,0,0,1-.55.37h-.06c-.15,0-.23,0-.22-.14a.22.22,0,0,1,0-.08L200,210.7a.83.83,0,0,1,.55-.37h0m1.89-.38h0c.17,0,.27,0,.26.14a.22.22,0,0,1,0,.08L201,213.63a.82.82,0,0,1-.55.37h-.18c-.11,0-.15-.1-.09-.21l1.74-3.48a.91.91,0,0,1,.56-.37h0m1.93-.37h0c.15,0,.25,0,.24.14a.24.24,0,0,1,0,.08l-1.74,3.47a.91.91,0,0,1-.55.37h-.06c-.15,0-.23,0-.23-.14a.21.21,0,0,1,0-.08l1.74-3.47a.88.88,0,0,1,.56-.37h0m1.88-.37h0c.17,0,.27,0,.27.14a.21.21,0,0,1,0,.08l-1.74,3.47a.85.85,0,0,1-.56.37h0a.27.27,0,0,1-.19,0,.11.11,0,0,1,0-.11.21.21,0,0,1,0-.08l1.74-3.47a.89.89,0,0,1,.55-.38h0m1.91-.37a.34.34,0,0,1,.2,0l0,0a.11.11,0,0,1,0,.07.14.14,0,0,1,0,0,.2.2,0,0,1,0,.05v0l-1.74,3.47a.88.88,0,0,1-.56.37h0c-.12,0-.2,0-.24-.05a.12.12,0,0,1,0-.08.24.24,0,0,1,0-.08l1.75-3.47a.82.82,0,0,1,.54-.37h0m-53,2.55a.21.21,0,0,1,0-.1.83.83,0,0,1,.54-.36h0l1.44-.29c.18,0,.29,0,.28.13a.21.21,0,0,1,0,.08.83.83,0,0,1-.56.37l-1.44.28h-.14c-.09,0-.14-.05-.14-.12m5.66-1.44c.16,0,.25,0,.25.13a.21.21,0,0,1,0,.08.86.86,0,0,1-.56.37l-1.44.28H159c-.15,0-.23,0-.22-.14a.22.22,0,0,1,0-.08.89.89,0,0,1,.55-.37l1.44-.27h0m3.58-.7h0c.17,0,.27,0,.26.13a.2.2,0,0,1,0,.07.85.85,0,0,1-.54.38l-1.44.27h-.08c-.17,0-.25-.08-.18-.21a.8.8,0,0,1,.55-.37l1.44-.28h0m3.62-.7h0c.15,0,.24,0,.24.12a.21.21,0,0,1,0,.1.87.87,0,0,1-.55.36l-1.44.28h-.06c-.13,0-.21,0-.22-.12a.21.21,0,0,1,0-.1.84.84,0,0,1,.55-.36l1.44-.28h0m3.58-.7h0c.17,0,.27,0,.26.14a.22.22,0,0,1,0,.08.88.88,0,0,1-.55.37l-1.44.28h0c-.13,0-.23,0-.26-.07a.11.11,0,0,1,0,0,.2.2,0,0,1,0-.1.87.87,0,0,1,.54-.37l1.44-.28h0m3.62-.7h0a.27.27,0,0,1,.19,0c.05,0,.06.1,0,.19a.83.83,0,0,1-.54.36l-1.44.28h0a.32.32,0,0,1-.18,0,.11.11,0,0,1-.07-.1.21.21,0,0,1,0-.1.84.84,0,0,1,.55-.36l1.44-.28h0m3.58-.7h0c.16,0,.27,0,.26.14a.21.21,0,0,1,0,.08.86.86,0,0,1-.56.37l-1.44.28H177c-.15,0-.23,0-.22-.14a.22.22,0,0,1,0-.08.89.89,0,0,1,.55-.37l1.44-.28h0m-17.54-.37h0c.16,0,.26,0,.27.11a.2.2,0,0,1,0,.1.85.85,0,0,1-.53.37h0l-1.44.28h0a.23.23,0,0,1-.22-.06.12.12,0,0,1,0-.08.23.23,0,0,1,0-.08.85.85,0,0,1,.54-.36h0l1.44-.29h0m3.63-.7c.14,0,.23,0,.24.12a.21.21,0,0,1,0,.1.83.83,0,0,1-.55.36l-1.44.29h0a.34.34,0,0,1-.18,0,.11.11,0,0,1-.07-.1.19.19,0,0,1,0-.1.82.82,0,0,1,.55-.37l1.44-.28h0m3.57-.7h0c.17,0,.27,0,.26.14a.22.22,0,0,1,0,.08.84.84,0,0,1-.55.37l-1.44.28h-.13c-.1,0-.15-.05-.15-.12a.2.2,0,0,1,0-.1A.87.87,0,0,1,167,205l1.44-.28h0m3.6-.69h0a.36.36,0,0,1,.19,0,.11.11,0,0,1,.07.1.18.18,0,0,1,0,.08v0a.85.85,0,0,1-.55.36l-1.44.28h0a.32.32,0,0,1-.17,0,.11.11,0,0,1-.07-.12.21.21,0,0,1,0-.08.86.86,0,0,1,.56-.37l1.44-.28h0m3.62-.7c.16,0,.25,0,.24.13a.23.23,0,0,1,0,.08.89.89,0,0,1-.55.37l-1.44.28h-.13c-.1,0-.16-.06-.16-.14a.19.19,0,0,1,0-.07.87.87,0,0,1,.56-.38l1.44-.27h0m3.57-.7h0c.18,0,.28,0,.27.14a.22.22,0,0,1,0,.08.88.88,0,0,1-.55.37l-1.44.27h0a.3.3,0,0,1-.17,0,.11.11,0,0,1-.07-.12.22.22,0,0,1,0-.08.86.86,0,0,1,.55-.37l1.44-.28h0m3.62-.7h0a.36.36,0,0,1,.16,0c.09,0,.12.11.06.21a.86.86,0,0,1-.54.36l-1.44.28h0c-.16,0-.25,0-.26-.11a.14.14,0,0,1,0,0,.24.24,0,0,1,0-.08.84.84,0,0,1,.55-.36l1.44-.28h0m5.49-5.49h0c.16,0,.27,0,.26.13a.19.19,0,0,1,0,.07.89.89,0,0,1-.56.38L160,202.42h-.18c-.11,0-.15-.1-.09-.21a.89.89,0,0,1,.55-.37l28.08-5.45h0m20.79-8.11h0l.46,0a2.42,2.42,0,0,1,2.39.89,1.17,1.17,0,0,0,.42.48.17.17,0,0,1,.12.17.45.45,0,0,1-.13.27,1.14,1.14,0,0,1-.29.25c0,.14.05.28.06.44a.79.79,0,0,1,0,.1,2.94,2.94,0,0,1-.75,1.44.28.28,0,0,1,0,.17,4,4,0,0,1-.6,1.41l0,.07a4.8,4.8,0,0,1-1,1.06l-.53.44a19,19,0,0,1-1.76,2.09,19.39,19.39,0,0,1-1.59,1.32c.3.68,1.34,1,3.42,1.1s2.86.71,2.86,1.57a5.7,5.7,0,0,1-.8,2.24l-.9,1.81a1.37,1.37,0,0,1-.24.31,1.57,1.57,0,0,1-.61.37c-4.24,1.2-8.34,2.14-11.91,2.84-1.18.23-2.3.44-3.35.62l-2.33.39-2.72.41h0l-.17,0c-2.26.31-3.6.45-3.64.45s-.6,0-.6-.18a.24.24,0,0,1,0-.1l1-1.93c.9-1.79,1.84-3.66,6.76-5.54a17.37,17.37,0,0,0,5.58-3,2.27,2.27,0,0,1-.38-.77,4.08,4.08,0,0,1,0-.5,4.88,4.88,0,0,1,.2-1.31,2.23,2.23,0,0,1-.15-.3,1.24,1.24,0,0,1-.1-.51,1,1,0,0,1,.08-.36l0-.07a4.16,4.16,0,0,1,1.09-1.69,2.73,2.73,0,0,1,.8-1.54l.56-.56-.08-.18c0-.17.23-.39.51-.55a9.69,9.69,0,0,0,1-.75,11.89,11.89,0,0,1,3.9-2.12,6,6,0,0,1,.91-.23l.53-.09.46-.06c.31-.09.68-.18,1.06-.26l.2,0,.19,0m16.34-6h-.06l-67,13.16a1.62,1.62,0,0,0-.65.32,1.88,1.88,0,0,0-.56.63l-14.78,29.45a.74.74,0,0,0-.09.31.32.32,0,0,0,.07.22.33.33,0,0,0,.18.1h.27l67-13.16a1.66,1.66,0,0,0,.65-.32,1.78,1.78,0,0,0,.56-.63l14.78-29.45a.71.71,0,0,0,.09-.31.36.36,0,0,0-.06-.22.41.41,0,0,0-.32-.12h-.06" style="fill: #fff"/>
                    <path d="M225.88,181.66h-.08L216,183.6l-57.32,11.26a3.73,3.73,0,0,0-1.39.65,3.37,3.37,0,0,0-.89,1L141.57,226.1a.76.76,0,0,0,0,.75.57.57,0,0,0,.27.18V227a.14.14,0,0,1,0,0c0-.09.1-.21.26-.31a1,1,0,0,1,.31-.13h.17a.33.33,0,0,1-.18-.1.32.32,0,0,1-.07-.22.74.74,0,0,1,.09-.31l14.78-29.45a1.88,1.88,0,0,1,.56-.63,1.62,1.62,0,0,1,.65-.32l67-13.16h.12a.41.41,0,0,1,.32.12.36.36,0,0,1,.06.22.36.36,0,0,0-.06-.22.11.11,0,0,1,0-.07.44.44,0,0,1,.21-.29,1.14,1.14,0,0,1,.36-.16h.23a.93.93,0,0,0-.81-.18" style="fill: #3f4563"/>
                    <path d="M188.41,196.4h0l-28.08,5.45a.89.89,0,0,0-.55.37c-.06.11,0,.19.09.21H160L188.09,197a.89.89,0,0,0,.56-.38.19.19,0,0,0,0-.07c0-.1-.09-.16-.26-.13" style="fill: #3f4563"/>
                    <path d="M161.31,206.07h0l-1.44.29h0a.85.85,0,0,0-.54.36.23.23,0,0,0,0,.08.12.12,0,0,0,0,.08.23.23,0,0,0,.22.06h0l1.44-.28h0a.85.85,0,0,0,.53-.37.2.2,0,0,0,0-.1c0-.09-.1-.14-.27-.11m3.63-.7h0l-1.44.28a.82.82,0,0,0-.55.37.19.19,0,0,0,0,.1.11.11,0,0,0,.07.1.34.34,0,0,0,.18,0h0l1.44-.29a.83.83,0,0,0,.55-.36.21.21,0,0,0,0-.1c0-.09-.09-.14-.24-.12m3.57-.7h0L167,205a.87.87,0,0,0-.54.37.2.2,0,0,0,0,.1c0,.07.06.11.15.12h.13l1.44-.28a.84.84,0,0,0,.55-.37.22.22,0,0,0,0-.08c0-.1-.09-.16-.26-.14m3.6-.69h0l-1.44.28a.86.86,0,0,0-.56.37.21.21,0,0,0,0,.08.11.11,0,0,0,.07.12.32.32,0,0,0,.17,0h0l1.44-.28a.85.85,0,0,0,.55-.36v0a.18.18,0,0,0,0-.08.11.11,0,0,0-.07-.1.36.36,0,0,0-.19,0m3.62-.7h0l-1.44.27a.87.87,0,0,0-.56.38.19.19,0,0,0,0,.07c0,.08.05.13.16.14h.13l1.44-.28a.89.89,0,0,0,.55-.37.23.23,0,0,0,0-.08c0-.1-.08-.16-.24-.13m3.57-.7h0l-1.44.28a.86.86,0,0,0-.55.37.22.22,0,0,0,0,.08.11.11,0,0,0,.07.12.3.3,0,0,0,.17,0h0l1.44-.27a.88.88,0,0,0,.55-.37.22.22,0,0,0,0-.08c0-.1-.09-.16-.27-.14m3.62-.7h0l-1.44.28a.84.84,0,0,0-.55.36.24.24,0,0,0,0,.08.14.14,0,0,0,0,0c0,.09.1.13.26.11h0l1.44-.28a.86.86,0,0,0,.54-.36c.06-.11,0-.18-.06-.21a.36.36,0,0,0-.16,0" style="fill: #3f4563"/>
                    <path d="M157.23,210.63l-1.44.29h0a.83.83,0,0,0-.54.36.21.21,0,0,0,0,.1c0,.07.05.11.14.12h.14l1.44-.28a.83.83,0,0,0,.56-.37.21.21,0,0,0,0-.08c0-.1-.11-.16-.28-.13m3.64-.69h0l-1.44.27a.89.89,0,0,0-.55.37.22.22,0,0,0,0,.08c0,.1.08.15.22.14h.06l1.44-.28a.86.86,0,0,0,.56-.37.21.21,0,0,0,0-.08c0-.1-.09-.16-.25-.13m3.58-.7h0l-1.44.28a.8.8,0,0,0-.55.37c-.07.14,0,.23.18.21h.08l1.44-.27a.85.85,0,0,0,.54-.38.2.2,0,0,0,0-.07c0-.1-.09-.16-.26-.13m3.62-.7h0l-1.44.28a.84.84,0,0,0-.55.36.21.21,0,0,0,0,.1c0,.08.09.13.22.12h.06l1.44-.28a.87.87,0,0,0,.55-.36.21.21,0,0,0,0-.1c0-.09-.1-.14-.24-.12m3.58-.7h0l-1.44.28a.87.87,0,0,0-.54.37.2.2,0,0,0,0,.1.11.11,0,0,0,0,0c0,.06.12.09.26.07h0l1.44-.28a.88.88,0,0,0,.55-.37.22.22,0,0,0,0-.08c0-.1-.09-.16-.26-.14m3.62-.7h0l-1.44.28a.84.84,0,0,0-.55.36.21.21,0,0,0,0,.1.11.11,0,0,0,.07.1.32.32,0,0,0,.18,0h0l1.44-.28a.83.83,0,0,0,.54-.36c0-.09,0-.15,0-.19a.27.27,0,0,0-.19,0m3.58-.7h0l-1.44.28a.89.89,0,0,0-.55.37.22.22,0,0,0,0,.08c0,.1.08.15.22.14h.06l1.44-.28a.86.86,0,0,0,.56-.37.21.21,0,0,0,0-.08c0-.1-.09-.16-.26-.14" style="fill: #3f4563"/>
                    <path d="M226.44,183.27l-14.51,28.92a3,3,0,0,1-.92,1,3.59,3.59,0,0,1-1.39.66L142.86,227l.8.67h.2a.63.63,0,0,0,.21,0h0l67.05-13.16a1.56,1.56,0,0,0,.65-.32,1.89,1.89,0,0,0,.56-.63l14.2-28.3a1.07,1.07,0,0,0,.16-.46.19.19,0,0,0,0,0l0-.06-.27-1.39" style="fill: #fff"/>
                    <path d="M142.86,227l66.75-13.11a3.59,3.59,0,0,0,1.39-.66,3,3,0,0,0,.92-1l14.51-28.92.27,1.39,0,.06a.19.19,0,0,1,0,0,1.07,1.07,0,0,1-.16.46l-14.2,28.3a1.89,1.89,0,0,1-.56.63,1.56,1.56,0,0,1-.65.32l-67.05,13.16h0a.63.63,0,0,1-.21,0h-.2l-.8-.67m83.6-45.15a1.14,1.14,0,0,0-.36.16.44.44,0,0,0-.21.29.11.11,0,0,0,0,.07.36.36,0,0,1,.06.22.71.71,0,0,1-.09.31l-14.78,29.45a1.78,1.78,0,0,1-.56.63,1.66,1.66,0,0,1-.65.32l-67,13.16h-.44a1,1,0,0,0-.31.13c-.16.1-.25.22-.26.31a.14.14,0,0,0,0,0V227l.06.32,0,.06.94.77a.26.26,0,0,0,.21,0h.06l.07,0a1.47,1.47,0,0,0,.51,0h.06l9.76-1.92,57.32-11.26a3.58,3.58,0,0,0,1.39-.66,3.15,3.15,0,0,0,.89-1l14.29-28.48a.82.82,0,0,0,.1-.71l-.42-2.21-.11-.1-.33-.07h-.23" style="fill: #3f4563"/>
                    <path d="M149.08,220.43h0a.89.89,0,0,0-.55.38l-1.74,3.47a.22.22,0,0,0,0,.08.11.11,0,0,0,0,.11.27.27,0,0,0,.19,0h0a.85.85,0,0,0,.56-.37l1.74-3.47a.21.21,0,0,0,0-.08c0-.1-.1-.16-.27-.14" style="fill: #3f4563"/>
                    <path d="M151,220.06h0a.84.84,0,0,0-.55.37l-1.74,3.47a.24.24,0,0,0,0,.08.14.14,0,0,0,0,0c0,.09.1.13.26.11h0a.91.91,0,0,0,.56-.37l1.74-3.47a.23.23,0,0,0,0-.08c0-.1-.09-.16-.25-.14" style="fill: #3f4563"/>
                    <path d="M152.9,219.68h0a.85.85,0,0,0-.55.38l-1.74,3.47c-.07.14,0,.23.18.21h.08a.83.83,0,0,0,.55-.37l1.74-3.47a.22.22,0,0,0,0-.08c0-.1-.09-.16-.26-.14" style="fill: #3f4563"/>
                    <path d="M154.82,219.31h0a.84.84,0,0,0-.54.37l-1.74,3.47a.21.21,0,0,0,0,.1c0,.08.09.13.22.12h.06a.9.9,0,0,0,.56-.37l1.74-3.47a.21.21,0,0,0,0-.1c0-.09-.1-.14-.25-.12" style="fill: #3f4563"/>
                    <path d="M156.73,218.94h0a.82.82,0,0,0-.55.37l-1.74,3.47a.2.2,0,0,0,0,.1c0,.07.06.11.15.12h.13a.87.87,0,0,0,.55-.38l1.74-3.47a.19.19,0,0,0,0-.1c0-.09-.1-.13-.24-.11" style="fill: #3f4563"/>
                    <path d="M158.62,218.56h0a.86.86,0,0,0-.56.37l-1.74,3.47a.24.24,0,0,0,0,.08.12.12,0,0,0,.1.13.43.43,0,0,0,.17,0h0a.82.82,0,0,0,.54-.37l1.74-3.47v0a.19.19,0,0,0,0-.08.11.11,0,0,0-.07-.1.35.35,0,0,0-.18,0" style="fill: #3f4563"/>
                    <path d="M160.55,218.19h0a.85.85,0,0,0-.56.37L158.2,222a.21.21,0,0,0,0,.08.12.12,0,0,0,.1.13.4.4,0,0,0,.17,0h0a.85.85,0,0,0,.54-.38l1.74-3.47a.2.2,0,0,0,0-.1c0-.09-.09-.13-.24-.11" style="fill: #3f4563"/>
                    <path d="M162.43,217.81h0a.91.91,0,0,0-.55.37l-1.74,3.47a.23.23,0,0,0,0,.08.14.14,0,0,0,0,0c0,.09.11.13.26.11h0a.88.88,0,0,0,.56-.37l1.74-3.47v0a.2.2,0,0,0,0-.05.13.13,0,0,0,0,0,.11.11,0,0,0,0-.07l0,0a.34.34,0,0,0-.2,0" style="fill: #3f4563"/>
                    <path d="M164.36,217.44h0a.82.82,0,0,0-.55.37L162,221.29a.21.21,0,0,0,0,.08c0,.09.08.15.23.14h.06a.91.91,0,0,0,.56-.37l1.74-3.48a.21.21,0,0,0,0-.08c0-.1-.09-.16-.25-.13" style="fill: #3f4563"/>
                    <path d="M166.25,217.06h0a.87.87,0,0,0-.55.37l-1.74,3.47a.21.21,0,0,0,0,.1c0,.07.05.11.14.12h.14a.83.83,0,0,0,.55-.37l1.74-3.47a.22.22,0,0,0,0-.08c0-.1-.09-.16-.26-.14" style="fill: #3f4563"/>
                    <path d="M168.17,216.69h0a.81.81,0,0,0-.54.37l-1.74,3.47a.19.19,0,0,0,0,.1.11.11,0,0,0,.07.1.33.33,0,0,0,.18,0h0a.9.9,0,0,0,.56-.37l1.74-3.47a.21.21,0,0,0,0-.1c0-.09-.1-.14-.25-.12" style="fill: #3f4563"/>
                    <path d="M170.06,216.31h0a.87.87,0,0,0-.55.37l-1.74,3.47a.22.22,0,0,0,0,.1.12.12,0,0,0,.11.12H168a.83.83,0,0,0,.56-.37l1.74-3.47a.22.22,0,0,0,0-.08c0-.1-.09-.16-.26-.14" style="fill: #3f4563"/>
                    <path d="M172,215.94h0a.86.86,0,0,0-.56.37l-1.74,3.47a.22.22,0,0,0,0,.08.14.14,0,0,0,0,0c0,.09.11.14.27.11h0a.87.87,0,0,0,.54-.37l1.74-3.47a.21.21,0,0,0,0-.1c0-.09-.09-.14-.24-.12" style="fill: #3f4563"/>
                    <path d="M173.87,215.56h0a.89.89,0,0,0-.55.37l-1.74,3.47a.21.21,0,0,0,0,.1c0,.07.05.11.14.12h.14a.82.82,0,0,0,.55-.37l1.74-3.47a.22.22,0,0,0,0-.08c0-.1-.09-.16-.26-.14" style="fill: #3f4563"/>
                    <path d="M175.8,215.19h0a.86.86,0,0,0-.55.37L173.46,219a.22.22,0,0,0,0,.08c0,.08.05.13.15.14h.13a.88.88,0,0,0,.55-.37l1.75-3.47a.23.23,0,0,0,0-.08c0-.1-.09-.16-.25-.14" style="fill: #3f4563"/>
                    <path d="M177.69,214.81h0a.89.89,0,0,0-.56.38l-1.74,3.47a.21.21,0,0,0,0,.08.11.11,0,0,0,.07.12.32.32,0,0,0,.17,0h0a.83.83,0,0,0,.55-.37l1.74-3.47a.22.22,0,0,0,0-.08c0-.1-.09-.16-.26-.14" style="fill: #3f4563"/>
                    <path d="M179.62,214.44h0a.84.84,0,0,0-.55.37l-1.75,3.47a.21.21,0,0,0,0,.08c0,.09.08.15.23.14h.06a.91.91,0,0,0,.55-.37l1.74-3.47a.2.2,0,0,0,0-.1c0-.09-.1-.14-.24-.12" style="fill: #3f4563"/>
                    <path d="M181.52,214.07h0a.81.81,0,0,0-.54.37l-1.74,3.47c-.07.14,0,.23.17.22h.08a.83.83,0,0,0,.56-.37l1.74-3.47a.19.19,0,0,0,0-.1c0-.09-.1-.13-.25-.11" style="fill: #3f4563"/>
                    <path d="M183.41,213.69h0a.86.86,0,0,0-.55.37l-1.74,3.47a.24.24,0,0,0,0,.08.14.14,0,0,0,0,0c0,.09.1.13.26.11h0a.86.86,0,0,0,.56-.37l1.74-3.47v0a.18.18,0,0,0,0-.08.11.11,0,0,0-.08-.1.38.38,0,0,0-.19,0" style="fill: #3f4563"/>
                    <path d="M185.34,213.32h0a.83.83,0,0,0-.56.37L183,217.17c-.06.11,0,.19.09.21h.18a.81.81,0,0,0,.54-.37l1.74-3.47a.2.2,0,0,0,0-.1c0-.09-.09-.13-.24-.11" style="fill: #3f4563"/>
                    <path d="M187.23,212.94h0a.89.89,0,0,0-.55.37l-1.74,3.47a.24.24,0,0,0,0,.08.14.14,0,0,0,0,0c0,.09.1.13.26.11h0a.84.84,0,0,0,.55-.37l1.74-3.47v0a.18.18,0,0,0,0-.08.11.11,0,0,0-.07-.1.36.36,0,0,0-.19,0" style="fill: #3f4563"/>
                    <path d="M189.15,212.57h0a.85.85,0,0,0-.56.37l-1.74,3.47a.21.21,0,0,0,0,.08c0,.09.08.15.23.14h.06a.85.85,0,0,0,.55-.38l1.74-3.47a.2.2,0,0,0,0-.1c0-.09-.1-.13-.24-.11" style="fill: #3f4563"/>
                    <path d="M191,212.19h0a.91.91,0,0,0-.56.37L188.72,216a.23.23,0,0,0,0,.08.12.12,0,0,0,0,.08.23.23,0,0,0,.22.06h0a.88.88,0,0,0,.55-.37l1.74-3.47a.21.21,0,0,0,0-.08c0-.1-.09-.16-.26-.14" style="fill: #3f4563"/>
                    <path d="M193,211.82h0a.85.85,0,0,0-.55.37l-1.74,3.47a.21.21,0,0,0,0,.08c0,.09.07.14.19.14h.09a.91.91,0,0,0,.56-.37l1.74-3.47a.23.23,0,0,0,0-.08c0-.1-.09-.16-.25-.14" style="fill: #3f4563"/>
                    <path d="M194.85,211.44h0a.85.85,0,0,0-.54.37l-1.74,3.47a.22.22,0,0,0,0,.1.12.12,0,0,0,.11.12h.17a.86.86,0,0,0,.56-.37l1.74-3.47a.22.22,0,0,0,0-.08c0-.1-.09-.16-.27-.14" style="fill: #3f4563"/>
                    <path d="M196.78,211.07h0a.82.82,0,0,0-.55.37l-1.74,3.47a.22.22,0,0,0,0,.08c0,.1.08.15.22.14h.06a.87.87,0,0,0,.55-.37l1.74-3.47a.22.22,0,0,0,0-.1c0-.09-.09-.14-.24-.12" style="fill: #3f4563"/>
                    <path d="M198.67,210.69h0a.9.9,0,0,0-.56.37l-1.74,3.47a.21.21,0,0,0,0,.1c0,.07.05.11.14.12h.14a.83.83,0,0,0,.55-.37l1.74-3.47a.19.19,0,0,0,0-.1c0-.09-.1-.14-.25-.11" style="fill: #3f4563"/>
                    <path d="M200.6,210.32h0a.83.83,0,0,0-.55.37l-1.74,3.47a.22.22,0,0,0,0,.08c0,.1.08.15.22.14h.06a.87.87,0,0,0,.55-.37l1.74-3.47a.21.21,0,0,0,0-.1c0-.09-.1-.14-.24-.12" style="fill: #3f4563"/>
                    <path d="M202.48,209.94h0a.91.91,0,0,0-.56.37l-1.74,3.48c-.06.11,0,.19.09.21h.18a.82.82,0,0,0,.55-.37l1.74-3.47a.22.22,0,0,0,0-.08c0-.1-.09-.16-.26-.14" style="fill: #3f4563"/>
                    <path d="M204.41,209.57h0a.88.88,0,0,0-.56.37l-1.74,3.47a.21.21,0,0,0,0,.08c0,.09.08.15.23.14h.06a.91.91,0,0,0,.55-.37l1.74-3.47a.24.24,0,0,0,0-.08c0-.1-.09-.16-.24-.14" style="fill: #3f4563"/>
                    <path d="M206.29,209.2h0a.89.89,0,0,0-.55.38L204,213a.21.21,0,0,0,0,.08.11.11,0,0,0,0,.11.27.27,0,0,0,.19,0h0a.85.85,0,0,0,.56-.37l1.74-3.47a.21.21,0,0,0,0-.08c0-.1-.1-.16-.27-.14" style="fill: #3f4563"/>
                    <path d="M208.2,208.82h0a.82.82,0,0,0-.54.37l-1.75,3.47a.24.24,0,0,0,0,.08.12.12,0,0,0,0,.08s.12.07.24.05h0a.88.88,0,0,0,.56-.37l1.74-3.47v0a.2.2,0,0,0,0-.05.14.14,0,0,0,0,0,.11.11,0,0,0,0-.07l0,0a.34.34,0,0,0-.2,0" style="fill: #3f4563"/>
                    <path d="M208.88,188.87l-.35.06c-.35.07-.71.16-1,.24l-.07,0h-.06l-.42,0h-.07l-.46.08a5.6,5.6,0,0,0-.71.18,10.45,10.45,0,0,0-3.29,1.79c-.36.29-.64.5-.85.64l.44-.08-.57.5c-.27.23-.57.52-.89.84a2,2,0,0,0-.58,1.24s0,0,0,.06v.23l-.4.18a5.43,5.43,0,0,0-.73,1.28l0,.07a.54.54,0,0,0,0,.22,1,1,0,0,0,.08.39,1.24,1.24,0,0,0,.15.3l0,0,0,.08a4.55,4.55,0,0,0-.21,1.31,3,3,0,0,0,0,.41,2.1,2.1,0,0,0,.42.79l.09.11-.18.18c-1.32,1.29-3.24,2.37-6.42,3.58-4.29,1.64-5,3.14-5.92,4.89l-.9,1.77h.11s.71-.07,1.92-.23V210l.11-.22a7.47,7.47,0,0,1,1.13-1.65,1,1,0,0,1,.48-.26h.14c.1,0,.15.07.15.14a.32.32,0,0,1-.1.19h0l-.07.07a3.14,3.14,0,0,0-.23.29,6.84,6.84,0,0,0-.67,1.06l-.09.21a.64.64,0,0,1-.28.26l1.38-.19c.86-.12,1.84-.27,2.92-.44l2.89-.5,2.41-.46c2.81-.55,6-1.25,9.25-2.11a.11.11,0,0,1-.08-.11.19.19,0,0,1,0-.1l.11-.21a3.38,3.38,0,0,0,.42-1.32.15.15,0,0,1,0,0c0-.13.18-.29.42-.39l.15,0h.05c.13,0,.23,0,.23.12a.32.32,0,0,1,0,.06,3.75,3.75,0,0,1-.47,1.46l-.12.23-.18.19,1.82-.5.92-1.81a5.36,5.36,0,0,0,.74-2.06c0-.74-.6-1.25-2.51-1.32-2.4-.1-3.55-.52-3.79-1.43l0-.14.25-.19a17.37,17.37,0,0,0,1.65-1.33,18,18,0,0,0,1.68-2l.06-.08.11-.07.53-.43a3.84,3.84,0,0,0,.73-.77l0-.07a5.47,5.47,0,0,0,.54-1.2.07.07,0,0,0,0,0l-.31,0,.28-.28a2.56,2.56,0,0,0,.74-1.3s0,0,0,0a2.42,2.42,0,0,0-.14-.65l-.14-.36.43-.09a1.83,1.83,0,0,1-.31-.42,2,2,0,0,0-2-.75l-.33,0" style="fill: #fff"/>
                    <path d="M207.4,189.2h.06l.07,0c.29-.08.65-.18,1-.24l.35-.06.33,0a2,2,0,0,1,2,.75,1.83,1.83,0,0,0,.31.42l-.43.09.14.36a2.42,2.42,0,0,1,.14.65s0,0,0,0a2.56,2.56,0,0,1-.74,1.3l-.28.28.31,0a.07.07,0,0,1,0,0,5.47,5.47,0,0,1-.54,1.2l0,.07a3.84,3.84,0,0,1-.73.77l-.53.43-.11.07-.06.08a18,18,0,0,1-1.68,2,17.37,17.37,0,0,1-1.65,1.33l-.25.19,0,.14c.25.91,1.39,1.33,3.79,1.43,1.91.08,2.51.58,2.51,1.32a5.36,5.36,0,0,1-.74,2.06l-.92,1.81-1.82.5a1,1,0,0,1-.36.16h-.15l-.07,0c-3.29.86-6.44,1.56-9.25,2.11l-2.41.46-2.89.5c-1.09.18-2.07.32-2.92.44h0l-1.38.19a.66.66,0,0,1-.27.11h0c-.12,0-.22,0-.25,0-1.21.16-1.9.22-1.92.23H186l.9-1.77c.87-1.75,1.63-3.24,5.92-4.89,3.18-1.22,5.1-2.3,6.42-3.58l.18-.18-.09-.11a2.1,2.1,0,0,1-.42-.79,3,3,0,0,1,0-.41,4.55,4.55,0,0,1,.21-1.31l0-.08,0,0a1.24,1.24,0,0,1-.15-.3,1,1,0,0,1-.08-.39.54.54,0,0,1,0-.22l0-.07a5.43,5.43,0,0,1,.73-1.28l.4-.18v-.23s0,0,0-.06a2,2,0,0,1,.58-1.24c.32-.32.62-.61.89-.84l.57-.5-.44.08c.21-.14.49-.35.85-.64a10.45,10.45,0,0,1,3.29-1.79,5.6,5.6,0,0,1,.71-.18l.46-.08H207l.42,0m1.8-.91h0l-.19,0-.2,0c-.38.08-.75.17-1.06.26l-.46.06-.53.09a6,6,0,0,0-.91.23,11.89,11.89,0,0,0-3.9,2.12,9.69,9.69,0,0,1-1,.75c-.27.16-.49.38-.51.55l.08.18-.56.56a2.73,2.73,0,0,0-.8,1.54,4.16,4.16,0,0,0-1.09,1.69l0,.07a1,1,0,0,0-.08.36,1.24,1.24,0,0,0,.1.51,2.23,2.23,0,0,0,.15.3,4.88,4.88,0,0,0-.2,1.31,4.08,4.08,0,0,0,0,.5,2.27,2.27,0,0,0,.38.77,17.37,17.37,0,0,1-5.58,3c-4.92,1.89-5.85,3.75-6.76,5.54l-1,1.93a.24.24,0,0,0,0,.1c0,.2.42.19.6.18s1.38-.13,3.64-.45l.17,0,2.72-.41,2.33-.39c1.05-.18,2.17-.39,3.35-.62,3.57-.71,7.67-1.64,11.91-2.84a1.57,1.57,0,0,0,.61-.37,1.37,1.37,0,0,0,.24-.31l.9-1.81a5.7,5.7,0,0,0,.8-2.24c0-.85-.67-1.48-2.86-1.57s-3.12-.42-3.42-1.1a19.39,19.39,0,0,0,1.59-1.32,19,19,0,0,0,1.76-2.09l.53-.44a4.8,4.8,0,0,0,1-1.06l0-.07a4,4,0,0,0,.6-1.41.28.28,0,0,0,0-.17,2.94,2.94,0,0,0,.75-1.44.79.79,0,0,0,0-.1c0-.16,0-.3-.06-.44a1.14,1.14,0,0,0,.29-.25.45.45,0,0,0,.13-.27.17.17,0,0,0-.12-.17,1.17,1.17,0,0,1-.42-.48,2.42,2.42,0,0,0-2.39-.89l-.46,0" style="fill: #4e5a60"/>
                    <path d="M208.49,204.16h-.05l-.15,0c-.23.1-.41.26-.42.39a.15.15,0,0,0,0,0,3.38,3.38,0,0,1-.42,1.32l-.11.21a.19.19,0,0,0,0,.1.11.11,0,0,0,.08.11l.07,0h.15a1,1,0,0,0,.36-.16l.18-.19.12-.23a3.75,3.75,0,0,0,.47-1.46.32.32,0,0,0,0-.06c0-.09-.1-.13-.23-.12" style="fill: #4e5a60"/>
                    <path d="M189.69,207.85a1,1,0,0,0-.48.26,7.47,7.47,0,0,0-1.13,1.65L188,210v.15c0,.05.13.07.25,0h0a.66.66,0,0,0,.27-.11.64.64,0,0,0,.28-.26l.09-.21a6.84,6.84,0,0,1,.67-1.06,3.14,3.14,0,0,1,.23-.29l.07-.07h0a.32.32,0,0,0,.1-.19c0-.07,0-.12-.15-.14h-.14" style="fill: #4e5a60"/>
                  </g>
                </g>
              </g>
              <g style="isolation: isolate">
                <g style="clip-path: url(#clip-path-9)">
                  <g style="clip-path: url(#clip-path-10)">
                    <g style="clip-path: url(#clip-path-11)">
                      <path d="M200.77,164.29l-2.88,1.21,10.38.15,2.89-1.21-10.39-.15m15.73-1.63h0v-.06a.46.46,0,0,1,.23-.1h0l.19,0h0a.43.43,0,0,1,.24.06v.08l-.13.07-.12,0h-.22a.42.42,0,0,1-.24-.05m-3.07,0h0v-.06a.39.39,0,0,1,.22-.1h0l.17,0h1.23a.47.47,0,0,1,.24.06h0v.06l-.08.06-.14,0h-1.44a.44.44,0,0,1-.25-.06m-16.58,3.07h0s0-.09.1-.13l3.48-1.46.16,0h.18l11.18.16a.39.39,0,0,1,.23.05v0s0,.09-.1.13l-3.48,1.45-.16,0-.19,0-11.17-.16a.43.43,0,0,1-.24-.05m13.51-3.11h0v-.06a.39.39,0,0,1,.22-.1H212a.47.47,0,0,1,.24.06h0v.06l-.11.07-.11,0h-.22l-1.23,0a.44.44,0,0,1-.25-.06m-3.07,0h0v-.06a.46.46,0,0,1,.25-.11H209a.44.44,0,0,1,.25.06h0v.06a.42.42,0,0,1-.23.11h-1.44a.46.46,0,0,1-.24-.06m-22.59,2.93v-.08a.42.42,0,0,1,.23-.1h.22l1.22,0a.43.43,0,0,1,.25.06v.08l-.06,0-.16.05h-.22l-1.22,0a.39.39,0,0,1-.24-.06m-3.07,0v-.07a.35.35,0,0,1,.23-.11h0l.19,0,1.22,0a.4.4,0,0,1,.24.06h0v.06l0,0a.49.49,0,0,1-.18.07h0l-.19,0-1.22,0a.39.39,0,0,1-.24-.06m-3.06,0h0v-.06a.39.39,0,0,1,.22-.1H179l1.22,0a.38.38,0,0,1,.24.06v.08l-.06,0-.17.06H180l-1.23,0a.43.43,0,0,1-.24-.06m-3.06,0h0v-.06a.41.41,0,0,1,.22-.1h0l.19,0,1.22,0a.44.44,0,0,1,.24.06v.08a.45.45,0,0,1-.24.1H177l-1.23,0a.43.43,0,0,1-.24-.06m-3.06,0h0v-.06a.4.4,0,0,1,.21-.1h.22l1.23,0a.4.4,0,0,1,.24.06v.08l0,0a.68.68,0,0,1-.19.07h0l-.19,0-1.23,0a.39.39,0,0,1-.23-.06m-3.07,0h0v-.06a.47.47,0,0,1,.24-.1h.2l1.23,0a.43.43,0,0,1,.24.06h0v.06l0,0a.48.48,0,0,1-.19.07h-.22l-1.23,0a.43.43,0,0,1-.24-.06m-3.06,0v-.08l.06,0,.16-.05h0l.18,0,1.22,0a.49.49,0,0,1,.22,0l0,0v.06l0,0a.61.61,0,0,1-.19.07h-.22l-1.22,0a.38.38,0,0,1-.24-.06m-2.51,0v-.08a.44.44,0,0,1,.23-.1h.88a.41.41,0,0,1,.24.06v.08l0,0a.49.49,0,0,1-.18.07h-.9a.39.39,0,0,1-.24-.06m3.66-1.53v-.08a.45.45,0,0,1,.22-.1h.22l26.24.4a.4.4,0,0,1,.24.06h0V164l0,0a.44.44,0,0,1-.18.07H194l-26.25-.41a.4.4,0,0,1-.24-.06m4-3.41-14.75,6.18a.52.52,0,0,0-.17.09l0,0h.17l51.48.75a2.85,2.85,0,0,0,.47,0l.12,0h.06l.16,0a3.08,3.08,0,0,0,.59-.17l14.47-6-52.57-.77m3.09-1.3-1.62.68-.88.37,52.56.76,2.49-1-52.56-.77m5-2h-.09l-.17,0-.25.06a2,2,0,0,0-.34.11l-3.55,1.48,52.56.76,3.84-1.6.13-.06,0,0v0h0s0,0-.15,0l-51.48-.75-.31,0-.23,0" style="fill: #fff"/>
                      <path d="M171.15,160l-14.87,6.22a1.11,1.11,0,0,0-.35.19c-.06.07-.09.13,0,.19l.08.06,0-.06a.39.39,0,0,1,.22-.1h.07a.82.82,0,0,1,.3,0h0l0,0a.52.52,0,0,1,.17-.09l14.75-6.18h-.21a.39.39,0,0,1-.22-.05v0s0-.08.07-.11m3.47-1.11-1.62.68,1.62-.68m4.94-2.19h0l-.35.06h-.07a5.27,5.27,0,0,0-.87.25l-4,1.66.16,0,.19,0h.59l3.55-1.48a2,2,0,0,1,.34-.11l.25-.06.17,0h.09l.23,0,.31,0,51.48.75c.12,0,.14,0,.15,0h0v0c0-.05.06-.11.2-.14l.07,0h0a.86.86,0,0,1,.31,0l.08,0a1.08,1.08,0,0,0-.65-.15l-51.48-.75a5.7,5.7,0,0,0-.79.06" style="fill: #3f4563"/>
                      <path d="M174.43,158.69l-.16,0h0l-2.6,1.09-.49.2h0c-.07,0-.09.08-.07.11v0a.39.39,0,0,0,.22.05h.21l52.57.77.59-.25L172.12,160l.88-.37,1.62-.68,52.56.77.6-.25-52.56-.76h-.59l-.19,0" style="fill: #3f4563"/>
                      <path d="M197.89,165.5l2.88-1.21,10.39.15-2.89,1.21-10.38-.15m2.7-1.45-.16,0-3.48,1.46c-.09,0-.13.09-.1.13h0a.43.43,0,0,0,.24.05l11.17.16.19,0,.16,0,3.48-1.45c.1,0,.14-.09.1-.13v0a.39.39,0,0,0-.23-.05L200.77,164h-.18" style="fill: #3f4563"/>
                      <path d="M216.75,162.48h0a.46.46,0,0,0-.23.1v.06h0a.42.42,0,0,0,.24.05H217l.12,0,.13-.07v-.08a.43.43,0,0,0-.24-.06h0l-.19,0m-3.06,0h0a.39.39,0,0,0-.22.1v.06h0a.44.44,0,0,0,.25.06h1.44l.14,0,.08-.06v-.06h0a.47.47,0,0,0-.24-.06h-1.23l-.17,0m-3.08,0h0a.39.39,0,0,0-.22.1v.06h0a.44.44,0,0,0,.25.06l1.23,0h.22l.11,0,.11-.07v-.06h0a.47.47,0,0,0-.24-.06h-1.41m-3.06,0h0a.46.46,0,0,0-.25.11v.06h0a.46.46,0,0,0,.24.06H209a.42.42,0,0,0,.23-.11v-.06h0a.44.44,0,0,0-.25-.06h-1.41" style="fill: #3f4563"/>
                      <path d="M167.73,163.45h0a.45.45,0,0,0-.22.1v.08a.4.4,0,0,0,.24.06l26.25.41h.22a.44.44,0,0,0,.18-.07l0,0v-.06h0a.4.4,0,0,0-.24-.06l-26.24-.4h-.19" style="fill: #3f4563"/>
                      <path d="M185,165.3h0a.42.42,0,0,0-.23.1v.08a.39.39,0,0,0,.24.06l1.22,0h.22l.16-.05.06,0v-.08a.43.43,0,0,0-.25-.06l-1.22,0H185m-3.07,0h0a.35.35,0,0,0-.23.11v.07a.39.39,0,0,0,.24.06l1.22,0,.19,0h0a.49.49,0,0,0,.18-.07l0,0v-.06h0a.4.4,0,0,0-.24-.06l-1.22,0-.19,0m-3.07,0h0a.39.39,0,0,0-.22.1v.06h0a.43.43,0,0,0,.24.06l1.23,0h.22l.17-.06.06,0v-.08a.38.38,0,0,0-.24-.06l-1.22,0h-.19m-3.05,0h0a.41.41,0,0,0-.22.1v.06h0a.43.43,0,0,0,.24.06l1.23,0h.21a.45.45,0,0,0,.24-.1v-.08a.44.44,0,0,0-.24-.06l-1.22,0-.19,0m-3.06,0h0a.4.4,0,0,0-.21.1v.06h0a.39.39,0,0,0,.23.06l1.23,0,.19,0h0a.68.68,0,0,0,.19-.07l0,0v-.08a.4.4,0,0,0-.24-.06l-1.23,0h-.18m-3.06-.05h0a.47.47,0,0,0-.24.1v.06h0a.43.43,0,0,0,.24.06l1.23,0h.22a.48.48,0,0,0,.19-.07l0,0v-.06h0a.43.43,0,0,0-.24-.06l-1.23,0h-.18m-3.06,0h0l-.16.05-.06,0v.08a.38.38,0,0,0,.24.06l1.22,0H168a.61.61,0,0,0,.19-.07l0,0v-.06l0,0a.49.49,0,0,0-.22,0l-1.22,0-.18,0m-2.5,0h0a.44.44,0,0,0-.23.1v.08a.39.39,0,0,0,.24.06h.9a.49.49,0,0,0,.18-.07l0,0V165a.41.41,0,0,0-.24-.06h-.85" style="fill: #3f4563"/>
                      <path d="M156.66,166.81l.23.23.12,0,.15,0,51.48.75a3.52,3.52,0,0,0,.49,0h.13l.08,0,.08,0a3.77,3.77,0,0,0,.61-.18l22-9.2.23-.11,0,0-.14-.27h0l-22,9.2,0,0-.16.06-.46.13-.17,0-.26.05-.21,0h0a5.63,5.63,0,0,1-.69.06H208l-51.37-.75" style="fill: #fff"/>
                      <path d="M156.89,167l-.23-.23,51.37.75h.09a5.63,5.63,0,0,0,.69-.06l.21,0,.26-.05.17,0,.46-.13.16-.06,0,0,22-9.2h0l.14.27,0,0-.23.11-22,9.2a3.77,3.77,0,0,1-.61.18l-.08,0-.08,0h-.13a3.52,3.52,0,0,1-.49,0l-51.48-.75-.15,0-.12,0m-.59-.51h-.07a.39.39,0,0,0-.22.1l0,.06-.05.08v.07l.33.35a.37.37,0,0,0,.24.06h0a2,2,0,0,0,.46,0l51.48.75a4.66,4.66,0,0,0,.77-.05l.14,0,.12,0,.22,0a4.61,4.61,0,0,0,.84-.25l22-9.2.32-.14c.1-.06.17-.12.17-.19l0,0-.23-.43,0,0-.07,0-.16,0-.08,0a.86.86,0,0,0-.31,0h0l-.07,0c-.14,0-.22.09-.2.14v0l0,0-.13.06-3.84,1.6-.6.25-2.49,1-.59.25-14.47,6a3.08,3.08,0,0,1-.59.17l-.16,0h-.06l-.12,0a2.85,2.85,0,0,1-.47,0l-51.48-.75h-.15a.82.82,0,0,0-.3,0" style="fill: #3f4563"/>
                    </g>
                  </g>
                </g>
              </g>
            </g>
          </g>
        </g>
      </g>
    </g>
  </g>
</svg>
