<svg xmlns="http://www.w3.org/2000/svg" viewBox="0 0 50 50"><path class="medium-blue" d="M7.5 14h-1a.5.5 0 0 1 0-1h1a.5.5 0 0 1 0 1zm5.5-.5a.5.5 0 0 0-.5-.5h-1a.5.5 0 0 0 0 1h1a.5.5 0 0 0 .5-.5zm5 0a.5.5 0 0 0-.5-.5h-1a.5.5 0 0 0 0 1h1a.5.5 0 0 0 .5-.5zm26 10v-3a.5.5 0 0 0-.5-.5h-37a.5.5 0 0 0-.5.5v3a.5.5 0 0 0 .5.5h37a.5.5 0 0 0 .5-.5zM7 21h36v2H7zM3 43.23a.81.81 0 0 1 0-.1V9.87A.87.87 0 0 1 3.87 9h42.26a.87.87 0 0 1 .87.87v14.27a1.5 1.5 0 0 0-.49-.09H46V18H4v24.43zM4 17h42v-7H4zm42.45 17a1.51 1.51 0 0 1-.45-.08V43H20.17l-.27.2a1.5 1.5 0 0 1-1.86 0l-.18-.2H8l-1.19 1h39.32a.87.87 0 0 0 .87-.87v-9.24a1.48 1.48 0 0 1-.55.11zm.4-8.8a.5.5 0 0 0-.35-.2h-7a.52.52 0 0 0-.5.5.5.5 0 0 0 .5.5h5.72l-10.7 9.77-3.16-3.16a.5.5 0 0 0-.65 0L19 41.36l-5.7-4.75a.5.5 0 0 0-.64 0l-11 9a.5.5 0 1 0 .63.77L13 37.65l5.68 4.74a.5.5 0 0 0 .62 0L31 33.66l3.19 3.19a.5.5 0 0 0 .69 0L46 26.68v5.81a.5.5 0 0 0 .5.5.5.5 0 0 0 .5-.5v-7a.5.5 0 0 0-.14-.29z"/></svg>