<svg id="web_security" data-name="web security" xmlns="http://www.w3.org/2000/svg" viewBox="0 0 609 357"><path id="computer" class="blue-stroke white" d="M484.95 268.64h-16.58m-3.1-8.56h16.58m9.31 17.12h-16.58m-13.5-8.56H444.5m13.5-8.56h-16.6m25.89 17.12h-16.58m-30.07-8.56h16.58m-3.1-8.56h-16.59m25.89 17.12h-16.58m-13.5-8.56h-16.57m13.48-8.56h-16.59m9.34 17.11h16.58m-406 74.08H595.3M498.56 22.56H109.41v210.92h389.15zm-191 312.71H.85s3.79 15.51 24 20.91h559.29c20.22-5.4 24-20.91 24-20.91zm-25.9 1.18a11 11 0 0 0 7.13 5.28h31.38a10.88 10.88 0 0 0 7.28-5.57m-229-49h416.88l-31.82-37.09H130.27zM228 268.64h16.6m-13.48-8.56h16.58m-25.89 17.12h112m-82-8.56h16.58M255 260.08h16.58m-25.89 17.12h16.58m13.5-8.56h16.58m-13.48-8.56h16.58m-25.89 17.12h16.58m13.5-8.56h16.56m-13.48-8.56h16.58m-25.89 17.12H310m74.71-8.56h-16.58m13.48-8.56H365m25.89 17.12h-16.56m-13.5-8.56h-16.57m13.48-8.56h-16.59M367 277.19h-16.54M337 268.64h-16.61m13.48-8.56h-16.58m25.89 17.12H326.6m-30.07-8.56h16.57m-19.68-8.56H310m9.31 17.12h-16.58m-175-8.56h16.58m-13.48-8.56h16.58m-25.89 17.12h16.58m13.5-8.56h16.58m-13.48-8.56h16.58m-25.89 17.12H162m13.5-8.56h16.58m-13.48-8.56h16.58m-25.89 17.12h16.58m13.5-8.56H216m-13.48-8.56h16.58m-25.89 17.12h16.58m-25.99 42.07h241.4l-10.42-17.47-216.28.36-14.7 17.11m424.35 15.65l-84.87-81.06V21.14S526.94.82 500.61.82H104c-26.35 0-22.69 20.32-22.69 20.32v232.73L.85 335.27"/><path class="blue-stroke" d="M197.78 91.51l.59-15.33-13-10m-48 102l24-21 3-26 13.72-6.33m8.24 4.72l-10 25.62 1 25 8 25-12 23m41-2l-5-28 7-27-11.15-29.73m-13.67 1.89l.82 16.84-6 12 8 10m37.5-92.5l-13.74 3.23-6.33 10L207.9 95m25.39 4.46l-6.77 2.82-7.9-2.77-8.07 9.7m-101.18-39l27 11 22-2 5 10 20.07-1.75M498 210.18l-23.67-15-50 4-169.83-90.13-14.62 3.25-28.88-.25m-55.58-35.26l-18-14.61-27-2m56.9 43.77l-20.9 9.23-25-1-12 23m61.91-31.39l-13.91 7.39-12 12 1 12-22 6-15 68.33M238 22.18l-31.67 9-9.63 19.66 16.67 16-6.09 17m-15.91 7.69L170.7 66.84l10-24.67-35.33-19m10.75 68.25l-9.42-.58-3.33 4.67"/><polygon class="blue" points="252.54 107.01 240.37 111.68 231.64 111.53 228.25 111.43 215.5 111.18 215 108.8 212.09 108.19 216.37 102.05 207.78 100.6 207.82 99.61 209.87 93.8 208.1 93.85 208.7 81.18 198.37 87.84 197.7 80.51 189.86 89.01 177.04 74.18 179.7 87.18 180.8 87.69 177.56 87.98 143.37 67.51 156.15 89.41 153.62 91.51 170.7 93.51 162.04 107.51 177.56 103.4 178.7 110.83 171.62 117.68 181.23 116.32 183.59 117.78 184.4 125.02 188.14 121.93 192.14 145.43 198.43 124.23 209.37 141.57 206.78 120.32 206.91 120.27 217.37 118.18 215.3 117.12 226.28 113 229.33 112.6 240.54 113.34 256.7 110.84 424.37 199.18 252.54 107.01"/></svg>