<svg id="WAF" xmlns="http://www.w3.org/2000/svg" viewBox="0 0 100 100"><g id="SVG_Icons" data-name="SVG Icons"><path class="svg-grey" d="M90.67,25.28l-6-3.36a.83.83,0,0,0-.21-.06,1.13,1.13,0,0,0-.69.14l-20,11.57a.87.87,0,0,0-.27.23,1.34,1.34,0,0,0-.38.14l-6.19,3.57c-.78-1.47-1.61-2.93-2.48-4.35-3.54-5.8-7.11-13.54-5.28-20.52.1-.41,1.14-2.4,0-2.26-.53.06-1.17,1-1.5,1.35a42.6,42.6,0,0,0-3.1,3.62c-2.62,3.45-5.18,7.81-4.81,12.3-2.3-4.07-3.62-8.8-2.66-13.47a17.76,17.76,0,0,1,4.74-8.71,19.17,19.17,0,0,1,1.9-1.71l.3-.23A24.38,24.38,0,0,0,46.1,2c.63-.66-.1-1-.72-.83s-1,.23-1.44.36l-.48.14A37.68,37.68,0,0,0,24.8,14.44a32.16,32.16,0,0,0-6.34,20.24c-.43-.51-2-2.22-2.77-1.92s-.16,1.85-.1,2.39c.1.91.18,1.83.22,2.75a33.34,33.34,0,0,1-.54,8.16c-.61,3-2,5.29-3.19,8C9.71,59.45,8.45,65.49,9.81,71.3a23,23,0,0,0,7,11.58c5.32,4.89,12.6,6.89,19.73,6.81v5.56a1.31,1.31,0,0,0,.58,1.07l5.18,3a.77.77,0,0,0,.49.14H43a.49.49,0,0,0,.19-.07L59.29,90a.9.9,0,0,0,.27-.21.61.61,0,0,0,.4-.12L80.3,78a1.15,1.15,0,0,0,.34-.32.91.91,0,0,0,.3-.11l9.71-5.61a.5.5,0,0,0,.25-.43l0-45.79A.52.52,0,0,0,90.67,25.28Zm-6.36-2.41h0l5.1,2.87L69.66,37l-4.92-2.88ZM59.86,55.38l20-11.54V54.06l-20,11.51-.06,0V55.38ZM43.39,75.12V64.87L58.86,56V66.18Zm4.55-1.47V84.14l-4.55,2.62V76.27l.13-.08Zm-4.55-9.94V53.22l4.55-2.6V61.09Zm5.55-3.2V50.05L69.2,38.46V48.84ZM63.62,34.8h.09l.06,0,4.89,2.8L48.5,49.14l-4.82-2.82.15-.09ZM47.91,13.63a21.33,21.33,0,0,0,.76,9.22C50.22,28.37,53.42,33,56.07,38h0l-5.41,3.12c-2.16-2.66-4.46-5.21-5.7-8.47a18.57,18.57,0,0,1-.66-10.49A26.62,26.62,0,0,1,47.91,13.63ZM41,24.69a22.61,22.61,0,0,1,4.52-8.84c-2.8,5.62-3.69,12.17-1.12,18-1.18-1.34-2.78-2.89-3.3-4.64A9.38,9.38,0,0,1,41,24.69ZM35.9,15.57c-.51,4.86,1.15,9.61,3.67,13.7,2.82,4.58,6.76,8.27,10.18,12.39l-6.53,3.77-.73-1a102.45,102.45,0,0,1-6.37-8.18,25.06,25.06,0,0,1-3.44-8.21c-1.35-6.44.75-12.85,4.73-17.94A17.1,17.1,0,0,0,35.9,15.57ZM10.7,70.67a25.62,25.62,0,0,1,1.48-14.24c.94-2.49,2.43-4.73,3.3-7.23,1.65-4.76,1.64-10,1-15a4.7,4.7,0,0,1,2.11,3.25A34.68,34.68,0,0,1,19,41.78a31.91,31.91,0,0,1-2.27,12.63,50.39,50.39,0,0,0-2.14,5.34,23.27,23.27,0,0,0-.83,7,23.62,23.62,0,0,0,14.4,21.08C19.81,85.7,12.52,79.25,10.7,70.67Zm25.89,2.42a.91.91,0,0,0-.09.41V84.25a1.27,1.27,0,0,0,.09.47s0,0,0,.06l-.12.09c-1.69,1.17-3.41-.45-4.62-1.5a23.23,23.23,0,0,1-3.58-4,23.5,23.5,0,0,1-3.15-6A25.52,25.52,0,0,1,26.27,54a27.18,27.18,0,0,1,4.25-6.36,25.62,25.62,0,0,0,3.05,14.15,3.91,3.91,0,0,0,.54.9c.46.43,1,.13.88-.48a24.33,24.33,0,0,0-.84-2.44,12.76,12.76,0,0,1,.48-7.56,6.66,6.66,0,0,0,1.87,3.18v5.84a1.27,1.27,0,0,0,.09.47.93.93,0,0,0-.09.42V72.62A1.27,1.27,0,0,0,36.59,73.09Zm.29-24-.1.09a1.15,1.15,0,0,0-.28.74v3.85a5.15,5.15,0,0,1-.32-.45,4.66,4.66,0,0,1-.68-2.21c0-.5.08-2.06-.86-1.21a5.89,5.89,0,0,0-1.06,2.16,13.27,13.27,0,0,0-.79,5.37,25.69,25.69,0,0,1-1.25-6.07,26.45,26.45,0,0,1,0-3.56c0-.57.49-2.57-.7-2a9.72,9.72,0,0,0-2.27,2.55,27.33,27.33,0,0,0-5.87,16.83,25.69,25.69,0,0,0,5.8,16.11A23.28,23.28,0,0,0,33,85.51,3.64,3.64,0,0,0,36.5,86v2.66l-.67,0A22.82,22.82,0,0,1,15.17,70.49a22.37,22.37,0,0,1,1.68-14A32.11,32.11,0,0,0,20,43.12c.08-3.88-.74-7.64-.49-11.53A31.23,31.23,0,0,1,21.9,21.37a31.79,31.79,0,0,1,11-13.27A38.51,38.51,0,0,1,43.47,2.72C39.86,5.9,36.37,9.07,34,13.37a22.58,22.58,0,0,0,.61,22.42c2.14,3.69,5.09,6.82,7.71,10.18a.91.91,0,0,0-.33.1Zm5.51,38.84V98.23l-4.8-2.77a.41.41,0,0,1-.09-.21V85.52l4.89,2.42Zm0-1.12-4.82-2.38a.44.44,0,0,1-.07-.19V73.87l4.89,2.42Zm0-11.64-4.83-2.4a.31.31,0,0,1-.06-.16V62.45l4.89,2.44Zm0-11.73v.32l-4.83-2.41a.32.32,0,0,1-.06-.17V50.36l4.89,2.86Zm.5-11.1-4.79-2.8,4.43-2.62.12,0,.08.05a.44.44,0,0,0,.16.06l4.61,2.7Zm16,36.72a.21.21,0,0,1-.07.11l-15.4,8.89V87.92L58.86,79Zm-9.92-5.51V73.07L69.2,61.37v10.5Zm30.93-6.67s0,0,0,0V77a.2.2,0,0,1-.06.09L59.86,88.62V78.41l20-11.55Zm10-5.67-9,5.22V66.28l9-5.21Zm0-11.31L70.2,71.29V60.87a.14.14,0,0,0,0-.06L89.91,49.42Zm0-11.65-9,5.22V43.27l9-5.21Zm0-11.36L70.2,48.26V37.89L89.92,26.6Z"/></g></svg>