<svg xmlns="http://www.w3.org/2000/svg" width="41" height="27.69" viewBox="0 0 41 27.69">
  <title>icon-gernade</title>
  <g id="Layer_2" data-name="Layer 2">
    <g id="Home_-_1200" data-name="Home - 1200">
      <g id="First_Module" data-name="First Module">
        <g id="Threats">
          <g id="icon">
            <circle cx="12.44" cy="15.25" r="11.94" style="fill: #fff;stroke: #3f4563;stroke-linecap: round;stroke-linejoin: round"/>
            <line x1="34.32" y1="10.97" x2="38.76" y2="8.53" style="fill: none;stroke: #3f4563;stroke-linecap: round;stroke-linejoin: round;stroke-dasharray: 2.1199028491973877,2.8265371322631836"/>
            <line x1="35.3" y1="13.52" x2="40.5" y2="14.3" style="fill: none;stroke: #3f4563;stroke-linecap: round;stroke-linejoin: round;stroke-dasharray: 2.1199028491973877,2.8265371322631836"/>
            <line x1="34.32" y1="15.75" x2="37.65" y2="19.62" style="fill: none;stroke: #3f4563;stroke-linecap: round;stroke-linejoin: round;stroke-dasharray: 2.1199028491973877,2.8265371322631836"/>
            <line x1="32.22" y1="16.74" x2="31.87" y2="21.37" style="fill: none;stroke: #3f4563;stroke-linecap: round;stroke-linejoin: round;stroke-dasharray: 2.1199028491973877,2.8265371322631836"/>
            <line x1="33.61" y1="10.43" x2="35.03" y2="8.53" style="fill: none;stroke: #3f4563;stroke-linecap: round;stroke-linejoin: round"/>
            <line x1="35.03" y1="12.03" x2="36.89" y2="11.63" style="fill: none;stroke: #3f4563;stroke-linecap: round;stroke-linejoin: round"/>
            <line x1="34.96" y1="14.85" x2="36.13" y2="15.39" style="fill: none;stroke: #3f4563;stroke-linecap: round;stroke-linejoin: round"/>
            <line x1="33.24" y1="16.48" x2="33.61" y2="17.69" style="fill: none;stroke: #3f4563;stroke-linecap: round;stroke-linejoin: round"/>
            <path d="M12.63,7.18s-9.05,0-9.4,8c0,0,.07,2.4.78.57a11.72,11.72,0,0,1,8.17-7.66S14.52,7.14,12.63,7.18Z" style="fill: none;stroke: #3f4563;stroke-linecap: round;stroke-linejoin: round"/>
            <g>
              <path d="M16.36,2.69c.8-1,3.31-.34,5.61,1.49S25.49,8.3,24.7,9.31s-3.31.34-5.61-1.49-3.52-4.13-2.72-5.13" style="fill: #fff;stroke: #3f4563;stroke-linecap: round;stroke-linejoin: round"/>
              <path d="M15,4.33c-.8,1,.42,3.3,2.72,5.13S22.58,12,23.38,11L24.6,9.41c-.8,1-3.31.34-5.61-1.49S15.47,3.8,16.26,2.79L14.9,4.58Z" style="fill: #fff;stroke: #3f4563;stroke-linecap: round;stroke-linejoin: round"/>
            </g>
            <line x1="32.61" y1="10.04" x2="33.87" y2="5.67" style="fill: none;stroke: #3f4563;stroke-linecap: round;stroke-linejoin: round;stroke-dasharray: 2.1199028491973877,2.8265371322631836"/>
            <path d="M20.88,5.82l4.51-4.51a3.6,3.6,0,0,1,4.39-.12,3.61,3.61,0,0,1,.92,4.63L27,9.56a3.36,3.36,0,0,0,4.13,4.74l1.44-1.09" style="fill: none;stroke: #3f4563;stroke-linecap: round;stroke-linejoin: round"/>
          </g>
        </g>
      </g>
    </g>
  </g>
</svg>
