<svg xmlns="http://www.w3.org/2000/svg" viewBox="0 0 50 50"><path class="medium-blue" d="M46.15 40.53l-1.95-8c-.63-3.21-1.1-4.41-5.68-5.46.42-8-.69-17.37-7.69-22.49a14.27 14.27 0 0 0-4.54-2.32c-1.61-.43-3 .19-4.41.91a16 16 0 0 0-3.36 2.31c-5.89 5.27-7.23 14-6.65 21.51h-.09c-4.87 1.06-5.34 2.24-6 5.5l-2 8.07a2.28 2.28 0 0 0 .3 1.77A2.86 2.86 0 0 0 6 43.52l4.62.89.32 3.09a.5.5 0 0 0 .5.45h27a.5.5 0 0 0 .5-.45l.31-3 4.76-1a2.86 2.86 0 0 0 1.86-1.22 2.28 2.28 0 0 0 .28-1.75zm-2.35 2l-4.45.9 1-10.12a1.91 1.91 0 0 0-1.9-2.1h-8.62a6.47 6.47 0 0 0 .85-2.63v-2.75a5.2 5.2 0 0 0 1.15-1.31 11.38 11.38 0 0 0 1.24-4.76 7 7 0 0 1 .09-.73c.08-.3.32-1 .53-1.64a16.48 16.48 0 0 1 3.44 12.52.5.5 0 0 0 .5.56c.34 0 .63 0 .82-2.45 4 .93 4.22 1.84 4.77 4.66l2 8.07a1.27 1.27 0 0 1-.17 1 1.86 1.86 0 0 1-1.26.79zm-5.59 2.17L38 47H11.9l-.24-2.34-.05-.52-.05-.52-1.09-10.39a.91.91 0 0 1 .9-1H38.5a.91.91 0 0 1 .9 1l-1.08 10.43-.05.52zm-32-2.16A1.86 1.86 0 0 1 5 41.76a1.27 1.27 0 0 1-.17-1l2-8.09c.57-2.89.74-3.77 5.16-4.73a6.13 6.13 0 0 0 .32 2.23c.27.36 1 .45.94-.25a16.42 16.42 0 0 1 3.5-12.35c.19.58.39 1.19.47 1.46a10 10 0 0 1 .25 1.59 12.31 12.31 0 0 0 .23 1.56 6.93 6.93 0 0 0 1.33 3 5.87 5.87 0 0 0 .85.78v2.69a6.46 6.46 0 0 0 .85 2.6h-9.35a1.91 1.91 0 0 0-1.9 2.1l1 10zM23 3.67a4.21 4.21 0 0 1 3-.5 12.85 12.85 0 0 1 4.26 2.17c5.42 4 7.22 11 7.36 17.43a16.3 16.3 0 0 0-5.43-8.28 1.09 1.09 0 0 0-.14-.12 13.49 13.49 0 0 0-1.37-1 10.44 10.44 0 0 0-5-1.58 11 11 0 0 0-6.12 1.87l-.1.07a14.59 14.59 0 0 0-1.76 1.34l-.35.33c-.27.25-.53.5-.78.78l-.19.24a16.85 16.85 0 0 0-3.6 6.64 28.54 28.54 0 0 1 2.17-10.84 17.28 17.28 0 0 1 4.27-6.09A15 15 0 0 1 22.34 4zm6.66 22.9v2a5.47 5.47 0 0 1-1.07 2.66h-6.65a5.46 5.46 0 0 1-1.07-2.63v-2a9.54 9.54 0 0 0 4.44 1.69 9.41 9.41 0 0 0 4.39-1.72zm0-1.18c-1.43 1.07-3.63 2.29-5.43 1.73a10.37 10.37 0 0 1-4.46-2.61 6 6 0 0 1-1.12-2.55 11.43 11.43 0 0 1-.21-1.43 10.88 10.88 0 0 0-.28-1.75 70.7 70.7 0 0 0-.67-2.08l.39-.39.18.76a1.14 1.14 0 0 0 .64.78 5.79 5.79 0 0 0 2.38.52 5.52 5.52 0 0 0 2.5-.6 1.15 1.15 0 0 0 .42-.36 6.53 6.53 0 0 0 1.09-2.92 6.52 6.52 0 0 0 1.09 2.92 1.15 1.15 0 0 0 .42.37 5.52 5.52 0 0 0 2.5.6 5.78 5.78 0 0 0 2.37-.52 1.14 1.14 0 0 0 .64-.78l.26-1.1c.2.18.38.37.57.57-.23.68-.62 1.82-.73 2.24a6.14 6.14 0 0 0-.12.9A10.58 10.58 0 0 1 31 24a5 5 0 0 1-1.35 1.39zm1.79-10.23a.14.14 0 0 1 .06.15l-.36 1.52a.15.15 0 0 1-.08.1 4.61 4.61 0 0 1-4.07-.12 5.45 5.45 0 0 1-.87-2.13 7.79 7.79 0 0 1 2.82-.39 12.54 12.54 0 0 1 2.48.86zm-6.12-1.23a.5.5 0 0 0-.24.46.5.5 0 0 0-.24-.46 6.41 6.41 0 0 0-2.3-.6 8.64 8.64 0 0 1 3.1-.5 8.43 8.43 0 0 1 2.35.47 6.58 6.58 0 0 0-2.67.63zm-4.07.35h.23a7.42 7.42 0 0 1 2.55.4 5.2 5.2 0 0 1-.92 2.18 4.63 4.63 0 0 1-4 .07.15.15 0 0 1-.08-.1l-.31-1.29a13.59 13.59 0 0 1 1.15-.86 13.63 13.63 0 0 1 1.38-.4z"/></svg>