<svg xmlns="http://www.w3.org/2000/svg" viewBox="0 0 170 104.25"><defs><style>.cls-1,.cls-11,.cls-5,.cls-7,.cls-8{fill:none;}.cls-1,.cls-11,.cls-2,.cls-3,.cls-4,.cls-5,.cls-7,.cls-8{stroke:#969c9c;}.cls-1,.cls-11,.cls-2,.cls-5,.cls-7,.cls-9{stroke-linecap:round;stroke-linejoin:round;}.cls-10,.cls-2,.cls-3,.cls-9{fill:#fff;}.cls-3,.cls-4,.cls-6,.cls-8{stroke-miterlimit:10;}.cls-5{stroke-dasharray:1.88 2.82;}.cls-6{fill:#969c9c;stroke-width:6px;}.cls-6,.cls-9{stroke:#fff;}.cls-7{stroke-dasharray:2.02 3.03;}.cls-9{stroke-width:4px;}.cls-11{stroke-dasharray:1.93 2.89;}</style></defs><title>icon-tool-box</title><g id="Layer_2" data-name="Layer 2"><g id="_1200" data-name="1200"><g id="Technical_Support" data-name="Technical Support"><rect class="cls-1" x="3.19" y="39.13" width="111.49" height="51.02"/><polyline class="cls-2" points="56.36 13.6 105.61 13.6 117.37 25.18 117.37 47.04 47.54 47.04 45.34 47.04 0.5 47.04 0.5 25.18 12.26 13.6 61.51 13.6"/><path class="cls-2" d="M64.08,48.9H52.78a1.68,1.68,0,0,0-1.61,1.73v6.91a1.73,1.73,0,0,0,.95,1.57l.64.84.4,4.36s.6,1.39,1.75,1.53h7.3C63.36,65.7,64,64.31,64,64.31l.39-4.25.1-.32.46-.73a1.76,1.76,0,0,0,.78-1.47V50.63A1.68,1.68,0,0,0,64.08,48.9Z"/><rect class="cls-3" x="51.95" y="39.64" width="3.69" height="5.99" rx="0.06" ry="0.06"/><rect class="cls-3" x="61.75" y="39.64" width="3.69" height="5.99" rx="0.06" ry="0.06"/><ellipse class="cls-4" cx="63.51" cy="42.72" rx="0.63" ry="0.68"/><ellipse class="cls-4" cx="53.8" cy="42.72" rx="0.63" ry="0.68"/><ellipse class="cls-4" cx="63.51" cy="52.6" rx="0.63" ry="0.68"/><ellipse class="cls-4" cx="53.8" cy="52.6" rx="0.63" ry="0.68"/><path class="cls-3" d="M60.42,40.08H57c-.59,0-1.08.73-1.08,1.63V56.18c0,.9.49,1.64,1.08,1.64h3.45c.59,0,1.08-.74,1.08-1.64V41.71C61.5,40.81,61,40.08,60.42,40.08Zm.42,15.22c0,.92-.5,1.66-1.1,1.66H57.65c-.6,0-1.1-.74-1.1-1.66V42.59c0-.91.5-1.66,1.1-1.66h2.09c.6,0,1.1.75,1.1,1.66Z"/><rect class="cls-3" x="56.83" y="39.77" width="3.88" height="7.15" rx="0.06" ry="0.06"/><rect class="cls-2" x="56.4" y="53.79" width="4.44" height="13" rx="0.07" ry="0.07"/><line class="cls-1" x1="108.35" y1="26.46" x2="115.86" y2="26.46"/><line class="cls-1" x1="94.98" y1="26.46" x2="95.98" y2="26.46"/><line class="cls-5" x1="98.8" y1="26.46" x2="106.77" y2="26.46"/><line class="cls-1" x1="108.18" y1="26.46" x2="109.18" y2="26.46"/><line class="cls-1" x1="10.61" y1="26.46" x2="3.09" y2="26.46"/><line class="cls-1" x1="23.97" y1="26.46" x2="22.97" y2="26.46"/><line class="cls-5" x1="20.16" y1="26.46" x2="12.18" y2="26.46"/><line class="cls-1" x1="10.77" y1="26.46" x2="9.77" y2="26.46"/><path class="cls-1" d="M89.2,13.6V12c0-.85-.39-1.55-.88-1.55H78.45c-.48,0-.87.7-.87,1.55v1.6Z"/><path class="cls-1" d="M40.75,13.6V12c0-.85-.4-1.55-.88-1.55H30c-.48,0-.87.7-.87,1.55v1.6Z"/><path class="cls-2" d="M36.79,10.45v-3c0-1.67,1-3,2.29-3H79.9c1.26,0,2.29,1.37,2.29,3v3h3.28V6.78C85.47,3.33,83.34.5,80.72.5H37.84c-2.61,0-4.75,2.83-4.75,6.28v3.67Z"/><path class="cls-6" d="M162.25,59.19V55.56l-5.89-3.16-1.83-7.62,3.67-6.09-1.63-3.13-6.52.63L145.45,31l.56-7.34-2.78-1.84L137.82,26l-6.76-2.06-2.81-6.64H125l-2.81,6.64L115.45,26l-5.4-4.14-2.78,1.84.56,7.34-4.6,5.19-6.53-.63-1.62,3.13,3.67,6.09L96.92,52.4,91,55.56v3.63l5.89,3.17L98.75,70l-3.67,6.08L96.7,79.2l6.53-.64,4.6,5.19-.56,7.35,2.78,1.83,5.4-4.13,6.77,2L125,97.49h3.22l2.81-6.64,6.77-2,5.4,4.13L146,91.1l-.56-7.35,4.6-5.19,6.52.64,1.63-3.14L154.53,70l1.83-7.62Zm-18.88-2.31c-.57,11-8.63,19.54-18,19-5.7-.34-10.57-3.94-13.38-9.19l.24-.17a22.77,22.77,0,0,1-.66-6.81c.55-10.79,8.43-19.09,17.59-18.55,5.91.35,11.15,4.39,13.8,10-.07-.36-.13-.73-.22-1.08l.24,1.11,0,0A23.26,23.26,0,0,1,143.37,56.88Z"/><path class="cls-2" d="M162.25,59.19V55.56l-5.89-3.16-1.83-7.62,3.67-6.09-1.63-3.13-6.52.63L145.45,31l.56-7.34-2.78-1.84L137.82,26l-6.76-2.06-2.81-6.64H125l-2.81,6.64L115.45,26l-5.4-4.14-2.78,1.84.56,7.34-4.6,5.19-6.53-.63-1.62,3.13,3.67,6.09L96.92,52.4,91,55.56v3.63l5.89,3.17L98.75,70l-3.67,6.08L96.7,79.2l6.53-.64,4.6,5.19-.56,7.35,2.78,1.83,5.4-4.13,6.77,2L125,97.49h3.22l2.81-6.64,6.77-2,5.4,4.13L146,91.1l-.56-7.35,4.6-5.19,6.52.64,1.63-3.14L154.53,70l1.83-7.62Zm-19.55-7.9h0a22.43,22.43,0,0,1,.67,5.6c-.57,11-8.63,19.54-18,19-5.7-.34-10.57-3.94-13.38-9.19l.24-.17a22.77,22.77,0,0,1-.66-6.81c.55-10.79,8.43-19.09,17.59-18.55,5.91.35,10.89,4.5,13.55,10.15"/><ellipse class="cls-7" cx="126.64" cy="57.38" rx="22.7" ry="25.57"/><ellipse class="cls-8" cx="126.64" cy="57.38" rx="16.95" ry="19.09"/><path class="cls-8" d="M113.18,68.75a21,21,0,0,1-1.72-8.38c0-10.54,7.59-19.09,17-19.09a16.3,16.3,0,0,1,13.25,7.19"/><path class="cls-9" d="M115.37,99.7,150.09,61a2.1,2.1,0,0,1,2.08-.7,11.7,11.7,0,0,0,2.62.3,12.42,12.42,0,0,0,9.34-4.36A15.74,15.74,0,0,0,168,45.75a16.37,16.37,0,0,0-1.21-6.19,1,1,0,0,0-.68-.59.86.86,0,0,0-.81.29l-7.41,8.28s-1.38-1.33-1.93-1.95l-1-1.15a3.29,3.29,0,0,1,0-4.18l5.62-6.34a1.15,1.15,0,0,0,.26-.92,1,1,0,0,0-.53-.76,11.93,11.93,0,0,0-5.5-1.36,12.4,12.4,0,0,0-9.33,4.35,15.77,15.77,0,0,0-3.87,10.53,16.27,16.27,0,0,0,.27,3,2.83,2.83,0,0,1-.63,2.34L106.51,89.72a7.52,7.52,0,0,0-1.83,5h0a7.47,7.47,0,0,0,1.83,5,5.78,5.78,0,0,0,8.86,0Z"/><path class="cls-2" d="M115.37,99.7,150.09,61a2.1,2.1,0,0,1,2.08-.7,11.7,11.7,0,0,0,2.62.3,12.42,12.42,0,0,0,9.34-4.36A15.74,15.74,0,0,0,168,45.75a16.37,16.37,0,0,0-1.21-6.19,1,1,0,0,0-.68-.59.86.86,0,0,0-.81.29l-7.41,8.28s-1.38-1.33-1.93-1.95l-1-1.15a3.29,3.29,0,0,1,0-4.18l5.62-6.34a1.15,1.15,0,0,0,.26-.92,1,1,0,0,0-.53-.76,11.93,11.93,0,0,0-5.5-1.36,12.4,12.4,0,0,0-9.33,4.35,15.77,15.77,0,0,0-3.87,10.53,16.27,16.27,0,0,0,.27,3,2.83,2.83,0,0,1-.63,2.34L106.51,89.72a7.52,7.52,0,0,0-1.83,5h0a7.47,7.47,0,0,0,1.83,5,5.78,5.78,0,0,0,8.86,0Z"/><path class="cls-2" d="M152.38,50.76a1.12,1.12,0,0,0,0-1.46.85.85,0,0,0-1.3,0l-2.59,2.93a1.08,1.08,0,0,0-.27.73,1.1,1.1,0,0,0,.27.73.85.85,0,0,0,1.3,0Z"/><path class="cls-2" d="M150.44,48.57a1.15,1.15,0,0,0,0-1.46.84.84,0,0,0-1.3,0L146.54,50a1.14,1.14,0,0,0,0,1.47.85.85,0,0,0,1.3,0Z"/><path class="cls-2" d="M154.33,53a1.12,1.12,0,0,0,0-1.46.84.84,0,0,0-1.3,0l-2.59,2.92a1.1,1.1,0,0,0-.27.73,1.08,1.08,0,0,0,.27.73.83.83,0,0,0,1.29,0Z"/><path class="cls-2" d="M111,93.08l29.54-33.27a2.58,2.58,0,0,1,3.5-.43,2.57,2.57,0,0,0-.38-.55l-.1-.11a2.6,2.6,0,0,0-4,0L110.05,92a3.48,3.48,0,0,0,0,4.5l.09.11a2.8,2.8,0,0,0,.49.43A3.49,3.49,0,0,1,111,93.08Z"/><line class="cls-10" x1="156.81" y1="46.38" x2="163.43" y2="53.49"/><line class="cls-1" x1="156.81" y1="46.38" x2="157.49" y2="47.11"/><line class="cls-11" x1="159.46" y1="49.23" x2="161.76" y2="51.7"/><line class="cls-1" x1="162.75" y1="52.76" x2="163.43" y2="53.49"/><line class="cls-1" x1="156.65" y1="46.2" x2="160.93" y2="50.81"/><path class="cls-9" d="M141.61,68.43a1.59,1.59,0,0,1-1.39-1.49l-.52-6,0-.08L129.43,71.83l.07,0,5.61.59A1.62,1.62,0,0,1,136.5,74l.56,6.08v0l18.4,19.77a7,7,0,0,0,10.06.59,8.18,8.18,0,0,0,.36-11.34l-18.61-20-.07,0Z"/><polygon class="cls-9" points="105.23 32.51 103.08 31.48 102.12 32.51 103.09 34.81 133.45 67.51 135.59 65.21 105.23 32.51"/><path class="cls-2" d="M141,67.76a1.61,1.61,0,0,1-1.39-1.5l-.52-6,0-.08-10.24,11,.07,0,5.61.59a1.6,1.6,0,0,1,1.38,1.49l.57,6.08s0,0,0,0l18.4,19.77a7,7,0,0,0,10.06.59,8.18,8.18,0,0,0,.36-11.34l-18.61-20-.07,0Z"/><path class="cls-2" d="M158.1,95.44,143.44,79.68a2.76,2.76,0,0,1,0-3.7l.06-.07a2.32,2.32,0,0,1,3.44,0L161.6,91.67a2.75,2.75,0,0,1,0,3.69l-.06.08A2.33,2.33,0,0,1,158.1,95.44Z"/><polygon class="cls-2" points="134.96 64.53 104.59 31.83 102.45 30.8 101.49 31.83 102.45 34.13 132.82 66.83 134.96 64.53"/><path class="cls-1" d="M132.89,69.7l3.23.86a2,2,0,0,1,1.2,1.77l.51,3.61"/><line class="cls-1" x1="148.44" y1="72.43" x2="163.39" y2="88.5"/><line class="cls-1" x1="140.22" y1="81.26" x2="155.17" y2="97.33"/></g></g></g></svg>