<svg xmlns="http://www.w3.org/2000/svg" xmlns:xlink="http://www.w3.org/1999/xlink" width="494.51" height="361.08" viewBox="0 0 494.51 361.08">
  <defs>
    <linearGradient id="linear-gradient" x1="422.68" y1="183.44" x2="419.21" y2="189.46" gradientUnits="userSpaceOnUse">
      <stop offset="0" stop-color="#8c949a"/>
      <stop offset="1" stop-color="#686e73"/>
    </linearGradient>
    <linearGradient id="linear-gradient-2" x1="467.42" y1="180.63" x2="463.94" y2="186.65" xlink:href="#linear-gradient"/>
    <linearGradient id="linear-gradient-3" x1="402.6" y1="160.63" x2="399.12" y2="166.65" xlink:href="#linear-gradient"/>
    <linearGradient id="linear-gradient-4" x1="352.95" y1="111.65" x2="362.09" y2="111.65" gradientUnits="userSpaceOnUse">
      <stop offset="0" stop-color="#969696"/>
      <stop offset="0.06" stop-color="#e8e8e8"/>
      <stop offset="0.4" stop-color="#969696"/>
      <stop offset="0.75" stop-color="#fff"/>
      <stop offset="1" stop-color="#969696"/>
    </linearGradient>
    <linearGradient id="linear-gradient-5" x1="-4680.74" y1="103.25" x2="-4673.19" y2="103.25" gradientTransform="matrix(-1, 0, 0, 1, -4310.46, 0)" gradientUnits="userSpaceOnUse">
      <stop offset="0" stop-color="#2e3a36"/>
      <stop offset="1" stop-color="#1d2622"/>
    </linearGradient>
    <linearGradient id="linear-gradient-6" x1="113.69" y1="189.48" x2="380.26" y2="189.48" gradientUnits="userSpaceOnUse">
      <stop offset="0" stop-color="#03a9f4"/>
      <stop offset="0.69" stop-color="#969c9c"/>
    </linearGradient>
    <linearGradient id="linear-gradient-7" x1="113.69" y1="195.31" x2="383.65" y2="195.31" xlink:href="#linear-gradient-6"/>
    <linearGradient id="linear-gradient-8" x1="110.96" y1="185.17" x2="378.29" y2="185.17" gradientUnits="userSpaceOnUse">
      <stop offset="0" stop-color="#03a9f4"/>
      <stop offset="1" stop-color="#969c9c"/>
    </linearGradient>
    <linearGradient id="linear-gradient-9" x1="106.88" y1="180.89" x2="374.86" y2="180.89" gradientUnits="userSpaceOnUse">
      <stop offset="0" stop-color="#03a9f4"/>
      <stop offset="0.43" stop-color="#969c9c"/>
    </linearGradient>
    <linearGradient id="linear-gradient-10" x1="101.43" y1="179.01" x2="371.22" y2="179.01" gradientUnits="userSpaceOnUse">
      <stop offset="0" stop-color="#03a9f4"/>
      <stop offset="0.75" stop-color="#969c9c"/>
    </linearGradient>
    <linearGradient id="linear-gradient-11" x1="72.81" y1="180.53" x2="365.67" y2="180.53" gradientUnits="userSpaceOnUse">
      <stop offset="0" stop-color="#03a9f4"/>
      <stop offset="0.58" stop-color="#969c9c"/>
    </linearGradient>
    <linearGradient id="linear-gradient-12" x1="109.6" y1="174.23" x2="364.35" y2="174.23" xlink:href="#linear-gradient-8"/>
  </defs>
  <title>icon-without-cdn</title>
  <g id="Layer_2" data-name="Layer 2">
    <g id="cWatch_CDN" data-name="cWatch CDN">
      <g id="_575" data-name="575">
        <g id="The_Smarter_Way" data-name="The Smarter Way">
          <g id="Without_CDN" data-name="Without CDN">
            <g id="Illustration">
              <path d="M.51,263.91c0-1.91.92-2.22,1.26-2.42l63.94-36.92a3.25,3.25,0,0,1,2.93.12l63.42,36.62a2.78,2.78,0,0,1,1.54,2.78s-.35-1.51-1.34-1L68,299.65a1.45,1.45,0,0,0-.91,1.52s-.74-1.54-2-1.57h0L3,264.38c-2.41-1.44-2.44-.47-2.44-.47" style="fill: #fff;stroke: #969c9c;stroke-linecap: round;stroke-linejoin: round"/>
              <g>
                <path d="M468.76,197.74a66.07,66.07,0,0,0,6-3c24.82-14.33,24.82-37.56,0-51.89s-65.06-14.33-89.88,0a54.6,54.6,0,0,0-5.27,3.46l-40.87-23.6-71.56,39.94L423,252.2l71.56-39.94Z" style="fill: #edf0f3;opacity: 0.6000000000000001"/>
                <g>
                  <path d="M442.66,146.56c2.12,1.23,2.12,3.21,0,4.44a8.5,8.5,0,0,1-7.69,0c-2.12-1.23-2.12-3.21,0-4.44A8.5,8.5,0,0,1,442.66,146.56Z" style="fill: #b5bbc0"/>
                  <g>
                    <path d="M423.89,184l-2.34-1.31a1.78,1.78,0,0,0-1.78.18,5.59,5.59,0,0,0-2.53,4.38,1.77,1.77,0,0,0,.75,1.64l2.34,1.31a1.78,1.78,0,0,0,1.78-.18,5.59,5.59,0,0,0,2.53-4.38A1.77,1.77,0,0,0,423.89,184Z" style="fill: url(#linear-gradient)"/>
                    <g>
                      <path d="M468.62,181.21l-2.34-1.31a1.78,1.78,0,0,0-1.78.18,5.59,5.59,0,0,0-2.53,4.38,1.77,1.77,0,0,0,.75,1.64l2.33,1.31a1.78,1.78,0,0,0,1.78-.18,5.59,5.59,0,0,0,2.53-4.38A1.77,1.77,0,0,0,468.62,181.21Z" style="fill: #edf0f3"/>
                      <path d="M468.62,181.21l-2.34-1.31a1.78,1.78,0,0,0-1.78.18,5.59,5.59,0,0,0-2.53,4.38,1.77,1.77,0,0,0,.75,1.64l2.33,1.31a1.78,1.78,0,0,0,1.78-.18,5.59,5.59,0,0,0,2.53-4.38A1.77,1.77,0,0,0,468.62,181.21Z" style="fill: url(#linear-gradient-2)"/>
                      <path d="M468.62,181.21l-2.34-1.31a1.78,1.78,0,0,0-1.78.18,5.59,5.59,0,0,0-2.53,4.38,1.77,1.77,0,0,0,.75,1.64l2.33,1.31a1.78,1.78,0,0,0,1.78-.18,5.59,5.59,0,0,0,2.53-4.38A1.77,1.77,0,0,0,468.62,181.21Z" style="fill: none;stroke: #969c9c;stroke-linecap: round;stroke-linejoin: round"/>
                    </g>
                    <path d="M476,154.34,473.68,153a1.78,1.78,0,0,0-1.78.18,5.6,5.6,0,0,0-2.53,4.38,1.77,1.77,0,0,0,.75,1.64l2.34,1.31a1.78,1.78,0,0,0,1.78-.18,5.59,5.59,0,0,0,2.53-4.38A1.77,1.77,0,0,0,476,154.34Z" style="fill: #fff;stroke: #969c9c;stroke-linecap: round;stroke-linejoin: round"/>
                    <path d="M403.8,161.21l-2.34-1.31a1.79,1.79,0,0,0-1.78.18,5.6,5.6,0,0,0-2.53,4.38,1.77,1.77,0,0,0,.75,1.64l2.34,1.31a1.78,1.78,0,0,0,1.78-.18,5.59,5.59,0,0,0,2.53-4.38A1.77,1.77,0,0,0,403.8,161.21Z" style="fill: url(#linear-gradient-3)"/>
                    <path d="M476.91,150.09a3.74,3.74,0,0,0-1.38-3.12c-.59-.37-2.48,0-2.48,0l-28.79,8.42v-6.61a2.7,2.7,0,0,0-1.59-2.22,8.5,8.5,0,0,0-7.69,0,2.7,2.7,0,0,0-1.59,2.22v7.58l-34.12-3.1s-1.49.21-1.84,1.19a18,18,0,0,0-1,4.59,2.35,2.35,0,0,0,2.39,2.71c1.51.19,24.35,2.63,31.52,3.4h0c-3.8,4.35-11.59,13.59-11.59,13.59a6.25,6.25,0,0,0-.87,2.75c-.09,1.56-.23,3.86-.23,3.86a2,2,0,0,0,2.2,1.1c1.79-.09,2.8-1.1,4.84-3.14S438,169.09,438,169.09v0a8.62,8.62,0,0,0,4.18-.62v.08s19.73,11.87,22.88,13.56,4.36-.61,4.36-.61,0-2.34-.12-4a6.34,6.34,0,0,0-1.33-3.15s-14.81-9.08-18.44-11.06c-.27-.15-.53-.3-.78-.45h0c5.87-1.67,20.75-5.91,22.88-6.53,2.66-.78,5.33-1.88,5.33-1.88S477,151.88,476.91,150.09Z" style="fill: #fff;stroke: #969c9c;stroke-linecap: round;stroke-linejoin: round"/>
                    <path d="M437.6,161.16a8.52,8.52,0,0,0-1.88,1.62s-11.83,14.13-12.74,15.3a4.33,4.33,0,0,1-3.39,1.64.92.92,0,0,1-.81-1s11.11-13.18,13.27-15.48a11.48,11.48,0,0,0,1.33-1.68v-3.48a6.57,6.57,0,0,0,1.92,2A14.15,14.15,0,0,0,437.6,161.16Z" style="fill: #c3c9ce"/>
                    <path d="M475.53,147c-.59-.37-2.48,0-2.48,0l-28.79,8.42v1.4L474,148.7s1.63-.47,2.09-1.24A2.11,2.11,0,0,0,475.53,147Z" style="fill: #c3c9ce"/>
                    <path d="M397.51,154.28a3.42,3.42,0,0,0,2,.93l33.86,2.86v-1.71l-34.12-3.1A2.63,2.63,0,0,0,397.51,154.28Z" style="fill: #c3c9ce"/>
                  </g>
                  <path d="M476.05,117.92a10.32,10.32,0,0,1,0,7.07c-1.4,3.84-7.58,10.09-13.75,13.59s-15.75,9-21.67,10.64-14.25-1.31-18.81-3.57-21-13.18-23.5-17.09-1.65-7.34,2.54-11.74,15.95-11.46,22-13.8,14.88-3.57,21.34-2.33S471.95,113.81,476.05,117.92Z" style="fill: #edf0f3;stroke: #969c9c;stroke-miterlimit: 10"/>
                  <path d="M408.26,111c.38-2.92,1.27-7.29,2.67-9.77,1.89-3.34,7.8-8.28,12.13-9.69,6.32-2.06,13.09-1.15,14.89-.85-.42-1.75-.78-3.64-1.06-5.56h-.28c-3.43,0-17.36-.54-25.8,8.49-5.94,6.37-6.15,10.39-6.6,14.78l-.59,5.94C405,113.28,406.56,112.14,408.26,111Z" style="fill: #fff;stroke: #969c9c;stroke-miterlimit: 10"/>
                  <path d="M473.83,119a27.22,27.22,0,0,1-7.69,8c-5,3.36-19.15,11.6-22.72,13.18s-9.33,3.64-16.88,0-18.74-10.85-21.69-13.66-6.25-5.17-2.26-9.75,17.64-11.88,21.83-13.45,14.34-3.36,19.56-2.13S472.94,114.09,473.83,119Z" style="fill: #fff"/>
                  <path d="M469.93,116.84a11.36,11.36,0,0,0,3.26,2.13,6.36,6.36,0,0,0,3.15.51c3.33-.39,5.46-5.28,6.45-7.36a86.18,86.18,0,0,0,4.55-19.58c.43-6.41-.41-28.57-.48-33.37s-.51-12.26-4-16.63-13.28-11-18.14-12.83-11.69-4-14.48-1.64-6.89,15-8.16,20.1-5,19.51-5.63,25.56.7,15.28,2.66,20.9,3.68,6.55,8.31,8.94,7.7,3.56,10.79,5.49S468.69,115.83,469.93,116.84Z" style="fill: #fff;stroke: #969c9c;stroke-linecap: round;stroke-linejoin: round"/>
                  <path d="M459,108.27s-6-3.58-9.42-5.1-7.2-2.51-8.52-5.88a53.62,53.62,0,0,1-3.87-18.39c-.26-8.7,2.35-16.91,3.17-20.57S445,41,446.55,36.92s3.37-6.3,4.86-7S462.72,32.39,468,36.3s9.14,6.75,10.37,11.93,1.19,18.63,1.07,25.49-.21,22.86-1.48,27.92a70,70,0,0,1-4.73,12.92c-.78,1.19-1.61,2.72-4.53.37A106.4,106.4,0,0,0,459,108.27Z" style="fill: #fff;stroke: #969c9c;stroke-linecap: round;stroke-linejoin: round"/>
                </g>
                <g>
                  <path d="M388.09,87.49s1.49-1.92,2-1.37.66.82.22,1.41-3.19,4.9-2.71,5.46,3.87-2,5.32-3.69,2.55-4.77,3.84-6.56A23,23,0,0,1,400.6,79l-3.42-2.83a26.44,26.44,0,0,0-4.81.72c-1.37.51-5.85,2.23-7.63,2.6s-4.91,1.71-6.23,3.84-2.08,3.17-1.19,3.43a3,3,0,0,0,2-.31s-1.93,5.92-.38,6.3,2.25-1.3,2.25-1.3-.23,3.06.82,3.54a1.45,1.45,0,0,0,1.72-.31s1,1.34,1.93-.94Z" style="fill: #fff;stroke: #03a9f4;stroke-linecap: round;stroke-linejoin: round"/>
                  <path d="M378.9,92.75c1.55.38,2.25-1.3,2.25-1.3s-.23,3.06.82,3.54a1.43,1.43,0,0,0,1.58-.18s0-4.29.83-6.32,1.27-2.42,1.36-3.14.83-1-.91-2.12-2.56-1.55-2.53-2.09c0-.16,0-.48,0-.83a8.84,8.84,0,0,0-3.81,3c-1.33,2.13-2.08,3.17-1.19,3.43a3,3,0,0,0,2-.31S377.34,92.37,378.9,92.75Z" style="fill: #d88f69"/>
                </g>
                <g>
                  <g>
                    <path d="M409.1,174.36a51.83,51.83,0,0,0-1.33-7.58A19.65,19.65,0,0,1,401,168.7a15.56,15.56,0,0,1-5.94-.67s-3,4.66-5.94,6.32-6.5,2.68-9.09,4.9-5.5,6.12-4.61,8.17,7.58,3.43,13,.28c3.5-2,6.58-5.85,10-6.91C398.47,180.79,409.06,177.74,409.1,174.36Z" style="fill: #fff;stroke: #969c9c;stroke-linecap: round;stroke-linejoin: round"/>
                    <path d="M409,174.74c-.78,3.23-10.57,6-10.57,6-3.44,1.07-6.52,4.88-10,6.91-5.43,3.16-12.11,1.76-13-.28a1.89,1.89,0,0,1-.11-.36,2.45,2.45,0,0,0,.11,1.42c.9,2,7.58,3.43,13,.28,3.5-2,6.58-5.84,10-6.91,0,0,1.57-.45,3.5-1.2l.15,1.21a21.82,21.82,0,0,0,6.51-3.53l.47-2.64h0a2,2,0,0,0,0-.28S409.08,175.16,409,174.74Z" style="fill: #969c9c;fill-rule: evenodd"/>
                  </g>
                  <path d="M447.74,117.2l-2.83-12.7,1.43-7.09c-9.62-3.07-14.58-7.84-14.58-7.84a8.26,8.26,0,0,1-2.65,3.62s-24.3,10.52-32.12,16.61c-11,8.57-9.27,13.95-7,26.63s.17,35-.85,37.92c0,0,12.62,4.65,20-1.8,0,0,2.57-29.17-.42-42.53C408.7,130,441.74,120.26,447.74,117.2Z" style="fill: #fff;stroke: #969c9c;stroke-linecap: round;stroke-linejoin: round"/>
                  <g>
                    <path d="M410.58,184.09s-1.86,6.87-4.64,9.09-9,11.41-4.83,13.55,14.2-1.11,15.4-4.82,2.14-7.33,3.25-8.81,4.09-6,1.54-11.08c0,0-2.64,4.46-6.41,3.73S410.58,184.09,410.58,184.09Z" style="fill: #fff;stroke: #969c9c;stroke-linecap: round;stroke-linejoin: round"/>
                    <path d="M422.3,186.05a12,12,0,0,1-2.54,7c-1.11,1.48-2,5.1-3.25,8.81s-11.23,7-15.4,4.82a2.48,2.48,0,0,1-1.36-2,2.82,2.82,0,0,0,1.36,3.13c4.18,2.14,14.2-1.11,15.4-4.82s2.14-7.33,3.25-8.81S423.15,190.26,422.3,186.05Z" style="fill: #969c9c;fill-rule: evenodd"/>
                  </g>
                  <path d="M468.8,98.29s-11.71,1.81-22.46-.88l-3,8.5c-5.87,5.18-26.06,15.92-28.86,18.91-3.29,3.51-5.23,16.09-5.35,30.2s-1.33,31.35-1.33,31.35-.23,5,4.53,5.32,12.09-6.79,12.09-6.79,5.18-16.61,5.52-24.56c.26-6.12-.08-17.66-.08-17.66S458.27,129.2,464.61,123,470.73,104.75,468.8,98.29Z" style="fill: #fff;stroke: #969c9c;stroke-linecap: round;stroke-linejoin: round"/>
                </g>
                <path d="M450.77,26.71l-13,3.5c-.65,4.33-2.59,16.28,6.41,17.15S456.83,34,456.83,34C453.76,32.38,450.77,26.71,450.77,26.71Z" style="fill: #fff;stroke: #969c9c;stroke-miterlimit: 10"/>
                <path d="M455.66,32.53s-6.56,14-14,11.88c-5.52-1.56-3.54-12.34-3.54-12.34s-10.7,6.76-12,14.53,4.28,18.4,7.66,27.27-3.65,18.33-3.65,18.33-2.32,6.5,14.21,10.71S470.75,100,470.75,100s5.48-31.62,4.62-42.44C474,41.1,469.3,35.83,455.66,32.53Z" style="fill: #fff;stroke: #969c9c;stroke-linecap: round;stroke-linejoin: round"/>
                <path d="M426.16,46.59c.5-3.12,2.54-6.08,4.78-8.5-5.86,1.33-14,24.72-14,24.72a94.92,94.92,0,0,0-12,7c-3.6,2.71-15,7.82-15,7.82s5.9,1.7,6.6,6.27c0,0,22.17-5.57,25.81-7.55,1.72-.93,5.43-6.32,8.36-10.14C427.9,59.33,425.26,52.22,426.16,46.59Z" style="fill: #fff;stroke: #969c9c;stroke-linecap: round;stroke-linejoin: round"/>
                <g>
                  <path d="M427.52,8.46a19.73,19.73,0,0,0-2.9,7.5,19.19,19.19,0,0,0,.06,6.92,11.3,11.3,0,0,1,.39,3.07,27.85,27.85,0,0,0,1.58,6.38c.77,2.07,1.61,8.24,4.36,9.27s9.31.83,15-6S452.25,20,452.4,17.13,450.43,3.8,442.1,2,427.52,8.46,427.52,8.46Z" style="fill: #fff;stroke: #969c9c;stroke-linecap: round;stroke-linejoin: round"/>
                  <path d="M452.13,12.09l-.07-.22c.56.56.92.91.92.9a18.32,18.32,0,0,0-.9-2.43,9.43,9.43,0,0,0-1.32-2.09,6.77,6.77,0,0,0,.83.16S451,7.83,450.24,7a10.27,10.27,0,0,0-1.53-1.43,5.7,5.7,0,0,0-.55-.36l-.27-.29c.72.18,1.18.35,1.18.34a7.77,7.77,0,0,0-1.6-1.56,6.53,6.53,0,0,0-2.15-1,5.73,5.73,0,0,0-.73-.14c.91-.31,1.54-.45,1.54-.46a8.18,8.18,0,0,0-2.24-.46,11.41,11.41,0,0,0-2.52.13l-.28,0c.44-.54.72-.93.71-.93a11.27,11.27,0,0,0-1.6.34,6.46,6.46,0,0,0-.73.27,5.1,5.1,0,0,0-.83-.81,6.85,6.85,0,0,0-.42.94,10.5,10.5,0,0,0-.59-.92,10.44,10.44,0,0,0-.37,1.31l-.12,0A8.41,8.41,0,0,0,436.06.5s-.08.56-.13,1.35a9.76,9.76,0,0,0-.64-.76,6.84,6.84,0,0,0-.29,1,2.81,2.81,0,0,0-.46-.19,4,4,0,0,0-1.09-.21s.11.37.26.84a6.17,6.17,0,0,0-1.81-.09,5.38,5.38,0,0,0,.46.94,13.59,13.59,0,0,1-2.3-.42,7.44,7.44,0,0,0,1.05.73c-.45-.09-.76-.19-.76-.19a3.12,3.12,0,0,0,.19.5,8.35,8.35,0,0,0-2.07-.19s.53.36,1.29.94l-1.27,0s.13.21.36.51l-.21,0a4.82,4.82,0,0,0-2.19.19,7.6,7.6,0,0,1,1.86.88h-.19c-.75,0-1.32.08-1.32.08s.16.21.45.5c-.53,0-1-.09-1.49-.15a15.67,15.67,0,0,1-2.55-.53,8.64,8.64,0,0,0,2.25,1.61l.21.1-.8-.18a11.51,11.51,0,0,0,1.29,1.42l.07.06a14,14,0,0,0-1.41-.59A14.92,14.92,0,0,0,422.23,8s.87.66,2.07,1.66l.79.67a10.18,10.18,0,0,0-2.66-.49,5.81,5.81,0,0,0-2.81.4,7.75,7.75,0,0,1,2.61.7c.32.13.66.29,1,.46a13.22,13.22,0,0,0-1.46.49c-1.47.61-2.4,1.07-2.41,1.06a19.25,19.25,0,0,0,2.67,0h1.25l-3,.51-.84.17-.13,0s-.05,0,0,0,0,0,0,0h.14l.86.09c.57.06,1.33.13,2.23.2-.35.21-.69.42-1,.62-1.46,1-2.33,1.8-2.35,1.79s1.19-.3,2.86-.8c.66-.19,1.4-.4,2.16-.55-1.36,1-2.2,1.66-2.21,1.66s.47-.13,1.25-.38l-.1.1.16,0L421,17.84s1.24-.28,3.08-.85L423,18.09a22,22,0,0,0,2.41-1.16l.13.16-.05.15c-.12.4-.19.73-.26,1a4.23,4.23,0,0,1-.31.82,3.51,3.51,0,0,0,.63-.68l.53-.77c.08.07.17.14.26.2-.29,1-.42,1.58-.42,1.58s.49-.48,1.19-1.25l.29.06c-.12,1-.22,1.66-.22,1.67a8.08,8.08,0,0,0,.84-.93c-.07.65-.1,1.1-.11,1.3l-.12.2a8.61,8.61,0,0,0,2.1-1.71c.3-.31.6-.67.91-1l.18,0a6.31,6.31,0,0,1-.29.89,7.11,7.11,0,0,1-1.55,2.19,6.61,6.61,0,0,0,.75-.3,5.48,5.48,0,0,0,1.72-1.28,3.85,3.85,0,0,1-.16.46,2.87,2.87,0,0,1-.31.55,2.26,2.26,0,0,0,.58-.33,5.45,5.45,0,0,0,1.19-1.34c.31-.45.62-1,.92-1.54l.08,0c0,.3-.07.57-.1.83-.16,1.85-.39,3.08-.39,3.08a15.09,15.09,0,0,0,1.32-2.48c.07,1.09.19,1.73.17,1.73s.15-1.24.58-3.11a3.94,3.94,0,0,0,0,.58,4,4,0,0,0,.18.7,5.3,5.3,0,0,1,.57-1.61h.16c-.1.61-.15,1-.15,1a4.78,4.78,0,0,0,.85-.44c-.18,1.14-.23,1.89-.23,1.89s.23-.29.59-.79a2.57,2.57,0,0,0,1.21-.31h0a11.67,11.67,0,0,1-.69,1.13,4.14,4.14,0,0,0,1.54-.46l0,0,.08.13,0,.12a6.25,6.25,0,0,1-1.15,1.76A4.3,4.3,0,0,0,440,20a12.51,12.51,0,0,1,0,1.33,6.88,6.88,0,0,1-.55.72,3.59,3.59,0,0,0,1.64-.45l.06,0a6.64,6.64,0,0,1,2.77,2.9c.45,1.17,2.38,2.87,3.15,1.16a6.5,6.5,0,0,1,2.73-2.7,8.48,8.48,0,0,0,.57,1.73,5.75,5.75,0,0,0,1.41,1.94,4.66,4.66,0,0,0,2,1,7.1,7.1,0,0,1-1.1-1.74,5.67,5.67,0,0,1-.33-1,6.9,6.9,0,0,0,1.38.75,15.7,15.7,0,0,1-1.06-1.86l-.14-.32.18.14a5.29,5.29,0,0,0,1.68.82,13.4,13.4,0,0,1-.84-1.55,6.4,6.4,0,0,1-.58-2.41,10.91,10.91,0,0,0,1,1.18l-.32-2.06c-.11-.66-.25-1.46-.48-2.3a12.29,12.29,0,0,0-.11-1.47l.46.61A11.36,11.36,0,0,0,453,14,9.93,9.93,0,0,0,452.13,12.09Z" style="fill: #fff;stroke: #969c9c;stroke-linecap: round;stroke-linejoin: round"/>
                  <path d="M448.08,23c.65-1.48,4-3.3,4.06.38s-1.8,7-4.72,7.28C446.12,30.72,447.33,24.66,448.08,23Z" style="fill: #fff;stroke: #969c9c;stroke-linecap: round;stroke-linejoin: round"/>
                  <path d="M427.85,24.89c-.57-.91-2.87-2.55-3.63-2.45a.48.48,0,0,0-.28.14c-.53.55.05,3.94.44,4.83s2,2.23,3,2.08l.11,0a1,1,0,0,0,.64-.69A5.1,5.1,0,0,0,427.85,24.89Zm-.27,3.67c-.1.24-.19.31-.22.32h0c-.65.09-2.08-1-2.37-1.72a11.89,11.89,0,0,1-.58-4.11,7.62,7.62,0,0,1,3,2.16A4.52,4.52,0,0,1,427.58,28.56Z" style="fill: #969c9c"/>
                  <path d="M427.33,25.22a7.62,7.62,0,0,0-3-2.16,11.89,11.89,0,0,0,.58,4.11c.3.7,1.72,1.81,2.37,1.72h0s.12-.08.22-.32A4.52,4.52,0,0,0,427.33,25.22Z" style="fill: #fff;opacity: 0.5"/>
                  <path d="M435.62,31.34h0a8.7,8.7,0,0,1-4.6-.67,3.65,3.65,0,0,1-1.44-2.58,2.92,2.92,0,0,1,.43-2.27,1.44,1.44,0,0,1,.89-.35c1.72-.24,6.33.29,7.23,1.13a1.28,1.28,0,0,1,.37.94,5.31,5.31,0,0,1-1.21,3.09A2.81,2.81,0,0,1,435.62,31.34ZM431,26.07c-.43.06-.52.15-.52.15A2.41,2.41,0,0,0,430.2,28a3.07,3.07,0,0,0,1.16,2.15,8.24,8.24,0,0,0,4.18.58h0a2.27,2.27,0,0,0,1.32-.53,4.72,4.72,0,0,0,1-2.65.74.74,0,0,0-.17-.51C437.07,26.43,432.8,25.82,431,26.07Z" style="fill: #969c9c"/>
                  <g style="opacity: 0.5">
                    <path d="M431,26.07c-.43.06-.52.15-.52.15A2.41,2.41,0,0,0,430.2,28a3.07,3.07,0,0,0,1.16,2.15,8.24,8.24,0,0,0,4.18.58h0a2.27,2.27,0,0,0,1.32-.53,4.72,4.72,0,0,0,1-2.65.74.74,0,0,0-.17-.51C437.07,26.43,432.8,25.82,431,26.07Z" style="fill: #fff"/>
                  </g>
                  <path d="M429.88,26.46a1.27,1.27,0,0,0-1.83-.4l-.24-.34a1.67,1.67,0,0,1,2.4.5Z" style="fill: #969c9c"/>
                  <path d="M439.49,27.78a5.27,5.27,0,0,0-1.38.36l-.09-.88c.06,0,5.89-.51,9.63-2.82l-.19.66A22.22,22.22,0,0,1,439.49,27.78Z" style="fill: #969c9c"/>
                </g>
                <path d="M446.88,140.68s.4,3.16,2.51,2.5,2.06-3.47,2.11-5.49,1-8.8,2.89-12.14,7.74-8.5,12.13-9.69a89.66,89.66,0,0,1,10.77-1.9s2.16.11,1.76-1.25a24.65,24.65,0,0,0-1.32-3.23s-.56-.81-2.86-.79c-3.43,0-15.63,3.68-20.61,9.26-5.8,6.5-6.16,10.39-6.59,14.78S446.88,140.68,446.88,140.68Z" style="fill: #fff;stroke: #969c9c;stroke-miterlimit: 10"/>
                <g>
                  <g>
                    <g>
                      <path d="M427.78,242.24V166.41h-9.12v75.75c-.12.54.63-.12,1.27.45a5.05,5.05,0,0,0,6.57,0C427.14,242,427.88,242.73,427.78,242.24Z" style="fill: #fff"/>
                      <path d="M474.14,217.68V141.84H465v75.75c-.12.54.63-.11,1.27.45a5.05,5.05,0,0,0,6.57,0C473.5,217.47,474.24,218.16,474.14,217.68Z" style="fill: #fff"/>
                    </g>
                    <g>
                      <path d="M427.78,242.24V166.41h-9.12v75.75c-.12.54.63-.12,1.27.45a5.05,5.05,0,0,0,6.57,0C427.14,242,427.88,242.73,427.78,242.24Z" style="fill: #fff"/>
                      <path d="M474.14,217.68V141.84H465v75.75c-.12.54.63-.11,1.27.45a5.05,5.05,0,0,0,6.57,0C473.5,217.47,474.24,218.16,474.14,217.68Z" style="fill: #fff"/>
                    </g>
                    <g>
                      <path d="M427.78,242.24V166.41h-9.12v75.75c-.12.54.63-.12,1.27.45a5.05,5.05,0,0,0,6.57,0C427.14,242,427.88,242.73,427.78,242.24Z" style="fill: none;stroke: #969c9c;stroke-linecap: round;stroke-linejoin: round"/>
                      <path d="M474.14,217.68V141.84H465v75.75c-.12.54.63-.11,1.27.45a5.05,5.05,0,0,0,6.57,0C473.5,217.47,474.24,218.16,474.14,217.68Z" style="fill: none;stroke: #969c9c;stroke-linecap: round;stroke-linejoin: round"/>
                    </g>
                  </g>
                  <g>
                    <path d="M315.72,173.34V97.51H306.6v75.75c-.12.54.63-.12,1.27.45a5.05,5.05,0,0,0,6.57,0C315.08,173.14,315.82,173.83,315.72,173.34Z" style="fill: #fff;stroke: #969c9c;stroke-linecap: round;stroke-linejoin: round"/>
                    <path d="M362.08,148.78V72.95H353v75.75c-.12.54.63-.11,1.27.45a5.05,5.05,0,0,0,6.57,0C361.44,148.58,362.18,149.27,362.08,148.78Z" style="fill: url(#linear-gradient-4)"/>
                  </g>
                  <g>
                    <polygon points="492.61 138.32 412.28 184.82 277.93 107.1 358.26 62.99 492.61 138.32" style="fill: #fff;stroke: #969c9c;stroke-linecap: round;stroke-linejoin: round"/>
                    <polygon points="492.61 141.84 412.28 188.34 412.28 184.82 492.61 138.32 492.61 141.84" style="fill: #fff;stroke: #969c9c;stroke-linecap: round;stroke-linejoin: round"/>
                    <polygon points="412.28 184.82 412.28 188.34 277.93 110.61 277.93 107.1 412.28 184.82" style="fill: #edf0f3;stroke: #969c9c;stroke-linecap: round;stroke-linejoin: round"/>
                  </g>
                </g>
                <g>
                  <path d="M392,91.75a1.45,1.45,0,0,1,1.31,0l52.85,30.51a.4.4,0,0,1,0,.75l-16.75,9.67a1.45,1.45,0,0,1-1.31,0l-52.85-30.51a.4.4,0,0,1,0-.76Z" style="fill: #fff;stroke: #969c9c;stroke-linecap: round;stroke-linejoin: round"/>
                  <g>
                    <path d="M432.23,127.26a.36.36,0,0,1,.33,0l1.23.71a.1.1,0,0,1,0,.19l-1.23.71a.37.37,0,0,1-.33,0l-1.23-.71a.1.1,0,0,1,0-.19Z" style="fill: #edf0f3"/>
                    <path d="M430.12,126a.36.36,0,0,1,.33,0l1.23.71c.09.05.09.14,0,.19l-1.23.71a.37.37,0,0,1-.33,0l-1.23-.71a.1.1,0,0,1,0-.19Z" style="fill: #edf0f3"/>
                    <path d="M428,124.81a.37.37,0,0,1,.33,0l1.23.71a.1.1,0,0,1,0,.19l-1.23.71a.36.36,0,0,1-.33,0l-1.23-.71a.1.1,0,0,1,0-.19Z" style="fill: #edf0f3"/>
                    <path d="M425.88,123.59a.36.36,0,0,1,.33,0l1.23.71a.1.1,0,0,1,0,.19l-1.23.71a.37.37,0,0,1-.33,0l-1.23-.71a.1.1,0,0,1,0-.19Z" style="fill: #edf0f3"/>
                    <path d="M423.76,122.37a.36.36,0,0,1,.33,0l1.23.71c.09.05.09.14,0,.19l-1.23.71a.35.35,0,0,1-.33,0l-1.23-.71c-.09-.05-.09-.14,0-.19Z" style="fill: #edf0f3"/>
                    <path d="M421.64,121.14a.36.36,0,0,1,.32,0l1.23.71a.1.1,0,0,1,0,.19l-1.23.71a.37.37,0,0,1-.32,0l-1.23-.71a.1.1,0,0,1,0-.19Z" style="fill: #edf0f3"/>
                    <path d="M419.52,119.92a.37.37,0,0,1,.33,0l1.23.71a.1.1,0,0,1,0,.19l-1.23.71a.36.36,0,0,1-.33,0l-1.23-.71c-.09-.05-.09-.13,0-.19Z" style="fill: #edf0f3"/>
                    <path d="M417.41,118.7a.37.37,0,0,1,.32,0l1.23.71c.09,0,.09.14,0,.19l-1.23.71a.36.36,0,0,1-.32,0l-1.23-.71c-.09-.05-.09-.14,0-.19Z" style="fill: #edf0f3"/>
                    <path d="M415.29,117.47a.35.35,0,0,1,.33,0l1.23.71a.1.1,0,0,1,0,.19l-1.23.71a.37.37,0,0,1-.33,0l-1.23-.71a.1.1,0,0,1,0-.19Z" style="fill: #edf0f3"/>
                    <path d="M413.17,116.25a.36.36,0,0,1,.33,0l1.23.71c.09.05.09.14,0,.19l-1.23.71a.37.37,0,0,1-.33,0l-1.23-.71c-.09-.05-.09-.14,0-.19Z" style="fill: #edf0f3"/>
                    <path d="M411,115a.35.35,0,0,1,.33,0l1.23.71a.1.1,0,0,1,0,.19l-1.23.71a.36.36,0,0,1-.33,0l-1.23-.71a.1.1,0,0,1,0-.19Z" style="fill: #edf0f3"/>
                    <path d="M389.52,102.6a.38.38,0,0,1,.33,0l1.23.71a.1.1,0,0,1,0,.19l-1.23.71a.37.37,0,0,1-.33,0l-1.23-.71c-.09-.05-.09-.14,0-.19Z" style="fill: #edf0f3"/>
                    <path d="M387.41,101.38a.36.36,0,0,1,.33,0l1.23.71a.1.1,0,0,1,0,.19l-1.23.71a.37.37,0,0,1-.33,0l-1.23-.71c-.09-.05-.09-.14,0-.19Z" style="fill: #edf0f3"/>
                    <path d="M385.29,100.15a.35.35,0,0,1,.33,0l1.23.71a.1.1,0,0,1,0,.19l-1.23.71a.37.37,0,0,1-.33,0l-1.23-.71a.1.1,0,0,1,0-.19Z" style="fill: #edf0f3"/>
                    <path d="M383.17,98.93a.35.35,0,0,1,.33,0l1.23.71a.1.1,0,0,1,0,.19l-1.23.71a.36.36,0,0,1-.33,0l-1.23-.71a.1.1,0,0,1,0-.19Z" style="fill: #edf0f3"/>
                    <path d="M391.67,101.36a.36.36,0,0,1,.33,0l1.23.71c.09.05.09.14,0,.19L392,103a.35.35,0,0,1-.33,0l-1.23-.71a.1.1,0,0,1,0-.19Z" style="fill: #edf0f3"/>
                    <path d="M389.56,100.14a.36.36,0,0,1,.33,0l1.23.71c.09.05.09.14,0,.19l-1.23.71a.37.37,0,0,1-.33,0l-1.23-.71c-.09,0-.09-.14,0-.19Z" style="fill: #edf0f3"/>
                    <path d="M387.44,98.91a.36.36,0,0,1,.33,0l1.23.71c.09.05.09.14,0,.19l-1.23.71a.36.36,0,0,1-.33,0l-1.23-.71c-.09-.05-.09-.13,0-.19Z" style="fill: #edf0f3"/>
                    <path d="M393.82,100.12a.36.36,0,0,1,.33,0l1.23.71a.1.1,0,0,1,0,.19l-1.23.71a.38.38,0,0,1-.33,0l-1.23-.71a.1.1,0,0,1,0-.19Z" style="fill: #edf0f3"/>
                    <path d="M391.71,98.9a.36.36,0,0,1,.33,0l1.23.71c.09,0,.09.14,0,.19l-1.23.71a.36.36,0,0,1-.33,0l-1.23-.71c-.09-.05-.09-.14,0-.19Z" style="fill: #edf0f3"/>
                    <path d="M389.59,97.67a.36.36,0,0,1,.33,0l1.23.71c.09.05.09.13,0,.19l-1.23.71a.36.36,0,0,1-.33,0l-1.23-.71c-.09-.05-.09-.14,0-.19Z" style="fill: #edf0f3"/>
                    <path d="M387.47,96.45a.36.36,0,0,1,.33,0l1.23.71a.1.1,0,0,1,0,.19l-3.38,1.95a.36.36,0,0,1-.33,0l-1.23-.71a.1.1,0,0,1,0-.19Z" style="fill: #edf0f3"/>
                    <path d="M396,98.88a.37.37,0,0,1,.33,0l1.23.71a.1.1,0,0,1,0,.19l-1.23.71a.36.36,0,0,1-.33,0l-1.23-.71a.1.1,0,0,1,0-.19Z" style="fill: #edf0f3"/>
                    <path d="M393.85,97.65a.36.36,0,0,1,.33,0l1.23.71a.1.1,0,0,1,0,.19l-1.23.71a.36.36,0,0,1-.33,0l-1.23-.71a.1.1,0,0,1,0-.19Z" style="fill: #edf0f3"/>
                    <path d="M391.74,96.43a.37.37,0,0,1,.33,0l1.23.71a.1.1,0,0,1,0,.19l-1.23.71a.35.35,0,0,1-.33,0l-1.23-.71c-.09,0-.09-.13,0-.19Z" style="fill: #edf0f3"/>
                    <path d="M396,96.44a.36.36,0,0,1,.33,0l3.3,1.91c.09.05.09.14,0,.19l-1.23.71a.37.37,0,0,1-.33,0l-3.3-1.91a.1.1,0,0,1,0-.19Z" style="fill: #edf0f3"/>
                    <path d="M393.88,95.19a.36.36,0,0,1,.33,0l1.23.71a.1.1,0,0,1,0,.19l-1.23.71a.36.36,0,0,1-.33,0l-1.23-.71a.1.1,0,0,1,0-.19Z" style="fill: #edf0f3"/>
                    <path d="M391.77,94a.35.35,0,0,1,.33,0l1.23.71a.1.1,0,0,1,0,.19l-3.38,2a.37.37,0,0,1-.33,0l-1.23-.71a.1.1,0,0,1,0-.19Z" style="fill: #edf0f3"/>
                    <path d="M408.93,113.81a.34.34,0,0,1,.33,0l1.23.71a.1.1,0,0,1,0,.19l-1.23.71a.35.35,0,0,1-.33,0l-1.23-.71c-.09-.05-.09-.14,0-.19Z" style="fill: #edf0f3"/>
                    <path d="M397.93,107.45a.35.35,0,0,1,.33,0l1.23.71a.1.1,0,0,1,0,.19l-1.23.71a.37.37,0,0,1-.33,0l-1.23-.71a.1.1,0,0,1,0-.19Z" style="fill: #edf0f3"/>
                    <path d="M395.81,106.23a.36.36,0,0,1,.33,0l1.23.71a.1.1,0,0,1,0,.19l-1.23.71a.35.35,0,0,1-.33,0l-1.23-.71a.1.1,0,0,1,0-.19Z" style="fill: #edf0f3"/>
                    <path d="M393.69,105a.37.37,0,0,1,.33,0l1.23.71a.1.1,0,0,1,0,.19l-1.23.71a.37.37,0,0,1-.33,0l-1.23-.71a.1.1,0,0,1,0-.19Z" style="fill: #edf0f3"/>
                    <path d="M400.08,106.21a.37.37,0,0,1,.33,0l1.23.71a.1.1,0,0,1,0,.19l-1.23.71a.35.35,0,0,1-.33,0l-1.23-.71c-.09-.05-.09-.14,0-.19Z" style="fill: #edf0f3"/>
                    <path d="M398,105a.37.37,0,0,1,.33,0l1.23.71a.1.1,0,0,1,0,.19l-1.23.71a.37.37,0,0,1-.33,0l-1.23-.71c-.09-.05-.09-.14,0-.19Z" style="fill: #edf0f3"/>
                    <path d="M395.84,103.76a.37.37,0,0,1,.33,0l1.23.71a.1.1,0,0,1,0,.19l-1.23.71a.37.37,0,0,1-.33,0l-1.23-.71a.1.1,0,0,1,0-.19Z" style="fill: #edf0f3"/>
                    <path d="M402.25,102.51a.37.37,0,0,1,.33,0l1.23.71a.1.1,0,0,1,0,.19l-1.23.71a.36.36,0,0,1-.33,0l-1.23-.71a.1.1,0,0,1,0-.19Z" style="fill: #edf0f3"/>
                    <path d="M406.51,102.49a.37.37,0,0,1,.33,0l1.23.71c.09.05.09.14,0,.19l-1.23.71a.37.37,0,0,1-.33,0l-1.23-.71a.1.1,0,0,1,0-.19Z" style="fill: #edf0f3"/>
                    <path d="M404.4,101.27a.35.35,0,0,1,.33,0L406,102a.1.1,0,0,1,0,.19l-1.23.71a.36.36,0,0,1-.33,0l-1.23-.71a.1.1,0,0,1,0-.19Z" style="fill: #edf0f3"/>
                    <path d="M402.28,100a.37.37,0,0,1,.33,0l1.23.71a.1.1,0,0,1,0,.19l-1.23.71a.36.36,0,0,1-.33,0l-1.23-.71a.1.1,0,0,1,0-.19Z" style="fill: #edf0f3"/>
                    <path d="M431.21,124.18a.38.38,0,0,1,.33,0l1.23.71c.09.05.09.13,0,.19l-1.23.71a.36.36,0,0,1-.33,0l-1.23-.71c-.09-.05-.09-.14,0-.19Z" style="fill: #edf0f3"/>
                    <path d="M433.3,125.39a.36.36,0,0,1,.33,0l2.32,1.34a.1.1,0,0,1,0,.19l-1.23.71a.36.36,0,0,1-.33,0l-2.32-1.34a.1.1,0,0,1,0-.19Z" style="fill: #edf0f3"/>
                    <path d="M429.09,123a.36.36,0,0,1,.33,0l1.23.71c.09.05.09.13,0,.19l-1.23.71a.35.35,0,0,1-.33,0l-1.23-.71c-.09-.05-.09-.14,0-.19Z" style="fill: #edf0f3"/>
                    <path d="M427,121.74a.37.37,0,0,1,.33,0l1.23.71c.09,0,.09.13,0,.19l-1.23.71a.35.35,0,0,1-.33,0l-1.23-.71c-.09-.05-.09-.14,0-.19Z" style="fill: #edf0f3"/>
                    <path d="M424.85,120.51a.36.36,0,0,1,.33,0l1.23.71a.1.1,0,0,1,0,.19l-1.23.71a.35.35,0,0,1-.33,0l-1.23-.71a.1.1,0,0,1,0-.19Z" style="fill: #edf0f3"/>
                    <path d="M422.73,119.29a.37.37,0,0,1,.33,0l1.23.71a.1.1,0,0,1,0,.19l-1.23.71a.37.37,0,0,1-.33,0l-1.23-.71c-.09-.05-.09-.14,0-.19Z" style="fill: #edf0f3"/>
                    <path d="M420.61,118.07a.37.37,0,0,1,.33,0l1.23.71a.1.1,0,0,1,0,.19l-1.23.71a.37.37,0,0,1-.33,0l-1.23-.71a.1.1,0,0,1,0-.19Z" style="fill: #edf0f3"/>
                    <path d="M418.49,116.84a.37.37,0,0,1,.33,0l1.23.71c.09.05.09.14,0,.19l-1.23.71a.36.36,0,0,1-.33,0l-1.23-.71c-.09-.05-.09-.14,0-.19Z" style="fill: #edf0f3"/>
                    <path d="M416.38,115.62a.35.35,0,0,1,.33,0l1.23.71c.09.05.09.14,0,.19l-1.23.71a.37.37,0,0,1-.33,0l-1.23-.71a.1.1,0,0,1,0-.19Z" style="fill: #edf0f3"/>
                    <path d="M414.26,114.4a.36.36,0,0,1,.33,0l1.23.71a.1.1,0,0,1,0,.19l-1.23.71a.35.35,0,0,1-.33,0L413,115.3c-.09-.05-.09-.14,0-.19Z" style="fill: #edf0f3"/>
                    <path d="M412.14,113.17a.36.36,0,0,1,.33,0l1.23.71a.1.1,0,0,1,0,.19l-1.23.71a.35.35,0,0,1-.33,0l-1.23-.71c-.09-.05-.09-.14,0-.19Z" style="fill: #edf0f3"/>
                    <path d="M410,112a.35.35,0,0,1,.32,0l1.23.71c.09.05.09.14,0,.19l-1.23.71a.34.34,0,0,1-.32,0l-1.23-.71a.1.1,0,0,1,0-.19Z" style="fill: #edf0f3"/>
                    <path d="M407.9,110.73a.37.37,0,0,1,.33,0l1.23.71a.1.1,0,0,1,0,.19l-1.23.71a.34.34,0,0,1-.33,0l-1.23-.71c-.09-.05-.09-.14,0-.19Z" style="fill: #edf0f3"/>
                    <path d="M404.27,108.63a.36.36,0,0,1,.33,0l2.71,1.56c.09.05.09.14,0,.19l-1.23.71a.35.35,0,0,1-.32,0L403,109.53a.1.1,0,0,1,0-.19Z" style="fill: #edf0f3"/>
                    <path d="M432.29,122.33a.37.37,0,0,1,.33,0l1.23.71a.1.1,0,0,1,0,.19l-1.23.71a.36.36,0,0,1-.33,0l-1.23-.71a.1.1,0,0,1,0-.19Z" style="fill: #edf0f3"/>
                    <path d="M434.41,123.55a.38.38,0,0,1,.33,0l3.31,1.91a.1.1,0,0,1,0,.19l-1.23.71a.36.36,0,0,1-.33,0l-3.31-1.91a.1.1,0,0,1,0-.19Z" style="fill: #edf0f3"/>
                    <path d="M430.18,121.11a.36.36,0,0,1,.33,0l1.23.71a.1.1,0,0,1,0,.19l-1.23.71a.37.37,0,0,1-.33,0l-1.23-.71a.1.1,0,0,1,0-.19Z" style="fill: #edf0f3"/>
                    <path d="M428.06,119.88a.37.37,0,0,1,.33,0l1.23.71c.09,0,.09.13,0,.19l-1.23.71a.36.36,0,0,1-.33,0l-1.23-.71c-.09-.05-.09-.14,0-.19Z" style="fill: #edf0f3"/>
                    <path d="M425.94,118.66a.35.35,0,0,1,.33,0l1.23.71a.1.1,0,0,1,0,.19l-1.23.71a.36.36,0,0,1-.33,0l-1.23-.71a.1.1,0,0,1,0-.19Z" style="fill: #edf0f3"/>
                    <path d="M423.82,117.44a.35.35,0,0,1,.33,0l1.23.71a.1.1,0,0,1,0,.19l-1.23.71a.36.36,0,0,1-.33,0l-1.23-.71c-.09-.05-.09-.13,0-.19Z" style="fill: #edf0f3"/>
                    <path d="M421.7,116.21a.36.36,0,0,1,.33,0l1.23.71a.1.1,0,0,1,0,.19l-1.23.71a.37.37,0,0,1-.33,0l-1.23-.71a.1.1,0,0,1,0-.19Z" style="fill: #edf0f3"/>
                    <path d="M419.58,115a.35.35,0,0,1,.33,0l1.23.71c.09.05.09.14,0,.19l-1.23.71a.36.36,0,0,1-.33,0l-1.23-.71c-.09-.05-.09-.13,0-.19Z" style="fill: #edf0f3"/>
                    <path d="M417.47,113.77a.37.37,0,0,1,.33,0l1.23.71a.1.1,0,0,1,0,.19l-1.23.71a.37.37,0,0,1-.33,0l-1.23-.71a.1.1,0,0,1,0-.19Z" style="fill: #edf0f3"/>
                    <path d="M415.35,112.55a.35.35,0,0,1,.33,0l1.23.71c.09,0,.09.13,0,.19l-1.23.71a.36.36,0,0,1-.33,0l-1.23-.71c-.09-.05-.09-.14,0-.19Z" style="fill: #edf0f3"/>
                    <path d="M413.23,111.32a.36.36,0,0,1,.33,0l1.23.71c.09.05.09.14,0,.19l-1.23.71a.36.36,0,0,1-.33,0l-1.23-.71c-.09-.05-.09-.14,0-.19Z" style="fill: #edf0f3"/>
                    <path d="M411.11,110.1a.36.36,0,0,1,.33,0l1.23.71a.1.1,0,0,1,0,.19l-1.23.71a.36.36,0,0,1-.33,0l-1.23-.71a.1.1,0,0,1,0-.19Z" style="fill: #edf0f3"/>
                    <path d="M406.42,107.39a.35.35,0,0,1,.33,0l3.74,2.16a.1.1,0,0,1,0,.19l-1.23.71a.36.36,0,0,1-.33,0l-3.74-2.16c-.09-.05-.09-.14,0-.19Z" style="fill: #edf0f3"/>
                    <path d="M433.56,120.54a.35.35,0,0,1,.33,0l1.23.71c.09.05.09.14,0,.19l-1.23.71a.37.37,0,0,1-.33,0l-1.23-.71a.1.1,0,0,1,0-.19Z" style="fill: #edf0f3"/>
                    <path d="M435.7,121.78a.35.35,0,0,1,.33,0l4.15,2.4c.09.05.09.14,0,.19l-1.23.71a.37.37,0,0,1-.33,0l-4.16-2.4a.1.1,0,0,1,0-.19Z" style="fill: #edf0f3"/>
                    <path d="M431.44,119.32a.37.37,0,0,1,.33,0L433,120a.1.1,0,0,1,0,.19l-1.23.71a.36.36,0,0,1-.33,0l-1.23-.71a.1.1,0,0,1,0-.19Z" style="fill: #edf0f3"/>
                    <path d="M429.33,118.1a.36.36,0,0,1,.33,0l1.23.71a.1.1,0,0,1,0,.19l-1.23.71a.36.36,0,0,1-.33,0L428.1,119a.1.1,0,0,1,0-.19Z" style="fill: #edf0f3"/>
                    <path d="M440.43,122a.35.35,0,0,1,.33,0l1.61.93a.1.1,0,0,1,0,.19l-1.23.71a.35.35,0,0,1-.33,0l-1.61-.93c-.09-.05-.09-.14,0-.19Z" style="fill: #edf0f3"/>
                    <path d="M437.94,120.55a.38.38,0,0,1,.33,0l1.61.93c.09.05.09.14,0,.19l-1.23.71a.37.37,0,0,1-.33,0l-1.61-.93a.1.1,0,0,1,0-.19Z" style="fill: #edf0f3"/>
                    <path d="M435.44,119.11a.36.36,0,0,1,.33,0l1.61.93a.1.1,0,0,1,0,.19l-1.23.71a.36.36,0,0,1-.33,0l-1.61-.93c-.09-.05-.09-.13,0-.19Z" style="fill: #edf0f3"/>
                    <path d="M420.75,110.63a.37.37,0,0,1,.33,0l13.81,8a.1.1,0,0,1,0,.19l-1.23.71a.36.36,0,0,1-.33,0l-13.81-8a.1.1,0,0,1,0-.19Z" style="fill: #edf0f3"/>
                    <path d="M418.24,109.18a.36.36,0,0,1,.33,0l1.61.93c.09.05.09.14,0,.19l-1.23.71a.37.37,0,0,1-.33,0l-1.61-.93a.1.1,0,0,1,0-.19Z" style="fill: #edf0f3"/>
                    <path d="M415.75,107.74a.36.36,0,0,1,.33,0l1.61.93c.09.05.09.14,0,.19l-1.23.71a.35.35,0,0,1-.33,0l-1.61-.93a.1.1,0,0,1,0-.19Z" style="fill: #edf0f3"/>
                    <path d="M413.26,106.3a.36.36,0,0,1,.33,0l1.61.93a.1.1,0,0,1,0,.19l-1.23.71a.37.37,0,0,1-.33,0L412,107.2a.1.1,0,0,1,0-.19Z" style="fill: #edf0f3"/>
                    <path d="M410.77,104.86a.36.36,0,0,1,.33,0l1.61.93a.1.1,0,0,1,0,.19l-1.23.71a.36.36,0,0,1-.33,0l-1.61-.93a.1.1,0,0,1,0-.19Z" style="fill: #edf0f3"/>
                    <path d="M427.21,116.87a.36.36,0,0,1,.33,0l1.23.71a.1.1,0,0,1,0,.19l-1.23.71a.35.35,0,0,1-.33,0l-1.23-.71a.1.1,0,0,1,0-.19Z" style="fill: #edf0f3"/>
                    <path d="M425.09,115.65a.37.37,0,0,1,.33,0l1.23.71a.1.1,0,0,1,0,.19l-1.23.71a.36.36,0,0,1-.33,0l-1.23-.71a.1.1,0,0,1,0-.19Z" style="fill: #edf0f3"/>
                    <path d="M423,114.43a.36.36,0,0,1,.33,0l1.23.71c.09.05.09.14,0,.19l-1.23.71a.36.36,0,0,1-.33,0l-1.23-.71c-.09,0-.09-.13,0-.19Z" style="fill: #edf0f3"/>
                    <path d="M420.85,113.2a.37.37,0,0,1,.33,0l1.23.71c.09.05.09.14,0,.19l-1.23.71a.38.38,0,0,1-.33,0l-1.23-.71a.1.1,0,0,1,0-.19Z" style="fill: #edf0f3"/>
                    <path d="M418.73,112a.37.37,0,0,1,.33,0l1.23.71c.09.05.09.14,0,.19l-1.23.71a.36.36,0,0,1-.33,0l-1.23-.71c-.09-.05-.09-.14,0-.19Z" style="fill: #edf0f3"/>
                    <path d="M416.61,110.76a.35.35,0,0,1,.33,0l1.23.71a.1.1,0,0,1,0,.19l-1.23.71a.36.36,0,0,1-.33,0l-1.23-.71a.1.1,0,0,1,0-.19Z" style="fill: #edf0f3"/>
                    <path d="M414.5,109.53a.35.35,0,0,1,.33,0l1.23.71a.1.1,0,0,1,0,.19l-1.23.71a.36.36,0,0,1-.33,0l-1.23-.71c-.09-.05-.09-.14,0-.19Z" style="fill: #edf0f3"/>
                    <path d="M408.6,106.13a.37.37,0,0,1,.33,0l5,2.88a.1.1,0,0,1,0,.19l-1.23.71a.35.35,0,0,1-.33,0l-5-2.88a.1.1,0,0,1,0-.19Z" style="fill: #edf0f3"/>
                    <path d="M406.81,112.58a.37.37,0,0,1,.33,0l1.23.71c.09.05.09.14,0,.19l-1.23.71a.37.37,0,0,1-.33,0l-1.23-.71c-.09-.05-.09-.14,0-.19Z" style="fill: #edf0f3"/>
                    <path d="M428.86,129.21a.37.37,0,0,1,.33,0l1.23.71a.1.1,0,0,1,0,.19l-1.23.71a.36.36,0,0,1-.33,0l-1.23-.71a.1.1,0,0,1,0-.19Z" style="fill: #edf0f3"/>
                    <path d="M424.62,126.77a.35.35,0,0,1,.33,0l1.23.71a.1.1,0,0,1,0,.19l-1.23.71a.35.35,0,0,1-.33,0l-1.23-.71a.1.1,0,0,1,0-.19Z" style="fill: #edf0f3"/>
                    <path d="M422.5,125.54a.35.35,0,0,1,.33,0l1.23.71c.09.05.09.14,0,.19l-1.23.71a.38.38,0,0,1-.33,0l-1.23-.71c-.09,0-.09-.14,0-.19Z" style="fill: #edf0f3"/>
                    <path d="M420.38,124.32a.37.37,0,0,1,.33,0l1.23.71c.09.06.09.14,0,.19l-1.23.71a.38.38,0,0,1-.33,0l-1.23-.71c-.09-.05-.09-.14,0-.19Z" style="fill: #edf0f3"/>
                    <path d="M418.26,123.09a.38.38,0,0,1,.32,0l1.23.71c.09.05.09.14,0,.19l-1.23.71a.36.36,0,0,1-.32,0L417,124a.1.1,0,0,1,0-.19Z" style="fill: #edf0f3"/>
                    <path d="M414.8,121.1a.37.37,0,0,1,.33,0l1.23.71a.1.1,0,0,1,0,.19l-1.23.71a.36.36,0,0,1-.33,0l-1.23-.71a.1.1,0,0,1,0-.19Z" style="fill: #edf0f3"/>
                    <path d="M412.69,119.87a.35.35,0,0,1,.33,0l1.23.71a.1.1,0,0,1,0,.19l-1.23.71a.36.36,0,0,1-.33,0l-1.23-.71a.1.1,0,0,1,0-.19Z" style="fill: #edf0f3"/>
                    <path d="M410.57,118.65a.37.37,0,0,1,.33,0l1.23.71c.09.05.09.14,0,.19l-1.23.71a.37.37,0,0,1-.33,0l-1.23-.71c-.09-.05-.09-.14,0-.19Z" style="fill: #edf0f3"/>
                    <path d="M408.45,117.43a.36.36,0,0,1,.32,0l1.23.71c.09.05.09.14,0,.19l-1.23.71a.37.37,0,0,1-.32,0l-1.23-.71c-.09-.05-.09-.14,0-.19Z" style="fill: #edf0f3"/>
                    <path d="M405.06,115.47a.38.38,0,0,1,.33,0l1.23.71a.1.1,0,0,1,0,.19l-1.23.71a.35.35,0,0,1-.33,0l-1.23-.71a.1.1,0,0,1,0-.19Z" style="fill: #edf0f3"/>
                    <path d="M402.94,114.25a.35.35,0,0,1,.33,0l1.23.71a.1.1,0,0,1,0,.19l-1.23.71a.36.36,0,0,1-.33,0l-1.23-.71a.1.1,0,0,1,0-.19Z" style="fill: #edf0f3"/>
                    <path d="M400.82,113a.37.37,0,0,1,.33,0l1.23.71a.1.1,0,0,1,0,.19l-1.23.71a.37.37,0,0,1-.33,0l-1.23-.71a.1.1,0,0,1,0-.19Z" style="fill: #edf0f3"/>
                    <path d="M398.7,111.8a.36.36,0,0,1,.33,0l1.23.71a.1.1,0,0,1,0,.19l-1.23.71a.36.36,0,0,1-.33,0l-1.23-.71c-.09-.05-.09-.14,0-.19Z" style="fill: #edf0f3"/>
                    <path d="M384,103.33a.35.35,0,0,1,.33,0l1.23.71a.1.1,0,0,1,0,.19l-1.23.71a.36.36,0,0,1-.33,0l-1.23-.71a.1.1,0,0,1,0-.19Z" style="fill: #edf0f3"/>
                    <path d="M381.91,102.1a.37.37,0,0,1,.33,0l1.23.71a.1.1,0,0,1,0,.19l-1.23.71a.36.36,0,0,1-.33,0l-1.23-.71a.1.1,0,0,1,0-.19Z" style="fill: #edf0f3"/>
                    <path d="M379.79,100.88a.37.37,0,0,1,.33,0l1.23.71c.09.05.09.14,0,.19l-1.23.71a.38.38,0,0,1-.33,0l-1.23-.71a.1.1,0,0,1,0-.19Z" style="fill: #edf0f3"/>
                    <path d="M402.08,109.85a.35.35,0,0,1,.33,0l3.84,2.22a.1.1,0,0,1,0,.19L405,113a.36.36,0,0,1-.33,0l-3.84-2.22a.1.1,0,0,1,0-.19Z" style="fill: #edf0f3"/>
                    <polygon points="386.63 104.97 392.7 108.48 391.18 109.36 385.11 105.85 386.63 104.97" style="fill: #edf0f3"/>
                  </g>
                </g>
                <g>
                  <path d="M439.34,105.71s-5.63-.39-9.16.82-6.42,4.66-6.56,6.09a5.17,5.17,0,0,1-1.06,2.53s-2.53,3-1.94,3.59,1,.53,2.54.57,7.15-1.44,9.47-1.29a16.48,16.48,0,0,0,8.7-2.91c1.73-1.49,7.48-3.72,7.48-3.72l-2.45-7.46Z" style="fill: #fff;stroke: #969c9c;stroke-linecap: round;stroke-linejoin: round"/>
                  <path d="M440.14,105.51l3.27,8.42s16.5-6.8,21.15-8.41S478.3,95.82,479.86,92s-2.39-31.66-2.66-35.73c-.23-3.45-2.94-14.19-11.89-14.2s-7.56,12.25-6,20.93,7,22.15,7,22.15Z" style="fill: #fff;stroke: #969c9c;stroke-linecap: round;stroke-linejoin: round"/>
                </g>
                <g>
                  <g>
                    <polygon points="345.07 126.91 345.07 128.84 376.43 146.95 396.6 135.3 396.6 133.37 365.23 115.27 345.07 126.91" style="fill: #fff;stroke: #969c9c;stroke-linecap: round;stroke-linejoin: round"/>
                    <path d="M365.62,127.13c-2.88,1.66-2.88,4.35,0,6a11.51,11.51,0,0,0,10.42,0c2.88-1.66,2.88-4.36,0-6A11.51,11.51,0,0,0,365.62,127.13Z" style="fill: #edf0f3"/>
                    <path d="M365.62,133A11.54,11.54,0,0,0,376,133a3.71,3.71,0,0,0,2.15-2.91,3.6,3.6,0,0,1-2.15,3.1,11.51,11.51,0,0,1-10.42,0,3.6,3.6,0,0,1-2.15-3.1A3.71,3.71,0,0,0,365.62,133Z" style="fill: #edf0f3"/>
                  </g>
                  <g>
                    <polygon points="342.99 103.85 406.47 140.5 410.2 138.35 410.2 90.92 346.72 54.26 342.99 56.42 342.99 103.85" style="fill: #fff;stroke: #969c9c;stroke-linecap: round;stroke-linejoin: round"/>
                    <polygon points="351.5 98.06 391.16 120.95 391.16 100.05 351.5 77.16 351.5 98.06" style="fill: #fff"/>
                  </g>
                  <g>
                    <g>
                      <polygon points="364.99 93.05 367.01 91.91 372.53 95.1 372.53 113.45 370.5 114.59 364.99 111.4 364.99 93.05" style="fill: url(#linear-gradient-5)"/>
                      <polygon points="370.5 96.23 372.53 95.1 372.53 113.45 370.5 114.59 370.5 96.23" style="fill: #1c2723"/>
                      <polygon points="367.01 91.91 372.53 95.1 370.5 96.23 364.99 93.05 367.01 91.91" style="fill: #5b6662"/>
                    </g>
                    <path d="M361.77,89.94v30.28l3.73,7.67,8.66,5,1.84-1.06-3.89-8.09V94l-8.66-5Z" style="fill: #fff;stroke: #969c9c;stroke-linecap: round;stroke-linejoin: round"/>
                    <polygon points="361.77 89.97 370.43 94.97 372.11 93.97 363.45 88.97 361.77 89.97" style="fill: #fff;stroke: #969c9c;stroke-linecap: round;stroke-linejoin: round"/>
                    <polygon points="365.49 127.89 374.15 132.87 370.43 125.2 361.77 120.22 365.49 127.89" style="fill: #fff;stroke: #969c9c;stroke-linecap: round;stroke-linejoin: round"/>
                  </g>
                </g>
              </g>
              <g>
                <line x1="114.19" y1="266.14" x2="379.76" y2="112.81" style="fill: none;stroke-linecap: round;stroke-linejoin: round;stroke-dasharray: 5,20;stroke: url(#linear-gradient-6)"/>
                <line x1="114.19" y1="272.96" x2="383.15" y2="117.67" style="fill: none;stroke-linecap: round;stroke-linejoin: round;stroke-dasharray: 5,40;stroke: url(#linear-gradient-7)"/>
                <line x1="111.46" y1="262.05" x2="377.79" y2="108.29" style="fill: none;stroke-linecap: round;stroke-linejoin: round;stroke-dasharray: 5,35;stroke: url(#linear-gradient-8)"/>
                <line x1="107.38" y1="257.97" x2="374.36" y2="103.82" style="fill: none;stroke-linecap: round;stroke-linejoin: round;opacity: 0.30000000000000004;stroke: url(#linear-gradient-9)"/>
                <line x1="101.93" y1="256.6" x2="370.72" y2="101.42" style="fill: none;stroke-linecap: round;stroke-linejoin: round;opacity: 0.5;stroke: url(#linear-gradient-10)"/>
                <line x1="73.31" y1="264.78" x2="365.17" y2="96.27" style="fill: none;stroke-linecap: round;stroke-linejoin: round;stroke-dasharray: 5,10;stroke: url(#linear-gradient-11)"/>
                <line x1="110.1" y1="247.06" x2="363.85" y2="101.4" style="fill: none;stroke-linecap: round;stroke-linejoin: round;opacity: 0.30000000000000004;stroke: url(#linear-gradient-12)"/>
              </g>
              <g>
                <path d="M176.41,158.39l-.66,4.17,2.17-1.25q2.5-1.44,3.93-.92t1.43,2.73a10.81,10.81,0,0,1-1,4.34,16.4,16.4,0,0,1-6.67,7.43,10,10,0,0,1-3.14,1.2,5.15,5.15,0,0,1-2.69-.1l1.7-3.84a3.48,3.48,0,0,0,2,.33,5.88,5.88,0,0,0,2.32-.81A8.61,8.61,0,0,0,178.7,169a5.79,5.79,0,0,0,1.1-3.26q0-1.14-.78-1.32a3.69,3.69,0,0,0-2.34.72q-.85.49-2.24,1.36t-2.19,1.42L174,156.6l10.64-6.15-.52,3.49Z" style="fill: #373e5a"/>
                <path d="M188.23,164.25a1.13,1.13,0,0,1,.4,1,3.79,3.79,0,0,1-.51,1.85,3.42,3.42,0,0,1-1.26,1.36,1,1,0,0,1-1.06.11,1.2,1.2,0,0,1-.4-1.06,3.64,3.64,0,0,1,.51-1.82,3.45,3.45,0,0,1,1.26-1.33A1,1,0,0,1,188.23,164.25Z" style="fill: #373e5a"/>
                <path d="M206.3,139.66q1.47,1,1.47,4.49a22.92,22.92,0,0,1-1.07,7,20,20,0,0,1-3.1,6.06,16.11,16.11,0,0,1-4.81,4.29q-2.81,1.62-4.28.61T193,157.62a23,23,0,0,1,1.07-7,20,20,0,0,1,3.1-6.06,16.16,16.16,0,0,1,4.84-4.31Q204.82,138.63,206.3,139.66Zm-8.71,8.48a19.64,19.64,0,0,0-1.33,7.57q0,4.39,3,2.67a9.44,9.44,0,0,0,4-4.74,19.66,19.66,0,0,0,1.35-7.59q0-4.36-3-2.66A9.45,9.45,0,0,0,197.59,148.13Z" style="fill: #373e5a"/>
                <path d="M230.25,134.41q.8.36.8,1.78a6.26,6.26,0,0,1-.09,1l-1,6.14-2,1.16.9-5.77a4.1,4.1,0,0,0,0-.59q0-.8-.43-1a1.32,1.32,0,0,0-1.2.23,4.49,4.49,0,0,0-1.55,1.58,6.49,6.49,0,0,0-.87,2.33l-.87,5.52L222,148l.91-5.77a4.37,4.37,0,0,0,0-.59q0-.8-.43-1a1.31,1.31,0,0,0-1.2.23,4.5,4.5,0,0,0-1.54,1.58,6.23,6.23,0,0,0-.87,2.32l-.89,5.53-2,1.15L217.64,141l2-1.17-.23,1.48a6.65,6.65,0,0,1,2.67-3,2.91,2.91,0,0,1,1.86-.52,1.23,1.23,0,0,1,1,1,7.69,7.69,0,0,1,3.11-3.91A2.47,2.47,0,0,1,230.25,134.41Z" style="fill: #373e5a"/>
                <path d="M233.53,140.9a2.18,2.18,0,0,1-1.63-.35l.86-2a2.12,2.12,0,0,0,1.32.32,3.24,3.24,0,0,0,1.5-.44,2.85,2.85,0,0,0,.91-.8,1.6,1.6,0,0,0,.34-.93.42.42,0,0,0-.34-.48,3.5,3.5,0,0,0-1,0,8,8,0,0,1-1.16,0,1.13,1.13,0,0,1-.78-.35,1.52,1.52,0,0,1-.32-1.09,4.32,4.32,0,0,1,.38-1.74,6.14,6.14,0,0,1,1.07-1.65,6.46,6.46,0,0,1,1.6-1.29,5.51,5.51,0,0,1,1.85-.69,2.74,2.74,0,0,1,1.56.12l-1,2.07a3.26,3.26,0,0,0-1.27-.09,3.1,3.1,0,0,0-1.2.38,2.44,2.44,0,0,0-.79.72,1.48,1.48,0,0,0-.32.84q0,.39.32.44a4.72,4.72,0,0,0,1,0,8.12,8.12,0,0,1,1.2,0,1.21,1.21,0,0,1,.8.35,1.5,1.5,0,0,1,.34,1.11,4.37,4.37,0,0,1-.4,1.77,6.38,6.38,0,0,1-1.12,1.7,6.75,6.75,0,0,1-1.64,1.33A5.35,5.35,0,0,1,233.53,140.9Z" style="fill: #373e5a"/>
              </g>
              <g id="server">
                <g id="fitting">
                  <line x1="37.05" y1="344.36" x2="37.01" y2="336.3" style="fill: none;stroke: #969c9c;stroke-linecap: round;stroke-linejoin: round"/>
                </g>
                <g>
                  <g>
                    <g>
                      <path d="M65.82,360.24c1.5.6,2.15.3,2.65,0" style="fill: #fff;stroke: #969c9c;stroke-linecap: round;stroke-linejoin: round"/>
                      <path d="M65.82,360.23,2.06,323.42a3.2,3.2,0,0,1-1.34-2.56V306.63c0-1,.6-1.44,1.34-1l63.81,36.84a3.09,3.09,0,0,1,1.29,2.46v14.3" style="fill: #fff;stroke: #969c9c;stroke-linecap: round;stroke-linejoin: round"/>
                      <path d="M64.93,355.63c0,.47-.33.66-.73.42a1.62,1.62,0,0,1-.73-1.27c0-.47.33-.66.73-.42A1.62,1.62,0,0,1,64.93,355.63Z" style="fill: #fff;stroke: #969c9c;stroke-linecap: round;stroke-linejoin: round"/>
                      <path d="M65,352.76c0,.5-.35.71-.79.46a1.75,1.75,0,0,1-.79-1.37c0-.5.35-.71.79-.46A1.75,1.75,0,0,1,65,352.76Z" style="fill: #fff;stroke: #969c9c;stroke-linecap: round;stroke-linejoin: round"/>
                      <polygon points="52.44 347.82 50.63 346.78 50.63 338.83 52.44 339.87 52.44 347.82" style="fill: #fff;stroke: #969c9c;stroke-linecap: round;stroke-linejoin: round"/>
                      <polygon points="55.73 349.73 53.92 348.68 53.92 340.73 55.73 341.77 55.73 349.73" style="fill: #fff;stroke: #969c9c;stroke-linecap: round;stroke-linejoin: round"/>
                      <polygon points="59.02 351.63 57.22 350.58 57.22 342.63 59.02 343.67 59.02 351.63" style="fill: #fff;stroke: #969c9c;stroke-linecap: round;stroke-linejoin: round"/>
                      <polygon points="49.14 345.92 47.34 344.88 47.34 336.93 49.14 337.97 49.14 345.92" style="fill: #fff;stroke: #969c9c;stroke-linecap: round;stroke-linejoin: round"/>
                      <polygon points="45.85 344.02 44.04 342.98 44.04 335.02 45.85 336.07 45.85 344.02" style="fill: #fff;stroke: #969c9c;stroke-linecap: round;stroke-linejoin: round"/>
                      <path d="M36.49,334.6c0,1.11-1.57,1.1-3.51,0s-3.51-2.92-3.51-4,1.57-1.1,3.51,0S36.49,333.49,36.49,334.6Z" style="fill: #fff;stroke: #969c9c;stroke-linecap: round;stroke-linejoin: round"/>
                      <path d="M36.49,334.9c0,1-1.36.95-3,0s-3-2.52-3-3.48,1.36-.95,3,0S36.49,333.94,36.49,334.9Z" style="fill: #fff;stroke: #969c9c;stroke-linecap: round;stroke-linejoin: round"/>
                      <path d="M25.4,332.22" style="fill: none;stroke: #969c9c;stroke-linecap: round;stroke-linejoin: round"/>
                      <polygon points="61.13 354.51 6.75 323.11 6.75 311.7 61.13 343.1 61.13 354.51" style="fill: none;stroke: #969c9c;stroke-linecap: round;stroke-linejoin: round"/>
                    </g>
                    <g>
                      <path d="M129.65,307l-61,35.19a3.1,3.1,0,0,0-1.58,2.24" style="fill: none;stroke: #969c9c;stroke-linecap: round;stroke-linejoin: round"/>
                      <path d="M.72,306.63a2.77,2.77,0,0,1,1.53-2.77l63.31-36.55a3.25,3.25,0,0,1,2.92-.12L132.31,304c.34.19,1.26.5,1.26,2.41" style="fill: #fff;stroke: #969c9c;stroke-linecap: round;stroke-linejoin: round"/>
                      <path d="M42.38,309.62" style="fill: none;stroke: #969c9c;stroke-linecap: round;stroke-linejoin: round"/>
                    </g>
                    <g>
                      <g>
                        <path d="M133.57,306.63v14.23a3.2,3.2,0,0,1-1.34,2.56L68.47,360.23c-.74.43-1.34,0-1.34-1V345a3.2,3.2,0,0,1,1.34-2.56L129.65,307" style="fill: #fff;stroke: #969c9c;stroke-linecap: round;stroke-linejoin: round"/>
                        <path d="M91.82,342.08" style="fill: none;stroke: #969c9c;stroke-linecap: round;stroke-linejoin: round"/>
                      </g>
                      <path d="M69.51,359l-.66.38c-.58.34-1.06,0-1.06-.8V344.9a2.53,2.53,0,0,1,1.06-2l.66-.38Z" style="fill: #fff;stroke: #969c9c;stroke-linecap: round;stroke-linejoin: round"/>
                      <path d="M131.13,323.44l.81-.47a2.68,2.68,0,0,0,1.12-2.14V307.3c0-.83-.5-1.2-1.12-.85l-.81.47Z" style="fill: #fff;stroke: #969c9c;stroke-linecap: round;stroke-linejoin: round"/>
                      <polygon points="71.09 358.04 70.3 358.5 70.3 342.04 71.09 341.58 71.09 358.04" style="fill: #fff;stroke: #969c9c;stroke-linecap: round;stroke-linejoin: round"/>
                      <polygon points="72.7 357.11 71.91 357.57 71.91 341.12 72.7 340.66 72.7 357.11" style="fill: #fff;stroke: #969c9c;stroke-linecap: round;stroke-linejoin: round"/>
                      <polygon points="74.3 356.19 73.51 356.64 73.51 340.19 74.3 339.73 74.3 356.19" style="fill: #fff;stroke: #969c9c;stroke-linecap: round;stroke-linejoin: round"/>
                      <polygon points="75.9 355.26 75.11 355.72 75.11 339.26 75.9 338.81 75.9 355.26" style="fill: #fff;stroke: #969c9c;stroke-linecap: round;stroke-linejoin: round"/>
                      <polygon points="77.51 354.33 76.72 354.79 76.72 338.34 77.51 337.88 77.51 354.33" style="fill: #fff;stroke: #969c9c;stroke-linecap: round;stroke-linejoin: round"/>
                      <polygon points="79.11 353.41 78.32 353.87 78.32 337.41 79.11 336.95 79.11 353.41" style="fill: #fff;stroke: #969c9c;stroke-linecap: round;stroke-linejoin: round"/>
                      <polygon points="80.72 352.48 79.92 352.94 79.92 336.49 80.72 336.03 80.72 352.48" style="fill: #fff;stroke: #969c9c;stroke-linecap: round;stroke-linejoin: round"/>
                      <polygon points="82.32 351.56 81.53 352.01 81.53 335.56 82.32 335.1 82.32 351.56" style="fill: #fff;stroke: #969c9c;stroke-linecap: round;stroke-linejoin: round"/>
                      <polygon points="83.92 350.63 83.13 351.09 83.13 334.63 83.92 334.18 83.92 350.63" style="fill: #fff;stroke: #969c9c;stroke-linecap: round;stroke-linejoin: round"/>
                      <polygon points="85.53 349.7 84.74 350.16 84.74 333.71 85.53 333.25 85.53 349.7" style="fill: #fff;stroke: #969c9c;stroke-linecap: round;stroke-linejoin: round"/>
                      <polygon points="87.13 348.78 86.34 349.24 86.34 332.78 87.13 332.32 87.13 348.78" style="fill: #fff;stroke: #969c9c;stroke-linecap: round;stroke-linejoin: round"/>
                      <polygon points="88.74 347.85 87.94 348.31 87.94 331.86 88.74 331.4 88.74 347.85" style="fill: #fff;stroke: #969c9c;stroke-linecap: round;stroke-linejoin: round"/>
                      <polygon points="90.34 346.93 89.55 347.38 89.55 330.93 90.34 330.47 90.34 346.93" style="fill: #fff;stroke: #969c9c;stroke-linecap: round;stroke-linejoin: round"/>
                      <polygon points="91.94 346 91.15 346.46 91.15 330 91.94 329.55 91.94 346" style="fill: #fff;stroke: #969c9c;stroke-linecap: round;stroke-linejoin: round"/>
                      <polygon points="93.55 345.07 92.76 345.53 92.76 329.08 93.55 328.62 93.55 345.07" style="fill: #fff;stroke: #969c9c;stroke-linecap: round;stroke-linejoin: round"/>
                      <polygon points="95.15 344.15 94.36 344.6 94.36 328.15 95.15 327.69 95.15 344.15" style="fill: #fff;stroke: #969c9c;stroke-linecap: round;stroke-linejoin: round"/>
                      <polygon points="96.76 343.22 95.97 343.68 95.97 327.22 96.76 326.77 96.76 343.22" style="fill: #fff;stroke: #969c9c;stroke-linecap: round;stroke-linejoin: round"/>
                      <polygon points="98.36 342.3 97.57 342.75 97.57 326.3 98.36 325.84 98.36 342.3" style="fill: #fff;stroke: #969c9c;stroke-linecap: round;stroke-linejoin: round"/>
                      <polygon points="99.96 341.37 99.17 341.83 99.17 325.37 99.96 324.92 99.96 341.37" style="fill: #fff;stroke: #969c9c;stroke-linecap: round;stroke-linejoin: round"/>
                      <polygon points="101.57 340.44 100.78 340.9 100.78 324.45 101.57 323.99 101.57 340.44" style="fill: #fff;stroke: #969c9c;stroke-linecap: round;stroke-linejoin: round"/>
                      <polygon points="103.17 339.52 102.38 339.97 102.38 323.52 103.17 323.06 103.17 339.52" style="fill: #fff;stroke: #969c9c;stroke-linecap: round;stroke-linejoin: round"/>
                      <polygon points="104.78 338.59 103.98 339.05 103.98 322.59 104.78 322.14 104.78 338.59" style="fill: #fff;stroke: #969c9c;stroke-linecap: round;stroke-linejoin: round"/>
                      <polygon points="106.38 337.67 105.59 338.12 105.59 321.67 106.38 321.21 106.38 337.67" style="fill: #fff;stroke: #969c9c;stroke-linecap: round;stroke-linejoin: round"/>
                      <polygon points="107.98 336.74 107.19 337.2 107.19 320.74 107.98 320.29 107.98 336.74" style="fill: #fff;stroke: #969c9c;stroke-linecap: round;stroke-linejoin: round"/>
                      <polygon points="109.59 335.81 108.8 336.27 108.8 319.82 109.59 319.36 109.59 335.81" style="fill: #fff;stroke: #969c9c;stroke-linecap: round;stroke-linejoin: round"/>
                      <polygon points="111.19 334.89 110.4 335.34 110.4 318.89 111.19 318.43 111.19 334.89" style="fill: #fff;stroke: #969c9c;stroke-linecap: round;stroke-linejoin: round"/>
                      <polygon points="112.8 333.96 112 334.42 112 317.96 112.8 317.51 112.8 333.96" style="fill: #fff;stroke: #969c9c;stroke-linecap: round;stroke-linejoin: round"/>
                      <polygon points="114.4 333.03 113.61 333.49 113.61 317.04 114.4 316.58 114.4 333.03" style="fill: #fff;stroke: #969c9c;stroke-linecap: round;stroke-linejoin: round"/>
                      <polygon points="116 332.11 115.21 332.56 115.21 316.11 116 315.65 116 332.11" style="fill: #fff;stroke: #969c9c;stroke-linecap: round;stroke-linejoin: round"/>
                      <polygon points="117.61 331.18 116.82 331.64 116.82 315.19 117.61 314.73 117.61 331.18" style="fill: #fff;stroke: #969c9c;stroke-linecap: round;stroke-linejoin: round"/>
                      <polygon points="119.21 330.26 118.42 330.71 118.42 314.26 119.21 313.8 119.21 330.26" style="fill: #fff;stroke: #969c9c;stroke-linecap: round;stroke-linejoin: round"/>
                      <polygon points="120.82 329.33 120.03 329.79 120.03 313.33 120.82 312.88 120.82 329.33" style="fill: #fff;stroke: #969c9c;stroke-linecap: round;stroke-linejoin: round"/>
                      <polygon points="122.42 328.4 121.63 328.86 121.63 312.41 122.42 311.95 122.42 328.4" style="fill: #fff;stroke: #969c9c;stroke-linecap: round;stroke-linejoin: round"/>
                      <polygon points="124.02 327.48 123.23 327.94 123.23 311.48 124.02 311.02 124.02 327.48" style="fill: #fff;stroke: #969c9c;stroke-linecap: round;stroke-linejoin: round"/>
                      <polygon points="125.63 326.55 124.84 327.01 124.84 310.56 125.63 310.1 125.63 326.55" style="fill: #fff;stroke: #969c9c;stroke-linecap: round;stroke-linejoin: round"/>
                      <polygon points="127.23 325.63 126.44 326.08 126.44 309.63 127.23 309.17 127.23 325.63" style="fill: #fff;stroke: #969c9c;stroke-linecap: round;stroke-linejoin: round"/>
                      <polygon points="128.84 324.7 128.04 325.16 128.04 308.7 128.84 308.25 128.84 324.7" style="fill: #fff;stroke: #969c9c;stroke-linecap: round;stroke-linejoin: round"/>
                      <polygon points="130.44 323.77 129.65 324.23 129.65 307.78 130.44 307.32 130.44 323.77" style="fill: #fff;stroke: #969c9c;stroke-linecap: round;stroke-linejoin: round"/>
                    </g>
                  </g>
                  <g>
                    <g>
                      <path d="M65.82,339.45c1.5.6,2.15.3,2.65,0" style="fill: #fff;stroke: #969c9c;stroke-linecap: round;stroke-linejoin: round"/>
                      <path d="M65.82,339.45,2.06,302.64a3.2,3.2,0,0,1-1.34-2.56V285.85c0-1,.6-1.44,1.34-1l63.81,36.84a3.09,3.09,0,0,1,1.29,2.46v14.3" style="fill: #fff;stroke: #969c9c;stroke-linecap: round;stroke-linejoin: round"/>
                      <path d="M64.93,334.84c0,.47-.33.66-.73.42a1.62,1.62,0,0,1-.73-1.27c0-.47.33-.66.73-.42A1.62,1.62,0,0,1,64.93,334.84Z" style="fill: #fff;stroke: #969c9c;stroke-linecap: round;stroke-linejoin: round"/>
                      <path d="M65,332c0,.5-.35.71-.79.46a1.75,1.75,0,0,1-.79-1.37c0-.5.35-.71.79-.46A1.75,1.75,0,0,1,65,332Z" style="fill: #fff;stroke: #969c9c;stroke-linecap: round;stroke-linejoin: round"/>
                      <polygon points="52.44 327.04 50.63 326 50.63 318.04 52.44 319.08 52.44 327.04" style="fill: #fff;stroke: #969c9c;stroke-linecap: round;stroke-linejoin: round"/>
                      <polygon points="55.73 328.94 53.92 327.9 53.92 319.94 55.73 320.99 55.73 328.94" style="fill: #fff;stroke: #969c9c;stroke-linecap: round;stroke-linejoin: round"/>
                      <polygon points="59.02 330.84 57.22 329.8 57.22 321.85 59.02 322.89 59.02 330.84" style="fill: #fff;stroke: #969c9c;stroke-linecap: round;stroke-linejoin: round"/>
                      <polygon points="49.14 325.14 47.34 324.1 47.34 316.14 49.14 317.18 49.14 325.14" style="fill: #fff;stroke: #969c9c;stroke-linecap: round;stroke-linejoin: round"/>
                      <polygon points="45.85 323.24 44.04 322.19 44.04 314.24 45.85 315.28 45.85 323.24" style="fill: #fff;stroke: #969c9c;stroke-linecap: round;stroke-linejoin: round"/>
                      <path d="M36.49,313.81c0,1.11-1.57,1.1-3.51,0s-3.51-2.92-3.51-4,1.57-1.1,3.51,0S36.49,312.71,36.49,313.81Z" style="fill: #fff;stroke: #969c9c;stroke-linecap: round;stroke-linejoin: round"/>
                      <path d="M36.49,314.11c0,1-1.36.95-3,0s-3-2.52-3-3.48,1.36-.95,3,0S36.49,313.16,36.49,314.11Z" style="fill: #fff;stroke: #969c9c;stroke-linecap: round;stroke-linejoin: round"/>
                      <path d="M25.4,311.43" style="fill: none;stroke: #969c9c;stroke-linecap: round;stroke-linejoin: round"/>
                      <polygon points="61.13 333.72 6.75 302.32 6.75 290.91 61.13 322.31 61.13 333.72" style="fill: none;stroke: #969c9c;stroke-linecap: round;stroke-linejoin: round"/>
                    </g>
                    <g>
                      <path d="M129.65,286.24l-61,35.19a3.1,3.1,0,0,0-1.58,2.24" style="fill: none;stroke: #969c9c;stroke-linecap: round;stroke-linejoin: round"/>
                      <path d="M.72,285.85a2.77,2.77,0,0,1,1.53-2.77l63.31-36.55a3.25,3.25,0,0,1,2.92-.12l63.83,36.85c.34.19,1.26.5,1.26,2.41" style="fill: #fff;stroke: #969c9c;stroke-linecap: round;stroke-linejoin: round"/>
                      <path d="M42.38,288.84" style="fill: none;stroke: #969c9c;stroke-linecap: round;stroke-linejoin: round"/>
                    </g>
                    <g>
                      <g>
                        <path d="M133.57,285.85v14.23a3.2,3.2,0,0,1-1.34,2.56L68.47,339.45c-.74.43-1.34,0-1.34-1V324.21a3.2,3.2,0,0,1,1.34-2.56l61.17-35.41" style="fill: #fff;stroke: #969c9c;stroke-linecap: round;stroke-linejoin: round"/>
                        <path d="M91.82,321.29" style="fill: none;stroke: #969c9c;stroke-linecap: round;stroke-linejoin: round"/>
                      </g>
                      <path d="M69.51,338.23l-.66.38c-.58.34-1.06,0-1.06-.8v-13.7a2.53,2.53,0,0,1,1.06-2l.66-.38Z" style="fill: #fff;stroke: #969c9c;stroke-linecap: round;stroke-linejoin: round"/>
                      <path d="M131.13,302.65l.81-.47a2.68,2.68,0,0,0,1.12-2.14V286.52c0-.83-.5-1.2-1.12-.85l-.81.47Z" style="fill: #fff;stroke: #969c9c;stroke-linecap: round;stroke-linejoin: round"/>
                      <polygon points="71.09 337.25 70.3 337.71 70.3 321.26 71.09 320.8 71.09 337.25" style="fill: #fff;stroke: #969c9c;stroke-linecap: round;stroke-linejoin: round"/>
                      <polygon points="72.7 336.33 71.91 336.79 71.91 320.33 72.7 319.87 72.7 336.33" style="fill: #fff;stroke: #969c9c;stroke-linecap: round;stroke-linejoin: round"/>
                      <polygon points="74.3 335.4 73.51 335.86 73.51 319.4 74.3 318.95 74.3 335.4" style="fill: #fff;stroke: #969c9c;stroke-linecap: round;stroke-linejoin: round"/>
                      <polygon points="75.9 334.48 75.11 334.93 75.11 318.48 75.9 318.02 75.9 334.48" style="fill: #fff;stroke: #969c9c;stroke-linecap: round;stroke-linejoin: round"/>
                      <polygon points="77.51 333.55 76.72 334.01 76.72 317.55 77.51 317.1 77.51 333.55" style="fill: #fff;stroke: #969c9c;stroke-linecap: round;stroke-linejoin: round"/>
                      <polygon points="79.11 332.62 78.32 333.08 78.32 316.63 79.11 316.17 79.11 332.62" style="fill: #fff;stroke: #969c9c;stroke-linecap: round;stroke-linejoin: round"/>
                      <polygon points="80.72 331.7 79.92 332.15 79.92 315.7 80.72 315.24 80.72 331.7" style="fill: #fff;stroke: #969c9c;stroke-linecap: round;stroke-linejoin: round"/>
                      <polygon points="82.32 330.77 81.53 331.23 81.53 314.77 82.32 314.32 82.32 330.77" style="fill: #fff;stroke: #969c9c;stroke-linecap: round;stroke-linejoin: round"/>
                      <polygon points="83.92 329.85 83.13 330.3 83.13 313.85 83.92 313.39 83.92 329.85" style="fill: #fff;stroke: #969c9c;stroke-linecap: round;stroke-linejoin: round"/>
                      <polygon points="85.53 328.92 84.74 329.38 84.74 312.92 85.53 312.46 85.53 328.92" style="fill: #fff;stroke: #969c9c;stroke-linecap: round;stroke-linejoin: round"/>
                      <polygon points="87.13 327.99 86.34 328.45 86.34 312 87.13 311.54 87.13 327.99" style="fill: #fff;stroke: #969c9c;stroke-linecap: round;stroke-linejoin: round"/>
                      <polygon points="88.74 327.07 87.94 327.52 87.94 311.07 88.74 310.61 88.74 327.07" style="fill: #fff;stroke: #969c9c;stroke-linecap: round;stroke-linejoin: round"/>
                      <polygon points="90.34 326.14 89.55 326.6 89.55 310.14 90.34 309.69 90.34 326.14" style="fill: #fff;stroke: #969c9c;stroke-linecap: round;stroke-linejoin: round"/>
                      <polygon points="91.94 325.21 91.15 325.67 91.15 309.22 91.94 308.76 91.94 325.21" style="fill: #fff;stroke: #969c9c;stroke-linecap: round;stroke-linejoin: round"/>
                      <polygon points="93.55 324.29 92.76 324.75 92.76 308.29 93.55 307.83 93.55 324.29" style="fill: #fff;stroke: #969c9c;stroke-linecap: round;stroke-linejoin: round"/>
                      <polygon points="95.15 323.36 94.36 323.82 94.36 307.37 95.15 306.91 95.15 323.36" style="fill: #fff;stroke: #969c9c;stroke-linecap: round;stroke-linejoin: round"/>
                      <polygon points="96.76 322.44 95.97 322.89 95.97 306.44 96.76 305.98 96.76 322.44" style="fill: #fff;stroke: #969c9c;stroke-linecap: round;stroke-linejoin: round"/>
                      <polygon points="98.36 321.51 97.57 321.97 97.57 305.51 98.36 305.06 98.36 321.51" style="fill: #fff;stroke: #969c9c;stroke-linecap: round;stroke-linejoin: round"/>
                      <polygon points="99.96 320.58 99.17 321.04 99.17 304.59 99.96 304.13 99.96 320.58" style="fill: #fff;stroke: #969c9c;stroke-linecap: round;stroke-linejoin: round"/>
                      <polygon points="101.57 319.66 100.78 320.12 100.78 303.66 101.57 303.2 101.57 319.66" style="fill: #fff;stroke: #969c9c;stroke-linecap: round;stroke-linejoin: round"/>
                      <polygon points="103.17 318.73 102.38 319.19 102.38 302.74 103.17 302.28 103.17 318.73" style="fill: #fff;stroke: #969c9c;stroke-linecap: round;stroke-linejoin: round"/>
                      <polygon points="104.78 317.81 103.98 318.26 103.98 301.81 104.78 301.35 104.78 317.81" style="fill: #fff;stroke: #969c9c;stroke-linecap: round;stroke-linejoin: round"/>
                      <polygon points="106.38 316.88 105.59 317.34 105.59 300.88 106.38 300.43 106.38 316.88" style="fill: #fff;stroke: #969c9c;stroke-linecap: round;stroke-linejoin: round"/>
                      <polygon points="107.98 315.95 107.19 316.41 107.19 299.96 107.98 299.5 107.98 315.95" style="fill: #fff;stroke: #969c9c;stroke-linecap: round;stroke-linejoin: round"/>
                      <polygon points="109.59 315.03 108.8 315.49 108.8 299.03 109.59 298.57 109.59 315.03" style="fill: #fff;stroke: #969c9c;stroke-linecap: round;stroke-linejoin: round"/>
                      <polygon points="111.19 314.1 110.4 314.56 110.4 298.11 111.19 297.65 111.19 314.1" style="fill: #fff;stroke: #969c9c;stroke-linecap: round;stroke-linejoin: round"/>
                      <polygon points="112.8 313.18 112 313.63 112 297.18 112.8 296.72 112.8 313.18" style="fill: #fff;stroke: #969c9c;stroke-linecap: round;stroke-linejoin: round"/>
                      <polygon points="114.4 312.25 113.61 312.71 113.61 296.25 114.4 295.8 114.4 312.25" style="fill: #fff;stroke: #969c9c;stroke-linecap: round;stroke-linejoin: round"/>
                      <polygon points="116 311.32 115.21 311.78 115.21 295.33 116 294.87 116 311.32" style="fill: #fff;stroke: #969c9c;stroke-linecap: round;stroke-linejoin: round"/>
                      <polygon points="117.61 310.4 116.82 310.86 116.82 294.4 117.61 293.94 117.61 310.4" style="fill: #fff;stroke: #969c9c;stroke-linecap: round;stroke-linejoin: round"/>
                      <polygon points="119.21 309.47 118.42 309.93 118.42 293.48 119.21 293.02 119.21 309.47" style="fill: #fff;stroke: #969c9c;stroke-linecap: round;stroke-linejoin: round"/>
                      <polygon points="120.82 308.55 120.03 309 120.03 292.55 120.82 292.09 120.82 308.55" style="fill: #fff;stroke: #969c9c;stroke-linecap: round;stroke-linejoin: round"/>
                      <polygon points="122.42 307.62 121.63 308.08 121.63 291.62 122.42 291.17 122.42 307.62" style="fill: #fff;stroke: #969c9c;stroke-linecap: round;stroke-linejoin: round"/>
                      <polygon points="124.02 306.69 123.23 307.15 123.23 290.7 124.02 290.24 124.02 306.69" style="fill: #fff;stroke: #969c9c;stroke-linecap: round;stroke-linejoin: round"/>
                      <polygon points="125.63 305.77 124.84 306.22 124.84 289.77 125.63 289.31 125.63 305.77" style="fill: #fff;stroke: #969c9c;stroke-linecap: round;stroke-linejoin: round"/>
                      <polygon points="127.23 304.84 126.44 305.3 126.44 288.84 127.23 288.39 127.23 304.84" style="fill: #fff;stroke: #969c9c;stroke-linecap: round;stroke-linejoin: round"/>
                      <polygon points="128.84 303.92 128.04 304.37 128.04 287.92 128.84 287.46 128.84 303.92" style="fill: #fff;stroke: #969c9c;stroke-linecap: round;stroke-linejoin: round"/>
                      <polygon points="130.44 302.99 129.65 303.45 129.65 286.99 130.44 286.54 130.44 302.99" style="fill: #fff;stroke: #969c9c;stroke-linecap: round;stroke-linejoin: round"/>
                    </g>
                  </g>
                  <g>
                    <g>
                      <path d="M65.82,318.21c1.5.6,2.15.3,2.65,0" style="fill: #fff;stroke: #969c9c;stroke-linecap: round;stroke-linejoin: round"/>
                      <path d="M65.82,318.21,2.06,281.4a3.2,3.2,0,0,1-1.34-2.56V264.61c0-1,.6-1.44,1.34-1l63.81,36.84a3.09,3.09,0,0,1,1.29,2.46v14.3" style="fill: #fff;stroke: #969c9c;stroke-linecap: round;stroke-linejoin: round"/>
                      <path d="M64.93,313.6c0,.47-.33.66-.73.42a1.62,1.62,0,0,1-.73-1.27c0-.47.33-.66.73-.42A1.62,1.62,0,0,1,64.93,313.6Z" style="fill: #fff;stroke: #969c9c;stroke-linecap: round;stroke-linejoin: round"/>
                      <path d="M65,310.73c0,.5-.35.71-.79.46a1.75,1.75,0,0,1-.79-1.37c0-.5.35-.71.79-.46A1.75,1.75,0,0,1,65,310.73Z" style="fill: #fff;stroke: #969c9c;stroke-linecap: round;stroke-linejoin: round"/>
                      <polygon points="52.44 305.8 50.63 304.76 50.63 296.8 52.44 297.85 52.44 305.8" style="fill: #fff;stroke: #969c9c;stroke-linecap: round;stroke-linejoin: round"/>
                      <polygon points="55.73 307.7 53.92 306.66 53.92 298.7 55.73 299.75 55.73 307.7" style="fill: #fff;stroke: #969c9c;stroke-linecap: round;stroke-linejoin: round"/>
                      <polygon points="59.02 309.61 57.22 308.56 57.22 300.61 59.02 301.65 59.02 309.61" style="fill: #fff;stroke: #969c9c;stroke-linecap: round;stroke-linejoin: round"/>
                      <polygon points="49.14 303.9 47.34 302.86 47.34 294.9 49.14 295.94 49.14 303.9" style="fill: #fff;stroke: #969c9c;stroke-linecap: round;stroke-linejoin: round"/>
                      <polygon points="45.85 302 44.04 300.95 44.04 293 45.85 294.04 45.85 302" style="fill: #fff;stroke: #969c9c;stroke-linecap: round;stroke-linejoin: round"/>
                      <path d="M36.49,292.57c0,1.11-1.57,1.1-3.51,0s-3.51-2.92-3.51-4,1.57-1.1,3.51,0S36.49,291.47,36.49,292.57Z" style="fill: #fff;stroke: #969c9c;stroke-linecap: round;stroke-linejoin: round"/>
                      <path d="M36.49,292.88c0,1-1.36.95-3,0s-3-2.52-3-3.48,1.36-.95,3,0S36.49,291.92,36.49,292.88Z" style="fill: #fff;stroke: #969c9c;stroke-linecap: round;stroke-linejoin: round"/>
                      <path d="M25.4,290.19" style="fill: none;stroke: #969c9c;stroke-linecap: round;stroke-linejoin: round"/>
                      <polygon points="61.13 312.49 6.75 281.09 6.75 269.68 61.13 301.07 61.13 312.49" style="fill: none;stroke: #969c9c;stroke-linecap: round;stroke-linejoin: round"/>
                    </g>
                    <g>
                      <path d="M129.65,265l-61,35.19a3.1,3.1,0,0,0-1.58,2.24" style="fill: none;stroke: #969c9c;stroke-linecap: round;stroke-linejoin: round"/>
                      <path d="M.72,264.61a2.77,2.77,0,0,1,1.53-2.77l63.31-36.55a3.25,3.25,0,0,1,2.92-.12L132.31,262c.34.19,1.26.5,1.26,2.41" style="fill: #fff;stroke: #969c9c;stroke-linecap: round;stroke-linejoin: round"/>
                      <path d="M42.38,267.6" style="fill: none;stroke: #969c9c;stroke-linecap: round;stroke-linejoin: round"/>
                    </g>
                    <g>
                      <g>
                        <path d="M133.57,264.61v14.23a3.2,3.2,0,0,1-1.34,2.56L68.47,318.21c-.74.43-1.34,0-1.34-1V303a3.2,3.2,0,0,1,1.34-2.56L129.65,265" style="fill: #fff;stroke: #969c9c;stroke-linecap: round;stroke-linejoin: round"/>
                        <path d="M91.82,300.05" style="fill: none;stroke: #969c9c;stroke-linecap: round;stroke-linejoin: round"/>
                      </g>
                      <path d="M69.51,317l-.66.38c-.58.34-1.06,0-1.06-.8v-13.7a2.53,2.53,0,0,1,1.06-2l.66-.38Z" style="fill: #fff;stroke: #969c9c;stroke-linecap: round;stroke-linejoin: round"/>
                      <path d="M131.13,281.42l.81-.47a2.68,2.68,0,0,0,1.12-2.14V265.28c0-.83-.5-1.2-1.12-.85l-.81.47Z" style="fill: #fff;stroke: #969c9c;stroke-linecap: round;stroke-linejoin: round"/>
                      <polygon points="71.09 316.01 70.3 316.47 70.3 300.02 71.09 299.56 71.09 316.01" style="fill: #fff;stroke: #969c9c;stroke-linecap: round;stroke-linejoin: round"/>
                      <polygon points="72.7 315.09 71.91 315.55 71.91 299.09 72.7 298.63 72.7 315.09" style="fill: #fff;stroke: #969c9c;stroke-linecap: round;stroke-linejoin: round"/>
                      <polygon points="74.3 314.16 73.51 314.62 73.51 298.17 74.3 297.71 74.3 314.16" style="fill: #fff;stroke: #969c9c;stroke-linecap: round;stroke-linejoin: round"/>
                      <polygon points="75.9 313.24 75.11 313.69 75.11 297.24 75.9 296.78 75.9 313.24" style="fill: #fff;stroke: #969c9c;stroke-linecap: round;stroke-linejoin: round"/>
                      <polygon points="77.51 312.31 76.72 312.77 76.72 296.31 77.51 295.86 77.51 312.31" style="fill: #fff;stroke: #969c9c;stroke-linecap: round;stroke-linejoin: round"/>
                      <polygon points="79.11 311.38 78.32 311.84 78.32 295.39 79.11 294.93 79.11 311.38" style="fill: #fff;stroke: #969c9c;stroke-linecap: round;stroke-linejoin: round"/>
                      <polygon points="80.72 310.46 79.92 310.92 79.92 294.46 80.72 294 80.72 310.46" style="fill: #fff;stroke: #969c9c;stroke-linecap: round;stroke-linejoin: round"/>
                      <polygon points="82.32 309.53 81.53 309.99 81.53 293.54 82.32 293.08 82.32 309.53" style="fill: #fff;stroke: #969c9c;stroke-linecap: round;stroke-linejoin: round"/>
                      <polygon points="83.92 308.61 83.13 309.06 83.13 292.61 83.92 292.15 83.92 308.61" style="fill: #fff;stroke: #969c9c;stroke-linecap: round;stroke-linejoin: round"/>
                      <polygon points="85.53 307.68 84.74 308.14 84.74 291.68 85.53 291.23 85.53 307.68" style="fill: #fff;stroke: #969c9c;stroke-linecap: round;stroke-linejoin: round"/>
                      <polygon points="87.13 306.75 86.34 307.21 86.34 290.76 87.13 290.3 87.13 306.75" style="fill: #fff;stroke: #969c9c;stroke-linecap: round;stroke-linejoin: round"/>
                      <polygon points="88.74 305.83 87.94 306.29 87.94 289.83 88.74 289.38 88.74 305.83" style="fill: #fff;stroke: #969c9c;stroke-linecap: round;stroke-linejoin: round"/>
                      <polygon points="90.34 304.9 89.55 305.36 89.55 288.9 90.34 288.45 90.34 304.9" style="fill: #fff;stroke: #969c9c;stroke-linecap: round;stroke-linejoin: round"/>
                      <polygon points="91.94 303.98 91.15 304.43 91.15 287.98 91.94 287.52 91.94 303.98" style="fill: #fff;stroke: #969c9c;stroke-linecap: round;stroke-linejoin: round"/>
                      <polygon points="93.55 303.05 92.76 303.51 92.76 287.05 93.55 286.6 93.55 303.05" style="fill: #fff;stroke: #969c9c;stroke-linecap: round;stroke-linejoin: round"/>
                      <polygon points="95.15 302.12 94.36 302.58 94.36 286.13 95.15 285.67 95.15 302.12" style="fill: #fff;stroke: #969c9c;stroke-linecap: round;stroke-linejoin: round"/>
                      <polygon points="96.76 301.2 95.97 301.65 95.97 285.2 96.76 284.74 96.76 301.2" style="fill: #fff;stroke: #969c9c;stroke-linecap: round;stroke-linejoin: round"/>
                      <polygon points="98.36 300.27 97.57 300.73 97.57 284.27 98.36 283.82 98.36 300.27" style="fill: #fff;stroke: #969c9c;stroke-linecap: round;stroke-linejoin: round"/>
                      <polygon points="99.96 299.35 99.17 299.8 99.17 283.35 99.96 282.89 99.96 299.35" style="fill: #fff;stroke: #969c9c;stroke-linecap: round;stroke-linejoin: round"/>
                      <polygon points="101.57 298.42 100.78 298.88 100.78 282.42 101.57 281.97 101.57 298.42" style="fill: #fff;stroke: #969c9c;stroke-linecap: round;stroke-linejoin: round"/>
                      <polygon points="103.17 297.49 102.38 297.95 102.38 281.5 103.17 281.04 103.17 297.49" style="fill: #fff;stroke: #969c9c;stroke-linecap: round;stroke-linejoin: round"/>
                      <polygon points="104.78 296.57 103.98 297.02 103.98 280.57 104.78 280.11 104.78 296.57" style="fill: #fff;stroke: #969c9c;stroke-linecap: round;stroke-linejoin: round"/>
                      <polygon points="106.38 295.64 105.59 296.1 105.59 279.64 106.38 279.19 106.38 295.64" style="fill: #fff;stroke: #969c9c;stroke-linecap: round;stroke-linejoin: round"/>
                      <polygon points="107.98 294.71 107.19 295.17 107.19 278.72 107.98 278.26 107.98 294.71" style="fill: #fff;stroke: #969c9c;stroke-linecap: round;stroke-linejoin: round"/>
                      <polygon points="109.59 293.79 108.8 294.25 108.8 277.79 109.59 277.34 109.59 293.79" style="fill: #fff;stroke: #969c9c;stroke-linecap: round;stroke-linejoin: round"/>
                      <polygon points="111.19 292.86 110.4 293.32 110.4 276.87 111.19 276.41 111.19 292.86" style="fill: #fff;stroke: #969c9c;stroke-linecap: round;stroke-linejoin: round"/>
                      <polygon points="112.8 291.94 112 292.39 112 275.94 112.8 275.48 112.8 291.94" style="fill: #fff;stroke: #969c9c;stroke-linecap: round;stroke-linejoin: round"/>
                      <polygon points="114.4 291.01 113.61 291.47 113.61 275.01 114.4 274.56 114.4 291.01" style="fill: #fff;stroke: #969c9c;stroke-linecap: round;stroke-linejoin: round"/>
                      <polygon points="116 290.08 115.21 290.54 115.21 274.09 116 273.63 116 290.08" style="fill: #fff;stroke: #969c9c;stroke-linecap: round;stroke-linejoin: round"/>
                      <polygon points="117.61 289.16 116.82 289.62 116.82 273.16 117.61 272.7 117.61 289.16" style="fill: #fff;stroke: #969c9c;stroke-linecap: round;stroke-linejoin: round"/>
                      <polygon points="119.21 288.23 118.42 288.69 118.42 272.24 119.21 271.78 119.21 288.23" style="fill: #fff;stroke: #969c9c;stroke-linecap: round;stroke-linejoin: round"/>
                      <polygon points="120.82 287.31 120.03 287.76 120.03 271.31 120.82 270.85 120.82 287.31" style="fill: #fff;stroke: #969c9c;stroke-linecap: round;stroke-linejoin: round"/>
                      <polygon points="122.42 286.38 121.63 286.84 121.63 270.38 122.42 269.93 122.42 286.38" style="fill: #fff;stroke: #969c9c;stroke-linecap: round;stroke-linejoin: round"/>
                      <polygon points="124.02 285.45 123.23 285.91 123.23 269.46 124.02 269 124.02 285.45" style="fill: #fff;stroke: #969c9c;stroke-linecap: round;stroke-linejoin: round"/>
                      <polygon points="125.63 284.53 124.84 284.99 124.84 268.53 125.63 268.07 125.63 284.53" style="fill: #fff;stroke: #969c9c;stroke-linecap: round;stroke-linejoin: round"/>
                      <polygon points="127.23 283.6 126.44 284.06 126.44 267.61 127.23 267.15 127.23 283.6" style="fill: #fff;stroke: #969c9c;stroke-linecap: round;stroke-linejoin: round"/>
                      <polygon points="128.84 282.68 128.04 283.13 128.04 266.68 128.84 266.22 128.84 282.68" style="fill: #fff;stroke: #969c9c;stroke-linecap: round;stroke-linejoin: round"/>
                      <polygon points="130.44 281.75 129.65 282.21 129.65 265.75 130.44 265.3 130.44 281.75" style="fill: #fff;stroke: #969c9c;stroke-linecap: round;stroke-linejoin: round"/>
                    </g>
                  </g>
                </g>
                <path d="M.5,264.11c0-1.91.92-2.22,1.26-2.41l63.83-36.85a3.25,3.25,0,0,1,2.92.12l63.31,36.55a2.77,2.77,0,0,1,1.53,2.77s-.35-1.5-1.34-1L67.83,299.79a1.45,1.45,0,0,0-.9,1.52s-.74-1.53-1.95-1.57h0l-62-35.16C.53,263.15.5,264.11.5,264.11" style="fill: #fff;stroke: #969c9c;stroke-linecap: round;stroke-linejoin: round"/>
              </g>
            </g>
          </g>
        </g>
      </g>
    </g>
  </g>
</svg>
