<svg xmlns="http://www.w3.org/2000/svg" width="32.08" height="31.69" viewBox="0 0 32.08 31.69">
  <title>icon-link</title>
  <g id="Layer_2" data-name="Layer 2">
    <g id="Home_-_1200" data-name="Home - 1200">
      <g id="Footer">
        <path d="M25.81,31.69V19.3c0-2.83-1.44-4.76-3.9-4.76A4.39,4.39,0,0,0,18,17.1a4.92,4.92,0,0,0-.22,1.71V31.69H11.36V16.52c0-2.74,0-5.14-.07-7.11l5.81-.11.32,3.28h.13A7.89,7.89,0,0,1,24.33,9c4.49,0,7.74,3,7.74,9.47v13.2ZM3.55,6.82A3.36,3.36,0,0,1,0,3.41,3.39,3.39,0,0,1,3.64,0,3.38,3.38,0,0,1,7.23,3.41,3.4,3.4,0,0,1,3.55,6.82Zm3,24.76H.18V9.29H6.56Z" style="fill: #373e5a;fill-rule: evenodd"/>
      </g>
    </g>
  </g>
</svg>
