<svg xmlns="http://www.w3.org/2000/svg" width="201.79" height="169.07" viewBox="0 0 201.79 169.07">
  <title>icon-bug-mobile</title>
  <g id="Layer_2" data-name="Layer 2">
    <g id="cWatch_Home" data-name="cWatch Home">
      <g id="_575" data-name="575">
        <g id="Malware_Removal" data-name="Malware Removal">
          <g id="Bug">
            <g id="Fills">
              <path d="M196.14,49.32s-1.61,2.06.27,3.15a3.66,3.66,0,0,0,1.81.55l2.23.44.37.07-2.36-1.78,1.34-.24-.59-1,2.58.16-2.56-1.65C198.55,48.39,197.44,47.82,196.14,49.32Z" style="fill: #3f4563"/>
              <path d="M188.73,44.33s-4.77-4.61-7.06,1.17c0,0-1.6,4.72,2.34,5.49a6,6,0,0,0,4.27-.42S184.66,48,188.73,44.33Z" style="fill: #fff;stroke: #3f4563;stroke-linecap: round;stroke-linejoin: round"/>
              <path d="M195.16,47.48s-2-3.88-4.68-.84c0,0-2,2.54.34,3.88a4.07,4.07,0,0,0,2.77.68S191.83,48.85,195.16,47.48Z" style="fill: #fff;stroke: #3f4563;stroke-linecap: round;stroke-linejoin: round"/>
              <path d="M160.41,41.9a1.49,1.49,0,0,1-1-2.29,103,103,0,0,0,7.72-13.68c2.84-6.4,10.54-10.67,13.94-10.85a1.49,1.49,0,0,1,1.51,1.14h0a4.85,4.85,0,0,0,2.5,3.11l.89.45s-.84,2.29-6.11,5.37c-4.77,2.79-14.12,12.06-16.07,16.14a1.53,1.53,0,0,1-1.62.9Z" style="fill: #3f4563"/>
              <path d="M186.4,15.79s-1.69-4.2-3.49.72c0,0-5.19,18-6.21,26.69a2.19,2.19,0,0,0,.15,1.1c.59,1.49,2.46,5.48,5.59,5.81a1.17,1.17,0,0,0,.77-.18c1-.66,3.25-3.29,1.9-13.38a28,28,0,0,1-.13-6.43Z" style="fill: #3f4563"/>
              <path d="M181.56,41s7.59,14.63-6.07,35C171.42,82,159.14,88.24,152,89.47c-13.83,2.37-33.57,7.69-68.31-7.7,0,0-29.13-13.82-19.76-44.77S73.76,9.3,73.76,9.3,147.65-25.53,181.56,41Z" style="fill: #3f4563"/>
              <path d="M80,79.49a1.77,1.77,0,0,0-2.72,1.21,122.29,122.29,0,0,1-4.11,18.19c-2.61,7.9.77,17.8,3.61,20.66a1.77,1.77,0,0,0,2.23.21h0a5.76,5.76,0,0,1,4.68-.74l1.14.31s1.09-2.68-1.09-9.6c-2-6.25-2.81-21.87-1.27-27a1.82,1.82,0,0,0-.71-2.08Z" style="fill: #3f4563"/>
              <path d="M83,121.06s-3.73-2.56-2.5,2.53c0,0,2.6,12.86,6.59,20.68a2.19,2.19,0,0,0,.73.83c1.32.91,5.09,3.2,7.87,1.74a1.17,1.17,0,0,0,.54-.58c.45-1.09.88-4.54-5.83-12.19a30.23,30.23,0,0,1-3.5-5.69Z" style="fill: #3f4563"/>
              <path d="M156.25,104.91l-17.72-7a8.68,8.68,0,0,0-4.66-.47l-8.42,1.46a24,24,0,0,1-10.79-.45c-7.43-2.15-8.89-6.44-9.18-8.25A1.16,1.16,0,0,1,106,89c6.17-3.16,29.13,3,30.2,3.29l.1,0,19.89,7.59a13.92,13.92,0,0,1,3.53,1.35c1,.68-1.87,3.1-1.87,3.1A1.34,1.34,0,0,1,156.25,104.91Z" style="fill: #3f4563"/>
              <path d="M158.48,107.08s-.65-1.48.15-2l1.62-1.21s1.61-1.81,2.93,1.93c0,0,1.06,1.76,2.23,3.44a17,17,0,0,1,1.15,1.89c1.06,2,3.36,6.49,5.16,10.48a18.18,18.18,0,0,0,2,3.38,25.59,25.59,0,0,0,3.64,4.06l1.42,1.28s.09,1-.76,1.14l-4.36-.22s-1.14-.21-1.47.22l-2.24,2.23a1.47,1.47,0,0,1-2.08-.62s-.76-7.5-1.95-9.58C165.89,123.46,160.47,110.91,158.48,107.08Z" style="fill: #3f4563"/>
              <path d="M47.6,70.45,21,69.9s-.79,0-.4.84l.74,1.66A3.88,3.88,0,0,1,21.61,74l-.48,5.69s-.26.92.62.44l6.33-3.24,1.28,1.72L43.51,73.5a2.85,2.85,0,0,1,2.07,0c1.28.53,3.35,1.39,3.8,1.54,0,0,.87.25.87-.62L49.38,71s-.15-.7-1.33-.57Z" style="fill: #3f4563"/>
              <path d="M66.48,60.37c.66.61,3.38,6.16,2.87,6.56a44,44,0,0,0-7,6.62C59.59,77,54,76.7,51.82,75.32a1.92,1.92,0,0,1-.8-1.51h0a6.4,6.4,0,0,0-1.14-3.41l-.5-.73s.88-1.31,4.71-1.23c3.47.08,8.29-7,10.14-9.13a.78.78,0,0,1,1.17.06Z" style="fill: #3f4563"/>
              <path d="M35.18,52.42a.45.45,0,0,1-.61-.11l-3.79-5.2s0,0,0,0l6.58.33,5-2.92c1.62-.94,1.8-.85,1.17.56l1.18.56A3.41,3.41,0,0,1,43.59,47Z" style="fill: #3f4563"/>
              <path d="M44.42,40l-2.8-2.09-9.24.88c-.05,0,4.4-2.54,0,0L43,32.17a.62.62,0,0,1,.16-.06h0c.14,0,.25,0,.29.07h0a.19.19,0,0,1,0,.13l0,.08L48,37a1.16,1.16,0,0,1,0,1.2l-1.82.88C45.6,40.49,45.32,40.62,44.42,40Z" style="fill: #3f4563"/>
              <path d="M5.47,75s.6-2.32-1.38-2.55a3.36,3.36,0,0,0-1.72.19l-2,.45L0,73.18l2.63.64-1,.68.85.59L.21,75.9,3,76.35C3.79,76.68,4.93,76.75,5.47,75Z" style="fill: #3f4563"/>
              <path d="M181.67,143.27s-2.17,1-1.09,2.69a3.36,3.36,0,0,0,1.25,1.2l1.64,1.28.27.21-1.19-2.44,1.19.36-.09-1,2,1.2-1.41-2.41C184,143.51,183.35,142.59,181.67,143.27Z" style="fill: #3f4563"/>
              <path d="M94.49,163.25s-2.33-1.19-3,.87a3.66,3.66,0,0,0-.2,1.88v2.65l1.3-2.66.49,1.27.83-.77.34,2.56,1.13-2.83C95.86,165.44,96.2,164.24,94.49,163.25Z" style="fill: #3f4563"/>
            </g>
            <path d="M68.83,18.18a10.84,10.84,0,0,1,4.94-7.82C78.32,7.57,145.12-22.38,180,38.14c0,0-4.55-6.53-24.16-15.26S100.57,6.14,68.83,18.18Z" style="fill: #fff;stroke: #3f4563;stroke-linecap: round;stroke-linejoin: round"/>
            <path d="M65.8,27.31s-3.33,11.45-1.91,19.76c0,0,7.35,36.19,70,34.59,0,0,48.08,4.22,44.15-39.55,0,0-12.83-24.1-64.74-29.63,0,0-42.66-1.63-46.34,11.41Z" style="fill: #fff;stroke: #3f4563;stroke-linecap: round;stroke-linejoin: round"/>
            <g>
              <path d="M128.57,38.11c.68-5.31-1.92-10-7.71-10.76s-9.57,3.14-10.25,8.45c-.59,4.57,1.32,8.69,5.55,10.22l-.3,2.33,4.46.57.3-2.31C125.13,46.23,128,42.7,128.57,38.11Z" style="fill: #fff;stroke: #3f4563;stroke-linecap: round;stroke-linejoin: round"/>
              <path d="M115.51,40.31s-4.27.35-2.95-2.51S117.11,38.69,115.51,40.31Z" style="fill: #fff;stroke: #3f4563;stroke-linecap: round;stroke-linejoin: round"/>
              <path d="M122.61,41.26s4.07,1.33,3.45-1.75S121.43,39.31,122.61,41.26Z" style="fill: #fff;stroke: #3f4563;stroke-linecap: round;stroke-linejoin: round"/>
              <path d="M98.36,61.15c-.65-2.32,1.17-1.74,1.9-2.06.46-.2.75.53.9,1.11l30.3-9.13c-.28-.56-.37-1.23.7-1.71,1.4-.63,1.86-.46,2.51,1.86s-1.17,1.74-1.9,2.06c-.46.2-.75-.53-.9-1.11l-30.3,9.13c.28.56.37,1.23-.7,1.71C99.47,63.64,99,63.47,98.36,61.15Z" style="fill: #fff;stroke: #3f4563;stroke-linecap: round;stroke-linejoin: round"/>
              <path d="M132.83,65.57c1.21-2.08-.69-2-1.31-2.47-.39-.31-.86.33-1.15.85l-27-16.48c.41-.47.67-1.09-.25-1.83-1.2-1-1.69-.91-2.9,1.17s.69,2,1.31,2.47c.39.31.86-.33,1.15-.85l27,16.48c-.41.47-.67,1.09.25,1.83C131.13,67.7,131.61,67.66,132.83,65.57Z" style="fill: #fff;stroke: #3f4563;stroke-linecap: round;stroke-linejoin: round"/>
            </g>
            <path d="M65.59,20.05s-5.72-3.46-11.1,4.64L47.05,36.59S36,49.33,50.77,52.57c0,0,6.9.84,11.1.15l4.94-31.89Z" style="fill: #fff;stroke: #3f4563;stroke-miterlimit: 10"/>
            <g id="Lines">
              <path d="M43.08,45.29a3.66,3.66,0,0,0,1.09,1.6c2,1.77,5.47,1.13,7.73-1.43s2.46-6.07.45-7.85a8.6,8.6,0,0,1-2.28-5.85S41.78,41.3,43.08,45.29Z" style="fill: none;stroke: #3f4563;stroke-linecap: round;stroke-linejoin: round"/>
              <path d="M59.36,42.66s-11.83,2.18-7.36-14" style="fill: none;stroke: #3f4563;stroke-linecap: round;stroke-linejoin: round"/>
            </g>
            <path d="M178.74,136.27s-.31-6.07-5.46-3.63c0,0-4,2.16-1.86,5.14a5.46,5.46,0,0,0,3.12,2.39S173.69,136.21,178.74,136.27Z" style="fill: #fff;stroke: #3f4563;stroke-linecap: round;stroke-linejoin: round"/>
            <path d="M181.92,141.35s-.06-4-3.48-2.62c0,0-2.68,1.25-1.34,3.31a3.73,3.73,0,0,0,2,1.71S178.63,141.09,181.92,141.35Z" style="fill: #fff;stroke: #3f4563;stroke-linecap: round;stroke-linejoin: round"/>
            <path d="M98,155s3.61-5.56-2.5-6.7c0,0-4.94-.67-4.94,3.35a6,6,0,0,0,1.23,4.11S93.55,151.73,98,155Z" style="fill: #fff;stroke: #3f4563;stroke-linecap: round;stroke-linejoin: round"/>
            <path d="M96.1,161.94s3.41-2.75-.07-4.75c0,0-2.87-1.46-3.75,1.07a4.07,4.07,0,0,0-.14,2.85S94.12,158.93,96.1,161.94Z" style="fill: #fff;stroke: #3f4563;stroke-linecap: round;stroke-linejoin: round"/>
            <path d="M12.73,77.23S17.6,80.86,19,75.34c0,0,.91-4.48-2.77-4.72a5.46,5.46,0,0,0-3.83.88S16,73.39,12.73,77.23Z" style="fill: #fff;stroke: #3f4563;stroke-linecap: round;stroke-linejoin: round"/>
            <path d="M6.79,76.44S9.92,79,11,75.44c0,0,.74-2.86-1.7-3.14a3.73,3.73,0,0,0-2.58.43S9.09,74.07,6.79,76.44Z" style="fill: #fff;stroke: #3f4563;stroke-linecap: round;stroke-linejoin: round"/>
          </g>
        </g>
      </g>
    </g>
  </g>
</svg>
