<svg xmlns="http://www.w3.org/2000/svg" viewBox="0 0 185.42 25.19"><defs><style>.cls-1{fill:#fff;}</style></defs><title>icon-comodo</title><g id="Layer_2" data-name="Layer 2"><g id="_1200" data-name="1200"><g id="Comodo"><g id="Comodo-2" data-name="Comodo"><path class="cls-1" d="M140.09.56H129.31l0,.73c0,1.61.58,3.63,3.29,3.63h7.21c4.21,0,6.45,1.38,5.81,6.09l-.51,3.76c-.63,4.86-4.11,5.57-7.19,5.57h-4.09L135,11a3,3,0,0,0-3.06-3.55H128.4l-.94,7.71-.89,6.76c-.25,1.81,1.07,2.82,3.92,2.82h8.29c8.44,0,10.72-3,11.88-5a11.6,11.6,0,0,0,1.34-4c.05-.3.62-5.13.62-5.13.36-2.91-.19-5.14-1.66-6.79C149,1.68,145.46.56,140.09.56Z"/><path class="cls-1" d="M42.23,0H41C32.56.09,28.12,3.61,27.19,10.37l-.56,4.37c-.36,3,.18,5.28,1.64,6.92,1.81,2,5,3.49,9.76,3.53h1.19c8.29-.08,12.72-3.5,13.75-9.78l.08-.45.56-4.37c.37-3.13-.18-5.47-1.68-7.16C50.12,1.4,47,.05,42.23,0Zm4.42,10.56-.52,4a8.61,8.61,0,0,1-1.48,4.15,5.9,5.9,0,0,1-4.89,2.18H38.44c-2.22,0-3.82-.77-4.5-2a7.4,7.4,0,0,1-.35-4.09l.52-4A7.84,7.84,0,0,1,36.19,6a6.26,6.26,0,0,1,4.53-1.58h1.22c1.28,0,3,.22,3.94,1.47C46.68,6.9,46.93,8.45,46.65,10.56Z"/><path class="cls-1" d="M183.63,3.43c-1.81-2-4.95-3.38-9.7-3.43h-1.2c-8.47.09-12.91,3.61-13.84,10.37l-.56,4.37c-.36,3,.18,5.28,1.64,6.92,1.8,2,5,3.49,9.76,3.53h1.19c8.29-.08,12.72-3.5,13.76-9.78l.07-.45.56-4.37C185.68,7.46,185.12,5.12,183.63,3.43Zm-5.28,7.13-.53,4a8.51,8.51,0,0,1-1.48,4.15,5.9,5.9,0,0,1-4.89,2.18h-1.31c-2.22,0-3.82-.77-4.51-2a7.32,7.32,0,0,1-.34-4.09l.52-4A7.79,7.79,0,0,1,167.9,6a6.21,6.21,0,0,1,4.51-1.58h1.22c1.29,0,3,.22,4,1.47C178.37,6.9,178.62,8.45,178.35,10.56Z"/><path class="cls-1" d="M110.54,0h-1.2c-8.48.09-12.91,3.61-13.85,10.37l-.55,4.37c-.36,3,.18,5.28,1.64,6.92,1.8,2,5,3.49,9.76,3.53h1.19c8.29-.08,12.72-3.5,13.76-9.78l.07-.45.56-4.37c.37-3.13-.18-5.47-1.68-7.16C118.43,1.4,115.29.05,110.54,0ZM115,10.56l-.52,4A8.61,8.61,0,0,1,113,18.7a5.9,5.9,0,0,1-4.9,2.18h-1.31c-2.22,0-3.82-.77-4.5-2a7.4,7.4,0,0,1-.35-4.09l.52-4A7.79,7.79,0,0,1,104.51,6,6.23,6.23,0,0,1,109,4.38h1.22c1.29,0,3,.22,3.94,1.47C115,6.9,115.24,8.45,115,10.56Z"/><path class="cls-1" d="M83.71,1.89,74.4,12.45,67.85,2C67.23,1,66,.54,64.07.54H61.12L58.17,24.73h3.61a3.78,3.78,0,0,0,2.53-.95,4.1,4.1,0,0,0,1.4-2.6L67,10.57l4.83,9.17a2.18,2.18,0,0,0,1.57,1.12h.06a2.59,2.59,0,0,0,1.71-1l7.34-9.24-1.76,14.1h3.48a3.83,3.83,0,0,0,2.54-.94,4.27,4.27,0,0,0,1.4-2.61L90.76.54H87.68A5.13,5.13,0,0,0,83.71,1.89Z"/><path class="cls-1" d="M14,.55A22.9,22.9,0,0,0,10.68.8c-6,.9-9.27,4.19-10,9.75L.1,14.78c-.34,2.91.18,5.09,1.59,6.68,1.63,1.83,4.43,3.31,8.59,3.31h7.3c4.23,0,4.73-4.42,4.73-4.42H12.64a10.86,10.86,0,0,1-3.49-.44A3.16,3.16,0,0,1,7,17.24a10.94,10.94,0,0,1,0-2.61l.48-3.7A13.68,13.68,0,0,1,8,8.59,5.32,5.32,0,0,1,9.91,6.13C10.46,5.74,11.76,5,15,5H20.4C24.14,5,24.83.54,24.83.55Z"/></g></g></g></g></svg>