<svg xmlns="http://www.w3.org/2000/svg" viewBox="0 0 50 50"><path class="medium-blue" d="M25 4.5v-2a.5.5 0 0 1 1 0v2a.5.5 0 0 1-1 0zm.5 5.5a.5.5 0 0 0 .5-.5v-2a.5.5 0 0 0-1 0v2a.5.5 0 0 0 .5.5zm-.36 7.54l.1.07h.06a.49.49 0 0 0 .38 0h.06l.1-.07 3.63-3.71a.5.5 0 1 0-.71-.7L26 16v-3.5a.5.5 0 0 0-1 0V16l-2.77-2.83a.5.5 0 0 0-.71.7zm12-4.2a.5.5 0 0 0 .72 0l3.63-3.71a.5.5 0 1 0-.71-.7L38 11.77V8.5a.5.5 0 0 0-1 0v3.27l-2.77-2.83a.5.5 0 0 0-.71.7zM37.5 6a.5.5 0 0 0 .5-.5v-2a.5.5 0 0 0-1 0v2a.5.5 0 0 0 .5.5zm-24 0a.5.5 0 0 0 .5-.5v-2a.5.5 0 0 0-1 0v2a.5.5 0 0 0 .5.5zm32.63 28.63l-3 2.17 2.6 1.5a.5.5 0 0 1 0 .84l-13.04 9.47a.5.5 0 0 1-.54 0l-11.93-6.86-16.7-9.64a.5.5 0 0 1 0-.84l3-2.17-2.6-1.5a.5.5 0 0 1 0-.84L7.67 24a.48.48 0 0 1 .13-.1l5.13-3.72a.48.48 0 0 1 .13-.1l3.85-2.79a.5.5 0 0 1 .54 0l3.4 2 8.45 4.81h.05l4.81 2.78 8.46 4.89 3.42 2a.5.5 0 0 1 0 .84zm-14.66 0a15.42 15.42 0 0 1-8.56 2.77l6.4 3.69a7.94 7.94 0 0 1 7.29-.84l4.47-3.24a2.65 2.65 0 0 1-.94-1.87 3.75 3.75 0 0 1 1.4-2.87l-6.69-3.86c.37 2.12-.84 4.44-3.37 6.26zm-1.19 7l2.43 1.4L35.66 41a7.26 7.26 0 0 0-5.37.7zm-11.19-14.1c-2.6 1.88-3.63 4.28-2.66 6.17L21 36.33a14.19 14.19 0 0 0 9.89-2.46c2.59-1.88 3.62-4.27 2.66-6.16L29 25.06a14.18 14.18 0 0 0-9.91 2.47zm-4.77-7.11a7.27 7.27 0 0 0 5.33-.74l-2.4-1.38zm-5.43 3.93a2.64 2.64 0 0 1 .91 1.85 3.75 3.75 0 0 1-1.4 2.87L15.13 33c-.38-2.08.84-4.41 3.37-6.24A15.39 15.39 0 0 1 27.05 24l-6.43-3.71A8.71 8.71 0 0 1 16 21.65a6.08 6.08 0 0 1-2.59-.54zM5 27.13l2.44 1.41a3 3 0 0 0 1.36-2.3A1.71 1.71 0 0 0 8 25zm37.2 10.31L33 44.1a.5.5 0 0 1-.54 0l-3.4-2-13.26-7.61-8.38-4.83-2.73 2 16 9.25 11.65 6.72 12.2-8.83zm2.67-3.17l-2.47-1.43a3 3 0 0 0-1.32 2.29 1.72 1.72 0 0 0 .79 1.31zM19.91 32a1.79 1.79 0 0 1 .17-1.36l1.66-.16a1.27 1.27 0 0 0-.27 1 1.55 1.55 0 0 0 .56.91l2.06-1.49a5 5 0 0 1-.77-.9 1.13 1.13 0 0 1-.16-.88 1.76 1.76 0 0 1 .78-1A4.06 4.06 0 0 1 26 27.4a4.62 4.62 0 0 1 2.32.41l1.07-.81.85.49-1.06.77a2.09 2.09 0 0 1 .89 1.06 2 2 0 0 1-.07 1.29l-1.65.21a1.68 1.68 0 0 0 .23-1 1.17 1.17 0 0 0-.49-.74L26 30.63a5.17 5.17 0 0 1 .76.91 1.14 1.14 0 0 1 .14.89 1.86 1.86 0 0 1-.8 1 3.74 3.74 0 0 1-2.05.7 4.66 4.66 0 0 1-2.24-.45l-1.06.77-.85-.49 1-.76a2.43 2.43 0 0 1-.99-1.2zm5-2.64a1.31 1.31 0 0 0 .37.65l1.89-1.36a2.28 2.28 0 0 0-1-.17 1.75 1.75 0 0 0-.89.33q-.38.19-.34.53zm-2.07 3.52a1.8 1.8 0 0 0 1.87-.11c.25-.18.36-.37.33-.56a1.29 1.29 0 0 0-.37-.66zm-9.7-18.53l.1.07h.06a.49.49 0 0 0 .38 0h.06l.1-.07 3.63-3.71a.5.5 0 0 0-.71-.7L14 12.77V8.5a.5.5 0 0 0-1 0v4.27l-2.77-2.83a.5.5 0 0 0-.71.7z"/></svg>