<svg xmlns="http://www.w3.org/2000/svg" width="33.1" height="41" viewBox="0 0 33.1 41">
  <title>icon-blue-thumb</title>
  <g id="Layer_2" data-name="Layer 2">
    <g id="_1200" data-name="1200">
      <g id="Real_Value" data-name="Real Value">
        <path d="M23.31,4.54a.51.51,0,0,1-.19,0,.5.5,0,0,1-.27-.65l.64-1.53a.51.51,0,0,1,.65-.27.5.5,0,0,1,.27.65l-.64,1.53A.5.5,0,0,1,23.31,4.54ZM28.6,7.6,30.94,5a.5.5,0,0,0-.74-.67L27.86,6.93a.5.5,0,1,0,.74.67Zm2.92,4.6,1.31-.69a.5.5,0,1,0-.47-.88l-1.31.69a.5.5,0,1,0,.47.88Zm-15.61-8a.5.5,0,0,1-.5-.49L15.34.52A.5.5,0,0,1,15.82,0a.46.46,0,0,1,.51.49l.08,3.18a.5.5,0,0,1-.49.51ZM10,4.51a.5.5,0,0,0,.27-.65L9.62,2.32a.5.5,0,1,0-.92.38l.64,1.53a.5.5,0,0,0,.46.31A.51.51,0,0,0,10,4.51ZM5.21,7.63a.5.5,0,0,0,0-.71L2.9,4.35A.5.5,0,1,0,2.16,5L4.5,7.6a.5.5,0,0,0,.71,0ZM2.26,12A.5.5,0,0,0,2,11.31L.73,10.62a.5.5,0,1,0-.47.88l1.31.69A.5.5,0,0,0,2.26,12ZM31.2,31.74a11.36,11.36,0,0,1,.14,2.61,2.54,2.54,0,0,1-1,2,4.29,4.29,0,0,1-.69,3,2.62,2.62,0,0,1-2.08.84c-1,.09-1.91.21-2.83.33a39.31,39.31,0,0,1-5.34.43,33.37,33.37,0,0,1-4.49-.32,19.3,19.3,0,0,1-6.2-2.61,8.37,8.37,0,0,0-1.27,0,.49.49,0,0,1-.23.07h-1a.49.49,0,0,1-.17,0,.49.49,0,0,1-.17,0h-1a.5.5,0,0,1,0-1h1a.49.49,0,0,1,.17,0,.49.49,0,0,1,.17,0h.43a9,9,0,0,1,2.32,0,.5.5,0,0,1,.18.07A19,19,0,0,0,15,39.69a32,32,0,0,0,9.56-.11c.93-.12,1.88-.24,2.92-.33a1.61,1.61,0,0,0,1.35-.49,3.69,3.69,0,0,0,.42-2.64.5.5,0,0,1,.41-.59c.47-.07.63-1,.64-1.24a9.62,9.62,0,0,0-.17-2.6.5.5,0,0,1,.18-.52c.48-.37.58-1.68.56-2.25,0-1.52-.5-1.95-.51-2a.52.52,0,0,1-.19-.45.5.5,0,0,1,.26-.4c.36-.18.48-1.17.43-1.82V23.11a2.29,2.29,0,0,0-1.12-1.59,4,4,0,0,0-2.18-.59h-7a1.22,1.22,0,0,1-1.11-.29c-1-.9-.64-3.51-.57-4a.5.5,0,0,1,0-.1,10.2,10.2,0,0,0,.6-4.36,3.54,3.54,0,0,0-1-2.16c-1.46-1.51-2.61-1-3-.7l-.27,4.77a4.49,4.49,0,0,1-.75,2.36L11.9,19.37a3.22,3.22,0,0,0-1.14,2.12c-.7,3.09-1.68,3.78-1.87,3.88a2.6,2.6,0,0,1-2.5-.12l0,0L6,25a.49.49,0,0,1-.21-.44.5.5,0,0,1-.21,0,.49.49,0,0,1-.28-.09l-.41-.28a.5.5,0,1,1,.57-.82l.41.28a.49.49,0,0,1,.21.44.49.49,0,0,1,.49,0l.39.27a1.55,1.55,0,0,0,1.42,0s.78-.58,1.37-3.15a4.07,4.07,0,0,1,1.45-2.7l2.56-2.87h0A3.89,3.89,0,0,0,14.29,14l.29-5a.5.5,0,0,1,.16-.34s2.11-1.91,4.55.63a4.54,4.54,0,0,1,1.24,2.77,11.2,11.2,0,0,1-.64,4.74c-.15,1-.16,2.71.26,3.1,0,0,.09.08.26,0H27.6a5,5,0,0,1,2.72.75A3.29,3.29,0,0,1,31.9,23v1.21a3.86,3.86,0,0,1-.51,2.36,4.25,4.25,0,0,1,.52,2.28A4.76,4.76,0,0,1,31.2,31.74ZM16.36,29.6c-.18.11-.33.2-.37.43a.5.5,0,0,0,.4.58h.09a.5.5,0,0,0,.33-.12l.07,0A7.36,7.36,0,0,0,20.6,23,2.09,2.09,0,0,0,20,21.44a.5.5,0,1,0-.61.79,1.38,1.38,0,0,1,.2.8A6.37,6.37,0,0,1,16.36,29.6Zm8.32-6.34H28a.5.5,0,0,0,0-1H24.71a3.24,3.24,0,0,0-2.31.82,2.4,2.4,0,0,0-.59,2,2.3,2.3,0,0,0,1,1.74,2.36,2.36,0,0,0-.28.24,2.93,2.93,0,0,0-.71,2.4,2.68,2.68,0,0,0,1.24,2.14,3.44,3.44,0,0,0-.55,2.2,2,2,0,0,0,.38.86,2.16,2.16,0,0,0-.63,2.15c.12.86,1.87,1.9,2.91,2.44a.5.5,0,1,0,.46-.88,7.53,7.53,0,0,1-2.38-1.7c-.12-.85,0-1.22.59-1.37l4.35.82h.16a.5.5,0,1,0,.19-1L24,34.28h-.1a1,1,0,0,1-.42-.65A2.71,2.71,0,0,1,24,31.94l4.87-.16.1,0,.09,0,.08-.06.07-.05.05-.08a.48.48,0,0,0,.05-.08.51.51,0,0,0,0-.09.48.48,0,0,0,0-.09h0a.43.43,0,0,0,0,0,.49.49,0,0,0-.32-.4H29l-.1,0H23.69c-.81-.25-.87-1.33-.88-1.4a2,2,0,0,1,.42-1.63,2.08,2.08,0,0,1,1.45-.51h4.08a.78.78,0,0,0,.6-.63.5.5,0,0,0-.5-.5H23.67A1.21,1.21,0,0,1,22.81,25a1.46,1.46,0,0,1,.32-1.21A2.28,2.28,0,0,1,24.68,23.26Z" style="fill: #03a9f4"/>
      </g>
    </g>
  </g>
</svg>
