<svg xmlns="http://www.w3.org/2000/svg" width="179.95" height="120.77" viewBox="0 0 179.95 120.77">
  <title>icon-bug-2</title>
  <g id="Layer_2" data-name="Layer 2">
    <g id="Home_-_1200" data-name="Home - 1200">
      <g id="Web_Security" data-name="Web Security">
        <g id="Illustration">
          <g id="Malware">
            <g id="Fills">
              <path d="M101.23,31.18s-3.32,6,2.66,14.42c1.78,2.5,7.15,5.06,10.29,5.57,6,1,14.68,3.17,29.87-3.18,0,0,12.74-5.7,8.64-18.46s-4.32-11.42-4.32-11.42S116.06,3.75,101.23,31.18Z" style="fill: #3f4563"/>
              <path d="M159.81,45.08l11.63-.24s.34,0,.18.37l-.32.72a1.7,1.7,0,0,0-.12.71l.21,2.49s.11.4-.27.19l-2.77-1.42-.56.75-6.19-2.24a1.24,1.24,0,0,0-.9,0c-.56.23-1.46.61-1.66.67,0,0-.38.11-.38-.27l.38-1.51s.07-.31.58-.25Z" style="fill: #3f4563"/>
              <path d="M151.55,40.67c-.29.27-1.48,2.69-1.25,2.87a19.23,19.23,0,0,1,3.05,2.9,3.93,3.93,0,0,0,4.61.77.84.84,0,0,0,.35-.66h0a2.8,2.8,0,0,1,.5-1.49l.22-.32s-.38-.57-2.06-.54c-1.52,0-3.62-3.06-4.43-4a.34.34,0,0,0-.51,0Z" style="fill: #3f4563"/>
              <path d="M116.3,63.14s.52-.37.36-.72-.31-.7-.56-.83c-.46-.23-1.22.17-1.64.35-.66.28-1.28.66-1.94.95a9.31,9.31,0,0,0-1.52.89,7.15,7.15,0,0,1-1.34.75,10.07,10.07,0,0,1-2,.64l-.74.15s-.23.32,0,.54l1.52.81s.43.16.45.37l.31,1.2a.58.58,0,0,0,.83.21,4.11,4.11,0,0,1,1.34-1.75S114.85,64,116.3,63.14Z" style="fill: #3f4563"/>
              <path d="M117.67,61.54l1.71-2.48a3.29,3.29,0,0,1,1.43-1l3-1.14a9.11,9.11,0,0,0,3.44-2.22c2-2.13,1.67-3.81,1.42-4.45a.44.44,0,0,0-.42-.3c-2.62.15-8.95,6.56-9.24,6.86l0,0L116.45,60c3.17-4-.38.51-.62,1s1.2.66,1.2.66A.51.51,0,0,0,117.67,61.54Z" style="fill: #3f4563"/>
              <path d="M133.35,61.45s1.94-.41.59,1.44a23.73,23.73,0,0,1-4.74,5.76,1,1,0,0,1-.43.21c-.69.15-2.59.44-3.47-.62a.51.51,0,0,1-.12-.33c0-.52.41-2,4.4-3.95a12.25,12.25,0,0,0,2.37-1.52Z" style="fill: #3f4563"/>
              <path d="M140.53,47.67a.77.77,0,0,1,.9.94,53.47,53.47,0,0,0-1.39,8c-.27,3.63-2,5-3.68,5.71a.77.77,0,0,1-.94-.29h0A2.52,2.52,0,0,0,133.66,61l-.51-.07s0-1.27,2-3.69A19.82,19.82,0,0,0,139,48.56a.79.79,0,0,1,.64-.72Z" style="fill: #3f4563"/>
              <path d="M102.27,38.46s.52-.18.46-.53l-.11-.74s0-.88-1.21-.34a4,4,0,0,0-.82.06,2.32,2.32,0,0,0-.49.11,15.63,15.63,0,0,0-2.55.51,5.81,5.81,0,0,1-1.32.28,8.53,8.53,0,0,1-1.9,0l-.67-.08a.37.37,0,0,0-.09.48l1.15,1.14s.34.26.32.46l0,1.15a.57.57,0,0,0,.67.42,3.29,3.29,0,0,1,1.52-1.17S100.84,38.84,102.27,38.46Z" style="fill: #3f4563"/>
              <path d="M101.88,69.42s.49.93-.33,1.23a1.47,1.47,0,0,1-.75.09l-.91,0h-.15l1.05-.54-.51-.19.3-.34-1-.12,1.12-.47C101,68.89,101.47,68.75,101.88,69.42Z" style="fill: #3f4563"/>
              <path d="M121.05,74.24s-.41-1.07-1.24-.61a1.6,1.6,0,0,0-.61.55l-.67.74-.11.12,1.2-.48-.21.55h.49l-.64.93,1.19-.59C120.86,75.36,121.32,75.07,121.05,74.24Z" style="fill: #3f4563"/>
              <path d="M88.3,41.93s.71.69.06,1.12a1.29,1.29,0,0,1-.64.24l-.8.21-.13,0,.78-.69-.51-.05.17-.35-.95.12.86-.64C87.36,41.66,87.74,41.43,88.3,41.93Z" style="fill: #3f4563"/>
              <path d="M177.69,45s-.65-.82.1-1.26a1.47,1.47,0,0,1,.72-.23l.89-.18.15,0-.94.72.54.09-.23.39,1-.08-1,.67A.75.75,0,0,1,177.69,45Z" style="fill: #3f4563"/>
              <path d="M161.2,31.74l1.22-.92,4,.38h0l-4.62-2.87-.07,0h0c-.06,0-.11,0-.13,0h0a.09.09,0,0,0,0,.06v0l-2,2a.51.51,0,0,0,0,.52l.8.38C160.68,32,160.8,32,161.2,31.74Z" style="fill: #3f4563"/>
              <path d="M164.69,36.81a.2.2,0,0,0,.26,0l2.21-1.89h0l-2.88.14-2.2-1.28c-.71-.41-.79-.37-.51.24l-.52.25a1.49,1.49,0,0,0,.5.58Z" style="fill: #3f4563"/>
            </g>
            <g>
              <path d="M.5,120.27l1.45-1.38" style="fill: none;stroke: #969c9c;stroke-linecap: round;stroke-linejoin: round"/>
              <path d="M10.32,110.12c5.84-6.58,11.23-13.59,16.48-20.69" style="fill: none;stroke: #969c9c;stroke-linecap: round;stroke-linejoin: round;stroke-dasharray: 6.615364074707031,4.410242557525635,12.128167152404785,6.615364074707031"/>
              <path d="M28.76,86.76c8.63-11.76,17-23.68,26.5-34.25C67,38.93,81.69,31.66,95,32.59" style="fill: none;stroke: #969c9c;stroke-linecap: round;stroke-linejoin: round;stroke-dasharray: 4.410242557525635,12.128167152404785,6.615364074707031,4.410242557525635,12.128167152404785,6.615364074707031"/>
              <path d="M98.24,33q1,.17,2,.41" style="fill: none;stroke: #969c9c;stroke-linecap: round;stroke-linejoin: round"/>
            </g>
            <g id="Lines_and_Fills" data-name="Lines and Fills">
              <path d="M151.32,25.24a41.76,41.76,0,0,0-8.13-11.92C133.06,3,120.35,1,115.8.56c0,0-.28-.13-.45,0s-.16.23-.11.55a1.72,1.72,0,0,0,.41.81l4.62,5.42a6.82,6.82,0,0,1,1.48,2.21,10.12,10.12,0,0,0,3,4l1.57,1.26A13.22,13.22,0,0,1,128,16.34l5.56,4.47Z" style="fill: #fff;stroke: #3f4563;stroke-linecap: round;stroke-linejoin: round"/>
              <path d="M148.28,30.69a47.43,47.43,0,0,1-12.35,12.65c-14.59,10.14-30.88,9-36.68,8.29a.63.63,0,0,1-.56-.12c-.11-.12-.16-.33,0-.72a2,2,0,0,1,.66-.9l6.78-5.49a7.75,7.75,0,0,0,2.25-2.35,11.49,11.49,0,0,1,4.48-4.16l2.2-1.13a15,15,0,0,0,2.33-1.49l7.78-4Z" style="fill: #fff;stroke: #3f4563;stroke-linecap: round;stroke-linejoin: round"/>
              <path d="M151.94,23s2.5-1.51,4.85,2l3.25,5.2s4.84,5.57-1.63,7a22.06,22.06,0,0,1-4.85.06l-2.16-13.94Z" style="fill: #fff;stroke: #3f4563;stroke-miterlimit: 10"/>
              <path d="M153.06,32v0a8.18,8.18,0,0,1-3.59,4.57c-4.26,2.75-14.31,6.46-33.08-.47,0,0-22.36-6.58-16.11-19.27,0,0,8.31-5.24,32.55,1.57,0,0,19.62,6.48,20,11.06l.29,2A1.34,1.34,0,0,1,153.06,32Z" style="fill: #fff;stroke: #3f4563;stroke-linecap: round;stroke-linejoin: round"/>
              <path d="M150.27,24.59a4.74,4.74,0,0,0-.31-4c-1.19-2-20.86-27.26-46.75-11,0,0,3.1-1.59,12.46-.95S140.48,13.44,150.27,24.59Z" style="fill: #fff;stroke: #3f4563;stroke-linecap: round;stroke-linejoin: round"/>
            </g>
            <g id="Lines">
              <path d="M90.35,39.89a1.47,1.47,0,0,1,2.59-.46s1.27,1.38,0,2.12a2.16,2.16,0,0,1-1.52.38S92.31,40.63,90.35,39.89Z" style="fill: none;stroke: #3f4563;stroke-linecap: round;stroke-linejoin: round"/>
              <path d="M88.45,41.21a1,1,0,0,1,1.69-.41s.87.85.08,1.38a1.45,1.45,0,0,1-1,.31S89.76,41.62,88.45,41.21Z" style="fill: none;stroke: #3f4563;stroke-linecap: round;stroke-linejoin: round"/>
              <g>
                <line x1="127.86" y1="39.3" x2="108.97" y2="45.33" style="fill: none;stroke: #3f4563;stroke-linecap: round;stroke-linejoin: round"/>
                <polyline points="115.25 38.32 115.8 41.4 122.1 40.79" style="fill: none;stroke: #3f4563;stroke-linecap: round;stroke-linejoin: round"/>
              </g>
              <g>
                <polyline points="126.67 13.62 127.44 11.34 132.24 12.9" style="fill: none;stroke: #3f4563;stroke-linecap: round;stroke-linejoin: round"/>
                <polyline points="131.47 16.79 135.85 17.2 137.21 15.44" style="fill: none;stroke: #3f4563;stroke-linecap: round;stroke-linejoin: round"/>
              </g>
              <path d="M161.78,34.08a1.6,1.6,0,0,1-.48.7,2.47,2.47,0,0,1-3.38-.62,2.47,2.47,0,0,1-.2-3.43,3.76,3.76,0,0,0,1-2.56S162.35,32.33,161.78,34.08Z" style="fill: none;stroke: #3f4563;stroke-linecap: round;stroke-linejoin: round"/>
              <path d="M154.67,32.93s5.17,1,3.22-6.11" style="fill: none;stroke: #3f4563;stroke-linecap: round;stroke-linejoin: round"/>
              <path d="M124.59,72.59s2.8-.75,1.15-2.91c0,0-1.41-1.66-2.59-.36a2.61,2.61,0,0,0-.81,1.7S124.12,70.23,124.59,72.59Z" style="fill: none;stroke: #3f4563;stroke-linecap: round;stroke-linejoin: round"/>
              <path d="M122,74.29s1.91.11,1.37-1.56c0,0-.5-1.32-1.53-.75a1.78,1.78,0,0,0-.88.88S122.2,72.73,122,74.29Z" style="fill: none;stroke: #3f4563;stroke-linecap: round;stroke-linejoin: round"/>
              <path d="M104.74,67.75s1.7-2,2.86.16c0,0,.84,1.81-.7,2.29a2.39,2.39,0,0,1-1.72,0S106.53,69,104.74,67.75Z" style="fill: none;stroke: #3f4563;stroke-linecap: round;stroke-linejoin: round"/>
              <path d="M102.3,68.69s1.07-1.39,1.9,0c0,0,.61,1.14-.4,1.51a1.63,1.63,0,0,1-1.14.08S103.51,69.46,102.3,68.69Z" style="fill: none;stroke: #3f4563;stroke-linecap: round;stroke-linejoin: round"/>
              <path d="M175.18,47.15s-1.3,2.32-2.84.36c0,0-1.16-1.63.27-2.38a2.39,2.39,0,0,1,1.69-.33S173.19,46.2,175.18,47.15Z" style="fill: none;stroke: #3f4563;stroke-linecap: round;stroke-linejoin: round"/>
              <path d="M177.42,45.78s-.8,1.56-1.87.35c0,0-.81-1,.12-1.56a1.63,1.63,0,0,1,1.11-.29S176.08,45.24,177.42,45.78Z" style="fill: none;stroke: #3f4563;stroke-linecap: round;stroke-linejoin: round"/>
            </g>
          </g>
        </g>
      </g>
    </g>
  </g>
</svg>
