<svg xmlns="http://www.w3.org/2000/svg" width="326.83" height="211.36" viewBox="0 0 326.83 211.36">
  <title>icon-large-biz</title>
  <g id="Layer_2" data-name="Layer 2">
    <g id="Benefits_-_1200" data-name="Benefits - 1200">
      <g id="Target">
        <g>
          <line x1="79.11" y1="210.64" x2="79.11" y2="199.34" style="fill: none;stroke: #1fc469;stroke-linecap: round;stroke-linejoin: round"/>
          <path d="M83.9,189a5.18,5.18,0,1,0-9.56,0,7.27,7.27,0,1,0,9.56,0Z" style="fill: #fff;stroke: #1fc469;stroke-linecap: round;stroke-linejoin: round"/>
          <polyline points="79.11 201.73 79.11 196.07 79.11 193.57 80.73 190.42" style="fill: none;stroke: #1fc469;stroke-linecap: round;stroke-linejoin: round"/>
          <line x1="76.35" y1="193.89" x2="79.11" y2="196.3" style="fill: none;stroke: #1fc469;stroke-linecap: round;stroke-linejoin: round"/>
          <line x1="80.04" y1="191.76" x2="79.38" y2="190.67" style="fill: none;stroke: #1fc469;stroke-linecap: round;stroke-linejoin: round"/>
        </g>
        <g>
          <line x1="71.84" y1="210.64" x2="71.84" y2="194.7" style="fill: none;stroke: #1fc469;stroke-linecap: round;stroke-linejoin: round"/>
          <path d="M78.59,180.08a7.31,7.31,0,1,0-13.5,0,10.26,10.26,0,1,0,13.5,0Z" style="fill: #fff;stroke: #1fc469;stroke-linecap: round;stroke-linejoin: round"/>
          <polyline points="71.84 198.06 71.84 190.08 71.84 186.55 74.12 182.1" style="fill: none;stroke: #1fc469;stroke-linecap: round;stroke-linejoin: round"/>
          <line x1="67.94" y1="187.01" x2="71.84" y2="190.41" style="fill: none;stroke: #1fc469;stroke-linecap: round;stroke-linejoin: round"/>
          <line x1="73.14" y1="184" x2="72.22" y2="182.46" style="fill: none;stroke: #1fc469;stroke-linecap: round;stroke-linejoin: round"/>
        </g>
        <g>
          <path d="M276.73,211l1.2-1.62a6,6,0,0,0,1.83,0l1.53,1.7,0-2.21a6.07,6.07,0,0,0,1.2-.77l2.45.72-1.23-2.07a6,6,0,0,0,.56-1.07l2.38-.27-2-1.45a6,6,0,0,0,0-1.29l2-1.17-2.47-.55a6.08,6.08,0,0,0-1-1.54l.65-2.21-1.9,1.13a6,6,0,0,0-1.2-.59l-.43-2.27-1.21,1.91a6,6,0,0,0-1.64.11l-1.46-2-.31,2.63a6.1,6.1,0,0,0-1,.69l-2.33-.68,1.18,2a6,6,0,0,0-.58,1.15l-2.32.27,1.95,1.44a6,6,0,0,0,0,1.22l-2,1.38,2.49.37a6.08,6.08,0,0,0,.75,1.22l-.63,2.16,1.77-1a6,6,0,0,0,1.41.78Z" style="fill: red"/>
          <path d="M281.42,208.71" style="fill: #75757f"/>
          <line x1="281.41" y1="208.7" x2="281.41" y2="208.7" style="fill: #75757f"/>
        </g>
        <g>
          <path d="M87.35,211.19l.33-2a6,6,0,0,0,1.61-.87l2.13.82-1-2a6.07,6.07,0,0,0,.72-1.23l2.51-.47-2-1.29a6,6,0,0,0,0-1.2l2-1.32-2.41-.4a6,6,0,0,0-.6-1.14l1.24-1.95-2.45.63a6.08,6.08,0,0,0-1.59-.92l-.43-2.26-1.18,1.87a6,6,0,0,0-1.33,0l-1.41-1.82-.21,2.25a6,6,0,0,0-1.41.84l-2.2-1.1.92,2.49A6.1,6.1,0,0,0,80,201.2l-2.39.45,2,1.24a6,6,0,0,0,0,1.28l-1.95,1.29,2.39.4a6,6,0,0,0,.58,1.07l-1.15,2.13,2.39-.81a6.08,6.08,0,0,0,1.22.74l.42,2.21,1.1-1.74a6,6,0,0,0,1.62.06Z" style="fill: red"/>
          <path d="M89.88,208" style="fill: #75757f"/>
          <line x1="89.88" y1="208" x2="89.88" y2="208" style="fill: #75757f"/>
        </g>
        <g>
          <path d="M296.15,211.36l.39-2a6,6,0,0,0,1.64-.82l2.11.89-.91-2a6.07,6.07,0,0,0,.76-1.21l2.53-.4-2-1.35a6,6,0,0,0,0-1.2l2-1.26-2.4-.47a6,6,0,0,0-.57-1.16l1.3-1.91-2.47.56a6.08,6.08,0,0,0-1.56-1l-.36-2.27-1.24,1.84a6,6,0,0,0-1.33,0l-1.36-1.86-.27,2.25a6,6,0,0,0-1.44.8l-2.16-1.17.85,2.51a6.1,6.1,0,0,0-.59,1l-2.4.38,1.92,1.3a6,6,0,0,0,0,1.28l-2,1.23,2.38.47a6,6,0,0,0,.55,1.09L288.37,209l2.41-.73a6.08,6.08,0,0,0,1.2.78l.35,2.22,1.15-1.71a6,6,0,0,0,1.61.11Z" style="fill: red"/>
          <path d="M299.39,207.25" style="fill: #75757f"/>
          <line x1="299.38" y1="207.25" x2="299.38" y2="207.25" style="fill: #75757f"/>
        </g>
        <g>
          <g>
            <line x1="309.37" y1="210.64" x2="309.37" y2="193.47" style="fill: #fff;stroke: #1fc469;stroke-linecap: round;stroke-linejoin: round"/>
            <path d="M316.64,177.72a7.88,7.88,0,1,0-14.54,0,11.06,11.06,0,1,0,14.54,0Z" style="fill: #fff;stroke: #1fc469;stroke-linecap: round;stroke-linejoin: round"/>
            <polyline points="309.37 197.09 309.37 188.5 309.37 184.69 311.82 179.9" style="fill: #fff;stroke: #1fc469;stroke-linecap: round;stroke-linejoin: round"/>
            <line x1="305.16" y1="185.18" x2="309.37" y2="188.84" style="fill: #fff;stroke: #1fc469;stroke-linecap: round;stroke-linejoin: round"/>
            <line x1="310.77" y1="181.95" x2="309.78" y2="180.28" style="fill: #fff;stroke: #1fc469;stroke-linecap: round;stroke-linejoin: round"/>
          </g>
          <g>
            <line x1="297.95" y1="210.64" x2="297.95" y2="193.47" style="fill: #fff;stroke: #1fc469;stroke-linecap: round;stroke-linejoin: round"/>
            <path d="M305.22,177.72a7.88,7.88,0,1,0-14.54,0,11.06,11.06,0,1,0,14.54,0Z" style="fill: #fff;stroke: #1fc469;stroke-linecap: round;stroke-linejoin: round"/>
            <polyline points="297.95 197.09 297.95 188.5 297.95 184.69 300.4 179.9" style="fill: #fff;stroke: #1fc469;stroke-linecap: round;stroke-linejoin: round"/>
            <line x1="293.75" y1="185.18" x2="297.95" y2="188.84" style="fill: #fff;stroke: #1fc469;stroke-linecap: round;stroke-linejoin: round"/>
            <line x1="299.36" y1="181.95" x2="298.36" y2="180.28" style="fill: #fff;stroke: #1fc469;stroke-linecap: round;stroke-linejoin: round"/>
          </g>
          <g>
            <line x1="281.3" y1="210.64" x2="281.3" y2="197.74" style="fill: #fff;stroke: #1fc469;stroke-linecap: round;stroke-linejoin: round"/>
            <path d="M286.76,185.92a5.92,5.92,0,1,0-10.92,0,8.3,8.3,0,1,0,10.92,0Z" style="fill: #fff;stroke: #1fc469;stroke-linecap: round;stroke-linejoin: round"/>
            <polyline points="281.3 200.47 281.3 194.01 281.3 191.15 283.14 187.55" style="fill: #fff;stroke: #1fc469;stroke-linecap: round;stroke-linejoin: round"/>
            <line x1="278.14" y1="191.52" x2="281.3" y2="194.27" style="fill: #fff;stroke: #1fc469;stroke-linecap: round;stroke-linejoin: round"/>
            <line x1="282.35" y1="189.09" x2="281.6" y2="187.84" style="fill: #fff;stroke: #1fc469;stroke-linecap: round;stroke-linejoin: round"/>
          </g>
          <g>
            <line x1="318.03" y1="210.64" x2="318.03" y2="197.74" style="fill: #fff;stroke: #1fc469;stroke-linecap: round;stroke-linejoin: round"/>
            <path d="M323.49,185.92a5.92,5.92,0,1,0-10.92,0,8.3,8.3,0,1,0,10.92,0Z" style="fill: #fff;stroke: #1fc469;stroke-linecap: round;stroke-linejoin: round"/>
            <polyline points="318.03 200.47 318.03 194.01 318.03 191.15 319.87 187.55" style="fill: #fff;stroke: #1fc469;stroke-linecap: round;stroke-linejoin: round"/>
            <line x1="314.87" y1="191.52" x2="318.03" y2="194.27" style="fill: #fff;stroke: #1fc469;stroke-linecap: round;stroke-linejoin: round"/>
            <line x1="319.09" y1="189.09" x2="318.34" y2="187.84" style="fill: #fff;stroke: #1fc469;stroke-linecap: round;stroke-linejoin: round"/>
          </g>
        </g>
        <path d="M254.11,78.79h47.11c0-.08,0-.15,0-.23A4.32,4.32,0,0,0,296,74.32a9.18,9.18,0,0,0-13.83-7.12A12.42,12.42,0,0,0,258.8,74.4,6.44,6.44,0,0,0,254.11,78.79Z" style="fill: none;stroke: #03a9f4;stroke-miterlimit: 10"/>
        <g>
          <rect x="92.96" y="104.59" width="183.62" height="104.89" rx="0.5" ry="0.5" style="fill: #fff;stroke: #969c9c;stroke-linecap: round;stroke-linejoin: round"/>
          <rect x="145.68" y="77.33" width="79.21" height="132.15" rx="0.85" ry="0.85" style="fill: #fff;stroke: #969c9c;stroke-linecap: round;stroke-linejoin: round"/>
          <rect x="161.53" y="58.21" width="47.81" height="45.23" rx="0.5" ry="0.5" style="fill: #fff;stroke: #969c9c;stroke-linecap: round;stroke-linejoin: round"/>
          <rect x="102.22" y="97.16" width="34.87" height="112.32" rx="0.5" ry="0.5" style="fill: #fff;stroke: #969c9c;stroke-linecap: round;stroke-linejoin: round"/>
          <rect x="234.22" y="97.16" width="34.87" height="112.32" rx="0.5" ry="0.5" style="fill: #fff;stroke: #969c9c;stroke-linecap: round;stroke-linejoin: round"/>
          <rect x="153.69" y="68.69" width="62.98" height="140.79" rx="0.5" ry="0.5" style="fill: #fff;stroke: #969c9c;stroke-linecap: round;stroke-linejoin: round"/>
          <rect x="89.21" y="202.32" width="189.52" height="8.32" rx="0.5" ry="0.5" style="fill: #fff;stroke: #969c9c;stroke-miterlimit: 10"/>
          <g>
            <path d="M162.12,89.23V81.39a.56.56,0,0,1,.56-.56h7.61" style="fill: none;stroke: #969c9c;stroke-linecap: round;stroke-linejoin: round"/>
            <path d="M162.12,100.95V93.11a.56.56,0,0,1,.56-.56h7.61" style="fill: none;stroke: #969c9c;stroke-linecap: round;stroke-linejoin: round"/>
            <path d="M162.12,112.67v-7.84a.56.56,0,0,1,.56-.56h7.61" style="fill: none;stroke: #969c9c;stroke-linecap: round;stroke-linejoin: round"/>
            <path d="M162.12,124.39v-7.84a.56.56,0,0,1,.56-.56h7.61" style="fill: none;stroke: #969c9c;stroke-linecap: round;stroke-linejoin: round"/>
            <path d="M162.12,136.12v-7.84a.56.56,0,0,1,.56-.56h7.61" style="fill: none;stroke: #969c9c;stroke-linecap: round;stroke-linejoin: round"/>
            <path d="M162.12,147.84V140a.56.56,0,0,1,.56-.56h7.61" style="fill: none;stroke: #969c9c;stroke-linecap: round;stroke-linejoin: round"/>
            <path d="M162.12,159.56v-7.84a.56.56,0,0,1,.56-.56h7.61" style="fill: none;stroke: #969c9c;stroke-linecap: round;stroke-linejoin: round"/>
            <path d="M162.12,171.28v-7.84a.56.56,0,0,1,.56-.56h7.61" style="fill: none;stroke: #969c9c;stroke-linecap: round;stroke-linejoin: round"/>
            <path d="M162.12,183v-7.84a.56.56,0,0,1,.56-.56h7.61" style="fill: none;stroke: #969c9c;stroke-linecap: round;stroke-linejoin: round"/>
          </g>
          <g>
            <path d="M173.28,89.23V81.39a.56.56,0,0,1,.56-.56h7.61" style="fill: none;stroke: #969c9c;stroke-linecap: round;stroke-linejoin: round"/>
            <path d="M173.28,100.95V93.11a.56.56,0,0,1,.56-.56h7.61" style="fill: none;stroke: #969c9c;stroke-linecap: round;stroke-linejoin: round"/>
            <path d="M173.28,112.67v-7.84a.56.56,0,0,1,.56-.56h7.61" style="fill: none;stroke: #969c9c;stroke-linecap: round;stroke-linejoin: round"/>
            <path d="M173.28,124.39v-7.84a.56.56,0,0,1,.56-.56h7.61" style="fill: none;stroke: #969c9c;stroke-linecap: round;stroke-linejoin: round"/>
            <path d="M173.28,136.12v-7.84a.56.56,0,0,1,.56-.56h7.61" style="fill: none;stroke: #969c9c;stroke-linecap: round;stroke-linejoin: round"/>
            <path d="M173.28,147.84V140a.56.56,0,0,1,.56-.56h7.61" style="fill: none;stroke: #969c9c;stroke-linecap: round;stroke-linejoin: round"/>
            <path d="M173.28,159.56v-7.84a.56.56,0,0,1,.56-.56h7.61" style="fill: none;stroke: #969c9c;stroke-linecap: round;stroke-linejoin: round"/>
            <path d="M173.28,171.28v-7.84a.56.56,0,0,1,.56-.56h7.61" style="fill: none;stroke: #969c9c;stroke-linecap: round;stroke-linejoin: round"/>
            <path d="M173.28,183v-7.84a.56.56,0,0,1,.56-.56h7.61" style="fill: none;stroke: #969c9c;stroke-linecap: round;stroke-linejoin: round"/>
          </g>
          <g>
            <path d="M190.07,89.23V81.39a.56.56,0,0,1,.56-.56h7.61" style="fill: none;stroke: #969c9c;stroke-linecap: round;stroke-linejoin: round"/>
            <path d="M190.07,100.95V93.11a.56.56,0,0,1,.56-.56h7.61" style="fill: none;stroke: #969c9c;stroke-linecap: round;stroke-linejoin: round"/>
            <path d="M190.07,112.67v-7.84a.56.56,0,0,1,.56-.56h7.61" style="fill: none;stroke: #969c9c;stroke-linecap: round;stroke-linejoin: round"/>
            <path d="M190.07,124.39v-7.84a.56.56,0,0,1,.56-.56h7.61" style="fill: none;stroke: #969c9c;stroke-linecap: round;stroke-linejoin: round"/>
            <path d="M190.07,136.12v-7.84a.56.56,0,0,1,.56-.56h7.61" style="fill: none;stroke: #969c9c;stroke-linecap: round;stroke-linejoin: round"/>
            <path d="M190.07,147.84V140a.56.56,0,0,1,.56-.56h7.61" style="fill: none;stroke: #969c9c;stroke-linecap: round;stroke-linejoin: round"/>
            <path d="M190.07,159.56v-7.84a.56.56,0,0,1,.56-.56h7.61" style="fill: none;stroke: #969c9c;stroke-linecap: round;stroke-linejoin: round"/>
            <path d="M190.07,171.28v-7.84a.56.56,0,0,1,.56-.56h7.61" style="fill: none;stroke: #969c9c;stroke-linecap: round;stroke-linejoin: round"/>
            <path d="M190.07,183v-7.84a.56.56,0,0,1,.56-.56h7.61" style="fill: none;stroke: #969c9c;stroke-linecap: round;stroke-linejoin: round"/>
          </g>
          <g>
            <path d="M201.23,89.23V81.39a.56.56,0,0,1,.56-.56h7.61" style="fill: none;stroke: #969c9c;stroke-linecap: round;stroke-linejoin: round"/>
            <path d="M201.23,100.95V93.11a.56.56,0,0,1,.56-.56h7.61" style="fill: none;stroke: #969c9c;stroke-linecap: round;stroke-linejoin: round"/>
            <path d="M201.23,112.67v-7.84a.56.56,0,0,1,.56-.56h7.61" style="fill: none;stroke: #969c9c;stroke-linecap: round;stroke-linejoin: round"/>
            <path d="M201.23,124.39v-7.84a.56.56,0,0,1,.56-.56h7.61" style="fill: none;stroke: #969c9c;stroke-linecap: round;stroke-linejoin: round"/>
            <path d="M201.23,136.12v-7.84a.56.56,0,0,1,.56-.56h7.61" style="fill: none;stroke: #969c9c;stroke-linecap: round;stroke-linejoin: round"/>
            <path d="M201.23,147.84V140a.56.56,0,0,1,.56-.56h7.61" style="fill: none;stroke: #969c9c;stroke-linecap: round;stroke-linejoin: round"/>
            <path d="M201.23,159.56v-7.84a.56.56,0,0,1,.56-.56h7.61" style="fill: none;stroke: #969c9c;stroke-linecap: round;stroke-linejoin: round"/>
            <path d="M201.23,171.28v-7.84a.56.56,0,0,1,.56-.56h7.61" style="fill: none;stroke: #969c9c;stroke-linecap: round;stroke-linejoin: round"/>
            <path d="M201.23,183v-7.84a.56.56,0,0,1,.56-.56h7.61" style="fill: none;stroke: #969c9c;stroke-linecap: round;stroke-linejoin: round"/>
          </g>
          <g>
            <rect x="179.32" y="187.83" width="11.73" height="14.49" rx="0.5" ry="0.5" style="fill: none;stroke: #969c9c;stroke-linecap: round;stroke-linejoin: round"/>
            <line x1="185.18" y1="187.83" x2="185.18" y2="202.32" style="fill: none;stroke: #969c9c;stroke-linecap: round;stroke-linejoin: round"/>
          </g>
          <g>
            <rect x="179.32" y="187.83" width="11.73" height="14.49" rx="0.5" ry="0.5" style="fill: none;stroke: #969c9c;stroke-linecap: round;stroke-linejoin: round"/>
            <line x1="185.18" y1="187.83" x2="185.18" y2="202.32" style="fill: none;stroke: #969c9c;stroke-linecap: round;stroke-linejoin: round"/>
          </g>
          <g>
            <rect x="113.79" y="187.83" width="11.73" height="14.49" rx="0.5" ry="0.5" style="fill: none;stroke: #969c9c;stroke-linecap: round;stroke-linejoin: round"/>
            <line x1="119.66" y1="187.83" x2="119.66" y2="202.32" style="fill: none;stroke: #969c9c;stroke-linecap: round;stroke-linejoin: round"/>
          </g>
          <g>
            <rect x="245.78" y="187.83" width="11.73" height="14.49" rx="0.5" ry="0.5" style="fill: none;stroke: #969c9c;stroke-linecap: round;stroke-linejoin: round"/>
            <line x1="251.65" y1="187.83" x2="251.65" y2="202.32" style="fill: none;stroke: #969c9c;stroke-linecap: round;stroke-linejoin: round"/>
          </g>
          <g>
            <path d="M110.21,124.39v-7.84a.56.56,0,0,1,.56-.56h7.61" style="fill: none;stroke: #969c9c;stroke-linecap: round;stroke-linejoin: round"/>
            <path d="M110.21,136.12v-7.84a.56.56,0,0,1,.56-.56h7.61" style="fill: none;stroke: #969c9c;stroke-linecap: round;stroke-linejoin: round"/>
            <path d="M110.21,147.84V140a.56.56,0,0,1,.56-.56h7.61" style="fill: none;stroke: #969c9c;stroke-linecap: round;stroke-linejoin: round"/>
            <path d="M110.21,159.56v-7.84a.56.56,0,0,1,.56-.56h7.61" style="fill: none;stroke: #969c9c;stroke-linecap: round;stroke-linejoin: round"/>
            <path d="M110.21,171.28v-7.84a.56.56,0,0,1,.56-.56h7.61" style="fill: none;stroke: #969c9c;stroke-linecap: round;stroke-linejoin: round"/>
            <path d="M110.21,183v-7.84a.56.56,0,0,1,.56-.56h7.61" style="fill: none;stroke: #969c9c;stroke-linecap: round;stroke-linejoin: round"/>
          </g>
          <g>
            <path d="M121.37,124.39v-7.84a.56.56,0,0,1,.56-.56h7.61" style="fill: none;stroke: #969c9c;stroke-linecap: round;stroke-linejoin: round"/>
            <path d="M121.37,136.12v-7.84a.56.56,0,0,1,.56-.56h7.61" style="fill: none;stroke: #969c9c;stroke-linecap: round;stroke-linejoin: round"/>
            <path d="M121.37,147.84V140a.56.56,0,0,1,.56-.56h7.61" style="fill: none;stroke: #969c9c;stroke-linecap: round;stroke-linejoin: round"/>
            <path d="M121.37,159.56v-7.84a.56.56,0,0,1,.56-.56h7.61" style="fill: none;stroke: #969c9c;stroke-linecap: round;stroke-linejoin: round"/>
            <path d="M121.37,171.28v-7.84a.56.56,0,0,1,.56-.56h7.61" style="fill: none;stroke: #969c9c;stroke-linecap: round;stroke-linejoin: round"/>
            <path d="M121.37,183v-7.84a.56.56,0,0,1,.56-.56h7.61" style="fill: none;stroke: #969c9c;stroke-linecap: round;stroke-linejoin: round"/>
          </g>
          <g>
            <path d="M241.72,124.39v-7.84a.56.56,0,0,1,.56-.56h7.61" style="fill: none;stroke: #969c9c;stroke-linecap: round;stroke-linejoin: round"/>
            <path d="M241.72,136.12v-7.84a.56.56,0,0,1,.56-.56h7.61" style="fill: none;stroke: #969c9c;stroke-linecap: round;stroke-linejoin: round"/>
            <path d="M241.72,147.84V140a.56.56,0,0,1,.56-.56h7.61" style="fill: none;stroke: #969c9c;stroke-linecap: round;stroke-linejoin: round"/>
            <path d="M241.72,159.56v-7.84a.56.56,0,0,1,.56-.56h7.61" style="fill: none;stroke: #969c9c;stroke-linecap: round;stroke-linejoin: round"/>
            <path d="M241.72,171.28v-7.84a.56.56,0,0,1,.56-.56h7.61" style="fill: none;stroke: #969c9c;stroke-linecap: round;stroke-linejoin: round"/>
            <path d="M241.72,183v-7.84a.56.56,0,0,1,.56-.56h7.61" style="fill: none;stroke: #969c9c;stroke-linecap: round;stroke-linejoin: round"/>
          </g>
          <g>
            <path d="M252.88,124.39v-7.84a.56.56,0,0,1,.56-.56H261" style="fill: none;stroke: #969c9c;stroke-linecap: round;stroke-linejoin: round"/>
            <path d="M252.88,136.12v-7.84a.56.56,0,0,1,.56-.56H261" style="fill: none;stroke: #969c9c;stroke-linecap: round;stroke-linejoin: round"/>
            <path d="M252.88,147.84V140a.56.56,0,0,1,.56-.56H261" style="fill: none;stroke: #969c9c;stroke-linecap: round;stroke-linejoin: round"/>
            <path d="M252.88,159.56v-7.84a.56.56,0,0,1,.56-.56H261" style="fill: none;stroke: #969c9c;stroke-linecap: round;stroke-linejoin: round"/>
            <path d="M252.88,171.28v-7.84a.56.56,0,0,1,.56-.56H261" style="fill: none;stroke: #969c9c;stroke-linecap: round;stroke-linejoin: round"/>
            <path d="M252.88,183v-7.84a.56.56,0,0,1,.56-.56H261" style="fill: none;stroke: #969c9c;stroke-linecap: round;stroke-linejoin: round"/>
          </g>
        </g>
        <path d="M272.41,79.59a3.28,3.28,0,0,1,2.6-3.06A9.64,9.64,0,0,1,292.8,75.3a6,6,0,0,1,9.4,1.56A3.25,3.25,0,0,1,307,79.59Z" style="fill: #fff;stroke: #03a9f4;stroke-miterlimit: 10"/>
        <g>
          <path d="M84.07,168.91a1.33,1.33,0,0,1-1-2.18L98.83,147.4a1.33,1.33,0,0,1,2.06,1.69L89.7,162.78l5-2.88A1.33,1.33,0,0,1,96,162.2l-11.3,6.52A1.33,1.33,0,0,1,84.07,168.91Z" style="fill: #fff;stroke: #3f4563;stroke-miterlimit: 10"/>
          <path d="M86.12,168.16a2.34,2.34,0,1,1-1.29-2.69l.19.1.1,0,21-10.3a1.33,1.33,0,1,1,1.17,2.39L86.2,168.12Z" style="fill: #fff;stroke: #3f4563;stroke-miterlimit: 10"/>
          <path d="M95.47,150.47a1.32,1.32,0,0,1-.66-.18L85.62,145a1.33,1.33,0,0,1-.64-1.45l5-22.14a1.33,1.33,0,1,1,2.6.58l-4.76,21.18L96.13,148a1.33,1.33,0,0,1-.66,2.49Z" style="fill: #fff;stroke: #3f4563;stroke-miterlimit: 10"/>
          <path d="M83.79,126.36a1.78,1.78,0,0,1-.28-1.81L88.67,112A1.78,1.78,0,1,1,92,113.37l-4.75,11.54" style="fill: #fff;stroke: #3f4563;stroke-miterlimit: 10"/>
          <polyline points="94.08 141.68 86.28 150.26 95.47 155.61" style="fill: none;stroke: #75757f;stroke-linecap: round;stroke-linejoin: round"/>
          <circle cx="83.94" cy="167.63" r="2.34" style="fill: #fff;stroke: #373e5a;stroke-linecap: round;stroke-linejoin: round"/>
          <path d="M94.5,131" style="fill: #fff;stroke: #373e5a;stroke-linecap: round;stroke-linejoin: round"/>
          <circle cx="84.6" cy="126.29" r="2.97" transform="translate(-44.59 206.39) rotate(-87.98)" style="fill: #fff;stroke: #373e5a;stroke-linecap: round;stroke-linejoin: round"/>
          <circle cx="86.38" cy="145.84" r="2.97" transform="translate(-62.41 227.03) rotate(-87.98)" style="fill: #fff;stroke: #373e5a;stroke-linecap: round;stroke-linejoin: round"/>
          <path d="M83.51,128.94l6,11.58a1.2,1.2,0,0,0,.74.63,3,3,0,0,0,2.23-.29,1.22,1.22,0,0,0,.46-1.66c-1.32-2.4-5.34-9.5-6.67-11.63a1.25,1.25,0,0,0-1.46-.52C84,127.3,83.11,127.84,83.51,128.94Z" style="fill: #fff;stroke: #3f4563;stroke-linecap: round;stroke-linejoin: round"/>
          <path d="M117.25,165.05c0,9.35-6.56,13.14-14.66,8.46s-14.66-16-14.66-25.39,6.56-13.14,14.66-8.46S117.25,155.7,117.25,165.05Z" style="fill: #fff;stroke: #373e5a;stroke-linecap: round;stroke-linejoin: round"/>
          <path d="M115.19,163.34c-.23.79-.74,1.09-1.13.68a2.53,2.53,0,0,1-.31-2.19c.23-.79.74-1.09,1.13-.68A2.53,2.53,0,0,1,115.19,163.34Z" style="fill: #373e5a;stroke: #3f4563;stroke-linecap: round;stroke-linejoin: round"/>
          <path d="M115.46,169.39c-.38.73-.93.93-1.24.44a2.53,2.53,0,0,1,.12-2.21c.38-.73.93-.93,1.24-.44A2.53,2.53,0,0,1,115.46,169.39Z" style="fill: #373e5a;stroke: #3f4563;stroke-linecap: round;stroke-linejoin: round"/>
          <path d="M120.29,171.23a1.34,1.34,0,0,1-.32,0L115.17,170a1.33,1.33,0,1,1,.64-2.59l4.51,1.11,10.33-2.26a1.33,1.33,0,1,1,.57,2.6l-10.63,2.33A1.34,1.34,0,0,1,120.29,171.23Z" style="fill: #fff;stroke: #3f4563;stroke-miterlimit: 10"/>
          <circle cx="121.19" cy="169.78" r="2.34" style="fill: #fff;stroke: #373e5a;stroke-linecap: round;stroke-linejoin: round"/>
          <path d="M112.51,165.86c0,8.5-6,12-13.34,7.7S85.83,159,85.83,150.46s6-12,13.34-7.7S112.51,157.36,112.51,165.86Z" style="fill: #fff;stroke: #373e5a;stroke-linecap: round;stroke-linejoin: round"/>
          <path d="M113.29,154c0,1.22-.56,1.84-1.33,1.4a3.92,3.92,0,0,1-1.47-3c0-1.22.56-1.84,1.33-1.4A3.92,3.92,0,0,1,113.29,154Z" style="fill: #fff;stroke: #3f4563;stroke-linecap: round;stroke-linejoin: round"/>
          <g>
            <polygon points="92.97 137.84 92.97 133.08 109.57 142.66 109.57 147.43 92.97 137.84" style="fill: #fff;stroke: #373e5a;stroke-linecap: round;stroke-linejoin: round"/>
            <polygon points="111.46 145.65 111.46 141.19 94.86 131.6 93 132.94 92.97 132.97 109.57 142.55 109.57 147.43 111.46 145.65" style="fill: #fff;stroke: #373e5a;stroke-linecap: round;stroke-linejoin: round"/>
            <line x1="111.46" y1="141.19" x2="109.57" y2="142.66" style="fill: #fff;stroke: #373e5a;stroke-linecap: round;stroke-linejoin: round"/>
          </g>
          <circle cx="90.9" cy="111.11" r="2.04" transform="translate(-23.34 198.05) rotate(-87.98)" style="fill: #fff;stroke: #373e5a;stroke-linecap: round;stroke-linejoin: round"/>
          <path d="M116.74,163.1" style="fill: #fff;stroke: #373e5a;stroke-linecap: round;stroke-linejoin: round"/>
          <path d="M127.39,144.52l6.51-18.79a1.78,1.78,0,0,0-3.36-1.16l-6.3,18.17" style="fill: #fff;stroke: #3f4563;stroke-linecap: round;stroke-linejoin: round"/>
          <path d="M90.06,109.32s.57,2.47,2.43.89l.54-1.3-.49-.29,1.63-2.89.59.14a4.77,4.77,0,0,1,4.88-1.59s-2.34-1.88-6-.12a7.66,7.66,0,0,0-3.62,5.16Z" style="fill: #fff;stroke: #3f4563;stroke-linecap: round;stroke-linejoin: round"/>
          <circle cx="124.43" cy="145.46" r="2.97" style="fill: #fff;stroke: #373e5a;stroke-linecap: round;stroke-linejoin: round"/>
          <path d="M122.06,145.47l-10.5,5.73a1.2,1.2,0,0,0-.6.76,3,3,0,0,0,.37,2.22,1.22,1.22,0,0,0,1.68.4c2.35-1.4,8.44-5,10.53-6.45a1.25,1.25,0,0,0,.47-1.47C123.72,145.9,123.15,145,122.06,145.47Z" style="fill: #fff;stroke: #3f4563;stroke-linecap: round;stroke-linejoin: round"/>
          <g>
            <path d="M120.29,164.85l-.24,0-5.27-1a1.33,1.33,0,1,1,.49-2.62l4.86.9,10.12-4.54a1.33,1.33,0,1,1,1.09,2.43l-10.5,4.71A1.34,1.34,0,0,1,120.29,164.85Z" style="fill: #fff;stroke: #3f4563;stroke-miterlimit: 10"/>
            <circle cx="121" cy="162.95" r="2.34" style="fill: #fff;stroke: #373e5a;stroke-linecap: round;stroke-linejoin: round"/>
          </g>
          <path d="M119.92,189.91l18,8.4a1.78,1.78,0,0,0,1.5-3.22L122,187" style="fill: #fff;stroke: #3f4563;stroke-linecap: round;stroke-linejoin: round"/>
          <circle cx="119.29" cy="186.87" r="2.97" transform="translate(-78.81 286.39) rotate(-84.12)" style="fill: #fff;stroke: #373e5a;stroke-linecap: round;stroke-linejoin: round"/>
          <path d="M119.53,184.51l-4.62-11a1.2,1.2,0,0,0-.69-.68,3,3,0,0,0-2.25.14,1.22,1.22,0,0,0-.57,1.63c1.15,2.48,4.16,8.92,5.34,11.13a1.25,1.25,0,0,0,1.42.62C118.93,186.12,119.86,185.64,119.53,184.51Z" style="fill: #fff;stroke: #3f4563;stroke-linecap: round;stroke-linejoin: round"/>
          <g>
            <circle cx="92.39" cy="145.39" r="1.49" transform="translate(-6.48 4.32) rotate(-2.59)" style="fill: #373e5a;stroke: #373e5a;stroke-miterlimit: 10"/>
            <polygon points="92.42 145.99 100.87 140.17 100.19 139.44 92.36 144.78 92.42 145.99" style="fill: #373e5a;stroke: #373e5a;stroke-linecap: round;stroke-linejoin: round"/>
            <circle cx="100.77" cy="139.64" r="0.59" transform="translate(-6.21 4.7) rotate(-2.59)" style="fill: #373e5a;stroke: #373e5a;stroke-miterlimit: 10;stroke-width: 0.75px"/>
          </g>
          <circle cx="132.6" cy="124.09" r="2.04" transform="translate(3.93 252.25) rotate(-87.98)" style="fill: #fff;stroke: #373e5a;stroke-linecap: round;stroke-linejoin: round"/>
        </g>
        <path d="M278.73,85.56" style="fill: none;stroke: #141515;stroke-miterlimit: 10"/>
        <g>
          <g>
            <path d="M48.42,18.43a.71.71,0,0,0-1.26-.12s-.56.71.06,1a1,1,0,0,0,.74.12S47.51,18.86,48.42,18.43Z" style="fill: none;stroke: #373e5a;stroke-linecap: round;stroke-linejoin: round"/>
            <path d="M49.38,19a.47.47,0,0,0-.82-.13s-.38.44,0,.67a.7.7,0,0,0,.49.11S48.77,19.24,49.38,19Z" style="fill: none;stroke: #373e5a;stroke-linecap: round;stroke-linejoin: round"/>
            <path d="M49.48,19.34s-.31.36,0,.54a.62.62,0,0,0,.32.09l.39.07h.07l-.4-.3.24,0L50,19.54l.46,0L50,19.28C49.92,19.17,49.73,19.08,49.48,19.34Z" style="fill: #373e5a"/>
          </g>
          <path d="M42.65,18.2s-.26-.07-.24-.24l0-.36s-.05-.42.57-.21a1.92,1.92,0,0,1,.4,0,1.11,1.11,0,0,1,.24,0,7.52,7.52,0,0,1,1.24.15,2.8,2.8,0,0,0,.64.09,4.1,4.1,0,0,0,.91-.08l.32-.06a.18.18,0,0,1,.06.23l-.51.59s-.15.14-.13.23l0,.55a.27.27,0,0,1-.31.23,1.58,1.58,0,0,0-.77-.5S43.35,18.33,42.65,18.2Z" style="fill: #373e5a"/>
          <g>
            <path d="M14.16,17.19l-.62-.39-1.92.34h0l2.11-1.55,0,0h0s.05,0,.06,0h0a0,0,0,0,1,0,0v0l1,.89a.24.24,0,0,1,0,.25l-.37.21C14.41,17.29,14.36,17.32,14.16,17.19Z" style="fill: #373e5a"/>
            <path d="M8.59,23.65l.66-1.9A6,6,0,0,0,11,21.16l2,1.16-.62-2.12a6.07,6.07,0,0,0,.91-1.09l2.56-.05L14,17.45a6,6,0,0,0,.21-1.18l2.19-1-2.31-.8a6,6,0,0,0-.41-1.22l1.55-1.72-2.52.22a6.08,6.08,0,0,0-1.41-1.17l0-2.3L9.77,9.95a6,6,0,0,0-1.32-.2l-1.09-2L6.78,9.9a6,6,0,0,0-1.53.6L3.26,9l.5,2.61A6.1,6.1,0,0,0,3,12.6l-2.43.05L2.34,14.2a6,6,0,0,0-.2,1.27L0,16.42l2.29.79a6,6,0,0,0,.4,1.15L1.21,20.27l2.49-.4a6.08,6.08,0,0,0,1.09.93l0,2.25L6.2,21.51a6,6,0,0,0,1.58.32Z" style="fill: red"/>
            <path d="M12.36,20" style="fill: #75757f"/>
            <line x1="12.36" y1="20.01" x2="12.36" y2="20.01" style="fill: #75757f"/>
            <g>
              <path d="M12.62,19.9a.37.37,0,0,1-.17-.08L11.33,19a.13.13,0,0,1,0-.09.13.13,0,0,1,.13-.13l1.39,0,.94-.67c.19-.13.27-.17.35-.17a.19.19,0,0,1,.13.06c0,.06,0,.13,0,.24l.15.06a.13.13,0,0,1,.07.16.84.84,0,0,1-.26.35l-1.43,1.08Z" style="fill: #373e5a"/>
              <path d="M14.08,18c.05,0,0,.08,0,.25l.26.1a.72.72,0,0,1-.22.3l-1.42,1.08-.06,0a.09.09,0,0,1-.07,0l-1.13-.82,1.38,0,1-.69a.78.78,0,0,1,.28-.15m-2.67.88h0m2.67-1.13h0a.79.79,0,0,0-.42.2l-.94.65-1.29,0h0a.25.25,0,0,0-.18.43l.05,0,1.09.79a.34.34,0,0,0,.44,0l1.42-1.08a1,1,0,0,0,.3-.41.25.25,0,0,0-.15-.32l0,0a.32.32,0,0,0,0-.23.31.31,0,0,0-.23-.12Z" style="fill: #fff"/>
            </g>
          </g>
          <path d="M18.27,12.67S17,12,16,13.83l-1.36,2.61s-2.11,2.85,1,3.29A10.61,10.61,0,0,0,18,19.58l.51-6.76Z" style="fill: none;stroke: #373e5a;stroke-miterlimit: 10"/>
          <path d="M42.88,14.67s1.82,2.77-.73,7c-.76,1.26-3.24,2.7-4.72,3.06-2.86.7-6.92,2.07-14.44-.4,0,0-6.32-2.25-4.83-8.52s1.64-5.64,1.64-5.64S34.74,2.08,42.88,14.67Z" style="fill: #3f4563"/>
          <g>
            <path d="M20.31,16.2a22.8,22.8,0,0,0,6.4,5.6c7.37,4.31,15.14,3.14,17.89,2.59a.3.3,0,0,0,.26-.08c0-.06.06-.17,0-.34a1,1,0,0,0-.35-.4L41,21.19a3.73,3.73,0,0,1-1.17-1,5.53,5.53,0,0,0-2.3-1.82l-1.1-.46a7.22,7.22,0,0,1-1.17-.63l-3.88-1.64Z" style="fill: #fff;stroke: #373e5a;stroke-linecap: round;stroke-linejoin: round"/>
            <line x1="24.66" y1="18.21" x2="39.7" y2="21.74" style="fill: #fff;stroke: #373e5a;stroke-linecap: round;stroke-linejoin: round"/>
            <polyline points="36.42 18.62 36.28 20.11 33.24 20.06" style="fill: #fff;stroke: #373e5a;stroke-linecap: round;stroke-linejoin: round"/>
            <polyline points="33.17 17.61 30.52 18.16 29.96 19.45" style="fill: #fff;stroke: #75757f;stroke-linecap: round;stroke-linejoin: round"/>
          </g>
          <g>
            <path d="M18.65,13.7a20.07,20.07,0,0,1,3.45-6A21.61,21.61,0,0,1,34.75.54s.13-.07.21,0,.08.1.07.26a.83.83,0,0,1-.17.4L32.85,4a3.28,3.28,0,0,0-.63,1.11,4.87,4.87,0,0,1-1.28,2l-.71.66a6.35,6.35,0,0,0-.72.81L27,10.91Z" style="fill: #fff;stroke: #373e5a;stroke-linecap: round;stroke-linejoin: round"/>
            <line x1="21.41" y1="10.94" x2="31.73" y2="3.94" style="fill: #fff;stroke: #969c9c;stroke-linecap: round;stroke-linejoin: round"/>
            <polyline points="30.02 7.21 29.57 6.14 27.33 7.07" style="fill: #fff;stroke: #373e5a;stroke-linecap: round;stroke-linejoin: round"/>
            <polyline points="27.84 8.91 25.76 9.27 25.04 8.47" style="fill: #fff;stroke: #373e5a;stroke-linecap: round;stroke-linejoin: round"/>
          </g>
          <path d="M14,18.33a.77.77,0,0,0,.25.32,1.19,1.19,0,0,0,1.6-.43,1.19,1.19,0,0,0,0-1.65,1.81,1.81,0,0,1-.57-1.19S13.63,17.52,14,18.33Z" style="fill: #fff;stroke: #373e5a;stroke-linecap: round;stroke-linejoin: round"/>
          <path d="M19.12,13.36a2.28,2.28,0,0,1,0-1.94c.49-1,9-13.85,22-7,0,0-1.54-.65-6,0S23.4,7.64,19.12,13.36Z" style="fill: #fff;stroke: #3f4563;stroke-linecap: round;stroke-linejoin: round"/>
          <path d="M18.07,17h0A3.93,3.93,0,0,0,20,19.06c2.14,1.16,7.1,2.56,15.84-1.47,0,0,10.47-4,7-9.84,0,0-4.18-2.2-15.54,2,0,0-9.16,3.85-9.16,6.05l-.06,1A.64.64,0,0,0,18.07,17Z" style="fill: #fff;stroke: #3f4563;stroke-linecap: round;stroke-linejoin: round"/>
          <path d="M17.33,17.51s-2.44.65-1.77-2.81" style="fill: #fff;stroke: #373e5a;stroke-linecap: round;stroke-linejoin: round"/>
          <path d="M24.66,24a.37.37,0,0,0-.39.49,25.71,25.71,0,0,1,1,3.8,2.86,2.86,0,0,0,2,2.6.37.37,0,0,0,.44-.17h0a1.21,1.21,0,0,1,.81-.59l.24-.05s-.05-.61-1.12-1.69a9.53,9.53,0,0,1-2.14-4,.38.38,0,0,0-.33-.32Z" style="fill: #373e5a"/>
          <path d="M28.62,30.39s-.94-.12-.23.71a11.41,11.41,0,0,0,2.49,2.58.46.46,0,0,0,.22.09c.33,0,1.26.11,1.64-.43a.24.24,0,0,0,0-.16c0-.25-.27-.93-2.26-1.73a5.89,5.89,0,0,1-1.19-.64Z" style="fill: #373e5a"/>
          <g>
            <path d="M33.24,35.39s-1.37-.25-.66-1.35c0,0,.61-.85,1.23-.27a1.25,1.25,0,0,1,.45.78S33.37,34.25,33.24,35.39Z" style="fill: none;stroke: #373e5a;stroke-linecap: round;stroke-linejoin: round"/>
            <path d="M34.56,36.11s-.91.12-.71-.7c0,0,.19-.65.71-.42a.86.86,0,0,1,.46.39S34.39,35.37,34.56,36.11Z" style="fill: none;stroke: #373e5a;stroke-linecap: round;stroke-linejoin: round"/>
            <path d="M35,36.05s.16-.53.57-.34a.77.77,0,0,1,.32.24l.35.33.06.05-.59-.19.12.26-.24,0,.34.42-.59-.24C35.13,36.58,34.9,36.46,35,36.05Z" style="fill: #373e5a"/>
          </g>
          <path d="M36.14,29.84l-.91-1.12a1.58,1.58,0,0,0-.73-.45L33,27.83a4.38,4.38,0,0,1-1.73-.93c-1-.94-.95-1.76-.85-2.08a.21.21,0,0,1,.19-.16c1.26,0,4.54,2.81,4.69,2.94h0l1.35,1.44c-1.67-1.77.2.23.34.46s-.55.36-.55.36A.24.24,0,0,1,36.14,29.84Z" style="fill: #373e5a"/>
          <g>
            <path d="M42.57,32.33s-.89-.91-1.37.19c0,0-.34.9.42,1.07a1.15,1.15,0,0,0,.82-.06S41.76,33,42.57,32.33Z" style="fill: none;stroke: #373e5a;stroke-linecap: round;stroke-linejoin: round"/>
            <path d="M43.78,32.68s-.57-.63-.91.07c0,0-.25.57.25.71a.78.78,0,0,0,.55,0S43.22,33.1,43.78,32.68Z" style="fill: none;stroke: #373e5a;stroke-linecap: round;stroke-linejoin: round"/>
            <path d="M44,33s-.2.46.2.58a.71.71,0,0,0,.36,0l.44,0h.07l-.53-.22.24-.11-.16-.15.49-.09-.56-.18C44.41,32.73,44.18,32.68,44,33Z" style="fill: #373e5a"/>
          </g>
          <path d="M36.86,30.55s-.26-.16-.2-.33.12-.35.23-.42.59,0,.8.11.64.27,1,.38a4.48,4.48,0,0,1,.76.37,3.44,3.44,0,0,0,.67.31,4.84,4.84,0,0,0,1,.23l.36,0s.12.14,0,.26l-.7.44s-.2.09-.2.19l-.1.59a.28.28,0,0,1-.39.13,2,2,0,0,0-.71-.79S37.58,30.93,36.86,30.55Z" style="fill: #373e5a"/>
          <path d="M15.33,23.53l-5.58.32s-.17,0-.07.18l.18.33a.82.82,0,0,1,.08.34v1.2s0,.2.14.08l1.27-.78.3.34,2.88-1.31a.6.6,0,0,1,.43,0l.82.26s.19,0,.17-.14l-.24-.71s0-.14-.29-.1Z" style="fill: #373e5a"/>
          <path d="M19.12,21.11c.15.12.81,1.23.71,1.33a9.24,9.24,0,0,0-1.35,1.5,1.89,1.89,0,0,1-2.18.54.4.4,0,0,1-.19-.3h0a1.35,1.35,0,0,0-.3-.69l-.12-.14s.16-.29,1-.34,1.62-1.6,2-2.08a.16.16,0,0,1,.25,0Z" style="fill: #373e5a"/>
          <g>
            <path d="M8,25.1s.71,1.06,1.38.07c0,0,.49-.82-.22-1.13a1.15,1.15,0,0,0-.82-.1S9,24.57,8,25.1Z" style="fill: none;stroke: #373e5a;stroke-linecap: round;stroke-linejoin: round"/>
            <path d="M6.91,24.53s.44.72.91.1c0,0,.35-.51-.12-.74a.78.78,0,0,0-.54-.1S7.53,24.22,6.91,24.53Z" style="fill: none;stroke: #373e5a;stroke-linecap: round;stroke-linejoin: round"/>
            <path d="M6.75,24.15s.28-.42-.09-.6a.71.71,0,0,0-.35-.08l-.43-.05H5.79l.48.31L6,23.78l.13.18h-.5l.51.28A.36.36,0,0,0,6.75,24.15Z" style="fill: #373e5a"/>
          </g>
        </g>
        <g>
          <path d="M117.51,92.15q-.71-.7-1.45-1.37" style="fill: none;stroke: #dfe1e1;stroke-linecap: round;stroke-linejoin: round"/>
          <path d="M108.23,84.86a83.27,83.27,0,0,0-19.51-8.71" style="fill: none;stroke: #dfe1e1;stroke-linecap: round;stroke-linejoin: round;stroke-dasharray: 5.355432033538818,3.5702879428863525,9.818291664123535,5.355432033538818"/>
          <path d="M86.16,75.38c-5.91-1.7-11.35-2.8-15.52-3.66C53.26,68.15,69.32,31.54,52.2,22.2" style="fill: none;stroke: #dfe1e1;stroke-linecap: round;stroke-linejoin: round;stroke-dasharray: 3.5702879428863525,9.818291664123535,5.355432033538818,3.5702879428863525,9.818291664123535,5.355432033538818"/>
          <path d="M49.75,21.14a18.45,18.45,0,0,0-1.93-.54" style="fill: none;stroke: #dfe1e1;stroke-linecap: round;stroke-linejoin: round"/>
        </g>
        <path d="M136.25,112.91a18.66,18.66,0,0,0-4,10.27.85.85,0,0,0,1.11.29S134.6,121.77,136.25,112.91Z" style="fill: #fff;stroke: #3f4563;stroke-linecap: round;stroke-linejoin: round"/>
        <g>
          <path d="M263.57,201.77l1.2-1.62a6,6,0,0,0,1.83,0l1.53,1.7,0-2.21a6.07,6.07,0,0,0,1.2-.77l2.45.72-1.23-2.07a6,6,0,0,0,.56-1.06l2.38-.27-2-1.46a6,6,0,0,0,0-1.29l2-1.17-2.47-.55a6.08,6.08,0,0,0-1-1.54l.65-2.21-1.91,1.13a6,6,0,0,0-1.2-.59l-.43-2.27L266,188.12a6,6,0,0,0-1.64.11l-1.45-2-.31,2.63a6.1,6.1,0,0,0-1,.68l-2.33-.68,1.18,2a6,6,0,0,0-.58,1.15l-2.32.26,1.95,1.44a6,6,0,0,0,0,1.22l-2,1.37,2.49.37a6.08,6.08,0,0,0,.75,1.22l-.63,2.16,1.77-1a6,6,0,0,0,1.41.79Z" style="fill: red"/>
          <path d="M268.26,199.45" style="fill: #75757f"/>
          <line x1="268.25" y1="199.44" x2="268.25" y2="199.44" style="fill: #75757f"/>
        </g>
      </g>
    </g>
  </g>
</svg>
