<svg xmlns="http://www.w3.org/2000/svg" width="34.52" height="38.69" viewBox="0 0 34.52 38.69">
  <title>icon-bug</title>
  <g id="Layer_2" data-name="Layer 2">
    <g id="Home_-_1200" data-name="Home - 1200">
      <g id="First_Module" data-name="First Module">
        <g id="Threats">
          <g>
            <path d="M3.94,16.89s0-1,1.52-1.87c0,0,1.24-.86,4.25-2.78,0,0,4.88-3.22,8.63-2.5,0,0,6.81.61,8.51,8.48l0,.09a4.44,4.44,0,1,1-2.28,8.58l.06-.18C19.27,32.76,13,30,13,30c-3.62-1.19-6.31-6.38-6.31-6.38C5,20.46,4.36,19.1,4.36,19.1a2.6,2.6,0,0,1-.41-2.37" style="fill: #fff;stroke: #3f4563;stroke-linecap: round;stroke-linejoin: round"/>
            <path d="M34,20.93a3.8,3.8,0,0,0-3.86.41" style="fill: none;stroke: #3f4563;stroke-linecap: round;stroke-linejoin: round"/>
            <path d="M29.48,25.12s1.65,2,3.58,1.87" style="fill: none;stroke: #3f4563;stroke-linecap: round;stroke-linejoin: round"/>
            <polyline points="12.95 10.75 11.63 8.37 7.26 7.31 6.55 6.32" style="fill: none;stroke: #3f4563;stroke-linecap: round;stroke-linejoin: round"/>
            <polyline points="18.01 9.65 18.8 5.48 15.39 2.02 15.16 0.5" style="fill: none;stroke: #3f4563;stroke-linecap: round;stroke-linejoin: round"/>
            <path d="M22,29.39,25.75,34l.86,3.58,1.06.59" style="fill: none;stroke: #3f4563;stroke-linecap: round;stroke-linejoin: round"/>
            <polyline points="15.16 30.48 13.76 35.17 8.19 36.5 7.79 38.19" style="fill: none;stroke: #3f4563;stroke-linecap: round;stroke-linejoin: round"/>
            <polyline points="9.99 27.97 6.45 30.8 1.62 29.37 0.5 29.69" style="fill: none;stroke: #3f4563;stroke-linecap: round;stroke-linejoin: round"/>
            <path d="M26.81,18.32a10.29,10.29,0,0,1-2.28,8.58" style="fill: none;stroke: #3f4563;stroke-linecap: round;stroke-linejoin: round"/>
            <path d="M10.1,15.65c2.06-1.37,4.85-2.94,7.57-2.57a8.23,8.23,0,0,1,6.14,4.42.26.26,0,0,1,.07.18" style="fill: none;stroke: #3f4563;stroke-linecap: round;stroke-linejoin: round"/>
            <polyline points="32.48 7.85 31.2 7.85 28.73 10.47 24.29 12.53" style="fill: none;stroke: #3f4563;stroke-linecap: round;stroke-linejoin: round"/>
            <path d="M4.54,18.1c2.95.95,6.19,1.85,9.69,2.63,2.71.6,5.3,1.07,7.75,1.44" style="fill: none;stroke: #3f4563;stroke-linecap: round;stroke-linejoin: round;stroke-dasharray: 2.2586264610290527,3.0115020275115967"/>
          </g>
        </g>
      </g>
    </g>
  </g>
</svg>
