<svg id="money" xmlns="http://www.w3.org/2000/svg" viewBox="0 0 665 572"><path class="light-blue-grey" d="M454.38 552.32c-6.28-2.25-50.16-19-60-49.34q-.41-1.25-.73-2.53l-43.73 11.78.13.4c1.52 4.69 13.35 35.41 67.56 57.14l36.8-17.45"/><path class="blue-stroke" d="M454.38 552.32c-6.28-2.25-50.16-19-60-49.34q-.41-1.25-.73-2.53l-43.73 11.78.13.4c1.52 4.69 13.35 35.41 67.56 57.14l36.8-17.45"/><path class="blue-stroke-white" d="M442.29 552a4.16 4.16 0 0 0 1 1.53l.26.26-22.9 10.57-.34-.2a8.93 8.93 0 0 0-4.74-1.22 11.86 11.86 0 0 0-5 1.24l-.25.13-.32-.13c-42.23-17.06-55-46.18-55.15-46.47l-.11-.25.34-.08c3.88-.92 4-2.85 3.59-4.14A4.39 4.39 0 0 0 358 512l-.21-.28 27-7.43.27.28a7.3 7.3 0 0 0 5.56 2.16 8.49 8.49 0 0 0 1.91-.24l.56-.15.19.41c12.3 27.87 49.32 42.42 49.69 42.56l.59.23-.4.27a1.8 1.8 0 0 0-.85 2.21"/><path class="blue-stroke" d="M375.75 518.86c-.36-1.1.77-2.36 3-3.11a9.79 9.79 0 0 1 5-.38 4.09 4.09 0 0 1 2 .94 1.72 1.72 0 0 1 .45.69c.36 1.11-.77 2.37-3 3.12a9.86 9.86 0 0 1-5 .37 4.06 4.06 0 0 1-2-.94 1.73 1.73 0 0 1-.44-.69"/><path class="blue" d="M381.61 536.61c-.92-2.82 1.27-5.82 5.83-7.38a20.31 20.31 0 0 1 10.48-.57 12.7 12.7 0 0 1 6.22 3 5.57 5.57 0 0 1 1.46 2.24c.92 2.82-1.27 5.82-5.84 7.38a20.28 20.28 0 0 1-10.47.57 12.73 12.73 0 0 1-6.23-3 5.62 5.62 0 0 1-1.46-2.24"/><path class="blue-stroke" d="M408.89 550.54c-.36-1.11.78-2.36 3-3.11a9.83 9.83 0 0 1 5-.38 4 4 0 0 1 2 .94 1.72 1.72 0 0 1 .45.69c.36 1.1-.78 2.36-3 3.11a9.83 9.83 0 0 1-5 .38 4 4 0 0 1-2-.94 1.68 1.68 0 0 1-.45-.69"/><path class="light-blue-grey" d="M325.15 468.6L362 486.05c54.21-21.73 66-52.45 67.56-57.14l.13-.4-43.73-11.78q-.33 1.28-.73 2.53c-9.86 30.36-53.74 47.09-60 49.34"/><path class="blue-stroke" d="M325.15 468.6L362 486.05c54.21-21.73 66-52.45 67.56-57.14l.13-.4-43.73-11.78q-.33 1.28-.73 2.53c-9.86 30.36-53.74 47.09-60 49.34"/><path class="blue-stroke-white" d="M337.51 465.9a2.12 2.12 0 0 1 .67 2.42 4.71 4.71 0 0 1-.91 1.54l21.67 10c4.54-2.45 9.31-.54 10.46 0 39.54-16.09 52.89-42.85 54.2-45.66-4.07-1.08-4.17-3.26-3.7-4.7a5.19 5.19 0 0 1 .52-1.12l-25.4-7c-2.79 2.65-6.56 2.33-8 2.09-11.77 26.07-44.87 40.5-49.53 42.42"/><path class="blue-stroke" d="M403.78 435.15a1.73 1.73 0 0 1-.44.69 4.06 4.06 0 0 1-2 .94 9.86 9.86 0 0 1-5-.37c-2.19-.75-3.32-2-3-3.12a1.72 1.72 0 0 1 .45-.69 4.09 4.09 0 0 1 2-.94 9.79 9.79 0 0 1 5 .38c2.19.75 3.31 2 3 3.11M370.63 466.82a1.68 1.68 0 0 1-.45.69 4 4 0 0 1-2 .94 9.83 9.83 0 0 1-5-.38c-2.18-.74-3.31-2-3-3.11a1.72 1.72 0 0 1 .45-.69 4 4 0 0 1 2-.94 9.83 9.83 0 0 1 5 .38c2.18.75 3.31 2 3 3.11"/><path class="blue" d="M374.41 450.19c-.88 2.7 1.24 5.58 5.65 7.09 5.59 1.91 12.76.89 16-2.27a5.29 5.29 0 0 0 1.38-2.12c.88-2.7-1.24-5.58-5.65-7.09-5.6-1.91-12.76-.89-16 2.27a5.29 5.29 0 0 0-1.38 2.12"/><path class="light-blue-grey" d="M432 340.68s41.4 10.92 69.84-19.15l16.55 36s-28.25 29.54-77.72 21.16z"/><path class="blue-stroke" d="M432 340.68s41.4 10.92 69.84-19.15l16.55 36s-28.25 29.54-77.72 21.16z"/><path class="blue-stroke-white" d="M443.22 371l-5.33-22.22s3.13-1.07 2.9-4c0 0 30.67 5.76 57-15.75a4.53 4.53 0 0 0 5.95 2.31l9.6 21.26a5.36 5.36 0 0 0-2.23 7.46s-26.75 22.22-62.11 16.46c0 0-1-5.81-5.78-5.52z"/><path class="blue" d="M485.06 354.31c1.8 4.92 0 10.05-3.93 11.47s-8.64-1.42-10.44-6.34 0-10.05 3.93-11.47 8.64 1.42 10.44 6.34z"/><path class="blue-stroke" d="M459.06 359.31c.77 2.11.33 4.2-1 4.67s-3-.86-3.78-3-.33-4.2 1-4.67 3.01.89 3.78 3zM499.14 345.59c.77 2.11.33 4.2-1 4.67s-3-.86-3.78-3-.33-4.2 1-4.67 3.01.89 3.78 3z"/><path class="light-blue-grey" d="M596.41 398.35l-45.29 29 4.1 19.52 43.91-30.42s6.78-4.37-2.72-18.1z"/><path class="blue-stroke" d="M596.41 398.35l-45.29 29 4.1 19.52 43.91-30.42s6.78-4.37-2.72-18.1z"/><path class="blue-stroke" d="M579.92 412.68l11.89-8.21a4.74 4.74 0 0 0 5.49-.2s5.87 9.62-2.84 13.83l-9.77 1.19z"/><path class="light-blue-grey" d="M555.22 446.9l43.91-30.42c-5.62 3.89-20 3.92-27.67-35.89l-40.86 29.2s5.47 36.48 24.62 37.11z"/><path class="blue-stroke" d="M555.22 446.9l43.91-30.42c-5.62 3.89-20 3.92-27.67-35.89l-40.86 29.2s5.47 36.48 24.62 37.11z"/><path class="blue-stroke-white" d="M589.92 422.86c-12.42-3.73-19-25.6-20.38-31.49a5.85 5.85 0 0 1-4.78-.57l-26.49 18.72a9.85 9.85 0 0 1-1.8 6.12c4.94 24.27 17.84 28.19 22.54 28.63z"/><path class="blue" d="M566.8 423.51c-6.9 4.26-11 11.11-9.25 15.29.79 1.84 2.61 2.85 5 3 .12 0 20-13.86 20-13.86a6.66 6.66 0 0 0 0-4.62c-1.8-4.15-8.85-4.08-15.75.19z"/><path class="blue-stroke" d="M553.15 407.94c2.93-2 5.92-2.35 6.69-.83s-1 4.36-3.92 6.34-5.92 2.35-6.69.83.99-4.35 3.92-6.34z"/><path class="light-blue-grey" d="M604.43 295.16s16.88 39.35 58.09 43.25l-18.18 35.21s-40.67-4.07-64.53-48.22z"/><path class="blue-stroke" d="M604.43 295.16s16.88 39.35 58.09 43.25l-18.18 35.21s-40.67-4.07-64.53-48.22z"/><path class="blue-stroke-white" d="M587.51 322.67l14.23-17.88s2.77 1.81 5-.2c0 0 14.34 27.72 47.52 35.24a4.53 4.53 0 0 0 1.84 6.11l-10.84 20.65a5.36 5.36 0 0 0-7.25 2.83s-34.06-7.36-51.29-38.76c-.03 0 3.93-4.37.79-7.99z"/><path class="blue-stroke" d="M641.93 351.13c-1.19 1.9-3.11 2.84-4.29 2.09s-1.17-2.9 0-4.8 3.11-2.84 4.29-2.09 1.19 2.89 0 4.8zM606.44 328c-1.19 1.9-3.11 2.84-4.29 2.09s-1.17-2.9 0-4.8 3.11-2.84 4.29-2.09 1.19 2.88 0 4.8z"/><path class="blue" d="M626.39 345.4c-2.77 4.44-7.9 6.21-11.46 4s-4.2-7.69-1.43-12.13 7.9-6.21 11.46-4 4.2 7.73 1.43 12.13z"/><path class="light-blue-grey" d="M605.67 98.08s16.88 39.35 58.09 43.25l-18.18 35.21s-40.67-4.07-64.53-48.22z"/><path class="blue-stroke" d="M605.67 98.08s16.88 39.35 58.09 43.25l-18.18 35.21s-40.67-4.07-64.53-48.22z"/><path class="blue-stroke-white" d="M588.75 125.59L603 107.71s2.77 1.81 5-.2c0 0 14.34 27.72 47.52 35.24a4.53 4.53 0 0 0 1.84 6.11l-10.84 20.65a5.36 5.36 0 0 0-7.25 2.83s-34.06-7.36-51.29-38.76c-.05 0 3.91-4.37.77-7.99z"/><path class="blue" d="M627.63 148.32c-2.77 4.44-7.9 6.21-11.46 4s-4.2-7.69-1.43-12.13 7.9-6.21 11.46-4 4.2 7.69 1.43 12.13z"/><path class="blue-stroke" d="M607.68 130.91c-1.19 1.9-3.11 2.84-4.29 2.09s-1.17-2.9 0-4.8 3.11-2.84 4.29-2.09 1.19 2.89 0 4.8zM643.17 154c-1.19 1.9-3.11 2.84-4.29 2.09s-1.17-2.9 0-4.8 3.11-2.84 4.29-2.09 1.19 2.94 0 4.8z"/><path class="light-blue-grey" d="M581 191.61s-16.64 44.57-63 50.79l22.78 38.36s45.77-6.39 70-56.62z"/><path class="blue-stroke" d="M581 191.61s-16.64 44.57-63 50.79l22.78 38.36s45.77-6.39 70-56.62z"/><path class="blue-stroke-white" d="M601.88 221.45l-17.22-19.25s-3 2.15-5.63 0c0 0-14.49 31.51-51.57 41.4 0 0 2.53 4.2-1.7 6.88L539.33 273s5.36-2.74 8.38 2.82c0 0 38.08-9.75 55.61-45.49 0-.02-4.76-4.71-1.44-8.88z"/><path class="blue" d="M559.31 248.53c3.41 4.82 9.33 6.56 13.22 3.88s4.27-8.75.86-13.56-9.33-6.56-13.22-3.88-4.27 8.74-.86 13.56z"/><path class="blue-stroke" d="M580.8 228.24c1.46 2.06 3.69 3 5 2.13s1.15-3.28-.32-5.34-3.69-3-5-2.13-1.15 3.27.32 5.34zM542.09 255.61c1.46 2.06 3.69 3 5 2.13s1.15-3.28-.32-5.34-3.69-3-5-2.13-1.15 3.28.32 5.34z"/><path class="light-blue-grey" d="M553.15 93.7l-43.75 2.24c-6.79-30-28.48-48.2-42.94-57.33h51c29.14 18.87 35.7 55.1 35.69 55.09z"/><path class="blue-stroke" d="M553.15 93.7l-43.75 2.24c-6.79-30-28.48-48.2-42.94-57.33h51c29.14 18.87 35.7 55.1 35.69 55.09z"/><path class="blue-stroke-white" d="M516.63 92.55a6.46 6.46 0 0 0-5.85-4.75c-.83-3.47-8.09-30-38.48-48.7h41.35c11 6.7 25.79 20.35 34.3 47.44a8.12 8.12 0 0 0-3.21 4.19z"/><path class="blue-stroke" d="M523.07 79.64c.28 2.31 2.91 3.9 5.86 3.56s5.12-2.49 4.84-4.8-2.91-3.9-5.86-3.56-5.12 2.49-4.84 4.8zM496.22 38.61c-.71.94-2.8 1.54-5.24 1.41a8.32 8.32 0 0 1-4.55-1.41z"/><ellipse class="blue" cx="512.97" cy="54.23" rx="7.36" ry="11.8" transform="rotate(-82.21 512.961 54.234)"/><path class="light-blue-grey" d="M461.36 144.18L506 171.57l-7.88 21.35-42.84-29s-6.71-4.16 6.08-19.74z"/><path class="blue-stroke" d="M461.36 144.18L506 171.57l-7.88 21.35-42.84-29s-6.71-4.16 6.08-19.74z"/><path class="blue-stroke" d="M476.95 158.19l-11.6-7.82s-3.34 2.3-6 .25c0 0-8.1 10.85.72 14.64l10.5.45z"/><path class="light-blue-grey" d="M498.07 192.92l-42.84-29c5.48 3.71 21.26 2.52 36.54-41l39.7 28s-12.31 39.69-33.4 42z"/><path class="blue-stroke" d="M498.07 192.92l-42.84-29c5.48 3.71 21.26 2.52 36.54-41l39.7 28s-12.31 39.69-33.4 42z"/><path class="blue-stroke-white" d="M464.21 170c14.25-5.07 25.26-29.17 27.79-35.61a7.26 7.26 0 0 0 5.34-1l25.77 17.89a8.91 8.91 0 0 0 .91 6.43c-9.63 26.53-24.44 31.85-29.66 32.72z"/><path class="blue" d="M489.44 168.73c6.82 4 10.17 11 7.49 15.67a8 8 0 0 1-6 3.7c-.13 0-19.53-13.22-19.53-13.22a7.42 7.42 0 0 1 .81-5c2.69-4.63 10.4-5.15 17.23-1.15z"/><path class="blue-stroke" d="M507.09 150.82c-2.87-1.88-6.08-2-7.18-.33s.33 4.61 3.2 6.49 6.08 2 7.18.33-.29-4.6-3.2-6.49z"/><path class="light-blue-grey" d="M503 172.13s-14.73 40.21 12.57 71.31l-37.38 13.13s-26.79-30.87-13.84-79.35z"/><path class="blue-stroke" d="M503 172.13s-14.73 40.21 12.57 71.31l-37.38 13.13s-26.79-30.87-13.84-79.35z"/><path class="blue-stroke-white" d="M471.77 180.53l22.62-3.24s.77 3.22 3.75 3.26c0 0-8.59 30 10.38 58.24a4.53 4.53 0 0 0-2.85 5.71l-22.06 7.58a5.36 5.36 0 0 0-7.22-2.91s-19.72-28.72-10.7-63.39c0 0 5.88-.46 6.08-5.25z"/><path class="blue" d="M484.45 223.74c-5.06 1.33-10-.9-11.05-5s2.22-8.47 7.28-9.8 10 .9 11.05 5-2.21 8.47-7.28 9.8z"/><path class="blue-stroke" d="M481.89 197.39c-2.17.57-4.21-.07-4.55-1.42s1.13-2.91 3.3-3.48 4.21.07 4.55 1.42-1.13 2.91-3.3 3.48zM491.83 238.57c-2.17.57-4.21-.07-4.55-1.42s1.13-2.91 3.3-3.48 4.21.07 4.55 1.42-1.13 2.91-3.3 3.48z"/><path class="light-blue-grey" d="M394.56 177.84s17.51 44.8 64.36 50.59l-22.32 38.94s-46.23-6-71.48-56.4z"/><path class="blue-stroke" d="M394.56 177.84s17.51 44.8 64.36 50.59l-22.32 38.94s-46.23-6-71.48-56.4z"/><path class="blue-stroke-white" d="M374 208.17l17-19.6s3.08 2.13 5.67-.06c0 0 15.13 31.64 52.65 41.24 0 0-2.48 4.27 1.83 6.93l-13.3 22.84s-5.45-2.71-8.4 2.94c0 0-38.53-9.44-56.79-45.32.07-.02 4.78-4.8 1.34-8.97z"/><path class="blue" d="M417.37 235.05c-3.36 4.9-9.29 6.71-13.25 4.05s-4.45-8.78-1.09-13.68 9.29-6.71 13.25-4.05 4.45 8.78 1.09 13.68z"/><path class="blue-stroke" d="M395.39 214.8c-1.44 2.1-3.67 3.09-5 2.2s-1.21-3.3.23-5.4 3.67-3.09 5-2.2 1.21 3.3-.23 5.4zM434.85 242c-1.44 2.1-3.67 3.09-5 2.2s-1.21-3.3.23-5.4 3.67-3.09 5-2.2 1.21 3.32-.23 5.4z"/><path class="light-blue-grey" d="M361.22 383.55l-45.75-26.37 7.35-21.76 44 28s6.86 4.06-5.6 20.13z"/><path class="blue-stroke" d="M361.22 383.55l-45.75-26.37 7.35-21.76 44 28s6.86 4.06-5.6 20.13z"/><path class="blue-stroke" d="M345.11 369.86l11.89 7.56s3.3-2.42 6-.42c0 0 7.87-11.17-1.14-14.74l-10.6-.16z"/><path class="light-blue-grey" d="M322.82 335.43l44 28c-5.64-3.59-21.52-1.94-35.71 42.36l-40.81-27.04s11.32-40.4 32.52-43.32z"/><path class="blue-stroke" d="M322.82 335.43l44 28c-5.64-3.59-21.52-1.94-35.71 42.36l-40.81-27.04s11.32-40.4 32.52-43.32z"/><path class="blue-stroke-white" d="M357.62 357.59c-14.24 5.52-24.66 30.13-27 36.71a7.33 7.33 0 0 0-5.35 1.18l-26.5-17.32a9 9 0 0 0-1.1-6.46c9-27 23.75-32.81 29-33.84z"/><path class="blue" d="M332.21 359.58c-7-3.84-10.57-10.83-8-15.59a8.12 8.12 0 0 1 5.93-3.9c.13 0 20.07 12.78 20.07 12.78a7.49 7.49 0 0 1-.67 5c-2.54 4.81-10.34 5.56-17.33 1.71z"/><path class="blue-stroke" d="M314.9 378.14c2.94 1.82 6.19 1.88 7.25.13s-.46-4.64-3.41-6.46-6.19-1.88-7.25-.13.51 4.64 3.41 6.46z"/><path class="light-blue-grey" d="M286.06 409.72l3.54-.12-1.43 1c-15.49 10.52-35.17 29.24-40.7 58.4l-.08.41-44.66-.72-.06-.42c0-.3 5.11-36.63 34-56.75l.12-.09"/><path class="blue-stroke" d="M285.91 409.71l-49.14 1.73-.12.09c-28.86 20.12-34 56.45-34 56.75l.06.42 44.66.72.08-.41c5.56-29.17 25.21-47.89 40.71-58.45l1.43-1-3.54.12z"/><path class="blue-stroke-white" d="M239.77 412.33c-10.7 7.24-24.69 21.45-32.13 48.4l-.1.35.32.2a7.66 7.66 0 0 1 3.14 3.82l.11.33 28.9.86.1-.38a6 6 0 0 1 5.24-4.58h.37l.08-.36c.61-3 6.84-30 36.54-49.67l.66-.44"/><path class="blue-stroke" d="M227 449a7.05 7.05 0 0 1 .75 0 5.43 5.43 0 0 1 3.75 1.78 3.1 3.1 0 0 1 .79 2.3c-.16 1.85-2.08 3.24-4.44 3.32a6.39 6.39 0 0 1-.75 0 5.46 5.46 0 0 1-3.75-1.78 3.1 3.1 0 0 1-.79-2.3c.16-1.85 2.09-3.24 4.45-3.32M259.88 411.63l5.93-.21a10.54 10.54 0 0 1-2.41.49h-.65a8.93 8.93 0 0 1-2.86-.32"/><path class="blue" d="M243.24 419.86c5.35-.19 9.75 2 10.35 5.51.69 4-4 8.15-10.38 9.25a18.75 18.75 0 0 1-2.53.26c-5.34.19-9.75-2-10.35-5.51-.69-4 4-8.14 10.38-9.25a18.8 18.8 0 0 1 2.53-.26"/><path class="light-blue-grey" d="M285.62 267.68s37.62 13.1 66.14-12.75l12.77 34.57s-28.32 25.37-73.6 14.05z"/><path class="blue-stroke" d="M285.62 267.68s37.62 13.1 66.14-12.75l12.77 34.57s-28.32 25.37-73.6 14.05z"/><path class="blue-stroke-white" d="M293.89 296.56l-3.35-21s3-.76 3-3.54c0 0 28 7.55 54-10.52a4.22 4.22 0 0 0 5.35 2.57l7.38 20.41a5 5 0 0 0-2.6 6.76s-26.42 18.77-58.8 10.89c-.01.01-.53-5.46-4.98-5.57z"/><path class="blue" d="M333.89 284.13c1.31 4.69-.69 9.32-4.47 10.35s-7.91-1.94-9.22-6.63.69-9.32 4.47-10.35 7.91 1.94 9.22 6.63z"/><path class="blue-stroke" d="M309.42 286.89c.56 2 0 3.92-1.25 4.26s-2.73-1-3.29-3 0-3.92 1.25-4.26 2.72.99 3.29 3zM347.57 277c.56 2 0 3.92-1.25 4.26s-2.73-1-3.29-3 0-3.92 1.25-4.26 2.72 1 3.29 3z"/><path class="light-blue-grey" d="M354 47s25.08 41 72.22 38.54l-15.15 42.25s-46.56 2.21-80.25-43z"/><path class="blue-stroke" d="M354 47s25.08 41 72.22 38.54l-15.15 42.25s-46.56 2.21-80.25-43z"/><path class="blue-stroke-white" d="M339.09 80.42l13.34-22.28s3.4 1.56 5.58-1.05c0 0 20.43 28.5 59.06 31.38 0 0-1.69 4.63 3 6.5L411 119.78s-5.84-1.71-7.76 4.36c0 0-39.59-2.55-63.85-34.68-.01 0 3.8-5.53-.3-9.04z"/><path class="blue" d="M386.48 99.29c-2.45 5.41-8 8.24-12.34 6.31s-5.92-7.87-3.47-13.28 8-8.24 12.34-6.31 5.92 7.87 3.47 13.28z"/><path class="blue-stroke" d="M361.29 83.2c-1 2.32-3.07 3.68-4.52 3s-1.77-3-.72-5.35 3.07-3.68 4.52-3 1.77 3.03.72 5.35z"/><path class="light-blue-grey" d="M364.13 81.36s45.15-18.81 50.09-65.82l40 21.18s-5.14 46.4-55.85 73.11z"/><path class="blue-stroke" d="M364.13 81.36s45.15-18.81 50.09-65.82l40 21.18s-5.14 46.4-55.85 73.11z"/><path class="blue-stroke-white" d="M395.34 101L375.1 84.55s2.11-3.14-.17-5.67c0 0 31.83-16 40.82-53.85 0 0 4.38 2.35 7-2l23.45 12.6s-2.64 5.53 3.15 8.31c0 0-8.82 38.8-44.89 58.1 0-.04-4.95-4.57-9.12-1.04z"/><path class="blue" d="M421.77 56.89c5 3.22 7 9.1 4.38 13.13s-8.83 4.7-13.87 1.49-7-9.1-4.38-13.13 8.83-4.71 13.87-1.49z"/><path class="blue-stroke" d="M401.64 79.46c2.16 1.38 3.21 3.58 2.34 4.92s-3.32 1.31-5.48-.07-3.21-3.58-2.34-4.92 3.32-1.31 5.48.07zM428.5 39.21c2.16 1.38 3.21 3.58 2.34 4.92s-3.32 1.31-5.48-.07-3.21-3.58-2.34-4.92 3.32-1.31 5.48.07z"/><path class="light-blue-grey" d="M243.33 152.09s42.82 0 62.64-36.33l25.19 30.59s-19.78 35.77-69.75 40.29z"/><path class="blue-stroke" d="M243.33 152.09s42.82 0 62.64-36.33l25.19 30.59s-19.78 35.77-69.75 40.29z"/><path class="blue-stroke-white" d="M261.94 178.49l-10.82-20.13s2.76-1.83 1.77-4.64c0 0 31.12-2.25 51.12-29.78a4.53 4.53 0 0 0 6.34.72l14.7 18.11a5.36 5.36 0 0 0-.25 7.78s-20.19 28.4-55.84 31.85c.04-.01-2.46-5.4-7.02-3.91z"/><path class="blue" d="M298.15 151.72c3 4.3 2.6 9.71-.88 12.09s-8.72.83-11.71-3.47-2.6-9.71.88-12.09 8.72-.83 11.71 3.47z"/><path class="blue-stroke" d="M274.29 163.18c1.28 1.84 1.39 4 .23 4.76s-3.13-.06-4.41-1.9-1.39-4-.23-4.76 3.12.06 4.41 1.9zM309.54 139.69c1.28 1.84 1.39 4 .23 4.76s-3.13-.06-4.41-1.9-1.39-4-.23-4.76 3.13.06 4.41 1.9z"/><path class="light-blue-grey" d="M186.43 192.4s18 38.84 59.32 41.54l-17.15 35.72s-40.77-2.89-65.9-46.32z"/><path class="blue-stroke" d="M186.43 192.4s18 38.84 59.32 41.54l-17.15 35.72s-40.77-2.89-65.9-46.32z"/><path class="blue-stroke-white" d="M170.32 220.39L184 202.11s2.82 1.73 5-.35c0 0 15.14 27.29 48.52 33.85a4.53 4.53 0 0 0 2 6.05l-10.24 21a5.36 5.36 0 0 0-7.17 3s-34.25-6.37-52.39-37.26c.01 0 3.84-4.48.6-8.01z"/><path class="blue" d="M209.84 242c-2.64 4.52-7.72 6.44-11.34 4.29s-4.42-7.56-1.78-12.08 7.72-6.44 11.34-4.29 4.42 7.54 1.78 12.08z"/><path class="blue-stroke" d="M189.39 225.15c-1.13 1.94-3 2.93-4.22 2.22s-1.26-2.86-.13-4.8 3-2.93 4.22-2.22 1.27 2.87.13 4.8zM225.54 247.25c-1.13 1.94-3 2.93-4.22 2.22s-1.26-2.86-.13-4.8 3-2.93 4.22-2.22 1.26 2.86.13 4.8z"/><path class="light-blue-grey" d="M259.14 70.6l18-49.13L299.65 25 279.7 72.7s-2.76 7.35-20.56-2.1z"/><path class="blue-stroke" d="M259.14 70.6l18-49.13L299.65 25 279.7 72.7s-2.76 7.35-20.56-2.1z"/><path class="blue-stroke" d="M269.79 52.55l-5.37 12.92s2.92 2.82 1.43 5.81c0 0 12.24 5.79 14.21-3.6l-1.64-10.38z"/><path class="light-blue-grey" d="M299.65 25L279.7 72.7c2.56-6.11-1.7-21.34-47.4-27.7L251.85.53s41.36 4.23 47.8 24.47z"/><path class="blue-stroke" d="M299.65 25L279.7 72.7c2.56-6.11-1.7-21.34-47.4-27.7L251.85.53s41.36 4.23 47.8 24.47z"/><path class="blue-stroke-white" d="M283.88 62.69c-7.8-13-33.59-19-40.41-20.19a7.26 7.26 0 0 0-2.06-5l12.44-28.8A8.91 8.91 0 0 0 260 6.51c27.91 4.18 36.06 17.65 37.94 22.6z"/><path class="blue" d="M277.64 38.22c2.57-7.48 8.79-12.15 13.87-10.44a8 8 0 0 1 4.81 5.13c0 .13-9.09 21.76-9.09 21.76a7.42 7.42 0 0 1-5 .2c-5.12-1.72-7.16-9.17-4.59-16.65z"/><path class="blue-stroke" d="M256.6 24.46c-1.28 3.18-.79 6.36 1.1 7.11s4.45-1.24 5.73-4.42.79-6.36-1.1-7.11-4.46 1.23-5.73 4.42z"/><path class="light-blue-grey" d="M153.69 149.82s3.11-43.26 39.31-58.53l40.4-3.74s-37.55 19.77-42.26 60.17z"/><path class="blue-stroke" d="M153.69 149.82s3.11-43.26 39.31-58.53l40.4-3.74s-37.55 19.77-42.26 60.17z"/><path class="blue-stroke-white" d="M219.76 91.48l1.65 1.1C206 103.13 198 115.59 194 124.26a58.87 58.87 0 0 0-5.12 16.31 5.9 5.9 0 0 0-4.52 4.53l-23.49 1a7.38 7.38 0 0 0-2.91-3.06c4.23-20.86 13.64-33.13 20.82-39.75 7.4-6.83 14-9.24 14.8-9.51l26.22-2.28"/><path class="blue-stroke" d="M178 135.09c0 2-2.12 3.59-4.67 3.57s-4.59-1.65-4.56-3.64 2.12-3.59 4.67-3.57 4.56 1.65 4.56 3.64zM205.95 95.68c.18 1.11-1.72 2.34-4.23 2.75s-4.7-.15-4.88-1.26 1.72-2.34 4.23-2.75 4.7.15 4.88 1.26z"/><ellipse class="blue" cx="184.29" cy="112.54" rx="10.1" ry="6.3" transform="rotate(-13.92 184.371 112.586)"/><path class="light-blue-grey" d="M70.14 49.17s14 42.95 56.91 51l-22.44 35.25s-42.34-8.15-63.2-56.79z"/><path class="blue-stroke" d="M70.14 49.17s14 42.95 56.91 51l-22.44 35.25s-42.34-8.15-63.2-56.79z"/><path class="blue-stroke-white" d="M49.75 76.46L66.4 59s2.74 2.17 5.23.26c0 0 12.43 30.48 46.57 41.54a4.78 4.78 0 0 0 1.35 6.59l-13.35 20.7s-4.89-2.84-7.89 2.29c0 0-35.07-11-50.19-45.6.01 0 4.59-4.22 1.63-8.32z"/><path class="blue" d="M88.43 104c-3.33 4.4-8.89 5.78-12.41 3.07s-3.68-8.47-.35-12.88 8.89-5.78 12.41-3.07 3.68 8.51.35 12.88z"/><path class="blue-stroke" d="M69.13 83.85c-1.43 1.89-3.53 2.69-4.7 1.79s-1-3.16.47-5 3.53-2.69 4.7-1.79.96 3.15-.47 5zM104.21 111.53c-1.43 1.89-3.53 2.69-4.7 1.79s-1-3.16.47-5 3.53-2.69 4.7-1.79.96 3.11-.47 5z"/><path class="light-blue-grey" d="M.62 169.68s37.62 13.1 66.14-12.75l12.77 34.57s-28.32 25.37-73.6 14.05z"/><path class="blue-stroke" d="M.62 169.68s37.62 13.1 66.14-12.75l12.77 34.57s-28.32 25.37-73.6 14.05z"/><path class="blue-stroke-white" d="M8.89 198.56l-3.35-21s3-.76 3-3.54c0 0 28 7.55 54-10.52a4.22 4.22 0 0 0 5.35 2.57l7.38 20.41a5 5 0 0 0-2.6 6.76S46.23 212 13.86 204.14c0 0-.52-5.47-4.97-5.58z"/><path class="blue" d="M48.89 186.13c1.31 4.69-.69 9.32-4.47 10.35s-7.91-1.94-9.22-6.63.69-9.32 4.47-10.35 7.91 1.94 9.22 6.63z"/><path class="blue-stroke" d="M24.42 188.89c.56 2 0 3.92-1.25 4.26s-2.73-1-3.29-3 0-3.92 1.25-4.26 2.72.99 3.29 3zM62.57 179c.56 2 0 3.92-1.25 4.26s-2.73-1-3.29-3 0-3.92 1.25-4.26 2.72 1 3.29 3z"/><path class="light-blue-grey" d="M134.22 273.55l-45.75-26.36 7.35-21.76 44 28s6.86 4.05-5.6 20.12z"/><path class="blue-stroke" d="M134.22 273.55l-45.75-26.36 7.35-21.76 44 28s6.86 4.05-5.6 20.12z"/><path class="blue-stroke" d="M118.11 259.86l11.89 7.56s3.3-2.42 6-.42c0 0 7.87-11.17-1.14-14.74l-10.6-.16z"/><path class="light-blue-grey" d="M95.82 225.43l44 28c-5.64-3.59-21.52-1.94-35.71 42.36L63.3 268.75s11.32-40.4 32.52-43.32z"/><path class="blue-stroke" d="M95.82 225.43l44 28c-5.64-3.59-21.52-1.94-35.71 42.36L63.3 268.75s11.32-40.4 32.52-43.32z"/><path class="blue-stroke-white" d="M130.62 247.59c-14.24 5.52-24.66 30.13-27 36.71a7.33 7.33 0 0 0-5.35 1.18l-26.5-17.32a9 9 0 0 0-1.1-6.46c9-27 23.75-32.81 29-33.84z"/><path class="blue" d="M105.21 249.58c-7-3.84-10.57-10.83-8-15.59a8.12 8.12 0 0 1 5.93-3.9c.13 0 20.07 12.78 20.07 12.78a7.49 7.49 0 0 1-.67 5c-2.54 4.81-10.34 5.56-17.33 1.71z"/><path class="blue-stroke" d="M87.9 268.14c2.94 1.82 6.19 1.88 7.25.13s-.46-4.64-3.41-6.46-6.19-1.88-7.25-.13.51 4.64 3.41 6.46z"/><path class="light-blue-grey" d="M156 348.5l43.21 27-7.83 20.73-41.48-28.56s-6.46-4.1 6.1-19.17z"/><path class="blue-stroke" d="M156 348.5l43.21 27-7.83 20.73-41.48-28.56s-6.46-4.1 6.1-19.17z"/><path class="blue-stroke" d="M171.07 362.25l-11.24-7.7s-3.27 2.22-5.82.2c0 0-8 10.5.59 14.25l10.22.51z"/><path class="light-blue-grey" d="M191.39 396.21l-41.49-28.54c5.31 3.65 20.68 2.6 35.87-39.62l38.45 27.5s-12.29 38.57-32.83 40.66z"/><path class="blue-stroke" d="M191.39 396.21l-41.49-28.54c5.31 3.65 20.68 2.6 35.87-39.62l38.45 27.5s-12.29 38.57-32.83 40.66z"/><path class="blue-stroke-white" d="M158.59 373.65c13.91-4.84 24.8-28.21 27.31-34.47a7.07 7.07 0 0 0 5.2-1l25 17.6a8.67 8.67 0 0 0 .84 6.27c-9.56 25.76-24 30.82-29.11 31.64z"/><path class="blue" d="M183.16 372.6c6.61 3.95 9.82 10.8 7.17 15.31a7.83 7.83 0 0 1-5.85 3.56c-.13 0-18.91-13-18.91-13a7.23 7.23 0 0 1 .82-4.84c2.61-4.52 10.15-4.97 16.77-1.03z"/><path class="blue-stroke" d="M200.47 355.3c-2.78-1.85-5.91-2-7-.37s.29 4.49 3.07 6.34 5.91 2 7 .37-.29-4.49-3.07-6.34z"/><path class="light-blue-grey" d="M130.11 358.06s-45.6 5.64-71.63-31.32l-22.69 36.63s25.9 36.35 79.73 34.69z"/><path class="blue-stroke" d="M130.11 358.06s-45.6 5.64-71.63-31.32l-22.69 36.63s25.9 36.35 79.73 34.69z"/><path class="blue-stroke-white" d="M113.86 389.26l8.8-23.35s-3.19-1.63-2.51-4.82c0 0-33.45 1.65-58.47-25.69 0 0-2.47 4-6.65 1.61l-13.22 21.66a6 6 0 0 1 1.32 8.44s25.34 28.26 63.78 27.33c.01 0 1.9-6.17 6.95-5.18z"/><path class="blue" d="M71.67 364.88c-2.6 5.07-1.45 10.92 2.57 13.05s9.4-.25 12-5.32 1.45-10.92-2.57-13.05-9.39.24-12 5.32z"/><path class="blue-stroke" d="M98.64 374.22c-1.12 2.17-.94 4.51.4 5.22s3.32-.48 4.44-2.65.94-4.51-.4-5.22-3.32.43-4.44 2.65zM57.92 353.28c-1.12 2.17-.94 4.51.4 5.22s3.32-.48 4.44-2.65.94-4.51-.4-5.22-3.36.48-4.44 2.65z"/><path class="light-blue-grey" d="M175.35 434.64s-17.78-41.89-58.91-44.77l-41.38 10s44 6.88 62.39 45.39z"/><path class="blue-stroke" d="M175.35 434.64s-17.78-41.89-58.91-44.77l-41.38 10s44 6.88 62.39 45.39z"/><path class="blue-stroke-white" d="M143.12 440.87a5.8 5.8 0 0 0-5-3.09 6.48 6.48 0 0 0-1 .09c-1.51-3.05-14.5-27.42-49.12-36.81l1.76-2.29 27-6.69h.07c1.27 0 31.17.43 52.62 37.31a7.27 7.27 0 0 0-2 4.3z"/><ellipse class="blue" cx="132.31" cy="408.02" rx="10.6" ry="6.61" transform="matrix(1 -.09 .09 1 -34.73 12.95)"/><path class="blue-stroke" d="M146.2 428.28c.71 2 3.32 2.84 5.84 2s4-3.2 3.29-5.16-3.32-2.84-5.84-2-4 3.19-3.29 5.16zM105.08 398.63c.2 1.16 2.5 1.74 5.14 1.29s4.62-1.74 4.42-2.9-2.5-1.74-5.14-1.29-4.62 1.74-4.42 2.9z"/><path class="light-blue-grey" d="M32.09 410.71S49 450.06 90.18 454L72 489.16s-40.67-4.07-64.53-48.22z"/><path class="blue-stroke" d="M32.09 410.71S49 450.06 90.18 454L72 489.16s-40.67-4.07-64.53-48.22z"/><path class="blue-stroke-white" d="M15.17 438.21l14.23-17.87s2.77 1.81 5-.2c0 0 14.34 27.72 47.52 35.24a4.53 4.53 0 0 0 1.84 6.11l-10.88 20.65a5.36 5.36 0 0 0-7.25 2.86s-34.06-7.36-51.29-38.76c0-.03 3.96-4.41.83-8.03z"/><path class="blue" d="M54 460.94c-2.77 4.44-7.9 6.21-11.46 4s-4.2-7.69-1.43-12.13 7.9-6.21 11.46-4 4.24 7.69 1.43 12.13z"/><path class="blue-stroke" d="M34.1 443.53c-1.19 1.9-3.11 2.84-4.29 2.09s-1.17-2.9 0-4.8 3.11-2.84 4.29-2.09 1.18 2.9 0 4.8zM69.59 466.67c-1.19 1.9-3.11 2.84-4.29 2.09s-1.17-2.9 0-4.8 3.11-2.84 4.29-2.09 1.18 2.89 0 4.8z"/></svg>