<svg xmlns="http://www.w3.org/2000/svg" width="413.63" height="307.27" viewBox="0 0 413.63 307.27">
  <title>icon-small-biz_2</title>
  <g id="Layer_2" data-name="Layer 2">
    <g id="Benefits_-_1200" data-name="Benefits - 1200">
      <g id="Target">
        <g>
          <path d="M285.5,229l1.25-1.58a6,6,0,0,0,1.83,0l1.48,1.75.11-2.21a6.07,6.07,0,0,0,1.22-.73l2.43.79-1.16-2.11a6,6,0,0,0,.59-1l2.39-.2-1.92-1.51a6,6,0,0,0,0-1.29l2-1.11-2.45-.63a6.08,6.08,0,0,0-.95-1.57l.71-2.19-1.94,1.07a6,6,0,0,0-1.18-.63l-.36-2.28-1.26,1.88a6,6,0,0,0-1.64.06l-1.39-2-.39,2.62a6.1,6.1,0,0,0-1,.65l-2.31-.75,1.12,2a6,6,0,0,0-.61,1.13l-2.33.19,1.9,1.5a6,6,0,0,0,0,1.22l-2,1.31,2.48.44a6.08,6.08,0,0,0,.72,1.24l-.7,2.14,1.8-1a6,6,0,0,0,1.39.83Z" style="fill: red"/>
          <path d="M290.26,226.81" style="fill: #75757f"/>
          <line x1="290.25" y1="226.8" x2="290.25" y2="226.8" style="fill: #75757f"/>
        </g>
        <g>
          <path d="M306.63,229.17l1.14-1.66a6,6,0,0,0,1.83-.1l1.59,1.65,0-2.21a6.07,6.07,0,0,0,1.17-.81l2.48.63-1.3-2a6,6,0,0,0,.52-1.08l2.37-.35-2-1.39a6,6,0,0,0-.06-1.29l2-1.24-2.49-.47a6.08,6.08,0,0,0-1-1.51l.57-2.23-1.87,1.19a6,6,0,0,0-1.22-.55l-.51-2.25-1.14,2a6,6,0,0,0-1.64.16l-1.52-1.93-.22,2.64a6.1,6.1,0,0,0-1,.72l-2.35-.6,1.25,2a6,6,0,0,0-.54,1.17l-2.31.34,2,1.37a6,6,0,0,0,.08,1.22l-1.94,1.44,2.5.28a6.08,6.08,0,0,0,.8,1.19l-.56,2.18,1.73-1.11a6,6,0,0,0,1.44.74Z" style="fill: red"/>
          <path d="M311.23,226.68" style="fill: #75757f"/>
          <line x1="311.22" y1="226.67" x2="311.22" y2="226.67" style="fill: #75757f"/>
        </g>
        <g>
          <g>
            <line x1="398.27" y1="228.63" x2="398.27" y2="213.59" style="fill: #fff;stroke: #1fc469;stroke-linecap: round;stroke-linejoin: round"/>
            <path d="M404.64,199.8a6.9,6.9,0,1,0-12.74,0,9.68,9.68,0,1,0,12.74,0Z" style="fill: #fff;stroke: #1fc469;stroke-linecap: round;stroke-linejoin: round"/>
            <polyline points="398.27 216.77 398.27 209.24 398.27 205.91 400.42 201.71" style="fill: #fff;stroke: #1fc469;stroke-linecap: round;stroke-linejoin: round"/>
            <line x1="394.58" y1="206.34" x2="398.27" y2="209.55" style="fill: #fff;stroke: #1fc469;stroke-linecap: round;stroke-linejoin: round"/>
            <line x1="399.5" y1="203.51" x2="398.63" y2="202.05" style="fill: #fff;stroke: #1fc469;stroke-linecap: round;stroke-linejoin: round"/>
          </g>
          <g>
            <line x1="388.27" y1="228.63" x2="388.27" y2="213.59" style="fill: #fff;stroke: #1fc469;stroke-linecap: round;stroke-linejoin: round"/>
            <path d="M394.64,199.8a6.9,6.9,0,1,0-12.74,0,9.68,9.68,0,1,0,12.74,0Z" style="fill: #fff;stroke: #1fc469;stroke-linecap: round;stroke-linejoin: round"/>
            <polyline points="388.27 216.77 388.27 209.24 388.27 205.91 390.42 201.71" style="fill: #fff;stroke: #1fc469;stroke-linecap: round;stroke-linejoin: round"/>
            <line x1="384.58" y1="206.34" x2="388.27" y2="209.55" style="fill: #fff;stroke: #1fc469;stroke-linecap: round;stroke-linejoin: round"/>
            <line x1="389.5" y1="203.51" x2="388.63" y2="202.05" style="fill: #fff;stroke: #1fc469;stroke-linecap: round;stroke-linejoin: round"/>
          </g>
          <g>
            <line x1="373.68" y1="228.63" x2="373.68" y2="217.34" style="fill: #fff;stroke: #1fc469;stroke-linecap: round;stroke-linejoin: round"/>
            <path d="M378.46,207a5.18,5.18,0,1,0-9.56,0,7.27,7.27,0,1,0,9.56,0Z" style="fill: #fff;stroke: #1fc469;stroke-linecap: round;stroke-linejoin: round"/>
            <polyline points="373.68 219.72 373.68 214.07 373.68 211.57 375.3 208.42" style="fill: #fff;stroke: #1fc469;stroke-linecap: round;stroke-linejoin: round"/>
            <line x1="370.91" y1="211.89" x2="373.68" y2="214.3" style="fill: #fff;stroke: #1fc469;stroke-linecap: round;stroke-linejoin: round"/>
            <line x1="374.6" y1="209.76" x2="373.95" y2="208.67" style="fill: #fff;stroke: #1fc469;stroke-linecap: round;stroke-linejoin: round"/>
          </g>
          <g>
            <line x1="405.86" y1="228.63" x2="405.86" y2="217.34" style="fill: #fff;stroke: #1fc469;stroke-linecap: round;stroke-linejoin: round"/>
            <path d="M410.64,207a5.18,5.18,0,1,0-9.56,0,7.27,7.27,0,1,0,9.56,0Z" style="fill: #fff;stroke: #1fc469;stroke-linecap: round;stroke-linejoin: round"/>
            <polyline points="405.86 219.72 405.86 214.07 405.86 211.57 407.47 208.42" style="fill: #fff;stroke: #1fc469;stroke-linecap: round;stroke-linejoin: round"/>
            <line x1="403.09" y1="211.89" x2="405.86" y2="214.3" style="fill: #fff;stroke: #1fc469;stroke-linecap: round;stroke-linejoin: round"/>
            <line x1="406.78" y1="209.76" x2="406.13" y2="208.67" style="fill: #fff;stroke: #1fc469;stroke-linecap: round;stroke-linejoin: round"/>
          </g>
        </g>
        <g>
          <line x1="339.24" y1="128.93" x2="359.14" y2="128.93" style="fill: none;stroke: #03a9f4;stroke-linecap: round;stroke-linejoin: round"/>
          <line x1="342.46" y1="119.93" x2="353.36" y2="119.93" style="fill: none;stroke: #03a9f4;stroke-linecap: round;stroke-linejoin: round"/>
          <line x1="364.4" y1="128.93" x2="376.3" y2="128.93" style="fill: none;stroke: #03a9f4;stroke-linecap: round;stroke-linejoin: round;stroke-dasharray: 2,3"/>
        </g>
        <g>
          <line x1="308.54" y1="228.63" x2="308.54" y2="211.24" style="fill: none;stroke: #1fc469;stroke-linecap: round;stroke-linejoin: round"/>
          <path d="M315.9,195.3a8,8,0,1,0-14.73,0,11.2,11.2,0,1,0,14.73,0Z" style="fill: #fff;stroke: #1fc469;stroke-linecap: round;stroke-linejoin: round"/>
          <polyline points="308.54 214.92 308.54 206.21 308.54 202.35 311.03 197.5" style="fill: none;stroke: #1fc469;stroke-linecap: round;stroke-linejoin: round"/>
          <line x1="304.28" y1="202.85" x2="308.54" y2="206.56" style="fill: none;stroke: #1fc469;stroke-linecap: round;stroke-linejoin: round"/>
          <line x1="309.96" y1="199.58" x2="308.95" y2="197.89" style="fill: none;stroke: #1fc469;stroke-linecap: round;stroke-linejoin: round"/>
        </g>
        <path d="M321.77,45.22h56.74c0-.09,0-.18,0-.28a5.2,5.2,0,0,0-6.32-5.1,11.06,11.06,0,0,0-16.66-8.58,15,15,0,0,0-28.14,8.66A7.76,7.76,0,0,0,321.77,45.22Z" style="fill: none;stroke: #03a9f4;stroke-miterlimit: 10"/>
        <path d="M347.64,51.93a5.23,5.23,0,0,1,4.15-4.87,15.36,15.36,0,0,1,28.33-2,9.62,9.62,0,0,1,15,2.48,5.18,5.18,0,0,1,7.66,4.35Z" style="fill: #fff;stroke: #03a9f4;stroke-miterlimit: 10"/>
        <path d="M122.76,22A4.14,4.14,0,0,1,126,18.1a12.17,12.17,0,0,1,22.45-1.55,7.62,7.62,0,0,1,11.86,2A4.1,4.1,0,0,1,166.41,22Z" style="fill: #fff;stroke: #03a9f4;stroke-miterlimit: 10"/>
        <g>
          <line x1="139.58" y1="30.93" x2="167.48" y2="30.93" style="fill: none;stroke: #03a9f4;stroke-linecap: round;stroke-linejoin: round"/>
          <line x1="160.8" y1="40.93" x2="168.7" y2="40.93" style="fill: none;stroke: #03a9f4;stroke-linecap: round;stroke-linejoin: round"/>
          <line x1="172.74" y1="30.93" x2="184.64" y2="30.93" style="fill: none;stroke: #03a9f4;stroke-linecap: round;stroke-linejoin: round;stroke-dasharray: 2,3"/>
        </g>
        <g id="Planter">
          <path d="M287.94,213.36a3,3,0,0,0-3-3h-.13a3.31,3.31,0,0,0-3.06-2.49,4.21,4.21,0,0,0-6.45-1.74,2.07,2.07,0,0,0-2.21,1,3.42,3.42,0,0,0-1.68-.45,3.49,3.49,0,0,0-3.11,1.92,2.57,2.57,0,0,0-1.51,1,3.1,3.1,0,0,0-.59,5.84,2.77,2.77,0,0,0,3.22,2.49,4.23,4.23,0,0,0,6.44.4,4.24,4.24,0,0,0,3.92,1.21,4.9,4.9,0,0,0,4.62-1.58h.11a2.56,2.56,0,0,0,2.56-2.48A3,3,0,0,0,287.94,213.36Z" style="fill: #fff;stroke: #1fc469;stroke-miterlimit: 10"/>
          <line x1="276.95" y1="213.44" x2="276.95" y2="224.28" style="fill: #fff;stroke: #1fc469;stroke-linecap: round;stroke-linejoin: round"/>
          <line x1="276.95" y1="214.51" x2="279.45" y2="212.57" style="fill: #fff;stroke: #1fc469;stroke-linecap: round;stroke-linejoin: round"/>
          <polygon points="279.99 218.89 276.95 218.89 274.33 218.89 267.58 218.89 272.12 228.51 274.33 228.51 276.95 228.51 276.95 228.51 279.99 228.51 281.79 228.51 286.33 218.89 279.99 218.89" style="fill: #fff;stroke: #d1d5db;stroke-linecap: round;stroke-linejoin: round"/>
        </g>
        <g id="Planter-2" data-name="Planter">
          <path d="M185.35,213.36a3,3,0,0,1,3-3h.13a3.31,3.31,0,0,1,3.06-2.49,4.21,4.21,0,0,1,6.45-1.74,2.07,2.07,0,0,1,2.21,1,3.42,3.42,0,0,1,1.68-.45,3.49,3.49,0,0,1,3.11,1.92,2.57,2.57,0,0,1,1.51,1,3.1,3.1,0,0,1,.59,5.84,2.77,2.77,0,0,1-3.22,2.49,4.23,4.23,0,0,1-6.44.4,4.24,4.24,0,0,1-3.92,1.21,4.9,4.9,0,0,1-4.62-1.58h-.11a2.56,2.56,0,0,1-2.56-2.48A3,3,0,0,1,185.35,213.36Z" style="fill: #fff;stroke: #1fc469;stroke-miterlimit: 10"/>
          <line x1="196.34" y1="213.44" x2="196.34" y2="224.28" style="fill: #fff;stroke: #1fc469;stroke-linecap: round;stroke-linejoin: round"/>
          <line x1="196.34" y1="214.51" x2="193.84" y2="212.57" style="fill: #fff;stroke: #1fc469;stroke-linecap: round;stroke-linejoin: round"/>
          <polygon points="193.3 218.89 196.34 218.89 198.96 218.89 205.71 218.89 201.18 228.51 198.96 228.51 196.34 228.51 196.34 228.51 193.3 228.51 191.5 228.51 186.96 218.89 193.3 218.89" style="fill: #fff;stroke: #d1d5db;stroke-linecap: round;stroke-linejoin: round"/>
        </g>
        <g id="store">
          <path d="M206,156.49H268a.5.5,0,0,1,.47.34l9.67,29.24a.5.5,0,0,1-.47.66l-80.22,0a.5.5,0,0,1-.48-.64l8.62-29.26A.5.5,0,0,1,206,156.49Z" style="fill: #fff;stroke: #969c9c;stroke-miterlimit: 10"/>
          <rect x="202.46" y="186.82" width="70.14" height="40.14" rx="0.5" ry="0.5" style="fill: #fff;stroke: #969c9c;stroke-miterlimit: 10"/>
          <g>
            <path d="M217,193.22a6.46,6.46,0,0,0,6.46-6.46H210.58A6.46,6.46,0,0,0,217,193.22Z" style="fill: #fff;stroke: #969c9c;stroke-miterlimit: 10"/>
            <path d="M203.39,193.22a6.46,6.46,0,0,0,6.46-6.46H196.92A6.46,6.46,0,0,0,203.39,193.22Z" style="fill: #fff;stroke: #969c9c;stroke-miterlimit: 10"/>
            <path d="M230.7,193.22a6.46,6.46,0,0,0,6.46-6.46H224.24A6.46,6.46,0,0,0,230.7,193.22Z" style="fill: #fff;stroke: #969c9c;stroke-miterlimit: 10"/>
            <path d="M244.36,193.22a6.46,6.46,0,0,0,6.46-6.46H237.9A6.46,6.46,0,0,0,244.36,193.22Z" style="fill: #fff;stroke: #969c9c;stroke-miterlimit: 10"/>
            <path d="M271.68,193.22a6.46,6.46,0,0,0,6.46-6.46H265.22A6.46,6.46,0,0,0,271.68,193.22Z" style="fill: #fff;stroke: #969c9c;stroke-miterlimit: 10"/>
            <path d="M258,193.22a6.46,6.46,0,0,0,6.46-6.46H251.56A6.46,6.46,0,0,0,258,193.22Z" style="fill: #fff;stroke: #969c9c;stroke-miterlimit: 10"/>
          </g>
          <line x1="264.49" y1="186.75" x2="258.02" y2="156.49" style="fill: none;stroke: #969c9c;stroke-miterlimit: 10"/>
          <line x1="250.83" y1="186.75" x2="247.58" y2="156.49" style="fill: none;stroke: #969c9c;stroke-miterlimit: 10"/>
          <line x1="210.13" y1="186.75" x2="216.59" y2="156.49" style="fill: none;stroke: #969c9c;stroke-miterlimit: 10"/>
          <line x1="223.87" y1="186.75" x2="227.12" y2="156.49" style="fill: none;stroke: #969c9c;stroke-miterlimit: 10"/>
          <line x1="237.9" y1="186.75" x2="237.17" y2="156.49" style="fill: none;stroke: #969c9c;stroke-miterlimit: 10"/>
          <rect x="247.4" y="195.55" width="14.34" height="31" style="fill: #fff;stroke: #969c9c;stroke-miterlimit: 10"/>
          <rect x="199.33" y="224.64" width="75" height="4" rx="0.5" ry="0.5" style="fill: #fff;stroke: #969c9c;stroke-miterlimit: 10"/>
          <circle cx="257.52" cy="209.39" r="1.5" style="fill: none;stroke: #969c9c;stroke-linecap: round;stroke-linejoin: round"/>
          <path d="M210.74,223.88V196.05a.5.5,0,0,1,.5-.5H239.4v25.53" style="fill: none;stroke: #969c9c;stroke-linecap: round;stroke-linejoin: round"/>
          <polyline points="210.74 215.89 239.4 215.89 239.4 224.88" style="fill: none;stroke: #969c9c;stroke-linecap: round;stroke-linejoin: round"/>
          <polyline points="215.08 215.69 215.08 203.09 239.4 203.09" style="fill: none;stroke: #969c9c;stroke-linecap: round;stroke-linejoin: round"/>
          <path d="M215.08,210.89" style="fill: none;stroke: #969c9c;stroke-linecap: round;stroke-linejoin: round"/>
          <line x1="215.08" y1="210.89" x2="239.4" y2="210.89" style="fill: none;stroke: #969c9c;stroke-linecap: round;stroke-linejoin: round"/>
          <rect x="218.33" y="206.89" width="6.75" height="4" style="fill: none;stroke: #969c9c;stroke-linecap: round;stroke-linejoin: round"/>
          <rect x="228.4" y="208.89" width="7.31" height="2" style="fill: none;stroke: #969c9c;stroke-linecap: round;stroke-linejoin: round"/>
          <rect x="220.33" y="213.63" width="3.18" height="2.25" style="fill: none;stroke: #969c9c;stroke-linecap: round;stroke-linejoin: round"/>
        </g>
        <g>
          <g>
            <path d="M145.21,99a.88.88,0,0,1,1.54-.28s.76.83,0,1.26a1.29,1.29,0,0,1-.91.22S146.38,99.4,145.21,99Z" style="fill: none;stroke: #373e5a;stroke-linecap: round;stroke-linejoin: round"/>
            <path d="M144.07,99.74a.58.58,0,0,1,1-.24s.52.51,0,.83a.87.87,0,0,1-.59.18S144.85,100,144.07,99.74Z" style="fill: none;stroke: #373e5a;stroke-linecap: round;stroke-linejoin: round"/>
            <path d="M144,100.17s.42.41,0,.67a.77.77,0,0,1-.38.14l-.48.12-.08,0,.47-.41-.3,0,.1-.21-.57.07.51-.38C143.42,100,143.65,99.88,144,100.17Z" style="fill: #373e5a"/>
          </g>
          <path d="M152.33,98.1s.31-.11.27-.32l-.07-.44s0-.53-.72-.2a2.38,2.38,0,0,0-.49,0,1.38,1.38,0,0,0-.29.06,9.34,9.34,0,0,0-1.52.3,3.47,3.47,0,0,1-.79.17,5.1,5.1,0,0,1-1.14,0l-.4,0a.22.22,0,0,0-.05.29l.69.68s.2.16.19.27v.69a.34.34,0,0,0,.4.25,2,2,0,0,1,.91-.7S151.47,98.33,152.33,98.1Z" style="fill: #373e5a"/>
          <g>
            <path d="M187.54,94.09l.73-.55,2.41.23h0l-2.76-1.71,0,0h0s-.07,0-.08,0h0a.05.05,0,0,0,0,0v0l-1.21,1.2a.3.3,0,0,0,0,.31l.48.23C187.23,94.23,187.3,94.26,187.54,94.09Z" style="fill: #373e5a"/>
            <path d="M194.61,101.69l.66-1.9A6,6,0,0,0,197,99.2l2,1.16-.62-2.12a6.07,6.07,0,0,0,.91-1.09l2.56-.05L200,95.49a6,6,0,0,0,.21-1.18l2.19-1-2.31-.8a6,6,0,0,0-.41-1.22l1.55-1.72-2.52.22a6.08,6.08,0,0,0-1.41-1.17l0-2.3L195.78,88a6,6,0,0,0-1.32-.2l-1.09-2-.57,2.19a6,6,0,0,0-1.53.6l-2-1.45.5,2.61a6.1,6.1,0,0,0-.73.95l-2.43.05,1.73,1.55a6,6,0,0,0-.2,1.27l-2.13,1,2.29.79a6,6,0,0,0,.4,1.15l-1.48,1.91,2.49-.4a6.08,6.08,0,0,0,1.09.93l0,2.25,1.37-1.53a6,6,0,0,0,1.58.32Z" style="fill: red"/>
            <path d="M190,97.41" style="fill: #75757f"/>
            <line x1="190.04" y1="97.4" x2="190.04" y2="97.4" style="fill: #75757f"/>
            <g>
              <path d="M189.49,97.1l-.12,0-1.7-.94a1,1,0,0,1-.35-.4.12.12,0,0,1,0-.15l.26-.2c-.06-.16-.08-.25,0-.32a.22.22,0,0,1,.14-.07,1,1,0,0,1,.41.18l1.31.76,1.66-.11a.13.13,0,0,1,.13.12.13.13,0,0,1-.07.12l-1.55,1Z" style="fill: #373e5a"/>
              <path d="M187.72,95.12a1.05,1.05,0,0,1,.35.16l1.31.76L191.1,96l-1.56,1a.07.07,0,0,1-.06,0l-.07,0L187.72,96a.89.89,0,0,1-.3-.35l.34-.26c-.09-.21-.12-.31,0-.31m3.39.84h0m-3.39-1.09a.33.33,0,0,0-.25.13.38.38,0,0,0,0,.35l-.19.14a.25.25,0,0,0-.08.3,1.14,1.14,0,0,0,.38.45l1.72.95a.46.46,0,0,0,.19,0,.32.32,0,0,0,.22-.08l1.52-1a.25.25,0,0,0,.14-.23.25.25,0,0,0-.25-.24h0l-1.62.08-1.25-.73a1,1,0,0,0-.48-.2Z" style="fill: #fff"/>
            </g>
          </g>
          <path d="M182,88.89s1.49-.9,2.9,1.21l1.94,3.11s2.89,3.33-1,4.18a13.18,13.18,0,0,1-2.9,0l-1.29-8.33Z" style="fill: none;stroke: #373e5a;stroke-miterlimit: 10"/>
          <path d="M151.71,93.75s-2,3.6,1.59,8.61c1.06,1.49,4.27,3,6.15,3.33,3.61.58,8.77,1.89,17.85-1.9,0,0,7.61-3.4,5.16-11s-2.58-6.83-2.58-6.83S160.57,77.36,151.71,93.75Z" style="fill: #373e5a"/>
          <g>
            <path d="M179.82,93.46a28.34,28.34,0,0,1-7.38,7.56c-8.72,6.06-18.45,5.37-21.92,5a.37.37,0,0,1-.33-.07c-.06-.07-.09-.2,0-.43a1.18,1.18,0,0,1,.4-.54l4.05-3.28a4.63,4.63,0,0,0,1.35-1.41,6.87,6.87,0,0,1,2.67-2.48l1.31-.68a9,9,0,0,0,1.39-.89L166,93.78Z" style="fill: #fff;stroke: #373e5a;stroke-linecap: round;stroke-linejoin: round"/>
            <line x1="174.62" y1="96.37" x2="156.33" y2="102.2" style="fill: #fff;stroke: #75757f;stroke-linecap: round;stroke-linejoin: round"/>
            <polyline points="160.09 98.02 160.41 99.86 164.18 99.49" style="fill: #fff;stroke: #75757f;stroke-linecap: round;stroke-linejoin: round"/>
            <polyline points="164.03 96.45 167.35 96.87 168.18 98.42" style="fill: #fff;stroke: #75757f;stroke-linecap: round;stroke-linejoin: round"/>
          </g>
          <g>
            <path d="M181.64,90.2a25,25,0,0,0-4.86-7.12,26.85,26.85,0,0,0-16.37-7.62s-.17-.08-.27,0-.09.14-.07.33a1,1,0,0,0,.25.48l2.76,3.24a4.08,4.08,0,0,1,.88,1.32,6,6,0,0,0,1.79,2.38l.94.75a7.9,7.9,0,0,1,1,.93L171,87.55Z" style="fill: #fff;stroke: #373e5a;stroke-linecap: round;stroke-linejoin: round"/>
            <line x1="177.95" y1="87.04" x2="164.48" y2="79.37" style="fill: #fff;stroke: #3f4563;stroke-linecap: round;stroke-linejoin: round"/>
            <polyline points="166.91 83.26 167.36 81.89 170.23 82.83" style="fill: #fff;stroke: #373e5a;stroke-linecap: round;stroke-linejoin: round"/>
            <polyline points="169.78 85.15 172.39 85.4 173.2 84.34" style="fill: #fff;stroke: #373e5a;stroke-linecap: round;stroke-linejoin: round"/>
          </g>
          <path d="M187.89,95.48a1,1,0,0,1-.28.42,1.66,1.66,0,0,1-2.14-2.42,2.25,2.25,0,0,0,.6-1.53S188.23,94.44,187.89,95.48Z" style="fill: #fff;stroke: #373e5a;stroke-linecap: round;stroke-linejoin: round"/>
          <path d="M181,89.81a2.83,2.83,0,0,0-.18-2.41c-.71-1.2-12.47-16.29-27.93-6.59,0,0,1.85-1,7.45-.57S175.16,83.15,181,89.81Z" style="fill: #fff;stroke: #373e5a;stroke-linecap: round;stroke-linejoin: round"/>
          <path d="M182.26,94.46h0a7.51,7.51,0,0,1-1.58,3.94c-2.12,2.73-7.38,7.17-18.45,5.43,0,0-13-.87-10.69-11.14,0,0,4.15-5.24,18.25-4.54,0,0,11.5,1.27,12.1,4.52l.34,1.37A1.26,1.26,0,0,1,182.26,94.46Z" style="fill: #fff;stroke: #373e5a;stroke-linecap: round;stroke-linejoin: round"/>
          <path d="M183.63,94.79s3.09.57,1.92-3.65" style="fill: #fff;stroke: #373e5a;stroke-linecap: round;stroke-linejoin: round"/>
          <path d="M175.19,103.6a.46.46,0,0,1,.54.56,32,32,0,0,0-.83,4.8,3.56,3.56,0,0,1-2.2,3.41.46.46,0,0,1-.56-.17h0a1.51,1.51,0,0,0-1.06-.65l-.31,0s0-.76,1.22-2.21a11.84,11.84,0,0,0,2.27-5.18.47.47,0,0,1,.38-.43Z" style="fill: #373e5a"/>
          <path d="M170.9,111.84s1.16-.25.35.86a14.18,14.18,0,0,1-2.83,3.44.57.57,0,0,1-.26.13c-.41.09-1.55.26-2.07-.37a.3.3,0,0,1-.07-.19c0-.31.24-1.18,2.63-2.36a7.32,7.32,0,0,0,1.41-.91Z" style="fill: #373e5a"/>
          <g>
            <path d="M165.67,118.49s1.67-.45.69-1.74c0,0-.84-1-1.54-.21a1.56,1.56,0,0,0-.48,1S165.39,117.08,165.67,118.49Z" style="fill: none;stroke: #373e5a;stroke-linecap: round;stroke-linejoin: round"/>
            <path d="M164.09,119.51s1.14.06.82-.93c0,0-.3-.79-.91-.45a1.06,1.06,0,0,0-.53.53S164.24,118.58,164.09,119.51Z" style="fill: none;stroke: #373e5a;stroke-linecap: round;stroke-linejoin: round"/>
            <path d="M163.55,119.48s-.24-.64-.74-.36a1,1,0,0,0-.37.33l-.4.44L162,120l.72-.29-.13.33h.3l-.38.56.71-.35C163.43,120.14,163.71,120,163.55,119.48Z" style="fill: #373e5a"/>
          </g>
          <path d="M161.53,111.89l1-1.48a2,2,0,0,1,.86-.63l1.81-.68a5.45,5.45,0,0,0,2.06-1.32c1.2-1.27,1-2.28.85-2.66a.26.26,0,0,0-.25-.18c-1.57.09-5.35,3.92-5.52,4.1l0,0L160.8,111c1.89-2.36-.23.3-.37.6s.72.39.72.39A.3.3,0,0,0,161.53,111.89Z" style="fill: #373e5a"/>
          <g>
            <path d="M153.8,115.6s1-1.22,1.71.1c0,0,.5,1.08-.42,1.37a1.43,1.43,0,0,1-1,0S154.87,116.37,153.8,115.6Z" style="fill: none;stroke: #373e5a;stroke-linecap: round;stroke-linejoin: round"/>
            <path d="M152.34,116.16s.64-.83,1.14,0c0,0,.36.68-.24.9a1,1,0,0,1-.68,0S153.07,116.62,152.34,116.16Z" style="fill: none;stroke: #373e5a;stroke-linecap: round;stroke-linejoin: round"/>
            <path d="M152.09,116.6s.3.55-.19.73a.88.88,0,0,1-.45.06h-.64l.63-.32-.31-.11.18-.2-.62-.07.67-.28C151.57,116.28,151.85,116.19,152.09,116.6Z" style="fill: #373e5a"/>
          </g>
          <path d="M160.71,112.85s.31-.22.22-.43-.18-.42-.33-.49-.73.1-1,.21-.77.39-1.16.57a5.56,5.56,0,0,0-.91.53,4.27,4.27,0,0,1-.8.45,6,6,0,0,1-1.22.38l-.44.09s-.14.19,0,.32l.91.48s.25.1.27.22l.18.72a.35.35,0,0,0,.49.13,2.46,2.46,0,0,1,.8-1S159.85,113.38,160.71,112.85Z" style="fill: #373e5a"/>
          <path d="M186.71,102.05l6.95-.14s.21,0,.11.22l-.19.43a1,1,0,0,0-.07.42l.13,1.49s.07.24-.16.11l-1.65-.85-.33.45-3.7-1.34a.74.74,0,0,0-.54,0l-1,.4s-.23.07-.23-.16l.23-.9s0-.18.35-.15Z" style="fill: #373e5a"/>
          <path d="M181.77,99.42c-.17.16-.88,1.61-.75,1.71a11.49,11.49,0,0,1,1.82,1.73,2.35,2.35,0,0,0,2.76.46.5.5,0,0,0,.21-.39h0a1.67,1.67,0,0,1,.3-.89l.13-.19s-.23-.34-1.23-.32-2.16-1.83-2.65-2.38a.2.2,0,0,0-.31,0Z" style="fill: #373e5a"/>
          <g>
            <path d="M195.89,103.29s-.78,1.39-1.7.22c0,0-.69-1,.16-1.42a1.43,1.43,0,0,1,1-.2S194.71,102.72,195.89,103.29Z" style="fill: none;stroke: #373e5a;stroke-linecap: round;stroke-linejoin: round"/>
            <path d="M197.23,102.47s-.48.93-1.12.21c0,0-.48-.6.07-.93a1,1,0,0,1,.66-.17S196.43,102.15,197.23,102.47Z" style="fill: none;stroke: #373e5a;stroke-linecap: round;stroke-linejoin: round"/>
            <path d="M197.39,102s-.39-.49.06-.76a.88.88,0,0,1,.43-.14l.53-.11.09,0-.56.43.32.05-.14.23.62,0-.61.4A.45.45,0,0,1,197.39,102Z" style="fill: #373e5a"/>
          </g>
        </g>
        <g>
          <path d="M.5,306.77s.71,0,2-.12" style="fill: none;stroke: #dfe1e1;stroke-linecap: round;stroke-linejoin: round"/>
          <path d="M13.38,305.63a214.4,214.4,0,0,0,23.45-4.08" style="fill: none;stroke: #dfe1e1;stroke-linecap: round;stroke-linejoin: round;stroke-dasharray: 5.9643402099609375,3.976226568222046,10.934623718261719,5.9643402099609375"/>
          <path d="M39.72,300.83c26.56-6.76,54.8-21,42.75-50.76C61.32,197.82,4.2,168.14,61.85,165.53S66.08,146,90.94,116.41c19.21-22.91,44.92-23.94,55.61-23.22" style="fill: none;stroke: #dfe1e1;stroke-linecap: round;stroke-linejoin: round;stroke-dasharray: 3.976226568222046,10.934623718261719,5.9643402099609375,3.976226568222046,10.934623718261719,5.9643402099609375"/>
          <path d="M149.56,93.46c1.27.15,2,.29,2,.29" style="fill: none;stroke: #dfe1e1;stroke-linecap: round;stroke-linejoin: round"/>
        </g>
        <g id="Phishing_Dude" data-name="Phishing Dude">
          <g>
            <g>
              <path d="M339,64a19.88,19.88,0,0,0-.15-3,7.57,7.57,0,0,1-2.67.42,6,6,0,0,1-2.24-.54A8.75,8.75,0,0,1,331.38,63a20.23,20.23,0,0,0-3.71,1.45c-1.1.73-2.4,2.08-2.15,2.91s2.74,1.67,5,.72c1.43-.61,2.79-1.93,4.16-2.17C334.64,65.94,338.84,65.27,339,64Z" style="fill: #fff;stroke: #3f4563;stroke-miterlimit: 10"/>
              <path d="M339,64.12c-.45,1.2-4.33,1.82-4.33,1.82-1.37.25-2.72,1.56-4.16,2.17-2.23,1-4.72.1-5-.72a.77.77,0,0,1,0-.14,1,1,0,0,0,0,.55c.25.82,2.74,1.67,5,.72,1.43-.61,2.79-1.93,4.16-2.17,0,0,.62-.1,1.4-.29v.47a8.39,8.39,0,0,0,2.66-1l.3-1h0a.67.67,0,0,0,0-.11S339,64.29,339,64.12Z" style="fill: #fff;stroke: #3f4563;stroke-linecap: round;stroke-linejoin: round"/>
            </g>
            <g>
              <path d="M341.24,66.26s-.75,2.78-1.88,3.69-3.65,4.62-2,5.49,5.75-.45,6.24-2A17,17,0,0,1,345,69.91a4.26,4.26,0,0,0,.62-4.49s-1.07,1.81-2.6,1.51S341.24,66.26,341.24,66.26Z" style="fill: #fff;stroke: #3f4563;stroke-miterlimit: 10"/>
              <g>
                <path d="M346,67.06a4.84,4.84,0,0,1-1,2.85,17,17,0,0,0-1.32,3.57c-.49,1.5-4.55,2.82-6.24,2a1,1,0,0,1-.55-.83,1.15,1.15,0,0,0,.55,1.27c1.69.86,5.75-.45,6.24-2A17,17,0,0,1,345,70.35,3.79,3.79,0,0,0,346,67.06Z" style="fill: #fff"/>
                <path d="M346,67.06a4.84,4.84,0,0,1-1,2.85,17,17,0,0,0-1.32,3.57c-.49,1.5-4.55,2.82-6.24,2a1,1,0,0,1-.55-.83,1.15,1.15,0,0,0,.55,1.27c1.69.86,5.75-.45,6.24-2A17,17,0,0,1,345,70.35,3.79,3.79,0,0,0,346,67.06Z" style="fill: #3f4563;fill-rule: evenodd"/>
                <path d="M346,67.06a4.84,4.84,0,0,1-1,2.85,17,17,0,0,0-1.32,3.57c-.49,1.5-4.55,2.82-6.24,2a1,1,0,0,1-.55-.83,1.15,1.15,0,0,0,.55,1.27c1.69.86,5.75-.45,6.24-2A17,17,0,0,1,345,70.35,3.79,3.79,0,0,0,346,67.06Z" style="fill: none;stroke: #3f4563;stroke-linecap: round;stroke-linejoin: round"/>
              </g>
            </g>
            <path d="M331.43,62.9a89.73,89.73,0,0,0,2-11.51c.21-3.9-1.54-7.73,2.08-11a42.71,42.71,0,0,1,13.37-7.65l.51-1.36a13.19,13.19,0,0,0,4.26,3l.51,5.42s-4.74,4.14-13.85,6.32c0,0,.28,2.93.28,5.81s-1.62,12-1.62,12S335.89,66.26,331.43,62.9Z" style="fill: #3f4563"/>
            <path d="M340.21,67.07s.47,2.53,2.68,3a4,4,0,0,0,3.66-1.31s2.38-7.8,2.89-9.91,0-6.58,0-6.58,4.46-3.09,8.21-5.27,4.77-2.88,5.69-6.44a6.7,6.7,0,0,0-.81-5.7,14.76,14.76,0,0,1-8.84-.45A12,12,0,0,1,352,37.94c-1.26,1.87-8.4,9.08-8.94,11.73-.27,1.34-.44,5.94-1.1,10A54.18,54.18,0,0,1,340.21,67.07Z" style="fill: #3f4563"/>
          </g>
          <g>
            <path d="M358,10.16c0,.42,1.42,1.75,1.25,3s-3.77,6.32-5.82,5.39-1.79-5.18-1.63-5.28S358,10.16,358,10.16Z" style="fill: #fff;stroke: #969c9c;stroke-miterlimit: 10;fill-rule: evenodd"/>
            <path d="M354.16,38.56c2.21.15,7.55,0,9.27,1.66,0,0,1.93.3.88-4.77-.41-2,.15-8.54.6-10.27a38.77,38.77,0,0,0,.45-6.08,4.5,4.5,0,0,0-.86-2.77,16.53,16.53,0,0,0-6.19-5.2l0-.44-.19.44a3.35,3.35,0,0,1,.14,2.34c-.36,1.48-2.48,4.94-4.64,4.12-1.23-.47-2-1.79-1.32-5.11l0-1.65a4.39,4.39,0,0,0-3.52.64c-1.74,1.19-.57,6.16-.26,7.67s.9,6.8,1,8.09a17.15,17.15,0,0,1-.85,4.53c-.08.14-.52,1-1.06,1.1s.6,1.32.6,1.32a5.53,5.53,0,0,0,1.76,2.42A8.61,8.61,0,0,0,354.16,38.56Z" style="fill: #3f4563"/>
            <path d="M336.2,31s0-.09-.06-.16a1.86,1.86,0,0,0-1.88,0c-.91.37-2.21,1.3-2.72.92s.24-.77.55-1a13.88,13.88,0,0,1,1.4-.59.7.7,0,0,0-.91-.1c-.49.35-1.76,1.14-2,.78s.08-1,.31-1.43a5.53,5.53,0,0,1,1.73-1.83,6.16,6.16,0,0,1,2.64-.07,15.56,15.56,0,0,0,2.22,0c.64-.44,2.72-1.91,3.7-2.71a22.53,22.53,0,0,0,2.38-2.2c.44-.48,3.87-9.95,6.81-11.6h0c-1.59,1.22-1.33,6.27-1.63,7.58-.35,1.5.61,3.35.18,4.57-.25.7-2.35,2.76-3,3.6-1.85,1-6.22,3.22-7.08,3.55" style="fill: #fff;stroke: #3f4563;stroke-miterlimit: 10"/>
            <g>
              <path d="M349.85,5.55a15.61,15.61,0,0,0-.55,2.8c0,1,.69,1.41.7,2A2.43,2.43,0,0,0,350.3,12s-.36,1.07.15,1.23a1.94,1.94,0,0,1,.38.15,2.17,2.17,0,0,1,.34.66,1.48,1.48,0,0,0,1.36,1.4c1.22.17,3.53-.41,5.18-3.05a10.31,10.31,0,0,0,2-6.5,4.3,4.3,0,0,0-4.61-4.15A5.93,5.93,0,0,0,349.85,5.55Z" style="fill: #fff;stroke: #3f4563;stroke-miterlimit: 10"/>
              <path d="M357.72,9.75s.14-.8.64-.92,1.19-.07,1,.92-1.07,2-1.55,1.71" style="fill: #fff;stroke: #373e5a;stroke-miterlimit: 10;fill-rule: evenodd"/>
            </g>
            <path d="M347.36,21.6a24,24,0,0,1-2.87-1.87A15.56,15.56,0,0,1,349,12.47h0c-1.38,1.45-1.54,5.53-1.64,6.88A12.3,12.3,0,0,1,347.36,21.6Z" style="fill: #3f4563"/>
          </g>
          <path d="M355.18,1.25c-4.06-.14-6.24,3.14-6.3,4.11a2,2,0,0,0,.64,1.55c.13.44.38,1,.87,1.08.84.18,3-.6,4.17-.1s.94,1.32,1.28,1.84a1.37,1.37,0,0,0,1.22.61l.29-.29s1-1.47,2-1.13a8.9,8.9,0,0,0,.28-1.56A4.56,4.56,0,0,0,355.18,1.25Z" style="fill: #373e5a"/>
          <g>
            <path d="M347.1,7.62a12.94,12.94,0,0,0,4,4.09" style="fill: none;stroke: #3f4563;stroke-linecap: round;stroke-linejoin: round"/>
            <g>
              <path d="M349.24,8.79a6.6,6.6,0,0,1,.82.38,5.06,5.06,0,0,0,.68.46,2.13,2.13,0,0,0,.6-.11,2.78,2.78,0,0,1,2.65.7c.12.12.32.22.35.43.1.81,1.29-.65,1.93-.59.12,0,0,.12-.07.14l1.25-.08c-.24-.11-2.85,3.36-5.35,2.61-.67-.2-.7-.49-1-.64s-.34.14-.94.1-.59-.79-1-.95" style="fill: #3f4563"/>
              <g>
                <path d="M349.1,10c.33.15.3.81,1,.68,0,0,.26.1.12-.12A7.09,7.09,0,0,0,349.1,10" style="fill: #fff"/>
                <path d="M351.41,10.87A1.83,1.83,0,0,1,353,11s.35.39.14.53a2.89,2.89,0,0,1-1.5-.41S351.37,11,351.41,10.87Z" style="fill: #fff"/>
              </g>
            </g>
            <path d="M353.58,10.16a5.85,5.85,0,0,0,1.75-.18,4.25,4.25,0,0,0,1.75-.79c-1.09,1.09-.54,1.41-3.29,2.5Z" style="fill: #3f4563"/>
            <path d="M362,14.41" style="fill: #373e5a"/>
            <path d="M351.8,1.79A4.82,4.82,0,0,1,355.23.21a5,5,0,0,1,3.64,2.05c2.15,2.7.78,5.41,2.66,8v0c.86,1.24,1.66,2.74.82,3.06a3.18,3.18,0,0,0-.46.23l.46,4.17-.21.09s-2.25,3-5.7-3.06-7-7.12-8.09-7.32a.92.92,0,0,0-1.16.89,1.2,1.2,0,0,1-.66-.62C345.83,5.92,351,2.34,351.8,1.79Z" style="fill: #3f4563"/>
          </g>
          <g>
            <line x1="241.69" y1="1.85" x2="241.69" y2="123" style="fill: none;stroke: #373e5a;stroke-miterlimit: 10;stroke-width: 0.5px"/>
            <path d="M328.35,27.52A281.87,281.87,0,0,0,241.08,1.3" style="fill: none;stroke: #3f4563;stroke-linecap: round;stroke-linejoin: round"/>
            <path d="M337.26,33.5c-3.44-1.93-7-3.79-10.52-5.53a.37.37,0,0,1-.17-.49l.68-1.4a.37.37,0,0,1,.5-.17c3.58,1.76,7.16,3.63,10.64,5.59a.37.37,0,0,1,.14.51,1.11,1.11,0,0,1,0,.75,1.14,1.14,0,0,1-.71.61C337.71,33.38,337.49,33.63,337.26,33.5Z" style="fill: #3f4563"/>
            <g>
              <path d="M324.33,26.82q-2.54-1.07-5.1-2.06a.47.47,0,0,1-.27-.62l.48-1.25a.48.48,0,0,1,.62-.28q2.62,1,5.24,2.12a.4.4,0,0,1,.22.52L325,26.52A.53.53,0,0,1,324.33,26.82Z" style="fill: #3f4563"/>
              <circle cx="322.23" cy="24.72" r="1.87" style="fill: #fff;stroke: #3f4563;stroke-miterlimit: 10"/>
            </g>
            <circle cx="322.23" cy="24.72" r="0.22" style="fill: #373e5a"/>
            <polyline points="322.52 29.83 322.79 29.06 321.25 27.13 321.89 24.72 322.52 24.91 321.64 27.13 322.79 28.81 322.52 29.96" style="fill: none;stroke: #3f4563;stroke-linecap: round;stroke-linejoin: round"/>
            <line x1="303.28" y1="16.3" x2="302.92" y2="17.1" style="fill: none;stroke: #3f4563;stroke-linecap: round;stroke-linejoin: round"/>
            <line x1="293.56" y1="12.66" x2="293.19" y2="13.46" style="fill: none;stroke: #3f4563;stroke-linecap: round;stroke-linejoin: round"/>
            <line x1="278.21" y1="8.39" x2="277.84" y2="9.19" style="fill: none;stroke: #3f4563;stroke-linecap: round;stroke-linejoin: round"/>
            <line x1="261.43" y1="4.41" x2="261.06" y2="5.21" style="fill: none;stroke: #3f4563;stroke-linecap: round;stroke-linejoin: round"/>
            <line x1="242.05" y1="0.5" x2="241.69" y2="1.3" style="fill: none;stroke: #3f4563;stroke-linecap: round;stroke-linejoin: round"/>
          </g>
          <path d="M339.4,30.14a7.6,7.6,0,0,0-.92.38,11.14,11.14,0,0,0-1.12.67,4.14,4.14,0,0,1-2.21.5c-.28,0-1.84,0-2.12-.81a.73.73,0,0,1,.17-.77c.3-.3.8-.17,1.27-.17a3.1,3.1,0,0,0,1.69-.56" style="fill: #fff;stroke: #3f4563;stroke-linecap: round;stroke-linejoin: round"/>
          <path d="M337.29,29.51a6.52,6.52,0,0,1,3.6,1.29,6.7,6.7,0,0,0,1.32.73l9.85-.19,2.91-5.5c2-3.85,4.34-7.58,6.5-7.08s2,2.46.91,4.88-7.53,12.53-9.22,12.79-11.5-2.19-11.5-2.19c-.25.1-.5.19-.76.27a4.11,4.11,0,0,1-2.57-.31c-.93-.25-1.46-.17-2.18-.44a4.34,4.34,0,0,1-1.61-1.2c-.57-.55-.43-.65-.15-.9a8.32,8.32,0,0,1,2.14-.82c.33,0,.39-.16.39-.16a7.33,7.33,0,0,0-2.31.1c-.4,0-.63-.18-.58-.49S335.8,29.5,337.29,29.51Z" style="fill: #fff;stroke: #3f4563;stroke-miterlimit: 10"/>
          <path d="M355.2,25.25l.43-1.07c1.69-4,4.54-7.41,6.74-7.1s2.8,2.64,1.9,5.15a29.33,29.33,0,0,1-3,5.43A21.06,21.06,0,0,1,355.2,25.25Z" style="fill: #3f4563"/>
          <path d="M349.11,23l.61-3.08.81-2.8-1.79-4.37-4.37,6.88S348.2,22.89,349.11,23Z" style="fill: #3f4563"/>
        </g>
        <g id="hook">
          <path d="M229.36,158.35c1.45,2.78,1.94,5,3,8,.93,2.59.82,4.9,3,6.73a7.93,7.93,0,0,0,5.69,1.72,9.12,9.12,0,0,0,6.16-3.18c3.39-4.1,3.68-11.66,2.85-16.67-.51-3.07-1.91-6.16-4.71-12.34-1.76-3.88-2.77-5.62-3.62-9a33.78,33.78,0,0,1-1-6.75" style="fill: none;stroke: #373e5a;stroke-linecap: round;stroke-linejoin: round"/>
          <path d="M229.61,158.6c1.45,2.78,1.32,7.29,2.38,10.25a12.65,12.65,0,0,0,4,6.25c1.56,1.3,5.1,1.17,7.13,1,2.34-.2,4.62-2.19,6.13-4,3.39-4.1,3.68-11.66,2.85-16.67-.51-3.07-1.67-5.39-4.47-11.58a61.36,61.36,0,0,1-4-10.25,33.78,33.78,0,0,1-1-6.75" style="fill: none;stroke: #373e5a;stroke-linecap: round;stroke-linejoin: round"/>
          <path d="M229.24,158c.63.13,8.5,9.13,8.5,9.13l-5-.37Z" style="fill: #373e5a"/>
          <circle cx="241.87" cy="124.67" r="1.55" style="fill: none;stroke: #373e5a;stroke-miterlimit: 10"/>
        </g>
        <g>
          <path d="M212.22,224.18l.37-2a6,6,0,0,0,1.63-.84l2.12.87-.92-2a6.07,6.07,0,0,0,.75-1.22l2.52-.42-2-1.33a6,6,0,0,0,0-1.2l2-1.28-2.4-.45a6,6,0,0,0-.58-1.15l1.28-1.92-2.47.58a6.08,6.08,0,0,0-1.57-1l-.38-2.27-1.22,1.85a6,6,0,0,0-1.33,0l-1.38-1.85-.25,2.25a6,6,0,0,0-1.43.81l-2.17-1.15.87,2.51a6.1,6.1,0,0,0-.58,1l-2.39.4,1.94,1.28a6,6,0,0,0,0,1.28l-2,1.25,2.38.45a6,6,0,0,0,.56,1.08l-1.19,2.11,2.4-.76a6.08,6.08,0,0,0,1.21.77l.37,2.22,1.14-1.72a6,6,0,0,0,1.61.09Z" style="fill: red"/>
          <path d="M215.42,220" style="fill: #75757f"/>
          <line x1="215.41" y1="220.03" x2="215.41" y2="220.03" style="fill: #75757f"/>
        </g>
        <g>
          <path d="M189.22,229.27l.38-2a6,6,0,0,0,1.63-.83l2.11.88-.91-2a6.07,6.07,0,0,0,.75-1.21l2.52-.41-2-1.34a6,6,0,0,0,0-1.2l2-1.27-2.4-.47a6,6,0,0,0-.57-1.15l1.29-1.92-2.47.57a6.08,6.08,0,0,0-1.56-1l-.37-2.27-1.23,1.84a6,6,0,0,0-1.33,0l-1.37-1.86-.26,2.25a6,6,0,0,0-1.44.8l-2.17-1.16.86,2.51a6.1,6.1,0,0,0-.59,1l-2.4.39,1.93,1.29a6,6,0,0,0,0,1.28l-2,1.24,2.38.46a6,6,0,0,0,.56,1.08l-1.2,2.1,2.41-.74a6.08,6.08,0,0,0,1.2.77l.36,2.22,1.15-1.71a6,6,0,0,0,1.61.1Z" style="fill: red"/>
          <path d="M192.44,225.14" style="fill: #75757f"/>
          <line x1="192.43" y1="225.14" x2="192.43" y2="225.14" style="fill: #75757f"/>
        </g>
      </g>
    </g>
  </g>
</svg>
