<svg id="WAF" xmlns="http://www.w3.org/2000/svg" viewBox="0 0 150 150"><g id="SVG_Icons" data-name="SVG Icons"><path class="svg-grey" d="M136.67,41.59l-8.73-4.92a.65.65,0,0,0-.21-.06,1.49,1.49,0,0,0-.87.17L97.51,53.73a.93.93,0,0,0-.36.35,1.46,1.46,0,0,0-.58.18l-9.39,5.42c-1.16-2.19-2.37-4.34-3.67-6.45C79.9,47.32,76.86,40.86,75.65,34a25.82,25.82,0,0,1,.11-10.72,16.54,16.54,0,0,1,.74-2.15c.22-.56.08-1.27-.69-.82a13.91,13.91,0,0,0-2.55,2.59,58.42,58.42,0,0,0-4.48,5.45c-3.63,5-7.14,11.43-6.07,17.84C59.19,40.26,57,33.35,58.07,26.42a25.8,25.8,0,0,1,6.68-13.29A35.24,35.24,0,0,1,70.68,8c.37-.25,1.32-.62.91-1.2-.25-.34-.63-.16-1-.08-.72.16-1.44.35-2.16.54l-.66.19a55,55,0,0,0-11.19,4.92,52.53,52.53,0,0,0-16.1,13.85,45.73,45.73,0,0,0-8.94,25.58c-.07,1.39-.07,2.78,0,4.17a10.49,10.49,0,0,0-2.3-2.26,5.42,5.42,0,0,0-1.52-1c-1.25-.29-.51,2.09-.43,2.75.16,1.38.28,2.77.35,4.16a48.59,48.59,0,0,1-.71,12,29.55,29.55,0,0,1-2,6.51c-.7,1.54-1.58,3-2.29,4.54C19,90.56,17,99.43,18.79,108a33.1,33.1,0,0,0,9.56,16.71A37.52,37.52,0,0,0,48,134.45a38.73,38.73,0,0,0,6.54.62l3.15.05v8.7a1.65,1.65,0,0,0,.74,1.37l7.6,4.38a.92.92,0,0,0,.59.17l.25,0a.6.6,0,0,0,.19-.06L90.74,136a1.44,1.44,0,0,0,.39-.35,1,1,0,0,0,.58-.13l29.78-17.19a1.53,1.53,0,0,0,.49-.49,1,1,0,0,0,.45-.13l14.22-8.22a.49.49,0,0,0,.25-.43l0-67A.52.52,0,0,0,136.67,41.59Zm-9.31-3.94a.4.4,0,0,1,.2,0l7.88,4.44L106,58.88l-7.66-4.49ZM91.42,85.33,121.2,68.16v15.5L91.45,100.83V85.51A.48.48,0,0,0,91.42,85.33ZM67.33,114.75V99.21l22-12.68,1-.55.16-.1V101.4Zm7.12-3v15.9l-.27.16-6.85,4V115.91ZM67.33,98.05V82.16l7.12-4.08V94Zm8.12-4.68V77.51l30.13-17.23V76ZM97.07,55.13a.52.52,0,0,1,.33-.05l.11.08a.46.46,0,0,0,.26,0L105,59.45l-30,17.14-7.52-4.4.46-.26ZM74.62,23.58a29.15,29.15,0,0,0,.73,13.88,55,55,0,0,0,4.22,10.77c2.07,4.08,4.57,7.92,6.73,12l-8.19,4.73c-.46-.58-.92-1.17-1.39-1.74-1.33-1.63-2.81-3.16-4-4.9a26.91,26.91,0,0,1-4.35-19.45A38.31,38.31,0,0,1,74.62,23.58ZM64.1,39.83c1.35-5.22,4.55-9.91,8-14-5.17,9.06-7,20-2.13,29.66-1.2-1.31-2.37-2.67-3.47-4.07a12.46,12.46,0,0,1-2.36-3.7A14.17,14.17,0,0,1,64.1,39.83ZM56.92,27.52C56.14,34.85,58.79,42,62.7,48.07A77.63,77.63,0,0,0,71.54,59q2.92,3.16,5.62,6.51l-9.81,5.67-.79-1c-3.41-4.2-7.15-8.15-10-12.77a36,36,0,0,1-5-13C49.94,34.55,53.79,25,60.22,17.61A25,25,0,0,0,56.92,27.52ZM20.28,109.83c-2-6.81-1.28-14,.89-20.7a45.08,45.08,0,0,1,3.89-9,20.29,20.29,0,0,0,1.58-3.41c2.57-7.13,2.48-15.11,1.49-22.52a7.39,7.39,0,0,1,3.61,5.24,52,52,0,0,1,.54,5.71,47.13,47.13,0,0,1-2.9,18c-1,2.66-2.39,5.11-3.23,7.83a33.67,33.67,0,0,0-1.5,10.88A34.2,34.2,0,0,0,48.33,133.5C35.6,131.32,23.93,122.53,20.28,109.83Zm37.6,1.57a1,1,0,0,0-.17.59v15.73a1.61,1.61,0,0,0,.17.71,1,1,0,0,0-.17.59V130l-.06,0c-2.46.54-5.08-1.94-6.77-3.38A35.1,35.1,0,0,1,40.73,111.7,37.5,37.5,0,0,1,43,82.19a40,40,0,0,1,6.11-8.7,34.08,34.08,0,0,0,3.47,18A15.14,15.14,0,0,0,54.68,95s.08.13.14.18.41.27.65.11c.45-.29.11-.81,0-1.17A20,20,0,0,1,54,88.49a16.45,16.45,0,0,1,1.42-8.61,9.26,9.26,0,0,0,2.31,5v9a1.61,1.61,0,0,0,.17.71,1,1,0,0,0-.17.59v15.43A1.61,1.61,0,0,0,57.88,111.4Zm.28-34.93a.39.39,0,0,0-.1.08,1.53,1.53,0,0,0-.35.93v5.81a8.18,8.18,0,0,1-.62-1.08,7.12,7.12,0,0,1-.7-3.63c0-.56,0-1.62-.82-1a1.31,1.31,0,0,0-.17.24c-2.69,3.47-3,8.83-2.08,12.91a32.27,32.27,0,0,1-3.14-11.13A31.74,31.74,0,0,1,50,76.24c0-.6,0-1.2,0-1.8a9.53,9.53,0,0,0,.2-2.24c-.18-.84-.72-.52-1.12-.15a35.76,35.76,0,0,0-6.89,9.43,38,38,0,0,0,0,36.13,35.55,35.55,0,0,0,8.12,9.93,16.16,16.16,0,0,0,5,3.27,4.57,4.57,0,0,0,2.3.13v3.15c-.59,0-1.18,0-1.77-.09A33.14,33.14,0,0,1,26.73,92.54c.88-3.35,2.56-6.29,3.75-9.51a48.13,48.13,0,0,0,2.7-19.91c-.18-2.65-.62-5.24-.67-7.9a50.8,50.8,0,0,1,.61-9,43.74,43.74,0,0,1,5.16-14.83A49.3,49.3,0,0,1,56.15,13.81a59.53,59.53,0,0,1,8-4c.92-.37,1.86-.72,2.8-1a7,7,0,0,1,1.53-.48,2,2,0,0,0,.23-.07C66.52,10,64.5,12,62.45,13.86a42.53,42.53,0,0,0-7.36,9.06A32.88,32.88,0,0,0,50.16,39a34.29,34.29,0,0,0,5.16,18.25C58.43,62.49,62.63,67,66.5,71.68a.61.61,0,0,0-.12.16,1.57,1.57,0,0,0-.69.18Zm8.17,56.67v15.44L59,144.32a.7.7,0,0,1-.24-.5V129.2l.25.13L66.33,133Zm0-1.28-7.41-3.67h0a.7.7,0,0,1-.2-.46V112.15l7.61,3.78Zm0-31.83v14.78l-7.41-3.67h0a.77.77,0,0,1-.18-.44V95.43l7,3.48.63.32Zm0-1.92h0l-7.39-3.69h0a.8.8,0,0,1-.18-.45V77.69l7.62,4.46Zm.5-16.82-7.46-4.37,6.83-4a.58.58,0,0,1,.41,0l.11.07a.52.52,0,0,0,.19.06l7.14,4.18Zm23.62,53.49a.53.53,0,0,1-.21.35L67.33,148.36V133l23.12-13.35Zm-15-7.67V111.22h0l30.13-17.39v15.89ZM121.2,116.9s0,.06,0,.09a.91.91,0,0,0,0,.17.61.61,0,0,1-.22.31l-29.53,17V119l29.75-17.17Zm14.7-8.13-13.7,7.91V101.29l13.7-7.91Zm0-16.55-29.32,16.93V93.49a.54.54,0,0,0,0-.21l29.38-17Zm0-17L122.2,83.08V67.59l13.72-7.9Zm0-16.64L106.58,75.44V59.71l29.34-16.78ZM69.34,14.21a11.84,11.84,0,0,0-6.88,8.44,17.76,17.76,0,0,0,1.28,9.88,4,4,0,0,0,.37.84c.73.92,1-.23,1-.82a15.39,15.39,0,0,1,.7-5,14,14,0,0,1,4-6.17c1.16-1,2.52-1.72,3.68-2.73a18.2,18.2,0,0,0,5.39-8.13,21.63,21.63,0,0,0,1-7,18,18,0,0,0-.14-2.07c0-.31,0-.75-.41-.87-.79-.26-.6.79-.57,1.2C79.24,7.59,74.1,12,69.34,14.21Zm9.33-7.1a17.23,17.23,0,0,1-7,11.75,17,17,0,0,0-4.93,4.6,15.29,15.29,0,0,0-2.56,7.17c-1.64-5.2-1.13-11.06,3.64-14.37,2.3-1.59,4.93-2.51,7.09-4.35A14.68,14.68,0,0,0,78.67,7.11Z"/></g></svg>