<svg xmlns="http://www.w3.org/2000/svg" xmlns:xlink="http://www.w3.org/1999/xlink" width="987.9" height="449.76" viewBox="0 0 987.9 449.76">
  <defs>
    <clipPath id="clip-path">
      <path d="M832.45,121.89l-19.76-10.48,21.85-3.13,19.76,10.48Z" style="fill: #373e5a;stroke: #fff;stroke-miterlimit: 10"/>
    </clipPath>
  </defs>
  <title>icon-partner-graph</title>
  <g id="Layer_2" data-name="Layer 2">
    <g id="_1200" data-name="1200">
      <g id="Why_" data-name="Why?">
        <g id="MSS-market-illustration">
          <g>
            <g id="ex" style="opacity: 0.30000000000000004">
              <path d="M79.79,404.46c10.94-.27,298.19-42.2,527.56-75.9,154.36-22.68,276.12-40.69,282.53-41.63l98,161.87Z" style="fill: #03a9f4"/>
            </g>
            <g id="ex-2" data-name="ex">
              <g style="isolation: isolate">
                <path d="M79.59,403.15l770-389.25-.53,284.69c-6.38.89-96.38,7.36-249.71,28.91C372.67,359.36,89.72,399.56,79.59,403.15Z" style="fill: none;stroke: #03a9f4;stroke-miterlimit: 10"/>
                <polygon points="79.59 403.15 55.89 390.25 825.92 1 849.63 13.89 79.59 403.15" style="fill: none;stroke: #03a9f4;stroke-linecap: round;stroke-linejoin: round"/>
              </g>
            </g>
            <g>
              <line x1="114.53" y1="385.71" x2="113.86" y2="397.71" style="fill: none;stroke: #03a9f4;stroke-linecap: round;stroke-linejoin: round"/>
              <line x1="126.19" y1="379.84" x2="125.55" y2="396" style="fill: none;stroke: #03a9f4;stroke-linecap: round;stroke-linejoin: round"/>
              <line x1="137.86" y1="373.98" x2="137.24" y2="394.3" style="fill: none;stroke: #03a9f4;stroke-linecap: round;stroke-linejoin: round"/>
              <line x1="149.53" y1="368.12" x2="148.94" y2="392.6" style="fill: none;stroke: #03a9f4;stroke-linecap: round;stroke-linejoin: round"/>
              <line x1="161.19" y1="362.26" x2="160.63" y2="390.9" style="fill: none;stroke: #03a9f4;stroke-linecap: round;stroke-linejoin: round"/>
              <line x1="172.86" y1="356.4" x2="172.32" y2="389.19" style="fill: none;stroke: #03a9f4;stroke-linecap: round;stroke-linejoin: round"/>
              <line x1="184.53" y1="350.53" x2="184.01" y2="387.49" style="fill: none;stroke: #03a9f4;stroke-linecap: round;stroke-linejoin: round"/>
              <line x1="196.19" y1="344.67" x2="195.7" y2="385.79" style="fill: none;stroke: #03a9f4;stroke-linecap: round;stroke-linejoin: round"/>
              <line x1="207.86" y1="338.81" x2="207.39" y2="384.08" style="fill: none;stroke: #03a9f4;stroke-linecap: round;stroke-linejoin: round"/>
              <line x1="219.53" y1="332.95" x2="219.09" y2="382.38" style="fill: none;stroke: #03a9f4;stroke-linecap: round;stroke-linejoin: round"/>
              <line x1="231.19" y1="327.08" x2="230.78" y2="380.68" style="fill: none;stroke: #03a9f4;stroke-linecap: round;stroke-linejoin: round"/>
              <line x1="242.86" y1="321.22" x2="242.47" y2="378.97" style="fill: none;stroke: #03a9f4;stroke-linecap: round;stroke-linejoin: round"/>
              <line x1="254.53" y1="315.36" x2="254.16" y2="377.27" style="fill: none;stroke: #03a9f4;stroke-linecap: round;stroke-linejoin: round"/>
              <line x1="266.19" y1="309.5" x2="265.85" y2="375.57" style="fill: none;stroke: #03a9f4;stroke-linecap: round;stroke-linejoin: round"/>
              <line x1="277.86" y1="303.63" x2="277.54" y2="373.86" style="fill: none;stroke: #03a9f4;stroke-linecap: round;stroke-linejoin: round"/>
              <line x1="289.53" y1="297.77" x2="289.24" y2="372.16" style="fill: none;stroke: #03a9f4;stroke-linecap: round;stroke-linejoin: round"/>
              <line x1="301.19" y1="291.91" x2="300.93" y2="370.46" style="fill: none;stroke: #03a9f4;stroke-linecap: round;stroke-linejoin: round"/>
              <line x1="312.86" y1="286.05" x2="312.62" y2="368.76" style="fill: none;stroke: #03a9f4;stroke-linecap: round;stroke-linejoin: round"/>
              <line x1="324.53" y1="280.18" x2="324.31" y2="367.05" style="fill: none;stroke: #03a9f4;stroke-linecap: round;stroke-linejoin: round"/>
              <line x1="336.19" y1="274.32" x2="336" y2="365.35" style="fill: none;stroke: #03a9f4;stroke-linecap: round;stroke-linejoin: round"/>
              <line x1="347.86" y1="268.46" x2="347.69" y2="363.65" style="fill: none;stroke: #03a9f4;stroke-linecap: round;stroke-linejoin: round"/>
              <line x1="359.53" y1="262.6" x2="359.39" y2="361.94" style="fill: none;stroke: #03a9f4;stroke-linecap: round;stroke-linejoin: round"/>
              <line x1="371.19" y1="256.73" x2="371.08" y2="360.24" style="fill: none;stroke: #03a9f4;stroke-linecap: round;stroke-linejoin: round"/>
              <line x1="382.86" y1="250.87" x2="382.77" y2="358.54" style="fill: none;stroke: #03a9f4;stroke-linecap: round;stroke-linejoin: round"/>
              <line x1="394.53" y1="245.01" x2="394.46" y2="356.83" style="fill: none;stroke: #03a9f4;stroke-linecap: round;stroke-linejoin: round"/>
              <line x1="406.19" y1="239.15" x2="406.15" y2="355.13" style="fill: none;stroke: #03a9f4;stroke-linecap: round;stroke-linejoin: round"/>
              <line x1="417.86" y1="233.28" x2="417.84" y2="353.43" style="fill: none;stroke: #03a9f4;stroke-linecap: round;stroke-linejoin: round"/>
              <line x1="429.53" y1="227.42" x2="429.54" y2="351.72" style="fill: none;stroke: #03a9f4;stroke-linecap: round;stroke-linejoin: round"/>
              <line x1="441.19" y1="221.56" x2="441.23" y2="350.02" style="fill: none;stroke: #03a9f4;stroke-linecap: round;stroke-linejoin: round"/>
              <line x1="452.86" y1="215.7" x2="452.92" y2="348.32" style="fill: none;stroke: #03a9f4;stroke-linecap: round;stroke-linejoin: round"/>
              <line x1="464.53" y1="209.83" x2="464.61" y2="346.62" style="fill: none;stroke: #03a9f4;stroke-linecap: round;stroke-linejoin: round"/>
              <line x1="476.19" y1="203.97" x2="476.3" y2="344.91" style="fill: none;stroke: #03a9f4;stroke-linecap: round;stroke-linejoin: round"/>
              <line x1="487.86" y1="198.11" x2="487.99" y2="343.21" style="fill: none;stroke: #03a9f4;stroke-linecap: round;stroke-linejoin: round"/>
              <line x1="499.53" y1="192.25" x2="499.69" y2="341.51" style="fill: none;stroke: #03a9f4;stroke-linecap: round;stroke-linejoin: round"/>
              <line x1="511.19" y1="186.38" x2="511.38" y2="339.8" style="fill: none;stroke: #03a9f4;stroke-linecap: round;stroke-linejoin: round"/>
              <line x1="522.86" y1="180.52" x2="523.07" y2="338.1" style="fill: none;stroke: #03a9f4;stroke-linecap: round;stroke-linejoin: round"/>
              <line x1="534.53" y1="174.66" x2="534.76" y2="336.4" style="fill: none;stroke: #03a9f4;stroke-linecap: round;stroke-linejoin: round"/>
              <line x1="546.19" y1="168.8" x2="546.45" y2="334.69" style="fill: none;stroke: #03a9f4;stroke-linecap: round;stroke-linejoin: round"/>
              <line x1="557.86" y1="162.93" x2="558.14" y2="332.99" style="fill: none;stroke: #03a9f4;stroke-linecap: round;stroke-linejoin: round"/>
              <line x1="569.53" y1="157.07" x2="569.84" y2="331.29" style="fill: none;stroke: #03a9f4;stroke-linecap: round;stroke-linejoin: round"/>
              <line x1="581.19" y1="151.21" x2="581.53" y2="329.59" style="fill: none;stroke: #03a9f4;stroke-linecap: round;stroke-linejoin: round"/>
              <line x1="592.86" y1="145.35" x2="593.22" y2="327.88" style="fill: none;stroke: #03a9f4;stroke-linecap: round;stroke-linejoin: round"/>
              <line x1="604.53" y1="139.49" x2="604.91" y2="326.18" style="fill: none;stroke: #03a9f4;stroke-linecap: round;stroke-linejoin: round"/>
              <line x1="616.19" y1="133.62" x2="616.6" y2="324.48" style="fill: none;stroke: #03a9f4;stroke-linecap: round;stroke-linejoin: round"/>
              <line x1="627.86" y1="127.76" x2="628.29" y2="322.77" style="fill: none;stroke: #03a9f4;stroke-linecap: round;stroke-linejoin: round"/>
              <line x1="639.53" y1="121.9" x2="639.99" y2="321.07" style="fill: none;stroke: #03a9f4;stroke-linecap: round;stroke-linejoin: round"/>
              <line x1="651.19" y1="116.04" x2="651.68" y2="319.37" style="fill: none;stroke: #03a9f4;stroke-linecap: round;stroke-linejoin: round"/>
              <line x1="662.86" y1="110.17" x2="663.37" y2="317.66" style="fill: none;stroke: #03a9f4;stroke-linecap: round;stroke-linejoin: round"/>
              <line x1="674.53" y1="104.31" x2="675.06" y2="315.96" style="fill: none;stroke: #03a9f4;stroke-linecap: round;stroke-linejoin: round"/>
              <line x1="686.19" y1="98.45" x2="686.75" y2="314.26" style="fill: none;stroke: #03a9f4;stroke-linecap: round;stroke-linejoin: round"/>
              <line x1="697.86" y1="92.59" x2="698.44" y2="312.55" style="fill: none;stroke: #03a9f4;stroke-linecap: round;stroke-linejoin: round"/>
              <line x1="709.53" y1="86.72" x2="710.14" y2="310.85" style="fill: none;stroke: #03a9f4;stroke-linecap: round;stroke-linejoin: round"/>
              <line x1="721.19" y1="80.86" x2="721.83" y2="309.15" style="fill: none;stroke: #03a9f4;stroke-linecap: round;stroke-linejoin: round"/>
              <line x1="732.86" y1="75" x2="733.52" y2="307.45" style="fill: none;stroke: #03a9f4;stroke-linecap: round;stroke-linejoin: round"/>
              <line x1="744.53" y1="69.14" x2="745.21" y2="305.74" style="fill: none;stroke: #03a9f4;stroke-linecap: round;stroke-linejoin: round"/>
              <line x1="756.19" y1="63.27" x2="756.9" y2="304.04" style="fill: none;stroke: #03a9f4;stroke-linecap: round;stroke-linejoin: round"/>
              <line x1="767.86" y1="57.41" x2="768.59" y2="302.34" style="fill: none;stroke: #03a9f4;stroke-linecap: round;stroke-linejoin: round"/>
              <line x1="779.53" y1="51.55" x2="780.29" y2="300.63" style="fill: none;stroke: #03a9f4;stroke-linecap: round;stroke-linejoin: round"/>
              <line x1="791.19" y1="45.69" x2="791.98" y2="298.93" style="fill: none;stroke: #03a9f4;stroke-linecap: round;stroke-linejoin: round"/>
              <line x1="802.86" y1="39.82" x2="803.67" y2="297.23" style="fill: none;stroke: #03a9f4;stroke-linecap: round;stroke-linejoin: round"/>
              <line x1="814.53" y1="33.96" x2="815.36" y2="295.52" style="fill: none;stroke: #03a9f4;stroke-linecap: round;stroke-linejoin: round"/>
              <line x1="826.19" y1="28.1" x2="827.05" y2="293.82" style="fill: none;stroke: #03a9f4;stroke-linecap: round;stroke-linejoin: round"/>
              <line x1="837.86" y1="22.24" x2="838.74" y2="292.12" style="fill: none;stroke: #03a9f4;stroke-linecap: round;stroke-linejoin: round"/>
              <line x1="849.53" y1="16.37" x2="850.44" y2="290.42" style="fill: none;stroke: #03a9f4;stroke-linecap: round;stroke-linejoin: round"/>
            </g>
          </g>
          <g>
            <g style="isolation: isolate">
              <polygon points="854.07 442.82 834.31 432.34 919.97 420.6 939.73 431.08 854.07 442.82" style="fill: #373e5a;stroke: #fff;stroke-miterlimit: 10"/>
              <polygon points="940.35 106.44 920.59 95.96 942.81 92.78 962.57 103.26 940.35 106.44" style="fill: #373e5a;stroke: #fff;stroke-miterlimit: 10"/>
              <polygon points="939.73 431.08 919.97 420.6 920.59 95.96 940.35 106.44 939.73 431.08" style="fill: #373e5a;stroke: #fff;stroke-miterlimit: 10"/>
              <polygon points="962.57 103.26 942.81 92.78 877.5 32.89 897.26 43.37 962.57 103.26" style="fill: #373e5a;stroke: #fff;stroke-miterlimit: 10"/>
              <polygon points="854.07 442.82 834.31 432.34 834.93 108.23 854.69 118.71 854.07 442.82" style="fill: #373e5a;stroke: #fff;stroke-miterlimit: 10"/>
              <polygon points="853.29 443.74 833.53 433.26 834.15 109.14 853.91 119.63 853.29 443.74" style="fill: #373e5a;stroke: #fff;stroke-miterlimit: 10"/>
              <g style="isolation: isolate">
                <path d="M832.45,121.89l-19.76-10.48,21.85-3.13,19.76,10.48Z" style="fill: #373e5a"/>
                <g style="clip-path: url(#clip-path)">
                  <g style="isolation: isolate">
                    <path d="M832.45,121.89l-19.76-10.48,21.85-3.13,19.76,10.48-21.85,3.13" style="fill: #373e5a;stroke: #fff;stroke-miterlimit: 10"/>
                  </g>
                </g>
                <path d="M832.45,121.89l-19.76-10.48,21.85-3.13,19.76,10.48Z" style="fill: none;stroke: #fff;stroke-miterlimit: 10"/>
              </g>
              <polygon points="832.45 121.89 812.69 111.41 877.5 32.89 897.26 43.37 832.45 121.89" style="fill: #373e5a;stroke: #fff;stroke-miterlimit: 10"/>
              <path d="M897.26,42.21l67.16,61.59-23.3,3.33-.62,324.65-87.21,11.95.62-324.11-22.38,3.2-.92.13Zm43.09,64.23,22.22-3.18L897.26,43.37l-64.81,78.52,21.85-3.13-.23,324.06,85.66-11.74.62-324.65" style="fill: #373e5a;stroke: #fff;stroke-miterlimit: 10"/>
              <path d="M897.26,43.37l65.31,59.89-22.22,3.18-.62,324.65-85.66,11.74.62-324.11-22.24,3.18Z" style="fill: #373e5a;stroke: #fff;stroke-miterlimit: 10"/>
              <polygon points="830.62 122.95 810.85 112.47 877.5 31.73 897.26 42.21 830.62 122.95" style="fill: #373e5a;stroke: #fff;stroke-miterlimit: 10"/>
            </g>
            <g>
              <path d="M538,433.2l58.54-72.52V181.92s-2.58-15.61,16-15.61H892.7c18.59,0,16,15.61,16,15.61V360.68L967,433.2" style="fill: #373e5a;stroke: #fff;stroke-miterlimit: 10"/>
              <polyline points="667.21 420.91 837.72 420.91 830.36 407.49 677.58 407.76 667.21 420.91" style="fill: #373e5a;stroke: #fff;stroke-linecap: round;stroke-linejoin: round"/>
              <g>
                <line x1="627.63" y1="382.02" x2="639.34" y2="382.02" style="fill: #373e5a;stroke: #fff;stroke-linecap: round;stroke-linejoin: round"/>
                <line x1="629.82" y1="375.44" x2="641.53" y2="375.44" style="fill: #373e5a;stroke: #fff;stroke-linecap: round;stroke-linejoin: round"/>
                <line x1="623.24" y1="388.59" x2="634.96" y2="388.59" style="fill: #373e5a;stroke: #fff;stroke-linecap: round;stroke-linejoin: round"/>
                <line x1="644.49" y1="382.02" x2="656.2" y2="382.02" style="fill: #373e5a;stroke: #fff;stroke-linecap: round;stroke-linejoin: round"/>
                <line x1="646.68" y1="375.44" x2="658.39" y2="375.44" style="fill: #373e5a;stroke: #fff;stroke-linecap: round;stroke-linejoin: round"/>
                <line x1="640.1" y1="388.59" x2="651.82" y2="388.59" style="fill: #373e5a;stroke: #fff;stroke-linecap: round;stroke-linejoin: round"/>
                <line x1="661.35" y1="382.02" x2="673.06" y2="382.02" style="fill: #373e5a;stroke: #fff;stroke-linecap: round;stroke-linejoin: round"/>
                <line x1="663.54" y1="375.44" x2="675.25" y2="375.44" style="fill: #373e5a;stroke: #fff;stroke-linecap: round;stroke-linejoin: round"/>
                <line x1="656.96" y1="388.59" x2="668.68" y2="388.59" style="fill: #373e5a;stroke: #fff;stroke-linecap: round;stroke-linejoin: round"/>
                <line x1="678.21" y1="382.02" x2="689.92" y2="382.02" style="fill: #373e5a;stroke: #fff;stroke-linecap: round;stroke-linejoin: round"/>
                <line x1="680.4" y1="375.44" x2="692.11" y2="375.44" style="fill: #373e5a;stroke: #fff;stroke-linecap: round;stroke-linejoin: round"/>
                <line x1="673.82" y1="388.59" x2="685.54" y2="388.59" style="fill: #373e5a;stroke: #fff;stroke-linecap: round;stroke-linejoin: round"/>
              </g>
              <g>
                <line x1="879.93" y1="382.02" x2="868.22" y2="382.02" style="fill: #373e5a;stroke: #fff;stroke-linecap: round;stroke-linejoin: round"/>
                <line x1="877.74" y1="375.44" x2="866.03" y2="375.44" style="fill: #373e5a;stroke: #fff;stroke-linecap: round;stroke-linejoin: round"/>
                <line x1="884.31" y1="388.59" x2="872.6" y2="388.59" style="fill: #373e5a;stroke: #fff;stroke-linecap: round;stroke-linejoin: round"/>
                <line x1="863.07" y1="382.02" x2="851.36" y2="382.02" style="fill: #373e5a;stroke: #fff;stroke-linecap: round;stroke-linejoin: round"/>
                <line x1="860.88" y1="375.44" x2="849.17" y2="375.44" style="fill: #373e5a;stroke: #fff;stroke-linecap: round;stroke-linejoin: round"/>
                <line x1="867.45" y1="388.59" x2="855.74" y2="388.59" style="fill: #373e5a;stroke: #fff;stroke-linecap: round;stroke-linejoin: round"/>
                <line x1="846.21" y1="382.02" x2="834.5" y2="382.02" style="fill: #373e5a;stroke: #fff;stroke-linecap: round;stroke-linejoin: round"/>
                <line x1="844.02" y1="375.44" x2="832.31" y2="375.44" style="fill: #373e5a;stroke: #fff;stroke-linecap: round;stroke-linejoin: round"/>
                <line x1="850.59" y1="388.59" x2="838.88" y2="388.59" style="fill: #373e5a;stroke: #fff;stroke-linecap: round;stroke-linejoin: round"/>
                <line x1="829.35" y1="382.02" x2="817.64" y2="382.02" style="fill: #373e5a;stroke: #fff;stroke-linecap: round;stroke-linejoin: round"/>
                <line x1="827.16" y1="375.44" x2="815.45" y2="375.44" style="fill: #373e5a;stroke: #fff;stroke-linecap: round;stroke-linejoin: round"/>
                <line x1="833.73" y1="388.59" x2="822.02" y2="388.59" style="fill: #373e5a;stroke: #fff;stroke-linecap: round;stroke-linejoin: round"/>
              </g>
              <g>
                <line x1="809.12" y1="382.02" x2="797.41" y2="382.02" style="fill: #373e5a;stroke: #fff;stroke-linecap: round;stroke-linejoin: round"/>
                <line x1="806.93" y1="375.44" x2="795.22" y2="375.44" style="fill: #373e5a;stroke: #fff;stroke-linecap: round;stroke-linejoin: round"/>
                <line x1="813.5" y1="388.59" x2="801.79" y2="388.59" style="fill: #373e5a;stroke: #fff;stroke-linecap: round;stroke-linejoin: round"/>
                <line x1="792.26" y1="382.02" x2="780.55" y2="382.02" style="fill: #373e5a;stroke: #fff;stroke-linecap: round;stroke-linejoin: round"/>
                <line x1="790.07" y1="375.44" x2="778.36" y2="375.44" style="fill: #373e5a;stroke: #fff;stroke-linecap: round;stroke-linejoin: round"/>
                <line x1="796.64" y1="388.59" x2="784.93" y2="388.59" style="fill: #373e5a;stroke: #fff;stroke-linecap: round;stroke-linejoin: round"/>
                <line x1="775.4" y1="382.02" x2="763.69" y2="382.02" style="fill: #373e5a;stroke: #fff;stroke-linecap: round;stroke-linejoin: round"/>
                <line x1="773.21" y1="375.44" x2="761.5" y2="375.44" style="fill: #373e5a;stroke: #fff;stroke-linecap: round;stroke-linejoin: round"/>
                <line x1="779.78" y1="388.59" x2="768.07" y2="388.59" style="fill: #373e5a;stroke: #fff;stroke-linecap: round;stroke-linejoin: round"/>
                <line x1="758.54" y1="382.02" x2="746.83" y2="382.02" style="fill: #373e5a;stroke: #fff;stroke-linecap: round;stroke-linejoin: round"/>
                <line x1="756.35" y1="375.44" x2="744.64" y2="375.44" style="fill: #373e5a;stroke: #fff;stroke-linecap: round;stroke-linejoin: round"/>
                <line x1="762.92" y1="388.59" x2="751.21" y2="388.59" style="fill: #373e5a;stroke: #fff;stroke-linecap: round;stroke-linejoin: round"/>
              </g>
              <g>
                <line x1="698.44" y1="382.02" x2="710.15" y2="382.02" style="fill: #373e5a;stroke: #fff;stroke-linecap: round;stroke-linejoin: round"/>
                <line x1="700.63" y1="375.44" x2="712.34" y2="375.44" style="fill: #373e5a;stroke: #fff;stroke-linecap: round;stroke-linejoin: round"/>
                <line x1="694.06" y1="388.59" x2="773.21" y2="388.59" style="fill: #373e5a;stroke: #fff;stroke-linecap: round;stroke-linejoin: round"/>
                <line x1="715.3" y1="382.02" x2="727.01" y2="382.02" style="fill: #373e5a;stroke: #fff;stroke-linecap: round;stroke-linejoin: round"/>
                <line x1="717.49" y1="375.44" x2="729.2" y2="375.44" style="fill: #373e5a;stroke: #fff;stroke-linecap: round;stroke-linejoin: round"/>
                <line x1="710.92" y1="388.59" x2="722.63" y2="388.59" style="fill: #373e5a;stroke: #fff;stroke-linecap: round;stroke-linejoin: round"/>
                <line x1="732.16" y1="382.02" x2="743.87" y2="382.02" style="fill: #373e5a;stroke: #fff;stroke-linecap: round;stroke-linejoin: round"/>
                <line x1="734.35" y1="375.44" x2="746.06" y2="375.44" style="fill: #373e5a;stroke: #fff;stroke-linecap: round;stroke-linejoin: round"/>
                <line x1="727.78" y1="388.59" x2="739.49" y2="388.59" style="fill: #373e5a;stroke: #fff;stroke-linecap: round;stroke-linejoin: round"/>
                <line x1="749.02" y1="382.02" x2="760.73" y2="382.02" style="fill: #373e5a;stroke: #fff;stroke-linecap: round;stroke-linejoin: round"/>
                <line x1="751.21" y1="375.44" x2="762.92" y2="375.44" style="fill: #373e5a;stroke: #fff;stroke-linecap: round;stroke-linejoin: round"/>
                <line x1="744.64" y1="388.59" x2="756.35" y2="388.59" style="fill: #373e5a;stroke: #fff;stroke-linecap: round;stroke-linejoin: round"/>
              </g>
              <polygon points="606.91 396.26 901.39 396.26 878.91 367.77 629.39 367.77 606.91 396.26" style="fill: #373e5a;stroke: #fff;stroke-miterlimit: 10"/>
              <path d="M754.64,433.2H538s2.68,11.91,17,16.06H950c14.29-4.14,17-16.06,17-16.06Z" style="fill: #373e5a;stroke: #fff;stroke-miterlimit: 10"/>
              <path d="M735.91,433a7.64,7.64,0,0,0,5.47,5.18h22.16A7.64,7.64,0,0,0,769,433Z" style="fill: #373e5a;stroke: #fff;stroke-miterlimit: 10"/>
              <rect x="614.66" y="185.56" width="274.89" height="164.49" style="fill: #373e5a;stroke: #fff;stroke-miterlimit: 10"/>
              <line x1="546.94" y1="445.5" x2="957.88" y2="445.5" style="fill: #373e5a;stroke: #fff;stroke-miterlimit: 10"/>
            </g>
            <g>
              <rect x="621.47" y="146.57" width="261.98" height="204.05" rx="1.47" ry="1.47" style="fill: #373e5a;stroke: #fff;stroke-linecap: round;stroke-linejoin: round"/>
              <line x1="621.47" y1="169.94" x2="883.45" y2="169.94" style="fill: #373e5a;stroke: #fff;stroke-linecap: round;stroke-linejoin: round"/>
              <rect x="677.84" y="155.67" width="190.17" height="4.03" rx="0.61" ry="0.61" style="fill: #373e5a;stroke: #fff;stroke-linecap: round;stroke-linejoin: round"/>
              <line x1="637.46" y1="157.69" x2="640.75" y2="157.69" style="fill: #373e5a;stroke: #fff;stroke-linecap: round;stroke-linejoin: round;stroke-width: 0.75px"/>
              <line x1="648.09" y1="157.69" x2="651.38" y2="157.69" style="fill: #373e5a;stroke: #fff;stroke-linecap: round;stroke-linejoin: round;stroke-width: 0.75px"/>
              <line x1="658.72" y1="157.69" x2="662.02" y2="157.69" style="fill: #373e5a;stroke: #fff;stroke-linecap: round;stroke-linejoin: round;stroke-width: 0.75px"/>
              <g>
                <path d="M865,262.56H825v24.28h40V262.56Z" style="fill: #373e5a;stroke: #fff;stroke-miterlimit: 10"/>
                <line x1="826.25" y1="303.82" x2="864.07" y2="303.82" style="fill: #373e5a;stroke: #fff;stroke-linecap: round;stroke-linejoin: round"/>
                <line x1="826.25" y1="318.93" x2="864.07" y2="318.93" style="fill: #373e5a;stroke: #fff;stroke-linecap: round;stroke-linejoin: round"/>
                <line x1="826.25" y1="334.04" x2="864.07" y2="334.04" style="fill: #373e5a;stroke: #fff;stroke-linecap: round;stroke-linejoin: round"/>
              </g>
              <g>
                <path d="M743.53,262.56h-40v24.28h40V262.56Z" style="fill: #373e5a;stroke: #fff;stroke-miterlimit: 10"/>
                <line x1="704.25" y1="303.89" x2="742.59" y2="303.89" style="fill: #373e5a;stroke: #fff;stroke-linecap: round;stroke-linejoin: round"/>
                <line x1="704.25" y1="319" x2="742.59" y2="319" style="fill: #373e5a;stroke: #fff;stroke-linecap: round;stroke-linejoin: round"/>
                <line x1="704.25" y1="334.04" x2="742.59" y2="334.04" style="fill: #373e5a;stroke: #fff;stroke-linecap: round;stroke-linejoin: round"/>
              </g>
              <g>
                <path d="M804.27,262.56h-40v24.28h40V262.56Z" style="fill: #373e5a;stroke: #fff;stroke-miterlimit: 10"/>
                <line x1="764.98" y1="303.89" x2="803.32" y2="303.89" style="fill: #373e5a;stroke: #fff;stroke-linecap: round;stroke-linejoin: round"/>
                <line x1="764.98" y1="319" x2="803.32" y2="319" style="fill: #373e5a;stroke: #fff;stroke-linecap: round;stroke-linejoin: round"/>
                <line x1="764.98" y1="334.04" x2="803.32" y2="334.04" style="fill: #373e5a;stroke: #fff;stroke-linecap: round;stroke-linejoin: round"/>
              </g>
              <g>
                <path d="M682.8,262.56h-40v24.28h40V262.56Z" style="fill: #373e5a;stroke: #fff;stroke-miterlimit: 10"/>
                <line x1="643.51" y1="303.89" x2="681.85" y2="303.89" style="fill: #373e5a;stroke: #fff;stroke-linecap: round;stroke-linejoin: round"/>
                <line x1="643.51" y1="319" x2="681.85" y2="319" style="fill: #373e5a;stroke: #fff;stroke-linecap: round;stroke-linejoin: round"/>
                <line x1="643.51" y1="334.04" x2="681.85" y2="334.04" style="fill: #373e5a;stroke: #fff;stroke-linecap: round;stroke-linejoin: round"/>
              </g>
              <g>
                <line x1="660.12" y1="201.49" x2="842.79" y2="201.49" style="fill: #373e5a;stroke: #fff;stroke-linecap: round;stroke-linejoin: round"/>
                <line x1="637.97" y1="230.94" x2="864.94" y2="230.94" style="fill: #373e5a;stroke: #fff;stroke-linecap: round;stroke-linejoin: round"/>
                <line x1="637.97" y1="217.36" x2="864.94" y2="217.36" style="fill: #373e5a;stroke: #fff;stroke-linecap: round;stroke-linejoin: round"/>
                <line x1="640.19" y1="245.29" x2="862.73" y2="245.29" style="fill: #373e5a;stroke: #fff;stroke-linecap: round;stroke-linejoin: round"/>
              </g>
            </g>
            <g>
              <g>
                <path d="M751.72,401.6C661.07,366.83,649.18,306,649.18,306V200.24l84.71-37.67H771l84.71,37.67V306s-11.89,60.84-102.54,95.61Z" style="fill: #373e5a;stroke: #fff;stroke-miterlimit: 10"/>
                <path d="M751.82,386.12c-78.91-30.27-89.26-83.23-89.26-83.23V210.84l73.74-32.79h15.52" style="fill: #373e5a;stroke: #fff;stroke-miterlimit: 10"/>
                <path d="M751.82,386.12h1.29c78.91-30.27,89.26-83.23,89.26-83.23V210.84l-73.74-32.79H751.82V384.22" style="fill: #373e5a;stroke: #fff;stroke-miterlimit: 10"/>
              </g>
              <ellipse cx="752.46" cy="277.74" rx="62.91" ry="61.32" style="fill: #373e5a;stroke: #fff;stroke-miterlimit: 10"/>
              <ellipse cx="752.46" cy="277.74" rx="56.59" ry="55.16" style="fill: #373e5a;stroke: #fff;stroke-miterlimit: 10"/>
              <ellipse cx="752.4" cy="170.54" rx="2.23" ry="2.17" style="fill: #373e5a;stroke: #fff;stroke-miterlimit: 10"/>
              <ellipse cx="846.83" cy="205.31" rx="2.23" ry="2.17" style="fill: #373e5a;stroke: #fff;stroke-miterlimit: 10"/>
              <ellipse cx="848.88" cy="275.49" rx="2.23" ry="2.17" style="fill: #373e5a;stroke: #fff;stroke-miterlimit: 10"/>
              <ellipse cx="655.68" cy="275.49" rx="2.23" ry="2.17" style="fill: #373e5a;stroke: #fff;stroke-miterlimit: 10"/>
              <ellipse cx="658.09" cy="205.31" rx="2.23" ry="2.17" style="fill: #373e5a;stroke: #fff;stroke-miterlimit: 10"/>
              <ellipse cx="752.4" cy="394.18" rx="2.23" ry="2.17" style="fill: #373e5a;stroke: #fff;stroke-miterlimit: 10"/>
              <ellipse cx="820.9" cy="351.36" rx="2.23" ry="2.17" style="fill: #373e5a;stroke: #fff;stroke-miterlimit: 10"/>
              <ellipse cx="683.01" cy="351.36" rx="2.23" ry="2.17" style="fill: #373e5a;stroke: #fff;stroke-miterlimit: 10"/>
              <path d="M750,287l62-57.61a1.25,1.25,0,0,1,1.74,1.77l-64.12,76.75a1.28,1.28,0,0,1-2-.11L718.9,264.49a1.25,1.25,0,0,1,1.61-1.78l28.24,24.46A1.29,1.29,0,0,0,750,287Z" style="fill: #373e5a;stroke: #03a9f4;stroke-miterlimit: 10"/>
            </g>
          </g>
        </g>
        <text transform="translate(0 400.71)" style="font-size: 20px;fill: #edf0f3;font-family: WorkSans-ExtraLight, Work Sans">$10B</text>
        <text transform="translate(0 311.71)" style="font-size: 20px;fill: #edf0f3;font-family: WorkSans-ExtraLight, Work Sans">$15B</text>
        <text transform="translate(0 216.71)" style="font-size: 20px;fill: #edf0f3;font-family: WorkSans-ExtraLight, Work Sans">$20B</text>
        <text transform="translate(0 123.71)" style="font-size: 20px;fill: #edf0f3;font-family: WorkSans-ExtraLight, Work Sans">$25B</text>
        <text transform="translate(0.05 30.21)" style="font-size: 35.540000915527344px;fill: #edf0f3;font-family: Montserrat-SemiBold, Montserrat;font-weight: 700;letter-spacing: 0.040007736729651744em">$30 Billion</text>
        <line x1="60.16" y1="123.44" x2="546.4" y2="123.44" style="fill: none;stroke: #edf0f3;stroke-linecap: round;stroke-linejoin: round;opacity: 0.30000000000000004"/>
        <line x1="230.16" y1="30.3" x2="730.75" y2="30.3" style="fill: none;stroke: #edf0f3;stroke-linecap: round;stroke-linejoin: round;opacity: 0.30000000000000004"/>
        <line x1="60.16" y1="309.72" x2="183.52" y2="309.72" style="fill: none;stroke: #edf0f3;stroke-linecap: round;stroke-linejoin: round;opacity: 0.30000000000000004"/>
        <line x1="60.16" y1="216.58" x2="363.52" y2="216.58" style="fill: none;stroke: #edf0f3;stroke-linecap: round;stroke-linejoin: round;opacity: 0.30000000000000004"/>
      </g>
    </g>
  </g>
</svg>
