<svg xmlns="http://www.w3.org/2000/svg" viewBox="0 0 285.96 154.91">
<title>cWatch Medium Business</title>
<path d="M239.78 154.16v-15.93" class="green-stroke"/><path d="M246.53 123.61a7.31 7.31 0 1 0-13.5 0 10.26 10.26 0 1 0 13.5 0z" class="green-stroke-white"/><path d="M239.78 141.59v-11.51l2.28-4.45M235.88 130.53l3.9 3.4M241.08 127.53l-.92-1.54M250.04 154.16v-11.29" class="green-stroke"/><path d="M254.83 132.51a5.18 5.18 0 1 0-9.56 0 7.27 7.27 0 1 0 9.56 0z" class="green-stroke-white"/><path d="M250.04 145.25v-8.15l1.62-3.15M247.28 137.42l2.76 2.41M250.97 135.29l-.66-1.09" class="green-stroke"/><path d="M192 149.72a1.72 1.72 0 0 0-1.64-1.71 2.49 2.49 0 0 0-.76-3.26 1.37 1.37 0 0 0-1.81-2 1.78 1.78 0 0 0-1.64-1.1 1.72 1.72 0 0 0-.77.19l-.5-.37a.92.92 0 0 0 .42-.76.93.93 0 0 0-1.86-.05 9.54 9.54 0 0 0-.74-.3 1.49 1.49 0 0 0-2.17-.74 2.5 2.5 0 0 0-3.77-1.93 1 1 0 0 0 0-.2 1.09 1.09 0 1 0-1.09 1.09 1 1 0 0 0 .16 0 2.51 2.51 0 0 0-.28.64 1.15 1.15 0 0 0-1-.61 1.13 1.13 0 0 0-.62.2 1.52 1.52 0 0 0-.63-.19 1.77 1.77 0 0 0-3.42.13 1.6 1.6 0 0 0-.89-.27h-.19v15.25c.34.19-.3.35.07.48h21.89a7 7 0 0 0 .08-2.84 1.72 1.72 0 0 0 1.16-1.65z" class="green-stroke-white"/><path d="M23.51 145.25v-8.15l1.62-3.15M20.75 137.42l2.76 2.41M24.44 135.29l-.66-1.09M23.51 154.16v-11.29" class="green-stroke"/><g id="owasp"><path d="M87.77 61.29c-1.06.16-1.44 1.52-1.1 2.41A2.38 2.38 0 0 0 88 65a4.54 4.54 0 0 0 1.39.3 5.55 5.55 0 0 0 1.61-.08 3.65 3.65 0 0 0 2-1.06 1.57 1.57 0 0 0 .42-1.61" class="medium-blue-stroke"/><path d="M114.25 45a4.94 4.94 0 0 0-.61-.86 2.5 2.5 0 0 0-.79-.56 2.66 2.66 0 0 0-.94-.23 1.86 1.86 0 0 0-.65.06.66.66 0 0 0 .09-.16.46.46 0 0 0-.1-.41l-.32-.42a19.26 19.26 0 0 1-1.25-1.87q-.29-.49-.54-1l-.25-.5a4.08 4.08 0 0 0-.24-.46v-.05a1.57 1.57 0 0 0 0-1c-.09-.35-.2-.68-.31-1a12.89 12.89 0 0 1-.5-1.71 4.4 4.4 0 0 1 0-1.78 15.28 15.28 0 0 0-2.17.63l-1 1.65.07.08h-.39a2.17 2.17 0 0 0-.09 1.27c0 .08 0 .16.06.25a3.93 3.93 0 0 0-.18 1.57v.19c0 .07 0 0-.06 0a3.13 3.13 0 0 0-.3 1.71 5.31 5.31 0 0 0 .25 3.2 3.7 3.7 0 0 0 .53 1c.12.16.33.35.55.25a.54.54 0 0 0 .18-.23 2.87 2.87 0 0 1 .6.47l.78.72a.12.12 0 0 0 .19 0l.15-.25a2.87 2.87 0 0 1 .37.49 2.5 2.5 0 0 0 .82.75.13.13 0 0 0 .17 0l.06-.16.12.12.45.24.57.52v1.76a.12.12 0 0 0 .23.06 5.42 5.42 0 0 0 .5-1.43.32.32 0 0 1 .06-.1l.08.07a5.51 5.51 0 0 1 .36.42 5.16 5.16 0 0 1 .57.9.14.14 0 0 0 .26-.08 3.08 3.08 0 0 0-.63-1.63 2 2 0 0 0-.82-.58c0-.09-.12-.2-.14-.25a.9.9 0 0 0-.4-.3c-.2-.11-.42-.2-.63-.29a2.35 2.35 0 0 1-.43-.2v-.19a.19.19 0 0 0-.11-.2 3.39 3.39 0 0 0-.38-.2l-.4-.2a4 4 0 0 0-.49-.21.65.65 0 0 0 0-.09c0-.19-.1-.28-.26-.32a2.41 2.41 0 0 1-1.31-.86 9.22 9.22 0 0 0 .76-2.87 7.57 7.57 0 0 0 0-1.41 4.15 4.15 0 0 0-.36-1.47l-.14.15-.06-.17a5.11 5.11 0 0 0 .07-.62v-.24a7 7 0 0 1 .39.72 1.48 1.48 0 0 0 .6.7l.45.24a4 4 0 0 0 .42.2 16.74 16.74 0 0 0 1.56 3.71 7.2 7.2 0 0 0 .5.85.76.76 0 0 0 .71.37l.21-.06a3.25 3.25 0 0 0 .44.42 3.67 3.67 0 0 0 1.09 1.9.13.13 0 0 0 .22-.09 2.85 2.85 0 0 0 0-.7 2.3 2.3 0 0 0-.09-.36v-.12c.25 0 .51 0 .75.11a4.29 4.29 0 0 1 .84.31c.19.12.34-.01.26-.17zm-7.17-.22z" class="medium-blue"/><path d="M118.39 54.35l.66-1.9a6 6 0 0 0 1.73-.59l2 1.16-.62-2.12a6.07 6.07 0 0 0 .91-1.09l2.56-.05-1.79-1.61A6 6 0 0 0 124 47l2.19-1-2.31-.8a6 6 0 0 0-.41-1.22l1.53-1.73-2.52.22a6.08 6.08 0 0 0-1.41-1.17V39l-1.48 1.65a6 6 0 0 0-1.32-.2l-1.09-2-.57 2.19a6 6 0 0 0-1.53.6l-2-1.45.5 2.61a6.1 6.1 0 0 0-.73.95l-2.43.05 1.73 1.55a6 6 0 0 0-.2 1.27l-2.13 1 2.29.79a6 6 0 0 0 .4 1.15L111 51l2.49-.4a6.08 6.08 0 0 0 1.09.93v2.25l1.42-1.57a6 6 0 0 0 1.58.32z" class="bright-red"/><path d="M120 44a1.59 1.59 0 0 0-1.28-.3c-.27 0-.55.05-.82.09l-.39.05h-.13a.9.9 0 0 0-.51-.65l-.55-.31a4.37 4.37 0 0 1-.37-.27.51.51 0 0 0 .07-.21.52.52 0 0 0-.19-.38l-.4-.36-.23-.24-.16-.19a.12.12 0 0 0 0-.14 6.6 6.6 0 0 1-.52-.86 2.76 2.76 0 0 1-.17-.49 3 3 0 0 1-.07-.41 2.3 2.3 0 0 0 .14-.62 6.45 6.45 0 0 0 0-1 10.42 10.42 0 0 0-.28-1.9 5.32 5.32 0 0 0-.26-.81l-.06-.13a.14.14 0 0 0 .1-.07 1.26 1.26 0 0 0 .06-.68 5.57 5.57 0 0 0-.24-1 16.1 16.1 0 0 0-1.15-2.61 19.47 19.47 0 0 0-1.7-2.67 11.75 11.75 0 0 0-.94-1.09 2.42 2.42 0 0 0-1.53-.88.15.15 0 0 0-.15.11c-.35 1.77.48 1.85.88 3.47a11.82 11.82 0 0 1 .48 2 9.38 9.38 0 0 1 .06 2.6v.5a.26.26 0 0 0 .13.29c.14.09.27 0 .37-.1l.18-.14c.31.52.65 1 1 1.56s.48.89.7 1.35a6.77 6.77 0 0 0 .93 1.75 1.77 1.77 0 0 0 .71.48 3 3 0 0 0 0 1 1.16 1.16 0 0 0 .3.6.55.55 0 0 0 .35.15 1.68 1.68 0 0 0 .05.6 1.55 1.55 0 0 0 .3.64.79.79 0 0 0 .45.3.56.56 0 0 0 .18 0 2 2 0 0 0 .38.84 1.67 1.67 0 0 0 .86.73.49.49 0 0 0 .34 0 1.89 1.89 0 0 0 .15.43 3 3 0 0 0 .41.65 1.79 1.79 0 0 0 1.06.76.15.15 0 0 0 .15-.15 3.54 3.54 0 0 0-.24-.93 2.17 2.17 0 0 0-.39-.65h.35a7.67 7.67 0 0 0 1.48-.39.15.15 0 0 0 .11-.32zM105.93 46.89c-.43-.17-.92-.15-1.29-.46a6.57 6.57 0 0 0-.57-.46 1.62 1.62 0 0 0-.57-.24v-.08a8.4 8.4 0 0 1-.56-.77 10.68 10.68 0 0 1-.86-1.7 18.65 18.65 0 0 1-.62-1.82c-.18-.61-.31-1.23-.47-1.85a3.72 3.72 0 0 0 .86-.59 7.65 7.65 0 0 0 1.15-1.5l.57-.87c.19-.29.43-.54.63-.82.06-.08-.06-.21-.14-.14l-3.89-1.07s-.08-.06-.09 0c-.05.36-.07.72-.13 1.08s-.12.72-.2 1.08a13 13 0 0 0-.47 2.09 1.06 1.06 0 0 0 .21.86.77.77 0 0 0 .6.15c.19.64.41 1.27.58 1.92a16.83 16.83 0 0 1 .41 2.09c0 .35.08.7.11 1a1.67 1.67 0 0 0 .21.83 1.71 1.71 0 0 0 .77.51 1.36 1.36 0 0 0 .91.12 10.93 10.93 0 0 1 1 .78c.17.15.33.31.51.44h.09a1.6 1.6 0 0 0 .06.55 2.94 2.94 0 0 0 .26.67 3.36 3.36 0 0 0 .89 1.07c.11.09.29 0 .21-.16a3.41 3.41 0 0 1-.37-.92 4.4 4.4 0 0 1-.1-.51c0-.14 0-.29-.06-.42a3.21 3.21 0 0 1 .83.28 3.14 3.14 0 0 1 .94.77.15.15 0 0 0 .25-.15 3 3 0 0 0-1.66-1.76z" class="medium-blue"/><path d="M99.61 26.45a.82.82 0 0 0-1.17-.14 2 2 0 0 0-.57 1.12c-.14.54-.29 1.08-.39 1.64a3.71 3.71 0 0 0 .12 1.87.09.09 0 0 0 .17 0 3.14 3.14 0 0 1 .41-1.49l-.18-.09a6 6 0 0 0 .34 3.09c0 .07.16.07.15 0a2.89 2.89 0 0 1 .08-1h-.15a8.05 8.05 0 0 0 .9 2.55 3.33 3.33 0 0 0 1.23 1.37.88.88 0 0 0 1.12-.13" class="medium-blue-stroke"/><path d="M111.42 29.81a8 8 0 0 0 .22-1.14 8.25 8.25 0 0 0-.16-2.8.07.07 0 0 0-.13 0 3.08 3.08 0 0 1-.77 1.09 3.31 3.31 0 0 0 .19-.8 8.63 8.63 0 0 0-.1-1.14 7.36 7.36 0 0 0-.73-2.36 2.86 2.86 0 0 0-.66-.85.07.07 0 0 0-.11.09 3.61 3.61 0 0 1 .29 1.92 5.12 5.12 0 0 0-2.1-2.16 3.25 3.25 0 0 0-2.91.06 2.43 2.43 0 0 0-.28.19.07.07 0 0 0 .06.13 6.84 6.84 0 0 1 2.27.17 6.41 6.41 0 0 0-5.1 1.65.07.07 0 0 0 .08.11 4.46 4.46 0 0 1 2.37-.4 7.56 7.56 0 0 0-4.57 2.68M90.74 30.47c-.11-.11-.24-.2-.35-.3l-.34-.33a5.53 5.53 0 0 1-.63-.8 5.94 5.94 0 0 1-.48-.88 5.27 5.27 0 0 1-.19-.53M85.12 33.22c0 .06.1 0 .1 0a4.55 4.55 0 0 0-.2-1.49 6.88 6.88 0 0 0-.54-1.39A6.57 6.57 0 0 0 83 28.45" class="medium-blue-stroke"/><path d="M88.58 64.77c-.49.29-.93.65-1.41 1l-.33.22c-.11.07-.22.13-.24.26a.33.33 0 0 0 0 .2l-.44.2-.65.31a10 10 0 0 1-1.36.48.16.16 0 0 0-.09.23l.12.27c-.59.21-1.17.45-1.78.6s-1.35.28-2 .38a.15.15 0 0 0-.07.25 2.66 2.66 0 0 0 1.17.51 3.28 3.28 0 0 0 1.41.08 2.14 2.14 0 0 0 .24-.08c-.1.2-.18.4-.25.6a1.65 1.65 0 0 0-.11.88.16.16 0 0 0 .15.12c.27 0 .52-.27.69-.44a4.83 4.83 0 0 0 1-1.48c0-.11.13-.31.21-.52a.52.52 0 0 0 .69 0 3.37 3.37 0 0 0 .39-.43l.45-.51.42-.48.24-.27c.12.17.26.32.46.15a5.36 5.36 0 0 0 .58-.67q.26-.32.5-.67a3.93 3.93 0 0 0 .46-.76zm-4 3.69zM86.89 55.2l-1-.08c-.18.36-.31.75-.47 1.12a9.39 9.39 0 0 1-.6 1.13.17.17 0 0 0 0 .21l.12.08c-.29.27-.57.55-.88.79a5.84 5.84 0 0 1-1.16.69.16.16 0 0 0 0 .25 3.09 3.09 0 0 1 .23.27l-.57.18-.87.29a7.75 7.75 0 0 0-1.65.75 3.47 3.47 0 0 0-1.2 1.31 3.35 3.35 0 0 0-.31.88 1.18 1.18 0 0 0 .12.91c.06.09.24.13.29 0a4.28 4.28 0 0 1 .86-1.32 3.39 3.39 0 0 1 1.44-.82l.86-.27v.4c0 .13-.06.43-.1.64a6.36 6.36 0 0 1-.36 1.18.16.16 0 0 0 .22.22 3.28 3.28 0 0 0 1.45-1.53 3.5 3.5 0 0 0 .28-1c0-.11.09-.53.15-.85 0 0 0 .08.06.13a.17.17 0 0 0 .29.08 10.4 10.4 0 0 0 1-1.35c.14-.24.28-.48.4-.73a3.56 3.56 0 0 0 .27-.65 3.76 3.76 0 0 0 .42.18.17.17 0 0 0 .19-.08 6.17 6.17 0 0 0 .52-3.01z" class="medium-blue"/><path d="M88.2 29.64c.38.09-.27.14-.39.23a5.3 5.3 0 0 0-.88.94 24.29 24.29 0 0 0-2.11 3.37 41.21 41.21 0 0 0-2 4.16 23.4 23.4 0 0 0-.69 1.93 10.29 10.29 0 0 0-.38 1.6 3.84 3.84 0 0 0 0 .73" class="medium-blue-stroke"/><path d="M88.22 29.73h.53a5.89 5.89 0 0 1 1.13.41 7 7 0 0 1 2.59 2 5.75 5.75 0 0 1 .91 1.7 6.07 6.07 0 0 1 .28 2.2 7.66 7.66 0 0 1-.18 1.3c-.07.33-.17 1-.59 1M89.92 55.62a.84.84 0 0 0-.29.7.56.56 0 0 0 .18.3 1.53 1.53 0 0 0 .69.32 5.88 5.88 0 0 0 2.09.06 4.46 4.46 0 0 0 1.41-.4 1.11 1.11 0 0 0 .44-.37.81.81 0 0 0 .09-.56 1.37 1.37 0 0 0-.2-.59M88.9 58.37a.84.84 0 0 0 .42.52 3.26 3.26 0 0 0 .77.32 8.37 8.37 0 0 0 1.78.33c.3 0 .61 0 .91.05a7.32 7.32 0 0 0 .87 0 2 2 0 0 0 1-.31M87.86 60.28a1.08 1.08 0 0 0 .24.74 1.87 1.87 0 0 0 .5.4 7.11 7.11 0 0 0 2 .76 8.05 8.05 0 0 0 2.35.25 3.4 3.4 0 0 0 .46-.06M64 51.07a9.8 9.8 0 0 0-.87 3 13.67 13.67 0 0 0-.06 3.15 13.94 13.94 0 0 0 .5 2.61 7.64 7.64 0 0 0 .69 1.7 1.37 1.37 0 0 0 .67.66 1 1 0 0 0 .78-.14c.23-.12.43-.28.65-.42a12.38 12.38 0 0 1 2.38-1.07 13 13 0 0 0 2.13-.88 4.05 4.05 0 0 0 1.59-1.62 4.67 4.67 0 0 0 .57-2 2.32 2.32 0 0 0-.26-1.15A3.86 3.86 0 0 0 72 54M64.84 48.84a1.6 1.6 0 0 1-.77 1.67.12.12 0 0 0 0 .16" class="medium-blue-stroke"/><path d="M78.8 39.89l.39.63c.12.19.23.39.36.57a3.56 3.56 0 0 0 .91 1c.25.17.56.36.48.72s-.31.28-.56.39a3.15 3.15 0 0 1-1.25.26 3.27 3.27 0 0 1-1.37-.27 4.39 4.39 0 0 1-.76-.45 15.2 15.2 0 0 1-1.69-1.47l-1.79-1.77a16 16 0 0 0-1.74-1.5 3.56 3.56 0 0 0-1.57-.74 1 1 0 0 0-.66.12 3.12 3.12 0 0 0-.81.69 3.29 3.29 0 0 0-.89 2.5.93.93 0 0 0 .33.67 1.61 1.61 0 0 0 .66.23c.24 0 .48.07.71.12a5.05 5.05 0 0 1 .67.2c1.81.68 3.1 2.18 4.64 3.28a8.9 8.9 0 0 0 1.21.74 5.09 5.09 0 0 1 1.28.79 1.8 1.8 0 0 1 .57 1.15 2.33 2.33 0 0 1-.23 1.17 2.46 2.46 0 0 1-1.76 1.46 1.36 1.36 0 0 1-1.14-.38 4.4 4.4 0 0 1-.79-1.21 10.07 10.07 0 0 0-1.15-1.68 18.26 18.26 0 0 0-1.77-1.89 11.28 11.28 0 0 0-2-1.53l-.49-.26-1-.45a1.2 1.2 0 0 0-.55 0 2 2 0 0 0-.72.4 5.22 5.22 0 0 0-2 3.92 4.58 4.58 0 0 0 0 .77 1.05 1.05 0 0 0 .42.7 2.71 2.71 0 0 0 .78.44l.28.12a2.33 2.33 0 0 0 .32.16l.7.24a11.9 11.9 0 0 0 1.6.35c.76.12 1.53.2 2.29.3a11.07 11.07 0 0 1 2.07.42 2.59 2.59 0 0 1 1.37.89 1.59 1.59 0 0 1 .26.72 2.55 2.55 0 0 1-.12 1.13 1.22 1.22 0 0 1-.7.76 2.06 2.06 0 0 1-1.3 0 15.06 15.06 0 0 1-2.59-1.43 4 4 0 0 0-1.48-.48c-.58-.06-1.16 0-1.74-.13a4 4 0 0 1-1.44-.51 2.88 2.88 0 0 1-1.08-1M67.64 60.8c0-.05.11 0 .09 0A13.57 13.57 0 0 0 67 64a11.31 11.31 0 0 0 .64 5 .12.12 0 0 1-.17.15 5.89 5.89 0 0 1-2-2.58 8.3 8.3 0 0 1-.47-1.71c-.1-.56-.14-1.12-.19-1.68a3.83 3.83 0 0 0-.08-.51c0-.18-.11-.36-.16-.54s.1-.13.15-.07M72 34.44a2.29 2.29 0 0 0-.35.24l-.35.32a5 5 0 0 0-.63.61 2.61 2.61 0 0 0-.67 1.47M62.91 21.76a1.12 1.12 0 0 0-.11.23 1.37 1.37 0 0 0 .2 1.16 7.08 7.08 0 0 0 .82 1c.3.33.61.64.93.94a19.59 19.59 0 0 0 4.37 3.15 10 10 0 0 0 2.12.84 6.44 6.44 0 0 0 2.69 0c1-.17 1.93-.44 2.9-.62a19.4 19.4 0 0 1 3.17-.17 42.07 42.07 0 0 0 6.24-.29 16.68 16.68 0 0 0 4.93-1.78c1.89-1 3.72-2.22 5.81-2.73M82.75 38a10 10 0 0 0-.24-3.18 7.94 7.94 0 0 0-1.37-3 6.52 6.52 0 0 0-2-1.78 5.76 5.76 0 0 0-.6-.28c-.22-.09-.45-.16-.68-.24a1.13 1.13 0 0 1-.57-.43M77.26 29.2c-.06-.22-.53 0-.64.09a3 3 0 0 0-.61.39 2.68 2.68 0 0 0-.83 1.17.87.87 0 0 0 0 .22M52.94 11.72a.08.08 0 0 0 .08-.14C50.8 10.09 50 7.48 49.28 5c-.32-1.14-.66-2.69.32-3.61a3 3 0 0 1 2.05-.6h2.15c6-.07 12.2.15 17.85 2.5a54.7 54.7 0 0 1 4.68 2.29c1.92 1 3.81 2.13 5.69 3.25 4 2.42 8 5 11.93 7.62 2.54 1.72 5.08 3.48 7.5 5.38M51 16.36a3.33 3.33 0 0 1-2.08-.59 4.3 4.3 0 0 1-1.07-1.26c-.28-.45-.54-.9-.85-1.32a19 19 0 0 1-1.76-2.51 3.93 3.93 0 0 1-.43-1.42A1.46 1.46 0 0 1 45 8.17a1.18 1.18 0 0 1 .63-.33 7.91 7.91 0 0 1 1.52-.25 12.72 12.72 0 0 1 2.8.23M54.72 14.9a8.16 8.16 0 0 1-2.78 1.32 4.15 4.15 0 0 1-.94.14M52.23 18.17a1.46 1.46 0 0 1-.59-.26 2.4 2.4 0 0 1-.8-1.12l-.12-.32M62.74 23.31h-1.32c-.64 0-1.27 0-1.91-.07a9.94 9.94 0 0 1-3.3-.82 6.5 6.5 0 0 1-2.38-1.82 8.2 8.2 0 0 1-.82-1.41 3 3 0 0 0-.38-.58" class="medium-blue-stroke"/><path d="M56.58 15.63a8.73 8.73 0 0 0 3.84 4.75 8.65 8.65 0 0 0 2.92 1.1 11.37 11.37 0 0 0 3.58 0 17.41 17.41 0 0 0 3.89-1c.69-.27 1.34-.63 2-.88a11 11 0 0 1 2.56-.57 40.3 40.3 0 0 1 8.22.16c4.62.42 9.22 1.09 13.8 1.77.61.09 1.21.17 1.82.28a8.06 8.06 0 0 1 1.58.37M60.8 13.28a35.55 35.55 0 0 0-4.17 2.23.11.11 0 0 0 0 .12" class="medium-blue-stroke"/><path d="M60.38 8.32a17.73 17.73 0 0 0-1.89.77l-1.82.8-1.81.81-.91.41c-.26.12-.54.23-.79.37a1.08 1.08 0 0 0-.49.51 1 1 0 0 0 .06.77 2.85 2.85 0 0 0 .47.67l.52.56a4.74 4.74 0 0 0 2.43 1.42 2.36 2.36 0 0 0 .75 0M73.25 60.34c-.45 0-.89-.11-1.34-.19a3.66 3.66 0 0 0-1.77-.08M93.27 62.3s.1.23-.05.3c0 0 .61.84-.88 2 0 0-3.24 1.75-5.41-.6a2 2 0 0 1 .84-2.71 1.4 1.4 0 0 1 .16-.69 1.46 1.46 0 0 1 .87-1.44s-.12-.24.23-.53a1.11 1.11 0 0 1 .69-1.23 1 1 0 0 1 .21-.79s-.52-.16.12-1.33a1.51 1.51 0 0 1-.24-1.28c.22-.64-.89-3.61-1.15-3.66h.07a13.58 13.58 0 0 1 .18 1.4 4.82 4.82 0 0 1-.16 1.9 1.8 1.8 0 0 1-.38.66 2.84 2.84 0 0 1-.68.51 5.19 5.19 0 0 1-2 .61 4.08 4.08 0 0 1-2.16-.32h-.1a7.87 7.87 0 0 1-4 3.18l.15-.08a.9.9 0 0 1-.13.15 4.47 4.47 0 0 1-.77.55 11 11 0 0 1-1.14.6 9.19 9.19 0 0 1-2.76.83 7.77 7.77 0 0 1-1.54 0" class="medium-blue-stroke"/><path d="M91.33 39.58a7.75 7.75 0 0 1-.21 4.08.92.92 0 0 1-.37.41 1 1 0 0 0-.44 1l.27 1.27a.67.67 0 0 0 .12.26l2.92 3.84a2.15 2.15 0 0 1 .38 1.63l-.17 1.15a2.3 2.3 0 0 1 .74 1.9 2 2 0 0 1-.39 1s.38.48.23.88a.82.82 0 0 1-.29.37 1 1 0 0 1 .45 1.81l-.15.13s.08.2-.22.58l-.13.18a1.62 1.62 0 0 1 .22 1.48 1.2 1.2 0 0 1-1.06.77" class="medium-blue-stroke"/><path d="M118.35 16.25L120 16h.15l.74-.31.57-.42.21.63a1.3 1.3 0 0 1 0 .82l-.66 2-.32.83a4.69 4.69 0 0 0 .1 1 36.81 36.81 0 0 1 1.07 5.41s.68 7.1 1.41 8.8 0 .09 0 .09.11 1 .14 1.83a1 1 0 0 1-1.18 1 6.41 6.41 0 0 1-1.32-.48.57.57 0 0 0-.25-.07c-.59 0-3-.15-4-1.49-1.07-1.5-2.28-3.6-5.18-3.15a.67.67 0 0 0-.29.12 4.28 4.28 0 0 1-3 .72h-.11a5.18 5.18 0 0 0-2.63 1.18v.09a2.25 2.25 0 0 1-1.84 1.27 1.56 1.56 0 0 1-1.82-.91s-.32.75-.72.81c0 0-.28.1-.55-.27a2.27 2.27 0 0 1-3.3-.42.65.65 0 0 0-1 0c-.83 1.14-2.57 3.25-4.41 3.8a.68.68 0 0 0-.49.76" class="medium-blue-stroke"/><path d="M94.43 16.53s.26-.69 1.82-1.11a4.44 4.44 0 0 0-2 .18A11.59 11.59 0 0 1 99 13.7l-1.9-.38a11.77 11.77 0 0 1 6.7-.32 9.28 9.28 0 0 0-1.35-1 15.6 15.6 0 0 1 7 3.26s0-.5-1.11-1.41a4.29 4.29 0 0 1 3 2.74s.22.28.74 0c0 0 1.11-.53 1.25-1.21a.81.81 0 0 1 0 .65 5.08 5.08 0 0 0 1-1.91 1 1 0 0 1 .17.94.46.46 0 0 1 .39 0 5 5 0 0 0 1.44-1.79l.43-.22a2.15 2.15 0 0 1 .3 1.3l-.06.64a.67.67 0 0 0 .18.52l.56.6a.67.67 0 0 0 .6.2M82.2 39.14a4.65 4.65 0 0 0-.3-1.16 10.9 10.9 0 0 0-.56-1.31 11.73 11.73 0 0 0-1.44-2.18 12.33 12.33 0 0 0-3.15-2.71 6.8 6.8 0 0 0-1.15-.57 1.86 1.86 0 0 0-.91-.13 2.69 2.69 0 0 0-.66.22 6.23 6.23 0 0 0-1.56 1 2.38 2.38 0 0 0-.9 1.37c-.08.62.47 1 1 1.23.22.09.46.16.69.23l.74.27a9.86 9.86 0 0 1 1.27.63 9 9 0 0 1 3.05 3.07c.29.47.55 1 .82 1.45a5.51 5.51 0 0 0 .73 1.09 1.27 1.27 0 0 0 1.7.29" class="medium-blue-stroke"/><path d="M137.7 11.23a.55.55 0 0 0-.52-.41 2.17 2.17 0 0 0-.62.11 4.17 4.17 0 0 0-.69.25 3.31 3.31 0 0 0-1.09.82.44.44 0 0 0-.41-.26 1.69 1.69 0 0 0-.93.44 4.71 4.71 0 0 0-.58.53 1.66 1.66 0 0 0-.19.24.62.62 0 0 0-.06.13.4.4 0 0 0-.11-.08.86.86 0 0 0-.7.15 3.49 3.49 0 0 0-.54.39 1 1 0 0 0-.35.55.4.4 0 0 0-.39 0 3.08 3.08 0 0 0-.78.43c-.25.19-.64.56-.65.91a1.53 1.53 0 0 0-1.25 1 2 2 0 0 0-.53.42 6 6 0 0 0-.45.52c-.29.37-.54.77-.79 1.16a6.32 6.32 0 0 1-.87 1.2 3.53 3.53 0 0 1-1.1.66c-.39.16-.79.29-1.19.45a3 3 0 0 0-1.08.61l-.05.85a7.74 7.74 0 0 0 .75-.32l.41-.15.8-.27.81-.23.81-.19a1.25 1.25 0 0 0 .6-.36 2.69 2.69 0 0 0 .37-.56 11.5 11.5 0 0 1 .78-1.25c.23-.32.44-.56.68-.86 0 0 0 .09.07.1a1.31 1.31 0 0 0 1-.45 1.69 1.69 0 0 0 .34-.65.82.82 0 0 0 .67-.1 1.89 1.89 0 0 0 .5-.41 2.66 2.66 0 0 0 .43-.69.53.53 0 0 0 .39.14.91.91 0 0 0 .47-.18 2.44 2.44 0 0 0 .7-.89V15a1.1 1.1 0 0 0 .52.12 1.72 1.72 0 0 0 .5 0 1.54 1.54 0 0 0 .84-.54 2.3 2.3 0 0 0 .39-.8 2.31 2.31 0 0 1 .52.08 1.61 1.61 0 0 0 .88 0 2.42 2.42 0 0 0 1-.76 3.1 3.1 0 0 0 .56-1 1.44 1.44 0 0 0 .13-.87z" class="medium-blue"/><path d="M141.57 15.52a.62.62 0 0 0-.48-.57 2.41 2.41 0 0 0-.7 0 4.63 4.63 0 0 0-.81.12 3.68 3.68 0 0 0-1.36.65.49.49 0 0 0-.39-.37 1.88 1.88 0 0 0-1.11.27 5.23 5.23 0 0 0-.75.45 1.84 1.84 0 0 0-.26.22.69.69 0 0 0-.1.13.45.45 0 0 0-.1-.11 1 1 0 0 0-.8 0 3.88 3.88 0 0 0-.67.31 1.1 1.1 0 0 0-.5.53.45.45 0 0 0-.42-.09 3.42 3.42 0 0 0-.94.3c-.32.15-.83.46-.91.85a1.71 1.71 0 0 0-1.58.76 2.2 2.2 0 0 0-.67.34 6.67 6.67 0 0 0-.61.47c-.4.34-.76.71-1.12 1.09a7 7 0 0 1-1.21 1.13 3.92 3.92 0 0 1-1.35.48c-.46.09-.93.14-1.39.22a3.35 3.35 0 0 0-1.31.42l-.25.92a8.61 8.61 0 0 0 .89-.18l.48-.08.93-.11.93-.07h.92a1.39 1.39 0 0 0 .73-.25 3 3 0 0 0 .53-.52 12.78 12.78 0 0 1 1.13-1.19c.32-.3.6-.51.93-.79 0 0 0 .11.05.12a1.45 1.45 0 0 0 1.24-.25 1.88 1.88 0 0 0 .52-.64.91.91 0 0 0 .75 0 2.1 2.1 0 0 0 .64-.34 3 3 0 0 0 .62-.65.59.59 0 0 0 .4.24 1 1 0 0 0 .55-.09 2.71 2.71 0 0 0 1-.81v.08a1.23 1.23 0 0 0 .54.25 1.91 1.91 0 0 0 .55.07 1.71 1.71 0 0 0 1-.4 2.55 2.55 0 0 0 .61-.79 2.57 2.57 0 0 1 .54.2 1.79 1.79 0 0 0 1 .17 2.69 2.69 0 0 0 1.28-.6 3.44 3.44 0 0 0 .83-.94 1.6 1.6 0 0 0 .2-.95z" class="medium-blue"/><path d="M91.33 39.58a3.09 3.09 0 0 0-5.94.05c-1.38 5-5 15.5-12.18 20.72" class="medium-blue-stroke"/><path d="M115.34 22a1.88 1.88 0 0 1 .26-.69 1.46 1.46 0 0 1 .79-.6 1.86 1.86 0 0 1 1.05 0l.22.09a5.25 5.25 0 0 1 .94.51 3.63 3.63 0 0 1 .69.61 4.46 4.46 0 0 1 .78 1.32 9 9 0 0 1 .51 2.15 11.05 11.05 0 0 1 0 2.45 10.7 10.7 0 0 1-.19 1.21 5.93 5.93 0 0 1-.32 1.09 1 1 0 0 1-.68.66 1.16 1.16 0 0 1-1-.48 8 8 0 0 1-.64-.87q-.3-.45-.57-.92a16.11 16.11 0 0 1-1-2.06 13.79 13.79 0 0 1-.66-2.17 8 8 0 0 1-.19-2.1z" class="medium-blue"/><path d="M111.29 17.37a1.36 1.36 0 0 0-.69 1.63" class="medium-blue-stroke"/></g><path d="M194.13 154.75l.37-2a6 6 0 0 0 1.63-.84l2.12.86-.93-2a6.07 6.07 0 0 0 .75-1.22l2.52-.43-2-1.33a6 6 0 0 0 0-1.2l2-1.29-2.41-.45a6 6 0 0 0-.58-1.15l1.28-1.92-2.46.59a6.08 6.08 0 0 0-1.57-1l-.38-2.27-1.18 1.9a6 6 0 0 0-1.33 0l-1.38-1.85-.25 2.25a6 6 0 0 0-1.43.81l-2.18-1.14.87 2.5a6.1 6.1 0 0 0-.58 1l-2.39.41 1.94 1.28a6 6 0 0 0 0 1.28l-2 1.25 2.38.44a6 6 0 0 0 .56 1.08l-1.19 2.11 2.4-.76a6.08 6.08 0 0 0 1.21.76l.38 2.22 1.13-1.72a6 6 0 0 0 1.61.09z" class="bright-red"/><path d="M185.51 143.06l.66-1.9a6 6 0 0 0 1.73-.59l2 1.16-.62-2.12a6.07 6.07 0 0 0 .91-1.09l2.56-.05-1.79-1.61a6 6 0 0 0 .21-1.18l2.19-1-2.31-.8a6 6 0 0 0-.41-1.22l1.55-1.72-2.52.22a6.08 6.08 0 0 0-1.41-1.17v-2.3l-1.48 1.65a6 6 0 0 0-1.32-.2l-1.09-2-.57 2.19a6 6 0 0 0-1.53.6l-2-1.45.5 2.61a6.1 6.1 0 0 0-.73.95l-2.43.05 1.73 1.55a6 6 0 0 0-.2 1.27l-2.13 1 2.29.79a6 6 0 0 0 .4 1.15l-1.48 1.91 2.49-.4a6.08 6.08 0 0 0 1.09.93v2.25l1.37-1.53a6 6 0 0 0 1.58.32z" class="bright-red"/><path d="M178.75 154.62l.28-2a6 6 0 0 0 1.59-.91l2.15.77-1-2a6.07 6.07 0 0 0 .69-1.25l2.5-.54-2.07-1.24a6 6 0 0 0 0-1.2l2-1.37-2.42-.34a6 6 0 0 0-.63-1.12l1.19-2-2.44.69a6.08 6.08 0 0 0-1.61-.88l-.48-2.25-1.14 1.9a6 6 0 0 0-1.33 0l-1.46-1.79-.15 2.26a6 6 0 0 0-1.39.88l-2.22-1 1 2.46a6.1 6.1 0 0 0-.54 1.07l-2.37.51 2 1.19a6 6 0 0 0 0 1.28l-1.91 1.34 2.4.34a6 6 0 0 0 .61 1.05l-1.09 2.16 2.37-.86a6.08 6.08 0 0 0 1.24.71l.47 2.2L176 153a6 6 0 0 0 1.62 0zM213.5 154.73l.36-2a6 6 0 0 0 1.62-.85l2.12.85-.94-2a6.07 6.07 0 0 0 .74-1.22l2.52-.45-2-1.31a6 6 0 0 0 0-1.2l2-1.3-2.41-.43a6 6 0 0 0-.59-1.15l1.26-1.93-2.46.6a6.08 6.08 0 0 0-1.58-.94l-.4-2.27-1.18 1.87a6 6 0 0 0-1.33 0l-1.39-1.84-.23 2.25a6 6 0 0 0-1.42.82l-2.19-1.12.89 2.5a6.1 6.1 0 0 0-.57 1l-2.39.42 1.95 1.26a6 6 0 0 0 0 1.28l-2 1.27 2.38.43a6 6 0 0 0 .57 1.08l-1.17 2.12 2.4-.78a6.08 6.08 0 0 0 1.22.76l.39 2.21 1.12-1.73a6 6 0 0 0 1.62.08z" class="bright-red"/><path d="M180.51 154.16v-11.29" class="green-stroke"/><path d="M185.29 132.51a5.18 5.18 0 1 0-9.56 0 7.27 7.27 0 1 0 9.56 0z" class="green-stroke-white"/><path d="M180.51 145.25v-8.15l1.62-3.15M177.75 137.42l2.76 2.41M181.44 135.29l-.66-1.09" class="green-stroke"/><path d="M6.11 154.68L7.29 153a6 6 0 0 0 1.83 0l1.54 1.69v-2.21a6.07 6.07 0 0 0 1.19-.78l2.46.69-1.25-2.06a6 6 0 0 0 .55-1.07L16 149l-2-1.44a6 6 0 0 0 0-1.29l2-1.27-2.48-.53a6.08 6.08 0 0 0-1-1.53l.63-2.22-1.89 1.15a6 6 0 0 0-1.2-.58l-.45-2.26L8.39 141a6 6 0 0 0-1.64.12l-1.48-2-.27 2.67a6.1 6.1 0 0 0-1 .69l-2.34-.66 1.2 2a6 6 0 0 0-.54 1.18l-2.32.25 2 1.42a6 6 0 0 0 0 1.22l-2 1.39 2.5.34a6.08 6.08 0 0 0 .77 1.21L2.69 153l1.76-1.07a6 6 0 0 0 1.42.77z" class="bright-red"/><path d="M7.92 151.32a7 7 0 0 0 .08 2.84h21.9c.37-.13-.27-.29.07-.48v-15.24h-.19a1.6 1.6 0 0 0-.89.27 1.77 1.77 0 0 0-3.42-.13 1.52 1.52 0 0 0-.63.19 1.13 1.13 0 0 0-.62-.2 1.15 1.15 0 0 0-1 .61 2.51 2.51 0 0 0-.28-.64 1 1 0 0 0 .16 0 1.09 1.09 0 1 0-1.1-1.08 1 1 0 0 0 0 .2 2.5 2.5 0 0 0-3.77 1.93 1.49 1.49 0 0 0-2.17.74c-.25.09-.5.19-.74.3a.93.93 0 0 0-1.86.05.92.92 0 0 0 .42.76l-.5.37a1.72 1.72 0 0 0-.77-.19 1.78 1.78 0 0 0-1.64 1.1 1.37 1.37 0 0 0-1.81 2 2.49 2.49 0 0 0-.71 3.28 1.72 1.72 0 0 0-.53 3.32zm15.35-11a1.42 1.42 0 0 0 .13.15l-.15.07c-.02-.06.01-.13.02-.2z" class="green-stroke-white"/><path d="M17.36 154.77l1.17-1.64a6 6 0 0 0 1.83-.07l1.55 1.68v-2.21a6.07 6.07 0 0 0 1.19-.79l2.46.68-1.26-2.05a6 6 0 0 0 .54-1.07l2.38-.31-2-1.42a6 6 0 0 0 0-1.29l2-1.2-2.48-.51a6.08 6.08 0 0 0-1-1.53l.61-2.22-1.94 1.18a6 6 0 0 0-1.21-.57l-.47-2.26-1.18 1.93a6 6 0 0 0-1.64.13l-1.49-2-.27 2.64a6.1 6.1 0 0 0-1 .7l-2.34-.65 1.21 2a6 6 0 0 0-.56 1.16l-2.31.3 2 1.41a6 6 0 0 0 .05 1.22l-2 1.41 2.5.33a6.08 6.08 0 0 0 .77 1.2l-.6 2.17 1.81-1.12a6 6 0 0 0 1.43.76z" class="bright-red"/><path d="M28.29 132.51a5.18 5.18 0 1 0-9.56 0 7.27 7.27 0 1 0 9.56 0z" class="green-stroke-white"/><g id="medium-sized-businesses"><rect width="136.46" height="90.93" x="31.27" y="63.07" class="grey-stroke-white" rx=".5" ry=".5"/><rect width="141.43" height="7.21" x="28.79" y="57.5" class="grey-stroke-white" rx=".5" ry=".5"/><rect width="141.43" height="2" x="28.79" y="64.71" class="grey-stroke-white" rx=".5" ry=".5"/><path d="M38.53 94.48V73.23a1.4 1.4 0 0 1 1.24-1.51h17M38.53 122.23V101a1.4 1.4 0 0 1 1.24-1.51h17M59.06 94.48V73.23a1.4 1.4 0 0 1 1.24-1.51h17M59.06 122.23V101a1.4 1.4 0 0 1 1.24-1.51h17M79.79 94.48V73.23A1.4 1.4 0 0 1 81 71.72h17M79.79 122.23V101A1.4 1.4 0 0 1 81 99.48h17M100.32 94.48V73.23a1.4 1.4 0 0 1 1.24-1.51h17M100.32 122.23V101a1.4 1.4 0 0 1 1.24-1.51h17M122 94.48V73.23a1.4 1.4 0 0 1 1.24-1.51h17M122 122.23V101a1.4 1.4 0 0 1 1.24-1.51h17M142.76 94.48V73.23a1.4 1.4 0 0 1 1.24-1.51h17M142.76 122.23V101a1.4 1.4 0 0 1 1.24-1.52h17" class="grey-stroke-white"/><path d="M86.18 135.88H31.54a.5.5 0 0 1-.5-.5v-12.65a.5.5 0 0 1 .5-.5h135.81a.5.5 0 0 1 .5.5v12.64a.5.5 0 0 1-.5.5h-54.27" class="grey-stroke-white"/><rect width="17.59" height="21.73" x="90.71" y="132.44" class="grey-stroke" rx=".5" ry=".5"/><path d="M99.5 132.44v21.72" class="grey-stroke"/><path d="M86.18 140.05H26.41a.5.5 0 0 1-.5-.5v-3.18a.5.5 0 0 1 .5-.5h59.77zM113.08 140.05h59.6a.5.5 0 0 0 .5-.5v-3.18a.5.5 0 0 0-.5-.5h-59.6zM162.38 140.05h6.33v13.94h-6.33zM29.88 140.05h6.3v13.94h-6.3zM83.17 142.3V154h-6.29v-13.94h6.29v2.24M53.88 140.05h6.3v13.94h-6.3zM116.08 140.05h6.3v13.94h-6.3zM138.08 140.05h6.3v13.94h-6.3z" class="grey-stroke-white"/><rect width="39.2" height="6.72" x="80.03" y="127.72" class="grey-stroke-white" rx=".5" ry=".5"/></g><g id="worm"><path d="M154.67 57.71c-3.13.21-3.08 6.65-1.68 11.19 7.25 23.42-13 37.66-22.09 41.33a7.58 7.58 0 1 1-5.7-14.05c1.5-.64 14.77-7.1 12.36-25.35-1.18-8.95-.08-15.41 3.37-19.75a13.71 13.71 0 0 1 9.65-5.16 16.86 16.86 0 0 1 17 10.46l.26.87-13.54.56" class="medium-blue-stroke-white"/><path d="M165.91 52.41l4.9-1.6-3.89 3.42a3.5 3.5 0 0 1-1-1.82zM164 50.85a3.51 3.51 0 0 0 .95.65l2.57-4.5-4.11 3.11a3.51 3.51 0 0 0 .59.74zm-3.21-2.91a3.51 3.51 0 0 0 1.05.45l1.67-4.91-3.44 3.83a3.51 3.51 0 0 0 .71.63zm-3.52-1.44a3.51 3.51 0 0 0 1.13.2l.5-5.16-2.47 4.52a3.51 3.51 0 0 0 .83.44zm-3.69-.89a3.51 3.51 0 0 0 1.15 0l-.48-5.16-1.57 4.91a3.51 3.51 0 0 0 .89.24zm-3.16 0a3.51 3.51 0 0 0 1.11-.3l-1.76-4.87-.29 5.14a3.51 3.51 0 0 0 .93 0zm-3.64.94a3.51 3.51 0 0 0 1-.56l-2.88-4.31.95 5.07a3.51 3.51 0 0 0 .93-.23zm-3.36 1.76a3.51 3.51 0 0 0 .85-.77L140.5 44l2.06 4.72a3.51 3.51 0 0 0 .86-.44zm-2.64 2.55a3.51 3.51 0 0 0 .6-1l-4.63-2.33 3.32 3.94a3.51 3.51 0 0 0 .71-.63zm-2.14 3.62a3.51 3.51 0 0 0 .35-1.09l-5-1.16 4.16 3a3.51 3.51 0 0 0 .5-.78zm-.85 4.25a3.51 3.51 0 0 0 .05-1.15l-5.18.18 4.81 1.86a3.51 3.51 0 0 0 .33-.92zm-.93 4.78a3.51 3.51 0 0 0-.16-1.14l-5.06 1.14 5.07.93a3.51 3.51 0 0 0 .16-.96zm.11 4.66a3.51 3.51 0 0 0-.26-1.12l-4.94 1.55 5.13.51a3.51 3.51 0 0 0 .1-.97zm.46 4.59a3.51 3.51 0 0 0-.29-1.11l-4.9 1.69 5.14.37a3.51 3.51 0 0 0 .06-.97zm0 5.78a3.51 3.51 0 0 0-.05-1.15l-5.14.65 5 1.42a3.51 3.51 0 0 0 .23-.94zm-1.12 4.3a3.51 3.51 0 0 0 .17-1.14l-5.17-.35 4.59 2.34a3.51 3.51 0 0 0 .45-.87zm-2.18 4.92a3.51 3.51 0 0 0 .43-1.07l-4.95-1.55 3.92 3.35a3.51 3.51 0 0 0 .64-.75zm-4.1 4.95a3.51 3.51 0 0 0 .8-.82l-4-3.31 2.36 4.58a3.51 3.51 0 0 0 .87-.47zm-4 2.75a3.51 3.51 0 0 0 .93-.67l-3.37-3.94 1.54 4.92a3.51 3.51 0 0 0 .87-.34zm-2.82 1.71a3.51 3.51 0 0 0 .86-.76l-3.75-3.58 2 4.74a3.51 3.51 0 0 0 .9-.42zM121 100a3.51 3.51 0 0 0 .4-1.08l-5-1.41 4 3.24a3.51 3.51 0 0 0 .6-.75zm8.44 10.75a3.51 3.51 0 0 0-1 .47l2.47 4.56-.48-5.13a3.51 3.51 0 0 0-.96.11zm3.25-1a3.51 3.51 0 0 0-1 .61l3.07 4.17-1.18-5a3.51 3.51 0 0 0-.85.18zm3.49-1.94a3.51 3.51 0 0 0-.92.69l3.44 3.88-1.63-4.89a3.51 3.51 0 0 0-.85.29zm3.5-2.33a3.51 3.51 0 0 0-.88.74l3.65 3.68-1.9-4.79a3.51 3.51 0 0 0-.83.34zm3.19-2.51a3.51 3.51 0 0 0-.75.87l4.17 3.07-2.61-4.44a3.51 3.51 0 0 0-.78.47zm3.16-3.2a3.51 3.51 0 0 0-.64 1l4.53 2.51-3.16-4.07a3.51 3.51 0 0 0-.69.53zm2.43-2.82a3.51 3.51 0 0 0-.54 1l4.75 2.07-3.53-3.75a3.51 3.51 0 0 0-.64.65zm2-3.06a3.51 3.51 0 0 0-.41 1.07l5 1.46-4-3.28a3.51 3.51 0 0 0-.52.72zm3.22-7.4a3.51 3.51 0 0 0-.14 1.14l5.18.21-4.65-2.22a3.51 3.51 0 0 0-.32.83zm.85-4.08a3.51 3.51 0 0 0 0 1.15l5.17-.41-4.88-1.65a3.51 3.51 0 0 0-.23.87zm.25-4.42a3.51 3.51 0 0 0 .19 1.13l5-1.25L155 77a3.51 3.51 0 0 0-.16 1zm-.31-3.81a3.51 3.51 0 0 0 .32 1.1l4.84-1.85-5.15-.21a3.51 3.51 0 0 0 .05.93zm-.81-4a3.51 3.51 0 0 0 .44 1.06l4.61-2.37-5.14.37a3.51 3.51 0 0 0 .15.94zm-1-3.86a3.51 3.51 0 0 0 .36 1.09l4.77-2h-5.15a3.51 3.51 0 0 0 .04.91zm-.27-4.08a3.51 3.51 0 0 0 .09 1.14l5.12-.82-5-1.25a3.51 3.51 0 0 0-.19.93zm.9-3.47a3.51 3.51 0 0 0-.4 1.08l5 1.41-4-3.24a3.51 3.51 0 0 0-.59.75zm-1 31.45a3.51 3.51 0 0 0-.28 1.11l5.11.88-4.33-2.8a3.51 3.51 0 0 0-.48.82z" class="medium-blue"/><path d="M163 52.24l2.78-.6-1.64 2.23a3.93 3.93 0 0 1-1.14-1.63zm-1.75-1.5a3.93 3.93 0 0 0 .88.55l1-2.59-2.53 1.3a3.93 3.93 0 0 0 .66.73zm-3.16-1.87a3.93 3.93 0 0 0 1 .29l.22-2.76-2 2a3.93 3.93 0 0 0 .79.47zm-3-.92a3.93 3.93 0 0 0 1 0l-.52-2.72-1.45 2.45a3.93 3.93 0 0 0 .96.27zm-2.88-.26a3.93 3.93 0 0 0 1-.25l-1.21-2.5-.77 2.73a3.93 3.93 0 0 0 .97.02zm-2.93.51a3.93 3.93 0 0 0 .95-.41l-1.59-2.26-.31 2.82a3.93 3.93 0 0 0 .94-.16zM146 49.42a3.93 3.93 0 0 0 .83-.62L144.8 47l.34 2.82a3.93 3.93 0 0 0 .86-.4zm-2.28 1.88a3.93 3.93 0 0 0 .56-.87l-2.58-1 1.3 2.52a3.93 3.93 0 0 0 .75-.66zm-2 2.41a3.93 3.93 0 0 0 .4-1l-2.71-.55 1.71 2.27a3.93 3.93 0 0 0 .63-.73zM140.08 57a3.93 3.93 0 0 0 .2-1h-2.76l2.14 1.87a3.93 3.93 0 0 0 .42-.87zm-.56 3.14a3.93 3.93 0 0 0-.08-1l-2.66.77 2.57 1.21a3.93 3.93 0 0 0 .17-1.02zm-.11 2.86a3.93 3.93 0 0 0-.14-1l-2.61.91 2.63 1.07a3.93 3.93 0 0 0 .12-.98zm-.07 3.13a3.93 3.93 0 0 0-.29-1l-2.45 1.27 2.76.67a3.93 3.93 0 0 0-.02-.96zm.36 3.4a3.93 3.93 0 0 0-.15-1l-2.6.94 2.64 1a3.93 3.93 0 0 0 .11-.95zm.21 3.23a3.93 3.93 0 0 0-.16-1l-2.59 1 2.65 1a3.93 3.93 0 0 0 .11-1.02zm-1.11 9.83a3.93 3.93 0 0 0 .33-1l-2.74-.34 1.88 2.13a3.93 3.93 0 0 0 .54-.81zm-1 3.09a3.93 3.93 0 0 0 .3-1l-2.75-.26 1.95 2.07a3.93 3.93 0 0 0 .52-.83zm2.29-9.68a3.93 3.93 0 0 0-.1-1l-2.64.82 2.59 1.18a3.93 3.93 0 0 0 .15-1zm-.39 3.26a3.93 3.93 0 0 0 .08-1l-2.74.34 2.35 1.6a3.93 3.93 0 0 0 .31-.92zm25.76-22.94a3.93 3.93 0 0 0 .51.9l2.08-1.82h-2.84a3.93 3.93 0 0 0 .25.94zM151 60a3.93 3.93 0 0 0-.13 1l2.76-.21-2.27-1.71a3.93 3.93 0 0 0-.36.92zm-.44 4.54a3.93 3.93 0 0 0 .2 1l2.55-1.06-2.69-.91a3.93 3.93 0 0 0-.11.96zm.66 4.14a3.93 3.93 0 0 0 .38 1l2.32-1.51-2.92-.45a3.93 3.93 0 0 0 .16.96zm.94 4.08a3.93 3.93 0 0 0 .37 1l2.33-1.49-2.86-.47a3.93 3.93 0 0 0 .1.96zm.58 3.5a3.93 3.93 0 0 0 .23 1l2.52-1.14-2.72-.83a3.93 3.93 0 0 0-.09.96zm.18 3.75a3.93 3.93 0 0 0 .09 1l2.65-.8-2.66-1.16a3.93 3.93 0 0 0-.14.95zm-.57 3.9a3.93 3.93 0 0 0-.21 1h2.76L152.72 83a3.93 3.93 0 0 0-.43.9zm-20.63 9.58a3.93 3.93 0 0 0 .78-.68l-2.19-1.69.54 2.79a3.93 3.93 0 0 0 .81-.42zm-2.65 2a3.93 3.93 0 0 0 .81-.64L127.71 93l.41 2.81a3.93 3.93 0 0 0 .88-.35zm-2.43 1.79a3.93 3.93 0 0 0 .75-.71L125.05 95l.69 2.76a3.93 3.93 0 0 0 .84-.5zm-4.09 4.54a3.93 3.93 0 0 0 .28-1l-2.83-.22 2 2a3.93 3.93 0 0 0 .49-.8zm13.75-13.17a3.93 3.93 0 0 0 .46-.92L134 87l1.57 2.37a3.93 3.93 0 0 0 .67-.74zm-2.3 2.57a3.93 3.93 0 0 0 .61-.83l-2.51-1.15 1.16 2.59a3.93 3.93 0 0 0 .74-.61zm-9.62 8.09a3.93 3.93 0 0 0 .62-.83l-2.5-1.18 1.13 2.61a3.93 3.93 0 0 0 .8-.61zm26.89-11.65a3.93 3.93 0 0 0-.21 1h2.76l-2.12-1.89a3.93 3.93 0 0 0-.38.88zm-1.23 3.54a3.93 3.93 0 0 0-.35 1l2.74.39-1.85-2.16a3.93 3.93 0 0 0-.49.76zm-1.88 3.41a3.93 3.93 0 0 0-.46.93l2.67.7-1.58-2.36a3.93 3.93 0 0 0-.58.72zm-2.3 2.55a3.93 3.93 0 0 0-.62.82l2.49 1.19-1.11-2.61a3.93 3.93 0 0 0-.72.59zm-2.95 3a3.93 3.93 0 0 0-.62.82l2.49 1.19-1.11-2.61a3.93 3.93 0 0 0-.67.6zm-3.1 2.61a3.93 3.93 0 0 0-.62.82l2.49 1.19-1.11-2.61a3.93 3.93 0 0 0-.71.6zm-2.7 2.75a3.93 3.93 0 0 0-.7.76l2.37 1.42-.78-2.7a3.93 3.93 0 0 0-.84.52zm-3.37 2a3.93 3.93 0 0 0-.82.63l2.09 1.81-.38-2.82a3.93 3.93 0 0 0-.84.35zm-3.21 1.61a3.93 3.93 0 0 0-.87.56l1.92 2-.14-2.84a3.93 3.93 0 0 0-.86.25zM163 54.55a.87.87 0 1 1-.37-1.17.87.87 0 0 1 .37 1.17zm-2.49-3.07a.87.87 0 1 0 .37 1.17.87.87 0 0 0-.35-1.17zm-2.69-1.6a.87.87 0 1 0 .37 1.17.87.87 0 0 0-.35-1.17zm-2.49-1a.87.87 0 1 0 .37 1.17.87.87 0 0 0-.36-1.18zm-2.46-.26a.87.87 0 1 0 .37 1.17.87.87 0 0 0-.36-1.18zm-3.45 1.92a.87.87 0 1 0-.53-1.1.87.87 0 0 0 .54 1.09zm-2.48 1a.87.87 0 1 0-.53-1.1.87.87 0 0 0 .59 1.1zM145 53.32a.87.87 0 1 0-.53-1.1.87.87 0 0 0 .53 1.1zm-1.77 2.12a.87.87 0 1 0-.53-1.1.87.87 0 0 0 .58 1.1zm-1.5 2.87a.87.87 0 1 0-.53-1.1.87.87 0 0 0 .58 1.1zm-.68 2.56a.87.87 0 1 0-.53-1.1.87.87 0 0 0 .58 1.1zm-.17 2.73a.87.87 0 1 0-.53-1.1.87.87 0 0 0 .58 1.09zm-.33 3.08a.87.87 0 1 0-.53-1.1.87.87 0 0 0 .58 1.09zm.27 3.57a.87.87 0 1 0-.38-1.17.87.87 0 0 0 .43 1.17zm.22 3.21a.87.87 0 1 0-.39-1.16.87.87 0 0 0 .45 1.16zm-1.57 10.29a.87.87 0 1 0 .19-1.21.87.87 0 0 0-.14 1.21zm-1 3.06a.87.87 0 1 0 .15-1.22.87.87 0 0 0-.05 1.23zm-6.9 8.05a.87.87 0 1 0 .78-.94.87.87 0 0 0-.68.95zm-2.71 2a.87.87 0 1 0 .82-.91.87.87 0 0 0-.68.89zm-2.29 1.79a.87.87 0 1 0 .73-1 .87.87 0 0 0-.63.98zm-3.13 4.71a.87.87 0 1 0-.08-1.22.87.87 0 0 0 .18 1.2zm17.79-26.56a.87.87 0 1 0-.32-1.18.87.87 0 0 0 .32 1.18zm-.55 3.45a.87.87 0 1 0-.11-1.22.87.87 0 0 0 .11 1.22zm-3.89 9.65a.87.87 0 1 0 .36-1.17.87.87 0 0 0-.36 1.17zm-2.41 2.66a.87.87 0 1 0 .55-1.1.87.87 0 0 0-.56 1.1zm-9.63 8.09a.87.87 0 1 0 .56-1.09.87.87 0 0 0-.57 1.09zm39.5-44.77a.87.87 0 1 0 .35 1.12.87.87 0 0 0-.36-1.12zm-13.79 19.34a.87.87 0 1 0-.08-1.22.87.87 0 0 0 .08 1.22zm-.19 3.68a.87.87 0 1 0-.08-1.22.87.87 0 0 0 .08 1.21zm-.27 3.77a.87.87 0 1 0-.08-1.22.87.87 0 0 0 .08 1.22zm-.25 3.78a.87.87 0 1 0-.08-1.22.87.87 0 0 0 .11 1.23zm-1.35 3.39a.87.87 0 1 0-.08-1.22.87.87 0 0 0 .11 1.23zm-1.68 3.22a.87.87 0 1 0-.08-1.22.87.87 0 0 0 .11 1.23zm-2.06 3.37a.87.87 0 1 0-.08-1.22.87.87 0 0 0 .1 1.23zm-1.9 2.3a.87.87 0 1 0-.08-1.22.87.87 0 0 0 .11 1.23zm-2.61 2.46a.87.87 0 1 0-.08-1.22.87.87 0 0 0 .11 1.23zm-2.37 2a.87.87 0 1 0-.08-1.22.87.87 0 0 0 .1 1.25zm-2.87 1.94a.87.87 0 1 0-.08-1.22.87.87 0 0 0 .1 1.25zm-2.66 1.53a.87.87 0 1 0-.08-1.22.87.87 0 0 0 .1 1.25zm-2.69 1.58a.87.87 0 1 0-.08-1.22.87.87 0 0 0 .11 1.25zm-10.24-.89a.72.72 0 1 0 .31 1 .72.72 0 0 0-.28-.97zm1.08 1.49a.72.72 0 1 0 .31 1 .72.72 0 0 0-.28-.97z" class="medium-blue"/><path d="M121.62 104.1a8.62 8.62 0 0 0 3 4.85.27.27 0 0 1 0 .45 7 7 0 0 1-2.31.7 2.34 2.34 0 0 1-2.15-1l-.56-.82a2.4 2.4 0 0 1-.25-2.29 5.61 5.61 0 0 1 1.61-2.09.42.42 0 0 1 .66.2zM25.62 97.38c3.48-1.21 8.3-2.11 13.06-.49A8.41 8.41 0 1 0 44.1 81c-12.81-4.36-18.52-2.31-24.35.79a16.36 16.36 0 0 0-8.25 10.27 15.37 15.37 0 0 0-.37 2 13.43 13.43 0 0 0 2.87 10.1c3.2 4 8.63 6.5 16.59 7.58" class="medium-blue-stroke-white"/><path d="M29 110.21l-1.7 2.15-.15-2.66a3.79 3.79 0 0 1 1.84.51zm-4.05-1a3.8 3.8 0 0 0-1-.19v2.67l1.78-2.08a3.8 3.8 0 0 0-.73-.43zm-3-.93a3.8 3.8 0 0 0-.94-.33l-.35 2.65 2.07-1.8a3.8 3.8 0 0 0-.78-.55zm-2.39-1.37a3.8 3.8 0 0 0-.86-.5l-.85 2.53 2.37-1.37a3.8 3.8 0 0 0-.66-.69zm-2.35-1.57a3.8 3.8 0 0 0-.82-.56l-1 2.46 2.47-1.2a3.8 3.8 0 0 0-.65-.73zm-1.87-1.7a3.8 3.8 0 0 0-.67-.74l-1.58 2.1 2.68-.58a3.8 3.8 0 0 0-.43-.81zm-1.54-2.31a3.8 3.8 0 0 0-.54-.84l-1.92 1.85 2.74-.13a3.8 3.8 0 0 0-.28-.9zm-1.15-2.63a3.8 3.8 0 0 0-.38-.92l-2.22 1.48 2.72.37a3.8 3.8 0 0 0-.12-.95zm-.37-2.57a3.8 3.8 0 0 0 0-1l-2.6.62 2.4 1.25a3.8 3.8 0 0 0 .2-.9zm.33-3.1a3.8 3.8 0 0 0 .11-1l-2.66.26 2.22 1.61a3.8 3.8 0 0 0 .33-.9zm.77-2.59a3.8 3.8 0 0 0 .23-1l-2.67-.09 2 1.88a3.8 3.8 0 0 0 .44-.82zm1.48-2.52a3.8 3.8 0 0 0 .47-.88l-2.55-.77 1.45 2.33a3.8 3.8 0 0 0 .63-.7zm1.82-2.3a3.8 3.8 0 0 0 .61-.79l-2.4-1.16 1.11 2.5a3.8 3.8 0 0 0 .69-.57zm2.65-2.36a3.8 3.8 0 0 0 .71-.7L17.85 81l.68 2.66a3.8 3.8 0 0 0 .81-.42zm3-1.45a3.8 3.8 0 0 0 .81-.58l-2-1.8.29 2.73a3.8 3.8 0 0 0 .9-.38zm2.6-.82a3.8 3.8 0 0 0 .86-.5l-1.78-2v2.74a3.8 3.8 0 0 0 .92-.23zm2.49-.66a3.8 3.8 0 0 0 .95-.31L27 77.68l-.55 2.69a3.8 3.8 0 0 0 .97-.06zm2.87-.47a3.8 3.8 0 0 0 1-.2l-1-2.45-.86 2.6a3.8 3.8 0 0 0 .87.02zm3 .12a3.8 3.8 0 0 0 1-.08l-.73-2.57-1.18 2.48a3.8 3.8 0 0 0 .95.19zm3 .48a3.8 3.8 0 0 0 1 0l-.46-2.63-1.43 2.34a3.8 3.8 0 0 0 .89.27zm3.14.71a3.8 3.8 0 0 0 1 0L40 78.56l-1.45 2.33a3.8 3.8 0 0 0 .88.26zm2.87.65a3.8 3.8 0 0 0 1 0l-.47-2.63-1.43 2.35a3.8 3.8 0 0 0 .89.26zm2.49.93a3.8 3.8 0 0 0 1 .19v-2.67l-1.8 2.07a3.8 3.8 0 0 0 .79.39zm-4.45 13l.61 2.67 1.27-2.35a3.79 3.79 0 0 0-1.88-.33zM37.47 95l.05 2.74 1.73-2a3.79 3.79 0 0 0-1.78-.74zm-3.35-.23l.87 2.6 1-2.46a3.79 3.79 0 0 0-1.91-.14zM31 94.8l1.16 2.49.75-2.56a3.79 3.79 0 0 0-1.91.07zm-3.3.7l1.67 2.18.14-2.68a3.79 3.79 0 0 0-1.85.48zm-2.87 1.33L27 98.41l-.63-2.59a3.79 3.79 0 0 0-1.62 1z" class="medium-blue"/><path d="M30.08 112.07l-1.67 4.69-.31-5a3.38 3.38 0 0 1 2 .31zm-4-.84a3.39 3.39 0 0 0-1.1-.15l-.3 5 2.23-4.45a3.39 3.39 0 0 0-.79-.4zm-3.28-1a3.39 3.39 0 0 0-1.08-.25L21 115l2.62-4.23a3.39 3.39 0 0 0-.79-.5zm-3-1.3a3.39 3.39 0 0 0-1-.39l-1.37 4.81 3.14-3.86a3.39 3.39 0 0 0-.75-.49zm-2.61-1.39a3.39 3.39 0 0 0-1-.48l-1.8 4.67 3.47-3.56a3.39 3.39 0 0 0-.65-.58zm-2.35-2a3.39 3.39 0 0 0-.91-.63l-2.51 4.33 4-3a3.39 3.39 0 0 0-.56-.65zM12.93 103a3.39 3.39 0 0 0-.73-.84l-3.5 3.62 4.6-1.89a3.39 3.39 0 0 0-.37-.89zm-1.33-2.42a3.39 3.39 0 0 0-.52-1l-4.21 2.69 4.91-.82a3.39 3.39 0 0 0-.18-.82zm-.77-3.13a3.39 3.39 0 0 0-.28-1.07l-4.72 1.71 5 .32a3.39 3.39 0 0 0 0-.91zm0-3.36a3.39 3.39 0 0 0 0-1.11l-5 .47L10.59 95a3.39 3.39 0 0 0 .26-.86zm.69-2.95a3.39 3.39 0 0 0 .15-1.1l-5-.28L11.15 92a3.39 3.39 0 0 0 .39-.81zm1.15-2.88a3.39 3.39 0 0 0 .45-1L8.4 85.65 12.09 89a3.39 3.39 0 0 0 .6-.69zm1.74-2.66a3.39 3.39 0 0 0 .6-.93l-4.4-2.38 3.1 3.89a3.39 3.39 0 0 0 .71-.54zm2.44-2.36a3.39 3.39 0 0 0 .76-.81l-3.91-3.12 2.35 4.38a3.39 3.39 0 0 0 .82-.41zM35 78.43a3.39 3.39 0 0 0 1.11 0l-.57-5-1.42 4.77a3.39 3.39 0 0 0 .88.23zm-3.11-.14a3.39 3.39 0 0 0 1.1-.1l-.84-4.93L31 78.1a3.39 3.39 0 0 0 .87.19zm6.25.8a3.39 3.39 0 0 0 1.1.12l.16-5-2.1 4.51a3.39 3.39 0 0 0 .82.37zm2.89.68a3.39 3.39 0 0 0 1.1.12l.16-5-2.1 4.51a3.39 3.39 0 0 0 .81.37zm2.85.82a3.39 3.39 0 0 0 1.09.22l.58-5-2.48 4.31a3.39 3.39 0 0 0 .8.47zm-15.25-2.18a3.39 3.39 0 0 0 1.08-.23l-1.43-4.79-.57 4.94a3.39 3.39 0 0 0 .92.08zm-2.91.72a3.39 3.39 0 0 0 1-.4l-2.16-4.51.21 5a3.39 3.39 0 0 0 .95-.09zm-2.72.68a3.39 3.39 0 0 0 1-.57l-2.91-4.07L22.13 80a3.39 3.39 0 0 0 .87-.19zm-2.83 1.51a3.39 3.39 0 0 0 .89-.66l-3.28-3.78 1.52 4.74a3.39 3.39 0 0 0 .89-.31zM27.83 97a3.39 3.39 0 0 0-1 .47l2.48 4.35-.57-4.94a3.39 3.39 0 0 0-.91.12zm2.93-.66a3.39 3.39 0 0 0-1.06.34l1.91 4.62.06-5a3.39 3.39 0 0 0-.91.05zm3-.14a3.39 3.39 0 0 0-1.1.14l1 4.9 1-4.88a3.39 3.39 0 0 0-.89-.16zm2.78.39a3.39 3.39 0 0 0-1.09-.18l-.4 5L37.37 97a3.39 3.39 0 0 0-.82-.41zm3.17.65a3.39 3.39 0 0 0-1.1-.14l-.21 5 2.15-4.49a3.39 3.39 0 0 0-.83-.37zM23.85 107.18a1 1 0 0 1-.69-1.23 1 1 0 0 1 1.23-.7 1 1 0 0 1 .7 1.23 1 1 0 0 1-1 .74 1.23 1.23 0 0 1-.24-.04zm-3-1.15a1 1 0 0 1-.45-1.35 1 1 0 0 1 1.34-.44 1 1 0 0 1 .44 1.34 1 1 0 0 1-.9.55.87.87 0 0 1-.4-.13zm-2.7-1.75a1 1 0 0 1-.14-1.41 1 1 0 0 1 1.41-.13 1 1 0 0 1 .14 1.41 1 1 0 0 1-.78.36.94.94 0 0 1-.6-.23zM16 101.9a1 1 0 0 1 .24-1.4 1 1 0 0 1 1.4.25 1 1 0 0 1-.25 1.39 1 1 0 0 1-.57.18 1 1 0 0 1-.82-.42zm-1.46-3a1 1 0 0 1 .67-1.24 1 1 0 0 1 1.25.66 1 1 0 0 1-.67 1.25 1 1 0 0 1-.29 0 1 1 0 0 1-1-.64zm.46-2.22a1 1 0 0 1-1-1 1 1 0 0 1 1-1 1 1 0 0 1 1 1 1 1 0 0 1-1 1zm.29-3a1 1 0 0 1-.62-1.27A1 1 0 0 1 16 91.8a1 1 0 0 1 .61 1.27 1 1 0 0 1-.94.67 1 1 0 0 1-.33-.05zm1.1-2.79a1 1 0 0 1-.33-1.38 1 1 0 0 1 1.38-.33 1 1 0 0 1 .33 1.38A1 1 0 0 1 17 91a1 1 0 0 1-.56-.1zm1.66-2.51a1 1 0 0 1 0-1.42 1 1 0 0 1 1.41 0 1 1 0 0 1 0 1.41 1 1 0 0 1-.73.31 1 1 0 0 1-.63-.29zm2.14-2.09a1 1 0 0 1 .28-1.39 1 1 0 0 1 1.39.27 1 1 0 0 1-.28 1.39 1 1 0 0 1-.55.17 1 1 0 0 1-.79-.43zm2.56-1.59a1 1 0 0 1 .53-1.3 1 1 0 0 1 1.31.53 1 1 0 0 1-.53 1.31 1.09 1.09 0 0 1-.39.08 1 1 0 0 1-.87-.61zm18.35.17a1 1 0 0 1-.71-1.22 1 1 0 0 1 1.27-.65 1 1 0 0 1 .71 1.22 1 1 0 0 1-1 .74zm-15.51-1.24a1 1 0 0 1 .73-1.21 1 1 0 0 1 1.22.73 1 1 0 0 1-.74 1.21 1 1 0 0 1-.24 0 1 1 0 0 1-.97-.73zm12.71.61a1 1 0 0 1-.81-1.16 1 1 0 0 1 1.16-.81 1 1 0 0 1 .81 1.17 1 1 0 0 1-1 .82zM28.52 83a1 1 0 0 1 .88-1.11 1 1 0 0 1 1.11.89 1 1 0 0 1-.88 1.1h-.11a1 1 0 0 1-1-.88zm6.89.86a1 1 0 0 1-.9-1.09 1 1 0 0 1 1.09-.9 1 1 0 0 1 .9 1.09 1 1 0 0 1-1 .9h-.1zm-3.9-1.14a1 1 0 0 1 1-1 1 1 0 0 1 1 1 1 1 0 0 1-1 1 1 1 0 0 1-1-1.02z" class="medium-blue"/><path d="M25.62 97.38a1.14 1.14 0 0 0-.49.64 1.18 1.18 0 0 0 .18 1" class="medium-blue-stroke"/></g><path fill="none" stroke="#03a9f4" stroke-dasharray="2 3" stroke-linecap="round" stroke-linejoin="round" stroke-width="1.5" d="M216.69 17.27h11.9"/><path d="M183.53 17.27h27.9M194.75 8.27h16.9M241.56 61.49a4.14 4.14 0 0 1 3.28-3.86 12.17 12.17 0 0 1 22.45-1.55 7.62 7.62 0 0 1 11.86 2 4.1 4.1 0 0 1 6.06 3.45z" class="bright-blue-stroke"/></svg>