<svg xmlns="http://www.w3.org/2000/svg" viewBox="0 0 176.79 172.5">
  <title>icon-bug-2</title>
  <path class="fly-line1" d="M.75,171.75a254.83,254.83,0,0,1,45.49-15.69,24.67,24.67,0,0,0,19-19c3-21-2-40,0-61,2-12,7-25,18.86-29.8"/>
  <path class="fly-line1" d="M86.9,45.17c.61-.22,1.24-.43,1.9-.63"/>
  <path class="blue" d="M98.1,31.43s-3.32,6,2.66,14.42c1.78,2.5,7.15,5.06,10.29,5.57,6,1,14.68,3.17,29.87-3.18,0,0,12.74-5.7,8.64-18.46s-4.32-11.41-4.32-11.41S112.92,4,98.1,31.43Zm58.57,13.9,11.63-.27s.34,0,.18.37l-.32.72a1.57,1.57,0,0,0-.12.71l.21,2.49s.11.4-.27.19l-2.74-1.39-.56.75-6.19-2.24a1.27,1.27,0,0,0-.9,0c-.56.23-1.46.61-1.66.67,0,0-.38.11-.38-.27l.38-1.51s.07-.31.58-.25Z"/>
  <path class="blue" d="M148.42,40.93c-.29.27-1.48,2.69-1.25,2.87a19,19,0,0,1,3.05,2.9,3.94,3.94,0,0,0,4.61.77.87.87,0,0,0,.35-.66,2.74,2.74,0,0,1,.5-1.49l.22-.32s-.38-.57-2.06-.54c-1.52,0-3.62-3.06-4.43-4a.34.34,0,0,0-.48,0l0,0ZM113.16,63.4s.52-.37.36-.72a1.71,1.71,0,0,0-.56-.83c-.46-.23-1.22.17-1.64.35-.66.28-1.28.66-1.94.95a8.52,8.52,0,0,0-1.52.89,7.06,7.06,0,0,1-1.34.75,11.08,11.08,0,0,1-2,.64l-.74.15s-.23.32,0,.54l1.52.81s.43.16.45.37l.31,1.2a.57.57,0,0,0,.78.23l0,0a3.94,3.94,0,0,1,1.35-1.77S111.72,64.29,113.16,63.4Zm1.37-1.6,1.71-2.49a3.21,3.21,0,0,1,1.43-1l3-1.14A9.19,9.19,0,0,0,124.11,55c2-2.13,1.67-3.81,1.42-4.45a.44.44,0,0,0-.42-.3c-2.62.15-9,6.56-9.24,6.86l-2.58,3.21c3.17-4-.38.51-.62,1s1.2.66,1.2.66a.51.51,0,0,0,.66-.13Zm15.71-.09s1.94-.41.59,1.44a23.9,23.9,0,0,1-4.74,5.76,1.23,1.23,0,0,1-.43.21c-.69.15-2.59.44-3.47-.62a.5.5,0,0,1-.12-.33c0-.52.41-2,4.4-4a13.09,13.09,0,0,0,2.37-1.52Z"/>
  <path class="blue" d="M137.39,47.92a.76.76,0,0,1,.9.6.78.78,0,0,1,0,.34,52.92,52.92,0,0,0-1.39,8c-.27,3.63-2,5-3.68,5.71a.77.77,0,0,1-.94-.29,2.53,2.53,0,0,0-1.77-1.08l-.51-.07s0-1.27,2-3.69a20,20,0,0,0,3.79-8.67.77.77,0,0,1,.64-.72Zm-38.25-9.2s.52-.18.46-.53l-.11-.74s0-.88-1.21-.34a3.73,3.73,0,0,0-.82.06,2,2,0,0,0-.49.11,15.56,15.56,0,0,0-2.55.51,6,6,0,0,1-1.32.28,8.62,8.62,0,0,1-1.9,0L90.53,38a.36.36,0,0,0-.09.48l1.15,1.14s.34.26.32.46v1.15a.57.57,0,0,0,.67.42,3.26,3.26,0,0,1,1.52-1.17s3.6-1.41,5-1.75Zm-.39,31s.49.93-.33,1.23a1.6,1.6,0,0,1-.75.09H96.61l1-.54-.51-.19.3-.34-1-.12,1.12-.47c.29-.2.77-.34,1.18.34Zm19.17,4.82s-.41-1.07-1.24-.61a1.47,1.47,0,0,0-.61.55l-.67.74-.11.12,1.2-.48-.21.55h.49l-.64.93,1.19-.59c.4-.1.87-.39.6-1.21ZM85.16,42.19s.71.69.06,1.12a1.35,1.35,0,0,1-.64.24l-.8.21h-.13l.78-.69-.51,0,.17-.35-1,.12.86-.64c.24-.24.61-.46,1.16,0Zm89.4,3s-.65-.82.1-1.26a1.4,1.4,0,0,1,.72-.23l.89-.18h.15l-.94.72.54.09-.23.39,1-.08-1,.67a.76.76,0,0,1-1.06.09A.68.68,0,0,1,174.56,45.23ZM158.06,32l1.18-.94,4,.38-4.62-2.87h-.2a.06.06,0,0,0,0,.06l-2,2a.49.49,0,0,0,0,.52l.8.38c.33.7.45.76.84.47Zm3.49,5.06a.21.21,0,0,0,.26,0L164,35.17l-2.88.14L158.94,34c-.71-.41-.79-.37-.51.24l-.52.25a1.47,1.47,0,0,0,.5.58Z"/>
  <path class="blue-stroke-white" d="M148.19,25.49a41.73,41.73,0,0,0-8.13-11.92C129.92,3.2,117.24,1.28,112.66.81c0,0-.28-.13-.45,0s-.16.23-.11.55a1.69,1.69,0,0,0,.41.81l4.62,5.42a6.92,6.92,0,0,1,1.48,2.21,10.12,10.12,0,0,0,3,4l1.57,1.26a13.33,13.33,0,0,1,1.63,1.56l5.56,4.44Zm-3.05,5.45a47.63,47.63,0,0,1-12.35,12.65c-14.59,10.14-30.88,9-36.68,8.29a.62.62,0,0,1-.56-.12c-.11-.12-.16-.33,0-.72a2,2,0,0,1,.66-.9L103,44.65a7.85,7.85,0,0,0,2.25-2.34,11.35,11.35,0,0,1,4.48-4.16l2.2-1.13a15.83,15.83,0,0,0,2.32-1.5l7.78-4Zm3.66-7.64s2.5-1.51,4.85,2l3.25,5.2s4.84,5.57-1.63,7a21.85,21.85,0,0,1-4.85.06l-2.18-13.92Z"/>
  <path class="blue-stroke-white" d="M149.92,32.23a8.21,8.21,0,0,1-3.59,4.57c-4.26,2.75-14.31,6.46-33.08-.47,0,0-22.36-6.58-16.11-19.27,0,0,8.31-5.24,32.55,1.57,0,0,19.62,6.48,20,11.06l.29,2a1.66,1.66,0,0,1-.06.54Z"/>
  <path class="blue-stroke-white" d="M147.14,24.85a4.75,4.75,0,0,0-.31-4c-1.19-2-20.86-27.26-46.75-11,0,0,3.1-1.59,12.46-.95S137.34,13.69,147.14,24.85ZM87.24,40.14a1.47,1.47,0,0,1,2.59-.46s1.27,1.38,0,2.12a2.18,2.18,0,0,1-1.52.38S89.18,40.89,87.24,40.14Zm-1.92,1.33a1,1,0,0,1,1.23-.69,1,1,0,0,1,.46.28s.87.85.08,1.38a1.51,1.51,0,0,1-1,.31S86.62,41.87,85.32,41.47Z"/>
  <path class="cls-5" d="M124.73,39.56l-18.9,6m6.29-7,.54,3.07L119,41m4.57-27.17.76-2.28,4.8,1.56m-.76,3.9,4.38.41,1.35-1.77m24.58,18.64a1.69,1.69,0,0,1-.48.7,2.47,2.47,0,0,1-3.38-.62,2.46,2.46,0,0,1-.2-3.43,3.79,3.79,0,0,0,1-2.56s3.65,4.17,3.06,5.91Zm-7.12-1.15s5.17,1,3.22-6.11"/>
  <path class="blue-stroke" d="M121.46,72.85s2.8-.75,1.15-2.91c0,0-1.41-1.66-2.59-.36a2.56,2.56,0,0,0-.81,1.7S121,70.48,121.46,72.85Zm-2.63,1.69s1.91.11,1.37-1.56c0,0-.5-1.32-1.53-.75a1.75,1.75,0,0,0-.88.88S119.06,73,118.83,74.54ZM101.61,68s1.7-2,2.86.16c0,0,.84,1.81-.7,2.29a2.43,2.43,0,0,1-1.72,0s1.34-1.15-.44-2.45Zm-2.45.94s1.07-1.39,1.9,0c0,0,.61,1.14-.4,1.51a1.66,1.66,0,0,1-1.14.08S100.38,69.71,99.16,68.94ZM172.05,47.4s-1.3,2.32-2.84.36c0,0-1.16-1.63.27-2.38a2.33,2.33,0,0,1,1.69-.33S170.06,46.45,172.05,47.4Zm2.19-1.34s-.8,1.56-1.87.35c0,0-.81-1,.12-1.56a1.61,1.61,0,0,1,1.11-.29S172.94,45.49,174.24,46.06Z"/>
</svg>