<svg id="cards" xmlns="http://www.w3.org/2000/svg" viewBox="0 0 117 160"><path class="white" d="M76.07 153.22L11.54 116c-.65-.37-.56-1 .18-1.46l37-21.34a2.83 2.83 0 0 1 2.53-.11l64.53 37.26c.65.37.56 1-.18 1.46l-37 21.34a2.83 2.83 0 0 1-2.53.07zm-64.88-35.29a.94.94 0 0 0 .35.33l64.53 37.26a2.83 2.83 0 0 0 2.53-.11l37-21.34c.35-.2.66-.41.71-.66l.14-2-.23-.39a1.1 1.1 0 0 1-.61.75l-37 21.34a2.83 2.83 0 0 1-2.53.11L11.54 116a.94.94 0 0 1-.35-.33l-.27.48.08 1.55"/><path class="blue" d="M31.79 120.06a.75.75 0 0 1-1 .27l-1.53-.89a.75.75 0 0 1 .75-1.3l1.53.89a.75.75 0 0 1 .25 1.03zm7.4 3.43l-1.53-.89a.75.75 0 1 0-.75 1.3l1.53.89a.74.74 0 0 0 .38.1.75.75 0 0 0 .38-1.4zm7.67 4.46l-1.53-.89a.75.75 0 1 0-.75 1.3l1.53.89a.74.74 0 0 0 .38.1.75.75 0 0 0 .38-1.4zM43 125.72l-1.53-.89a.75.75 0 1 0-.75 1.3l1.53.89a.74.74 0 0 0 .38.1.75.75 0 0 0 .38-1.4zm7.67 4.46l-1.53-.89a.75.75 0 1 0-.75 1.3l1.53.89a.74.74 0 0 0 .38.1.75.75 0 0 0 .38-1.4zm-15.34-8.91l-1.53-.89a.75.75 0 1 0-.75 1.3l1.53.89a.74.74 0 0 0 .38.1.75.75 0 0 0 .38-1.4zm-10-4l1.53.89a.75.75 0 0 0 .75-1.3l-1.53-.89a.75.75 0 0 0-.75 1.3zm-3.14-1.82l.84.49a.74.74 0 0 0 .38.1.75.75 0 0 0 .38-1.4l-.79-.54a.75.75 0 1 0-.75 1.3zm41.35 24.1a.75.75 0 0 1 0-1.3l5.85-3.38a.75.75 0 0 1 .75 0l14 8.09a.75.75 0 0 1 0 1.3l-5.85 3.38a.75.75 0 0 1-.75 0zm1.87-.65L78 146.07l4.35-2.51-12.51-7.22zm26.05 1.91a.75.75 0 0 0 .75-1.3.74.74 0 0 0-1 .28.76.76 0 0 0 .33.97zm25.61-9.29l-.13 1.87a.72.72 0 0 1 0 .22 1.9 1.9 0 0 1-1.07 1.16L79 156.06a3.66 3.66 0 0 1-1.8.46 3 3 0 0 1-1.48-.35l-64.56-37.26a1.68 1.68 0 0 1-.62-.59.75.75 0 0 1-.29-.56l-.07-1.58a.75.75 0 0 1 .1-.4l.12-.21a1.32 1.32 0 0 1 0-.21 1.76 1.76 0 0 1 1-1.48l25-14.5 2.72-1.57 9.19-5.3a3.54 3.54 0 0 1 3.28-.1l64.53 37.26a1.51 1.51 0 0 1 .79 1.13l.14.25a.75.75 0 0 1 .1.42zM43.47 97l65.38 37.75 6.33-3.65a.85.85 0 0 0 .2-.15L50.84 93.7a2.13 2.13 0 0 0-1.78.1zm-5.2 3l65.38 37.75 3.7-2.14L42 97.9zm-26.38 15.3l64.53 37.26a2.1 2.1 0 0 0 1.78-.11l23.93-13.81-65.36-37.74-24.68 14.25a.87.87 0 0 0-.2.15zm103.67 17.34L79 153.76a3.31 3.31 0 0 1-.75.31h-.08a3.85 3.85 0 0 1-.77.11h-.2a3.51 3.51 0 0 1-.45-.05h-.31a2.58 2.58 0 0 1-.72-.27l-42.45-24.48-21.57-12.46v.49a.74.74 0 0 1 .11.14l.08.06 64.53 37.26a2.09 2.09 0 0 0 1.78-.11l37-21.34a2.87 2.87 0 0 0 .33-.22zm-87.15-20.79l32.88 19.08a.74.74 0 0 0 .38.1.75.75 0 0 0 .38-1.4l-32.89-19.08a.75.75 0 1 0-.75 1.3zM80 134.17l1.54.88a.75.75 0 0 0 .74-1.3l-1.54-.88a.75.75 0 0 0-.74 1.3zm7.71 4.38l1.54.88a.75.75 0 0 0 .74-1.3l-1.54-.88a.75.75 0 0 0-.74 1.3zm-3.85-2.19l1.54.88a.75.75 0 0 0 .74-1.3l-1.54-.88a.75.75 0 0 0-.74 1.3z"/><path class="white" d="M59.14 135.09l-3.88 3 11.13 5.38 3.88-3-11.12-5.37m19.64 1.58a.59.59 0 0 1-.33 0 .69.69 0 0 1-.25-1 .79.79 0 0 1 .58-.44.57.57 0 0 1 .33 0 .69.69 0 0 1 .25 1 .79.79 0 0 1-.58.45m-2.08-1a.57.57 0 0 1-.33 0L75 135a.68.68 0 0 1-.25-.94.78.78 0 0 1 .57-.44.57.57 0 0 1 .33 0l1.37.65a.7.7 0 0 1 .25.95.8.8 0 0 1-.58.45m-3.42-1.63a.57.57 0 0 1-.33 0l-1.38-.65a.7.7 0 0 1-.25-1 .8.8 0 0 1 .58-.45.57.57 0 0 1 .33 0l1.37.65a.69.69 0 0 1 .25 1 .78.78 0 0 1-.57.44M66.38 145a.58.58 0 0 1-.34-.05l-12.46-6a.62.62 0 0 1-.34-.58.86.86 0 0 1 .34-.67l5.21-4a.76.76 0 0 1 .34-.14.59.59 0 0 1 .33 0l12.46 6a.63.63 0 0 1 .34.58.87.87 0 0 1-.34.68l-5.21 4a.69.69 0 0 1-.33.14m3.46-12.53a.58.58 0 0 1-.32 0l-1.38-.65a.68.68 0 0 1-.25-.94.8.8 0 0 1 .59-.45.58.58 0 0 1 .32 0l1.37.65a.68.68 0 0 1 .25.94.8.8 0 0 1-.58.45m-28.08.57a.55.55 0 0 1-.33 0l-1.37-.66a.7.7 0 0 1-.24-1 .8.8 0 0 1 .58-.45.57.57 0 0 1 .33 0l1.36.66a.7.7 0 0 1 .25 1 .82.82 0 0 1-.59.45m-3.4-1.66a.57.57 0 0 1-.33-.05l-1.37-.66a.69.69 0 0 1-.24-1 .78.78 0 0 1 .58-.44.59.59 0 0 1 .34.05l1.36.66a.69.69 0 0 1 .25 1 .8.8 0 0 1-.58.44m-3.42-1.66a.55.55 0 0 1-.33 0l-1.37-.66a.7.7 0 0 1-.24-1 .8.8 0 0 1 .58-.45.57.57 0 0 1 .33 0l1.36.66a.7.7 0 0 1 .25 1 .82.82 0 0 1-.59.45M31.54 128a.57.57 0 0 1-.33-.05l-1.37-.66a.69.69 0 0 1-.24-1 .78.78 0 0 1 .58-.44.59.59 0 0 1 .34.05l1.36.66a.69.69 0 0 1 .25 1 .8.8 0 0 1-.58.44m-3.42-1.66a.55.55 0 0 1-.33 0l-1.37-.66a.7.7 0 0 1-.24-1 .8.8 0 0 1 .58-.45.57.57 0 0 1 .33 0l1.36.66a.7.7 0 0 1 .25 1 .82.82 0 0 1-.59.45m-3.4-1.66a.57.57 0 0 1-.33-.05l-1.39-.69a.69.69 0 0 1-.24-1 .78.78 0 0 1 .58-.44.59.59 0 0 1 .34.05l1.36.66a.69.69 0 0 1 .25 1 .8.8 0 0 1-.58.44m-3.4-1.65a.55.55 0 0 1-.33 0l-1.37-.66a.7.7 0 0 1-.24-1 .8.8 0 0 1 .58-.45.57.57 0 0 1 .33 0l1.36.66a.7.7 0 0 1 .25 1 .82.82 0 0 1-.59.45m-3.4-1.66a.57.57 0 0 1-.33-.05l-.74-.36a.69.69 0 0 1-.25-1 .8.8 0 0 1 .58-.44.57.57 0 0 1 .33.05l.74.36a.69.69 0 0 1 .25 1 .8.8 0 0 1-.58.44m34 9.68a.59.59 0 0 1-.34-.05l-29.25-14.22a.68.68 0 0 1-.24-1 .8.8 0 0 1 .58-.44.56.56 0 0 1 .33.05l29.22 14.26a.69.69 0 0 1 .25 1 .78.78 0 0 1-.58.44m-22.1-25.83L7.78 122a.73.73 0 0 0-.17.17L65 149.85a1.19 1.19 0 0 0 .64.06 2.14 2.14 0 0 0 .95-.37l21.31-16.27-58.12-28.09m4.63-3.53l-3.29 2.51 58.12 28.08 3.3-2.51-58.13-28.08m7.25-5.2a2.05 2.05 0 0 0-.95.38l-5 3.79 58.12 28.09 5.64-4.3.16-.15L42.3 96.51a1.22 1.22 0 0 0-.64-.06M7.43 123.71l56.89 27.49a2.4 2.4 0 0 0 1.31.15 3.63 3.63 0 0 0 1.62-.67l32.6-24.87v.54a2.92 2.92 0 0 1-.3.26l-32.98 25.13a2 2 0 0 1-.91.37h-.08a1.19 1.19 0 0 1-.6-.05L7.61 124.34h-.06l-.09-.11v-.47"/><path class="blue" d="M38.94 130.86a.8.8 0 0 1-.58.44.56.56 0 0 1-.33-.05l-1.37-.66a.69.69 0 0 1-.24-1 .78.78 0 0 1 .58-.44.59.59 0 0 1 .34.05l1.36.66a.69.69 0 0 1 .24 1zm3.16.71l-1.36-.66a.57.57 0 0 0-.33 0 .8.8 0 0 0-.58.45.7.7 0 0 0 .24 1l1.37.66a.55.55 0 0 0 .33 0 .82.82 0 0 0 .59-.45.7.7 0 0 0-.26-1.01zm-6.82-3.32l-1.36-.66a.57.57 0 0 0-.33 0 .8.8 0 0 0-.59.41.7.7 0 0 0 .24 1l1.37.66a.55.55 0 0 0 .33 0 .82.82 0 0 0 .59-.45.7.7 0 0 0-.25-.97zm-10.23-5l-1.36-.66a.59.59 0 0 0-.34-.05.78.78 0 0 0-.58.44.69.69 0 0 0 .24 1l1.37.66a.56.56 0 0 0 .33.05.8.8 0 0 0 .58-.44.69.69 0 0 0-.23-.98zm3.41 1.66l-1.36-.66a.57.57 0 0 0-.33 0 .8.8 0 0 0-.58.45.7.7 0 0 0 .24 1l1.37.66a.55.55 0 0 0 .33 0 .82.82 0 0 0 .59-.45.7.7 0 0 0-.25-.99zm3.41 1.66l-1.36-.66a.59.59 0 0 0-.34-.05.78.78 0 0 0-.58.44.69.69 0 0 0 .24 1l1.37.66a.56.56 0 0 0 .33.05.8.8 0 0 0 .58-.44.69.69 0 0 0-.23-.98zM75 135l1.37.65a.57.57 0 0 0 .33 0 .8.8 0 0 0 .58-.45.7.7 0 0 0-.25-.95l-1.37-.65a.57.57 0 0 0-.33 0 .78.78 0 0 0-.57.44.68.68 0 0 0 .24.96zm-52.69-18.25L51.54 131a.59.59 0 0 0 .34.05.78.78 0 0 0 .58-.44.69.69 0 0 0-.25-1L23 115.41a.56.56 0 0 0-.33-.05.8.8 0 0 0-.58.44.68.68 0 0 0 .22.95zm-2.69 5.54l1.37.66a.55.55 0 0 0 .33 0 .81.81 0 0 0 .59-.45.7.7 0 0 0-.25-1l-1.36-.66a.57.57 0 0 0-.33 0 .8.8 0 0 0-.58.45.7.7 0 0 0 .22.99zm58.81 14.33a.59.59 0 0 0 .33 0 .79.79 0 0 0 .58-.45.69.69 0 0 0-.25-1 .57.57 0 0 0-.33 0 .79.79 0 0 0-.58.44.69.69 0 0 0 .24 1zm22.83-12.12l-.12 1.82a.8.8 0 0 1 0 .22 1.63 1.63 0 0 1-.44.8 3.92 3.92 0 0 1-.51.44l-32.95 25.11a3.54 3.54 0 0 1-1.62.67 2.25 2.25 0 0 1-1.31-.15L6.95 125.68a1.23 1.23 0 0 1-.55-.49.62.62 0 0 1-.26-.5l-.06-1.51a.77.77 0 0 1 .09-.39l.1-.2a1.19 1.19 0 0 1 0-.23 1.68 1.68 0 0 1 .27-.88 2.55 2.55 0 0 1 .62-.67l23.44-17.92 3.47-2.66h.05l5.93-4.52a3.58 3.58 0 0 1 1.61-.71 2.33 2.33 0 0 1 1.31.16l57.37 27.71a1.33 1.33 0 0 1 .51.43 1.18 1.18 0 0 1 .2.58l.12.2a.76.76 0 0 1 .09.41zm-65.51-23.87l58.12 28.09 5.64-4.3.16-.15L42.3 96.51a1.22 1.22 0 0 0-.64-.06 2.05 2.05 0 0 0-.95.38zm-4.64 3.54l58.12 28.08 3.3-2.51-58.12-28.09zm-23.51 18L65 149.85a1.19 1.19 0 0 0 .64.06 2.14 2.14 0 0 0 .95-.37l21.31-16.27-58.12-28.09-22 16.82a.73.73 0 0 0-.18.13zm92.24 3.69l-32.6 24.87a3.63 3.63 0 0 1-1.62.67 2.4 2.4 0 0 1-1.31-.15L7.43 123.71v.47l.09.11h.06L65 152.07a1.19 1.19 0 0 0 .6.05h.08a2 2 0 0 0 .91-.37l32.94-25.12a2.93 2.93 0 0 0 .3-.26zm-83-4.89l.74.36a.56.56 0 0 0 .33.05.8.8 0 0 0 .58-.44.69.69 0 0 0-.25-1l-.74-.36a.56.56 0 0 0-.33-.05.8.8 0 0 0-.58.44.69.69 0 0 0 .24.95zm54.74 12.45l1.38.65a.57.57 0 0 0 .33 0 .78.78 0 0 0 .57-.44.69.69 0 0 0-.25-1l-1.38-.63a.57.57 0 0 0-.33 0 .8.8 0 0 0-.58.45.7.7 0 0 0 .25.92zm-18.32 5a.86.86 0 0 1 .34-.67l5.21-4a.76.76 0 0 1 .34-.14.59.59 0 0 1 .33 0l12.46 6a.63.63 0 0 1 .34.58.87.87 0 0 1-.34.68l-5.21 4a.69.69 0 0 1-.33.14.58.58 0 0 1-.34-.05l-12.46-6a.62.62 0 0 1-.35-.63zm2-.28l11.13 5.38 3.88-3-11.12-5.37zm12.89-6.31l1.38.65a.58.58 0 0 0 .32 0 .8.8 0 0 0 .58-.45.68.68 0 0 0-.25-.94l-1.37-.65a.58.58 0 0 0-.32 0 .8.8 0 0 0-.59.45.68.68 0 0 0 .24.85z"/><path class="white" d="M100.09 140.86l-60.36-42 3.2-1.68 60.36 42zm10-5.24a.8.8 0 0 0 .16-.12L50.64 94a1.51 1.51 0 0 0-.66-.21 1.66 1.66 0 0 0-.93.15l-4.82 2.53 60.36 42zm-31.24 18.11a2.89 2.89 0 0 1-1.59.27 3 3 0 0 1-1.34-.47L16.84 112.4v.47a.88.88 0 0 1 .1.14l.08.07 59.58 41.47a1.44 1.44 0 0 0 .61.2h.08a1.68 1.68 0 0 0 .9-.14l32-16.8.28-.17v-.53zm-61.9-42.83a.6.6 0 0 1 .17-.12l21.32-11.24 60.36 42-20.69 10.89a1.77 1.77 0 0 1-.94.14 1.44 1.44 0 0 1-.65-.21zm17.71 5.38l-1.41-1a.74.74 0 0 0-.34-.13.55.55 0 0 0-.56.29.81.81 0 0 0 .29 1l1.42 1a.72.72 0 0 0 .34.13.54.54 0 0 0 .56-.29.8.8 0 0 0-.3-1zm3.54 2.47l-1.41-1a.73.73 0 0 0-.34-.13.55.55 0 0 0-.57.3.82.82 0 0 0 .29 1l1.41 1a.73.73 0 0 0 .34.13.55.55 0 0 0 .57-.3.81.81 0 0 0-.29-1zm3.54 2.48l-1.41-1a.74.74 0 0 0-.34-.13.55.55 0 0 0-.56.29.81.81 0 0 0 .29 1l1.41 1a.74.74 0 0 0 .34.13.55.55 0 0 0 .56-.29.8.8 0 0 0-.29-1zm3.54 2.47l-1.41-1a.73.73 0 0 0-.34-.13.55.55 0 0 0-.57.3.82.82 0 0 0 .29 1l1.41 1a.73.73 0 0 0 .34.13.55.55 0 0 0 .57-.3.81.81 0 0 0-.29-.99zm3.54 2.48l-1.41-1a.74.74 0 0 0-.34-.13.55.55 0 0 0-.56.29.81.81 0 0 0 .29 1l1.41 1a.74.74 0 0 0 .34.13.55.55 0 0 0 .56-.29.8.8 0 0 0-.29-.99zm3.54 2.47l-1.41-1a.73.73 0 0 0-.34-.13.55.55 0 0 0-.57.3.82.82 0 0 0 .29 1l1.41 1a.73.73 0 0 0 .34.13.55.55 0 0 0 .57-.3.81.81 0 0 0-.29-.99zm37 13.88a.73.73 0 0 0 .34.13.55.55 0 0 0 .57-.3.82.82 0 0 0-.3-1 .73.73 0 0 0-.34-.13.54.54 0 0 0-.56.3.82.82 0 0 0 .33 1.01zm-3.55-2.45l1.42 1a.73.73 0 0 0 .34.13.55.55 0 0 0 .57-.3.83.83 0 0 0-.31-1l-1.42-1a.73.73 0 0 0-.34-.13.55.55 0 0 0-.57.3.82.82 0 0 0 .34 1.02zm-3.56-2.44l1.43 1a.73.73 0 0 0 .34.13.54.54 0 0 0 .56-.3.82.82 0 0 0-.3-1l-1.42-1a.73.73 0 0 0-.34-.13.55.55 0 0 0-.57.3.82.82 0 0 0 .33 1.01zm-3.55-2.45l1.42 1a.73.73 0 0 0 .33.12.56.56 0 0 0 .55-.31.8.8 0 0 0-.3-1l-1.43-1a.73.73 0 0 0-.33-.12.56.56 0 0 0-.57.3.8.8 0 0 0 .36 1.03zM64 138.08a.86.86 0 0 0 .37.65l12.94 9a.73.73 0 0 0 .34.13.57.57 0 0 0 .33-.06l5.02-2.65a.61.61 0 0 0 .3-.59.88.88 0 0 0-.37-.65l-12.94-9a.76.76 0 0 0-.34-.12.61.61 0 0 0-.33.05l-5.06 2.67a.6.6 0 0 0-.26.57zm-32.5-28.93l30.36 21.22a.72.72 0 0 0 .34.13.54.54 0 0 0 .56-.29.8.8 0 0 0-.29-1L32.12 108a.73.73 0 0 0-.34-.13.56.56 0 0 0-.56.29.82.82 0 0 0 .3 1zM29.1 114l1.42 1a.7.7 0 0 0 .33.13.55.55 0 0 0 .56-.3.81.81 0 0 0-.29-1l-1.41-1a.73.73 0 0 0-.34-.13.55.55 0 0 0-.57.3.82.82 0 0 0 .3 1zm-2.9-2l.78.54a.72.72 0 0 0 .34.13.54.54 0 0 0 .56-.29.8.8 0 0 0-.29-1l-.77-.54a.74.74 0 0 0-.34-.13.55.55 0 0 0-.56.29.82.82 0 0 0 .27.95zm55.15 32.4l-11.55-8-3.77 2 11.55 8z"/><path class="blue" d="M42 122.23a.55.55 0 0 1-.56.29.74.74 0 0 1-.34-.13l-1.41-1a.81.81 0 0 1-.29-1 .55.55 0 0 1 .56-.29.74.74 0 0 1 .34.13l1.41 1a.8.8 0 0 1 .29 1zm-5.25-4.47a.73.73 0 0 0-.34-.13.55.55 0 0 0-.57.3.82.82 0 0 0 .29 1l1.41 1a.73.73 0 0 0 .34.13.55.55 0 0 0 .57-.3.81.81 0 0 0-.29-1zm7.08 5a.73.73 0 0 0-.34-.13.55.55 0 0 0-.57.3.82.82 0 0 0 .29 1l1.41 1a.73.73 0 0 0 .38.07.55.55 0 0 0 .57-.3.81.81 0 0 0-.29-1zm-12.31-13.6l30.36 21.22a.72.72 0 0 0 .34.13.54.54 0 0 0 .56-.29.8.8 0 0 0-.29-1L32.12 108a.73.73 0 0 0-.34-.13.56.56 0 0 0-.56.29.82.82 0 0 0 .3 1zm-1 5.81a.71.71 0 0 0 .33.13.55.55 0 0 0 .56-.3.81.81 0 0 0-.29-1l-1.41-1a.73.73 0 0 0-.34-.13.55.55 0 0 0-.57.3.82.82 0 0 0 .29 1zm81.32 21.17v1.8a.72.72 0 0 1 0 .18 1.05 1.05 0 0 1-.4.68 2.55 2.55 0 0 1-.5.31l-32 16.8a3 3 0 0 1-2.93-.21l-59.55-41.46a1.83 1.83 0 0 1-.59-.62.86.86 0 0 1-.3-.56l-.15-1.51a.62.62 0 0 1 .07-.37l.08-.17a1.37 1.37 0 0 1 0-.23 1.29 1.29 0 0 1 .23-.8 1.62 1.62 0 0 1 .59-.51l22.33-11.78 3.79-2 5.78-3a3 3 0 0 1 2.93.21l59.58 41.46a2.17 2.17 0 0 1 .54.55 1.51 1.51 0 0 1 .23.61l.13.23a.89.89 0 0 1 .14.39zM44.23 96.49l60.36 42 5.47-2.88a.69.69 0 0 0 .16-.12L50.64 94a1.51 1.51 0 0 0-.66-.21 1.66 1.66 0 0 0-.93.15zm-4.5 2.37l60.36 42 3.19-1.68-60.36-42zm-22.81 12l59.58 41.46a1.44 1.44 0 0 0 .65.21 1.77 1.77 0 0 0 .94-.14l20.71-10.84-60.36-42-21.34 11.21a.6.6 0 0 0-.17.12zm93.55 26.22l-31.62 16.65a2.89 2.89 0 0 1-1.59.27 3 3 0 0 1-1.34-.47L16.84 112.4v.47a.88.88 0 0 1 .1.14l.08.07 59.58 41.47a1.44 1.44 0 0 0 .61.2h.08a1.68 1.68 0 0 0 .9-.14l32-16.8.28-.17zm-61.65-10.89l-1.41-1a.74.74 0 0 0-.34-.13.55.55 0 0 0-.56.29.81.81 0 0 0 .29 1l1.41 1a.74.74 0 0 0 .34.13.55.55 0 0 0 .56-.29.8.8 0 0 0-.29-1zm-14.16-9.91l-1.41-1a.74.74 0 0 0-.34-.13.55.55 0 0 0-.56.29.81.81 0 0 0 .29 1l1.42 1a.72.72 0 0 0 .34.13.54.54 0 0 0 .56-.29.8.8 0 0 0-.3-1zM27 112.49a.72.72 0 0 0 .34.13.54.54 0 0 0 .56-.29.8.8 0 0 0-.29-1l-.77-.54a.74.74 0 0 0-.34-.13.55.55 0 0 0-.56.29.82.82 0 0 0 .29 1zm51.75 22.72l1.42 1a.73.73 0 0 0 .33.12.56.56 0 0 0 .5-.33.8.8 0 0 0-.3-1l-1.43-1a.73.73 0 0 0-.33-.12.55.55 0 0 0-.57.3.8.8 0 0 0 .36 1.03zm-14.34 3.53a.86.86 0 0 1-.37-.65.6.6 0 0 1 .3-.58l5.06-2.67a.61.61 0 0 1 .33-.05.76.76 0 0 1 .34.12l12.94 9a.88.88 0 0 1 .37.65.61.61 0 0 1-.3.59L78 147.81a.57.57 0 0 1-.33.06.73.73 0 0 1-.34-.13zm1.64-.44l11.55 8 3.76-2-11.55-8zm23.37 4.25a.73.73 0 0 0 .34.13.55.55 0 0 0 .57-.3.82.82 0 0 0-.3-1 .73.73 0 0 0-.34-.13.54.54 0 0 0-.56.3.82.82 0 0 0 .27.99zm-7.12-4.89l1.43 1a.73.73 0 0 0 .34.13.54.54 0 0 0 .56-.3.82.82 0 0 0-.3-1l-1.42-1a.73.73 0 0 0-.34-.13.55.55 0 0 0-.57.3.82.82 0 0 0 .28.99zm-31.33-10a.73.73 0 0 0-.34-.13.55.55 0 0 0-.57.3.82.82 0 0 0 .29 1l1.41 1a.73.73 0 0 0 .34.13.55.55 0 0 0 .57-.3.81.81 0 0 0-.29-1zm34.9 12.43l1.42 1a.73.73 0 0 0 .34.13.55.55 0 0 0 .57-.3.83.83 0 0 0-.31-1l-1.42-1a.73.73 0 0 0-.34-.13.55.55 0 0 0-.57.3.82.82 0 0 0 .28 1.01z"/><path class="white" d="M75.1 98.25L12.3 143.1l-3.4-1.84 62.8-44.85 1.63.87zM65.36 93l-.16-.07a1.84 1.84 0 0 0-.6-.1h-.23a1.5 1.5 0 0 0-.7.23L1.76 137.28l-.06.05.05.06.16.1 5.71 3.09 62.8-44.87zm33.41 18.1l-61.96 44.25a1.42 1.42 0 0 1-.67.22h-.26a1.72 1.72 0 0 1-.77-.17l-21.55-11.61 62.81-44.86 22.19 12a.8.8 0 0 1 .21.15zm-66.62 26.36a.68.68 0 0 0 .07.33.54.54 0 0 0 .11.16.53.53 0 0 0 .37.15h.07a.7.7 0 0 0 .32-.13l1.39-1a.86.86 0 0 0 .36-.67.68.68 0 0 0-.07-.33.52.52 0 0 0-.48-.3h-.07a.63.63 0 0 0-.32.14l-1.39 1a.86.86 0 0 0-.36.65zm-7.7 6.18a.69.69 0 0 0-.07-.33.56.56 0 0 0-.12-.16l-.1-.08a.56.56 0 0 0-.27-.07.82.82 0 0 0-.33.14l-.71.5a.87.87 0 0 0-.36.67.69.69 0 0 0 .07.33.57.57 0 0 0 .21.22.53.53 0 0 0 .23.14.7.7 0 0 0 .32-.13l.71-.5a.88.88 0 0 0 .42-.72zm3.47-2.44a.73.73 0 0 0-.07-.33.53.53 0 0 0-.49-.3h-.06a.71.71 0 0 0-.33.14l-1.39 1a.87.87 0 0 0-.36.67.68.68 0 0 0 .07.33.53.53 0 0 0 .37.29h.17a.83.83 0 0 0 .32-.14l1.39-1a.84.84 0 0 0 .37-.65zm1.71-.8l1.39-1a.88.88 0 0 0 .36-.68.68.68 0 0 0-.07-.33.53.53 0 0 0-.49-.3h-.05a.71.71 0 0 0-.33.14l-1.39 1a.87.87 0 0 0-.36.67.68.68 0 0 0 .07.33.52.52 0 0 0 .36.29h.18a.7.7 0 0 0 .32-.12zm20.11-.4a.61.61 0 0 0-.29-.54l-5.26-2.84a.6.6 0 0 0-.25-.06h-.07a.73.73 0 0 0-.33.13l-13.43 9.6a.85.85 0 0 0-.36.66.59.59 0 0 0 .29.53l5.26 2.83a.53.53 0 0 0 .23 0h.05a.69.69 0 0 0 .33-.13l13.44-9.61a.87.87 0 0 0 .36-.65s.03.14.03.08zm2.26-8.16l31.54-22.64a.87.87 0 0 0 .36-.67.7.7 0 0 0-.07-.33v-.07a.54.54 0 0 0-.13-.13.52.52 0 0 0-.3-.09h-.07a.76.76 0 0 0-.34.13l-31.58 22.63a.89.89 0 0 0-.36.67.67.67 0 0 0 .07.32.57.57 0 0 0 .2.22.53.53 0 0 0 .28.08h.07a.69.69 0 0 0 .33-.12zm12.25-2.25a.68.68 0 0 0-.07-.33v-.07a.54.54 0 0 0-.13-.13.52.52 0 0 0-.3-.09h-.07a.69.69 0 0 0-.33.13l-1.39 1a.88.88 0 0 0-.36.67.68.68 0 0 0 .07.32.57.57 0 0 0 .21.22.53.53 0 0 0 .28.08h.07a.66.66 0 0 0 .33-.14l1.38-1a.86.86 0 0 0 .31-.67zm3.45-2.48a.69.69 0 0 0-.07-.33.57.57 0 0 0-.49-.29h-.07a.72.72 0 0 0-.32.14l-1.39 1a.84.84 0 0 0-.35.67.7.7 0 0 0 .07.33.51.51 0 0 0 .47.29h.07a.69.69 0 0 0 .33-.13l1.38-1a.89.89 0 0 0 .37-.69zm3.45-2.47a.67.67 0 0 0-.07-.32.55.55 0 0 0-.5-.3h-.05a.72.72 0 0 0-.32.14l-1.39 1a.87.87 0 0 0-.36.67.68.68 0 0 0 .07.33.52.52 0 0 0 .48.29h.07a.7.7 0 0 0 .32-.13l1.38-1a.89.89 0 0 0 .36-.69zm3.45-2.48a.68.68 0 0 0-.07-.33.55.55 0 0 0-.48-.29H74a.7.7 0 0 0-.32.13l-1.39 1a.88.88 0 0 0-.36.67.68.68 0 0 0 .07.32.57.57 0 0 0 .21.22.53.53 0 0 0 .28.08h.07a.69.69 0 0 0 .33-.14l1.38-1a.86.86 0 0 0 .32-.67zm3.4-2.49a.69.69 0 0 0-.07-.33v-.07a.53.53 0 0 0-.44-.22h-.07a.69.69 0 0 0-.33.13l-1.39 1a.84.84 0 0 0-.35.67.7.7 0 0 0 .07.33.53.53 0 0 0 .48.29h.1a.63.63 0 0 0 .33-.14l1.38-1a.87.87 0 0 0 .29-.66zm3.45-2.48a.63.63 0 0 0-.08-.32.54.54 0 0 0-.49-.3h-.05a.68.68 0 0 0-.32.14l-1.39 1a.87.87 0 0 0-.36.67.7.7 0 0 0 .07.33.59.59 0 0 0 .09.13.54.54 0 0 0 .4.17h.05a.91.91 0 0 0 .34-.13l1.38-1a.89.89 0 0 0 .4-.69zm3.45-2.47a.68.68 0 0 0-.07-.33.55.55 0 0 0-.49-.3h-.05a.82.82 0 0 0-.33.14l-1.39 1a.87.87 0 0 0-.35.67.67.67 0 0 0 .07.32.52.52 0 0 0 .31.27.59.59 0 0 0 .19 0h.05a.82.82 0 0 0 .33-.14l1.38-1a.87.87 0 0 0 .39-.63zm3.45-2.48a.68.68 0 0 0-.07-.33.54.54 0 0 0-.48-.29h-.07a.69.69 0 0 0-.33.13l-1.38 1a.86.86 0 0 0-.36.67.68.68 0 0 0 .07.33.51.51 0 0 0 .47.29h.07a.63.63 0 0 0 .33-.14l1.38-1a.86.86 0 0 0 .41-.66zm-56.7 34.55l4 2.16 12.09-8.65-4-2.15z"/><path class="blue" d="M85.77 113.75a.68.68 0 0 1-.07-.33.86.86 0 0 1 .36-.67l1.38-1a.69.69 0 0 1 .33-.13h.07a.54.54 0 0 1 .48.29.68.68 0 0 1 .07.33.86.86 0 0 1-.36.67l-1.38 1a.63.63 0 0 1-.33.14h-.07a.51.51 0 0 1-.48-.3zm-7.84 5.53a.53.53 0 0 0-.44-.22h-.07a.69.69 0 0 0-.33.13l-1.39 1a.84.84 0 0 0-.35.67.7.7 0 0 0 .07.33.53.53 0 0 0 .48.29h.1a.63.63 0 0 0 .33-.14l1.38-1a.87.87 0 0 0 .36-.67.69.69 0 0 0-.07-.33zm-13.8 9.91a.54.54 0 0 0-.13-.13.52.52 0 0 0-.3-.09h-.07a.69.69 0 0 0-.33.13l-1.39 1a.88.88 0 0 0-.36.67.68.68 0 0 0 .07.32.57.57 0 0 0 .21.22.53.53 0 0 0 .28.08h.07a.66.66 0 0 0 .33-.14l1.38-1a.86.86 0 0 0 .36-.67.68.68 0 0 0-.07-.33zm16.79-12.62h-.05a.68.68 0 0 0-.32.14l-1.39 1a.87.87 0 0 0-.36.67.7.7 0 0 0 .07.33.59.59 0 0 0 .09.13.54.54 0 0 0 .4.17h.05a.91.91 0 0 0 .34-.13l1.38-1a.89.89 0 0 0 .36-.67.63.63 0 0 0-.08-.32.54.54 0 0 0-.49-.32zm-6.88 5H74a.7.7 0 0 0-.32.13l-1.39 1a.88.88 0 0 0-.36.67.68.68 0 0 0 .07.32.57.57 0 0 0 .21.22.53.53 0 0 0 .28.08h.07a.69.69 0 0 0 .33-.14l1.38-1a.86.86 0 0 0 .36-.67.68.68 0 0 0-.07-.33.55.55 0 0 0-.56-.32zM70.58 124h-.05a.72.72 0 0 0-.32.14l-1.39 1a.87.87 0 0 0-.36.67.68.68 0 0 0 .07.33.52.52 0 0 0 .48.29h.07a.7.7 0 0 0 .32-.13l1.38-1a.89.89 0 0 0 .36-.67.67.67 0 0 0-.07-.32.55.55 0 0 0-.49-.31zm-3.44 2.47h-.07a.72.72 0 0 0-.32.14l-1.39 1a.84.84 0 0 0-.35.67.7.7 0 0 0 .07.33.51.51 0 0 0 .47.29h.07a.69.69 0 0 0 .33-.13l1.38-1a.89.89 0 0 0 .36-.68.69.69 0 0 0-.07-.33.57.57 0 0 0-.48-.28zm-44.65 18.18a.57.57 0 0 0 .21.22.53.53 0 0 0 .3.13.7.7 0 0 0 .32-.13l.71-.5a.88.88 0 0 0 .36-.67.69.69 0 0 0-.07-.33.56.56 0 0 0-.12-.16l-.1-.08a.56.56 0 0 0-.27-.07.82.82 0 0 0-.33.14l-.71.5a.87.87 0 0 0-.36.67.69.69 0 0 0 .06.28zm6.63-4.13h.18a.7.7 0 0 0 .32-.13l1.39-1a.88.88 0 0 0 .36-.68.68.68 0 0 0-.07-.33.53.53 0 0 0-.49-.3h-.05a.71.71 0 0 0-.33.14l-1.39 1a.87.87 0 0 0-.36.67.68.68 0 0 0 .07.33.52.52 0 0 0 .37.3zm53.13-24.62a.67.67 0 0 0 .07.32.52.52 0 0 0 .31.27.59.59 0 0 0 .19 0h.05a.82.82 0 0 0 .33-.14l1.38-1a.87.87 0 0 0 .36-.67.68.68 0 0 0-.07-.33.55.55 0 0 0-.49-.3h-.05a.82.82 0 0 0-.33.14l-1.39 1a.87.87 0 0 0-.36.71zm18-4.22v.09l-.16 1.61a.83.83 0 0 1-.28.56 2 2 0 0 1-.59.64l-61.9 44.21a2.8 2.8 0 0 1-1.2.48h-.51a2.76 2.76 0 0 1-1.29-.3L1.07 141.13a2.61 2.61 0 0 1-.5-.32 1.08 1.08 0 0 1-.4-.7v-2.23a.8.8 0 0 1 .09-.29l.13-.24a1.75 1.75 0 0 1 .25-.66 2 2 0 0 1 .55-.57l61.88-44.23a3.05 3.05 0 0 1 1.34-.49h.38a2.69 2.69 0 0 1 1.29.3l6 3.21h.07l4.67 2.53h.06l22.39 12.16a1.67 1.67 0 0 1 .61.53 1.36 1.36 0 0 1 .22.83v.25l.1.2a.6.6 0 0 1 .03.27zM35.67 157h.36-.36zm40.7-58.1l-62.81 44.89 21.55 11.64a1.72 1.72 0 0 0 .77.17h.26a1.42 1.42 0 0 0 .67-.22l61.89-44.23a.8.8 0 0 0-.21-.18zm-4.67-2.49L8.89 141.27l3.4 1.84L75.1 98.25l-1.77-1zM1.76 137.28l-.06.05.05.06.16.1 5.71 3.09 62.8-44.87L65.36 93l-.16-.07a1.84 1.84 0 0 0-.6-.1h-.23a1.5 1.5 0 0 0-.7.23zm97.69-26.64zM25.66 143h.17a.83.83 0 0 0 .32-.14l1.39-1a.84.84 0 0 0 .37-.67.73.73 0 0 0-.07-.33.53.53 0 0 0-.49-.3h-.05a.71.71 0 0 0-.33.14l-1.39 1a.87.87 0 0 0-.36.67.68.68 0 0 0 .07.33.53.53 0 0 0 .37.3zm25.65-11.09a.53.53 0 0 0 .28.08h.07a.69.69 0 0 0 .33-.13l31.55-22.66a.87.87 0 0 0 .36-.67.7.7 0 0 0-.07-.33v-.07a.54.54 0 0 0-.13-.13.52.52 0 0 0-.3-.09h-.07a.76.76 0 0 0-.34.13l-31.58 22.63a.89.89 0 0 0-.36.67.67.67 0 0 0 .07.32.57.57 0 0 0 .19.23zm-19 6.06a.53.53 0 0 0 .37.15h.07a.7.7 0 0 0 .32-.13l1.39-1a.86.86 0 0 0 .36-.67.68.68 0 0 0-.07-.33.52.52 0 0 0-.48-.3h-.07a.63.63 0 0 0-.32.14l-1.39 1a.86.86 0 0 0-.36.67.68.68 0 0 0 .07.33.54.54 0 0 0 .13.17zm-2.24 8.39l13.43-9.6a.73.73 0 0 1 .33-.13h.07a.6.6 0 0 1 .25.06l5.26 2.84a.61.61 0 0 1 .29.54.87.87 0 0 1-.36.65l-13.44 9.61a.69.69 0 0 1-.33.13h-.05a.53.53 0 0 1-.23 0L30 147.58a.59.59 0 0 1-.29-.53.85.85 0 0 1 .39-.71zm1.6.44l4 2.16 12.09-8.65-4-2.15z"/><path class="white" d="M98.85 112.62L37.4 156.51a3 3 0 0 1-1.4.49h-.36a3 3 0 0 1-.43 0 2.63 2.63 0 0 1-.67-.18l-.18-.09L1.47 139v.68a2.36 2.36 0 0 0 .32.2L35 157.75a1.69 1.69 0 0 0 .79.18H36a1.57 1.57 0 0 0 .71-.24l61.89-44.21.1-.09.11-.15.05-.6"/><path class="white" d="M104.67 79.79l-.17.11-5.58 2.65-48.15-20.5 4.92-2.34a2.32 2.32 0 0 1 .5-.16h.38a1.39 1.39 0 0 1 .57.05l47.52 20.24zM46.18 64.23l48.14 20.5 3.26-1.55-48.14-20.49zm30.17 25.29l-9.22-3.92-3.84 1.82 9.22 3.92zm-31.5-24.66L93 85.37l-21.1 10a1.88 1.88 0 0 1-.36.14l-.34.07h-.19a1.38 1.38 0 0 1-.57-.06l-47.53-20.2.18-.11zm-12 9.77a.34.34 0 0 0-.22-.4l-.58-.23a.71.71 0 0 0-.3 0 .89.89 0 0 0-.52.27.53.53 0 0 0-.12.23.35.35 0 0 0 .22.41l.63.26a.64.64 0 0 0 .28 0h.18a.8.8 0 0 0 .34-.22.54.54 0 0 0 .13-.32zm2.82 1.21a.34.34 0 0 0-.22-.4L34.36 75a.64.64 0 0 0-.29 0 .87.87 0 0 0-.52.27.53.53 0 0 0-.13.23.34.34 0 0 0 .21.41l1.13.48a.56.56 0 0 0 .29 0h.06a.87.87 0 0 0 .37-.15l.14-.12a.53.53 0 0 0 .09-.28zm2.82 1.22a.34.34 0 0 0-.22-.41l-1.13-.48a.64.64 0 0 0-.29 0h-.07a.87.87 0 0 0-.31.1l-.14.11v.05a.53.53 0 0 0-.13.23.34.34 0 0 0 .22.4l1.13.49a.64.64 0 0 0 .28 0h.06a.88.88 0 0 0 .28-.09.79.79 0 0 0 .23-.17.53.53 0 0 0 .12-.23zm2.82 1.21a.34.34 0 0 0-.22-.41L40 77.37a.64.64 0 0 0-.29 0h-.06a.88.88 0 0 0-.51.27.53.53 0 0 0-.12.23.34.34 0 0 0 .22.4l1.13.48a.59.59 0 0 0 .29 0H40.83a.83.83 0 0 0 .4-.24.52.52 0 0 0 .12-.24zm2.82 1.21a.34.34 0 0 0-.22-.4l-1.13-.48a.56.56 0 0 0-.29 0h-.06a.84.84 0 0 0-.51.27.53.53 0 0 0-.13.23.34.34 0 0 0 .21.41l1.13.48a.82.82 0 0 0 .3 0 .91.91 0 0 0 .41-.17l.11-.1a.53.53 0 0 0 .22-.24zM47 80.69a.34.34 0 0 0-.22-.4l-1.13-.48a.59.59 0 0 0-.29 0h-.06a.88.88 0 0 0-.51.27.53.53 0 0 0-.12.23.33.33 0 0 0 .22.4l1.12.49a.73.73 0 0 0 .29 0h.18a.8.8 0 0 0 .34-.22.53.53 0 0 0 .18-.29zm2.82 1.21a.34.34 0 0 0-.22-.41L48.47 81a.68.68 0 0 0-.29 0h-.07a.87.87 0 0 0-.31.1l-.14.11v.05a.55.55 0 0 0-.13.23.33.33 0 0 0 .21.4l1.13.48a.59.59 0 0 0 .29 0h.06a.88.88 0 0 0 .28-.09.85.85 0 0 0 .24-.18.52.52 0 0 0 .07-.2zm2.82 1.21a.34.34 0 0 0-.22-.4l-1.13-.48a.74.74 0 0 0-.28 0 1 1 0 0 0-.26.08.85.85 0 0 0-.22.15l-.05.05a.51.51 0 0 0-.13.23.34.34 0 0 0 .22.4l1.13.48a.56.56 0 0 0 .29 0H52a.88.88 0 0 0 .4-.17l.11-.1a.53.53 0 0 0 .12-.24zm31.26 3.74a.35.35 0 0 0 .22.41.64.64 0 0 0 .29 0h.06a.88.88 0 0 0 .28-.09A.84.84 0 0 0 85 87a.53.53 0 0 0 .12-.23.35.35 0 0 0-.22-.4.6.6 0 0 0-.28 0 .85.85 0 0 0-.52.27.53.53 0 0 0-.2.21zm-2.83-1.23a.35.35 0 0 0 .21.45l1.13.48a.74.74 0 0 0 .28 0 1 1 0 0 0 .26-.07.83.83 0 0 0 .28-.2.55.55 0 0 0 .1-.18.34.34 0 0 0-.22-.44L82 85.21a.64.64 0 0 0-.28 0h-.02a.9.9 0 0 0-.52.27.55.55 0 0 0-.11.14zm-2.86-1.14a.35.35 0 0 0 .22.41l1.14.47a.68.68 0 0 0 .29 0H80.03a.83.83 0 0 0 .4-.24.53.53 0 0 0 .12-.23.34.34 0 0 0-.22-.4L79.21 84a.56.56 0 0 0-.29 0h-.06a.88.88 0 0 0-.51.27.53.53 0 0 0-.14.21zm-2.84-1.18a.34.34 0 0 0 .22.4l1.13.48a.67.67 0 0 0 .28 0h.24a.87.87 0 0 0 .34-.22.53.53 0 0 0 .12-.23.33.33 0 0 0-.23-.4l-1.13-.48a.64.64 0 0 0-.29 0H76a.88.88 0 0 0-.51.27.53.53 0 0 0-.12.18zM67 84.66l-5.16 2.45a.72.72 0 0 0-.38.4.34.34 0 0 0 .23.39L72 92.33a.64.64 0 0 0 .29 0h.07a.8.8 0 0 0 .23-.07l5.16-2.46a.64.64 0 0 0 .38-.4.33.33 0 0 0-.22-.39l-10.32-4.4a.64.64 0 0 0-.28 0h-.08a.81.81 0 0 0-.23.05zm-5.36-2.9L37.47 71.39a.56.56 0 0 0-.29 0h-.06a.84.84 0 0 0-.51.27.52.52 0 0 0-.13.23.34.34 0 0 0 .22.41l24.2 10.32a.56.56 0 0 0 .28 0h.06a.88.88 0 0 0 .28-.09.79.79 0 0 0 .23-.17.54.54 0 0 0 .13-.23.34.34 0 0 0-.22-.37z"/><path class="blue" d="M83.9 86.85a.53.53 0 0 1 .12-.23.85.85 0 0 1 .52-.27.6.6 0 0 1 .28 0 .35.35 0 0 1 .22.4.53.53 0 0 1-.04.25.84.84 0 0 1-.24.18.88.88 0 0 1-.28.09h-.06a.64.64 0 0 1-.29 0 .35.35 0 0 1-.23-.42zm-34.31-5.36L48.47 81a.68.68 0 0 0-.29 0h-.07a.87.87 0 0 0-.31.1l-.14.11v.05a.55.55 0 0 0-.13.23.33.33 0 0 0 .21.4l1.13.48a.59.59 0 0 0 .29 0h.06a.88.88 0 0 0 .28-.09.85.85 0 0 0 .24-.18.52.52 0 0 0 .13-.23.34.34 0 0 0-.28-.38zm2.82 1.21l-1.13-.48a.74.74 0 0 0-.28 0 1 1 0 0 0-.26.08.85.85 0 0 0-.22.15l-.05.05a.51.51 0 0 0-.13.23.34.34 0 0 0 .22.4l1.13.48a.56.56 0 0 0 .29 0H52a.88.88 0 0 0 .4-.17l.11-.1a.53.53 0 0 0 .13-.23.34.34 0 0 0-.23-.41zm-11.28-4.84L40 77.37a.64.64 0 0 0-.29 0h-.06a.88.88 0 0 0-.51.27.53.53 0 0 0-.12.23.34.34 0 0 0 .22.4l1.13.48a.59.59 0 0 0 .29 0H40.83a.83.83 0 0 0 .4-.24.52.52 0 0 0 .13-.23.34.34 0 0 0-.23-.42zm5.64 2.43l-1.13-.48a.59.59 0 0 0-.29 0h-.06a.88.88 0 0 0-.51.27.53.53 0 0 0-.12.23.33.33 0 0 0 .22.4l1.12.49a.73.73 0 0 0 .29 0h.18a.8.8 0 0 0 .34-.22.53.53 0 0 0 .13-.23.34.34 0 0 0-.17-.47zm-2.83-1.21l-1.13-.48a.56.56 0 0 0-.29 0h-.06a.84.84 0 0 0-.51.27.53.53 0 0 0-.13.23.34.34 0 0 0 .21.41l1.13.48a.82.82 0 0 0 .3 0 .91.91 0 0 0 .41-.17l.11-.1a.53.53 0 0 0 .13-.23.34.34 0 0 0-.16-.42zm37.34 7l1.13.48a.74.74 0 0 0 .28 0 1 1 0 0 0 .26-.07.83.83 0 0 0 .28-.2.55.55 0 0 0 .1-.18.34.34 0 0 0-.22-.44L82 85.21a.64.64 0 0 0-.28 0h-.02a.9.9 0 0 0-.52.27.55.55 0 0 0-.11.18.35.35 0 0 0 .22.41zM36.41 77l1.13.49a.64.64 0 0 0 .28 0h.06a.88.88 0 0 0 .28-.09.79.79 0 0 0 .23-.17.53.53 0 0 0 .13-.23.34.34 0 0 0-.22-.41l-1.13-.48a.64.64 0 0 0-.29 0h-.07a.87.87 0 0 0-.31.1l-.14.11v.05a.53.53 0 0 0-.13.23.34.34 0 0 0 .18.4zm-2.83-1.21l1.13.48a.56.56 0 0 0 .29 0h.06a.87.87 0 0 0 .37-.15l.14-.12a.53.53 0 0 0 .13-.23.34.34 0 0 0-.22-.4L34.36 75a.64.64 0 0 0-.29 0 .87.87 0 0 0-.52.27.53.53 0 0 0-.13.23.34.34 0 0 0 .16.32zm44.85 9.07l1.14.47a.68.68 0 0 0 .29 0H80.03a.83.83 0 0 0 .4-.24.53.53 0 0 0 .12-.23.34.34 0 0 0-.22-.4L79.21 84a.56.56 0 0 0-.29 0h-.06a.88.88 0 0 0-.51.27.53.53 0 0 0-.12.23.35.35 0 0 0 .21.39zM36.7 72.25l24.2 10.37a.56.56 0 0 0 .28 0h.06a.88.88 0 0 0 .28-.09.79.79 0 0 0 .23-.17.54.54 0 0 0 .13-.23.34.34 0 0 0-.22-.41L37.47 71.39a.56.56 0 0 0-.29 0h-.06a.84.84 0 0 0-.51.27.52.52 0 0 0-.13.23.34.34 0 0 0 .22.36zm-5.43 2.57l.63.26a.64.64 0 0 0 .28 0h.18a.8.8 0 0 0 .34-.22.54.54 0 0 0 .13-.23.34.34 0 0 0-.22-.4l-.56-.23a.71.71 0 0 0-.3 0 .89.89 0 0 0-.52.27.53.53 0 0 0-.12.23.35.35 0 0 0 .16.33zm44.33 8.87l1.13.48a.67.67 0 0 0 .28 0h.24a.87.87 0 0 0 .34-.22.53.53 0 0 0 .12-.23.33.33 0 0 0-.23-.4l-1.13-.48a.64.64 0 0 0-.29 0H76a.88.88 0 0 0-.51.27.53.53 0 0 0-.12.23.34.34 0 0 0 .23.35zm-13.74 3.42L67 84.66a.81.81 0 0 1 .24-.07h.08a.64.64 0 0 1 .28 0L77.94 89a.33.33 0 0 1 .22.39.64.64 0 0 1-.38.4l-5.16 2.51a.8.8 0 0 1-.23.07h-.07a.64.64 0 0 1-.29 0L61.7 87.94a.34.34 0 0 1-.23-.39.72.72 0 0 1 .39-.44zm1.44.31l9.22 3.92 3.84-1.82-9.22-3.92zm42.76-7.48v.12l-.34 1.18v.12a1.32 1.32 0 0 1-.49.51 4.15 4.15 0 0 1-.52.28L72 97.64a4.16 4.16 0 0 1-1.21.36h-.43a2.42 2.42 0 0 1-1-.15l-47.5-20.21a.79.79 0 0 1-.43-.34.32.32 0 0 1-.17-.34l.14-1v-.09a.56.56 0 0 1 .11-.19l.11-.13v-.15a1.14 1.14 0 0 1 .35-.57 2.53 2.53 0 0 1 .64-.42l22.09-10.5.72-.34 3.87-1.84 5.88-2.79a4.36 4.36 0 0 1 1.21-.35h.3a2.57 2.57 0 0 1 1.13.15l47.52 20.24a1 1 0 0 1 .4.3.56.56 0 0 1 .1.38l.08.14a.45.45 0 0 1 .14.14zM46.18 64.23l48.14 20.5 3.26-1.55-48.14-20.49zM22.9 75.31l47.53 20.24a1.38 1.38 0 0 0 .57.06h.19l.34-.07a1.88 1.88 0 0 0 .36-.14l21.1-10-48.14-20.54L23.08 75.2zm81.78 4.48L57.14 59.55a1.39 1.39 0 0 0-.57-.05h-.38a2.32 2.32 0 0 0-.5.16L50.77 62l48.14 20.56 5.58-2.65.17-.11z"/><path class="white" d="M22.54 76.35l47.11 20.07a2.77 2.77 0 0 0 1.15.14h.55a4.2 4.2 0 0 0 1-.31l32.25-15.4-.11.36-.29.15-32.6 15.5a2.69 2.69 0 0 1-.68.19H70.68a1.32 1.32 0 0 1-.53-.06L22.62 76.78h-.05l-.07-.08.05-.31"/><path class="white" d="M94.78 28.74v.11a3.29 3.29 0 0 1-.13.33l-14.2 28.3A1.6 1.6 0 0 1 80 58a1.13 1.13 0 0 1-.46.23l-67.1 13.18h-.38l-.55-.47 66.28-13a3.9 3.9 0 0 0 1.57-.74 3.37 3.37 0 0 0 1-1.12l14.2-28.29.17.9zm-16 19a5.94 5.94 0 0 0 .69-1.74 1.63 1.63 0 0 0 0-.17 1 1 0 0 0-.65-.93 4.76 4.76 0 0 0-1.82-.31 9.08 9.08 0 0 1-2.71-.41 1.63 1.63 0 0 1-1.16-1.06.18.18 0 0 1 0-.05.68.68 0 0 1 .33-.45 17.39 17.39 0 0 0 1.61-1.31 16.43 16.43 0 0 0 1.64-2 1.09 1.09 0 0 1 .29-.21 6.41 6.41 0 0 0 .49-.41 3.19 3.19 0 0 0 .66-.68v-.08c.11-.19.19-.35.26-.5a2.33 2.33 0 0 0 .26-.64.17.17 0 0 1-.12-.18.49.49 0 0 1 .14-.28 3.8 3.8 0 0 0 .57-.78 1 1 0 0 0 .12-.41 2.3 2.3 0 0 0-.13-.62.18.18 0 0 1 0-.07.56.56 0 0 1 .22-.36l.06-.05a1.7 1.7 0 0 1-.28-.38 1.92 1.92 0 0 0-1.9-.71h-.31l-.33.06c-.34.06-.68.16-1 .24h-.68l-.41.07a6.44 6.44 0 0 0-.68.17 9.81 9.81 0 0 0-3.12 1.7c-.31.25-.56.44-.76.59a.19.19 0 0 1 0 .07.59.59 0 0 1-.22.36c-.23.19-.51.46-.86.82a1.86 1.86 0 0 0-.35.49 1.74 1.74 0 0 0-.19.64v.07c0 .07-.19.39-.47.54l-.09.11a5.7 5.7 0 0 0-.31.57l-.25.5v.08a.39.39 0 0 0 0 .17.92.92 0 0 0 .08.37 1 1 0 0 0 .15.29v.19a4.44 4.44 0 0 0-.2 1.25v.43a2.2 2.2 0 0 0 .42.76.16.16 0 0 1 0 .11.52.52 0 0 1-.18.33A12.3 12.3 0 0 1 64.94 46 31.25 31.25 0 0 1 61 47.74a17.65 17.65 0 0 0-2.55 1.18A8 8 0 0 0 57 50a7.73 7.73 0 0 0-1.61 2.34l-.06.12-.83 1.66h.15l.66-.07.74-.09.11-.24A7.76 7.76 0 0 1 57.31 52a1.45 1.45 0 0 1 .7-.38h.21c.15 0 .23.09.22.19a.5.5 0 0 1-.16.29l-.06.07a2.63 2.63 0 0 0-.22.27 7.39 7.39 0 0 0-.64 1l-.09.2-.08.12.57-.07.51-.07c2.09-.29 4.9-.74 8.16-1.38 2.72-.54 5.75-1.21 8.92-2v-.12l.11-.2a3.15 3.15 0 0 0 .41-1.27c0-.19.26-.47.63-.63a1.35 1.35 0 0 1 .23-.08c.23 0 .39 0 .39.17a.48.48 0 0 1 0 .07 3.83 3.83 0 0 1-.48 1.5l-.12.23 1.31-.36.85-1.68zm-.58 9.33L11.17 70.23H11l-.13-.08a.26.26 0 0 1-.05-.18.67.67 0 0 1 .08-.27l14.76-29.45a1.58 1.58 0 0 1 .48-.55 1.22 1.22 0 0 1 .46-.23l67-13.16a.38.38 0 0 1 .15 0 .24.24 0 0 1 .12.08.29.29 0 0 1 .05.19.61.61 0 0 1-.08.27L79.17 56.3a1.71 1.71 0 0 1-.48.54 1.31 1.31 0 0 1-.47.23zM27.77 46.32c0 .12.12.18.31.17h.13L56.27 41a1.31 1.31 0 0 0 .83-.55v-.08a.25.25 0 0 0 0-.07.16.16 0 0 0-.07-.13.41.41 0 0 0-.29 0h-.07l-28.04 5.45a1.25 1.25 0 0 0-.81.55.29.29 0 0 0-.05.15zm23.46-.67l-1.44.29a1.26 1.26 0 0 0-.83.54.3.3 0 0 0 0 .15c0 .1.09.16.23.17h.21l1.44-.28a1.29 1.29 0 0 0 .83-.55.31.31 0 0 0 0-.12c-.03-.15-.18-.23-.44-.2zm-3.22 1a.34.34 0 0 0 0-.12c0-.15-.13-.24-.38-.2l-1.45.28a1.26 1.26 0 0 0-.82.55c-.06.15 0 .26.2.28h.22l1.44-.28a1.32 1.32 0 0 0 .78-.49zm-.82 3.54l-1.44.28a1.34 1.34 0 0 0-.83.55.34.34 0 0 0 0 .12.18.18 0 0 0 .14.19.56.56 0 0 0 .24 0l1.44-.28a1.26 1.26 0 0 0 .82-.55.29.29 0 0 0 0-.15c0-.11-.15-.17-.38-.14zm-2.79-2.84a.31.31 0 0 0 0-.15.17.17 0 0 0-.13-.16.52.52 0 0 0-.23 0H44l-1.44.27a1.31 1.31 0 0 0-.83.55.33.33 0 0 0 0 .12c0 .13.09.21.28.21h.16l1.44-.28a1.27 1.27 0 0 0 .78-.54zm-.81 3.55l-1.44.28a1.35 1.35 0 0 0-.83.54.34.34 0 0 0 0 .12.18.18 0 0 0 .14.19.56.56 0 0 0 .24 0l1.44-.28a1.3 1.3 0 0 0 .83-.54.34.34 0 0 0 0-.12c.03-.09-.14-.21-.39-.18zm-2.79-2.84a.29.29 0 0 0 0-.15c0-.13-.15-.2-.38-.17L39 48a1.29 1.29 0 0 0-.83.55.32.32 0 0 0 0 .12.16.16 0 0 0 0 .12.4.4 0 0 0 .37.08l1.46-.26a1.26 1.26 0 0 0 .79-.54zM40 51.6l-1.44.28a1.25 1.25 0 0 0-.81.55.34.34 0 0 0 0 .12.18.18 0 0 0 .14.19.56.56 0 0 0 .24 0l1.44-.28a1.34 1.34 0 0 0 .83-.55.34.34 0 0 0 0-.12c-.01-.14-.16-.22-.4-.19zm-2.8-2.84a.33.33 0 0 0 0-.12c0-.15-.13-.24-.38-.2l-1.44.28a1.29 1.29 0 0 0-.83.55.34.34 0 0 0 0 .12.18.18 0 0 0 .14.19.56.56 0 0 0 .24 0l1.44-.28a1.32 1.32 0 0 0 .83-.54zm-.83 3.54l-1.44.29a1.26 1.26 0 0 0-.82.54.33.33 0 0 0 0 .12.18.18 0 0 0 .14.19.56.56 0 0 0 .24 0l1.44-.28a1.31 1.31 0 0 0 .83-.55.31.31 0 0 0 0-.12c.02-.14-.13-.22-.39-.19zm-2.77-2.84a.34.34 0 0 0 0-.12c0-.15-.13-.24-.38-.2l-1.44.28a1.33 1.33 0 0 0-.83.54.33.33 0 0 0 0 .12c0 .11.06.18.2.21a.68.68 0 0 0 .21 0l1.41-.29a1.29 1.29 0 0 0 .83-.54zM32.79 53l-1.44.28a1.3 1.3 0 0 0-.83.54.34.34 0 0 0 0 .12c0 .14.1.23.31.21h.12l1.44-.27a1.33 1.33 0 0 0 .83-.55.34.34 0 0 0 0-.12C33.19 53 33 53 32.79 53zm-5.49-2.21a.18.18 0 0 0 .14.19.56.56 0 0 0 .24 0l1.44-.28a1.31 1.31 0 0 0 .83-.54A.36.36 0 0 0 30 50a.18.18 0 0 0-.14-.2h-.28l-1.44.28a1.31 1.31 0 0 0-.83.55.34.34 0 0 0-.01.16zm-.46 3.85c0 .13.09.21.27.21h.15l1.44-.28a1.29 1.29 0 0 0 .83-.55.3.3 0 0 0 0-.15c0-.13-.15-.2-.38-.17l-1.44.3a1.27 1.27 0 0 0-.83.55.33.33 0 0 0-.03.1zm-3.6.73c0 .1.09.16.22.17h.2l1.44-.28a1.27 1.27 0 0 0 .83-.54.3.3 0 0 0 0-.15v-.06a.36.36 0 0 0-.35-.09l-1.44.28a1.31 1.31 0 0 0-.83.55.3.3 0 0 0-.07.13zM16 68l1.74-3.48a.29.29 0 0 0 0-.15c0-.13-.16-.2-.38-.17a1.31 1.31 0 0 0-.83.55l-1.74 3.48a.29.29 0 0 0 0 .15c0 .12.12.19.31.18h.12A1.28 1.28 0 0 0 16 68zm1.9-.38l1.75-3.47a.34.34 0 0 0 0-.12c0-.15-.13-.24-.38-.2a1.27 1.27 0 0 0-.83.55l-1.74 3.47a.33.33 0 0 0 0 .12c0 .13.09.21.28.21h.16a1.26 1.26 0 0 0 .79-.56zm1.91-.37l1.75-3.48a.3.3 0 0 0 0-.15.17.17 0 0 0-.12-.15.5.5 0 0 0-.24 0 1.3 1.3 0 0 0-.83.54l-1.74 3.48a.33.33 0 0 0 0 .11c0 .14.11.22.31.21H19a1.25 1.25 0 0 0 .84-.56zm1.91-.38l1.75-3.47a.33.33 0 0 0 0-.12c0-.15-.14-.24-.39-.2a1.29 1.29 0 0 0-.83.55l-1.74 3.47a.34.34 0 0 0 0 .12.18.18 0 0 0 .14.19.56.56 0 0 0 .24 0 1.27 1.27 0 0 0 .86-.54zm1.91-.37L25.4 63a.3.3 0 0 0 0-.15.17.17 0 0 0-.12-.15.5.5 0 0 0-.24 0H25a1.25 1.25 0 0 0-.82.54l-1.75 3.48a.34.34 0 0 0 0 .11c0 .14.1.22.31.21h.12a1.28 1.28 0 0 0 .8-.54zm1.91-.38l1.74-3.47a.33.33 0 0 0 0-.12c0-.15-.13-.24-.38-.2a1.27 1.27 0 0 0-.83.55l-1.75 3.47a.32.32 0 0 0 0 .12.17.17 0 0 0 0 .11.49.49 0 0 0 .29 0 1.29 1.29 0 0 0 .95-.46zm1.91-.37l1.74-3.48a.3.3 0 0 0 0-.15.17.17 0 0 0-.14-.16.53.53 0 0 0-.23 0h-.07a1.26 1.26 0 0 0-.83.54L26.25 66a.33.33 0 0 0 0 .12.17.17 0 0 0 0 .11.49.49 0 0 0 .29 0 1.32 1.32 0 0 0 .93-.48zm1.91-.38l1.74-3.47a.29.29 0 0 0 0-.15c0-.13-.16-.2-.38-.17a1.27 1.27 0 0 0-.83.55l-1.74 3.47a.3.3 0 0 0 0 .15c0 .1.09.16.22.17h.2a1.29 1.29 0 0 0 .81-.55zm1.9-.37L33 61.52a.31.31 0 0 0 0-.15.17.17 0 0 0-.13-.16.52.52 0 0 0-.23 0h-.07a1.3 1.3 0 0 0-.83.54L30 65.23a.29.29 0 0 0 0 .15c0 .12.13.19.32.17h.1a1.31 1.31 0 0 0 .86-.55zm1.91-.37l1.75-3.48A.34.34 0 0 0 35 61c0-.15-.13-.24-.38-.2a1.31 1.31 0 0 0-.83.55L32 64.86a.32.32 0 0 0 0 .12c0 .11.06.18.19.2a.65.65 0 0 0 .2 0 1.28 1.28 0 0 0 .8-.55zm1.91-.38l1.75-3.48a.31.31 0 0 0 0-.11c0-.15-.14-.23-.39-.2a1.31 1.31 0 0 0-.83.54l-1.74 3.48a.34.34 0 0 0 0 .12.18.18 0 0 0 .14.19.56.56 0 0 0 .24 0 1.31 1.31 0 0 0 .85-.54zm1.92-.37l1.74-3.48a.34.34 0 0 0 0-.12c0-.15-.13-.24-.38-.2a1.32 1.32 0 0 0-.83.55l-1.74 3.47a.34.34 0 0 0 0 .12.18.18 0 0 0 .14.19.56.56 0 0 0 .24 0 1.31 1.31 0 0 0 .83-.53zm1.91-.38l1.75-3.5a.32.32 0 0 0 0-.11c0-.15-.13-.23-.38-.2a1.27 1.27 0 0 0-.83.55l-1.75 3.47a.33.33 0 0 0 0 .12.17.17 0 0 0 0 .11.48.48 0 0 0 .29 0 1.32 1.32 0 0 0 .93-.44zm1.91-.37l1.74-3.48a.32.32 0 0 0 0-.12c0-.15-.14-.24-.39-.2a1.29 1.29 0 0 0-.82.55l-1.75 3.49a.32.32 0 0 0 0 .11c0 .12.16.19.38.16a1.33 1.33 0 0 0 .84-.51zm1.9-.38l1.74-3.47a.29.29 0 0 0 0-.15c0-.13-.16-.2-.38-.17a1.27 1.27 0 0 0-.82.55L41.51 63a.34.34 0 0 0 0 .12.18.18 0 0 0 .14.19.56.56 0 0 0 .24 0 1.27 1.27 0 0 0 .84-.56zm1.91-.37l1.74-3.48a.3.3 0 0 0 0-.15c0-.13-.15-.2-.38-.17a1.33 1.33 0 0 0-.83.55l-1.74 3.48a.31.31 0 0 0 0 .11c0 .12.07.19.23.2h.2a1.26 1.26 0 0 0 .78-.54zm1.91-.38l1.75-3.47a.34.34 0 0 0 0-.12c0-.15-.13-.24-.38-.2a1.29 1.29 0 0 0-.83.55l-1.74 3.47a.33.33 0 0 0 0 .12.17.17 0 0 0 .1.17.51.51 0 0 0 .29 0 1.26 1.26 0 0 0 .81-.52zm1.91-.37l1.75-3.48a.33.33 0 0 0 0-.11.18.18 0 0 0-.14-.16.53.53 0 0 0-.23 0h-.03a1.28 1.28 0 0 0-.82.54l-1.74 3.48a.34.34 0 0 0 0 .11c0 .14.1.22.31.21h.12a1.26 1.26 0 0 0 .78-.59zm1.9-.38l1.75-3.47a.34.34 0 0 0 0-.12c0-.15-.13-.24-.38-.2a1.29 1.29 0 0 0-.83.55l-1.74 3.47a.34.34 0 0 0 0 .12.18.18 0 0 0 .14.19.56.56 0 0 0 .24 0 1.26 1.26 0 0 0 .82-.54zm1.92-.37L54 57.4a.3.3 0 0 0 0-.15.17.17 0 0 0-.12-.15.5.5 0 0 0-.24 0h-.07a1.26 1.26 0 0 0-.83.54L51 61.12a.33.33 0 0 0 0 .11c0 .14.11.22.31.21h.13a1.28 1.28 0 0 0 .83-.56zm1.91-.38l1.74-3.5a.32.32 0 0 0 0-.12c0-.15-.14-.24-.39-.2a1.26 1.26 0 0 0-.82.55l-1.75 3.47a.33.33 0 0 0 0 .12.18.18 0 0 0 .14.19.56.56 0 0 0 .24 0 1.31 1.31 0 0 0 .84-.51zm1.9-.37l1.74-3.48a.3.3 0 0 0 0-.15.17.17 0 0 0-.14-.16.53.53 0 0 0-.23 0h-.07a1.25 1.25 0 0 0-.82.54l-1.75 3.48a.34.34 0 0 0 0 .12.18.18 0 0 0 .14.19.56.56 0 0 0 .24 0 1.31 1.31 0 0 0 .89-.54zm1.92-.37l1.74-3.48a.3.3 0 0 0 0-.15c0-.13-.15-.2-.38-.17a1.29 1.29 0 0 0-.83.55L56.77 60a.33.33 0 0 0 0 .12c0 .13.09.21.28.21h.16a1.3 1.3 0 0 0 .79-.57zm1.91-.38l1.74-3.48a.22.22 0 0 0 0-.21c0-.09-.18-.13-.37-.1a1.3 1.3 0 0 0-.83.54l-1.74 3.48a.33.33 0 0 0 0 .12c0 .13.09.21.28.21h.16a1.31 1.31 0 0 0 .74-.56zm1.9-.37l1.75-3.48a.34.34 0 0 0 0-.12c0-.15-.13-.24-.38-.2a1.32 1.32 0 0 0-.83.55l-1.74 3.47a.33.33 0 0 0 0 .12c0 .13.09.21.28.21H61a1.28 1.28 0 0 0 .79-.56zm1.91-.38l1.75-3.48a.32.32 0 0 0 0-.11c0-.15-.13-.23-.38-.2a1.33 1.33 0 0 0-.83.54l-1.74 3.48a.32.32 0 0 0 0 .12.17.17 0 0 0 0 .11.48.48 0 0 0 .29 0 1.29 1.29 0 0 0 .89-.46zm1.92-.37l1.74-3.48a.34.34 0 0 0 0-.12c0-.15-.13-.24-.38-.2a1.31 1.31 0 0 0-.83.55l-1.78 3.49a.31.31 0 0 0 0 .11c0 .14.12.22.33.2h.1a1.31 1.31 0 0 0 .8-.55zm1.91-.38l1.74-3.47a.33.33 0 0 0 0-.12c0-.15-.14-.24-.39-.2a1.28 1.28 0 0 0-.82.54l-1.78 3.49a.34.34 0 0 0 0 .12.18.18 0 0 0 .14.19.56.56 0 0 0 .24 0 1.31 1.31 0 0 0 .85-.55zm1.9-.37L71.17 54a.29.29 0 0 0 0-.15c0-.13-.16-.2-.38-.17a1.29 1.29 0 0 0-.82.55l-1.75 3.48a.32.32 0 0 0 0 .11c0 .12.16.19.38.16a1.28 1.28 0 0 0 .83-.47zm1.91-.38l1.74-3.47a.29.29 0 0 0 0-.15c0-.13-.16-.2-.38-.17a1.29 1.29 0 0 0-.83.55l-1.74 3.47a.33.33 0 0 0 0 .12c0 .13.09.21.28.21h.16a1.27 1.27 0 0 0 .75-.56zm1.91-.37L75 53.28a.29.29 0 0 0 0-.15c0-.13-.16-.2-.38-.17a1.31 1.31 0 0 0-.83.55L72 57a.3.3 0 0 0 0 .15c0 .12.12.18.3.17h.12a1.28 1.28 0 0 0 .82-.56zm3.69-4c0-.15-.13-.24-.38-.2a1.29 1.29 0 0 0-.83.55l-1.74 3.47a.33.33 0 0 0 0 .12c0 .13.09.21.28.21h.16a1.26 1.26 0 0 0 .82-.55l1.75-3.47a.33.33 0 0 0-.09-.1zm1-2.53a1.68 1.68 0 0 0 .51-.23 2.37 2.37 0 0 0 .3-.23 1.51 1.51 0 0 0 .21-.26l.06-.1.9-1.8.06-.11a5.53 5.53 0 0 0 .75-2.16 1.51 1.51 0 0 0 0-.36 1.33 1.33 0 0 0-.81-.89 5.31 5.31 0 0 0-2.09-.39 8.54 8.54 0 0 1-2.46-.37 1.45 1.45 0 0 1-.84-.62c.86-.65 1.42-1.17 1.47-1.21a19.34 19.34 0 0 0 1.78-2.09l.49-.42a4.86 4.86 0 0 0 1-1.13v-.08l.28-.53a3.85 3.85 0 0 0 .43-.75.88.88 0 0 0 0-.24.35.35 0 0 0 0-.17 4.28 4.28 0 0 0 .53-.79 1.72 1.72 0 0 0 .2-.71 3.67 3.67 0 0 0-.06-.37 1.18 1.18 0 0 0 .24-.22l.12-.18a.41.41 0 0 0 0-.19.23.23 0 0 0-.15-.21 1.18 1.18 0 0 1-.39-.46A2.54 2.54 0 0 0 78 32h-.48l-.4.07a10.16 10.16 0 0 0-1.07.26l-.46.05-.54.09a8.23 8.23 0 0 0-.93.24A12.48 12.48 0 0 0 70.08 35c-.38.3-.65.49-.81.61l-.15.1a1.45 1.45 0 0 0-.6.55v.33L68 37a3.62 3.62 0 0 0-.59.83 2.74 2.74 0 0 0-.25.74 2.7 2.7 0 0 0-.43.49 5.61 5.61 0 0 0-.41.71l-.25.52v.08a1.05 1.05 0 0 0-.09.41 1.36 1.36 0 0 0 .11.51 1.9 1.9 0 0 0 .14.3 5.13 5.13 0 0 0-.23 1.32v.5a2.23 2.23 0 0 0 .35.73 10.75 10.75 0 0 1-1.8 1.23 29.25 29.25 0 0 1-3.5 1.63 21 21 0 0 0-3 1.38 9.82 9.82 0 0 0-2.67 2.17 10.29 10.29 0 0 0-1.26 2l-.06.12-1 1.92a.35.35 0 0 0 0 .14.17.17 0 0 0 .05.14.36.36 0 0 0 .22.1 1.8 1.8 0 0 0 .39 0s1.38-.13 3.71-.46h.17l2-.29c1.6-.22 3.4-.52 5.4-.9l1-.19c3.57-.7 7.68-1.64 12-2.86z"/><path class="blue" d="M17.77 64.52L16 68a1.28 1.28 0 0 1-.83.54h-.12c-.19 0-.3-.06-.31-.18a.29.29 0 0 1 0-.15l1.74-3.48a1.31 1.31 0 0 1 .83-.55c.23 0 .38 0 .38.17a.29.29 0 0 1 .08.17zm1.95-.52c0-.15-.13-.24-.38-.2a1.27 1.27 0 0 0-.83.55l-1.74 3.47a.33.33 0 0 0 0 .12c0 .13.09.21.28.21h.16a1.26 1.26 0 0 0 .82-.55l1.75-3.47a.34.34 0 0 0-.06-.13zm7.73-13a.56.56 0 0 0 .24 0l1.44-.28a1.31 1.31 0 0 0 .83-.54A.36.36 0 0 0 30 50a.18.18 0 0 0-.14-.2h-.28l-1.44.28a1.31 1.31 0 0 0-.83.55.34.34 0 0 0 0 .12.18.18 0 0 0 .14.25zm1.81 11.13a.17.17 0 0 0-.14-.16.53.53 0 0 0-.23 0h-.07a1.26 1.26 0 0 0-.83.54L26.25 66a.33.33 0 0 0 0 .12.17.17 0 0 0 0 .11.49.49 0 0 0 .29 0 1.32 1.32 0 0 0 .83-.55l1.74-3.48a.3.3 0 0 0 .14-.08zm1.91-.37c0-.13-.16-.2-.38-.17a1.27 1.27 0 0 0-.83.55l-1.74 3.47a.3.3 0 0 0 0 .15c0 .1.09.16.22.17h.2a1.29 1.29 0 0 0 .83-.55l1.74-3.47a.29.29 0 0 0-.05-.17zm-4-6.88h.15l1.44-.28a1.29 1.29 0 0 0 .83-.55.3.3 0 0 0 0-.15c0-.13-.15-.2-.38-.17l-1.5.27a1.27 1.27 0 0 0-.83.55.33.33 0 0 0 0 .11c-.05.12.05.2.24.2zm-5.49 8.76a.17.17 0 0 0-.12-.15.5.5 0 0 0-.24 0h-.12a1.3 1.3 0 0 0-.83.54l-1.74 3.48a.33.33 0 0 0 0 .11c0 .14.11.22.31.21H19a1.25 1.25 0 0 0 .82-.54l1.75-3.48a.3.3 0 0 0 .06-.19zM32.79 53l-1.44.28a1.3 1.3 0 0 0-.83.54.34.34 0 0 0 0 .12c0 .14.1.23.31.21h.12l1.44-.27a1.33 1.33 0 0 0 .83-.55.34.34 0 0 0 0-.12C33.19 53 33 53 32.79 53zm-5.45 9.53c0-.15-.13-.24-.38-.2a1.27 1.27 0 0 0-.83.55l-1.75 3.47a.32.32 0 0 0 0 .12.17.17 0 0 0 0 .11.49.49 0 0 0 .29 0 1.29 1.29 0 0 0 .83-.55l1.74-3.47a.33.33 0 0 0 .1-.03zm-1.91.34a.17.17 0 0 0-.12-.15.5.5 0 0 0-.24 0H25a1.25 1.25 0 0 0-.82.54l-1.75 3.48a.34.34 0 0 0 0 .11c0 .14.1.22.31.21h.12a1.28 1.28 0 0 0 .83-.54L25.4 63a.3.3 0 0 0 .03-.13zm-1.9.41c0-.15-.14-.24-.39-.2a1.29 1.29 0 0 0-.83.55l-1.74 3.47a.34.34 0 0 0 0 .12.18.18 0 0 0 .14.19.56.56 0 0 0 .24 0 1.27 1.27 0 0 0 .83-.55l1.75-3.47a.33.33 0 0 0 0-.11zm-.07-7.72h.2l1.44-.28a1.27 1.27 0 0 0 .83-.54.3.3 0 0 0 0-.15v-.06a.36.36 0 0 0-.35-.09l-1.44.28a1.31 1.31 0 0 0-.83.55.3.3 0 0 0 0 .15c-.06.06.02.12.16.13zm27.76-9.9l-1.44.29a1.26 1.26 0 0 0-.83.54.3.3 0 0 0 0 .15c0 .1.09.16.23.17h.21l1.44-.28a1.29 1.29 0 0 0 .83-.55.31.31 0 0 0 0-.12c-.02-.16-.17-.24-.43-.21zm-3.22 1a.34.34 0 0 0 0-.12c0-.15-.13-.24-.38-.2l-1.45.28a1.26 1.26 0 0 0-.82.55c-.06.15 0 .26.2.28h.22l1.44-.28a1.32 1.32 0 0 0 .79-.5zm-.82 3.54l-1.44.28a1.34 1.34 0 0 0-.83.55.34.34 0 0 0 0 .12.18.18 0 0 0 .14.19.56.56 0 0 0 .24 0l1.44-.28a1.26 1.26 0 0 0 .82-.55.29.29 0 0 0 0-.15c0-.13-.16-.2-.38-.17zm-13.58-.74a.34.34 0 0 0 0-.12c0-.15-.13-.24-.38-.2l-1.44.28a1.33 1.33 0 0 0-.83.54.33.33 0 0 0 0 .12c0 .11.06.18.2.21a.68.68 0 0 0 .21 0l1.41-.29a1.29 1.29 0 0 0 .83-.54zm-5.53-3h.13L56.27 41a1.31 1.31 0 0 0 .83-.55v-.08a.25.25 0 0 0 0-.07.16.16 0 0 0-.07-.13.41.41 0 0 0-.29 0h-.07l-28.04 5.45a1.25 1.25 0 0 0-.81.55.29.29 0 0 0 0 .15c-.05.12.07.18.25.17zm16.32.87a.31.31 0 0 0 0-.15.17.17 0 0 0-.13-.16.52.52 0 0 0-.23 0H44l-1.44.27a1.31 1.31 0 0 0-.83.55.33.33 0 0 0 0 .12c0 .13.09.21.28.21h.16l1.44-.28a1.27 1.27 0 0 0 .78-.52zm-11.33 14a.17.17 0 0 0-.13-.16.52.52 0 0 0-.23 0h-.07a1.3 1.3 0 0 0-.83.54l-1.74 3.48a.29.29 0 0 0 0 .15c0 .12.13.19.32.17h.1a1.31 1.31 0 0 0 .83-.55L33 61.52a.31.31 0 0 0 .06-.15zm3.3-9.07l-1.44.29a1.26 1.26 0 0 0-.82.54.33.33 0 0 0 0 .12.18.18 0 0 0 .14.19.56.56 0 0 0 .24 0l1.44-.28a1.31 1.31 0 0 0 .83-.55.31.31 0 0 0 0-.12c.03-.1-.12-.18-.38-.15zm.83-3.54a.33.33 0 0 0 0-.12c0-.15-.13-.24-.38-.2l-1.44.28a1.29 1.29 0 0 0-.83.55.34.34 0 0 0 0 .12.18.18 0 0 0 .14.19.56.56 0 0 0 .24 0l1.44-.28a1.32 1.32 0 0 0 .84-.5zM40 51.6l-1.44.28a1.25 1.25 0 0 0-.81.55.34.34 0 0 0 0 .12.18.18 0 0 0 .14.19.56.56 0 0 0 .24 0l1.44-.28a1.34 1.34 0 0 0 .83-.55.34.34 0 0 0 0-.12c-.01-.14-.16-.22-.4-.19zm3.59-.69l-1.44.28a1.35 1.35 0 0 0-.83.54.34.34 0 0 0 0 .12.18.18 0 0 0 .14.19.56.56 0 0 0 .24 0l1.44-.28a1.3 1.3 0 0 0 .83-.54.34.34 0 0 0 0-.12c.03-.1-.14-.22-.39-.19zm-2.79-2.84a.29.29 0 0 0 0-.15c0-.13-.15-.2-.38-.17L39 48a1.29 1.29 0 0 0-.83.55.32.32 0 0 0 0 .12.16.16 0 0 0 0 .12.4.4 0 0 0 .37.08l1.46-.26a1.26 1.26 0 0 0 .79-.54zm28.5 6.22c0-.15-.14-.24-.39-.2a1.28 1.28 0 0 0-.82.54l-1.79 3.49a.34.34 0 0 0 0 .12.18.18 0 0 0 .14.19.56.56 0 0 0 .24 0 1.31 1.31 0 0 0 .83-.55l1.74-3.47a.33.33 0 0 0 .05-.12zm1.9-.41c0-.13-.16-.2-.38-.17a1.29 1.29 0 0 0-.82.55l-1.75 3.48a.32.32 0 0 0 0 .11c0 .12.16.19.38.16a1.28 1.28 0 0 0 .83-.54L71.17 54a.29.29 0 0 0 .04-.12zm-7.63 1.53c0-.15-.13-.24-.38-.2a1.32 1.32 0 0 0-.83.55l-1.74 3.47a.33.33 0 0 0 0 .12c0 .13.09.21.28.21h.1a1.28 1.28 0 0 0 .82-.54l1.75-3.48a.34.34 0 0 0 .01-.13zm3.82-.75c0-.15-.13-.24-.38-.2a1.31 1.31 0 0 0-.83.55l-1.79 3.49a.31.31 0 0 0 0 .11c0 .14.12.22.33.2h.1a1.31 1.31 0 0 0 .83-.54l1.74-3.48a.34.34 0 0 0 .01-.13zm-9.53 1.84a.17.17 0 0 0-.14-.16.53.53 0 0 0-.23 0h-.07a1.25 1.25 0 0 0-.82.54l-1.75 3.48a.34.34 0 0 0 0 .12.18.18 0 0 0 .14.19.56.56 0 0 0 .24 0 1.31 1.31 0 0 0 .83-.55l1.74-3.48a.3.3 0 0 0 .06-.14zm3.8-.81c0-.09-.18-.13-.37-.1a1.3 1.3 0 0 0-.83.54l-1.74 3.48a.33.33 0 0 0 0 .12c0 .13.09.21.28.21h.16a1.31 1.31 0 0 0 .83-.55l1.74-3.48a.22.22 0 0 0-.07-.22zm-1.89.43c0-.13-.15-.2-.38-.17a1.29 1.29 0 0 0-.83.55L56.77 60a.33.33 0 0 0 0 .12c0 .13.09.21.28.21h.16a1.3 1.3 0 0 0 .82-.54l1.74-3.48a.3.3 0 0 0 0-.18zM65.49 55c0-.15-.13-.23-.38-.2a1.33 1.33 0 0 0-.83.54l-1.74 3.48a.32.32 0 0 0 0 .12.17.17 0 0 0 0 .11.48.48 0 0 0 .29 0 1.29 1.29 0 0 0 .82-.55l1.75-3.48a.32.32 0 0 0 .09-.02zM96 28.47a1.62 1.62 0 0 1-.11.31L83.72 53.12l-2.07 4.12a3.34 3.34 0 0 1-1 1.12 4 4 0 0 1-1.55.74L11.92 72.29a1.94 1.94 0 0 1-.6 0h-.06a.4.4 0 0 1-.32 0l-.94-.85v-.1l-.06-.28a.63.63 0 0 1-.26-.19.84.84 0 0 1 0-.89l9.84-19.68 4.92-9.81a3.37 3.37 0 0 1 1-1.12 4.05 4.05 0 0 1 1.46-.72h.12l1.36-.27L94.2 25.43a1.08 1.08 0 0 1 .9.18l.31.07a.23.23 0 0 1 .17.15L96 28a.51.51 0 0 1 0 .47zM10.82 70.23zm67.4-13.16a1.31 1.31 0 0 0 .46-.24 1.71 1.71 0 0 0 .48-.54l14.77-29.44a.61.61 0 0 0 .08-.27.3.3 0 0 0-.05-.19.24.24 0 0 0-.12-.08.38.38 0 0 0-.15 0l-67 13.16a1.22 1.22 0 0 0-.46.23 1.58 1.58 0 0 0-.48.55L10.89 69.7a.67.67 0 0 0-.08.27.26.26 0 0 0 .05.18l.13.08h.18zm16.56-28.33v-.07l-.17-.9-14.23 28.29a3.37 3.37 0 0 1-1 1.12 3.9 3.9 0 0 1-1.57.74l-66.28 13 .55.47h.38L79.5 58.24A1.13 1.13 0 0 0 80 58a1.6 1.6 0 0 0 .47-.54l14.2-28.3a3.28 3.28 0 0 0 .13-.33zM78.47 50a1.68 1.68 0 0 1-.51.23c-4.29 1.23-8.4 2.16-12 2.86l-1 .19c-2 .38-3.81.69-5.37.93l-2 .29h-.17c-2.33.32-3.7.45-3.71.46a1.79 1.79 0 0 1-.39 0 .36.36 0 0 1-.22-.1.17.17 0 0 1-.05-.14.35.35 0 0 1 0-.14l1-1.92.06-.12a10.3 10.3 0 0 1 1.26-2 9.82 9.82 0 0 1 2.67-2.17 21 21 0 0 1 3-1.38 29.26 29.26 0 0 0 3.54-1.58 10.75 10.75 0 0 0 1.8-1.23 2.23 2.23 0 0 1-.35-.73v-.5a5.12 5.12 0 0 1 .19-1.28 1.89 1.89 0 0 1-.14-.3 1.36 1.36 0 0 1-.11-.51 1 1 0 0 1 .09-.41v-.08l.25-.52a5.61 5.61 0 0 1 .41-.71 2.7 2.7 0 0 1 .43-.49 2.74 2.74 0 0 1 .25-.74A3.62 3.62 0 0 1 68 37l.47-.47v-.33a1.45 1.45 0 0 1 .6-.55l.15-.1c.16-.12.43-.31.81-.61a12.48 12.48 0 0 1 4.06-2.21 8.23 8.23 0 0 1 .93-.24l.54-.09.46-.05a10.16 10.16 0 0 1 1.07-.26l.4-.07L78 32a2.54 2.54 0 0 1 2.49.91 1.18 1.18 0 0 0 .39.46.24.24 0 0 1 .15.21.41.41 0 0 1 0 .19l-.12.18a1.18 1.18 0 0 1-.24.22 3.67 3.67 0 0 1 .06.37 1.72 1.72 0 0 1-.2.71 4.28 4.28 0 0 1-.53.79.35.35 0 0 1 0 .17.88.88 0 0 1 0 .24 3.85 3.85 0 0 1-.28.69l-.28.53v.08a4.86 4.86 0 0 1-1 1.13l-.49.42A19.34 19.34 0 0 1 76 41.44s-.61.56-1.47 1.21a1.45 1.45 0 0 0 .84.62 8.54 8.54 0 0 0 2.46.37 5.31 5.31 0 0 1 2.09.39 1.33 1.33 0 0 1 .81.89 1.51 1.51 0 0 1 0 .36A5.53 5.53 0 0 1 80 47.5l-.06.11-.9 1.8-.06.1a1.51 1.51 0 0 1-.21.26 2.37 2.37 0 0 1-.3.23zm-3 .4a.18.18 0 0 1-.12-.12.19.19 0 0 1 0-.05.19.19 0 0 0 0 .05.18.18 0 0 0 .12.15zm3.28-2.57l.06-.12a5.94 5.94 0 0 0 .66-1.71 1.63 1.63 0 0 0 0-.17 1 1 0 0 0-.65-.93 4.76 4.76 0 0 0-1.82-.31 9.08 9.08 0 0 1-2.71-.41 1.63 1.63 0 0 1-1.16-1.06.18.18 0 0 1 0-.05.68.68 0 0 1 .33-.45 17.37 17.37 0 0 0 1.61-1.31 16.44 16.44 0 0 0 1.64-2 1.08 1.08 0 0 1 .29-.21 6.41 6.41 0 0 0 .49-.41 3.19 3.19 0 0 0 .66-.68v-.08c.11-.19.19-.35.26-.5a2.33 2.33 0 0 0 .26-.64.17.17 0 0 1-.12-.18.49.49 0 0 1 .14-.28 3.8 3.8 0 0 0 .57-.78 1 1 0 0 0 .12-.41 2.3 2.3 0 0 0-.13-.62.18.18 0 0 1 0-.07.56.56 0 0 1 .22-.36l.06-.05a1.7 1.7 0 0 1-.28-.38 1.92 1.92 0 0 0-1.9-.71h-.31l-.33.06c-.34.06-.68.16-1 .24h-.68l-.41.07a6.45 6.45 0 0 0-.68.17 9.81 9.81 0 0 0-3.12 1.7c-.31.25-.56.44-.76.59a.19.19 0 0 1 0 .07.59.59 0 0 1-.22.36c-.23.19-.51.46-.86.82a1.86 1.86 0 0 0-.35.49 1.74 1.74 0 0 0-.19.64v.07c0 .07-.19.39-.47.54l-.09.11a5.67 5.67 0 0 0-.31.57l-.25.5v.08a.39.39 0 0 0 0 .17.92.92 0 0 0 .08.37 1 1 0 0 0 .15.29v.19a4.44 4.44 0 0 0-.2 1.25v.43a2.2 2.2 0 0 0 .42.76.16.16 0 0 1 0 .11.52.52 0 0 1-.18.33A12.3 12.3 0 0 1 64.94 46 31.26 31.26 0 0 1 61 47.74a17.65 17.65 0 0 0-2.55 1.18A8 8 0 0 0 57 50a7.73 7.73 0 0 0-1.61 2.34l-.06.12-.83 1.66h.15l.66-.07.74-.09a.31.31 0 0 0 0 .11.31.31 0 0 1 0-.11l.11-.24A7.76 7.76 0 0 1 57.31 52a1.45 1.45 0 0 1 .7-.38h.21c.15 0 .23.09.22.19a.5.5 0 0 1-.16.29l-.06.07a2.63 2.63 0 0 0-.22.27 7.39 7.39 0 0 0-.64 1l-.09.2-.08.12a1.23 1.23 0 0 1-.44.32 1.32 1.32 0 0 1-.3.12h-.07a.63.63 0 0 1-.19 0 .25.25 0 0 1-.14-.07.25.25 0 0 0 .14.07.63.63 0 0 0 .19 0h.07a1.32 1.32 0 0 0 .3-.12 1.22 1.22 0 0 0 .44-.32l.57-.07.51-.07c2.09-.29 4.9-.74 8.16-1.38 2.72-.54 5.75-1.21 8.92-2v-.12l.11-.2a3.15 3.15 0 0 0 .41-1.27c0-.19.26-.47.63-.63a1.35 1.35 0 0 1 .23-.08c.23 0 .39 0 .39.17a.48.48 0 0 1 0 .07 3.83 3.83 0 0 1-.48 1.5l-.12.23 1.31-.36zm-5.63 5.65c0-.13-.16-.2-.38-.17a1.29 1.29 0 0 0-.83.55l-1.74 3.47a.33.33 0 0 0 0 .12c0 .13.09.21.28.21h.16a1.27 1.27 0 0 0 .83-.55l1.74-3.47a.29.29 0 0 0-.06-.13zm3.43-.92a1.29 1.29 0 0 0-.83.55l-1.74 3.47a.33.33 0 0 0 0 .12c0 .13.09.21.28.21h.16a1.26 1.26 0 0 0 .82-.55l1.75-3.47a.33.33 0 0 0 0-.12c-.05-.13-.19-.21-.44-.18zm-1.55.57c0-.13-.16-.2-.38-.17a1.31 1.31 0 0 0-.83.55L72 57a.3.3 0 0 0 0 .15c0 .12.12.18.3.17h.12a1.28 1.28 0 0 0 .83-.54l1.75-3.5a.29.29 0 0 0 0-.15zm-26.7 5.28c0-.15-.13-.24-.38-.2a1.29 1.29 0 0 0-.83.55l-1.74 3.47a.33.33 0 0 0 0 .12.17.17 0 0 0 .1.17.51.51 0 0 0 .29 0 1.26 1.26 0 0 0 .82-.55l1.75-3.47a.34.34 0 0 0 .02-.09zm-3.82.72c0-.13-.16-.2-.38-.17a1.27 1.27 0 0 0-.82.55L41.51 63a.34.34 0 0 0 0 .12.18.18 0 0 0 .14.19.56.56 0 0 0 .24 0 1.27 1.27 0 0 0 .83-.55l1.74-3.47a.29.29 0 0 0 .05-.16zM56 56.91c0-.15-.14-.24-.39-.2a1.26 1.26 0 0 0-.82.55l-1.75 3.47a.33.33 0 0 0 0 .12.18.18 0 0 0 .14.19.56.56 0 0 0 .24 0 1.31 1.31 0 0 0 .83-.55L55.92 57a.32.32 0 0 0 .08-.09zm-13.4 2.62c0-.15-.14-.24-.39-.2a1.29 1.29 0 0 0-.82.55l-1.79 3.49a.32.32 0 0 0 0 .11c0 .12.16.19.38.16a1.33 1.33 0 0 0 .83-.54l1.74-3.48a.32.32 0 0 0 .05-.09zm-3.82.75c0-.15-.13-.24-.38-.2a1.32 1.32 0 0 0-.83.55l-1.74 3.47a.34.34 0 0 0 0 .12.18.18 0 0 0 .14.19.56.56 0 0 0 .24 0 1.31 1.31 0 0 0 .83-.54l1.74-3.48a.34.34 0 0 0 .01-.11zm-1.9.37c0-.15-.14-.23-.39-.2a1.31 1.31 0 0 0-.83.54l-1.74 3.48a.34.34 0 0 0 0 .12.18.18 0 0 0 .14.19.56.56 0 0 0 .24 0 1.31 1.31 0 0 0 .83-.55l1.75-3.48a.31.31 0 0 0 0-.1zm3.81-.75c0-.15-.13-.23-.38-.2a1.27 1.27 0 0 0-.83.55l-1.75 3.47a.33.33 0 0 0 0 .12.17.17 0 0 0 0 .11.48.48 0 0 0 .29 0 1.32 1.32 0 0 0 .83-.55l1.81-3.4a.32.32 0 0 0 .03-.1zm11.44-2.24c0-.15-.13-.24-.38-.2a1.29 1.29 0 0 0-.83.55l-1.74 3.47a.34.34 0 0 0 0 .12.18.18 0 0 0 .14.19.56.56 0 0 0 .24 0 1.26 1.26 0 0 0 .82-.55l1.75-3.47a.34.34 0 0 0 .01-.11zm1.87-.41a.17.17 0 0 0-.12-.15.5.5 0 0 0-.24 0h-.07a1.26 1.26 0 0 0-.83.54L51 61.12a.33.33 0 0 0 0 .11c0 .14.11.22.31.21h.13a1.28 1.28 0 0 0 .83-.54L54 57.4a.3.3 0 0 0 0-.15zM35 61c0-.15-.13-.24-.38-.2a1.31 1.31 0 0 0-.83.55L32 64.86a.32.32 0 0 0 0 .12c0 .11.06.18.19.2a.65.65 0 0 0 .2 0 1.28 1.28 0 0 0 .82-.54l1.75-3.48A.34.34 0 0 0 35 61zm15.26-3a.18.18 0 0 0-.14-.16.53.53 0 0 0-.23 0h-.09a1.28 1.28 0 0 0-.82.54l-1.74 3.48a.34.34 0 0 0 0 .11c0 .14.1.22.31.21h.12a1.26 1.26 0 0 0 .83-.54l1.75-3.48a.33.33 0 0 0-.01-.16zm-3.82.71c0-.13-.15-.2-.38-.17a1.33 1.33 0 0 0-.83.55l-1.74 3.48a.31.31 0 0 0 0 .11c0 .12.07.19.23.2h.2a1.26 1.26 0 0 0 .82-.54l1.74-3.48a.3.3 0 0 0-.06-.11z"/><path class="white" d="M69.08 8.27l-2.59 1.08 10 .14 2.59-1.09-10-.14M85 6.32h.25a.69.69 0 0 1 .35.07v.09l-.13.09-.21.06H85a.66.66 0 0 1-.36-.08v-.06a.62.62 0 0 1 .34-.15H85m-3.07 0h1.45a.68.68 0 0 1 .35.07v.07a.45.45 0 0 1-.17.1l-.19.06h-1.5a.64.64 0 0 1-.36-.09v-.09a.66.66 0 0 1 .34-.15h.1M68.84 7.9h.23l11.18.1a.66.66 0 0 1 .36.08c0 .06 0 .13-.16.18L77 9.8l-.18.05h-.34L65.3 9.72a.68.68 0 0 1-.36-.08c0-.06 0-.13.16-.18L68.54 8l.18-.05h.11m10-1.65h1.46a.64.64 0 0 1 .36.08v.09a.43.43 0 0 1-.24.13H78.77a.66.66 0 0 1-.35-.07v-.11a.62.62 0 0 1 .34-.15h.1m-3.06 0h1.45a.63.63 0 0 1 .36.08v.09a.42.42 0 0 1-.2.12h-.19L77 6.6h-1.23a.66.66 0 0 1-.36-.08v-.14a.66.66 0 0 1 .34-.15h.1m-23 3.23v-.14a.61.61 0 0 1 .33-.15h1.55a.66.66 0 0 1 .36.08v.09a.81.81 0 0 1-.28.11h-1.55a.68.68 0 0 1-.35-.07m-3.06 0v-.11a.58.58 0 0 1 .34-.15h1.51a.68.68 0 0 1 .35.08v.1l-.07.06a.82.82 0 0 1-.26.1h-1.65a.61.61 0 0 1-.33-.07m-2.65-.34h1.46a.63.63 0 0 1 .35.08v.09a.75.75 0 0 1-.33.13h-.28L47 9.42a.66.66 0 0 1-.34-.07v-.13a.65.65 0 0 1 .34-.15h.1M44 9h1.44a.65.65 0 0 1 .34.07v.09a.46.46 0 0 1-.16.1l-.19.06h-.32L44 9.37a.68.68 0 0 1-.35-.08V9.2a.58.58 0 0 1 .27-.2H44m-3 0h1.46a.68.68 0 0 1 .35.08v.09l-.08.06a.73.73 0 0 1-.26.1h-1.56a.65.65 0 0 1-.34-.07v-.14a.62.62 0 0 1 .29-.12H41m-3 0h1.44a.68.68 0 0 1 .26 0v.09a.65.65 0 0 1-.34.15H37.8a.64.64 0 0 1-.36-.08v-.08l.12-.08.22-.07h.13m-3.06 0h1.43a.65.65 0 0 1 .35.07v.09l-.08.06a.87.87 0 0 1-.27.1h-1.51a.68.68 0 0 1-.35-.08v-.09a.58.58 0 0 1 .34-.15h.1m-2.52 0h.89a.66.66 0 0 1 .36.08V9h-.05a.89.89 0 0 1-.29.11H32.29a.64.64 0 0 1-.36-.08V9a.62.62 0 0 1 .34-.15h.1M36 7.29h.22l26.24.4a.67.67 0 0 1 .36.08v.09a.62.62 0 0 1-.33.15h-.33l-26.25-.4a.68.68 0 0 1-.35-.08v-.09a.58.58 0 0 1 .33-.15H36m3.82-3.1l-14.68 6.15-.14.06 51.48.75H77.17l.27-.07.26-.09L92 5l-52.17-.81m3.1-1.29l-2.21.92 52.16.76.51-.21 1.7-.71-52.16-.76m5-2H47.47l-.38.12-3.28 1.51L96 3.29l3.77-1.58.1-.05L48.36.9h-.17L48 .94"/><path class="blue" d="M39.73 9v.09a.65.65 0 0 1-.34.15h-1.56a.64.64 0 0 1-.36-.08v-.08l.09-.08.22-.07h1.57a.68.68 0 0 1 .35.07zm-3.09-.08a.65.65 0 0 0-.35-.07h-1.54a.58.58 0 0 0-.34.15v.09a.68.68 0 0 0 .35.08h1.56a.87.87 0 0 0 .27-.1l.08-.06V9zm39.1-2.36L77 6.6h.46a.42.42 0 0 0 .2-.12v-.16a.63.63 0 0 0-.36-.08L76 6.19h-.33a.66.66 0 0 0-.34.15v.09a.66.66 0 0 0 .41.15zM33.23 8.82h-1a.62.62 0 0 0-.33.18v.09a.64.64 0 0 0 .36.08H33.22a.89.89 0 0 0 .29-.11h.05v-.14a.66.66 0 0 0-.33-.1zm45.58-2.2H80.46a.43.43 0 0 0 .24-.13v-.14a.64.64 0 0 0-.36-.08h-1.56a.62.62 0 0 0-.34.15v.09a.66.66 0 0 0 .37.11zm3.07 0h1.5l.19-.06a.45.45 0 0 0 .17-.1v-.05a.68.68 0 0 0-.35-.07h-1.55a.66.66 0 0 0-.34.15v.07a.64.64 0 0 0 .38.09zm3.07 0h.34l.21-.06.13-.09v-.06a.69.69 0 0 0-.35-.07h-.33a.62.62 0 0 0-.34.15v.09a.66.66 0 0 0 .39.11zM54.66 9.15h-1.55a.61.61 0 0 0-.33.15v.09a.68.68 0 0 0 .35.07h1.55a.82.82 0 0 0 .32-.07V9.3a.66.66 0 0 0-.34-.15zm22 .73h-.16l-11.2-.16a.68.68 0 0 1-.36-.08c0-.06 0-.13.16-.18L68.54 8l.18-.05h.34L80.25 8a.66.66 0 0 1 .36.08c0 .06 0 .13-.16.18L77 9.8l-.18.05h-.18zm2.42-1.47l-10-.14-2.59 1.08 10 .14zm-16.62-.73l-26.24-.4h-.33a.58.58 0 0 0-.33.15v.09a.68.68 0 0 0 .35.08l26.25.4h.33a.62.62 0 0 0 .33-.15v-.06a.67.67 0 0 0-.36-.11zm39-5.63c0 .09-.11.17-.21.23l-.33.16-22 9.2a5.48 5.48 0 0 1-.92.27h-.46a5.88 5.88 0 0 1-.89.06l-51.49-.67a2.26 2.26 0 0 1-.53-.06.51.51 0 0 1-.31-.09L24 10.8V10.59c-.06-.07 0-.16.05-.23a1.45 1.45 0 0 1 .38-.22L39.3 3.9l.49-.2 2.6-1.1 4-1.66a5.38 5.38 0 0 1 .91-.27h.47a5.87 5.87 0 0 1 .88-.06l51.48.75a2.27 2.27 0 0 1 .49.05.61.61 0 0 1 .27.11h.13l.12.06.23.43zm-57.62.48L96 3.29l3.77-1.58.1-.05L48.36.9h-.17L48 .94H47.54l-.38.12zm-3.1 1.29l52.16.76.51-.21 1.7-.71-52.18-.76zm35.81 7.33H77.24l.27-.07.26-.09L92 5l-52.17-.81-14.69 6.15-.14.06zm-28-2.09L47.32 9H47a.65.65 0 0 0-.34.15v.09a.66.66 0 0 0 .34.07h1.51a.75.75 0 0 0 .33-.13v-.02a.63.63 0 0 0-.3-.1zm-2.72 0a.65.65 0 0 0-.35-.06h-1.56a.58.58 0 0 0-.33.15v.09a.68.68 0 0 0 .35.08h1.55l.19-.06a.46.46 0 0 0 .16-.1v-.05zm5.78 0H50.1a.58.58 0 0 0-.34.15v.09a.61.61 0 0 0 .33.07h1.57a.82.82 0 0 0 .26-.1l.08.03v-.09a.68.68 0 0 0-.4-.11zM42.42 9h-1.56a.62.62 0 0 0-.34.15v.09a.66.66 0 0 0 .34.07h1.56a.73.73 0 0 0 .26-.1l.08-.06v-.08a.68.68 0 0 0-.34-.07z"/></svg>