<svg xmlns="http://www.w3.org/2000/svg" viewBox="0 0 420.4 311.17">
<title>cWatch Small Buisness</title>
<path d="M279.08 234.46l1.25-1.58a6 6 0 0 0 1.83 0l1.48 1.75.11-2.21a6.07 6.07 0 0 0 1.22-.73l2.43.79-1.16-2.11a6 6 0 0 0 .59-1l2.39-.2-1.92-1.51a6 6 0 0 0 0-1.29l2-1.11-2.45-.63a6.08 6.08 0 0 0-.95-1.57l.71-2.19-1.94 1.07a6 6 0 0 0-1.18-.63l-.36-2.28-1.26 1.88a6 6 0 0 0-1.64.06l-1.39-2-.39 2.62a6.1 6.1 0 0 0-1 .65l-2.31-.75 1.12 2a6 6 0 0 0-.61 1.13l-2.33.19 1.9 1.5a6 6 0 0 0 0 1.22l-2 1.31 2.48.44a6.08 6.08 0 0 0 .72 1.24l-.7 2.14 1.8-1a6 6 0 0 0 1.39.83zM300.21 234.63l1.14-1.66a6 6 0 0 0 1.83-.1l1.59 1.65v-2.21a6.07 6.07 0 0 0 1.17-.81l2.48.63-1.3-2a6 6 0 0 0 .52-1.08l2.37-.35-2-1.39a6 6 0 0 0-.06-1.29l2-1.24-2.49-.47a6.08 6.08 0 0 0-1-1.51l.57-2.23-2.03 1.17a6 6 0 0 0-1.22-.55l-.51-2.25-1.14 2a6 6 0 0 0-1.64.16l-1.49-1.97-.22 2.64a6.1 6.1 0 0 0-1 .72l-2.35-.6 1.25 2a6 6 0 0 0-.54 1.17l-2.31.34 2 1.37a6 6 0 0 0 .08 1.22l-1.91 1.4 2.5.28a6.08 6.08 0 0 0 .8 1.19l-.56 2.18 1.73-1.11a6 6 0 0 0 1.44.74z" class="bright-red"/><path d="M273.58 224.34h-12.42l4.54 9.63h9.67l4.54-9.63h-6.33z" class="grey-stroke-white"/><path d="M281.52 218.81a3 3 0 0 0-3-3h-.13a3.31 3.31 0 0 0-3.06-2.49 4.21 4.21 0 0 0-6.45-1.74 2.07 2.07 0 0 0-2.21 1 3.42 3.42 0 0 0-1.68-.45 3.49 3.49 0 0 0-3.11 1.92 2.57 2.57 0 0 0-1.51 1 3.1 3.1 0 0 0-.59 5.84 2.77 2.77 0 0 0 3.22 2.49 4.23 4.23 0 0 0 6.44.4 4.24 4.24 0 0 0 3.92 1.21 4.9 4.9 0 0 0 4.62-1.58h.11a2.56 2.56 0 0 0 2.56-2.48 3 3 0 0 0 .87-2.12z" class="green-stroke-white"/><path d="M270.54 218.89v4.03M270.54 219.97l2.49-1.94" class="green-stroke"/><path d="M179.83 220.95a2.56 2.56 0 0 0 2.56 2.48h.11a4.9 4.9 0 0 0 4.62 1.58 4.24 4.24 0 0 0 3.92-1.21 4.23 4.23 0 0 0 6.44-.4 2.77 2.77 0 0 0 3.22-2.49 3.1 3.1 0 0 0-.59-5.84 2.57 2.57 0 0 0-1.51-1 3.49 3.49 0 0 0-3.11-1.92 3.42 3.42 0 0 0-1.68.45 2.07 2.07 0 0 0-2.21-1 4.21 4.21 0 0 0-6.45 1.74 3.31 3.31 0 0 0-3.06 2.49h-.13a3 3 0 0 0-2.12 5.15z" class="green-stroke-white"/><path d="M186.88 224.34h12.42l-4.54 9.63h-9.67l-4.54-9.63h6.33z" class="grey-stroke-white"/><path d="M189.92 218.89v4.03M189.92 219.97l-2.5-1.94" class="green-stroke"/><g id="small-businesses"><path d="M199.63 161.95h61.93a.5.5 0 0 1 .47.34l9.67 29.24a.5.5 0 0 1-.47.66h-80.22a.5.5 0 0 1-.48-.64l8.62-29.26a.5.5 0 0 1 .48-.34z" class="grey-stroke-white"/><rect width="70.14" height="40.14" x="196.05" y="192.28" class="grey-stroke-white" rx=".5" ry=".5"/><path d="M210.63 198.67a6.46 6.46 0 0 0 6.46-6.46h-12.93a6.46 6.46 0 0 0 6.47 6.46zM197 198.67a6.46 6.46 0 0 0 6.46-6.46h-12.95a6.46 6.46 0 0 0 6.49 6.46zM224.29 198.67a6.46 6.46 0 0 0 6.46-6.46h-12.93a6.46 6.46 0 0 0 6.47 6.46zM237.95 198.67a6.46 6.46 0 0 0 6.46-6.46h-12.93a6.46 6.46 0 0 0 6.47 6.46zM265.27 198.67a6.46 6.46 0 0 0 6.46-6.46H258.8a6.46 6.46 0 0 0 6.47 6.46zM251.61 198.67a6.46 6.46 0 0 0 6.46-6.46h-12.93a6.46 6.46 0 0 0 6.47 6.46z" class="grey-stroke-white"/><path d="M258.07 192.21l-6.46-30.26M244.41 192.21l-3.25-30.26M203.71 192.21l6.46-30.26M217.45 192.21l3.25-30.26M231.48 192.21l-.73-30.26M240.99 201.01h14.34v31h-14.34z" class="grey-stroke"/><rect width="75" height="4" x="192.91" y="230.1" class="grey-stroke-white" rx=".5" ry=".5"/><circle cx="251.1" cy="214.84" r="1.5" class="grey-stroke"/><path d="M204.33 229.34v-27.83a.5.5 0 0 1 .5-.5H233v25.53" class="grey-stroke"/><path d="M204.33 221.34h28.66v9M208.66 221.14v-12.59h24.33M208.66 216.34h24.33" class="grey-stroke"/><path d="M211.91 212.35h6.75v4h-6.75zM221.98 214.34h7.31v2h-7.31zM213.91 219.09h3.18v2.25h-3.18z" class="grey-stroke"/><path d="M205.8 229.63l.37-2a6 6 0 0 0 1.63-.84l2.12.87-.92-2a6.07 6.07 0 0 0 .75-1.22l2.52-.42-2-1.33a6 6 0 0 0 0-1.2l2-1.28-2.4-.45a6 6 0 0 0-.58-1.15l1.28-1.92-2.47.58a6.08 6.08 0 0 0-1.57-1l-.38-2.27-1.15 1.9a6 6 0 0 0-1.33 0l-1.4-1.9-.25 2.25a6 6 0 0 0-1.43.81l-2.18-1.06.87 2.51a6.1 6.1 0 0 0-.58 1l-2.39.4 1.94 1.28a6 6 0 0 0 0 1.28l-2 1.25 2.38.45a6 6 0 0 0 .56 1.08l-1.19 2.11 2.4-.76a6.08 6.08 0 0 0 1.21.77l.37 2.22 1.14-1.72a6 6 0 0 0 1.61.09z" class="bright-red"/></g><path d="M182.8 234.72l.38-2a6 6 0 0 0 1.63-.83l2.11.88-.91-2a6.07 6.07 0 0 0 .75-1.21l2.52-.41-2-1.34a6 6 0 0 0 0-1.2l2-1.27-2.4-.47a6 6 0 0 0-.57-1.15l1.29-1.92-2.47.57a6.08 6.08 0 0 0-1.56-1l-.37-2.27-1.15 1.9a6 6 0 0 0-1.33 0l-1.37-1.86-.26 2.25a6 6 0 0 0-1.44.8l-2.16-1.19.86 2.51a6.1 6.1 0 0 0-.59 1l-2.4.39 1.93 1.29a6 6 0 0 0 0 1.28l-2 1.24 2.38.46a6 6 0 0 0 .56 1.08l-1.2 2.1 2.41-.74a6.08 6.08 0 0 0 1.2.77l.36 2.22 1.15-1.71a6 6 0 0 0 1.61.1z" class="bright-red"/><path d="M313.32 209.18a11.2 11.2 0 1 1-18.56-8.42 8 8 0 1 1 14.73 0 11.16 11.16 0 0 1 3.83 8.42zM375.54 206.33a6.59 6.59 0 1 0-12.17 0 9.26 9.26 0 1 0 12.17 0zM408.84 197.2a8.78 8.78 0 1 0-16.21 0 12.32 12.32 0 1 0 16.21 0z" class="green-stroke-white"/><path d="M416.48 206.33a6.59 6.59 0 1 0-12.17 0 9.26 9.26 0 1 0 12.17 0z" class="green-stroke-white"/><path d="M400.74 233.89v-19.14M400.74 218.79v-13.82l2.74-5.34M396.05 205.51l4.69 4.09M402.31 201.91l-1.11-1.86M410.4 222.55v-10.38l2.05-4.01M406.88 212.58l3.52 3.06M411.57 209.87l-.83-1.39" class="green-stroke"/><path d="M396.12 197.2a8.78 8.78 0 1 0-16.21 0 12.32 12.32 0 1 0 16.21 0z" class="green-stroke-white"/><path d="M303.55 205.03l-1.01-1.68M302.12 234.09V216.7M302.13 220.37V207.81l2.48-4.85M297.86 208.31l4.26 3.71M388.02 233.89v-19.14M388.01 218.79v-13.82l2.74-5.34M383.33 205.51l4.69 4.09M389.58 201.91l-1.11-1.86M369.45 233.89v-14.38M369.45 222.55v-10.38l2.05-4.01M365.93 212.58l3.52 3.06M370.63 209.87l-.84-1.39M410.4 233.89v-14.38" class="green-stroke"/><g id="malware-bug1"><g opacity=".3"><path d="M.75 310.42s.71 0 2-.12" class="grey-stroke"/><path fill="none" stroke="#969c9c" stroke-dasharray="5.88 3.92 10.78 5.88" stroke-linecap="round" stroke-linejoin="round" stroke-width="1.5" d="M13.36 309.29a209.18 209.18 0 0 0 22.88-4"/><path fill="none" stroke="#969c9c" stroke-dasharray="3.92 10.78 5.88 3.92 10.78 5.88" stroke-linecap="round" stroke-linejoin="round" stroke-width="1.5" d="M39.07 304.61C65 298 92.51 284.1 80.76 255.08c-20.65-51-76.4-80-20.13-82.52s4.13-19 28.39-47.95c18.72-22.32 43.76-23.36 54.23-22.67"/><path d="M146.19 102.21c1.27.15 2 .29 2 .29" class="grey-stroke"/></g><path d="M144.62 103.31s.34-.11.29-.34l-.07-.47s0-.56-.78-.22a2.56 2.56 0 0 0-.53 0 1.49 1.49 0 0 0-.31.07 10 10 0 0 0-1.63.33 3.73 3.73 0 0 1-.84.18 5.48 5.48 0 0 1-1.22 0l-.43-.05a.23.23 0 0 0-.06.31l.74.73s.22.17.2.29v.74a.36.36 0 0 0 .43.27 2.11 2.11 0 0 1 1-.75s2.3-.85 3.21-1.09z" class="medium-blue"/><path d="M144 98.63s-2.13 3.87 1.7 9.25c1.14 1.6 4.59 3.25 6.61 3.58 3.88.63 9.42 2 19.17-2 0 0 8.18-3.66 5.55-11.85s-2.77-7.33-2.77-7.33S153.47 81 144 98.63z" class="medium-blue"/><path d="M169.18 109.22a.5.5 0 0 1 .58.61 34.33 34.33 0 0 0-.89 5.16 3.82 3.82 0 0 1-2.36 3.66.5.5 0 0 1-.6-.19 1.62 1.62 0 0 0-1.13-.7h-.33s0-.81 1.31-2.37a12.72 12.72 0 0 0 2.44-5.56.51.51 0 0 1 .41-.46z" class="medium-blue"/><path d="M164.57 118.07s1.24-.26.38.93a15.24 15.24 0 0 1-3 3.7.62.62 0 0 1-.28.14c-.44.09-1.66.28-2.23-.4a.33.33 0 0 1-.08-.21c0-.33.26-1.27 2.82-2.53a7.86 7.86 0 0 0 1.52-1zM154.51 118.13l1.1-1.59a2.11 2.11 0 0 1 .92-.67l1.95-.73a5.85 5.85 0 0 0 2.21-1.42c1.29-1.37 1.08-2.44.91-2.86a.28.28 0 0 0-.27-.19c-1.68.1-5.74 4.21-5.93 4.41l-1.65 2.06c2-2.54-.25.33-.4.65s.77.42.77.42a.33.33 0 0 0 .39-.08zM153.63 119.15s.33-.24.23-.46-.2-.45-.36-.53-.78.11-1.05.23c-.43.18-.82.42-1.24.61a6 6 0 0 0-1 .57 4.59 4.59 0 0 1-.86.48 6.46 6.46 0 0 1-1.31.41l-.47.09s-.15.2 0 .35l1 .52s.27.1.29.24l.2.77a.37.37 0 0 0 .53.14 2.64 2.64 0 0 1 .86-1.13s2.25-1.71 3.18-2.29zM181.56 107.56l7.46-.15s.22 0 .11.24l-.21.46a1.09 1.09 0 0 0-.07.46l.13 1.6s.07.26-.17.12l-1.78-.91-.36.48-4-1.44a.8.8 0 0 0-.58 0l-1.07.43s-.25.07-.25-.17l.25-1s0-.2.37-.16z" class="medium-blue"/><path d="M176.26 104.73c-.19.17-1 1.73-.8 1.84a12.34 12.34 0 0 1 2 1.86 2.52 2.52 0 0 0 3 .5.54.54 0 0 0 .22-.42 1.8 1.8 0 0 1 .32-1l.14-.21s-.25-.37-1.32-.35-2.33-2-2.85-2.56a.22.22 0 0 0-.33 0zM182.45 99l.79-.59 2.59.25-3-1.84h-.08l-1.1 1.1" class="medium-blue"/><path d="M189.77 106.93l.66-1.9a6 6 0 0 0 1.73-.59l2 1.16-.62-2.12a6.07 6.07 0 0 0 .91-1.09l2.56-.05-1.79-1.61a6 6 0 0 0 .21-1.18l2.19-1-2.31-.8a6 6 0 0 0-.41-1.22l1.55-1.72-2.52.22a6.08 6.08 0 0 0-1.41-1.17v-2.3l-1.48 1.65a6 6 0 0 0-1.32-.2l-1.09-2-.63 2.17a6 6 0 0 0-1.53.6l-2-1.45.5 2.61a6.1 6.1 0 0 0-.73.95l-2.43.05 1.73 1.55a6 6 0 0 0-.2 1.27l-2.13 1 2.29.79a6 6 0 0 0 .4 1.15l-1.48 1.91 2.49-.4a6.08 6.08 0 0 0 1.09.93v2.25l1.37-1.53a6 6 0 0 0 1.58.32z" class="bright-red"/><path d="M182.68 101l1.82 1h.14l1.64-.95-1.85.09-1.41-.82M135.65 105.54s.45.45 0 .72a.83.83 0 0 1-.41.15l-.52.13h-.09l.5-.44h-.33l.11-.23-.61.08.55-.41c.2-.18.45-.32.8 0zM144.37 123.19s.32.59-.21.79a.94.94 0 0 1-.48.06H143l.68-.35-.33-.12.19-.22-.66-.07.72-.3c.2-.14.51-.23.77.21zM193 107.49s-.42-.53.06-.81a.94.94 0 0 1 .46-.15l.57-.12h.1l-.6.47.34.06-.15.25h.66l-.65.43a.48.48 0 0 1-.79-.13zM156.68 126.28s-.26-.69-.8-.39a1 1 0 0 0-.39.35l-.43.47-.07.08.77-.31-.14.36h.32l-.41.6.77-.38c.26-.06.55-.25.38-.78z" class="medium-blue"/><path d="M159.36 110a36.69 36.69 0 0 1-16.68 1.76.4.4 0 0 1-.36-.08c-.07-.08-.1-.21 0-.46a1.27 1.27 0 0 1 .43-.58l4.35-3.53M176.11 94.82a26.8 26.8 0 0 0-5.22-7.65A28.85 28.85 0 0 0 153.31 79s-.18-.08-.29 0-.1.15-.07.35a1.1 1.1 0 0 0 .26.52l3 3.48a4.38 4.38 0 0 1 .95 1.42 6.5 6.5 0 0 0 1.92 2.56l1 .81a8.48 8.48 0 0 1 1 1l3.6 2.86z" class="medium-blue-stroke-white"/><path d="M175.44 94.41a3 3 0 0 0-.2-2.59c-.76-1.29-13.39-17.5-30-7.08 0 0 2-1 8-.61s15.91 3.12 22.2 10.28zM176.78 99.4a8.08 8.08 0 0 1-1.7 4.23c-2.28 2.94-7.93 7.7-19.82 5.83 0 0-14-.93-11.48-12 0 0 4.46-5.63 19.61-4.88 0 0 12.35 1.37 13 4.86l.36 1.47a1.36 1.36 0 0 1 .03.49z" class="medium-blue-stroke-white"/><path d="M172.15 91.43l-8.93-5.08M160.29 87.36l.49-1.47 3.16.87M163.37 89.4l2.81.26.87-1.13" class="medium-blue-stroke"/><path d="M191.43 108.89s-.83 1.49-1.83.23c0 0-.74-1 .17-1.53a1.53 1.53 0 0 1 1.08-.21s-.7.89.58 1.51zM192.86 108s-.51 1-1.2.23c0 0-.52-.65.08-1a1 1 0 0 1 .71-.18s-.45.61.41.95zM146.21 122.11s1.09-1.31 1.84.1c0 0 .54 1.16-.45 1.47a1.53 1.53 0 0 1-1.1 0s.86-.74-.29-1.57zM144.64 122.71s.69-.89 1.22 0c0 0 .39.73-.26 1a1 1 0 0 1-.73.05s.55-.55-.23-1.05zM159 125.22s1.8-.48.74-1.87c0 0-.9-1.07-1.66-.23a1.67 1.67 0 0 0-.52 1.09s1.09-.51 1.44 1.01zM157.27 126.31s1.23.07.88-1c0 0-.32-.84-1-.48a1.14 1.14 0 0 0-.57.57s.84-.09.69.91zM137 104.22a.94.94 0 0 1 1.66-.3s.82.89 0 1.36a1.39 1.39 0 0 1-1 .24s.57-.82-.66-1.3zM135.75 105.07a.63.63 0 0 1 1.08-.26s.56.55.05.89a.93.93 0 0 1-.64.2s.35-.56-.49-.83zM182.79 100.94c-.14.68-.71 1.3-2.12 1.6a14.16 14.16 0 0 1-3.11 0l-1.39-9 .34-.22s1.6-1 3.11 1.3l2.09 3.34s1.36 1.56 1.08 2.88" class="medium-blue-stroke-white"/><path d="M182.83 100.5a1 1 0 0 1-.31.45 1.79 1.79 0 0 1-2.3-2.6 2.41 2.41 0 0 0 .64-1.64s2.33 2.67 1.97 3.79zM178 99.46s3.32.61 2.07-3.92" class="medium-blue-stroke"/></g><g id="sky"><path d="M116.34 27.42a4.14 4.14 0 0 1 3.28-3.86A12.17 12.17 0 0 1 142.07 22a7.62 7.62 0 0 1 11.86 2 4.1 4.1 0 0 1 6.07 3.42zM133.16 36.38h27.9M154.38 46.38h7.9" class="bright-blue-stroke"/><path d="M166.32 36.38h11.9" class="bright-blue-dash"/><path d="M332.83 134.38h19.9M336.05 125.38h10.9" class="bright-blue-stroke"/><path d="M357.99 134.38h11.9" class="bright-blue-dash"/><path d="M325.16 46.86h63.58v-.31a5.83 5.83 0 0 0-7.08-5.71A12.39 12.39 0 0 0 363 31.22a16.76 16.76 0 0 0-31.53 9.71 8.69 8.69 0 0 0-6.31 5.93z" class="bright-blue-stroke"/><path d="M354.15 54.38a5.86 5.86 0 0 1 4.64-5.46 17.21 17.21 0 0 1 31.75-2.2 10.78 10.78 0 0 1 16.77 2.78 5.81 5.81 0 0 1 8.58 4.87z" class="white"/><path d="M354.15 54.38a5.86 5.86 0 0 1 4.64-5.46 17.21 17.21 0 0 1 31.75-2.2 10.78 10.78 0 0 1 16.77 2.78 5.81 5.81 0 0 1 8.58 4.87z" class="bright-blue-stroke"/></g><g id="phishing"><path d="M222.95 163.81c1.45 2.78 1.94 5 3 8 .93 2.59.82 4.9 3 6.73a7.93 7.93 0 0 0 5.69 1.72 9.12 9.12 0 0 0 6.16-3.18c3.39-4.1 3.68-11.66 2.85-16.67-.51-3.07-1.91-6.16-4.71-12.34-1.76-3.88-2.77-5.62-3.62-9a33.78 33.78 0 0 1-1-6.75" class="medium-blue-stroke"/><path d="M223.2 164.06c1.45 2.78 1.32 7.29 2.38 10.25a12.65 12.65 0 0 0 4 6.25c1.56 1.3 5.1 1.17 7.13 1 2.34-.2 4.62-2.19 6.13-4 3.39-4.1 3.68-11.66 2.85-16.67-.51-3.07-1.67-5.39-4.47-11.58a61.36 61.36 0 0 1-4-10.25 33.78 33.78 0 0 1-1-6.75" class="medium-blue-stroke"/><path d="M222.82 163.43c.63.13 8.5 9.13 8.5 9.13l-5-.37z" class="medium-blue"/><circle cx="235.46" cy="130.13" r="1.55" class="medium-blue-stroke-white"/><path d="M340.25 69.14a21.43 21.43 0 0 0-.16-3.2 8.15 8.15 0 0 1-2.88.45 6.46 6.46 0 0 1-2.42-.58 9.43 9.43 0 0 1-2.79 2.32 21.8 21.8 0 0 0-4 1.56c-1.18.79-2.58 2.25-2.32 3.13s3 1.8 5.35.78c1.55-.66 3-2.08 4.48-2.34.03-.01 4.55-.73 4.74-2.12z" class="medium-blue-stroke-white"/><path d="M340.21 69.3c-.49 1.29-4.66 2-4.66 2-1.47.27-2.94 1.68-4.48 2.34-2.4 1-5.09.11-5.35-.78a.83.83 0 0 1 0-.15 1 1 0 0 0 0 .59c.27.89 3 1.8 5.35.78 1.55-.66 3-2.07 4.48-2.34 0 0 .67-.11 1.5-.32v.51a9 9 0 0 0 2.86-1.13l.33-1.06a.73.73 0 0 0 0-.11s-.04-.16-.03-.33zM342.65 71.6s-.81 3-2 4-3.93 5-2.11 5.91 6.2-.49 6.73-2.11a18.32 18.32 0 0 1 1.42-3.85 4.59 4.59 0 0 0 .67-4.84s-1.15 1.95-2.8 1.63-1.91-.74-1.91-.74z" class="medium-blue-stroke-white"/><path d="M347.77 72.45a5.22 5.22 0 0 1-1.11 3.07 18.32 18.32 0 0 0-1.42 3.85c-.53 1.62-4.9 3-6.73 2.11a1.08 1.08 0 0 1-.6-.89 1.23 1.23 0 0 0 .6 1.37c1.82.93 6.2-.49 6.73-2.11a18.28 18.28 0 0 1 1.42-3.85 4.08 4.08 0 0 0 1.11-3.55z" class="medium-blue-stroke-white"/><path d="M365.59 37.75a15.91 15.91 0 0 1-9.52-.48 14.22 14.22 0 0 1-4.59-3.27l-.55 1.47a46 46 0 0 0-14.41 8.24c-3.9 3.5-2 7.63-2.25 11.83S332.08 68 332.08 68c4.8 3.62 8.17 1.1 8.17 1.1S342 59.29 342 56.18s-.3-6.26-.3-6.26a45.64 45.64 0 0 0 7-2.29c-2 2.38-3.8 4.76-4.06 6.09s-.47 6.4-1.19 10.77a58.38 58.38 0 0 1-1.92 8s.51 2.72 2.88 3.21a4.32 4.32 0 0 0 3.95-1.41s2.57-8.4 3.11-10.68 0-7.09 0-7.09 4.81-3.33 8.85-5.68 5.14-3.1 6.13-6.94a7.22 7.22 0 0 0-.86-6.15z" class="medium-blue"/><path d="M337.23 33.62s0-.1-.06-.18a2 2 0 0 0-2 0c-1 .4-2.38 1.4-2.93 1s.26-.83.59-1a15 15 0 0 1 1.51-.63.75.75 0 0 0-1-.11c-.53.38-1.9 1.23-2.2.84s.09-1.11.34-1.54a6 6 0 0 1 1.86-2 6.63 6.63 0 0 1 2.85-.08 16.76 16.76 0 0 0 2.39 0c.69-.48 2.93-2.05 4-2.92a24.28 24.28 0 0 0 2.56-2.37c.47-.52 4.17-10.72 7.34-12.5-1.71 1.31-1.43 6.75-1.76 8.16-.38 1.61.66 3.61.19 4.92-.27.76-2.54 3-3.25 3.88-2 1.06-6.7 3.46-7.63 3.82" class="medium-blue-stroke-white"/><path d="M235.28 1.3v128.15M328.76 29.86a303.72 303.72 0 0 0-94-28.26" class="medium-blue-stroke"/><path d="M338.36 36.3a284.5 284.5 0 0 0-11.34-6 .4.4 0 0 1-.18-.53l.74-1.51a.4.4 0 0 1 .53-.18c3.86 1.89 7.71 3.92 11.46 6a.4.4 0 0 1 .15.54 1.19 1.19 0 0 1-.05.81 1.23 1.23 0 0 1-.77.65c-.06.09-.29.36-.54.22zM324.43 29.09q-2.74-1.15-5.5-2.23a.51.51 0 0 1-.29-.66l.52-1.34a.52.52 0 0 1 .67-.3q2.83 1.1 5.65 2.29a.43.43 0 0 1 .24.56l-.53 1.37a.57.57 0 0 1-.76.31z" class="medium-blue"/><circle cx="322.17" cy="26.83" r="2.02" class="medium-blue-stroke-white"/><path d="M322.48 32.34l.29-.83-1.66-2.08.69-2.6.68.21-.95 2.39 1.24 1.81-.29 1.24M301.75 17.76l-.39.86M291.27 13.84l-.39.86M274.73 9.24l-.39.86M256.65 4.95l-.39.86M235.85.75l-.41.89M340.67 32.68a8.19 8.19 0 0 0-1 .4 12 12 0 0 0-1.21.72 4.46 4.46 0 0 1-2.38.54c-.3 0-2 0-2.29-.88a.79.79 0 0 1 .18-.83c.33-.32.86-.18 1.37-.18a3.34 3.34 0 0 0 1.83-.61" class="medium-blue-stroke"/><path d="M368.64 20.78a4.85 4.85 0 0 0-.93-3A17.8 17.8 0 0 0 361 12.2v-.47l-.21.47a3.6 3.6 0 0 1 .15 2.52c-.38 1.6-2.67 5.32-5 4.44-1.33-.5-2.14-1.93-1.42-5.51v-1.77a4.73 4.73 0 0 0-3.79.69c-.74.5-1 1.64-1 2.93L346 21.32s3.86 3.32 5 3.61c.24 1.92.45 3.88.51 4.62a18.48 18.48 0 0 1-.92 4.88c-.09.15-.56 1.13-1.14 1.18s.65 1.42.65 1.42a6 6 0 0 0 1.9 2.61c1.28.87 2.69 2 4.55 2.11 2.38.16 8.14 0 10 1.79 0 0 2.08.33 1-5.14-.45-2.17.16-9.2.65-11.06a41.76 41.76 0 0 0 .44-6.56z" class="medium-blue"/><path d="M338.4 32a7 7 0 0 1 3.88 1.39 7.22 7.22 0 0 0 1.42.79l10.61-.18 3.14-6c2.2-4.15 4.67-8.17 7-7.63s2.18 2.65 1 5.26-8.12 13.51-9.93 13.78-12.39-2.36-12.39-2.36c-.26.1-.54.21-.82.3a4.43 4.43 0 0 1-2.77-.33c-1-.27-1.57-.18-2.35-.47a4.68 4.68 0 0 1-1.74-1.29c-.62-.59-.46-.7-.17-1a9 9 0 0 1 2.31-.88c.36 0 .42-.17.42-.17a7.89 7.89 0 0 0-2.49.11c-.43 0-.68-.19-.62-.53s1.89-.79 3.5-.79z" class="medium-blue-stroke-white"/><path d="M356.9 27l.44-1.16c1.76-4.36 4.92-8 7.54-7.5s3.47 3.1 2.55 5.83a28 28 0 0 1-3.22 5.83 28.63 28.63 0 0 1-7.31-3z" class="medium-blue"/><path d="M360.75 11.15c0 .45 1.54 1.88 1.35 3.23s-4.06 6.81-6.27 5.81-1.93-5.58-1.76-5.69 6.68-3.35 6.68-3.35z" class="medium-blue-stroke-white"/><path d="M351.93 6.18a16.82 16.82 0 0 0-.59 3c0 1.07.74 1.52.76 2.17a2.62 2.62 0 0 0 .32 1.74s-.39 1.15.17 1.33a2.09 2.09 0 0 1 .41.17 2.34 2.34 0 0 1 .36.71 1.59 1.59 0 0 0 1.46 1.51c1.31.18 3.8-.44 5.58-3.29a11.11 11.11 0 0 0 2.13-7 4.63 4.63 0 0 0-5-4.47 6.39 6.39 0 0 0-5.6 4.13z" class="medium-blue-stroke-white"/><path d="M349 8.41a13.94 13.94 0 0 0 4.31 4.4" class="medium-blue-stroke"/><path d="M355.95 11.15a6.3 6.3 0 0 0 1.89-.19 4.58 4.58 0 0 0 1.89-.85c-1.17 1.18-.59 1.52-3.54 2.69z" class="medium-blue"/><path d="M364.51 11.26c-2-2.76-.55-5.67-2.87-8.58a5.44 5.44 0 0 0-3.92-2.25 5.19 5.19 0 0 0-3.72 1.7c-.86.59-6.43 4.45-5.67 6.36a1.3 1.3 0 0 0 .71.67 1 1 0 0 1 1.24-1 9.24 9.24 0 0 1 4.18 2.17 3.61 3.61 0 0 0-.95.08 2.29 2.29 0 0 1-.65.12 5.45 5.45 0 0 1-.73-.5 7.1 7.1 0 0 0-.89-.41l-.15 2.65c.46.17.55 1 1.1 1s.67-.14 1-.11.4.47 1.12.69a3.68 3.68 0 0 0 2.9-.55 26 26 0 0 1 1.79 2.79c3.72 6.58 6.15 3.3 6.15 3.3l.23-.09-.49-4.5a3.41 3.41 0 0 1 .49-.24c.92-.35.06-1.96-.87-3.3z" class="medium-blue"/><path d="M351.12 11a7.64 7.64 0 0 1 1.21.6c.15.23-.13.13-.13.13-.76.15-.73-.57-1.08-.73m2.71 1.17a3.12 3.12 0 0 0 1.62.44c.23-.14-.15-.57-.15-.57a2 2 0 0 0-1.69-.1c-.04.15.22.19.22.19z" class="white"/></g></svg>