<svg xmlns="http://www.w3.org/2000/svg" width="99.7" height="95.99" viewBox="0 0 99.7 95.99">
  <title>icon-group</title>
  <g id="Layer_2" data-name="Layer 2">
    <g id="Benefits_-_1200" data-name="Benefits - 1200">
      <g id="Better_Way" data-name="Better Way">
        <g id="Respond">
          <g id="icon">
            <path d="M17.1,69.54a23.13,23.13,0,0,0,17-7.47c-.1-2.86-.8-5.46-5.62-7C25,53.88,23,52.56,22,50.65a12.75,12.75,0,0,0,1.56-2.29v0a17.66,17.66,0,0,0,1.06-3.77,6.5,6.5,0,0,0,.51-.78,3.63,3.63,0,0,0,.6-1.59v-.15c0-1.6,0-2.53-.31-2.86a.48.48,0,0,0-.16-.11,4.4,4.4,0,0,0,.09-2.94,11.61,11.61,0,0,0-.73-1.52h.27a.3.3,0,0,0,.28-.21.3.3,0,0,0-.12-.33A5.78,5.78,0,0,1,24,32.73,6.26,6.26,0,0,0,20,30a7.33,7.33,0,0,0-2.48,0A7.33,7.33,0,0,0,15,30a6.26,6.26,0,0,0-4,2.69A5.83,5.83,0,0,1,10,34.07a.3.3,0,0,0,.16.55h.27a11.6,11.6,0,0,0-.73,1.52,4.4,4.4,0,0,0,.09,2.94.48.48,0,0,0-.16.11c-.32.33-.36,1.26-.31,2.86v.15a3.64,3.64,0,0,0,.6,1.59,6.49,6.49,0,0,0,.51.78,17.66,17.66,0,0,0,1.06,3.77v0a12.63,12.63,0,0,0,1.32,2c-.94,2.06-2.95,3.47-6.65,4.69C1.06,56.71.55,59.5.5,62.54A23.12,23.12,0,0,0,17.1,69.54Z" style="fill: #fff;stroke: #373e5a;stroke-linecap: round;stroke-linejoin: round"/>
            <path d="M82.15,69.54a23.13,23.13,0,0,0,17-7.47c-.1-2.86-.8-5.46-5.62-7-3.55-1.16-5.51-2.49-6.51-4.39a12.75,12.75,0,0,0,1.56-2.29v0a17.66,17.66,0,0,0,1.06-3.77,6.5,6.5,0,0,0,.51-.78,3.63,3.63,0,0,0,.6-1.59v-.15c0-1.6,0-2.53-.31-2.86a.48.48,0,0,0-.16-.11,4.4,4.4,0,0,0,.09-2.94,11.61,11.61,0,0,0-.73-1.52H90a.3.3,0,0,0,.28-.21.3.3,0,0,0-.12-.33A5.78,5.78,0,0,1,89,32.73a6.26,6.26,0,0,0-4-2.69,7.33,7.33,0,0,0-2.48,0,7.33,7.33,0,0,0-2.48,0,6.26,6.26,0,0,0-4,2.69A5.83,5.83,0,0,1,75,34.07a.3.3,0,0,0,.16.55h.27a11.6,11.6,0,0,0-.73,1.52,4.4,4.4,0,0,0,.09,2.94.48.48,0,0,0-.16.11c-.32.33-.36,1.26-.31,2.86v.15a3.64,3.64,0,0,0,.6,1.59,6.49,6.49,0,0,0,.51.78,17.66,17.66,0,0,0,1.06,3.77v0a12.63,12.63,0,0,0,1.32,2c-.94,2.06-2.95,3.47-6.65,4.69-5.07,1.66-5.58,4.45-5.63,7.5A23.12,23.12,0,0,0,82.15,69.54Z" style="fill: #fff;stroke: #373e5a;stroke-linecap: round;stroke-linejoin: round"/>
            <path d="M30.92,81.49A36.55,36.55,0,0,0,57.85,69.7c-.16-4.52-1.27-8.62-8.88-11.12-5.61-1.84-8.71-3.93-10.29-6.94A20.14,20.14,0,0,0,41.16,48v0a27.9,27.9,0,0,0,1.68-6,10.26,10.26,0,0,0,.81-1.23,5.74,5.74,0,0,0,.95-2.52v-.23c.08-2.53,0-4-.49-4.52a.76.76,0,0,0-.25-.17A7,7,0,0,0,44,28.72a18.35,18.35,0,0,0-1.16-2.4h.42a.47.47,0,0,0,.44-.34.48.48,0,0,0-.19-.53,9.14,9.14,0,0,1-1.79-2.11,9.89,9.89,0,0,0-6.25-4.25,11.57,11.57,0,0,0-3.92,0,11.57,11.57,0,0,0-3.92,0,9.89,9.89,0,0,0-6.25,4.25,9.21,9.21,0,0,1-1.79,2.11.47.47,0,0,0,.25.87h.42a18.33,18.33,0,0,0-1.16,2.4,7,7,0,0,0,.15,4.64.76.76,0,0,0-.25.17c-.51.53-.56,2-.49,4.52v.23a5.75,5.75,0,0,0,.95,2.52A10.25,10.25,0,0,0,20.32,42,27.9,27.9,0,0,0,22,48v0a20,20,0,0,0,2.08,3.15c-1.49,3.26-4.66,5.49-10.51,7.41-8,2.63-8.82,7-8.9,11.84A36.53,36.53,0,0,0,30.92,81.49Z" style="fill: #fff;stroke: #373e5a;stroke-linecap: round;stroke-linejoin: round"/>
            <path d="M67.11,81.49A36.55,36.55,0,0,0,94,69.7c-.16-4.52-1.27-8.62-8.88-11.12-5.61-1.84-8.71-3.93-10.29-6.94A20.14,20.14,0,0,0,77.35,48v0A27.9,27.9,0,0,0,79,42a10.26,10.26,0,0,0,.81-1.23,5.74,5.74,0,0,0,.95-2.52v-.23c.08-2.53,0-4-.49-4.52a.76.76,0,0,0-.25-.17,7,7,0,0,0,.15-4.64,18.35,18.35,0,0,0-1.16-2.4h.42a.47.47,0,0,0,.44-.34.48.48,0,0,0-.19-.53,9.14,9.14,0,0,1-1.79-2.11,9.89,9.89,0,0,0-6.25-4.25,11.57,11.57,0,0,0-3.92,0,11.57,11.57,0,0,0-3.92,0,9.89,9.89,0,0,0-6.25,4.25,9.21,9.21,0,0,1-1.79,2.11.47.47,0,0,0,.25.87h.42a18.33,18.33,0,0,0-1.16,2.4,7,7,0,0,0,.15,4.64.76.76,0,0,0-.25.17c-.51.53-.56,2-.49,4.52v.23a5.75,5.75,0,0,0,.95,2.52A10.25,10.25,0,0,0,56.51,42a27.9,27.9,0,0,0,1.68,6v0a20,20,0,0,0,2.08,3.15c-1.49,3.26-4.66,5.49-10.51,7.41-8,2.63-8.82,7-8.9,11.84A36.53,36.53,0,0,0,67.11,81.49Z" style="fill: #fff;stroke: #373e5a;stroke-linecap: round;stroke-linejoin: round"/>
            <path d="M49.06,95.49A55.48,55.48,0,0,0,89.94,77.58C89.7,70.72,88,64.49,76.47,60.7c-8.52-2.79-13.22-6-15.61-10.54a30.58,30.58,0,0,0,3.75-5.49l0,0a42.36,42.36,0,0,0,2.55-9,15.58,15.58,0,0,0,1.23-1.87,8.72,8.72,0,0,0,1.44-3.82v-.35c.12-3.84,0-6.07-.74-6.87a1.16,1.16,0,0,0-.38-.27A10.56,10.56,0,0,0,69,15.37a27.85,27.85,0,0,0-1.76-3.64h.64a.72.72,0,0,0,.67-.51.72.72,0,0,0-.29-.8,30.59,30.59,0,0,1-2.72-3.2C61.47,2,58.16-.28,56,.74c-1.86.88-4.32-.21-5.94,0a17.57,17.57,0,0,0-5.94,0,15,15,0,0,0-9.48,6.46,14,14,0,0,1-2.71,3.2.72.72,0,0,0,.38,1.32H33a27.82,27.82,0,0,0-1.76,3.64,10.56,10.56,0,0,0,.22,7.05,1.16,1.16,0,0,0-.38.27c-.77.8-.86,3-.74,6.87v.35a8.72,8.72,0,0,0,1.44,3.82A15.57,15.57,0,0,0,33,35.59a42.35,42.35,0,0,0,2.55,9l0,0a30.29,30.29,0,0,0,3.16,4.78c-2.26,5-7.07,8.33-16,11.25-12.17,4-13.39,10.68-13.5,18A55.46,55.46,0,0,0,49.06,95.49Z" style="fill: #fff;stroke: #373e5a;stroke-linecap: round;stroke-linejoin: round"/>
            <path d="M79,79.65s1.08.94.92,5.71" style="fill: #fff;stroke: #373e5a;stroke-linecap: round;stroke-linejoin: round"/>
            <path d="M18.78,79.65s-1.08.94-.92,5.71" style="fill: #fff;stroke: #373e5a;stroke-linecap: round;stroke-linejoin: round"/>
            <path d="M65.22,88.4a.45.45,0,0,1-.16,0c-5-1.95-7.2-5-7.2-10V72.86a.45.45,0,0,1,.42-.45A14.43,14.43,0,0,0,65,70.29a.45.45,0,0,1,.48,0,14.42,14.42,0,0,0,6.7,2.13h0a.45.45,0,0,1,.42.45v5.47c0,5-2.22,8.09-7.2,10A.45.45,0,0,1,65.22,88.4Z" style="fill: #fff;stroke: #1fc469;stroke-linecap: round;stroke-linejoin: round"/>
            <g>
              <ellipse cx="65.28" cy="77.23" rx="0.54" ry="0.65" style="fill: #fff;stroke: #1fc469;stroke-linecap: round;stroke-linejoin: round"/>
              <line x1="65.28" y1="77.87" x2="65.28" y2="81.74" style="fill: #fff;stroke: #1fc469;stroke-linecap: round;stroke-linejoin: round"/>
            </g>
            <g>
              <polyline points="48.08 84.14 48.08 76.12 48.08 60.17 51.66 60.17" style="fill: #fff;stroke: #373e5a;stroke-linecap: round;stroke-linejoin: round;stroke-dasharray: 2,3"/>
              <path d="M67.26,56.61l-.18.32c-1.28,2.21-3.64,4-5.39,5.79-2.26,2.25-4.51,4.61-6.77,6.82-.68-.23-1.81-3.79-2.12-4.78a34.21,34.21,0,0,1-1.13-4.59,2.88,2.88,0,0,1,0-1.57c1.19-1.87,3.63-2.79,5.32-4a21.54,21.54,0,0,0,3.12-2.46c.85-.89.77-1.82,1.37-2.77,1.83-2.91,3,3.32,3.69,4.41a7.23,7.23,0,0,0,1.51,1.58C67.38,55.92,67.62,55.92,67.26,56.61Z" style="fill: #fff;stroke: #373e5a;stroke-linecap: round;stroke-linejoin: round"/>
              <path d="M47.3,60.17a34.22,34.22,0,0,1-1.13,4.59c-.31,1-1.44,4.56-2.12,4.78-2.27-2.21-4.51-4.56-6.77-6.82-1.75-1.75-4.11-3.58-5.39-5.79l-.18-.32c-.36-.69-.12-.7.55-1.25a7.22,7.22,0,0,0,1.51-1.58c.74-1.09,1.86-7.32,3.69-4.41.6,1,.52,1.89,1.37,2.77a21.39,21.39,0,0,0,3.12,2.46c1.68,1.2,4.13,2.11,5.31,4A2.88,2.88,0,0,1,47.3,60.17Z" style="fill: #fff;stroke: #373e5a;stroke-linecap: round;stroke-linejoin: round"/>
            </g>
            <path d="M32.83,22.9a1.39,1.39,0,0,1,0,.48.84.84,0,0,0,0,.22,2.43,2.43,0,0,1,0,.26,1.37,1.37,0,0,0,0,.43.09.09,0,0,1,0,.06.42.42,0,0,0,.07.26,1.42,1.42,0,0,0,.58.21.82.82,0,0,1,.28.09.87.87,0,0,1,.23.44s0,0,0,0a1,1,0,0,1,.12.45c.06.51.1.78.16,1a3.66,3.66,0,0,1,.12.81s0,.09.1.35a1.09,1.09,0,0,1,0,.2,2.81,2.81,0,0,0,.23.69c.07.17.15.41.19.53a2.16,2.16,0,0,0,.2.47.88.88,0,0,1,.11.22s0,.05,0,.05,0,.06.07.12a2.27,2.27,0,0,0,.39.56l.27.28a1.43,1.43,0,0,0,.22.22l.06,0a1.6,1.6,0,0,0,.6.29,6.74,6.74,0,0,0,.82.23,11.84,11.84,0,0,0,2,0l.39,0c.2,0,.63,0,.88-.08l.53-.06.39-.06.09,0,.22-.06.38-.09a6.94,6.94,0,0,0,1-.29.44.44,0,0,1,.18,0,3.73,3.73,0,0,0,1-.36,4.76,4.76,0,0,0,1.28-.85l.39-.36.42-.39a1.77,1.77,0,0,0,.3-.33c0-.07.08-.11.09-.1s0,0,0,0a.67.67,0,0,1,.11-.14,1.19,1.19,0,0,0,.26-.41.76.76,0,0,1,.11-.2,1.88,1.88,0,0,0,.21-.53,7.09,7.09,0,0,0,.29-1.22,1,1,0,0,1,0-.27,3.32,3.32,0,0,1,.52,0,6.74,6.74,0,0,0,.71,0,1.11,1.11,0,0,1,.27,0,1.36,1.36,0,0,1,.24,0,1.11,1.11,0,0,1,.27,0,6.74,6.74,0,0,0,.71,0,3.32,3.32,0,0,1,.52,0,1,1,0,0,1,0,.27,7.08,7.08,0,0,0,.29,1.22,1.88,1.88,0,0,0,.21.53.76.76,0,0,1,.11.2,1.19,1.19,0,0,0,.26.41.67.67,0,0,1,.11.14s0,0,0,0,.05,0,.09.1a1.77,1.77,0,0,0,.3.33l.42.39.39.36a4.76,4.76,0,0,0,1.28.85,3.73,3.73,0,0,0,1,.36.44.44,0,0,1,.18,0,6.94,6.94,0,0,0,1,.29l.38.09.22.06.09,0,.39.06.53.06c.25,0,.68.08.88.08l.39,0a11.84,11.84,0,0,0,2,0,6.74,6.74,0,0,0,.82-.23,1.6,1.6,0,0,0,.6-.29.13.13,0,0,1,.06,0,1.43,1.43,0,0,0,.22-.22l.27-.28a2.27,2.27,0,0,0,.39-.56c0-.07.06-.12.07-.12s0,0,0-.05a.88.88,0,0,1,.11-.22,2.16,2.16,0,0,0,.2-.47c0-.12.13-.36.19-.53a2.81,2.81,0,0,0,.23-.69,1.08,1.08,0,0,1,0-.2c.09-.27.11-.33.1-.35a3.66,3.66,0,0,1,.12-.81c.06-.27.1-.54.16-1a1,1,0,0,1,.12-.45s0,0,0,0a.87.87,0,0,1,.23-.44.82.82,0,0,1,.28-.09,1.42,1.42,0,0,0,.58-.21.42.42,0,0,0,.07-.26.09.09,0,0,1,0-.06,1.37,1.37,0,0,0,0-.43,2.41,2.41,0,0,1,0-.26.84.84,0,0,0,0-.22,1.39,1.39,0,0,1,0-.48.32.32,0,0,0,0-.27.54.54,0,0,1,0-.19c.07-.23-1.18-.16-1.32-.17l-.59,0-.61,0c-.7-.05-1.42,0-2.12,0l-.49,0-.54,0-.48,0-.39,0-.41,0a9.18,9.18,0,0,0-2-.11,7,7,0,0,1-.72,0A2.08,2.08,0,0,0,57,22a7.91,7.91,0,0,0-1,.23,4.06,4.06,0,0,1-.71.14l-.19,0-.22.07a6.1,6.1,0,0,0-1.34.6l-.33.18a6.14,6.14,0,0,0-.59.5,3,3,0,0,1-.59.45.13.13,0,0,0-.07,0,.12.12,0,0,1-.07,0s0,0,0,0-.05,0-.12.05l-.15.05a1.57,1.57,0,0,1-.45.19l-.52.07a1.73,1.73,0,0,0-.46.09s-.3-.06-.55-.09l-.52-.07a1.57,1.57,0,0,1-.45-.19l-.15-.05c-.07,0-.12,0-.12-.05s0,0,0,0a.12.12,0,0,1-.07,0,.13.13,0,0,0-.07,0,3,3,0,0,1-.59-.45,6.13,6.13,0,0,0-.59-.5l-.33-.18a6.1,6.1,0,0,0-1.34-.6l-.22-.07-.19,0a4.06,4.06,0,0,1-.71-.14,7.92,7.92,0,0,0-1-.23,2.08,2.08,0,0,0-.6-.06,7,7,0,0,1-.72,0,7.28,7.28,0,0,0-1.28,0,.51.51,0,0,1-.25.06h-.25l-.25,0-.41,0-.39,0-.48,0-.54,0-.49,0h-.46c-.55,0-1.1-.06-1.65,0l-.61,0-.59,0c-.39,0-1.36-.17-1.42.36A.68.68,0,0,0,32.83,22.9Z" style="fill: #373e5a"/>
            <g>
              <path d="M57.78,23.55a10.9,10.9,0,0,0-1.33.15,4.51,4.51,0,0,0-1.26.34,1.87,1.87,0,0,0-.65.52,2,2,0,0,0-.36,1.3,5.68,5.68,0,0,0,0,.66,1.65,1.65,0,0,0,.15.58.28.28,0,0,0,.37.12.26.26,0,0,0,.15-.21l0-.13,0,0,.06-.17a3.07,3.07,0,0,1,.14-.38l0-.09a3.24,3.24,0,0,1,.43-.76,3.79,3.79,0,0,1,2.21-1.33.28.28,0,0,0,.22-.31A.27.27,0,0,0,57.78,23.55Z" style="fill: #fff"/>
              <path d="M39.58,23.55a10.9,10.9,0,0,0-1.33.15A4.51,4.51,0,0,0,37,24a1.87,1.87,0,0,0-.65.52,2,2,0,0,0-.36,1.3,5.68,5.68,0,0,0,0,.66,1.65,1.65,0,0,0,.15.58.28.28,0,0,0,.37.12.26.26,0,0,0,.15-.21l0-.13,0,0,.06-.17a3.07,3.07,0,0,1,.14-.38l0-.09a3.24,3.24,0,0,1,.43-.76,3.79,3.79,0,0,1,2.21-1.33.28.28,0,0,0,.22-.31A.27.27,0,0,0,39.58,23.55Z" style="fill: #fff"/>
            </g>
          </g>
        </g>
      </g>
    </g>
  </g>
</svg>
