<svg xmlns="http://www.w3.org/2000/svg" width="39.06" height="33.76" viewBox="0 0 39.06 33.76">
  <title>icon-rpm</title>
  <g id="Layer_2" data-name="Layer 2">
    <g id="Home_-_1200" data-name="Home - 1200">
      <g id="First_Module" data-name="First Module">
        <g id="Advantages">
          <g id="Icon_Group" data-name="Icon Group">
            <g id="icon">
              <g>
                <g>
                  <path d="M30,13.44,20.51,23.49a2.15,2.15,0,0,1-1.51.67l-1,0-.35,2.52Z" style="fill: #fff;stroke: #3f4563;stroke-linecap: round;stroke-linejoin: round"/>
                  <path d="M19,21.77,30,13.44,15.46,24.25,18,24.19l.14-1A2.15,2.15,0,0,1,19,21.77Z" style="fill: #fff;stroke: #3f4563;stroke-linecap: round;stroke-linejoin: round"/>
                  <path d="M20.51,23.49,30,13.44,19,21.77a2.15,2.15,0,0,0-.84,1.42l-.14,1,1,0A2.15,2.15,0,0,0,20.51,23.49Z" style="fill: #fff;stroke: #3f4563;stroke-linecap: round;stroke-linejoin: round"/>
                </g>
                <circle cx="19.55" cy="22.65" r="2.32" transform="translate(-4.17 40.88) rotate(-86.73)" style="fill: #fff;stroke: #3f4563;stroke-linecap: round;stroke-linejoin: round"/>
              </g>
              <path d="M30.29,26.7a12.11,12.11,0,0,1-21.51,0" style="fill: none;stroke: #3f4563;stroke-linecap: round;stroke-linejoin: round"/>
              <path d="M30.29,26.7h6.86a19,19,0,1,0-35.24,0H8.77" style="fill: none;stroke: #3f4563;stroke-linecap: round;stroke-linejoin: round"/>
              <g>
                <path d="M34.52,21.51a.58.58,0,0,1-.41-.17.6.6,0,0,1-.17-.41.58.58,0,0,1,.17-.4.6.6,0,0,1,.82,0,.61.61,0,0,1,.17.41.59.59,0,0,1-.17.41A.58.58,0,0,1,34.52,21.51Z" style="fill: #3f4563"/>
                <path d="M33.24,16.48a.57.57,0,0,1,.37-.73h0a.58.58,0,0,1,.73.37h0a.58.58,0,0,1-.37.73h0l-.18,0h0A.57.57,0,0,1,33.24,16.48Zm-28.15.35a.58.58,0,0,1-.37-.73h0a.58.58,0,0,1,.73-.37h0a.58.58,0,0,1,.37.73h0a.58.58,0,0,1-.55.4h0Zm26.09-4.36a.58.58,0,0,1,.13-.81h0a.57.57,0,0,1,.81.13h0a.58.58,0,0,1-.13.81h0a.57.57,0,0,1-.34.11h0A.58.58,0,0,1,31.19,12.47Zm-24.12.1a.57.57,0,0,1-.13-.8h0a.57.57,0,0,1,.81-.13h0a.57.57,0,0,1,.13.8h0a.58.58,0,0,1-.47.24h0A.59.59,0,0,1,7.07,12.57ZM28,9.28a.58.58,0,0,1-.13-.81h0a.58.58,0,0,1,.81-.13h0a.57.57,0,0,1,.13.81h0a.57.57,0,0,1-.47.24h0A.55.55,0,0,1,28,9.28ZM10.27,9.13a.57.57,0,0,1,.13-.8h0a.57.57,0,0,1,.8.13h0a.57.57,0,0,1-.13.8h0a.57.57,0,0,1-.33.11h0A.57.57,0,0,1,10.27,9.13ZM24,7.23h0a.57.57,0,0,1-.37-.73h0a.58.58,0,0,1,.73-.37h0a.58.58,0,0,1,.37.73h0a.58.58,0,0,1-.55.4h0A.48.48,0,0,1,24,7.23Zm-9.63-.38a.58.58,0,0,1,.37-.73h0a.57.57,0,0,1,.73.37h0a.58.58,0,0,1-.37.73h0l-.18,0h0A.58.58,0,0,1,14.36,6.85ZM19,5.94a.58.58,0,0,1,.58-.58h0a.58.58,0,0,1,.58.58h0a.58.58,0,0,1-.58.58h0A.58.58,0,0,1,19,5.94Z" style="fill: #3f4563"/>
                <path d="M4.54,21.51A.57.57,0,0,1,4,20.93a.56.56,0,0,1,.17-.4.58.58,0,0,1,1,.4.58.58,0,0,1-.17.41A.56.56,0,0,1,4.54,21.51Z" style="fill: #3f4563"/>
              </g>
            </g>
          </g>
        </g>
      </g>
    </g>
  </g>
</svg>
