<svg xmlns="http://www.w3.org/2000/svg" width="608.95" height="356.35" viewBox="0 0 608.95 356.35">
  <title>icon-cracked-laptop</title>
  <g id="Layer_2" data-name="Layer 2">
    <g id="Home_-_1200" data-name="Home - 1200">
      <g id="Web_Security" data-name="Web Security">
        <g id="Illustration">
          <g id="Default">
            <g id="Computer">
              <path id="Line_and_Fill" data-name="Line and Fill" d="M.5,332.55l81.11-79V20.82S77.95.5,104.27.5H500.91c26.32,0,22.66,20.32,22.66,20.32V253.54l84.23,79" style="fill: #fff;stroke: #969c9c;stroke-linecap: round;stroke-linejoin: round"/>
              <g id="Line">
                <g>
                  <line x1="485.25" y1="268.31" x2="468.67" y2="268.31" style="fill: none;stroke: #efefef;stroke-linecap: round;stroke-linejoin: round"/>
                  <line x1="482.14" y1="259.75" x2="465.56" y2="259.75" style="fill: none;stroke: #efefef;stroke-linecap: round;stroke-linejoin: round"/>
                  <line x1="491.45" y1="276.87" x2="474.87" y2="276.87" style="fill: none;stroke: #efefef;stroke-linecap: round;stroke-linejoin: round"/>
                  <line x1="461.38" y1="268.31" x2="444.8" y2="268.31" style="fill: none;stroke: #efefef;stroke-linecap: round;stroke-linejoin: round"/>
                  <line x1="458.27" y1="259.75" x2="441.7" y2="259.75" style="fill: none;stroke: #efefef;stroke-linecap: round;stroke-linejoin: round"/>
                  <line x1="467.58" y1="276.87" x2="451.01" y2="276.87" style="fill: none;stroke: #efefef;stroke-linecap: round;stroke-linejoin: round"/>
                  <line x1="437.51" y1="268.31" x2="420.93" y2="268.31" style="fill: none;stroke: #efefef;stroke-linecap: round;stroke-linejoin: round"/>
                  <line x1="434.41" y1="259.75" x2="417.83" y2="259.75" style="fill: none;stroke: #efefef;stroke-linecap: round;stroke-linejoin: round"/>
                  <line x1="443.72" y1="276.87" x2="427.14" y2="276.87" style="fill: none;stroke: #efefef;stroke-linecap: round;stroke-linejoin: round"/>
                  <line x1="413.64" y1="268.31" x2="397.06" y2="268.31" style="fill: none;stroke: #efefef;stroke-linecap: round;stroke-linejoin: round"/>
                  <line x1="410.54" y1="259.75" x2="393.96" y2="259.75" style="fill: none;stroke: #efefef;stroke-linecap: round;stroke-linejoin: round"/>
                  <line x1="419.85" y1="276.87" x2="403.27" y2="276.87" style="fill: none;stroke: #efefef;stroke-linecap: round;stroke-linejoin: round"/>
                  <line x1="13.85" y1="350.95" x2="595.6" y2="350.95" style="fill: none;stroke: #969c9c;stroke-linecap: round;stroke-linejoin: round"/>
                  <rect x="109.71" y="22.24" width="389.15" height="210.91" style="fill: none;stroke: #969c9c;stroke-linecap: round;stroke-linejoin: round"/>
                  <path d="M307.88,334.95H1.15s3.79,15.51,24,20.91H584.43c20.22-5.4,24-20.91,24-20.91Z" style="fill: none;stroke: #969c9c;stroke-linecap: round;stroke-linejoin: round"/>
                  <path d="M281.36,334.67s1.22,5,7.75,6.74h31.38c6.52-1.74,7.75-6.74,7.75-6.74Z" style="fill: none;stroke: #969c9c;stroke-linecap: round;stroke-linejoin: round"/>
                  <polygon points="98.74 286.86 515.63 286.86 483.81 249.77 130.56 249.77 98.74 286.86" style="fill: none;stroke: #969c9c;stroke-linecap: round;stroke-linejoin: round"/>
                  <g>
                    <line x1="228.32" y1="268.31" x2="244.9" y2="268.31" style="fill: none;stroke: #969c9c;stroke-linecap: round;stroke-linejoin: round"/>
                    <line x1="231.42" y1="259.75" x2="248" y2="259.75" style="fill: none;stroke: #969c9c;stroke-linecap: round;stroke-linejoin: round"/>
                    <line x1="222.11" y1="276.87" x2="334.16" y2="276.87" style="fill: none;stroke: #969c9c;stroke-linecap: round;stroke-linejoin: round"/>
                    <line x1="252.19" y1="268.31" x2="268.77" y2="268.31" style="fill: none;stroke: #969c9c;stroke-linecap: round;stroke-linejoin: round"/>
                    <line x1="255.29" y1="259.75" x2="271.87" y2="259.75" style="fill: none;stroke: #969c9c;stroke-linecap: round;stroke-linejoin: round"/>
                    <line x1="245.98" y1="276.87" x2="262.56" y2="276.87" style="fill: none;stroke: #969c9c;stroke-linecap: round;stroke-linejoin: round"/>
                    <line x1="276.05" y1="268.31" x2="292.63" y2="268.31" style="fill: none;stroke: #969c9c;stroke-linecap: round;stroke-linejoin: round"/>
                    <line x1="279.16" y1="259.75" x2="295.74" y2="259.75" style="fill: none;stroke: #969c9c;stroke-linecap: round;stroke-linejoin: round"/>
                    <line x1="269.85" y1="276.87" x2="286.43" y2="276.87" style="fill: none;stroke: #969c9c;stroke-linecap: round;stroke-linejoin: round"/>
                    <line x1="299.92" y1="268.31" x2="316.5" y2="268.31" style="fill: none;stroke: #969c9c;stroke-linecap: round;stroke-linejoin: round"/>
                    <line x1="303.03" y1="259.75" x2="319.6" y2="259.75" style="fill: none;stroke: #969c9c;stroke-linecap: round;stroke-linejoin: round"/>
                    <line x1="293.72" y1="276.87" x2="310.29" y2="276.87" style="fill: none;stroke: #969c9c;stroke-linecap: round;stroke-linejoin: round"/>
                  </g>
                  <g>
                    <g>
                      <line x1="385" y1="268.31" x2="368.42" y2="268.31" style="fill: none;stroke: #efefef;stroke-linecap: round;stroke-linejoin: round"/>
                      <line x1="381.9" y1="259.75" x2="365.32" y2="259.75" style="fill: none;stroke: #efefef;stroke-linecap: round;stroke-linejoin: round"/>
                      <line x1="391.21" y1="276.87" x2="374.63" y2="276.87" style="fill: none;stroke: #efefef;stroke-linecap: round;stroke-linejoin: round"/>
                      <line x1="361.13" y1="268.31" x2="344.55" y2="268.31" style="fill: none;stroke: #efefef;stroke-linecap: round;stroke-linejoin: round"/>
                      <line x1="358.03" y1="259.75" x2="341.45" y2="259.75" style="fill: none;stroke: #efefef;stroke-linecap: round;stroke-linejoin: round"/>
                      <line x1="367.34" y1="276.87" x2="350.76" y2="276.87" style="fill: none;stroke: #efefef;stroke-linecap: round;stroke-linejoin: round"/>
                      <line x1="337.27" y1="268.31" x2="320.69" y2="268.31" style="fill: none;stroke: #efefef;stroke-linecap: round;stroke-linejoin: round"/>
                      <line x1="334.16" y1="259.75" x2="317.58" y2="259.75" style="fill: none;stroke: #efefef;stroke-linecap: round;stroke-linejoin: round"/>
                      <line x1="343.47" y1="276.87" x2="326.89" y2="276.87" style="fill: none;stroke: #efefef;stroke-linecap: round;stroke-linejoin: round"/>
                      <line x1="313.4" y1="268.31" x2="296.82" y2="268.31" style="fill: none;stroke: #efefef;stroke-linecap: round;stroke-linejoin: round"/>
                      <line x1="310.29" y1="259.75" x2="293.72" y2="259.75" style="fill: none;stroke: #efefef;stroke-linecap: round;stroke-linejoin: round"/>
                      <line x1="319.6" y1="276.87" x2="303.03" y2="276.87" style="fill: none;stroke: #fff;stroke-linecap: round;stroke-linejoin: round"/>
                    </g>
                    <g>
                      <line x1="385" y1="268.31" x2="368.42" y2="268.31" style="fill: none;stroke: #969c9c;stroke-linecap: round;stroke-linejoin: round"/>
                      <line x1="381.9" y1="259.75" x2="365.32" y2="259.75" style="fill: none;stroke: #969c9c;stroke-linecap: round;stroke-linejoin: round"/>
                      <line x1="391.21" y1="276.87" x2="374.63" y2="276.87" style="fill: none;stroke: #969c9c;stroke-linecap: round;stroke-linejoin: round"/>
                      <line x1="361.13" y1="268.31" x2="344.55" y2="268.31" style="fill: none;stroke: #969c9c;stroke-linecap: round;stroke-linejoin: round"/>
                      <line x1="358.03" y1="259.75" x2="341.45" y2="259.75" style="fill: none;stroke: #969c9c;stroke-linecap: round;stroke-linejoin: round"/>
                      <line x1="367.34" y1="276.87" x2="350.76" y2="276.87" style="fill: none;stroke: #969c9c;stroke-linecap: round;stroke-linejoin: round"/>
                      <line x1="337.27" y1="268.31" x2="320.69" y2="268.31" style="fill: none;stroke: #969c9c;stroke-linecap: round;stroke-linejoin: round"/>
                      <line x1="334.16" y1="259.75" x2="317.58" y2="259.75" style="fill: none;stroke: #969c9c;stroke-linecap: round;stroke-linejoin: round"/>
                      <line x1="343.47" y1="276.87" x2="326.89" y2="276.87" style="fill: none;stroke: #969c9c;stroke-linecap: round;stroke-linejoin: round"/>
                      <line x1="313.4" y1="268.31" x2="296.82" y2="268.31" style="fill: none;stroke: #969c9c;stroke-linecap: round;stroke-linejoin: round"/>
                      <line x1="310.29" y1="259.75" x2="293.72" y2="259.75" style="fill: none;stroke: #969c9c;stroke-linecap: round;stroke-linejoin: round"/>
                      <line x1="319.6" y1="276.87" x2="303.03" y2="276.87" style="fill: none;stroke: #969c9c;stroke-linecap: round;stroke-linejoin: round"/>
                    </g>
                  </g>
                  <g>
                    <g>
                      <line x1="128.07" y1="268.31" x2="144.65" y2="268.31" style="fill: none;stroke: #efefef;stroke-linecap: round;stroke-linejoin: round"/>
                      <line x1="131.18" y1="259.75" x2="147.76" y2="259.75" style="fill: none;stroke: #efefef;stroke-linecap: round;stroke-linejoin: round"/>
                      <line x1="121.87" y1="276.87" x2="138.45" y2="276.87" style="fill: none;stroke: #efefef;stroke-linecap: round;stroke-linejoin: round"/>
                      <line x1="151.94" y1="268.31" x2="168.52" y2="268.31" style="fill: none;stroke: #efefef;stroke-linecap: round;stroke-linejoin: round"/>
                      <line x1="155.05" y1="259.75" x2="171.62" y2="259.75" style="fill: none;stroke: #efefef;stroke-linecap: round;stroke-linejoin: round"/>
                      <line x1="145.74" y1="276.87" x2="162.31" y2="276.87" style="fill: none;stroke: #efefef;stroke-linecap: round;stroke-linejoin: round"/>
                      <line x1="175.81" y1="268.31" x2="192.39" y2="268.31" style="fill: none;stroke: #efefef;stroke-linecap: round;stroke-linejoin: round"/>
                      <line x1="178.91" y1="259.75" x2="195.49" y2="259.75" style="fill: none;stroke: #efefef;stroke-linecap: round;stroke-linejoin: round"/>
                      <line x1="169.6" y1="276.87" x2="186.18" y2="276.87" style="fill: none;stroke: #efefef;stroke-linecap: round;stroke-linejoin: round"/>
                      <line x1="199.68" y1="268.31" x2="216.26" y2="268.31" style="fill: none;stroke: #efefef;stroke-linecap: round;stroke-linejoin: round"/>
                      <line x1="202.78" y1="259.75" x2="219.36" y2="259.75" style="fill: none;stroke: #efefef;stroke-linecap: round;stroke-linejoin: round"/>
                      <line x1="193.47" y1="276.87" x2="210.05" y2="276.87" style="fill: none;stroke: #efefef;stroke-linecap: round;stroke-linejoin: round"/>
                    </g>
                    <g>
                      <line x1="128.07" y1="268.31" x2="144.65" y2="268.31" style="fill: none;stroke: #969c9c;stroke-linecap: round;stroke-linejoin: round"/>
                      <line x1="131.18" y1="259.75" x2="147.76" y2="259.75" style="fill: none;stroke: #969c9c;stroke-linecap: round;stroke-linejoin: round"/>
                      <line x1="121.87" y1="276.87" x2="138.45" y2="276.87" style="fill: none;stroke: #969c9c;stroke-linecap: round;stroke-linejoin: round"/>
                      <line x1="151.94" y1="268.31" x2="168.52" y2="268.31" style="fill: none;stroke: #969c9c;stroke-linecap: round;stroke-linejoin: round"/>
                      <line x1="155.05" y1="259.75" x2="171.62" y2="259.75" style="fill: none;stroke: #969c9c;stroke-linecap: round;stroke-linejoin: round"/>
                      <line x1="145.74" y1="276.87" x2="162.31" y2="276.87" style="fill: none;stroke: #969c9c;stroke-linecap: round;stroke-linejoin: round"/>
                      <line x1="175.81" y1="268.31" x2="192.39" y2="268.31" style="fill: none;stroke: #969c9c;stroke-linecap: round;stroke-linejoin: round"/>
                      <line x1="178.91" y1="259.75" x2="195.49" y2="259.75" style="fill: none;stroke: #969c9c;stroke-linecap: round;stroke-linejoin: round"/>
                      <line x1="169.6" y1="276.87" x2="186.18" y2="276.87" style="fill: none;stroke: #969c9c;stroke-linecap: round;stroke-linejoin: round"/>
                      <line x1="199.68" y1="268.31" x2="216.26" y2="268.31" style="fill: none;stroke: #969c9c;stroke-linecap: round;stroke-linejoin: round"/>
                      <line x1="202.78" y1="259.75" x2="219.36" y2="259.75" style="fill: none;stroke: #969c9c;stroke-linecap: round;stroke-linejoin: round"/>
                      <line x1="193.47" y1="276.87" x2="210.05" y2="276.87" style="fill: none;stroke: #969c9c;stroke-linecap: round;stroke-linejoin: round"/>
                    </g>
                  </g>
                  <polyline points="184.1 318.95 425.49 318.95 415.07 301.48 198.79 301.83 184.1 318.95" style="fill: none;stroke: #969c9c;stroke-linecap: round;stroke-linejoin: round"/>
                </g>
                <g>
                  <line x1="485.25" y1="268.31" x2="468.67" y2="268.31" style="fill: none;stroke: #969c9c;stroke-linecap: round;stroke-linejoin: round"/>
                  <line x1="482.14" y1="259.75" x2="465.56" y2="259.75" style="fill: none;stroke: #969c9c;stroke-linecap: round;stroke-linejoin: round"/>
                  <line x1="491.45" y1="276.87" x2="474.87" y2="276.87" style="fill: none;stroke: #969c9c;stroke-linecap: round;stroke-linejoin: round"/>
                  <line x1="461.38" y1="268.31" x2="444.8" y2="268.31" style="fill: none;stroke: #969c9c;stroke-linecap: round;stroke-linejoin: round"/>
                  <line x1="458.27" y1="259.75" x2="441.7" y2="259.75" style="fill: none;stroke: #969c9c;stroke-linecap: round;stroke-linejoin: round"/>
                  <line x1="467.58" y1="276.87" x2="451.01" y2="276.87" style="fill: none;stroke: #969c9c;stroke-linecap: round;stroke-linejoin: round"/>
                  <line x1="437.51" y1="268.31" x2="420.93" y2="268.31" style="fill: none;stroke: #969c9c;stroke-linecap: round;stroke-linejoin: round"/>
                  <line x1="434.41" y1="259.75" x2="417.83" y2="259.75" style="fill: none;stroke: #969c9c;stroke-linecap: round;stroke-linejoin: round"/>
                  <line x1="443.72" y1="276.87" x2="427.14" y2="276.87" style="fill: none;stroke: #969c9c;stroke-linecap: round;stroke-linejoin: round"/>
                  <line x1="413.64" y1="268.31" x2="397.06" y2="268.31" style="fill: none;stroke: #969c9c;stroke-linecap: round;stroke-linejoin: round"/>
                  <line x1="410.54" y1="259.75" x2="393.96" y2="259.75" style="fill: none;stroke: #969c9c;stroke-linecap: round;stroke-linejoin: round"/>
                  <line x1="419.85" y1="276.87" x2="403.27" y2="276.87" style="fill: none;stroke: #969c9c;stroke-linecap: round;stroke-linejoin: round"/>
                  <line x1="13.85" y1="350.95" x2="595.6" y2="350.95" style="fill: none;stroke: #969c9c;stroke-linecap: round;stroke-linejoin: round"/>
                  <rect x="109.71" y="22.24" width="389.15" height="210.91" style="fill: none;stroke: #969c9c;stroke-linecap: round;stroke-linejoin: round"/>
                  <path d="M307.88,334.95H1.15s3.79,15.51,24,20.91H584.43c20.22-5.4,24-20.91,24-20.91Z" style="fill: none;stroke: #969c9c;stroke-linecap: round;stroke-linejoin: round"/>
                  <path d="M281.36,334.67s1.22,5,7.75,6.74h31.38c6.52-1.74,7.75-6.74,7.75-6.74Z" style="fill: none;stroke: #969c9c;stroke-linecap: round;stroke-linejoin: round"/>
                  <polygon points="98.74 286.86 515.63 286.86 483.81 249.77 130.56 249.77 98.74 286.86" style="fill: none;stroke: #969c9c;stroke-linecap: round;stroke-linejoin: round"/>
                  <g>
                    <line x1="228.32" y1="268.31" x2="244.9" y2="268.31" style="fill: none;stroke: #969c9c;stroke-linecap: round;stroke-linejoin: round"/>
                    <line x1="231.42" y1="259.75" x2="248" y2="259.75" style="fill: none;stroke: #969c9c;stroke-linecap: round;stroke-linejoin: round"/>
                    <line x1="222.11" y1="276.87" x2="334.16" y2="276.87" style="fill: none;stroke: #969c9c;stroke-linecap: round;stroke-linejoin: round"/>
                    <line x1="252.19" y1="268.31" x2="268.77" y2="268.31" style="fill: none;stroke: #969c9c;stroke-linecap: round;stroke-linejoin: round"/>
                    <line x1="255.29" y1="259.75" x2="271.87" y2="259.75" style="fill: none;stroke: #969c9c;stroke-linecap: round;stroke-linejoin: round"/>
                    <line x1="245.98" y1="276.87" x2="262.56" y2="276.87" style="fill: none;stroke: #969c9c;stroke-linecap: round;stroke-linejoin: round"/>
                    <line x1="276.05" y1="268.31" x2="292.63" y2="268.31" style="fill: none;stroke: #969c9c;stroke-linecap: round;stroke-linejoin: round"/>
                    <line x1="279.16" y1="259.75" x2="295.74" y2="259.75" style="fill: none;stroke: #969c9c;stroke-linecap: round;stroke-linejoin: round"/>
                    <line x1="269.85" y1="276.87" x2="286.43" y2="276.87" style="fill: none;stroke: #969c9c;stroke-linecap: round;stroke-linejoin: round"/>
                    <line x1="299.92" y1="268.31" x2="316.5" y2="268.31" style="fill: none;stroke: #969c9c;stroke-linecap: round;stroke-linejoin: round"/>
                    <line x1="303.03" y1="259.75" x2="319.6" y2="259.75" style="fill: none;stroke: #969c9c;stroke-linecap: round;stroke-linejoin: round"/>
                    <line x1="293.72" y1="276.87" x2="310.29" y2="276.87" style="fill: none;stroke: #969c9c;stroke-linecap: round;stroke-linejoin: round"/>
                  </g>
                  <g>
                    <g>
                      <line x1="385" y1="268.31" x2="368.42" y2="268.31" style="fill: none;stroke: #969c9c;stroke-linecap: round;stroke-linejoin: round"/>
                      <line x1="381.9" y1="259.75" x2="365.32" y2="259.75" style="fill: none;stroke: #969c9c;stroke-linecap: round;stroke-linejoin: round"/>
                      <line x1="391.21" y1="276.87" x2="374.63" y2="276.87" style="fill: none;stroke: #969c9c;stroke-linecap: round;stroke-linejoin: round"/>
                      <line x1="361.13" y1="268.31" x2="344.55" y2="268.31" style="fill: none;stroke: #969c9c;stroke-linecap: round;stroke-linejoin: round"/>
                      <line x1="358.03" y1="259.75" x2="341.45" y2="259.75" style="fill: none;stroke: #969c9c;stroke-linecap: round;stroke-linejoin: round"/>
                      <line x1="367.34" y1="276.87" x2="350.76" y2="276.87" style="fill: none;stroke: #969c9c;stroke-linecap: round;stroke-linejoin: round"/>
                      <line x1="337.27" y1="268.31" x2="320.69" y2="268.31" style="fill: none;stroke: #969c9c;stroke-linecap: round;stroke-linejoin: round"/>
                      <line x1="334.16" y1="259.75" x2="317.58" y2="259.75" style="fill: none;stroke: #969c9c;stroke-linecap: round;stroke-linejoin: round"/>
                      <line x1="343.47" y1="276.87" x2="326.89" y2="276.87" style="fill: none;stroke: #969c9c;stroke-linecap: round;stroke-linejoin: round"/>
                      <line x1="313.4" y1="268.31" x2="296.82" y2="268.31" style="fill: none;stroke: #969c9c;stroke-linecap: round;stroke-linejoin: round"/>
                      <line x1="310.29" y1="259.75" x2="293.72" y2="259.75" style="fill: none;stroke: #969c9c;stroke-linecap: round;stroke-linejoin: round"/>
                      <line x1="319.6" y1="276.87" x2="303.03" y2="276.87" style="fill: none;stroke: #969c9c;stroke-linecap: round;stroke-linejoin: round"/>
                    </g>
                    <g>
                      <line x1="385" y1="268.31" x2="368.42" y2="268.31" style="fill: none;stroke: #969c9c;stroke-linecap: round;stroke-linejoin: round"/>
                      <line x1="381.9" y1="259.75" x2="365.32" y2="259.75" style="fill: none;stroke: #969c9c;stroke-linecap: round;stroke-linejoin: round"/>
                      <line x1="391.21" y1="276.87" x2="374.63" y2="276.87" style="fill: none;stroke: #969c9c;stroke-linecap: round;stroke-linejoin: round"/>
                      <line x1="361.13" y1="268.31" x2="344.55" y2="268.31" style="fill: none;stroke: #969c9c;stroke-linecap: round;stroke-linejoin: round"/>
                      <line x1="358.03" y1="259.75" x2="341.45" y2="259.75" style="fill: none;stroke: #969c9c;stroke-linecap: round;stroke-linejoin: round"/>
                      <line x1="367.34" y1="276.87" x2="350.76" y2="276.87" style="fill: none;stroke: #969c9c;stroke-linecap: round;stroke-linejoin: round"/>
                      <line x1="337.27" y1="268.31" x2="320.69" y2="268.31" style="fill: none;stroke: #969c9c;stroke-linecap: round;stroke-linejoin: round"/>
                      <line x1="334.16" y1="259.75" x2="317.58" y2="259.75" style="fill: none;stroke: #969c9c;stroke-linecap: round;stroke-linejoin: round"/>
                      <line x1="343.47" y1="276.87" x2="326.89" y2="276.87" style="fill: none;stroke: #969c9c;stroke-linecap: round;stroke-linejoin: round"/>
                      <line x1="313.4" y1="268.31" x2="296.82" y2="268.31" style="fill: none;stroke: #969c9c;stroke-linecap: round;stroke-linejoin: round"/>
                      <line x1="310.29" y1="259.75" x2="293.72" y2="259.75" style="fill: none;stroke: #969c9c;stroke-linecap: round;stroke-linejoin: round"/>
                      <line x1="319.6" y1="276.87" x2="303.03" y2="276.87" style="fill: none;stroke: #969c9c;stroke-linecap: round;stroke-linejoin: round"/>
                    </g>
                    <g>
                      <line x1="385" y1="268.31" x2="368.42" y2="268.31" style="fill: none;stroke: #969c9c;stroke-linecap: round;stroke-linejoin: round"/>
                      <line x1="381.9" y1="259.75" x2="365.32" y2="259.75" style="fill: none;stroke: #969c9c;stroke-linecap: round;stroke-linejoin: round"/>
                      <line x1="391.21" y1="276.87" x2="374.63" y2="276.87" style="fill: none;stroke: #969c9c;stroke-linecap: round;stroke-linejoin: round"/>
                      <line x1="361.13" y1="268.31" x2="344.55" y2="268.31" style="fill: none;stroke: #969c9c;stroke-linecap: round;stroke-linejoin: round"/>
                      <line x1="358.03" y1="259.75" x2="341.45" y2="259.75" style="fill: none;stroke: #969c9c;stroke-linecap: round;stroke-linejoin: round"/>
                      <line x1="367.34" y1="276.87" x2="350.76" y2="276.87" style="fill: none;stroke: #969c9c;stroke-linecap: round;stroke-linejoin: round"/>
                      <line x1="337.27" y1="268.31" x2="320.69" y2="268.31" style="fill: none;stroke: #969c9c;stroke-linecap: round;stroke-linejoin: round"/>
                      <line x1="334.16" y1="259.75" x2="317.58" y2="259.75" style="fill: none;stroke: #969c9c;stroke-linecap: round;stroke-linejoin: round"/>
                      <line x1="343.47" y1="276.87" x2="326.89" y2="276.87" style="fill: none;stroke: #969c9c;stroke-linecap: round;stroke-linejoin: round"/>
                      <line x1="313.4" y1="268.31" x2="296.82" y2="268.31" style="fill: none;stroke: #969c9c;stroke-linecap: round;stroke-linejoin: round"/>
                      <line x1="310.29" y1="259.75" x2="293.72" y2="259.75" style="fill: none;stroke: #969c9c;stroke-linecap: round;stroke-linejoin: round"/>
                      <line x1="319.6" y1="276.87" x2="303.03" y2="276.87" style="fill: none;stroke: #969c9c;stroke-linecap: round;stroke-linejoin: round"/>
                    </g>
                  </g>
                  <g>
                    <g>
                      <line x1="128.07" y1="268.31" x2="144.65" y2="268.31" style="fill: none;stroke: #969c9c;stroke-linecap: round;stroke-linejoin: round"/>
                      <line x1="131.18" y1="259.75" x2="147.76" y2="259.75" style="fill: none;stroke: #969c9c;stroke-linecap: round;stroke-linejoin: round"/>
                      <line x1="121.87" y1="276.87" x2="138.45" y2="276.87" style="fill: none;stroke: #969c9c;stroke-linecap: round;stroke-linejoin: round"/>
                      <line x1="151.94" y1="268.31" x2="168.52" y2="268.31" style="fill: none;stroke: #969c9c;stroke-linecap: round;stroke-linejoin: round"/>
                      <line x1="155.05" y1="259.75" x2="171.62" y2="259.75" style="fill: none;stroke: #969c9c;stroke-linecap: round;stroke-linejoin: round"/>
                      <line x1="145.74" y1="276.87" x2="162.31" y2="276.87" style="fill: none;stroke: #969c9c;stroke-linecap: round;stroke-linejoin: round"/>
                      <line x1="175.81" y1="268.31" x2="192.39" y2="268.31" style="fill: none;stroke: #969c9c;stroke-linecap: round;stroke-linejoin: round"/>
                      <line x1="178.91" y1="259.75" x2="195.49" y2="259.75" style="fill: none;stroke: #969c9c;stroke-linecap: round;stroke-linejoin: round"/>
                      <line x1="169.6" y1="276.87" x2="186.18" y2="276.87" style="fill: none;stroke: #969c9c;stroke-linecap: round;stroke-linejoin: round"/>
                      <line x1="199.68" y1="268.31" x2="216.26" y2="268.31" style="fill: none;stroke: #969c9c;stroke-linecap: round;stroke-linejoin: round"/>
                      <line x1="202.78" y1="259.75" x2="219.36" y2="259.75" style="fill: none;stroke: #969c9c;stroke-linecap: round;stroke-linejoin: round"/>
                      <line x1="193.47" y1="276.87" x2="210.05" y2="276.87" style="fill: none;stroke: #969c9c;stroke-linecap: round;stroke-linejoin: round"/>
                    </g>
                    <g>
                      <line x1="128.07" y1="268.31" x2="144.65" y2="268.31" style="fill: none;stroke: #969c9c;stroke-linecap: round;stroke-linejoin: round"/>
                      <line x1="131.18" y1="259.75" x2="147.76" y2="259.75" style="fill: none;stroke: #969c9c;stroke-linecap: round;stroke-linejoin: round"/>
                      <line x1="121.87" y1="276.87" x2="138.45" y2="276.87" style="fill: none;stroke: #969c9c;stroke-linecap: round;stroke-linejoin: round"/>
                      <line x1="151.94" y1="268.31" x2="168.52" y2="268.31" style="fill: none;stroke: #969c9c;stroke-linecap: round;stroke-linejoin: round"/>
                      <line x1="155.05" y1="259.75" x2="171.62" y2="259.75" style="fill: none;stroke: #969c9c;stroke-linecap: round;stroke-linejoin: round"/>
                      <line x1="145.74" y1="276.87" x2="162.31" y2="276.87" style="fill: none;stroke: #969c9c;stroke-linecap: round;stroke-linejoin: round"/>
                      <line x1="175.81" y1="268.31" x2="192.39" y2="268.31" style="fill: none;stroke: #969c9c;stroke-linecap: round;stroke-linejoin: round"/>
                      <line x1="178.91" y1="259.75" x2="195.49" y2="259.75" style="fill: none;stroke: #969c9c;stroke-linecap: round;stroke-linejoin: round"/>
                      <line x1="169.6" y1="276.87" x2="186.18" y2="276.87" style="fill: none;stroke: #969c9c;stroke-linecap: round;stroke-linejoin: round"/>
                      <line x1="199.68" y1="268.31" x2="216.26" y2="268.31" style="fill: none;stroke: #969c9c;stroke-linecap: round;stroke-linejoin: round"/>
                      <line x1="202.78" y1="259.75" x2="219.36" y2="259.75" style="fill: none;stroke: #969c9c;stroke-linecap: round;stroke-linejoin: round"/>
                      <line x1="193.47" y1="276.87" x2="210.05" y2="276.87" style="fill: none;stroke: #969c9c;stroke-linecap: round;stroke-linejoin: round"/>
                    </g>
                    <g>
                      <line x1="128.07" y1="268.31" x2="144.65" y2="268.31" style="fill: none;stroke: #969c9c;stroke-linecap: round;stroke-linejoin: round"/>
                      <line x1="131.18" y1="259.75" x2="147.76" y2="259.75" style="fill: none;stroke: #969c9c;stroke-linecap: round;stroke-linejoin: round"/>
                      <line x1="121.87" y1="276.87" x2="138.45" y2="276.87" style="fill: none;stroke: #969c9c;stroke-linecap: round;stroke-linejoin: round"/>
                      <line x1="151.94" y1="268.31" x2="168.52" y2="268.31" style="fill: none;stroke: #969c9c;stroke-linecap: round;stroke-linejoin: round"/>
                      <line x1="155.05" y1="259.75" x2="171.62" y2="259.75" style="fill: none;stroke: #969c9c;stroke-linecap: round;stroke-linejoin: round"/>
                      <line x1="145.74" y1="276.87" x2="162.31" y2="276.87" style="fill: none;stroke: #969c9c;stroke-linecap: round;stroke-linejoin: round"/>
                      <line x1="175.81" y1="268.31" x2="192.39" y2="268.31" style="fill: none;stroke: #969c9c;stroke-linecap: round;stroke-linejoin: round"/>
                      <line x1="178.91" y1="259.75" x2="195.49" y2="259.75" style="fill: none;stroke: #969c9c;stroke-linecap: round;stroke-linejoin: round"/>
                      <line x1="169.6" y1="276.87" x2="186.18" y2="276.87" style="fill: none;stroke: #969c9c;stroke-linecap: round;stroke-linejoin: round"/>
                      <line x1="199.68" y1="268.31" x2="216.26" y2="268.31" style="fill: none;stroke: #969c9c;stroke-linecap: round;stroke-linejoin: round"/>
                      <line x1="202.78" y1="259.75" x2="219.36" y2="259.75" style="fill: none;stroke: #969c9c;stroke-linecap: round;stroke-linejoin: round"/>
                      <line x1="193.47" y1="276.87" x2="210.05" y2="276.87" style="fill: none;stroke: #969c9c;stroke-linecap: round;stroke-linejoin: round"/>
                    </g>
                  </g>
                  <polyline points="184.1 318.95 425.49 318.95 415.07 301.48 198.79 301.83 184.1 318.95" style="fill: none;stroke: #969c9c;stroke-linecap: round;stroke-linejoin: round"/>
                </g>
              </g>
            </g>
            <g id="Crack">
              <g id="crack-2" data-name="crack">
                <polyline points="204.52 92 197.52 108 197.67 101.85 198.67 75.85 185.67 65.85" style="fill: none;stroke: #3f4563;stroke-linecap: round;stroke-linejoin: round"/>
                <polyline points="190.67 108.85 164.67 120.85 161.67 146.85 137.67 167.85" style="fill: none;stroke: #3f4563;stroke-linecap: round;stroke-linejoin: round"/>
                <polyline points="190.67 108.85 176.67 144.85 177.67 169.85 185.67 194.85 173.67 217.85" style="fill: none;stroke: #3f4563;stroke-linecap: round;stroke-linejoin: round"/>
                <polyline points="198.67 112.85 216.67 160.85 209.67 187.85 214.67 215.85" style="fill: none;stroke: #3f4563;stroke-linecap: round;stroke-linejoin: round"/>
                <polyline points="190.67 108.85 192.67 149.85 186.67 161.85 194.67 171.85" style="fill: none;stroke: #3f4563;stroke-linecap: round;stroke-linejoin: round"/>
                <polyline points="177.67 101.85 179.67 114.85 192.67 122.85 217.67 117.85 185 101.19 177.67 101.85" style="fill: #3f4563"/>
                <polygon points="179.29 110.23 171.92 117.35 181.67 115.98 179.29 110.23" style="fill: #3f4563"/>
                <polygon points="183.42 113.18 184.7 124.7 192.05 118.62 183.42 113.18" style="fill: #3f4563"/>
                <polygon points="187.32 115.04 192.44 145.11 200.12 119.2 187.32 115.04" style="fill: #3f4563"/>
                <polygon points="196.55 120.46 209.67 141.25 206.79 117.58 196.55 120.46" style="fill: #3f4563"/>
                <polyline points="180 86.85 177.33 73.85 194.33 93.52 180 86.85" style="fill: #373e5a"/>
                <polyline points="190 88.85 198 80.19 198.67 87.52 209 80.85 207.67 108.85 192.33 100.19 190 88.85" style="fill: #3f4563"/>
                <polyline points="198.38 93.81 210.17 93.48 207.79 100.23 216.67 101.73 212.04 108.35 193.03 104.06 198.38 93.81" style="fill: #3f4563"/>
                <polyline points="232.17 79.35 218.42 82.58 212.09 92.58 208.19 94.68" style="fill: none;stroke: #3f4563;stroke-linecap: round;stroke-linejoin: round"/>
                <polyline points="233.59 99.14 226.81 101.96 218.91 99.19 203.66 117.53" style="fill: none;stroke: #3f4563;stroke-linecap: round;stroke-linejoin: round"/>
                <polyline points="109.67 69.85 136.67 80.85 158.67 78.85 163.67 88.85 186.67 86.85 211.29 111.73 240.17 111.98 254.79 108.73 424.67 198.85 474.67 194.85 498.33 209.85" style="fill: none;stroke: #3f4563;stroke-linecap: round;stroke-linejoin: round"/>
                <polyline points="158.67 78.85 137.67 61.85 110.67 59.85" style="fill: none;stroke: #3f4563;stroke-linecap: round;stroke-linejoin: round"/>
                <polyline points="109.67 209.19 124.67 140.85 146.67 134.85 145.67 122.85 157.67 110.85 189.67 93.85 167.56 103.62 146.67 112.85 121.67 111.85 109.67 134.85" style="fill: none;stroke: #3f4563;stroke-linecap: round;stroke-linejoin: round"/>
                <polygon points="424.67 198.85 257 110.52 240.83 113.02 227.94 112.17 205.37 120.63 170.29 88.35 186.67 86.85 210.67 110.85 240.67 111.35 252.83 106.69 424.67 198.85" style="fill: #3f4563"/>
                <polyline points="201 101.85 213.67 66.52 197 50.52 206.67 30.85 238.33 21.85" style="fill: none;stroke: #3f4563;stroke-linecap: round;stroke-linejoin: round"/>
                <polyline points="191.67 91.19 171 66.52 181 41.85 153.67 25.85" style="fill: none;stroke: #3f4563;stroke-miterlimit: 10"/>
                <polyline points="143.67 67.19 156.44 89.09 153.92 91.19 171 93.19 162.33 107.19 185 101.19 204.67 114.85 217.67 113.85 236.67 111.35 228.54 111.1 215.79 110.85 215.29 108.48 211.17 107.6" style="fill: #3f4563"/>
                <polyline points="156.42 91.1 147 90.52 143.67 95.19" style="fill: none;stroke: #3f4563;stroke-linecap: round;stroke-linejoin: round"/>
              </g>
            </g>
          </g>
        </g>
      </g>
    </g>
  </g>
</svg>
