<svg width="50" height="50" viewBox="0 0 50 50">
  <path id="icon-shield" class="medium-blue" d="M49.68,24.54a.5.5,0,0,0-.43-.47L41.5,23s0-.07,0-.11V11a1.49,1.49,0,0,0-1.38-1.48A30.83,30.83,0,0,1,25.78,5a1.45,1.45,0,0,0-1.57,0A30.84,30.84,0,0,1,9.88,9.52,1.48,1.48,0,0,0,8.5,11V22.88s0,.07,0,.11L.75,24.07a.5.5,0,0,0-.43.47c0,.15-.14,3.57,2,3.86h.14l1.13-.16.51,3.55a.5.5,0,0,0,.49.43h.06L6.37,32l.12.81a.5.5,0,0,0,.2.33.5.5,0,0,0,.3.1h.07l3.21-.46c2.3,5.56,6.91,9.53,14.2,12.38a1.48,1.48,0,0,0,.54.1,1.5,1.5,0,0,0,.54-.1c7.29-2.85,11.9-6.83,14.2-12.38l3.21.46H43a.5.5,0,0,0,.3-.1.5.5,0,0,0,.2-.33l.12-.81,1.7.21h.06a.5.5,0,0,0,.49-.43l.51-3.55,1.13.16h.14C49.82,28.11,49.69,24.69,49.68,24.54ZM5,31.16l-.36-2.48.86.62a.49.49,0,0,0,.29.09H6L6.23,31ZM6,28.37l-.12-.09h0l-1.12-.81a1.4,1.4,0,0,0-.23-.1h0a1.42,1.42,0,0,0-.38-.13,1.27,1.27,0,0,0-.44,0L2.4,27.4c-.82-.17-1.05-1.56-1.08-2.4l7.21-1a29.58,29.58,0,0,0,.38,3.94l-2.07.3Zm1.45,3.8-.11-.79h0L7,29.23l2.1-.3a22,22,0,0,0,.8,2.88ZM25.48,44.1a.48.48,0,0,0,0-.1V42a.5.5,0,0,0-1,0v2a.47.47,0,0,0,0,.09c-6.7-2.68-11-6.37-13.21-11.47h0c-.14-.31-.28-.63-.4-1h0a20.94,20.94,0,0,1-.82-2.88h0c-.07-.32-.13-.65-.19-1h0a28.21,28.21,0,0,1-.38-3.94h0c0-.33,0-.64,0-1V11a.49.49,0,0,1,.45-.46A31.91,31.91,0,0,0,24.51,6s0,0,0,0V8a.5.5,0,0,0,1,0V6s0,0,0,0a31.9,31.9,0,0,0,14.56,4.56.48.48,0,0,1,.45.48V22.88c0,.33,0,.65,0,1h0a28.22,28.22,0,0,1-.38,3.94c-.06.33-.12.66-.19,1h0C38.37,35.94,33.76,40.78,25.48,44.1ZM42.71,31.38h0l-.11.79-2.48-.36a22.1,22.1,0,0,0,.8-2.88l2.1.3ZM45,31.16,43.77,31,44,29.38h.16a.49.49,0,0,0,.29-.09l.86-.62ZM47.6,27.4l-1.26-.18a1.27,1.27,0,0,0-.44,0,1.42,1.42,0,0,0-.38.13h0a1.4,1.4,0,0,0-.23.1l-1.12.81h0l-.12.09-.88-.13-2.07-.3A29.58,29.58,0,0,0,41.47,24l7.21,1C48.65,25.84,48.42,27.22,47.6,27.4ZM24.5,13V11a.5.5,0,0,1,1,0v2a.5.5,0,0,1-1,0Zm1,3a.5.5,0,1,1-.51-.5h0A.5.5,0,0,1,25.51,16Zm0,18a.5.5,0,1,1-.51-.5h0A.5.5,0,0,1,25.51,34Zm0,3v2a.5.5,0,0,1-1,0V37a.5.5,0,0,1,1,0ZM25,23.5a2,2,0,1,0,2,2A2,2,0,0,0,25,23.5Zm0,3a1,1,0,1,1,1-1A1,1,0,0,1,25,26.5Zm-5.59,4.15a.5.5,0,1,1-.67.74,7.7,7.7,0,0,1-.17-11.3.5.5,0,1,1,.69.72,6.66,6.66,0,0,0-2.08,4.83A6.72,6.72,0,0,0,19.41,30.65ZM16,32.35a.5.5,0,1,1-.74.67,10.93,10.93,0,0,1-.17-14.57.5.5,0,0,1,.75.66A9.93,9.93,0,0,0,16,32.35Zm7-2.77a.5.5,0,0,1-.67.21,4.66,4.66,0,0,1-.26-8.14.5.5,0,0,1,.52.86,3.66,3.66,0,0,0,.21,6.4A.5.5,0,0,1,23,29.59Zm8.44-9.49a7.7,7.7,0,0,1-.17,11.3.5.5,0,1,1-.67-.74,6.72,6.72,0,0,0,2.22-5,6.66,6.66,0,0,0-2.08-4.83.5.5,0,1,1,.69-.72Zm3.51-1.64A10.93,10.93,0,0,1,34.77,33a.5.5,0,1,1-.74-.67,9.93,9.93,0,0,0,.16-13.23.5.5,0,0,1,.75-.66ZM30.2,25.65a4.66,4.66,0,0,1-2.52,4.15.5.5,0,0,1-.46-.89,3.66,3.66,0,0,0,.21-6.4.5.5,0,1,1,.52-.86A4.64,4.64,0,0,1,30.2,25.65Z"/>
</svg>
