<svg xmlns="http://www.w3.org/2000/svg" width="36.34" height="31" viewBox="0 0 36.34 31">
  <title>icon-blue-windows</title>
  <g id="Layer_2" data-name="Layer 2">
    <g id="Benefits_-_1200" data-name="Benefits - 1200">
      <g id="More_Benefits" data-name="More Benefits">
        <path d="M35.84,9.19h-4V5.1a.5.5,0,0,0-.5-.5h-4V.5a.5.5,0,0,0-.5-.5H.5A.5.5,0,0,0,0,.5V21.31a.5.5,0,0,0,.5.5h4v4.1a.5.5,0,0,0,.5.5h4v4.1a.5.5,0,0,0,.5.5h26.4a.5.5,0,0,0,.5-.5V9.69A.5.5,0,0,0,35.84,9.19Zm-.5,2.62H9.94V10.19h25.4ZM1,20.81V1H26.4V4.6H5a.5.5,0,0,0-.5.5V20.81Zm4.47,4.6V5.6h25.4v3.6H9.44a.5.5,0,0,0-.5.5V25.4ZM9.94,30V26.4h0v-1h0V12.81h25.4V30Zm1.27-18.52h-.44a.5.5,0,0,1,0-1h.44a.5.5,0,0,1,0,1Zm3.7,0h-.44a.5.5,0,0,1,0-1h.44a.5.5,0,1,1,0,1Zm-1.88,0h-.38a.5.5,0,0,1,0-1H13a.5.5,0,0,1,0,1Z" style="fill: #03a9f4"/>
      </g>
    </g>
  </g>
</svg>
