<svg xmlns="http://www.w3.org/2000/svg" width="40.02" height="25.83" viewBox="0 0 40.02 25.83">
  <title>icon-shield-green</title>
  <g id="Layer_2" data-name="Layer 2">
    <g id="_1200" data-name="1200">
      <g id="Detailed_Features" data-name="Detailed Features">
        <g id="siem_-_sm" data-name="siem - sm">
          <rect x="18.08" y="11" width="15.86" height="7.48" transform="translate(2.37 -3.56) rotate(8.21)" style="fill: #fff;stroke: #1fc469;stroke-linecap: round;stroke-linejoin: round"/>
          <polygon points="35.33 18.71 33.48 18.49 34.11 14.11 36.38 14.39 35.33 18.71" style="fill: #fff;stroke: #1fc469;stroke-linecap: round;stroke-linejoin: round"/>
          <path d="M22.64,10.51l-5.77-.83h0s0,2.52.65,3l.56.08c.1,0,.19.11.24.26l.37,1.08" style="fill: #fff;stroke: #1fc469;stroke-linecap: round;stroke-linejoin: round"/>
          <line x1="25.74" y1="15.13" x2="20.32" y2="14.35" style="fill: #fff;stroke: #1fc469;stroke-linecap: round;stroke-linejoin: round;stroke-dasharray: 1.631687045097351,2.447530508041382"/>
          <path d="M23.08,10.57l16.45,2.37S38.43,15.3,37,15.5l-1.13-.16a.8.8,0,0,0-.58.14l-1.49.93" style="fill: #fff;stroke: #1fc469;stroke-linecap: round;stroke-linejoin: round"/>
          <rect x="16.83" y="12.77" width="0.4" height="3.36" transform="translate(2.24 -2.28) rotate(8.21)" style="fill: #fff;stroke: #1fc469;stroke-linecap: round;stroke-linejoin: round"/>
          <rect x="6.12" y="11" width="15.86" height="7.48" transform="translate(30.07 27.32) rotate(171.79)" style="fill: #fff;stroke: #1fc469;stroke-linecap: round;stroke-linejoin: round"/>
          <polygon points="4.74 18.71 6.58 18.49 5.95 14.11 3.61 14.4 4.74 18.71" style="fill: #fff;stroke: #1fc469;stroke-linecap: round;stroke-linejoin: round"/>
          <path d="M17.38,10.51l5.77-.83h0s0,2.52-.65,3l-.56.08c-.1,0-.19.11-.24.26l-.37,1.08" style="fill: #fff;stroke: #1fc469;stroke-linecap: round;stroke-linejoin: round"/>
          <line x1="14.29" y1="15.13" x2="19.7" y2="14.35" style="fill: #fff;stroke: #1fc469;stroke-linecap: round;stroke-linejoin: round;stroke-dasharray: 1.631687045097351,2.447530508041382"/>
          <path d="M16.95,10.57.5,12.94S1.59,15.3,3,15.5l1.13-.16a.8.8,0,0,1,.58.14l1.5.73" style="fill: #fff;stroke: #1fc469;stroke-linecap: round;stroke-linejoin: round"/>
          <rect x="22.8" y="12.77" width="0.4" height="3.36" transform="translate(47.82 25.47) rotate(171.79)" style="fill: #fff;stroke: #1fc469;stroke-linecap: round;stroke-linejoin: round"/>
          <path d="M20,25.33a.61.61,0,0,1-.22,0C13,22.63,10,18.4,10,11.59V4.11a.62.62,0,0,1,.57-.61A19.7,19.7,0,0,0,19.69.6a.62.62,0,0,1,.66,0A19.69,19.69,0,0,0,29.5,3.5h0a.62.62,0,0,1,.57.61v7.47c0,6.82-3,11-9.83,13.7A.61.61,0,0,1,20,25.33Z" style="fill: #fff;stroke: #1fc469;stroke-linecap: round;stroke-linejoin: round"/>
          <line x1="20.02" y1="0.84" x2="20.02" y2="5.57" style="fill: none;stroke: #1fc469;stroke-linecap: round;stroke-linejoin: round;stroke-dasharray: 1.631687045097351,2.447530508041382"/>
          <line x1="20.15" y1="25.06" x2="20.15" y2="19.91" style="fill: none;stroke: #1fc469;stroke-linecap: round;stroke-linejoin: round;stroke-dasharray: 1.631687045097351,2.447530508041382"/>
          <circle cx="20.12" cy="12.95" r="0.97" style="fill: none;stroke: #1fc469;stroke-linecap: round;stroke-linejoin: round"/>
          <g>
            <path d="M16.71,16.21a4.29,4.29,0,0,1-.09-6.3" style="fill: none;stroke: #1fc469;stroke-linecap: round;stroke-linejoin: round"/>
            <path d="M14.63,17.2a6.22,6.22,0,0,1-.1-8.29" style="fill: none;stroke: #1fc469;stroke-linecap: round;stroke-linejoin: round"/>
          </g>
          <g>
            <path d="M23.52,16.21a4.29,4.29,0,0,0,.09-6.3" style="fill: none;stroke: #1fc469;stroke-linecap: round;stroke-linejoin: round"/>
            <path d="M25.59,17.2a6.22,6.22,0,0,0,.1-8.29" style="fill: none;stroke: #1fc469;stroke-linecap: round;stroke-linejoin: round"/>
          </g>
        </g>
      </g>
    </g>
  </g>
</svg>
