<svg id="malware-bug3" xmlns="http://www.w3.org/2000/svg" viewBox="0 0 124 109"><defs><style>.blue-stroke,.blue-stroke-white{fill:none;stroke:#373e5a;stroke-linecap:round;stroke-linejoin:round;stroke-width:1.5px}.blue-stroke-white{fill:#fff}.blue{fill:#373e5a}</style></defs><path class="blue" d="M51.65 78.82s-2.31-1.59-1.55 1.57c0 0 1.61 8 4.09 12.82a1.36 1.36 0 0 0 .45.51c.82.57 3.15 2 4.88 1.08a.72.72 0 0 0 .33-.36c.28-.68.54-2.82-3.61-7.56a18.74 18.74 0 0 1-2.17-3.52zM98.41 70.16s-.4-.92.09-1.26l1-.75s1-1.12 1.82 1.2c0 0 .66 1.09 1.38 2.13a10.51 10.51 0 0 1 .71 1.17c.66 1.26 2.08 4 3.2 6.5a11.27 11.27 0 0 0 1.21 2.1 15.86 15.86 0 0 0 2.26 2.51l.88.79s.06.62-.47.71l-2.71-.14s-.71-.13-.91.14l-1.39 1.38a.91.91 0 0 1-1.29-.38s-.47-4.65-1.21-5.94c.02-.01-3.34-7.79-4.57-10.16zM29.68 47.45l-16.48-.34s-.49 0-.25.52l.46 1a2.4 2.4 0 0 1 .17 1l-.3 3.53s-.16.57.38.27l3.93-2 .79 1.06 8.78-3.18a1.76 1.76 0 0 1 1.28 0c.79.33 2.08.86 2.36 1 0 0 .54.16.54-.39l-.54-2.14s-.09-.43-.82-.35z"/><path class="blue" d="M114.93 26.43a17.37 17.37 0 0 1-.08-4l.87-8.88s-1-2.6-2.16.45l-.07.23a3 3 0 0 1-.16-.42.92.92 0 0 0-.94-.7c-1.72.09-5.2 1.87-7.39 4.67C86.43-2.89 58.87 4.66 49.31 8.16L47.56.66S47.45.19 47 .55l-.88.7a2.4 2.4 0 0 1-.93.41l-3.49.59s-.59 0-.17.44L44.44 6l-.84 1 1.93 2.83c-.58 1-2 4.6-5.76 16.87a22.41 22.41 0 0 0 0 14.12c-1.28 1.57-4 5.42-6 5.37-2.38-.05-2.92.76-2.92.76l.31.45a4 4 0 0 1 .71 2.11 1.19 1.19 0 0 0 .5.94c1.37.86 4.82 1 6.54-1.1a25.17 25.17 0 0 1 3.49-3.43 27.15 27.15 0 0 0 7.1 7 1.09 1.09 0 0 0-1.35.89 75.81 75.81 0 0 1-2.55 11.28c-1.62 4.9.48 11 2.24 12.81a1.1 1.1 0 0 0 1.38.13 3.57 3.57 0 0 1 2.9-.46l.71.19s.68-1.66-.68-5.95c-1.22-3.88-1.74-13.56-.79-16.74a1.14 1.14 0 0 0-.36-1.13c.6.35 1 .53 1 .53a83.13 83.13 0 0 0 13.62 4.76.8.8 0 0 0-.08.49c.18 1.12 1.08 3.78 5.69 5.11a14.91 14.91 0 0 0 6.69.28l5.22-.91a5.38 5.38 0 0 1 2.86.3l11 4.32a.83.83 0 0 0 1-.34s1.78-1.5 1.16-1.92a8.62 8.62 0 0 0-2.16-.84L84.68 61h-.06l-.69-.18c4.07-.34 7.47-1.06 10.44-1.57 4.46-.76 12.07-4.63 14.59-8.38 4.52-6.73 5.29-12.45 5-16.32.68-.65 1.71-2.55.97-8.12zm-6.62-4.52a23.74 23.74 0 0 1 3.34-2.55l.53-.32c-.51 1.95-1.08 4.23-1.55 6.39a46.61 46.61 0 0 0-2.32-3.52zM22 36.27a.28.28 0 0 1-.38-.07L19.25 33l4.08.2 3.12-1.81c1-.58 1.12-.53.73.35l.73.35a2.11 2.11 0 0 1-.71.82zM27.7 28.54L26 27.25l-5.73.54s2.73-1.58 0 0l6.55-4.07h.28a.12.12 0 0 1 0 .08v.05l2.86 2.85a.72.72 0 0 1 0 .74l-1.14.56c-.39.88-.56 1-1.12.54zM36.2 5.25s.11-1.48-1.13-1.4a2.08 2.08 0 0 0-1 .31l-1.19.5-.2.08 1.68.09-.56.53.58.27-1.27.74h1.73c.51.08 1.22 0 1.36-1.12zM3.56 50.28s.37-1.44-.85-1.58a2.08 2.08 0 0 0-1.07.12l-1.26.28H.17l1.63.4-.64.5.53.37-1.38.5 1.69.24c.52.2 1.22.24 1.56-.83zM112.79 92.59s-1.35.63-.67 1.67a2.08 2.08 0 0 0 .77.74l1 .79.17.13-.74-1.51.74.22L114 94l1.27.75-.87-1.49c-.15-.52-.57-1.09-1.61-.67zM58.74 105s-1.45-.74-1.89.54a2.27 2.27 0 0 0-.12 1.16v1.65l.81-1.65.3.79.51-.48.21 1.59.7-1.75c.33-.51.54-1.26-.52-1.85zM121 38.46s-1.44.76-.65 1.85a2.27 2.27 0 0 0 .88.77l1.15.81.19.14-.88-1.61.82.21-.09-.69 1.42.75-1-1.58c-.25-.57-.74-1.17-1.84-.65z"/><path class="blue-stroke-white" d="M42.83 15a6.72 6.72 0 0 1 3.07-4.8c2.82-1.73 44.24-20.3 65.88 17.22 0 0-2.82-4-15-9.46S62.51 7.58 42.83 15z"/><path class="blue-stroke-white" d="M41 20.7s-2.11 7.11-1.23 12.3c0 0 4.56 22.43 43.38 21.44 0 0 29.8 2.62 27.37-24.52 0 0-8-14.94-40.13-18.37 0 0-26.44-1-28.73 7.07z"/><path class="blue-stroke" d="M68.82 26.19a5.55 5.55 0 0 1 3.41-5 5.46 5.46 0 0 1 7.58 5.55 21.83 21.83 0 0 1-.7 3.44A2.54 2.54 0 0 1 77.32 32a1.76 1.76 0 0 0-1 .87 1.88 1.88 0 0 1-2.06 1.24 16.27 16.27 0 0 1-2.58-.5 1.16 1.16 0 0 1-.86-1 2.6 2.6 0 0 0-1.25-1.89 2.44 2.44 0 0 1-.89-2.14c.04-.82.11-1.58.14-2.39z"/><path class="blue-stroke" d="M71.77 28.77s-2.65.22-1.83-1.55 2.83.54 1.83 1.55zM76.18 29.35s2.52.82 2.14-1.09-2.88-.11-2.14 1.09zM61.14 41.69c-.4-1.44.73-1.08 1.18-1.28.28-.12.46.33.56.69l18.78-5.66c-.17-.35-.23-.76.43-1.06.87-.39 1.16-.28 1.56 1.15s-.73 1.08-1.18 1.28c-.28.12-.46-.33-.56-.69l-18.78 5.66c.17.35.23.76-.43 1.06-.87.39-1.16.29-1.56-1.15z"/><path class="blue-stroke" d="M82.51 44.43c.75-1.29-.43-1.23-.81-1.53s-.53.2-.71.52L64.23 33.2c.25-.29.41-.68-.15-1.13-.74-.6-1-.57-1.8.72s.43 1.23.81 1.53.53-.2.71-.52L80.56 44c-.25.29-.41.68.15 1.13.74.62 1.05.59 1.8-.7z"/><path class="blue-stroke-white" d="M40.83 16.21s-3.54-2.14-6.83 2.88l-4.61 7.37s-6.86 7.9 2.31 9.91a31.28 31.28 0 0 0 6.88.09l3.06-19.77zM118.06 33.75s-1.53-3.82-4.29-1.13c0 0-2.1 2.26-.07 3.7a3.7 3.7 0 0 0 2.52.85s-1.4-2.36 1.84-3.42zM120.9 37.17s-.17-2.71-2.43-1.66c0 0-1.77.93-.79 2.28a2.52 2.52 0 0 0 1.39 1.09s-.4-1.78 1.83-1.71zM111 88.26s-.19-3.76-3.38-2.25c0 0-2.5 1.34-1.15 3.19a3.39 3.39 0 0 0 1.94 1.48s-.57-2.47 2.59-2.42zM112.94 91.4s0-2.49-2.15-1.63c0 0-1.66.78-.83 2.05a2.31 2.31 0 0 0 1.23 1.06s-.28-1.64 1.75-1.48zM60.9 99.88s2.24-3.45-1.55-4.15c0 0-3.06-.42-3.06 2.08a3.7 3.7 0 0 0 .76 2.55s1.11-2.52 3.85-.48zM59.74 104.16s2.12-1.7 0-2.95c0 0-1.78-.91-2.32.67a2.52 2.52 0 0 0-.09 1.77s1.18-1.35 2.41.51zM8.06 51.65s3 2.25 3.89-1.17c0 0 .56-2.77-1.72-2.92a3.39 3.39 0 0 0-2.38.54s2.24 1.17.21 3.55zM4.38 51.16s1.94 1.56 2.62-.62c0 0 .46-1.77-1.05-1.95a2.31 2.31 0 0 0-1.6.27s1.45.83.03 2.3zM40.87 5.78s3.38 1.67 3.61-1.86c0 0 0-2.83-2.22-2.56a3.39 3.39 0 0 0-2.24 1s2.41.71.85 3.42zM37.16 6s2.19 1.18 2.47-1.09c0 0 .13-1.83-1.39-1.72a2.31 2.31 0 0 0-1.52.55s1.57.53.44 2.26z"/><path class="blue-stroke-white" d="M26.87 31.85a2.27 2.27 0 0 0 .68 1c1.25 1.1 3.39.7 4.79-.88s1.53-3.76.28-4.86a5.33 5.33 0 0 1-1.41-3.63s-5.14 5.9-4.34 8.37z"/><path class="blue-stroke" d="M37 28.42s-5.91 1.09-5.11-5.94"/></svg>