<svg xmlns="http://www.w3.org/2000/svg" width="147.99" height="140" viewBox="0 0 147.99 140">
  <title>icon-money-revolving</title>
  <g id="Layer_2" data-name="Layer 2">
    <g id="_1200" data-name="1200">
      <g id="Why_" data-name="Why?">
        <g id="revenue-potential-icon">
          <ellipse cx="74.66" cy="73.25" rx="64.74" ry="64.92" style="fill: none;stroke: #03a9f4;stroke-miterlimit: 10"/>
          <ellipse cx="55.38" cy="9.95" rx="9.42" ry="9.45" style="fill: #373e5a;stroke: #edf0f3;stroke-miterlimit: 10"/>
          <ellipse cx="46.7" cy="130.79" rx="8.83" ry="8.71" style="fill: #373e5a;stroke: #edf0f3;stroke-miterlimit: 10"/>
          <path d="M137.95,88.79c-4.8,21.89-37.07,33.36-72.07,25.64S6.4,82.69,11.21,60.8,48.28,27.44,83.28,35.17,142.75,66.9,137.95,88.79Z" style="fill: none;stroke: #03a9f4;stroke-miterlimit: 10"/>
          <ellipse cx="13.02" cy="59.81" rx="12.52" ry="12.54" style="fill: #373e5a;stroke: #edf0f3;stroke-miterlimit: 10"/>
          <ellipse cx="134.98" cy="96.86" rx="12.51" ry="12.4" style="fill: #373e5a;stroke: #edf0f3;stroke-miterlimit: 10"/>
          <path d="M109,109.14c-36.46,5.4-72.25,0-72.25,0s-1.34-.3-1.34-.66v-8.24c0-7.59,0-14.77,12.43-18.86,8.17-2.69,12.6-5.8,14.67-10.37a27.94,27.94,0,0,1-2.9-4.4l0,0a39.13,39.13,0,0,1-2.34-8.33,14.35,14.35,0,0,1-1.13-1.72A8.05,8.05,0,0,1,54.83,53v-.32c-.11-3.54,0-5.6.68-6.33a1.07,1.07,0,0,1,.35-.24,9.77,9.77,0,0,1-.21-6.5,25.7,25.7,0,0,1,1.62-3.36h-.59A.66.66,0,0,1,56.32,35,12.87,12.87,0,0,0,58.82,32a13.8,13.8,0,0,1,8.72-6,16.11,16.11,0,0,1,5.46,0,16.11,16.11,0,0,1,5.46,0,13.8,13.8,0,0,1,8.72,6,12.78,12.78,0,0,0,2.5,3,.67.67,0,0,1,.26.74.66.66,0,0,1-.62.47h-.59a25.7,25.7,0,0,1,1.62,3.36,9.77,9.77,0,0,1-.21,6.5,1.07,1.07,0,0,1,.35.24c.71.74.79,2.79.68,6.33V53a8.05,8.05,0,0,1-1.32,3.52,14.35,14.35,0,0,1-1.13,1.72,39.13,39.13,0,0,1-2.34,8.33l0,0a28.2,28.2,0,0,1-3.45,5.06c2.2,4.22,6.53,7.14,14.35,9.72,12.44,4.09,12.44,11.26,12.43,18.86v7.71a2,2,0,0,1-.13.72A.8.8,0,0,1,109,109.14Z" style="fill: #373e5a;stroke: #fff;stroke-miterlimit: 10"/>
          <path d="M101.85,102.44a20.51,20.51,0,0,1,.92,7.53" style="fill: none;stroke: #edf0f3;stroke-linecap: round;stroke-linejoin: round"/>
          <path d="M43.49,102.44a20.51,20.51,0,0,0-.92,7.53" style="fill: none;stroke: #edf0f3;stroke-linecap: round;stroke-linejoin: round"/>
          <text transform="translate(130.18 101.56)" style="font-size: 13.968219757080078px;fill: #efefef;font-family: WorkSans-Regular, Work Sans;letter-spacing: 0.07498583847117234em">$</text>
          <text transform="translate(8.01 64.41)" style="font-size: 13.968219757080078px;fill: #efefef;font-family: WorkSans-Regular, Work Sans;letter-spacing: 0.07498583847117234em">$</text>
          <text transform="translate(43.02 134.47)" style="font-size: 11.174570083618164px;fill: #efefef;font-family: WorkSans-Regular, Work Sans;letter-spacing: 0.07502093337931581em">$</text>
          <text transform="translate(51.57 14.21)" style="font-size: 11.174570083618164px;fill: #efefef;font-family: WorkSans-Regular, Work Sans;letter-spacing: 0.07502093337931581em">$</text>
        </g>
      </g>
    </g>
  </g>
</svg>
