<svg xmlns="http://www.w3.org/2000/svg" viewBox="0 0 442 779" style="">

  <path class="light-blue-grey ZfJSPVxS_0" d="M255,776l-138.9-61.35,228-31.68c1.43.54,2.34.88,3.74,1.43q6.15,2.41,12.18,5.13l1.1.49.76.46,73,32.85c3.76,1.58,4.45,2.12,4.81,2.7a1.84,1.84,0,0,1,.14,1.82c-.77,1.81-3.55,2.88-5.24,3.41l-.68.23c-17.88,2.91-35,6-51.33,9.3-40.84,8.21-82,17.89-120.74,33.58-.45.16-.93.32-1.44.48q-1.71.49-3.46.83c-.63.12-1.28.24-2,.34"></path><path class="white ZfJSPVxS_1" d="M208.12,366.09H-.33V115.74l1.61-.55.34-.06a17.33,17.33,0,0,1,9.47,2.13c52.81,33.68,116.59,54.21,184,59.14,7.72.41,13.41,7,13.41,14.79V344q0,11.16-.51,21.91"></path><g id="opac-10" opacity="0.1"><path class="bright-blue ZfJSPVxS_2" d="M-3,149a2.92,2.92,0,0,1,3.09-3.09,3.09,3.09,0,0,1,0,6.17A2.92,2.92,0,0,1-3,149Z"></path><path class="bright-blue ZfJSPVxS_3" d="M179,207.37a3.09,3.09,0,1,1,3.09,3.09A2.92,2.92,0,0,1,179,207.37Z"></path><path class="bright-blue ZfJSPVxS_4" d="M188.31,357.48a3.09,3.09,0,1,0-3.09,3.09A2.92,2.92,0,0,0,188.31,357.48Z"></path><path class="grey-stroke ZfJSPVxS_5" d="M-.55,116.19A14.28,14.28,0,0,1,8,118.31c53,33.45,117.08,53.85,184.8,58.75a14.39,14.39,0,0,1,13.46,14.69V343.5q0,11.28-.53,22.13"></path><path class="grey-stroke ZfJSPVxS_6" d="M.55,167.09a11.34,11.34,0,0,1,6.09,1.72c42.51,26.82,93.85,43.17,148.14,47.09a11.54,11.54,0,0,1,10.79,11.77V349.32q0,9.72-.49,19"></path><path class="grey-stroke ZfJSPVxS_7" d="M-.14,177.28a10.77,10.77,0,0,1,5.79,1.63c40.39,25.48,89.16,41,140.74,44.74a11,11,0,0,1,10.25,11.18V369.4"></path></g><path class="light-blue-grey ZfJSPVxS_8" d="M43.64,299.31a3.12,3.12,0,0,1,1.08,2.54,5.54,5.54,0,0,1-.72,2.85,4.83,4.83,0,0,1-2.06,1.9,7,7,0,0,1-3.18.67H36.59l-.68,3.39h-3.2l2.45-12.26h5.37A4.75,4.75,0,0,1,43.64,299.31Zm-2.69,4.79a2.2,2.2,0,0,0,.66-1.69,1.33,1.33,0,0,0-.45-1.08,1.94,1.94,0,0,0-1.29-.38h-2l-.75,3.76h2A2.56,2.56,0,0,0,40.95,304.11Zm11.85-3-.37,2.85-.46,0a3.41,3.41,0,0,0-2,.61,2.71,2.71,0,0,0-1.11,1.57l-.91,4.56H44.83l1.89-9.46h3.11l-.3,1.47A4,4,0,0,1,52.8,301.09Zm8,.56a3.92,3.92,0,0,1,1.64,1.52,4.43,4.43,0,0,1,.58,2.29,5.26,5.26,0,0,1-.73,2.76,5,5,0,0,1-2,1.88,6.26,6.26,0,0,1-2.94.67,5.45,5.45,0,0,1-2.5-.54,3.9,3.9,0,0,1-1.64-1.53,4.48,4.48,0,0,1-.58-2.3,5.24,5.24,0,0,1,.73-2.76,4.94,4.94,0,0,1,2-1.87,6.32,6.32,0,0,1,2.95-.66A5.45,5.45,0,0,1,60.82,301.65Zm-4.39,2.71a2.77,2.77,0,0,0-.65,1.91,2.21,2.21,0,0,0,.49,1.5,1.64,1.64,0,0,0,1.31.57,2.09,2.09,0,0,0,1.64-.73,2.78,2.78,0,0,0,.65-1.91,2.21,2.21,0,0,0-.49-1.49,1.64,1.64,0,0,0-1.31-.57A2.09,2.09,0,0,0,56.44,304.36Zm11.45,3.06a1.51,1.51,0,0,0,0,.37.52.52,0,0,0,.13.41.56.56,0,0,0,.41.1,3.27,3.27,0,0,0,1.31-.37l.33,2.31a5,5,0,0,1-1.23.43,6.45,6.45,0,0,1-1.35.15,3,3,0,0,1-2-.66,2.25,2.25,0,0,1-.75-1.79,3.37,3.37,0,0,1,.07-.7l.79-3.93H64.23l.4-2.06h1.31l.52-2.62h3.09L69,301.67h2.45l-.4,2.06H68.62Zm11.46-5.77a3.78,3.78,0,0,1,1.6,1.48,4.32,4.32,0,0,1,.56,2.23,7,7,0,0,1-.17,1.42H74.62a1.79,1.79,0,0,0,.61,1.24,2.14,2.14,0,0,0,1.42.44,3.43,3.43,0,0,0,2.17-.79l1.56,1.7a5.51,5.51,0,0,1-3.85,1.43,6.11,6.11,0,0,1-2.62-.53,4,4,0,0,1-1.73-1.5,4.19,4.19,0,0,1-.61-2.27,5.48,5.48,0,0,1,.69-2.75,5,5,0,0,1,1.91-1.92,5.43,5.43,0,0,1,2.75-.7A5.36,5.36,0,0,1,79.35,301.65Zm-.78,3.13a1.41,1.41,0,0,0-.4-1.06,1.49,1.49,0,0,0-1.08-.39,2,2,0,0,0-1.33.49,3.1,3.1,0,0,0-.91,1.29h3.71A2.25,2.25,0,0,0,78.57,304.78Zm5.84,5.46a3.73,3.73,0,0,1-1.54-1.51,4.57,4.57,0,0,1-.54-2.25,5.54,5.54,0,0,1,.69-2.79,4.9,4.9,0,0,1,1.91-1.9,5.64,5.64,0,0,1,2.8-.68,4.93,4.93,0,0,1,2.46.58,3.67,3.67,0,0,1,1.55,1.65l-2.38,1.31a1.85,1.85,0,0,0-.71-.73,2.07,2.07,0,0,0-1-.25,1.94,1.94,0,0,0-1.54.72,2.76,2.76,0,0,0-.61,1.85,2.19,2.19,0,0,0,.46,1.46,1.53,1.53,0,0,0,1.23.55,2.16,2.16,0,0,0,2-1.07l2.15,1.33a4.43,4.43,0,0,1-1.84,1.67,5.94,5.94,0,0,1-2.69.59A4.86,4.86,0,0,1,84.41,310.24Zm12-2.82a1.51,1.51,0,0,0,0,.37.52.52,0,0,0,.13.41.56.56,0,0,0,.41.1,3.27,3.27,0,0,0,1.31-.37l.33,2.31a5,5,0,0,1-1.23.43,6.45,6.45,0,0,1-1.35.15,3,3,0,0,1-2-.66,2.25,2.25,0,0,1-.75-1.79,3.37,3.37,0,0,1,.07-.7l.79-3.93H92.8l.4-2.06h1.31L95,299h3.09l-.52,2.62h2.45l-.4,2.06H97.19Z"></path><g id="opac-25" opacity="0.25"><path class="medium-blue-stroke ZfJSPVxS_9" d="M116.83,4.47a20.71,20.71,0,0,0-4.48-1.92A20.43,20.43,0,0,0,110,2a20,20,0,0,0-2.34-.26L93,16.53a19.74,19.74,0,0,1,2.31.26,20.16,20.16,0,0,1,2.29.53A20.42,20.42,0,0,1,102,19.21"></path><path class="medium-blue-stroke ZfJSPVxS_10" d="M110.8,2.16L96.05,16.93"></path><path class="medium-blue-stroke ZfJSPVxS_11" d="M113.87,3.07L99.08,17.83"></path><path class="medium-blue-stroke ZfJSPVxS_12" d="M116.83,4.47,102,19.21a455.29,455.29,0,0,0,52.53,28.53A488.72,488.72,0,0,0,211,69.63,518.59,518.59,0,0,0,270.4,84.74a557.89,557.89,0,0,0,62.38,8.74l17.87-13.64A565,565,0,0,1,287.46,71a525.63,525.63,0,0,1-60.21-15.34,495.55,495.55,0,0,1-57.19-22.21A461.82,461.82,0,0,1,116.83,4.47Z"></path><path class="medium-blue-stroke ZfJSPVxS_13" d="M188.73,41.57L172.95,55.78"></path><path class="medium-blue-stroke ZfJSPVxS_14" d="M267.11,66.62L250.31,80.46"></path><path class="medium-blue-stroke ZfJSPVxS_15" d="M358.88,86.12L340.9,99.67"></path><path class="medium-blue-stroke ZfJSPVxS_16" d="M364.85,95.38L346.78,108.79"></path><path class="medium-blue-stroke ZfJSPVxS_17" d="M350.78,79.82A24.18,24.18,0,0,1,357,84.19a34.45,34.45,0,0,1,5.21,6.33,35.37,35.37,0,0,1,3.64,7.38,25.82,25.82,0,0,1,1.51,7.52L349.26,118.7a25.46,25.46,0,0,0-1.49-7.42,34.86,34.86,0,0,0-3.59-7.28A34,34,0,0,0,339,97.76a23.84,23.84,0,0,0-6.14-4.31Z"></path><path class="medium-blue-stroke ZfJSPVxS_18" d="M367.36,105.42L373.69,278L355.41,289.02L349.26,118.7L367.36,105.42Z"></path><path class="medium-blue-stroke ZfJSPVxS_19" d="M355.84,299.96L355.41,289.02"></path><path class="medium-blue-stroke ZfJSPVxS_20" d="M374.08,288.85,355.8,299.72q.17,4.58.25,9.11t.1,9q0,4.48,0,8.9c0,2.95-.1,5.88-.19,6.79l18.31-10.39c.09-1,.15-3.92.19-6.91s.05-6,0-9,0-6.06-.11-9.12S374.2,291.94,374.08,288.85Z"></path><path class="medium-blue-stroke ZfJSPVxS_21" d="M374.4,301.13L356.1,311.84"></path><path class="medium-blue-stroke ZfJSPVxS_22" d="M374.44,313.23L356.14,323.78"></path><path class="light-blue-stroke ZfJSPVxS_23" d="M116.83,4.47a20.71,20.71,0,0,0-4.48-1.92A20.43,20.43,0,0,0,110,2a20,20,0,0,0-2.34-.26L93,16.53a19.74,19.74,0,0,1,2.31.26,20.16,20.16,0,0,1,2.29.53A20.42,20.42,0,0,1,102,19.21"></path><path class="light-blue-stroke ZfJSPVxS_24" d="M110.8,2.16L96.05,16.93"></path><path class="light-blue-stroke ZfJSPVxS_25" d="M113.87,3.07L99.08,17.83"></path><path class="light-blue-stroke ZfJSPVxS_26" d="M116.83,4.47,102,19.21a455.29,455.29,0,0,0,52.53,28.53A488.72,488.72,0,0,0,211,69.63,518.59,518.59,0,0,0,270.4,84.74a557.89,557.89,0,0,0,62.38,8.74l17.87-13.64A565,565,0,0,1,287.46,71a525.63,525.63,0,0,1-60.21-15.34,495.55,495.55,0,0,1-57.19-22.21A461.82,461.82,0,0,1,116.83,4.47Z"></path><path class="light-blue-stroke ZfJSPVxS_27" d="M188.73,41.57L172.95,55.78"></path><path class="light-blue-stroke ZfJSPVxS_28" d="M267.11,66.62L250.31,80.46"></path><path class="light-blue-stroke ZfJSPVxS_29" d="M358.88,86.12L340.9,99.67"></path><path class="light-blue-stroke ZfJSPVxS_30" d="M364.85,95.38L346.78,108.79"></path><path class="light-blue-stroke ZfJSPVxS_31" d="M350.78,79.82A24.18,24.18,0,0,1,357,84.19a34.45,34.45,0,0,1,5.21,6.33,35.37,35.37,0,0,1,3.64,7.38,25.82,25.82,0,0,1,1.51,7.52L349.26,118.7a25.46,25.46,0,0,0-1.49-7.42,34.86,34.86,0,0,0-3.59-7.28A34,34,0,0,0,339,97.76a23.84,23.84,0,0,0-6.14-4.31Z"></path><path class="light-blue-stroke ZfJSPVxS_32" d="M367.36,105.42L373.69,278L355.41,289.02L349.26,118.7L367.36,105.42Z"></path><path class="light-blue-stroke ZfJSPVxS_33" d="M355.84,299.96L355.41,289.02"></path><path class="light-blue-stroke ZfJSPVxS_34" d="M374.08,288.85,355.8,299.72q.17,4.58.25,9.11t.1,9q0,4.48,0,8.9c0,2.95-.1,5.88-.19,6.79l18.31-10.39c.09-1,.15-3.92.19-6.91s.05-6,0-9,0-6.06-.11-9.12S374.2,291.94,374.08,288.85Z"></path><path class="light-blue-stroke ZfJSPVxS_35" d="M374.4,301.13L356.1,311.84"></path><path class="light-blue-stroke ZfJSPVxS_36" d="M374.44,313.23L356.14,323.78"></path></g><path class="bright-blue ZfJSPVxS_37" d="M375.22,324.05L357.92,334.44L102.34,336.02L117.31,325.55L375.22,324.05Z"></path><path class="bright-blue ZfJSPVxS_38" d="M117.31,325.55L102.34,336.02L92.97,15.45L107.68,0.67L117.31,325.55Z"></path><path id="face" opacity="0.5" class="bright-blue ZfJSPVxS_39" d="M108.71,2.31a19.77,19.77,0,0,1,2.33.26,20.21,20.21,0,0,1,2.31.54A20.52,20.52,0,0,1,117.8,5a458.3,458.3,0,0,0,52.94,29A490.88,490.88,0,0,0,227.6,56.22a520,520,0,0,0,59.87,15.35,542.24,542.24,0,0,0,61.94,8.35l1,.52a24,24,0,0,1,6.19,4.37,34.43,34.43,0,0,1,5.18,6.33,35.49,35.49,0,0,1,3.62,7.38,26,26,0,0,1,1.51,7.53l6.29,172.69.3,8.26.09,2.59q.17,4.65.26,9.24T374,308q0,4.54,0,9c0,3-.1,4.88-.19,7.83l-255.45,1.5Z"></path><path class="light-blue-stroke ZfJSPVxS_40" d="M108.39,2.28a25.63,25.63,0,0,1,2.65.3,20.21,20.21,0,0,1,2.31.54A20.52,20.52,0,0,1,117.8,5a458.3,458.3,0,0,0,52.94,29A490.88,490.88,0,0,0,227.6,56.22a520,520,0,0,0,59.87,15.35,542.24,542.24,0,0,0,61.94,8.35l1,.52a24,24,0,0,1,6.19,4.37,34.43,34.43,0,0,1,5.18,6.33,35.49,35.49,0,0,1,3.62,7.38,26,26,0,0,1,1.51,7.53l6.29,172.69.3,8.26.09,2.59q.17,4.65.26,9.24T374,308q0,4.54,0,9c0,3-.1,4.88-.19,7.83l-256.11,1Z"></path><g id="rays2"><path class="grey-stroke ZfJSPVxS_41" opacity=".42" d="M356.91,335.46L199.41,355.87"></path><path class="grey-stroke ZfJSPVxS_42" opacity=".4" d="M328.54,335.61L178.7,355.81"></path><path class="grey-stroke ZfJSPVxS_43" opacity=".37" d="M300.17,335.75L158,355.74"></path><path class="grey-stroke ZfJSPVxS_44" opacity=".35" d="M271.8,335.9L137.3,355.68"></path><path class="grey-stroke ZfJSPVxS_45" opacity=".32" d="M243.43,336.05L116.59,355.62"></path><path class="grey-stroke ZfJSPVxS_46" opacity=".3" d="M215.06,336.2L95.89,355.55"></path><path class="grey-stroke ZfJSPVxS_47" opacity=".27" d="M186.69,336.35L75.19,355.49"></path><path class="grey-stroke ZfJSPVxS_48" opacity=".25" d="M156.75,336.78L54.48,355.42"></path><path class="grey-stroke ZfJSPVxS_49" opacity=".22" d="M127.99,337.02L33.78,355.36"></path><path class="grey-stroke ZfJSPVxS_50" opacity=".0" d="M101.57,336.79L13.07,355.29"></path></g><g id="rays1"><path class="grey-stroke ZfJSPVxS_51" opacity="0.2" d="M101.61,336.75L12.77,355.25"></path><path class="grey-stroke ZfJSPVxS_52" opacity="0.2" d="M101.75,331.98L13.47,350.9"></path><path class="grey-stroke ZfJSPVxS_53" opacity="0.21" d="M101.59,325.5L13.45,346.26"></path><path class="grey-stroke ZfJSPVxS_54" opacity="0.21" d="M101.42,319.02L13.44,341.62"></path><path class="grey-stroke ZfJSPVxS_55" opacity="0.22" d="M101.26,312.55L13.42,336.98"></path><path class="grey-stroke ZfJSPVxS_56" opacity="0.22" d="M101.1,306.07L13.4,332.34"></path><path class="grey-stroke ZfJSPVxS_57" opacity="0.23" d="M100.94,299.59L13.38,327.69"></path><path class="grey-stroke ZfJSPVxS_58" opacity="0.23" d="M100.78,293.11L13.36,323.05"></path><path class="grey-stroke ZfJSPVxS_59" opacity="0.24" d="M100.62,286.63L13.34,318.41"></path><path class="grey-stroke ZfJSPVxS_60" opacity="0.24" d="M100.45,280.16L13.32,313.77"></path><path class="grey-stroke ZfJSPVxS_61" opacity="0.25" d="M100.29,273.68L13.3,309.13"></path><path class="grey-stroke ZfJSPVxS_62" opacity="0.25" d="M100.13,267.2L13.29,304.49"></path><path class="grey-stroke ZfJSPVxS_63" opacity="0.26" d="M99.97,260.72L13.27,299.85"></path><path class="grey-stroke ZfJSPVxS_64" opacity="0.26" d="M99.81,254.25L13.25,295.21"></path><path class="grey-stroke ZfJSPVxS_65" opacity="0.27" d="M99.65,247.77L13.23,290.56"></path><path class="grey-stroke ZfJSPVxS_66" opacity="0.27" d="M99.48,241.29L13.21,285.92"></path><path class="grey-stroke ZfJSPVxS_67" opacity="0.28" d="M99.32,234.81L13.19,281.28"></path><path class="grey-stroke ZfJSPVxS_68" opacity="0.28" d="M99.16,228.33L13.17,276.64"></path><path class="grey-stroke ZfJSPVxS_69" opacity="0.29" d="M99,221.86L13.15,272"></path><path class="grey-stroke ZfJSPVxS_70" opacity="0.29" d="M98.84,215.38L13.14,267.36"></path><path class="grey-stroke ZfJSPVxS_71" opacity="0.3" d="M98.68,208.9L13.12,262.72"></path><path class="grey-stroke ZfJSPVxS_72" opacity="0.31" d="M98.52,202.42L13.1,258.08"></path><path class="grey-stroke ZfJSPVxS_73" opacity="0.31" d="M98.35,195.94L13.08,253.44"></path><path class="grey-stroke ZfJSPVxS_74" opacity="0.32" d="M98.19,189.47L13.06,248.79"></path><path class="grey-stroke ZfJSPVxS_75" opacity="0.32" d="M98.03,182.99L13.04,244.15"></path><path class="grey-stroke ZfJSPVxS_76" opacity="0.33" d="M97.87,176.51L13.02,239.51"></path><path class="grey-stroke ZfJSPVxS_77" opacity="0.33" d="M97.71,170.03L13.01,234.87"></path><path class="grey-stroke ZfJSPVxS_78" opacity="0.34" d="M97.55,163.55L12.99,230.23"></path><path class="grey-stroke ZfJSPVxS_79" opacity="0.34" d="M97.38,157.08L12.97,225.59"></path><path class="grey-stroke ZfJSPVxS_80" opacity="0.35" d="M97.22,150.6L12.95,220.95"></path><path class="grey-stroke ZfJSPVxS_81" opacity="0.35" d="M97.06,144.12L12.93,216.31"></path><path class="grey-stroke ZfJSPVxS_82" opacity="0.36" d="M96.9,137.64L12.91,211.67"></path><path class="grey-stroke ZfJSPVxS_83" opacity="0.36" d="M96.74,131.17L12.89,207.02"></path><path class="grey-stroke ZfJSPVxS_84" opacity="0.37" d="M96.58,124.69L12.87,202.38"></path><path class="grey-stroke ZfJSPVxS_85" opacity="0.37" d="M96.42,118.21L12.86,197.74"></path><path class="grey-stroke ZfJSPVxS_86" opacity="0.38" d="M96.25,111.73L12.84,193.1"></path><path class="grey-stroke ZfJSPVxS_87" opacity="0.38" d="M96.09,105.25L12.82,188.46"></path><path class="grey-stroke ZfJSPVxS_88" opacity="0.39" d="M95.93,98.78L12.8,183.82"></path><path class="grey-stroke ZfJSPVxS_89" opacity="0.39" d="M95.77,92.3L12.78,179.18"></path><path class="grey-stroke ZfJSPVxS_90" opacity="0.4" d="M95.61,85.82L12.76,174.54"></path><path class="grey-stroke ZfJSPVxS_91" opacity="0.41" d="M95.45,79.34L12.74,169.89"></path><path class="grey-stroke ZfJSPVxS_92" opacity="0.41" d="M95.28,72.86L12.72,165.25"></path><path class="grey-stroke ZfJSPVxS_93" opacity="0.42" d="M95.12,66.39L12.71,160.61"></path><path class="grey-stroke ZfJSPVxS_94" opacity="0.42" d="M94.96,59.91L12.69,155.97"></path><path class="grey-stroke ZfJSPVxS_95" opacity="0.43" d="M94.8,53.43L12.67,151.33"></path><path class="grey-stroke ZfJSPVxS_96" opacity="0.43" d="M94.64,46.95L12.65,146.69"></path><path class="grey-stroke ZfJSPVxS_97" opacity="0.44" d="M94.48,40.47L12.63,142.05"></path><path class="grey-stroke ZfJSPVxS_98" opacity="0.44" d="M94.31,34L12.61,137.41"></path><path class="grey-stroke ZfJSPVxS_99" opacity="0.45" d="M94.15,27.52L12.59,132.77"></path><path class="grey-stroke ZfJSPVxS_100" opacity="0.45" d="M93.99,21.04L12.57,128.12"></path></g><path class="light-blue-grey ZfJSPVxS_101" d="M208.85,366.36L208.94,368.11L0.52,368.44L10.52,357.61L201.27,357.52L207.6,365.19"></path><path class="light-blue-grey ZfJSPVxS_102" d="M0.62,368.17L1.29,118.5L2.69,117.19L9.96,127.84L10.52,357.77L0.62,368.17Z"></path><path class="blue-stroke ZfJSPVxS_103" d="M3.06,117.75L3.26,117.74L10.71,127.9L10.71,356.86"></path><path class="blue-stroke ZfJSPVxS_104" d="M10.71,356.86H201.63l7.85,9.48.15.06-.06,1.1"></path><g id="opac-15" opacity="0.15"><path class="white ZfJSPVxS_105" d="M116.89,313.92,286.57,72.59l-.1,0A520,520,0,0,1,226.6,57.22,490.84,490.84,0,0,1,169.74,35l-1.94-.92L111.37,127.2Z"></path><path class="white ZfJSPVxS_106" d="M321,78.1q-12.7-1.62-25.25-3.83L119,327.3l21.9-.13Z"></path></g>
	  <a data-link="/pages/web-application-firewall" >
	  	<path class="bright-blue ZfJSPVxS_107" d="M297.57,296.55a14.17,14.17,0,0,1-4.14,1.32,14.49,14.49,0,0,1-2.26.18l-127.79.07a15.07,15.07,0,0,1-5.87-1.19,15.91,15.91,0,0,1-8.26-8.07,15.38,15.38,0,0,1-1.37-5.88,15,15,0,0,1,.29-3.46,14.6,14.6,0,0,1,5-8.34l-3.84,3.18a14.56,14.56,0,0,0-5,8.31,14.92,14.92,0,0,0-.29,3.45,15.32,15.32,0,0,0,1.36,5.86,15.86,15.86,0,0,0,8.23,8,15,15,0,0,0,5.85,1.19l127.34-.08a14.45,14.45,0,0,0,2.25-.18,14.12,14.12,0,0,0,5.95-2.41l4.35-3.07A14.19,14.19,0,0,1,297.57,296.55Z"></path><path class="medium-blue-stroke ZfJSPVxS_108" d="M299.4,295.46,295,298.53a14.12,14.12,0,0,1-5.95,2.41,14.49,14.49,0,0,1-2.25.18l4.32-3.06a14.53,14.53,0,0,0,2.26-.18,14.17,14.17,0,0,0,6-2.42"></path><path class="medium-blue-stroke ZfJSPVxS_109" d="M291.17,298.06L286.85,301.12L159.5,301.2L163.38,298.13L291.17,298.06Z"></path><path class="medium-blue-stroke ZfJSPVxS_110" d="M163.38,298.12l-3.88,3.08a15,15,0,0,1-5.85-1.19,15.85,15.85,0,0,1-8.23-8,15.32,15.32,0,0,1-1.36-5.86,14.92,14.92,0,0,1,.29-3.45,14.56,14.56,0,0,1,5-8.31l3.84-3.17a14.61,14.61,0,0,0-5,8.34,15,15,0,0,0-.29,3.46,15.38,15.38,0,0,0,1.37,5.88,15.92,15.92,0,0,0,8.26,8.07,15.07,15.07,0,0,0,5.87,1.19"></path><path class="medium-blue ZfJSPVxS_111" d="M290.12,268a14.88,14.88,0,0,1,5.81,1.19,15.7,15.7,0,0,1,4.84,3.23,15.91,15.91,0,0,1,3.36,4.78,15.38,15.38,0,0,1,1.38,5.84,14.8,14.8,0,0,1-1,5.84,14.47,14.47,0,0,1-3,4.79,14.21,14.21,0,0,1-10.35,4.43l-127.79.07a15.07,15.07,0,0,1-5.87-1.19,15.92,15.92,0,0,1-8.26-8.07,15.38,15.38,0,0,1-1.37-5.88,14.81,14.81,0,0,1,1-5.87,14.49,14.49,0,0,1,13.56-9.24Z"></path>
	  <path class="white ZfJSPVxS_112" d="M181.92,278.8h1.25l-4.37,8.75h-1.25l-1-7.21L173,287.55h-1.23l-1.47-8.75h1.29l1.05,7.44,3.5-7.42h1.19l1.05,7.44Zm7.85,8.75-.57-2.14h-4.62l-1.28,2.14H182l5.34-8.75h1.24l2.44,8.75Zm-4.56-3.21h3.7l-1.15-4.27Zm15.6-4.44h-4.5l-.58,2.86h4.05l-.21,1.09h-4l-.74,3.7h-1.2l1.75-8.75H201Zm12.94-.48a2.15,2.15,0,0,1,.75,1.76,3.64,3.64,0,0,1-.5,1.93,3.33,3.33,0,0,1-1.43,1.27,5,5,0,0,1-2.19.45h-2.17l-.55,2.72h-1.2l1.75-8.75h3.38A3.32,3.32,0,0,1,213.75,279.42Zm-1.16,3.71a2.12,2.12,0,0,0,.73-1.73,1.31,1.31,0,0,0-.51-1.12,2.44,2.44,0,0,0-1.47-.38h-2.15l-.76,3.84h2.13A3.09,3.09,0,0,0,212.59,283.12ZM221,280.9,220.8,282a2.61,2.61,0,0,0-1.76.55,3,3,0,0,0-1,1.56l-.67,3.41h-1.18l1.31-6.61h1.18l-.28,1.36A3,3,0,0,1,221,280.9Zm6.64.38a2.71,2.71,0,0,1,1.09,1.07,3.13,3.13,0,0,1,.39,1.56,3.66,3.66,0,0,1-.49,1.9,3.47,3.47,0,0,1-1.35,1.31,3.93,3.93,0,0,1-1.92.47,3.3,3.3,0,0,1-1.62-.38,2.69,2.69,0,0,1-1.08-1.07,3.2,3.2,0,0,1-.38-1.58,3.67,3.67,0,0,1,.49-1.89,3.43,3.43,0,0,1,1.34-1.31,3.93,3.93,0,0,1,1.92-.47A3.31,3.31,0,0,1,227.59,281.28Zm-3,1a2.38,2.38,0,0,0-.89.93,2.75,2.75,0,0,0-.32,1.34A2.1,2.1,0,0,0,224,286a1.91,1.91,0,0,0,1.45.58,2.41,2.41,0,0,0,1.26-.33,2.38,2.38,0,0,0,.88-.92,2.75,2.75,0,0,0,.33-1.34,2.12,2.12,0,0,0-.54-1.51,1.88,1.88,0,0,0-1.44-.58A2.44,2.44,0,0,0,224.61,282.24Zm8.47,3.32a1.8,1.8,0,0,0,0,.41.54.54,0,0,0,.14.42.67.67,0,0,0,.44.13,2.46,2.46,0,0,0,1.13-.34l.21.94a3.22,3.22,0,0,1-1.61.47,1.58,1.58,0,0,1-1.08-.36,1.31,1.31,0,0,1-.41-1,2.75,2.75,0,0,1,0-.54l.73-3.61h-.94l.16-.89h.95l.35-1.78h1.16l-.35,1.78h2l-.16.89h-2Zm10.2-3.89a2.82,2.82,0,0,1,.77,2.08,5.13,5.13,0,0,1-.1,1h-5.34a2,2,0,0,0,.59,1.42,2.09,2.09,0,0,0,1.49.53,3.17,3.17,0,0,0,1.05-.17,2.83,2.83,0,0,0,.89-.5l.54.76a3.7,3.7,0,0,1-2.51.88,3.62,3.62,0,0,1-1.69-.37,2.66,2.66,0,0,1-1.12-1.06,3.13,3.13,0,0,1-.39-1.59,3.68,3.68,0,0,1,.49-1.88,3.51,3.51,0,0,1,1.34-1.32,3.76,3.76,0,0,1,1.89-.48A2.84,2.84,0,0,1,243.28,281.67Zm-.74.69a1.78,1.78,0,0,0-1.36-.51,2.42,2.42,0,0,0-1.55.54,2.64,2.64,0,0,0-.91,1.4H243A2,2,0,0,0,242.54,282.36Zm5.11,4.84a2.63,2.63,0,0,1-1-1.06,3.21,3.21,0,0,1-.37-1.56,3.82,3.82,0,0,1,.47-1.91,3.38,3.38,0,0,1,1.31-1.31,3.76,3.76,0,0,1,1.88-.47,3.89,3.89,0,0,1,1.46.26,2.64,2.64,0,0,1,1.05.74l-.71.8a2.41,2.41,0,0,0-1.86-.78,2.39,2.39,0,0,0-1.24.33,2.35,2.35,0,0,0-.87.92,2.73,2.73,0,0,0-.32,1.33A2.08,2.08,0,0,0,248,286a1.88,1.88,0,0,0,1.43.58,3.24,3.24,0,0,0,1.17-.21,2.35,2.35,0,0,0,.91-.62l.59.69a3.51,3.51,0,0,1-1.23.85,4.15,4.15,0,0,1-1.61.3A3.11,3.11,0,0,1,247.65,287.2Zm8.89-1.64a1.8,1.8,0,0,0,0,.41.54.54,0,0,0,.14.42.67.67,0,0,0,.44.13,2.46,2.46,0,0,0,1.13-.34l.21.94a3.22,3.22,0,0,1-1.61.47,1.58,1.58,0,0,1-1.08-.36,1.31,1.31,0,0,1-.41-1,2.75,2.75,0,0,1,0-.54l.73-3.61h-.94l.16-.89h.95l.35-1.78h1.16l-.35,1.78h2l-.16.89h-2Zm6.91-4.62-1.31,6.61H261l1.31-6.61Zm.38-2.47a.61.61,0,0,1,.16.44.84.84,0,0,1-.27.63.86.86,0,0,1-.62.26.55.55,0,0,1-.43-.18.64.64,0,0,1-.16-.44.83.83,0,0,1,.26-.62.85.85,0,0,1,.61-.26A.58.58,0,0,1,263.83,278.47Zm7.21,2.81a2.72,2.72,0,0,1,1.09,1.07,3.11,3.11,0,0,1,.39,1.56,3.68,3.68,0,0,1-.49,1.9,3.48,3.48,0,0,1-1.35,1.31,3.94,3.94,0,0,1-1.92.47,3.3,3.3,0,0,1-1.62-.38,2.68,2.68,0,0,1-1.07-1.07,3.2,3.2,0,0,1-.38-1.58,3.69,3.69,0,0,1,.49-1.89,3.44,3.44,0,0,1,1.34-1.31,3.94,3.94,0,0,1,1.92-.47A3.32,3.32,0,0,1,271,281.28Zm-3,1a2.37,2.37,0,0,0-.89.93,2.75,2.75,0,0,0-.33,1.34,2.1,2.1,0,0,0,.55,1.51,1.91,1.91,0,0,0,1.45.58,2.42,2.42,0,0,0,1.26-.33,2.38,2.38,0,0,0,.88-.92,2.75,2.75,0,0,0,.32-1.34,2.12,2.12,0,0,0-.54-1.51,1.89,1.89,0,0,0-1.44-.58A2.45,2.45,0,0,0,268.06,282.24Zm13.1-.82a2,2,0,0,1,.63,1.54,3.34,3.34,0,0,1-.08.69l-.79,3.9h-1.17l.75-3.76a2,2,0,0,0,0-.46,1.32,1.32,0,0,0-.41-1,1.63,1.63,0,0,0-1.14-.37,2.23,2.23,0,0,0-1.52.56,2.66,2.66,0,0,0-.84,1.51l-.71,3.55h-1.18l1.3-6.61h1.19L277,282a2.81,2.81,0,0,1,2.39-1.19A2.55,2.55,0,0,1,281.16,281.42Zm-99.24-2.62h1.25l-4.37,8.75h-1.25l-1-7.21L173,287.55h-1.23l-1.47-8.75h1.29l1.05,7.44,3.5-7.42h1.19l1.05,7.44Zm7.85,8.75-.57-2.14h-4.62l-1.28,2.14H182l5.34-8.75h1.24l2.44,8.75Zm-4.56-3.21h3.7l-1.15-4.27Zm15.6-4.44h-4.5l-.58,2.86h4.05l-.21,1.09h-4l-.74,3.7h-1.2l1.75-8.75H201Zm12.94-.48a2.15,2.15,0,0,1,.75,1.76,3.64,3.64,0,0,1-.5,1.93,3.33,3.33,0,0,1-1.43,1.27,5,5,0,0,1-2.19.45h-2.17l-.55,2.72h-1.2l1.75-8.75h3.38A3.32,3.32,0,0,1,213.75,279.42Zm-1.16,3.71a2.12,2.12,0,0,0,.73-1.73,1.31,1.31,0,0,0-.51-1.12,2.44,2.44,0,0,0-1.47-.38h-2.15l-.76,3.84h2.13A3.09,3.09,0,0,0,212.59,283.12ZM221,280.9,220.8,282a2.61,2.61,0,0,0-1.76.55,3,3,0,0,0-1,1.56l-.67,3.41h-1.18l1.31-6.61h1.18l-.28,1.36A3,3,0,0,1,221,280.9Zm6.64.38a2.71,2.71,0,0,1,1.09,1.07,3.13,3.13,0,0,1,.39,1.56,3.66,3.66,0,0,1-.49,1.9,3.47,3.47,0,0,1-1.35,1.31,3.93,3.93,0,0,1-1.92.47,3.3,3.3,0,0,1-1.62-.38,2.69,2.69,0,0,1-1.08-1.07,3.2,3.2,0,0,1-.38-1.58,3.67,3.67,0,0,1,.49-1.89,3.43,3.43,0,0,1,1.34-1.31,3.93,3.93,0,0,1,1.92-.47A3.31,3.31,0,0,1,227.59,281.28Zm-3,1a2.38,2.38,0,0,0-.89.93,2.75,2.75,0,0,0-.32,1.34A2.1,2.1,0,0,0,224,286a1.91,1.91,0,0,0,1.45.58,2.41,2.41,0,0,0,1.26-.33,2.38,2.38,0,0,0,.88-.92,2.75,2.75,0,0,0,.33-1.34,2.12,2.12,0,0,0-.54-1.51,1.88,1.88,0,0,0-1.44-.58A2.44,2.44,0,0,0,224.61,282.24Zm8.47,3.32a1.8,1.8,0,0,0,0,.41.54.54,0,0,0,.14.42.67.67,0,0,0,.44.13,2.46,2.46,0,0,0,1.13-.34l.21.94a3.22,3.22,0,0,1-1.61.47,1.58,1.58,0,0,1-1.08-.36,1.31,1.31,0,0,1-.41-1,2.75,2.75,0,0,1,0-.54l.73-3.61h-.94l.16-.89h.95l.35-1.78h1.16l-.35,1.78h2l-.16.89h-2Zm10.2-3.89a2.82,2.82,0,0,1,.77,2.08,5.13,5.13,0,0,1-.1,1h-5.34a2,2,0,0,0,.59,1.42,2.09,2.09,0,0,0,1.49.53,3.17,3.17,0,0,0,1.05-.17,2.83,2.83,0,0,0,.89-.5l.54.76a3.7,3.7,0,0,1-2.51.88,3.62,3.62,0,0,1-1.69-.37,2.66,2.66,0,0,1-1.12-1.06,3.13,3.13,0,0,1-.39-1.59,3.68,3.68,0,0,1,.49-1.88,3.51,3.51,0,0,1,1.34-1.32,3.76,3.76,0,0,1,1.89-.48A2.84,2.84,0,0,1,243.28,281.67Zm-.74.69a1.78,1.78,0,0,0-1.36-.51,2.42,2.42,0,0,0-1.55.54,2.64,2.64,0,0,0-.91,1.4H243A2,2,0,0,0,242.54,282.36Zm5.11,4.84a2.63,2.63,0,0,1-1-1.06,3.21,3.21,0,0,1-.37-1.56,3.82,3.82,0,0,1,.47-1.91,3.38,3.38,0,0,1,1.31-1.31,3.76,3.76,0,0,1,1.88-.47,3.89,3.89,0,0,1,1.46.26,2.64,2.64,0,0,1,1.05.74l-.71.8a2.41,2.41,0,0,0-1.86-.78,2.39,2.39,0,0,0-1.24.33,2.35,2.35,0,0,0-.87.92,2.73,2.73,0,0,0-.32,1.33A2.08,2.08,0,0,0,248,286a1.88,1.88,0,0,0,1.43.58,3.24,3.24,0,0,0,1.17-.21,2.35,2.35,0,0,0,.91-.62l.59.69a3.51,3.51,0,0,1-1.23.85,4.15,4.15,0,0,1-1.61.3A3.11,3.11,0,0,1,247.65,287.2Zm8.89-1.64a1.8,1.8,0,0,0,0,.41.54.54,0,0,0,.14.42.67.67,0,0,0,.44.13,2.46,2.46,0,0,0,1.13-.34l.21.94a3.22,3.22,0,0,1-1.61.47,1.58,1.58,0,0,1-1.08-.36,1.31,1.31,0,0,1-.41-1,2.75,2.75,0,0,1,0-.54l.73-3.61h-.94l.16-.89h.95l.35-1.78h1.16l-.35,1.78h2l-.16.89h-2Zm6.91-4.62-1.31,6.61H261l1.31-6.61Zm.38-2.47a.61.61,0,0,1,.16.44.84.84,0,0,1-.27.63.86.86,0,0,1-.62.26.55.55,0,0,1-.43-.18.64.64,0,0,1-.16-.44.83.83,0,0,1,.26-.62.85.85,0,0,1,.61-.26A.58.58,0,0,1,263.83,278.47Zm7.21,2.81a2.72,2.72,0,0,1,1.09,1.07,3.11,3.11,0,0,1,.39,1.56,3.68,3.68,0,0,1-.49,1.9,3.48,3.48,0,0,1-1.35,1.31,3.94,3.94,0,0,1-1.92.47,3.3,3.3,0,0,1-1.62-.38,2.68,2.68,0,0,1-1.07-1.07,3.2,3.2,0,0,1-.38-1.58,3.69,3.69,0,0,1,.49-1.89,3.44,3.44,0,0,1,1.34-1.31,3.94,3.94,0,0,1,1.92-.47A3.32,3.32,0,0,1,271,281.28Zm-3,1a2.37,2.37,0,0,0-.89.93,2.75,2.75,0,0,0-.33,1.34,2.1,2.1,0,0,0,.55,1.51,1.91,1.91,0,0,0,1.45.58,2.42,2.42,0,0,0,1.26-.33,2.38,2.38,0,0,0,.88-.92,2.75,2.75,0,0,0,.32-1.34,2.12,2.12,0,0,0-.54-1.51,1.89,1.89,0,0,0-1.44-.58A2.45,2.45,0,0,0,268.06,282.24Zm13.1-.82a2,2,0,0,1,.63,1.54,3.34,3.34,0,0,1-.08.69l-.79,3.9h-1.17l.75-3.76a2,2,0,0,0,0-.46,1.32,1.32,0,0,0-.41-1,1.63,1.63,0,0,0-1.14-.37,2.23,2.23,0,0,0-1.52.56,2.66,2.66,0,0,0-.84,1.51l-.71,3.55h-1.18l1.3-6.61h1.19L277,282a2.81,2.81,0,0,1,2.39-1.19A2.55,2.55,0,0,1,281.16,281.42Z"></path>
	  </a>
  <text class="benefit-bullets" transform="translate(154.64 236.51)">DDoS Prevention</text><text class="benefit-bullets" transform="translate(154.64 209.51)">Zero Day Updates</text><text class="benefit-bullets" transform="translate(154.64 182.51)">Block Attacks &amp; Hacks</text><text class="benefit-bullets" transform="translate(154.64 156.51)">Stop Malware</text><path id="bullet" class="blue ZfJSPVxS_113" d="M143.48999999999998,150.69A1.52,1.52 0,1,1 146.53,150.69A1.52,1.52 0,1,1 143.48999999999998,150.69"></path><path id="bullet-2" data-name="bullet" class="blue ZfJSPVxS_114" d="M143.48999999999998,176.69A1.52,1.52 0,1,1 146.53,176.69A1.52,1.52 0,1,1 143.48999999999998,176.69"></path><path id="bullet-3" data-name="bullet" class="blue ZfJSPVxS_115" d="M143.48999999999998,204.69A1.52,1.52 0,1,1 146.53,204.69A1.52,1.52 0,1,1 143.48999999999998,204.69"></path><path id="bullet-4" data-name="bullet" class="blue ZfJSPVxS_116" d="M143.48999999999998,230.69A1.52,1.52 0,1,1 146.53,230.69A1.52,1.52 0,1,1 143.48999999999998,230.69"></path><path class="blue ZfJSPVxS_117" d="M155.66,109a3.49,3.49,0,0,1,1.22,2.86,6.06,6.06,0,0,1-.81,3.16,5.45,5.45,0,0,1-2.32,2.11,7.89,7.89,0,0,1-3.55.75h-3.06l-.82,4.12h-2.68l2.8-14h5.72A5.39,5.39,0,0,1,155.66,109Zm-2.38,5.7a2.88,2.88,0,0,0,1-2.34,1.76,1.76,0,0,0-.69-1.51,3.27,3.27,0,0,0-2-.51h-3l-1,5.18h2.92A4.18,4.18,0,0,0,153.28,114.74Zm11.1-3a5,5,0,0,1,2.22-.53l-.32,2.52-.34,0a4,4,0,0,0-2.54.85,4.06,4.06,0,0,0-1.44,2.19L160.9,122h-2.6l2.12-10.7H163l-.38,1.92A4.88,4.88,0,0,1,164.38,111.77Zm12.09.1a4.3,4.3,0,0,1,1.8,1.73,5.14,5.14,0,0,1,.63,2.56,5.94,5.94,0,0,1-.81,3.1,5.66,5.66,0,0,1-2.22,2.12,6.62,6.62,0,0,1-3.19.76,5.7,5.7,0,0,1-2.71-.62,4.36,4.36,0,0,1-1.8-1.73,5.12,5.12,0,0,1-.63-2.57,6,6,0,0,1,.8-3.09,5.61,5.61,0,0,1,2.22-2.11,6.69,6.69,0,0,1,3.2-.76A5.77,5.77,0,0,1,176.47,111.87Zm-4.64,2.07a3.25,3.25,0,0,0-1.21,1.28,3.86,3.86,0,0,0-.44,1.86,2.93,2.93,0,0,0,.74,2.09,2.56,2.56,0,0,0,2,.79,3.22,3.22,0,0,0,2.92-1.74,3.88,3.88,0,0,0,.44-1.86,3,3,0,0,0-.73-2.08,2.51,2.51,0,0,0-2-.8A3.31,3.31,0,0,0,171.83,113.94Zm13,4.68a3,3,0,0,0-.06.54.67.67,0,0,0,.19.55.94.94,0,0,0,.59.15,4.4,4.4,0,0,0,1.68-.48l.36,2.06a5.64,5.64,0,0,1-2.74.72,2.9,2.9,0,0,1-2-.65,2.31,2.31,0,0,1-.75-1.85,4.15,4.15,0,0,1,.08-.82l1-5.16h-1.48l.36-1.9h1.5l.58-2.94h2.6l-.6,2.94h3.06l-.34,1.9h-3.1Zm15.27-6.11a4.5,4.5,0,0,1,1.29,3.39,7.5,7.5,0,0,1-.2,1.7H193a2.59,2.59,0,0,0,.86,1.82,3,3,0,0,0,2,.66,4.57,4.57,0,0,0,2.8-1L200,120.7a6,6,0,0,1-4.1,1.46,6.37,6.37,0,0,1-2.84-.6,4.44,4.44,0,0,1-1.89-1.71,4.87,4.87,0,0,1-.67-2.57,6,6,0,0,1,.79-3.07,5.75,5.75,0,0,1,2.18-2.16,6.18,6.18,0,0,1,3.11-.79A4.86,4.86,0,0,1,200.07,112.51ZM198.4,114a2.33,2.33,0,0,0-1.8-.67,3.31,3.31,0,0,0-2.07.7,3.76,3.76,0,0,0-1.29,1.84H199A2.52,2.52,0,0,0,198.4,114Zm7.55,7.54a4.28,4.28,0,0,1-1.72-1.72,5.21,5.21,0,0,1-.61-2.55,6.17,6.17,0,0,1,.78-3.11,5.5,5.5,0,0,1,2.15-2.13,6.23,6.23,0,0,1,3.07-.76,6,6,0,0,1,2.56.51,4.33,4.33,0,0,1,1.76,1.45l-1.74,1.5a3.26,3.26,0,0,0-2.68-1.18,3.17,3.17,0,0,0-2.85,1.7,3.82,3.82,0,0,0-.43,1.84,2.89,2.89,0,0,0,.72,2,2.46,2.46,0,0,0,1.9.78,3.74,3.74,0,0,0,3-1.26l1.5,1.34a5.44,5.44,0,0,1-2.05,1.6,6.66,6.66,0,0,1-2.79.56A5.24,5.24,0,0,1,205.95,121.53Zm13.91-2.91a3,3,0,0,0-.06.54.67.67,0,0,0,.19.55.94.94,0,0,0,.59.15,4.4,4.4,0,0,0,1.68-.48l.36,2.06a5.64,5.64,0,0,1-2.74.72,2.9,2.9,0,0,1-2-.65,2.31,2.31,0,0,1-.75-1.85,4.15,4.15,0,0,1,.08-.82l1-5.16H216.8l.36-1.9h1.5l.58-2.94h2.6l-.6,2.94h3.06l-.34,1.9h-3.1Z"></path>
  <style>
  .ZfJSPVxS_41{
    stroke-dasharray:159 161;
    stroke-dashoffset:160;
    animation:ZfJSPVxS_draw160 300ms linear 0ms forwards;
  }
  .ZfJSPVxS_42{
    stroke-dasharray:152 154;
    stroke-dashoffset:153;
    animation:ZfJSPVxS_draw153 300ms linear 0ms forwards;
  }
  .ZfJSPVxS_43{
    stroke-dasharray:144 146;
    stroke-dashoffset:145;
    animation:ZfJSPVxS_draw145 300ms linear 0ms forwards;
  }
  .ZfJSPVxS_44{
    stroke-dasharray:136 138;
    stroke-dashoffset:137;
    animation:ZfJSPVxS_draw137 300ms linear 0ms forwards;
  }
  .ZfJSPVxS_45{
    stroke-dasharray:129 131;
    stroke-dashoffset:130;
    animation:ZfJSPVxS_draw130 300ms linear 0ms forwards;
  }
  .ZfJSPVxS_46{
    stroke-dasharray:121 123;
    stroke-dashoffset:122;
    animation:ZfJSPVxS_draw122 300ms linear 0ms forwards;
  }
  .ZfJSPVxS_47{
    stroke-dasharray:114 116;
    stroke-dashoffset:115;
    animation:ZfJSPVxS_draw115 300ms linear 0ms forwards;
  }
  .ZfJSPVxS_48{
    stroke-dasharray:104 106;
    stroke-dashoffset:105;
    animation:ZfJSPVxS_draw105 300ms linear 0ms forwards;
  }
  .ZfJSPVxS_49{
    stroke-dasharray:96 98;
    stroke-dashoffset:97;
    animation:ZfJSPVxS_draw97 300ms linear 0ms forwards;
  }
  .ZfJSPVxS_50{
    stroke-dasharray:91 93;
    stroke-dashoffset:92;
    animation:ZfJSPVxS_draw92 300ms linear 0ms forwards;
  }
  .ZfJSPVxS_51{
    stroke-dasharray:91 93;
    stroke-dashoffset:92;
    animation:ZfJSPVxS_draw92 300ms linear 0ms forwards;
  }
  .ZfJSPVxS_52{
    stroke-dasharray:91 93;
    stroke-dashoffset:92;
    animation:ZfJSPVxS_draw92 300ms linear 0ms forwards;
  }
  .ZfJSPVxS_53{
    stroke-dasharray:91 93;
    stroke-dashoffset:92;
    animation:ZfJSPVxS_draw92 300ms linear 0ms forwards;
  }
  .ZfJSPVxS_54{
    stroke-dasharray:91 93;
    stroke-dashoffset:92;
    animation:ZfJSPVxS_draw92 300ms linear 0ms forwards;
  }
  .ZfJSPVxS_55{
    stroke-dasharray:92 94;
    stroke-dashoffset:93;
    animation:ZfJSPVxS_draw93 300ms linear 0ms forwards;
  }
  .ZfJSPVxS_56{
    stroke-dasharray:92 94;
    stroke-dashoffset:93;
    animation:ZfJSPVxS_draw93 300ms linear 0ms forwards;
  }
  .ZfJSPVxS_57{
    stroke-dasharray:92 94;
    stroke-dashoffset:93;
    animation:ZfJSPVxS_draw93 300ms linear 0ms forwards;
  }
  .ZfJSPVxS_58{
    stroke-dasharray:93 95;
    stroke-dashoffset:94;
    animation:ZfJSPVxS_draw94 300ms linear 0ms forwards;
  }
  .ZfJSPVxS_59{
    stroke-dasharray:93 95;
    stroke-dashoffset:94;
    animation:ZfJSPVxS_draw94 300ms linear 0ms forwards;
  }
  .ZfJSPVxS_60{
    stroke-dasharray:94 96;
    stroke-dashoffset:95;
    animation:ZfJSPVxS_draw95 300ms linear 0ms forwards;
  }
  .ZfJSPVxS_61{
    stroke-dasharray:94 96;
    stroke-dashoffset:95;
    animation:ZfJSPVxS_draw95 300ms linear 0ms forwards;
  }
  .ZfJSPVxS_62{
    stroke-dasharray:95 97;
    stroke-dashoffset:96;
    animation:ZfJSPVxS_draw96 300ms linear 0ms forwards;
  }
  .ZfJSPVxS_63{
    stroke-dasharray:96 98;
    stroke-dashoffset:97;
    animation:ZfJSPVxS_draw97 300ms linear 0ms forwards;
  }
  .ZfJSPVxS_64{
    stroke-dasharray:96 98;
    stroke-dashoffset:97;
    animation:ZfJSPVxS_draw97 300ms linear 0ms forwards;
  }
  .ZfJSPVxS_65{
    stroke-dasharray:97 99;
    stroke-dashoffset:98;
    animation:ZfJSPVxS_draw98 300ms linear 0ms forwards;
  }
  .ZfJSPVxS_66{
    stroke-dasharray:98 100;
    stroke-dashoffset:99;
    animation:ZfJSPVxS_draw99 300ms linear 0ms forwards;
  }
  .ZfJSPVxS_67{
    stroke-dasharray:98 100;
    stroke-dashoffset:99;
    animation:ZfJSPVxS_draw99 300ms linear 0ms forwards;
  }
  .ZfJSPVxS_68{
    stroke-dasharray:99 101;
    stroke-dashoffset:100;
    animation:ZfJSPVxS_draw100 300ms linear 0ms forwards;
  }
  .ZfJSPVxS_69{
    stroke-dasharray:100 102;
    stroke-dashoffset:101;
    animation:ZfJSPVxS_draw101 300ms linear 0ms forwards;
  }
  .ZfJSPVxS_70{
    stroke-dasharray:101 103;
    stroke-dashoffset:102;
    animation:ZfJSPVxS_draw102 300ms linear 0ms forwards;
  }
  .ZfJSPVxS_71{
    stroke-dasharray:102 104;
    stroke-dashoffset:103;
    animation:ZfJSPVxS_draw103 300ms linear 0ms forwards;
  }
  .ZfJSPVxS_72{
    stroke-dasharray:102 104;
    stroke-dashoffset:103;
    animation:ZfJSPVxS_draw103 300ms linear 0ms forwards;
  }
  .ZfJSPVxS_73{
    stroke-dasharray:103 105;
    stroke-dashoffset:104;
    animation:ZfJSPVxS_draw104 300ms linear 0ms forwards;
  }
  .ZfJSPVxS_74{
    stroke-dasharray:104 106;
    stroke-dashoffset:105;
    animation:ZfJSPVxS_draw105 300ms linear 0ms forwards;
  }
  .ZfJSPVxS_75{
    stroke-dasharray:105 107;
    stroke-dashoffset:106;
    animation:ZfJSPVxS_draw106 300ms linear 0ms forwards;
  }
  .ZfJSPVxS_76{
    stroke-dasharray:106 108;
    stroke-dashoffset:107;
    animation:ZfJSPVxS_draw107 300ms linear 0ms forwards;
  }
  .ZfJSPVxS_77{
    stroke-dasharray:107 109;
    stroke-dashoffset:108;
    animation:ZfJSPVxS_draw108 300ms linear 0ms forwards;
  }
  .ZfJSPVxS_78{
    stroke-dasharray:108 110;
    stroke-dashoffset:109;
    animation:ZfJSPVxS_draw109 300ms linear 0ms forwards;
  }
  .ZfJSPVxS_79{
    stroke-dasharray:109 111;
    stroke-dashoffset:110;
    animation:ZfJSPVxS_draw110 300ms linear 0ms forwards;
  }
  .ZfJSPVxS_80{
    stroke-dasharray:110 112;
    stroke-dashoffset:111;
    animation:ZfJSPVxS_draw111 300ms linear 0ms forwards;
  }
  .ZfJSPVxS_81{
    stroke-dasharray:111 113;
    stroke-dashoffset:112;
    animation:ZfJSPVxS_draw112 300ms linear 0ms forwards;
  }
  .ZfJSPVxS_82{
    stroke-dasharray:112 114;
    stroke-dashoffset:113;
    animation:ZfJSPVxS_draw113 300ms linear 0ms forwards;
  }
  .ZfJSPVxS_83{
    stroke-dasharray:114 116;
    stroke-dashoffset:115;
    animation:ZfJSPVxS_draw115 300ms linear 0ms forwards;
  }
  .ZfJSPVxS_84{
    stroke-dasharray:115 117;
    stroke-dashoffset:116;
    animation:ZfJSPVxS_draw116 300ms linear 0ms forwards;
  }
  .ZfJSPVxS_85{
    stroke-dasharray:116 118;
    stroke-dashoffset:117;
    animation:ZfJSPVxS_draw117 300ms linear 0ms forwards;
  }
  .ZfJSPVxS_86{
    stroke-dasharray:117 119;
    stroke-dashoffset:118;
    animation:ZfJSPVxS_draw118 300ms linear 0ms forwards;
  }
  .ZfJSPVxS_87{
    stroke-dasharray:118 120;
    stroke-dashoffset:119;
    animation:ZfJSPVxS_draw119 300ms linear 0ms forwards;
  }
  .ZfJSPVxS_88{
    stroke-dasharray:119 121;
    stroke-dashoffset:120;
    animation:ZfJSPVxS_draw120 300ms linear 0ms forwards;
  }
  .ZfJSPVxS_89{
    stroke-dasharray:121 123;
    stroke-dashoffset:122;
    animation:ZfJSPVxS_draw122 300ms linear 0ms forwards;
  }
  .ZfJSPVxS_90{
    stroke-dasharray:122 124;
    stroke-dashoffset:123;
    animation:ZfJSPVxS_draw123 300ms linear 0ms forwards;
  }
  .ZfJSPVxS_91{
    stroke-dasharray:123 125;
    stroke-dashoffset:124;
    animation:ZfJSPVxS_draw124 300ms linear 0ms forwards;
  }
  .ZfJSPVxS_92{
    stroke-dasharray:124 126;
    stroke-dashoffset:125;
    animation:ZfJSPVxS_draw125 300ms linear 0ms forwards;
  }
  .ZfJSPVxS_93{
    stroke-dasharray:126 128;
    stroke-dashoffset:127;
    animation:ZfJSPVxS_draw127 300ms linear 0ms forwards;
  }
  .ZfJSPVxS_94{
    stroke-dasharray:127 129;
    stroke-dashoffset:128;
    animation:ZfJSPVxS_draw128 300ms linear 0ms forwards;
  }
  .ZfJSPVxS_95{
    stroke-dasharray:128 130;
    stroke-dashoffset:129;
    animation:ZfJSPVxS_draw129 300ms linear 0ms forwards;
  }
  .ZfJSPVxS_96{
    stroke-dasharray:130 132;
    stroke-dashoffset:131;
    animation:ZfJSPVxS_draw131 300ms linear 0ms forwards;
  }
  .ZfJSPVxS_97{
    stroke-dasharray:131 133;
    stroke-dashoffset:132;
    animation:ZfJSPVxS_draw132 300ms linear 0ms forwards;
  }
  .ZfJSPVxS_98{
    stroke-dasharray:132 134;
    stroke-dashoffset:133;
    animation:ZfJSPVxS_draw133 300ms linear 0ms forwards;
  }
  .ZfJSPVxS_99{
    stroke-dasharray:134 136;
    stroke-dashoffset:135;
    animation:ZfJSPVxS_draw135 300ms linear 0ms forwards;
  }
  .ZfJSPVxS_100{
    stroke-dasharray:135 137;
    stroke-dashoffset:136;
    animation:ZfJSPVxS_draw136 300ms linear 0ms forwards;
  }
  @keyframes ZfJSPVxS_fade{
    0%{
      stroke-opacity:1;
    }
    94.44444444444444%{
      stroke-opacity:1;
    }
    100%{
      stroke-opacity:0;
    }
  }

  </style></svg>
