<svg xmlns="http://www.w3.org/2000/svg" width="28.74" height="22.83" viewBox="0 0 28.74 22.83">
  <title>icon-green-chat-dits</title>
  <g id="Layer_2" data-name="Layer 2">
    <g id="Home_-_1200" data-name="Home - 1200">
      <g id="Pricing">
        <path d="M25.77,16.21l-.7,6.62-6.22-4.44H9.08A8.81,8.81,0,0,1,0,9.19,8.81,8.81,0,0,1,9.08,0H19.66a8.79,8.79,0,0,1,9.08,9.19,9.39,9.39,0,0,1-3,7ZM8.78,8.4a.8.8,0,1,0,.8.8.8.8,0,0,0-.8-.8Zm3.73,0a.8.8,0,1,0,.8.8.8.8,0,0,0-.8-.8Zm3.73,0a.8.8,0,1,0,.8.8.8.8,0,0,0-.8-.8ZM20,8.4a.8.8,0,1,0,.8.8.8.8,0,0,0-.8-.8Zm-.3-7.33H9.08a7.75,7.75,0,0,0-8,8.13,7.75,7.75,0,0,0,8,8.13h10.1l5,3.58.56-5.23.16-.14a8.28,8.28,0,0,0,2.76-6.35A7.73,7.73,0,0,0,19.66,1.06Z" style="fill: #1fc469;fill-rule: evenodd"/>
      </g>
    </g>
  </g>
</svg>
