<svg xmlns="http://www.w3.org/2000/svg" width="99.46" height="77.97" viewBox="0 0 99.46 77.97">
  <title>icon-green-cloud-server</title>
  <g id="Layer_2" data-name="Layer 2">
    <g id="Benefits_-_1200" data-name="Benefits - 1200">
      <g id="Better_Way" data-name="Better Way">
        <g id="Enhance">
          <g id="cdn_-_medium" data-name="cdn - medium">
            <path d="M72.43,11.87c-.3.07-.6.16-.89.26A17.66,17.66,0,0,0,55.2,7.41a16.9,16.9,0,0,0-2.76.91A23.27,23.27,0,0,0,30,1.1,22.8,22.8,0,0,0,15,13a15.09,15.09,0,0,0-2.35.36C4,15.46-1.2,24.64,1,33.92A17.55,17.55,0,0,0,12.1,46.57c4,8.71,13.22,13.77,22.29,11.62A18.81,18.81,0,0,0,46.68,48.5a22.55,22.55,0,0,0,6.17-4.67A17.11,17.11,0,0,0,64.11,45a17.39,17.39,0,0,0,11.32-8.9,10.75,10.75,0,0,0,2.67-.29c6.17-1.46,9.89-8,8.33-14.64S78.59,10.41,72.43,11.87Z" style="fill: #fff;stroke: #373e5a;stroke-linecap: round;stroke-linejoin: round"/>
            <path d="M33.5,5.54q-.84.12-1.67.32A18.29,18.29,0,0,0,24,9.9" style="fill: #fff;stroke: #373e5a;stroke-linecap: round;stroke-linejoin: round"/>
            <path d="M13.56,19.31a13.35,13.35,0,0,0-6.88,8.2" style="fill: #fff;stroke: #373e5a;stroke-linecap: round;stroke-linejoin: round"/>
            <circle cx="67.65" cy="47.04" r="30.43" style="fill: #fff;stroke: #373e5a;stroke-linecap: round;stroke-linejoin: round"/>
            <path d="M62.68,17c8.61,3.88,14.87,15.65,14.87,29.57,0,14.71-7,27-16.35,30.16" style="fill: none;stroke: #1976CC;stroke-linecap: round;stroke-linejoin: round"/>
            <path d="M46.75,69c-6.47-6.47-2.08-21.35,9.8-33.24S83.32,19.51,89.79,26" style="fill: none;stroke: #1976CC;stroke-linecap: round;stroke-linejoin: round"/>
            <path d="M89.28,68.48c-6.42,6.42-21.26,2-33.14-9.9s-16.32-26.72-9.9-33.14" style="fill: none;stroke: #1976CC;stroke-linecap: round;stroke-linejoin: round"/>
            <path d="M97.73,42.17c0,3.46-13.48,6.26-30.1,6.26s-30.1-2.8-30.1-6.26" style="fill: none;stroke: #1976CC;stroke-linecap: round;stroke-linejoin: round"/>
            <path d="M42.22,30.44c3.06-8.06,18.11-9.83,33.63-4s25.62,17.18,22.56,25.25" style="fill: none;stroke: #1976CC;stroke-linecap: round;stroke-linejoin: round"/>
            <path d="M52.07,66.68c-8.9-3.6-14.85-10.1-14.85-17.53" style="fill: none;stroke: #1976CC;stroke-linecap: round;stroke-linejoin: round"/>
            <path d="M97.83,43.62A14.19,14.19,0,0,1,99,49.14c0,11.33-13.82,20.51-30.87,20.51a43,43,0,0,1-16-3" style="fill: none;stroke: #1976CC;stroke-linecap: round;stroke-linejoin: round"/>
            <path d="M33.68,51.8H55.14A3.18,3.18,0,0,1,58.31,55v2.51a3.18,3.18,0,0,1-3.17,3.17H38.24a6.15,6.15,0,0,0-4.33,5.75v5.23" style="fill: #fff;stroke: #373e5a;stroke-linecap: round;stroke-linejoin: round"/>
            <rect x="9.77" y="34.3" width="48.53" height="8.85" rx="2.87" ry="2.87" style="fill: #fff;stroke: #373e5a;stroke-linecap: round;stroke-linejoin: round"/>
            <line x1="43.6" y1="38.77" x2="51.16" y2="38.77" style="fill: #fff;stroke: #373e5a;stroke-linecap: round;stroke-linejoin: round"/>
            <rect x="9.77" y="43.07" width="48.53" height="8.85" rx="2.87" ry="2.87" style="fill: #fff;stroke: #373e5a;stroke-linecap: round;stroke-linejoin: round"/>
            <line x1="43.6" y1="47.54" x2="51.16" y2="47.54" style="fill: #fff;stroke: #373e5a;stroke-linecap: round;stroke-linejoin: round"/>
            <path d="M34.4,51.8H12.94A3.18,3.18,0,0,0,9.77,55v2.51a3.18,3.18,0,0,0,3.17,3.17h16.9a6.15,6.15,0,0,1,4.33,5.75v5.23" style="fill: #fff;stroke: #373e5a;stroke-linecap: round;stroke-linejoin: round"/>
            <line x1="43.6" y1="56.27" x2="51.16" y2="56.27" style="fill: #fff;stroke: #373e5a;stroke-linecap: round;stroke-linejoin: round"/>
            <path d="M33.5,26l-9.56,0a9.48,9.48,0,0,0-5.77,1.71L10.66,34.3H33.5" style="fill: #fff;stroke: #373e5a;stroke-linecap: round;stroke-linejoin: round"/>
            <line x1="11.78" y1="74.74" x2="54.55" y2="74.74" style="fill: #fff;stroke: #373e5a;stroke-linecap: round;stroke-linejoin: round"/>
            <path d="M33.47,26,43,26a9.48,9.48,0,0,1,5.77,1.71l7.52,6.57H33.47" style="fill: #fff;stroke: #373e5a;stroke-linecap: round;stroke-linejoin: round"/>
            <rect x="28.08" y="72.57" width="11.78" height="4.34" rx="0.76" ry="0.76" style="fill: #fff;stroke: #373e5a;stroke-linecap: round;stroke-linejoin: round"/>
            <ellipse cx="71.67" cy="25.32" rx="1.87" ry="1.63" style="fill: #373e5a"/>
            <circle cx="77.57" cy="47.87" r="1.87" style="fill: #373e5a"/>
            <circle cx="71.22" cy="68.84" r="1.87" style="fill: #373e5a"/>
          </g>
        </g>
      </g>
    </g>
  </g>
</svg>
