<svg xmlns="http://www.w3.org/2000/svg" xmlns:xlink="http://www.w3.org/1999/xlink" width="664.55" height="570.95" viewBox="0 0 664.55 570.95">
  <defs>
    <clipPath id="clip-path">
      <polygon points="411.37 487.71 317.65 486 340.72 415 434.44 416.71 411.37 487.71" style="fill: none"/>
    </clipPath>
    <clipPath id="clip-path-2">
      <rect x="201.73" y="411.13" width="88.92" height="58.31" transform="translate(-15.22 8.86) rotate(-2)" style="fill: none"/>
    </clipPath>
    <clipPath id="clip-path-3">
      <polygon points="367.47 571.86 461.19 570.15 438.12 499.15 344.4 500.85 367.47 571.86" style="fill: none"/>
    </clipPath>
  </defs>
  <title>icon-money-cloud</title>
  <g id="Layer_2" data-name="Layer 2">
    <g id="Home_-_1200" data-name="Home - 1200">
      <g id="Web_Security" data-name="Web Security">
        <g id="Illustration">
          <g id="Money">
            <g>
              <path d="M364.13,81.36s45.15-18.81,50.09-65.82l40,21.18s-5.14,46.4-55.85,73.11Z" style="fill: #edf0f3;stroke: #3f4563;stroke-miterlimit: 10"/>
              <g>
                <path d="M395.34,101,375.1,84.55s2.11-3.14-.17-5.67c0,0,31.83-16,40.82-53.85,0,0,4.38,2.35,7-2L446.2,35.63s-2.64,5.53,3.15,8.31c0,0-8.82,38.8-44.89,58.1C404.46,102,399.51,97.47,395.34,101Z" style="fill: #fff;stroke: #3f4563;stroke-miterlimit: 10"/>
                <path d="M395.34,101,375.1,84.55s2.11-3.14-.17-5.67c0,0,31.83-16,40.82-53.85,0,0,4.38,2.35,7-2L446.2,35.63s-2.64,5.53,3.15,8.31c0,0-8.82,38.8-44.89,58.1C404.46,102,399.51,97.47,395.34,101Z" style="fill: #fff;stroke: #3f4563;stroke-miterlimit: 10"/>
              </g>
              <g>
                <path d="M421.77,56.89c5,3.22,7,9.1,4.38,13.13s-8.83,4.7-13.87,1.49-7-9.1-4.38-13.13S416.73,53.67,421.77,56.89Z" style="fill: #edf0f3;stroke: #3f4563;stroke-miterlimit: 10"/>
                <path d="M421.77,56.89c5,3.22,7,9.1,4.38,13.13s-8.83,4.7-13.87,1.49-7-9.1-4.38-13.13S416.73,53.67,421.77,56.89Z" style="fill: #3f4563"/>
              </g>
              <path d="M401.64,79.46c2.16,1.38,3.21,3.58,2.34,4.92s-3.32,1.31-5.48-.07-3.21-3.58-2.34-4.92S399.48,78.08,401.64,79.46Z" style="fill: #fff;stroke: #3f4563;stroke-miterlimit: 10"/>
              <path d="M428.5,39.21c2.16,1.38,3.21,3.58,2.34,4.92s-3.32,1.31-5.48-.07-3.21-3.58-2.34-4.92S426.34,37.83,428.5,39.21Z" style="fill: #fff;stroke: #3f4563;stroke-miterlimit: 10"/>
            </g>
            <g>
              <path d="M604.43,295.16s16.88,39.35,58.09,43.25l-18.18,35.21s-40.67-4.07-64.53-48.22Z" style="fill: #edf0f3;stroke: #3f4563;stroke-miterlimit: 10"/>
              <g>
                <path d="M587.51,322.67l14.23-17.88s2.77,1.81,5-.2c0,0,14.34,27.72,47.52,35.24a4.53,4.53,0,0,0,1.84,6.11l-10.84,20.65a5.36,5.36,0,0,0-7.25,2.83s-34.06-7.36-51.29-38.76C586.69,330.66,590.65,326.29,587.51,322.67Z" style="fill: #fff;stroke: #3f4563;stroke-miterlimit: 10"/>
                <path d="M587.51,322.67l14.23-17.88s2.77,1.81,5-.2c0,0,14.34,27.72,47.52,35.24a4.53,4.53,0,0,0,1.84,6.11l-10.84,20.65a5.36,5.36,0,0,0-7.25,2.83s-34.06-7.36-51.29-38.76C586.69,330.66,590.65,326.29,587.51,322.67Z" style="fill: #fff;stroke: #3f4563;stroke-miterlimit: 10"/>
              </g>
              <g>
                <path d="M626.39,345.4c-2.77,4.44-7.9,6.21-11.46,4s-4.2-7.69-1.43-12.13,7.9-6.21,11.46-4S629.16,341,626.39,345.4Z" style="fill: #edf0f3;stroke: #3f4563;stroke-miterlimit: 10"/>
                <path d="M626.39,345.4c-2.77,4.44-7.9,6.21-11.46,4s-4.2-7.69-1.43-12.13,7.9-6.21,11.46-4S629.16,341,626.39,345.4Z" style="fill: #3f4563"/>
              </g>
              <path d="M606.44,328c-1.19,1.9-3.11,2.84-4.29,2.09s-1.17-2.9,0-4.8,3.11-2.84,4.29-2.09S607.63,326.08,606.44,328Z" style="fill: #fff;stroke: #3f4563;stroke-miterlimit: 10"/>
              <path d="M641.93,351.13c-1.19,1.9-3.11,2.84-4.29,2.09s-1.17-2.9,0-4.8,3.11-2.84,4.29-2.09S643.12,349.22,641.93,351.13Z" style="fill: #fff;stroke: #3f4563;stroke-miterlimit: 10"/>
            </g>
            <g>
              <path d="M432,340.68s41.4,10.92,69.84-19.15l16.55,36s-28.25,29.54-77.72,21.16Z" style="fill: #edf0f3;stroke: #3f4563;stroke-miterlimit: 10"/>
              <g>
                <path d="M443.22,371l-5.33-22.22s3.13-1.07,2.9-4c0,0,30.67,5.76,57-15.75a4.53,4.53,0,0,0,5.95,2.31l9.6,21.26a5.36,5.36,0,0,0-2.23,7.46S484.36,382.28,449,376.52C449,376.52,448,370.71,443.22,371Z" style="fill: #fff;stroke: #3f4563;stroke-miterlimit: 10"/>
                <path d="M443.22,371l-5.33-22.22s3.13-1.07,2.9-4c0,0,30.67,5.76,57-15.75a4.53,4.53,0,0,0,5.95,2.31l9.6,21.26a5.36,5.36,0,0,0-2.23,7.46S484.36,382.28,449,376.52C449,376.52,448,370.71,443.22,371Z" style="fill: none"/>
              </g>
              <g>
                <path d="M485.06,354.31c1.8,4.92,0,10.05-3.93,11.47s-8.64-1.42-10.44-6.34,0-10.05,3.93-11.47S483.26,349.39,485.06,354.31Z" style="fill: #3f4563"/>
                <path d="M485.06,354.31c1.8,4.92,0,10.05-3.93,11.47s-8.64-1.42-10.44-6.34,0-10.05,3.93-11.47S483.26,349.39,485.06,354.31Z" style="fill: none"/>
              </g>
              <path d="M459.06,359.31c.77,2.11.33,4.2-1,4.67s-3-.86-3.78-3-.33-4.2,1-4.67S458.29,357.2,459.06,359.31Z" style="fill: #fff;stroke: #3f4563;stroke-miterlimit: 10"/>
              <path d="M499.14,345.59c.77,2.11.33,4.2-1,4.67s-3-.86-3.78-3-.33-4.2,1-4.67S498.37,343.48,499.14,345.59Z" style="fill: #fff;stroke: #3f4563;stroke-miterlimit: 10"/>
            </g>
            <g>
              <path d="M605.67,98.08s16.88,39.35,58.09,43.25l-18.18,35.21s-40.67-4.07-64.53-48.22Z" style="fill: #edf0f3;stroke: #3f4563;stroke-miterlimit: 10"/>
              <g>
                <path d="M588.75,125.59,603,107.71s2.77,1.81,5-.2c0,0,14.34,27.72,47.52,35.24a4.53,4.53,0,0,0,1.84,6.11l-10.84,20.65a5.36,5.36,0,0,0-7.25,2.83s-34.06-7.36-51.29-38.76C587.93,133.58,591.89,129.21,588.75,125.59Z" style="fill: #fff;stroke: #3f4563;stroke-miterlimit: 10"/>
                <path d="M588.75,125.59,603,107.71s2.77,1.81,5-.2c0,0,14.34,27.72,47.52,35.24a4.53,4.53,0,0,0,1.84,6.11l-10.84,20.65a5.36,5.36,0,0,0-7.25,2.83s-34.06-7.36-51.29-38.76C587.93,133.58,591.89,129.21,588.75,125.59Z" style="fill: #fff;stroke: #3f4563;stroke-miterlimit: 10"/>
              </g>
              <g>
                <path d="M627.63,148.32c-2.77,4.44-7.9,6.21-11.46,4s-4.2-7.69-1.43-12.13,7.9-6.21,11.46-4S630.4,143.88,627.63,148.32Z" style="fill: #edf0f3;stroke: #3f4563;stroke-miterlimit: 10"/>
                <path d="M627.63,148.32c-2.77,4.44-7.9,6.21-11.46,4s-4.2-7.69-1.43-12.13,7.9-6.21,11.46-4S630.4,143.88,627.63,148.32Z" style="fill: #3f4563"/>
              </g>
              <path d="M607.68,130.91c-1.19,1.9-3.11,2.84-4.29,2.09s-1.17-2.9,0-4.8,3.11-2.84,4.29-2.09S608.87,129,607.68,130.91Z" style="fill: #fff;stroke: #3f4563;stroke-miterlimit: 10"/>
              <path d="M643.17,154c-1.19,1.9-3.11,2.84-4.29,2.09s-1.17-2.9,0-4.8,3.11-2.84,4.29-2.09S644.36,152.14,643.17,154Z" style="fill: #fff;stroke: #3f4563;stroke-miterlimit: 10"/>
            </g>
            <g>
              <path d="M259.14,70.6l18-49.13L299.65,25,279.7,72.7S276.94,80.05,259.14,70.6Z" style="fill: #edf0f3;stroke: #3f4563;stroke-miterlimit: 10"/>
              <path d="M269.79,52.55l-5.37,12.92s2.92,2.82,1.43,5.81c0,0,12.24,5.79,14.21-3.6L278.42,57.3Z" style="fill: #edf0f3;stroke: #3f4563;stroke-miterlimit: 10"/>
              <path d="M299.65,25,279.7,72.7C282.26,66.59,278,51.36,232.3,45L251.85.53S293.21,4.76,299.65,25Z" style="fill: #edf0f3;stroke: #3f4563;stroke-miterlimit: 10"/>
              <path d="M283.88,62.69c-7.8-13-33.59-19-40.41-20.19a7.26,7.26,0,0,0-2.06-5l12.44-28.8A8.91,8.91,0,0,0,260,6.51c27.91,4.18,36.06,17.65,37.94,22.6Z" style="fill: #fff;stroke: #3f4563;stroke-miterlimit: 10"/>
              <path d="M277.64,38.22c2.57-7.48,8.79-12.15,13.87-10.44a8,8,0,0,1,4.81,5.13c0,.13-9.09,21.76-9.09,21.76a7.42,7.42,0,0,1-5,.2C277.11,53.15,275.07,45.7,277.64,38.22Z" style="fill: #3f4563"/>
              <path d="M256.6,24.46c-1.28,3.18-.79,6.36,1.1,7.11s4.45-1.24,5.73-4.42.79-6.36-1.1-7.11S257.87,21.27,256.6,24.46Z" style="fill: #fff;stroke: #3f4563;stroke-miterlimit: 10"/>
            </g>
            <g>
              <path d="M581,191.61s-16.64,44.57-63,50.79l22.78,38.36s45.77-6.39,70-56.62Z" style="fill: #edf0f3;stroke: #3f4563;stroke-miterlimit: 10"/>
              <g>
                <path d="M601.88,221.45,584.66,202.2s-3,2.15-5.63,0c0,0-14.49,31.51-51.57,41.4,0,0,2.53,4.2-1.7,6.88L539.33,273s5.36-2.74,8.38,2.82c0,0,38.08-9.75,55.61-45.49C603.32,230.31,598.56,225.62,601.88,221.45Z" style="fill: #8fb867"/>
                <path d="M601.88,221.45,584.66,202.2s-3,2.15-5.63,0c0,0-14.49,31.51-51.57,41.4,0,0,2.53,4.2-1.7,6.88L539.33,273s5.36-2.74,8.38,2.82c0,0,38.08-9.75,55.61-45.49C603.32,230.31,598.56,225.62,601.88,221.45Z" style="fill: #fff;stroke: #3f4563;stroke-miterlimit: 10"/>
              </g>
              <path d="M559.31,248.53c3.41,4.82,9.33,6.56,13.22,3.88s4.27-8.75.86-13.56-9.33-6.56-13.22-3.88S555.9,243.71,559.31,248.53Z" style="fill: #3f4563"/>
              <path d="M580.8,228.24c1.46,2.06,3.69,3,5,2.13s1.15-3.28-.32-5.34-3.69-3-5-2.13S579.33,226.17,580.8,228.24Z" style="fill: #fff;stroke: #3f4563;stroke-miterlimit: 10"/>
              <path d="M542.09,255.61c1.46,2.06,3.69,3,5,2.13s1.15-3.28-.32-5.34-3.69-3-5-2.13S540.62,253.55,542.09,255.61Z" style="fill: #fff;stroke: #3f4563;stroke-miterlimit: 10"/>
            </g>
            <g>
              <path d="M394.56,177.84s17.51,44.8,64.36,50.59L436.6,267.37s-46.23-6-71.48-56.4Z" style="fill: #edf0f3;stroke: #3f4563;stroke-miterlimit: 10"/>
              <g>
                <path d="M374,208.17l17-19.6s3.08,2.13,5.67-.06c0,0,15.13,31.64,52.65,41.24,0,0-2.48,4.27,1.83,6.93l-13.3,22.84s-5.45-2.71-8.4,2.94c0,0-38.53-9.44-56.79-45.32C372.73,217.12,377.44,212.34,374,208.17Z" style="fill: #8fb867"/>
                <path d="M374,208.17l17-19.6s3.08,2.13,5.67-.06c0,0,15.13,31.64,52.65,41.24,0,0-2.48,4.27,1.83,6.93l-13.3,22.84s-5.45-2.71-8.4,2.94c0,0-38.53-9.44-56.79-45.32C372.73,217.12,377.44,212.34,374,208.17Z" style="fill: #fff;stroke: #3f4563;stroke-miterlimit: 10"/>
              </g>
              <g>
                <path d="M417.37,235.05c-3.36,4.9-9.29,6.71-13.25,4.05s-4.45-8.78-1.09-13.68,9.29-6.71,13.25-4.05S420.73,230.15,417.37,235.05Z" style="fill: #edf0f3;stroke: #3f4563;stroke-miterlimit: 10"/>
                <path d="M417.37,235.05c-3.36,4.9-9.29,6.71-13.25,4.05s-4.45-8.78-1.09-13.68,9.29-6.71,13.25-4.05S420.73,230.15,417.37,235.05Z" style="fill: #3f4563"/>
              </g>
              <path d="M395.39,214.8c-1.44,2.1-3.67,3.09-5,2.2s-1.21-3.3.23-5.4,3.67-3.09,5-2.2S396.83,212.7,395.39,214.8Z" style="fill: #fff;stroke: #3f4563;stroke-miterlimit: 10"/>
              <path d="M434.85,242c-1.44,2.1-3.67,3.09-5,2.2s-1.21-3.3.23-5.4,3.67-3.09,5-2.2S436.29,239.92,434.85,242Z" style="fill: #fff;stroke: #3f4563;stroke-miterlimit: 10"/>
            </g>
            <g>
              <path d="M553.15,93.7,509.4,95.94c-6.79-30-28.48-48.2-42.94-57.33h51C546.6,57.48,553.16,93.71,553.15,93.7Z" style="fill: #edf0f3;stroke: #3f4563;stroke-miterlimit: 10"/>
              <g>
                <path d="M516.63,92.55a6.46,6.46,0,0,0-5.85-4.75c-.83-3.47-8.09-30-38.48-48.7h41.35c11,6.7,25.79,20.35,34.3,47.44a8.12,8.12,0,0,0-3.21,4.19Z" style="fill: #fff;stroke: #3f4563;stroke-miterlimit: 10"/>
                <path d="M513.52,39.58c10.86,6.65,25.42,20.14,33.87,46.76a8.64,8.64,0,0,0-3,3.92L517,92a6.89,6.89,0,0,0-5.81-4.7A67.54,67.54,0,0,0,504,70.47a90.71,90.71,0,0,0-30-30.89h39.52m.27-1H470.56c33.91,20,39.84,49.66,39.84,49.66a6,6,0,0,1,5.87,4.79l28.86-1.87a7.67,7.67,0,0,1,3.41-4.44C540,59.16,524.88,45.34,513.79,38.61Z" style="fill: none"/>
              </g>
              <path d="M523.07,79.64c.28,2.31,2.91,3.9,5.86,3.56s5.12-2.49,4.84-4.8-2.91-3.9-5.86-3.56S522.79,77.33,523.07,79.64Z" style="fill: #fff;stroke: #3f4563;stroke-miterlimit: 10"/>
              <path d="M496.22,38.61c-.71.94-2.8,1.54-5.24,1.41a8.32,8.32,0,0,1-4.55-1.41Z" style="fill: #fff;stroke: #3f4563;stroke-miterlimit: 10"/>
              <ellipse cx="512.97" cy="54.23" rx="7.36" ry="11.8" transform="translate(389.7 555.11) rotate(-82.21)" style="fill: #3f4563"/>
            </g>
            <g>
              <path d="M354,47s25.08,41,72.22,38.54l-15.15,42.25s-46.56,2.21-80.25-43Z" style="fill: #edf0f3;stroke: #3f4563;stroke-miterlimit: 10"/>
              <g>
                <path d="M339.09,80.42l13.34-22.28s3.4,1.56,5.58-1.05c0,0,20.43,28.5,59.06,31.38,0,0-1.69,4.63,3,6.5L411,119.78s-5.84-1.71-7.76,4.36c0,0-39.59-2.55-63.85-34.68C339.38,89.46,343.19,83.93,339.09,80.42Z" style="fill: #fff;stroke: #3f4563;stroke-miterlimit: 10"/>
                <path d="M339.09,80.42l13.34-22.28s3.4,1.56,5.58-1.05c0,0,20.43,28.5,59.06,31.38,0,0-1.69,4.63,3,6.5L411,119.78s-5.84-1.71-7.76,4.36c0,0-39.59-2.55-63.85-34.68C339.38,89.46,343.19,83.93,339.09,80.42Z" style="fill: #fff;stroke: #3f4563;stroke-miterlimit: 10"/>
              </g>
              <g>
                <path d="M386.48,99.29c-2.45,5.41-8,8.24-12.34,6.31s-5.92-7.87-3.47-13.28,8-8.24,12.34-6.31S388.93,93.88,386.48,99.29Z" style="fill: #edf0f3;stroke: #3f4563;stroke-miterlimit: 10"/>
                <path d="M386.48,99.29c-2.45,5.41-8,8.24-12.34,6.31s-5.92-7.87-3.47-13.28,8-8.24,12.34-6.31S388.93,93.88,386.48,99.29Z" style="fill: #3f4563"/>
              </g>
              <path d="M361.29,83.2c-1,2.32-3.07,3.68-4.52,3s-1.77-3-.72-5.35,3.07-3.68,4.52-3S362.34,80.88,361.29,83.2Z" style="fill: #fff;stroke: #3f4563;stroke-miterlimit: 10"/>
              <path d="M404.91,103.09c-1,2.32-3.07,3.68-4.52,3s-1.77-3-.72-5.35,3.07-3.68,4.52-3S406,100.77,404.91,103.09Z" style="fill: #fff;stroke: #3f4563;stroke-miterlimit: 10"/>
            </g>
            <g>
              <path d="M243.33,152.09s42.82,0,62.64-36.33l25.19,30.59s-19.78,35.77-69.75,40.29Z" style="fill: #edf0f3;stroke: #3f4563;stroke-miterlimit: 10"/>
              <g>
                <path d="M261.94,178.49l-10.82-20.13s2.76-1.83,1.77-4.64c0,0,31.12-2.25,51.12-29.78a4.53,4.53,0,0,0,6.34.72l14.7,18.11a5.36,5.36,0,0,0-.25,7.78s-20.19,28.4-55.84,31.85C269,182.39,266.5,177,261.94,178.49Z" style="fill: #8fb867"/>
                <path d="M261.94,178.49l-10.82-20.13s2.76-1.83,1.77-4.64c0,0,31.12-2.25,51.12-29.78a4.53,4.53,0,0,0,6.34.72l14.7,18.11a5.36,5.36,0,0,0-.25,7.78s-20.19,28.4-55.84,31.85C269,182.39,266.5,177,261.94,178.49Z" style="fill: #fff;stroke: #3f4563;stroke-miterlimit: 10"/>
              </g>
              <g>
                <path d="M298.15,151.72c3,4.3,2.6,9.71-.88,12.09s-8.72.83-11.71-3.47-2.6-9.71.88-12.09S295.16,147.42,298.15,151.72Z" style="fill: #edf0f3;stroke: #3f4563;stroke-miterlimit: 10"/>
                <path d="M298.15,151.72c3,4.3,2.6,9.71-.88,12.09s-8.72.83-11.71-3.47-2.6-9.71.88-12.09S295.16,147.42,298.15,151.72Z" style="fill: #3f4563"/>
              </g>
              <path d="M274.29,163.18c1.28,1.84,1.39,4,.23,4.76s-3.13-.06-4.41-1.9-1.39-4-.23-4.76S273,161.34,274.29,163.18Z" style="fill: #fff;stroke: #3f4563;stroke-miterlimit: 10"/>
              <path d="M309.54,139.69c1.28,1.84,1.39,4,.23,4.76s-3.13-.06-4.41-1.9-1.39-4-.23-4.76S308.26,137.85,309.54,139.69Z" style="fill: #fff;stroke: #3f4563;stroke-miterlimit: 10"/>
            </g>
            <g>
              <path d="M32.09,410.71S49,450.06,90.18,454L72,489.16s-40.67-4.07-64.53-48.22Z" style="fill: #edf0f3;stroke: #3f4563;stroke-miterlimit: 10"/>
              <path d="M15.17,438.21,29.4,420.34s2.77,1.81,5-.2c0,0,14.34,27.72,47.52,35.24a4.53,4.53,0,0,0,1.84,6.11L72.88,482.14A5.36,5.36,0,0,0,65.63,485s-34.06-7.36-51.29-38.76C14.34,446.21,18.3,441.83,15.17,438.21Z" style="fill: #fff;stroke: #3f4563;stroke-miterlimit: 10"/>
              <g>
                <path d="M54,460.94c-2.77,4.44-7.9,6.21-11.46,4s-4.2-7.69-1.43-12.13,7.9-6.21,11.46-4S56.81,456.5,54,460.94Z" style="fill: #3f4563"/>
                <path d="M54,460.94c-2.77,4.44-7.9,6.21-11.46,4s-4.2-7.69-1.43-12.13,7.9-6.21,11.46-4S56.81,456.5,54,460.94Z" style="fill: none;stroke: #5f8447;stroke-miterlimit: 10;stroke-width: 1.58254px"/>
              </g>
              <path d="M34.1,443.53c-1.19,1.9-3.11,2.84-4.29,2.09s-1.17-2.9,0-4.8,3.11-2.84,4.29-2.09S35.28,441.63,34.1,443.53Z" style="fill: #fff;stroke: #3f4563;stroke-miterlimit: 10"/>
              <path d="M69.59,466.67c-1.19,1.9-3.11,2.84-4.29,2.09s-1.17-2.9,0-4.8,3.11-2.84,4.29-2.09S70.77,464.76,69.59,466.67Z" style="fill: #fff;stroke: #3f4563;stroke-miterlimit: 10"/>
            </g>
            <g>
              <path d="M70.14,49.17s14,42.95,56.91,51l-22.44,35.25s-42.34-8.15-63.2-56.79Z" style="fill: #edf0f3;stroke: #3f4563;stroke-miterlimit: 10"/>
              <g>
                <path d="M49.75,76.46,66.4,59s2.74,2.17,5.23.26c0,0,12.43,30.48,46.57,41.54a4.78,4.78,0,0,0,1.35,6.59L106.2,128.09s-4.89-2.84-7.89,2.29c0,0-35.07-11-50.19-45.6C48.13,84.78,52.71,80.56,49.75,76.46Z" style="fill: #8fb867"/>
                <path d="M49.75,76.46,66.4,59s2.74,2.17,5.23.26c0,0,12.43,30.48,46.57,41.54a4.78,4.78,0,0,0,1.35,6.59L106.2,128.09s-4.89-2.84-7.89,2.29c0,0-35.07-11-50.19-45.6C48.13,84.78,52.71,80.56,49.75,76.46Z" style="fill: #fff;stroke: #3f4563;stroke-miterlimit: 10"/>
              </g>
              <g>
                <path d="M88.43,104c-3.33,4.4-8.89,5.78-12.41,3.07s-3.68-8.47-.35-12.88,8.89-5.78,12.41-3.07S91.76,99.63,88.43,104Z" style="fill: #edf0f3;stroke: #3f4563;stroke-miterlimit: 10"/>
                <path d="M88.43,104c-3.33,4.4-8.89,5.78-12.41,3.07s-3.68-8.47-.35-12.88,8.89-5.78,12.41-3.07S91.76,99.63,88.43,104Z" style="fill: #3f4563"/>
              </g>
              <path d="M69.13,83.85c-1.43,1.89-3.53,2.69-4.7,1.79s-1-3.16.47-5,3.53-2.69,4.7-1.79S70.56,82,69.13,83.85Z" style="fill: #fff;stroke: #3f4563;stroke-miterlimit: 10"/>
              <path d="M104.21,111.53c-1.43,1.89-3.53,2.69-4.7,1.79s-1-3.16.47-5,3.53-2.69,4.7-1.79S105.64,109.64,104.21,111.53Z" style="fill: #fff;stroke: #3f4563;stroke-miterlimit: 10"/>
            </g>
            <g>
              <path d="M.62,169.68s37.62,13.1,66.14-12.75L79.53,191.5s-28.32,25.37-73.6,14.05Z" style="fill: #edf0f3;stroke: #3f4563;stroke-miterlimit: 10"/>
              <g>
                <path d="M8.89,198.56l-3.35-21s3-.76,3-3.54c0,0,28,7.55,54-10.52a4.22,4.22,0,0,0,5.35,2.57l7.38,20.41a5,5,0,0,0-2.6,6.76S46.23,212,13.86,204.14C13.86,204.14,13.34,198.67,8.89,198.56Z" style="fill: #8fb867"/>
                <path d="M8.89,198.56l-3.35-21s3-.76,3-3.54c0,0,28,7.55,54-10.52a4.22,4.22,0,0,0,5.35,2.57l7.38,20.41a5,5,0,0,0-2.6,6.76S46.23,212,13.86,204.14C13.86,204.14,13.34,198.67,8.89,198.56Z" style="fill: #fff;stroke: #3f4563;stroke-miterlimit: 10"/>
              </g>
              <g>
                <path d="M48.89,186.13c1.31,4.69-.69,9.32-4.47,10.35s-7.91-1.94-9.22-6.63.69-9.32,4.47-10.35S47.58,181.44,48.89,186.13Z" style="fill: #edf0f3;stroke: #3f4563;stroke-miterlimit: 10"/>
                <path d="M48.89,186.13c1.31,4.69-.69,9.32-4.47,10.35s-7.91-1.94-9.22-6.63.69-9.32,4.47-10.35S47.58,181.44,48.89,186.13Z" style="fill: #3f4563"/>
              </g>
              <path d="M24.42,188.89c.56,2,0,3.92-1.25,4.26s-2.73-1-3.29-3,0-3.92,1.25-4.26S23.85,186.88,24.42,188.89Z" style="fill: #fff;stroke: #3f4563;stroke-miterlimit: 10"/>
              <path d="M62.57,179c.56,2,0,3.92-1.25,4.26s-2.73-1-3.29-3,0-3.92,1.25-4.26S62,177,62.57,179Z" style="fill: #fff;stroke: #3f4563;stroke-miterlimit: 10"/>
            </g>
            <g>
              <path d="M153.69,149.82S156.8,106.56,193,91.29l40.4-3.74s-37.55,19.77-42.26,60.17Z" style="fill: #edf0f3;stroke: #3f4563;stroke-miterlimit: 10"/>
              <path d="M219.76,91.48l1.65,1.1C206,103.13,198,115.59,194,124.26a58.87,58.87,0,0,0-5.12,16.31,5.9,5.9,0,0,0-4.52,4.53l-23.49,1a7.38,7.38,0,0,0-2.91-3.06c4.23-20.86,13.64-33.13,20.82-39.75,7.4-6.83,14-9.24,14.8-9.51l26.22-2.28" style="fill: #fff;stroke: #3f4563;stroke-linecap: round;stroke-linejoin: round"/>
              <path d="M178,135.09c0,2-2.12,3.59-4.67,3.57s-4.59-1.65-4.56-3.64,2.12-3.59,4.67-3.57S178,133.1,178,135.09Z" style="fill: #fff;stroke: #3f4563;stroke-miterlimit: 10"/>
              <path d="M205.95,95.68c.18,1.11-1.72,2.34-4.23,2.75s-4.7-.15-4.88-1.26,1.72-2.34,4.23-2.75S205.77,94.57,205.95,95.68Z" style="fill: #fff;stroke: #3f4563;stroke-miterlimit: 10"/>
              <ellipse cx="184.29" cy="112.54" rx="10.1" ry="6.3" transform="translate(-21.67 47.66) rotate(-13.92)" style="fill: #3f4563"/>
            </g>
            <g>
              <path d="M134.22,273.55,88.47,247.19l7.35-21.76,44,28S146.68,257.48,134.22,273.55Z" style="fill: #edf0f3;stroke: #3f4563;stroke-miterlimit: 10"/>
              <path d="M118.11,259.86,130,267.42s3.3-2.42,6-.42c0,0,7.87-11.17-1.14-14.74l-10.6-.16Z" style="fill: #edf0f3;stroke: #3f4563;stroke-miterlimit: 10"/>
              <path d="M95.82,225.43l44,28c-5.64-3.59-21.52-1.94-35.71,42.36L63.3,268.75S74.62,228.35,95.82,225.43Z" style="fill: #edf0f3;stroke: #3f4563;stroke-miterlimit: 10"/>
              <path d="M130.62,247.59c-14.24,5.52-24.66,30.13-27,36.71a7.33,7.33,0,0,0-5.35,1.18l-26.5-17.32a9,9,0,0,0-1.1-6.46c9-27,23.75-32.81,29-33.84Z" style="fill: #fff;stroke: #3f4563;stroke-miterlimit: 10"/>
              <path d="M105.21,249.58c-7-3.84-10.57-10.83-8-15.59a8.12,8.12,0,0,1,5.93-3.9c.13,0,20.07,12.78,20.07,12.78a7.49,7.49,0,0,1-.67,5C120,252.68,112.2,253.43,105.21,249.58Z" style="fill: #3f4563"/>
              <path d="M87.9,268.14c2.94,1.82,6.19,1.88,7.25.13s-.46-4.64-3.41-6.46-6.19-1.88-7.25-.13S85,266.32,87.9,268.14Z" style="fill: #fff;stroke: #3f4563;stroke-miterlimit: 10"/>
            </g>
            <g>
              <path d="M175.35,434.64s-17.78-41.89-58.91-44.77l-41.38,10s44,6.88,62.39,45.39Z" style="fill: #edf0f3;stroke: #3f4563;stroke-miterlimit: 10"/>
              <path d="M143.12,440.87a5.8,5.8,0,0,0-5-3.09,6.48,6.48,0,0,0-1,.09c-1.51-3.05-14.5-27.42-49.12-36.81l1.76-2.29,27-6.69h.07c1.27,0,31.17.43,52.62,37.31a7.27,7.27,0,0,0-2,4.3Z" style="fill: #fff;stroke: #3f4563;stroke-miterlimit: 10"/>
              <path d="M116.76,392.52c.86,0,8.74.14,19,4.9,13.15,6.12,24.29,16.86,33.1,31.92a7.74,7.74,0,0,0-1.85,4l-23.67,7a6.17,6.17,0,0,0-5.23-3h0a6.75,6.75,0,0,0-.78,0,61.75,61.75,0,0,0-10.62-14.45c-7-7.24-19.16-16.88-38-22.13l1.27-1.66,26.8-6.64h0" style="fill: none"/>
              <path d="M146.2,428.28c.71,2,3.32,2.84,5.84,2s4-3.2,3.29-5.16-3.32-2.84-5.84-2S145.49,426.31,146.2,428.28Z" style="fill: #fff;stroke: #3f4563;stroke-miterlimit: 10"/>
              <path d="M105.08,398.63c.2,1.16,2.5,1.74,5.14,1.29s4.62-1.74,4.42-2.9-2.5-1.74-5.14-1.29S104.88,397.47,105.08,398.63Z" style="fill: #fff"/>
              <ellipse cx="132.31" cy="408.02" rx="10.6" ry="6.61" transform="matrix(1, -0.09, 0.09, 1, -34.73, 12.95)" style="fill: #3f4563"/>
              <path d="M130.11,358.06s-45.6,5.64-71.63-31.32L35.79,363.37s25.9,36.35,79.73,34.69Z" style="fill: #edf0f3;stroke: #3f4563;stroke-miterlimit: 10"/>
              <path d="M113.86,389.26l8.8-23.35s-3.19-1.63-2.51-4.82c0,0-33.45,1.65-58.47-25.69,0,0-2.47,4-6.65,1.61L41.81,358.67a6,6,0,0,1,1.32,8.44s25.34,28.26,63.78,27.33C106.92,394.44,108.81,388.27,113.86,389.26Z" style="fill: #fff;stroke: #3f4563;stroke-miterlimit: 10"/>
              <path d="M71.67,364.88c-2.6,5.07-1.45,10.92,2.57,13.05s9.4-.25,12-5.32,1.45-10.92-2.57-13.05S74.28,359.8,71.67,364.88Z" style="fill: #3f4563"/>
              <path d="M98.64,374.22c-1.12,2.17-.94,4.51.4,5.22s3.32-.48,4.44-2.65.94-4.51-.4-5.22S99.76,372,98.64,374.22Z" style="fill: #fff;stroke: #3f4563;stroke-miterlimit: 10"/>
              <path d="M57.92,353.28c-1.12,2.17-.94,4.51.4,5.22s3.32-.48,4.44-2.65.94-4.51-.4-5.22S59,351.11,57.92,353.28Z" style="fill: #fff;stroke: #3f4563;stroke-miterlimit: 10"/>
            </g>
            <g>
              <path d="M156,348.5l43.21,27-7.83,20.73L149.9,367.67S143.44,363.57,156,348.5Z" style="fill: #edf0f3;stroke: #3f4563;stroke-miterlimit: 10"/>
              <path d="M171.07,362.25l-11.24-7.7s-3.27,2.22-5.82.2c0,0-8,10.5.59,14.25l10.22.51Z" style="fill: #edf0f3;stroke: #3f4563;stroke-miterlimit: 10"/>
              <path d="M191.39,396.21,149.9,367.67c5.31,3.65,20.68,2.6,35.87-39.62l38.45,27.5S211.93,394.12,191.39,396.21Z" style="fill: #edf0f3;stroke: #3f4563;stroke-miterlimit: 10"/>
              <path d="M158.59,373.65c13.91-4.84,24.8-28.21,27.31-34.47a7.07,7.07,0,0,0,5.2-1l25,17.6a8.67,8.67,0,0,0,.84,6.27c-9.56,25.76-24,30.82-29.11,31.64Z" style="fill: #fff;stroke: #3f4563;stroke-miterlimit: 10"/>
              <path d="M183.16,372.6c6.61,3.95,9.82,10.8,7.17,15.31a7.83,7.83,0,0,1-5.85,3.56c-.13,0-18.91-13-18.91-13a7.23,7.23,0,0,1,.82-4.84C169,369.11,176.54,368.66,183.16,372.6Z" style="fill: #3f4563"/>
              <path d="M200.47,355.3c-2.78-1.85-5.91-2-7-.37s.29,4.49,3.07,6.34,5.91,2,7,.37S203.25,357.15,200.47,355.3Z" style="fill: #fff;stroke: #3f4563;stroke-miterlimit: 10"/>
            </g>
            <g>
              <path d="M186.43,192.4s18,38.84,59.32,41.54L228.6,269.66s-40.77-2.89-65.9-46.32Z" style="fill: #edf0f3;stroke: #3f4563;stroke-miterlimit: 10"/>
              <g>
                <path d="M170.32,220.39,184,202.11s2.82,1.73,5-.35c0,0,15.14,27.29,48.52,33.85a4.53,4.53,0,0,0,2,6.05l-10.24,21a5.36,5.36,0,0,0-7.17,3s-34.25-6.37-52.39-37.26C169.73,228.4,173.56,223.92,170.32,220.39Z" style="fill: #8fb867"/>
                <path d="M170.32,220.39,184,202.11s2.82,1.73,5-.35c0,0,15.14,27.29,48.52,33.85a4.53,4.53,0,0,0,2,6.05l-10.24,21a5.36,5.36,0,0,0-7.17,3s-34.25-6.37-52.39-37.26C169.73,228.4,173.56,223.92,170.32,220.39Z" style="fill: #fff;stroke: #3f4563;stroke-miterlimit: 10"/>
              </g>
              <g>
                <path d="M209.84,242c-2.64,4.52-7.72,6.44-11.34,4.29s-4.42-7.56-1.78-12.08,7.72-6.44,11.34-4.29S212.48,237.46,209.84,242Z" style="fill: #edf0f3;stroke: #3f4563;stroke-miterlimit: 10"/>
                <path d="M209.84,242c-2.64,4.52-7.72,6.44-11.34,4.29s-4.42-7.56-1.78-12.08,7.72-6.44,11.34-4.29S212.48,237.46,209.84,242Z" style="fill: #3f4563"/>
              </g>
              <path d="M189.39,225.15c-1.13,1.94-3,2.93-4.22,2.22s-1.26-2.86-.13-4.8,3-2.93,4.22-2.22S190.53,223.22,189.39,225.15Z" style="fill: #fff;stroke: #3f4563;stroke-miterlimit: 10"/>
              <path d="M225.54,247.25c-1.13,1.94-3,2.93-4.22,2.22s-1.26-2.86-.13-4.8,3-2.93,4.22-2.22S226.67,245.31,225.54,247.25Z" style="fill: #fff;stroke: #3f4563;stroke-miterlimit: 10"/>
            </g>
            <g>
              <path d="M285.62,267.68s37.62,13.1,66.14-12.75l12.77,34.57s-28.32,25.37-73.6,14.05Z" style="fill: #edf0f3;stroke: #3f4563;stroke-miterlimit: 10"/>
              <g>
                <path d="M293.89,296.56l-3.35-21s3-.76,3-3.54c0,0,28,7.55,54-10.52a4.22,4.22,0,0,0,5.35,2.57l7.38,20.41a5,5,0,0,0-2.6,6.76s-26.42,18.77-58.8,10.89C298.86,302.14,298.34,296.67,293.89,296.56Z" style="fill: #8fb867"/>
                <path d="M293.89,296.56l-3.35-21s3-.76,3-3.54c0,0,28,7.55,54-10.52a4.22,4.22,0,0,0,5.35,2.57l7.38,20.41a5,5,0,0,0-2.6,6.76s-26.42,18.77-58.8,10.89C298.86,302.14,298.34,296.67,293.89,296.56Z" style="fill: #fff;stroke: #3f4563;stroke-miterlimit: 10"/>
              </g>
              <g>
                <path d="M333.89,284.13c1.31,4.69-.69,9.32-4.47,10.35s-7.91-1.94-9.22-6.63.69-9.32,4.47-10.35S332.58,279.44,333.89,284.13Z" style="fill: #edf0f3;stroke: #3f4563;stroke-miterlimit: 10"/>
                <path d="M333.89,284.13c1.31,4.69-.69,9.32-4.47,10.35s-7.91-1.94-9.22-6.63.69-9.32,4.47-10.35S332.58,279.44,333.89,284.13Z" style="fill: #3f4563"/>
              </g>
              <path d="M309.42,286.89c.56,2,0,3.92-1.25,4.26s-2.73-1-3.29-3,0-3.92,1.25-4.26S308.85,284.88,309.42,286.89Z" style="fill: #fff;stroke: #3f4563;stroke-miterlimit: 10"/>
              <path d="M347.57,277c.56,2,0,3.92-1.25,4.26s-2.73-1-3.29-3,0-3.92,1.25-4.26S347,275,347.57,277Z" style="fill: #fff;stroke: #3f4563;stroke-miterlimit: 10"/>
            </g>
            <g style="isolation: isolate">
              <g style="clip-path: url(#clip-path)">
                <g>
                  <path d="M337.23,468.3a1.8,1.8,0,0,0-.85-2.21l-.4-.27.59-.23c.37-.15,37.39-14.69,49.69-42.56l.19-.41.56.15a8.49,8.49,0,0,0,1.91.24,7.3,7.3,0,0,0,5.56-2.16l.27-.28,27,7.43-.21.28a4.39,4.39,0,0,0-.66,1.26c-.42,1.29-.28,3.22,3.59,4.14l.34.08-.11.25c-.13.29-12.93,29.41-55.15,46.47l-.32.13-.25-.13a11.86,11.86,0,0,0-5-1.24,8.93,8.93,0,0,0-4.74,1.22l-.34.2L336,470.09l.26-.26a4.16,4.16,0,0,0,1-1.53m-12.08.3L362,486.05c54.21-21.73,66-52.45,67.56-57.14l.13-.4-43.73-11.78q-.33,1.28-.73,2.53c-9.86,30.36-53.74,47.09-60,49.34" style="fill: #edf0f3"/>
                  <path d="M429.51,428.91C428,433.6,416.16,464.32,362,486.05l-36.8-17.45c6.28-2.25,50.16-19,60-49.34q.41-1.25.73-2.53l43.73,11.78-.13.4m-106.2,39.66,38.45,18.23.3-.12c54.84-21.89,66.85-53,68.41-57.77.13-.39.19-.61.2-.63l.05-.21-45.56-12.27-.12.47c-.24,1-.52,2-.84,2.95-10.47,32.22-59.63,48.93-60.14,49.1l-.76.25" style="fill: #3f4563"/>
                  <path d="M403.78,435.15a1.73,1.73,0,0,1-.44.69,4.06,4.06,0,0,1-2,.94,9.86,9.86,0,0,1-5-.37c-2.19-.75-3.32-2-3-3.12a1.72,1.72,0,0,1,.45-.69,4.09,4.09,0,0,1,2-.94,9.79,9.79,0,0,1,5,.38c2.19.75,3.31,2,3,3.11m-5.86,17.75a5.62,5.62,0,0,1-1.46,2.24,12.73,12.73,0,0,1-6.23,3,20.28,20.28,0,0,1-10.47-.57c-4.56-1.56-6.75-4.56-5.84-7.38a5.57,5.57,0,0,1,1.46-2.24,12.7,12.7,0,0,1,6.22-3,20.31,20.31,0,0,1,10.48.57c4.56,1.56,6.75,4.56,5.83,7.38m-27.28,13.92a1.68,1.68,0,0,1-.45.69,4,4,0,0,1-2,.94,9.83,9.83,0,0,1-5-.38c-2.18-.74-3.31-2-3-3.11a1.72,1.72,0,0,1,.45-.69,4,4,0,0,1,2-.94,9.83,9.83,0,0,1,5,.38c2.18.75,3.31,2,3,3.11m-33.12-.92a2.12,2.12,0,0,1,.67,2.42,4.71,4.71,0,0,1-.91,1.54l21.67,10c4.54-2.45,9.31-.54,10.46,0,39.54-16.09,52.89-42.85,54.2-45.66-4.07-1.08-4.17-3.26-3.7-4.7a5.19,5.19,0,0,1,.52-1.12l-25.4-7c-2.79,2.65-6.56,2.33-8,2.09-11.77,26.07-44.87,40.5-49.53,42.42" style="fill: #fff"/>
                  <path d="M338.18,468.31a2.12,2.12,0,0,0-.67-2.42c4.66-1.93,37.76-16.36,49.53-42.42,1.41.24,5.19.56,8-2.09l25.4,7a5.19,5.19,0,0,0-.52,1.12c-.47,1.44-.37,3.62,3.7,4.7-1.31,2.81-14.65,29.57-54.2,45.66-1.15-.53-5.92-2.45-10.46,0l-21.67-10a4.71,4.71,0,0,0,.91-1.54M336,465.82l.4.27a1.8,1.8,0,0,1,.85,2.21,4.16,4.16,0,0,1-1,1.53l-.26.26,22.9,10.57.34-.2a8.93,8.93,0,0,1,4.74-1.22,11.86,11.86,0,0,1,5,1.24l.25.13.32-.13c42.23-17.06,55-46.18,55.15-46.47l.11-.25-.34-.08c-3.88-.92-4-2.85-3.59-4.14a4.39,4.39,0,0,1,.66-1.26l.21-.28-27-7.43-.27.28A7.3,7.3,0,0,1,388.9,423a8.49,8.49,0,0,1-1.91-.24l-.56-.15-.19.41c-12.3,27.87-49.32,42.42-49.69,42.56l-.59.23" style="fill: #3f4563"/>
                  <path d="M397.44,452.88a5.29,5.29,0,0,1-1.38,2.12c-3.24,3.17-10.41,4.19-16,2.27-4.41-1.51-6.53-4.38-5.65-7.09a5.29,5.29,0,0,1,1.38-2.12c3.24-3.17,10.4-4.18,16-2.27,4.4,1.51,6.52,4.39,5.65,7.09m-23.51-2.71c-.92,2.82,1.27,5.82,5.84,7.38a20.28,20.28,0,0,0,10.47.57,12.73,12.73,0,0,0,6.23-3,5.62,5.62,0,0,0,1.46-2.24c.92-2.82-1.27-5.82-5.83-7.38a20.31,20.31,0,0,0-10.48-.57,12.7,12.7,0,0,0-6.22,3,5.57,5.57,0,0,0-1.46,2.24" style="fill: #3f4563"/>
                  <path d="M374.41,450.19c-.88,2.7,1.24,5.58,5.65,7.09,5.59,1.91,12.76.89,16-2.27a5.29,5.29,0,0,0,1.38-2.12c.88-2.7-1.24-5.58-5.65-7.09-5.6-1.91-12.76-.89-16,2.27a5.29,5.29,0,0,0-1.38,2.12" style="fill: #3f4563"/>
                  <path d="M361.22,465c-.28.85.75,1.92,2.56,2.54a8.48,8.48,0,0,0,4.24.35,2.79,2.79,0,0,0,1.35-.62,1.08,1.08,0,0,0,.28-.44c.28-.85-.75-1.91-2.56-2.54a8.48,8.48,0,0,0-4.24-.35,2.79,2.79,0,0,0-1.35.62,1,1,0,0,0-.28.44" style="fill: #fff"/>
                  <path d="M369.66,466.81a1.08,1.08,0,0,1-.28.44,2.79,2.79,0,0,1-1.35.62,8.48,8.48,0,0,1-4.24-.35c-1.81-.62-2.84-1.69-2.56-2.54a1,1,0,0,1,.28-.44,2.79,2.79,0,0,1,1.35-.62,8.48,8.48,0,0,1,4.24.35c1.81.62,2.84,1.69,2.56,2.54M360.24,465c-.36,1.1.78,2.36,3,3.11a9.83,9.83,0,0,0,5,.38,4,4,0,0,0,2-.94,1.68,1.68,0,0,0,.45-.69c.36-1.11-.78-2.36-3-3.11a9.83,9.83,0,0,0-5-.38,4,4,0,0,0-2,.94,1.72,1.72,0,0,0-.45.69" style="fill: #3f4563"/>
                  <path d="M394.37,433.3c-.28.85.75,1.92,2.57,2.54a8.53,8.53,0,0,0,4.24.35,2.84,2.84,0,0,0,1.35-.63,1.07,1.07,0,0,0,.28-.44c.28-.85-.76-1.92-2.57-2.54a8.54,8.54,0,0,0-4.24-.35,2.87,2.87,0,0,0-1.35.62,1.06,1.06,0,0,0-.28.44" style="fill: #fff"/>
                  <path d="M402.81,435.13a1.07,1.07,0,0,1-.28.44,2.84,2.84,0,0,1-1.35.63,8.53,8.53,0,0,1-4.24-.35c-1.82-.61-2.85-1.69-2.57-2.54a1.06,1.06,0,0,1,.28-.44,2.87,2.87,0,0,1,1.35-.62,8.54,8.54,0,0,1,4.24.35c1.81.62,2.85,1.69,2.57,2.54m-9.42-1.84c-.36,1.11.77,2.37,3,3.12a9.86,9.86,0,0,0,5,.37,4.06,4.06,0,0,0,2-.94,1.73,1.73,0,0,0,.44-.69c.36-1.1-.77-2.36-3-3.11a9.79,9.79,0,0,0-5-.38,4.09,4.09,0,0,0-2,.94,1.72,1.72,0,0,0-.45.69" style="fill: #3f4563"/>
                </g>
              </g>
            </g>
            <g>
              <path d="M361.22,383.55l-45.75-26.37,7.35-21.76,44,28S373.68,367.48,361.22,383.55Z" style="fill: #edf0f3;stroke: #3f4563;stroke-miterlimit: 10"/>
              <path d="M345.11,369.86,357,377.42s3.3-2.42,6-.42c0,0,7.87-11.17-1.14-14.74l-10.6-.16Z" style="fill: #edf0f3;stroke: #3f4563;stroke-miterlimit: 10"/>
              <path d="M322.82,335.43l44,28c-5.64-3.59-21.52-1.94-35.71,42.36L290.3,378.75S301.62,338.35,322.82,335.43Z" style="fill: #edf0f3;stroke: #3f4563;stroke-miterlimit: 10"/>
              <path d="M357.62,357.59c-14.24,5.52-24.66,30.13-27,36.71a7.33,7.33,0,0,0-5.35,1.18l-26.5-17.32a9,9,0,0,0-1.1-6.46c9-27,23.75-32.81,29-33.84Z" style="fill: #fff;stroke: #3f4563;stroke-miterlimit: 10"/>
              <path d="M332.21,359.58c-7-3.84-10.57-10.83-8-15.59a8.12,8.12,0,0,1,5.93-3.9c.13,0,20.07,12.78,20.07,12.78a7.49,7.49,0,0,1-.67,5C347,362.68,339.2,363.43,332.21,359.58Z" style="fill: #3f4563"/>
              <path d="M314.9,378.14c2.94,1.82,6.19,1.88,7.25.13s-.46-4.64-3.41-6.46-6.19-1.88-7.25-.13S312,376.32,314.9,378.14Z" style="fill: #fff;stroke: #3f4563;stroke-miterlimit: 10"/>
            </g>
            <g style="isolation: isolate">
              <g style="clip-path: url(#clip-path-2)">
                <g>
                  <path d="M237.1,412.43l2.67-.09c-10.7,7.24-24.69,21.45-32.13,48.4l-.1.35.32.2A7.66,7.66,0,0,1,211,465.1l.11.33,28.9.86.1-.38a6,6,0,0,1,5.24-4.58l.37,0,.08-.36c.61-3,6.84-30,36.54-49.67l.66-.44,3.21-.11c-12.93,9.1-33.82,28-39.64,57.7l-42.81-.7c.81-4.62,7.33-37.06,33.34-55.28" style="fill: #edf0f3"/>
                  <path d="M236.77,411.44l20.36-.71.38.47-16.93.59-.11.08-.7.47-2.67.09c-26,18.22-32.53,50.66-33.34,55.28l42.81.7c5.82-29.72,26.72-48.6,39.64-57.7l-3.21.11.81-.54-15.08.53.57-.51,20.3-.71-1.43,1C272.68,421.12,253,439.84,247.47,469l-.08.41-44.66-.72-.06-.42c0-.3,5.11-36.63,34-56.75l.12-.09" style="fill: #3f4563"/>
                  <path d="M227.82,457.38c2.86-.1,5.22-1.88,5.43-4.24a4.15,4.15,0,0,0-1-3,6.46,6.46,0,0,0-4.43-2.13,7.46,7.46,0,0,0-.83,0c-2.87.1-5.23,1.87-5.45,4.24a4.15,4.15,0,0,0,1,3,6.46,6.46,0,0,0,4.43,2.13c.28,0,.57,0,.85,0m12.86-22.5a18.75,18.75,0,0,0,2.53-.26c6.42-1.11,11.06-5.25,10.38-9.25-.6-3.47-5-5.7-10.35-5.51a18.8,18.8,0,0,0-2.53.26c-6.42,1.12-11.06,5.26-10.38,9.25.6,3.47,5,5.7,10.35,5.51m.22-22.11,17.67-.62a8.27,8.27,0,0,0,4.21.79c.23,0,.47,0,.7,0a10.46,10.46,0,0,0,3.85-1.05l13-.45c-27.89,19.2-34.51,44.66-35.46,49a6.93,6.93,0,0,0-5.63,4.89l-27.44-.82a8.67,8.67,0,0,0-3.12-3.81c7.52-26.9,21.63-40.87,32.2-47.86" style="fill: #fff"/>
                  <path d="M240.58,411.79l16.93-.59.25.31a2.8,2.8,0,0,0,.8.66l-17.67.62c-10.57,7-24.68,21-32.2,47.86a8.67,8.67,0,0,1,3.12,3.81l27.44.82a6.93,6.93,0,0,1,5.63-4.89c.95-4.32,7.57-29.78,35.46-49l-13,.45a4.9,4.9,0,0,0,.94-.64l.47-.41,15.08-.53-.81.54-.66.44c-29.7,19.69-35.93,46.66-36.54,49.67l-.08.36-.37,0a6,6,0,0,0-5.24,4.58l-.1.38-28.9-.86-.11-.33a7.66,7.66,0,0,0-3.14-3.81l-.32-.2.1-.35c7.44-26.95,21.43-41.16,32.13-48.4l.7-.47.11-.08" style="fill: #3f4563"/>
                  <path d="M227,449a7.05,7.05,0,0,1,.75,0,5.43,5.43,0,0,1,3.75,1.78,3.1,3.1,0,0,1,.79,2.3c-.16,1.85-2.08,3.24-4.44,3.32a6.39,6.39,0,0,1-.75,0,5.46,5.46,0,0,1-3.75-1.78,3.1,3.1,0,0,1-.79-2.3c.16-1.85,2.09-3.24,4.45-3.32" style="fill: #fff"/>
                  <path d="M227.81,456.38c2.35-.08,4.28-1.48,4.44-3.32a3.1,3.1,0,0,0-.79-2.3,5.43,5.43,0,0,0-3.75-1.78,7.05,7.05,0,0,0-.75,0c-2.36.08-4.29,1.47-4.45,3.32a3.1,3.1,0,0,0,.79,2.3,5.46,5.46,0,0,0,3.75,1.78,6.39,6.39,0,0,0,.75,0M227,448a7.46,7.46,0,0,1,.83,0,6.46,6.46,0,0,1,4.43,2.13,4.15,4.15,0,0,1,1,3c-.21,2.36-2.57,4.14-5.43,4.24-.28,0-.57,0-.85,0a6.46,6.46,0,0,1-4.43-2.13,4.15,4.15,0,0,1-1-3c.21-2.37,2.58-4.14,5.45-4.24" style="fill: #3f4563"/>
                  <path d="M259.88,411.63l5.93-.21a10.54,10.54,0,0,1-2.41.49l-.65,0a8.93,8.93,0,0,1-2.86-.32" style="fill: #fff"/>
                  <path d="M262.74,412l.65,0a10.54,10.54,0,0,0,2.41-.49l-5.93.21a8.93,8.93,0,0,0,2.86.32m-5.6-1.23,12.17-.42-.57.51-.47.41a4.9,4.9,0,0,1-.94.64,10.46,10.46,0,0,1-3.85,1.05c-.23,0-.47,0-.7,0a8.27,8.27,0,0,1-4.21-.79,2.8,2.8,0,0,1-.8-.66l-.25-.31-.38-.47" style="fill: #3f4563"/>
                  <path d="M243.24,419.86c5.35-.19,9.75,2,10.35,5.51.69,4-4,8.15-10.38,9.25a18.75,18.75,0,0,1-2.53.26c-5.34.19-9.75-2-10.35-5.51-.69-4,4-8.14,10.38-9.25a18.8,18.8,0,0,1,2.53-.26" style="fill: #3f4563"/>
                </g>
              </g>
            </g>
            <g>
              <path d="M596.41,398.35l-45.29,29,4.1,19.52,43.91-30.42S605.91,412.08,596.41,398.35Z" style="fill: #edf0f3;stroke: #3f4563;stroke-miterlimit: 10"/>
              <path d="M579.92,412.68l11.89-8.21a4.74,4.74,0,0,0,5.49-.2s5.87,9.62-2.84,13.83l-9.77,1.19Z" style="fill: #edf0f3;stroke: #3f4563;stroke-miterlimit: 10"/>
              <path d="M555.22,446.9l43.91-30.42c-5.62,3.89-20,3.92-27.67-35.89l-40.86,29.2S536.07,446.27,555.22,446.9Z" style="fill: #edf0f3;stroke: #3f4563;stroke-miterlimit: 10"/>
              <path d="M589.92,422.86c-12.42-3.73-19-25.6-20.38-31.49a5.85,5.85,0,0,1-4.78-.57l-26.49,18.72a9.85,9.85,0,0,1-1.8,6.12c4.94,24.27,17.84,28.19,22.54,28.63Z" style="fill: #fff;stroke: #3f4563;stroke-miterlimit: 10"/>
              <path d="M566.8,423.51c-6.9,4.26-11,11.11-9.25,15.29.79,1.84,2.61,2.85,5,3,.12,0,20-13.86,20-13.86a6.66,6.66,0,0,0,0-4.62C580.75,419.17,573.7,419.24,566.8,423.51Z" style="fill: #3f4563"/>
              <path d="M553.15,407.94c2.93-2,5.92-2.35,6.69-.83s-1,4.36-3.92,6.34-5.92,2.35-6.69.83S550.22,409.93,553.15,407.94Z" style="fill: #fff;stroke: #3f4563;stroke-miterlimit: 10"/>
            </g>
            <g>
              <path d="M503,172.13s-14.73,40.21,12.57,71.31l-37.38,13.13s-26.79-30.87-13.84-79.35Z" style="fill: #edf0f3;stroke: #3f4563;stroke-miterlimit: 10"/>
              <g>
                <path d="M471.77,180.53l22.62-3.24s.77,3.22,3.75,3.26c0,0-8.59,30,10.38,58.24a4.53,4.53,0,0,0-2.85,5.71l-22.06,7.58a5.36,5.36,0,0,0-7.22-2.91s-19.72-28.72-10.7-63.39C465.69,185.78,471.57,185.32,471.77,180.53Z" style="fill: #8fb867"/>
                <path d="M471.77,180.53l22.62-3.24s.77,3.22,3.75,3.26c0,0-8.59,30,10.38,58.24a4.53,4.53,0,0,0-2.85,5.71l-22.06,7.58a5.36,5.36,0,0,0-7.22-2.91s-19.72-28.72-10.7-63.39C465.69,185.78,471.57,185.32,471.77,180.53Z" style="fill: #fff;stroke: #3f4563;stroke-miterlimit: 10"/>
              </g>
              <g>
                <path d="M484.45,223.74c-5.06,1.33-10-.9-11.05-5s2.22-8.47,7.28-9.8,10,.9,11.05,5S489.52,222.41,484.45,223.74Z" style="fill: #edf0f3;stroke: #3f4563;stroke-miterlimit: 10"/>
                <path d="M484.45,223.74c-5.06,1.33-10-.9-11.05-5s2.22-8.47,7.28-9.8,10,.9,11.05,5S489.52,222.41,484.45,223.74Z" style="fill: #3f4563"/>
              </g>
              <path d="M481.89,197.39c-2.17.57-4.21-.07-4.55-1.42s1.13-2.91,3.3-3.48,4.21.07,4.55,1.42S484.06,196.82,481.89,197.39Z" style="fill: #fff;stroke: #3f4563;stroke-miterlimit: 10"/>
              <path d="M491.83,238.57c-2.17.57-4.21-.07-4.55-1.42s1.13-2.91,3.3-3.48,4.21.07,4.55,1.42S494,238,491.83,238.57Z" style="fill: #fff;stroke: #3f4563;stroke-miterlimit: 10"/>
            </g>
            <g>
              <path d="M461.36,144.18,506,171.57l-7.88,21.35-42.84-29S448.57,159.76,461.36,144.18Z" style="fill: #edf0f3;stroke: #3f4563;stroke-miterlimit: 10"/>
              <path d="M476.95,158.19l-11.6-7.82s-3.34,2.3-6,.25c0,0-8.1,10.85.72,14.64l10.5.45Z" style="fill: #edf0f3;stroke: #3f4563;stroke-miterlimit: 10"/>
              <path d="M498.07,192.92l-42.84-29c5.48,3.71,21.26,2.52,36.54-41l39.7,28S519.16,190.61,498.07,192.92Z" style="fill: #edf0f3;stroke: #3f4563;stroke-miterlimit: 10"/>
              <path d="M464.21,170c14.25-5.07,25.26-29.17,27.79-35.61a7.26,7.26,0,0,0,5.34-1l25.77,17.89a8.91,8.91,0,0,0,.91,6.43c-9.63,26.53-24.44,31.85-29.66,32.72Z" style="fill: #fff;stroke: #3f4563;stroke-miterlimit: 10"/>
              <path d="M489.44,168.73c6.82,4,10.17,11,7.49,15.67a8,8,0,0,1-6,3.7c-.13,0-19.53-13.22-19.53-13.22a7.42,7.42,0,0,1,.81-5C474.9,165.25,482.61,164.73,489.44,168.73Z" style="fill: #3f4563"/>
              <path d="M507.09,150.82c-2.87-1.88-6.08-2-7.18-.33s.33,4.61,3.2,6.49,6.08,2,7.18.33S510,152.71,507.09,150.82Z" style="fill: #fff;stroke: #3f4563;stroke-miterlimit: 10"/>
            </g>
            <g style="isolation: isolate">
              <g style="clip-path: url(#clip-path-3)">
                <g>
                  <path d="M441.61,552.45a4.16,4.16,0,0,0,1,1.53l.26.26L420,564.8l-.34-.2a8.93,8.93,0,0,0-4.74-1.22,11.86,11.86,0,0,0-5,1.24l-.25.13-.32-.13c-42.23-17.06-55-46.18-55.15-46.47l-.11-.25.34-.08c3.88-.92,4-2.85,3.59-4.14a4.39,4.39,0,0,0-.66-1.26l-.21-.28,27-7.43.27.28a7.3,7.3,0,0,0,5.56,2.16,8.49,8.49,0,0,0,1.91-.24l.56-.15.19.41c12.3,27.87,49.32,42.42,49.69,42.56l.59.23-.4.27a1.8,1.8,0,0,0-.85,2.21m12.08.3c-6.28-2.25-50.16-19-60-49.34q-.41-1.25-.73-2.53l-43.73,11.78.13.4c1.52,4.69,13.35,35.41,67.56,57.14l36.8-17.45" style="fill: #edf0f3"/>
                  <path d="M349.33,513.06l-.13-.4,43.73-11.78q.33,1.28.73,2.53c9.86,30.36,53.74,47.09,60,49.34l-36.8,17.45c-54.21-21.73-66-52.45-67.56-57.14m106.2,39.66-.76-.25c-.51-.17-49.67-16.88-60.14-49.1-.32-1-.59-2-.84-2.95l-.12-.47-45.56,12.27.05.21s.07.25.2.63c1.56,4.8,13.58,35.88,68.41,57.77l.3.12,38.45-18.23" style="fill: #3f4563"/>
                  <path d="M375.06,519.29c-.36-1.1.77-2.36,3-3.11a9.79,9.79,0,0,1,5-.38,4.09,4.09,0,0,1,2,.94,1.72,1.72,0,0,1,.45.69c.36,1.11-.77,2.37-3,3.12a9.86,9.86,0,0,1-5,.37,4.06,4.06,0,0,1-2-.94,1.73,1.73,0,0,1-.44-.69M380.92,537c-.92-2.82,1.27-5.82,5.83-7.38a20.31,20.31,0,0,1,10.48-.57,12.7,12.7,0,0,1,6.22,3,5.57,5.57,0,0,1,1.46,2.24c.92,2.82-1.27,5.82-5.84,7.38a20.28,20.28,0,0,1-10.47.57,12.73,12.73,0,0,1-6.23-3,5.62,5.62,0,0,1-1.46-2.24M408.21,551c-.36-1.11.78-2.36,3-3.11a9.83,9.83,0,0,1,5-.38,4,4,0,0,1,2,.94,1.72,1.72,0,0,1,.45.69c.36,1.1-.78,2.36-3,3.11a9.83,9.83,0,0,1-5,.38,4,4,0,0,1-2-.94,1.68,1.68,0,0,1-.45-.69m33.12-.92c-4.66-1.93-37.76-16.36-49.53-42.42-1.41.24-5.19.56-8-2.09l-25.4,7a5.19,5.19,0,0,1,.52,1.12c.47,1.44.37,3.62-3.7,4.7,1.31,2.81,14.65,29.57,54.2,45.66,1.15-.53,5.92-2.45,10.46,0l21.67-10a4.71,4.71,0,0,1-.91-1.54,2.12,2.12,0,0,1,.67-2.42" style="fill: #fff"/>
                  <path d="M440.66,552.46a4.71,4.71,0,0,0,.91,1.54L419.9,564c-4.54-2.45-9.31-.54-10.46,0-39.54-16.09-52.89-42.85-54.2-45.66,4.07-1.08,4.17-3.26,3.7-4.7a5.19,5.19,0,0,0-.52-1.12l25.4-7c2.79,2.65,6.56,2.33,8,2.09,11.77,26.07,44.87,40.5,49.53,42.42a2.12,2.12,0,0,0-.67,2.42m2.21-2.49-.59-.23c-.37-.15-37.39-14.69-49.69-42.56l-.19-.41-.56.15a8.49,8.49,0,0,1-1.91.24,7.3,7.3,0,0,1-5.56-2.16l-.27-.28-27,7.43.21.28a4.39,4.39,0,0,1,.66,1.26c.42,1.29.28,3.22-3.59,4.14l-.34.08.11.25c.13.29,12.93,29.41,55.15,46.47l.32.13.25-.13a11.86,11.86,0,0,1,5-1.24,8.93,8.93,0,0,1,4.74,1.22l.34.2,22.9-10.57-.26-.26a4.16,4.16,0,0,1-1-1.53,1.8,1.8,0,0,1,.85-2.21l.4-.27" style="fill: #3f4563"/>
                  <path d="M381.4,537c-.88-2.7,1.24-5.58,5.65-7.09,5.6-1.91,12.76-.89,16,2.27a5.29,5.29,0,0,1,1.38,2.12c.88,2.7-1.24,5.58-5.65,7.09-5.59,1.91-12.76.89-16-2.27A5.29,5.29,0,0,1,381.4,537m23.51-2.71a5.57,5.57,0,0,0-1.46-2.24,12.7,12.7,0,0,0-6.22-3,20.31,20.31,0,0,0-10.48.57c-4.56,1.56-6.75,4.56-5.83,7.38a5.62,5.62,0,0,0,1.46,2.24,12.73,12.73,0,0,0,6.23,3,20.28,20.28,0,0,0,10.47-.57c4.56-1.56,6.75-4.56,5.84-7.38" style="fill: #3f4563"/>
                  <path d="M404.43,534.33c.88,2.7-1.24,5.58-5.65,7.09-5.59,1.91-12.76.89-16-2.27A5.29,5.29,0,0,1,381.4,537c-.88-2.7,1.24-5.58,5.65-7.09,5.6-1.91,12.76-.89,16,2.27a5.29,5.29,0,0,1,1.38,2.12" style="fill: #3f4563"/>
                  <path d="M417.62,549.12c.28.85-.75,1.92-2.56,2.54a8.48,8.48,0,0,1-4.24.35,2.79,2.79,0,0,1-1.35-.62,1.08,1.08,0,0,1-.28-.44c-.28-.85.75-1.91,2.56-2.54a8.48,8.48,0,0,1,4.24-.35,2.79,2.79,0,0,1,1.35.62,1,1,0,0,1,.28.44" style="fill: #fff"/>
                  <path d="M409.18,551c-.28-.85.75-1.91,2.56-2.54a8.48,8.48,0,0,1,4.24-.35,2.79,2.79,0,0,1,1.35.62,1,1,0,0,1,.28.44c.28.85-.75,1.92-2.56,2.54a8.48,8.48,0,0,1-4.24.35,2.79,2.79,0,0,1-1.35-.62,1.08,1.08,0,0,1-.28-.44m9.41-1.84a1.72,1.72,0,0,0-.45-.69,4,4,0,0,0-2-.94,9.83,9.83,0,0,0-5,.38c-2.18.75-3.31,2-3,3.11a1.68,1.68,0,0,0,.45.69,4,4,0,0,0,2,.94,9.83,9.83,0,0,0,5-.38c2.18-.74,3.31-2,3-3.11" style="fill: #3f4563"/>
                  <path d="M384.47,517.45c.28.85-.75,1.92-2.57,2.54a8.53,8.53,0,0,1-4.24.35,2.84,2.84,0,0,1-1.35-.63,1.07,1.07,0,0,1-.28-.44c-.28-.85.76-1.92,2.57-2.54a8.54,8.54,0,0,1,4.24-.35,2.87,2.87,0,0,1,1.35.62,1.06,1.06,0,0,1,.28.44" style="fill: #fff"/>
                  <path d="M376,519.28c-.28-.85.76-1.92,2.57-2.54a8.54,8.54,0,0,1,4.24-.35,2.87,2.87,0,0,1,1.35.62,1.06,1.06,0,0,1,.28.44c.28.85-.75,1.92-2.57,2.54a8.53,8.53,0,0,1-4.24.35,2.84,2.84,0,0,1-1.35-.63,1.07,1.07,0,0,1-.28-.44m9.42-1.84a1.72,1.72,0,0,0-.45-.69,4.09,4.09,0,0,0-2-.94,9.79,9.79,0,0,0-5,.38c-2.19.75-3.31,2-3,3.11a1.73,1.73,0,0,0,.44.69,4.06,4.06,0,0,0,2,.94,9.86,9.86,0,0,0,5-.37c2.19-.75,3.32-2,3-3.12" style="fill: #3f4563"/>
                </g>
              </g>
            </g>
          </g>
        </g>
      </g>
    </g>
  </g>
</svg>
