<svg xmlns="http://www.w3.org/2000/svg" width="150" height="119.91" viewBox="0 0 150 119.91">
  <title>icon-blue-gears</title>
  <g id="Layer_2" data-name="Layer 2">
    <g id="_1200" data-name="1200">
      <g id="Why_" data-name="Why?">
        <g id="api-icon">
          <g>
            <g>
              <polygon points="149.5 31.25 145.36 34.42 144.99 40.2 148.68 44.06 147.85 46.57 142.7 47.08 139.84 51.52 141.28 56.75 139.38 58.49 134.61 56.3 129.64 58.79 128.38 64.01 125.88 64.49 122.78 60.1 117.24 59.62 113.62 63.41 111.21 62.49 110.63 57.09 106.34 54.02 101.36 55.45 99.67 53.42 101.68 48.48 99.21 43.23 94.2 41.82 93.7 39.19 97.84 36.03 98.2 30.24 94.52 26.39 95.35 23.88 100.5 23.37 103.36 18.93 101.91 13.7 103.82 11.96 108.58 14.15 113.55 11.66 114.82 6.44 117.32 5.96 120.42 10.35 125.95 10.83 129.58 7.04 131.99 7.95 132.57 13.35 136.86 16.42 141.83 15 143.53 17.02 141.52 21.97 143.99 27.21 149 28.63 149.5 31.25" style="fill: none;stroke: #edf0f3;stroke-linecap: round;stroke-linejoin: round"/>
              <path d="M139.22,31.86c1.95,10.22-4.37,20-14.1,21.87S105.92,48.81,104,38.59s4.37-20,14.1-21.87S137.28,21.64,139.22,31.86Z" style="fill: none;stroke: #03a9f4;stroke-linecap: round;stroke-linejoin: round;stroke-dasharray: 2.0089633464813232,3.0134451389312744"/>
              <path d="M134.76,32.71c1.45,7.63-3.26,14.94-10.53,16.33s-14.34-3.67-15.79-11.3S111.7,22.8,119,21.41,133.3,25.08,134.76,32.71Z" style="fill: none;stroke: #edf0f3;stroke-miterlimit: 10"/>
              <path d="M112.71,45.45a14.57,14.57,0,0,1-2.49-5.81c-1.45-7.63,3.26-14.94,10.53-16.33A13.14,13.14,0,0,1,132,26.55" style="fill: none;stroke: #edf0f3;stroke-miterlimit: 10"/>
            </g>
            <g>
              <polygon points="113.78 62.64 104.4 67.33 101.5 78.63 107.34 87.64 104.75 92.28 94.38 91.35 87.05 99.04 87.94 109.92 83.52 112.64 74.93 106.52 64.17 109.56 59.7 119.41 54.58 119.41 50.11 109.56 39.35 106.52 30.76 112.64 26.34 109.92 27.23 99.04 19.9 91.35 9.53 92.29 6.94 87.64 12.78 78.63 9.88 67.33 0.5 62.64 0.5 57.26 9.88 52.58 12.78 41.28 6.94 32.26 9.53 27.62 19.9 28.56 27.23 20.87 26.34 9.98 30.76 7.26 39.35 13.39 50.11 10.34 54.58 0.5 59.7 0.5 64.17 10.34 74.93 13.39 83.52 7.26 87.94 9.98 87.05 20.87 94.38 28.56 104.75 27.62 107.34 32.26 101.5 41.28 104.4 52.58 113.78 57.26 113.78 62.64" style="fill: #373e5a;stroke: #edf0f3;stroke-linecap: round;stroke-linejoin: round"/>
              <ellipse cx="57.14" cy="59.95" rx="36.1" ry="37.89" style="fill: none;stroke: #03a9f4;stroke-linecap: round;stroke-linejoin: round;stroke-dasharray: 2.021059513092041,3.0315892696380615"/>
              <ellipse cx="57.14" cy="59.95" rx="26.95" ry="28.29" style="fill: none;stroke: #fff;stroke-miterlimit: 10"/>
              <path d="M35.73,76.81A29.33,29.33,0,0,1,33,64.39C33,48.76,45.07,36.1,60,36.1A26.46,26.46,0,0,1,81,46.75" style="fill: none;stroke: #fff;stroke-miterlimit: 10"/>
            </g>
          </g>
        </g>
      </g>
    </g>
  </g>
</svg>
