<svg id="CSOC" xmlns="http://www.w3.org/2000/svg" viewBox="0 0 100 100"><g id="SVG_Icons" data-name="SVG Icons"><path class="svg-grey" d="M92.51,56.75c-3.14-1-4.93-2.15-5.87-3.73A13.22,13.22,0,0,0,88,50.91a17.33,17.33,0,0,0,1-3.64c.12-.16.27-.39.46-.7a3.89,3.89,0,0,0,.64-1.78v-.14c0-1.71,0-2.59-.38-3.06a4.52,4.52,0,0,0,0-2.86c-.14-.35-.29-.67-.44-1a.76.76,0,0,0,0-1.25,6,6,0,0,1-1-1.18,6.54,6.54,0,0,0-4.13-2.8,7.41,7.41,0,0,0-2.49,0,9.68,9.68,0,0,0-1.59-.09,3.87,3.87,0,0,0-.25-.9c-.26-.64-.53-1.23-.8-1.74a1,1,0,0,0,.53-.6.92.92,0,0,0-.36-1,9,9,0,0,1-1.62-1.93,10,10,0,0,0-6.35-4.32,8.86,8.86,0,0,0-1.78-.15A8.16,8.16,0,0,0,69,18.61a28.21,28.21,0,0,0-1.34-2.89,1.18,1.18,0,0,0,.93-.83,1.16,1.16,0,0,0-.42-1.28,28.82,28.82,0,0,1-2.58-3c-4.16-5.34-7.45-7.5-9.77-6.4a6,6,0,0,1-3.33.13,8.16,8.16,0,0,0-2.22-.13,17.36,17.36,0,0,0-5.86,0,15,15,0,0,0-9.48,6.45,14.25,14.25,0,0,1-2.49,3,1.18,1.18,0,0,0,.44,2.16,29.33,29.33,0,0,0-1.35,2.89A8.06,8.06,0,0,0,31,21.79a9.39,9.39,0,0,0-2.53.12,10,10,0,0,0-6.35,4.32,9.57,9.57,0,0,1-1.6,1.91.93.93,0,0,0-.39,1.05,1,1,0,0,0,.53.61,17.93,17.93,0,0,0-.79,1.74,4.54,4.54,0,0,0-.26.91,7.18,7.18,0,0,0-.87.08,7.47,7.47,0,0,0-2.5,0,6.54,6.54,0,0,0-4.13,2.8,6,6,0,0,1-1,1.16.77.77,0,0,0-.32.87.74.74,0,0,0,.27.4c-.15.3-.29.62-.43,1a4.56,4.56,0,0,0,0,2.86c-.38.48-.42,1.35-.37,3.06v.14a4.05,4.05,0,0,0,.65,1.78c.19.31.33.54.45.7A17.86,17.86,0,0,0,12.4,51a11.24,11.24,0,0,0,1.14,1.77c-.9,1.73-2.73,2.94-6,4-5.25,1.72-5.74,4.75-5.78,7.71a.43.43,0,0,0,.13.34,23.2,23.2,0,0,0,4.3,3.47,19.59,19.59,0,0,0-.38,3.83.49.49,0,0,0,.14.34,36.6,36.6,0,0,0,4.48,3.9c-.14,1.23-.19,2.48-.21,3.75a.46.46,0,0,0,.14.35A53.91,53.91,0,0,0,49.24,96.87a54.54,54.54,0,0,0,39.95-17.5.54.54,0,0,0,.13-.35,29.39,29.39,0,0,0-.3-3.46,35.56,35.56,0,0,0,4.14-3.82.56.56,0,0,0,.13-.35,18.89,18.89,0,0,0-.3-2.87,22.88,22.88,0,0,0,5.16-4.16.51.51,0,0,0,.13-.35C98.19,61.39,97.66,58.44,92.51,56.75ZM2.7,64.28c.06-2.73.57-5.11,5.11-6.6,3.75-1.23,5.76-2.67,6.74-4.8a.52.52,0,0,0-.06-.51,12,12,0,0,1-1.22-1.83,16.36,16.36,0,0,1-1-3.53.44.44,0,0,0-.11-.24q-.13-.18-.45-.69a3.05,3.05,0,0,1-.51-1.32v-.14a7.36,7.36,0,0,1,.15-2.41.49.49,0,0,0,.27-.62,3.87,3.87,0,0,1-.1-2.5,11,11,0,0,1,.68-1.41.48.48,0,0,0,0-.48A.45.45,0,0,0,12,37a9.65,9.65,0,0,0,.89-1.11,5.53,5.53,0,0,1,3.52-2.41,6.63,6.63,0,0,1,2.23,0h.15l.7-.08A8.62,8.62,0,0,0,19.84,36l0,0c-.62.64-.69,2-.6,4.73V41a6.05,6.05,0,0,0,1,2.67A10.46,10.46,0,0,0,21,44.82a27.52,27.52,0,0,0,1.67,5.82s.25.49.69,1.2c-.18.25-.39.53-.63.81a.48.48,0,0,0-.06.54,6.77,6.77,0,0,0,1.15,1.55c-1.62,2.25-4.43,3.93-9,5.44-5.24,1.72-7.4,4.28-8.3,7.11A22.26,22.26,0,0,1,2.7,64.28ZM23.64,53l.25-.33c.18.27.38.55.61.84-.06.12-.13.24-.2.36A5.87,5.87,0,0,1,23.64,53ZM6.76,71.92A18.7,18.7,0,0,1,7,68.79c0-.17.07-.33.1-.5s.08-.34.13-.5C8,65.07,10,62.75,15,61.1c4.77-1.56,7.73-3.33,9.47-5.72.1-.13.19-.26.28-.4l.25-.41q.25-.43.48-.9a.5.5,0,0,0-.07-.51c-.37-.46-.69-.91-1-1.31-.11-.16-.21-.31-.29-.45s-.21-.32-.29-.46c-.27-.44-.41-.73-.42-.74a27.08,27.08,0,0,1-1.59-5.64.47.47,0,0,0-.11-.25A8.75,8.75,0,0,1,21,43.18a5,5,0,0,1-.85-2.2v-.23c0-1.24-.11-3.57.33-4l.09-.06a.49.49,0,0,0,.26-.61,7.37,7.37,0,0,1-.44-2.65c0-.16,0-.32,0-.48s.05-.32.08-.48a5.6,5.6,0,0,1,.17-.54,20.06,20.06,0,0,1,1.09-2.26.48.48,0,0,0,0-.48.48.48,0,0,0-.42-.25l-.38,0a8.89,8.89,0,0,0,1.85-2.16,9.12,9.12,0,0,1,5.75-3.92,8.73,8.73,0,0,1,2.39-.1,12.92,12.92,0,0,0,.56,2.65.86.86,0,0,0-.14.13c-.87.9-1,3.07-.85,7v.34a8.83,8.83,0,0,0,1.46,3.93,16.29,16.29,0,0,0,1.15,1.77,40.71,40.71,0,0,0,2.52,8.82,29.84,29.84,0,0,0,2.15,3.44,1.15,1.15,0,0,0-.91-.33c-1,.12-1.62,1.61-2.34,3.71a9.27,9.27,0,0,1-.6,1.51,6.51,6.51,0,0,1-1.36,1.42l-.26.21a1.93,1.93,0,0,0-.48.46.8.8,0,0,0-.13.49,1.59,1.59,0,0,0,.09.38l-.19.12a44.66,44.66,0,0,1-8.09,3.43c-6.07,2-9.39,4.66-11.21,7.72l-.25.44c-.08.15-.16.3-.23.45a15.56,15.56,0,0,0-1.36,4.41A36.23,36.23,0,0,1,6.76,71.92ZM39,54.75c.11.12.24.23.36.34a19,19,0,0,0,2.21,1.74l.07.05.45.31a17.25,17.25,0,0,0,1.65,1c.44.26.89.52,1.31.8a8.21,8.21,0,0,1,1.48,1.17,4.87,4.87,0,0,1,.57.72,1,1,0,0,1,0,.34,2.92,2.92,0,0,1,0,.55l0,.31a2.74,2.74,0,0,0-.05.28,35.3,35.3,0,0,1-1,4.09,21,21,0,0,1-1.59,4.11c-.74-.73-1.48-1.48-2.22-2.23-.14-.13-.27-.27-.4-.4l-.38-.39L40.86,67c-.9-.91-1.79-1.82-2.69-2.72-.45-.44-.93-.89-1.43-1.35-.66-.62-1.33-1.24-2-1.89a13.08,13.08,0,0,1-1.6-2A2.07,2.07,0,0,1,33,58.8l-.1-.17-.06-.12,0-.08-.06-.11a1.66,1.66,0,0,1,.23-.19l.28-.23c.17-.14.33-.27.48-.41a6.73,6.73,0,0,0,1.08-1.22,9.09,9.09,0,0,0,.7-1.74c.31-.9,1-3,1.54-3.06,0,0,.26.09.52.52A4.23,4.23,0,0,1,38,53v0c.06.18.13.37.2.55a4,4,0,0,0,.25.51A2.85,2.85,0,0,0,39,54.75Zm-.42-3,.08.1v0A.54.54,0,0,0,38.56,51.77ZM79.62,86.39a13.64,13.64,0,0,0-.78-5.2,2,2,0,0,0-.21-.41h0a.49.49,0,0,0-.66-.13.47.47,0,0,0-.22.44.57.57,0,0,0,.07.22s0,.08.1.21A13.45,13.45,0,0,1,78.64,87a53.5,53.5,0,0,1-29.4,8.86,52.93,52.93,0,0,1-29.74-9c-.09-3.47.52-5,.73-5.4,0-.08.07-.13.08-.13a.46.46,0,0,0,.08-.34.42.42,0,0,0-.19-.33.46.46,0,0,0-.62,0,.1.1,0,0,0,0,0,2.2,2.2,0,0,0-.23.39,12.23,12.23,0,0,0-.78,5,54.23,54.23,0,0,1-7.36-6.25c0-1,.06-2,.15-2.92l.06-.56c0-.18.05-.36.07-.54a14.87,14.87,0,0,1,1.47-4.79c.07-.15.16-.3.24-.45l.27-.44c1.76-2.79,4.9-5.23,10.48-7.06a45,45,0,0,0,8.46-3.62A13,13,0,0,0,34,61.6l.65.66.58.57.89.84c.49.45,1,.89,1.4,1.33.9.89,1.79,1.8,2.69,2.71.31.33.63.65.95,1l.42.43.42.42c.69.7,1.39,1.4,2.09,2.08a.51.51,0,0,0,.33.13l.16,0c.31-.11.89-.3,2.36-5A34,34,0,0,0,48,62.25c0-.14,0-.25,0-.37s0-.37,0-.53a2.68,2.68,0,0,0,0-.52s0,0,0-.06a1,1,0,0,0-.14-.37,2.78,2.78,0,0,0-.21-.27,6.26,6.26,0,0,0-.67-.78,14.31,14.31,0,0,0-2.81-2c-.57-.33-1.11-.64-1.58-1l-.46-.32a21.71,21.71,0,0,1-2-1.57c-.15-.14-.31-.28-.45-.43a2.14,2.14,0,0,1-.3-.39,3,3,0,0,1-.24-.47.61.61,0,0,0,0-.12c.2-.36.39-.72.56-1.09a.52.52,0,0,0-.06-.51,29.35,29.35,0,0,1-3-4.55,41.67,41.67,0,0,1-2.43-8.64.53.53,0,0,0-.11-.24,15,15,0,0,1-1.15-1.75,8,8,0,0,1-1.32-3.47v-.34c-.09-2.79-.11-5.58.58-6.3a.6.6,0,0,1,.21-.14.49.49,0,0,0,.26-.62,11.87,11.87,0,0,1-.6-2.59c0-.16,0-.33-.05-.49a4,4,0,0,1,0-.49A7.26,7.26,0,0,1,32.38,19a26.73,26.73,0,0,1,1.68-3.46.5.5,0,0,0,0-.49.46.46,0,0,0-.41-.24H33a.22.22,0,0,1-.2-.16.22.22,0,0,1,.1-.24,13.32,13.32,0,0,0,2.75-3.22A14.07,14.07,0,0,1,44.56,5.1a16.46,16.46,0,0,1,5.58.05h.16a7.21,7.21,0,0,1,2,.12,6.82,6.82,0,0,0,3.87-.21C58,4.21,61,6.38,64.78,11.17a27.45,27.45,0,0,0,2.75,3.21.21.21,0,0,1,.08.23.21.21,0,0,1-.19.16h-.63a.46.46,0,0,0-.41.24.5.5,0,0,0,0,.49A27.38,27.38,0,0,1,68.06,19a7.22,7.22,0,0,1,.45,2.83c0,.16,0,.33,0,.49s0,.32,0,.49a11.9,11.9,0,0,1-.62,2.67.5.5,0,0,0,.27.62.6.6,0,0,1,.21.14c.69.72.67,3.51.58,6.3v.34a8,8,0,0,1-1.33,3.47,14.86,14.86,0,0,1-1.14,1.75.44.44,0,0,0-.11.24A41,41,0,0,1,63.86,47a28.17,28.17,0,0,1-2.61,4l-.26.34c-.22.28-.45.56-.7.85a.48.48,0,0,0-.06.54l.07.11,0,.06a4,4,0,0,1-.21.52,2.46,2.46,0,0,1-.45.67,9.73,9.73,0,0,1-.95.85c-.49.4-1,.78-1.53,1.14l-.47.33c-.47.34-1,.65-1.58,1a14.86,14.86,0,0,0-2.65,1.83,5.64,5.64,0,0,0-.74.81c-.1.13-.22.24-.31.38a1.1,1.1,0,0,0-.12.29,1.57,1.57,0,0,0,0,.23,2.75,2.75,0,0,0,0,.51,2.53,2.53,0,0,0,0,.27H49.28a.49.49,0,0,0-.49.49h0a.48.48,0,0,0,.49.48h1.93l.14,0c0,.32.12.65.19,1,.33,1.47.79,2.93.85,3.14,1.47,4.65,2,4.84,2.37,5l.15,0a.51.51,0,0,0,.34-.13l1.9-1.89.43-.43.42-.44,1.14-1.15c.89-.9,1.78-1.81,2.67-2.7.44-.43.91-.87,1.4-1.32S64.4,62.55,65,62c.26-.26.51-.54.75-.81A12.09,12.09,0,0,0,67,59.45l.3.17a45.36,45.36,0,0,0,8.33,3.54c5.66,1.85,8.78,4.31,10.52,7.06.09.15.18.3.26.45s.16.28.24.43a14,14,0,0,1,1.33,4l.09.54c0,.18.05.36.07.54.11.88.17,1.76.2,2.64A53.28,53.28,0,0,1,79.62,86.39ZM63.76,54.53a8.37,8.37,0,0,0,.71,1.74,5.26,5.26,0,0,0,.45.58,9.17,9.17,0,0,0,1.1,1l.29.23c.1.07.23.18.23.13a.85.85,0,0,1-.1.25h0a3.08,3.08,0,0,1-.16.29,1,1,0,0,1-.09.13,20.41,20.41,0,0,1-3.63,4c-.5.45-1,.9-1.42,1.34-.9.9-1.79,1.8-2.68,2.71l-.69.7-.4.41-.4.4c-.68.69-1.36,1.38-2.05,2a20.12,20.12,0,0,1-1.59-4.1,34.77,34.77,0,0,1-1-4c0-.14-.05-.28-.07-.41a1.37,1.37,0,0,1,0-.19,5.07,5.07,0,0,1,0-.57,1.05,1.05,0,0,1,0-.43,5,5,0,0,1,.72-.87,13.68,13.68,0,0,1,2.65-1.83c.59-.34,1.14-.67,1.65-1l.47-.33c.56-.39,1.13-.8,1.68-1.25a12.59,12.59,0,0,0,.94-.86,3.49,3.49,0,0,0,.6-.87,4.08,4.08,0,0,0,.22-.54l.12-.32c0-.09.06-.18.1-.28A3.86,3.86,0,0,1,61.7,52l0-.07a1.84,1.84,0,0,1,.25-.31.41.41,0,0,1,.22-.14h0C62.73,51.53,63.45,53.64,63.76,54.53ZM88.83,74.46a15,15,0,0,0-1.24-3.61c-.07-.14-.14-.29-.22-.43s-.17-.29-.26-.44c-1.8-3-5.1-5.75-11.18-7.74A46.07,46.07,0,0,1,68.1,59l-.46-.26-.19-.11a1.55,1.55,0,0,0,.06-.39c0-.35-.28-.58-.61-.84l-.26-.21a6.56,6.56,0,0,1-1.37-1.42,9.46,9.46,0,0,1-.59-1.51c-.63-1.82-1.15-3.18-2-3.59a29,29,0,0,0,2-3.31,41.61,41.61,0,0,0,2.48-8.74,17.38,17.38,0,0,0,1.15-1.77,8.83,8.83,0,0,0,1.46-3.93v-.34c.12-3.93,0-6.1-.85-7l-.14-.13a13.07,13.07,0,0,0,.56-2.68,7.38,7.38,0,0,1,1.63.13,9.09,9.09,0,0,1,5.75,3.92,7,7,0,0,0,1.88,2.12h-.41a.47.47,0,0,0-.41.25.46.46,0,0,0,0,.48A16,16,0,0,1,79,31.9a3.61,3.61,0,0,1,.19.64c0,.16.06.32.08.48a4.19,4.19,0,0,1,0,.5,7.65,7.65,0,0,1-.44,2.53.48.48,0,0,0,.26.61l.09.06c.44.46.37,2.79.33,4V41a4.83,4.83,0,0,1-.85,2.2,10.45,10.45,0,0,1-.74,1.14.47.47,0,0,0-.1.24,26.14,26.14,0,0,1-1.6,5.64l0,.08a5.59,5.59,0,0,1-.3.53l-.28.48a20.09,20.09,0,0,1-1.7,2.31.47.47,0,0,0-.06.54,8.7,8.7,0,0,0,.53.89,4.56,4.56,0,0,0,.27.39q.13.19.3.39c1.77,2.18,4.63,3.82,9.13,5.29,5.23,1.72,7.13,4.23,7.84,6.94l.12.49.09.49a18.16,18.16,0,0,1,.21,2.21A35.31,35.31,0,0,1,88.83,74.46ZM76.54,52.73a5.65,5.65,0,0,1-1.4,1.72c-.1-.16-.22-.31-.31-.47.52-.64,1-1.26,1.32-1.79Q76.32,52.45,76.54,52.73Zm16.22,14.8c-.82-2.84-2.92-5.55-8.4-7.35-4.3-1.41-7-3-8.65-5a6.61,6.61,0,0,0,1.84-2.34.5.5,0,0,0-.07-.51,12.18,12.18,0,0,1-.77-1.08c.23-.4.36-.66.39-.71a27.93,27.93,0,0,0,1.64-5.76,13,13,0,0,0,.74-1.14,6,6,0,0,0,1-2.67v-.23c.08-2.69,0-4.09-.61-4.73l0,0a8.44,8.44,0,0,0,.38-2.63,8.36,8.36,0,0,1,1.4.1h.15a6.9,6.9,0,0,1,2.23,0,5.57,5.57,0,0,1,3.53,2.41A11.17,11.17,0,0,0,88.41,37a.47.47,0,0,0-.22.2.48.48,0,0,0,0,.48,11,11,0,0,1,.68,1.41,3.8,3.8,0,0,1-.09,2.5.47.47,0,0,0,.26.61,7.15,7.15,0,0,1,.16,2.42v.14a2.92,2.92,0,0,1-.51,1.32,5.92,5.92,0,0,1-.45.69.44.44,0,0,0-.11.24,16.9,16.9,0,0,1-1,3.52,11.21,11.21,0,0,1-1.45,2.12.48.48,0,0,0-.06.54c1,2,3,3.31,6.58,4.49,4.45,1.45,5,3.74,5.1,6.17A21.93,21.93,0,0,1,92.76,67.53Zm-21.11,6a13.49,13.49,0,0,1-6.27-2,.91.91,0,0,0-1,0,13.53,13.53,0,0,1-6.27,2,.92.92,0,0,0-.86.91v5.31q0,.66.06,1.29c0,.17,0,.35.05.51s0,.36.08.54c.63,3.71,2.88,6.18,7.09,7.83a1,1,0,0,0,.34.06.92.92,0,0,0,.33-.06c3.91-1.53,6.13-3.77,6.93-7l.12-.5c0-.17,0-.34.08-.51a14.26,14.26,0,0,0,.15-2.11V74.47A.91.91,0,0,0,71.65,73.56Zm-.11,6.22a12.31,12.31,0,0,1-.2,2.25c0,.17-.07.34-.11.51s-.08.33-.13.5c-.82,2.76-2.82,4.67-6.21,6-3.66-1.44-5.71-3.55-6.39-6.67,0-.17-.07-.35-.1-.53s0-.33-.07-.5a13.09,13.09,0,0,1-.09-1.56l-.05-5.26a14.1,14.1,0,0,0,6.67-2.13,13.9,13.9,0,0,0,6.68,2.08Zm-7.6-1.08a1.11,1.11,0,0,0,.52,1v3.42a.42.42,0,0,0,0,.16.47.47,0,0,0,.45.32.48.48,0,0,0,.43-.27.54.54,0,0,0,.05-.21V79.66a1.11,1.11,0,0,0,.52-1,1,1,0,1,0-2,0Zm1-.14a.17.17,0,0,1,.06.14c0,.09,0,.14,0,.15a.22.22,0,0,1,0-.15C64.91,78.62,65,78.57,64.93,78.56Zm-16.3,4.56a.48.48,0,0,1,.14.34V85.4a.49.49,0,1,1-1,0V83.46a.49.49,0,0,1,.49-.48h0A.48.48,0,0,1,48.63,83.12Zm.14-19V66a.49.49,0,0,1-.48.49h0A.49.49,0,0,1,47.8,66V64.1a.49.49,0,0,1,.49-.49h0A.49.49,0,0,1,48.77,64.1Zm0,9.68v1.94a.49.49,0,0,1-.48.48h0a.49.49,0,0,1-.49-.48V73.78a.48.48,0,0,1,.49-.48h0A.48.48,0,0,1,48.77,73.78Zm0-4.84v1.93a.49.49,0,0,1-.48.49h0a.49.49,0,0,1-.49-.49V68.94a.49.49,0,0,1,.49-.49h0A.49.49,0,0,1,48.77,68.94Zm0,9.57a.43.43,0,0,1,0,.11v1.94a.48.48,0,0,1-.48.48h0a.48.48,0,0,1-.49-.48V78.62a.49.49,0,0,1,.11-.29.46.46,0,0,1,.24-.17l.12,0h0a.48.48,0,0,1,.45.32A.11.11,0,0,0,48.75,78.51Zm-.38-47.89a6,6,0,0,0,.28-1.19,1.61,1.61,0,0,1,.05-.26,4.78,4.78,0,0,1,.5,0,5.57,5.57,0,0,0,.69,0,1.14,1.14,0,0,1,.27,0c.05,0,.09,0,.11,0a.13.13,0,0,0,.12,0,1.07,1.07,0,0,1,.26,0,5.55,5.55,0,0,0,.69,0,5,5,0,0,1,.51,0,1.12,1.12,0,0,1,0,.26,7.29,7.29,0,0,0,.29,1.19,1.65,1.65,0,0,0,.2.51.58.58,0,0,1,.1.2,1.22,1.22,0,0,0,.25.4.4.4,0,0,1,.11.13s0,0,0,0,0,0,.09.1a1.69,1.69,0,0,0,.28.32l.41.38L54,33a5.31,5.31,0,0,0,1,.68l.27.14.22.1a2.92,2.92,0,0,0,.73.25.3.3,0,0,1,.18,0,8.43,8.43,0,0,0,1,.28,2,2,0,0,1,.37.08l.21.06.09,0,.38.06c.17,0,.4,0,.51.06l.84.08a2.75,2.75,0,0,1,.38,0,11.81,11.81,0,0,0,1.91,0,7.41,7.41,0,0,0,.8-.22,1.58,1.58,0,0,0,.58-.28l.06,0,.22-.22c.1-.12.22-.24.26-.28a2.17,2.17,0,0,0,.38-.54.27.27,0,0,1,.07-.12s0,0,0,0a.67.67,0,0,1,.1-.21,1.74,1.74,0,0,0,.2-.46c0-.12.12-.35.19-.51a2.65,2.65,0,0,0,.22-.67l0-.2c.1-.26.11-.32.1-.34a4.08,4.08,0,0,1,.12-.79,9.42,9.42,0,0,0,.16-1,.92.92,0,0,1,.11-.44s0,0,0-.05A.78.78,0,0,1,66,28a.72.72,0,0,1,.27-.08,1.42,1.42,0,0,0,.56-.21.45.45,0,0,0,.07-.25s0,0,0-.06A1,1,0,0,0,67,27a2.46,2.46,0,0,1,0-.26.47.47,0,0,0,0-.2,1.3,1.3,0,0,1,0-.47c0-.1,0-.13,0-.26a.44.44,0,0,1,0-.19c.06-.22-1.14-.15-1.27-.16l-.58-.05-.59,0c-.68-.06-1.38,0-2,0l-.48,0-.53,0-.46,0-.38,0-.4,0c-.37-.05-.65-.07-.91-.09l-.66,0-.4,0-.28,0h-.42a2.29,2.29,0,0,0-.58,0,9,9,0,0,0-1,.22,3.48,3.48,0,0,1-.69.14.58.58,0,0,0-.18,0l-.21.07a5.68,5.68,0,0,0-1.3.58l-.31.18a4.18,4.18,0,0,0-.58.48,2.45,2.45,0,0,1-.57.43.1.1,0,0,0-.07.05.13.13,0,0,1-.07,0s0,0,0,0a.18.18,0,0,1-.11.05.45.45,0,0,0-.15.06,1.43,1.43,0,0,1-.43.18l-.5.07a1.85,1.85,0,0,0-.45.09s-.29-.06-.54-.09l-.5-.07a1.62,1.62,0,0,1-.44-.18s-.08,0-.14-.06a.19.19,0,0,1-.12-.05s0,0,0,0a.1.1,0,0,1-.07,0,.1.1,0,0,0-.08-.05,2.78,2.78,0,0,1-.56-.43,5.09,5.09,0,0,0-.58-.48l-.32-.18a5.45,5.45,0,0,0-1.29-.58l-.22-.07a.58.58,0,0,0-.18,0,3.52,3.52,0,0,1-.68-.14,9.54,9.54,0,0,0-1-.22,2.26,2.26,0,0,0-.58,0,6.25,6.25,0,0,1-.7,0l-.6,0-.62,0h0a.61.61,0,0,1-.25.06h-.24l-.11,0h-.14l-.39,0-.38,0-.47,0-.52,0-.48,0h-.45c-.53,0-1.07-.06-1.6,0l-.59,0-.58.05c-.37,0-1.32-.16-1.37.34a.68.68,0,0,0,0,.27,1.29,1.29,0,0,1,0,.47,1.56,1.56,0,0,0,0,.2c0,.08,0,.19,0,.26a1.31,1.31,0,0,0,0,.41.08.08,0,0,1,0,.06.45.45,0,0,0,.07.25,1.36,1.36,0,0,0,.56.21.79.79,0,0,1,.27.08.85.85,0,0,1,.22.42,0,0,0,0,0,0,.05,1.08,1.08,0,0,1,.11.44c.06.49.1.75.15,1a3.36,3.36,0,0,1,.12.79s0,.08.1.34a.65.65,0,0,1,0,.2,3,3,0,0,0,.23.67c.07.16.15.39.19.51a2.27,2.27,0,0,0,.19.46,1.06,1.06,0,0,1,.11.21s0,0,0,0a.44.44,0,0,1,.07.12,1.94,1.94,0,0,0,.38.54l.26.28a2.5,2.5,0,0,0,.21.22.13.13,0,0,1,.07,0,1.49,1.49,0,0,0,.58.28,7.18,7.18,0,0,0,.79.22,11.84,11.84,0,0,0,1.91,0l.38,0,.85-.08a4.5,4.5,0,0,1,.51-.06l.38-.06.09,0,.21-.06a2.09,2.09,0,0,1,.36-.08,8.43,8.43,0,0,0,1-.28h0a.29.29,0,0,1,.15,0,1.51,1.51,0,0,0,.35-.1,4,4,0,0,0,.5-.2l.1,0A4.84,4.84,0,0,0,46.51,33l.37-.35.4-.38a1.49,1.49,0,0,0,.29-.32c0-.06.08-.11.09-.1s0,0,.05,0a.5.5,0,0,1,.1-.13,1.07,1.07,0,0,0,.25-.4.87.87,0,0,1,.1-.2A1.61,1.61,0,0,0,48.37,30.62Zm6.16-2.92a1.9,1.9,0,0,1,.64-.51,4.62,4.62,0,0,1,1.22-.33l.31,0,.65-.08.33,0a.24.24,0,0,1,.21.1A.33.33,0,0,1,58,27a.27.27,0,0,1-.21.3l-.21.07a3.39,3.39,0,0,0-.9.36,3.14,3.14,0,0,0-1,.86,3,3,0,0,0-.43.74h0l0,.08a2.13,2.13,0,0,0-.14.37s0,.1-.06.17l0,0a.46.46,0,0,0,0,.13.25.25,0,0,1-.14.2.28.28,0,0,1-.13,0,.27.27,0,0,1-.24-.14,1.58,1.58,0,0,1-.14-.57,5.43,5.43,0,0,1-.05-.63A2,2,0,0,1,54.53,27.7Zm-14.41-.45A3.66,3.66,0,0,0,38,28.54a2.72,2.72,0,0,0-.42.74l0,.08a3.3,3.3,0,0,0-.13.37s0,.1-.06.17l0,0-.05.13a.23.23,0,0,1-.14.2.27.27,0,0,1-.12,0,.26.26,0,0,1-.24-.14,1.61,1.61,0,0,1-.15-.57c0-.25,0-.45,0-.63a1.93,1.93,0,0,1,.35-1.26,1.77,1.77,0,0,1,.63-.51,4.62,4.62,0,0,1,1.22-.33,11.45,11.45,0,0,1,1.29-.14.24.24,0,0,1,.28.23A.27.27,0,0,1,40.12,27.25Z"/></g></svg>