<svg xmlns="http://www.w3.org/2000/svg" width="150" height="108.59" viewBox="0 0 150 108.59">
  <title>icon-people-connected</title>
  <g id="Layer_2" data-name="Layer 2">
    <g id="_1200" data-name="1200">
      <g id="Why_" data-name="Why?">
        <g id="ecommerce-resellers-icon">
          <ellipse cx="74.43" cy="73.16" rx="35.36" ry="34.93" style="fill: none;stroke: #edf0f3;stroke-miterlimit: 10"/>
          <path d="M74.43,108.09a35.45,35.45,0,0,0,26-11.24c-.15-4.31-1.22-8.22-8.56-10.6-5.41-1.75-8.4-3.74-9.92-6.62a19.18,19.18,0,0,0,2.38-3.44v0a26.35,26.35,0,0,0,1.62-5.67,9.77,9.77,0,0,0,.78-1.17,5.43,5.43,0,0,0,.91-2.4V66.7c.08-2.41,0-3.81-.47-4.31a.74.74,0,0,0-.24-.17,6.56,6.56,0,0,0,.14-4.43A17.4,17.4,0,0,0,86,55.5h.41a.45.45,0,0,0,.25-.83,8.74,8.74,0,0,1-1.73-2,9.54,9.54,0,0,0-6-4.05,11.3,11.3,0,0,0-3.78,0,11.3,11.3,0,0,0-3.78,0,9.54,9.54,0,0,0-6,4.05,8.81,8.81,0,0,1-1.73,2,.45.45,0,0,0-.19.5.46.46,0,0,0,.43.33h.41a17.38,17.38,0,0,0-1.12,2.29,6.56,6.56,0,0,0,.14,4.43.74.74,0,0,0-.24.17c-.49.5-.54,1.9-.47,4.31v.22a5.43,5.43,0,0,0,.91,2.4,9.77,9.77,0,0,0,.78,1.17,26.35,26.35,0,0,0,1.62,5.67v0a19,19,0,0,0,2,3c-1.44,3.11-4.49,5.23-10.14,7.06C50,88.76,49.19,93,49.12,97.54A35.45,35.45,0,0,0,74.43,108.09Z" style="fill: none;stroke: #03a9f4;stroke-miterlimit: 10"/>
          <path d="M133,40.85a6.84,6.84,0,0,1-2.86-1.25,6.84,6.84,0,0,0,2.19-.78.16.16,0,0,0,.08-.17.16.16,0,0,0-.13-.13,1.49,1.49,0,0,1-.41-.13,2.74,2.74,0,0,0,1.78-1.11.16.16,0,0,0,0-.12.16.16,0,0,0-.07-.1,1.78,1.78,0,0,1-.38-.33c1.11-.37,1.6-1.91,1.62-2a.16.16,0,0,0-.09-.19.16.16,0,0,0-.2.06.51.51,0,0,1-.32.2.75.75,0,0,1-.56-.24c-.35-.31-.42-.64-.57-1.46a28.52,28.52,0,0,0-.81-3.35,4.87,4.87,0,0,0-2.76-3.19,5.14,5.14,0,0,0-1.93-.44h-.2a5.68,5.68,0,0,0-2,.43,4.86,4.86,0,0,0-2.87,3.19,28.51,28.51,0,0,0-.81,3.35c-.15.82-.22,1.15-.57,1.46a.75.75,0,0,1-.56.24.51.51,0,0,1-.32-.2.16.16,0,0,0-.2-.06.16.16,0,0,0-.09.19c0,.07.51,1.6,1.62,2a1.77,1.77,0,0,1-.38.33.16.16,0,0,0-.05.23,2.73,2.73,0,0,0,1.78,1.11,1.5,1.5,0,0,1-.41.13.16.16,0,0,0-.13.13.16.16,0,0,0,.08.17,6.84,6.84,0,0,0,2.19.78,6.84,6.84,0,0,1-2.86,1.25c-2.91.77-2.91,2.12-2.91,3.55v3.32a14.48,14.48,0,0,0,17.08,0V44.4C135.92,43,135.92,41.61,133,40.85Z" style="fill: none;stroke: #03a9f4;stroke-linecap: round;stroke-linejoin: round"/>
          <ellipse cx="127.25" cy="36.46" rx="14.13" ry="13.96" style="fill: none;stroke: #edf0f3;stroke-linecap: round;stroke-linejoin: round"/>
          <g>
            <path d="M135.4,96.2a14.38,14.38,0,0,0,10.54-4.56c-.06-1.75-.5-3.33-3.47-4.3-2.19-.71-3.41-1.52-4-2.68a7.78,7.78,0,0,0,1-1.4h0a10.69,10.69,0,0,0,.66-2.3,4,4,0,0,0,.32-.48,2.2,2.2,0,0,0,.37-1v-.09c0-1,0-1.55-.19-1.75l-.1-.07a2.66,2.66,0,0,0,.06-1.8,7.06,7.06,0,0,0-.45-.93h.17a.18.18,0,0,0,.1-.34,3.55,3.55,0,0,1-.7-.82,3.87,3.87,0,0,0-2.44-1.64,4.58,4.58,0,0,0-1.53,0,4.58,4.58,0,0,0-1.53,0,3.87,3.87,0,0,0-2.44,1.64,3.58,3.58,0,0,1-.7.81.18.18,0,0,0-.08.2.18.18,0,0,0,.17.13h.17a7,7,0,0,0-.45.93,2.66,2.66,0,0,0,.06,1.8l-.1.07c-.2.2-.22.77-.19,1.75v.09a2.2,2.2,0,0,0,.37,1,4,4,0,0,0,.32.48,10.69,10.69,0,0,0,.66,2.3h0a7.7,7.7,0,0,0,.81,1.22c-.58,1.26-1.82,2.12-4.11,2.86-3.14,1-3.45,2.72-3.48,4.58A14.38,14.38,0,0,0,135.4,96.2Z" style="fill: none;stroke: #03a9f4;stroke-miterlimit: 10"/>
            <ellipse cx="135.37" cy="82.17" rx="14.13" ry="13.96" style="fill: none;stroke: #edf0f3;stroke-miterlimit: 10"/>
          </g>
          <g>
            <path d="M74.86,28.49a14.38,14.38,0,0,0,10.54-4.56c-.06-1.75-.5-3.33-3.47-4.3-2.19-.71-3.41-1.52-4-2.68a7.78,7.78,0,0,0,1-1.4h0a10.69,10.69,0,0,0,.66-2.3,4,4,0,0,0,.32-.48,2.2,2.2,0,0,0,.37-1V11.7c0-1,0-1.55-.19-1.75l-.1-.07A2.66,2.66,0,0,0,80,8.09a7.06,7.06,0,0,0-.45-.93h.17a.18.18,0,0,0,.1-.34,3.55,3.55,0,0,1-.7-.82,3.87,3.87,0,0,0-2.44-1.64,4.58,4.58,0,0,0-1.53,0,4.58,4.58,0,0,0-1.53,0A3.87,3.87,0,0,0,71.14,6a3.58,3.58,0,0,1-.7.81.18.18,0,0,0-.08.2.18.18,0,0,0,.17.13h.17a7,7,0,0,0-.45.93,2.66,2.66,0,0,0,.06,1.8l-.1.07c-.2.2-.22.77-.19,1.75v.09a2.2,2.2,0,0,0,.37,1,4,4,0,0,0,.32.48,10.69,10.69,0,0,0,.66,2.3h0a7.7,7.7,0,0,0,.81,1.22c-.58,1.26-1.82,2.12-4.11,2.86-3.14,1-3.45,2.72-3.48,4.58A14.38,14.38,0,0,0,74.86,28.49Z" style="fill: none;stroke: #03a9f4;stroke-miterlimit: 10"/>
            <ellipse cx="74.83" cy="14.46" rx="14.13" ry="13.96" style="fill: none;stroke: #edf0f3;stroke-miterlimit: 10"/>
          </g>
          <g>
            <path d="M27.52,40.85a6.84,6.84,0,0,1-2.86-1.25,6.84,6.84,0,0,0,2.19-.78.16.16,0,0,0,.08-.17.16.16,0,0,0-.13-.13,1.49,1.49,0,0,1-.41-.13,2.74,2.74,0,0,0,1.78-1.11.16.16,0,0,0,0-.12.16.16,0,0,0-.07-.1,1.78,1.78,0,0,1-.38-.33c1.11-.37,1.6-1.91,1.62-2a.16.16,0,0,0-.09-.19.16.16,0,0,0-.2.06.51.51,0,0,1-.32.2.75.75,0,0,1-.56-.24c-.35-.31-.42-.64-.57-1.46a28.52,28.52,0,0,0-.81-3.35A4.87,4.87,0,0,0,24,26.59a5.14,5.14,0,0,0-1.93-.44h-.2a5.68,5.68,0,0,0-2,.43A4.86,4.86,0,0,0,17,29.78a28.51,28.51,0,0,0-.81,3.35c-.15.82-.22,1.15-.57,1.46a.75.75,0,0,1-.56.24.51.51,0,0,1-.32-.2.16.16,0,0,0-.2-.06.16.16,0,0,0-.09.19c0,.07.51,1.6,1.62,2a1.77,1.77,0,0,1-.38.33.16.16,0,0,0-.05.23,2.73,2.73,0,0,0,1.78,1.11,1.5,1.5,0,0,1-.41.13.16.16,0,0,0-.13.13.16.16,0,0,0,.08.17,6.84,6.84,0,0,0,2.19.78,6.84,6.84,0,0,1-2.86,1.25c-2.91.77-2.91,2.12-2.91,3.55v3.32a14.48,14.48,0,0,0,17.08,0V44.4C30.43,43,30.43,41.61,27.52,40.85Z" style="fill: none;stroke: #03a9f4;stroke-miterlimit: 10"/>
            <ellipse cx="21.77" cy="36.46" rx="14.13" ry="13.96" style="fill: none;stroke: #edf0f3;stroke-miterlimit: 10"/>
          </g>
          <g>
            <path d="M14.66,96.2a14.38,14.38,0,0,0,10.54-4.56c-.06-1.75-.5-3.33-3.47-4.3-2.19-.71-3.41-1.52-4-2.68a7.78,7.78,0,0,0,1-1.4h0a10.69,10.69,0,0,0,.66-2.3,4,4,0,0,0,.32-.48,2.2,2.2,0,0,0,.37-1v-.09c0-1,0-1.55-.19-1.75l-.1-.07a2.66,2.66,0,0,0,.06-1.8,7.06,7.06,0,0,0-.45-.93h.17a.18.18,0,0,0,.1-.34,3.55,3.55,0,0,1-.7-.82,3.87,3.87,0,0,0-2.44-1.64,4.58,4.58,0,0,0-1.53,0,4.58,4.58,0,0,0-1.53,0,3.87,3.87,0,0,0-2.44,1.64,3.58,3.58,0,0,1-.7.81.18.18,0,0,0-.08.2.18.18,0,0,0,.17.13h.17a7,7,0,0,0-.45.93,2.66,2.66,0,0,0,.06,1.8l-.1.07c-.2.2-.22.77-.19,1.75v.09a2.2,2.2,0,0,0,.37,1,4,4,0,0,0,.32.48,10.69,10.69,0,0,0,.66,2.3h0A7.7,7.7,0,0,0,12,84.48c-.58,1.26-1.82,2.12-4.11,2.86-3.14,1-3.45,2.72-3.48,4.58A14.38,14.38,0,0,0,14.66,96.2Z" style="fill: none;stroke: #03a9f4;stroke-miterlimit: 10"/>
            <ellipse cx="14.63" cy="82.17" rx="14.13" ry="13.96" style="fill: none;stroke: #edf0f3;stroke-miterlimit: 10"/>
          </g>
          <path d="M93.45,98.15s.69.59.59,3.59" style="fill: none;stroke: #03a9f4;stroke-linecap: round;stroke-linejoin: round"/>
          <path d="M55.18,98.15s-.69.59-.59,3.59" style="fill: none;stroke: #03a9f4;stroke-linecap: round;stroke-linejoin: round"/>
          <line x1="74.83" y1="38.23" x2="74.83" y2="29.05" style="fill: none;stroke: #edf0f3;stroke-linecap: round;stroke-linejoin: round"/>
          <line x1="39.5" y1="78.78" x2="29.06" y2="78.78" style="fill: none;stroke: #edf0f3;stroke-linecap: round;stroke-linejoin: round"/>
          <line x1="120.6" y1="78.78" x2="110.16" y2="78.78" style="fill: none;stroke: #edf0f3;stroke-linecap: round;stroke-linejoin: round"/>
          <line x1="103.68" y1="53.54" x2="116.01" y2="45.51" style="fill: none;stroke: #edf0f3;stroke-linecap: round;stroke-linejoin: round"/>
          <line x1="45.18" y1="53.54" x2="32.86" y2="45.51" style="fill: none;stroke: #edf0f3;stroke-linecap: round;stroke-linejoin: round"/>
        </g>
      </g>
    </g>
  </g>
</svg>
