<svg xmlns="http://www.w3.org/2000/svg" xmlns:xlink="http://www.w3.org/1999/xlink" width="309.6" height="155.87" viewBox="0 0 309.6 155.87">
  <defs>
    <clipPath id="clip-path">
      <path d="M231.11,71.41l-25.34,7.4a1.07,1.07,0,0,1,.32,0l25.34-7.4A1.07,1.07,0,0,0,231.11,71.41Z" style="fill: #fff;stroke: #373e5a;stroke-linecap: round;stroke-linejoin: round"/>
    </clipPath>
    <clipPath id="clip-path-2">
      <path d="M272,147.28l25.34-7.4a1.12,1.12,0,0,0,.79-1.07l-25.34,7.4A1.12,1.12,0,0,1,272,147.28Z" style="fill: #fff;stroke: #373e5a;stroke-linecap: round;stroke-linejoin: round"/>
    </clipPath>
    <clipPath id="clip-path-3">
      <path d="M272.86,81.08l25.34-7.4a1.15,1.15,0,0,0-1.11-1.16l-25.34,7.4A1.15,1.15,0,0,1,272.86,81.08Z" style="fill: #fff;stroke: #373e5a;stroke-linecap: round;stroke-linejoin: round"/>
    </clipPath>
  </defs>
  <title>icon-website-developers</title>
  <g id="Layer_2" data-name="Layer 2">
    <g id="_1200" data-name="1200">
      <g id="Who_Benefits" data-name="Who Benefits">
        <g id="reseller-website-developer-icon">
          <g>
            <g>
              <g>
                <rect x="89.05" y="12.98" width="156.51" height="124.17" rx="1.89" ry="1.89" style="fill: #fff;stroke: #4e5a60;stroke-linecap: round;stroke-linejoin: round"/>
                <line x1="89.05" y1="27.3" x2="245.56" y2="27.3" style="fill: none;stroke: #4e5a60;stroke-linecap: round;stroke-linejoin: round"/>
                <rect x="122.72" y="18.56" width="113.61" height="2.47" rx="0.79" ry="0.79" style="fill: none;stroke: #4e5a60;stroke-miterlimit: 10"/>
                <line x1="98.6" y1="19.79" x2="100.56" y2="19.79" style="fill: #fff;stroke: #4e5a60;stroke-linecap: round;stroke-linejoin: round"/>
                <line x1="104.95" y1="19.79" x2="106.91" y2="19.79" style="fill: #fff;stroke: #4e5a60;stroke-linecap: round;stroke-linejoin: round"/>
                <line x1="111.3" y1="19.79" x2="113.27" y2="19.79" style="fill: #fff;stroke: #4e5a60;stroke-linecap: round;stroke-linejoin: round"/>
              </g>
              <line x1="97.98" y1="38.52" x2="132.98" y2="38.52" style="fill: none;stroke: #373e5a;stroke-linecap: round;stroke-linejoin: round"/>
              <line x1="105.98" y1="45.52" x2="141.98" y2="45.52" style="fill: none;stroke: #373e5a;stroke-linecap: round;stroke-linejoin: round"/>
              <g>
                <line x1="105.98" y1="52.52" x2="112.98" y2="52.52" style="fill: none;stroke: #373e5a;stroke-linecap: round;stroke-linejoin: round"/>
                <line x1="118.06" y1="52.52" x2="132.44" y2="52.52" style="fill: none;stroke: #373e5a;stroke-linecap: round;stroke-linejoin: round;stroke-dasharray: 11.846173286437988,5.076930999755859"/>
                <line x1="134.98" y1="52.52" x2="141.98" y2="52.52" style="fill: none;stroke: #373e5a;stroke-linecap: round;stroke-linejoin: round"/>
              </g>
              <line x1="105.98" y1="62.52" x2="119.98" y2="62.52" style="fill: none;stroke: #373e5a;stroke-linecap: round;stroke-linejoin: round;stroke-dasharray: 13.999882698059082"/>
              <g>
                <line x1="141.98" y1="98.52" x2="147.48" y2="98.52" style="fill: none;stroke: #373e5a;stroke-linecap: round;stroke-linejoin: round"/>
                <line x1="150.78" y1="98.52" x2="173.84" y2="98.52" style="fill: none;stroke: #373e5a;stroke-linecap: round;stroke-linejoin: round;stroke-dasharray: 9.058812141418457,3.2941133975982666"/>
                <line x1="175.48" y1="98.52" x2="180.98" y2="98.52" style="fill: none;stroke: #373e5a;stroke-linecap: round;stroke-linejoin: round"/>
              </g>
              <line x1="105.98" y1="98.52" x2="141.98" y2="98.52" style="fill: none;stroke: #373e5a;stroke-linecap: round;stroke-linejoin: round"/>
              <g>
                <line x1="105.98" y1="105.52" x2="112.98" y2="105.52" style="fill: none;stroke: #373e5a;stroke-linecap: round;stroke-linejoin: round"/>
                <line x1="118.06" y1="105.52" x2="132.44" y2="105.52" style="fill: none;stroke: #373e5a;stroke-linecap: round;stroke-linejoin: round;stroke-dasharray: 11.846173286437988,5.076930999755859"/>
                <line x1="134.98" y1="105.52" x2="141.98" y2="105.52" style="fill: none;stroke: #373e5a;stroke-linecap: round;stroke-linejoin: round"/>
              </g>
              <line x1="105.98" y1="115.52" x2="119.98" y2="115.52" style="fill: none;stroke: #373e5a;stroke-linecap: round;stroke-linejoin: round;stroke-dasharray: 13.999882698059082"/>
              <line x1="95.98" y1="69.52" x2="109.98" y2="69.52" style="fill: none;stroke: #373e5a;stroke-linecap: round;stroke-linejoin: round;stroke-dasharray: 13.999882698059082"/>
              <line x1="105.98" y1="85.52" x2="141.98" y2="85.52" style="fill: none;stroke: #373e5a;stroke-linecap: round;stroke-linejoin: round"/>
              <g>
                <line x1="105.98" y1="92.52" x2="112.98" y2="92.52" style="fill: none;stroke: #373e5a;stroke-linecap: round;stroke-linejoin: round"/>
                <line x1="118.06" y1="92.52" x2="132.44" y2="92.52" style="fill: none;stroke: #373e5a;stroke-linecap: round;stroke-linejoin: round;stroke-dasharray: 11.846173286437988,5.076930999755859"/>
                <line x1="134.98" y1="92.52" x2="141.98" y2="92.52" style="fill: none;stroke: #373e5a;stroke-linecap: round;stroke-linejoin: round"/>
              </g>
              <line x1="105.98" y1="102.52" x2="119.98" y2="102.52" style="fill: none;stroke: #373e5a;stroke-linecap: round;stroke-linejoin: round;stroke-dasharray: 13.999882698059082"/>
              <line x1="95.98" y1="109.52" x2="109.98" y2="109.52" style="fill: none;stroke: #373e5a;stroke-linecap: round;stroke-linejoin: round;stroke-dasharray: 13.999882698059082"/>
              <g>
                <line x1="105.98" y1="79.52" x2="107.98" y2="79.52" style="fill: none;stroke: #373e5a;stroke-linecap: round;stroke-linejoin: round"/>
                <line x1="135.46" y1="79.52" x2="184.25" y2="79.52" style="fill: none;stroke: #373e5a;stroke-linecap: round;stroke-linejoin: round;stroke-dasharray: 3.789468765258789,27.473648071289062"/>
                <line x1="197.98" y1="79.52" x2="199.98" y2="79.52" style="fill: none;stroke: #373e5a;stroke-linecap: round;stroke-linejoin: round"/>
              </g>
            </g>
            <g>
              <line x1="141.98" y1="45.52" x2="147.48" y2="45.52" style="fill: none;stroke: #373e5a;stroke-linecap: round;stroke-linejoin: round"/>
              <line x1="150.78" y1="45.52" x2="173.84" y2="45.52" style="fill: none;stroke: #373e5a;stroke-linecap: round;stroke-linejoin: round;stroke-dasharray: 9.058812141418457,3.2941133975982666"/>
              <line x1="175.48" y1="45.52" x2="180.98" y2="45.52" style="fill: none;stroke: #373e5a;stroke-linecap: round;stroke-linejoin: round"/>
            </g>
          </g>
          <g>
            <path d="M166.89,93.3l22.69,1.16c3.52-15.53,14.77-25,22.26-29.72H185.41C170.29,74.52,166.89,93.3,166.89,93.3Z" style="fill: #fff;stroke: #3f4563;stroke-miterlimit: 10"/>
            <g>
              <path d="M185.83,92.7a3.35,3.35,0,0,1,3-2.46c.43-1.8,4.2-15.57,19.95-25.25H187.37c-5.7,3.47-13.37,10.55-17.78,24.59a4.21,4.21,0,0,1,1.66,2.17Z" style="fill: #fff;stroke: #3f4563;stroke-miterlimit: 10"/>
              <path d="M187.44,65.24h20.49a47,47,0,0,0-15.57,16,35,35,0,0,0-3.7,8.75,3.57,3.57,0,0,0-3,2.43l-14.21-.92a4.48,4.48,0,0,0-1.55-2c4.38-13.8,11.93-20.79,17.56-24.24m-.14-.5c-5.75,3.49-13.57,10.65-18,25a4,4,0,0,1,1.77,2.3l15,1a3.13,3.13,0,0,1,3-2.48s3.07-15.36,20.65-25.75Z" style="fill: none"/>
            </g>
            <path d="M182.49,86c-.15,1.2-1.51,2-3,1.85s-2.66-1.29-2.51-2.49,1.51-2,3-1.85S182.64,84.81,182.49,86Z" style="fill: #fff;stroke: #3f4563;stroke-miterlimit: 10"/>
            <path d="M196.41,64.74a3.45,3.45,0,0,0,2.72.73,4.31,4.31,0,0,0,2.36-.73Z" style="fill: #fff;stroke: #3f4563;stroke-miterlimit: 10"/>
            <ellipse cx="187.73" cy="72.83" rx="6.12" ry="3.82" transform="translate(-8.14 26.12) rotate(-7.79)" style="fill: #fff;stroke: #3f4563;stroke-linecap: round;stroke-linejoin: round"/>
          </g>
          <g>
            <g>
              <g style="isolation: isolate">
                <g style="isolation: isolate">
                  <path d="M231.11,71.41l-25.34,7.4a1.07,1.07,0,0,1,.32,0l25.34-7.4A1.07,1.07,0,0,0,231.11,71.41Z" style="fill: #fff"/>
                  <g style="clip-path: url(#clip-path)">
                    <g style="isolation: isolate">
                      <path d="M206.08,78.77l25.34-7.4h-.07L206,78.77h.07" style="fill: #fff;stroke: #373e5a;stroke-linecap: round;stroke-linejoin: round"/>
                      <path d="M206,78.77l25.34-7.4a1.07,1.07,0,0,0-.26,0l-25.34,7.4a1.07,1.07,0,0,1,.26,0" style="fill: #fff;stroke: #373e5a;stroke-linecap: round;stroke-linejoin: round"/>
                    </g>
                  </g>
                  <path d="M231.11,71.41l-25.34,7.4a1.07,1.07,0,0,1,.32,0l25.34-7.4A1.07,1.07,0,0,0,231.11,71.41Z" style="fill: none;stroke: #373e5a;stroke-linecap: round;stroke-linejoin: round"/>
                </g>
                <g style="isolation: isolate">
                  <path d="M272,147.28l25.34-7.4a1.12,1.12,0,0,0,.79-1.07l-25.34,7.4A1.12,1.12,0,0,1,272,147.28Z" style="fill: #fff"/>
                  <g style="clip-path: url(#clip-path-2)">
                    <g style="isolation: isolate">
                      <path d="M272,147.28l25.34-7.4a1.12,1.12,0,0,0,.79-1.07l-25.34,7.4a1.12,1.12,0,0,1-.79,1.07" style="fill: #fff;stroke: #373e5a;stroke-linecap: round;stroke-linejoin: round"/>
                    </g>
                  </g>
                  <path d="M272,147.28l25.34-7.4a1.12,1.12,0,0,0,.79-1.07l-25.34,7.4A1.12,1.12,0,0,1,272,147.28Z" style="fill: none;stroke: #373e5a;stroke-linecap: round;stroke-linejoin: round"/>
                </g>
                <polygon points="271.75 79.91 297.1 72.52 231.43 71.37 206.08 78.77 271.75 79.91" style="fill: #fff;stroke: #373e5a;stroke-linecap: round;stroke-linejoin: round"/>
                <polygon points="272.75 146.21 298.09 138.81 298.2 73.68 272.86 81.08 272.75 146.21" style="fill: #fff;stroke: #373e5a;stroke-linecap: round;stroke-linejoin: round"/>
                <path d="M206.08,78.77A1.1,1.1,0,0,0,205,79.89L204.86,145a1.14,1.14,0,0,0,1.11,1.15l65.67,1.15a1.11,1.11,0,0,0,1.11-1.12l.11-65.13a1.15,1.15,0,0,0-1.11-1.16Z" style="fill: #fff;stroke: #373e5a;stroke-linecap: round;stroke-linejoin: round"/>
                <g style="isolation: isolate">
                  <path d="M272.86,81.08l25.34-7.4a1.15,1.15,0,0,0-1.11-1.16l-25.34,7.4A1.15,1.15,0,0,1,272.86,81.08Z" style="fill: #fff"/>
                  <g style="clip-path: url(#clip-path-3)">
                    <g style="isolation: isolate">
                      <path d="M272.86,81.08l25.34-7.4a1.18,1.18,0,0,0-.46-.94l-25.34,7.4a1.18,1.18,0,0,1,.46.94" style="fill: #fff;stroke: #373e5a;stroke-linecap: round;stroke-linejoin: round"/>
                      <path d="M272.4,80.14l25.34-7.4a1.13,1.13,0,0,0-.22-.13L272.18,80a1.13,1.13,0,0,1,.22.13" style="fill: #fff;stroke: #373e5a;stroke-linecap: round;stroke-linejoin: round"/>
                      <path d="M272.18,80l25.34-7.4-.22-.07L272,79.94l.22.07" style="fill: #fff;stroke: #373e5a;stroke-linecap: round;stroke-linejoin: round"/>
                      <path d="M272,79.94l25.34-7.4-.2,0-25.34,7.4.2,0" style="fill: #fff;stroke: #373e5a;stroke-linecap: round;stroke-linejoin: round"/>
                    </g>
                  </g>
                  <path d="M272.86,81.08l25.34-7.4a1.15,1.15,0,0,0-1.11-1.16l-25.34,7.4A1.15,1.15,0,0,1,272.86,81.08Z" style="fill: none;stroke: #373e5a;stroke-linecap: round;stroke-linejoin: round"/>
                </g>
              </g>
              <polygon points="292.22 75.14 292.34 101.82 282.86 104.75 282.86 77.83 292.22 75.14" style="fill: #fff;stroke: #373e5a;stroke-linecap: round;stroke-linejoin: round"/>
              <polygon points="213.58 76.42 282.74 77.71 292.46 74.79 227.39 73.03 213.58 76.42" style="fill: #fff;stroke: #373e5a;stroke-linecap: round;stroke-linejoin: round"/>
              <line x1="288.23" y1="103.15" x2="288.23" y2="141.28" style="fill: none;stroke: #373e5a;stroke-linecap: round;stroke-linejoin: round"/>
            </g>
            <g id="Logo_Mark" data-name="Logo Mark">
              <g style="isolation: isolate">
                <polygon points="237.95 101.89 237.94 101.91 237.91 101.96 237.95 101.89" style="fill: #106235"/>
                <path d="M245.94,91a12.1,12.1,0,0,1,4.47.76,12.73,12.73,0,0,1,8,13.6,10.85,10.85,0,0,1,7.87,10.51,11.17,11.17,0,0,1-10.79,11.26,2.34,2.34,0,0,1-2.1-1.23l-3.39-6.2-3.76,6.41a2.43,2.43,0,0,1-2,1.21,2.36,2.36,0,0,1-2.1-1.23l-5-9.15a2.51,2.51,0,0,1,.93-3.35,2.34,2.34,0,0,1,3.25.9l3,5.48,3.75-6.4a2.45,2.45,0,0,1,2-1.21,2.37,2.37,0,0,1,2.1,1.23L256.8,122a6.26,6.26,0,0,0,4.68-6.1,6,6,0,0,0-6-6.05,2.38,2.38,0,0,1-2.4-2.41,2.54,2.54,0,0,1,.19-1,7.94,7.94,0,0,0-4.54-10.15,7.37,7.37,0,0,0-2.73-.46,8.42,8.42,0,0,0-7.65,5.36,2.54,2.54,0,0,0,.15-.92,2.43,2.43,0,0,0-.88-1.84,15.54,15.54,0,0,0-2.38-1.6A13.3,13.3,0,0,1,245.94,91Z" style="fill: #1976CC"/>
                <path d="M227.51,94.95a15.42,15.42,0,0,1,7.72,1.91,12.94,12.94,0,0,0-1.37,2.69,2.52,2.52,0,0,0-.16.87,2.46,2.46,0,0,0,.85,1.87,10.81,10.81,0,0,0-7-2.44,11.51,11.51,0,0,0-11.12,11.61,11.08,11.08,0,0,0,11.16,11.22l8.29-.14a2.38,2.38,0,0,1,2.4,2.41,2.47,2.47,0,0,1-2.39,2.49l-8.29.14a15.84,15.84,0,0,1-16-16A16.45,16.45,0,0,1,227.51,94.95Z" style="fill: #1976CC"/>
                <path d="M235.23,96.86a15.54,15.54,0,0,1,2.38,1.6,2.43,2.43,0,0,1,.88,1.84,2.52,2.52,0,0,1-.16.94l-.06.15,0,.07-.06.12-.06.11-.05.06-.1.14,0,.06-.11.13-.07.06-.1.09-.1.08-.09.06-.11.07-.08.06-.12.06-.09,0-.12.06-.1,0-.11,0-.11,0-.11,0-.13,0h-.46l-.11,0-.11,0-.14,0-.08,0-.18-.06-.05,0-.17-.07-.05,0-.12-.07-.1-.06-.07-.05-.13-.09a2.46,2.46,0,0,1-.89-1.9,2.52,2.52,0,0,1,.16-.87A12.94,12.94,0,0,1,235.23,96.86Z" style="fill: #1976CC"/>
              </g>
            </g>
          </g>
          <g>
            <polygon points="307.1 130.15 303.25 132.07 302.07 136.69 304.46 140.38 303.39 142.28 299.15 141.89 296.14 145.04 296.51 149.5 294.7 150.61 291.18 148.1 286.77 149.35 284.94 153.38 282.83 153.38 281 149.35 276.6 148.1 273.07 150.61 271.26 149.5 271.63 145.04 268.63 141.89 264.38 142.28 263.31 140.38 265.71 136.69 264.52 132.07 260.67 130.15 260.67 127.95 264.52 126.03 265.71 121.41 263.31 117.72 264.38 115.82 268.63 116.2 271.63 113.05 271.26 108.6 273.07 107.49 276.6 109.99 281 108.75 282.83 104.72 284.94 104.72 286.77 108.75 291.18 109.99 294.7 107.49 296.51 108.6 296.14 113.05 299.14 116.2 303.39 115.82 304.46 117.72 302.07 121.41 303.25 126.03 307.1 127.95 307.1 130.15" style="fill: #fff;stroke: #fff;stroke-miterlimit: 10;stroke-width: 5px"/>
            <polygon points="307.1 130.15 303.25 132.07 302.07 136.69 304.46 140.38 303.39 142.28 299.15 141.89 296.14 145.04 296.51 149.5 294.7 150.61 291.18 148.1 286.77 149.35 284.94 153.38 282.83 153.38 281 149.35 276.6 148.1 273.07 150.61 271.26 149.5 271.63 145.04 268.63 141.89 264.38 142.28 263.31 140.38 265.71 136.69 264.52 132.07 260.67 130.15 260.67 127.95 264.52 126.03 265.71 121.41 263.31 117.72 264.38 115.82 268.63 116.2 271.63 113.05 271.26 108.6 273.07 107.49 276.6 109.99 281 108.75 282.83 104.72 284.94 104.72 286.77 108.75 291.18 109.99 294.7 107.49 296.51 108.6 296.14 113.05 299.14 116.2 303.39 115.82 304.46 117.72 302.07 121.41 303.25 126.03 307.1 127.95 307.1 130.15" style="fill: #fff;stroke: #373e5a;stroke-miterlimit: 10"/>
            <ellipse cx="283.89" cy="129.05" rx="14.79" ry="15.5" style="fill: none;stroke: #373e5a;stroke-linecap: round;stroke-linejoin: round;stroke-dasharray: 2.003669261932373,3.0055038928985596"/>
            <ellipse cx="283.89" cy="129.05" rx="11.05" ry="11.58" style="fill: none;stroke: #373e5a;stroke-miterlimit: 10"/>
            <path d="M275.11,135.94a12,12,0,0,1-1.12-5.08,11.32,11.32,0,0,1,11-11.58,10.85,10.85,0,0,1,8.64,4.36" style="fill: none;stroke: #373e5a;stroke-miterlimit: 10"/>
          </g>
          <g>
            <path d="M125.11,141C63.36,150.1,2.76,141,2.76,141S.5,140.48.5,139.87V126c0-12.81,0-24.91,21-31.82,13.84-4.54,21.33-9.79,24.85-17.5a47.11,47.11,0,0,1-4.92-7.43l0-.07a65.84,65.84,0,0,1-4-14.06,24.2,24.2,0,0,1-1.91-2.91,13.56,13.56,0,0,1-2.24-5.94l0-.54c-.18-6-.06-9.44,1.15-10.68a1.8,1.8,0,0,1,.59-.41c-1-2.87-1.8-7.4-.35-11A43.3,43.3,0,0,1,37.44,18l-1,0a1.12,1.12,0,0,1-.59-2.06s1.49-1,4.23-5A23.37,23.37,0,0,1,54.84.87a27.37,27.37,0,0,1,9.25.08A27.37,27.37,0,0,1,73.35.87a23.37,23.37,0,0,1,14.76,10c2.74,3.93,4.22,5,4.24,5a1.12,1.12,0,0,1-.6,2l-1,0a43.3,43.3,0,0,1,2.74,5.67c1.45,3.57.69,8.1-.35,11a1.8,1.8,0,0,1,.59.41c1.2,1.24,1.33,4.71,1.15,10.68l0,.54a13.55,13.55,0,0,1-2.24,5.94,24.2,24.2,0,0,1-1.91,2.91,65.84,65.84,0,0,1-4,14.06l0,.07a47.56,47.56,0,0,1-5.83,8.53c3.72,7.12,11,12,24.31,16.39,21.07,6.9,21.06,19,21,31.82v13a3.28,3.28,0,0,1-.22,1.22A1.36,1.36,0,0,1,125.11,141Z" style="fill: #fff;stroke: #373e5a;stroke-miterlimit: 10"/>
            <path d="M112.93,129.68s1.83,4.63,1.56,12.7" style="fill: none;stroke: #373e5a;stroke-linecap: round;stroke-linejoin: round"/>
            <path d="M14.12,129.68s-1.83,4.63-1.56,12.7" style="fill: none;stroke: #373e5a;stroke-linecap: round;stroke-linejoin: round"/>
          </g>
          <path d="M197.72,130.29a5,5,0,0,0,2.17-.48,4.19,4.19,0,0,0,.82-.48l.22-.17.2.11c6.37,3.76,14.63,5.16,21.47,5.6l1,.06h.16a82.44,82.44,0,0,0,11.85-.22l.34,0-.11.18a.85.85,0,0,0-.15.39.69.69,0,0,0,.33.6,2.36,2.36,0,0,0,.87.36l.19,0-7.92,8.63h-.21a6,6,0,0,0-4.54,2l-.09.1-.18,0-.66.06-1,.09a86.52,86.52,0,0,1-11.47.2h-.31c-15.82-.87-24.53-6-24.64-6.1l-.11-.07.13-.1c.76-.55,1-1,1.08-1.38a1,1,0,0,0-.49-.89,2.51,2.51,0,0,0-.64-.32l-.18-.06,10.67-8.32.19,0a4.53,4.53,0,0,0,.83.12h.18" style="fill: #edf0f3"/>
          <path d="M199.62,126.87l-17.35,13.39.16.12.49.34c2.41,1.6,10.9,6.38,27.53,7.32l.43,0H211a114.75,114.75,0,0,0,14.28-.21l.25,0,1.35-.11.73-.06.5,0,1-.1,12.6-14-1.41.17a105.66,105.66,0,0,1-16.23.51h-.2l-.38,0c-8-.45-16.84-2.08-22.88-6.47-.35-.25-.68-.51-1-.78" style="fill: #edf0f3"/>
          <path d="M182.27,140.25l17.35-13.39c.33.27.66.53,1,.78,6,4.39,14.9,6,22.88,6.47l.38,0h.2a105.66,105.66,0,0,0,16.23-.51l1.41-.17-12.6,14-1,.1-.5,0-.73.06-1.35.11-.25,0a114.75,114.75,0,0,1-14.28.21h-.17l-.43,0c-16.63-.94-25.12-5.72-27.53-7.32l-.49-.34-.16-.12" style="fill: #3f4563"/>
          <path d="M199.72,126.38l-18.07,13.95.08.06.26.2c1.55,1.12,10.22,6.78,28.7,7.75a119.74,119.74,0,0,0,18.56-.56l.17,0,13.17-14.67-.42.06a102.06,102.06,0,0,1-18.07.72c-8-.42-17-2-23-6.42q-.6-.44-1.17-.91l-.18-.15" style="fill: #fff;stroke: #3f4563;stroke-linecap: round;stroke-linejoin: round"/>
          <path d="M223.69,139.18h0l.28,0a.93.93,0,0,1,.39.16.56.56,0,0,1,.24.51,2,2,0,0,1-.81,1.24,5.54,5.54,0,0,1-2.23,1.18,3.13,3.13,0,0,1-.9.1h-.14l-.13,0a1.16,1.16,0,0,1-.4-.16.57.57,0,0,1-.24-.51,2,2,0,0,1,.81-1.25,5.44,5.44,0,0,1,2.23-1.17,3.65,3.65,0,0,1,.59-.1h.32" style="fill: #fff"/>
          <path d="M211.87,136.1h.06l.52.05.33.06a3.35,3.35,0,0,1,1.27.53,1.64,1.64,0,0,1,.73,1.46,3.84,3.84,0,0,1-1.5,2.47,11.5,11.5,0,0,1-4.75,2.37,9.5,9.5,0,0,1-2.77.3h-.12l-.47-.05-.22,0-.11,0a3.34,3.34,0,0,1-1.28-.52,1.65,1.65,0,0,1-.73-1.46,3.83,3.83,0,0,1,1.5-2.46,11.58,11.58,0,0,1,4.75-2.38,10.47,10.47,0,0,1,2.12-.3h.67" style="fill: #fff"/>
          <path d="M199.82,134.34l.28,0a.85.85,0,0,1,.39.16.56.56,0,0,1,.24.51,2,2,0,0,1-.8,1.25,5.57,5.57,0,0,1-2.23,1.16,3.08,3.08,0,0,1-.91.11l-.27,0a1,1,0,0,1-.39-.17.56.56,0,0,1-.24-.51,2,2,0,0,1,.81-1.24,5.41,5.41,0,0,1,2.22-1.17,3.53,3.53,0,0,1,.7-.1h.21" style="fill: #fff"/>
          <path d="M200.87,129.6a6.45,6.45,0,0,1-1.12.56,6.1,6.1,0,0,1-1.82.41,5.43,5.43,0,0,1-.61,0h-.09l-.18,0-.37-.05-.09,0-10,7.83a3,3,0,0,1,.53.31,1.2,1.2,0,0,1,.59,1c0,.4-.32.89-1.08,1.47,1.07.6,9.52,5.13,24.14,6l.35,0h.12a85.86,85.86,0,0,0,11.66-.22l1.14-.1a6.92,6.92,0,0,1,4.9-2.16l7.5-8.16a2.64,2.64,0,0,1-.84-.38.81.81,0,0,1-.41-.74.9.9,0,0,1,.08-.29l-.62.05a87.84,87.84,0,0,1-11,.14h-.28l-.33,0c-6.57-.37-14.56-1.59-21-4.94q-.61-.31-1.19-.65" style="fill: #fff"/>
          <path d="M200.93,129.16l-.22.17a4.19,4.19,0,0,1-.82.48,5,5,0,0,1-2.17.48h-.18a4.53,4.53,0,0,1-.83-.12l-.19,0-10.67,8.32.18.06a2.51,2.51,0,0,1,.64.32,1,1,0,0,1,.49.89c0,.37-.32.83-1.08,1.38l-.13.1.11.07c.11.07,8.82,5.23,24.64,6.1H211a86.52,86.52,0,0,0,11.47-.2l1-.09.66-.06.18,0,.09-.1a6,6,0,0,1,4.54-2h.21l7.92-8.63-.19,0a2.36,2.36,0,0,1-.87-.36.69.69,0,0,1-.33-.6.85.85,0,0,1,.15-.39l.11-.18-.34,0a82.44,82.44,0,0,1-11.85.22h-.16l-1-.06c-6.84-.44-15.1-1.84-21.47-5.6l-.2-.11" style="fill: none;stroke: #3f4563;stroke-miterlimit: 10"/>
          <path d="M203.08,141.2a3.76,3.76,0,0,1,1.46-2.38,11.13,11.13,0,0,1,7.22-2.58,5.65,5.65,0,0,1,.87.11,3.26,3.26,0,0,1,1.21.5,1.57,1.57,0,0,1,.69,1.41,3.74,3.74,0,0,1-1.46,2.38,11.11,11.11,0,0,1-7.21,2.58,5.62,5.62,0,0,1-.87-.11,3.37,3.37,0,0,1-1.21-.5,1.56,1.56,0,0,1-.69-1.41" style="fill: #3f4563"/>
          <path d="M211.87,136.1h-.67a10.47,10.47,0,0,0-2.12.3,11.58,11.58,0,0,0-4.75,2.38,3.83,3.83,0,0,0-1.5,2.46,1.65,1.65,0,0,0,.73,1.46,3.34,3.34,0,0,0,1.28.52l.11,0,.22,0,.47.05h.12a9.5,9.5,0,0,0,2.77-.3,11.5,11.5,0,0,0,4.75-2.37,3.84,3.84,0,0,0,1.5-2.47,1.64,1.64,0,0,0-.73-1.46,3.35,3.35,0,0,0-1.27-.53l-.33-.06-.52-.05h-.06" style="fill: #3f4563"/>
          <path d="M211.75,136.24a11.13,11.13,0,0,0-7.22,2.58,3.76,3.76,0,0,0-1.46,2.38,1.56,1.56,0,0,0,.69,1.41,3.37,3.37,0,0,0,1.21.5,5.62,5.62,0,0,0,.87.11,11.11,11.11,0,0,0,7.21-2.58,3.74,3.74,0,0,0,1.46-2.38,1.57,1.57,0,0,0-.69-1.41,3.26,3.26,0,0,0-1.21-.5,5.65,5.65,0,0,0-.87-.11" style="fill: #fff;stroke: #3f4563;stroke-miterlimit: 10"/>
          <path d="M223.49,139.45a2.29,2.29,0,0,0-.62.07,4.81,4.81,0,0,0-1.88,1,1.87,1.87,0,0,0-.7,1,.42.42,0,0,0,.17.42.6.6,0,0,0,.24.11l.17,0a2.29,2.29,0,0,0,.62-.07,4.69,4.69,0,0,0,1.89-1,1.85,1.85,0,0,0,.69-1,.43.43,0,0,0-.17-.42.72.72,0,0,0-.24-.11l-.17,0" style="fill: #fff"/>
          <path d="M220.28,141.58a1.87,1.87,0,0,1,.7-1,4.81,4.81,0,0,1,1.88-1,2.29,2.29,0,0,1,.62-.07l.17,0a.72.72,0,0,1,.24.11.43.43,0,0,1,.17.42,1.85,1.85,0,0,1-.69,1,4.69,4.69,0,0,1-1.89,1,2.29,2.29,0,0,1-.62.07l-.17,0a.6.6,0,0,1-.24-.11.42.42,0,0,1-.17-.42" style="fill: #3f4563"/>
          <path d="M223.69,139.18h-.32a3.65,3.65,0,0,0-.59.1,5.44,5.44,0,0,0-2.23,1.17,2,2,0,0,0-.81,1.25.57.57,0,0,0,.24.51,1.16,1.16,0,0,0,.4.16l.13,0h.14a3.13,3.13,0,0,0,.9-.1,5.54,5.54,0,0,0,2.23-1.18,2,2,0,0,0,.81-1.24.56.56,0,0,0-.24-.51.93.93,0,0,0-.39-.16l-.28,0" style="fill: #3f4563"/>
          <path d="M199.63,134.61a2.34,2.34,0,0,0-.64.07,4.78,4.78,0,0,0-1.89,1,1.8,1.8,0,0,0-.7,1.09.41.41,0,0,0,.17.37.65.65,0,0,0,.24.11l.17,0a2.21,2.21,0,0,0,.62-.07,4.85,4.85,0,0,0,1.89-1,1.86,1.86,0,0,0,.7-1.05.43.43,0,0,0-.17-.42.66.66,0,0,0-.24-.11l-.16,0" style="fill: #fff"/>
          <path d="M196.4,136.78a1.8,1.8,0,0,1,.7-1.09,4.78,4.78,0,0,1,1.89-1,2.34,2.34,0,0,1,.64-.07l.16,0a.66.66,0,0,1,.24.11.43.43,0,0,1,.17.42,1.86,1.86,0,0,1-.7,1.05,4.85,4.85,0,0,1-1.89,1,2.21,2.21,0,0,1-.62.07l-.17,0a.65.65,0,0,1-.24-.11.41.41,0,0,1-.17-.37" style="fill: #3f4563"/>
          <path d="M199.82,134.34h-.21a3.53,3.53,0,0,0-.7.1,5.41,5.41,0,0,0-2.22,1.17,2,2,0,0,0-.81,1.24.56.56,0,0,0,.24.51,1,1,0,0,0,.39.17l.27,0a3.08,3.08,0,0,0,.91-.11,5.57,5.57,0,0,0,2.23-1.16,2,2,0,0,0,.8-1.25.56.56,0,0,0-.24-.51.85.85,0,0,0-.39-.16l-.28,0" style="fill: #3f4563"/>
          <path d="M142.17,112.44s22.24,5.87,37.52-10.29l8.89,19.34s-15.17,15.87-41.75,11.37Z" style="fill: #fff;stroke: #3f4563;stroke-miterlimit: 10"/>
          <g>
            <path d="M148.22,128.71l-2.86-11.94a2.26,2.26,0,0,0,1.56-2.17,40.43,40.43,0,0,0,30.63-8.46,2.43,2.43,0,0,0,3.19,1.24l5.16,11.42a2.88,2.88,0,0,0-1.2,4s-14.38,12-33.37,8.89C151.34,131.7,150.79,128.57,148.22,128.71Z" style="fill: #fff;stroke: #3f4563;stroke-miterlimit: 10"/>
            <path d="M148.22,128.71l-2.86-11.94a2.26,2.26,0,0,0,1.56-2.17,40.43,40.43,0,0,0,30.63-8.46,2.43,2.43,0,0,0,3.19,1.24l5.16,11.42a2.88,2.88,0,0,0-1.2,4s-14.38,12-33.37,8.89C151.34,131.7,150.79,128.57,148.22,128.71Z" style="fill: none"/>
          </g>
          <path d="M170.7,119.77c1,2.64,0,5.4-2.11,6.16s-4.64-.76-5.61-3.41,0-5.4,2.11-6.16S169.74,117.12,170.7,119.77Z" style="fill: #fff;stroke: #3f4563;stroke-linecap: round;stroke-linejoin: round"/>
          <path d="M156.73,122.45c.41,1.13.18,2.25-.53,2.51s-1.62-.46-2-1.59-.18-2.25.53-2.51S156.32,121.32,156.73,122.45Z" style="fill: #fff;stroke: #3f4563;stroke-miterlimit: 10"/>
          <path d="M178.27,115.08c.41,1.13.18,2.25-.53,2.51s-1.62-.46-2-1.59-.18-2.25.53-2.51S177.85,113.95,178.27,115.08Z" style="fill: #fff;stroke: #3f4563;stroke-miterlimit: 10"/>
          <g>
            <path d="M197.85,97.94s9.51,24,34.7,27l-11.89,21s-24.85-3.1-38.54-30.12Z" style="fill: #fff;stroke: #3f4563;stroke-miterlimit: 10"/>
            <g>
              <path d="M186.9,114.29,196,103.72a2.62,2.62,0,0,0,3,0,45.41,45.41,0,0,0,28.39,22,2.7,2.7,0,0,0,1,3.72l-7.09,12.3a3.33,3.33,0,0,0-4.51,1.6s-20.72-5-30.62-24.21C186.22,119.1,188.74,116.52,186.9,114.29Z" style="fill: #8fb867"/>
              <path d="M186.9,114.29,196,103.72a2.62,2.62,0,0,0,3,0,45.41,45.41,0,0,0,28.39,22,2.7,2.7,0,0,0,1,3.72l-7.09,12.3a3.33,3.33,0,0,0-4.51,1.6s-20.72-5-30.62-24.21C186.22,119.1,188.74,116.52,186.9,114.29Z" style="fill: #fff;stroke: #3f4563;stroke-linecap: round;stroke-linejoin: round"/>
            </g>
            <g>
              <path d="M210.25,128.62c-1.79,2.64-5,3.63-7.11,2.21s-2.41-4.71-.62-7.35,5-3.63,7.11-2.21S212,126,210.25,128.62Z" style="fill: #fff;stroke: #3f4563;stroke-miterlimit: 10"/>
              <path d="M210.25,128.62c-1.79,2.64-5,3.63-7.11,2.21s-2.41-4.71-.62-7.35,5-3.63,7.11-2.21S212,126,210.25,128.62Z" style="fill: none;stroke: #3f4563;stroke-miterlimit: 10;stroke-width: 0px"/>
            </g>
            <path d="M198.39,117.8c-.77,1.13-2,1.67-2.67,1.2s-.66-1.77.11-2.9,2-1.67,2.67-1.2S199.16,116.66,198.39,117.8Z" style="fill: #fff;stroke: #3f4563;stroke-miterlimit: 10"/>
            <path d="M219.66,132.32c-.77,1.13-2,1.67-2.67,1.2s-.66-1.77.11-2.9,2-1.67,2.67-1.2S220.42,131.19,219.66,132.32Z" style="fill: #fff;stroke: #3f4563;stroke-miterlimit: 10"/>
          </g>
        </g>
      </g>
    </g>
  </g>
</svg>
