<svg id="icon-browsers-small" xmlns="http://www.w3.org/2000/svg" viewBox="0 0 50 50"><path d="M47,13.37H44.42V11.91a1.51,1.51,0,0,0-1.5-1.5H40.46V9A1.5,1.5,0,0,0,39,7.46H3A1.5,1.5,0,0,0,1.47,9V37.13A1.5,1.5,0,0,0,3,38.63H5.42v1.45a1.5,1.5,0,0,0,1.5,1.5H9.49V43a1.5,1.5,0,0,0,1.5,1.5H47a1.5,1.5,0,0,0,1.5-1.5V14.87A1.5,1.5,0,0,0,47,13.37ZM5.42,37.63H3a.5.5,0,0,1-.5-.5V13.92H5.42Zm0-25.72v1H2.47V9a.5.5,0,0,1,.5-.5H39a.5.5,0,0,1,.5.5v1.45H6.92A1.51,1.51,0,0,0,5.42,11.91Zm4.07,7.41V40.58H6.92a.5.5,0,0,1-.5-.5V16.87H9.49Zm.35-5.4a1.46,1.46,0,0,0-.35.95v1H6.42v-4a.51.51,0,0,1,.5-.5h36a.51.51,0,0,1,.5.5v1.46H11A1.45,1.45,0,0,0,9.84,13.92ZM47.48,43a.51.51,0,0,1-.5.5H11a.5.5,0,0,1-.5-.5V19.82h37Zm0-24.22h-37v-4a.5.5,0,0,1,.5-.5H47a.5.5,0,0,1,.5.5Zm-29-1.95h0a.5.5,0,0,1-.5.5h-.52a.5.5,0,0,1-.5-.5h0a.5.5,0,0,1,.5-.49H18A.51.51,0,0,1,18.51,16.87Zm-2.31,0h0a.5.5,0,0,1-.5.5h-.53a.5.5,0,0,1-.5-.5h0a.49.49,0,0,1,.49-.49h.53A.49.49,0,0,1,16.2,16.87Zm-2.3,0h0a.5.5,0,0,1-.5.5h-.47a.5.5,0,0,1-.5-.5h0a.49.49,0,0,1,.5-.49h.47A.49.49,0,0,1,13.9,16.87Z"/></svg>