<svg xmlns="http://www.w3.org/2000/svg" viewBox="0 0 186.88 100.7"><defs><style>.cls-1{fill:#6ec0ff;}.cls-2,.cls-4{fill:#444452;}.cls-3{fill:#c41230;}.cls-4{font-size:9.4px;font-family:Barlow-Regular, Barlow Regular;}.cls-5{letter-spacing:-0.01em;}</style></defs><title>cwatch-logo</title><g id="Layer_2" data-name="Layer 2"><g id="_1200" data-name="1200"><g id="Header"><g id="Logo"><path class="cls-1" d="M36.69,11.16A9.89,9.89,0,0,0,30.44.64a10.22,10.22,0,0,0-11.9,3.73,12.49,12.49,0,1,0-6,23.41H19A1.88,1.88,0,0,0,19,24h-6.5A8.74,8.74,0,1,1,18,8.54h0l.1.07.06,0,.07,0,.09.06,0,0,.13.06h0l.14,0,.06,0,.11,0L19,9h.55l.08,0,.09,0,.09,0,.08,0,.09,0,.07,0,.09,0,.07,0,.09,0a.18.18,0,0,1,.07-.05l.07-.06.08-.07.05-.05.09-.1,0,0h0l.07-.11a.1.1,0,0,0,0-.05l0-.08.05-.09,0-.06L21,7.77h0A6.46,6.46,0,0,1,29.1,4.15,6.12,6.12,0,0,1,32.64,12a1.94,1.94,0,0,0-.15.73,1.88,1.88,0,0,0,1.88,1.88,4.72,4.72,0,0,1,1,9.32L31.8,17.38a1.85,1.85,0,0,0-1.6-1,1.9,1.9,0,0,0-1.64.9l-2.95,4.85-2.34-4.23A1.87,1.87,0,1,0,20,19.74l3.89,7.07a1.88,1.88,0,0,0,1.61,1h0a1.88,1.88,0,0,0,1.6-.9L30.08,22l2.65,4.79a1.87,1.87,0,0,0,1.64,1,8.47,8.47,0,0,0,2.32-16.62"/><path class="cls-2" d="M71.73,52.35a10.63,10.63,0,0,1,4.75-.85c2.54,0,5.43.85,7,3.47V53.28a1.49,1.49,0,0,1,1.6-1.6,1.55,1.55,0,0,1,1.64,1.6V73a1.53,1.53,0,0,1-1.64,1.6,1.47,1.47,0,0,1-1.6-1.6V70.88c-1.29,2.58-4.58,4.05-7.2,4.05A11.28,11.28,0,0,1,69.9,73a11.77,11.77,0,0,1-5-10.45A11,11,0,0,1,71.77,52.3ZM83.51,64.93V61.42c0-4.41-3.07-6.67-7.07-6.85a7.93,7.93,0,0,0-7.6,4.76,9.48,9.48,0,0,0-.67,3.28,9,9,0,0,0,3.25,7.56A8.58,8.58,0,0,0,76,71.86c4.09,0,7.29-2.49,7.52-6.93"/><path class="cls-2" d="M119,54.12c-4.85,0-8.14,4-8.14,9A9.36,9.36,0,0,0,112.77,69a8.29,8.29,0,0,0,6.4,2.93A7.88,7.88,0,0,0,125.66,69a1.49,1.49,0,1,1,2.26,2,11.27,11.27,0,0,1-8.8,4,11.85,11.85,0,0,1-8.93-4,12.83,12.83,0,0,1-2.63-8.71c.36-6.58,5-11.07,11.78-11.07A10.18,10.18,0,0,1,127.52,55c1.29,1.47-1.11,3.33-2.35,1.87A7.94,7.94,0,0,0,119,54.12"/><path class="cls-2" d="M151.36,61.33a6.88,6.88,0,0,0-6.89-6.94c-4.31,0-8.36,3-8.36,7.6V73.06a1.47,1.47,0,0,1-1.6,1.6,1.54,1.54,0,0,1-1.69-1.6V46.43c0-1.91,3.29-1.86,3.29,0v9.34c1.6-3.11,5.07-4.4,8.4-4.4,5.16,0,10.1,3.55,10.1,10V73.06a1.47,1.47,0,0,1-1.6,1.6,1.53,1.53,0,0,1-1.65-1.6ZM134.7,47.6h-.47a1.41,1.41,0,0,1-1.41-1.41V38a1.41,1.41,0,0,1,1.41-1.41h.47A1.41,1.41,0,0,1,136.11,38v8.16a1.41,1.41,0,0,1-1.41,1.41"/><path class="cls-2" d="M3.31,55.7a11,11,0,0,1,8-3.31A10.89,10.89,0,0,1,19.65,56a1.61,1.61,0,0,1,.45,1,1.91,1.91,0,0,1-1.58,1.57,1.35,1.35,0,0,1-1.06-.56,8,8,0,0,0-6.12-2.7,8.18,8.18,0,0,0-5.95,2.47A8,8,0,0,0,3,63.73a8.23,8.23,0,0,0,8.36,8.36,8,8,0,0,0,6.29-2.86,1.54,1.54,0,0,1,1.12-.62,1.79,1.79,0,0,1,1.57,1.52,2,2,0,0,1-.45,1,10.79,10.79,0,0,1-8.53,3.93,11.36,11.36,0,0,1-8-19.37"/><path class="cls-2" d="M31.54,67.8,40.8,42.08c.47-1.67,2.3-1.67,3-.06L53.09,67.8,62.6,38c.69-2.43,3.76-1.45,3.12,1.62l-11.18,34c-.6,1.74-2.26,1.85-2.9.06L42.29,47.57,32.9,73.69c-.51,1.45-2.43,1.79-3-.06l-11.09-34C18.14,37,21.25,35.49,22,38Z"/><path class="cls-2" d="M102.81,51.77a1.4,1.4,0,1,1,0,2.8H98v12c0,2.54.4,5.2,3.42,5.2a4.91,4.91,0,0,0,2.09-.49A1.5,1.5,0,1,1,104.81,74a6.7,6.7,0,0,1-3.43.76c-5.33,0-6.62-3.92-6.62-8.14v-12H91.83a1.4,1.4,0,1,1,0-2.8h2.93V46.61a1.6,1.6,0,0,1,3.2,0v5.16Z"/><path class="cls-2" d="M96.58,47.6h-.39a1.41,1.41,0,0,1-1.41-1.41V38a1.41,1.41,0,0,1,1.41-1.41h.39A1.41,1.41,0,0,1,98,38v8.16a1.41,1.41,0,0,1-1.4,1.41"/><g id="comodo"><path class="cls-3" d="M166.23,87.34h-4.92v.34c0,.73.27,1.65,1.5,1.65h3.29c1.91,0,2.94.63,2.64,2.77l-.23,1.71c-.28,2.22-1.87,2.54-3.27,2.54h-1.86l.52-4.26a1.38,1.38,0,0,0-1.4-1.61H160.9L160.47,94l-.41,3.08c-.11.82.49,1.28,1.79,1.28h3.78c3.84,0,4.88-1.39,5.41-2.26a5.43,5.43,0,0,0,.61-1.81c0-.14.29-2.34.29-2.34a3.76,3.76,0,0,0-.76-3.09C170.29,87.85,168.67,87.34,166.23,87.34Z"/><path class="cls-3" d="M121.64,87.09h-.54c-3.87,0-5.89,1.65-6.31,4.72l-.26,2a3.82,3.82,0,0,0,.75,3.15,5.81,5.81,0,0,0,4.45,1.61h.54c3.78,0,5.79-1.6,6.27-4.46l0-.2.25-2a4,4,0,0,0-.76-3.26A5.78,5.78,0,0,0,121.64,87.09Zm2,4.81-.23,1.82a3.94,3.94,0,0,1-.68,1.89,2.69,2.69,0,0,1-2.23,1h-.59a2.2,2.2,0,0,1-2.06-.93,3.4,3.4,0,0,1-.16-1.86l.24-1.82a3.59,3.59,0,0,1,1-2.19,2.88,2.88,0,0,1,2.06-.71h.56a2.15,2.15,0,0,1,1.79.67A2.8,2.8,0,0,1,123.65,91.9Z"/><path class="cls-3" d="M186.06,88.65a5.78,5.78,0,0,0-4.42-1.56h-.54c-3.87,0-5.89,1.65-6.31,4.72l-.26,2a3.86,3.86,0,0,0,.75,3.15,5.81,5.81,0,0,0,4.45,1.61h.54c3.78,0,5.79-1.6,6.27-4.46l0-.2.26-2A4,4,0,0,0,186.06,88.65Zm-2.4,3.25-.24,1.82a3.94,3.94,0,0,1-.68,1.89,2.69,2.69,0,0,1-2.23,1h-.59a2.2,2.2,0,0,1-2.06-.93,3.32,3.32,0,0,1-.15-1.86l.23-1.82a3.59,3.59,0,0,1,.95-2.19,2.88,2.88,0,0,1,2.06-.71h.56a2.19,2.19,0,0,1,1.8.67A2.89,2.89,0,0,1,183.66,91.9Z"/><path class="cls-3" d="M152.76,87.09h-.54c-3.87,0-5.89,1.65-6.31,4.72l-.26,2A3.86,3.86,0,0,0,146.4,97a5.81,5.81,0,0,0,4.45,1.61h.54c3.78,0,5.79-1.6,6.27-4.46l0-.2.26-2a4,4,0,0,0-.77-3.26A5.78,5.78,0,0,0,152.76,87.09Zm2,4.81-.24,1.82a3.94,3.94,0,0,1-.68,1.89,2.69,2.69,0,0,1-2.23,1H151a2.21,2.21,0,0,1-2.06-.93,3.32,3.32,0,0,1-.15-1.86l.23-1.82A3.59,3.59,0,0,1,150,89.8a2.88,2.88,0,0,1,2.06-.71h.56a2.17,2.17,0,0,1,1.8.67A2.89,2.89,0,0,1,154.78,91.9Z"/><path class="cls-3" d="M140.54,88l-4.24,4.81-3-4.76a1.91,1.91,0,0,0-1.72-.67h-1.34l-1.35,11h1.64a1.71,1.71,0,0,0,1.16-.44,1.9,1.9,0,0,0,.64-1.18l.6-4.84,2.2,4.18a1,1,0,0,0,.71.51h0a1.14,1.14,0,0,0,.78-.46L140,91.92l-.8,6.43h1.59a1.73,1.73,0,0,0,1.16-.43,1.94,1.94,0,0,0,.63-1.18l1.17-9.41h-1.4A2.34,2.34,0,0,0,140.54,88Z"/><path class="cls-3" d="M108.78,87.34a9.1,9.1,0,0,0-1.52.12c-2.74.4-4.22,1.9-4.57,4.44l-.24,1.92a3.71,3.71,0,0,0,.72,3.05,5.06,5.06,0,0,0,3.91,1.51h3.33a2.24,2.24,0,0,0,2.16-2h-4.41a5.26,5.26,0,0,1-1.59-.2,1.44,1.44,0,0,1-1-1.22,4.68,4.68,0,0,1,0-1.18l.22-1.69a7.25,7.25,0,0,1,.26-1.07,2.46,2.46,0,0,1,.86-1.12,3.84,3.84,0,0,1,2.33-.53h2.45c1.7,0,2-2,2-2Z"/><text class="cls-4" transform="translate(87.65 98.35)"><tspan class="cls-5">b</tspan><tspan x="5.29" y="0">y</tspan></text></g></g></g></g></g></svg>