<svg xmlns="http://www.w3.org/2000/svg" width="621.13" height="348.14" viewBox="0 0 621.13 348.14">
  <title>free-laptop</title>
  <g id="Layer_2" data-name="Layer 2">
    <g id="Home_-_1200" data-name="Home - 1200">
      <g id="Hacked_" data-name="Hacked?">
        <g id="CTA">
          <g id="Illustration_bg" data-name="Illustration bg">
            <circle cx="353.98" cy="175.79" r="172.35" style="fill: #edf0f3;opacity: 0.4"/>
            <g>
              <line x1="504.04" y1="244.27" x2="450.53" y2="244.27" style="fill: none;stroke: #969c9c;stroke-linecap: round;stroke-linejoin: round"/>
              <path d="M463.62,234.27" style="fill: none"/>
              <path d="M513.16,234.27" style="fill: none"/>
              <g>
                <line x1="533.49" y1="244.27" x2="531.49" y2="244.27" style="fill: none;stroke: #969c9c;stroke-linecap: round;stroke-linejoin: round"/>
                <line x1="526.33" y1="244.27" x2="511.73" y2="244.27" style="fill: none;stroke: #969c9c;stroke-linecap: round;stroke-linejoin: round;stroke-dasharray: 3.435840606689453,5.15376091003418"/>
                <line x1="509.16" y1="244.27" x2="507.16" y2="244.27" style="fill: none;stroke: #969c9c;stroke-linecap: round;stroke-linejoin: round"/>
              </g>
            </g>
            <path d="M315.27,218.18" style="fill: none;stroke: #7e9b9e;stroke-miterlimit: 10"/>
            <line x1="146.95" y1="188.47" x2="188.17" y2="188.47" style="fill: none;stroke: #c6c6c6;stroke-linecap: round;stroke-linejoin: round;opacity: 0.4"/>
            <g style="opacity: 0.4">
              <g>
                <line x1="138.78" y1="180.74" x2="141.78" y2="180.74" style="fill: none;stroke: #969c9c;stroke-linecap: round;stroke-linejoin: round"/>
                <line x1="147.02" y1="180.74" x2="165.37" y2="180.74" style="fill: none;stroke: #969c9c;stroke-linecap: round;stroke-linejoin: round;stroke-dasharray: 5.243170738220215,5.243170738220215"/>
                <line x1="167.99" y1="180.74" x2="170.99" y2="180.74" style="fill: none;stroke: #969c9c;stroke-linecap: round;stroke-linejoin: round"/>
              </g>
            </g>
            <line x1="603.8" y1="23.68" x2="562.57" y2="23.68" style="fill: none;stroke: #969c9c;stroke-linecap: round;stroke-linejoin: round;opacity: 0.2"/>
            <g style="opacity: 0.4">
              <g>
                <line x1="620.63" y1="16.62" x2="617.63" y2="16.62" style="fill: none;stroke: #969c9c;stroke-linecap: round;stroke-linejoin: round"/>
                <line x1="612.39" y1="16.62" x2="594.04" y2="16.62" style="fill: none;stroke: #969c9c;stroke-linecap: round;stroke-linejoin: round;stroke-dasharray: 5.243170738220215,5.243170738220215"/>
                <line x1="591.42" y1="16.62" x2="588.42" y2="16.62" style="fill: none;stroke: #969c9c;stroke-linecap: round;stroke-linejoin: round"/>
              </g>
            </g>
            <line x1="391.81" y1="207.59" x2="540.8" y2="207.59" style="fill: none"/>
            <line x1="391.81" y1="206.28" x2="540.8" y2="206.28" style="fill: none"/>
            <g style="opacity: 0.30000000000000004">
              <line x1="0.5" y1="155.49" x2="7.67" y2="155.49" style="fill: none;stroke: #969c9c;stroke-miterlimit: 10"/>
              <line x1="4.09" y1="151.9" x2="4.09" y2="159.08" style="fill: none;stroke: #969c9c;stroke-linecap: round;stroke-linejoin: round"/>
              <line x1="7.67" y1="155.49" x2="0.5" y2="155.49" style="fill: none;stroke: #969c9c;stroke-linecap: round;stroke-linejoin: round"/>
            </g>
            <g style="opacity: 0.4">
              <line x1="212.19" y1="164.67" x2="219.36" y2="164.67" style="fill: none;stroke: #969c9c;stroke-miterlimit: 10"/>
              <line x1="215.78" y1="161.09" x2="215.78" y2="168.26" style="fill: none;stroke: #969c9c;stroke-linecap: round;stroke-linejoin: round"/>
              <line x1="219.36" y1="164.67" x2="212.19" y2="164.67" style="fill: none;stroke: #969c9c;stroke-linecap: round;stroke-linejoin: round"/>
            </g>
            <g style="opacity: 0.41000000000000003">
              <polygon points="551.9 68.57 552.59 68.03 551.77 67.71 551.9 68.57" style="fill: #969c9c"/>
              <polygon points="551.86 61 552.54 60.46 551.73 60.14 551.86 61" style="fill: #969c9c"/>
              <polygon points="550.74 62.77 550.71 62.76 550.84 63.61 550.86 63.59 551.51 63.08 550.74 62.77" style="fill: #969c9c"/>
              <polygon points="552.93 65.96 553.61 65.41 552.8 65.09 552.93 65.96" style="fill: #969c9c"/>
              <polygon points="550.01 57.95 549.98 57.94 550.05 58.42 550.08 58.41 550.43 58.12 550.01 57.95" style="fill: #969c9c"/>
              <polygon points="555.67 60.18 555.16 59.98 554.86 59.86 554.99 60.72 555.67 60.18" style="fill: #969c9c"/>
              <polygon points="555.08 75.87 555.76 75.32 554.95 75 555.08 75.87" style="fill: #969c9c"/>
              <polygon points="555.04 68.29 555.72 67.75 554.91 67.43 555.04 68.29" style="fill: #969c9c"/>
              <polygon points="554.01 70.91 554.69 70.37 553.88 70.05 554.01 70.91" style="fill: #969c9c"/>
              <polygon points="556.11 73.25 556.79 72.7 555.98 72.39 556.11 73.25" style="fill: #969c9c"/>
              <polygon points="552.98 73.53 553.66 72.99 552.85 72.67 552.98 73.53" style="fill: #969c9c"/>
              <polygon points="553.96 63.34 554.64 62.8 553.83 62.48 553.96 63.34" style="fill: #969c9c"/>
              <polygon points="556.96 62.2 557.09 63.06 557.77 62.52 556.96 62.2" style="fill: #969c9c"/>
              <polygon points="556.75 65.13 555.93 64.81 556.06 65.67 556.75 65.13" style="fill: #969c9c"/>
              <polygon points="558.17 68.01 558.85 67.47 558.04 67.15 558.17 68.01" style="fill: #969c9c"/>
              <polygon points="560.22 62.78 560.9 62.23 560.09 61.91 560.22 62.78" style="fill: #969c9c"/>
              <polygon points="556.21 88.39 556.88 87.85 556.08 87.53 556.21 88.39" style="fill: #969c9c"/>
              <polygon points="553.39 80.44 553.37 80.42 553.42 80.79 553.44 80.77 553.71 80.56 553.39 80.44" style="fill: #969c9c"/>
              <polygon points="556.16 80.82 556.84 80.28 556.03 79.96 556.16 80.82" style="fill: #969c9c"/>
              <polygon points="558.26 83.16 558.94 82.61 558.13 82.3 558.26 83.16" style="fill: #969c9c"/>
              <polygon points="555.13 83.44 555.81 82.9 555 82.58 555.13 83.44" style="fill: #969c9c"/>
              <polygon points="554.12 85.25 554.09 85.24 554.2 85.98 554.23 85.96 554.78 85.51 554.12 85.25" style="fill: #969c9c"/>
              <polygon points="558.22 75.58 558.9 75.04 558.09 74.72 558.22 75.58" style="fill: #969c9c"/>
              <polygon points="554.06 78.48 554.74 77.94 553.93 77.62 554.06 78.48" style="fill: #969c9c"/>
              <polygon points="557.19 78.2 557.87 77.66 557.06 77.34 557.19 78.2" style="fill: #969c9c"/>
              <polygon points="559.29 80.54 559.97 80 559.16 79.68 559.29 80.54" style="fill: #969c9c"/>
              <polygon points="557.14 70.63 557.82 70.09 557.01 69.77 557.14 70.63" style="fill: #969c9c"/>
              <polygon points="560.27 70.35 560.95 69.81 560.14 69.49 560.27 70.35" style="fill: #969c9c"/>
              <polygon points="559.24 72.97 559.92 72.42 559.11 72.11 559.24 72.97" style="fill: #969c9c"/>
              <polygon points="561.35 75.3 562.03 74.76 561.22 74.44 561.35 75.3" style="fill: #969c9c"/>
              <polygon points="559.07 64.53 559.2 65.39 559.88 64.85 559.07 64.53" style="fill: #969c9c"/>
              <polygon points="562.2 64.25 562.33 65.11 563.01 64.57 562.2 64.25" style="fill: #969c9c"/>
              <polygon points="561.3 67.73 561.98 67.19 561.17 66.87 561.3 67.73" style="fill: #969c9c"/>
              <polygon points="563.4 70.07 564.09 69.53 563.27 69.21 563.4 70.07" style="fill: #969c9c"/>
              <polygon points="565.46 64.83 566.14 64.29 565.33 63.97 565.46 64.83" style="fill: #969c9c"/>
              <polygon points="561.39 82.88 562.08 82.33 561.27 82.02 561.39 82.88" style="fill: #969c9c"/>
              <polygon points="557.24 85.78 557.92 85.23 557.11 84.91 557.24 85.78" style="fill: #969c9c"/>
              <polygon points="560.31 85.11 560.69 84.81 560.24 84.63 560.31 85.11" style="fill: #969c9c"/>
              <polygon points="561 77.38 560.19 77.06 560.32 77.92 561 77.38" style="fill: #969c9c"/>
              <polygon points="565.55 79.98 566.24 79.44 565.43 79.12 565.55 79.98" style="fill: #969c9c"/>
              <polygon points="562.42 80.26 563.1 79.72 562.29 79.4 562.42 80.26" style="fill: #969c9c"/>
              <polygon points="564.41 81.84 564.5 81.78 564.4 81.73 564.41 81.84" style="fill: #969c9c"/>
              <polygon points="562.38 72.69 563.06 72.14 562.25 71.83 562.38 72.69" style="fill: #969c9c"/>
              <polygon points="565.51 72.41 566.19 71.86 565.38 71.54 565.51 72.41" style="fill: #969c9c"/>
              <polygon points="565.16 74.48 564.35 74.16 564.48 75.02 565.16 74.48" style="fill: #969c9c"/>
              <polygon points="566.58 77.36 567.26 76.82 566.45 76.5 566.58 77.36" style="fill: #969c9c"/>
              <polygon points="563.45 77.64 564.13 77.1 563.32 76.78 563.45 77.64" style="fill: #969c9c"/>
              <polygon points="564.3 66.59 564.43 67.45 565.11 66.91 564.3 66.59" style="fill: #969c9c"/>
              <polygon points="567.43 66.31 567.56 67.17 568.25 66.63 567.43 66.31" style="fill: #969c9c"/>
              <polygon points="566.54 69.79 567.22 69.25 566.41 68.93 566.54 69.79" style="fill: #969c9c"/>
              <polygon points="568.51 71.26 568.64 72.13 569.32 71.58 568.51 71.26" style="fill: #969c9c"/>
              <polygon points="570.7 66.89 571.38 66.35 570.57 66.03 570.7 66.89" style="fill: #969c9c"/>
              <polygon points="567.61 74.74 568.29 74.2 567.48 73.88 567.61 74.74" style="fill: #969c9c"/>
              <polygon points="570.74 74.46 571.42 73.92 570.61 73.6 570.74 74.46" style="fill: #969c9c"/>
              <polygon points="569.72 77.08 570.4 76.54 569.59 76.22 569.72 77.08" style="fill: #969c9c"/>
              <polygon points="569.54 68.65 569.67 69.51 570.35 68.96 569.54 68.65" style="fill: #969c9c"/>
              <polygon points="572.8 69.23 573.48 68.68 572.67 68.36 572.8 69.23" style="fill: #969c9c"/>
              <polygon points="571.77 71.84 572.45 71.3 571.64 70.98 571.77 71.84" style="fill: #969c9c"/>
              <polygon points="574.56 73.64 573.75 73.32 573.88 74.18 574.56 73.64" style="fill: #969c9c"/>
              <polygon points="576.61 68.4 575.8 68.08 575.93 68.94 576.61 68.4" style="fill: #969c9c"/>
              <polygon points="575.58 71.02 574.77 70.7 574.9 71.56 575.58 71.02" style="fill: #969c9c"/>
              <polygon points="578.47 70.64 577.9 70.42 578 71.02 578.47 70.64" style="fill: #969c9c"/>
            </g>
            <g style="opacity: 0.30000000000000004">
              <line x1="477.83" y1="4.09" x2="485" y2="4.09" style="fill: none;stroke: #969c9c;stroke-miterlimit: 10"/>
              <line x1="481.42" y1="0.5" x2="481.42" y2="7.67" style="fill: none;stroke: #969c9c;stroke-linecap: round;stroke-linejoin: round"/>
              <line x1="485" y1="4.09" x2="477.83" y2="4.09" style="fill: none;stroke: #969c9c;stroke-linecap: round;stroke-linejoin: round"/>
            </g>
            <g>
              <line x1="204.31" y1="244.27" x2="257.82" y2="244.27" style="fill: none;stroke: #969c9c;stroke-linecap: round;stroke-linejoin: round"/>
              <path d="M244.74,234.27" style="fill: none"/>
              <path d="M195.2,234.27" style="fill: none"/>
              <g>
                <line x1="174.86" y1="244.27" x2="176.86" y2="244.27" style="fill: none;stroke: #969c9c;stroke-linecap: round;stroke-linejoin: round"/>
                <line x1="182.02" y1="244.27" x2="196.62" y2="244.27" style="fill: none;stroke: #969c9c;stroke-linecap: round;stroke-linejoin: round;stroke-dasharray: 3.435840606689453,5.15376091003418"/>
                <line x1="199.2" y1="244.27" x2="201.2" y2="244.27" style="fill: none;stroke: #969c9c;stroke-linecap: round;stroke-linejoin: round"/>
              </g>
            </g>
            <g style="opacity: 0.39">
              <polygon points="66.34 195.42 66.68 194.8 65.97 194.82 66.34 195.42" style="fill: #969c9c"/>
              <polygon points="63.9 189.82 64.24 189.2 63.53 189.22 63.9 189.82" style="fill: #969c9c"/>
              <polygon points="63.63 191.49 63.61 191.49 63.98 192.08 63.99 192.06 64.31 191.47 63.63 191.49" style="fill: #969c9c"/>
              <polygon points="66.28 193.15 66.61 192.53 65.91 192.55 66.28 193.15" style="fill: #969c9c"/>
              <polygon points="61.57 188.14 61.54 188.14 61.75 188.48 61.76 188.46 61.93 188.13 61.57 188.14" style="fill: #969c9c"/>
              <polygon points="66.47 187.99 66.03 188.01 65.77 188.01 66.14 188.61 66.47 187.99" style="fill: #969c9c"/>
              <polygon points="71.02 199.82 71.35 199.2 70.65 199.22 71.02 199.82" style="fill: #969c9c"/>
              <polygon points="68.58 194.22 68.91 193.6 68.21 193.62 68.58 194.22" style="fill: #969c9c"/>
              <polygon points="68.65 196.48 68.98 195.86 68.28 195.88 68.65 196.48" style="fill: #969c9c"/>
              <polygon points="70.95 197.55 71.28 196.93 70.58 196.95 70.95 197.55" style="fill: #969c9c"/>
              <polygon points="68.72 198.75 69.05 198.13 68.34 198.15 68.72 198.75" style="fill: #969c9c"/>
              <polygon points="66.21 190.88 66.54 190.26 65.84 190.28 66.21 190.88" style="fill: #969c9c"/>
              <polygon points="68.07 189.08 68.44 189.68 68.77 189.06 68.07 189.08" style="fill: #969c9c"/>
              <polygon points="68.84 191.33 68.14 191.35 68.51 191.95 68.84 191.33" style="fill: #969c9c"/>
              <polygon points="70.81 193.01 71.14 192.39 70.44 192.41 70.81 193.01" style="fill: #969c9c"/>
              <polygon points="70.67 188.47 71.01 187.86 70.3 187.88 70.67 188.47" style="fill: #969c9c"/>
              <polygon points="75.83 208.75 76.16 208.13 75.46 208.15 75.83 208.75" style="fill: #969c9c"/>
              <polygon points="71.22 203.74 71.19 203.74 71.35 204 71.36 203.97 71.49 203.73 71.22 203.74" style="fill: #969c9c"/>
              <polygon points="73.39 203.15 73.72 202.53 73.02 202.55 73.39 203.15" style="fill: #969c9c"/>
              <polygon points="75.69 204.22 76.03 203.6 75.32 203.62 75.69 204.22" style="fill: #969c9c"/>
              <polygon points="73.46 205.42 73.79 204.8 73.09 204.82 73.46 205.42" style="fill: #969c9c"/>
              <polygon points="73.28 207.09 73.26 207.09 73.58 207.6 73.59 207.58 73.86 207.07 73.28 207.09" style="fill: #969c9c"/>
              <polygon points="73.25 198.61 73.58 197.99 72.88 198.02 73.25 198.61" style="fill: #969c9c"/>
              <polygon points="71.09 202.09 71.42 201.47 70.72 201.49 71.09 202.09" style="fill: #969c9c"/>
              <polygon points="73.32 200.88 73.65 200.26 72.95 200.28 73.32 200.88" style="fill: #969c9c"/>
              <polygon points="75.62 201.95 75.96 201.33 75.25 201.35 75.62 201.95" style="fill: #969c9c"/>
              <polygon points="70.88 195.28 71.21 194.66 70.51 194.68 70.88 195.28" style="fill: #969c9c"/>
              <polygon points="73.11 194.08 73.45 193.46 72.74 193.48 73.11 194.08" style="fill: #969c9c"/>
              <polygon points="73.18 196.34 73.52 195.73 72.81 195.75 73.18 196.34" style="fill: #969c9c"/>
              <polygon points="75.48 197.41 75.82 196.79 75.12 196.81 75.48 197.41" style="fill: #969c9c"/>
              <polygon points="70.37 190.15 70.74 190.74 71.08 190.12 70.37 190.15" style="fill: #969c9c"/>
              <polygon points="72.61 188.94 72.98 189.54 73.31 188.92 72.61 188.94" style="fill: #969c9c"/>
              <polygon points="73.05 191.81 73.38 191.19 72.67 191.21 73.05 191.81" style="fill: #969c9c"/>
              <polygon points="75.35 192.87 75.68 192.25 74.98 192.28 75.35 192.87" style="fill: #969c9c"/>
              <polygon points="75.21 188.34 75.54 187.72 74.84 187.74 75.21 188.34" style="fill: #969c9c"/>
              <polygon points="77.93 203.01 78.26 202.39 77.56 202.41 77.93 203.01" style="fill: #969c9c"/>
              <polygon points="75.76 206.48 76.09 205.87 75.39 205.89 75.76 206.48" style="fill: #969c9c"/>
              <polygon points="77.83 205.02 78.02 204.67 77.63 204.68 77.83 205.02" style="fill: #969c9c"/>
              <polygon points="75.89 199.06 75.19 199.08 75.55 199.68 75.89 199.06" style="fill: #969c9c"/>
              <polygon points="80.09 199.54 80.42 198.92 79.72 198.94 80.09 199.54" style="fill: #969c9c"/>
              <polygon points="77.86 200.74 78.19 200.13 77.49 200.15 77.86 200.74" style="fill: #969c9c"/>
              <polygon points="79.84 201.29 79.88 201.21 79.79 201.21 79.84 201.29" style="fill: #969c9c"/>
              <polygon points="75.42 195.14 75.75 194.52 75.05 194.54 75.42 195.14" style="fill: #969c9c"/>
              <polygon points="77.65 193.94 77.98 193.32 77.28 193.34 77.65 193.94" style="fill: #969c9c"/>
              <polygon points="78.05 195.59 77.35 195.61 77.72 196.21 78.05 195.59" style="fill: #969c9c"/>
              <polygon points="80.02 197.27 80.36 196.65 79.65 196.68 80.02 197.27" style="fill: #969c9c"/>
              <polygon points="77.79 198.48 78.12 197.86 77.42 197.88 77.79 198.48" style="fill: #969c9c"/>
              <polygon points="74.91 190.01 75.28 190.61 75.61 189.99 74.91 190.01" style="fill: #969c9c"/>
              <polygon points="77.14 188.81 77.51 189.4 77.85 188.78 77.14 188.81" style="fill: #969c9c"/>
              <polygon points="77.58 191.67 77.91 191.05 77.21 191.07 77.58 191.67" style="fill: #969c9c"/>
              <polygon points="79.52 192.14 79.88 192.74 80.22 192.12 79.52 192.14" style="fill: #969c9c"/>
              <polygon points="79.75 188.2 80.08 187.58 79.38 187.6 79.75 188.2" style="fill: #969c9c"/>
              <polygon points="79.95 195 80.29 194.39 79.58 194.41 79.95 195" style="fill: #969c9c"/>
              <polygon points="82.19 193.8 82.52 193.18 81.82 193.2 82.19 193.8" style="fill: #969c9c"/>
              <polygon points="82.26 196.07 82.59 195.45 81.89 195.47 82.26 196.07" style="fill: #969c9c"/>
              <polygon points="79.45 189.87 79.82 190.47 80.15 189.85 79.45 189.87" style="fill: #969c9c"/>
              <polygon points="82.05 189.26 82.38 188.65 81.68 188.67 82.05 189.26" style="fill: #969c9c"/>
              <polygon points="82.12 191.53 82.45 190.91 81.75 190.94 82.12 191.53" style="fill: #969c9c"/>
              <polygon points="84.75 191.98 84.05 192 84.42 192.6 84.75 191.98" style="fill: #969c9c"/>
              <polygon points="84.62 187.44 83.91 187.46 84.28 188.06 84.62 187.44" style="fill: #969c9c"/>
              <polygon points="84.69 189.71 83.98 189.73 84.35 190.33 84.69 189.71" style="fill: #969c9c"/>
              <polygon points="86.7 188.51 86.22 188.53 86.47 188.94 86.7 188.51" style="fill: #969c9c"/>
            </g>
          </g>
          <g id="Illustration">
            <g>
              <path d="M455,87.34H252.95c-13.63,0-11.73,11.73-11.73,11.73V232.16H466.75V99.07S468.64,87.34,455,87.34Z" style="fill: #efefef;stroke: #969c9c;stroke-miterlimit: 10"/>
              <path d="M355.58,232.16H221.49s2,9,12.43,12.07H474c10.47-3.12,12.43-12.07,12.43-12.07Z" style="fill: #efefef;stroke: #969c9c;stroke-miterlimit: 10"/>
              <path d="M341.85,232a5.69,5.69,0,0,0,4,3.89H362.1a5.69,5.69,0,0,0,4-3.89Z" style="fill: none;stroke: #969c9c;stroke-miterlimit: 10"/>
              <rect x="252.99" y="100.35" width="201.46" height="123.67" style="fill: #fff;stroke: #969c9c;stroke-miterlimit: 10"/>
            </g>
            <polyline points="255.99 192.72 325.87 103.66 346.01 103.67 256.81 213.67" style="fill: #edf0f3;fill-rule: evenodd;opacity: 0.4"/>
            <polyline points="255.19 226.37 355.46 103.67 402.81 103.67 299.08 227.23" style="fill: #edf0f3;fill-rule: evenodd;opacity: 0.4"/>
            <text transform="translate(306.7 167.26)" style="font-size: 34.760189056396484px;fill: #373e5a;font-family: WorkSans-ExtraLight, Work Sans;letter-spacing: 0.06599346478749585em">$<tspan x="22.94" y="27.63" style="font-size: 82.32402801513672px;font-family: WorkSans-Medium, Work Sans;letter-spacing: -0.02699887631338114em">0</tspan></text>
          </g>
        </g>
      </g>
    </g>
  </g>
</svg>
