<svg id="Free_Malware_Removal_and_Repair" data-name="Free Malware Removal and Repair" xmlns="http://www.w3.org/2000/svg" viewBox="0 0 530 350"><defs><style>
.p-stroke{stroke:#969c9c;stroke-linecap:round;stroke-linejoin:round;stroke-width:1.5px;vector-effect:non-scaling-stroke;}
.dash{stroke-dasharray:2 3;}
.fill-light-blue-grey{fill:#edf0f3;}
.fill-grey{fill:#969c9c;}
.fill-white{fill:#fff;}
.fill-blue{fill:#373e5a;}
.opac-40{opacity:0.4;}
.opac-20{opacity:0.2;} 
	</style></defs><path id="lines" class="p-stroke opac-20" d="M57.06,189.4H98.29M513.91,24.61H472.68"/><circle id="background" class="fill-light-blue-grey opac-40" cx="265" cy="175.72" r="172.35"/><path id="plus" class="p-stroke opac-40" d="M391.53,1.43V8.61M395.12,5h-7.17M39.2,93.83V101m3.59-3.59H35.61M125.89,162v7.17m3.59-3.59H122.3"/><path id="tri" class="fill-grey opac-40" d="M461.89,68.64l.81.32-.68.54Zm.08-6.71.68-.54-.81-.32Zm-1.12,1.77h0l.13.85,0,0,.65-.52Zm2.2,3.18.68-.54-.81-.32Zm-2.92-8h0l.07.48,0,0,.36-.28Zm5.66,2.22-.51-.2-.3-.12.13.86ZM465.2,76.8l.68-.54-.81-.32Zm0-7.57.68-.54-.81-.32Zm-1,2.62.68-.54L464,71Zm2.1,2.34.68-.54-.81-.32Zm-3.13.28.68-.54L463,73.6Zm1-10.19.68-.54-.81-.32Zm3-1.14.13.86.68-.54Zm-.22,2.94-.81-.32.13.86Zm1.42,2.88.68-.54-.81-.32Zm2.06-5.24.68-.54-.81-.32Zm-4,25.61.68-.54-.8-.32Zm-2.81-8h0l.05.37,0,0,.26-.21Zm2.77.39.68-.54-.81-.32Zm2.1,2.34.68-.54-.81-.32Zm-3.13.28.68-.54-.81-.32Zm-1,1.81h0l.11.74,0,0,.56-.45Zm4.1-9.67L469,76l-.81-.32Zm-4.16,2.9.68-.54-.81-.32Zm3.13-.28.68-.54-.81-.32Zm2.1,2.34.68-.54-.81-.32Zm-2.15-9.91.68-.54-.81-.32Zm3.13-.28.68-.54-.81-.32Zm-1,2.62.68-.54-.81-.32Zm2.1,2.34.68-.54-.81-.32Zm-2.28-10.77.13.86.68-.54Zm3.13-.28.13.86.68-.54Zm-.9,3.48.68-.54-.81-.32Zm2.1,2.34.68-.54-.81-.32Zm2.06-5.24.68-.54-.81-.32Zm-4.06,18,.68-.54-.81-.32Zm-4.16,2.9.68-.54-.81-.32Zm3.07-.66.38-.3-.45-.18Zm.69-7.74L470.3,78l.13.86Zm4.55,2.6.68-.54-.81-.32Zm-3.13.28.68-.54-.81-.32Zm2,1.58.09-.07-.1,0Zm-2-9.16.68-.54-.81-.32Zm3.13-.28.68-.54-.81-.32Zm-.35,2.07-.81-.32.13.86Zm1.42,2.88.68-.54-.81-.32Zm-3.13.28.68-.54-.81-.32Zm.85-11.05.13.86.68-.54Zm3.13-.28.13.86.68-.54Zm-.9,3.48.68-.54-.81-.32Zm2,1.48.13.86.68-.54Zm2.19-4.37.68-.54-.81-.32Zm-3.08,7.85.68-.54-.81-.32Zm3.13-.28.68-.54-.81-.32Zm-1,2.62.68-.54-.81-.32Zm-.18-8.43.13.86.68-.54Zm3.26.58.68-.54-.81-.32Zm-1,2.62.68-.54-.81-.32Zm2.78,1.79-.81-.32.13.86Zm2.06-5.24-.81-.32.13.86Zm-1,2.62-.81-.32.13.86Zm2.88-.38-.56-.22.09.6ZM21.09,262.75l.7,0-.33.62Zm-2.07-5,.33-.62-.7,0Zm-.27,1.67h0l.37.59v0l.32-.59Zm2.64,1.66.33-.62-.7,0Zm-4.71-5h0l.21.33v0l.17-.32Zm4.9-.15h-.7l.37.6Zm4.55,11.82.33-.62-.7,0Zm-2.44-5.6.33-.62-.7,0Zm.07,2.27.33-.62-.7,0Zm2.3,1.07.33-.62-.7,0Zm-2.23,1.2.33-.62-.7,0Zm-2.51-7.87.33-.62-.7,0Zm1.86-1.8.37.6.33-.62Zm.77,2.25-.7,0,.37.6Zm2,1.68.33-.62-.7,0Zm-.14-4.54.33-.62-.7,0Zm5.15,20.27.33-.61-.7,0Zm-4.61-5h0l.16.25v0l.13-.24Zm2.17-.59.33-.62-.7,0Zm2.3,1.07.33-.62-.7,0Zm-2.23,1.2.33-.62-.7,0ZM28.4,275h0l.32.51v0L29,275Zm0-8.47.33-.62-.7,0ZM26.2,270l.33-.62-.7,0Zm2.23-1.2.33-.62-.7,0Zm2.3,1.07.33-.62-.7,0ZM26,263.21l.33-.62-.7,0Zm2.23-1.2.33-.62-.7,0Zm.07,2.27.33-.62-.7,0Zm2.3,1.07.33-.62-.7,0Zm-5.11-7.26.37.6.33-.62Zm2.23-1.2.37.6.33-.62Zm.44,2.87.33-.62-.7,0Zm2.3,1.07.33-.62-.7,0Zm-.14-4.54.33-.62-.7,0ZM33,270.94l.33-.62-.7,0Zm-2.17,3.47.33-.62-.7,0Zm2.07-1.47.19-.35h-.39ZM31,267l-.7,0,.37.6Zm4.2.48.33-.62-.7,0ZM33,268.68l.33-.62-.7,0Zm2,.54,0-.08H34.9Zm-4.42-6.15.33-.62-.7,0Zm2.23-1.2.33-.62-.7,0Zm.4,1.65-.7,0,.37.6Zm2,1.68.33-.62-.7,0Zm-2.23,1.2.33-.62-.7,0ZM30,257.94l.37.6.33-.62Zm2.23-1.2.37.6.33-.62Zm.44,2.87L33,259l-.7,0Zm1.93.47.37.6.33-.62Zm.23-3.94.33-.62-.7,0Zm.21,6.8.33-.62-.7,0Zm2.23-1.2.33-.62-.7,0Zm.07,2.27.33-.62-.7,0Zm-2.81-6.2.37.6.33-.62Zm2.6-.61.33-.62-.7,0Zm.07,2.27.33-.62-.7,0Zm2.64.45-.7,0,.37.6Zm-.14-4.54-.7,0,.37.6Zm.07,2.27-.7,0,.37.6Zm2-1.2h-.49l.26.41Z"/><g id="dashes" class="opac-40"><line class="p-stroke" x1="48.89" y1="181.67" x2="49.89" y2="181.67"/><line class="p-stroke dash" x1="53.13" y1="181.67" x2="78.49" y2="181.67"/><line class="p-stroke" x1="80.11" y1="181.67" x2="81.11" y2="181.67"/><line class="p-stroke" x1="530.75" y1="17.55" x2="529.75" y2="17.55"/><line class="p-stroke dash" x1="526.51" y1="17.55" x2="501.15" y2="17.55"/><line class="p-stroke" x1="499.53" y1="17.55" x2="498.53" y2="17.55"/><line class="p-stroke" x1="443.6" y1="245.2" x2="442.6" y2="245.2"/><line class="p-stroke dash" x1="439.43" y1="245.2" x2="419.86" y2="245.2"/><line class="p-stroke" x1="418.27" y1="245.2" x2="417.27" y2="245.2"/><line class="p-stroke" x1="111.31" y1="245.2" x2="110.31" y2="245.2"/><line class="p-stroke dash" x1="107.14" y1="245.2" x2="87.56" y2="245.2"/><line class="p-stroke" x1="85.98" y1="245.2" x2="84.98" y2="245.2"/></g><rect id="screen" class="fill-white" x="164.27" y="101.28" width="201.46" height="123.67"/><path id="computer" class="p-stroke fill-light-blue-grey" d="M414.16,245.2H360.64m-246.22,0h53.51M377.77,100V233.1H152.23V100S150.34,88.27,164,88.27H366C379.66,88.27,377.77,100,377.77,100ZM266.6,233.1H132.51s2,9,12.43,12.07H385.06c10.47-3.12,12.43-12.07,12.43-12.07Zm-13.48.53a5.81,5.81,0,0,0,3.76,3.2h16.24a5.79,5.79,0,0,0,3.85-3.4m-23.85.19M365.73,101.28H164.27V224.95H365.73Z"/><path id="reflection" class="fill-light-blue-grey opac-40" d="M164.75,190.21,237,101.8h20.14L164.76,215.42m48.75,9L317.1,101.81H269.75L169,224.4"/><path id="_0" data-name="$0" class="fill-blue" d="M226.11,168.19a9.57,9.57,0,0,1-5.27-1.67,7.4,7.4,0,0,1-2.87-4.28l.9-.49a6.41,6.41,0,0,0,2.47,4,8.63,8.63,0,0,0,4.76,1.63V157.24a31.35,31.35,0,0,1-4-1.06,6.07,6.07,0,0,1-2.54-1.69,4.52,4.52,0,0,1-1-3.13,5.28,5.28,0,0,1,.92-3,6.62,6.62,0,0,1,2.64-2.22,9.26,9.26,0,0,1,4-.89v-3.48h.83v3.48a8.83,8.83,0,0,1,4.62,1.37,7,7,0,0,1,2.64,3.7l-.8.63a6.48,6.48,0,0,0-2.31-3.54,7.6,7.6,0,0,0-4.15-1.32v10.43a28.1,28.1,0,0,1,4,1,6.09,6.09,0,0,1,2.52,1.69,4.52,4.52,0,0,1,1,3.13,5.06,5.06,0,0,1-2,4.17,8.93,8.93,0,0,1-5.47,1.67v3.48h-.83Zm0-22.11a7.47,7.47,0,0,0-4.81,1.51,4.64,4.64,0,0,0-1.79,3.74,3.72,3.72,0,0,0,.89,2.61,5.5,5.5,0,0,0,2.21,1.46,25.21,25.21,0,0,0,3.51.94Zm5.56,19.9a4.17,4.17,0,0,0,1.84-3.6,3.67,3.67,0,0,0-.89-2.57,5.52,5.52,0,0,0-2.21-1.46,25.72,25.72,0,0,0-3.48-.94v9.94A8.36,8.36,0,0,0,231.67,166ZM249,189.52q-5.31-7.12-5.31-20.87T249,147.78q5.31-7.12,15.6-7.12t15.64,7.12q5.35,7.12,5.35,20.87t-5.35,20.87q-5.35,7.12-15.64,7.12T249,189.52ZM273.58,184q3-5.14,3-15.35t-3-15.35a9.81,9.81,0,0,0-9-5.14q-11.94,0-11.94,20.5t11.94,20.5A9.81,9.81,0,0,0,273.58,184Z"/></svg>