<svg xmlns="http://www.w3.org/2000/svg" width="452.11" height="478.57" viewBox="0 0 452.11 478.57">
  <title>icon-bug-trail</title>
  <g id="Layer_2" data-name="Layer 2">
    <g id="Home_-_1200" data-name="Home - 1200">
      <g id="Malware_Removal" data-name="Malware Removal">
        <g>
          <path d="M451.61,478.07l-2-.11" style="fill: none;stroke: #373e5a;stroke-linecap: round;stroke-linejoin: round"/>
          <path d="M438.87,477.15c-6.13-.55-14.16-1.39-23.37-2.67" style="fill: none;stroke: #373e5a;stroke-linecap: round;stroke-linejoin: round;stroke-dasharray: 5.879024982452393,3.9193499088287354,10.778212547302246,5.879024982452393"/>
          <path d="M412.6,474.07c-59.65-8.66-163.44-35.22-131.56-114,44-108.73,162.87-170.49,42.92-175.93S315.15,143.63,263.43,82c-43.8-52.24-103.85-49.8-121.21-47.83" style="fill: none;stroke: #373e5a;stroke-linecap: round;stroke-linejoin: round;stroke-dasharray: 3.9193499088287354,10.778212547302246,5.879024982452393,3.9193499088287354,10.778212547302246,5.879024982452393"/>
          <path d="M139.3,34.5c-1.28.19-2,.32-2,.32" style="fill: none;stroke: #373e5a;stroke-linecap: round;stroke-linejoin: round"/>
        </g>
        <g id="Bug">
          <g id="Fills">
            <path d="M121.59,30.76s-1,1.28.17,2a2.27,2.27,0,0,0,1.12.34l1.38.27.23,0L123,32.27l.83-.15-.37-.6,1.6.1-1.59-1A1.16,1.16,0,0,0,121.59,30.76Z" style="fill: #3f4563"/>
            <path d="M117,27.67s-3-2.86-4.37.73c0,0-1,2.93,1.45,3.4a3.7,3.7,0,0,0,2.65-.26S114.47,30,117,27.67Z" style="fill: #fff;stroke: #3f4563;stroke-linecap: round;stroke-linejoin: round"/>
            <path d="M121,29.62s-1.27-2.4-2.9-.52c0,0-1.23,1.57.21,2.41a2.52,2.52,0,0,0,1.72.42S118.92,30.48,121,29.62Z" style="fill: #fff;stroke: #3f4563;stroke-linecap: round;stroke-linejoin: round"/>
            <path d="M99.44,26.16a.93.93,0,0,1-.63-1.42,63.85,63.85,0,0,0,4.79-8.48c1.76-4,6.54-6.62,8.64-6.73a.92.92,0,0,1,.94.7h0a3,3,0,0,0,1.55,1.93l.55.28s-.52,1.42-3.79,3.33c-3,1.73-8.75,7.48-10,10a1,1,0,0,1-1,.56Z" style="fill: #3f4563"/>
            <path d="M115.55,10s-1-2.6-2.16.45c0,0-3.22,11.14-3.85,16.55a1.36,1.36,0,0,0,.09.68c.37.92,1.53,3.4,3.46,3.6a.72.72,0,0,0,.48-.11c.61-.41,2-2,1.18-8.29a17.36,17.36,0,0,1-.08-4Z" style="fill: #3f4563"/>
            <path d="M112.55,25.6s4.71,9.07-3.76,21.67C106.26,51,98.65,54.89,94.2,55.65c-8.57,1.47-20.81,4.76-42.35-4.77,0,0-18.06-8.57-12.25-27.75S45.73,6,45.73,6,91.53-15.64,112.55,25.6Z" style="fill: #3f4563"/>
            <path d="M49.59,49.47a1.1,1.1,0,0,0-1.69.75,75.81,75.81,0,0,1-2.55,11.28c-1.62,4.9.48,11,2.24,12.81a1.1,1.1,0,0,0,1.38.13h0a3.57,3.57,0,0,1,2.9-.46l.71.19s.68-1.66-.68-5.95c-1.22-3.88-1.74-13.56-.79-16.74a1.13,1.13,0,0,0-.44-1.29Z" style="fill: #3f4563"/>
            <path d="M51.48,75.24s-2.31-1.59-1.55,1.57c0,0,1.61,8,4.09,12.82a1.36,1.36,0,0,0,.45.51c.82.57,3.15,2,4.88,1.08a.72.72,0,0,0,.33-.36c.28-.68.54-2.82-3.61-7.56a18.74,18.74,0,0,1-2.17-3.52Z" style="fill: #3f4563"/>
            <path d="M96.86,65.23l-11-4.32A5.38,5.38,0,0,0,83,60.62l-5.22.91a14.91,14.91,0,0,1-6.69-.28c-4.61-1.33-5.51-4-5.69-5.11a.72.72,0,0,1,.34-.76c3.82-2,18.06,1.86,18.72,2l.06,0,12.33,4.7A8.63,8.63,0,0,1,99,63c.63.42-1.16,1.92-1.16,1.92A.83.83,0,0,1,96.86,65.23Z" style="fill: #3f4563"/>
            <path d="M98.24,66.57s-.4-.92.09-1.26l1-.75s1-1.12,1.82,1.2c0,0,.66,1.09,1.38,2.13a10.51,10.51,0,0,1,.71,1.17c.66,1.26,2.08,4,3.2,6.5a11.27,11.27,0,0,0,1.21,2.1,15.86,15.86,0,0,0,2.26,2.51l.88.79s.06.62-.47.71l-2.71-.14s-.71-.13-.91.14L105.33,83a.91.91,0,0,1-1.29-.38s-.47-4.65-1.21-5.94C102.84,76.72,99.48,68.95,98.24,66.57Z" style="fill: #3f4563"/>
            <path d="M29.51,43.86,13,43.52s-.49,0-.25.52l.46,1a2.4,2.4,0,0,1,.17,1l-.3,3.53s-.16.57.38.27l3.93-2,.79,1.06L27,45.75a1.76,1.76,0,0,1,1.28,0c.79.33,2.08.86,2.36,1,0,0,.54.16.54-.39l-.54-2.14s-.09-.43-.82-.35Z" style="fill: #3f4563"/>
            <path d="M41.21,37.61c.41.38,2.1,3.82,1.78,4.06a27.26,27.26,0,0,0-4.33,4.1c-1.72,2.14-5.17,2-6.54,1.1a1.19,1.19,0,0,1-.5-.94h0a4,4,0,0,0-.71-2.11l-.31-.45s.54-.81,2.92-.76c2.15,0,5.14-4.34,6.29-5.66a.48.48,0,0,1,.73,0Z" style="fill: #3f4563"/>
            <path d="M21.81,32.68a.28.28,0,0,1-.38-.07l-2.35-3.22s0,0,0,0l4.08.2,3.12-1.81c1-.58,1.12-.53.73.35l.73.35a2.11,2.11,0,0,1-.71.82Z" style="fill: #3f4563"/>
            <path d="M27.53,25l-1.73-1.3-5.73.54s2.73-1.58,0,0l6.55-4.07.1,0h0c.09,0,.16,0,.18,0h0a.12.12,0,0,1,0,.08v.05l2.86,2.85a.72.72,0,0,1,0,.74l-1.13.54C28.27,25.29,28.09,25.37,27.53,25Z" style="fill: #3f4563"/>
            <path d="M3.39,46.69s.37-1.44-.85-1.58a2.08,2.08,0,0,0-1.07.12l-1.26.28-.21,0,1.63.4L1,46.38l.53.37-1.38.5,1.71.28C2.35,47.72,3.06,47.77,3.39,46.69Z" style="fill: #3f4563"/>
            <path d="M112.62,89s-1.35.63-.67,1.67a2.08,2.08,0,0,0,.77.74l1,.79.17.13-.74-1.51.74.22-.05-.64,1.27.75-.87-1.49C114.08,89.15,113.66,88.58,112.62,89Z" style="fill: #3f4563"/>
            <path d="M58.57,101.39s-1.45-.74-1.89.54a2.27,2.27,0,0,0-.12,1.16v1.65l.81-1.65.3.79.51-.48.21,1.59.7-1.75C59.42,102.75,59.64,102,58.57,101.39Z" style="fill: #3f4563"/>
          </g>
          <path d="M42.67,11.46a6.72,6.72,0,0,1,3.06-4.85C48.55,4.88,90-13.69,111.61,23.83c0,0-2.82-4-15-9.46S62.35,4,42.67,11.46Z" style="fill: #fff;stroke: #3f4563;stroke-linecap: round;stroke-linejoin: round"/>
          <path d="M40.79,17.12s-2.07,7.1-1.18,12.25c0,0,4.56,22.43,43.38,21.44,0,0,29.8,2.62,27.37-24.52,0,0-8-14.94-40.13-18.37,0,0-26.44-1-28.73,7.07Z" style="fill: #fff;stroke: #3f4563;stroke-linecap: round;stroke-linejoin: round"/>
          <g>
            <path d="M79.7,23.82c.42-3.29-1.19-6.21-4.78-6.67S69,19.1,68.57,22.39c-.36,2.83.82,5.39,3.44,6.34l-.19,1.44,2.76.35.18-1.43C77.57,28.85,79.34,26.66,79.7,23.82Z" style="fill: #fff;stroke: #3f4563;stroke-linecap: round;stroke-linejoin: round"/>
            <path d="M71.6,25.18s-2.65.22-1.83-1.55S72.6,24.18,71.6,25.18Z" style="fill: #fff;stroke: #3f4563;stroke-linecap: round;stroke-linejoin: round"/>
            <path d="M76,25.76s2.52.82,2.14-1.09S75.27,24.56,76,25.76Z" style="fill: #fff;stroke: #3f4563;stroke-linecap: round;stroke-linejoin: round"/>
            <path d="M61,38.1c-.4-1.44.73-1.08,1.18-1.28.28-.12.46.33.56.69l18.78-5.66c-.17-.35-.23-.76.43-1.06.87-.39,1.16-.28,1.56,1.15s-.73,1.08-1.18,1.28c-.28.12-.46-.33-.56-.69L63,38.2c.17.35.23.76-.43,1.06C61.66,39.64,61.37,39.54,61,38.1Z" style="fill: #fff;stroke: #3f4563;stroke-linecap: round;stroke-linejoin: round"/>
            <path d="M82.34,40.84c.75-1.29-.43-1.23-.81-1.53s-.53.2-.71.52L64.07,29.62c.25-.29.41-.68-.15-1.13-.74-.6-1-.57-1.8.72s.43,1.23.81,1.53.53-.2.71-.52L80.39,40.43c-.25.29-.41.68.15,1.13C81.29,42.16,81.59,42.13,82.34,40.84Z" style="fill: #fff;stroke: #3f4563;stroke-linecap: round;stroke-linejoin: round"/>
          </g>
          <path d="M40.66,12.62s-3.54-2.14-6.88,2.88l-4.61,7.37s-6.86,7.9,2.31,9.91a31.28,31.28,0,0,0,6.88.09L41.42,13.1Z" style="fill: #fff;stroke: #3f4563;stroke-miterlimit: 10"/>
          <g id="Lines">
            <path d="M26.7,28.27a2.27,2.27,0,0,0,.68,1c1.25,1.1,3.39.7,4.79-.88s1.53-3.76.28-4.86A5.33,5.33,0,0,1,31,19.88S25.9,25.79,26.7,28.27Z" style="fill: none;stroke: #3f4563;stroke-linecap: round;stroke-linejoin: round"/>
            <path d="M36.8,26.63S29.47,28,32.23,18" style="fill: none;stroke: #3f4563;stroke-linecap: round;stroke-linejoin: round"/>
          </g>
          <path d="M110.8,84.67s-.19-3.76-3.38-2.25c0,0-2.5,1.34-1.15,3.19a3.39,3.39,0,0,0,1.94,1.48S107.67,84.63,110.8,84.67Z" style="fill: #fff;stroke: #3f4563;stroke-linecap: round;stroke-linejoin: round"/>
          <path d="M112.78,87.82s0-2.49-2.15-1.63c0,0-1.66.78-.83,2.05A2.31,2.31,0,0,0,111,89.3S110.74,87.65,112.78,87.82Z" style="fill: #fff;stroke: #3f4563;stroke-linecap: round;stroke-linejoin: round"/>
          <path d="M60.73,96.29s2.24-3.45-1.55-4.15c0,0-3.06-.42-3.06,2.08a3.7,3.7,0,0,0,.76,2.55S58,94.25,60.73,96.29Z" style="fill: #fff;stroke: #3f4563;stroke-linecap: round;stroke-linejoin: round"/>
          <path d="M59.57,100.58s2.12-1.7,0-2.95c0,0-1.78-.91-2.32.67a2.52,2.52,0,0,0-.09,1.77S58.34,98.71,59.57,100.58Z" style="fill: #fff;stroke: #3f4563;stroke-linecap: round;stroke-linejoin: round"/>
          <path d="M7.89,48.06s3,2.25,3.89-1.17c0,0,.56-2.77-1.72-2.92a3.39,3.39,0,0,0-2.38.54S9.92,45.68,7.89,48.06Z" style="fill: #fff;stroke: #3f4563;stroke-linecap: round;stroke-linejoin: round"/>
          <path d="M4.21,47.57S6.15,49.13,6.84,47c0,0,.46-1.77-1.05-1.95a2.31,2.31,0,0,0-1.6.27S5.64,46.11,4.21,47.57Z" style="fill: #fff;stroke: #3f4563;stroke-linecap: round;stroke-linejoin: round"/>
        </g>
      </g>
    </g>
  </g>
</svg>
