<svg xmlns="http://www.w3.org/2000/svg" viewBox="0 0 930 720"><defs><linearGradient id="a" x1="55.31" x2="506.32" y1="369.05" y2="369.05" gradientUnits="userSpaceOnUse"><stop offset="0" stop-color="#c9353d" stop-opacity=".6"/><stop offset=".24" stop-color="#ca3a40" stop-opacity=".64"/><stop offset=".63" stop-color="#cd4747" stop-opacity=".75"/><stop offset=".78" stop-color="#cf4d4b" stop-opacity=".8"/><stop offset=".94" stop-color="#cf4d4b" stop-opacity=".8"/></linearGradient><linearGradient id="b" x1="217.58" x2="319.11" y1="65.51" y2="416.24" gradientUnits="userSpaceOnUse"><stop offset=".14" stop-color="#c41230"/><stop offset="1" stop-color="#ebb3a7" stop-opacity="0"/></linearGradient><linearGradient id="c" x1="194.97" x2="383.5" y1="308.42" y2="308.42" gradientUnits="userSpaceOnUse"><stop offset=".14" stop-color="#d4635a"/><stop offset="1" stop-color="#d4635a" stop-opacity="0"/></linearGradient><linearGradient id="d" x1="180.65" x2="301.93" y1="415.48" y2="415.48" gradientUnits="userSpaceOnUse"><stop offset=".14" stop-color="#cf4d4b"/><stop offset=".99" stop-color="#cf4d4b" stop-opacity="0"/></linearGradient></defs><path fill="#b10d29" d="M732 330.65a797.45 797.45 0 0 0-64-33c-121.7-56.1-225.33-64.23-315.09-28.51l-117.16 56.78c-46 19.25-66.13 41.87-62.2 69.11 4.78 31.53 35.34 72.54 111 116.19l132.66 76.59c76.85 44.37 146.26 14.86 146.26 14.86l49.66-29.18L437.36 472c-23.82-13.89-45.41-28-57.29-40-15.91-16.31-18.61-30.21-3.84-44.11 6-5.45 23.38-15 36.12-20.14l59.21-24c15.55-5.95 35.17-11.22 42.38-12.47a193.13 193.13 0 0 1 67.51.39c15.32 2.7 49.63 10.12 76.4 25.58l97.5 56.29C856 471.56 928.52 444 928.47 444.07z" opacity=".6"/><path fill="#b10d29" stroke="#b10d29" stroke-miterlimit="10" stroke-width="1.5" d="M379.85 74.17a488 488 0 0 0-60.55-29.68C264.12 22.16 221.8 20 191.61 37.22c-29.68 17-47.64 52.72-54.56 106.59l-9.87 83.08c-6.31 57.4 3.2 108.58 28.75 156.63 29.7 55.5 80.49 116 156.1 159.64l132.66 76.59c26.83 15.49 45.41 14.91 58.23 7.58 23.89-13.65 27.77-50.72 27.77-50.72L354.92 475c-23.94-14-47-29.51-63.31-45.81-22.08-22.25-35.47-46.43-40.13-79-1.72-12.88-1.31-38.75.62-54.3l8.78-72.56c2.62-18.38 7.87-37.5 10.4-43.25 6.49-14.68 16.87-27.86 34.09-31.77 10-2.42 33.58-5.32 93.11 29L496 233.67c22.58 13 39 12.29 50.92 5.5 23.84-13.62 29.39-51.57 29.4-51.57z"/><path fill="#c41230" d="M576.31 187.6l-70 40s-5.56 37.95-29.4 51.57l70-40c23.84-13.62 29.39-51.57 29.4-51.57z"/><path fill="url(#a)" d="M309.86 114.17a488 488 0 0 0-60.56-29.68C194.13 62.16 151.81 60 121.62 77.22 91.94 94.18 74 129.94 67.06 183.81l-9.86 83.08c-6.31 57.4 3.2 108.58 28.75 156.63 29.7 55.5 80.49 116 156.1 159.64l132.66 76.59c26.83 15.49 45.41 14.91 58.23 7.58 23.89-13.65 27.77-50.72 27.77-50.72L284.93 515c-23.94-14-47-29.51-63.31-45.81-22.08-22.25-35.47-46.43-40.13-79-1.72-12.88-1.31-38.75.62-54.3l8.78-72.56c2.62-18.38 7.87-37.5 10.4-43.25 6.49-14.68 16.87-27.86 34.09-31.77 10-2.42 33.58-5.32 93.11 29L426 273.67c22.58 13 39 12.29 50.92 5.5 23.84-13.62 29.39-51.57 29.4-51.57z" data-name="glass reflection"/><path fill="#b10d29" stroke="#cf4d4b" stroke-linecap="round" stroke-linejoin="round" stroke-width="1.5" d="M576 187.25l-1-.41L379.85 74.17a487.94 487.94 0 0 0-60.55-29.68C264.12 22.16 221.59 20 191.4 37.26h.08l-69.86 39.96C151.81 60 194.13 62.16 249.3 84.49a487.94 487.94 0 0 1 60.56 29.68L506.32 227.6l70-40z" opacity=".8"/><path fill="url(#b)" stroke="#cf4d4b" stroke-linecap="round" stroke-linejoin="round" stroke-width="1.5" d="M309.86 115.17a488 488 0 0 0-60.56-29.68C194.13 63.16 151.81 61 121.62 78.22 91.94 95.18 74 130.94 67.06 184.81l-9.86 83.08c-6.31 57.4 3.2 108.58 28.75 156.63 29.7 55.5 80.49 116 156.1 159.64l132.66 76.59c26.83 15.49 45.41 14.91 58.23 7.58 23.89-13.65 27.77-50.72 27.77-50.72L284.93 516c-23.94-14-47-29.51-63.31-45.81-22.08-22.25-35.47-46.43-40.13-79-1.72-12.88-1.31-38.75.62-54.3l8.78-72.56c2.62-18.38 7.87-37.5 10.4-43.25 6.49-14.68 16.87-27.86 34.09-31.77 10-2.42 33.58-5.32 93.11 29L426 274.67c22.58 13 39 12.29 50.92 5.5 23.84-13.62 29.39-51.57 29.4-51.57z" data-name="glass reflection" opacity=".16"/><path fill="#c9353d" d="M439.59 716.64L.75 425.72"/><g fill="none" stroke="#cf4d4b" stroke-linecap="round" stroke-linejoin="round" stroke-width="1.5"><path d="M439.59 716.64l-.83-.55"/><path stroke-dasharray="2.01 3.01" d="M436.25 714.43L2.84 427.1"/><path d="M1.58 426.27l-.83-.55"/></g><g fill="none" stroke="#cf4d4b" stroke-linecap="round" stroke-linejoin="round" stroke-width="1.5"><path d="M33.07 140.11l.48.88"/><path stroke-dasharray="2 3.01" d="M34.99 143.63l285.02 522.23"/><path d="M320.73 667.17l.48.88"/></g><path fill="#c9353d" d="M30.77 500.02l49.7-462.76"/><g fill="none" stroke="#cf4d4b" stroke-linecap="round" stroke-linejoin="round" stroke-width="1.5"><path d="M30.77 500.02l.11-1"/><path stroke-dasharray="2 3" d="M31.2 496.04l49-456.29"/><path d="M80.36 38.26l.11-1"/></g><path fill="none" stroke="#cf4d4b" stroke-linecap="round" stroke-linejoin="round" stroke-width="1.5" d="M460.37 608c-.49 55.13-39 77.82-86 50.67s-84.74-93.84-84.25-149 39-77.82 86-50.67 84.74 93.86 84.25 149z"/><path fill="none" stroke="#cf4d4b" stroke-linecap="round" stroke-linejoin="round" stroke-width="1.5" d="M371.7 421.36l2.01 237.39"/><path fill="none" stroke="#cf4d4b" stroke-linecap="round" stroke-linejoin="round" stroke-width="1.5" d="M371.42 557.88l67.3 104.46"/><path fill="none" stroke="#cf4d4b" stroke-linecap="round" stroke-linejoin="round" stroke-width="1.5" d="M373.06 559.14c0 1-.7 1.4-1.57.9a3.46 3.46 0 0 1-1.57-2.71c0-1 .7-1.4 1.57-.9a3.46 3.46 0 0 1 1.57 2.71z"/><path fill="none" stroke="#cf4d4b" stroke-linecap="round" stroke-linejoin="round" stroke-width="1.5" d="M291.1 309.8c0 1-.7 1.4-1.57.9A3.46 3.46 0 0 1 288 308c0-1 .7-1.4 1.57-.9a3.46 3.46 0 0 1 1.53 2.7z"/><path fill="none" stroke="#cf4d4b" stroke-linecap="round" stroke-linejoin="round" stroke-width="1.5" d="M289.75 309.02l-87.14-163.13"/><path fill="#c9353d" d="M471.9 95.44L19.23 268.09"/><g fill="none" stroke="#cf4d4b" stroke-linecap="round" stroke-linejoin="round" stroke-width="1.5"><path d="M471.9 95.44l-.93.36"/><path stroke-dasharray="2 3" d="M468.17 96.87L21.56 267.2"/><path d="M20.16 267.73l-.93.36"/></g><path fill="none" stroke="#cf4d4b" stroke-linecap="round" stroke-linejoin="round" stroke-width="1.5" d="M359.18 276.81l-140.25 65.01"/><path fill="none" stroke="#d4635a" stroke-linecap="round" stroke-linejoin="round" stroke-width="1.5" d="M301.93 450.42c0 38.57-27.08 54.2-60.48 34.92S181 419.16 181 380.58s27.08-54.2 60.48-34.92 60.45 66.19 60.45 104.76z" opacity=".5"/><g fill="none" stroke="#cf4d4b" stroke-linecap="round" stroke-linejoin="round" stroke-width="1.5"><path d="M445.24 300.14l.86-.5"/><path stroke-dasharray="2.01 3.01" d="M448.7 298.12l120.06-70.01"/><path d="M570.06 227.35l.86-.5"/></g><g fill="none" stroke="#cf4d4b" stroke-linecap="round" stroke-linejoin="round" stroke-width="1.5"><path d="M382.12 699.23l.86-.5"/><path stroke-dasharray="1.98 2.97" d="M385.56 697.24l140.33-81.02"/><path d="M527.18 615.48l.86-.5"/></g><path fill="none" stroke="#c9353d" stroke-linecap="round" stroke-linejoin="round" stroke-width="1.5" d="M576 187.25l-1-.41L379.85 74.17a487.94 487.94 0 0 0-60.55-29.68C264.12 22.16 221.59 20 191.4 37.26h.08l-69.86 39.96C91.94 94.18 74 129.94 67.06 183.81l-9.86 83.08c-6.31 57.4 3.2 108.58 28.75 156.63 29.7 55.5 80.49 116 156.1 159.64l132.66 76.59c26.83 15.49 45.41 14.91 58.23 7.58l70-40a41.16 41.16 0 0 0 9.66-7.74c15.33-16.44 18.11-43 18.11-43L354.92 475c-23.94-14-47-29.51-63.31-45.81-22.08-22.25-35.47-46.43-40.13-79-1.72-12.88-1.31-38.75.62-54.3l8.78-72.56a267.09 267.09 0 0 1 7-33.16c14.27 3.81 33.77 11.73 60.56 27.2l97.56 56.3c22.58 13 39 12.29 50.92 5.5l70-40c23.84-13.62 29.39-51.57 29.4-51.57"/><path fill="#c41230" d="M530.7 576.62l-70 40s-3.87 37.07-27.77 50.72l70-40c23.9-13.66 27.77-50.72 27.77-50.72z"/><path fill="#c9353d" d="M116.23.75l446.41 257.73"/><g fill="none" stroke="#cf4d4b" stroke-linecap="round" stroke-linejoin="round" stroke-width="1.5"><path d="M116.23.75l.87.5"/><path stroke-dasharray="2 3" d="M119.7 2.75l440.77 254.48"/><path d="M561.77 257.98l.87.5"/></g><path fill="#c9353d" d="M101.92 86.26l393.19 227.21"/><g fill="none" stroke="#cf4d4b" stroke-linecap="round" stroke-linejoin="round" stroke-width="1.5"><path d="M101.92 86.26l.86.5"/><path stroke-dasharray="2 2.99" d="M105.37 88.26l387.57 223.96"/><path d="M494.24 312.97l.87.5"/></g><path fill="#c9353d" d="M43.8 52.68l58.12 33.58"/><g fill="none" stroke="#cf4d4b" stroke-linecap="round" stroke-linejoin="round" stroke-width="1.5"><path d="M43.8 52.68l.87.5"/><path stroke-dasharray="2.07 3.1" d="M47.36 54.73l52.35 30.25"/><path d="M101.05 85.76l.87.5"/></g><path fill="none" stroke="#cf4d4b" stroke-linecap="round" stroke-linejoin="round" stroke-width="1.5" d="M383.78 362.75c0 60.12-42.2 84.48-94.27 54.42S195.25 314 195.25 253.9s42.2-84.48 94.27-54.42 94.26 103.16 94.26 163.27z"/><path fill="#c9353d" d="M155.62 573.42l58.15-539.81"/><g fill="none" stroke="#cf4d4b" stroke-linecap="round" stroke-linejoin="round" stroke-width="1.5"><path d="M155.62 573.42l.11-.99"/><path stroke-dasharray="1.99 2.99" d="M156.05 569.45L213.5 36.09"/><path d="M213.66 34.61l.11-1"/></g><path fill="none" stroke="#cf4d4b" stroke-linecap="round" stroke-linejoin="round" stroke-width="1.5" d="M507.29 211.48c0 60.62-36.9 88.45-82.42 62.17s-82.42-96.72-82.42-157.34 36.9-88.45 82.42-62.17 82.42 95 82.42 157.34z"/><path fill="none" stroke="#cf4d4b" stroke-linecap="round" stroke-linejoin="round" stroke-width="1.5" d="M424.75 44.77l-.02 320.01"/><path fill="none" stroke="#cf4d4b" stroke-linecap="round" stroke-linejoin="round" stroke-width="1.5" d="M424.5 162.53l60.49 108.84"/><path fill="none" stroke="#cf4d4b" stroke-linecap="round" stroke-linejoin="round" stroke-width="1.5" d="M426 163.78c0 1.09-.67 1.59-1.49 1.12a3.56 3.56 0 0 1-1.49-2.84c0-1.09.67-1.59 1.49-1.12a3.56 3.56 0 0 1 1.49 2.84z"/><path fill="url(#c)" stroke="#cf4d4b" stroke-linecap="round" stroke-linejoin="round" stroke-width="1.5" d="M383.5 362.85c0 29.9-10.44 51-27.35 60.87-17.08 10-40.76 8.66-66.92-6.45C237.17 387.21 195 314.11 195 254c0-29.9 10.44-51 27.35-60.87 17.08-10 40.76-8.66 66.92 6.45 52.03 30.05 94.23 103.15 94.23 163.27z" opacity=".4"/><path fill="#cf4d4b" stroke="#cf4d4b" stroke-linecap="round" stroke-linejoin="round" stroke-width="1.5" d="M439.59 329.95c0 29.9-10.44 51-27.35 60.87-17.08 10-40.76 8.66-66.92-6.45-52.06-30.06-94.27-103.16-94.27-163.28 0-29.9 10.44-51 27.35-60.87 17.08-10 40.76-8.66 66.92 6.45 52.07 30.06 94.27 103.16 94.27 163.28z" opacity=".2"/><path fill="#c41230" d="M356.16 423.72c16.9-9.91 27.35-31 27.35-60.87 0-60.12-42.2-133.22-94.27-163.28-26.17-15.11-49.84-16.47-66.92-6.45l56.09-32.9c17.08-10 40.76-8.66 66.92 6.45 52.06 30.06 94.27 103.16 94.27 163.28 0 29.9-10.44 51-27.35 60.87z" opacity=".15"/><path fill="none" stroke="#cf4d4b" stroke-linecap="round" stroke-linejoin="round" stroke-width="1.5" d="M338 429.32c0 19.24-6.72 32.78-17.59 39.16s-26.22 5.57-43.05-4.15C243.88 445 216.73 398 216.73 359.3c0-19.24 6.72-32.78 17.59-39.16s26.22-5.57 43.05 4.15c33.5 19.33 60.63 66.36 60.63 105.03z" opacity=".15"/><path fill="url(#d)" stroke="#cf4d4b" stroke-linecap="round" stroke-linejoin="round" stroke-width="1.5" d="M301.93 450.49c0 19.24-6.72 32.78-17.59 39.16s-26.22 5.57-43.05-4.15c-33.49-19.34-60.64-66.36-60.64-105 0-19.24 6.72-32.78 17.59-39.16s26.22-5.57 43.05 4.15c33.49 19.3 60.64 66.33 60.64 105z" opacity=".4"/><path fill="#c9353d" stroke="#cf4d4b" stroke-linecap="round" stroke-linejoin="round" stroke-width="1.5" d="M284.34 489.65c10.87-6.38 17.59-19.92 17.59-39.16 0-38.67-27.15-85.7-60.64-105-16.83-9.72-32.06-10.59-43.05-4.15l36.08-21.16c11-6.44 26.22-5.57 43.05 4.15 33.49 19.34 60.64 66.36 60.64 105 0 19.24-6.72 32.78-17.59 39.16z" opacity=".2"/><path fill="none" stroke="#cf4d4b" stroke-linecap="round" stroke-linejoin="round" stroke-width="1.5" d="M242.74 416.53l-74.3 31.68" opacity=".5"/><path fill="none" stroke="#cf4d4b" stroke-linecap="round" stroke-linejoin="round" stroke-width="1.5" d="M244.27 417.42c0 1-.69 1.38-1.54.89a3.39 3.39 0 0 1-1.54-2.66c0-1 .69-1.38 1.54-.89a3.39 3.39 0 0 1 1.54 2.66z"/><path fill="none" stroke="#cf4d4b" stroke-linecap="round" stroke-linejoin="round" stroke-width="1.5" d="M284.89 489.14l-85.48-148.06" opacity=".5"/></svg>