<svg id="Banner" xmlns="http://www.w3.org/2000/svg" viewBox="0 0 831 460"><style>.st0{opacity:0.6;fill:#B10D29;} .st1{fill:#B10D29;} .st2{fill:#C41230;} .st3{fill:#CF4D4B;} .st4{fill:#C9353D;} .st5{opacity:0.5;fill:#D4635A;} .st6{opacity:0.3;fill:#CF4D4B;} .st7{opacity:0.2;fill:#C9353D;} .st8{opacity:0.4;fill:#CF4D4B;} .st9{opacity:0.3;fill:#C9353D;} .st10{fill:#8B0019;} .st11{fill-rule:evenodd;clip-rule:evenodd;fill:#670002;} .st12{opacity:0.6;fill:#D9766A;}</style><path id="C_shadow" class="st0" d="M652.3 192.9c-19.5-11.2-38.4-20.8-56.9-29.3-108.2-49.9-200.3-57.1-280-25.3l-104.2 50.5c-40.8 17.1-58.8 37.2-55.3 61.4 4.3 28 31.4 64.5 98.6 103.3l117.9 68.1c68.3 39.4 130 13.2 130 13.2l44.1-25.9-156.2-90.2c-21.2-12.3-40.4-24.9-50.9-35.6-14.1-14.5-16.5-26.9-3.4-39.2 5.3-4.8 20.8-13.3 32.1-17.9l52.6-21.4c13.8-5.3 31.3-10 37.7-11.1 16.4-2.8 36.7-3.9 60 .3 13.6 2.4 44.1 9 67.9 22.7l86.7 50c89.4 51.6 153.9 27.2 153.9 27.2L652.3 192.9z"/><path class="st1" d="M513.9 65.7zM128.4.3c-2 8.2-3.6 17-4.8 26.5l-8.8 73.8c-5.6 51 2.8 96.5 25.6 139.2 26.4 49.3 71.5 103.1 138.7 141.9L397 449.8c10.2 5.9 19.1 9.2 26.7 10.5h15c3.7-.7 7.1-2 10.1-3.7 21.2-12.1 24.7-45.1 24.7-45.1l-156.2-90.3C296 308.8 275.6 295 261 280.5c-19.6-19.8-31.5-41.3-35.7-70.2-1.5-11.4-1.2-34.4.5-48.3l7.8-64.5c2.3-16.3 7-33.3 9.2-38.4 5.8-13.1 15-24.8 30.3-28.2 8.9-2.2 29.8-4.7 82.8 25.8l86.7 50c20.1 11.6 34.7 10.9 45.3 4.9C509.1 99.5 514 65.8 514 65.8L400.6.3H128.4z"/><path class="st2" d="M399.6.3h2l112.6 65c.2.1.2.3.2.4v.1c-.2 1.6-1.6 9.6-5.4 19-5.2 13-12.3 22.2-21 27.2-12.4 7.1-27.8 5.5-45.8-4.9l-86.7-50C318 35.4 291 27 273.1 31.3c-13 2.9-23.1 12.4-30 27.9-2.3 5.2-6.9 22.3-9.2 38.3l-7.8 64.5c-1.8 14.2-2 37.1-.6 48.1 3.9 27.6 14.9 49.2 35.5 70 12.7 12.7 31.1 26 56.2 40.6L473.4 411c.2.1.3.3.2.5 0 .3-3.7 33.3-24.9 45.5-2.5 1.5-5.2 2.5-8.1 3.3H435c4.8-.5 9.2-1.9 13.2-4.2 19.7-11.2 24-41 24.4-44.4l-155.9-90.1c-25.2-14.7-43.6-28.1-56.4-40.8-20.8-20.9-31.8-42.7-35.8-70.5-1.5-11.1-1.2-34.1.5-48.4l7.8-64.5c2.3-16.1 6.9-33.3 9.3-38.6 7-15.9 17.3-25.5 30.6-28.5 27-6.5 69.2 17.9 83.1 25.9l86.7 50c17.6 10.2 32.7 11.8 44.8 4.9 19.6-11.2 25.2-41.5 25.8-45.1L399.6.3zm-2.4 449.1l-117.9-68.1c-58.5-33.8-107.8-84.1-138.6-141.7-22.7-42.7-31.1-88.2-25.5-138.9l8.8-73.8c1.2-9.5 2.8-18.4 4.9-26.6h-1c-2 8.2-3.6 17-4.8 26.5l-8.8 73.8c-5.6 50.9 2.8 96.6 25.6 139.5 30.9 57.7 80.2 108.2 138.9 142.1l117.9 68.1c8.7 5 16.9 8.4 24.4 10h6.4c-9-.8-19.1-4.5-30.3-10.9z"/><path id="edge_shadow_top" class="st1" d="M513.9 65.7l-62.2 35.5s-4.9 33.7-26.1 45.8l62.2-35.5c21.2-12 26.1-45.8 26.1-45.8z"/><path class="st1" d="M408.4 460.3h33.8l6.5-3.7c21.2-12.1 24.7-45.1 24.7-45.1L411.2 447s-.6 5.8-2.8 13.3z"/><path class="st3" d="M473.2 411.1L411 446.6c-.1.1-.2.2-.2.4 0 .1-.7 5.8-2.9 13.3h1c1.9-6.6 2.7-11.8 2.8-13l61.1-34.9c-.8 5.6-5.6 33-24.3 43.7l-7.3 4.2h2l5.8-3.3c21.2-12.1 24.9-45.1 24.9-45.5 0-.2-.1-.4-.2-.5-.2 0-.4 0-.5.1z"/><path class="st1" d="M277.1.5l174.6 100.8 62.2-35.5-.3-.3-.9-.4L400.6.3H276.8c.1.1.2.1.3.2z"/><path class="st3" d="M512.6 65.5l.4.2-61.3 35L277.8.3h-2c.4.2.7.4 1.1.6l174.6 100.8c.1 0 .2.1.2.1.1 0 .2 0 .2-.1l62.2-35.5c.1-.1.2-.2.2-.4s0-.3-.1-.4l-.3-.3s-.1-.1-.2-.1l-.8-.3L401.6.3h-2l113 65.2z"/><path class="st4" d="M64.6 42.9c-1.3 6.2-2.4 12.6-3.2 19.4l-8.8 73.8c-5.6 51 2.8 96.5 25.6 139.2 7.8 14.6 17.3 29.5 28.4 44.4 26.6 35.4 63 70.1 110.3 97.5l74.5 43h117c2.2-7.5 2.8-13.3 2.8-13.3L255 356.8c-21.3-12.4-41.7-26.2-56.3-40.7-5.9-5.9-11.1-12-15.5-18.4-10.5-14.9-17.2-31.5-20.1-51.8-1.5-11.4-1.2-34.4.5-48.3l7.8-64.5c2.3-16.3 7-33.3 9.2-38.4 5.8-13.1 15-24.8 30.3-28.2 8.9-2.2 29.8-4.7 82.8 25.8l86.7 50c20.1 11.6 34.7 10.9 45.3 4.9 21.2-12.1 26.1-45.8 26.1-45.8L277.1.5c-.1-.1-.2-.1-.3-.2H79.3c-6.4 11.8-11.3 26-14.7 42.6z"/><path class="st3" d="M452.7 101.3l-.6.3c-.3 2-1.8 9.8-5.3 18.8-5.2 13-12.2 22.1-21 27.1-12.4 7.1-27.8 5.5-45.8-4.9l-86.7-50C255.9 71 228.9 62.5 211 66.9c-13 2.9-23.1 12.4-30 27.9-2.3 5.2-6.9 22.3-9.2 38.3l-7.8 64.5c-1.8 14.2-2 37.1-.6 48.1 3.9 27.6 14.9 49.2 35.5 70 12.7 12.7 31.1 26 56.2 40.6l156.5 90.4v.3c0 .1-.6 5.8-2.8 13.2h-1c1.9-6.5 2.7-11.7 2.8-13l-155.9-90.1c-25.2-14.7-43.6-28.1-56.4-40.8-20.8-20.9-31.8-42.7-35.8-70.5-1.5-11.1-1.2-34.1.5-48.4l7.8-64.5c2.3-16.1 6.9-33.3 9.3-38.6 7-15.9 17.3-25.5 30.6-28.5 27-6.5 69.2 17.9 83.1 25.9l86.7 50c17.6 10.2 32.7 11.8 44.8 4.9 10.7-6.1 17.1-17.8 20.6-26.6s4.9-16.4 5.3-18.5L276.9.9c-.4-.2-.7-.4-1.1-.6h2l174.9 101zM78.6 275.2C55.8 232.4 47.5 187 53.1 136.3l8.8-73.8c3.2-25.2 9.3-46 18.1-62.1h-1.1c-8.7 16.2-14.7 36.9-17.9 62l-8.8 73.8c-5.6 50.9 2.8 96.6 25.6 139.5 30.9 57.7 80.2 108.2 138.9 142.1l73.7 42.6h2L217.2 417c-58.6-33.9-107.8-84.2-138.6-141.8z"/><path class="st3" d="M101.8 351.5c-.2-.1-.3-.4-.2-.7.1-.2.4-.3.7-.2l2.6 1.5c.2.1.3.4.2.7-.1.2-.3.2-.4.2-.1 0-.2 0-.2-.1l-2.7-1.4zM94 347c.1 0 .2.1.2.1.2 0 .3-.1.4-.2.1-.2.1-.5-.2-.7l-2.6-1.5c-.2-.1-.5-.1-.7.2-.1.2-.1.5.2.7L94 347zm-5.2-3c.1 0 .2.1.2.1.2 0 .3-.1.4-.2.1-.2.1-.5-.2-.7l-2.6-1.5c-.2-.1-.5-.1-.7.2s-.1.5.2.7l2.7 1.4zm-15.5-9c.1 0 .2.1.2.1.2 0 .3-.1.4-.2.1-.2.1-.5-.2-.7l-2.6-1.5c-.2-.1-.5-.1-.7.2s-.1.5.2.7l2.7 1.4zm10.4 6c.1 0 .2.1.2.1.2 0 .3-.1.4-.2.1-.2.1-.5-.2-.7l-2.6-1.5c-.2-.1-.5-.1-.7.2-.1.2-.1.5.2.7l2.7 1.4zm25.9 15c.1 0 .2.1.2.1.2 0 .3-.1.4-.2.1-.2.1-.5-.2-.7l-2.6-1.5c-.2-.1-.5-.1-.7.2s-.1.5.2.7l2.7 1.4zm-10.4-6c.1 0 .2.1.2.1.2 0 .3-.1.4-.2.1-.2.1-.5-.2-.7l-2.6-1.5c-.2-.1-.5-.1-.7.2s-.1.5.2.7l2.7 1.4zm36.4 21c.1 0 .2.1.2.1.2 0 .3-.1.4-.2.1-.2.1-.5-.2-.7l-2.6-1.5c-.2-.1-.5-.1-.7.2-.1.2-.1.5.2.7l2.7 1.4zm-20.8-12c.1 0 .2.1.2.1.2 0 .3-.1.4-.2.1-.2.1-.5-.2-.7l-2.6-1.5c-.2-.1-.5-.1-.7.2-.1.2-.1.5.2.7l2.7 1.4zm26 15c.1 0 .2.1.2.1.2 0 .3-.1.4-.2.1-.2.1-.5-.2-.7l-2.6-1.5c-.2-.1-.5-.1-.7.2-.1.2-.1.5.2.7l2.7 1.4zm-10.4-6c.1 0 .2.1.2.1.2 0 .3-.1.4-.2.1-.2.1-.5-.2-.7l-2.6-1.5c-.2-.1-.5-.1-.7.2-.1.2-.1.5.2.7l2.7 1.4zm-10.4-6c.1 0 .2.1.2.1.2 0 .3-.1.4-.2.1-.2.1-.5-.2-.7l-2.6-1.5c-.2-.1-.5-.1-.7.2-.1.2-.1.5.2.7l2.7 1.4zm5.2 3c.1 0 .2.1.2.1.2 0 .3-.1.4-.2.1-.2.1-.5-.2-.7l-2.6-1.5c-.2-.1-.5-.1-.7.2-.1.2-.1.5.2.7l2.7 1.4zM11 299.1c.1 0 .2.1.2.1.2 0 .3-.1.4-.2.1-.2.1-.5-.2-.7l-2.6-1.5c-.2-.1-.5-.1-.7.2-.1.2-.1.5.2.7l2.7 1.4zm5.2 3c.1 0 .2.1.2.1.2 0 .3-.1.4-.2.1-.2.1-.5-.2-.7l-2.6-1.5c-.2-.1-.5-.1-.7.2-.1.2-.1.5.2.7l2.7 1.4zm5.1 3c.1 0 .2.1.2.1.2 0 .3-.1.4-.2.1-.2.1-.5-.2-.7l-2.6-1.5c-.2-.1-.5-.1-.7.2-.1.2-.1.5.2.7l2.7 1.4zm5.2 3c.1 0 .2.1.2.1.2 0 .3-.1.4-.2.1-.2.1-.5-.2-.7l-2.6-1.5c-.2-.1-.5-.1-.7.2s-.1.5.2.7l2.7 1.4zm-20.7-12c.1 0 .2.1.2.1.2 0 .3-.1.4-.2.1-.2.1-.5-.2-.7l-1.2-.8c-.2-.1-.5-.1-.7.2-.1.2-.1.5.2.7l1.3.7zM146 377c.1 0 .2.1.2.1.2 0 .3-.1.4-.2.1-.2.1-.5-.2-.7l-2.6-1.5c-.2-.1-.5-.1-.7.2-.1.2-.1.5.2.7l2.7 1.4zM31.7 311.1c.1 0 .2.1.2.1.2 0 .3-.1.4-.2.1-.2.1-.5-.2-.7l-2.6-1.5c-.2-.1-.5-.1-.7.2-.1.2-.1.5.2.7l2.7 1.4zm20.8 12c.1 0 .2.1.2.1.2 0 .3-.1.4-.2.1-.2.1-.5-.2-.7l-2.6-1.5c-.2-.1-.5-.1-.7.2-.1.2-.1.5.2.7l2.7 1.4zm5.2 3c.1 0 .2.1.2.1.2 0 .3-.1.4-.2.1-.2.1-.5-.2-.7l-2.6-1.5c-.2-.1-.5-.1-.7.2s-.1.5.2.7l2.7 1.4zm-20.8-12c.1 0 .2.1.2.1.2 0 .3-.1.4-.2.1-.2.1-.5-.2-.7l-2.6-1.5c-.2-.1-.5-.1-.7.2-.1.2-.1.5.2.7l2.7 1.4zm26 15c.1 0 .2.1.2.1.2 0 .3-.1.4-.2.1-.2.1-.5-.2-.7l-2.6-1.5c-.2-.1-.5-.1-.7.2-.1.2-.1.5.2.7l2.7 1.4zm5.2 2.9c.1 0 .2.1.2.1.2 0 .3-.1.4-.2.1-.2.1-.5-.2-.7l-2.6-1.5c-.2-.1-.5-.1-.7.2s-.1.5.2.7l2.7 1.4zm-26-14.9c.1 0 .2.1.2.1.2 0 .3-.1.4-.2.1-.2.1-.5-.2-.7l-2.6-1.5c-.2-.1-.5-.1-.7.2-.1.2-.1.5.2.7l2.7 1.4zm5.2 3c.1 0 .2.1.2.1.2 0 .3-.1.4-.2.1-.2.1-.5-.2-.7l-2.6-1.5c-.2-.1-.5-.1-.7.2-.1.2-.1.5.2.7l2.7 1.4zM78.5 338c.1 0 .2.1.2.1.2 0 .3-.1.4-.2.1-.2.1-.5-.2-.7l-2.6-1.5c-.2-.1-.5-.1-.7.2-.1.2-.1.5.2.7l2.7 1.4zm171.3 99c.1 0 .2.1.2.1.2 0 .3-.1.4-.2.1-.2.1-.5-.2-.7l-2.6-1.5c-.2-.1-.5-.1-.7.2-.1.2-.1.5.2.7l2.7 1.4zm5.2 3c.1 0 .2.1.2.1.2 0 .3-.1.4-.2.1-.2.1-.5-.2-.7l-2.6-1.5c-.2-.1-.5-.1-.7.2-.1.2-.1.5.2.7l2.7 1.4zm-10.4-6c.1 0 .2.1.2.1.2 0 .3-.1.4-.2.1-.2.1-.5-.2-.7l-2.6-1.5c-.2-.1-.5-.1-.7.2s-.1.5.2.7l2.7 1.4zm-15.6-9c.1 0 .2.1.2.1.2 0 .3-.1.4-.2.1-.2.1-.5-.2-.7l-2.6-1.5c-.2-.1-.5-.1-.7.2-.1.2-.1.5.2.7l2.7 1.4zm10.4 6c.1 0 .2.1.2.1.2 0 .3-.1.4-.2.1-.2.1-.5-.2-.7l-2.6-1.5c-.2-.1-.5-.1-.7.2-.1.2-.1.5.2.7l2.7 1.4zm20.8 12c.1 0 .2.1.2.1.2 0 .3-.1.4-.2.1-.2.1-.5-.2-.7l-2.6-1.5c-.2-.1-.5-.1-.7.2s-.1.5.2.7l2.7 1.4zm-26-15c.1 0 .2.1.2.1.2 0 .3-.1.4-.2.1-.2.1-.5-.2-.7l-2.6-1.5c-.2-.1-.5-.1-.7.2-.1.2-.1.5.2.7l2.7 1.4zm46.8 27c.1 0 .2.1.2.1.2 0 .3-.1.4-.2.1-.2.1-.5-.2-.7l-2.6-1.5c-.2-.1-.5-.1-.7.2s-.1.5.2.7l2.7 1.4zm-15.6-9c.1 0 .2.1.2.1.2 0 .3-.1.4-.2.1-.2.1-.5-.2-.7l-2.6-1.5c-.2-.1-.5-.1-.7.2-.1.2-.1.5.2.7l2.7 1.4zm20.8 12c.1 0 .2.1.2.1.2 0 .3-.1.4-.2.1-.2.1-.5-.2-.7l-2.6-1.5c-.2-.1-.5-.1-.7.2-.1.2-.1.5.2.7l2.7 1.4zm5.7 2.1l-2.6-1.5c-.2-.1-.5-.1-.7.2-.1.2-.1.5.2.7l1.5.8h1.8l-.2-.2zm-68-38.1c.1 0 .2.1.2.1.2 0 .3-.1.4-.2.1-.2.1-.5-.2-.7l-2.6-1.5c-.2-.1-.5-.1-.7.2-.1.2-.1.5.2.7l2.7 1.4zm51.9 30c.1 0 .2.1.2.1.2 0 .3-.1.4-.2.1-.2.1-.5-.2-.7l-2.6-1.5c-.2-.1-.5-.1-.7.2-.1.2-.1.5.2.7l2.7 1.4zm-5.2-3c.1 0 .2.1.2.1.2 0 .3-.1.4-.2.1-.2.1-.5-.2-.7l-2.6-1.5c-.2-.1-.5-.1-.7.2-.1.2-.1.5.2.7l2.7 1.4zm-72.7-42c.1 0 .2.1.2.1.2 0 .3-.1.4-.2.1-.2.1-.5-.2-.7l-2.6-1.5c-.2-.1-.5-.1-.7.2-.1.2-.1.5.2.7l2.7 1.4zm-26-15c.1 0 .2.1.2.1.2 0 .3-.1.4-.2.1-.2.1-.5-.2-.7l-2.6-1.5c-.2-.1-.5-.1-.7.2s-.1.5.2.7l2.7 1.4zm-5.2-3c.1 0 .2.1.2.1.2 0 .3-.1.4-.2.1-.2.1-.5-.2-.7l-2.6-1.5c-.2-.1-.5-.1-.7.2-.1.2-.1.5.2.7l2.7 1.4zm10.4 6c.1 0 .2.1.2.1.2 0 .3-.1.4-.2.1-.2.1-.5-.2-.7l-2.6-1.5c-.2-.1-.5-.1-.7.2-.1.2-.1.5.2.7l2.7 1.4zm-20.7-12c.1 0 .2.1.2.1.2 0 .3-.1.4-.2.1-.2.1-.5-.2-.7l-2.6-1.5c-.2-.1-.5-.1-.7.2-.1.2-.1.5.2.7l2.7 1.4zm62.3 36c.1 0 .2.1.2.1.2 0 .3-.1.4-.2.1-.2.1-.5-.2-.7l-2.6-1.5c-.2-.1-.5-.1-.7.2s-.1.5.2.7l2.7 1.4zm-57.2-33c.1 0 .2.1.2.1.2 0 .3-.1.4-.2.1-.2.1-.5-.2-.7l-2.6-1.5c-.2-.1-.5-.1-.7.2-.1.2-.1.5.2.7l2.7 1.4zm20.8 12c.1 0 .2.1.2.1.2 0 .3-.1.4-.2.1-.2.1-.5-.2-.7l-2.6-1.5c-.2-.1-.5-.1-.7.2-.1.2-.1.5.2.7l2.7 1.4zm20.8 12c.1 0 .2.1.2.1.2 0 .3-.1.4-.2.1-.2.1-.5-.2-.7l-2.6-1.5c-.2-.1-.5-.1-.7.2s-.1.5.2.7l2.7 1.4zm5.2 3c.1 0 .2.1.2.1.2 0 .3-.1.4-.2.1-.2.1-.5-.2-.7l-2.6-1.5c-.2-.1-.5-.1-.7.2-.1.2-.1.5.2.7l2.7 1.4zm5.2 3c.1 0 .2.1.2.1.2 0 .3-.1.4-.2.1-.2.1-.5-.2-.7l-2.6-1.5c-.2-.1-.5-.1-.7.2s-.1.5.2.7l2.7 1.4zm-62.3-36c.1 0 .2.1.2.1.2 0 .3-.1.4-.2.1-.2.1-.5-.2-.7l-2.6-1.5c-.2-.1-.5-.1-.7.2-.1.2-.1.5.2.7l2.7 1.4zm36.3 21c.1 0 .2.1.2.1.2 0 .3-.1.4-.2.1-.2.1-.5-.2-.7l-2.6-1.5c-.2-.1-.5-.1-.7.2-.1.2-.1.5.2.7l2.7 1.4zm5.2 3c.1 0 .2.1.2.1.2 0 .3-.1.4-.2.1-.2.1-.5-.2-.7l-2.6-1.5c-.2-.1-.5-.1-.7.2-.1.2-.1.5.2.7l2.7 1.4zM109.8 166.8l-1.4-2.6c-.1-.2 0-.5.2-.7.2-.1.5 0 .7.2l1.4 2.6c.1.2 0 .5-.2.7-.1 0-.2.1-.2.1-.3 0-.5-.1-.5-.3zm-5.4-10.3c.1 0 .2 0 .2-.1.2-.1.3-.4.2-.7l-1.4-2.6c-.1-.2-.4-.3-.7-.2-.2.1-.3.4-.2.7l1.4 2.6c.2.2.4.3.5.3zm2.9 5.3c.1 0 .2 0 .2-.1.2-.1.3-.4.2-.7l-1.4-2.6c-.1-.2-.4-.3-.7-.2-.2.1-.3.4-.2.7l1.4 2.6c.2.2.3.3.5.3zm5.8 10.5c.1 0 .2 0 .2-.1.2-.1.3-.4.2-.7l-1.4-2.6c-.1-.2-.4-.3-.7-.2-.2.1-.3.4-.2.7l1.4 2.6c.1.2.3.3.5.3zm2.9 5.3c.1 0 .2 0 .2-.1.2-.1.3-.4.2-.7l-1.4-2.6c-.1-.2-.4-.3-.7-.2-.2.1-.3.4-.2.7l1.4 2.6c.1.2.3.3.5.3zM98.7 146c.1 0 .2 0 .2-.1.2-.1.3-.4.2-.7l-1.4-2.6c-.1-.2-.4-.3-.7-.2-.2.1-.3.4-.2.7l1.4 2.6c.1.2.3.3.5.3zm20.1 36.9c.1 0 .2 0 .2-.1.2-.1.3-.4.2-.7l-1.4-2.6c-.1-.2-.4-.3-.7-.2s-.3.4-.2.7l1.4 2.6c.2.2.4.3.5.3zm-17.2-31.7c.1 0 .2 0 .2-.1.2-.1.3-.4.2-.7l-1.4-2.6c-.1-.2-.4-.3-.7-.2-.2.1-.3.4-.2.7l1.4 2.6c.1.3.3.3.5.3zm-8.7-15.8c.1 0 .2 0 .2-.1.2-.1.3-.4.2-.7l-1.4-2.6c-.1-.2-.4-.3-.7-.2-.2.1-.3.4-.2.7l1.4 2.6c.2.2.4.3.5.3zm-2.8-5.2c.1 0 .2 0 .2-.1.2-.1.3-.4.2-.7l-1.4-2.6c-.1-.2-.4-.3-.7-.2-.2.1-.3.4-.2.7l1.4 2.6c.1.2.3.3.5.3zm5.7 10.5c.1 0 .2 0 .2-.1.2-.1.3-.4.2-.7l-1.4-2.6c-.1-.2-.4-.3-.7-.2-.2.1-.3.4-.2.7l1.4 2.6c.2.2.3.3.5.3zm46 84.4c.1 0 .2 0 .2-.1.2-.1.3-.4.2-.7l-1.4-2.6c-.1-.2-.4-.3-.7-.2s-.3.4-.2.7l1.4 2.6c.2.2.4.3.5.3zm-2.8-5.3c.1 0 .2 0 .2-.1.2-.1.3-.4.2-.7l-1.4-2.6c-.1-.2-.4-.3-.7-.2-.2.1-.3.4-.2.7l1.4 2.6c.1.2.3.3.5.3zm-2.9-5.3c.1 0 .2 0 .2-.1.2-.1.3-.4.2-.7l-1.4-2.6c-.1-.2-.4-.3-.7-.2-.2.1-.3.4-.2.7l1.4 2.6c.1.2.3.3.5.3zm8.6 15.8c.1 0 .2 0 .2-.1.2-.1.3-.4.2-.7l-1.4-2.6c-.1-.2-.4-.3-.7-.2-.2.1-.3.4-.2.7l1.4 2.6c.2.2.3.3.5.3zm-23-42.1c.1 0 .2 0 .2-.1.2-.1.3-.4.2-.7l-1.4-2.6c-.1-.2-.4-.3-.7-.2-.2.1-.3.4-.2.7l1.4 2.6c.2.2.3.3.5.3zm25.9 47.4c.1 0 .2 0 .2-.1.2-.1.3-.4.2-.7l-1.4-2.6c-.1-.2-.4-.3-.7-.2-.2.1-.3.4-.2.7l1.4 2.6c.2.2.3.3.5.3zm-20.1-36.9c.1 0 .2 0 .2-.1.2-.1.3-.4.2-.7l-1.4-2.6c-.1-.2-.4-.3-.7-.2-.2.1-.3.4-.2.7l1.4 2.6c.1.2.3.3.5.3zm5.7 10.5c.1 0 .2 0 .2-.1.2-.1.3-.4.2-.7l-1.4-2.6c-.1-.2-.4-.3-.7-.2-.2.1-.3.4-.2.7l1.4 2.6c.2.2.3.3.5.3zm-8.6-15.8c.1 0 .2 0 .2-.1.2-.1.3-.4.2-.7l-1.4-2.6c-.1-.2-.4-.3-.7-.2-.2.1-.3.4-.2.7l1.4 2.6c.1.2.3.3.5.3zm5.7 10.6c.1 0 .2 0 .2-.1.2-.1.3-.4.2-.7l-1.4-2.6c-.1-.2-.4-.3-.7-.2s-.3.4-.2.7l1.4 2.6c.2.2.4.3.5.3zm-43.1-79.1c.1 0 .2 0 .2-.1.2-.1.3-.4.2-.7l-1.4-2.6c-.1-.2-.4-.3-.7-.2-.2.1-.3.4-.2.7l1.4 2.6c.1.2.3.3.5.3zM46.9 51.1c.1 0 .2 0 .2-.1.2-.1.3-.4.2-.7l-1.4-2.6c-.1-.2-.4-.3-.7-.2-.2.1-.3.4-.2.7l1.4 2.6c.1.2.3.3.5.3zm2.9 5.2c.1 0 .2 0 .2-.1.2-.1.3-.4.2-.7L48.8 53c-.1-.2-.4-.3-.7-.2-.2.1-.3.4-.2.7l1.4 2.6c.1.2.3.2.5.2zm2.8 5.3c.1 0 .2 0 .2-.1.2-.1.3-.4.2-.7l-1.4-2.6c-.1-.2-.4-.3-.6-.2-.2.1-.3.4-.2.7l1.4 2.6c.1.2.3.3.4.3zm5.8 10.6c.1 0 .2 0 .2-.1.2-.1.3-.4.2-.7l-1.4-2.6c-.1-.2-.4-.3-.7-.2s-.3.4-.2.7l1.4 2.6c.2.2.3.3.5.3zM44 45.8c.1 0 .2 0 .2-.1.2-.1.3-.4.2-.7L43 42.4c-.1-.2-.4-.3-.7-.2s-.3.4-.2.7l1.4 2.6c.2.2.3.3.5.3zm11.5 21.1c.1 0 .2 0 .2-.1.2-.1.3-.4.2-.7l-1.4-2.6c-.1-.2-.4-.3-.7-.2s-.3.4-.2.7l1.4 2.6c.2.2.3.3.5.3zM41.1 40.5c.1 0 .2 0 .2-.1.2-.1.3-.4.2-.7l-1.4-2.6c-.1-.2-.4-.3-.7-.2-.2.1-.3.4-.2.7l1.4 2.6c.2.2.4.3.5.3zm-8.6-15.8c.1 0 .2 0 .2-.1.2-.1.3-.4.2-.7l-.7-1.3c-.1-.2-.4-.3-.7-.2-.2.1-.3.4-.2.7l.7 1.3c.2.2.3.3.5.3zm2.9 5.3c.1 0 .2 0 .2-.1.2-.1.3-.4.2-.7l-1.4-2.6c-.1-.2-.4-.3-.7-.2-.2.1-.3.4-.2.7l1.4 2.6c.1.2.3.3.5.3zm2.9 5.3c.1 0 .2 0 .2-.1.2-.1.3-.4.2-.7l-1.4-2.6c-.1-.2-.4-.3-.7-.2-.2.1-.3.4-.2.7l1.4 2.6c.1.2.3.3.5.3zM67 88c.1 0 .2 0 .2-.1.2-.1.3-.4.2-.7L66 84.6c-.1-.2-.4-.3-.7-.2-.2.1-.3.4-.2.7l1.4 2.6c.2.2.4.3.5.3zm11.5 21.1c.1 0 .2 0 .2-.1.2-.1.3-.4.2-.7l-1.4-2.6c-.1-.2-.4-.3-.7-.2-.2.1-.3.4-.2.7l1.4 2.6c.2.2.4.3.5.3zm2.9 5.2c.1 0 .2 0 .2-.1.2-.1.3-.4.2-.7l-1.4-2.6c-.1-.2-.4-.3-.7-.2-.2.1-.3.4-.2.7l1.4 2.6c.2.2.3.3.5.3zm-5.7-10.5c.1 0 .2 0 .2-.1.2-.1.3-.4.2-.7l-1.4-2.6c-.1-.2-.4-.3-.7-.2s-.3.4-.2.7l1.4 2.6c.1.2.3.3.5.3zm8.6 15.8c.1 0 .2 0 .2-.1.2-.1.3-.4.2-.7l-1.4-2.6c-.1-.2-.4-.3-.7-.2-.2.1-.3.4-.2.7l1.4 2.6c.2.2.3.3.5.3zM72.8 98.5c.1 0 .2 0 .2-.1.2-.1.3-.4.2-.7l-1.4-2.6c-.1-.2-.4-.3-.7-.2s-.3.4-.2.7l1.4 2.6c.1.2.3.3.5.3zm-8.6-15.8c.1 0 .2 0 .2-.1.2-.1.3-.4.2-.7l-1.4-2.6c-.1-.2-.4-.3-.7-.2-.2.1-.3.4-.2.7l1.4 2.6c.1.2.3.3.5.3zm86.3 158.2c.1 0 .2 0 .2-.1.2-.1.3-.4.2-.7l-1.4-2.6c-.1-.2-.4-.3-.7-.2-.2.1-.3.4-.2.7l1.4 2.6c.1.2.3.3.5.3zM69.9 93.3c.1 0 .2 0 .2-.1.2-.1.3-.4.2-.7l-1.4-2.6c-.1-.2-.4-.3-.7-.2-.2.1-.3.4-.2.7l1.4 2.6c.2.2.3.3.5.3zm-8.6-15.9c.1 0 .2 0 .2-.1.2-.1.3-.4.2-.7L60.3 74c-.1-.2-.4-.3-.7-.2-.2.1-.3.4-.2.7l1.4 2.6c.1.2.3.3.5.3zm155.4 284.7c.1 0 .2 0 .2-.1.2-.1.3-.4.2-.7l-1.4-2.6c-.1-.2-.4-.3-.7-.2-.2.1-.3.4-.2.7l1.4 2.6c.1.2.3.3.5.3zm20.1 36.9c.1 0 .2 0 .2-.1.2-.1.3-.4.2-.7l-1.4-2.6c-.1-.2-.4-.3-.7-.2-.2.1-.3.4-.2.7l1.4 2.6c.2.2.3.3.5.3zm-83.4-152.9c.1 0 .2 0 .2-.1.2-.1.3-.4.2-.7l-1.4-2.6c-.1-.2-.4-.3-.7-.2-.2.1-.3.4-.2.7l1.4 2.6c.1.3.3.3.5.3zm80.5 147.7c.1 0 .2 0 .2-.1.2-.1.3-.4.2-.7l-1.4-2.6c-.1-.2-.4-.3-.7-.2-.2.1-.3.4-.2.7l1.4 2.6c.2.2.3.3.5.3zm5.8 10.5c.1 0 .2 0 .2-.1.2-.1.3-.4.2-.7l-1.4-2.6c-.1-.2-.4-.3-.7-.2s-.3.4-.2.7l1.4 2.6c.1.2.3.3.5.3zm2.9 5.3c.1 0 .2 0 .2-.1.2-.1.3-.4.2-.7l-1.4-2.6c-.1-.2-.4-.3-.7-.2s-.3.4-.2.7l1.4 2.6c.1.2.3.3.5.3zm-14.4-26.4c.1 0 .2 0 .2-.1.2-.1.3-.4.2-.7l-1.4-2.6c-.1-.2-.4-.3-.7-.2-.2.1-.3.4-.2.7l1.4 2.6c.1.2.3.3.5.3zm17.2 31.7c.1 0 .2 0 .2-.1.2-.1.3-.4.2-.7l-1.4-2.6c-.1-.2-.4-.3-.7-.2-.2.1-.3.4-.2.7l1.4 2.6c.2.2.4.3.5.3zm-23-42.2c.1 0 .2 0 .2-.1.2-.1.3-.4.2-.7l-1.4-2.6c-.1-.2-.4-.3-.7-.2-.2.1-.3.4-.2.7l1.4 2.6c.2.2.3.3.5.3zm-2.9-5.3c.1 0 .2 0 .2-.1.2-.1.3-.4.2-.7l-1.4-2.6c-.1-.2-.4-.3-.7-.2-.2.1-.3.4-.2.7l1.4 2.6c.2.2.4.3.5.3zm5.8 10.6c.1 0 .2 0 .2-.1.2-.1.3-.4.2-.7l-1.4-2.6c-.1-.2-.4-.3-.7-.2s-.3.4-.2.7l1.4 2.6c.1.2.3.3.5.3zm5.7 10.5c.1 0 .2 0 .2-.1.2-.1.3-.4.2-.7l-1.4-2.6c-.1-.2-.4-.3-.7-.2-.2.1-.3.4-.2.7l1.4 2.6c.2.2.4.3.5.3zm37.5 68.5c.1 0 .2 0 .2-.1.2-.1.3-.4.2-.7l-1.4-2.6c-.1-.2-.4-.3-.7-.2-.2.1-.3.4-.2.7l1.4 2.6c.1.2.3.3.5.3zm-2.9-5.2c.1 0 .2 0 .2-.1.2-.1.3-.4.2-.7l-1.4-2.6c-.1-.2-.4-.3-.7-.2-.2.1-.3.4-.2.7l1.4 2.6c.1.2.3.3.5.3zm4.7 7.1c-.1-.2-.4-.3-.7-.2-.2.1-.3.4-.2.7l.5.9h1.1l-.7-1.4zm-7.6-12.4c.1 0 .2 0 .2-.1.2-.1.3-.4.2-.7l-1.4-2.6c-.1-.2-.4-.3-.7-.2-.2.1-.3.4-.2.7l1.4 2.6c.2.2.3.3.5.3zm-8.6-15.8c.1 0 .2 0 .2-.1.2-.1.3-.4.2-.7l-1.4-2.6c-.1-.2-.4-.3-.7-.2s-.3.4-.2.7l1.4 2.6c.1.2.3.3.5.3zm5.7 10.5c.1 0 .2 0 .2-.1.2-.1.3-.4.2-.7l-1.4-2.6c-.1-.2-.4-.3-.7-.2-.2.1-.3.4-.2.7l1.4 2.6c.2.2.3.3.5.3zm-11.5-21.1c.1 0 .2 0 .2-.1.2-.1.3-.4.2-.7l-1.4-2.6c-.1-.2-.4-.3-.7-.2-.2.1-.3.4-.2.7l1.4 2.6c.2.2.3.3.5.3zm2.9 5.3c.1 0 .2 0 .2-.1.2-.1.3-.4.2-.7l-1.4-2.6c-.1-.2-.4-.3-.7-.2-.2.1-.3.4-.2.7l1.4 2.6c.1.2.3.3.5.3zm5.7 10.5c.1 0 .2 0 .2-.1.2-.1.3-.4.2-.7l-1.4-2.6c-.1-.2-.4-.3-.7-.2-.2.1-.3.4-.2.7l1.4 2.6c.2.3.4.3.5.3zm-43.1-79c.1 0 .2 0 .2-.1.2-.1.3-.4.2-.7l-1.4-2.6c-.1-.2-.4-.3-.7-.2-.2.1-.3.4-.2.7l1.4 2.6c.1.2.3.3.5.3zm-43.2-79.1c.1 0 .2 0 .2-.1.2-.1.3-.4.2-.7l-1.4-2.6c-.1-.2-.4-.3-.7-.2-.2.1-.3.4-.2.7l1.4 2.6c.2.2.3.3.5.3zm40.3 73.8c.1 0 .2 0 .2-.1.2-.1.3-.4.2-.7l-1.4-2.6c-.1-.2-.4-.3-.7-.2s-.3.4-.2.7l1.4 2.6c.2.2.3.3.5.3zm-31.6-58c.1 0 .2 0 .2-.1.2-.1.3-.4.2-.7l-1.4-2.6c-.1-.2-.4-.3-.7-.2-.2.1-.3.4-.2.7l1.4 2.6c.1.2.3.3.5.3zm-2.9-5.3c.1 0 .2 0 .2-.1.2-.1.3-.4.2-.7l-1.4-2.6c-.1-.2-.4-.3-.7-.2-.2.1-.3.4-.2.7l1.4 2.6c.1.2.3.3.5.3zm-8.7-15.8c.1 0 .2 0 .2-.1.2-.1.3-.4.2-.7l-1.4-2.6c-.1-.2-.4-.3-.7-.2-.2.1-.3.4-.2.7l1.4 2.6c.2.2.4.3.5.3zm14.4 26.4c.1 0 .2 0 .2-.1.2-.1.3-.4.2-.7l-1.4-2.6c-.1-.2-.4-.3-.7-.2-.2.1-.3.4-.2.7l1.4 2.6c.2.2.4.3.5.3zm-25.9-47.5c.1 0 .2 0 .2-.1.2-.1.3-.4.2-.7l-1.4-2.6c-.1-.2-.4-.3-.7-.2-.2.1-.3.4-.2.7l1.4 2.6c.2.2.4.3.5.3zm2.9 5.3c.1 0 .2 0 .2-.1.2-.1.3-.4.2-.7l-1.4-2.6c-.1-.2-.4-.3-.7-.2-.2.1-.3.4-.2.7l1.4 2.6c.2.2.3.3.5.3zm2.9 5.3c.1 0 .2 0 .2-.1.2-.1.3-.4.2-.7l-1.4-2.6c-.1-.2-.4-.3-.7-.2-.2.1-.3.4-.2.7l1.4 2.6c.1.2.3.3.5.3zm2.9 5.2c.1 0 .2 0 .2-.1.2-.1.3-.4.2-.7l-1.4-2.6c-.1-.2-.4-.3-.7-.2-.2.1-.3.4-.2.7l1.4 2.6c.1.2.3.3.5.3zm8.6 15.9c.1 0 .2 0 .2-.1.2-.1.3-.4.2-.7l-1.4-2.6c-.1-.2-.4-.3-.7-.2s-.3.4-.2.7l1.4 2.6c.2.2.3.3.5.3zm11.5 21c.1 0 .2 0 .2-.1.2-.1.3-.4.2-.7l-1.4-2.6c-.1-.2-.4-.3-.7-.2s-.3.4-.2.7l1.4 2.6c.2.2.3.3.5.3zm20.2 36.9c.1 0 .2 0 .2-.1.2-.1.3-.4.2-.7l-1.4-2.6c-.1-.2-.4-.3-.7-.2-.2.1-.3.4-.2.7l1.4 2.6c.1.3.3.3.5.3zm-5.8-10.5c.1 0 .2 0 .2-.1.2-.1.3-.4.2-.7l-1.4-2.6c-.1-.2-.4-.3-.7-.2s-.3.4-.2.7l1.4 2.6c.1.2.3.3.5.3zm8.6 15.8c.1 0 .2 0 .2-.1.2-.1.3-.4.2-.7l-1.4-2.6c-.1-.2-.4-.3-.7-.2-.2.1-.3.4-.2.7l1.4 2.6c.2.2.4.3.5.3zm-5.7-10.5c.1 0 .2 0 .2-.1.2-.1.3-.4.2-.7l-1.4-2.6c-.1-.2-.4-.3-.7-.2-.2.1-.3.4-.2.7l1.4 2.6c.1.2.3.3.5.3zm-14.4-26.4c.1 0 .2 0 .2-.1.2-.1.3-.4.2-.7l-1.4-2.6c-.1-.2-.4-.3-.7-.2s-.3.4-.2.7l1.4 2.6c.1.2.3.3.5.3zm8.6 15.8c.1 0 .2 0 .2-.1.2-.1.3-.4.2-.7l-1.4-2.6c-.1-.2-.4-.3-.7-.2-.2.1-.3.4-.2.7l1.4 2.6c.2.2.3.3.5.3zm-5.7-10.5c.1 0 .2 0 .2-.1.2-.1.3-.4.2-.7l-1.4-2.6c-.1-.2-.4-.3-.7-.2-.2.1-.3.4-.2.7l1.4 2.6c.1.2.3.3.5.3zm2.8 5.3c.1 0 .2 0 .2-.1.2-.1.3-.4.2-.7l-1.4-2.6c-.1-.2-.4-.3-.7-.2-.2.1-.3.4-.2.7l1.4 2.6c.2.2.4.3.5.3z"/><path class="st3" d="M41.7 226.6s-.1 0 0 0c-.3 0-.5-.3-.5-.6l.3-3c0-.3.3-.5.6-.4.3 0 .5.3.4.6l-.3 3c-.1.2-.3.4-.5.4zm-.2 5.5l.3-3c0-.3-.2-.5-.4-.6-.3 0-.5.2-.6.4l-.3 3c0 .3.2.5.4.6h.1c.3 0 .5-.2.5-.4zm1.3-11.9l.3-3c0-.3-.2-.5-.4-.6-.3 0-.5.2-.6.4l-.3 3c0 .3.2.5.4.6h.1c.3 0 .5-.2.5-.4zm5.8-53.5l.3-3c0-.3-.2-.5-.4-.6-.3 0-.5.2-.6.4l-.3 3c0 .3.2.5.4.6h.1c.2.1.4-.1.5-.4zm-8.3 77.2l.3-3c0-.3-.2-.5-.4-.6-.3 0-.5.2-.6.4l-.3 3c0 .3.2.5.4.6h.1c.2.1.4-.1.5-.4zm3.1-29.7l.3-3c0-.3-.2-.5-.4-.6-.3 0-.5.2-.6.4l-.3 3c0 .3.2.5.4.6h.1c.3.1.5-.1.5-.4zm3.9-35.6l.3-3c0-.3-.2-.5-.4-.6-.3 0-.5.2-.6.4l-.3 3c0 .3.2.5.4.6h.1c.2 0 .4-.2.5-.4zm-3.2 29.7l.3-3c0-.3-.2-.5-.4-.6-.3 0-.5.2-.6.4l-.3 3c0 .3.2.5.4.6h.1c.2 0 .5-.1.5-.4zm3.8-35.7l.3-3c0-.3-.2-.5-.4-.6-.3 0-.5.2-.6.4l-.3 3c0 .3.2.5.4.6h.1c.3.1.5-.1.5-.4zm-1.3 11.9l.3-3c0-.3-.2-.5-.4-.6-.3 0-.5.2-.6.4l-.3 3c0 .3.2.5.4.6h.1c.3.1.5-.1.5-.4zm-7 65.4l.3-3c0-.3-.2-.5-.4-.6-.3 0-.5.2-.6.4l-.3 3c0 .3.2.5.4.6h.1c.3 0 .5-.2.5-.4zm5.1-47.5l.3-3c0-.3-.2-.5-.4-.6-.3 0-.5.2-.6.4l-.3 3c0 .3.2.5.4.6h.1c.3 0 .5-.2.5-.4zm1.3-11.9l.3-3c0-.3-.2-.5-.4-.6-.3 0-.5.2-.6.4l-.3 3c0 .3.2.5.4.6h.1c.3 0 .5-.2.5-.4zm-.6 5.9l.3-3c0-.3-.2-.5-.4-.6-.3 0-.5.2-.6.4l-.3 3c0 .3.2.5.4.6h.1c.2.1.4-.1.5-.4zM40.9 238l.3-3c0-.3-.2-.5-.4-.6-.3 0-.5.2-.6.4l-.3 3c0 .3.2.5.4.6h.1c.3.1.5-.1.5-.4zm-8.3 77.2l.3-3c0-.3-.2-.5-.4-.6-.3 0-.5.2-.6.4l-.3 3c0 .3.2.5.4.6h.1c.3.1.5-.1.5-.4zm.6-5.9l.3-3c0-.3-.2-.5-.4-.6-.3 0-.5.2-.6.4l-.3 3c0 .3.2.5.4.6h.1c.3 0 .5-.1.5-.4zm5.8-53.5l.3-3c0-.3-.2-.5-.4-.6-.3 0-.5.2-.6.4l-.3 3c0 .3.2.5.4.6h.1c.2.1.5-.1.5-.4zm-9.6 80.1l-.3 3c0 .3.2.5.4.6h.1c.3 0 .5-.2.5-.4l.3-3c0-.3-.2-.5-.4-.6-.4 0-.6.2-.6.4zm1.9-8.8l.3-3c0-.3-.2-.5-.4-.6-.3 0-.5.2-.6.4l-.3 3c0 .3.2.5.4.6h.1c.3.1.5-.1.5-.4zm-.6 6l.3-3c0-.3-.2-.5-.4-.6-.3 0-.5.2-.6.4l-.3 3c0 .3.2.5.4.6h.1c.2 0 .5-.2.5-.4zm3.2-29.7l.3-3c0-.3-.2-.5-.4-.6-.3 0-.5.2-.6.4l-.3 3c0 .3.2.5.4.6h.1c.2 0 .5-.2.5-.4zM32 321.2l.3-3c0-.3-.2-.5-.4-.6-.3 0-.5.2-.6.4l-.3 3c0 .3.2.5.4.6h.1c.2 0 .4-.2.5-.4zm4.4-41.6l.3-3c0-.3-.2-.5-.4-.6-.3 0-.5.2-.6.4l-.3 3c0 .3.2.5.4.6h.1c.3 0 .5-.2.5-.4zm1.3-11.9l.3-3c0-.3-.2-.5-.4-.6-.3 0-.5.2-.6.4l-.3 3c0 .3.2.5.4.6h.1c.3.1.5-.1.5-.4zm.6-5.9l.3-3c0-.3-.2-.5-.4-.6-.3 0-.5.2-.6.4l-.3 3c0 .3.2.5.4.6h.1c.3 0 .5-.2.5-.4zm-2.5 23.7l.3-3c0-.3-.2-.5-.4-.6-.3 0-.5.2-.6.4l-.3 3c0 .3.2.5.4.6h.1c.2.1.5-.1.5-.4zm-.6 6l.3-3c0-.3-.2-.5-.4-.6-.3 0-.5.2-.6.4l-.3 3c0 .3.2.5.4.6h.1c.2 0 .4-.2.5-.4zm-.7 5.9l.3-3c0-.3-.2-.5-.4-.6-.3 0-.5.2-.6.4l-.3 3c0 .3.2.5.4.6h.1c.3.1.5-.1.5-.4zm2.6-23.7l.3-3c0-.3-.2-.5-.4-.6-.3 0-.5.2-.6.4l-.3 3c0 .3.2.5.4.6h.1c.2 0 .4-.2.5-.4zM63.2 30.1l.3-3c0-.3-.2-.5-.4-.6-.3 0-.5.2-.6.4l-.3 3c0 .3.2.5.4.6h.1c.3 0 .5-.2.5-.4zM62 41.9l.3-3c0-.3-.2-.5-.4-.6-.3 0-.5.2-.6.4l-.3 3c0 .3.2.5.4.6h.1c.2.1.4-.1.5-.4zm.6-5.9l.3-3c0-.3-.2-.5-.4-.6-.3 0-.5.2-.6.4l-.3 3c0 .3.2.5.4.6h.1c.2 0 .5-.1.5-.4zm-1.3 11.9l.3-3c0-.3-.2-.5-.4-.6-.3 0-.5.2-.6.4l-.3 3c0 .3.2.5.4.6h.1c.3 0 .5-.2.5-.4zm-1.9 17.8l.3-3c0-.3-.2-.5-.4-.6-.3 0-.5.2-.6.4l-.3 3c0 .3.2.5.4.6h.1c.3 0 .5-.1.5-.4zm1.3-11.9l.3-3c0-.3-.2-.5-.4-.6-.3 0-.5.2-.6.4l-.3 3c0 .3.2.5.4.6h.1c.2.1.4-.1.5-.4zm-.7 6l.3-3c0-.3-.2-.5-.4-.6-.3 0-.5.2-.6.4l-.3 3c0 .3.2.5.4.6h.1c.3 0 .5-.2.5-.4zm5.8-53.5l.3-3c0-.3-.2-.5-.4-.6-.3 0-.5.2-.6.4l-.3 3c0 .3.2.5.4.6h.1c.2 0 .5-.2.5-.4zM29 343.9s.1 0 0 0c.3 0 .5-.2.6-.4l.2-1.5c0-.3-.2-.5-.4-.6-.3 0-.5.2-.6.4l-.2 1.5c-.1.3.1.6.4.6zM65.4.3c0 .2.2.5.4.5h.1c.3 0 .5-.2.5-.4h-1zm-6.6 71.3l.3-3c0-.3-.2-.5-.4-.6-.3 0-.5.2-.6.4l-.3 3c0 .3.2.5.4.6h.1c.2.1.4-.1.5-.4zm5.7-53.4l.3-3c0-.3-.2-.5-.4-.6-.3 0-.5.2-.6.4l-.3 3c0 .3.2.5.4.6h.1c.3 0 .5-.2.5-.4zm.6-6l.3-3c0-.3-.2-.5-.4-.6-.3 0-.5.2-.6.4l-.3 3c0 .3.2.5.4.6h.1c.3.1.5-.1.5-.4zm-1.2 11.9l.3-3c0-.3-.2-.5-.4-.6-.3 0-.5.2-.6.4l-.3 3c0 .3.2.5.4.6h.1c.2.1.4-.1.5-.4zM53 125.1l.3-3c0-.3-.2-.5-.4-.6-.3 0-.5.2-.6.4l-.3 3c0 .3.2.5.4.6h.1c.3.1.5-.1.5-.4zm5.1-47.5l.3-3c0-.3-.2-.5-.4-.6-.3 0-.5.2-.6.4l-.3 3c0 .3.2.5.4.6h.1c.3 0 .5-.2.5-.4zm-8.9 83.2l.3-3c0-.3-.2-.5-.4-.6-.3 0-.5.2-.6.4l-.3 3c0 .3.2.5.4.6h.1c.2 0 .5-.2.5-.4zm4.5-41.6l.3-3c0-.3-.2-.5-.4-.6-.3 0-.5.2-.6.4l-.3 3c0 .3.2.5.4.6h.1c.2 0 .4-.2.5-.4zm-2 17.8l.3-3c0-.3-.2-.5-.4-.6-.3 0-.5.2-.6.4l-.3 3c0 .3.2.5.4.6h.1c.3 0 .5-.1.5-.4zm-1.9 17.8l.3-3c0-.3-.2-.5-.4-.6-.3 0-.5.2-.6.4l-.3 3c0 .3.2.5.4.6h.1c.3.1.5-.1.5-.4zm1.3-11.9l.3-3c0-.3-.2-.5-.4-.6-.3 0-.5.2-.6.4l-.3 3c0 .3.2.5.4.6h.1c.3.1.5-.1.5-.4zm-.6 6l.3-3c0-.3-.2-.5-.4-.6-.3 0-.5.2-.6.4l-.3 3c0 .3.2.5.4.6h.1c.2 0 .4-.2.5-.4zm1.9-17.8l.3-3c0-.3-.2-.5-.4-.6-.3 0-.5.2-.6.4l-.3 3c0 .3.2.5.4.6h.1c.2 0 .5-.2.5-.4zm4.4-41.6l.3-3c0-.3-.2-.5-.4-.6-.3 0-.5.2-.6.4l-.3 3c0 .3.2.5.4.6h.1c.3 0 .5-.2.5-.4zm.7-6l.3-3c0-.3-.2-.5-.4-.6-.3 0-.5.2-.6.4l-.3 3c0 .3.2.5.4.6h.1c.2.1.5-.1.5-.4zm-1.3 11.9l.3-3c0-.3-.2-.5-.4-.6-.3 0-.5.2-.6.4l-.3 3c0 .3.2.5.4.6h.1c.3.1.5-.1.5-.4zm-1.9 17.8l.3-3c0-.3-.2-.5-.4-.6-.3 0-.5.2-.6.4l-.3 3c0 .3.2.5.4.6h.1c.3.1.5-.1.5-.4zm.6-5.9l.3-3c0-.3-.2-.5-.4-.6-.3 0-.5.2-.6.4l-.3 3c0 .3.2.5.4.6h.1c.3 0 .5-.2.5-.4zm.7-5.9l.3-3c0-.3-.2-.5-.4-.6-.3 0-.5.2-.6.4l-.3 3c0 .3.2.5.4.6h.1c.2 0 .4-.2.5-.4zM335.7 310c-20.3-11.7-39.4-13.6-53.8-5.3-14.4 8.3-22.3 25.8-22.3 49.2 0 35.8 18.8 77.4 45.5 106.4h1.3c-26.9-28.8-45.8-70.5-45.8-106.4 0-23.1 7.8-40.2 21.8-48.4 5.8-3.3 12.3-5 19.4-5 10.2 0 21.6 3.4 33.4 10.3 41.4 23.9 75.1 82.3 75.1 130.2 0 7-.7 13.5-2.1 19.3h1c1.4-5.9 2.1-12.3 2.1-19.3 0-48.2-33.9-106.9-75.6-131z"/><path class="st3" d="M335.8 309.9c0-.3-.2-.5-.5-.5s-.5.2-.5.5l1.5 150.4h1l-1.5-150.4z"/><path class="st3" d="M336.6 398l-.9.5 40 61.8h1.1z"/><path class="st3" d="M336.8 399.9c-.3 0-.6-.1-.9-.3-.9-.5-1.6-1.7-1.6-2.8 0-.6.2-1.1.6-1.3.4-.2.9-.2 1.5.1.9.5 1.6 1.7 1.6 2.8 0 .6-.2 1.1-.6 1.3-.2.2-.4.2-.6.2zm-1.2-3.5h-.1c-.1.1-.1.2-.1.4 0 .7.5 1.6 1.1 1.9.2.1.4.1.5.1.1-.1.1-.2.1-.4 0-.7-.5-1.6-1.1-1.9-.2 0-.4-.1-.4-.1zM259.8 175.6c-.3 0-.6-.1-.9-.3-.9-.5-1.6-1.7-1.6-2.8 0-.6.2-1.1.6-1.3.4-.2.9-.2 1.5.1.9.5 1.6 1.7 1.6 2.8 0 .6-.2 1.1-.6 1.3-.2.2-.4.2-.6.2zm-1.3-3.5h-.1c-.1.1-.1.2-.1.4 0 .7.5 1.6 1.1 1.9.2.1.4.1.5.1.1-.1.1-.2.1-.4 0-.7-.5-1.6-1.1-1.9-.1 0-.3-.1-.4-.1z"/><path class="st3" d="M259.2 174.2c-.2 0-.4-.1-.4-.3l-77.5-145c-.1-.2 0-.5.2-.7.2-.1.5 0 .7.2l77.5 145c.1.2 0 .5-.2.7-.1 0-.2.1-.3.1z"/><path class="st3" d="M136.8 99.4c-.1-.2 0-.5.2-.7l2.7-1.3c.3-.1.5 0 .7.2.1.2 0 .5-.2.7l-2.7 1.3h-.2c-.3.1-.5 0-.5-.2zm-15.9 7.9h.2l2.7-1.3c.2-.1.4-.4.2-.7-.1-.2-.4-.4-.7-.2l-2.7 1.3c-.2.1-.4.4-.2.7.2.1.4.2.5.2zm-21.6 10.2h.2l2.7-1.3c.2-.1.4-.4.2-.7-.1-.3-.4-.4-.7-.2l-2.7 1.3c-.2.1-.4.4-.2.7.1.1.3.2.5.2zm81.3-38.2h.2l2.7-1.3c.2-.1.4-.4.2-.7-.1-.2-.4-.4-.7-.2l-2.7 1.3c-.2.1-.4.4-.2.7.1.1.3.2.5.2zm-70.5 33.1h.2l2.7-1.3c.2-.1.4-.4.2-.7-.1-.2-.4-.4-.7-.2l-2.7 1.3c-.2.1-.4.4-.2.7.1.1.3.2.5.2zm5.4-2.5h.2l2.7-1.3c.2-.1.4-.4.2-.7-.1-.3-.4-.4-.7-.2l-2.7 1.3c-.2.1-.4.4-.2.7.2.1.3.2.5.2zm16.3-7.7h.2l2.7-1.3c.2-.1.4-.4.2-.7-.1-.2-.4-.4-.7-.2l-2.7 1.3c-.2.1-.4.4-.2.7.1.1.3.2.5.2zm32.5-15.3h.2l2.7-1.3c.2-.1.4-.4.2-.7-.1-.2-.4-.4-.7-.2L164 86c-.2.1-.4.4-.2.7.2.1.3.2.5.2zm5.4-2.5h.2l2.7-1.3c.2-.1.4-.4.2-.7-.1-.2-.4-.4-.7-.2l-2.7 1.3c-.2.1-.4.4-.2.7.2.1.4.2.5.2zm5.5-2.6h.2l2.7-1.3c.2-.1.4-.4.2-.7-.1-.2-.4-.4-.7-.2l-2.7 1.3c-.2.1-.4.4-.2.7.1.1.3.2.5.2zm-16.3 7.7h.2l2.7-1.3c.2-.1.4-.4.2-.7-.1-.2-.4-.4-.7-.2l-2.7 1.3c-.2.1-.4.4-.2.7.1.1.3.2.5.2zm-16.3 7.6h.2l2.7-1.3c.2-.1.4-.4.2-.7-.1-.2-.4-.4-.7-.2l-2.7 1.3c-.2.1-.4.4-.2.7.2.1.3.2.5.2zm5.5-2.5h.2l2.7-1.3c.2-.1.4-.4.2-.7-.1-.2-.4-.4-.7-.2l-2.7 1.3c-.2.1-.4.4-.2.7.1.1.3.2.5.2zm5.4-2.6h.2l2.7-1.3c.2-.1.4-.4.2-.7-.1-.2-.4-.4-.7-.2l-2.7 1.3c-.2.1-.4.4-.2.7.1.1.3.2.5.2zm-48.8 23h.2l2.7-1.3c.2-.1.4-.4.2-.7-.1-.3-.4-.4-.7-.2l-2.7 1.3c-.2.1-.4.4-.2.7.1.1.3.2.5.2zm-54.2 25.5h.2l2.7-1.3c.2-.1.4-.4.2-.7-.1-.2-.4-.4-.7-.2l-2.7 1.3c-.2.1-.4.4-.2.7.1.1.3.2.5.2zm-10.9 5.1h.2l2.7-1.3c.2-.1.4-.4.2-.7-.1-.2-.4-.4-.7-.2l-2.7 1.3c-.2.1-.4.4-.2.7.1.1.3.2.5.2zM45 143h.2l2.7-1.3c.2-.1.4-.4.2-.7-.1-.2-.4-.4-.7-.2l-2.7 1.3c-.2.1-.4.4-.2.7.2.1.3.2.5.2zm48.8-22.9h.2l2.7-1.3c.2-.1.4-.4.2-.7-.1-.3-.4-.4-.7-.2l-2.7 1.3c-.2.1-.4.4-.2.7.2.1.3.2.5.2zm-65 30.6h.2l2.7-1.3c.2-.1.4-.4.2-.7-.1-.2-.4-.4-.7-.2l-2.7 1.3c-.2.1-.4.4-.2.7.1 0 .3.2.5.2zm-9.5 4.4h.2l1.4-.6c.2-.1.4-.4.2-.7-.1-.2-.4-.4-.7-.2l-1.4.6c-.2.1-.4.4-.2.7.1.1.3.2.5.2zm4-1.9h.2l2.7-1.3c.2-.1.4-.4.2-.7-.1-.2-.4-.4-.7-.2l-2.7 1.3c-.2.1-.4.4-.2.7.2.1.4.2.5.2zm10.9-5.1h.2l2.7-1.3c.2-.1.4-.4.2-.7-.1-.2-.4-.4-.7-.2l-2.7 1.3c-.2.1-.4.4-.2.7.1.1.3.2.5.2zM83 125.2h.2l2.7-1.3c.2-.1.4-.4.2-.7-.1-.2-.4-.4-.7-.2l-2.7 1.3c-.2.1-.4.4-.2.7.1.1.3.2.5.2zm5.4-2.6h.2l2.7-1.3c.2-.1.4-.4.2-.7-.1-.2-.4-.4-.7-.2l-2.7 1.3c-.2.1-.4.4-.2.7.1.1.3.2.5.2zm-10.8 5.1h.2l2.7-1.3c.2-.1.4-.4.2-.7-.1-.2-.4-.4-.7-.2l-2.7 1.3c-.2.1-.4.4-.2.7.1.1.3.2.5.2zm-21.7 10.2h.2l2.7-1.3c.2-.1.4-.4.2-.7-.1-.2-.4-.4-.7-.2l-2.7 1.3c-.2.1-.4.4-.2.7.1.1.3.2.5.2zm5.4-2.5h.2l2.7-1.3c.2-.1.4-.4.2-.7-.1-.2-.4-.4-.7-.2l-2.7 1.3c-.2.1-.4.4-.2.7.1.1.3.2.5.2zm5.4-2.6h.2l2.7-1.3c.2-.1.4-.4.2-.7-.1-.3-.4-.4-.7-.2l-2.7 1.3c-.2.1-.4.4-.2.7.2.1.3.2.5.2zm5.4-2.5h.2L75 129c.2-.1.4-.4.2-.7-.1-.3-.4-.4-.7-.2l-2.7 1.3c-.2.1-.4.4-.2.7.2.1.4.2.5.2zm54.3-25.5h.2l2.7-1.3c.2-.1.4-.4.2-.7-.1-.2-.4-.4-.7-.2l-2.7 1.3c-.2.1-.4.4-.2.7.1.1.3.2.5.2zm168.1-79h.2l2.7-1.3c.2-.1.4-.4.2-.7-.1-.3-.4-.4-.7-.2l-2.7 1.3c-.2.1-.4.4-.2.7.1.1.3.2.5.2zm5.4-2.6h.2l2.7-1.3c.2-.1.4-.4.2-.7-.1-.3-.4-.4-.7-.2l-2.7 1.3c-.2.1-.4.4-.2.7.1.1.3.2.5.2zm5.4-2.5h.2l2.7-1.3c.2-.1.4-.4.2-.7-.1-.2-.4-.4-.7-.2l-2.7 1.3c-.2.1-.4.4-.2.7.1.1.3.2.5.2zM289 28.3h.2L292 27c.2-.1.4-.4.2-.7-.1-.2-.4-.4-.7-.2l-2.7 1.3c-.2.1-.4.4-.2.7.1.1.2.2.4.2zM272.8 36h.2l2.7-1.3c.2-.1.4-.4.2-.7-.1-.2-.4-.4-.7-.2l-2.7 1.3c-.2.1-.4.4-.2.7.1.1.3.2.5.2zm5.4-2.6h.2l2.7-1.3c.2-.1.4-.4.2-.7-.1-.2-.4-.4-.7-.2l-2.7 1.3c-.2.1-.4.4-.2.7.1.1.3.2.5.2zm5.4-2.5h.2l2.7-1.3c.2-.1.4-.4.2-.7-.1-.2-.4-.4-.7-.2l-2.7 1.3c-.2.1-.4.4-.2.7.1.1.3.2.5.2zM327 10.5h.2l2.7-1.3c.2-.1.4-.4.2-.7-.1-.2-.4-.4-.7-.2l-2.7 1.3c-.2.1-.4.4-.2.7.1.1.3.2.5.2zm10.8-5.1h.2l2.7-1.3c.2-.1.4-.4.2-.7-.1-.2-.4-.4-.7-.2l-2.7 1.3c-.2.1-.4.4-.2.7.2.1.3.2.5.2zm8-4.8L343 1.9c-.2.1-.4.4-.2.7.1.2.3.3.5.3h.2l2.7-1.3c.2-.1.4-.4.2-.7-.1-.3-.4-.4-.6-.3zm-13.4 7.3h.2l2.7-1.3c.2-.1.4-.4.2-.7-.1-.2-.4-.4-.7-.2L332.2 7c-.2.1-.4.4-.2.7 0 .1.2.2.4.2zM321.6 13h.2l2.7-1.3c.2-.1.4-.4.2-.7-.1-.2-.4-.4-.7-.2l-2.7 1.3c-.2.1-.4.4-.2.7.1.1.3.2.5.2zm-54.3 25.5h.2l2.7-1.3c.2-.1.4-.4.2-.7-.1-.2-.4-.4-.7-.2l-2.7 1.3c-.2.1-.4.4-.2.7.2.1.4.2.5.2zm48.8-22.9h.2l2.7-1.3c.2-.1.4-.4.2-.7-.1-.3-.4-.4-.7-.2l-2.7 1.3c-.2.1-.4.4-.2.7.2.1.4.2.5.2zm-5.4 2.5h.2l2.7-1.3c.2-.1.4-.4.2-.7-.1-.3-.4-.4-.7-.2l-2.7 1.3c-.2.1-.4.4-.2.7.2.1.3.2.5.2zm-54.2 25.5h.2l2.7-1.3c.2-.1.4-.4.2-.7-.1-.2-.4-.4-.7-.2l-2.7 1.3c-.2.1-.4.4-.2.7.1.1.3.2.5.2zM213.1 64h.2l2.7-1.3c.2-.1.4-.4.2-.7-.1-.2-.4-.4-.7-.2l-2.7 1.3c-.2.1-.4.4-.2.7.2.1.3.2.5.2zm5.4-2.5h.2l2.7-1.3c.2-.1.4-.4.2-.7-.1-.3-.4-.4-.7-.2l-2.7 1.3c-.2.1-.4.4-.2.7.2.1.4.2.5.2zm-10.8 5.1h.2l2.7-1.3c.2-.1.4-.4.2-.7-.1-.2-.4-.4-.7-.2l-2.7 1.3c-.2.1-.4.4-.2.7.1.1.3.2.5.2zm-16.3 7.6h.2l2.7-1.3c.2-.1.4-.4.2-.7-.1-.3-.4-.4-.7-.2l-2.7 1.3c-.2.1-.4.4-.2.7.2.1.3.2.5.2zM224 58.9h.2l2.7-1.3c.2-.1.4-.4.2-.7-.1-.3-.4-.4-.7-.2l-2.7 1.3c-.2.1-.4.4-.2.7.1.1.3.2.5.2zm-21.7 10.2h.2l2.7-1.3c.2-.1.4-.4.2-.7-.1-.2-.4-.4-.7-.2l-2.7 1.3c-.2.1-.4.4-.2.7.1.1.3.2.5.2zm59.6-28h.2l2.7-1.3c.2-.1.4-.4.2-.7-.1-.2-.4-.4-.7-.2l-2.7 1.3c-.2.1-.4.4-.2.7.2.1.3.2.5.2zm-65 30.6h.2l2.7-1.3c.2-.1.4-.4.2-.7-.1-.3-.4-.4-.7-.2l-2.7 1.3c-.2.1-.4.4-.2.7.1 0 .3.2.5.2zm32.5-15.3h.2l2.7-1.3c.2-.1.4-.4.2-.7-.1-.3-.4-.4-.7-.2l-2.7 1.3c-.2.1-.4.4-.2.7.1.1.3.2.5.2zm16.3-7.7h.2l2.7-1.3c.2-.1.4-.4.2-.7-.1-.2-.4-.4-.7-.2l-2.7 1.3c-.2.1-.4.4-.2.7.1.1.3.2.5.2zM186 76.8h.2l2.7-1.3c.2-.1.4-.4.2-.7-.1-.2-.4-.4-.7-.2l-2.7 1.3c-.2.1-.4.4-.2.7.1 0 .3.2.5.2zm65.1-30.6h.2l2.7-1.3c.2-.1.4-.4.2-.7-.1-.2-.4-.4-.7-.2l-2.7 1.3c-.2.1-.4.4-.2.7.1.1.3.2.5.2zm-16.3 7.6h.2l2.7-1.3c.2-.1.4-.4.2-.7-.1-.2-.4-.4-.7-.2l-2.7 1.3c-.2.1-.4.4-.2.7.1.1.3.2.5.2zm5.4-2.5h.2l2.7-1.3c.2-.1.4-.4.2-.7-.1-.2-.4-.4-.7-.2l-2.7 1.3c-.2.1-.4.4-.2.7.2.1.3.2.5.2zM196.3 203.3c-.2 0-.4-.1-.5-.3-.1-.3 0-.5.2-.7l124.6-57.8c.3-.1.5 0 .7.2.1.3 0 .5-.2.7l-124.6 57.8c-.1.1-.1.1-.2.1z"/><path class="st3" d="M296.5 281.8c-11.6 0-24.4-3.9-37.7-11.5-46.3-26.8-84-92-84-145.5 0-26 8.8-45.4 24.8-54.7s37.2-7.1 59.7 5.9c46.3 26.8 84 92 84 145.5 0 26-8.8 45.4-24.8 54.7-6.5 3.7-14 5.6-22 5.6zM221.6 65.3c-7.9 0-15.2 1.8-21.6 5.5-15.7 9-24.3 28.2-24.3 53.8 0 53.2 37.5 118.1 83.5 144.7 22.2 12.8 43.1 14.9 58.7 5.9 15.7-9 24.3-28.2 24.3-53.8 0-53.2-37.5-118.1-83.5-144.7-13-7.5-25.7-11.4-37.1-11.4zM156.3 272.7c-.3 0-.5-.3-.5-.6l.3-3c0-.3.3-.5.6-.4.3 0 .5.3.4.6l-.3 3c0 .2-.2.4-.5.4zm1.8-12.5l.3-3c0-.3-.2-.5-.4-.6-.3 0-.5.2-.6.4l-.3 3c0 .3.2.5.4.6h.1c.3.1.5-.1.5-.4zm-1.9 18l.3-3c0-.3-.2-.5-.4-.6-.3 0-.5.2-.6.4l-.3 3c0 .3.2.5.4.6h.1c.3.1.5-.1.5-.4zm2.6-24l.3-3c0-.3-.2-.5-.4-.6-.3 0-.5.2-.6.4l-.3 3c0 .3.2.5.4.6h.1c.2.1.5-.1.5-.4zm5.8-53.9l.3-3c0-.3-.2-.5-.4-.6-.3 0-.5.2-.6.4l-.3 3c0 .3.2.5.4.6h.1c.3 0 .5-.2.5-.4zm-10.3 95.9l.3-3c0-.3-.2-.5-.4-.6-.3 0-.5.2-.6.4l-.3 3c0 .3.2.5.4.6h.1c.2.1.4-.1.5-.4zm-.7 6l.3-3c0-.3-.2-.5-.4-.6-.3 0-.5.2-.6.4l-.3 3c0 .3.2.5.4.6h.1c.3.1.5-.1.5-.4zm1.3-12l.3-3c0-.3-.2-.5-.4-.6-.3 0-.5.2-.6.4l-.3 3c0 .3.2.5.4.6h.1c.3.1.5-.1.5-.4zm.7-6l.3-3c0-.3-.2-.5-.4-.6-.3 0-.5.2-.6.4l-.3 3c0 .3.2.5.4.6h.1c.2.1.4-.1.5-.4zm6.4-60l.3-3c0-.3-.2-.5-.4-.6-.3 0-.5.2-.6.4l-.3 3c0 .3.2.5.4.6h.1c.3.1.5-.1.5-.4zm.7-6l.3-3c0-.3-.2-.5-.4-.6-.3 0-.5.2-.6.4l-.3 3c0 .3.2.5.4.6h.1c.2.1.4-.1.5-.4zm.6-6l.3-3c0-.3-.2-.5-.4-.6-.3 0-.5.2-.6.4l-.3 3c0 .3.2.5.4.6h.1c.3.1.5-.1.5-.4zm.7-6l.3-3c0-.3-.2-.5-.4-.6-.3 0-.5.2-.6.4l-.3 3c0 .3.2.5.4.6h.1c.2.1.4-.1.5-.4zm-2.6 24l.3-3c0-.3-.2-.5-.4-.6-.3 0-.5.2-.6.4l-.3 3c0 .3.2.5.4.6h.1c.2.1.4-.1.5-.4zm-1.3 12l.3-3c0-.3-.2-.5-.4-.6-.3 0-.5.2-.6.4l-.3 3c0 .3.2.5.4.6h.1c.2.1.4-.1.5-.4zm-.7 6l.3-3c0-.3-.2-.5-.4-.6-.3 0-.5.2-.6.4l-.3 3c0 .3.2.5.4.6h.1c.3.1.5-.1.5-.4zm1.3-12l.3-3c0-.3-.2-.5-.4-.6-.3 0-.5.2-.6.4l-.3 3c0 .3.2.5.4.6h.1c.3.1.5-.1.5-.4zm-3.2 30l.3-3c0-.3-.2-.5-.4-.6-.3 0-.5.2-.6.4l-.3 3c0 .3.2.5.4.6h.1c.2.1.5-.1.5-.4zm-4.5 42l.3-3c0-.3-.2-.5-.4-.6-.3 0-.5.2-.6.4l-.3 3c0 .3.2.5.4.6h.1c.2.1.4-.1.5-.4zm-7.8 72l.3-3c0-.3-.2-.5-.4-.6-.3 0-.5.2-.6.4l-.3 3c0 .3.2.5.4.6h.1c.3 0 .5-.2.5-.4zm1.3-12l.3-3c0-.3-.2-.5-.4-.6-.3 0-.5.2-.6.4l-.3 3c0 .3.2.5.4.6h.1c.3 0 .5-.2.5-.4zm-1.9 18l.3-3c0-.3-.2-.5-.4-.6-.3 0-.5.2-.6.4l-.3 3c0 .3.2.5.4.6h.1c.2 0 .4-.2.5-.4zm-.7 6l.3-3c0-.3-.2-.5-.4-.6-.3 0-.5.2-.6.4l-.3 3c0 .3.2.5.4.6h.1c.3 0 .5-.2.5-.4zm3.3-30l.3-3c0-.3-.2-.5-.4-.6-.3 0-.5.2-.6.4l-.3 3c0 .3.2.5.4.6h.1c.2 0 .4-.2.5-.4zm-3.9 36l.3-3c0-.3-.2-.5-.4-.6-.3 0-.5.2-.6.4l-.3 3c0 .3.2.5.4.6h.1c.2 0 .5-.2.5-.4zm-1.3 2.9l-.3 3c0 .3.2.5.4.6h.1c.3 0 .5-.2.5-.4l.3-3c0-.3-.2-.5-.4-.6-.4-.1-.6.1-.6.4zm3.9-26.9l.3-3c0-.3-.2-.5-.4-.6-.3 0-.5.2-.6.4l-.3 3c0 .3.2.5.4.6h.1c.2 0 .4-.2.5-.4zm5.1-48l.3-3c0-.3-.2-.5-.4-.6-.3 0-.5.2-.6.4l-.3 3c0 .3.2.5.4.6h.1c.3 0 .5-.1.5-.4zm1.3-12l.3-3c0-.3-.2-.5-.4-.6-.3 0-.5.2-.6.4l-.3 3c0 .3.2.5.4.6h.1c.3 0 .5-.1.5-.4zm-1.9 18l.3-3c0-.3-.2-.5-.4-.6-.3 0-.5.2-.6.4l-.3 3c0 .3.2.5.4.6h.1c.2 0 .5-.2.5-.4zm-.7 6l.3-3c0-.3-.2-.5-.4-.6-.3 0-.5.2-.6.4l-.3 3c0 .3.2.5.4.6h.1c.3 0 .5-.2.5-.4zm-1.3 12l.3-3c0-.3-.2-.5-.4-.6-.3 0-.5.2-.6.4l-.3 3c0 .3.2.5.4.6h.1c.3 0 .5-.2.5-.4zm-.6 6l.3-3c0-.3-.2-.5-.4-.6-.3 0-.5.2-.6.4l-.3 3c0 .3.2.5.4.6h.1c.3 0 .5-.2.5-.4zm1.3-12l.3-3c0-.3-.2-.5-.4-.6-.3 0-.5.2-.6.4l-.3 3c0 .3.2.5.4.6h.1c.2 0 .5-.2.5-.4zm2.6-24l.3-3c0-.3-.2-.5-.4-.6-.3 0-.5.2-.6.4l-.3 3c0 .3.2.5.4.6h.1c.2 0 .4-.1.5-.4zm27.8-257.9l.3-3c0-.3-.2-.5-.4-.6-.3 0-.5.2-.6.4l-.3 3c0 .3.2.5.4.6h.1c.2.1.4-.1.5-.4zm.6-6l.3-3c0-.3-.2-.5-.4-.6-.3 0-.5.2-.6.4l-.3 3c0 .3.2.5.4.6h.1c.3.1.5-.1.5-.4zm1.3-12l.3-3c0-.3-.2-.5-.4-.6-.3 0-.5.2-.6.4l-.3 3c0 .3.2.5.4.6h.1c.3.1.5-.1.5-.4zm-2.6 24l.3-3c0-.3-.2-.5-.4-.6-.3 0-.5.2-.6.4l-.3 3c0 .3.2.5.4.6h.1c.3.1.5-.1.5-.4zm1.9-18l.3-3c0-.3-.2-.5-.4-.6-.3 0-.5.2-.6.4l-.3 3c0 .3.2.5.4.6h.1c.3.1.5-.1.5-.4zm-3.8 36l.3-3c0-.3-.2-.5-.4-.6-.3 0-.5.2-.6.4l-.3 3c0 .3.2.5.4.6h.1c.2 0 .4-.1.5-.4zm1.3-12l.3-3c0-.3-.2-.5-.4-.6-.3 0-.5.2-.6.4l-.3 3c0 .3.2.5.4.6h.1c.2.1.4-.1.5-.4zm-2 18l.3-3c0-.3-.2-.5-.4-.6-.3 0-.5.2-.6.4l-.3 3c0 .3.2.5.4.6h.1c.3 0 .5-.1.5-.4zm1.3-12l.3-3c0-.3-.2-.5-.4-.6-.3 0-.5.2-.6.4l-.3 3c0 .3.2.5.4.6h.1c.3.1.5-.1.5-.4zm-35.9 328.8c.3 0 .5-.2.6-.4l.2-1.5c0-.3-.2-.5-.4-.6-.3 0-.5.2-.6.4l-.2 1.5c-.1.3.1.6.4.6zM185.3 8.3l.3-3c0-.3-.2-.5-.4-.6-.3 0-.5.2-.6.4l-.3 3c0 .3.2.5.4.6h.1c.2.1.4-.1.5-.4zm-.7 6l.3-3c0-.3-.2-.5-.4-.6-.3 0-.5.2-.6.4l-.3 3c0 .3.2.5.4.6h.1c.3.1.5-.1.5-.4zm.5-14l-.2 1.9c0 .3.2.5.4.6h.1c.3 0 .5-.2.5-.4l.2-2h-1zm-2.4 32l.3-3c0-.3-.2-.5-.4-.6-.3 0-.5.2-.6.4l-.3 3c0 .3.2.5.4.6h.1c.2.1.5-.1.5-.4zm-.7 6l.3-3c0-.3-.2-.5-.4-.6-.3 0-.5.2-.6.4l-.3 3c0 .3.2.5.4.6h.1c.3.1.5-.1.5-.4zm2-18l.3-3c0-.3-.2-.5-.4-.6-.3 0-.5.2-.6.4l-.3 3c0 .3.2.5.4.6h.1c.2.1.5-.1.5-.4zm-.7 6l.3-3c0-.3-.2-.5-.4-.6-.3 0-.5.2-.6.4l-.3 3c0 .3.2.5.4.6h.1c.3.1.5-.1.5-.4zm-12.2 114l.3-3c0-.3-.2-.5-.4-.6-.3 0-.5.2-.6.4l-.3 3c0 .3.2.5.4.6h.1c.2 0 .4-.2.5-.4zm-2.6 24l.3-3c0-.3-.2-.5-.4-.6-.3 0-.5.2-.6.4l-.3 3c0 .3.2.5.4.6h.1c.2 0 .4-.2.5-.4zm-.7 6l.3-3c0-.3-.2-.5-.4-.6-.3 0-.5.2-.6.4l-.3 3c0 .3.2.5.4.6h.1c.3 0 .5-.2.5-.4zm1.3-12l.3-3c0-.3-.2-.5-.4-.6-.3 0-.5.2-.6.4l-.3 3c0 .3.2.5.4.6h.1c.3 0 .5-.2.5-.4zm.7-6l.3-3c0-.3-.2-.5-.4-.6-.3 0-.5.2-.6.4l-.3 3c0 .3.2.5.4.6h.1c.2 0 .4-.2.5-.4zm-3.9 36l.3-3c0-.3-.2-.5-.4-.6-.3 0-.5.2-.6.4l-.3 3c0 .3.2.5.4.6h.1c.2 0 .5-.2.5-.4zm4.5-42l.3-3c0-.3-.2-.5-.4-.6-.3 0-.5.2-.6.4l-.3 3c0 .3.2.5.4.6h.1c.3 0 .5-.2.5-.4zm-3.9 36l.3-3c0-.3-.2-.5-.4-.6-.3 0-.5.2-.6.4l-.3 3c0 .3.2.5.4.6h.1c.3 0 .5-.2.5-.4zm.7-6l.3-3c0-.3-.2-.5-.4-.6-.3 0-.5.2-.6.4l-.3 3c0 .3.2.5.4.6h.1c.2 0 .5-.2.5-.4zm-2 18l.3-3c0-.3-.2-.5-.4-.6-.3 0-.5.2-.6.4l-.3 3c0 .3.2.5.4.6h.1c.3 0 .5-.2.5-.4zm8.4-78l.3-3c0-.3-.2-.5-.4-.6-.3 0-.5.2-.6.4l-.3 3c0 .3.2.5.4.6h.1c.3 0 .5-.2.5-.4zm.7-6l.3-3c0-.3-.2-.5-.4-.6-.3 0-.5.2-.6.4l-.3 3c0 .3.2.5.4.6h.1c.2 0 .5-.2.5-.4zm.6-6l.3-3c0-.3-.2-.5-.4-.6-.3 0-.5.2-.6.4l-.3 3c0 .3.2.5.4.6h.1c.3 0 .5-.1.5-.4zm.7-6l.3-3c0-.3-.2-.5-.4-.6-.3 0-.5.2-.6.4l-.3 3c0 .3.2.5.4.6h.1c.2 0 .5-.1.5-.4zm-2.6 24l.3-3c0-.3-.2-.5-.4-.6-.3 0-.5.2-.6.4l-.3 3c0 .3.2.5.4.6h.1c.3 0 .5-.2.5-.4zm-1.3 12l.3-3c0-.3-.2-.5-.4-.6-.3 0-.5.2-.6.4l-.3 3c0 .3.2.5.4.6h.1c.3 0 .5-.2.5-.4zm.7-6l.3-3c0-.3-.2-.5-.4-.6-.3 0-.5.2-.6.4l-.3 3c0 .3.2.5.4.6h.1c.2 0 .4-.2.5-.4z"/><path class="st5" d="M240.3 338.2c-7.5 0-15.7-2.5-24.3-7.4-29.8-17.2-54-59.2-54-93.5 0-16.8 5.7-29.3 16-35.2 10.3-6 24-4.6 38.5 3.8 29.8 17.2 54 59.2 54 93.5 0 16.8-5.7 29.3-16 35.2-4.2 2.4-9 3.6-14.2 3.6zm-48-138.8c-5 0-9.7 1.2-13.8 3.5-10 5.8-15.5 18-15.5 34.4 0 34.1 24 75.6 53.5 92.7 14.2 8.2 27.5 9.5 37.5 3.8 10-5.8 15.5-18 15.5-34.4 0-34.1-24-75.6-53.5-92.7-8.3-4.9-16.4-7.3-23.7-7.3z"/><path id="dashed_line_1_" class="st3" d="M367.2 183.4c-.2 0-.3-.1-.4-.2-.1-.2-.1-.5.2-.7l1.3-.8c.2-.1.5-.1.7.2.1.2.1.5-.2.7l-1.3.8h-.3zm4.1-2.4l2.6-1.5c.2-.1.3-.4.2-.7-.1-.2-.5-.3-.7-.2l-2.6 1.5c-.2.1-.3.4-.2.7.1.2.3.2.4.2.1.1.2.1.3 0zm5.1-3.1l2.6-1.5c.2-.1.3-.4.2-.7-.1-.2-.5-.3-.7-.2l-2.6 1.5c-.2.1-.3.4-.2.7.1.2.3.2.4.2.2.1.3.1.3 0zm5.2-3l2.6-1.5c.2-.1.3-.4.2-.7-.1-.2-.5-.3-.7-.2l-2.6 1.5c-.2.1-.3.4-.2.7.1.2.3.2.4.2h.3zm5.2-3.1l2.6-1.5c.2-.1.3-.4.2-.7-.1-.2-.5-.3-.7-.2l-2.6 1.5c-.2.1-.3.4-.2.7.1.2.3.2.4.2h.3zm5.1-3.1l2.6-1.5c.2-.1.3-.4.2-.7-.1-.2-.5-.3-.7-.2l-2.6 1.5c-.2.1-.3.4-.2.7.1.2.3.2.4.2.2.1.2 0 .3 0zm5.2-3.1l2.6-1.5c.2-.1.3-.4.2-.7-.1-.2-.5-.3-.7-.2l-2.6 1.5c-.2.1-.3.4-.2.7.1.2.3.2.4.2.1.1.2.1.3 0zm5.1-3.1l2.6-1.5c.2-.1.3-.4.2-.7-.1-.2-.5-.3-.7-.2l-2.6 1.5c-.2.1-.3.4-.2.7.1.2.3.2.4.2.2.1.3.1.3 0zm5.2-3.1l2.6-1.5c.2-.1.3-.4.2-.7-.1-.2-.5-.3-.7-.2l-2.6 1.5c-.2.1-.3.4-.2.7.1.2.3.2.4.2.1.1.2.1.3 0zm5.2-3l2.6-1.5c.2-.1.3-.4.2-.7-.1-.2-.5-.3-.7-.2l-2.6 1.5c-.2.1-.3.4-.2.7.1.2.3.2.4.2h.3zm5.1-3.1l2.6-1.5c.2-.1.3-.4.2-.7-.1-.2-.5-.3-.7-.2l-2.6 1.5c-.2.1-.3.4-.2.7.1.2.3.2.4.2h.3zm5.2-3.1l2.6-1.5c.2-.1.3-.4.2-.7-.1-.2-.4-.3-.7-.2l-2.6 1.5c-.2.1-.3.4-.2.7.1.2.3.2.4.2.1.1.2 0 .3 0zm5.1-3.1l2.6-1.5c.2-.1.3-.4.2-.7-.1-.2-.4-.3-.7-.2l-2.6 1.5c-.2.1-.3.4-.2.7.1.2.3.2.4.2.2.1.2.1.3 0zm5.2-3.1l2.6-1.5c.2-.1.3-.4.2-.7-.1-.2-.4-.3-.7-.2l-2.6 1.5c-.2.1-.3.4-.2.7.1.2.3.2.4.2.1.1.2.1.3 0zm5.1-3l2.6-1.5c.2-.1.3-.4.2-.7-.1-.2-.4-.3-.7-.2l-2.6 1.5c-.2.1-.3.4-.2.7.1.2.3.2.4.2h.3zm5.2-3.1l2.6-1.5c.2-.1.3-.4.2-.7-.1-.2-.4-.3-.7-.2L443 137c-.2.1-.3.4-.2.7.1.2.3.2.4.2h.3zm5.2-3.1l2.6-1.5c.2-.1.3-.4.2-.7-.1-.2-.5-.3-.7-.2l-2.6 1.5c-.2.1-.3.4-.2.7.1.2.3.2.4.2.1.1.2 0 .3 0zm5.1-3.1l2.6-1.5c.2-.1.3-.4.2-.7-.1-.2-.5-.3-.7-.2l-2.6 1.5c-.2.1-.3.4-.2.7.1.2.3.2.4.2.1.1.2.1.3 0zm5.2-3.1l2.6-1.5c.2-.1.3-.4.2-.7-.1-.2-.5-.3-.7-.2l-2.6 1.5c-.2.1-.3.4-.2.7.1.2.3.2.4.2.1.1.2.1.3 0zm5.1-3.1l2.6-1.5c.2-.1.3-.4.2-.7-.1-.2-.5-.3-.7-.2l-2.6 1.5c-.2.1-.3.4-.2.7.1.2.3.2.4.2.2.1.2.1.3 0zm5.2-3l2.6-1.5c.2-.1.3-.4.2-.7-.1-.2-.4-.3-.7-.2l-2.6 1.5c-.2.1-.3.4-.2.7.1.2.3.2.4.2h.3zm5.1-3.1l2.6-1.5c.2-.1.3-.4.2-.7-.1-.2-.4-.3-.7-.2l-2.6 1.5c-.2.1-.3.4-.2.7.1.2.3.2.4.2h.3zm5.2-3.1l2.6-1.5c.2-.1.3-.4.2-.7-.1-.2-.4-.3-.7-.2l-2.6 1.5c-.2.1-.3.4-.2.7.1.2.3.2.4.2.1.1.2 0 .3 0zm5.2-3.1l2.6-1.5c.2-.1.3-.4.2-.7-.1-.2-.4-.3-.7-.2l-2.6 1.5c-.2.1-.3.4-.2.7.1.2.3.2.4.2.1.1.2.1.3 0zm5.1-3.1l2.6-1.5c.2-.1.3-.4.2-.7-.1-.2-.4-.3-.7-.2l-2.6 1.5c-.2.1-.3.4-.2.7.1.2.3.2.4.2.1.1.2.1.3 0zm5.2-3.1l2.6-1.5c.2-.1.3-.4.2-.7-.1-.2-.4-.3-.7-.2l-2.6 1.5c-.2.1-.3.4-.2.7.1.2.3.2.4.2.1.1.2.1.3 0zm5.1-3l1.3-.8c.2-.1.3-.4.2-.7-.1-.2-.5-.3-.7-.2l-1.3.8c-.2.1-.3.4-.2.7.1.2.3.2.4.2h.3z"/><path class="st3" d="M445.8 460l-.6.4h-2l2.1-1.2c.2-.1.5-.1.7.2.1.1 0 .4-.2.6zm2.6-1.6l2.6-1.5c.2-.1.3-.4.2-.7-.1-.2-.4-.3-.7-.2l-2.6 1.5c-.2.1-.3.4-.2.7.1.2.3.2.4.2.1.1.2.1.3 0zm5.2-3l2.6-1.5c.2-.1.3-.4.2-.7-.1-.2-.4-.3-.7-.2l-2.6 1.5c-.2.1-.3.4-.2.7.1.2.3.2.4.2.1.1.2.1.3 0zm16.4-10.6l-1.3.8c-.2.1-.3.4-.2.7.1.2.3.2.4.2.1 0 .2 0 .2-.1l1.3-.8c.2-.1.3-.4.2-.7 0-.2-.4-.2-.6-.1zm-11.2 7.6l2.6-1.5c.2-.1.3-.4.2-.7-.1-.2-.4-.3-.7-.2l-2.6 1.5c-.2.1-.3.4-.2.7.1.2.3.2.4.2.1.1.2.1.3 0zm5.2-3l2.6-1.5c.2-.1.3-.4.2-.7-.1-.2-.4-.3-.7-.2l-2.6 1.5c-.2.1-.3.4-.2.7.1.2.3.2.4.2.1.1.2.1.3 0z"/><path class="st3" d="M398.6.3h4l110.6 63.9.8.3c.2.1.4.2.5.4l.3.3c.1.2.2.5.1.7-.6 3.6-6 34.8-26.6 46.5L426.1 148c-12.6 7.2-28.2 5.6-46.3-4.9l-86.7-50c-20.4-11.8-38.1-19.8-52.6-23.8-2.5 8.9-4.7 19.4-6 28.4l-7.8 64.5c-1.8 14.2-2 37.1-.6 48 3.9 27.5 14.8 49 35.4 69.7 12.7 12.6 31 25.9 56.1 40.6l156.2 90.3c.3.2.5.6.5 1-.1 1-2.7 24.1-16.4 38.8-2.7 2.9-5.6 5.3-8.8 7.1l-5 2.9h-4l8-4.6c3-1.7 5.8-4 8.3-6.7 12-12.9 15.2-33.1 15.8-37l-155.7-89.9c-25.2-14.7-43.7-28.1-56.5-40.9-20.9-21-32-42.9-35.9-70.8-1.5-11.1-1.2-34.2.5-48.5l7.8-64.5c1.3-9.4 3.7-20.5 6.3-29.6.1-.5.7-.8 1.2-.7 14.9 4 33 12.1 54.1 24.3l86.7 50c17.4 10.1 32.3 11.7 44.3 4.9l62.2-35.5c19-10.8 24.7-39.9 25.5-44.5l-.5-.2s-.1 0-.1-.1L398.6.3zM217.4 416.4C158.9 382.7 109.8 332.4 79 275c-22.7-42.7-31-88-25.4-138.6l8.8-73.8C65.6 37.3 71.7 16.5 80.5.4h-2.3c-8.7 16.2-14.7 36.9-17.9 62l-8.8 73.8c-5.6 51 2.8 96.8 25.7 139.8 30.9 57.8 80.3 108.3 139.1 142.3l73 42.1h4l-75.9-44z"/><path class="st3" d="M349.6 43.2c-.2-.1-.3-.4-.2-.7.1-.2.4-.3.7-.2l2.6 1.5c.2.1.3.4.2.7-.1.2-.3.2-.4.2-.1 0-.2 0-.2-.1l-2.7-1.4zm-18.2-10.5c.1 0 .2.1.2.1.2 0 .3-.1.4-.2.1-.2.1-.5-.2-.7l-2.6-1.5c-.2-.1-.5-.1-.7.2-.1.2-.1.5.2.7l2.7 1.4zm26 15c.1 0 .2.1.2.1.2 0 .3-.1.4-.2.1-.2.1-.5-.2-.7l-2.6-1.5c-.2-.1-.5-.1-.7.2-.1.2-.1.5.2.7l2.7 1.4zm-15.6-9c.1 0 .2.1.2.1.2 0 .3-.1.4-.2.1-.2.1-.5-.2-.7l-2.6-1.5c-.2-.1-.5-.1-.7.2-.1.2-.1.5.2.7l2.7 1.4zm-5.2-3c.1 0 .2.1.2.1.2 0 .3-.1.4-.2.1-.2.1-.5-.2-.7l-2.6-1.5c-.2-.1-.5-.1-.7.2-.1.2-.1.5.2.7l2.7 1.4zm10.4 6c.1 0 .2.1.2.1.2 0 .3-.1.4-.2.1-.2.1-.5-.2-.7l-2.6-1.5c-.2-.1-.5-.1-.7.2-.1.2-.1.5.2.7l2.7 1.4zm36.4 21c.1 0 .2.1.2.1.2 0 .3-.1.4-.2.1-.2.1-.5-.2-.7l-2.6-1.5c-.2-.1-.5-.1-.7.2-.1.2-.1.5.2.7l2.7 1.4zm-5.2-3c.1 0 .2.1.2.1.2 0 .3-.1.4-.2.1-.2.1-.5-.2-.7l-2.6-1.5c-.2-.1-.5-.1-.7.2-.1.2-.1.5.2.7l2.7 1.4zm-10.4-6c.1 0 .2.1.2.1.2 0 .3-.1.4-.2.1-.2.1-.5-.2-.7l-2.6-1.5c-.2-.1-.5-.1-.7.2-.1.2-.1.5.2.7l2.7 1.4zm-5.2-3c.1 0 .2.1.2.1.2 0 .3-.1.4-.2.1-.2.1-.5-.2-.7l-2.6-1.5c-.2-.1-.5-.1-.7.2-.1.2-.1.5.2.7l2.7 1.4zm10.4 6c.1 0 .2.1.2.1.2 0 .3-.1.4-.2.1-.2.1-.5-.2-.7l-2.6-1.5c-.2-.1-.5-.1-.7.2-.1.2-.1.5.2.7l2.7 1.4zm-88.3-51c.1 0 .2.1.2.1.2 0 .3-.1.4-.2.1-.2.1-.5-.2-.7l-2.6-1.5c-.2-.1-.5-.1-.7.2-.1.2-.1.5.2.7l2.7 1.4zm15.5 9c.1 0 .2.1.2.1.2 0 .3-.1.4-.2.1-.2.1-.5-.2-.7l-2.6-1.5c-.2-.1-.5-.1-.7.2-.1.2-.1.5.2.7l2.7 1.4zm-10.3-6c.1 0 .2.1.2.1.2 0 .3-.1.4-.2.1-.2.1-.5-.2-.7l-2.6-1.5c-.2-.1-.5-.1-.7.2s-.1.5.2.7l2.7 1.4zm5.1 3c.1 0 .2.1.2.1.2 0 .3-.1.4-.2.1-.2.1-.5-.2-.7l-2.6-1.5c-.2-.1-.5-.1-.7.2-.1.2-.1.5.2.7l2.7 1.4zm-15.5-9c.1 0 .2.1.2.1.2 0 .3-.1.4-.2.1-.2.1-.5-.2-.7L277.3.4c-.2-.1-.5-.1-.7.2-.1.2-.1.5.2.7l2.7 1.4zm109 63c.1 0 .2.1.2.1.2 0 .3-.1.4-.2.1-.2.1-.5-.2-.7l-2.6-1.5c-.2-.1-.5-.1-.7.2-.1.2-.1.5.2.7l2.7 1.4zm-67.5-39c.1 0 .2.1.2.1.2 0 .3-.1.4-.2.1-.2.1-.5-.2-.7l-2.6-1.5c-.2-.1-.5-.1-.7.2-.1.2-.1.5.2.7l2.7 1.4zm5.2 3c.1 0 .2.1.2.1.2 0 .3-.1.4-.2.1-.2.1-.5-.2-.7l-2.6-1.5c-.2-.1-.5-.1-.7.2-.1.2-.1.5.2.7l2.7 1.4zm-10.4-6c.1 0 .2.1.2.1.2 0 .3-.1.4-.2.1-.2.1-.5-.2-.7l-2.6-1.5c-.2-.1-.5-.1-.7.2-.1.2-.1.5.2.7l2.7 1.4zm-10.4-6c.1 0 .2.1.2.1.2 0 .3-.1.4-.2.1-.2.1-.5-.2-.7l-2.6-1.5c-.2-.1-.5-.1-.7.2-.1.2-.1.5.2.7l2.7 1.4zm5.2 3c.1 0 .2.1.2.1.2 0 .3-.1.4-.2.1-.2.1-.5-.2-.7l-2.6-1.5c-.2-.1-.5-.1-.7.2-.1.2-.1.5.2.7l2.7 1.4zm140.3 81c.1 0 .2.1.2.1.2 0 .3-.1.4-.2.1-.2.1-.5-.2-.7l-2.6-1.5c-.2-.1-.5-.1-.7.2-.1.2-.1.5.2.7l2.7 1.4zm20.8 12c.1 0 .2.1.2.1.2 0 .3-.1.4-.2.1-.2.1-.5-.2-.7l-2.6-1.5c-.2-.1-.5-.1-.7.2-.1.2-.1.5.2.7l2.7 1.4zm5.2 3c.1 0 .2.1.2.1.2 0 .3-.1.4-.2.1-.2.1-.5-.2-.7l-2.6-1.5c-.2-.1-.5-.1-.7.2-.1.2-.1.5.2.7l2.7 1.4zm-10.4-6c.1 0 .2.1.2.1.2 0 .3-.1.4-.2.1-.2.1-.5-.2-.7l-2.6-1.5c-.2-.1-.5-.1-.7.2-.1.2-.1.5.2.7l2.7 1.4zm-10.4-6c.1 0 .2.1.2.1.2 0 .3-.1.4-.2.1-.2.1-.5-.2-.7l-2.6-1.5c-.2-.1-.5-.1-.7.2-.1.2-.1.5.2.7l2.7 1.4zm26 15c.1 0 .2.1.2.1.2 0 .3-.1.4-.2.1-.2.1-.5-.2-.7l-2.6-1.5c-.2-.1-.5-.1-.7.2-.1.2-.1.5.2.7l2.7 1.4zm-88.4-51c.1 0 .2.1.2.1.2 0 .3-.1.4-.2.1-.2.1-.5-.2-.7l-2.6-1.5c-.2-.1-.5-.1-.7.2s-.1.5.2.7l2.7 1.4zm93.5 54c.1 0 .2.1.2.1.2 0 .3-.1.4-.2.1-.2.1-.5-.2-.7l-2.6-1.5c-.2-.1-.5-.1-.7.2-.1.2-.1.5.2.7l2.7 1.4zm14.8 7.4l-1.3-.8c-.2-.1-.5-.1-.7.2-.1.2-.1.5.2.7l1.3.8c.1 0 .2.1.2.1.2 0 .3-.1.4-.2.3-.4.2-.7-.1-.8zm-4.4-1.4c.1 0 .2.1.2.1.2 0 .3-.1.4-.2.1-.2.1-.5-.2-.7l-2.6-1.5c-.2-.1-.5-.1-.7.2-.1.2-.1.5.2.7l2.7 1.4zm-5.2-3c.1 0 .2.1.2.1.2 0 .3-.1.4-.2.1-.2.1-.5-.2-.7l-2.6-1.5c-.2-.1-.5-.1-.7.2-.1.2-.1.5.2.7l2.7 1.4zm-31.1-18c.1 0 .2.1.2.1.2 0 .3-.1.4-.2.1-.2.1-.5-.2-.7l-2.6-1.5c-.2-.1-.5-.1-.7.2-.1.2-.1.5.2.7l2.7 1.4zm-52-30c.1 0 .2.1.2.1.2 0 .3-.1.4-.2.1-.2.1-.5-.2-.7l-2.6-1.5c-.2-.1-.5-.1-.7.2-.1.2-.1.5.2.7l2.7 1.4zm10.4 6c.1 0 .2.1.2.1.2 0 .3-.1.4-.2.1-.2.1-.5-.2-.7l-2.6-1.5c-.2-.1-.5-.1-.7.2s-.1.5.2.7l2.7 1.4zm-5.2-3c.1 0 .2.1.2.1.2 0 .3-.1.4-.2.1-.2.1-.5-.2-.7l-2.6-1.5c-.2-.1-.5-.1-.7.2-.1.2-.1.5.2.7l2.7 1.4zm-15.6-9c.1 0 .2.1.2.1.2 0 .3-.1.4-.2.1-.2.1-.5-.2-.7l-2.6-1.5c-.2-.1-.5-.1-.7.2-.1.2-.1.5.2.7l2.7 1.4zm5.2 3c.1 0 .2.1.2.1.2 0 .3-.1.4-.2.1-.2.1-.5-.2-.7l-2.6-1.5c-.2-.1-.5-.1-.7.2s-.1.5.2.7l2.7 1.4zm26 15c.1 0 .2.1.2.1.2 0 .3-.1.4-.2.1-.2.1-.5-.2-.7l-2.6-1.5c-.2-.1-.5-.1-.7.2-.1.2-.1.5.2.7l2.7 1.4zm10.4 6c.1 0 .2.1.2.1.2 0 .3-.1.4-.2.1-.2.1-.5-.2-.7l-2.6-1.5c-.2-.1-.5-.1-.7.2-.1.2-.1.5.2.7l2.7 1.4zm-5.2-3c.1 0 .2.1.2.1.2 0 .3-.1.4-.2.1-.2.1-.5-.2-.7l-2.6-1.5c-.2-.1-.5-.1-.7.2-.1.2-.1.5.2.7l2.7 1.4zm-10.4-6c.1 0 .2.1.2.1.2 0 .3-.1.4-.2.1-.2.1-.5-.2-.7l-2.6-1.5c-.2-.1-.5-.1-.7.2-.1.2-.1.5.2.7l2.7 1.4zm20.8 12c.1 0 .2.1.2.1.2 0 .3-.1.4-.2.1-.2.1-.5-.2-.7l-2.6-1.5c-.2-.1-.5-.1-.7.2s-.1.5.2.7l2.7 1.4zM210.7 44.7c-.2-.1-.3-.4-.2-.7.1-.2.4-.3.7-.2l2.6 1.5c.2.1.3.4.2.7-.1.2-.3.2-.4.2-.1 0-.2 0-.2-.1l-2.7-1.4zm39.1 22.6c.1 0 .2.1.2.1.2 0 .3-.1.4-.2.1-.2.1-.5-.2-.7l-2.6-1.5c-.2-.1-.5-.1-.7.2-.1.2-.1.5.2.7l2.7 1.4zm-5.2-3c.1 0 .2.1.2.1.2 0 .3-.1.4-.2.1-.2.1-.5-.2-.7l-2.6-1.5c-.2-.1-.5-.1-.7.2-.1.2-.1.5.2.7l2.7 1.4zm-10.4-6.1c.1 0 .2.1.2.1.2 0 .3-.1.4-.2.1-.2.1-.5-.2-.7l-2.6-1.5c-.2-.1-.5-.1-.7.2-.1.2-.1.5.2.7l2.7 1.4zm-15.7-9c.1 0 .2.1.2.1.2 0 .3-.1.4-.2.1-.2.1-.5-.2-.7l-2.6-1.5c-.2-.1-.5-.1-.7.2-.1.2-.1.5.2.7l2.7 1.4zm5.3 3c.1 0 .2.1.2.1.2 0 .3-.1.4-.2.1-.2.1-.5-.2-.7l-2.6-1.5c-.2-.1-.5-.1-.7.2-.1.2-.1.5.2.7l2.7 1.4zm5.2 3c.1 0 .2.1.2.1.2 0 .3-.1.4-.2.1-.2.1-.5-.2-.7l-2.6-1.5c-.2-.1-.5-.1-.7.2-.1.2-.1.5.2.7l2.7 1.4zm10.4 6.1c.1 0 .2.1.2.1.2 0 .3-.1.4-.2.1-.2.1-.5-.2-.7l-2.6-1.5c-.2-.1-.5-.1-.7.2-.1.2-.1.5.2.7l2.7 1.4zM140.3 4c.1 0 .2.1.2.1.2 0 .3-.1.4-.2.1-.2.1-.5-.2-.7l-2.6-1.5c-.2-.1-.5-.1-.7.2-.1.2-.1.5.2.7l2.7 1.4zm140.8 81.4c.1 0 .2.1.2.1.2 0 .3-.1.4-.2.1-.2.1-.5-.2-.7L279 83c-.2-.1-.5-.1-.7.2-.1.2-.1.5.2.7l2.6 1.5zm5.2 3c.1 0 .2.1.2.1.2 0 .3-.1.4-.2.1-.2.1-.5-.2-.7l-2.6-1.5c-.2-.1-.5-.1-.7.2-.1.2-.1.5.2.7l2.7 1.4zm-20.8-12.1c.1 0 .2.1.2.1.2 0 .3-.1.4-.2.1-.2.1-.5-.2-.7l-2.6-1.5c-.2-.1-.5-.1-.7.2-.1.2-.1.5.2.7l2.7 1.4zm-5.2-3c.1 0 .2.1.2.1.2 0 .3-.1.4-.2.1-.2.1-.5-.2-.7l-2.6-1.5c-.2-.1-.5-.1-.7.2-.1.2-.1.5.2.7l2.7 1.4zm10.4 6c.1 0 .2.1.2.1.2 0 .3-.1.4-.2.1-.2.1-.5-.2-.7l-2.6-1.5c-.2-.1-.5-.1-.7.2-.1.2-.1.5.2.7l2.7 1.4zm-15.6-9c.1 0 .2.1.2.1.2 0 .3-.1.4-.2.1-.2.1-.5-.2-.7l-2.6-1.5c-.2-.1-.5-.1-.7.2-.1.2-.1.5.2.7l2.7 1.4zm20.8 12.1c.1 0 .2.1.2.1.2 0 .3-.1.4-.2.1-.2.1-.5-.2-.7l-2.6-1.5c-.2-.1-.5-.1-.7.2-.1.2-.1.5.2.7l2.7 1.4zM161.2 16c.1 0 .2.1.2.1.2 0 .3-.1.4-.2.1-.2.1-.5-.2-.7l-2.6-1.5c-.2-.1-.5-.1-.7.2-.1.2-.1.5.2.7l2.7 1.4zm-5.3-3c.1 0 .2.1.2.1.2 0 .3-.1.4-.2.1-.2.1-.5-.2-.7l-2.6-1.5c-.2-.1-.5-.1-.7.2-.1.2-.1.5.2.7l2.7 1.4zm10.5 6.1c.1 0 .2.1.2.1.2 0 .3-.1.4-.2.1-.2.1-.5-.2-.7l-2.6-1.5c-.2-.1-.5-.1-.7.2-.1.2-.1.5.2.7l2.7 1.4zm5.2 3c.1 0 .2.1.2.1.2 0 .3-.1.4-.2.1-.2.1-.5-.2-.7l-2.6-1.5c-.2-.1-.5-.1-.7.2-.1.2-.1.5.2.7l2.7 1.4zM145.5 7c.1 0 .2.1.2.1.2 0 .3-.1.4-.2.1-.2.1-.5-.2-.7l-2.6-1.5c-.2-.1-.5-.1-.7.2-.1.2-.1.5.2.7l2.7 1.4zm5.2 3c.1 0 .2.1.2.1.2 0 .3-.1.4-.2.1-.2.1-.5-.2-.7l-2.6-1.5c-.2-.1-.5-.1-.7.2-.1.2-.1.5.2.7l2.7 1.4zm140.9 81.4c.1 0 .2.1.2.1.2 0 .3-.1.4-.2.1-.2.1-.5-.2-.7l-2.6-1.5c-.2-.1-.5-.1-.7.2-.1.2-.1.5.2.7l2.7 1.4zm-88.7-51.2c.1 0 .2.1.2.1.2 0 .3-.1.4-.2.1-.2.1-.5-.2-.7l-2.6-1.5c-.2-.1-.5-.1-.7.2-.1.2-.1.5.2.7l2.7 1.4zm-10.4-6.1c.1 0 .2.1.2.1.2 0 .3-.1.4-.2.1-.2.1-.5-.2-.7l-2.6-1.5c-.2-.1-.5-.1-.7.2-.1.2-.1.5.2.7l2.7 1.4zm5.2 3c.1 0 .2.1.2.1.2 0 .3-.1.4-.2.1-.2.1-.5-.2-.7l-2.6-1.5c-.2-.1-.5-.1-.7.2-.1.2-.1.5.2.7l2.7 1.4zm-20.9-12c.1 0 .2.1.2.1.2 0 .3-.1.4-.2.1-.2.1-.5-.2-.7l-2.6-1.5c-.2-.1-.5-.1-.7.2-.1.2-.1.5.2.7l2.7 1.4zm31.3 18.1c.1 0 .2.1.2.1.2 0 .3-.1.4-.2.1-.2.1-.5-.2-.7l-2.6-1.5c-.2-.1-.5-.1-.7.2-.1.2-.1.5.2.7l2.7 1.4zM182 28.1c.1 0 .2.1.2.1.2 0 .3-.1.4-.2.1-.2.1-.5-.2-.7l-2.6-1.5c-.2-.1-.5-.1-.7.2-.1.2-.1.5.2.7l2.7 1.4zm5.2 3c.1 0 .2.1.2.1.2 0 .3-.1.4-.2.1-.2.1-.5-.2-.7l-2.6-1.5c-.2-.1-.5-.1-.7.2-.1.2-.1.5.2.7l2.7 1.4zm250.4 144.7c.1 0 .2.1.2.1.2 0 .3-.1.4-.2.1-.2.1-.5-.2-.7l-2.6-1.5c-.2-.1-.5-.1-.7.2-.1.2-.1.5.2.7l2.7 1.4zm-41.7-24.1c.1 0 .2.1.2.1.2 0 .3-.1.4-.2.1-.2.1-.5-.2-.7l-2.6-1.5c-.2-.1-.5-.1-.7.2-.1.2-.1.5.2.7l2.7 1.4zM375 139.6c.1 0 .2.1.2.1.2 0 .3-.1.4-.2.1-.2.1-.5-.2-.7l-2.6-1.5c-.2-.1-.5-.1-.7.2-.1.2-.1.5.2.7l2.7 1.4zm31.3 18.1c.1 0 .2.1.2.1.2 0 .3-.1.4-.2.1-.2.1-.5-.2-.7l-2.6-1.5c-.2-.1-.5-.1-.7.2-.1.2-.1.5.2.7l2.7 1.4zm-15.6-9c.1 0 .2.1.2.1.2 0 .3-.1.4-.2.1-.2.1-.5-.2-.7l-2.6-1.5c-.2-.1-.5-.1-.7.2-.1.2-.1.5.2.7l2.7 1.4zm20.8 12c.1 0 .2.1.2.1.2 0 .3-.1.4-.2.1-.2.1-.5-.2-.7l-2.6-1.5c-.2-.1-.5-.1-.7.2-.1.2-.1.5.2.7l2.7 1.4zm-31.3-18.1c.1 0 .2.1.2.1.2 0 .3-.1.4-.2.1-.2.1-.5-.2-.7l-2.6-1.5c-.2-.1-.5-.1-.7.2-.1.2-.1.5.2.7l2.7 1.4zm5.2 3.1c.1 0 .2.1.2.1.2 0 .3-.1.4-.2.1-.2.1-.5-.2-.7l-2.6-1.5c-.2-.1-.5-.1-.7.2-.1.2-.1.5.2.7l2.7 1.4zm15.7 9c.1 0 .2.1.2.1.2 0 .3-.1.4-.2.1-.2.1-.5-.2-.7l-2.6-1.5c-.2-.1-.5-.1-.7.2-.1.2-.1.5.2.7l2.7 1.4zm40.9 22.5l-1.3-.8c-.2-.1-.5-.1-.7.2-.1.2-.1.5.2.7l1.3.8c.1 0 .2.1.2.1.2 0 .3-.1.4-.2.2-.4.2-.7-.1-.8zM135.1 1c.1 0 .2.1.2.1.2 0 .3-.1.4-.2.1-.2.1-.3 0-.5h-1.8l1.2.6zm161.7 93.4c.1 0 .2.1.2.1.2 0 .3-.1.4-.2.1-.2.1-.5-.2-.7l-2.6-1.5c-.2-.1-.5-.1-.7.2-.1.2-.1.5.2.7l2.7 1.4zM422 166.8c.1 0 .2.1.2.1.2 0 .3-.1.4-.2.1-.2.1-.5-.2-.7l-2.6-1.5c-.2-.1-.5-.1-.7.2-.1.2-.1.5.2.7l2.7 1.4zm5.2 3c.1 0 .2.1.2.1.2 0 .3-.1.4-.2.1-.2.1-.5-.2-.7l-2.6-1.5c-.2-.1-.5-.1-.7.2-.1.2-.1.5.2.7l2.7 1.4zm-10.5-6.1c.1 0 .2.1.2.1.2 0 .3-.1.4-.2.1-.2.1-.5-.2-.7l-2.6-1.5c-.2-.1-.5-.1-.7.2-.1.2-.1.5.2.7l2.7 1.4zm15.7 9.1c.1 0 .2.1.2.1.2 0 .3-.1.4-.2.1-.2.1-.5-.2-.7l-2.6-1.5c-.2-.1-.5-.1-.7.2-.1.2-.1.5.2.7l2.7 1.4zm-109.5-63.3c.1 0 .2.1.2.1.2 0 .3-.1.4-.2.1-.2.1-.5-.2-.7l-2.6-1.5c-.2-.1-.5-.1-.7.2-.1.2-.1.5.2.7l2.7 1.4zm10.4 6c.1 0 .2.1.2.1.2 0 .3-.1.4-.2.1-.2.1-.5-.2-.7l-2.6-1.5c-.2-.1-.5-.1-.7.2-.1.2-.1.5.2.7l2.7 1.4zm-5.2-3c.1 0 .2.1.2.1.2 0 .3-.1.4-.2.1-.2.1-.5-.2-.7l-2.6-1.5c-.2-.1-.5-.1-.7.2-.1.2-.1.5.2.7l2.7 1.4zm-10.5-6c.1 0 .2.1.2.1.2 0 .3-.1.4-.2.1-.2.1-.5-.2-.7l-2.6-1.5c-.2-.1-.5-.1-.7.2-.1.2-.1.5.2.7l2.7 1.4zM302 97.4c.1 0 .2.1.2.1.2 0 .3-.1.4-.2.1-.2.1-.5-.2-.7l-2.6-1.5c-.2-.1-.5-.1-.7.2-.1.2-.1.5.2.7l2.7 1.4zm10.4 6.1c.1 0 .2.1.2.1.2 0 .3-.1.4-.2.1-.2.1-.5-.2-.7l-2.6-1.5c-.2-.1-.5-.1-.7.2-.1.2-.1.5.2.7l2.7 1.4zm-5.2-3.1c.1 0 .2.1.2.1.2 0 .3-.1.4-.2.1-.2.1-.5-.2-.7l-2.6-1.5c-.2-.1-.5-.1-.7.2-.1.2-.1.5.2.7l2.7 1.4zm57.4 33.2c.1 0 .2.1.2.1.2 0 .3-.1.4-.2.1-.2.1-.5-.2-.7l-2.6-1.5c-.2-.1-.5-.1-.7.2-.1.2-.1.5.2.7l2.7 1.4zm-5.2-3c.1 0 .2.1.2.1.2 0 .3-.1.4-.2.1-.2.1-.5-.2-.7l-2.6-1.5c-.2-.1-.5-.1-.7.2-.1.2-.1.5.2.7l2.7 1.4zm-5.2-3c.1 0 .2.1.2.1.2 0 .3-.1.4-.2.1-.2.1-.5-.2-.7l-2.6-1.5c-.2-.1-.5-.1-.7.2-.1.2-.1.5.2.7l2.7 1.4zm15.6 9c.1 0 .2.1.2.1.2 0 .3-.1.4-.2.1-.2.1-.5-.2-.7l-2.6-1.5c-.2-.1-.5-.1-.7.2-.1.2-.1.5.2.7l2.7 1.4zm-31.3-18.1c.1 0 .2.1.2.1.2 0 .3-.1.4-.2.1-.2.1-.5-.2-.7l-2.6-1.5c-.2-.1-.5-.1-.7.2-.1.2-.1.5.2.7l2.7 1.4zm5.2 3c.1 0 .2.1.2.1.2 0 .3-.1.4-.2.1-.2.1-.5-.2-.7l-2.6-1.5c-.2-.1-.5-.1-.7.2-.1.2-.1.5.2.7l2.7 1.4zm5.2 3.1c.1 0 .2.1.2.1.2 0 .3-.1.4-.2.1-.2.1-.5-.2-.7l-2.6-1.5c-.2-.1-.5-.1-.7.2-.1.2-.1.5.2.7l2.7 1.4z"/><path class="st3" d="M452.1 87c0 28.1-9.1 49.5-25 58.7-13.1 7.6-30 6.2-47.5-3.9-40.3-23.2-73-85.8-73-139.4V.3h-1v2.1c0 53.9 33 116.9 73.5 140.3 10.2 5.9 20.2 8.8 29.4 8.8 6.9 0 13.3-1.7 19.1-5 16.2-9.4 25.5-31.1 25.5-59.6 0-29.2-9.2-60.3-23.9-86.7H428c14.9 26.4 24.1 57.5 24.1 86.8z"/><path class="st3" d="M378.7.3v141.9c0 .3.2.5.5.5s.5-.2.5-.5V.3h-1z"/><path class="st3" d="M432.8 140.7c-.2 0-.3-.1-.4-.3l-53.8-96.7c-.1-.2 0-.5.2-.7.2-.1.5 0 .7.2l53.8 96.7c.1.2 0 .5-.2.7-.2.1-.2.1-.3.1z"/><path class="st3" d="M379.6 46.2c-.3 0-.5-.1-.8-.2-.9-.5-1.6-1.8-1.6-3 0-.7.3-1.2.7-1.5.4-.2.9-.2 1.4.1.9.5 1.6 1.8 1.6 3 0 .7-.3 1.2-.7 1.5-.2.1-.4.1-.6.1zm-1.1-3.8c-.2.1-.3.3-.3.7 0 .8.5 1.8 1.1 2.1.1 0 .3.1.4.1.1-.1.2-.3.2-.6 0-.8-.5-1.8-1.1-2.1 0-.2-.2-.2-.3-.2z"/><path class="st6" d="M258.8 76.4c-23.3-13.4-44.3-14.6-59.5-5.7 0 0-.1 0-.1.1-15 8.8-24.2 27.5-24.2 54s9.2 55.9 24.2 82c15.2 26.5 36.3 49.7 59.6 63.1 23.3 13.4 44.3 14.6 59.5 5.7 15-8.8 24.3-27.5 24.3-54.1 0-53.4-37.5-118.4-83.8-145.1z"/><path class="st6" d="M296.2 281.9c-11.6 0-24.4-3.9-37.7-11.5-46.3-26.8-84-92-84-145.5 0-25.9 8.7-45.2 24.6-54.5 16-9.4 37.3-7.4 60 5.7 46.3 26.8 84 92 84 145.5 0 25.9-8.7 45.2-24.6 54.5-6.6 3.8-14.1 5.8-22.3 5.8zM221.4 65.4c-8 0-15.3 1.9-21.8 5.7-15.5 9.1-24.1 28.2-24.1 53.7 0 53.2 37.5 118.1 83.5 144.7 22.3 12.9 43.3 14.9 59 5.7 15.5-9.1 24.1-28.2 24.1-53.7 0-53.2-37.5-118.1-83.5-144.7-13.2-7.6-25.8-11.4-37.2-11.4z"/><path class="st7" d="M392.4 192.3c0 26.6-9.3 45.3-24.3 54.1-15.2 8.9-36.2 7.7-59.5-5.7-46.3-26.7-83.8-91.7-83.8-145.1 0-26.6 9.3-45.3 24.3-54.1 15.2-8.9 36.2-7.7 59.5 5.7 46.3 26.7 83.8 91.6 83.8 145.1z"/><path class="st8" d="M346.1 252.6c-11.6 0-24.4-3.9-37.7-11.5-46.3-26.8-84-92-84-145.5 0-25.9 8.7-45.2 24.6-54.5 16-9.4 37.3-7.4 60 5.7 46.3 26.8 84 92 84 145.5 0 25.9-8.7 45.2-24.6 54.5-6.6 3.9-14.2 5.8-22.3 5.8zM271.2 36.2c-8 0-15.3 1.9-21.8 5.7-15.5 9.1-24.1 28.2-24.1 53.7 0 53.2 37.5 118.1 83.5 144.7 22.3 12.9 43.3 14.9 59 5.7 15.5-9.1 24.1-28.2 24.1-53.7 0-53.2-37.5-118.1-83.5-144.7-13.1-7.6-25.8-11.4-37.2-11.4z"/><path class="st9" d="M318.3 275.6c15-8.8 24.3-27.5 24.3-54.1 0-53.4-37.5-118.4-83.8-145.1-23.3-13.4-44.3-14.6-59.5-5.7l49.9-29.2c15.2-8.9 36.2-7.7 59.5 5.7 46.3 26.7 83.8 91.7 83.8 145.1 0 26.6-9.3 45.3-24.3 54.1l-49.9 29.2z"/><path class="st8" d="M318.3 276.1c-.2 0-.3-.1-.4-.2-.1-.2-.1-.5.2-.7 15.5-9.1 24.1-28.2 24.1-53.7 0-53.2-37.5-118.1-83.5-144.7-22.3-12.9-43.3-14.9-59-5.7-.2.1-.5.1-.7-.2-.1-.2-.1-.5.2-.7L248.9 41c16-9.4 37.3-7.4 60 5.7 46.3 26.8 84 92 84 145.5 0 25.9-8.7 45.2-24.6 54.5L318.5 276c-.1.1-.1.1-.2.1zM221.4 64.4c11.6 0 24.4 3.9 37.7 11.5 46.3 26.8 84 92 84 145.5 0 21.6-6.1 38.7-17.3 49.1l42.1-24.7c15.5-9.1 24.1-28.2 24.1-53.7 0-53.2-37.5-118.1-83.5-144.7-22.3-12.9-43.3-14.9-59-5.7l-42.1 24.7c4.3-1.3 9-2 14-2z"/><path class="st9" d="M270.1 299.4c0 17.1-6 29.1-15.6 34.8-9.8 5.7-23.3 5-38.3-3.7-29.8-17.2-53.9-59-53.9-93.4 0-17.1 6-29.1 15.6-34.8 9.8-5.7 23.3-5 38.3 3.7 29.7 17.2 53.9 59 53.9 93.4z"/><path class="st6" d="M240.2 338.4c-7.5 0-15.7-2.5-24.3-7.5-29.9-17.2-54.1-59.3-54.1-93.8 0-16.7 5.6-29.2 15.9-35.2 10.4-6.1 24.1-4.8 38.8 3.7 29.9 17.2 54.1 59.3 54.1 93.8 0 16.7-5.6 29.2-15.9 35.2-4.3 2.5-9.2 3.8-14.5 3.8zm-48.1-139.2c-5.1 0-9.8 1.2-13.9 3.6-9.9 5.8-15.4 18-15.4 34.4 0 34.2 24.1 75.8 53.6 92.9 14.3 8.3 27.7 9.6 37.8 3.7 9.9-5.8 15.4-18 15.4-34.4 0-34.2-24.1-75.8-53.6-92.9-8.5-4.9-16.6-7.3-23.9-7.3z"/><path class="st7" d="M302.1 280.6c0 17.1-6 29.1-15.6 34.8-9.8 5.7-23.3 5-38.3-3.7-29.8-17.2-53.9-59-53.9-93.4 0-17.1 6-29.1 15.6-34.8 9.8-5.7 23.3-5 38.3 3.7 29.8 17.2 53.9 59 53.9 93.4z"/><path class="st6" d="M272.3 319.6c-7.5 0-15.7-2.5-24.3-7.5-29.9-17.2-54.1-59.3-54.1-93.8 0-16.7 5.6-29.2 15.9-35.2 10.4-6.1 24.1-4.8 38.8 3.7 29.9 17.2 54.1 59.3 54.1 93.8 0 16.7-5.6 29.2-15.9 35.2-4.3 2.5-9.2 3.8-14.5 3.8zm-48.1-139.3c-5.1 0-9.8 1.2-13.9 3.6-9.9 5.8-15.4 18-15.4 34.4 0 34.2 24.1 75.8 53.6 92.9 14.3 8.3 27.7 9.6 37.8 3.7 9.9-5.8 15.4-18 15.4-34.4 0-34.2-24.1-75.8-53.6-92.9-8.5-4.8-16.6-7.3-23.9-7.3z"/><path class="st7" d="M254.4 334.2c9.7-5.7 15.6-17.7 15.6-34.8 0-34.4-24.1-76.2-53.9-93.4-15-8.6-28.5-9.4-38.3-3.7l32.1-18.8c9.8-5.7 23.3-5 38.3 3.7 29.8 17.2 53.9 59 53.9 93.4 0 17.1-6 29.1-15.6 34.8l-32.1 18.8z"/><path class="st6" d="M254.4 334.7c-.2 0-.3-.1-.4-.2-.1-.2-.1-.5.2-.7 9.9-5.8 15.4-18 15.4-34.4 0-34.2-24.1-75.8-53.6-92.9-14.3-8.3-27.7-9.6-37.8-3.7-.2.1-.5.1-.7-.2-.1-.2-.1-.5.2-.7l32.1-18.8c10.4-6.1 24.1-4.8 38.8 3.7 29.9 17.2 54.1 59.3 54.1 93.8 0 16.7-5.6 29.2-15.9 35.2l-32.1 18.8c-.1.1-.2.1-.3.1zm-62.3-136.5c7.5 0 15.7 2.5 24.3 7.5 29.9 17.2 54.1 59.3 54.1 93.8 0 13.3-3.6 23.9-10.1 30.7l25.8-15.1c9.9-5.8 15.4-18 15.4-34.4 0-34.2-24.1-75.8-53.6-92.9-14.3-8.3-27.7-9.6-37.8-3.7l-25.8 15.1c2.5-.7 5-1 7.7-1z"/><path class="st3" d="M151.4 297.9c-.2 0-.4-.1-.5-.3-.1-.3 0-.5.3-.7l66-28.2c.3-.1.5 0 .7.3.1.3 0 .5-.3.7l-66 28.2h-.2z"/><path class="st3" d="M218.1 271.5c-.3 0-.6-.1-.9-.3-.9-.5-1.6-1.8-1.6-2.8 0-.6.2-1.1.6-1.3.4-.2.9-.2 1.5.1.9.5 1.6 1.8 1.6 2.8 0 .6-.2 1.1-.6 1.3-.2.1-.4.2-.6.2zm-1.2-3.5h-.1c-.1.1-.1.2-.1.5 0 .7.5 1.6 1.1 1.9.2.1.4.1.5.1.1-.1.1-.2.1-.5 0-.7-.5-1.6-1.1-1.9-.2-.1-.3-.1-.4-.1z"/><path class="st3" d="M254.9 334.2c-.2 0-.3-.1-.4-.2l-76-131.6c-.1-.2-.1-.5.2-.7.2-.1.5-.1.7.2l76 131.6c.1.2.1.5-.2.7h-.3z"/><path class="st10" d="M632.1 51H614v-1h19.8l-1.7 1zM614 61h2.1l1.7-1H614v1zm28.5-16H614v1h26.5l2-1zm5.7-40h-32.9l-1.7 1h34.6V5zm-22 50H614v1h10.4l1.8-1zm22-15H614v1h34.2v-1zm0-25H614v1h34.2v-1zm0-5H614v1h34.2v-1zm-25-9.7L622 1h26.3V.3h-25.1zm25 19.7H614v1h34.2v-1zm0 10H614v1h34.2v-1zm0-5H614v1h34.2v-1zm0 10H614v1h34.2v-1z"/><path id="line_9_" class="st3" d="M572.5 87.2c-.2 0-.3-.1-.4-.2-.1-.2-.1-.5.2-.7l1.3-.8c.2-.1.5-.1.7.2.1.2.1.5-.2.7l-1.3.8h-.3zm4.2-2.4l2.6-1.6c.2-.1.3-.4.2-.7-.1-.2-.4-.3-.7-.2l-2.6 1.6c-.2.1-.3.4-.2.7.1.2.3.2.4.2.1.1.2.1.3 0zm5.2-3.1l2.6-1.6c.2-.1.3-.4.2-.7-.1-.2-.4-.3-.7-.2l-2.6 1.6c-.2.1-.3.4-.2.7.1.2.3.2.4.2.1.1.2.1.3 0zm5.2-3.1l2.6-1.6c.2-.1.3-.4.2-.7-.1-.2-.4-.3-.7-.2l-2.6 1.6c-.2.1-.3.4-.2.7.1.2.3.2.4.2.1.1.2.1.3 0zm5.2-3.1l2.6-1.6c.2-.1.3-.4.2-.7-.1-.2-.4-.3-.7-.2l-2.6 1.6c-.2.1-.3.4-.2.7.1.2.3.2.4.2.1.1.2.1.3 0zm5.2-3.1l2.6-1.6c.2-.1.3-.4.2-.7-.1-.2-.4-.3-.7-.2l-2.6 1.6c-.2.1-.3.4-.2.7.1.2.3.2.4.2.1.1.2 0 .3 0zm5.2-3.1l2.6-1.6c.2-.1.3-.4.2-.7-.1-.2-.5-.3-.7-.2l-2.6 1.6c-.2.1-.3.4-.2.7.1.2.3.2.4.2.1.1.2 0 .3 0zm5.2-3.1l2.6-1.6c.2-.1.3-.4.2-.7-.1-.2-.5-.3-.7-.2l-2.6 1.6c-.2.1-.3.4-.2.7.1.2.3.2.4.2.1.1.2 0 .3 0zm5.2-3.1l2.6-1.6c.2-.1.3-.4.2-.7-.1-.2-.5-.3-.7-.2l-2.6 1.6c-.2.1-.3.4-.2.7.1.2.3.2.4.2.1.1.2 0 .3 0zm5.2-3.1l2.6-1.6c.2-.1.3-.4.2-.7-.1-.2-.5-.3-.7-.2l-2.6 1.6c-.2.1-.3.4-.2.7.1.2.3.2.4.2.1.1.2 0 .3 0zm5.2-3.1l2.6-1.6c.2-.1.3-.4.2-.7-.1-.2-.5-.3-.7-.2L623 56c-.2.1-.3.4-.2.7.1.2.3.2.4.2.1.1.2 0 .3 0zm5.2-3.1l2.6-1.6c.2-.1.3-.4.2-.7-.1-.2-.5-.3-.7-.2l-2.6 1.6c-.2.1-.3.4-.2.7.1.2.3.2.4.2.1.1.2 0 .3 0zm5.2-3.1l2.6-1.6c.2-.1.3-.4.2-.7-.1-.2-.5-.3-.7-.2l-2.6 1.6c-.2.1-.3.4-.2.7.1.2.3.2.4.2.1.1.2 0 .3 0zm5.2-3.1l2.6-1.6c.2-.1.3-.4.2-.7-.1-.2-.5-.3-.7-.2l-2.6 1.6c-.2.1-.3.4-.2.7.1.2.3.2.4.2.1.1.2 0 .3 0zm5.2-3.1l2.6-1.6c.2-.1.3-.4.2-.7-.1-.2-.5-.3-.7-.2l-2.6 1.6c-.2.1-.3.4-.2.7.1.2.3.2.4.2.1.1.2 0 .3 0zm5.2-3.1l2.6-1.6c.2-.1.3-.4.2-.7-.1-.2-.5-.3-.7-.2l-2.6 1.6c-.2.1-.3.4-.2.7.1.2.3.2.4.2.1.1.2 0 .3 0zm5.2-3.1l2.6-1.6c.2-.1.3-.4.2-.7-.1-.2-.5-.3-.7-.2l-2.6 1.6c-.2.1-.3.4-.2.7.1.2.3.2.4.2.1.1.2 0 .3 0zm5.2-3.1l2.6-1.6c.2-.1.3-.4.2-.7-.1-.2-.5-.3-.7-.2l-2.6 1.6c-.2.1-.3.4-.2.7.1.2.3.2.4.2.1.1.2 0 .3 0zm5.2-3.1l2.6-1.6c.2-.1.3-.4.2-.7-.1-.2-.5-.3-.7-.2l-2.6 1.6c-.2.1-.3.4-.2.7.1.2.3.2.4.2.1.1.2 0 .3 0zm5.2-3.1l2.6-1.6c.2-.1.3-.4.2-.7-.1-.2-.5-.3-.7-.2l-2.6 1.6c-.2.1-.3.4-.2.7.1.2.3.2.4.2.1.1.2 0 .3 0zm5.2-3.1l1.3-.8c.2-.1.3-.4.2-.7-.1-.2-.5-.3-.7-.2l-1.3.8c-.2.1-.3.4-.2.7.1.2.3.2.4.2.1.1.2 0 .3 0z"/><path class="st3" d="M608.9 8.9c.1.2.1.5-.2.7l-2.6 1.6c-.1 0-.2.1-.3.1-.2 0-.3-.1-.4-.2-.1-.2-.1-.5.2-.7l2.6-1.6c.2-.2.5-.2.7.1zm4.5-3.3l-2.6 1.6c-.2.1-.3.4-.2.7.1.2.3.2.4.2.1 0 .2 0 .3-.1l2.6-1.6c.2-.1.3-.4.2-.7-.2-.2-.5-.2-.7-.1zm5.2-3.1L616 4.1c-.2.1-.3.4-.2.7.1.2.3.2.4.2.1 0 .2 0 .3-.1l2.6-1.6c.2-.1.3-.4.2-.7-.1-.2-.5-.2-.7-.1zm3.7-2.2l-1.1.7c-.2.1-.3.4-.2.7.1.2.3.2.4.2.1 0 .2 0 .3-.1l2.5-1.5h-1.9zM592.6 18l-2.6 1.6c-.2.1-.3.4-.2.7.1.2.3.2.4.2.1 0 .2 0 .3-.1l2.6-1.6c.2-.1.3-.4.2-.7-.2-.2-.5-.2-.7-.1zm10.4-6.2l-2.6 1.6c-.2.1-.3.4-.2.7.1.2.3.2.4.2.1 0 .2 0 .3-.1l2.6-1.6c.2-.1.3-.4.2-.7-.2-.2-.5-.2-.7-.1zm-5.2 3.1l-2.6 1.6c-.2.1-.3.4-.2.7.1.2.3.2.4.2.1 0 .2 0 .3-.1l2.6-1.6c.2-.1.3-.4.2-.7-.2-.2-.5-.2-.7-.1z"/><path id="plus_plane" class="st11" d="M545.7 282.2l-1.9-1.1 1.1-1.1 1.8 1.1h.1l-1.1 1.1zm7.4 2.6l-1.9-1.1-1.1 1.1 1.9 1.1 1.1-1.1zm-13-7.3c-.2.1-.2.3-.2.6l.6-.6c-.2 0-.3-.1-.4 0zm36.1 20.7l-1 1.1.9.5c.2.1.4.1.5 0 .3-.2.3-.7 0-1.2-.1-.2-.2-.3-.4-.4zm-18.6-9.1v1l1.5-1.5.2-.2-.2-.1v-2.6l-1.5 1.5v.2l-.2-.1-1.1 1.1 1.3.7zm14.3 6.5l-1.9-1.1-1.1 1.1 1.9 1.1 1.1-1.1zm-12.8-.1l-1.5 1.5v3l1.5-1.5v-3zm0-26.9c0-.2-.1-.5-.2-.7-.3-.5-.8-.8-1-.6-.1.1-.2.2-.2.4v2.6l1.5-1.5v-.2zm6.5 23.4l-1.9-1.1-1.1 1.1 1.9 1.1 1.1-1.1zm-6.5 14.8v-1.5l-1.5 1.5v1.9c0 .2.1.5.2.7v.1l1.2-1.2v-1.5zm-1.5-26.6l1.5-1.5v-3l-1.5 1.5v3z"/><path class="st12" d="M-344.9 497.3c0 .4 0 .8-.1 1.2.2-.7.2-1.1.1-1.2z"/></svg>