<svg xmlns="http://www.w3.org/2000/svg" xmlns:xlink="http://www.w3.org/1999/xlink" width="451.05" height="196.72" viewBox="0 0 451.05 196.72">
  <defs>
    <clipPath id="clip-path">
      <path d="M21.14,184.4c3.44-3.55-4.95-12.79-4.95-12.79C8.52,163.45,5,166.47,5,166.47l0-.1a42.06,42.06,0,0,0-2.86,19v.06a42,42,0,0,0,19-1.06Z" style="fill: none"/>
    </clipPath>
    <clipPath id="clip-path-2">
      <path d="M95.7,193.73c2.1-1.95-2.48-7.54-2.48-7.54-4.19-4.95-6.31-3.31-6.31-3.31l0-.06a24.33,24.33,0,0,0-2.22,10.91v0a24.27,24.27,0,0,0,11,0Z" style="fill: none"/>
    </clipPath>
  </defs>
  <title>icon-bombs_1</title>
  <g id="Layer_2" data-name="Layer 2">
    <g id="Benefits_-_1200" data-name="Benefits - 1200">
      <g id="Target">
        <g>
          <path d="M106.72,70.32s.56-.4,1.64-1.14" style="fill: none;stroke: #dfe1e1;stroke-miterlimit: 10"/>
          <path d="M118,62.85c5.51-3.48,12.86-7.94,21.7-12.87" style="fill: none;stroke: #dfe1e1;stroke-miterlimit: 10;stroke-dasharray: 6.307425022125244,4.204949855804443,11.563612937927246,6.307425022125244"/>
          <path d="M142.49,48.45C213.12,9.64,370.39-54.3,448.22,91.28" style="fill: none;stroke: #dfe1e1;stroke-miterlimit: 10;stroke-dasharray: 4.204949855804443,11.563612937927246,6.307425022125244,4.204949855804443,11.563612937927246,6.307425022125244"/>
          <path d="M449.69,94.08l.92,1.78" style="fill: none;stroke: #dfe1e1;stroke-miterlimit: 10"/>
        </g>
        <g>
          <path d="M71.39,121.82a35.17,35.17,0,0,0-4.58-3.48s-32.92,11.79-50.46,29.49-14.7,37.89-14.7,37.89v.06s19.86,4.65,39.06-11.22S74.64,127,74.64,127a35.14,35.14,0,0,0-3.26-5.15Z" style="fill: #fff;stroke: #3f4563;stroke-linecap: round;stroke-linejoin: round"/>
          <polyline points="61.5 150.37 80.65 151.33 95.5 136.16 81.88 128.75 70.76 133.09 59.73 150.29 61.5 150.37" style="fill: #fff;stroke: #3f4563;stroke-linecap: round;stroke-linejoin: round"/>
          <path d="M38.93,130.93l-2.86-8.23,15.14-12.51,14.39,7.46" style="fill: #fff;stroke: #3f4563;stroke-linecap: round;stroke-linejoin: round"/>
          <polygon points="46.77 134.2 52.48 115.75 69.83 100.51 71.44 109.32 62 117.17 65.61 119.27 65.59 121.81 64.95 122.25 46.77 134.2" style="fill: #fff;stroke: #3f4563;stroke-linecap: round;stroke-linejoin: round"/>
          <path d="M78.64,139.07s-3.2-15.44-16.65-21.9l9.44-7.85s13.56,7,15.32,22.15Z" style="fill: #fff;stroke: #373e5a;stroke-linecap: round;stroke-linejoin: round"/>
          <path d="M25.45,183.41c3.46-4.07-6.38-14.66-6.38-14.66-9.25-9.84-12.83-6.57-12.83-6.57l-1.62,3.69s3.68-3.17,11.73,5.39c0,0,8.8,9.69,5.19,13.41Z" style="fill: #fff;stroke: #373e5a;stroke-linecap: round;stroke-linejoin: round"/>
          <polygon points="68.86 99.94 51.51 115.21 45.73 133.36 46.77 134.2 52.48 115.75 69.84 100.36 69.2 100.1 68.86 99.94" style="fill: #fff;stroke: #3f4563;stroke-linecap: round;stroke-linejoin: round"/>
          <path d="M77.31,137.81s-3.13-13.09-15.16-19.54l-.16-1.1c13.44,6.46,16.66,21.9,16.66,21.9Z" style="fill: #fff;stroke: #3f4563;stroke-linecap: round;stroke-linejoin: round"/>
          <polygon points="60.18 151.48 59.73 150.29 80.65 151.37 95.5 136.16 95.51 136.2 95.44 137.56 81.03 152.73 60.18 151.48 60.18 151.48" style="fill: #fff;stroke: #3f4563;stroke-linecap: round;stroke-linejoin: round"/>
          <g>
            <path d="M10.82,160.74a.73.73,0,0,1,.14-.39c.19-.27.5-.4.69-.29s.18.42,0,.68-.49.4-.68.29a.31.31,0,0,1-.14-.3" style="fill: #3f4563"/>
            <path d="M8.08,160.23a.71.71,0,0,1,.14-.36c.18-.25.46-.38.63-.28s.16.38,0,.64-.46.38-.63.28a.28.28,0,0,1-.12-.27" style="fill: #3f4563"/>
            <path d="M14.64,162.68a.86.86,0,0,1,.18-.49.66.66,0,0,1,.87-.26.76.76,0,0,1-.86,1.17.49.49,0,0,1-.18-.42" style="fill: #3f4563"/>
            <path d="M22,169.66a.87.87,0,0,1,.32-.41.56.56,0,1,1,.63.88.65.65,0,0,1-.9,0,.49.49,0,0,1,0-.45" style="fill: #3f4563"/>
            <path d="M24.74,173.6a.82.82,0,0,1,.33-.38.56.56,0,1,1-.32.83.49.49,0,0,1,0-.45" style="fill: #3f4563"/>
            <path d="M18.41,165.83a.89.89,0,0,1,.27-.48.62.62,0,1,1,.83.88.7.7,0,0,1-1,.09.55.55,0,0,1-.13-.49" style="fill: #3f4563"/>
            <path d="M26.74,177.65a.7.7,0,0,1,.34-.21c.3-.08.59,0,.65.24s-.14.46-.44.55-.59,0-.64-.24a.37.37,0,0,1,.09-.34" style="fill: #3f4563"/>
            <path d="M27.49,180.91a.66.66,0,0,1,.3-.22c.27-.1.56,0,.63.16s-.09.43-.37.53-.55,0-.63-.16a.33.33,0,0,1,.06-.31" style="fill: #3f4563"/>
          </g>
          <g style="clip-path: url(#clip-path)">
            <g>
              <path d="M12.2,177.26,12,175.81a4.49,4.49,0,0,0,.87-1l1.54.08-1-1.14a4.78,4.78,0,0,0,.23-1l1.55-.9-1.55-.42a4.42,4.42,0,0,0-.21-.82l1-1.36-1.65.28a3.91,3.91,0,0,0-.58-.63l.45-1.63-1.47,1a3.7,3.7,0,0,0-1.18-.25l-.7-1.47L9,168.13a4,4,0,0,0-.85.32l-1.25-.93.28,1.61a4.53,4.53,0,0,0-.75.88l-1.62-.26,1.06,1.51a4.78,4.78,0,0,0-.16.82l-1.47.86,1.49.4a4.41,4.41,0,0,0,.24.87l-1,1.32,1.63-.27a3.89,3.89,0,0,0,.55.58l-.36,1.74,1.39-1.09a3.71,3.71,0,0,0,.92.22l.68,1.43.4-1.46a3.91,3.91,0,0,0,1-.31Z" style="fill: red;stroke: #fff;stroke-linecap: round;stroke-linejoin: round;stroke-width: 0.5px"/>
              <path d="M11.73,185.3a4.63,4.63,0,0,0,.47-.72l1.61,0-1.18-1.19a4.7,4.7,0,0,0,.1-.9l1.45-.72-1.59-.56a4.27,4.27,0,0,0-.52-1.15l.64-1.56-1.37.68a3.75,3.75,0,0,0-.74-.5L10.51,177l-1,1.31a3.72,3.72,0,0,0-1.08,0l-.79-1.53-.45,1.89a4.22,4.22,0,0,0-.69.41L5,178.37l.6,1.51a4.65,4.65,0,0,0-.49.78l-1.56,0,1.17,1.18a4.71,4.71,0,0,0-.09.85l-1.46.87L4.8,184a4.29,4.29,0,0,0,.39.91l-.62,1.52,1.29-.64a3.77,3.77,0,0,0,.85.66l0,1.43,1-1.09a3.71,3.71,0,0,0,1.2.09l.86,1.34.23-1.59a4.17,4.17,0,0,0,.85-.47l1.57.68Z" style="fill: red;stroke: #fff;stroke-linecap: round;stroke-linejoin: round;stroke-width: 0.5px"/>
              <path d="M9.61,171.36a4.63,4.63,0,0,0,.47-.72l1.61,0-1.18-1.19a4.7,4.7,0,0,0,.1-.9l1.45-.72-1.59-.56a4.27,4.27,0,0,0-.52-1.15l.64-1.56-1.37.68a3.75,3.75,0,0,0-.74-.5L8.39,163l-1,1.31a3.72,3.72,0,0,0-1.08,0l-.79-1.53-.45,1.89a4.22,4.22,0,0,0-.69.41l-1.5-.65.6,1.51a4.65,4.65,0,0,0-.49.78l-1.56,0,1.17,1.18a4.71,4.71,0,0,0-.09.85l-1.46.87,1.62.43a4.29,4.29,0,0,0,.39.91l-.62,1.52,1.29-.64a3.77,3.77,0,0,0,.85.66l0,1.43,1-1.09a3.71,3.71,0,0,0,1.2.09l.86,1.34.23-1.59a4.17,4.17,0,0,0,.85-.47l1.57.68Z" style="fill: red;stroke: #fff;stroke-linecap: round;stroke-linejoin: round;stroke-width: 0.5px"/>
              <path d="M20.73,177.5a4.63,4.63,0,0,0,.47-.72l1.61,0-1.18-1.19a4.71,4.71,0,0,0,.1-.9l1.45-.72-1.59-.56a4.27,4.27,0,0,0-.52-1.15l.64-1.56-1.37.68a3.75,3.75,0,0,0-.74-.5l-.08-1.66-1,1.31a3.72,3.72,0,0,0-1.08,0l-.79-1.53-.45,1.89a4.22,4.22,0,0,0-.69.41l-1.5-.65.6,1.51a4.64,4.64,0,0,0-.49.78l-1.56,0,1.17,1.18a4.7,4.7,0,0,0-.09.85l-1.46.87,1.62.43a4.3,4.3,0,0,0,.39.91l-.62,1.52,1.29-.64a3.76,3.76,0,0,0,.85.66l0,1.43,1-1.09a3.7,3.7,0,0,0,1.2.09l.86,1.34.23-1.59a4.18,4.18,0,0,0,.85-.47l1.57.68Z" style="fill: red;stroke: #fff;stroke-linecap: round;stroke-linejoin: round;stroke-width: 0.5px"/>
              <path d="M8.8,180.75a4.63,4.63,0,0,0,.47-.72l1.61,0L9.69,178.8a4.71,4.71,0,0,0,.1-.9l1.45-.72-1.59-.56a4.27,4.27,0,0,0-.52-1.15l.64-1.56-1.37.68a3.75,3.75,0,0,0-.74-.5l-.08-1.66-1,1.31a3.72,3.72,0,0,0-1.08,0l-.79-1.53-.45,1.89a4.22,4.22,0,0,0-.69.41l-1.5-.65.6,1.51a4.64,4.64,0,0,0-.49.78l-1.56,0,1.17,1.18a4.7,4.7,0,0,0-.09.85l-1.46.87,1.62.43a4.3,4.3,0,0,0,.39.91l-.62,1.52,1.29-.64a3.76,3.76,0,0,0,.85.66l0,1.43,1-1.09a3.7,3.7,0,0,0,1.2.09l.86,1.34L7,182.11a4.18,4.18,0,0,0,.85-.47l1.57.68Z" style="fill: red;stroke: #fff;stroke-linecap: round;stroke-linejoin: round;stroke-width: 0.5px"/>
              <path d="M19.1,186.4a4.63,4.63,0,0,0,.47-.72l1.61,0L20,184.45a4.71,4.71,0,0,0,.1-.9l1.45-.72-1.59-.56a4.27,4.27,0,0,0-.52-1.15l.64-1.56-1.37.68a3.76,3.76,0,0,0-.74-.5l-.08-1.66-1,1.31a3.73,3.73,0,0,0-1.08,0L15,177.83l-.45,1.89a4.21,4.21,0,0,0-.69.41l-1.5-.65L13,181a4.63,4.63,0,0,0-.49.78l-1.56,0L12.1,183a4.68,4.68,0,0,0-.09.85l-1.46.87,1.62.43a4.31,4.31,0,0,0,.39.91l-.62,1.52,1.29-.64a3.76,3.76,0,0,0,.85.66L14,189l1-1.09a3.71,3.71,0,0,0,1.2.09l.86,1.34.23-1.59a4.19,4.19,0,0,0,.85-.47l1.57.68Z" style="fill: red;stroke: #fff;stroke-linecap: round;stroke-linejoin: round;stroke-width: 0.5px"/>
            </g>
          </g>
          <g>
            <g>
              <g>
                <path d="M42.83,163.82h0l2.27,3.83h0c-2.68,2.86-5.71,4.2-8,3.82l3.06-6.39A3.25,3.25,0,0,0,42.83,163.82Z" style="fill: #373e5a"/>
                <path d="M40.57,160l-2.27-3.83h0a16.71,16.71,0,0,0-4.58,9.56L39,163.18A5.54,5.54,0,0,1,40.57,160Z" style="fill: #373e5a"/>
                <path d="M49.68,158.09a6.66,6.66,0,0,0-.72-3.9,3.73,3.73,0,0,0-2.68-1.83l-3.06,6.39a1.22,1.22,0,0,1,.9.59,2.26,2.26,0,0,1,.23,1.3Z" style="fill: #373e5a"/>
              </g>
              <path d="M43,160.5c-.35-.58-1.22-.42-2,.37a2.38,2.38,0,0,0-.71,2.47c.34.59,1.22.42,2-.37A2.38,2.38,0,0,0,43,160.5Z" style="fill: #373e5a"/>
            </g>
            <path d="M50.35,165a21.3,21.3,0,0,0,2.83-8.63c.54-7-4.16-10.23-10.5-7.19s-11.91,11.18-12.45,18.19,4.16,10.23,10.5,7.19l.41-.2" style="fill: none;stroke: #373e5a;stroke-linecap: round;stroke-linejoin: round"/>
          </g>
        </g>
        <g>
          <g>
            <path d="M128.58,158.19a21.27,21.27,0,0,0-2.63-2.27s-20.32,5.87-31.58,15.89-10.31,22.32-10.31,22.32v0s11.81,3.56,24-5.3,22.28-27.45,22.28-27.45a21.26,21.26,0,0,0-1.77-3.23Z" style="fill: #fff;stroke: #3f4563;stroke-linecap: round;stroke-linejoin: round"/>
            <polyline points="121.53 175.06 133.05 176.36 142.59 167.77 134.65 162.77 127.77 164.97 120.46 174.94 121.53 175.06" style="fill: #fff;stroke: #3f4563;stroke-linecap: round;stroke-linejoin: round"/>
            <path d="M108.64,162.46l-1.42-5.08,9.61-7,8.4,5" style="fill: #fff;stroke: #3f4563;stroke-linecap: round;stroke-linejoin: round"/>
            <polygon points="113.25 164.74 117.39 153.81 128.44 145.27 129.08 150.65 123.08 155.03 125.19 156.44 125.08 157.97 124.67 158.21 113.25 164.74" style="fill: #fff;stroke: #3f4563;stroke-linecap: round;stroke-linejoin: round"/>
            <path d="M132.3,168.88S131,159.44,123.08,155l6-4.38s7.92,4.76,8.41,13.95Z" style="fill: #fff;stroke: #373e5a;stroke-linecap: round;stroke-linejoin: round"/>
            <path d="M98.51,193.64c2.24-2.32-3.3-9.09-3.3-9.09-5.21-6.29-7.5-4.45-7.5-4.45l-1.12,2.16s2.34-1.77,6.88,3.7c0,0,4.95,6.18,2.63,8.29Z" style="fill: #fff;stroke: #373e5a;stroke-linecap: round;stroke-linejoin: round"/>
            <polygon points="127.88 144.89 116.83 153.45 112.65 164.19 113.25 164.74 117.39 153.81 128.45 145.18 128.08 145 127.88 144.89" style="fill: #fff;stroke: #3f4563;stroke-linecap: round;stroke-linejoin: round"/>
            <path d="M131.55,168.07s-1.39-8-8.41-12.37l-.05-.67c7.87,4.41,9.23,13.85,9.23,13.85Z" style="fill: #fff;stroke: #373e5a;stroke-linecap: round;stroke-linejoin: round"/>
            <polygon points="120.69 175.67 120.46 174.94 133.05 176.38 142.59 167.77 142.59 167.79 142.5 168.61 133.23 177.22 120.69 175.67 120.69 175.67" style="fill: #fff;stroke: #3f4563;stroke-linecap: round;stroke-linejoin: round"/>
            <line x1="133.05" y1="176.38" x2="133.16" y2="177" style="fill: #fff;stroke: #3f4563;stroke-linecap: round;stroke-linejoin: round"/>
            <g>
              <path d="M90.54,179.4a.44.44,0,0,1,.1-.23c.12-.15.31-.22.42-.15s.1.26,0,.41-.31.22-.42.15a.19.19,0,0,1-.07-.18" style="fill: #969c9c"/>
              <path d="M88.91,179a.43.43,0,0,1,.1-.21c.12-.15.29-.21.39-.15s.08.24,0,.38-.29.21-.39.15a.17.17,0,0,1-.07-.17" style="fill: #969c9c"/>
              <path d="M92.77,180.71a.52.52,0,0,1,.13-.29.34.34,0,1,1,0,.55.3.3,0,0,1-.1-.26" style="fill: #969c9c"/>
              <path d="M96.94,185.21a.52.52,0,0,1,.21-.24.34.34,0,1,1-.2.51.3.3,0,0,1,0-.27" style="fill: #3f4563"/>
              <path d="M98.46,187.69a.5.5,0,0,1,.22-.21.34.34,0,1,1-.22.49.3.3,0,0,1,0-.27" style="fill: #3f4563"/>
              <path d="M94.93,182.76a.54.54,0,0,1,.18-.28.38.38,0,1,1-.12.58.33.33,0,0,1-.06-.3" style="fill: #3f4563"/>
              <path d="M99.51,190.21a.42.42,0,0,1,.22-.12c.18,0,.36,0,.38.17s-.1.27-.29.31-.35,0-.38-.17a.23.23,0,0,1,.07-.2" style="fill: #3f4563"/>
              <path d="M99.84,192.2a.4.4,0,0,1,.19-.12c.17-.05.34,0,.37.12s-.07.26-.24.31-.34,0-.37-.12a.2.2,0,0,1,0-.19" style="fill: #3f4563"/>
            </g>
            <g>
              <g>
                <g>
                  <path d="M110.46,182.3h0l1.24,2.42h0c-1.75,1.64-3.65,2.34-5,2l2.11-3.78A2,2,0,0,0,110.46,182.3Z" style="fill: #373e5a"/>
                  <path d="M109.22,179.89,108,177.47h0a10.22,10.22,0,0,0-3.16,5.66l3.35-1.36a3.39,3.39,0,0,1,1-1.88Z" style="fill: #373e5a"/>
                  <path d="M114.86,179.07a4.08,4.08,0,0,0-.29-2.41,2.28,2.28,0,0,0-1.56-1.22l-2.11,3.79a.75.75,0,0,1,.53.4,1.38,1.38,0,0,1,.09.8Z" style="fill: #373e5a"/>
                </g>
                <path d="M110.71,180.28c-.19-.37-.73-.31-1.21.15a1.46,1.46,0,0,0-.53,1.48c.19.37.73.3,1.21-.15A1.46,1.46,0,0,0,110.71,180.28Z" style="fill: #373e5a"/>
              </g>
              <path d="M115.84,181.85a12,12,0,0,0,1.22-3.7c.6-4.26-2.15-6.4-6.14-4.79a14.9,14.9,0,0,0-8.3,10.63c-.55,3.94,1.76,6.07,5.27,5.09" style="fill: none;stroke: #373e5a;stroke-linecap: round;stroke-linejoin: round"/>
            </g>
            <g>
              <path d="M137.48,152.2s.51-.47,1.49-1.33" style="fill: none;stroke: #dfe1e1;stroke-linecap: round;stroke-linejoin: round"/>
              <path d="M147.41,143.69c4.89-4,11.41-9.18,19.13-14.8" style="fill: none;stroke: #dfe1e1;stroke-linecap: round;stroke-linejoin: round;stroke-dasharray: 6.047420978546143,4.031614303588867,11.086938858032227,6.047420978546143"/>
              <path d="M169,127.12c48.1-34.46,138.46-83.23,178.43.42" style="fill: none;stroke: #dfe1e1;stroke-linecap: round;stroke-linejoin: round;stroke-dasharray: 4.031614303588867,11.086938858032227,6.047420978546143,4.031614303588867,11.086938858032227,6.047420978546143"/>
              <path d="M348.7,130.29q.41.91.81,1.83" style="fill: none;stroke: #dfe1e1;stroke-linecap: round;stroke-linejoin: round"/>
            </g>
          </g>
          <g style="clip-path: url(#clip-path-2)">
            <g>
              <path d="M90.74,189.34l0-.84a2.6,2.6,0,0,0,.53-.52l.89.09-.54-.69a2.76,2.76,0,0,0,.16-.57l.92-.48-.88-.29a2.55,2.55,0,0,0-.1-.48l.65-.76-1,.11a2.26,2.26,0,0,0-.32-.38l.31-.93-.88.53a2.14,2.14,0,0,0-.67-.18l-.36-.87-.29.88a2.31,2.31,0,0,0-.5.16l-.69-.57.11.94a2.62,2.62,0,0,0-.46.48l-.93-.2.57.9a2.77,2.77,0,0,0-.12.47l-.88.45.85.28a2.55,2.55,0,0,0,.11.51l-.63.73,1-.11a2.25,2.25,0,0,0,.3.35l-.26,1,.84-.59a2.14,2.14,0,0,0,.52.15l.35.84.27-.83a2.26,2.26,0,0,0,.61-.15Z" style="fill: red;stroke: #fff;stroke-linecap: round;stroke-linejoin: round;stroke-width: 0.5px"/>
              <path d="M90.23,194a2.68,2.68,0,0,0,.29-.4l.93,0-.65-.72a2.72,2.72,0,0,0,.09-.52l.86-.37-.9-.37a2.47,2.47,0,0,0-.27-.68L91,190l-.81.35a2.17,2.17,0,0,0-.41-.31v-1l-.61.73a2.15,2.15,0,0,0-.62-.06l-.41-.9L87.81,190a2.44,2.44,0,0,0-.41.22l-.85-.42.3.89a2.69,2.69,0,0,0-.3.44l-.9,0,.64.72a2.72,2.72,0,0,0-.08.49l-.87.46.92.3a2.48,2.48,0,0,0,.2.54l-.41.86.76-.33a2.18,2.18,0,0,0,.47.41l-.06.83.58-.6a2.14,2.14,0,0,0,.69.09l.46.8.18-.91a2.41,2.41,0,0,0,.51-.25l.89.44Z" style="fill: red;stroke: #fff;stroke-linecap: round;stroke-linejoin: round;stroke-width: 0.5px"/>
              <path d="M89.42,185.85a2.68,2.68,0,0,0,.29-.4l.93,0-.65-.72a2.72,2.72,0,0,0,.09-.52l.86-.37-.9-.37a2.47,2.47,0,0,0-.27-.68l.42-.88-.81.35A2.17,2.17,0,0,0,89,182v-1l-.61.73a2.15,2.15,0,0,0-.62-.06l-.41-.9L87,181.85a2.44,2.44,0,0,0-.41.22l-.85-.42.3.89a2.69,2.69,0,0,0-.3.44l-.9,0,.64.72a2.72,2.72,0,0,0-.08.49l-.87.46.92.3a2.48,2.48,0,0,0,.2.54l-.41.86L86,186a2.18,2.18,0,0,0,.47.41l-.06.83.58-.6a2.14,2.14,0,0,0,.69.09l.46.8.18-.91a2.41,2.41,0,0,0,.51-.25l.89.44Z" style="fill: red;stroke: #fff;stroke-linecap: round;stroke-linejoin: round;stroke-width: 0.5px"/>
              <path d="M95.66,189.73a2.68,2.68,0,0,0,.29-.4l.93,0-.65-.72a2.72,2.72,0,0,0,.09-.52l.86-.37-.9-.37a2.47,2.47,0,0,0-.27-.68l.42-.88-.81.35a2.17,2.17,0,0,0-.41-.31v-1l-.61.73a2.15,2.15,0,0,0-.62-.06l-.41-.9-.32,1.08a2.44,2.44,0,0,0-.41.22l-.85-.42.3.89a2.69,2.69,0,0,0-.3.44l-.9,0,.64.72a2.72,2.72,0,0,0-.08.49l-.87.46.92.3a2.49,2.49,0,0,0,.2.54l-.41.86.76-.33a2.18,2.18,0,0,0,.47.41l-.06.83.58-.6a2.14,2.14,0,0,0,.69.09l.46.8.18-.91a2.42,2.42,0,0,0,.51-.25l.89.44Z" style="fill: red;stroke: #fff;stroke-linecap: round;stroke-linejoin: round;stroke-width: 0.5px"/>
              <path d="M88.67,191.25a2.68,2.68,0,0,0,.29-.4l.93,0-.65-.72a2.72,2.72,0,0,0,.09-.52l.86-.37-.9-.37a2.47,2.47,0,0,0-.27-.68l.42-.88-.81.35a2.17,2.17,0,0,0-.41-.31v-1l-.61.73a2.15,2.15,0,0,0-.62-.06l-.41-.9-.32,1.08a2.44,2.44,0,0,0-.41.22L85,187l.3.89a2.69,2.69,0,0,0-.3.44l-.9,0,.64.72a2.72,2.72,0,0,0-.08.49l-.87.46.92.3a2.49,2.49,0,0,0,.2.54l-.41.86.76-.33a2.18,2.18,0,0,0,.47.41l-.06.83.58-.6a2.14,2.14,0,0,0,.69.09l.46.8.18-.91a2.42,2.42,0,0,0,.51-.25l.89.44Z" style="fill: red;stroke: #fff;stroke-linecap: round;stroke-linejoin: round;stroke-width: 0.5px"/>
              <path d="M94.45,194.83a2.68,2.68,0,0,0,.29-.4l.93,0-.65-.72a2.72,2.72,0,0,0,.09-.52l.86-.37-.9-.37a2.47,2.47,0,0,0-.27-.68l.42-.88-.81.35a2.18,2.18,0,0,0-.41-.31v-1l-.61.73a2.16,2.16,0,0,0-.62-.06l-.41-.9L92,190.83a2.44,2.44,0,0,0-.41.22l-.85-.42.3.89a2.68,2.68,0,0,0-.3.44l-.9,0,.64.72a2.71,2.71,0,0,0-.08.49l-.87.46.92.3a2.49,2.49,0,0,0,.2.54l-.41.86.76-.33a2.18,2.18,0,0,0,.47.41l-.06.83.58-.6a2.14,2.14,0,0,0,.69.09l.46.8.18-.91a2.42,2.42,0,0,0,.51-.25l.89.44Z" style="fill: red;stroke: #fff;stroke-linecap: round;stroke-linejoin: round;stroke-width: 0.5px"/>
            </g>
          </g>
        </g>
      </g>
    </g>
  </g>
</svg>
