<svg xmlns="http://www.w3.org/2000/svg" width="465.84" height="158" viewBox="0 0 465.84 158">
  <title>icon-fly-bugs</title>
  <g id="Layer_2" data-name="Layer 2">
    <g id="_1200" data-name="1200">
      <g id="Form">
        <g id="Bug_Group" data-name="Bug Group">
          <g>
            <path d="M19.5,90.5" style="fill: none"/>
            <path d="M63.5,131.5c-17-22-52-8-63,26" style="fill: none;stroke: #373e5a;stroke-linecap: round;stroke-linejoin: round;stroke-dasharray: 4,11,6"/>
          </g>
          <g>
            <g>
              <path d="M340.13,55.77s1.29-3,3.63-.65c0,0,1.78,1.94.06,3a3,3,0,0,1-2.13.53S342.88,56.81,340.13,55.77Z" style="fill: #fff;stroke: #373e5a;stroke-linecap: round;stroke-linejoin: round"/>
              <path d="M337.47,57.62a1.37,1.37,0,0,1,2.37-.57s1.22,1.2.11,1.94a2,2,0,0,1-1.39.43S339.3,58.2,337.47,57.62Z" style="fill: #fff;stroke: #373e5a;stroke-linecap: round;stroke-linejoin: round"/>
              <path d="M337.25,58.64s1,1,.09,1.58a1.81,1.81,0,0,1-.9.33l-1.13.29-.19,0,1.09-1-.71-.07.24-.5-1.33.16,1.21-.9C335.93,58.25,336.46,57.94,337.25,58.64Z" style="fill: #373e5a"/>
            </g>
            <path d="M356.85,53.77s.74-.25.64-.75l-.16-1s.05-1.23-1.7-.47a5.6,5.6,0,0,0-1.15.08,3.25,3.25,0,0,0-.68.15,21.94,21.94,0,0,0-3.57.71,8.16,8.16,0,0,1-1.85.39,12,12,0,0,1-2.67,0l-.94-.11a.51.51,0,0,0-.12.68L346.27,55s.47.37.44.64l0,1.62a.8.8,0,0,0,.95.59,4.61,4.61,0,0,1,2.13-1.64S354.84,54.3,356.85,53.77Z" style="fill: #373e5a"/>
            <g>
              <path d="M439.53,44.34l1.72-1.28,5.67.54s-2.7-1.56,0,0l-6.49-4-.1,0h0c-.09,0-.15,0-.18,0h0a.12.12,0,0,0,0,.08v.05l-2.83,2.82a.71.71,0,0,0,0,.73l1.12.54C438.81,44.67,439,44.75,439.53,44.34Z" style="fill: #373e5a"/>
              <path d="M445.4,52.14" style="fill: #75757f"/>
              <line x1="445.42" y1="52.13" x2="445.42" y2="52.13" style="fill: #75757f"/>
              <path d="M443.94,51.09s.22.09.3,0l3.65-2.34s0,0,0,0l-4,.2-3.08-1.79c-1-.58-1.1-.52-.72.34l-.79.61a2.09,2.09,0,0,0,.7.81Z" style="fill: #373e5a"/>
            </g>
            <path d="M426.22,32.37a3.27,3.27,0,0,1,1.1-.54c1.22-.33,3.68-.39,6,3.15l4.57,7.3s6.79,7.82-2.28,9.81a39.44,39.44,0,0,1-7.69.13l-3.1-18.82Z" style="fill: #fff;stroke: #373e5a;stroke-miterlimit: 10"/>
            <path d="M355.39,43.55s-4.66,8.46,3.73,20.23c2.5,3.5,10,7.11,14.44,7.82C382,73,394.15,76,415.47,67.14c0,0,17.87-8,12.12-25.9s-6.06-16-6.06-16S376.2,5.06,355.39,43.55Z" style="fill: #373e5a"/>
            <g>
              <path d="M421.41,42.86a66.55,66.55,0,0,1-17.33,17.76c-20.47,14.23-43.33,12.61-51.47,11.63a.88.88,0,0,1-.79-.17c-.15-.17-.22-.47-.06-1a2.77,2.77,0,0,1,.93-1.26l9.52-7.71a10.88,10.88,0,0,0,3.16-3.3A16.13,16.13,0,0,1,371.65,53l3.09-1.59a21.08,21.08,0,0,0,3.27-2.1l10.92-5.67Z" style="fill: #fff;stroke: #373e5a;stroke-linecap: round;stroke-linejoin: round"/>
              <line x1="409.2" y1="49.71" x2="366.25" y2="63.4" style="fill: #fff;stroke: #75757f;stroke-linecap: round;stroke-linejoin: round"/>
              <polyline points="375.07 53.57 375.83 57.89 384.68 57.03" style="fill: #fff;stroke: #75757f;stroke-linecap: round;stroke-linejoin: round"/>
              <polyline points="384.32 49.88 392.13 50.88 394.08 54.53" style="fill: #fff;stroke: #75757f;stroke-linecap: round;stroke-linejoin: round"/>
            </g>
            <g>
              <path d="M423.9,34.77a.87.87,0,0,0,1-1.22,58.35,58.35,0,0,0-10.62-15.07C400,3.94,382.22,1.24,375.83.59c0,0-.4-.18-.62,0s-.22.32-.16.77a2.41,2.41,0,0,0,.58,1.13l6.49,7.6a9.57,9.57,0,0,1,2.07,3.1,14.2,14.2,0,0,0,4.2,5.6l2.21,1.76a19.1,19.1,0,0,1,3.75,4.05l6.13,4.36Z" style="fill: #fff;stroke: #373e5a;stroke-linecap: round;stroke-linejoin: round"/>
              <line x1="417.01" y1="27.8" x2="385.38" y2="9.78" style="fill: #fff;stroke: #3f4563;stroke-linecap: round;stroke-linejoin: round"/>
              <polyline points="391.09 18.91 392.16 15.7 398.89 17.89" style="fill: #fff;stroke: #373e5a;stroke-linecap: round;stroke-linejoin: round"/>
              <polyline points="397.82 23.36 403.97 23.94 405.87 21.46" style="fill: #fff;stroke: #373e5a;stroke-linecap: round;stroke-linejoin: round"/>
            </g>
            <path d="M440.36,47.62a2.24,2.24,0,0,1-.67,1c-1.23,1.09-3.36.7-4.74-.87s-1.51-3.73-.28-4.81a5.28,5.28,0,0,0,1.4-3.59S441.15,45.17,440.36,47.62Z" style="fill: #fff;stroke: #373e5a;stroke-linecap: round;stroke-linejoin: round"/>
            <path d="M424.21,34.31a6.65,6.65,0,0,0-.43-5.66c-1.67-2.82-29.27-38.25-65.59-15.48,0,0,4.35-2.23,17.48-1.33S410.46,18.66,424.21,34.31Z" style="fill: #fff;stroke: #373e5a;stroke-linecap: round;stroke-linejoin: round"/>
            <path d="M427.14,45.22v0a17.64,17.64,0,0,1-3.72,9.24c-5,6.42-17.33,16.84-43.32,12.74,0,0-30.6-2-25.1-26.16,0,0,9.75-12.31,42.85-10.66,0,0,27,3,28.42,10.62l.79,3.22A3,3,0,0,1,427.14,45.22Z" style="fill: #fff;stroke: #373e5a;stroke-linecap: round;stroke-linejoin: round"/>
            <path d="M430.37,46s7.25,1.34,4.52-8.57" style="fill: #fff;stroke: #373e5a;stroke-linecap: round;stroke-linejoin: round"/>
            <path d="M410.53,66.69A1.09,1.09,0,0,1,411.79,68a75,75,0,0,0-1.94,11.27c-.38,5.09-2.87,7.05-5.16,8a1.09,1.09,0,0,1-1.31-.41h0a3.53,3.53,0,0,0-2.48-1.52l-.72-.09s0-1.78,2.87-5.18a27.8,27.8,0,0,0,5.32-12.16,1.11,1.11,0,0,1,.89-1Z" style="fill: #373e5a"/>
            <path d="M400.45,86s2.72-.58.82,2a33.3,33.3,0,0,1-6.65,8.08,1.34,1.34,0,0,1-.61.3c-1,.21-3.63.62-4.87-.86a.71.71,0,0,1-.17-.46c0-.72.57-2.78,6.17-5.54a17.18,17.18,0,0,0,3.32-2.13Z" style="fill: #373e5a"/>
            <g>
              <path d="M388.17,101.65s3.93-1.05,1.61-4.08c0,0-2-2.34-3.63-.5A3.66,3.66,0,0,0,385,99.45S387.51,98.34,388.17,101.65Z" style="fill: #fff;stroke: #373e5a;stroke-linecap: round;stroke-linejoin: round"/>
              <path d="M384.48,104s2.68.15,1.92-2.2c0,0-.71-1.85-2.15-1.05A2.5,2.5,0,0,0,383,102S384.81,101.85,384.48,104Z" style="fill: #fff;stroke: #373e5a;stroke-linecap: round;stroke-linejoin: round"/>
              <path d="M383.2,104s-.58-1.5-1.74-.85a2.25,2.25,0,0,0-.86.77l-.93,1-.16.17,1.68-.68-.3.78h.69l-.9,1.31,1.68-.83C382.93,105.53,383.58,105.12,383.2,104Z" style="fill: #373e5a"/>
            </g>
            <path d="M378.45,86.15l2.4-3.48a4.61,4.61,0,0,1,2-1.47l4.26-1.59A12.79,12.79,0,0,0,392,76.5c2.83-3,2.35-5.34,2-6.25a.62.62,0,0,0-.59-.42c-3.68.21-12.55,9.21-13,9.63l0,0L376.74,84c4.45-5.54-.54.71-.87,1.42s1.69.92,1.69.92A.71.71,0,0,0,378.45,86.15Z" style="fill: #373e5a"/>
            <g>
              <path d="M360.32,94.85s2.39-2.86,4,.23c0,0,1.18,2.54-1,3.21a3.35,3.35,0,0,1-2.41,0S362.82,96.68,360.32,94.85Z" style="fill: #fff;stroke: #373e5a;stroke-linecap: round;stroke-linejoin: round"/>
              <path d="M356.89,96.17s1.51-1.95,2.67,0c0,0,.85,1.6-.56,2.12a2.29,2.29,0,0,1-1.6.11S358.6,97.26,356.89,96.17Z" style="fill: #fff;stroke: #373e5a;stroke-linecap: round;stroke-linejoin: round"/>
              <path d="M356.3,97.21s.69,1.3-.46,1.72a2.06,2.06,0,0,1-1.05.13l-1.28,0h-.21l1.48-.76-.72-.26.42-.47L353,97.43l1.58-.66C355.06,96.46,355.73,96.25,356.3,97.21Z" style="fill: #373e5a"/>
            </g>
            <path d="M376.53,88.39s.73-.52.51-1c-.2-.33-.43-1-.78-1.16-.64-.32-1.71.24-2.3.49-.93.4-1.8.92-2.72,1.33a13.06,13.06,0,0,0-2.13,1.24,10,10,0,0,1-1.88,1,14.12,14.12,0,0,1-2.87.89l-1,.2s-.33.45,0,.75l2.13,1.13s.6.22.63.52l.43,1.69a.81.81,0,0,0,1.16.3,5.77,5.77,0,0,1,1.89-2.46S374.51,89.65,376.53,88.39Z" style="fill: #373e5a"/>
            <path d="M437.58,63l16.31-.34s.48,0,.25.51l-.45,1a2.38,2.38,0,0,0-.16,1l.29,3.49s.16.56-.38.27l-3.89-2-.78,1.05-8.68-3.14a1.75,1.75,0,0,0-1.27,0c-.78.33-2.06.85-2.33.94,0,0-.54.15-.54-.38l.54-2.11s.09-.43.82-.35Z" style="fill: #373e5a"/>
            <path d="M426,56.87c-.41.37-2.08,3.78-1.76,4A27,27,0,0,1,428.52,65c1.7,2.11,5.12,1.93,6.47,1.09a1.18,1.18,0,0,0,.49-.93h0a3.93,3.93,0,0,1,.7-2.09l.31-.45s-.54-.81-2.89-.75c-2.13,0-5.08-4.29-6.22-5.6a.48.48,0,0,0-.72,0Z" style="fill: #373e5a"/>
            <g>
              <path d="M459.16,66s-1.82,3.25-4,.51c0,0-1.63-2.28.37-3.33a3.35,3.35,0,0,1,2.37-.46S456.36,64.62,459.16,66Z" style="fill: #fff;stroke: #373e5a;stroke-linecap: round;stroke-linejoin: round"/>
              <path d="M462.29,64s-1.13,2.19-2.62.5c0,0-1.13-1.42.17-2.18a2.29,2.29,0,0,1,1.55-.4S460.41,63.27,462.29,64Z" style="fill: #fff;stroke: #373e5a;stroke-linecap: round;stroke-linejoin: round"/>
              <path d="M462.67,62.9s-.92-1.15.13-1.77a2.06,2.06,0,0,1,1-.32l1.25-.26.21,0-1.31,1,.75.12-.33.54,1.45-.11-1.43.94A1.06,1.06,0,0,1,462.67,62.9Z" style="fill: #373e5a"/>
            </g>
          </g>
          <g>
            <g>
              <path d="M223,94a.75.75,0,0,1,1.31-.22s.64.71,0,1.07a1.1,1.1,0,0,1-.77.18S224,94.42,223,94Z" style="fill: none;stroke: #373e5a;stroke-linecap: round;stroke-linejoin: round"/>
              <path d="M222,94.69a.5.5,0,0,1,.86-.2s.44.44,0,.7a.74.74,0,0,1-.5.15S222.68,94.91,222,94.69Z" style="fill: none;stroke: #373e5a;stroke-linecap: round;stroke-linejoin: round"/>
              <path d="M221.94,95.06s.35.36,0,.57a.66.66,0,0,1-.33.12l-.41.1-.07,0,.4-.35-.26,0,.09-.18-.48.06.44-.32C221.47,94.91,221.66,94.8,221.94,95.06Z" style="fill: #373e5a"/>
            </g>
            <path d="M229,93.36s.27-.09.23-.27l-.05-.37s0-.45-.61-.18a2,2,0,0,0-.42,0,1.18,1.18,0,0,0-.25.05,7.93,7.93,0,0,0-1.29.25A3,3,0,0,1,226,93a4.33,4.33,0,0,1-1,0l-.34,0a.19.19,0,0,0,0,.24l.58.59s.17.13.16.23v.59a.29.29,0,0,0,.34.22,1.67,1.67,0,0,1,.78-.59S228.32,93.55,229,93.36Z" style="fill: #373e5a"/>
            <g>
              <path d="M259,90.21l.62-.46,2,.21h0l-2.33-1.48h0s-.06,0-.07,0h0a0,0,0,0,0,0,0v0l-1,1a.26.26,0,0,0,0,.27l.4.2C258.7,90.33,258.77,90.36,259,90.21Z" style="fill: #373e5a"/>
              <path d="M261.06,93.05" style="fill: #75757f"/>
              <line x1="261.07" y1="93.05" x2="261.07" y2="93.05" style="fill: #75757f"/>
              <path d="M260.71,92.8a.1.1,0,0,0,.13,0l1.13-.95h0l-1.46.06-1.11-.66c-.36-.21-.4-.19-.26.12l-.26.12a.76.76,0,0,0,.25.3Z" style="fill: #373e5a"/>
            </g>
            <path d="M254.31,85.76s1.27-.76,2.45,1.05l1.63,2.65s2.43,2.85-.86,3.54a11.19,11.19,0,0,1-2.46,0l-1-7.08Z" style="fill: none;stroke: #373e5a;stroke-miterlimit: 10"/>
            <path d="M228.55,89.66s-1.71,3,1.28,7.32c.89,1.27,3.6,2.6,5.19,2.87,3.06.52,7.43,1.67,15.17-1.48,0,0,6.49-2.83,4.46-9.32s-2.14-5.81-2.14-5.81S236.19,75.81,228.55,89.66Z" style="fill: #3f4563"/>
            <g>
              <path d="M252.42,89.62A24.06,24.06,0,0,1,246.1,96c-7.45,5.08-15.71,4.42-18.64,4a.32.32,0,0,1-.28-.06c-.05-.06-.08-.17,0-.36a1,1,0,0,1,.34-.45L231,96.39a3.93,3.93,0,0,0,1.15-1.18,5.83,5.83,0,0,1,2.29-2.09l1.12-.56a7.62,7.62,0,0,0,1.19-.75l4-2Z" style="fill: #fff;stroke: #373e5a;stroke-linecap: round;stroke-linejoin: round"/>
              <line x1="247.98" y1="92.06" x2="232.41" y2="96.87" style="fill: #fff;stroke: #373e5a;stroke-linecap: round;stroke-linejoin: round"/>
              <polyline points="235.63 93.34 235.89 94.91 239.09 94.63" style="fill: #fff;stroke: #373e5a;stroke-linecap: round;stroke-linejoin: round"/>
              <polyline points="238.99 92.04 241.81 92.43 242.5 93.75" style="fill: #fff;stroke: #75757f;stroke-linecap: round;stroke-linejoin: round"/>
            </g>
            <g>
              <path d="M254,86.87a21.18,21.18,0,0,0-4.07-6.08,22.8,22.8,0,0,0-13.84-6.59s-.14-.07-.23,0-.08.12-.06.28a.87.87,0,0,0,.21.41l2.32,2.77a3.46,3.46,0,0,1,.74,1.13,5.14,5.14,0,0,0,1.5,2l.79.64a6.7,6.7,0,0,1,.82.8l2.8,2.29Z" style="fill: #fff;stroke: #373e5a;stroke-linecap: round;stroke-linejoin: round"/>
              <line x1="250.88" y1="84.16" x2="239.5" y2="77.55" style="fill: #fff;stroke: #969c9c;stroke-linecap: round;stroke-linejoin: round"/>
              <polyline points="241.53 80.87 241.93 79.71 244.36 80.52" style="fill: #fff;stroke: #373e5a;stroke-linecap: round;stroke-linejoin: round"/>
              <polyline points="243.96 82.5 246.17 82.72 246.87 81.83" style="fill: #fff;stroke: #373e5a;stroke-linecap: round;stroke-linejoin: round"/>
            </g>
            <path d="M259.25,91.4a.81.81,0,0,1-.24.35,1.41,1.41,0,0,1-1.8-2.07,1.91,1.91,0,0,0,.52-1.29S259.55,90.52,259.25,91.4Z" style="fill: #fff;stroke: #373e5a;stroke-linecap: round;stroke-linejoin: round"/>
            <path d="M253.46,86.54a2.4,2.4,0,0,0-.14-2c-.59-1-10.46-13.92-23.66-5.81,0,0,1.58-.79,6.33-.42S248.54,80.84,253.46,86.54Z" style="fill: #fff;stroke: #3f4563;stroke-linecap: round;stroke-linejoin: round"/>
            <path d="M254.84,90.29h0a4.15,4.15,0,0,1-1.84,2.3c-2.17,1.38-7.29,3.21-16.78-.39,0,0-11.31-3.44-8.08-9.85,0,0,4.24-2.62,16.5.94,0,0,9.93,3.38,10.08,5.7l.14,1A.68.68,0,0,1,254.84,90.29Z" style="fill: #fff;stroke: #3f4563;stroke-linecap: round;stroke-linejoin: round"/>
            <path d="M255.65,90.78s2.62.51,1.66-3.08" style="fill: #fff;stroke: #373e5a;stroke-linecap: round;stroke-linejoin: round"/>
            <path d="M248.41,98.2a.39.39,0,0,1,.45.48,27.13,27.13,0,0,0-.74,4.07,3,3,0,0,1-1.89,2.88.39.39,0,0,1-.47-.15h0a1.28,1.28,0,0,0-.89-.56l-.26,0s0-.64,1.06-1.86a10.05,10.05,0,0,0,2-4.38.4.4,0,0,1,.33-.36Z" style="fill: #373e5a"/>
            <path d="M244.71,105.16s1-.2.29.73a12,12,0,0,1-2.43,2.9.49.49,0,0,1-.22.11c-.35.07-1.32.21-1.76-.33a.26.26,0,0,1-.06-.17c0-.26.21-1,2.25-2a6.21,6.21,0,0,0,1.21-.76Z" style="fill: #373e5a"/>
            <g>
              <path d="M240.22,110.77s1.42-.37.6-1.47c0,0-.71-.85-1.31-.19a1.32,1.32,0,0,0-.42.86S240,109.57,240.22,110.77Z" style="fill: none;stroke: #373e5a;stroke-linecap: round;stroke-linejoin: round"/>
              <path d="M238.87,111.62s1,.06.7-.79c0,0-.25-.67-.77-.39a.9.9,0,0,0-.45.44S239,110.83,238.87,111.62Z" style="fill: none;stroke: #373e5a;stroke-linecap: round;stroke-linejoin: round"/>
              <path d="M238.41,111.59s-.2-.54-.63-.31a.81.81,0,0,0-.31.28l-.34.37-.06.06.61-.24-.11.28h.25l-.33.47.61-.29C238.31,112.16,238.55,112,238.41,111.59Z" style="fill: #373e5a"/>
            </g>
            <path d="M236.75,105.14l.88-1.25a1.67,1.67,0,0,1,.73-.52l1.54-.56a4.62,4.62,0,0,0,1.76-1.11,2.11,2.11,0,0,0,.74-2.25.22.22,0,0,0-.21-.15c-1.33.06-4.57,3.29-4.72,3.44h0l-1.32,1.62c1.63-2-.2.26-.32.51s.61.34.61.34A.26.26,0,0,0,236.75,105.14Z" style="fill: #373e5a"/>
            <g>
              <path d="M230.17,108.22s.87-1,1.45.1c0,0,.42.92-.36,1.16a1.21,1.21,0,0,1-.87,0S231.07,108.89,230.17,108.22Z" style="fill: none;stroke: #373e5a;stroke-linecap: round;stroke-linejoin: round"/>
              <path d="M228.92,108.69s.55-.7,1,0c0,0,.3.58-.21.76a.83.83,0,0,1-.58,0S229.54,109.09,228.92,108.69Z" style="fill: none;stroke: #373e5a;stroke-linecap: round;stroke-linejoin: round"/>
              <path d="M228.71,109.06s.25.47-.17.62a.74.74,0,0,1-.38,0h-.54l.54-.27-.26-.1.15-.17-.52-.06.57-.24C228.26,108.79,228.5,108.72,228.71,109.06Z" style="fill: #373e5a"/>
            </g>
            <path d="M236.05,105.94s.26-.18.19-.36-.15-.36-.28-.42-.62.08-.83.17-.65.33-1,.47a4.72,4.72,0,0,0-.78.44,3.63,3.63,0,0,1-.68.37,5.11,5.11,0,0,1-1,.31l-.38.07s-.12.16,0,.27l.77.42s.22.08.23.19l.15.61a.29.29,0,0,0,.42.11,2.09,2.09,0,0,1,.69-.88S235.31,106.39,236.05,105.94Z" style="fill: #373e5a"/>
          </g>
          <g>
            <path d="M251.85,99.73,250,104.25s-.05.13.12.12l.33,0a.71.71,0,0,1,.3.06l.94.45s.14.1.11-.08l-.15-1.29.38-.11,0-2.75a.52.52,0,0,1,.14-.35l.51-.55s.1-.13-.05-.19l-.65-.07s-.13,0-.18.19Z" style="fill: #373e5a"/>
            <path d="M251.34,95.85a3.15,3.15,0,0,1,1.31-.07,8,8,0,0,0,.68,1.62,1.64,1.64,0,0,1-.38,1.92.35.35,0,0,1-.31,0h0a1.17,1.17,0,0,0-.66,0l-.16,0s-.17-.23.09-.89-.66-1.87-.91-2.32c0-.07,0-.15.09-.2Z" style="fill: #373e5a"/>
            <g>
              <path d="M250.39,106.06s1.1-.17.56-1.06c0,0-.47-.69-1-.25a1,1,0,0,0-.38.61S250.31,105.14,250.39,106.06Z" style="fill: none;stroke: #373e5a;stroke-linecap: round;stroke-linejoin: round"/>
              <path d="M249.52,106.73s.73-.08.41-.68c0,0-.28-.46-.63-.18a.68.68,0,0,0-.28.39S249.51,106.12,249.52,106.73Z" style="fill: none;stroke: #373e5a;stroke-linecap: round;stroke-linejoin: round"/>
              <path d="M249.17,106.72s-.22-.38-.51-.15a.61.61,0,0,0-.2.25l-.2.32,0,.05.42-.26,0,.22.19,0-.18.39.41-.3C249.17,107.15,249.32,107,249.17,106.72Z" style="fill: #373e5a"/>
            </g>
          </g>
          <g>
            <path d="M19.5,90.5l1.85.75" style="fill: none;stroke: #373e5a;stroke-linecap: round;stroke-linejoin: round"/>
            <path d="M32.22,95.15a130.52,130.52,0,0,0,24.6,5.3" style="fill: none;stroke: #373e5a;stroke-linecap: round;stroke-linejoin: round;stroke-dasharray: 6.300917148590088,4.200611591339111,11.551681518554688,6.300917148590088"/>
            <path d="M60,100.76A108.08,108.08,0,0,0,88.5,99.5c51.06-9.23,65.59-51.38,108-65,25.48-8.18,66.12-7.72,130,37l9,2.58" style="fill: none;stroke: #373e5a;stroke-linecap: round;stroke-linejoin: round;stroke-dasharray: 4.200611591339111,11.551681518554688,6.300917148590088,4.200611591339111,11.551681518554688,6.300917148590088"/>
            <path d="M338.58,75l1.92.55" style="fill: none;stroke: #373e5a;stroke-linecap: round;stroke-linejoin: round"/>
          </g>
          <path d="M214.5,93.5a92.48,92.48,0,0,0-28.87,1c-30.42,5.95-49.23,25.85-56.12,34C117.21,138.88,100,150,84.36,145.32c-9.86-3-15.16-6.45-20.86-13.82" style="fill: none;stroke: #373e5a;stroke-linecap: round;stroke-linejoin: round;stroke-dasharray: 4,11,6"/>
        </g>
      </g>
    </g>
  </g>
</svg>
