<svg xmlns="http://www.w3.org/2000/svg" viewBox="0 0 1920 520"><defs><style>.grey-stroke{fill:none;stroke:#969c9c;stroke-linecap:round;stroke-linejoin:round;stroke-width:1.5px;}.light-blue-stroke-white{fill:#fff;stroke:#edf0f3;stroke-linecap:round;stroke-linejoin:round;stroke-width:1.5px;}.grey{fill:#969c9c;}.light-blue-grey{fill:#edf0f3;}.white{fill:#fff;}</style></defs><path class="light-blue-stroke-white" d="M602.07,521A72.7,72.7,0,0,0,572,449.87a37.94,37.94,0,0,0-65.7-21.36,27.23,27.23,0,0,0-19.64-.49,39,39,0,0,0-52-22,54.85,54.85,0,0,0-100.51,19.39,58.94,58.94,0,0,0-56.73-1.9,29.7,29.7,0,0,0-42.53,9.22,80,80,0,0,0-28.7,7.45,38.35,38.35,0,0,0-56.26,20.4A52.92,52.92,0,0,0,127.47,477a46.12,46.12,0,0,0-49.73,13.77q-1.25.2-2.49.44a32.81,32.81,0,0,0-54.74,24.41c0,1,.05,1.93.13,2.88a31.17,31.17,0,0,0-7.38,3.88"/><path class="light-blue-stroke-white" d="M601.83,522.41q.12-.69.23-1.38"/><path class="light-blue-stroke-white" d="M1919.09,522.41l-.19-.14a37.94,37.94,0,0,0-65.7-21.36,27.23,27.23,0,0,0-19.64-.49,39,39,0,0,0-52-22,54.85,54.85,0,0,0-100.51,19.39,58.94,58.94,0,0,0-56.73-1.9,29.7,29.7,0,0,0-42.53,9.22,80,80,0,0,0-28.7,7.45,38.34,38.34,0,0,0-50.65,9.79"/><path class="light-blue-grey" d="M584.48,278.12c-15.92-13.78-26.26-3.69-26.26-3.69s-8.73-28.13-35.46-24.8a17.23,17.23,0,0,0-24.28-15.34,22.09,22.09,0,0,0-34.3-2.53,31.67,31.67,0,0,0-7.33-9.54,24.68,24.68,0,0,0-43.14-15.51,23.85,23.85,0,0,0-16.29-.93,30.93,30.93,0,0,0-34-11.65,33.68,33.68,0,0,0-57.84-.2,28.23,28.23,0,0,0-16.53,8.68l-.9,0a21.62,21.62,0,0,0-16,7,18,18,0,0,0-18,.33,23.87,23.87,0,0,0-21.73-4.18,30.93,30.93,0,0,0-34-11.65,33.68,33.68,0,0,0-57.84-.2,28.23,28.23,0,0,0-16.53,8.68l-.9,0a21.62,21.62,0,0,0-16,7A18,18,0,0,0,82,218a7.74,7.74,0,0,0-8.65,5.74,5,5,0,0,0-6,4.86c0,.16,0,.72,0,1.59a11.61,11.61,0,0,0-4.67,3.24,16.84,16.84,0,0,0-19.91,16.63c0,.08,0,.15,0,.23h0a17,17,0,0,0-16.2,11.77c-13.4-5.54-22.27,9.3-25.51,16.06Z"/><path class="light-blue-stroke-white" d="M1915.5,329.9c1.63,0-33.75-36.06-60.38-17.88a11.6,11.6,0,0,0-8.55-5.26c-1.07-9.75-2.09-17.58-7.57-25.08a37.08,37.08,0,0,0-14-11.43,36.78,36.78,0,0,0-60.68-28.35,26.4,26.4,0,0,0-18.84-2.8,37.78,37.78,0,0,0-47.4-27.29,53.17,53.17,0,0,0-99,6.73A57.14,57.14,0,0,0,1544.7,210a28.79,28.79,0,0,0-42,3.82,77.57,77.57,0,0,0-28.49,3.76,37.17,37.17,0,0,0-56.55,13,51,51,0,0,0-12.55,4.92,36.76,36.76,0,0,0-53.35-5.94,26.4,26.4,0,0,0-18.84-2.8,37.78,37.78,0,0,0-47.4-27.29,53.17,53.17,0,0,0-99,6.73,57.14,57.14,0,0,0-54.35-8.56,28.79,28.79,0,0,0-42,3.82,77.57,77.57,0,0,0-28.49,3.76,37.17,37.17,0,0,0-56.55,13,51.3,51.3,0,0,0-23.57,13.1,44.66,44.66,0,0,0-42.28,2l-.43.05q-1.6.23-3.15.62a57.63,57.63,0,0,0-14.37-2,31.78,31.78,0,0,0-33.44,1.3,44.56,44.56,0,0,0-21,4.77,51.31,51.31,0,0,0-23.83-12.6,37.17,37.17,0,0,0-56.8-11.77,77.57,77.57,0,0,0-28.57-3.17,28.79,28.79,0,0,0-42.08-2.94,57.14,57.14,0,0,0-54.16,9.69,53.17,53.17,0,0,0-99.12-4.67,37.78,37.78,0,0,0-46.82,28.27,26.4,26.4,0,0,0-18.77,3.2,36.76,36.76,0,0,0-53.21,7,51,51,0,0,0-12.65-4.66,37.18,37.18,0,0,0-56.8-11.77,77.57,77.57,0,0,0-28.57-3.17,28.79,28.79,0,0,0-42.08-2.94,57.14,57.14,0,0,0-54.16,9.69,53.17,53.17,0,0,0-99.12-4.67,37.79,37.79,0,0,0-46.82,28.27,26.4,26.4,0,0,0-18.77,3.2,36.78,36.78,0,0,0-60.07,29.6A70.81,70.81,0,0,0,4.09,329.9"/><path class="light-blue-grey" d="M545.8,174.52a4,4,0,0,0,.56-2,3.75,3.75,0,0,0-3.64-3.86h-.1c-.71-3.34-3.54-6.16-6.89-5.83-1.82.18-2.07,2.43-1.74,3-1-.82-4.61-3.36-8-2.29a8,8,0,0,0-4.59,4.22,2.43,2.43,0,0,0-.64-.1,2.66,2.66,0,0,0-2.58,2.68,3.73,3.73,0,0,0-3-1.58,3.93,3.93,0,0,0-3.81,4,4.19,4.19,0,0,0,.4,1.77Z"/><path class="light-blue-grey" d="M1781.42,289.48a6,6,0,0,0-4.36-2.39,5.66,5.66,0,0,0-2.42.38,10.54,10.54,0,0,0-7.43-3.86,10,10,0,0,0-1.95.08c-2.46-7.53-8.84-13.1-16.61-13.58a17.26,17.26,0,0,0-5.15.46c-5-8.06-13.27-13.57-22.87-14.17a27.3,27.3,0,0,0-9.19,1c-4.93-13.6-16.72-23.56-31-24.44-11.29-.7-21.65,4.44-28.63,13a29.41,29.41,0,0,0-8.6-1.86c-15.24-.95-28.6,10-32.5,25.47a17.76,17.76,0,0,0-6.08,3.63,14.27,14.27,0,0,0-10.59-6c-6-.37-11.34,3.23-13.93,8.72a8.52,8.52,0,0,0-1.93-.35,9.26,9.26,0,0,0-9.15,6.45,5.22,5.22,0,0,0-3.44-1.62,5.68,5.68,0,0,0-5.78,5.63,6.55,6.55,0,0,0,0,1.12Z"/><path class="light-blue-grey" d="M363.18,331.42a1.41,1.41,0,0,0,1-.39,2.34,2.34,0,0,0,2.82.72,4.52,4.52,0,0,0,.46.56H464a4.4,4.4,0,0,0-3.38-4.35,7.64,7.64,0,0,0-6.74-4.22l-.59,0a10.87,10.87,0,0,0-9.16-5.17,10.46,10.46,0,0,0-3.18.49,14,14,0,0,0-11.62-6.32,13.55,13.55,0,0,0-4.07.63,15.13,15.13,0,0,0-26.72-.1,12.83,12.83,0,0,0-7.63,4.25h-.42a9.75,9.75,0,0,0-7.38,3.44,7.93,7.93,0,0,0-4-1.11,8.29,8.29,0,0,0-7.47,5,4.48,4.48,0,0,0-4.91,2.49,2.32,2.32,0,0,0-2.82,1.43,1.41,1.41,0,0,0-.64-.16,1.42,1.42,0,1,0,0,2.84Z"/><path class="light-blue-grey" d="M1861.91,219.59H1865a1.07,1.07,0,0,0,.54-.93,1.08,1.08,0,0,0-1.08-1.08l-.22,0a1.7,1.7,0,0,0-1.65-1.27l-.24,0a3.93,3.93,0,0,0-5.49-1.83,4.72,4.72,0,0,0-3.49-1.53h-.2a6.16,6.16,0,0,0-3.6-1.89,7.34,7.34,0,0,0-12.62,0,6.75,6.75,0,0,0-7.41,2.54,5.21,5.21,0,0,0-5.82,2.08h-.28a3.63,3.63,0,0,0-3.18,1.88,2,2,0,0,0-1.6,1.94h43.22Z"/><path class="light-blue-grey" d="M1609.71,395.54a2.3,2.3,0,0,0-2-3.52h-.06a4.47,4.47,0,0,0-7.93-1.71,3.67,3.67,0,0,0-5.51,1.15,1.62,1.62,0,0,0-2,1.54,2.4,2.4,0,0,0-4.06,2.53Z"/><path class="light-blue-grey" d="M738.59,309.16a6.05,6.05,0,0,0-8.3-5.65,11.52,11.52,0,0,0-18.84-3,16.36,16.36,0,0,0-19.53-8.35,34,34,0,0,0-59.11-30.61A43.14,43.14,0,0,0,566.33,287a21.28,21.28,0,0,0-18.51,14.15,10.24,10.24,0,0,0-11.34,5.93,7.26,7.26,0,0,0-7.62,2.09Z"/><path class="light-blue-grey" d="M770.31,310.25a2.26,2.26,0,0,0-3.26-.62,4,4,0,0,0-5.31-2,6.48,6.48,0,0,0-12.38,2.59Z"/><path class="light-blue-grey move" d="M1892.4,360.16a22.53,22.53,0,0,0-11.49,3.15,27.7,27.7,0,0,0-21-9.78c-.4,0-.79,0-1.18,0a36.46,36.46,0,0,0-21.7-12.07c-7.74-13.6-21.81-22.69-37.89-22.69s-30.34,9.22-38,23a38.51,38.51,0,0,0-11.57-1.78c-13.61,0-25.64,7.09-33,18a29.72,29.72,0,0,0-9-1.4,30.89,30.89,0,0,0-26,14.69c-.56,0-1.12-.08-1.69-.08a21.7,21.7,0,0,0-19.16,12,12.52,12.52,0,0,0-9.6,12.37h262.92a26.18,26.18,0,0,0,2.11-10.34C1916.06,371.38,1905.47,360.16,1892.4,360.16Z"/><path class="light-blue-grey" d="M1612.31,182.27a5.27,5.27,0,0,0-7.59-1.43,9.42,9.42,0,0,0-12.37-4.6,15.09,15.09,0,0,0-28.86,6Z"/><path class="light-blue-grey" d="M1067.74,101.79c1,0,2.12-.05,3.29-.16s2.22-.25,3.2-.42v33.22h-6.75Z"/><line class="grey-stroke" opacity="0.5" x1="1074.86" y1="101.06" x2="1074.81" y2="134.51"/><line class="grey-stroke" opacity="0.5" x1="1067.15" y1="101.76" x2="1067.15" y2="134.7"/><path class="light-blue-grey" d="M813.83,143.49c.94,0,1.79-.48,2.87-.59a32.17,32.17,0,0,0,3.1-1v34.22h-6.21Z"/><line class="grey-stroke" opacity="0.5" x1="819.69" y1="141.9" x2="819.64" y2="175.35"/><line class="grey-stroke" opacity="0.5" x1="813.89" y1="143.15" x2="813.89" y2="176.09"/><g id="opac-40" opacity="0.4"><polygon class="cls-2 grey" points="1102.87 265.16 1102.87 406.29 1376.2 429.67 1433.74 303.78 1102.87 265.16"/><polygon class="cls-2 grey" points="1488.6 183.79 1488.6 183.44 1102.98 137.43 1103 193.18 1464.78 235.9 1488.6 183.79"/><polygon class="grey" points="1102.87 265.16 1102.87 406.29 1376.2 429.67 1433.74 303.78 1102.87 265.16"/><polygon class="grey" opacity="0.4" points="1488.6 183.79 1488.6 183.44 1102.98 137.43 1103 193.18 1464.78 235.9 1488.6 183.79"/></g><polyline class="light-blue-grey" points="1102.39 197.19 1102.7 261.29 1489.37 305.88 1489.83 243.07 1102.39 197.19"/><polyline class="light-blue-grey" points="1102.87 410.12 1102.87 469.88 1490.13 500.98 1490.18 443.65 1102.87 410.12"/><path class="grey" d="M1495.53,522.89l-1.36-338.78-5.58-.67c0,5.35-.9,57.67.28,57.81q.67,140.81,1.35,281.61"/><g id="opac-60" opacity="0.6"><polygon class="light-blue-grey" points="1489.21 310.26 1433.74 303.78 1376.2 429.67 1489.83 439.35 1489.21 310.26"/><polygon class="light-blue-grey" points="1488.6 183.79 1464.62 236.23 1488.86 239.06 1488.6 183.79"/></g><g id="opac-20" opacity="0.2"><polygon class="grey" points="779.76 522.89 1099.05 522.78 1099.05 473.53 779.76 505.01 779.76 522.89"/><polygon class="grey" points="778.21 442.42 1099.37 407.68 1099.37 265.5 776.29 308.46 778.21 442.42"/><polygon class="grey" points="777.18 240 1099.37 194.18 1099.37 136.9 777.18 182.21 777.18 240"/></g><g id="opac-80" opacity="0.8"><polyline class="light-blue-grey" points="1099.37 197.5 778.4 243.53 778.4 304.32 1099.36 261.67 1099.37 197.5"/><polyline class="light-blue-grey" points="1099.37 410.5 779.45 445.2 779.67 500.79 1099.36 469.67 1099.37 410.5"/></g><polyline class="grey" points="779.76 522.89 778.4 184.11 772.83 184.84 774.46 522.86"/><path id="opac-50" class="grey" d="M1099.37,265.5l-323.07,43v-4.23l323.07-42.56Zm0,141.17L776.29,441.54v4.23l323.07-35.27Zm0,63L776.29,501.12v4.23l323.07-31.85Zm0-276L776.29,239.61v4.23l323.07-46.33Zm2.18,71.34,390.36,45.56v-4.23l-390.36-45.16Zm0-68,390.36,46.31v-4.23l-390.36-45.91Zm0,276.71,390.36,31.63v-4.23l-390.36-31.24Zm0-63.71,390.36,33.64v-4.23l-390.36-33.25Z"/><rect class="grey" x="1099.05" y="134.18" width="3.82" height="388.6"/><path class="grey" d="M1206.16,522.78V149.35l2.78.35V522.78Zm39.78,0-.61-368.54-2.78-.35.61,368.9Zm-4,0-.61-369-2.78-.33.61,369.35Zm35.7-364.68-2.78-.33v365h2.78Zm-105.41-12.62-2.78-.35V522.66h2.78Zm-4-.48-2.78-.33v378h2.78Zm-35.39,377.78V140.88l-2.78-.33V522.78Zm72.1,0V149.23l-2.78-.33V522.78Zm76.7-364.2-2.78-.35V522.76h2.78Zm-144.8,364.2V141.36l-2.78-.35V522.78Zm285.78,0V175.47l-2.78-.33V522.78Zm4,0V176l-2.78-.35V522.78Zm32,0V179.86l-2.78-.33V522.78Zm4,0V180.34l-2.78-.35V522.78Zm-72,0V171.61l-2.78-.35V522.78Zm-76.77,0-.1-360.33-2.78-.33.1,360.66Zm36.29,0v-356l-2.78-.33V522.78Zm-32.29,0-.1-359.85-2.78-.35.1,360.2Zm68.77,0V171.13l-2.78-.33v352Zm-32.48,0V167.28l-2.78-.35V522.78Zm-276.6,0V141.06l-3,.43V522.78Zm-183.28,0V167.4l-3,.44V522.78Zm-25.72,0V171l-3,.43V522.78Zm-4.28,0V171.65l-3,.44V522.78Zm209,0V141.71l-3,.44V522.78Zm-149,0,.06-359.67-3,.44-.06,359.23Zm-85.72,0V175.42l-3,.43V522.78Zm-30,0,.09-343.11-3,.43-.09,342.68Zm-4.28,0,.09-342.46-3,.44-.09,342Zm30,0V176.07l-3,.44V522.78Zm64.28,0v-356l-3,.43v355.6Zm145.72,0V145.86l-3,.44V522.78Zm-25.72,0V149.54l-3,.43V522.78Zm30,0V145.21l-3,.43V522.78Zm-120,0,.06-360.32-3,.43-.06,359.89Zm85.72,0V150.2l-3,.44V522.78Zm-55.72,0V158.09l-3,.43V522.78Zm-4.28,0v-364l-3,.44v363.6Zm30,0V154.4l-3,.44V522.78Zm4.28,0v-369l-3,.43v368.6Z"/><path class="cls-2 grey" d="M1104.66,127.67,768,178.49l4.62,6.34,332.11-47.66.44.24,391.6,47,3.09-6.33-394.76-50.17-.46-.26"/><path class="white" d="M1439.15,526.41a56,56,0,0,0-22.6-34.15A29.18,29.18,0,0,0,1366,471.82a20.95,20.95,0,0,0-15.11-.38,30,30,0,0,0-40-16.89,42.2,42.2,0,0,0-77.32,14.92A45.34,45.34,0,0,0,1190,468a22.84,22.84,0,0,0-32.72,7.09,61.56,61.56,0,0,0-22.08,5.73,29.5,29.5,0,0,0-43.28,15.69,40.72,40.72,0,0,0-17.29,12.6,35.48,35.48,0,0,0-38.25,10.59q-1,.15-1.91.34a25.23,25.23,0,0,0-36,2.33Z"/><path class="light-blue-grey" d="M1210.17,525.41A49.53,49.53,0,0,1,1260.6,518a56.88,56.88,0,0,1,26.17-14.44,41.21,41.21,0,0,1,62.73-14.18,86,86,0,0,1,31.6-4.08,31.92,31.92,0,0,1,46.59-4.1,63.35,63.35,0,0,1,60.23,9.67,59,59,0,0,1,109.78-7.14,41.89,41.89,0,0,1,52.46,30.41,29.27,29.27,0,0,1,20.87,3.17,40.75,40.75,0,0,1,57.83,5.1Zm-10.9,0a35.25,35.25,0,0,0-45.86,0Z"/><path class="light-blue-grey" d="M1065.12,525.41a51.13,51.13,0,0,0-79.88-18.24,36.72,36.72,0,0,0-26.18-4A52.55,52.55,0,0,0,893.25,462a74,74,0,0,0-137.72,9A79.46,79.46,0,0,0,680,458.87,40,40,0,0,0,621.53,464a107.89,107.89,0,0,0-39.64,5.12,51.7,51.7,0,0,0-78.7,17.78A71.35,71.35,0,0,0,470.36,505a62.17,62.17,0,0,0-68.84,10q-1.71.05-3.4.17a44.24,44.24,0,0,0-72,7.18Z"/><g id="Comodo"><g id="L6"><polyline points="1060.02 68.99 1059.59 78.29 1063.75 78.66 1064.17 69.34 1060.02 68.99" fill="#b5112c"/><polyline points="1072.21 52.17 1070.25 52.52 1074.41 52.87 1076.37 52.55 1072.21 52.17" fill="#620918"/><polyline points="1070.05 100.69 1069.64 100.76 1068.07 101.03 1069.64 101.17 1072.24 101.39 1074.2 101.06 1070.05 100.69" fill="#620918"/><polyline points="1092.16 63.19 1091.71 73.37 1095.88 73.74 1096.31 63.55 1092.16 63.19" fill="#b5112c"/><polyline points="1091.71 73.37 1091.66 74.42 1095.82 74.79 1095.88 73.74 1091.71 73.37" fill="#b4112c"/><path d="M1073.44,52l.58,0h.49a6.16,6.16,0,0,1,2.1.47,5.1,5.1,0,0,1,2.27,2c1.42,2.19,2,5.66,1.8,10.58l-.43,9.3a27,27,0,0,1-2,9.94c-1.59,3.37-4.14,5.73-7.83,6.34l-2.06.36-.15,0-.19,0-.56.07-.54,0h-.75a6.28,6.28,0,0,1-4.51-2l0,0,0,0-.09-.1-.1-.13-.06-.07a6.38,6.38,0,0,1-.58-.9h0l-.18-.35q-.13-.32-.25-.66v0l0-.09v0q-.1-.31-.18-.64v0l0-.18v-.05l0-.15,0-.09h0a20.83,20.83,0,0,1-.39-3.09q0-.65-.05-1.35c0-.2,0-.39,0-.59q0-1.07,0-2.25L1060,69c.22-5,1.17-8.8,2.9-11.61a10.18,10.18,0,0,1,7.33-4.86l2-.34c.39-.06.8-.11,1.23-.14m2.8-10.33a26.68,26.68,0,0,0-4.05.33l-2,.34c-14,2.56-20.9,11.89-21.68,27.62l-.43,10.23c-.26,7,.88,12,3.47,15.4a14.81,14.81,0,0,0,11.28,5.68c.43,0,.87,0,1.32,0a25.47,25.47,0,0,0,3.89-.31l1.57-.27.4-.07.61-.12h.07q.92-.18,1.79-.41,1.19-.31,2.31-.69l.06,0,.47-.17.07,0,.47-.18.25-.1.19-.08.33-.14,0,0a23.43,23.43,0,0,0,6-3.66q.81-.68,1.54-1.44.53-.55,1-1.14t.81-1l.3-.41.12-.17,0-.06.38-.57.44-.69c.18-.29.35-.59.51-.9l.37-.7.17-.34.31-.66.16-.35.26-.62.12-.3c.1-.25.2-.5.29-.76l0-.08.16-.45.16-.49c.11-.35.22-.72.33-1.08l.1-.36.1-.37v0l.09-.37,0-.07q.16-.63.29-1.28l.07-.35,0-.14,0-.21c.06-.3.11-.6.16-.91q.13-.76.23-1.54.13-1,.21-2,0-.4.06-.8l.06-1.05.44-10.18q0-1,0-2c0-.25,0-.49,0-.73s0-.29,0-.43q0-1.62-.19-3.08-.06-.54-.13-1.07h0v-.06a22.64,22.64,0,0,0-1.19-4.81h0a15.62,15.62,0,0,0-1.08-2.29l-.09-.16a13.18,13.18,0,0,0-.89-1.31q-.32-.41-.67-.8h0v0l-.23-.25h0l-.21-.21-.14-.14-.35-.34-.54-.47-.12-.1-.07-.05-.32-.24-.16-.11-.09-.06h0l-.32-.22-.18-.12L1085,44l-.15-.09-.52-.3,0,0,0,0-.63-.32-.1,0L1083,43a15.2,15.2,0,0,0-2.14-.7l-.29-.07-.28-.06-.89-.16-.15,0-.86-.11a20.9,20.9,0,0,0-2.18-.11" fill="#7e0c1f"/><path d="M1070.09,101.42l-.61.12.61-.12M1072,101h0q-.88.23-1.8.41.92-.19,1.8-.41" fill="#d1d5db"/><path d="M1059.59,78.29v.34l4.16.36v-.33l-4.16-.37" fill="#ac102a"/><path d="M1059.58,78.63v0c0,.65,0,1.28,0,1.88,0,.2,0,.4,0,.59l4.16.37q0-.45,0-.93,0-.7,0-1.45V79l-4.16-.36" fill="#b0102b"/><path d="M1059.55,81.14q0,.7.05,1.35t.1,1.13l4.16.37,0-.15v0c-.07-.71-.12-1.48-.13-2.29l-4.16-.37" fill="#b4112c"/><path d="M1059.7,83.61a17.79,17.79,0,0,0,.3,2h0l0,.09,0,.15v.05l0,.18v0q.09.33.18.64v0l0,.09,4.16.37a15.27,15.27,0,0,1-.65-3.27l-4.16-.37" fill="#b8112d"/><path d="M1060.35,86.88v0c.08.23.16.45.25.66l4.16.36c-.1-.21-.18-.44-.26-.68l-4.16-.37" fill="#b4112c"/><path d="M1060.61,87.58l.18.35h0l4.16.37-.08-.17-.1-.2-4.16-.36" fill="#b0102b"/><path d="M1060.79,87.94h0l.22.37,4.16.37-.07-.12,0-.07-.11-.18-4.16-.37" fill="#ac102a"/><path d="M1061,88.3l.21.31,4.16.37-.08-.12-.05-.08-.07-.11L1061,88.3" fill="#a90f29"/><path d="M1061.22,88.62l.16.21.06.07,4.15.36-.21-.27-4.16-.37" fill="#a50f28"/><path d="M1061.43,88.9l.1.13.09.1,0,0,4.16.36-.17-.2,0-.05-4.15-.36" fill="#a10f27"/><path d="M1061.65,89.16l0,0,.2.2,4.16.37-.19-.21,0,0-4.16-.36" fill="#9d0e26"/><polyline points="1061.87 89.39 1062.1 89.6 1066.26 89.97 1066.03 89.75 1061.87 89.39" fill="#990e25"/><path d="M1062.1,89.6l.17.16.07.06,4.15.35-.12-.1,0,0-.08-.07-4.16-.37" fill="#950e24"/><path d="M1062.35,89.81l.08.06.18.13,4.16.37-.26-.2-4.15-.35" fill="#910d24"/><polyline points="1062.6 90 1062.88 90.18 1067.03 90.55 1066.76 90.37 1062.6 90" fill="#8d0d23"/><path d="M1062.88,90.18l.2.12.12.06,4.14.35-.17-.1-.13-.07-4.16-.37" fill="#890d22"/><path d="M1063.19,90.37l.35.17,4.13.35-.08,0-.26-.13-4.14-.35" fill="#850c21"/><path d="M1063.54,90.54l.38.16,4.13.35-.31-.13-.07,0-4.13-.35" fill="#810c20"/><path d="M1063.91,90.7l.41.14,3.16.28.56-.07h0l-4.13-.35" fill="#7d0c1f"/><path d="M1064.33,90.84l.16,0,.15,0,.19,0,2.12.19.54,0-3.16-.28" fill="#7a0b1e"/><path d="M1064.82,91a7.47,7.47,0,0,0,.75.13l.76.06h.62l-2.12-.19" fill="#760b1d"/><path d="M1065.57,91.09l.25,0,.37,0h.14l-.76-.06" fill="#720a1c"/><path d="M1070.25,52.52a10.9,10.9,0,0,0-4.18,1.58l-.07,0-.15.1-.17.12-.07.05q-.28.2-.54.43l4.15.37a10.54,10.54,0,0,1,5.18-2.33l-4.16-.36" fill="#660919"/><path d="M1065.07,54.84l-.1.08-.2.18-.4.4,4.16.36.35-.34.34-.3-4.15-.37" fill="#6a0a1a"/><path d="M1064.38,55.49l-.29.3-.2.23,4.16.37.08-.1.4-.44-4.16-.36" fill="#6e0a1b"/><path d="M1063.9,56q-.2.24-.39.5l4.15.37.1-.12,0,0,.12-.15,0-.06.07-.08.05-.07L1063.9,56" fill="#720a1c"/><path d="M1063.5,56.51l-.33.47,4.16.37.07-.11a4.25,4.25,0,0,1,.25-.36l-4.15-.37" fill="#760b1d"/><path d="M1063.17,57l-.25.4-.07.11,4.16.37.07-.11.26-.4-4.16-.37" fill="#7a0b1e"/><path d="M1062.85,57.5l-.3.53,4.15.37.17-.3.11-.19,0,0-4.16-.37" fill="#7d0c1f"/><path d="M1062.55,58l-.24.45,0,.09,4.16.36.06-.1.08-.15.14-.27-4.15-.37" fill="#810c20"/><path d="M1062.27,58.56l-.12.24-.14.3,4.15.37c.08-.19.18-.37.26-.55l-4.16-.36" fill="#850c21"/><path d="M1062,59.1q-.13.29-.25.58l4.16.35,0-.11c.06-.15.13-.31.19-.46L1062,59.1" fill="#890d22"/><path d="M1061.76,59.69l-.07.18c-.05.14-.11.28-.16.43l4.15.36q.11-.31.23-.61l-4.16-.35" fill="#8d0d23"/><path d="M1061.54,60.3l-.1.25-.14.4,4.15.36.07-.2.16-.46-4.15-.36" fill="#910d24"/><path d="M1061.31,61l-.07.22-.14.49,4.15.36.13-.43.08-.28-4.15-.36" fill="#950e24"/><path d="M1061.1,61.66l0,.14q-.09.32-.17.65l4.16.37,0-.18c0-.18.09-.36.14-.53l0-.08-4.15-.36" fill="#990e25"/><path d="M1060.88,62.45q-.11.44-.2.89h0l4.16.37,0-.09q.06-.32.14-.63l0-.18-4.16-.37" fill="#9d0e26"/><path d="M1060.68,63.34c0,.24-.1.48-.14.73v.05l0,.26,4.16.36q.09-.52.19-1l-4.16-.37" fill="#a10f27"/><path d="M1060.49,64.38l-.05.32q-.07.45-.13.92l4.15.37c0-.28.08-.56.12-.83l.07-.42-4.16-.36" fill="#a50f28"/><path d="M1060.3,65.62q-.1.76-.17,1.56l4.15.36,0-.43q0-.31.07-.62l.05-.49-4.15-.37" fill="#a90f29"/><path d="M1060.13,67.18q0,.4-.06.81c0,.32,0,.66-.06,1l4.16.36q0-.54.06-1.07c0-.25,0-.5.05-.74l-4.15-.36" fill="#ac102a"/><path d="M1068.07,101a25.47,25.47,0,0,1-3.89.31c-.45,0-.89,0-1.32,0l3.67.33q.87.08,1.8.08.64,0,1.32,0,1.25-.07,2.6-.28l-2.6-.22-1.57-.13" fill="#660919"/><path d="M1066.52,101.63l-4.16-.37a23.88,23.88,0,0,0,5.7-.23l4.17.36a23.36,23.36,0,0,1-5.72.24" fill="none"/><path d="M1074,52l-.58,0c-.42,0-.84.08-1.23.14l4.16.37.24,0a6.16,6.16,0,0,0-2.1-.47H1074" fill="#660919"/><path d="M1074.73,52l4.16.37a9.72,9.72,0,0,0-2.51.13l-4.16-.37a10.39,10.39,0,0,1,2.51-.13" fill="none"/><path d="M1078.41,41.82l.86.11,4.08.35c-.36-.06-.72-.09-1.09-.13l-3.84-.33" fill="#720a1c"/><path d="M1079.27,41.93l.15,0q.45.06.89.16l.28.06,4.13.35-.1,0c-.42-.09-.84-.17-1.28-.23l-4.08-.35" fill="#760b1d"/><path d="M1080.59,42.18l.29.07.82.22,4.16.37c-.37-.11-.73-.21-1.11-.31h0l-4.13-.35" fill="#7a0b1e"/><path d="M1081.7,42.47c.33.1.66.21,1,.34l4.16.37c-.32-.13-.65-.24-1-.34l-4.16-.37" fill="#7d0c1f"/><path d="M1082.68,42.82l.34.14.53.23,4.15.35-.14-.06-.73-.29-4.16-.37" fill="#810c20"/><path d="M1083.55,43.19l.1,0a6.73,6.73,0,0,1,.63.32l0,0,4.17.37-.59-.31-.19-.09-4.15-.35" fill="#850c21"/><path d="M1084.31,43.57l0,0,.52.3.15.09,4.15.35c-.22-.14-.46-.27-.69-.4l-4.17-.37" fill="#890d22"/><path d="M1085,44l.12.08.18.12.32.22h0l4.16.37c-.21-.16-.43-.3-.65-.44L1085,44" fill="#8d0d23"/><path d="M1085.67,44.41h0l.09.06.16.11.32.24,0,0,4.15.36-.18-.14-.43-.3-4.16-.37" fill="#910d24"/><path d="M1086.27,44.86l0,0,.12.1.41.35,4.16.37-.08-.07-.49-.41-4.15-.36" fill="#950e24"/><path d="M1086.84,45.33l.13.12.35.34.06.06,4.16.37-.54-.51-4.16-.37" fill="#990e25"/><path d="M1087.38,45.85l.08.08.21.21h0l.23.25h0l4.15.35-.36-.39-.15-.15-4.16-.37" fill="#9d0e26"/><path d="M1087.9,46.4v0h0a7.32,7.32,0,0,1,.49.58l4.15.35q-.25-.31-.51-.6l-4.15-.35" fill="#a10f27"/><path d="M1088.41,47l.18.23,4.16.37-.19-.24-4.15-.35" fill="#a50f28"/><path d="M1088.59,47.23l.28.37L1093,48l0,0-.25-.34-4.16-.37" fill="#a50f28"/><path d="M1088.87,47.59c.15.21.3.43.44.65l4.15.37q-.21-.34-.44-.65l-4.16-.37" fill="#a90f29"/><path d="M1089.31,48.25l.17.28.09.16.2.34,4.16.37,0,0-.08-.14,0,0-.14-.24-.19-.31-4.15-.37" fill="#ac102a"/><path d="M1089.77,49c.18.33.35.67.5,1l4.16.37,0,0c-.15-.33-.31-.65-.48-1l-4.16-.37" fill="#b0102b"/><path d="M1090.26,50c.13.3.26.62.39.94h0c.09.24.18.48.26.73l4.15.36q-.11-.33-.22-.64l-.06-.16,0-.13q-.15-.38-.31-.74l-4.16-.37" fill="#b4112c"/><path d="M1090.91,51.72a22.89,22.89,0,0,1,.93,4.09v.06h0q.07.52.13,1.07l4.16.37a25,25,0,0,0-1.07-5.23l-4.15-.36" fill="#b8112d"/><path d="M1092,56.94q.15,1.46.19,3.08c0,.08,0,.16,0,.24l4.16.37c0-.1,0-.2,0-.29v-.11q0-.28,0-.56v0q-.05-1.22-.17-2.34l-4.16-.37" fill="#b4112c"/><path d="M1092.18,60.27c0,.06,0,.12,0,.19,0,.24,0,.49,0,.73q0,1,0,2l4.16.37q0-1,0-1.92,0-.12,0-.24t0-.4v-.15c0-.07,0-.14,0-.22l-4.16-.37" fill="#b0102b"/><path d="M1091.66,74.42q0,.4-.06.8l4.15.37,0-.35c0-.15,0-.3,0-.45l-4.16-.37" fill="#ac102a"/><path d="M1091.6,75.22q-.09,1-.21,2l4.16.37q.12-1,.21-2l-4.15-.37" fill="#a90f29"/><path d="M1091.38,77.22q-.1.78-.23,1.54l0,.16,4.15.37q.14-.82.25-1.67v0l-4.16-.37" fill="#a50f28"/><path d="M1091.13,78.92c0,.25-.09.5-.14.75l0,.21,0,.14-.07.35,4.16.37h0l.16-.82.11-.62-4.15-.37" fill="#a10f27"/><path d="M1090.86,80.37q-.14.65-.29,1.28l4.16.37v0l.28-1.21v0l-4.16-.37" fill="#9d0e26"/><path d="M1090.57,81.65l0,.07-.09.37v0l-.1.37-.1.36,4.15.37v0l.14-.52,0-.07.05-.2.1-.38-4.16-.37" fill="#990e25"/><path d="M1090.25,82.84c-.1.36-.21.73-.33,1.08l4.15.37.08-.25,0-.09.21-.71v0l-4.15-.37" fill="#950e24"/><path d="M1089.92,83.92l-.16.49-.16.45,0,.08,4.15.37.17-.49.17-.53-4.15-.37" fill="#910d24"/><path d="M1089.57,84.95c-.09.26-.19.51-.29.76l-.08.22,4.16.36.09-.24.16-.42.11-.31-4.15-.37" fill="#8d0d23"/><path d="M1089.2,85.93l0,.08-.26.62-.1.23,4.16.36.13-.3.06-.15,0,0,.17-.42v0l-4.16-.36" fill="#890d22"/><path d="M1088.8,86.87l-.06.12-.31.66-.06.13,4.16.36,0-.06c.12-.26.25-.52.37-.79l0-.06-4.16-.36" fill="#850c21"/><path d="M1088.37,87.78l-.11.21-.37.7,4.16.35.1-.18.08-.14.11-.21.06-.12.13-.26-4.16-.36" fill="#810c20"/><path d="M1087.89,88.69c-.17.3-.34.6-.51.9l4.15.37.3-.52.06-.1.16-.29-4.16-.35" fill="#7d0c1f"/><path d="M1087.38,89.58l-.44.69-.15.23,4.16.36,0-.06.38-.59.16-.26-4.15-.37" fill="#7a0b1e"/><path d="M1086.8,90.51l-.23.34,0,.06-.12.17-.3.41,4.15.37q.36-.48.69-1l-4.16-.36" fill="#760b1d"/><path d="M1086.11,91.48q-.39.53-.81,1l4.15.36.36-.43.45-.58-4.15-.37" fill="#720a1c"/><path d="M1085.3,92.5q-.5.59-1,1.14l4.15.37q.54-.56,1-1.15l-4.15-.36" fill="#6e0a1b"/><path d="M1084.27,93.64q-.73.75-1.54,1.44l4.15.37q.52-.44,1-.91l.13-.13.12-.12.29-.29-4.15-.37" fill="#6a0a1a"/><path d="M1082.73,95.08a23.43,23.43,0,0,1-6,3.66l0,0-.33.14-.19.08-.25.1-.47.18-.07,0-.47.17-.06,0q-1.11.38-2.31.69-.88.23-1.8.41h-.07l-.61.12,4.16.37.54-.1.3-.06.22,0,.34-.07.13,0,1.2-.3.16,0,.24-.07.1,0,.18-.05.45-.14.33-.1.19-.06.36-.12.14,0a24.22,24.22,0,0,0,7.8-4.35l-4.15-.37" fill="#660919"/></g><g id="L5"><polyline points="1009.19 78.05 1008.37 99.84 1012.56 99.12 1013.37 78.42 1009.19 78.05" fill="#b6112c"/><polyline points="1016.5 62.8 1009.83 63.91 1013.99 64.28 1020.66 63.16 1016.5 62.8" fill="#620918"/><polyline points="1016.97 108.55 1003.3 110.86 1007.45 111.22 1021.13 108.92 1016.97 108.55" fill="#620918"/><path d="M1022.39,52.17a35.86,35.86,0,0,0-5.73.5l-.22,0-17.79,3,.12,1.71c.22,3.39,1.19,7.48,4.89,7.48a5.75,5.75,0,0,0,.94-.08l5.23-.88,6.67-1.11.14,0a16.75,16.75,0,0,1,2.66-.24h.41a8.31,8.31,0,0,1,2.45.42c3.29,1.15,5,4.71,4.6,12.17l-.43,8.78c-.5,11.34-6.17,13.94-11.24,14.78l-2.53.43-4.2.72.83-21.79a10.79,10.79,0,0,0-.55-3.88c-.07-.21-.16-.42-.25-.63s-.15-.32-.23-.47l-.21-.36-.15-.22-.11-.15-.11-.14-.18-.21-.18-.18-.17-.16-.17-.14-.13-.1-.14-.1-.1-.06-.14-.08-.15-.08-.11-.05-.09,0-.23-.09-.12,0-.14,0a3.93,3.93,0,0,0-1-.13,4.87,4.87,0,0,0-.8.07l-5.83,1-.7,18-.72,15.76c-.18,3.43,1.3,5.36,4.41,5.55l.52,0a11.68,11.68,0,0,0,1.87-.16l13.67-2.32c13.91-2.35,17.33-10,19-14.69q.19-.55.36-1.13l.06-.2q.12-.42.23-.84t.22-.93l.1-.48q.14-.67.26-1.38l.06-.38,0-.12,0-.21.08-.56.05-.39q.13-1,.22-2v-.05c0-.27,0-.54.07-.82.06-.71.44-11.38.46-11.95s0-1.26,0-1.86c0-.26,0-.51,0-.76s0-.42,0-.63V68.6q0-1-.14-1.85a23.65,23.65,0,0,0-1-5q-.21-.64-.46-1.23-.15-.36-.31-.7l-.24-.49a13.75,13.75,0,0,0-1.31-2.05q-.37-.47-.77-.9l0,0-.26-.27h0a13.6,13.6,0,0,0-7.79-3.68h0a23.23,23.23,0,0,0-3.48-.25" fill="#7e0c1f"/><path d="M1009.83,63.91l-5.23.88a5.55,5.55,0,0,1-1,.08h-.38l4.16.36.46,0a5.05,5.05,0,0,0,.88-.08l5.23-.88-4.16-.37" fill="#660919"/><path d="M1007.41,65.22l-4.16-.36a5.5,5.5,0,0,0,1.34-.07l5.23-.88,4.16.37-5.23.88a4.82,4.82,0,0,1-1.34.06" fill="none"/><path d="M1003.3,110.86a11.68,11.68,0,0,1-1.87.16l-.52,0,3.95.35q.33,0,.69,0a12,12,0,0,0,1.91-.17l-4.16-.36" fill="#660919"/><path d="M1004.86,111.36l-4.16-.37a10.37,10.37,0,0,0,2.6-.13l4.16.36a10.42,10.42,0,0,1-2.6.14" fill="none"/><path d="M1004.9,70.71l.25,0L1008,71l-3.05-.27" fill="#720a1c"/><path d="M1005.15,70.74l.29.06,4.09.35-.45-.07L1008,71l-2.81-.24" fill="#760b1d"/><path d="M1005.43,70.8l.12,0,.14,0,4.12.35-.29-.07-4.09-.35" fill="#7a0b1e"/><path d="M1005.7,70.87l.12,0,.1,0,4.15.37-.25-.09-4.12-.35" fill="#7d0c1f"/><path d="M1005.92,70.94l.13.06.09,0,4.13.35-.2-.09-4.15-.37" fill="#810c20"/><path d="M1006.14,71l.11.05.1,0,4.16.37-.07,0-.16-.08-4.13-.35" fill="#850c21"/><path d="M1006.35,71.14l0,0,.14.08,4.16.37-.19-.11-4.16-.37" fill="#890d22"/><path d="M1006.54,71.25l.1.06.08,0,4.15.37,0,0-.14-.09-4.16-.37" fill="#8d0d23"/><path d="M1006.72,71.36l.06,0,.13.1,4.14.35-.17-.13-4.15-.37" fill="#910d24"/><path d="M1006.9,71.51l.17.14,4.15.37-.09-.08-.09-.07-4.14-.35" fill="#950e24"/><path d="M1007.07,71.65l.17.16,4.16.37,0,0-.13-.11-4.15-.37" fill="#990e25"/><path d="M1007.24,71.81l.18.18,4.16.37-.11-.12-.06-.06-4.16-.37" fill="#9d0e26"/><path d="M1007.41,72l.18.21,4.15.35-.07-.08-.11-.12-4.16-.37" fill="#a10f27"/><path d="M1007.59,72.2l.11.14.07.08,4.15.37-.18-.24-4.15-.35" fill="#a50f28"/><path d="M1007.77,72.43l0,.06.15.22,4.16.37-.19-.28-4.15-.37" fill="#a90f29"/><path d="M1008,72.72l.21.36,4.15.35,0-.09,0-.08-.11-.17-4.16-.37" fill="#ac102a"/><path d="M1008.16,73.07q.12.23.23.47l4.15.36q-.11-.24-.23-.47l-4.15-.35" fill="#b0102b"/><path d="M1008.39,73.54c.09.2.17.41.25.63l.06.15,4.16.37a8.25,8.25,0,0,0-.31-.8l-4.15-.36" fill="#b4112c"/><path d="M1008.7,74.32a11,11,0,0,1,.46,2.16l4.16.37v-.09c0-.23-.06-.46-.1-.69v-.13a10,10,0,0,0-.32-1.25l-4.16-.37" fill="#b8112d"/><path d="M1009.15,76.48c0,.31,0,.64.06.94l4.16.37c0-.29,0-.58,0-.87v-.07l-4.16-.37" fill="#b4112c"/><path d="M1009.21,77.42V78l4.16.36v-.58l-4.16-.37" fill="#b0102b"/><polyline points="1009.21 78.02 1009.19 78.05 1013.37 78.42 1013.37 78.38 1009.21 78.02" fill="#ac102a"/><polyline points="1016.64 62.77 1016.5 62.8 1020.66 63.16 1020.79 63.14 1016.64 62.77" fill="#660919"/><path d="M1019.34,62.54a17.09,17.09,0,0,0-2.7.23l4.16.37q.7-.11,1.36-.18a8.31,8.31,0,0,0-2.45-.42h-.37" fill="#660919"/><path d="M1020.27,62.57l4.16.37a14.72,14.72,0,0,0-3.63.2l-4.16-.37a15.47,15.47,0,0,1,3.63-.2" fill="none"/><path d="M1036,93.85q-.23.64-.5,1.32l4.15.37.22-.56.28-.76-4.16-.37" fill="#8d0d23"/><path d="M1035.52,95.17c-.12.31-.26.64-.41,1l4.16.36,0-.1q.19-.44.36-.85l-4.15-.37" fill="#890d22"/><path d="M1035.1,96.14c-.12.27-.25.54-.39.82l4.15.37.33-.69.06-.14-4.16-.36" fill="#850c21"/><path d="M1034.72,97c-.12.26-.26.51-.4.77l4.15.37q.21-.39.4-.77l-4.15-.37" fill="#810c20"/><path d="M1034.32,97.74c-.14.26-.29.51-.44.77l4.16.36.2-.33.24-.43-4.15-.37" fill="#7d0c1f"/><path d="M1033.87,98.5l-.06.09-.29.45v0l-.12.19,4.15.37.33-.52.15-.25-4.16-.36" fill="#7a0b1e"/><path d="M1033.39,99.26l-.08.11c-.15.23-.31.45-.48.68l4.16.36q.29-.39.55-.78l-4.15-.37" fill="#760b1d"/><path d="M1032.84,100.05c-.21.28-.44.57-.68.85l4.16.36.34-.42.33-.43-4.16-.36" fill="#720a1c"/><path d="M1032.16,100.91c-.27.3-.54.62-.84.92l0,0,4.15.37q.45-.47.86-.94l0,0-4.16-.36" fill="#6e0a1b"/><path d="M1031.29,101.86q-.41.42-.86.83l-.42.38,4.14.37q.7-.59,1.29-1.21l-4.15-.37" fill="#6a0a1a"/><path d="M1030,103.07a22.17,22.17,0,0,1-6.68,3.81l-.16.06-.19.07-.31.11-.13,0-.38.13-.06,0a36,36,0,0,1-5.14,1.24l4.16.37a33.38,33.38,0,0,0,7.34-2.06h0l.35-.15.12-.05.18-.08a21.2,21.2,0,0,0,5-3.12l-4.14-.37" fill="#660919"/><path d="M1024.87,52.29l.5.06h.12l.3,0,4.09.35-.32,0-.84-.09-3.84-.33" fill="#720a1c"/><path d="M1025.78,52.4h.12l.11,0,.19,0h0l.74.14.26.06,4.11.35L1031,53l-.91-.16-.2,0-4.09-.35" fill="#760b1d"/><path d="M1027.22,52.67l.22.05.18,0,.77.22,4.12.35q-.57-.18-1.18-.31l-4.11-.35" fill="#7a0b1e"/><path d="M1028.4,53l.53.18.43.15,4.14.37-.14-.05-.51-.18-.34-.11L1028.4,53" fill="#7d0c1f"/><path d="M1029.36,53.31l.32.14.39.17.12.05,4.16.37h0q-.4-.18-.82-.35l-4.14-.37" fill="#810c20"/><path d="M1030.19,53.67c.25.11.5.24.73.37l4.16.37-.48-.25-.21-.1,0,0-4.16-.37" fill="#850c21"/><path d="M1030.92,54c.22.11.43.24.65.37l4.14.37-.41-.25,0,0-.08,0-.11-.06-4.16-.37" fill="#890d22"/><path d="M1031.57,54.41l.42.29.16.11,4.15.37-.39-.27-.2-.13-4.14-.37" fill="#8d0d23"/><path d="M1032.15,54.81l.14.1.21.16.2.16,4.15.35-.33-.26-.21-.14-4.15-.37" fill="#910d24"/><path d="M1032.7,55.22l0,0c.16.12.33.26.48.41l4.16.37-.11-.1-.42-.34-4.15-.35" fill="#950e24"/><path d="M1033.21,55.65l.27.25.21.2h0l4.15.35-.29-.28-.18-.16-4.16-.37" fill="#990e25"/><path d="M1033.69,56.1h0l.24.25,0,0,0,0,.09.09,0,0,0,.05,4.15.36-.06-.07-.12-.13-.28-.29-4.15-.35" fill="#9d0e26"/><path d="M1034.15,56.58c.15.16.29.33.43.5l4.16.37-.3-.37-.13-.15-4.15-.36" fill="#a10f27"/><path d="M1034.58,57.08l.17.21.28.37,4.15.36-.27-.37-.17-.2-4.16-.37" fill="#a50f28"/><path d="M1035,57.67c.15.21.3.43.44.65l4.16.37-.19-.3,0,0,0-.06-.18-.26-4.15-.36" fill="#a90f29"/><path d="M1035.46,58.32c.17.26.32.53.47.8l4.16.37h0c-.15-.27-.3-.53-.46-.79l-4.16-.37" fill="#ac102a"/><path d="M1035.93,59.12l.12.23.24.49.14.29,4.15.36q-.23-.51-.49-1l-4.16-.37" fill="#b0102b"/><path d="M1036.43,60.13l.18.42q.25.6.46,1.23l4.15.37q-.19-.58-.41-1.12l-.23-.54-4.15-.36" fill="#b4112c"/><path d="M1037.07,61.78a23.65,23.65,0,0,1,1,5l4.16.36a26.87,26.87,0,0,0-.45-2.86l0-.14-.12-.49v0l-.07-.29h0q-.16-.58-.34-1.14l-4.15-.37" fill="#b8112d"/><path d="M1038.09,66.75q.09.9.14,1.85v.55c0,.21,0,.42,0,.63l4.16.37c0-.12,0-.23,0-.35v-.09q0-1.29-.16-2.47v-.14l-4.16-.36" fill="#b4112c"/><path d="M1038.27,69.78c0,.25,0,.5,0,.76,0,0,0,.09,0,.14,0,.56,0,1.14,0,1.72,0,.32-.13,3.73-.25,6.83l0,.79,4.16.37c.12-3.29.27-7.28.28-7.62q0-1.26,0-2.44c0-.06,0-.12,0-.18l-4.16-.37" fill="#b0102b"/><path d="M1038,80l0,.57c-.07,1.93-.14,3.5-.16,3.76l4.16.37c0-.28.1-2.15.18-4.32L1038,80" fill="#ac102a"/><path d="M1037.78,84.35c0,.27,0,.55-.07.82v0l4.16.37v-.1c0-.25,0-.5.06-.76l-4.16-.37" fill="#ac102a"/><path d="M1037.71,85.2h0q-.09,1-.22,2l4.16.37v-.06c0-.3.07-.61.11-.92s.07-.7.1-1.06l-4.16-.37" fill="#a90f29"/><path d="M1037.49,87.24l-.05.39q0,.28-.08.56l0,.21,0,.12-.06.38,4.15.36.07-.38,0-.18v-.09c0-.32.09-.65.14-1l-4.16-.37" fill="#a50f28"/><path d="M1037.25,88.89q-.12.71-.26,1.38l4.15.37.1-.5q.06-.32.12-.64l0-.26-4.15-.36" fill="#a10f27"/><path d="M1037,90.27l-.1.48c-.05.24-.11.48-.16.72l4.15.37q.08-.34.16-.69l.1-.5-4.15-.37" fill="#9d0e26"/><path d="M1036.72,91.46l-.06.21q-.11.43-.23.84l4.15.37.07-.25c.07-.26.14-.53.21-.81l-4.15-.37" fill="#990e25"/><path d="M1036.43,92.52l-.06.2c-.07.25-.15.5-.22.75l4.15.35q.12-.36.23-.74l.05-.2-4.15-.37" fill="#950e24"/><path d="M1036.15,93.47l-.14.38,4.16.37.13-.4-4.15-.35" fill="#910d24"/></g><g id="L4"><polyline points="955.43 86.61 955.01 95.9 959.17 96.27 959.59 86.98 955.43 86.61" fill="#b5112c"/><polyline points="967.62 69.8 965.68 70.13 969.83 70.48 971.78 70.17 967.62 69.8" fill="#620918"/><polyline points="965.46 118.33 963.48 118.64 967.64 119.02 969.61 118.69 965.46 118.33" fill="#620918"/><polyline points="987.58 80.81 987.14 90.99 991.29 91.35 991.74 81.16 987.58 80.81" fill="#b5112c"/><polyline points="987.14 90.99 987.07 92.03 991.24 92.4 991.29 91.35 987.14 90.99" fill="#b4112c"/><path d="M955.1,101.09A36.2,36.2,0,0,1,955,95.9l.41-9.29c.22-5,1.17-8.8,2.9-11.61a10.22,10.22,0,0,1,7.35-4.88l1.95-.33h.1a10.92,10.92,0,0,1,1.73-.15,7.69,7.69,0,0,1,1,.06,5.81,5.81,0,0,1,1.61.43,5.1,5.1,0,0,1,2.26,2c1.44,2.18,2,5.65,1.81,10.58l-.43,9.3a26.94,26.94,0,0,1-2,9.93,10.44,10.44,0,0,1-7.83,6.36l-2.06.34-.14,0-.22,0h0l-.51.06-.55,0h-.69l-.66-.05-.17,0h0l-.27,0-.42-.09-.34-.09-.12,0-.35-.12-.37-.16-.34-.17-.17-.1-.08,0,0,0-.28-.18-.14-.1-.29-.23-.07-.06-.12-.11-.28-.28,0,0-.05-.06,0,0-.14-.17-.21-.27,0-.05a6.29,6.29,0,0,1-.38-.61h0v0l-.18-.36a13.58,13.58,0,0,1-.88-3.62l0-.37v-.13m16.55-41.75a26.59,26.59,0,0,0-4,.33l-2,.34c-14,2.55-20.9,11.88-21.68,27.64l-.44,10.2c-.25,7,.88,12,3.48,15.42s6.78,5.7,12.59,5.7a25.46,25.46,0,0,0,3.89-.31l2-.31.52-.1.36-.07.13,0a28.15,28.15,0,0,0,8.67-3.29h0l.85-.53.28-.19.1-.07a21.94,21.94,0,0,0,2.82-2.3l0,0,.22-.22.19-.19.16-.17q.46-.49.9-1l.17-.2.11-.13,0-.06.23-.29.26-.34.3-.42.13-.18,0,0q.4-.57.76-1.17l.05-.08.17-.29A34,34,0,0,0,987.07,92l.07-1,.44-10.18q0-1,0-2c0-.23,0-.46,0-.69s0-.36,0-.53v-.17q0-1.49-.19-2.83a26.48,26.48,0,0,0-.78-4.26,17.65,17.65,0,0,0-1.26-3.3l0-.08a13.7,13.7,0,0,0-1.07-1.76l-.25-.34a13.53,13.53,0,0,0-6.22-4.52h0a15.55,15.55,0,0,0-1.61-.48l-.17,0q-.64-.15-1.33-.25l-.32,0h0l-.22,0-.25,0h0a20.87,20.87,0,0,0-2.19-.11" fill="#7e0c1f"/><path d="M955,95.9v.34l4.16.37v-.34L955,95.9" fill="#ac102a"/><path d="M955,96.24v.18q0,.48,0,.94c0,.48,0,.95,0,1.39l4.15.37q0-.67,0-1.39,0-.46,0-.93v-.18L955,96.24" fill="#b0102b"/><path d="M955,98.75c0,.83.06,1.61.13,2.34v.13l4.15.36v-.1q-.11-1.09-.13-2.36L955,98.75" fill="#b4112c"/><path d="M955.11,101.22l0,.37a15.68,15.68,0,0,0,.62,2.91l4.15.36a15.12,15.12,0,0,1-.62-3l0-.32-4.15-.36" fill="#b8112d"/><path d="M955.77,104.49c.08.24.17.48.26.71l4.16.36c-.06-.12-.11-.25-.16-.39l-.11-.32-4.15-.36" fill="#b4112c"/><path d="M956,105.2l.18.36v0l4.16.37q-.11-.19-.2-.4L956,105.2" fill="#b0102b"/><path d="M956.23,105.59h0l.22.35,4.15.37-.21-.36-4.16-.37" fill="#ac102a"/><path d="M956.45,105.94l.16.26,0,.05,4.16.37v0l-.2-.3-4.15-.37" fill="#a90f29"/><path d="M956.65,106.26l.21.27,4.17.37v0l-.19-.24h0l-4.16-.37" fill="#a50f28"/><path d="M956.86,106.53l.14.17,0,0,.05.06,4.15.36-.2-.23h0l-4.17-.37" fill="#a10f27"/><path d="M957.08,106.78l0,0,.17.18,4.15.36-.22-.23-4.15-.36" fill="#9d0e26"/><path d="M957.29,107l.11.1.12.11,4.15.35,0,0-.2-.19-4.15-.36" fill="#990e25"/><path d="M957.52,107.22l.07.06.17.14,4.16.37-.14-.12,0,0-.09-.08-4.15-.35" fill="#950e24"/><path d="M957.76,107.42l.12.1.14.1,4.15.35-.17-.12-.09-.06-4.16-.37" fill="#910d24"/><path d="M958,107.62l.28.18,4.15.35-.28-.19-4.15-.35" fill="#8d0d23"/><path d="M958.3,107.81l0,0,.08,0,.17.1,4.15.37-.18-.11-.12-.07-4.15-.35" fill="#890d22"/><path d="M958.6,108l.34.17,4.14.35-.15-.07-.18-.08L958.6,108" fill="#850c21"/><path d="M958.94,108.15l.37.16,4.09.36h0l-.2-.1-.15-.07-4.14-.35" fill="#810c20"/><path d="M959.31,108.31l.35.12.06,0,3.18.28.51-.06-4.09-.36" fill="#7d0c1f"/><path d="M959.72,108.45l.06,0,.34.09.08,0,2.15.19.55,0-3.18-.28" fill="#7a0b1e"/><path d="M960.21,108.57l.33.07.27,0,.85.08h.69l-2.15-.19" fill="#760b1d"/><path d="M960.81,108.69h0l.17,0,.66.05-.85-.08" fill="#720a1c"/><path d="M965.68,70.13l-.3.05a10.41,10.41,0,0,0-4.88,2.27l4.15.37a10,10,0,0,1,3-1.76h0l.28-.1.07,0,.28-.09h0l.32-.09.11,0,.22-.05.13,0,.21,0,.12,0,.34-.06-4.16-.36" fill="#660919"/><path d="M960.5,72.44l-.25.22-.44.43,4.16.36.13-.13h0l.08-.08.46-.42-4.15-.37" fill="#6a0a1a"/><path d="M959.81,73.1l-.46.49,0,0,4.15.37q.23-.27.46-.52l0,0-4.16-.36" fill="#6e0a1b"/><path d="M959.31,73.64l-.25.31-.14.19,4.15.37q.19-.26.39-.5l-4.15-.37" fill="#720a1c"/><path d="M958.92,74.14l-.13.17-.2.3,4.16.37.33-.47-4.15-.37" fill="#760b1d"/><path d="M958.58,74.61l-.26.4-.06.1,4.16.37.07-.11.25-.38-4.16-.37" fill="#7a0b1e"/><path d="M958.27,75.1c-.11.17-.21.36-.3.54l4.16.36.05-.09v0c.08-.14.15-.28.24-.42l-4.16-.37" fill="#7d0c1f"/><path d="M958,75.65l-.25.46,0,.07,4.15.37.19-.34,0-.09.06-.11L958,75.65" fill="#810c20"/><path d="M957.68,76.17l-.05.11-.17.35,0,.09,4.16.37.14-.31.11-.25-4.15-.37" fill="#850c21"/><path d="M957.42,76.73l-.07.15-.17.43,4.16.36c.07-.16.13-.32.21-.48l0-.09-4.16-.37" fill="#890d22"/><path d="M957.18,77.31c-.08.2-.17.4-.23.61l4.16.36c.07-.2.15-.41.23-.61l-4.16-.36" fill="#8d0d23"/><path d="M956.95,77.92c-.08.21-.15.43-.22.65l4.16.36,0-.09c.06-.19.12-.38.19-.56l-4.16-.36" fill="#910d24"/><path d="M956.73,78.58c-.08.23-.15.47-.22.71l4.16.36c.06-.22.13-.43.2-.64l0-.07-4.16-.36" fill="#950e24"/><path d="M956.51,79.29l-.21.78,4.16.36.21-.78-4.16-.36" fill="#990e25"/><path d="M956.3,80.07q-.1.43-.21.9l4.16.36.21-.9-4.16-.36" fill="#9d0e26"/><path d="M956.09,81c-.07.34-.14.68-.19,1l4.16.37c.06-.36.12-.71.19-1.05L956.09,81" fill="#a10f27"/><path d="M955.9,82l-.1.58c0,.22-.06.44-.09.67l4.16.37c0-.2.05-.41.08-.61s.06-.44.1-.64L955.9,82" fill="#a50f28"/><path d="M955.71,83.26l0,.27-.11,1.06,0,.25,4.15.37c0-.28.06-.55.09-.81s.06-.51.09-.77l-4.16-.37" fill="#a90f29"/><path d="M955.54,84.83q-.07.86-.11,1.78l4.16.37c0-.61.07-1.21.11-1.78l-4.15-.37" fill="#ac102a"/><path d="M963.48,118.64a24.92,24.92,0,0,1-3.89.31q-.93,0-1.81-.07l4.16.36q.89.08,1.83.08a25.91,25.91,0,0,0,3.87-.31l-4.16-.37" fill="#660919"/><path d="M961.93,119.24l-4.16-.36a23.93,23.93,0,0,0,5.7-.24l4.16.37a23.86,23.86,0,0,1-5.7.23" fill="none"/><polyline points="967.72 69.78 967.62 69.8 971.78 70.17 971.88 70.16 967.72 69.78" fill="#660919"/><polyline points="967.72 69.78 971.88 70.16 971.78 70.17 967.62 69.8 967.72 69.78" fill="none"/><path d="M969.44,69.64a11.43,11.43,0,0,0-1.72.15l4.16.37.16,0a5.81,5.81,0,0,0-1.61-.43l-.28,0a7.06,7.06,0,0,0-.71,0" fill="#660919"/><path d="M970.15,69.67l4.16.36a9.73,9.73,0,0,0-2.43.13l-4.16-.37a9.73,9.73,0,0,1,2.43-.11" fill="none"/><path d="M973.84,59.44h0l.25,0,.22,0h0l.32,0,3.85.33-.84-.09-3.84-.34" fill="#720a1c"/><path d="M974.67,59.55q.68.1,1.33.25l4.14.37h0q-.76-.17-1.58-.28l-3.85-.33" fill="#760b1d"/><path d="M976,59.8l.17,0c.33.08.65.16,1,.26l4.12.37q-.48-.15-1-.27l-.12,0L976,59.8" fill="#7a0b1e"/><path d="M977.13,60.1l.4.14.11,0,.14,0h0l.32.11,4.13.37q-.48-.19-1-.34l-4.12-.37" fill="#7d0c1f"/><path d="M978.11,60.44c.29.11.58.24.86.37l4.16.37q-.43-.2-.88-.37l-4.13-.37" fill="#810c20"/><path d="M979,60.81h0l.31.15,0,0,.4.2,4.15.37q-.37-.2-.76-.38L979,60.81" fill="#850c21"/><path d="M979.74,61.19c.25.14.48.27.7.41l4.16.37-.71-.41-4.15-.37" fill="#890d22"/><path d="M980.44,61.61l.16.1h0l.48.32,4.15.37L984.6,62l-4.16-.37" fill="#8d0d23"/><path d="M981.09,62l.61.46,4.15.37-.61-.46L981.09,62" fill="#910d24"/><path d="M981.7,62.49l.57.48,4.14.35-.56-.47-4.15-.37" fill="#950e24"/><path d="M982.26,63l.54.5,4.15.37-.18-.18-.07-.06-.3-.27L982.26,63" fill="#990e25"/><path d="M982.8,63.47c.16.16.31.32.45.49l.06.07,4.15.36,0,0-.49-.51-4.15-.37" fill="#9d0e26"/><path d="M983.32,64l.06.07c.15.16.3.34.44.51L988,65l0,0-.49-.57L983.32,64" fill="#a10f27"/><path d="M983.82,64.61l.18.24,4.16.36L988,65l-4.16-.37" fill="#a50f28"/><path d="M984,64.85l.25.34,0,0,4.15.36-.27-.37L984,64.85" fill="#a50f28"/><path d="M984.28,65.22c.15.21.3.43.44.65l4.15.35q-.21-.34-.44-.65l-4.15-.36" fill="#a90f29"/><path d="M984.72,65.87a8.78,8.78,0,0,1,.46.78l4.16.37-.08-.16c-.12-.22-.25-.43-.38-.64l-4.15-.35" fill="#ac102a"/><path d="M985.18,66.66l.15.29,0,.08c.11.21.21.43.32.66l4.15.35-.13-.28c-.12-.25-.24-.49-.37-.72l-4.16-.37" fill="#b0102b"/><path d="M985.69,67.68c.23.53.46,1.08.65,1.66l4.15.37a17.49,17.49,0,0,0-.65-1.68l-4.15-.35" fill="#b4112c"/><path d="M986.34,69.34q.15.48.29,1a26.48,26.48,0,0,1,.78,4.26l4.15.37q-.16-1.47-.42-2.79a21.84,21.84,0,0,0-.65-2.45l-4.15-.37" fill="#b8112d"/><path d="M987.41,74.58q.14,1.35.19,2.83v.17c0,.11,0,.21,0,.32l4.15.36c0-.11,0-.22,0-.32v-.18c0-1-.1-1.92-.19-2.8l-4.15-.37" fill="#b4112c"/><path d="M987.61,77.91c0,.07,0,.14,0,.21,0,.23,0,.46,0,.69q0,1,0,2l4.16.36c0-.93,0-1.82,0-2.68,0-.07,0-.15,0-.22l-4.15-.36" fill="#b0102b"/><path d="M987.07,92c0,.27,0,.54-.06.8l4.16.37c0-.27,0-.53.07-.8L987.07,92" fill="#ac102a"/><path d="M987,92.83c-.06.68-.12,1.35-.21,2l4.16.36c0-.19,0-.39.07-.59q.08-.7.14-1.42L987,92.83" fill="#a90f29"/><path d="M986.81,94.85c-.08.57-.17,1.14-.26,1.69l4.16.36c.09-.49.16-1,.23-1.5l0-.19-4.16-.36" fill="#a50f28"/><path d="M986.54,96.54c-.08.48-.17,1-.28,1.45l4.17.36.1-.5c.06-.31.11-.63.17-.95l-4.16-.36" fill="#a10f27"/><path d="M986.27,98q-.12.64-.29,1.28l4.16.37c.06-.25.12-.49.18-.74v0l.11-.51L986.27,98" fill="#9d0e26"/><path d="M986,99.27c-.1.4-.19.8-.3,1.19l4.15.36q.17-.58.31-1.18L986,99.27" fill="#990e25"/><path d="M985.67,100.47l-.33,1.08,4.15.37.12-.38.12-.4.09-.31-4.15-.36" fill="#950e24"/><path d="M985.34,101.55c-.11.34-.23.68-.36,1l4.16.37.13-.37.22-.66-4.15-.37" fill="#910d24"/><path d="M985,102.57q-.17.49-.37,1l4.16.36.07-.16.26-.68,0-.13-4.16-.37" fill="#8d0d23"/><path d="M984.61,103.55c-.12.31-.26.63-.4.94l4.16.36c.14-.3.28-.61.4-.94l-4.16-.36" fill="#890d22"/><path d="M984.21,104.49c-.14.3-.28.61-.43.91l4.16.36c.15-.3.29-.6.43-.91l-4.16-.36" fill="#850c21"/><path d="M983.78,105.4c-.15.3-.3.61-.47.91l4.16.36h0l.1-.19.14-.26.22-.44-4.16-.36" fill="#810c20"/><path d="M983.31,106.31l-.35.6-.17.29,4.15.37.21-.34.12-.2,0,0,.18-.32-4.16-.36" fill="#7d0c1f"/><path d="M982.79,107.21l-.05.08c-.17.28-.34.57-.53.84l4.16.36.12-.18.4-.64.05-.09-4.15-.37" fill="#7a0b1e"/><path d="M982.21,108.13l-.23.33,0,0-.13.18-.3.42,4.15.37.45-.62,0,0,.08-.11.14-.21-4.16-.36" fill="#760b1d"/><path d="M981.52,109.1l-.26.34-.23.29,0,.06-.11.13-.17.2,4.15.37.31-.37.48-.62,0,0-4.15-.37" fill="#720a1c"/><path d="M980.71,110.13q-.43.51-.9,1l-.14.15,4.16.36.25-.26,0,0h0c.25-.27.49-.54.73-.82l-4.15-.37" fill="#6e0a1b"/><path d="M979.67,111.28l0,0-.19.19-.22.22,0,0c-.34.33-.7.66-1.06,1l4.16.36.31-.26h0c.33-.29.65-.59,1-.9l.26-.26-4.16-.36" fill="#6a0a1a"/><path d="M978.13,112.71q-.84.71-1.76,1.34l-.1.07-.28.19-.85.53h0a28.15,28.15,0,0,1-8.67,3.29l-.13,0-.36.07-.52.1,4.16.36a27,27,0,0,0,12.15-5.19l.05,0,.3-.25.13-.11,0,0-4.16-.36" fill="#660919"/></g><g id="L3"><polyline points="889.91 129.97 883.96 130.96 888.11 131.33 894.07 130.34 889.91 129.97" fill="#620918"/><polyline points="897 96 896.03 120.72 900.18 121.08 900.84 104.42 897 96" fill="#b6112c"/><polyline points="897.42 76.1 909.38 98.28 911.34 94.57 901.58 76.47 897.42 76.1" fill="#ba112d"/><polyline points="922.59 91.79 911.54 115.03 915.7 115.4 922.19 101.75 922.59 91.79" fill="#910d23"/><polyline points="927.01 123.71 921.27 124.65 925.43 125.02 931.18 124.06 927.01 123.71" fill="#620918"/><polyline points="935.04 66.39 933.11 114.46 937.28 114.83 939.2 66.74 935.04 66.39" fill="#b5112c"/><path d="M935,66.39l-5.07.85a8.39,8.39,0,0,0-6.41,4.21L911.34,94.57l-2,3.71-12-22.18-.14-.24-.16-.24-.17-.23-.16-.18-.18-.19-.13-.13-.05,0-.16-.14-.19-.14-.21-.14-.22-.13-.25-.13-.29-.12L895,74l-.09,0-.09,0h0a6.61,6.61,0,0,0-2-.28,11,11,0,0,0-1.77.16l-4.88.81L884,131l6-1a6.43,6.43,0,0,0,4.1-2.89,12.59,12.59,0,0,0,2-6.36L897,96l3.84,8.42L906,115.71c.35.65,1.24,2,2.42,2.13h.15l.26,0c1.34-.24,2.39-2.16,2.72-2.8l11-23.24-.4,10-.91,22.9,5.73-.94.19,0,.15,0h0l.13,0,.05,0,.11,0,.07,0,.09,0,.11,0,0,0a5.86,5.86,0,0,0,1.72-1l.2-.18.38-.38.14-.16a8.22,8.22,0,0,0,.66-.86l0,0,.14-.21.23-.37.12-.21.21-.4.14-.3.07-.17.14-.34.16-.43.14-.42v0l.06-.2q.09-.28.16-.58l0-.11q.06-.24.11-.48l0-.14a12.94,12.94,0,0,0,.23-1.94L935,66.39" fill="#7e0c1f"/><path d="M893.47,73.68l.25,0,.15,0,4.16.37-.4-.06-4.16-.36" fill="#720a1c"/><path d="M893.87,73.72l.48.09,4.16.37c-.17,0-.32-.07-.48-.09l-4.16-.37" fill="#760b1d"/><path d="M894.36,73.81l.23.07.16,0,4.14.35-.09,0-.28-.07-4.16-.37" fill="#7a0b1e"/><path d="M894.75,73.92h.09l.09,0,.09,0h.07l4.16.37-.27-.1-.08,0-4.14-.35" fill="#7d0c1f"/><path d="M895.07,74h0l.29.12,4.14.35h0l-.28-.11L895.07,74" fill="#810c20"/><path d="M895.38,74.17l.25.13,4.14.35-.14-.07-.07,0,0,0-4.14-.35" fill="#850c21"/><path d="M895.63,74.3l.22.13,4.15.37-.17-.11-.06,0-4.14-.35" fill="#890d22"/><path d="M895.85,74.42l.21.14,4.15.35h0l-.2-.13-4.15-.37" fill="#8d0d23"/><path d="M896.06,74.56l.19.14,4.15.37-.19-.16h0l-4.15-.35" fill="#910d24"/><path d="M896.26,74.71l.16.14,0,0,4.15.35-.05,0-.13-.09-4.15-.37" fill="#950e24"/><path d="M896.44,74.86l0,0,.13.13,4.16.37-.09-.09-.09-.08-4.15-.35" fill="#990e25"/><path d="M896.61,75l.18.19,4.15.35-.17-.17L896.61,75" fill="#9d0e26"/><path d="M896.78,75.21l.16.18,4.15.37-.17-.2-4.15-.35" fill="#a10f27"/><path d="M896.94,75.39l.17.23,4.15.35-.17-.21-4.15-.37" fill="#a50f28"/><path d="M897.12,75.62l.16.24,4.15.37-.17-.26-4.15-.35" fill="#a90f29"/><path d="M897.28,75.86l.14.24,4.16.37-.15-.24-4.15-.37" fill="#ac102a"/><path d="M896,120.72q0,.26,0,.51l4.15.37,0-.53-4.16-.36" fill="#ac102a"/><path d="M896,121.23c0,.19,0,.38-.06.57l4.16.37,0-.25c0-.11,0-.22,0-.32l-4.15-.37" fill="#a90f29"/><path d="M895.93,121.8q0,.26-.08.53l4.15.37.08-.49v0l-4.16-.37" fill="#a50f28"/><path d="M895.85,122.33q0,.25-.09.5l4.15.37c0-.17.07-.33.1-.5l-4.15-.37" fill="#a10f27"/><path d="M895.76,122.83q-.05.24-.11.48l4.15.35c0-.16.08-.31.11-.47l-4.15-.37" fill="#9d0e26"/><path d="M895.65,123.31l-.07.29,0,.17,4.16.36.06-.23c0-.07,0-.15,0-.22l-4.15-.35" fill="#990e25"/><path d="M895.53,123.77l0,.12-.1.32,4.16.36,0-.08.11-.36-4.16-.36" fill="#950e24"/><path d="M895.39,124.21l0,.07,0,.06-.1.3,4.16.35,0-.09c0-.11.08-.23.11-.34l-4.16-.36" fill="#910d24"/><path d="M895.25,124.63l-.15.4h0l4.16.36.12-.29,0-.13-4.16-.35" fill="#8d0d23"/><path d="M895.09,125h0l-.17.39,4.15.37.18-.41-4.16-.36" fill="#890d22"/><path d="M894.92,125.44l-.19.4,4.16.37.18-.4-4.15-.37" fill="#850c21"/><path d="M894.73,125.84l-.21.4,4.16.36.21-.38-4.16-.37" fill="#810c20"/><path d="M894.52,126.24l-.22.38,4.16.36.22-.38-4.16-.36" fill="#7d0c1f"/><path d="M894.3,126.62,894,127l4.16.37.26-.43-4.16-.36" fill="#7a0b1e"/><path d="M894,127l0,0-.23.33,4.16.37.23-.33,0,0L894,127" fill="#760b1d"/><path d="M893.78,127.41l-.3.38h0l4.16.37h0l.3-.38-4.16-.37" fill="#720a1c"/><path d="M893.47,127.79h0c-.12.14-.24.27-.37.41h0l4.16.37h0l.37-.41h0l-4.16-.37" fill="#6e0a1b"/><path d="M893.1,128.2l0,0-.07.08-.05.05-.05.05-.28.26,4.16.36a4.87,4.87,0,0,0,.37-.33h0l.09-.09,0,0-4.16-.37" fill="#6a0a1a"/><path d="M892.6,128.67a5.61,5.61,0,0,1-2.69,1.29l4.16.37.18,0,.18,0h0l.17,0h0l.16,0h0l.15-.05h0l.14-.05h0l.12-.05.06,0,.09,0,.11-.05,0,0a5.94,5.94,0,0,0,1.19-.81l-4.16-.36" fill="#660919"/><path d="M911.54,115l-.14.26,4.15.37,0,0,.12-.22-4.16-.37" fill="#810c20"/><path d="M911.4,115.29l-.23.4,4.15.37.23-.39h0l-4.15-.37" fill="#7d0c1f"/><path d="M911.17,115.69l-.23.37,4.15.37.23-.37-4.15-.37" fill="#7a0b1e"/><path d="M910.94,116.06l-.24.34,4.15.36.23-.33-4.15-.37" fill="#760b1d"/><path d="M910.7,116.4l-.24.3,4.15.37.08-.1.16-.21-4.15-.36" fill="#720a1c"/><path d="M910.46,116.7l-.23.26,0,0,4.16.36,0,0,.12-.13.12-.13-4.15-.37" fill="#6e0a1b"/><path d="M910.2,117l0,0-.26.24,4.15.37.3-.28h0L910.2,117" fill="#6a0a1a"/><path d="M908.41,117.85h0m1.5-.58a2.36,2.36,0,0,1-1.09.57l-.26,0h-.11l4.13.37h.4l.13,0,.12,0h0l.11,0h0l.11,0h0l.09,0,0,0,.06,0a3.28,3.28,0,0,0,.37-.28l-4.15-.37" fill="#660919"/><path d="M933.11,114.46c0,.17,0,.34,0,.51l4.16.36c0-.16,0-.33,0-.5l-4.17-.37" fill="#ac102a"/><path d="M933.08,115c0,.18,0,.37-.06.55l4.16.37c0-.18,0-.37.06-.57l-4.16-.36" fill="#a90f29"/><path d="M933,115.53l-.08.53,4.16.36.08-.51-4.16-.37" fill="#a50f28"/><path d="M932.94,116.06c0,.11,0,.23-.06.34l0,.14,4.15.37c0-.16.07-.33.1-.5l-4.16-.36" fill="#a10f27"/><path d="M932.85,116.54q-.05.24-.11.48l4.16.35v0c0-.14.06-.28.09-.42l-4.15-.37" fill="#9d0e26"/><path d="M932.74,117l0,.11c0,.11-.06.23-.09.34l4.15.37q.07-.23.13-.47l-4.16-.35" fill="#990e25"/><path d="M932.63,117.48l-.07.23-.06.2h0l4.16.37v0c0-.09.05-.18.08-.26l0-.16-4.15-.37" fill="#950e24"/><path d="M932.49,117.92h0l-.14.42,4.15.37.05-.14.1-.29-4.16-.37" fill="#910d24"/><path d="M932.34,118.35l-.16.43,4.15.37.1-.25.06-.18-4.15-.37" fill="#8d0d23"/><path d="M932.18,118.77l-.14.34,0,.07,4.15.37.18-.41-4.15-.37" fill="#890d22"/><path d="M932,119.19l0,.1-.14.3L936,120l.19-.4-4.15-.37" fill="#850c21"/><path d="M931.81,119.58l-.21.4,4.15.37.21-.4-4.15-.37" fill="#810c20"/><path d="M931.61,120l-.12.21-.1.19,4.14.37.23-.4-4.15-.37" fill="#7d0c1f"/><path d="M931.38,120.38l-.12.19-.14.21,4.15.37.26-.4-4.14-.37" fill="#7a0b1e"/><path d="M931.12,120.78l0,0-.22.33,4.15.35.23-.33,0,0-4.15-.37" fill="#760b1d"/><path d="M930.87,121.15l-.3.38,4.15.36.3-.38-4.15-.35" fill="#720a1c"/><path d="M930.57,121.53l-.14.15-.14.16-.1.11,4.16.36,0,0,.26-.29.09-.1-4.15-.36" fill="#6e0a1b"/><path d="M930.2,121.94l-.28.27-.2.18,4.15.37c.18-.15.34-.31.5-.47l-4.16-.36" fill="#6a0a1a"/><path d="M929.71,122.4a5.86,5.86,0,0,1-1.72,1l0,0-.11,0-.09,0-.07,0-.11,0-.05,0-.13,0h0l-.15,0-.19,0,4.17.36a5.56,5.56,0,0,0,2.68-1.29h0l-4.15-.37" fill="#660919"/></g><g id="L2"><polyline points="842.72 105.6 842.3 114.89 846.46 115.25 846.88 105.96 842.72 105.6" fill="#b5112c"/><polyline points="854.93 88.79 852.97 89.11 857.12 89.48 859.08 89.14 854.93 88.79" fill="#620918"/><polyline points="852.76 137.31 850.78 137.65 854.94 138 856.91 137.68 852.76 137.31" fill="#620918"/><polyline points="874.87 99.78 874.43 109.97 878.59 110.34 879.03 100.15 874.87 99.78" fill="#b5112c"/><polyline points="874.43 109.97 874.37 111.03 878.53 111.41 878.59 110.34 874.43 109.97" fill="#b4112c"/><path d="M855,88.77a10.82,10.82,0,0,1,1.73-.15,6.43,6.43,0,0,1,2.57.49,5,5,0,0,1,2.26,2c1.45,2.18,2,5.66,1.81,10.6L863,111a26.9,26.9,0,0,1-2,9.93c-1.59,3.37-4.14,5.73-7.83,6.34l-2.06.36h-.19l-.17,0h0l-.58.07-.56,0h-.82a7.79,7.79,0,0,1-.9-.1h0l-.13,0-.17,0h0l-.48-.13-.41-.14-.37-.16-.34-.17-.07,0a5.81,5.81,0,0,1-.71-.47l-.06,0-.25-.21-.23-.21-.22-.23-.22-.26-.2-.27-.21-.31-.05-.08-.05-.09-.11-.2-.08-.16-.1-.21q-.14-.32-.26-.68a13.84,13.84,0,0,1-.53-2.29q-.15-1-.22-2.11,0-.65-.05-1.36c0-.2,0-.4,0-.61q0-1.06,0-2.23l.41-9.29c.23-5,1.17-8.8,2.91-11.61A10.2,10.2,0,0,1,853,89.12l2-.33h.1M859,78.32a26.77,26.77,0,0,0-4.06.33L853,79c-14,2.57-20.91,11.88-21.7,27.64l-.43,10.2c-.26,7,.87,12.06,3.47,15.42s6.8,5.72,12.66,5.72h.43a25.64,25.64,0,0,0,2.84-.22h.06l.51-.07,2-.34a29.4,29.4,0,0,0,9-3.09h0l.39-.22.17-.1.22-.13a22.44,22.44,0,0,0,2.88-2.06q.81-.68,1.54-1.44.39-.4.75-.81l.44-.51.5-.62.27-.35q.3-.41.59-.84l.43-.67.38-.63.3-.53.35-.66.15-.31q.19-.39.37-.79l0-.11q.19-.43.37-.87l.1-.26.16-.42.15-.4q.17-.47.32-.95c.11-.35.22-.72.33-1.08s.22-.79.32-1.19.2-.85.29-1.28.12-.62.18-.94l.05-.29,0-.15,0-.14q.1-.58.18-1.17l0-.28,0-.16q.13-1,.22-2,0-.39.06-.78l.06-1.07.44-10.18q0-1,0-2c0-.25,0-.49,0-.73s0-.3,0-.45q0-1.61-.19-3.07c0-.29-.07-.58-.1-.87a24.27,24.27,0,0,0-.92-4.2h0q-.21-.67-.47-1.29v0l-.15-.34,0-.09-.07-.15q-.16-.36-.34-.7c-.11-.22-.23-.44-.35-.65l0,0c-.11-.19-.23-.38-.35-.56l-.15-.22-.17-.25-.25-.34c-2.63-3.39-6.67-5.51-12.34-5.51" fill="#7e0c1f"/><path d="M842.3,114.89c0,.11,0,.22,0,.33l4.16.37v-.34l-4.16-.36" fill="#ac102a"/><path d="M842.29,115.22q0,1,0,1.91c0,.21,0,.41,0,.61l4.16.37q0-.46,0-.94,0-.74,0-1.54v0l-4.16-.37" fill="#b0102b"/><path d="M842.26,117.73q0,.71.05,1.36t.1,1.13l4.16.36,0-.19c-.07-.7-.12-1.46-.13-2.28l-4.16-.37" fill="#b4112c"/><path d="M842.41,120.22q.05.51.12,1a13.84,13.84,0,0,0,.53,2.29l4.15.37a15.11,15.11,0,0,1-.64-3.2v-.09l-4.16-.36" fill="#b8112d"/><path d="M843.07,123.5q.12.36.26.68l4.16.37c-.1-.21-.18-.44-.26-.68l-4.15-.37" fill="#b4112c"/><path d="M843.33,124.18l.1.21.08.16,4.15.37-.18-.37-4.16-.37" fill="#b0102b"/><path d="M843.51,124.55l.11.2.05.09.05.08,4.15.37-.22-.37-4.15-.37" fill="#ac102a"/><path d="M843.73,124.92l.21.31,4.15.35-.14-.21-.06-.09-4.15-.37" fill="#a90f29"/><path d="M843.94,125.23l.2.27,4.15.37-.1-.13-.11-.15-4.15-.35" fill="#a50f28"/><path d="M844.14,125.5l.22.26,4.14.35-.21-.24-4.15-.37" fill="#a10f27"/><path d="M844.36,125.76l.22.23,4.15.37-.22-.24-4.14-.35" fill="#9d0e26"/><path d="M844.58,126l.23.21,4.15.37-.23-.21-4.15-.37" fill="#990e25"/><path d="M844.81,126.2l.25.21,4.14.35-.14-.12-.1-.08-4.15-.37" fill="#950e24"/><path d="M845.06,126.41l.06,0,.19.14,4.16.37h0l-.26-.19-4.14-.35" fill="#910d24"/><path d="M845.31,126.6l.28.18,4.16.37,0,0-.24-.16h0l-4.16-.37" fill="#8d0d23"/><path d="M845.59,126.78l.24.15.07,0,4.15.37-.3-.18-4.16-.37" fill="#890d22"/><path d="M845.9,127l.34.17,4.13.35-.11-.05-.22-.11L845.9,127" fill="#850c21"/><path d="M846.25,127.14l.37.16,4.11.35h0l-.36-.15-4.13-.35" fill="#810c20"/><path d="M846.62,127.3l.41.14,3.12.28.58-.07-4.11-.35" fill="#7d0c1f"/><path d="M847,127.44l.48.13,2.08.19.56,0-3.12-.28" fill="#7a0b1e"/><path d="M847.51,127.56h0l.17,0,.13,0h0l.39.06.61.05h.71l-2.08-.19" fill="#760b1d"/><path d="M848.27,127.69l.26,0,.24,0h.11l-.61-.05" fill="#720a1c"/><path d="M853,89.12a10.57,10.57,0,0,0-5.18,2.33l4.16.36a10.55,10.55,0,0,1,5.18-2.32L853,89.12" fill="#660919"/><path d="M847.79,91.45a7.43,7.43,0,0,0-.69.65l4.16.36c.22-.23.46-.44.69-.65l-4.16-.36" fill="#6a0a1a"/><path d="M847.1,92.1l-.5.54,4.16.36.5-.54-4.16-.36" fill="#6e0a1b"/><path d="M846.6,92.64c-.12.16-.26.33-.39.5l4.16.36c.12-.17.26-.33.39-.5l-4.16-.36" fill="#720a1c"/><path d="M846.21,93.14l-.14.18-.1.14-.1.15L850,94l.09-.14.24-.35-4.16-.36" fill="#760b1d"/><path d="M845.88,93.61l-.25.38-.08.14,4.16.36.08-.13L850,94l-4.16-.37" fill="#7a0b1e"/><path d="M845.55,94.14l-.08.13-.21.38,4.15.37c.1-.18.21-.36.3-.53l-4.16-.36" fill="#7d0c1f"/><path d="M845.25,94.65l-.12.22-.16.32h0l4.16.36c.1-.17.18-.36.28-.53l-4.15-.37" fill="#810c20"/><path d="M845,95.19l-.26.54,4.16.37.15-.32.11-.23L845,95.19" fill="#850c21"/><path d="M844.71,95.73l-.12.27-.12.3,4.16.37c.07-.17.13-.33.21-.49l0-.08-4.16-.37" fill="#890d22"/><path d="M844.47,96.3l0,.07-.19.5,0,0,4.16.37c.07-.21.15-.41.23-.61l-4.16-.37" fill="#8d0d23"/><path d="M844.24,96.91l0,.07-.11.31-.08.27,4.16.36c.07-.21.15-.44.22-.64l-4.16-.37" fill="#910d24"/><path d="M844,97.56l-.05.15c-.06.19-.12.37-.17.56l4.16.36c.07-.24.15-.47.22-.71L844,97.56" fill="#950e24"/><path d="M843.8,98.28l0,.13-.15.57,0,.08,4.16.36.21-.78-4.16-.36" fill="#990e25"/><path d="M843.59,99.06c-.07.29-.14.59-.2.9l4.16.37.06-.27c0-.22.09-.43.14-.64l-4.16-.36" fill="#9d0e26"/><path d="M843.39,100q-.11.51-.2,1l4.15.37c.05-.28.1-.56.16-.82l0-.22-4.16-.37" fill="#a10f27"/><path d="M843.19,101q0,.29-.09.58c0,.22-.06.44-.09.67l4.15.37.06-.43c0-.28.08-.55.12-.82l-4.15-.37" fill="#a50f28"/><path d="M843,102.24c0,.33-.08.68-.12,1q0,.28-.05.56l4.15.37c0-.28.06-.56.09-.83s.06-.52.09-.77l-4.15-.37" fill="#a90f29"/><path d="M842.83,103.84q-.07.86-.12,1.76l4.16.36q0-.23,0-.45l0-.27V105c0-.27,0-.53.06-.8l-4.15-.37" fill="#ac102a"/><path d="M850.78,137.65l-.51.07h-.06a25.64,25.64,0,0,1-2.84.22h-.46q-.94,0-1.82-.07l4.16.36q.88.08,1.82.08a25.78,25.78,0,0,0,3.87-.31l-4.16-.36" fill="#660919"/><path d="M849.25,138.23l-4.16-.36a24.53,24.53,0,0,0,5.69-.23l4.16.36a23.76,23.76,0,0,1-5.69.23" fill="none"/><polyline points="855.02 88.77 854.93 88.79 859.08 89.14 859.18 89.13 855.02 88.77" fill="#660919"/><polyline points="855.02 88.77 859.18 89.13 859.08 89.14 854.93 88.79 855.02 88.77" fill="none"/><path d="M856.75,88.62a10.82,10.82,0,0,0-1.73.15l4.16.36.14,0a6.43,6.43,0,0,0-2.57-.49" fill="#660919"/><path d="M857.44,88.65l4.16.37a10.34,10.34,0,0,0-2.42.11L855,88.77a9.59,9.59,0,0,1,2.42-.13" fill="none"/><path d="M860.81,78.39c.37,0,.74.08,1.09.13l4.16.37h0c-.35-.05-.71-.09-1.08-.13l-4.16-.37" fill="#720a1c"/><path d="M861.9,78.52q.57.08,1.12.2l.26.06,4.15.37-.25-.06c-.36-.08-.73-.14-1.12-.2l-4.16-.37" fill="#760b1d"/><path d="M863.28,78.77h0q.59.14,1.14.31l4.12.37-.25-.08-.89-.23-4.15-.37" fill="#7a0b1e"/><path d="M864.45,79.09c.33.1.66.22,1,.34l4.11.35-.35-.13-.61-.19-4.12-.37" fill="#7d0c1f"/><path d="M865.42,79.43q.45.17.87.37l4.12.35q-.43-.2-.88-.37l-4.11-.35" fill="#810c20"/><path d="M866.29,79.8c.26.12.51.25.76.38l4.15.37-.47-.25-.31-.15-4.12-.35" fill="#850c21"/><path d="M867,80.18l.71.41,4.13.35-.52-.31-.17-.09L867,80.18" fill="#890d22"/><path d="M867.76,80.6l.21.14.35.24.08.05,4.15.37-.07-.05-.59-.39-4.13-.35" fill="#8d0d23"/><path d="M868.4,81l.61.45,4.14.35-.45-.35-.13-.09L868.4,81" fill="#910d24"/><path d="M869,81.48l.43.36.14.11,4.15.37-.58-.48L869,81.48" fill="#950e24"/><path d="M869.57,81.95l.21.2.2.19.13.12,4.15.37-.54-.51-4.15-.37" fill="#990e25"/><path d="M870.1,82.46l.21.22.12.13.17.18,0,0h0l4.14.35-.51-.54-4.15-.37" fill="#9d0e26"/><path d="M870.63,83a7.12,7.12,0,0,1,.51.6l4.14.35q-.25-.31-.51-.6L870.63,83" fill="#a10f27"/><path d="M871.14,83.61l.17.21,4.16.37-.18-.23-4.14-.35" fill="#a50f28"/><path d="M871.31,83.82l.25.34,0,0,4.16.37,0,0-.25-.34-4.16-.37" fill="#a50f28"/><path d="M871.58,84.19l.15.21.15.22.15.22,4.14.35c-.14-.22-.28-.43-.43-.64l-4.16-.37" fill="#a90f29"/><path d="M872,84.85l.2.34,0,0,.24.42,4.15.35c-.15-.27-.3-.53-.46-.78L872,84.85" fill="#ac102a"/><path d="M872.48,85.63l.12.23q.18.34.34.7l0,.08,4.15.35q-.24-.52-.5-1l-4.15-.35" fill="#b0102b"/><path d="M873,86.64l0,.06,0,.09.15.34v0c.15.37.29.75.42,1.15l4.15.35a17.36,17.36,0,0,0-.65-1.68L873,86.64" fill="#b4112c"/><path d="M873.63,88.32l0,.14h0a23.36,23.36,0,0,1,.92,4.2c0,.28.07.57.1.87l4.16.37a25,25,0,0,0-1.07-5.23l-4.15-.35" fill="#b8112d"/><path d="M874.7,93.54q.15,1.46.19,3.07c0,.09,0,.17,0,.26l4.16.37c0-.08,0-.16,0-.24q0-1.11-.11-2.14c0-.32-.05-.64-.09-.94l-4.16-.37" fill="#b4112c"/><path d="M874.9,96.87c0,.06,0,.13,0,.19,0,.24,0,.48,0,.73q0,1,0,2l4.16.37q0-1,0-1.91,0-.12,0-.23c0-.14,0-.28,0-.42v-.12c0-.08,0-.15,0-.23l-4.16-.37" fill="#b0102b"/><path d="M874.37,111q0,.39-.06.78l4.15.37c0-.26,0-.53.07-.78l-4.16-.37" fill="#ac102a"/><path d="M874.31,111.82q-.09,1-.22,2l4.16.36q.12-1,.21-2l-4.15-.37" fill="#a90f29"/><path d="M874.1,113.84l0,.16,0,.28q-.08.59-.18,1.17v.07l4.16.37c.08-.47.15-.94.21-1.42l0-.28-4.16-.36" fill="#a50f28"/><path d="M873.85,115.52v.07l0,.15-.05.29c-.06.32-.12.63-.18.94l4.15.37c.06-.27.11-.55.16-.83l.11-.62-4.16-.37" fill="#a10f27"/><path d="M873.57,117q-.14.65-.29,1.28l4.15.37c.1-.41.19-.85.29-1.28l-4.15-.37" fill="#9d0e26"/><path d="M873.28,118.25q-.15.61-.32,1.19l4.15.37c.11-.4.22-.8.32-1.19l-4.15-.37" fill="#990e25"/><path d="M873,119.44c-.1.36-.21.73-.33,1.08l4.15.37c.08-.26.17-.52.25-.79l0-.06.07-.24-4.15-.37" fill="#950e24"/><path d="M872.64,120.52q-.16.48-.32.95l0,.09,4.16.36,0-.07.16-.45.16-.5-4.15-.37" fill="#910d24"/><path d="M872.29,121.56l-.12.31-.16.42-.09.24,4.15.37.08-.2.3-.78-4.16-.36" fill="#8d0d23"/><path d="M871.91,122.53v0q-.18.44-.37.87l0,.05,4.15.37.11-.26L876,123l0-.12-4.15-.37" fill="#890d22"/><path d="M871.51,123.47l0,.06q-.18.4-.37.79l0,.06,4.15.37.08-.16.28-.6.07-.15-4.15-.37" fill="#850c21"/><path d="M871.09,124.38l-.12.25-.35.66,4.15.37.35-.66.12-.25-4.15-.37" fill="#810c20"/><path d="M870.61,125.29l-.3.53-.22.38,4.16.36c.18-.3.35-.6.51-.9l-4.15-.37" fill="#7d0c1f"/><path d="M870.09,126.2l-.15.25-.43.67,4.15.37.21-.32.38-.6-4.16-.36" fill="#7a0b1e"/><path d="M869.51,127.11q-.28.43-.59.84l-.1.14,4.16.36.2-.27.48-.7-4.15-.37" fill="#760b1d"/><path d="M868.82,128.09l-.16.21-.5.62-.15.19,4.16.36c.28-.33.55-.67.81-1l-4.16-.36" fill="#720a1c"/><path d="M868,129.11l-.28.32q-.37.42-.75.81l4.15.37.6-.64.18-.2v0l.25-.29-4.16-.36" fill="#6e0a1b"/><path d="M867,130.25q-.73.75-1.54,1.44l4.15.37c.51-.43,1-.89,1.47-1.36l.08-.08-4.15-.37" fill="#6a0a1a"/><path d="M865.43,131.69a22.44,22.44,0,0,1-2.88,2.06l-.22.13-.17.1-.39.22h0a29.19,29.19,0,0,1-9,3.09l4.16.37.53-.1.33-.07.17,0a26.16,26.16,0,0,0,11.63-5.41l-4.15-.37" fill="#660919"/></g><g id="L1"><polyline points="798.77 113.4 798.38 122.02 802.54 122.39 802.93 113.75 798.77 113.4" fill="#b5112c"/><path d="M798.39,122v.24l4.15.35c0-.08,0-.15,0-.23l-4.16-.37" fill="#ac102a"/><path d="M798.39,122.26c0,.64,0,1.38,0,2.13l4.15.37c0-.75,0-1.5,0-2.15l-4.15-.35" fill="#b0102b"/><path d="M798.37,124.39c0,1,.07,2.09.15,2.89l4.16.36c-.08-.79-.14-1.84-.16-2.87l-4.15-.37" fill="#b4112c"/><path d="M798.52,127.28v.1c0,.24.05.45.09.63.07.37.14.71.23,1s.12.44.19.65v0l4.15.36a11.55,11.55,0,0,1-.33-1.21l0-.16v-.05l-.05-.28c0-.21-.07-.46-.1-.74l-4.16-.36" fill="#b8112d"/><path d="M799,129.73l0,.09,0,.1q.08.23.17.45l.08.17,4.16.37h0a5.45,5.45,0,0,1-.24-.58l-.08-.23-4.15-.36" fill="#b4112c"/><path d="M799.37,130.54l.07.16.16.31,4.15.35-.07-.15-.08-.15,0-.06,0-.09-4.16-.37" fill="#b0102b"/><path d="M799.59,131l.08.15.12.19,4.16.37-.1-.16,0,0-.09-.16-4.15-.35" fill="#ac102a"/><path d="M799.79,131.35l.19.28,4.16.37-.05-.08,0-.05-.11-.15-4.16-.37" fill="#a90f29"/><path d="M800,131.63l.09.12.1.14,4.15.35-.16-.21,0,0-4.16-.37" fill="#a50f28"/><path d="M800.18,131.89l.11.13.08.08,4.16.37-.05-.06-.14-.16-4.15-.35" fill="#a10f27"/><path d="M800.36,132.1l.08.09.11.11,4.15.35-.13-.13-.05-.05-4.16-.37" fill="#9d0e26"/><path d="M800.55,132.3l.1.1.09.08,4.15.35-.2-.19-4.15-.35" fill="#990e25"/><path d="M800.75,132.49l.12.1.08.07,4.15.35-.2-.17-4.15-.35" fill="#950e24"/><path d="M800.95,132.66l0,0,.16.12,4.16.37-.05,0-.17-.13-4.15-.35" fill="#910d24"/><path d="M801.16,132.81l.24.17h0l4.15.35-.15-.1-.09-.06-4.16-.37" fill="#8d0d23"/><path d="M801.41,133h0l.26.14,4.16.37h0l-.27-.16-4.15-.35" fill="#890d22"/><path d="M801.67,133.12l.3.16,4.16.37-.12-.06-.16-.08h0l-4.16-.37" fill="#850c21"/><path d="M802,133.28l.35.14,4.16.37h0l-.17-.07-.14-.06-4.16-.37" fill="#810c20"/><path d="M802.32,133.42l.23.1.1,0,3.31.28.53,0h0l-4.16-.37" fill="#7d0c1f"/><path d="M802.65,133.55l.33.09.11,0,2.21.19.65,0-3.31-.28" fill="#7a0b1e"/><path d="M803.09,133.67h.05l.26,0,.28,0,.93.08h.7l-2.21-.19" fill="#760b1d"/><path d="M803.68,133.77h0l.2,0,.7.05-.93-.08" fill="#720a1c"/><path d="M804.95,144.38a19.67,19.67,0,0,1-3.19.27q-.71,0-1.39-.06l4.16.36q.71.06,1.47.07a19.23,19.23,0,0,0,3.12-.26l-4.16-.37" fill="#660919"/><path d="M810.59,97.58l-.31.06-.09,0-.25,0h-.06l-.31.06h0l-.29.07h0a13.43,13.43,0,0,0-5.82,2.69l4.16.37a13.35,13.35,0,0,1,5.95-2.72l.09,0,.17,0,.25-.05.11,0,.22,0,.09,0,.31-.06-4.16-.37" fill="#660919"/><path d="M803.41,100.54c-.23.2-.44.4-.62.58l4.16.37.13-.13,0,0,.09-.08.37-.33-4.16-.37" fill="#6a0a1a"/><path d="M802.79,101.12c-.19.2-.35.37-.47.53l4.15.37.2-.23.21-.23.07-.07-4.16-.37" fill="#6e0a1b"/><path d="M802.32,101.65l0,0-.16.2-.19.25,4.16.37,0-.05c.1-.14.2-.26.31-.39l0,0-4.15-.37" fill="#720a1c"/><path d="M801.93,102.13l-.33.47,4.16.37.33-.47-4.16-.37" fill="#760b1d"/><path d="M801.6,102.6l-.29.47,4.16.36,0,0,.26-.41-4.16-.37" fill="#7a0b1e"/><path d="M801.31,103.07c-.06.09-.12.19-.18.3l-.09.16,4.16.37.17-.3.1-.16-4.16-.36" fill="#7d0c1f"/><path d="M801,103.53l-.25.48,4.17.35,0,0q.07-.16.17-.33l.06-.11-4.16-.37" fill="#810c20"/><path d="M800.79,104l0,.09c-.06.13-.12.27-.18.41l4.16.36.23-.5-4.17-.35" fill="#850c21"/><path d="M800.57,104.51c-.08.16-.14.32-.22.48l0,0,4.17.36.22-.53-4.16-.36" fill="#890d22"/><path d="M800.33,105l0,.05-.19.5,4.16.36c.06-.15.11-.3.18-.45l0-.1-4.17-.36" fill="#8d0d23"/><path d="M800.13,105.59l-.21.6,4.16.37.21-.61-4.16-.36" fill="#910d24"/><path d="M799.92,106.18l-.12.38-.08.29,4.16.37,0-.16c0-.17.1-.34.15-.51l-4.16-.37" fill="#950e24"/><path d="M799.72,106.85l-.12.44-.07.28,4.16.36v0c0-.12.06-.25.09-.37l.08-.3-4.16-.37" fill="#990e25"/><path d="M799.53,107.58l-.07.27,0,.11,4.15.37,0-.11.07-.28-4.16-.36" fill="#9d0e26"/><path d="M799.44,108c0,.16-.07.36-.11.6l4.16.36,0-.22.05-.27,0-.09-4.15-.37" fill="#a10f27"/><path d="M799.32,108.56c-.07.41-.15.91-.22,1.48l0,.13,4.15.37c.07-.53.14-1,.21-1.42l0-.2-4.16-.36" fill="#a50f28"/><path d="M799.09,110.17l0,.19c-.08.63-.16,1.33-.22,2l4.15.37c.06-.69.14-1.37.22-2l0-.2-4.15-.37" fill="#a90f29"/><path d="M798.85,112.37c0,.34-.06.69-.08,1l4.16.36c0-.33,0-.67.07-1l-4.15-.37" fill="#ac102a"/><polyline points="819.46 96.08 810.59 97.58 814.75 97.95 823.62 96.45 819.46 96.08" fill="#620918"/><polyline points="817 142.34 814.53 142.76 804.95 144.38 809.1 144.75 814.53 143.83 816.06 143.57 818.21 143.21 821.16 142.71 817 142.34" fill="#620918"/><path d="M826.26,84.72a2.33,2.33,0,0,1,0,.32v0l4.17.36h0a2.8,2.8,0,0,1,0-.33l-4.17-.37" fill="#ac102a"/><path d="M826.23,85.08v.13c0,.2,0,.45-.07.74l4.16.37v-.07c0-.34.06-.61.09-.81h0l-4.17-.36" fill="#a90f29"/><path d="M826.14,85.94c0,.27-.08.58-.14.91l4.16.37v-.05c0-.29.08-.55.12-.78v-.07l-4.16-.37" fill="#a50f28"/><path d="M826,86.85c-.06.27-.1.55-.17.85l4.16.37,0-.19q.07-.35.12-.67L826,86.85" fill="#a10f27"/><path d="M825.84,87.71v0c-.05.24-.11.5-.17.75l4.16.37c.05-.21.1-.41.14-.61l0-.15-4.16-.37" fill="#9d0e26"/><path d="M825.67,88.48l-.13.52h0l0,.16,4.16.37.07-.23.12-.46-4.16-.37" fill="#990e25"/><path d="M825.48,89.17l0,.11,0,.11-.13.41,4.16.37.07-.23.12-.4-4.16-.37" fill="#950e24"/><path d="M825.29,89.8l-.09.26,0,.07,0,.13,0,.12,4.16.37,0-.11.06-.16.1-.31-4.16-.37" fill="#910d24"/><path d="M825.1,90.38l0,0-.07.18,0,.09h0l0,.09,0,.11,4.15.37,0-.1.16-.42-4.16-.37" fill="#8d0d23"/><path d="M824.89,90.91l0,.09a2.94,2.94,0,0,1-.12.29l0,.1,4.16.37.17-.39,0-.09-4.15-.37" fill="#890d22"/><path d="M824.69,91.39l-.15.32-.06.15,4.15.36.21-.46-4.16-.37" fill="#850c21"/><path d="M824.47,91.86l-.22.43,4.15.36,0-.07.08-.14.11-.21-4.15-.36" fill="#810c20"/><path d="M824.25,92.29l-.1.17-.14.24,4.16.35.24-.41-4.15-.36" fill="#7d0c1f"/><path d="M824,92.7l-.25.4,4.16.36.2-.31.06-.09L824,92.7" fill="#7a0b1e"/><path d="M823.76,93.1l-.18.26-.09.13,4.16.36.28-.4-4.16-.36" fill="#760b1d"/><path d="M823.48,93.5l-.3.38,4.15.37.18-.22.14-.18-4.16-.36" fill="#720a1c"/><path d="M823.18,93.88c-.12.14-.25.28-.39.43l4.16.36,0,0,.35-.39-4.15-.37" fill="#6e0a1b"/><path d="M822.79,94.31l-.13.13-.32.29-.06,0,4.16.36a5.29,5.29,0,0,0,.51-.47l-4.16-.36" fill="#6a0a1a"/><path d="M822.28,94.78A5.79,5.79,0,0,1,819.77,96h0l-.27.05,4.16.37a5.8,5.8,0,0,0,1.79-.62l.07,0,.08,0a6.2,6.2,0,0,0,.87-.62l-4.16-.36" fill="#660919"/><path d="M824.32,130.88v0l4.16.36v0l-4.16-.37" fill="#b0102b"/><path d="M824.32,130.92c0,.1,0,.37,0,.73l4.15.37c0-.38,0-.64,0-.74l-4.16-.36" fill="#ac102a"/><path d="M824.28,131.65l0,.29c0,.16,0,.34-.06.53l4.15.37c0-.22.05-.42.07-.6l0-.23-4.15-.37" fill="#a90f29"/><path d="M824.19,132.47l0,.2c0,.2-.06.4-.09.61l4.15.37c0-.21.07-.42.09-.61l0-.2-4.15-.37" fill="#a50f28"/><path d="M824.07,133.28c0,.18-.07.37-.11.57l0,.19,4.15.36.07-.31.08-.43-4.15-.37" fill="#a10f27"/><path d="M823.92,134c0,.22-.1.44-.15.67l4.16.36,0-.14.07-.3,0-.23-4.15-.36" fill="#9d0e26"/><path d="M823.77,134.7l0,.07c0,.18-.09.35-.14.53l4.15.37.11-.39,0-.22-4.16-.36" fill="#990e25"/><path d="M823.62,135.3c0,.17-.1.34-.16.5l0,.07,4.15.37,0-.13.13-.44-4.15-.37" fill="#950e24"/><path d="M823.44,135.87l0,.11c0,.15-.09.29-.15.43l4.16.36,0-.09.06-.18.08-.26-4.15-.37" fill="#910d24"/><path d="M823.26,136.41c-.06.16-.12.31-.18.47l4.15.37.15-.4,0-.09-4.16-.36" fill="#8d0d23"/><path d="M823.08,136.88,823,137l-.15.35,4.16.37.2-.47-4.15-.37" fill="#890d22"/><path d="M822.88,137.35l0,.07c0,.12-.11.25-.16.37l4.15.36.2-.43-4.16-.37" fill="#850c21"/><path d="M822.68,137.79l-.22.41,4.15.37.22-.43-4.15-.36" fill="#810c20"/><path d="M822.46,138.2l-.23.41,4.15.37.24-.41-4.15-.37" fill="#7d0c1f"/><path d="M822.22,138.62l-.09.14L822,139l4.15.37.17-.26.09-.14-4.15-.37" fill="#7a0b1e"/><path d="M822,139l-.25.36,0,0,4.16.37,0,0,.25-.36L822,139" fill="#760b1d"/><path d="M821.68,139.41l0,0-.12.16-.17.22,4.15.37.18-.22.12-.16,0,0-4.16-.37" fill="#720a1c"/><path d="M821.35,139.84l-.4.44,4.16.36.2-.2.2-.22-4.15-.37" fill="#6e0a1b"/><path d="M821,140.28c-.17.16-.33.33-.51.48l4.16.36c.18-.16.35-.31.51-.48l-4.16-.36" fill="#6a0a1a"/><path d="M820.44,140.76a7,7,0,0,1-3.44,1.58l4.16.37a7.71,7.71,0,0,0,1-.26,6.93,6.93,0,0,0,1.61-.76l.09-.06.12-.08.11-.07.1-.08.1-.07.27-.22-4.16-.36" fill="#660919"/><path d="M826.26,84.72l-17.83,3a28,28,0,0,0-5.48,1.49c-9.83,3.74-14.82,12.19-15.47,25.18l-.41,9.84c-.25,6.8.86,11.65,3.34,14.89a13.91,13.91,0,0,0,11.41,5.48,19.48,19.48,0,0,0,3.14-.26l9.58-1.62,2.47-.42a7.09,7.09,0,0,0,2.14-.71c4.91-2.57,5.17-10.3,5.18-10.75l-16,2.69c-.63.1-1.26.18-1.87.23l-.53,0-.65,0h-.7l-.7-.05a7.64,7.64,0,0,1-.78-.12h0l-.11,0-.42-.12a5.64,5.64,0,0,1-1.14-.54h0c-.14-.09-.27-.18-.4-.28l0,0-.08-.07-.21-.19-.1-.1-.11-.11-.16-.17-.11-.13-.1-.14a5.78,5.78,0,0,1-.39-.6l-.08-.15-.16-.31-.15-.33q-.09-.22-.17-.45l0-.1,0-.09v0q-.1-.31-.19-.65c-.08-.32-.16-.67-.23-1,0-.18-.06-.39-.09-.63a41.06,41.06,0,0,1-.15-5.36l.39-8.62a44.37,44.37,0,0,1,.69-5.55,14.8,14.8,0,0,1,2.82-6.16c.86-1,2.91-3.2,8.31-4.11l8.87-1.49c6.16-1,6.77-10.85,6.79-11.37" fill="#7e0c1f"/></g></g>
</svg>