<svg xmlns="http://www.w3.org/2000/svg" viewBox="0 0 453.61 173.73"><defs><style>.grey-stroke,.medium-blue-stroke,.medium-blue-stroke-white{fill:none;stroke:#969c9c;stroke-linecap:round;stroke-linejoin:round;stroke-width:1.5px}.medium-blue-stroke,.medium-blue-stroke-white{fill:#fff;stroke:#3f4563}.medium-blue-stroke{fill:none}.medium-blue{fill:#3f4563}.bright-red{fill:red}.fly-line1,.fly-line2{fill:none;stroke:#969c9c;stroke-linecap:round;stroke-linejoin:round;stroke-width:1.5px;stroke-dasharray:5.88 3.92 10.78 5.88}.fly-line2{stroke-dasharray:3.92 10.78 5.88 3.92 10.78 5.88}</style></defs><g opacity=".3"><path d="M129.35 123.33l1.35-1.47" class="grey-stroke"/><path d="M138.08 114.14c4.25-4.32 9.93-9.92 16.74-16.22" class="fly-line1"/><path d="M157 95.95c48.43-44.36 149.31-119.76 209.4-44.53" class="fly-line2"/><path d="M368.2 53.73l1.19 1.6" class="grey-stroke"/></g><g opacity=".3"><path d="M109 70.57l1.64-1.14" class="grey-stroke"/><path d="M120.28 63.1a464.59 464.59 0 0 1 21.7-12.87" class="fly-line1"/><path d="M144.74 48.7C215.37 9.89 372.64-54 450.47 91.53" class="fly-line2"/><path d="M451.95 94.33l.92 1.78" class="grey-stroke"/></g><path d="M99.43 75c.85-3.73 2.2-5.7 3.44-6.74a15.46 15.46 0 0 0-1.73 1c.25-.37.46-.73.65-1.08-1.08 1.2-3.1 2.47-6.86 3.2a16.88 16.88 0 0 0-7.78 3.6 39.77 39.77 0 0 0 3.56-7.31A5.65 5.65 0 0 1 87 70.11C69.53 77.89 79.7 91 80 91.4l.78-.88c3.89 2.36 13.12 6 19.69-7.48A5.65 5.65 0 0 1 103 79.4a39.76 39.76 0 0 0-7.43 3.3 16.88 16.88 0 0 0 3.86-7.7zm-9.79 5.44l.43-.49c-.13-3 3.2-4.82 3.2-4.82a14.49 14.49 0 0 0 4-1.94 14.56 14.56 0 0 0-1.65 3.34s-1.9 3.26-4.93 3zM71.46 95.36a37.31 37.31 0 0 1 3.75 5.27S61.42 135.1 42 153 1.19 167.14 1.19 167.14v-.06s-4.16-21.25 13.42-41 51.8-34.14 51.8-34.14a37.34 37.34 0 0 1 5.05 3.43zm-6.36-4.09l-15.69-7.09-15.34 14.13 3.5 8.56" class="medium-blue-stroke-white"/><path d="M26.28 163.28c3.44-4.51-7.6-15.18-7.6-15.18-10.37-9.9-14-6.24-14-6.24l-1.51 4s3.72-3.57 12.74 5c0 0 9.88 9.77 6.27 13.92zM46.08 109.9l5-19.89L68.6 72.86l2.2 9.25L61.24 91l3.95 2 .13 2.69-.66.51zM66.79 72L49.21 89.32l-4.9 19.3 1.77 1.28 5-19.89L68.6 72.7l-.69-.24zM62.61 126.2l-2.25-.78 11.08-18.06L83 102.11l13.91 6.94-14.41 16.27-22.13.09m.91 2l22.18.14 14.41-16.9-.55-1.57-.41-.06-14.41 16.3-22.13.09.91 2z" class="medium-blue-stroke-white"/><path d="M80.14 113.24S75.86 97.05 61.24 91l9.56-8.86s14.78 6.68 17.51 22.6zm0 0S75.86 97.05 61.24 91l.25 1.92c12 6 16.44 18.49 16.44 18.49zM82.5 125.32l.78 1.9M119.51 129.11a22.7 22.7 0 0 1 2.28 3.21s-8.39 21-20.22 31.87-24.8 8.59-24.8 8.59-2.53-12.92 8.17-24.95 31.5-20.83 31.5-20.83a22.71 22.71 0 0 1 3.07 2.08zm-3.87-2.49l-9.54-4.31-9.33 8.6 2.13 5.21" class="medium-blue-stroke-white"/><path d="M92 170.43c2.09-2.74-4.63-9.23-4.63-9.23-6.31-6-8.5-3.79-8.5-3.79l-.87 2.42s2.26-2.17 7.75 3.07c0 0 6 5.94 3.81 8.47zM104.07 138l3-12.1 10.67-10.43 1.34 5.63-5.81 5.39 2.4 1.23.08 1.64-.4.31zm13.06-22.87l-10.66 10.45-3.1 11.9.7.51 3-12.1 10.66-10.53-.42-.15zM114.13 147.87H113l6.52-11.48 7-3.19 9 4.31-9.05 10.3h-12.38m-.82.76l13.49.09 8.77-10.28v-.91l-9 10.32H113l.33.75z" class="medium-blue-stroke-white"/><path d="M124.79 140s-2.6-9.85-11.49-13.55l5.81-5.39s9 4.06 10.65 13.75zm0 0s-2.61-9.85-11.51-13.55l.14.71c8 3.74 10.45 12.07 10.45 12.07z" class="medium-blue-stroke-white"/><path d="M109 155.62a12.69 12.69 0 0 0 .78-3.92c.11-4.59-3.07-6.52-7.1-4.32a15.91 15.91 0 0 0-7.48 12.3c-.09 4.11 2.44 6.09 5.86 4.88M43.36 121.62c-5.65 3.09-10.19 11.12-10.14 17.93s4.68 9.82 10.33 6.73 10.19-11.12 10.14-17.93-4.69-9.82-10.33-6.73z" class="medium-blue-stroke"/><path d="M44.66 135.83l2.41 3.66c-2.27 2.83-5 4.2-7.12 3.89l2.34-6.27a2.79 2.79 0 0 0 2.37-1.28zm-2.41-3.65l-2.42-3.66a15.61 15.61 0 0 0-3.5 9.38l4.75-2.6a5.17 5.17 0 0 1 1.16-3.11zm8.32-2.07a7 7 0 0 0-1-3.77 3.74 3.74 0 0 0-2.57-1.71l-2.34 6.27a1.22 1.22 0 0 1 .88.56 2.36 2.36 0 0 1 .32 1.26zm-6 2.49c-.37-.56-1.17-.38-1.79.4a2.31 2.31 0 0 0-.46 2.41c.37.56 1.17.38 1.79-.4a2.31 2.31 0 0 0 .47-2.41zM103.28 156.93l1.62 2.42c-1.65 2-3.58 2.94-5.07 2.77l1.77-4.27a2.12 2.12 0 0 0 1.68-.92zm-1.61-2.41l-1.62-2.42a10.91 10.91 0 0 0-2.65 6.39l3.39-1.85a3.62 3.62 0 0 1 .88-2.12zm5.88-1.57a4.35 4.35 0 0 0-.61-2.52 2.44 2.44 0 0 0-1.81-1.1l-1.77 4.28a.8.8 0 0 1 .61.36 1.48 1.48 0 0 1 .2.84zm-4.25 1.8c-.25-.37-.81-.23-1.26.31a1.55 1.55 0 0 0-.37 1.63c.24.37.81.23 1.26-.31a1.56 1.56 0 0 0 .37-1.63zM9.47 140.08a.77.77 0 0 1 .13-.42c.19-.29.5-.45.71-.35s.22.43 0 .72-.5.45-.71.34a.33.33 0 0 1-.17-.31m-2.93-.39a.3.3 0 0 0 .15.28c.19.09.48-.05.65-.33s.17-.58 0-.68-.48.06-.66.34a.75.75 0 0 0-.12.39m7.09 2.22a.52.52 0 0 0 .22.43.8.8 0 0 0 .85-1.29.7.7 0 0 0-.91.33.92.92 0 0 0-.16.53m8.18 7a.52.52 0 0 0 .07.48.81.81 0 0 0 1.2-1 .7.7 0 0 0-1 0 .92.92 0 0 0-.31.45m3.15 4a.52.52 0 0 0 0 .48.77.77 0 1 0 .29-.89.87.87 0 0 0-.33.42M17.81 145a.59.59 0 0 0 .16.51.85.85 0 0 0 1.13-1.19.75.75 0 0 0-1 .15.94.94 0 0 0-.26.53m9.5 12.06a.4.4 0 0 0-.08.36c.07.23.38.32.7.22s.51-.38.44-.6a.53.53 0 0 0-.7-.22.74.74 0 0 0-.35.24m1 3.41a.35.35 0 0 0 0 .33c.09.2.39.26.67.13s.44-.39.36-.59a.5.5 0 0 0-.68-.13.7.7 0 0 0-.31.25" class="medium-blue"/><path d="M19.57 158.2l1.46.55a33.59 33.59 0 0 0-5.48-7.28L15 151l-.2.13-1.57-.59.51 1.11-.78-.17a4.53 4.53 0 0 0-.26-.83l.72-1-.34-.27-1 .23a4 4 0 0 0-.63-.61l.16-.72-.58-.37-.65.49h-.18l.82-.46-.29-.18-1.26-.37a3.78 3.78 0 0 0-.16-.37c-3.74-1.68-5.4-.17-5.44-.13a47.82 47.82 0 0 0-1.48 5.86l.46-.26a3.86 3.86 0 0 0 .9.63v.19l-.36.24.31.07-.2 1.08a4.34 4.34 0 0 0-.68.46l-.82-.4-.14 1.11v.11l-.08.15a44.72 44.72 0 0 0-.27 4.69l.19.34-.19.54v.82l.89-.5a3.86 3.86 0 0 0 .9.63v1.36l-.56.37 1.68.35a4.38 4.38 0 0 0 .45.91l-.34 1h.83l.23-.13.17.14a43.75 43.75 0 0 0 6.11-.31l-.3-.66c.06-.08.1-.17.15-.26l.3.06a4.19 4.19 0 0 0 .38.79 47.56 47.56 0 0 0 7.78-1.71l-.21-.19a4.81 4.81 0 0 0 .06-.93l1.44-.81-1.66-.49a4.37 4.37 0 0 0-.6-1.15l.57-1.63-1.33.75.13-1.4a4.28 4.28 0 0 0 .99-.51zm-15.24 5.24l-.72.48.74-.95a4.69 4.69 0 0 0-.02.47zm.4-9.28l-.28-.47.46.1c0 .12.08.23.11.35zm4.61 4.08zm3.71-5.43l.73-.48a4.66 4.66 0 0 0-.29.53h-.45zm.1 1.31L13 154zm1.15 5.71a4.34 4.34 0 0 0-.68.46l-1.57-.59.69 1.52c-.06.09-.1.19-.15.28l-.25-.07a4.37 4.37 0 0 0-.6-1.15l.57-1.63-1.36.77a3.84 3.84 0 0 0-.78-.47l-.11-1.13.7-.39-1.17-.35v-.11a4 4 0 0 0 1.05-.37l1.08.85-.19-1.45a4.59 4.59 0 0 0 .84-1h.76l-1.45 1 1.68.35a4.39 4.39 0 0 0 .45.91l-.56 1.58 1.28-.72.1.08zm.71-1.35a3.24 3.24 0 0 0 .4.24v.47zm1.64.9a4.22 4.22 0 0 0-.54 0l.26-.33a3.63 3.63 0 0 0 .5.05zm1.11.3v-.48l.58.8a3.92 3.92 0 0 0-.56-.32zM87.72 167.28l.85.31a19.54 19.54 0 0 0-3.21-4.21l-.31-.28-.11.07-.91-.34.3.64-.46-.09a2.61 2.61 0 0 0-.15-.48l.41-.6-.2-.16-.6.14a2.32 2.32 0 0 0-.37-.35l.09-.42-.34-.21-.37.29h-.11l.47-.27-.19-.11-.71-.2a2.23 2.23 0 0 0-.09-.21c-2.19-1-3.15-.07-3.16-.05a27.77 27.77 0 0 0-.84 3.41L78 164a2.24 2.24 0 0 0 .53.36v.11l-.21.14h.18l-.11.63a2.5 2.5 0 0 0-.39.27l-.45-.17c0 .22-.06.44-.08.65v.15a26 26 0 0 0-.14 2.7c0 .08.07.16.11.23l-.11.31v.48l.51-.3a2.24 2.24 0 0 0 .53.36v.79l-.32.22 1 .2a2.55 2.55 0 0 0 .26.53l-.19.56h.48l.13-.08.12.08a25.45 25.45 0 0 0 3.53-.21l-.18-.38.08-.15h.17a2.45 2.45 0 0 0 .23.45 27.59 27.59 0 0 0 4.51-1l-.12-.11a2.8 2.8 0 0 0 0-.54l.83-.47-1-.28a2.53 2.53 0 0 0-.35-.67l.33-.95-.77.44.07-.82a2.49 2.49 0 0 0 .54-.25zm-8.83 3.1l-.42.28.43-.55a2.7 2.7 0 0 0 0 .27zm.2-5.39l-.16-.27.27.06c0 .07 0 .14.07.21zm2.69 2.35zm2.13-3.17l.42-.28a2.66 2.66 0 0 0-.17.31h-.26zm.07.76l-.08-.08zm.69 3.31a2.5 2.5 0 0 0-.39.27l-.91-.34.41.88c0 .05-.06.11-.09.16h-.14a2.54 2.54 0 0 0-.35-.67l.33-.95-.79.45a2.22 2.22 0 0 0-.45-.27l-.07-.66.4-.23-.68-.2v-.06a2.32 2.32 0 0 0 .61-.22l.63.49L83 166a2.67 2.67 0 0 0 .48-.59H84l-.84.56 1 .2a2.56 2.56 0 0 0 .26.53l-.32.92.74-.43h.06zm.39-.83a1.86 1.86 0 0 0 .26.18v.27zm1 .56a2.35 2.35 0 0 0-.33 0l.17-.21h.29zm.65.17v-.28l.34.46a2.28 2.28 0 0 0-.36-.17z" class="bright-red"/></svg>