<?xml version="1.0" encoding="utf-8"?>
<!-- Generator: Adobe Illustrator 21.1.0, SVG Export Plug-In . SVG Version: 6.00 Build 0)  -->
<svg version="1.1" id="m-bug" xmlns="http://www.w3.org/2000/svg" xmlns:xlink="http://www.w3.org/1999/xlink" x="0px" y="0px"
	 viewBox="0 0 37.8 35.1" style="enable-background:new 0 0 37.8 35.1;" xml:space="preserve">
<style type="text/css">
	.st0{opacity:0.5;fill:#2F3449;enable-background:new    ;}
</style>
<path id="bug" class="st0" d="M37.3,20.4l-1.4-0.2c-0.1,0-0.2,0-0.3,0.1l-3.7,2L29,20.9c0.4-1.3,0.5-2.8,0.4-4.2l1.9-0.4
	c0.1,0,0.3-0.1,0.3-0.2l1.9-3.5l0.9-0.3c0.3-0.1,0.4-0.4,0.3-0.6s-0.4-0.4-0.6-0.3L33,11.7c-0.1,0-0.2,0.1-0.3,0.2l-1.9,3.4
	l-1.6,0.3c-0.2-1.5-0.6-2.6-0.6-2.7c-0.9-3.1-1.4-4.4-1.4-4.4c-0.3-1.2-0.9-1.7-1.3-2l0,0c-0.1-0.1-0.9-0.8-2.6-0.3
	c0,0-1.4,0.3-4.6,1c-0.1,0-2.3,0.5-4.4,1.6L13,5.7L15.4,2c0.1-0.1,0.1-0.2,0.1-0.3V0.6c0-0.3-0.2-0.5-0.5-0.5l0,0
	c-0.3,0-0.5,0.2-0.5,0.5v0.9l-2.4,3.8C12,5.6,12,5.8,12,5.9l1.5,3.4c-0.9,0.6-1.7,1.3-2.3,2.1c0,0-0.4,0.5-0.8,1.4l-3.1-1.9l0.2-5
	c0-0.2-0.1-0.4-0.3-0.5L5.9,4.6c-0.2-0.1-0.5,0-0.7,0.2C5.1,5,5.2,5.3,5.4,5.5l1.1,0.6l-0.2,5c0,0.2,0.1,0.3,0.2,0.4l3.4,2.2
	c-0.5,1.4-0.9,3.4-0.4,5.7l-4.8,2.1l-3.3-0.1c-0.1,0-0.3,0-0.4,0.1l-0.8,0.8C0,22.5,0,22.8,0.2,23c0.1,0.1,0.2,0.1,0.4,0.1
	c0.1,0,0.3,0,0.4-0.1l0.6-0.6l3.2,0.1c0.1,0,0.1,0,0.2,0l4.8-2.1c0.3,0.7,0.6,1.5,1.1,2.3c-0.4,0.7-0.7,1.5-0.7,2.4s0.3,1.7,0.7,2.4
	C10.1,28,9,28.9,8.7,30.2c-0.1,0.3,0.1,0.5,0.4,0.6h0.1c0.2,0,0.4-0.2,0.5-0.4c0.2-1.1,1.3-1.8,1.8-2.1c0.8,0.8,1.9,1.3,3,1.3
	c0.4,1.6-0.5,2.6-0.6,2.7c-0.2,0.2-0.2,0.5,0,0.7c0.1,0.1,0.2,0.1,0.3,0.1s0.3-0.1,0.4-0.2c0.1-0.1,1.3-1.4,0.9-3.4
	c1.3-0.2,2.4-1,3-2.1c0.2,0,0.4,0,0.6,0c1.8,0,3.3-0.4,4.5-0.9l0.7,4.1c0,0.1,0,0.1,0.1,0.2l1.6,2.6l0,0.9c-0.1,0.3,0.1,0.5,0.3,0.6
	h0.1c0.2,0,0.4-0.1,0.5-0.4l0.3-1.1c0-0.1,0-0.3-0.1-0.4l-1.7-2.7L24.8,26c2.4-1.4,3.5-3.5,3.8-4.2l3.1,1.5c0.1,0,0.1,0.1,0.2,0.1
	s0.2,0,0.2-0.1l3.8-2.1l1.2,0.1c0.3,0,0.5-0.2,0.6-0.4C37.7,20.7,37.6,20.4,37.3,20.4z M11.3,25c0-0.5,0.1-1,0.3-1.4
	c0,0,0,0,0.1,0.1c0.2,0.3,0.4,0.6,0.7,0.8l0,0c0.2,0.2,0.5,0.5,0.7,0.7c0,0,0.1,0,0.1,0.1c1.6,1.3,3.4,1.8,4.4,2
	c-0.7,0.8-1.7,1.3-2.7,1.3C12.9,28.6,11.3,27,11.3,25z M18.6,26.4c0,0-0.1,0-0.2,0l0,0c-0.7-0.1-3-0.4-4.9-2.1l0,0
	c-0.2-0.1-0.3-0.3-0.5-0.5l0,0c-0.1-0.2-0.3-0.3-0.4-0.5c0,0,0,0-0.1-0.1c-0.1-0.2-0.3-0.4-0.4-0.6l0,0c0,0,0,0,0-0.1
	c0,0,0-0.1-0.1-0.1l0,0c-3.6-5.7-0.1-10.1,0-10.4c0.5-0.8,1.4-1.5,2.3-2l0,0c0.1,0,0.1-0.1,0.1-0.1c2.1-1.2,4.4-1.7,4.5-1.7
	c3.1-0.7,4.5-1,4.6-1c0.3-0.1,0.6-0.1,0.9-0.1s0.6,0.1,0.7,0.1c0.1,0.1,0.1,0.1,0.2,0.2c0,0,0.6,0.3,1,1.5c0,0,0.5,1.3,1.4,4.4
	c0,0,1.6,5,0.1,7.9C27.7,21.3,25.6,26.8,18.6,26.4z M25.5,12.5c0.7,2.3,1.5,5.2,0.4,7.7c-1,2.4-3.1,4-5.7,4.6c-0.1,0-0.2,0-0.3,0
	c-0.1,0-0.1,0-0.2,0c-0.3-0.1-0.4-0.3-0.4-0.6c0.1-0.2,0.3-0.4,0.5-0.4l0,0c2.3-0.5,4.2-2,5.1-4.1c0.9-2.2,0.3-4.9-0.4-7
	c-0.1-0.3,0.1-0.5,0.3-0.6C25.1,12.1,25.4,12.3,25.5,12.5z"/>
</svg>
